<?xml version="1.0" encoding="UTF-8"?>
<!DOCTYPE xmeml>
<xmeml version="5">
<bin>
	<uuid>CCC74DAE-9C9E-4F9B-9CBD-A27CD3D751F3</uuid>
	<updatebehavior>add</updatebehavior>
	<name>1-A 3D Printing</name>
	<children>
		<bin>
			<uuid>5668B04A-FEE1-431A-9954-5B33782B4DC6</uuid>
			<updatebehavior>add</updatebehavior>
			<name>Hack Manhattan</name>
			<children>
				<bin>
					<uuid>FFB7E384-0391-482F-BAC0-0BAB67DB5BA4</uuid>
					<updatebehavior>add</updatebehavior>
					<name>Assembly</name>
					<children>
						<sequence id="Assembly Interview Matthew Duepner">
							<uuid>57AD1528-C2A9-498F-96F4-7F647263E6E1</uuid>
							<updatebehavior>add</updatebehavior>
							<name>Assembly Interview Matthew Duepner</name>
							<duration>14385</duration>
							<rate>
								<ntsc>TRUE</ntsc>
								<timebase>24</timebase>
							</rate>
							<timecode>
								<rate>
									<ntsc>TRUE</ntsc>
									<timebase>24</timebase>
								</rate>
								<string>00:00:00:00</string>
								<frame>0</frame>
								<source>source</source>
								<displayformat>NDF</displayformat>
							</timecode>
							<in>-1</in>
							<out>-1</out>
							<media>
								<video>
									<format>
										<samplecharacteristics>
											<width>640</width>
											<height>360</height>
											<anamorphic>FALSE</anamorphic>
											<pixelaspectratio>Square</pixelaspectratio>
											<fielddominance>none</fielddominance>
											<rate>
												<ntsc>TRUE</ntsc>
												<timebase>24</timebase>
											</rate>
											<colordepth>24</colordepth>
											<codec>
												<name>Apple ProRes 422</name>
												<appspecificdata>
													<appname>Final Cut Pro</appname>
													<appmanufacturer>Apple Inc.</appmanufacturer>
													<appversion>7.0</appversion>
													<data>
														<qtcodec>
															<codecname>Apple ProRes 422</codecname>
															<codectypename>Apple ProRes 422</codectypename>
															<codectypecode>apcn</codectypecode>
															<codecvendorcode>appl</codecvendorcode>
															<spatialquality>1024</spatialquality>
															<temporalquality>0</temporalquality>
															<keyframerate>0</keyframerate>
															<datarate>0</datarate>
														</qtcodec>
													</data>
												</appspecificdata>
											</codec>
										</samplecharacteristics>
										<appspecificdata>
											<appname>Final Cut Pro</appname>
											<appmanufacturer>Apple Inc.</appmanufacturer>
											<appversion>7.0</appversion>
											<data>
												<fcpimageprocessing>
													<useyuv>TRUE</useyuv>
													<usesuperwhite>TRUE</usesuperwhite>
													<rendermode>Float10BPP</rendermode>
												</fcpimageprocessing>
											</data>
										</appspecificdata>
									</format>
									<track>
										<clipitem id="Raw Interview Matthew Duepner">
											<name>Raw Interview Matthew Duepner</name>
											<duration>81486</duration>
											<rate>
												<ntsc>TRUE</ntsc>
												<timebase>24</timebase>
											</rate>
											<in>2994</in>
											<out>3183</out>
											<start>0</start>
											<end>189</end>
											<pixelaspectratio>Square</pixelaspectratio>
											<anamorphic>FALSE</anamorphic>
											<alphatype>black</alphatype>
											<masterclipid>Raw Interview Matthew Duepner1</masterclipid>
											<logginginfo>
												<scene/>
												<shottake/>
												<lognote/>
												<good>FALSE</good>
											</logginginfo>
											<labels>
												<label2/>
											</labels>
											<comments>
												<mastercomment1/>
												<mastercomment2/>
												<mastercomment3/>
												<mastercomment4/>
											</comments>
											<file id="YIN_2013-05-28_LG-5 ">
												<name>YIN_2013-05-28_LG-5.mov</name>
												<pathurl>file://localhost/Volumes/Curiouser%2010cc/Curiouser/Video/Active/Your%20Input%20Needed/Produced%20assets/Offline/Curiouser/5.13%20NYC/YIN_2013-05-28_LG-5.mov</pathurl>
												<rate>
													<timebase>24</timebase>
													<ntsc>TRUE</ntsc>
												</rate>
												<duration>81486</duration>
												<media>
													<video>
														<duration>81486</duration>
														<samplecharacteristics>
															<width>640</width>
															<height>360</height>
														</samplecharacteristics>
													</video>
													<audio>
														<samplecharacteristics>
															<samplerate>44100</samplerate>
															<depth>32</depth>
														</samplecharacteristics>
														<channelcount>2</channelcount>
													</audio>
												</media>
											</file>
											<sourcetrack>
												<mediatype>video</mediatype>
											</sourcetrack>
											<link>
												<linkclipref>Raw Interview Matthew Duepner</linkclipref>
												<mediatype>video</mediatype>
												<trackindex>1</trackindex>
												<clipindex>1</clipindex>
											</link>
											<link>
												<linkclipref>Raw Interview Matthew Duepner2</linkclipref>
												<mediatype>audio</mediatype>
												<trackindex>1</trackindex>
												<clipindex>1</clipindex>
												<groupindex>1</groupindex>
											</link>
											<link>
												<linkclipref>Raw Interview Matthew Duepner3</linkclipref>
												<mediatype>audio</mediatype>
												<trackindex>2</trackindex>
												<clipindex>1</clipindex>
												<groupindex>1</groupindex>
											</link>
											<fielddominance>none</fielddominance>
											<itemhistory>
												<uuid>BC96014F-7C94-4D70-8B55-5C4215DC0AB9</uuid>
											</itemhistory>
										</clipitem>
										<clipitem id="Raw Interview Matthew Duepner4">
											<name>Raw Interview Matthew Duepner</name>
											<duration>81486</duration>
											<rate>
												<ntsc>TRUE</ntsc>
												<timebase>24</timebase>
											</rate>
											<in>3586</in>
											<out>3636</out>
											<start>189</start>
											<end>239</end>
											<pixelaspectratio>Square</pixelaspectratio>
											<anamorphic>FALSE</anamorphic>
											<alphatype>black</alphatype>
											<masterclipid>Raw Interview Matthew Duepner5</masterclipid>
											<logginginfo>
												<scene/>
												<shottake/>
												<lognote/>
												<good>FALSE</good>
											</logginginfo>
											<labels>
												<label2/>
											</labels>
											<comments>
												<mastercomment1/>
												<mastercomment2/>
												<mastercomment3/>
												<mastercomment4/>
											</comments>
											<file id="YIN_2013-05-28_LG-5 "/>
											<sourcetrack>
												<mediatype>video</mediatype>
											</sourcetrack>
											<link>
												<linkclipref>Raw Interview Matthew Duepner4</linkclipref>
												<mediatype>video</mediatype>
												<trackindex>1</trackindex>
												<clipindex>2</clipindex>
											</link>
											<link>
												<linkclipref>Raw Interview Matthew Duepner6</linkclipref>
												<mediatype>audio</mediatype>
												<trackindex>1</trackindex>
												<clipindex>2</clipindex>
												<groupindex>1</groupindex>
											</link>
											<link>
												<linkclipref>Raw Interview Matthew Duepner7</linkclipref>
												<mediatype>audio</mediatype>
												<trackindex>2</trackindex>
												<clipindex>2</clipindex>
												<groupindex>1</groupindex>
											</link>
											<fielddominance>none</fielddominance>
											<itemhistory>
												<uuid>6E64BF5E-10D2-490F-BB75-4E576C02D9CA</uuid>
											</itemhistory>
										</clipitem>
										<clipitem id="Raw Interview Matthew Duepner8">
											<name>Raw Interview Matthew Duepner</name>
											<duration>81486</duration>
											<rate>
												<ntsc>TRUE</ntsc>
												<timebase>24</timebase>
											</rate>
											<in>589</in>
											<out>687</out>
											<start>239</start>
											<end>337</end>
											<pixelaspectratio>Square</pixelaspectratio>
											<anamorphic>FALSE</anamorphic>
											<alphatype>black</alphatype>
											<masterclipid>Raw Interview Matthew Duepner9</masterclipid>
											<logginginfo>
												<scene/>
												<shottake/>
												<lognote/>
												<good>FALSE</good>
											</logginginfo>
											<labels>
												<label2/>
											</labels>
											<comments>
												<mastercomment1/>
												<mastercomment2/>
												<mastercomment3/>
												<mastercomment4/>
											</comments>
											<file id="YIN_2013-05-28_LG-5 "/>
											<sourcetrack>
												<mediatype>video</mediatype>
											</sourcetrack>
											<link>
												<linkclipref>Raw Interview Matthew Duepner8</linkclipref>
												<mediatype>video</mediatype>
												<trackindex>1</trackindex>
												<clipindex>3</clipindex>
											</link>
											<link>
												<linkclipref>Raw Interview Matthew Duepner10</linkclipref>
												<mediatype>audio</mediatype>
												<trackindex>1</trackindex>
												<clipindex>3</clipindex>
												<groupindex>1</groupindex>
											</link>
											<link>
												<linkclipref>Raw Interview Matthew Duepner11</linkclipref>
												<mediatype>audio</mediatype>
												<trackindex>2</trackindex>
												<clipindex>3</clipindex>
												<groupindex>1</groupindex>
											</link>
											<fielddominance>none</fielddominance>
											<itemhistory>
												<uuid>EC97F2BD-CB7C-43E0-9330-8F326EC543DF</uuid>
											</itemhistory>
										</clipitem>
										<clipitem id="Raw Interview Matthew Duepner12">
											<name>Raw Interview Matthew Duepner</name>
											<duration>81486</duration>
											<rate>
												<ntsc>TRUE</ntsc>
												<timebase>24</timebase>
											</rate>
											<in>6757</in>
											<out>6892</out>
											<start>367</start>
											<end>502</end>
											<pixelaspectratio>Square</pixelaspectratio>
											<anamorphic>FALSE</anamorphic>
											<alphatype>black</alphatype>
											<masterclipid>Raw Interview Matthew Duepner13</masterclipid>
											<logginginfo>
												<scene/>
												<shottake/>
												<lognote/>
												<good>FALSE</good>
											</logginginfo>
											<labels>
												<label2/>
											</labels>
											<comments>
												<mastercomment1/>
												<mastercomment2/>
												<mastercomment3/>
												<mastercomment4/>
											</comments>
											<file id="YIN_2013-05-28_LG-5 "/>
											<sourcetrack>
												<mediatype>video</mediatype>
											</sourcetrack>
											<link>
												<linkclipref>Raw Interview Matthew Duepner12</linkclipref>
												<mediatype>video</mediatype>
												<trackindex>1</trackindex>
												<clipindex>4</clipindex>
											</link>
											<link>
												<linkclipref>Raw Interview Matthew Duepner14</linkclipref>
												<mediatype>audio</mediatype>
												<trackindex>1</trackindex>
												<clipindex>4</clipindex>
												<groupindex>1</groupindex>
											</link>
											<link>
												<linkclipref>Raw Interview Matthew Duepner15</linkclipref>
												<mediatype>audio</mediatype>
												<trackindex>2</trackindex>
												<clipindex>4</clipindex>
												<groupindex>1</groupindex>
											</link>
											<fielddominance>none</fielddominance>
											<itemhistory>
												<uuid>FF9CB897-2C67-4E59-98E5-57CC1C71A1E5</uuid>
											</itemhistory>
										</clipitem>
										<clipitem id="Raw Interview Matthew Duepner16">
											<name>Raw Interview Matthew Duepner</name>
											<duration>81486</duration>
											<rate>
												<ntsc>TRUE</ntsc>
												<timebase>24</timebase>
											</rate>
											<in>28282</in>
											<out>28305</out>
											<start>502</start>
											<end>525</end>
											<pixelaspectratio>Square</pixelaspectratio>
											<anamorphic>FALSE</anamorphic>
											<alphatype>black</alphatype>
											<masterclipid>Raw Interview Matthew Duepner17</masterclipid>
											<logginginfo>
												<scene/>
												<shottake/>
												<lognote/>
												<good>FALSE</good>
											</logginginfo>
											<labels>
												<label2/>
											</labels>
											<comments>
												<mastercomment1/>
												<mastercomment2/>
												<mastercomment3/>
												<mastercomment4/>
											</comments>
											<file id="YIN_2013-05-28_LG-5 "/>
											<sourcetrack>
												<mediatype>video</mediatype>
											</sourcetrack>
											<link>
												<linkclipref>Raw Interview Matthew Duepner16</linkclipref>
												<mediatype>video</mediatype>
												<trackindex>1</trackindex>
												<clipindex>5</clipindex>
											</link>
											<link>
												<linkclipref>Raw Interview Matthew Duepner18</linkclipref>
												<mediatype>audio</mediatype>
												<trackindex>1</trackindex>
												<clipindex>5</clipindex>
												<groupindex>1</groupindex>
											</link>
											<link>
												<linkclipref>Raw Interview Matthew Duepner19</linkclipref>
												<mediatype>audio</mediatype>
												<trackindex>2</trackindex>
												<clipindex>5</clipindex>
												<groupindex>1</groupindex>
											</link>
											<fielddominance>none</fielddominance>
											<itemhistory>
												<uuid>6549D0A3-8185-4E79-AA9A-3005BD68D59B</uuid>
											</itemhistory>
										</clipitem>
										<clipitem id="Raw Interview Matthew Duepner20">
											<name>Raw Interview Matthew Duepner</name>
											<duration>81486</duration>
											<rate>
												<ntsc>TRUE</ntsc>
												<timebase>24</timebase>
											</rate>
											<in>28332</in>
											<out>28387</out>
											<start>525</start>
											<end>580</end>
											<pixelaspectratio>Square</pixelaspectratio>
											<anamorphic>FALSE</anamorphic>
											<alphatype>black</alphatype>
											<masterclipid>Raw Interview Matthew Duepner21</masterclipid>
											<logginginfo>
												<scene/>
												<shottake/>
												<lognote/>
												<good>FALSE</good>
											</logginginfo>
											<labels>
												<label2/>
											</labels>
											<comments>
												<mastercomment1/>
												<mastercomment2/>
												<mastercomment3/>
												<mastercomment4/>
											</comments>
											<file id="YIN_2013-05-28_LG-5 "/>
											<sourcetrack>
												<mediatype>video</mediatype>
											</sourcetrack>
											<link>
												<linkclipref>Raw Interview Matthew Duepner20</linkclipref>
												<mediatype>video</mediatype>
												<trackindex>1</trackindex>
												<clipindex>6</clipindex>
											</link>
											<link>
												<linkclipref>Raw Interview Matthew Duepner22</linkclipref>
												<mediatype>audio</mediatype>
												<trackindex>1</trackindex>
												<clipindex>6</clipindex>
												<groupindex>1</groupindex>
											</link>
											<link>
												<linkclipref>Raw Interview Matthew Duepner23</linkclipref>
												<mediatype>audio</mediatype>
												<trackindex>2</trackindex>
												<clipindex>6</clipindex>
												<groupindex>1</groupindex>
											</link>
											<fielddominance>none</fielddominance>
											<itemhistory>
												<uuid>DBAE7A6E-533F-4F30-937A-9940C34CB4E5</uuid>
											</itemhistory>
										</clipitem>
										<clipitem id="Raw Interview Matthew Duepner24">
											<name>Raw Interview Matthew Duepner</name>
											<duration>81486</duration>
											<rate>
												<ntsc>TRUE</ntsc>
												<timebase>24</timebase>
											</rate>
											<in>28387</in>
											<out>28619</out>
											<start>580</start>
											<end>812</end>
											<pixelaspectratio>Square</pixelaspectratio>
											<anamorphic>FALSE</anamorphic>
											<alphatype>black</alphatype>
											<masterclipid>Raw Interview Matthew Duepner25</masterclipid>
											<logginginfo>
												<scene/>
												<shottake/>
												<lognote/>
												<good>FALSE</good>
											</logginginfo>
											<labels>
												<label2/>
											</labels>
											<comments>
												<mastercomment1/>
												<mastercomment2/>
												<mastercomment3/>
												<mastercomment4/>
											</comments>
											<file id="YIN_2013-05-28_LG-5 "/>
											<sourcetrack>
												<mediatype>video</mediatype>
											</sourcetrack>
											<link>
												<linkclipref>Raw Interview Matthew Duepner24</linkclipref>
												<mediatype>video</mediatype>
												<trackindex>1</trackindex>
												<clipindex>7</clipindex>
											</link>
											<link>
												<linkclipref>Raw Interview Matthew Duepner26</linkclipref>
												<mediatype>audio</mediatype>
												<trackindex>1</trackindex>
												<clipindex>7</clipindex>
												<groupindex>1</groupindex>
											</link>
											<link>
												<linkclipref>Raw Interview Matthew Duepner27</linkclipref>
												<mediatype>audio</mediatype>
												<trackindex>2</trackindex>
												<clipindex>7</clipindex>
												<groupindex>1</groupindex>
											</link>
											<fielddominance>none</fielddominance>
											<itemhistory>
												<uuid>AF2C94C9-9E98-4EAB-8DE3-4288BB7450DB</uuid>
											</itemhistory>
										</clipitem>
										<clipitem id="Raw Interview Matthew Duepner28">
											<name>Raw Interview Matthew Duepner</name>
											<duration>81486</duration>
											<rate>
												<ntsc>TRUE</ntsc>
												<timebase>24</timebase>
											</rate>
											<in>76128</in>
											<out>76339</out>
											<start>812</start>
											<end>1023</end>
											<pixelaspectratio>Square</pixelaspectratio>
											<anamorphic>FALSE</anamorphic>
											<alphatype>black</alphatype>
											<masterclipid>Raw Interview Matthew Duepner29</masterclipid>
											<logginginfo>
												<scene/>
												<shottake/>
												<lognote/>
												<good>FALSE</good>
											</logginginfo>
											<labels>
												<label2/>
											</labels>
											<comments>
												<mastercomment1/>
												<mastercomment2/>
												<mastercomment3/>
												<mastercomment4/>
											</comments>
											<file id="YIN_2013-05-28_LG-5 "/>
											<sourcetrack>
												<mediatype>video</mediatype>
											</sourcetrack>
											<link>
												<linkclipref>Raw Interview Matthew Duepner28</linkclipref>
												<mediatype>video</mediatype>
												<trackindex>1</trackindex>
												<clipindex>8</clipindex>
											</link>
											<link>
												<linkclipref>Raw Interview Matthew Duepner30</linkclipref>
												<mediatype>audio</mediatype>
												<trackindex>1</trackindex>
												<clipindex>8</clipindex>
												<groupindex>1</groupindex>
											</link>
											<link>
												<linkclipref>Raw Interview Matthew Duepner31</linkclipref>
												<mediatype>audio</mediatype>
												<trackindex>2</trackindex>
												<clipindex>8</clipindex>
												<groupindex>1</groupindex>
											</link>
											<fielddominance>none</fielddominance>
											<itemhistory>
												<uuid>868AAD62-05E1-4DD5-B641-FC973A0BD1E9</uuid>
											</itemhistory>
										</clipitem>
										<clipitem id="Raw Interview Matthew Duepner32">
											<name>Raw Interview Matthew Duepner</name>
											<duration>81486</duration>
											<rate>
												<ntsc>TRUE</ntsc>
												<timebase>24</timebase>
											</rate>
											<in>5496</in>
											<out>5591</out>
											<start>1037</start>
											<end>1132</end>
											<pixelaspectratio>Square</pixelaspectratio>
											<anamorphic>FALSE</anamorphic>
											<alphatype>black</alphatype>
											<masterclipid>Raw Interview Matthew Duepner33</masterclipid>
											<logginginfo>
												<scene/>
												<shottake/>
												<lognote/>
												<good>FALSE</good>
											</logginginfo>
											<labels>
												<label2/>
											</labels>
											<comments>
												<mastercomment1/>
												<mastercomment2/>
												<mastercomment3/>
												<mastercomment4/>
											</comments>
											<file id="YIN_2013-05-28_LG-5 "/>
											<sourcetrack>
												<mediatype>video</mediatype>
											</sourcetrack>
											<link>
												<linkclipref>Raw Interview Matthew Duepner32</linkclipref>
												<mediatype>video</mediatype>
												<trackindex>1</trackindex>
												<clipindex>9</clipindex>
											</link>
											<link>
												<linkclipref>Raw Interview Matthew Duepner34</linkclipref>
												<mediatype>audio</mediatype>
												<trackindex>1</trackindex>
												<clipindex>9</clipindex>
												<groupindex>1</groupindex>
											</link>
											<link>
												<linkclipref>Raw Interview Matthew Duepner35</linkclipref>
												<mediatype>audio</mediatype>
												<trackindex>2</trackindex>
												<clipindex>9</clipindex>
												<groupindex>1</groupindex>
											</link>
											<fielddominance>none</fielddominance>
											<itemhistory>
												<uuid>A15B2EEC-DE39-4B72-8BC8-A0DD73250319</uuid>
											</itemhistory>
										</clipitem>
										<clipitem id="Raw Interview Matthew Duepner36">
											<name>Raw Interview Matthew Duepner</name>
											<duration>81486</duration>
											<rate>
												<ntsc>TRUE</ntsc>
												<timebase>24</timebase>
											</rate>
											<in>6176</in>
											<out>6256</out>
											<start>1132</start>
											<end>1212</end>
											<pixelaspectratio>Square</pixelaspectratio>
											<anamorphic>FALSE</anamorphic>
											<alphatype>black</alphatype>
											<masterclipid>Raw Interview Matthew Duepner37</masterclipid>
											<logginginfo>
												<scene/>
												<shottake/>
												<lognote/>
												<good>FALSE</good>
											</logginginfo>
											<labels>
												<label2/>
											</labels>
											<comments>
												<mastercomment1/>
												<mastercomment2/>
												<mastercomment3/>
												<mastercomment4/>
											</comments>
											<file id="YIN_2013-05-28_LG-5 "/>
											<sourcetrack>
												<mediatype>video</mediatype>
											</sourcetrack>
											<link>
												<linkclipref>Raw Interview Matthew Duepner36</linkclipref>
												<mediatype>video</mediatype>
												<trackindex>1</trackindex>
												<clipindex>10</clipindex>
											</link>
											<link>
												<linkclipref>Raw Interview Matthew Duepner38</linkclipref>
												<mediatype>audio</mediatype>
												<trackindex>1</trackindex>
												<clipindex>10</clipindex>
												<groupindex>1</groupindex>
											</link>
											<link>
												<linkclipref>Raw Interview Matthew Duepner39</linkclipref>
												<mediatype>audio</mediatype>
												<trackindex>2</trackindex>
												<clipindex>10</clipindex>
												<groupindex>1</groupindex>
											</link>
											<fielddominance>none</fielddominance>
											<itemhistory>
												<uuid>68E242F6-5493-4171-9957-3A47E8F09DF8</uuid>
											</itemhistory>
										</clipitem>
										<clipitem id="Raw Interview Matthew Duepner40">
											<name>Raw Interview Matthew Duepner</name>
											<duration>81486</duration>
											<rate>
												<ntsc>TRUE</ntsc>
												<timebase>24</timebase>
											</rate>
											<in>25948</in>
											<out>26160</out>
											<start>1212</start>
											<end>1424</end>
											<pixelaspectratio>Square</pixelaspectratio>
											<anamorphic>FALSE</anamorphic>
											<alphatype>black</alphatype>
											<masterclipid>Raw Interview Matthew Duepner41</masterclipid>
											<logginginfo>
												<scene/>
												<shottake/>
												<lognote/>
												<good>FALSE</good>
											</logginginfo>
											<labels>
												<label2/>
											</labels>
											<comments>
												<mastercomment1/>
												<mastercomment2/>
												<mastercomment3/>
												<mastercomment4/>
											</comments>
											<file id="YIN_2013-05-28_LG-5 "/>
											<sourcetrack>
												<mediatype>video</mediatype>
											</sourcetrack>
											<link>
												<linkclipref>Raw Interview Matthew Duepner40</linkclipref>
												<mediatype>video</mediatype>
												<trackindex>1</trackindex>
												<clipindex>11</clipindex>
											</link>
											<link>
												<linkclipref>Raw Interview Matthew Duepner42</linkclipref>
												<mediatype>audio</mediatype>
												<trackindex>1</trackindex>
												<clipindex>11</clipindex>
												<groupindex>1</groupindex>
											</link>
											<link>
												<linkclipref>Raw Interview Matthew Duepner43</linkclipref>
												<mediatype>audio</mediatype>
												<trackindex>2</trackindex>
												<clipindex>11</clipindex>
												<groupindex>1</groupindex>
											</link>
											<fielddominance>none</fielddominance>
											<itemhistory>
												<uuid>901EE14C-FBF0-447C-9AB9-6EE0E6644FAF</uuid>
											</itemhistory>
										</clipitem>
										<clipitem id="Raw Interview Matthew Duepner44">
											<name>Raw Interview Matthew Duepner</name>
											<duration>81486</duration>
											<rate>
												<ntsc>TRUE</ntsc>
												<timebase>24</timebase>
											</rate>
											<in>14189</in>
											<out>14334</out>
											<start>1424</start>
											<end>1569</end>
											<pixelaspectratio>Square</pixelaspectratio>
											<anamorphic>FALSE</anamorphic>
											<alphatype>black</alphatype>
											<masterclipid>Raw Interview Matthew Duepner45</masterclipid>
											<logginginfo>
												<scene/>
												<shottake/>
												<lognote/>
												<good>FALSE</good>
											</logginginfo>
											<labels>
												<label2/>
											</labels>
											<comments>
												<mastercomment1/>
												<mastercomment2/>
												<mastercomment3/>
												<mastercomment4/>
											</comments>
											<file id="YIN_2013-05-28_LG-5 "/>
											<sourcetrack>
												<mediatype>video</mediatype>
											</sourcetrack>
											<link>
												<linkclipref>Raw Interview Matthew Duepner44</linkclipref>
												<mediatype>video</mediatype>
												<trackindex>1</trackindex>
												<clipindex>12</clipindex>
											</link>
											<link>
												<linkclipref>Raw Interview Matthew Duepner46</linkclipref>
												<mediatype>audio</mediatype>
												<trackindex>1</trackindex>
												<clipindex>12</clipindex>
												<groupindex>1</groupindex>
											</link>
											<link>
												<linkclipref>Raw Interview Matthew Duepner47</linkclipref>
												<mediatype>audio</mediatype>
												<trackindex>2</trackindex>
												<clipindex>12</clipindex>
												<groupindex>1</groupindex>
											</link>
											<fielddominance>none</fielddominance>
											<itemhistory>
												<uuid>91D2CF94-7868-43A5-AA1B-7AA40B0C3F74</uuid>
											</itemhistory>
										</clipitem>
										<clipitem id="Raw Interview Matthew Duepner48">
											<name>Raw Interview Matthew Duepner</name>
											<duration>81486</duration>
											<rate>
												<ntsc>TRUE</ntsc>
												<timebase>24</timebase>
											</rate>
											<in>9373</in>
											<out>9540</out>
											<start>1569</start>
											<end>1736</end>
											<pixelaspectratio>Square</pixelaspectratio>
											<anamorphic>FALSE</anamorphic>
											<alphatype>black</alphatype>
											<masterclipid>Raw Interview Matthew Duepner49</masterclipid>
											<logginginfo>
												<scene/>
												<shottake/>
												<lognote/>
												<good>FALSE</good>
											</logginginfo>
											<labels>
												<label2/>
											</labels>
											<comments>
												<mastercomment1/>
												<mastercomment2/>
												<mastercomment3/>
												<mastercomment4/>
											</comments>
											<file id="YIN_2013-05-28_LG-5 "/>
											<sourcetrack>
												<mediatype>video</mediatype>
											</sourcetrack>
											<link>
												<linkclipref>Raw Interview Matthew Duepner48</linkclipref>
												<mediatype>video</mediatype>
												<trackindex>1</trackindex>
												<clipindex>13</clipindex>
											</link>
											<link>
												<linkclipref>Raw Interview Matthew Duepner50</linkclipref>
												<mediatype>audio</mediatype>
												<trackindex>1</trackindex>
												<clipindex>13</clipindex>
												<groupindex>1</groupindex>
											</link>
											<link>
												<linkclipref>Raw Interview Matthew Duepner51</linkclipref>
												<mediatype>audio</mediatype>
												<trackindex>2</trackindex>
												<clipindex>13</clipindex>
												<groupindex>1</groupindex>
											</link>
											<fielddominance>none</fielddominance>
											<itemhistory>
												<uuid>C4DDF2B8-E932-4E60-B7DA-3CFCE2AF5374</uuid>
											</itemhistory>
										</clipitem>
										<clipitem id="Raw Interview Matthew Duepner52">
											<name>Raw Interview Matthew Duepner</name>
											<duration>81486</duration>
											<rate>
												<ntsc>TRUE</ntsc>
												<timebase>24</timebase>
											</rate>
											<in>17169</in>
											<out>17401</out>
											<start>1736</start>
											<end>1968</end>
											<pixelaspectratio>Square</pixelaspectratio>
											<anamorphic>FALSE</anamorphic>
											<alphatype>black</alphatype>
											<masterclipid>Raw Interview Matthew Duepner53</masterclipid>
											<logginginfo>
												<scene/>
												<shottake/>
												<lognote/>
												<good>FALSE</good>
											</logginginfo>
											<labels>
												<label2/>
											</labels>
											<comments>
												<mastercomment1/>
												<mastercomment2/>
												<mastercomment3/>
												<mastercomment4/>
											</comments>
											<file id="YIN_2013-05-28_LG-5 "/>
											<sourcetrack>
												<mediatype>video</mediatype>
											</sourcetrack>
											<link>
												<linkclipref>Raw Interview Matthew Duepner52</linkclipref>
												<mediatype>video</mediatype>
												<trackindex>1</trackindex>
												<clipindex>14</clipindex>
											</link>
											<link>
												<linkclipref>Raw Interview Matthew Duepner54</linkclipref>
												<mediatype>audio</mediatype>
												<trackindex>1</trackindex>
												<clipindex>14</clipindex>
												<groupindex>1</groupindex>
											</link>
											<link>
												<linkclipref>Raw Interview Matthew Duepner55</linkclipref>
												<mediatype>audio</mediatype>
												<trackindex>2</trackindex>
												<clipindex>14</clipindex>
												<groupindex>1</groupindex>
											</link>
											<fielddominance>none</fielddominance>
											<itemhistory>
												<uuid>6B10C4A3-8994-4175-8173-5679115F28A1</uuid>
											</itemhistory>
										</clipitem>
										<clipitem id="Raw Interview Matthew Duepner56">
											<name>Raw Interview Matthew Duepner</name>
											<duration>81486</duration>
											<rate>
												<ntsc>TRUE</ntsc>
												<timebase>24</timebase>
											</rate>
											<in>10616</in>
											<out>10693</out>
											<start>1968</start>
											<end>2045</end>
											<pixelaspectratio>Square</pixelaspectratio>
											<anamorphic>FALSE</anamorphic>
											<alphatype>black</alphatype>
											<masterclipid>Raw Interview Matthew Duepner57</masterclipid>
											<logginginfo>
												<scene/>
												<shottake/>
												<lognote/>
												<good>FALSE</good>
											</logginginfo>
											<labels>
												<label2/>
											</labels>
											<comments>
												<mastercomment1/>
												<mastercomment2/>
												<mastercomment3/>
												<mastercomment4/>
											</comments>
											<file id="YIN_2013-05-28_LG-5 "/>
											<sourcetrack>
												<mediatype>video</mediatype>
											</sourcetrack>
											<link>
												<linkclipref>Raw Interview Matthew Duepner56</linkclipref>
												<mediatype>video</mediatype>
												<trackindex>1</trackindex>
												<clipindex>15</clipindex>
											</link>
											<link>
												<linkclipref>Raw Interview Matthew Duepner58</linkclipref>
												<mediatype>audio</mediatype>
												<trackindex>1</trackindex>
												<clipindex>15</clipindex>
												<groupindex>1</groupindex>
											</link>
											<link>
												<linkclipref>Raw Interview Matthew Duepner59</linkclipref>
												<mediatype>audio</mediatype>
												<trackindex>2</trackindex>
												<clipindex>15</clipindex>
												<groupindex>1</groupindex>
											</link>
											<fielddominance>none</fielddominance>
											<itemhistory>
												<uuid>D096F2F5-0C63-4355-925A-64C379C780CD</uuid>
											</itemhistory>
										</clipitem>
										<clipitem id="Raw Interview Matthew Duepner60">
											<name>Raw Interview Matthew Duepner</name>
											<duration>81486</duration>
											<rate>
												<ntsc>TRUE</ntsc>
												<timebase>24</timebase>
											</rate>
											<in>26630</in>
											<out>26790</out>
											<start>2045</start>
											<end>2205</end>
											<pixelaspectratio>Square</pixelaspectratio>
											<anamorphic>FALSE</anamorphic>
											<alphatype>black</alphatype>
											<masterclipid>Raw Interview Matthew Duepner61</masterclipid>
											<logginginfo>
												<scene/>
												<shottake/>
												<lognote/>
												<good>FALSE</good>
											</logginginfo>
											<labels>
												<label2/>
											</labels>
											<comments>
												<mastercomment1/>
												<mastercomment2/>
												<mastercomment3/>
												<mastercomment4/>
											</comments>
											<file id="YIN_2013-05-28_LG-5 "/>
											<sourcetrack>
												<mediatype>video</mediatype>
											</sourcetrack>
											<link>
												<linkclipref>Raw Interview Matthew Duepner60</linkclipref>
												<mediatype>video</mediatype>
												<trackindex>1</trackindex>
												<clipindex>16</clipindex>
											</link>
											<link>
												<linkclipref>Raw Interview Matthew Duepner62</linkclipref>
												<mediatype>audio</mediatype>
												<trackindex>1</trackindex>
												<clipindex>16</clipindex>
												<groupindex>1</groupindex>
											</link>
											<link>
												<linkclipref>Raw Interview Matthew Duepner63</linkclipref>
												<mediatype>audio</mediatype>
												<trackindex>2</trackindex>
												<clipindex>16</clipindex>
												<groupindex>1</groupindex>
											</link>
											<fielddominance>none</fielddominance>
											<itemhistory>
												<uuid>E47E5EF9-9ECA-4EC8-B0A4-3FE99D8BB83B</uuid>
											</itemhistory>
										</clipitem>
										<clipitem id="Raw Interview Matthew Duepner64">
											<name>Raw Interview Matthew Duepner</name>
											<duration>81486</duration>
											<rate>
												<ntsc>TRUE</ntsc>
												<timebase>24</timebase>
											</rate>
											<in>27080</in>
											<out>27302</out>
											<start>2205</start>
											<end>2427</end>
											<pixelaspectratio>Square</pixelaspectratio>
											<anamorphic>FALSE</anamorphic>
											<alphatype>black</alphatype>
											<masterclipid>Raw Interview Matthew Duepner65</masterclipid>
											<logginginfo>
												<scene/>
												<shottake/>
												<lognote/>
												<good>FALSE</good>
											</logginginfo>
											<labels>
												<label2/>
											</labels>
											<comments>
												<mastercomment1/>
												<mastercomment2/>
												<mastercomment3/>
												<mastercomment4/>
											</comments>
											<file id="YIN_2013-05-28_LG-5 "/>
											<sourcetrack>
												<mediatype>video</mediatype>
											</sourcetrack>
											<link>
												<linkclipref>Raw Interview Matthew Duepner64</linkclipref>
												<mediatype>video</mediatype>
												<trackindex>1</trackindex>
												<clipindex>17</clipindex>
											</link>
											<link>
												<linkclipref>Raw Interview Matthew Duepner66</linkclipref>
												<mediatype>audio</mediatype>
												<trackindex>1</trackindex>
												<clipindex>17</clipindex>
												<groupindex>1</groupindex>
											</link>
											<link>
												<linkclipref>Raw Interview Matthew Duepner67</linkclipref>
												<mediatype>audio</mediatype>
												<trackindex>2</trackindex>
												<clipindex>17</clipindex>
												<groupindex>1</groupindex>
											</link>
											<fielddominance>none</fielddominance>
											<itemhistory>
												<uuid>68C5EAC6-CE87-4132-B52C-A82B781FC62A</uuid>
											</itemhistory>
										</clipitem>
										<clipitem id="Raw Interview Matthew Duepner68">
											<name>Raw Interview Matthew Duepner</name>
											<duration>81486</duration>
											<rate>
												<ntsc>TRUE</ntsc>
												<timebase>24</timebase>
											</rate>
											<in>10554</in>
											<out>10577</out>
											<start>2427</start>
											<end>2450</end>
											<pixelaspectratio>Square</pixelaspectratio>
											<anamorphic>FALSE</anamorphic>
											<alphatype>black</alphatype>
											<masterclipid>Raw Interview Matthew Duepner69</masterclipid>
											<logginginfo>
												<scene/>
												<shottake/>
												<lognote/>
												<good>FALSE</good>
											</logginginfo>
											<labels>
												<label2/>
											</labels>
											<comments>
												<mastercomment1/>
												<mastercomment2/>
												<mastercomment3/>
												<mastercomment4/>
											</comments>
											<file id="YIN_2013-05-28_LG-5 "/>
											<sourcetrack>
												<mediatype>video</mediatype>
											</sourcetrack>
											<link>
												<linkclipref>Raw Interview Matthew Duepner68</linkclipref>
												<mediatype>video</mediatype>
												<trackindex>1</trackindex>
												<clipindex>18</clipindex>
											</link>
											<link>
												<linkclipref>Raw Interview Matthew Duepner70</linkclipref>
												<mediatype>audio</mediatype>
												<trackindex>1</trackindex>
												<clipindex>18</clipindex>
												<groupindex>1</groupindex>
											</link>
											<link>
												<linkclipref>Raw Interview Matthew Duepner71</linkclipref>
												<mediatype>audio</mediatype>
												<trackindex>2</trackindex>
												<clipindex>18</clipindex>
												<groupindex>1</groupindex>
											</link>
											<fielddominance>none</fielddominance>
											<itemhistory>
												<uuid>EACB1C4F-BCA9-43D1-9E87-40287E2C0E5E</uuid>
											</itemhistory>
										</clipitem>
										<clipitem id="Raw Interview Matthew Duepner72">
											<name>Raw Interview Matthew Duepner</name>
											<duration>81486</duration>
											<rate>
												<ntsc>TRUE</ntsc>
												<timebase>24</timebase>
											</rate>
											<in>20313</in>
											<out>20815</out>
											<start>2450</start>
											<end>2952</end>
											<pixelaspectratio>Square</pixelaspectratio>
											<anamorphic>FALSE</anamorphic>
											<alphatype>black</alphatype>
											<masterclipid>Raw Interview Matthew Duepner73</masterclipid>
											<logginginfo>
												<scene/>
												<shottake/>
												<lognote/>
												<good>FALSE</good>
											</logginginfo>
											<labels>
												<label2/>
											</labels>
											<comments>
												<mastercomment1/>
												<mastercomment2/>
												<mastercomment3/>
												<mastercomment4/>
											</comments>
											<file id="YIN_2013-05-28_LG-5 "/>
											<sourcetrack>
												<mediatype>video</mediatype>
											</sourcetrack>
											<link>
												<linkclipref>Raw Interview Matthew Duepner72</linkclipref>
												<mediatype>video</mediatype>
												<trackindex>1</trackindex>
												<clipindex>19</clipindex>
											</link>
											<link>
												<linkclipref>Raw Interview Matthew Duepner74</linkclipref>
												<mediatype>audio</mediatype>
												<trackindex>1</trackindex>
												<clipindex>19</clipindex>
												<groupindex>1</groupindex>
											</link>
											<link>
												<linkclipref>Raw Interview Matthew Duepner75</linkclipref>
												<mediatype>audio</mediatype>
												<trackindex>2</trackindex>
												<clipindex>19</clipindex>
												<groupindex>1</groupindex>
											</link>
											<fielddominance>none</fielddominance>
											<itemhistory>
												<uuid>0DBCE0CA-FF27-4A15-BD59-D77B847DA69C</uuid>
											</itemhistory>
										</clipitem>
										<clipitem id="Raw Interview Matthew Duepner76">
											<name>Raw Interview Matthew Duepner</name>
											<duration>81486</duration>
											<rate>
												<ntsc>TRUE</ntsc>
												<timebase>24</timebase>
											</rate>
											<in>11151</in>
											<out>11298</out>
											<start>2952</start>
											<end>3099</end>
											<pixelaspectratio>Square</pixelaspectratio>
											<anamorphic>FALSE</anamorphic>
											<alphatype>black</alphatype>
											<masterclipid>Raw Interview Matthew Duepner77</masterclipid>
											<logginginfo>
												<scene/>
												<shottake/>
												<lognote/>
												<good>FALSE</good>
											</logginginfo>
											<labels>
												<label2/>
											</labels>
											<comments>
												<mastercomment1/>
												<mastercomment2/>
												<mastercomment3/>
												<mastercomment4/>
											</comments>
											<file id="YIN_2013-05-28_LG-5 "/>
											<sourcetrack>
												<mediatype>video</mediatype>
											</sourcetrack>
											<link>
												<linkclipref>Raw Interview Matthew Duepner76</linkclipref>
												<mediatype>video</mediatype>
												<trackindex>1</trackindex>
												<clipindex>20</clipindex>
											</link>
											<link>
												<linkclipref>Raw Interview Matthew Duepner78</linkclipref>
												<mediatype>audio</mediatype>
												<trackindex>1</trackindex>
												<clipindex>20</clipindex>
												<groupindex>1</groupindex>
											</link>
											<link>
												<linkclipref>Raw Interview Matthew Duepner79</linkclipref>
												<mediatype>audio</mediatype>
												<trackindex>2</trackindex>
												<clipindex>20</clipindex>
												<groupindex>1</groupindex>
											</link>
											<fielddominance>none</fielddominance>
											<itemhistory>
												<uuid>00C76E2C-EAD9-4361-810C-58FE3CDF27D7</uuid>
											</itemhistory>
										</clipitem>
										<clipitem id="Raw Interview Matthew Duepner80">
											<name>Raw Interview Matthew Duepner</name>
											<duration>81486</duration>
											<rate>
												<ntsc>TRUE</ntsc>
												<timebase>24</timebase>
											</rate>
											<in>21014</in>
											<out>21125</out>
											<start>3131</start>
											<end>3242</end>
											<pixelaspectratio>Square</pixelaspectratio>
											<anamorphic>FALSE</anamorphic>
											<alphatype>black</alphatype>
											<masterclipid>Raw Interview Matthew Duepner81</masterclipid>
											<logginginfo>
												<scene/>
												<shottake/>
												<lognote/>
												<good>FALSE</good>
											</logginginfo>
											<labels>
												<label2/>
											</labels>
											<comments>
												<mastercomment1/>
												<mastercomment2/>
												<mastercomment3/>
												<mastercomment4/>
											</comments>
											<file id="YIN_2013-05-28_LG-5 "/>
											<sourcetrack>
												<mediatype>video</mediatype>
											</sourcetrack>
											<link>
												<linkclipref>Raw Interview Matthew Duepner80</linkclipref>
												<mediatype>video</mediatype>
												<trackindex>1</trackindex>
												<clipindex>21</clipindex>
											</link>
											<link>
												<linkclipref>Raw Interview Matthew Duepner82</linkclipref>
												<mediatype>audio</mediatype>
												<trackindex>1</trackindex>
												<clipindex>21</clipindex>
												<groupindex>1</groupindex>
											</link>
											<link>
												<linkclipref>Raw Interview Matthew Duepner83</linkclipref>
												<mediatype>audio</mediatype>
												<trackindex>2</trackindex>
												<clipindex>21</clipindex>
												<groupindex>1</groupindex>
											</link>
											<fielddominance>none</fielddominance>
											<itemhistory>
												<uuid>315C0694-9E65-48E1-8FE8-329CDF4D4535</uuid>
											</itemhistory>
										</clipitem>
										<clipitem id="Raw Interview Matthew Duepner84">
											<name>Raw Interview Matthew Duepner</name>
											<duration>81486</duration>
											<rate>
												<ntsc>TRUE</ntsc>
												<timebase>24</timebase>
											</rate>
											<in>20982</in>
											<out>21013</out>
											<start>3245</start>
											<end>3276</end>
											<pixelaspectratio>Square</pixelaspectratio>
											<anamorphic>FALSE</anamorphic>
											<alphatype>black</alphatype>
											<masterclipid>Raw Interview Matthew Duepner85</masterclipid>
											<logginginfo>
												<scene/>
												<shottake/>
												<lognote/>
												<good>FALSE</good>
											</logginginfo>
											<labels>
												<label2/>
											</labels>
											<comments>
												<mastercomment1/>
												<mastercomment2/>
												<mastercomment3/>
												<mastercomment4/>
											</comments>
											<file id="YIN_2013-05-28_LG-5 "/>
											<sourcetrack>
												<mediatype>video</mediatype>
											</sourcetrack>
											<link>
												<linkclipref>Raw Interview Matthew Duepner84</linkclipref>
												<mediatype>video</mediatype>
												<trackindex>1</trackindex>
												<clipindex>22</clipindex>
											</link>
											<link>
												<linkclipref>Raw Interview Matthew Duepner86</linkclipref>
												<mediatype>audio</mediatype>
												<trackindex>1</trackindex>
												<clipindex>22</clipindex>
												<groupindex>1</groupindex>
											</link>
											<link>
												<linkclipref>Raw Interview Matthew Duepner87</linkclipref>
												<mediatype>audio</mediatype>
												<trackindex>2</trackindex>
												<clipindex>22</clipindex>
												<groupindex>1</groupindex>
											</link>
											<fielddominance>none</fielddominance>
											<itemhistory>
												<uuid>A03A5A9C-D4DD-4C8C-8F98-6B1CDCA3999D</uuid>
											</itemhistory>
										</clipitem>
										<clipitem id="Raw Interview Matthew Duepner88">
											<name>Raw Interview Matthew Duepner</name>
											<duration>81486</duration>
											<rate>
												<ntsc>TRUE</ntsc>
												<timebase>24</timebase>
											</rate>
											<in>21714</in>
											<out>21826</out>
											<start>3276</start>
											<end>3388</end>
											<pixelaspectratio>Square</pixelaspectratio>
											<anamorphic>FALSE</anamorphic>
											<alphatype>black</alphatype>
											<masterclipid>Raw Interview Matthew Duepner89</masterclipid>
											<logginginfo>
												<scene/>
												<shottake/>
												<lognote/>
												<good>FALSE</good>
											</logginginfo>
											<labels>
												<label2/>
											</labels>
											<comments>
												<mastercomment1/>
												<mastercomment2/>
												<mastercomment3/>
												<mastercomment4/>
											</comments>
											<file id="YIN_2013-05-28_LG-5 "/>
											<sourcetrack>
												<mediatype>video</mediatype>
											</sourcetrack>
											<link>
												<linkclipref>Raw Interview Matthew Duepner88</linkclipref>
												<mediatype>video</mediatype>
												<trackindex>1</trackindex>
												<clipindex>23</clipindex>
											</link>
											<link>
												<linkclipref>Raw Interview Matthew Duepner90</linkclipref>
												<mediatype>audio</mediatype>
												<trackindex>1</trackindex>
												<clipindex>23</clipindex>
												<groupindex>1</groupindex>
											</link>
											<link>
												<linkclipref>Raw Interview Matthew Duepner91</linkclipref>
												<mediatype>audio</mediatype>
												<trackindex>2</trackindex>
												<clipindex>23</clipindex>
												<groupindex>1</groupindex>
											</link>
											<fielddominance>none</fielddominance>
											<itemhistory>
												<uuid>9C4A09E8-C990-49A6-980E-01228AE9961B</uuid>
											</itemhistory>
										</clipitem>
										<clipitem id="Raw Interview Matthew Duepner92">
											<name>Raw Interview Matthew Duepner</name>
											<duration>81486</duration>
											<rate>
												<ntsc>TRUE</ntsc>
												<timebase>24</timebase>
											</rate>
											<in>22225</in>
											<out>22353</out>
											<start>3388</start>
											<end>3516</end>
											<pixelaspectratio>Square</pixelaspectratio>
											<anamorphic>FALSE</anamorphic>
											<alphatype>black</alphatype>
											<masterclipid>Raw Interview Matthew Duepner93</masterclipid>
											<logginginfo>
												<scene/>
												<shottake/>
												<lognote/>
												<good>FALSE</good>
											</logginginfo>
											<labels>
												<label2/>
											</labels>
											<comments>
												<mastercomment1/>
												<mastercomment2/>
												<mastercomment3/>
												<mastercomment4/>
											</comments>
											<file id="YIN_2013-05-28_LG-5 "/>
											<sourcetrack>
												<mediatype>video</mediatype>
											</sourcetrack>
											<link>
												<linkclipref>Raw Interview Matthew Duepner92</linkclipref>
												<mediatype>video</mediatype>
												<trackindex>1</trackindex>
												<clipindex>24</clipindex>
											</link>
											<link>
												<linkclipref>Raw Interview Matthew Duepner94</linkclipref>
												<mediatype>audio</mediatype>
												<trackindex>1</trackindex>
												<clipindex>24</clipindex>
												<groupindex>1</groupindex>
											</link>
											<link>
												<linkclipref>Raw Interview Matthew Duepner95</linkclipref>
												<mediatype>audio</mediatype>
												<trackindex>2</trackindex>
												<clipindex>24</clipindex>
												<groupindex>1</groupindex>
											</link>
											<fielddominance>none</fielddominance>
											<itemhistory>
												<uuid>860724EC-42B2-4099-ABA2-01A29AA62C1C</uuid>
											</itemhistory>
										</clipitem>
										<clipitem id="Raw Interview Matthew Duepner96">
											<name>Raw Interview Matthew Duepner</name>
											<duration>81486</duration>
											<rate>
												<ntsc>TRUE</ntsc>
												<timebase>24</timebase>
											</rate>
											<in>22806</in>
											<out>23027</out>
											<start>3516</start>
											<end>3737</end>
											<pixelaspectratio>Square</pixelaspectratio>
											<anamorphic>FALSE</anamorphic>
											<alphatype>black</alphatype>
											<masterclipid>Raw Interview Matthew Duepner97</masterclipid>
											<logginginfo>
												<scene/>
												<shottake/>
												<lognote/>
												<good>FALSE</good>
											</logginginfo>
											<labels>
												<label2/>
											</labels>
											<comments>
												<mastercomment1/>
												<mastercomment2/>
												<mastercomment3/>
												<mastercomment4/>
											</comments>
											<file id="YIN_2013-05-28_LG-5 "/>
											<sourcetrack>
												<mediatype>video</mediatype>
											</sourcetrack>
											<link>
												<linkclipref>Raw Interview Matthew Duepner96</linkclipref>
												<mediatype>video</mediatype>
												<trackindex>1</trackindex>
												<clipindex>25</clipindex>
											</link>
											<link>
												<linkclipref>Raw Interview Matthew Duepner98</linkclipref>
												<mediatype>audio</mediatype>
												<trackindex>1</trackindex>
												<clipindex>25</clipindex>
												<groupindex>1</groupindex>
											</link>
											<link>
												<linkclipref>Raw Interview Matthew Duepner99</linkclipref>
												<mediatype>audio</mediatype>
												<trackindex>2</trackindex>
												<clipindex>25</clipindex>
												<groupindex>1</groupindex>
											</link>
											<fielddominance>none</fielddominance>
											<itemhistory>
												<uuid>3E46418E-0109-42F2-9E37-F4FA4F9A2314</uuid>
											</itemhistory>
										</clipitem>
										<clipitem id="Raw Interview Matthew Duepner100">
											<name>Raw Interview Matthew Duepner</name>
											<duration>81486</duration>
											<rate>
												<ntsc>TRUE</ntsc>
												<timebase>24</timebase>
											</rate>
											<in>24285</in>
											<out>24488</out>
											<start>3737</start>
											<end>3940</end>
											<pixelaspectratio>Square</pixelaspectratio>
											<anamorphic>FALSE</anamorphic>
											<alphatype>black</alphatype>
											<masterclipid>Raw Interview Matthew Duepner101</masterclipid>
											<logginginfo>
												<scene/>
												<shottake/>
												<lognote/>
												<good>FALSE</good>
											</logginginfo>
											<labels>
												<label2/>
											</labels>
											<comments>
												<mastercomment1/>
												<mastercomment2/>
												<mastercomment3/>
												<mastercomment4/>
											</comments>
											<file id="YIN_2013-05-28_LG-5 "/>
											<sourcetrack>
												<mediatype>video</mediatype>
											</sourcetrack>
											<link>
												<linkclipref>Raw Interview Matthew Duepner100</linkclipref>
												<mediatype>video</mediatype>
												<trackindex>1</trackindex>
												<clipindex>26</clipindex>
											</link>
											<link>
												<linkclipref>Raw Interview Matthew Duepner102</linkclipref>
												<mediatype>audio</mediatype>
												<trackindex>1</trackindex>
												<clipindex>26</clipindex>
												<groupindex>1</groupindex>
											</link>
											<link>
												<linkclipref>Raw Interview Matthew Duepner103</linkclipref>
												<mediatype>audio</mediatype>
												<trackindex>2</trackindex>
												<clipindex>26</clipindex>
												<groupindex>1</groupindex>
											</link>
											<fielddominance>none</fielddominance>
											<itemhistory>
												<uuid>C40D40FD-5A2C-43C0-A4A6-A7CE0BDB0238</uuid>
											</itemhistory>
										</clipitem>
										<clipitem id="Raw Interview Matthew Duepner104">
											<name>Raw Interview Matthew Duepner</name>
											<duration>81486</duration>
											<rate>
												<ntsc>TRUE</ntsc>
												<timebase>24</timebase>
											</rate>
											<in>24734</in>
											<out>25029</out>
											<start>3940</start>
											<end>4235</end>
											<pixelaspectratio>Square</pixelaspectratio>
											<anamorphic>FALSE</anamorphic>
											<alphatype>black</alphatype>
											<masterclipid>Raw Interview Matthew Duepner105</masterclipid>
											<logginginfo>
												<scene/>
												<shottake/>
												<lognote/>
												<good>FALSE</good>
											</logginginfo>
											<labels>
												<label2/>
											</labels>
											<comments>
												<mastercomment1/>
												<mastercomment2/>
												<mastercomment3/>
												<mastercomment4/>
											</comments>
											<file id="YIN_2013-05-28_LG-5 "/>
											<sourcetrack>
												<mediatype>video</mediatype>
											</sourcetrack>
											<link>
												<linkclipref>Raw Interview Matthew Duepner104</linkclipref>
												<mediatype>video</mediatype>
												<trackindex>1</trackindex>
												<clipindex>27</clipindex>
											</link>
											<link>
												<linkclipref>Raw Interview Matthew Duepner106</linkclipref>
												<mediatype>audio</mediatype>
												<trackindex>1</trackindex>
												<clipindex>27</clipindex>
												<groupindex>1</groupindex>
											</link>
											<link>
												<linkclipref>Raw Interview Matthew Duepner107</linkclipref>
												<mediatype>audio</mediatype>
												<trackindex>2</trackindex>
												<clipindex>27</clipindex>
												<groupindex>1</groupindex>
											</link>
											<fielddominance>none</fielddominance>
											<itemhistory>
												<uuid>67F4DC4C-E578-4F23-AC8A-8D6FC393094D</uuid>
											</itemhistory>
										</clipitem>
										<clipitem id="Raw Interview Matthew Duepner108">
											<name>Raw Interview Matthew Duepner</name>
											<duration>81486</duration>
											<rate>
												<ntsc>TRUE</ntsc>
												<timebase>24</timebase>
											</rate>
											<in>23029</in>
											<out>23131</out>
											<start>4235</start>
											<end>4337</end>
											<pixelaspectratio>Square</pixelaspectratio>
											<anamorphic>FALSE</anamorphic>
											<alphatype>black</alphatype>
											<masterclipid>Raw Interview Matthew Duepner109</masterclipid>
											<logginginfo>
												<scene/>
												<shottake/>
												<lognote/>
												<good>FALSE</good>
											</logginginfo>
											<labels>
												<label2/>
											</labels>
											<comments>
												<mastercomment1/>
												<mastercomment2/>
												<mastercomment3/>
												<mastercomment4/>
											</comments>
											<file id="YIN_2013-05-28_LG-5 "/>
											<sourcetrack>
												<mediatype>video</mediatype>
											</sourcetrack>
											<link>
												<linkclipref>Raw Interview Matthew Duepner108</linkclipref>
												<mediatype>video</mediatype>
												<trackindex>1</trackindex>
												<clipindex>28</clipindex>
											</link>
											<link>
												<linkclipref>Raw Interview Matthew Duepner110</linkclipref>
												<mediatype>audio</mediatype>
												<trackindex>1</trackindex>
												<clipindex>28</clipindex>
												<groupindex>1</groupindex>
											</link>
											<link>
												<linkclipref>Raw Interview Matthew Duepner111</linkclipref>
												<mediatype>audio</mediatype>
												<trackindex>2</trackindex>
												<clipindex>28</clipindex>
												<groupindex>1</groupindex>
											</link>
											<fielddominance>none</fielddominance>
											<itemhistory>
												<uuid>3C377DA5-890B-4EA1-B792-1B99D1F48A43</uuid>
											</itemhistory>
										</clipitem>
										<clipitem id="Raw Interview Matthew Duepner112">
											<name>Raw Interview Matthew Duepner</name>
											<duration>81486</duration>
											<rate>
												<ntsc>TRUE</ntsc>
												<timebase>24</timebase>
											</rate>
											<in>1221</in>
											<out>1396</out>
											<start>4440</start>
											<end>4615</end>
											<pixelaspectratio>Square</pixelaspectratio>
											<anamorphic>FALSE</anamorphic>
											<alphatype>black</alphatype>
											<masterclipid>Raw Interview Matthew Duepner113</masterclipid>
											<logginginfo>
												<scene/>
												<shottake/>
												<lognote/>
												<good>FALSE</good>
											</logginginfo>
											<labels>
												<label2/>
											</labels>
											<comments>
												<mastercomment1/>
												<mastercomment2/>
												<mastercomment3/>
												<mastercomment4/>
											</comments>
											<file id="YIN_2013-05-28_LG-5 "/>
											<sourcetrack>
												<mediatype>video</mediatype>
											</sourcetrack>
											<link>
												<linkclipref>Raw Interview Matthew Duepner112</linkclipref>
												<mediatype>video</mediatype>
												<trackindex>1</trackindex>
												<clipindex>29</clipindex>
											</link>
											<link>
												<linkclipref>Raw Interview Matthew Duepner114</linkclipref>
												<mediatype>audio</mediatype>
												<trackindex>1</trackindex>
												<clipindex>29</clipindex>
												<groupindex>1</groupindex>
											</link>
											<link>
												<linkclipref>Raw Interview Matthew Duepner115</linkclipref>
												<mediatype>audio</mediatype>
												<trackindex>2</trackindex>
												<clipindex>29</clipindex>
												<groupindex>1</groupindex>
											</link>
											<fielddominance>none</fielddominance>
											<itemhistory>
												<uuid>30E2B96E-2D0C-4989-97E2-8AA339FCC030</uuid>
											</itemhistory>
										</clipitem>
										<clipitem id="Raw Interview Matthew Duepner116">
											<name>Raw Interview Matthew Duepner</name>
											<duration>81486</duration>
											<rate>
												<ntsc>TRUE</ntsc>
												<timebase>24</timebase>
											</rate>
											<in>5143</in>
											<out>5320</out>
											<start>4615</start>
											<end>4792</end>
											<pixelaspectratio>Square</pixelaspectratio>
											<anamorphic>FALSE</anamorphic>
											<alphatype>black</alphatype>
											<masterclipid>Raw Interview Matthew Duepner117</masterclipid>
											<logginginfo>
												<scene/>
												<shottake/>
												<lognote/>
												<good>FALSE</good>
											</logginginfo>
											<labels>
												<label2/>
											</labels>
											<comments>
												<mastercomment1/>
												<mastercomment2/>
												<mastercomment3/>
												<mastercomment4/>
											</comments>
											<file id="YIN_2013-05-28_LG-5 "/>
											<sourcetrack>
												<mediatype>video</mediatype>
											</sourcetrack>
											<link>
												<linkclipref>Raw Interview Matthew Duepner116</linkclipref>
												<mediatype>video</mediatype>
												<trackindex>1</trackindex>
												<clipindex>30</clipindex>
											</link>
											<link>
												<linkclipref>Raw Interview Matthew Duepner118</linkclipref>
												<mediatype>audio</mediatype>
												<trackindex>1</trackindex>
												<clipindex>30</clipindex>
												<groupindex>1</groupindex>
											</link>
											<link>
												<linkclipref>Raw Interview Matthew Duepner119</linkclipref>
												<mediatype>audio</mediatype>
												<trackindex>2</trackindex>
												<clipindex>30</clipindex>
												<groupindex>1</groupindex>
											</link>
											<fielddominance>none</fielddominance>
											<itemhistory>
												<uuid>DE586D87-3510-46C2-88A7-A5277D65CFC4</uuid>
											</itemhistory>
										</clipitem>
										<clipitem id="Raw Interview Matthew Duepner120">
											<name>Raw Interview Matthew Duepner</name>
											<duration>81486</duration>
											<rate>
												<ntsc>TRUE</ntsc>
												<timebase>24</timebase>
											</rate>
											<in>17964</in>
											<out>18186</out>
											<start>4824</start>
											<end>5046</end>
											<pixelaspectratio>Square</pixelaspectratio>
											<anamorphic>FALSE</anamorphic>
											<alphatype>black</alphatype>
											<masterclipid>Raw Interview Matthew Duepner121</masterclipid>
											<logginginfo>
												<scene/>
												<shottake/>
												<lognote/>
												<good>FALSE</good>
											</logginginfo>
											<labels>
												<label2/>
											</labels>
											<comments>
												<mastercomment1/>
												<mastercomment2/>
												<mastercomment3/>
												<mastercomment4/>
											</comments>
											<file id="YIN_2013-05-28_LG-5 "/>
											<sourcetrack>
												<mediatype>video</mediatype>
											</sourcetrack>
											<link>
												<linkclipref>Raw Interview Matthew Duepner120</linkclipref>
												<mediatype>video</mediatype>
												<trackindex>1</trackindex>
												<clipindex>31</clipindex>
											</link>
											<link>
												<linkclipref>Raw Interview Matthew Duepner122</linkclipref>
												<mediatype>audio</mediatype>
												<trackindex>1</trackindex>
												<clipindex>31</clipindex>
												<groupindex>1</groupindex>
											</link>
											<link>
												<linkclipref>Raw Interview Matthew Duepner123</linkclipref>
												<mediatype>audio</mediatype>
												<trackindex>2</trackindex>
												<clipindex>31</clipindex>
												<groupindex>1</groupindex>
											</link>
											<fielddominance>none</fielddominance>
											<itemhistory>
												<uuid>31448C20-1D50-4FA6-9CD5-D8D68BA99771</uuid>
											</itemhistory>
										</clipitem>
										<clipitem id="Raw Interview Matthew Duepner124">
											<name>Raw Interview Matthew Duepner</name>
											<duration>81486</duration>
											<rate>
												<ntsc>TRUE</ntsc>
												<timebase>24</timebase>
											</rate>
											<in>18235</in>
											<out>18405</out>
											<start>5046</start>
											<end>5216</end>
											<pixelaspectratio>Square</pixelaspectratio>
											<anamorphic>FALSE</anamorphic>
											<alphatype>black</alphatype>
											<masterclipid>Raw Interview Matthew Duepner125</masterclipid>
											<logginginfo>
												<scene/>
												<shottake/>
												<lognote/>
												<good>FALSE</good>
											</logginginfo>
											<labels>
												<label2/>
											</labels>
											<comments>
												<mastercomment1/>
												<mastercomment2/>
												<mastercomment3/>
												<mastercomment4/>
											</comments>
											<file id="YIN_2013-05-28_LG-5 "/>
											<sourcetrack>
												<mediatype>video</mediatype>
											</sourcetrack>
											<link>
												<linkclipref>Raw Interview Matthew Duepner124</linkclipref>
												<mediatype>video</mediatype>
												<trackindex>1</trackindex>
												<clipindex>32</clipindex>
											</link>
											<link>
												<linkclipref>Raw Interview Matthew Duepner126</linkclipref>
												<mediatype>audio</mediatype>
												<trackindex>1</trackindex>
												<clipindex>32</clipindex>
												<groupindex>1</groupindex>
											</link>
											<link>
												<linkclipref>Raw Interview Matthew Duepner127</linkclipref>
												<mediatype>audio</mediatype>
												<trackindex>2</trackindex>
												<clipindex>32</clipindex>
												<groupindex>1</groupindex>
											</link>
											<fielddominance>none</fielddominance>
											<itemhistory>
												<uuid>784A2FF4-DBC9-45AB-8FD8-8B01C57CFCBE</uuid>
											</itemhistory>
										</clipitem>
										<clipitem id="Raw Interview Matthew Duepner128">
											<name>Raw Interview Matthew Duepner</name>
											<duration>81486</duration>
											<rate>
												<ntsc>TRUE</ntsc>
												<timebase>24</timebase>
											</rate>
											<in>18444</in>
											<out>18613</out>
											<start>5216</start>
											<end>5385</end>
											<pixelaspectratio>Square</pixelaspectratio>
											<anamorphic>FALSE</anamorphic>
											<alphatype>black</alphatype>
											<masterclipid>Raw Interview Matthew Duepner129</masterclipid>
											<logginginfo>
												<scene/>
												<shottake/>
												<lognote/>
												<good>FALSE</good>
											</logginginfo>
											<labels>
												<label2/>
											</labels>
											<comments>
												<mastercomment1/>
												<mastercomment2/>
												<mastercomment3/>
												<mastercomment4/>
											</comments>
											<file id="YIN_2013-05-28_LG-5 "/>
											<sourcetrack>
												<mediatype>video</mediatype>
											</sourcetrack>
											<link>
												<linkclipref>Raw Interview Matthew Duepner128</linkclipref>
												<mediatype>video</mediatype>
												<trackindex>1</trackindex>
												<clipindex>33</clipindex>
											</link>
											<link>
												<linkclipref>Raw Interview Matthew Duepner130</linkclipref>
												<mediatype>audio</mediatype>
												<trackindex>1</trackindex>
												<clipindex>33</clipindex>
												<groupindex>1</groupindex>
											</link>
											<link>
												<linkclipref>Raw Interview Matthew Duepner131</linkclipref>
												<mediatype>audio</mediatype>
												<trackindex>2</trackindex>
												<clipindex>33</clipindex>
												<groupindex>1</groupindex>
											</link>
											<fielddominance>none</fielddominance>
											<itemhistory>
												<uuid>52753943-E4DB-4573-A6EA-060D8499A290</uuid>
											</itemhistory>
										</clipitem>
										<clipitem id="Raw Interview Matthew Duepner132">
											<name>Raw Interview Matthew Duepner</name>
											<duration>81486</duration>
											<rate>
												<ntsc>TRUE</ntsc>
												<timebase>24</timebase>
											</rate>
											<in>18645</in>
											<out>18709</out>
											<start>5385</start>
											<end>5449</end>
											<pixelaspectratio>Square</pixelaspectratio>
											<anamorphic>FALSE</anamorphic>
											<alphatype>black</alphatype>
											<masterclipid>Raw Interview Matthew Duepner133</masterclipid>
											<logginginfo>
												<scene/>
												<shottake/>
												<lognote/>
												<good>FALSE</good>
											</logginginfo>
											<labels>
												<label2/>
											</labels>
											<comments>
												<mastercomment1/>
												<mastercomment2/>
												<mastercomment3/>
												<mastercomment4/>
											</comments>
											<file id="YIN_2013-05-28_LG-5 "/>
											<sourcetrack>
												<mediatype>video</mediatype>
											</sourcetrack>
											<link>
												<linkclipref>Raw Interview Matthew Duepner132</linkclipref>
												<mediatype>video</mediatype>
												<trackindex>1</trackindex>
												<clipindex>34</clipindex>
											</link>
											<link>
												<linkclipref>Raw Interview Matthew Duepner134</linkclipref>
												<mediatype>audio</mediatype>
												<trackindex>1</trackindex>
												<clipindex>34</clipindex>
												<groupindex>1</groupindex>
											</link>
											<link>
												<linkclipref>Raw Interview Matthew Duepner135</linkclipref>
												<mediatype>audio</mediatype>
												<trackindex>2</trackindex>
												<clipindex>34</clipindex>
												<groupindex>1</groupindex>
											</link>
											<fielddominance>none</fielddominance>
											<itemhistory>
												<uuid>6EB197D5-8C0C-431D-A9B5-F67F1F4AA01D</uuid>
											</itemhistory>
										</clipitem>
										<clipitem id="Raw Interview Matthew Duepner136">
											<name>Raw Interview Matthew Duepner</name>
											<duration>81486</duration>
											<rate>
												<ntsc>TRUE</ntsc>
												<timebase>24</timebase>
											</rate>
											<in>50956</in>
											<out>51015</out>
											<start>5449</start>
											<end>5508</end>
											<pixelaspectratio>Square</pixelaspectratio>
											<anamorphic>FALSE</anamorphic>
											<alphatype>black</alphatype>
											<masterclipid>Raw Interview Matthew Duepner137</masterclipid>
											<logginginfo>
												<scene/>
												<shottake/>
												<lognote/>
												<good>FALSE</good>
											</logginginfo>
											<labels>
												<label2/>
											</labels>
											<comments>
												<mastercomment1/>
												<mastercomment2/>
												<mastercomment3/>
												<mastercomment4/>
											</comments>
											<file id="YIN_2013-05-28_LG-5 "/>
											<sourcetrack>
												<mediatype>video</mediatype>
											</sourcetrack>
											<link>
												<linkclipref>Raw Interview Matthew Duepner136</linkclipref>
												<mediatype>video</mediatype>
												<trackindex>1</trackindex>
												<clipindex>35</clipindex>
											</link>
											<link>
												<linkclipref>Raw Interview Matthew Duepner138</linkclipref>
												<mediatype>audio</mediatype>
												<trackindex>1</trackindex>
												<clipindex>35</clipindex>
												<groupindex>1</groupindex>
											</link>
											<link>
												<linkclipref>Raw Interview Matthew Duepner139</linkclipref>
												<mediatype>audio</mediatype>
												<trackindex>2</trackindex>
												<clipindex>35</clipindex>
												<groupindex>1</groupindex>
											</link>
											<fielddominance>none</fielddominance>
											<itemhistory>
												<uuid>399356B1-E6EC-4F5D-9B8B-684AED319A89</uuid>
											</itemhistory>
										</clipitem>
										<clipitem id="Raw Interview Matthew Duepner140">
											<name>Raw Interview Matthew Duepner</name>
											<duration>81486</duration>
											<rate>
												<ntsc>TRUE</ntsc>
												<timebase>24</timebase>
											</rate>
											<in>18739</in>
											<out>19018</out>
											<start>5508</start>
											<end>5787</end>
											<pixelaspectratio>Square</pixelaspectratio>
											<anamorphic>FALSE</anamorphic>
											<alphatype>black</alphatype>
											<masterclipid>Raw Interview Matthew Duepner141</masterclipid>
											<logginginfo>
												<scene/>
												<shottake/>
												<lognote/>
												<good>FALSE</good>
											</logginginfo>
											<labels>
												<label2/>
											</labels>
											<comments>
												<mastercomment1/>
												<mastercomment2/>
												<mastercomment3/>
												<mastercomment4/>
											</comments>
											<file id="YIN_2013-05-28_LG-5 "/>
											<sourcetrack>
												<mediatype>video</mediatype>
											</sourcetrack>
											<link>
												<linkclipref>Raw Interview Matthew Duepner140</linkclipref>
												<mediatype>video</mediatype>
												<trackindex>1</trackindex>
												<clipindex>36</clipindex>
											</link>
											<link>
												<linkclipref>Raw Interview Matthew Duepner142</linkclipref>
												<mediatype>audio</mediatype>
												<trackindex>1</trackindex>
												<clipindex>36</clipindex>
												<groupindex>1</groupindex>
											</link>
											<link>
												<linkclipref>Raw Interview Matthew Duepner143</linkclipref>
												<mediatype>audio</mediatype>
												<trackindex>2</trackindex>
												<clipindex>36</clipindex>
												<groupindex>1</groupindex>
											</link>
											<fielddominance>none</fielddominance>
											<itemhistory>
												<uuid>6AB48EF9-EC54-4E7D-9AE6-A522D26B7F5F</uuid>
											</itemhistory>
										</clipitem>
										<clipitem id="Raw Interview Matthew Duepner144">
											<name>Raw Interview Matthew Duepner</name>
											<duration>81486</duration>
											<rate>
												<ntsc>TRUE</ntsc>
												<timebase>24</timebase>
											</rate>
											<in>56083</in>
											<out>56203</out>
											<start>5829</start>
											<end>5949</end>
											<pixelaspectratio>Square</pixelaspectratio>
											<anamorphic>FALSE</anamorphic>
											<alphatype>black</alphatype>
											<masterclipid>Raw Interview Matthew Duepner145</masterclipid>
											<logginginfo>
												<scene/>
												<shottake/>
												<lognote/>
												<good>FALSE</good>
											</logginginfo>
											<labels>
												<label2/>
											</labels>
											<comments>
												<mastercomment1/>
												<mastercomment2/>
												<mastercomment3/>
												<mastercomment4/>
											</comments>
											<file id="YIN_2013-05-28_LG-5 "/>
											<sourcetrack>
												<mediatype>video</mediatype>
											</sourcetrack>
											<link>
												<linkclipref>Raw Interview Matthew Duepner144</linkclipref>
												<mediatype>video</mediatype>
												<trackindex>1</trackindex>
												<clipindex>37</clipindex>
											</link>
											<link>
												<linkclipref>Raw Interview Matthew Duepner146</linkclipref>
												<mediatype>audio</mediatype>
												<trackindex>1</trackindex>
												<clipindex>37</clipindex>
												<groupindex>1</groupindex>
											</link>
											<link>
												<linkclipref>Raw Interview Matthew Duepner147</linkclipref>
												<mediatype>audio</mediatype>
												<trackindex>2</trackindex>
												<clipindex>37</clipindex>
												<groupindex>1</groupindex>
											</link>
											<fielddominance>none</fielddominance>
											<itemhistory>
												<uuid>93257E5B-0F8D-48C8-998C-84F031C8B97E</uuid>
											</itemhistory>
										</clipitem>
										<clipitem id="Raw Interview Matthew Duepner148">
											<name>Raw Interview Matthew Duepner</name>
											<duration>81486</duration>
											<rate>
												<ntsc>TRUE</ntsc>
												<timebase>24</timebase>
											</rate>
											<in>56334</in>
											<out>56423</out>
											<start>5949</start>
											<end>6038</end>
											<pixelaspectratio>Square</pixelaspectratio>
											<anamorphic>FALSE</anamorphic>
											<alphatype>black</alphatype>
											<masterclipid>Raw Interview Matthew Duepner149</masterclipid>
											<logginginfo>
												<scene/>
												<shottake/>
												<lognote/>
												<good>FALSE</good>
											</logginginfo>
											<labels>
												<label2/>
											</labels>
											<comments>
												<mastercomment1/>
												<mastercomment2/>
												<mastercomment3/>
												<mastercomment4/>
											</comments>
											<file id="YIN_2013-05-28_LG-5 "/>
											<sourcetrack>
												<mediatype>video</mediatype>
											</sourcetrack>
											<link>
												<linkclipref>Raw Interview Matthew Duepner148</linkclipref>
												<mediatype>video</mediatype>
												<trackindex>1</trackindex>
												<clipindex>38</clipindex>
											</link>
											<link>
												<linkclipref>Raw Interview Matthew Duepner150</linkclipref>
												<mediatype>audio</mediatype>
												<trackindex>1</trackindex>
												<clipindex>38</clipindex>
												<groupindex>1</groupindex>
											</link>
											<link>
												<linkclipref>Raw Interview Matthew Duepner151</linkclipref>
												<mediatype>audio</mediatype>
												<trackindex>2</trackindex>
												<clipindex>38</clipindex>
												<groupindex>1</groupindex>
											</link>
											<fielddominance>none</fielddominance>
											<itemhistory>
												<uuid>757627C7-A379-4386-857B-FDF974637A9F</uuid>
											</itemhistory>
										</clipitem>
										<clipitem id="Raw Interview Matthew Duepner152">
											<name>Raw Interview Matthew Duepner</name>
											<duration>81486</duration>
											<rate>
												<ntsc>TRUE</ntsc>
												<timebase>24</timebase>
											</rate>
											<in>19126</in>
											<out>19267</out>
											<start>6093</start>
											<end>6234</end>
											<pixelaspectratio>Square</pixelaspectratio>
											<anamorphic>FALSE</anamorphic>
											<alphatype>black</alphatype>
											<masterclipid>Raw Interview Matthew Duepner153</masterclipid>
											<logginginfo>
												<scene/>
												<shottake/>
												<lognote/>
												<good>FALSE</good>
											</logginginfo>
											<labels>
												<label2/>
											</labels>
											<comments>
												<mastercomment1/>
												<mastercomment2/>
												<mastercomment3/>
												<mastercomment4/>
											</comments>
											<file id="YIN_2013-05-28_LG-5 "/>
											<sourcetrack>
												<mediatype>video</mediatype>
											</sourcetrack>
											<link>
												<linkclipref>Raw Interview Matthew Duepner152</linkclipref>
												<mediatype>video</mediatype>
												<trackindex>1</trackindex>
												<clipindex>39</clipindex>
											</link>
											<link>
												<linkclipref>Raw Interview Matthew Duepner154</linkclipref>
												<mediatype>audio</mediatype>
												<trackindex>1</trackindex>
												<clipindex>39</clipindex>
												<groupindex>1</groupindex>
											</link>
											<link>
												<linkclipref>Raw Interview Matthew Duepner155</linkclipref>
												<mediatype>audio</mediatype>
												<trackindex>2</trackindex>
												<clipindex>39</clipindex>
												<groupindex>1</groupindex>
											</link>
											<fielddominance>none</fielddominance>
											<itemhistory>
												<uuid>1A0AA7EA-F3A7-4EAA-B687-A33291560E53</uuid>
											</itemhistory>
										</clipitem>
										<clipitem id="Raw Interview Matthew Duepner156">
											<name>Raw Interview Matthew Duepner</name>
											<duration>81486</duration>
											<rate>
												<ntsc>TRUE</ntsc>
												<timebase>24</timebase>
											</rate>
											<in>57619</in>
											<out>57904</out>
											<start>6234</start>
											<end>6519</end>
											<pixelaspectratio>Square</pixelaspectratio>
											<anamorphic>FALSE</anamorphic>
											<alphatype>black</alphatype>
											<masterclipid>Raw Interview Matthew Duepner157</masterclipid>
											<logginginfo>
												<scene/>
												<shottake/>
												<lognote/>
												<good>FALSE</good>
											</logginginfo>
											<labels>
												<label2/>
											</labels>
											<comments>
												<mastercomment1/>
												<mastercomment2/>
												<mastercomment3/>
												<mastercomment4/>
											</comments>
											<file id="YIN_2013-05-28_LG-5 "/>
											<sourcetrack>
												<mediatype>video</mediatype>
											</sourcetrack>
											<link>
												<linkclipref>Raw Interview Matthew Duepner156</linkclipref>
												<mediatype>video</mediatype>
												<trackindex>1</trackindex>
												<clipindex>40</clipindex>
											</link>
											<link>
												<linkclipref>Raw Interview Matthew Duepner158</linkclipref>
												<mediatype>audio</mediatype>
												<trackindex>1</trackindex>
												<clipindex>40</clipindex>
												<groupindex>1</groupindex>
											</link>
											<link>
												<linkclipref>Raw Interview Matthew Duepner159</linkclipref>
												<mediatype>audio</mediatype>
												<trackindex>2</trackindex>
												<clipindex>40</clipindex>
												<groupindex>1</groupindex>
											</link>
											<fielddominance>none</fielddominance>
											<itemhistory>
												<uuid>2C905143-0B6F-4B57-BD60-E713D14BC2BB</uuid>
											</itemhistory>
										</clipitem>
										<clipitem id="Raw Interview Matthew Duepner160">
											<name>Raw Interview Matthew Duepner</name>
											<duration>81486</duration>
											<rate>
												<ntsc>TRUE</ntsc>
												<timebase>24</timebase>
											</rate>
											<in>51376</in>
											<out>51520</out>
											<start>6519</start>
											<end>6663</end>
											<pixelaspectratio>Square</pixelaspectratio>
											<anamorphic>FALSE</anamorphic>
											<alphatype>black</alphatype>
											<masterclipid>Raw Interview Matthew Duepner161</masterclipid>
											<logginginfo>
												<scene/>
												<shottake/>
												<lognote/>
												<good>FALSE</good>
											</logginginfo>
											<labels>
												<label2/>
											</labels>
											<comments>
												<mastercomment1/>
												<mastercomment2/>
												<mastercomment3/>
												<mastercomment4/>
											</comments>
											<file id="YIN_2013-05-28_LG-5 "/>
											<sourcetrack>
												<mediatype>video</mediatype>
											</sourcetrack>
											<link>
												<linkclipref>Raw Interview Matthew Duepner160</linkclipref>
												<mediatype>video</mediatype>
												<trackindex>1</trackindex>
												<clipindex>41</clipindex>
											</link>
											<link>
												<linkclipref>Raw Interview Matthew Duepner162</linkclipref>
												<mediatype>audio</mediatype>
												<trackindex>1</trackindex>
												<clipindex>41</clipindex>
												<groupindex>1</groupindex>
											</link>
											<link>
												<linkclipref>Raw Interview Matthew Duepner163</linkclipref>
												<mediatype>audio</mediatype>
												<trackindex>2</trackindex>
												<clipindex>41</clipindex>
												<groupindex>1</groupindex>
											</link>
											<fielddominance>none</fielddominance>
											<itemhistory>
												<uuid>6E41A713-42AB-44BF-A69A-9ED384D95B3D</uuid>
											</itemhistory>
										</clipitem>
										<clipitem id="Raw Interview Matthew Duepner164">
											<name>Raw Interview Matthew Duepner</name>
											<duration>81486</duration>
											<rate>
												<ntsc>TRUE</ntsc>
												<timebase>24</timebase>
											</rate>
											<in>38283</in>
											<out>38784</out>
											<start>7006</start>
											<end>7507</end>
											<pixelaspectratio>Square</pixelaspectratio>
											<anamorphic>FALSE</anamorphic>
											<alphatype>black</alphatype>
											<masterclipid>Raw Interview Matthew Duepner165</masterclipid>
											<logginginfo>
												<scene/>
												<shottake/>
												<lognote/>
												<good>FALSE</good>
											</logginginfo>
											<labels>
												<label2/>
											</labels>
											<comments>
												<mastercomment1/>
												<mastercomment2/>
												<mastercomment3/>
												<mastercomment4/>
											</comments>
											<file id="YIN_2013-05-28_LG-5 "/>
											<sourcetrack>
												<mediatype>video</mediatype>
											</sourcetrack>
											<link>
												<linkclipref>Raw Interview Matthew Duepner164</linkclipref>
												<mediatype>video</mediatype>
												<trackindex>1</trackindex>
												<clipindex>42</clipindex>
											</link>
											<link>
												<linkclipref>Raw Interview Matthew Duepner166</linkclipref>
												<mediatype>audio</mediatype>
												<trackindex>1</trackindex>
												<clipindex>42</clipindex>
												<groupindex>1</groupindex>
											</link>
											<link>
												<linkclipref>Raw Interview Matthew Duepner167</linkclipref>
												<mediatype>audio</mediatype>
												<trackindex>2</trackindex>
												<clipindex>42</clipindex>
												<groupindex>1</groupindex>
											</link>
											<fielddominance>none</fielddominance>
											<itemhistory>
												<uuid>51D3D684-164B-4B94-80D1-DAA6491179C6</uuid>
											</itemhistory>
										</clipitem>
										<clipitem id="Raw Interview Matthew Duepner168">
											<name>Raw Interview Matthew Duepner</name>
											<duration>81486</duration>
											<rate>
												<ntsc>TRUE</ntsc>
												<timebase>24</timebase>
											</rate>
											<in>51892</in>
											<out>52054</out>
											<start>7507</start>
											<end>7669</end>
											<pixelaspectratio>Square</pixelaspectratio>
											<anamorphic>FALSE</anamorphic>
											<alphatype>black</alphatype>
											<masterclipid>Raw Interview Matthew Duepner169</masterclipid>
											<logginginfo>
												<scene/>
												<shottake/>
												<lognote/>
												<good>FALSE</good>
											</logginginfo>
											<labels>
												<label2/>
											</labels>
											<comments>
												<mastercomment1/>
												<mastercomment2/>
												<mastercomment3/>
												<mastercomment4/>
											</comments>
											<file id="YIN_2013-05-28_LG-5 "/>
											<sourcetrack>
												<mediatype>video</mediatype>
											</sourcetrack>
											<link>
												<linkclipref>Raw Interview Matthew Duepner168</linkclipref>
												<mediatype>video</mediatype>
												<trackindex>1</trackindex>
												<clipindex>43</clipindex>
											</link>
											<link>
												<linkclipref>Raw Interview Matthew Duepner170</linkclipref>
												<mediatype>audio</mediatype>
												<trackindex>1</trackindex>
												<clipindex>43</clipindex>
												<groupindex>1</groupindex>
											</link>
											<link>
												<linkclipref>Raw Interview Matthew Duepner171</linkclipref>
												<mediatype>audio</mediatype>
												<trackindex>2</trackindex>
												<clipindex>43</clipindex>
												<groupindex>1</groupindex>
											</link>
											<fielddominance>none</fielddominance>
											<itemhistory>
												<uuid>111A5602-8B2F-4A67-B5D3-2E58886732F0</uuid>
											</itemhistory>
										</clipitem>
										<clipitem id="Raw Interview Matthew Duepner172">
											<name>Raw Interview Matthew Duepner</name>
											<duration>81486</duration>
											<rate>
												<ntsc>TRUE</ntsc>
												<timebase>24</timebase>
											</rate>
											<in>19372</in>
											<out>19423</out>
											<start>7734</start>
											<end>7785</end>
											<pixelaspectratio>Square</pixelaspectratio>
											<anamorphic>FALSE</anamorphic>
											<alphatype>black</alphatype>
											<masterclipid>Raw Interview Matthew Duepner173</masterclipid>
											<logginginfo>
												<scene/>
												<shottake/>
												<lognote/>
												<good>FALSE</good>
											</logginginfo>
											<labels>
												<label2/>
											</labels>
											<comments>
												<mastercomment1/>
												<mastercomment2/>
												<mastercomment3/>
												<mastercomment4/>
											</comments>
											<file id="YIN_2013-05-28_LG-5 "/>
											<sourcetrack>
												<mediatype>video</mediatype>
											</sourcetrack>
											<link>
												<linkclipref>Raw Interview Matthew Duepner172</linkclipref>
												<mediatype>video</mediatype>
												<trackindex>1</trackindex>
												<clipindex>44</clipindex>
											</link>
											<link>
												<linkclipref>Raw Interview Matthew Duepner174</linkclipref>
												<mediatype>audio</mediatype>
												<trackindex>1</trackindex>
												<clipindex>44</clipindex>
												<groupindex>1</groupindex>
											</link>
											<link>
												<linkclipref>Raw Interview Matthew Duepner175</linkclipref>
												<mediatype>audio</mediatype>
												<trackindex>2</trackindex>
												<clipindex>44</clipindex>
												<groupindex>1</groupindex>
											</link>
											<fielddominance>none</fielddominance>
											<itemhistory>
												<uuid>7EFC38F4-9C4C-4AFA-8D07-B19ADA46C331</uuid>
											</itemhistory>
										</clipitem>
										<clipitem id="Raw Interview Matthew Duepner176">
											<name>Raw Interview Matthew Duepner</name>
											<duration>81486</duration>
											<rate>
												<ntsc>TRUE</ntsc>
												<timebase>24</timebase>
											</rate>
											<in>19423</in>
											<out>19457</out>
											<start>7785</start>
											<end>7819</end>
											<pixelaspectratio>Square</pixelaspectratio>
											<anamorphic>FALSE</anamorphic>
											<alphatype>black</alphatype>
											<masterclipid>Raw Interview Matthew Duepner177</masterclipid>
											<logginginfo>
												<scene/>
												<shottake/>
												<lognote/>
												<good>FALSE</good>
											</logginginfo>
											<labels>
												<label2/>
											</labels>
											<comments>
												<mastercomment1/>
												<mastercomment2/>
												<mastercomment3/>
												<mastercomment4/>
											</comments>
											<file id="YIN_2013-05-28_LG-5 "/>
											<sourcetrack>
												<mediatype>video</mediatype>
											</sourcetrack>
											<link>
												<linkclipref>Raw Interview Matthew Duepner176</linkclipref>
												<mediatype>video</mediatype>
												<trackindex>1</trackindex>
												<clipindex>45</clipindex>
											</link>
											<link>
												<linkclipref>Raw Interview Matthew Duepner178</linkclipref>
												<mediatype>audio</mediatype>
												<trackindex>1</trackindex>
												<clipindex>45</clipindex>
												<groupindex>1</groupindex>
											</link>
											<link>
												<linkclipref>Raw Interview Matthew Duepner179</linkclipref>
												<mediatype>audio</mediatype>
												<trackindex>2</trackindex>
												<clipindex>45</clipindex>
												<groupindex>1</groupindex>
											</link>
											<fielddominance>none</fielddominance>
											<itemhistory>
												<uuid>EF7CA0B5-E128-4A99-8A6D-83C945F138CD</uuid>
											</itemhistory>
										</clipitem>
										<clipitem id="Raw Interview Matthew Duepner180">
											<name>Raw Interview Matthew Duepner</name>
											<duration>81486</duration>
											<rate>
												<ntsc>TRUE</ntsc>
												<timebase>24</timebase>
											</rate>
											<in>19522</in>
											<out>19602</out>
											<start>7819</start>
											<end>7899</end>
											<pixelaspectratio>Square</pixelaspectratio>
											<anamorphic>FALSE</anamorphic>
											<alphatype>black</alphatype>
											<masterclipid>Raw Interview Matthew Duepner181</masterclipid>
											<logginginfo>
												<scene/>
												<shottake/>
												<lognote/>
												<good>FALSE</good>
											</logginginfo>
											<labels>
												<label2/>
											</labels>
											<comments>
												<mastercomment1/>
												<mastercomment2/>
												<mastercomment3/>
												<mastercomment4/>
											</comments>
											<file id="YIN_2013-05-28_LG-5 "/>
											<sourcetrack>
												<mediatype>video</mediatype>
											</sourcetrack>
											<link>
												<linkclipref>Raw Interview Matthew Duepner180</linkclipref>
												<mediatype>video</mediatype>
												<trackindex>1</trackindex>
												<clipindex>46</clipindex>
											</link>
											<link>
												<linkclipref>Raw Interview Matthew Duepner182</linkclipref>
												<mediatype>audio</mediatype>
												<trackindex>1</trackindex>
												<clipindex>46</clipindex>
												<groupindex>1</groupindex>
											</link>
											<link>
												<linkclipref>Raw Interview Matthew Duepner183</linkclipref>
												<mediatype>audio</mediatype>
												<trackindex>2</trackindex>
												<clipindex>46</clipindex>
												<groupindex>1</groupindex>
											</link>
											<fielddominance>none</fielddominance>
											<itemhistory>
												<uuid>6944E955-632B-4469-9AC7-A6A5EC5558CC</uuid>
											</itemhistory>
										</clipitem>
										<clipitem id="Raw Interview Matthew Duepner184">
											<name>Raw Interview Matthew Duepner</name>
											<duration>81486</duration>
											<rate>
												<ntsc>TRUE</ntsc>
												<timebase>24</timebase>
											</rate>
											<in>19602</in>
											<out>19780</out>
											<start>7899</start>
											<end>8077</end>
											<pixelaspectratio>Square</pixelaspectratio>
											<anamorphic>FALSE</anamorphic>
											<alphatype>black</alphatype>
											<masterclipid>Raw Interview Matthew Duepner185</masterclipid>
											<logginginfo>
												<scene/>
												<shottake/>
												<lognote/>
												<good>FALSE</good>
											</logginginfo>
											<labels>
												<label2/>
											</labels>
											<comments>
												<mastercomment1/>
												<mastercomment2/>
												<mastercomment3/>
												<mastercomment4/>
											</comments>
											<file id="YIN_2013-05-28_LG-5 "/>
											<sourcetrack>
												<mediatype>video</mediatype>
											</sourcetrack>
											<link>
												<linkclipref>Raw Interview Matthew Duepner184</linkclipref>
												<mediatype>video</mediatype>
												<trackindex>1</trackindex>
												<clipindex>47</clipindex>
											</link>
											<link>
												<linkclipref>Raw Interview Matthew Duepner186</linkclipref>
												<mediatype>audio</mediatype>
												<trackindex>1</trackindex>
												<clipindex>47</clipindex>
												<groupindex>1</groupindex>
											</link>
											<link>
												<linkclipref>Raw Interview Matthew Duepner187</linkclipref>
												<mediatype>audio</mediatype>
												<trackindex>2</trackindex>
												<clipindex>47</clipindex>
												<groupindex>1</groupindex>
											</link>
											<fielddominance>none</fielddominance>
											<itemhistory>
												<uuid>21BAA69D-7F0C-4AD3-94C8-838AE0F8AF86</uuid>
											</itemhistory>
										</clipitem>
										<clipitem id="Raw Interview Matthew Duepner188">
											<name>Raw Interview Matthew Duepner</name>
											<duration>81486</duration>
											<rate>
												<ntsc>TRUE</ntsc>
												<timebase>24</timebase>
											</rate>
											<in>68841</in>
											<out>69079</out>
											<start>8163</start>
											<end>8401</end>
											<pixelaspectratio>Square</pixelaspectratio>
											<anamorphic>FALSE</anamorphic>
											<alphatype>black</alphatype>
											<masterclipid>Raw Interview Matthew Duepner189</masterclipid>
											<logginginfo>
												<scene/>
												<shottake/>
												<lognote/>
												<good>FALSE</good>
											</logginginfo>
											<labels>
												<label2/>
											</labels>
											<comments>
												<mastercomment1/>
												<mastercomment2/>
												<mastercomment3/>
												<mastercomment4/>
											</comments>
											<file id="YIN_2013-05-28_LG-5 "/>
											<sourcetrack>
												<mediatype>video</mediatype>
											</sourcetrack>
											<link>
												<linkclipref>Raw Interview Matthew Duepner188</linkclipref>
												<mediatype>video</mediatype>
												<trackindex>1</trackindex>
												<clipindex>48</clipindex>
											</link>
											<link>
												<linkclipref>Raw Interview Matthew Duepner190</linkclipref>
												<mediatype>audio</mediatype>
												<trackindex>1</trackindex>
												<clipindex>48</clipindex>
												<groupindex>1</groupindex>
											</link>
											<link>
												<linkclipref>Raw Interview Matthew Duepner191</linkclipref>
												<mediatype>audio</mediatype>
												<trackindex>2</trackindex>
												<clipindex>48</clipindex>
												<groupindex>1</groupindex>
											</link>
											<fielddominance>none</fielddominance>
											<itemhistory>
												<uuid>3961DAA6-343F-4042-B9FF-368E111B2B51</uuid>
											</itemhistory>
										</clipitem>
										<clipitem id="Raw Interview Matthew Duepner192">
											<name>Raw Interview Matthew Duepner</name>
											<duration>81486</duration>
											<rate>
												<ntsc>TRUE</ntsc>
												<timebase>24</timebase>
											</rate>
											<in>69853</in>
											<out>69933</out>
											<start>8401</start>
											<end>8481</end>
											<pixelaspectratio>Square</pixelaspectratio>
											<anamorphic>FALSE</anamorphic>
											<alphatype>black</alphatype>
											<masterclipid>Raw Interview Matthew Duepner193</masterclipid>
											<logginginfo>
												<scene/>
												<shottake/>
												<lognote/>
												<good>FALSE</good>
											</logginginfo>
											<labels>
												<label2/>
											</labels>
											<comments>
												<mastercomment1/>
												<mastercomment2/>
												<mastercomment3/>
												<mastercomment4/>
											</comments>
											<file id="YIN_2013-05-28_LG-5 "/>
											<sourcetrack>
												<mediatype>video</mediatype>
											</sourcetrack>
											<link>
												<linkclipref>Raw Interview Matthew Duepner192</linkclipref>
												<mediatype>video</mediatype>
												<trackindex>1</trackindex>
												<clipindex>49</clipindex>
											</link>
											<link>
												<linkclipref>Raw Interview Matthew Duepner194</linkclipref>
												<mediatype>audio</mediatype>
												<trackindex>1</trackindex>
												<clipindex>49</clipindex>
												<groupindex>1</groupindex>
											</link>
											<link>
												<linkclipref>Raw Interview Matthew Duepner195</linkclipref>
												<mediatype>audio</mediatype>
												<trackindex>2</trackindex>
												<clipindex>49</clipindex>
												<groupindex>1</groupindex>
											</link>
											<fielddominance>none</fielddominance>
											<itemhistory>
												<uuid>96F22BD0-2A4A-462A-B45E-EC2530319A0E</uuid>
											</itemhistory>
										</clipitem>
										<clipitem id="Raw Interview Matthew Duepner196">
											<name>Raw Interview Matthew Duepner</name>
											<duration>81486</duration>
											<rate>
												<ntsc>TRUE</ntsc>
												<timebase>24</timebase>
											</rate>
											<in>71462</in>
											<out>71987</out>
											<start>8481</start>
											<end>9006</end>
											<pixelaspectratio>Square</pixelaspectratio>
											<anamorphic>FALSE</anamorphic>
											<alphatype>black</alphatype>
											<masterclipid>Raw Interview Matthew Duepner197</masterclipid>
											<logginginfo>
												<scene/>
												<shottake/>
												<lognote/>
												<good>FALSE</good>
											</logginginfo>
											<labels>
												<label2/>
											</labels>
											<comments>
												<mastercomment1/>
												<mastercomment2/>
												<mastercomment3/>
												<mastercomment4/>
											</comments>
											<file id="YIN_2013-05-28_LG-5 "/>
											<sourcetrack>
												<mediatype>video</mediatype>
											</sourcetrack>
											<link>
												<linkclipref>Raw Interview Matthew Duepner196</linkclipref>
												<mediatype>video</mediatype>
												<trackindex>1</trackindex>
												<clipindex>50</clipindex>
											</link>
											<link>
												<linkclipref>Raw Interview Matthew Duepner198</linkclipref>
												<mediatype>audio</mediatype>
												<trackindex>1</trackindex>
												<clipindex>50</clipindex>
												<groupindex>1</groupindex>
											</link>
											<link>
												<linkclipref>Raw Interview Matthew Duepner199</linkclipref>
												<mediatype>audio</mediatype>
												<trackindex>2</trackindex>
												<clipindex>50</clipindex>
												<groupindex>1</groupindex>
											</link>
											<fielddominance>none</fielddominance>
											<itemhistory>
												<uuid>C83C8A1A-CDAA-443B-A148-33F7AD2B2C34</uuid>
											</itemhistory>
										</clipitem>
										<clipitem id="Raw Interview Matthew Duepner200">
											<name>Raw Interview Matthew Duepner</name>
											<duration>81486</duration>
											<rate>
												<ntsc>TRUE</ntsc>
												<timebase>24</timebase>
											</rate>
											<in>72861</in>
											<out>73353</out>
											<start>9006</start>
											<end>9498</end>
											<pixelaspectratio>Square</pixelaspectratio>
											<anamorphic>FALSE</anamorphic>
											<alphatype>black</alphatype>
											<masterclipid>Raw Interview Matthew Duepner201</masterclipid>
											<logginginfo>
												<scene/>
												<shottake/>
												<lognote/>
												<good>FALSE</good>
											</logginginfo>
											<labels>
												<label2/>
											</labels>
											<comments>
												<mastercomment1/>
												<mastercomment2/>
												<mastercomment3/>
												<mastercomment4/>
											</comments>
											<file id="YIN_2013-05-28_LG-5 "/>
											<sourcetrack>
												<mediatype>video</mediatype>
											</sourcetrack>
											<link>
												<linkclipref>Raw Interview Matthew Duepner200</linkclipref>
												<mediatype>video</mediatype>
												<trackindex>1</trackindex>
												<clipindex>51</clipindex>
											</link>
											<link>
												<linkclipref>Raw Interview Matthew Duepner202</linkclipref>
												<mediatype>audio</mediatype>
												<trackindex>1</trackindex>
												<clipindex>51</clipindex>
												<groupindex>1</groupindex>
											</link>
											<link>
												<linkclipref>Raw Interview Matthew Duepner203</linkclipref>
												<mediatype>audio</mediatype>
												<trackindex>2</trackindex>
												<clipindex>51</clipindex>
												<groupindex>1</groupindex>
											</link>
											<fielddominance>none</fielddominance>
											<itemhistory>
												<uuid>46EE522F-FDE1-40B7-BCAA-C3FFFA3F2F70</uuid>
											</itemhistory>
										</clipitem>
										<clipitem id="Raw Interview Matthew Duepner204">
											<name>Raw Interview Matthew Duepner</name>
											<duration>81486</duration>
											<rate>
												<ntsc>TRUE</ntsc>
												<timebase>24</timebase>
											</rate>
											<in>79338</in>
											<out>79574</out>
											<start>9752</start>
											<end>9988</end>
											<pixelaspectratio>Square</pixelaspectratio>
											<anamorphic>FALSE</anamorphic>
											<alphatype>black</alphatype>
											<masterclipid>Raw Interview Matthew Duepner205</masterclipid>
											<logginginfo>
												<scene/>
												<shottake/>
												<lognote/>
												<good>FALSE</good>
											</logginginfo>
											<labels>
												<label2/>
											</labels>
											<comments>
												<mastercomment1/>
												<mastercomment2/>
												<mastercomment3/>
												<mastercomment4/>
											</comments>
											<file id="YIN_2013-05-28_LG-5 "/>
											<sourcetrack>
												<mediatype>video</mediatype>
											</sourcetrack>
											<link>
												<linkclipref>Raw Interview Matthew Duepner204</linkclipref>
												<mediatype>video</mediatype>
												<trackindex>1</trackindex>
												<clipindex>52</clipindex>
											</link>
											<link>
												<linkclipref>Raw Interview Matthew Duepner206</linkclipref>
												<mediatype>audio</mediatype>
												<trackindex>1</trackindex>
												<clipindex>52</clipindex>
												<groupindex>1</groupindex>
											</link>
											<link>
												<linkclipref>Raw Interview Matthew Duepner207</linkclipref>
												<mediatype>audio</mediatype>
												<trackindex>2</trackindex>
												<clipindex>52</clipindex>
												<groupindex>1</groupindex>
											</link>
											<fielddominance>none</fielddominance>
											<itemhistory>
												<uuid>DA8D0A23-2656-4A42-BAC3-33A4A4181AE1</uuid>
											</itemhistory>
										</clipitem>
										<clipitem id="Raw Interview Matthew Duepner208">
											<name>Raw Interview Matthew Duepner</name>
											<duration>81486</duration>
											<rate>
												<ntsc>TRUE</ntsc>
												<timebase>24</timebase>
											</rate>
											<in>80136</in>
											<out>80276</out>
											<start>10343</start>
											<end>10483</end>
											<pixelaspectratio>Square</pixelaspectratio>
											<anamorphic>FALSE</anamorphic>
											<alphatype>black</alphatype>
											<masterclipid>Raw Interview Matthew Duepner209</masterclipid>
											<logginginfo>
												<scene/>
												<shottake/>
												<lognote/>
												<good>FALSE</good>
											</logginginfo>
											<labels>
												<label2/>
											</labels>
											<comments>
												<mastercomment1/>
												<mastercomment2/>
												<mastercomment3/>
												<mastercomment4/>
											</comments>
											<file id="YIN_2013-05-28_LG-5 "/>
											<sourcetrack>
												<mediatype>video</mediatype>
											</sourcetrack>
											<link>
												<linkclipref>Raw Interview Matthew Duepner208</linkclipref>
												<mediatype>video</mediatype>
												<trackindex>1</trackindex>
												<clipindex>53</clipindex>
											</link>
											<link>
												<linkclipref>Raw Interview Matthew Duepner210</linkclipref>
												<mediatype>audio</mediatype>
												<trackindex>1</trackindex>
												<clipindex>53</clipindex>
												<groupindex>1</groupindex>
											</link>
											<link>
												<linkclipref>Raw Interview Matthew Duepner211</linkclipref>
												<mediatype>audio</mediatype>
												<trackindex>2</trackindex>
												<clipindex>53</clipindex>
												<groupindex>1</groupindex>
											</link>
											<fielddominance>none</fielddominance>
											<itemhistory>
												<uuid>73C9D0FF-983D-4881-98BC-D47D9F9B3503</uuid>
											</itemhistory>
										</clipitem>
										<clipitem id="Raw Interview Matthew Duepner212">
											<name>Raw Interview Matthew Duepner</name>
											<duration>81486</duration>
											<rate>
												<ntsc>TRUE</ntsc>
												<timebase>24</timebase>
											</rate>
											<in>79941</in>
											<out>80136</out>
											<start>10550</start>
											<end>10745</end>
											<pixelaspectratio>Square</pixelaspectratio>
											<anamorphic>FALSE</anamorphic>
											<alphatype>black</alphatype>
											<masterclipid>Raw Interview Matthew Duepner213</masterclipid>
											<logginginfo>
												<scene/>
												<shottake/>
												<lognote/>
												<good>FALSE</good>
											</logginginfo>
											<labels>
												<label2/>
											</labels>
											<comments>
												<mastercomment1/>
												<mastercomment2/>
												<mastercomment3/>
												<mastercomment4/>
											</comments>
											<file id="YIN_2013-05-28_LG-5 "/>
											<sourcetrack>
												<mediatype>video</mediatype>
											</sourcetrack>
											<link>
												<linkclipref>Raw Interview Matthew Duepner212</linkclipref>
												<mediatype>video</mediatype>
												<trackindex>1</trackindex>
												<clipindex>54</clipindex>
											</link>
											<link>
												<linkclipref>Raw Interview Matthew Duepner214</linkclipref>
												<mediatype>audio</mediatype>
												<trackindex>1</trackindex>
												<clipindex>54</clipindex>
												<groupindex>1</groupindex>
											</link>
											<link>
												<linkclipref>Raw Interview Matthew Duepner215</linkclipref>
												<mediatype>audio</mediatype>
												<trackindex>2</trackindex>
												<clipindex>54</clipindex>
												<groupindex>1</groupindex>
											</link>
											<fielddominance>none</fielddominance>
											<itemhistory>
												<uuid>C6BCA3EE-0DC6-41A4-8E8B-037DF8A48712</uuid>
											</itemhistory>
										</clipitem>
										<clipitem id="Raw Interview Matthew Duepner216">
											<name>Raw Interview Matthew Duepner</name>
											<duration>81486</duration>
											<rate>
												<ntsc>TRUE</ntsc>
												<timebase>24</timebase>
											</rate>
											<in>43670</in>
											<out>43863</out>
											<start>11035</start>
											<end>11228</end>
											<pixelaspectratio>Square</pixelaspectratio>
											<anamorphic>FALSE</anamorphic>
											<alphatype>black</alphatype>
											<masterclipid>Raw Interview Matthew Duepner217</masterclipid>
											<logginginfo>
												<scene/>
												<shottake/>
												<lognote/>
												<good>FALSE</good>
											</logginginfo>
											<labels>
												<label2/>
											</labels>
											<comments>
												<mastercomment1/>
												<mastercomment2/>
												<mastercomment3/>
												<mastercomment4/>
											</comments>
											<file id="YIN_2013-05-28_LG-5 "/>
											<sourcetrack>
												<mediatype>video</mediatype>
											</sourcetrack>
											<link>
												<linkclipref>Raw Interview Matthew Duepner216</linkclipref>
												<mediatype>video</mediatype>
												<trackindex>1</trackindex>
												<clipindex>55</clipindex>
											</link>
											<link>
												<linkclipref>Raw Interview Matthew Duepner218</linkclipref>
												<mediatype>audio</mediatype>
												<trackindex>1</trackindex>
												<clipindex>55</clipindex>
												<groupindex>1</groupindex>
											</link>
											<link>
												<linkclipref>Raw Interview Matthew Duepner219</linkclipref>
												<mediatype>audio</mediatype>
												<trackindex>2</trackindex>
												<clipindex>55</clipindex>
												<groupindex>1</groupindex>
											</link>
											<fielddominance>none</fielddominance>
											<itemhistory>
												<uuid>D8C65016-F6A2-4A43-8BF0-8E1D4F705A67</uuid>
											</itemhistory>
										</clipitem>
										<clipitem id="Raw Interview Matthew Duepner220">
											<name>Raw Interview Matthew Duepner</name>
											<duration>81486</duration>
											<rate>
												<ntsc>TRUE</ntsc>
												<timebase>24</timebase>
											</rate>
											<in>10404</in>
											<out>10508</out>
											<start>11318</start>
											<end>11422</end>
											<pixelaspectratio>Square</pixelaspectratio>
											<anamorphic>FALSE</anamorphic>
											<alphatype>black</alphatype>
											<masterclipid>Raw Interview Matthew Duepner221</masterclipid>
											<logginginfo>
												<scene/>
												<shottake/>
												<lognote/>
												<good>FALSE</good>
											</logginginfo>
											<labels>
												<label2/>
											</labels>
											<comments>
												<mastercomment1/>
												<mastercomment2/>
												<mastercomment3/>
												<mastercomment4/>
											</comments>
											<file id="YIN_2013-05-28_LG-5 "/>
											<sourcetrack>
												<mediatype>video</mediatype>
											</sourcetrack>
											<link>
												<linkclipref>Raw Interview Matthew Duepner220</linkclipref>
												<mediatype>video</mediatype>
												<trackindex>1</trackindex>
												<clipindex>56</clipindex>
											</link>
											<link>
												<linkclipref>Raw Interview Matthew Duepner222</linkclipref>
												<mediatype>audio</mediatype>
												<trackindex>1</trackindex>
												<clipindex>56</clipindex>
												<groupindex>1</groupindex>
											</link>
											<link>
												<linkclipref>Raw Interview Matthew Duepner223</linkclipref>
												<mediatype>audio</mediatype>
												<trackindex>2</trackindex>
												<clipindex>56</clipindex>
												<groupindex>1</groupindex>
											</link>
											<fielddominance>none</fielddominance>
											<itemhistory>
												<uuid>1AFFF282-F94F-49AD-BC4D-032DDB727EBD</uuid>
											</itemhistory>
										</clipitem>
										<clipitem id="Raw Interview Matthew Duepner224">
											<name>Raw Interview Matthew Duepner</name>
											<duration>81486</duration>
											<rate>
												<ntsc>TRUE</ntsc>
												<timebase>24</timebase>
											</rate>
											<in>3945</in>
											<out>3989</out>
											<start>11448</start>
											<end>11492</end>
											<pixelaspectratio>Square</pixelaspectratio>
											<anamorphic>FALSE</anamorphic>
											<alphatype>black</alphatype>
											<masterclipid>Raw Interview Matthew Duepner225</masterclipid>
											<logginginfo>
												<scene/>
												<shottake/>
												<lognote/>
												<good>FALSE</good>
											</logginginfo>
											<labels>
												<label2/>
											</labels>
											<comments>
												<mastercomment1/>
												<mastercomment2/>
												<mastercomment3/>
												<mastercomment4/>
											</comments>
											<file id="YIN_2013-05-28_LG-5 "/>
											<sourcetrack>
												<mediatype>video</mediatype>
											</sourcetrack>
											<link>
												<linkclipref>Raw Interview Matthew Duepner224</linkclipref>
												<mediatype>video</mediatype>
												<trackindex>1</trackindex>
												<clipindex>57</clipindex>
											</link>
											<link>
												<linkclipref>Raw Interview Matthew Duepner226</linkclipref>
												<mediatype>audio</mediatype>
												<trackindex>1</trackindex>
												<clipindex>57</clipindex>
												<groupindex>1</groupindex>
											</link>
											<link>
												<linkclipref>Raw Interview Matthew Duepner227</linkclipref>
												<mediatype>audio</mediatype>
												<trackindex>2</trackindex>
												<clipindex>57</clipindex>
												<groupindex>1</groupindex>
											</link>
											<fielddominance>none</fielddominance>
											<itemhistory>
												<uuid>470D172B-9833-4D7B-B90C-2937792AC240</uuid>
											</itemhistory>
										</clipitem>
										<clipitem id="Raw Interview Matthew Duepner228">
											<name>Raw Interview Matthew Duepner</name>
											<duration>81486</duration>
											<rate>
												<ntsc>TRUE</ntsc>
												<timebase>24</timebase>
											</rate>
											<in>1396</in>
											<out>1514</out>
											<start>11567</start>
											<end>11685</end>
											<pixelaspectratio>Square</pixelaspectratio>
											<anamorphic>FALSE</anamorphic>
											<alphatype>black</alphatype>
											<masterclipid>Raw Interview Matthew Duepner229</masterclipid>
											<logginginfo>
												<scene/>
												<shottake/>
												<lognote/>
												<good>FALSE</good>
											</logginginfo>
											<labels>
												<label2/>
											</labels>
											<comments>
												<mastercomment1/>
												<mastercomment2/>
												<mastercomment3/>
												<mastercomment4/>
											</comments>
											<file id="YIN_2013-05-28_LG-5 "/>
											<sourcetrack>
												<mediatype>video</mediatype>
											</sourcetrack>
											<link>
												<linkclipref>Raw Interview Matthew Duepner228</linkclipref>
												<mediatype>video</mediatype>
												<trackindex>1</trackindex>
												<clipindex>58</clipindex>
											</link>
											<link>
												<linkclipref>Raw Interview Matthew Duepner230</linkclipref>
												<mediatype>audio</mediatype>
												<trackindex>1</trackindex>
												<clipindex>58</clipindex>
												<groupindex>1</groupindex>
											</link>
											<link>
												<linkclipref>Raw Interview Matthew Duepner231</linkclipref>
												<mediatype>audio</mediatype>
												<trackindex>2</trackindex>
												<clipindex>58</clipindex>
												<groupindex>1</groupindex>
											</link>
											<fielddominance>none</fielddominance>
											<itemhistory>
												<uuid>A580253C-0C8A-41B6-951D-5FC46EB55648</uuid>
											</itemhistory>
										</clipitem>
										<clipitem id="Raw Interview Matthew Duepner232">
											<name>Raw Interview Matthew Duepner</name>
											<duration>81486</duration>
											<rate>
												<ntsc>TRUE</ntsc>
												<timebase>24</timebase>
											</rate>
											<in>1656</in>
											<out>1742</out>
											<start>11685</start>
											<end>11771</end>
											<pixelaspectratio>Square</pixelaspectratio>
											<anamorphic>FALSE</anamorphic>
											<alphatype>black</alphatype>
											<masterclipid>Raw Interview Matthew Duepner233</masterclipid>
											<logginginfo>
												<scene/>
												<shottake/>
												<lognote/>
												<good>FALSE</good>
											</logginginfo>
											<labels>
												<label2/>
											</labels>
											<comments>
												<mastercomment1/>
												<mastercomment2/>
												<mastercomment3/>
												<mastercomment4/>
											</comments>
											<file id="YIN_2013-05-28_LG-5 "/>
											<sourcetrack>
												<mediatype>video</mediatype>
											</sourcetrack>
											<link>
												<linkclipref>Raw Interview Matthew Duepner232</linkclipref>
												<mediatype>video</mediatype>
												<trackindex>1</trackindex>
												<clipindex>59</clipindex>
											</link>
											<link>
												<linkclipref>Raw Interview Matthew Duepner234</linkclipref>
												<mediatype>audio</mediatype>
												<trackindex>1</trackindex>
												<clipindex>59</clipindex>
												<groupindex>1</groupindex>
											</link>
											<link>
												<linkclipref>Raw Interview Matthew Duepner235</linkclipref>
												<mediatype>audio</mediatype>
												<trackindex>2</trackindex>
												<clipindex>59</clipindex>
												<groupindex>1</groupindex>
											</link>
											<fielddominance>none</fielddominance>
											<itemhistory>
												<uuid>F718CB29-35D8-49BD-A93F-AC3627B466BA</uuid>
											</itemhistory>
										</clipitem>
										<clipitem id="Raw Interview Matthew Duepner236">
											<name>Raw Interview Matthew Duepner</name>
											<duration>81486</duration>
											<rate>
												<ntsc>TRUE</ntsc>
												<timebase>24</timebase>
											</rate>
											<in>2087</in>
											<out>2229</out>
											<start>11771</start>
											<end>11913</end>
											<pixelaspectratio>Square</pixelaspectratio>
											<anamorphic>FALSE</anamorphic>
											<alphatype>black</alphatype>
											<masterclipid>Raw Interview Matthew Duepner237</masterclipid>
											<logginginfo>
												<scene/>
												<shottake/>
												<lognote/>
												<good>FALSE</good>
											</logginginfo>
											<labels>
												<label2/>
											</labels>
											<comments>
												<mastercomment1/>
												<mastercomment2/>
												<mastercomment3/>
												<mastercomment4/>
											</comments>
											<file id="YIN_2013-05-28_LG-5 "/>
											<sourcetrack>
												<mediatype>video</mediatype>
											</sourcetrack>
											<link>
												<linkclipref>Raw Interview Matthew Duepner236</linkclipref>
												<mediatype>video</mediatype>
												<trackindex>1</trackindex>
												<clipindex>60</clipindex>
											</link>
											<link>
												<linkclipref>Raw Interview Matthew Duepner238</linkclipref>
												<mediatype>audio</mediatype>
												<trackindex>1</trackindex>
												<clipindex>60</clipindex>
												<groupindex>1</groupindex>
											</link>
											<link>
												<linkclipref>Raw Interview Matthew Duepner239</linkclipref>
												<mediatype>audio</mediatype>
												<trackindex>2</trackindex>
												<clipindex>60</clipindex>
												<groupindex>1</groupindex>
											</link>
											<fielddominance>none</fielddominance>
											<itemhistory>
												<uuid>AFEFC5D6-AAAA-4332-97C3-2C908CBD9EED</uuid>
											</itemhistory>
										</clipitem>
										<clipitem id="Raw Interview Matthew Duepner240">
											<name>Raw Interview Matthew Duepner</name>
											<duration>81486</duration>
											<rate>
												<ntsc>TRUE</ntsc>
												<timebase>24</timebase>
											</rate>
											<in>81210</in>
											<out>81278</out>
											<start>12178</start>
											<end>12246</end>
											<pixelaspectratio>Square</pixelaspectratio>
											<anamorphic>FALSE</anamorphic>
											<alphatype>black</alphatype>
											<masterclipid>Raw Interview Matthew Duepner241</masterclipid>
											<logginginfo>
												<scene/>
												<shottake/>
												<lognote/>
												<good>FALSE</good>
											</logginginfo>
											<labels>
												<label2/>
											</labels>
											<comments>
												<mastercomment1/>
												<mastercomment2/>
												<mastercomment3/>
												<mastercomment4/>
											</comments>
											<file id="YIN_2013-05-28_LG-5 "/>
											<sourcetrack>
												<mediatype>video</mediatype>
											</sourcetrack>
											<link>
												<linkclipref>Raw Interview Matthew Duepner240</linkclipref>
												<mediatype>video</mediatype>
												<trackindex>1</trackindex>
												<clipindex>61</clipindex>
											</link>
											<link>
												<linkclipref>Raw Interview Matthew Duepner242</linkclipref>
												<mediatype>audio</mediatype>
												<trackindex>1</trackindex>
												<clipindex>61</clipindex>
												<groupindex>1</groupindex>
											</link>
											<link>
												<linkclipref>Raw Interview Matthew Duepner243</linkclipref>
												<mediatype>audio</mediatype>
												<trackindex>2</trackindex>
												<clipindex>61</clipindex>
												<groupindex>1</groupindex>
											</link>
											<fielddominance>none</fielddominance>
											<itemhistory>
												<uuid>7924965A-0FCA-457F-946F-016FCA5F6F90</uuid>
											</itemhistory>
										</clipitem>
										<clipitem id="Raw Interview Matthew Duepner244">
											<name>Raw Interview Matthew Duepner</name>
											<duration>81486</duration>
											<rate>
												<ntsc>TRUE</ntsc>
												<timebase>24</timebase>
											</rate>
											<in>79574</in>
											<out>79734</out>
											<start>12246</start>
											<end>12406</end>
											<pixelaspectratio>Square</pixelaspectratio>
											<anamorphic>FALSE</anamorphic>
											<alphatype>black</alphatype>
											<masterclipid>Raw Interview Matthew Duepner245</masterclipid>
											<logginginfo>
												<scene/>
												<shottake/>
												<lognote/>
												<good>FALSE</good>
											</logginginfo>
											<labels>
												<label2/>
											</labels>
											<comments>
												<mastercomment1/>
												<mastercomment2/>
												<mastercomment3/>
												<mastercomment4/>
											</comments>
											<file id="YIN_2013-05-28_LG-5 "/>
											<sourcetrack>
												<mediatype>video</mediatype>
											</sourcetrack>
											<link>
												<linkclipref>Raw Interview Matthew Duepner244</linkclipref>
												<mediatype>video</mediatype>
												<trackindex>1</trackindex>
												<clipindex>62</clipindex>
											</link>
											<link>
												<linkclipref>Raw Interview Matthew Duepner246</linkclipref>
												<mediatype>audio</mediatype>
												<trackindex>1</trackindex>
												<clipindex>62</clipindex>
												<groupindex>1</groupindex>
											</link>
											<link>
												<linkclipref>Raw Interview Matthew Duepner247</linkclipref>
												<mediatype>audio</mediatype>
												<trackindex>2</trackindex>
												<clipindex>62</clipindex>
												<groupindex>1</groupindex>
											</link>
											<fielddominance>none</fielddominance>
											<itemhistory>
												<uuid>4C45C4FD-0F29-47B1-9C60-63BA1FF44BAF</uuid>
											</itemhistory>
										</clipitem>
										<clipitem id="Raw Interview Matthew Duepner248">
											<name>Raw Interview Matthew Duepner</name>
											<duration>81486</duration>
											<rate>
												<ntsc>TRUE</ntsc>
												<timebase>24</timebase>
											</rate>
											<in>7002</in>
											<out>7205</out>
											<start>12988</start>
											<end>13191</end>
											<pixelaspectratio>Square</pixelaspectratio>
											<anamorphic>FALSE</anamorphic>
											<alphatype>black</alphatype>
											<masterclipid>Raw Interview Matthew Duepner249</masterclipid>
											<logginginfo>
												<scene/>
												<shottake/>
												<lognote/>
												<good>FALSE</good>
											</logginginfo>
											<labels>
												<label2/>
											</labels>
											<comments>
												<mastercomment1/>
												<mastercomment2/>
												<mastercomment3/>
												<mastercomment4/>
											</comments>
											<file id="YIN_2013-05-28_LG-5 "/>
											<sourcetrack>
												<mediatype>video</mediatype>
											</sourcetrack>
											<link>
												<linkclipref>Raw Interview Matthew Duepner248</linkclipref>
												<mediatype>video</mediatype>
												<trackindex>1</trackindex>
												<clipindex>63</clipindex>
											</link>
											<link>
												<linkclipref>Raw Interview Matthew Duepner250</linkclipref>
												<mediatype>audio</mediatype>
												<trackindex>1</trackindex>
												<clipindex>63</clipindex>
												<groupindex>1</groupindex>
											</link>
											<link>
												<linkclipref>Raw Interview Matthew Duepner251</linkclipref>
												<mediatype>audio</mediatype>
												<trackindex>2</trackindex>
												<clipindex>63</clipindex>
												<groupindex>1</groupindex>
											</link>
											<fielddominance>none</fielddominance>
											<itemhistory>
												<uuid>734C70D0-FB34-49F6-AAE7-8141C4B21495</uuid>
											</itemhistory>
										</clipitem>
										<clipitem id="Raw Interview Matthew Duepner252">
											<name>Raw Interview Matthew Duepner</name>
											<duration>81486</duration>
											<rate>
												<ntsc>TRUE</ntsc>
												<timebase>24</timebase>
											</rate>
											<in>11865</in>
											<out>11984</out>
											<start>14093</start>
											<end>14212</end>
											<pixelaspectratio>Square</pixelaspectratio>
											<anamorphic>FALSE</anamorphic>
											<alphatype>black</alphatype>
											<masterclipid>Raw Interview Matthew Duepner253</masterclipid>
											<logginginfo>
												<scene/>
												<shottake/>
												<lognote/>
												<good>FALSE</good>
											</logginginfo>
											<labels>
												<label2/>
											</labels>
											<comments>
												<mastercomment1/>
												<mastercomment2/>
												<mastercomment3/>
												<mastercomment4/>
											</comments>
											<file id="YIN_2013-05-28_LG-5 "/>
											<sourcetrack>
												<mediatype>video</mediatype>
											</sourcetrack>
											<link>
												<linkclipref>Raw Interview Matthew Duepner252</linkclipref>
												<mediatype>video</mediatype>
												<trackindex>1</trackindex>
												<clipindex>64</clipindex>
											</link>
											<link>
												<linkclipref>Raw Interview Matthew Duepner254</linkclipref>
												<mediatype>audio</mediatype>
												<trackindex>1</trackindex>
												<clipindex>64</clipindex>
												<groupindex>1</groupindex>
											</link>
											<link>
												<linkclipref>Raw Interview Matthew Duepner255</linkclipref>
												<mediatype>audio</mediatype>
												<trackindex>2</trackindex>
												<clipindex>64</clipindex>
												<groupindex>1</groupindex>
											</link>
											<fielddominance>none</fielddominance>
											<itemhistory>
												<uuid>4ADCAA83-3FF8-400A-B895-0F122893E81A</uuid>
											</itemhistory>
										</clipitem>
										<clipitem id="Raw Interview Matthew Duepner256">
											<name>Raw Interview Matthew Duepner</name>
											<duration>81486</duration>
											<rate>
												<ntsc>TRUE</ntsc>
												<timebase>24</timebase>
											</rate>
											<in>12116</in>
											<out>12289</out>
											<start>14212</start>
											<end>14385</end>
											<pixelaspectratio>Square</pixelaspectratio>
											<anamorphic>FALSE</anamorphic>
											<alphatype>black</alphatype>
											<masterclipid>Raw Interview Matthew Duepner257</masterclipid>
											<logginginfo>
												<scene/>
												<shottake/>
												<lognote/>
												<good>FALSE</good>
											</logginginfo>
											<labels>
												<label2/>
											</labels>
											<comments>
												<mastercomment1/>
												<mastercomment2/>
												<mastercomment3/>
												<mastercomment4/>
											</comments>
											<file id="YIN_2013-05-28_LG-5 "/>
											<sourcetrack>
												<mediatype>video</mediatype>
											</sourcetrack>
											<link>
												<linkclipref>Raw Interview Matthew Duepner256</linkclipref>
												<mediatype>video</mediatype>
												<trackindex>1</trackindex>
												<clipindex>65</clipindex>
											</link>
											<link>
												<linkclipref>Raw Interview Matthew Duepner258</linkclipref>
												<mediatype>audio</mediatype>
												<trackindex>1</trackindex>
												<clipindex>65</clipindex>
												<groupindex>1</groupindex>
											</link>
											<link>
												<linkclipref>Raw Interview Matthew Duepner259</linkclipref>
												<mediatype>audio</mediatype>
												<trackindex>2</trackindex>
												<clipindex>65</clipindex>
												<groupindex>1</groupindex>
											</link>
											<fielddominance>none</fielddominance>
											<itemhistory>
												<uuid>0C52E1A4-CD12-48C8-A24F-E2A325660780</uuid>
											</itemhistory>
										</clipitem>
										<enabled>TRUE</enabled>
										<locked>FALSE</locked>
									</track>
									<track>
										<enabled>TRUE</enabled>
										<locked>FALSE</locked>
									</track>
									<track>
										<enabled>TRUE</enabled>
										<locked>FALSE</locked>
									</track>
								</video>
								<audio>
									<format>
										<samplecharacteristics>
											<depth>16</depth>
											<samplerate>48000</samplerate>
										</samplecharacteristics>
									</format>
									<outputs>
										<group>
											<index>1</index>
											<numchannels>1</numchannels>
											<downmix>0</downmix>
											<channel>
												<index>1</index>
											</channel>
										</group>
										<group>
											<index>2</index>
											<numchannels>1</numchannels>
											<downmix>0</downmix>
											<channel>
												<index>2</index>
											</channel>
										</group>
									</outputs>
									<in>-1</in>
									<out>-1</out>
									<track>
										<clipitem id="Raw Interview Matthew Duepner2">
											<name>Raw Interview Matthew Duepner</name>
											<duration>81486</duration>
											<rate>
												<ntsc>TRUE</ntsc>
												<timebase>24</timebase>
											</rate>
											<in>2994</in>
											<out>3183</out>
											<start>0</start>
											<end>189</end>
											<masterclipid>Raw Interview Matthew Duepner260</masterclipid>
											<logginginfo>
												<scene/>
												<shottake/>
												<lognote/>
												<good>FALSE</good>
											</logginginfo>
											<labels>
												<label2/>
											</labels>
											<comments>
												<mastercomment1/>
												<mastercomment2/>
												<mastercomment3/>
												<mastercomment4/>
											</comments>
											<file id="YIN_2013-05-28_LG-5 "/>
											<filter>
												<effect>
													<name>Audio Levels</name>
													<effectid>audiolevels</effectid>
													<effectcategory>audiolevels</effectcategory>
													<effecttype>audiolevels</effecttype>
													<mediatype>audio</mediatype>
													<parameter>
														<name>Level</name>
														<parameterid>level</parameterid>
														<valuemin>0</valuemin>
														<valuemax>3.98109</valuemax>
														<value>1</value>
													</parameter>
												</effect>
											</filter>
											<filter>
												<effect>
													<name>Audio Pan</name>
													<effectid>audiopan</effectid>
													<effectcategory>audiopan</effectcategory>
													<effecttype>audiopan</effecttype>
													<mediatype>audio</mediatype>
													<parameter>
														<name>Pan</name>
														<parameterid>pan</parameterid>
														<valuemin>-1</valuemin>
														<valuemax>1</valuemax>
														<value>0</value>
													</parameter>
												</effect>
											</filter>
											<sourcetrack>
												<mediatype>audio</mediatype>
												<trackindex>1</trackindex>
											</sourcetrack>
											<link>
												<linkclipref>Raw Interview Matthew Duepner</linkclipref>
												<mediatype>video</mediatype>
												<trackindex>1</trackindex>
												<clipindex>1</clipindex>
											</link>
											<link>
												<linkclipref>Raw Interview Matthew Duepner2</linkclipref>
												<mediatype>audio</mediatype>
												<trackindex>1</trackindex>
												<clipindex>1</clipindex>
												<groupindex>1</groupindex>
											</link>
											<link>
												<linkclipref>Raw Interview Matthew Duepner3</linkclipref>
												<mediatype>audio</mediatype>
												<trackindex>2</trackindex>
												<clipindex>1</clipindex>
												<groupindex>1</groupindex>
											</link>
											<itemhistory>
												<uuid>52DDBD81-516B-4A59-92B9-AC4BBF53D3E4</uuid>
											</itemhistory>
										</clipitem>
										<clipitem id="Raw Interview Matthew Duepner6">
											<name>Raw Interview Matthew Duepner</name>
											<duration>81486</duration>
											<rate>
												<ntsc>TRUE</ntsc>
												<timebase>24</timebase>
											</rate>
											<in>3586</in>
											<out>3636</out>
											<start>189</start>
											<end>239</end>
											<masterclipid>Raw Interview Matthew Duepner261</masterclipid>
											<logginginfo>
												<scene/>
												<shottake/>
												<lognote/>
												<good>FALSE</good>
											</logginginfo>
											<labels>
												<label2/>
											</labels>
											<comments>
												<mastercomment1/>
												<mastercomment2/>
												<mastercomment3/>
												<mastercomment4/>
											</comments>
											<file id="YIN_2013-05-28_LG-5 "/>
											<filter>
												<effect>
													<name>Audio Levels</name>
													<effectid>audiolevels</effectid>
													<effectcategory>audiolevels</effectcategory>
													<effecttype>audiolevels</effecttype>
													<mediatype>audio</mediatype>
													<parameter>
														<name>Level</name>
														<parameterid>level</parameterid>
														<valuemin>0</valuemin>
														<valuemax>3.98109</valuemax>
														<value>1</value>
													</parameter>
												</effect>
											</filter>
											<filter>
												<effect>
													<name>Audio Pan</name>
													<effectid>audiopan</effectid>
													<effectcategory>audiopan</effectcategory>
													<effecttype>audiopan</effecttype>
													<mediatype>audio</mediatype>
													<parameter>
														<name>Pan</name>
														<parameterid>pan</parameterid>
														<valuemin>-1</valuemin>
														<valuemax>1</valuemax>
														<value>0</value>
													</parameter>
												</effect>
											</filter>
											<sourcetrack>
												<mediatype>audio</mediatype>
												<trackindex>1</trackindex>
											</sourcetrack>
											<link>
												<linkclipref>Raw Interview Matthew Duepner4</linkclipref>
												<mediatype>video</mediatype>
												<trackindex>1</trackindex>
												<clipindex>2</clipindex>
											</link>
											<link>
												<linkclipref>Raw Interview Matthew Duepner6</linkclipref>
												<mediatype>audio</mediatype>
												<trackindex>1</trackindex>
												<clipindex>2</clipindex>
												<groupindex>1</groupindex>
											</link>
											<link>
												<linkclipref>Raw Interview Matthew Duepner7</linkclipref>
												<mediatype>audio</mediatype>
												<trackindex>2</trackindex>
												<clipindex>2</clipindex>
												<groupindex>1</groupindex>
											</link>
											<itemhistory>
												<uuid>5FD7D057-18FF-4137-B7E6-D89811D115F4</uuid>
											</itemhistory>
										</clipitem>
										<clipitem id="Raw Interview Matthew Duepner10">
											<name>Raw Interview Matthew Duepner</name>
											<duration>81486</duration>
											<rate>
												<ntsc>TRUE</ntsc>
												<timebase>24</timebase>
											</rate>
											<in>589</in>
											<out>687</out>
											<start>239</start>
											<end>337</end>
											<masterclipid>Raw Interview Matthew Duepner262</masterclipid>
											<logginginfo>
												<scene/>
												<shottake/>
												<lognote/>
												<good>FALSE</good>
											</logginginfo>
											<labels>
												<label2/>
											</labels>
											<comments>
												<mastercomment1/>
												<mastercomment2/>
												<mastercomment3/>
												<mastercomment4/>
											</comments>
											<file id="YIN_2013-05-28_LG-5 "/>
											<filter>
												<effect>
													<name>Audio Levels</name>
													<effectid>audiolevels</effectid>
													<effectcategory>audiolevels</effectcategory>
													<effecttype>audiolevels</effecttype>
													<mediatype>audio</mediatype>
													<parameter>
														<name>Level</name>
														<parameterid>level</parameterid>
														<valuemin>0</valuemin>
														<valuemax>3.98109</valuemax>
														<value>1</value>
													</parameter>
												</effect>
											</filter>
											<filter>
												<effect>
													<name>Audio Pan</name>
													<effectid>audiopan</effectid>
													<effectcategory>audiopan</effectcategory>
													<effecttype>audiopan</effecttype>
													<mediatype>audio</mediatype>
													<parameter>
														<name>Pan</name>
														<parameterid>pan</parameterid>
														<valuemin>-1</valuemin>
														<valuemax>1</valuemax>
														<value>0</value>
													</parameter>
												</effect>
											</filter>
											<sourcetrack>
												<mediatype>audio</mediatype>
												<trackindex>1</trackindex>
											</sourcetrack>
											<link>
												<linkclipref>Raw Interview Matthew Duepner8</linkclipref>
												<mediatype>video</mediatype>
												<trackindex>1</trackindex>
												<clipindex>3</clipindex>
											</link>
											<link>
												<linkclipref>Raw Interview Matthew Duepner10</linkclipref>
												<mediatype>audio</mediatype>
												<trackindex>1</trackindex>
												<clipindex>3</clipindex>
												<groupindex>1</groupindex>
											</link>
											<link>
												<linkclipref>Raw Interview Matthew Duepner11</linkclipref>
												<mediatype>audio</mediatype>
												<trackindex>2</trackindex>
												<clipindex>3</clipindex>
												<groupindex>1</groupindex>
											</link>
											<itemhistory>
												<uuid>F7A13E08-E171-4ED4-ACCB-076FCDF2AF98</uuid>
											</itemhistory>
										</clipitem>
										<clipitem id="Raw Interview Matthew Duepner14">
											<name>Raw Interview Matthew Duepner</name>
											<duration>81486</duration>
											<rate>
												<ntsc>TRUE</ntsc>
												<timebase>24</timebase>
											</rate>
											<in>6757</in>
											<out>6892</out>
											<start>367</start>
											<end>502</end>
											<masterclipid>Raw Interview Matthew Duepner263</masterclipid>
											<logginginfo>
												<scene/>
												<shottake/>
												<lognote/>
												<good>FALSE</good>
											</logginginfo>
											<labels>
												<label2/>
											</labels>
											<comments>
												<mastercomment1/>
												<mastercomment2/>
												<mastercomment3/>
												<mastercomment4/>
											</comments>
											<file id="YIN_2013-05-28_LG-5 "/>
											<filter>
												<effect>
													<name>Audio Levels</name>
													<effectid>audiolevels</effectid>
													<effectcategory>audiolevels</effectcategory>
													<effecttype>audiolevels</effecttype>
													<mediatype>audio</mediatype>
													<parameter>
														<name>Level</name>
														<parameterid>level</parameterid>
														<valuemin>0</valuemin>
														<valuemax>3.98109</valuemax>
														<value>1</value>
													</parameter>
												</effect>
											</filter>
											<filter>
												<effect>
													<name>Audio Pan</name>
													<effectid>audiopan</effectid>
													<effectcategory>audiopan</effectcategory>
													<effecttype>audiopan</effecttype>
													<mediatype>audio</mediatype>
													<parameter>
														<name>Pan</name>
														<parameterid>pan</parameterid>
														<valuemin>-1</valuemin>
														<valuemax>1</valuemax>
														<value>0</value>
													</parameter>
												</effect>
											</filter>
											<sourcetrack>
												<mediatype>audio</mediatype>
												<trackindex>1</trackindex>
											</sourcetrack>
											<link>
												<linkclipref>Raw Interview Matthew Duepner12</linkclipref>
												<mediatype>video</mediatype>
												<trackindex>1</trackindex>
												<clipindex>4</clipindex>
											</link>
											<link>
												<linkclipref>Raw Interview Matthew Duepner14</linkclipref>
												<mediatype>audio</mediatype>
												<trackindex>1</trackindex>
												<clipindex>4</clipindex>
												<groupindex>1</groupindex>
											</link>
											<link>
												<linkclipref>Raw Interview Matthew Duepner15</linkclipref>
												<mediatype>audio</mediatype>
												<trackindex>2</trackindex>
												<clipindex>4</clipindex>
												<groupindex>1</groupindex>
											</link>
											<itemhistory>
												<uuid>B33754E7-7406-49E8-AD49-893E1A086533</uuid>
											</itemhistory>
										</clipitem>
										<clipitem id="Raw Interview Matthew Duepner18">
											<name>Raw Interview Matthew Duepner</name>
											<duration>81486</duration>
											<rate>
												<ntsc>TRUE</ntsc>
												<timebase>24</timebase>
											</rate>
											<in>28282</in>
											<out>28305</out>
											<start>502</start>
											<end>525</end>
											<masterclipid>Raw Interview Matthew Duepner264</masterclipid>
											<logginginfo>
												<scene/>
												<shottake/>
												<lognote/>
												<good>FALSE</good>
											</logginginfo>
											<labels>
												<label2/>
											</labels>
											<comments>
												<mastercomment1/>
												<mastercomment2/>
												<mastercomment3/>
												<mastercomment4/>
											</comments>
											<file id="YIN_2013-05-28_LG-5 "/>
											<filter>
												<effect>
													<name>Audio Levels</name>
													<effectid>audiolevels</effectid>
													<effectcategory>audiolevels</effectcategory>
													<effecttype>audiolevels</effecttype>
													<mediatype>audio</mediatype>
													<parameter>
														<name>Level</name>
														<parameterid>level</parameterid>
														<valuemin>0</valuemin>
														<valuemax>3.98109</valuemax>
														<value>1</value>
													</parameter>
												</effect>
											</filter>
											<filter>
												<effect>
													<name>Audio Pan</name>
													<effectid>audiopan</effectid>
													<effectcategory>audiopan</effectcategory>
													<effecttype>audiopan</effecttype>
													<mediatype>audio</mediatype>
													<parameter>
														<name>Pan</name>
														<parameterid>pan</parameterid>
														<valuemin>-1</valuemin>
														<valuemax>1</valuemax>
														<value>0</value>
													</parameter>
												</effect>
											</filter>
											<sourcetrack>
												<mediatype>audio</mediatype>
												<trackindex>1</trackindex>
											</sourcetrack>
											<link>
												<linkclipref>Raw Interview Matthew Duepner16</linkclipref>
												<mediatype>video</mediatype>
												<trackindex>1</trackindex>
												<clipindex>5</clipindex>
											</link>
											<link>
												<linkclipref>Raw Interview Matthew Duepner18</linkclipref>
												<mediatype>audio</mediatype>
												<trackindex>1</trackindex>
												<clipindex>5</clipindex>
												<groupindex>1</groupindex>
											</link>
											<link>
												<linkclipref>Raw Interview Matthew Duepner19</linkclipref>
												<mediatype>audio</mediatype>
												<trackindex>2</trackindex>
												<clipindex>5</clipindex>
												<groupindex>1</groupindex>
											</link>
											<itemhistory>
												<uuid>411FE9D3-A6DE-46E6-AD46-917F8A51259E</uuid>
											</itemhistory>
										</clipitem>
										<clipitem id="Raw Interview Matthew Duepner22">
											<name>Raw Interview Matthew Duepner</name>
											<duration>81486</duration>
											<rate>
												<ntsc>TRUE</ntsc>
												<timebase>24</timebase>
											</rate>
											<in>28332</in>
											<out>28387</out>
											<start>525</start>
											<end>580</end>
											<masterclipid>Raw Interview Matthew Duepner265</masterclipid>
											<logginginfo>
												<scene/>
												<shottake/>
												<lognote/>
												<good>FALSE</good>
											</logginginfo>
											<labels>
												<label2/>
											</labels>
											<comments>
												<mastercomment1/>
												<mastercomment2/>
												<mastercomment3/>
												<mastercomment4/>
											</comments>
											<file id="YIN_2013-05-28_LG-5 "/>
											<filter>
												<effect>
													<name>Audio Levels</name>
													<effectid>audiolevels</effectid>
													<effectcategory>audiolevels</effectcategory>
													<effecttype>audiolevels</effecttype>
													<mediatype>audio</mediatype>
													<parameter>
														<name>Level</name>
														<parameterid>level</parameterid>
														<valuemin>0</valuemin>
														<valuemax>3.98109</valuemax>
														<value>1</value>
													</parameter>
												</effect>
											</filter>
											<filter>
												<effect>
													<name>Audio Pan</name>
													<effectid>audiopan</effectid>
													<effectcategory>audiopan</effectcategory>
													<effecttype>audiopan</effecttype>
													<mediatype>audio</mediatype>
													<parameter>
														<name>Pan</name>
														<parameterid>pan</parameterid>
														<valuemin>-1</valuemin>
														<valuemax>1</valuemax>
														<value>0</value>
													</parameter>
												</effect>
											</filter>
											<sourcetrack>
												<mediatype>audio</mediatype>
												<trackindex>1</trackindex>
											</sourcetrack>
											<link>
												<linkclipref>Raw Interview Matthew Duepner20</linkclipref>
												<mediatype>video</mediatype>
												<trackindex>1</trackindex>
												<clipindex>6</clipindex>
											</link>
											<link>
												<linkclipref>Raw Interview Matthew Duepner22</linkclipref>
												<mediatype>audio</mediatype>
												<trackindex>1</trackindex>
												<clipindex>6</clipindex>
												<groupindex>1</groupindex>
											</link>
											<link>
												<linkclipref>Raw Interview Matthew Duepner23</linkclipref>
												<mediatype>audio</mediatype>
												<trackindex>2</trackindex>
												<clipindex>6</clipindex>
												<groupindex>1</groupindex>
											</link>
											<itemhistory>
												<uuid>2A16FAA5-FA08-48D9-8683-67DE8860E5B4</uuid>
											</itemhistory>
										</clipitem>
										<clipitem id="Raw Interview Matthew Duepner26">
											<name>Raw Interview Matthew Duepner</name>
											<duration>81486</duration>
											<rate>
												<ntsc>TRUE</ntsc>
												<timebase>24</timebase>
											</rate>
											<in>28387</in>
											<out>28619</out>
											<start>580</start>
											<end>812</end>
											<masterclipid>Raw Interview Matthew Duepner266</masterclipid>
											<logginginfo>
												<scene/>
												<shottake/>
												<lognote/>
												<good>FALSE</good>
											</logginginfo>
											<labels>
												<label2/>
											</labels>
											<comments>
												<mastercomment1/>
												<mastercomment2/>
												<mastercomment3/>
												<mastercomment4/>
											</comments>
											<file id="YIN_2013-05-28_LG-5 "/>
											<filter>
												<effect>
													<name>Audio Levels</name>
													<effectid>audiolevels</effectid>
													<effectcategory>audiolevels</effectcategory>
													<effecttype>audiolevels</effecttype>
													<mediatype>audio</mediatype>
													<parameter>
														<name>Level</name>
														<parameterid>level</parameterid>
														<valuemin>0</valuemin>
														<valuemax>3.98109</valuemax>
														<value>1</value>
													</parameter>
												</effect>
											</filter>
											<filter>
												<effect>
													<name>Audio Pan</name>
													<effectid>audiopan</effectid>
													<effectcategory>audiopan</effectcategory>
													<effecttype>audiopan</effecttype>
													<mediatype>audio</mediatype>
													<parameter>
														<name>Pan</name>
														<parameterid>pan</parameterid>
														<valuemin>-1</valuemin>
														<valuemax>1</valuemax>
														<value>0</value>
													</parameter>
												</effect>
											</filter>
											<sourcetrack>
												<mediatype>audio</mediatype>
												<trackindex>1</trackindex>
											</sourcetrack>
											<link>
												<linkclipref>Raw Interview Matthew Duepner24</linkclipref>
												<mediatype>video</mediatype>
												<trackindex>1</trackindex>
												<clipindex>7</clipindex>
											</link>
											<link>
												<linkclipref>Raw Interview Matthew Duepner26</linkclipref>
												<mediatype>audio</mediatype>
												<trackindex>1</trackindex>
												<clipindex>7</clipindex>
												<groupindex>1</groupindex>
											</link>
											<link>
												<linkclipref>Raw Interview Matthew Duepner27</linkclipref>
												<mediatype>audio</mediatype>
												<trackindex>2</trackindex>
												<clipindex>7</clipindex>
												<groupindex>1</groupindex>
											</link>
											<itemhistory>
												<uuid>71DFD9F1-5F82-4524-83EE-B7E2CFEF91B9</uuid>
											</itemhistory>
										</clipitem>
										<clipitem id="Raw Interview Matthew Duepner30">
											<name>Raw Interview Matthew Duepner</name>
											<duration>81486</duration>
											<rate>
												<ntsc>TRUE</ntsc>
												<timebase>24</timebase>
											</rate>
											<in>76128</in>
											<out>76339</out>
											<start>812</start>
											<end>1023</end>
											<masterclipid>Raw Interview Matthew Duepner267</masterclipid>
											<logginginfo>
												<scene/>
												<shottake/>
												<lognote/>
												<good>FALSE</good>
											</logginginfo>
											<labels>
												<label2/>
											</labels>
											<comments>
												<mastercomment1/>
												<mastercomment2/>
												<mastercomment3/>
												<mastercomment4/>
											</comments>
											<file id="YIN_2013-05-28_LG-5 "/>
											<filter>
												<effect>
													<name>Audio Levels</name>
													<effectid>audiolevels</effectid>
													<effectcategory>audiolevels</effectcategory>
													<effecttype>audiolevels</effecttype>
													<mediatype>audio</mediatype>
													<parameter>
														<name>Level</name>
														<parameterid>level</parameterid>
														<valuemin>0</valuemin>
														<valuemax>3.98109</valuemax>
														<value>1</value>
													</parameter>
												</effect>
											</filter>
											<filter>
												<effect>
													<name>Audio Pan</name>
													<effectid>audiopan</effectid>
													<effectcategory>audiopan</effectcategory>
													<effecttype>audiopan</effecttype>
													<mediatype>audio</mediatype>
													<parameter>
														<name>Pan</name>
														<parameterid>pan</parameterid>
														<valuemin>-1</valuemin>
														<valuemax>1</valuemax>
														<value>0</value>
													</parameter>
												</effect>
											</filter>
											<sourcetrack>
												<mediatype>audio</mediatype>
												<trackindex>1</trackindex>
											</sourcetrack>
											<link>
												<linkclipref>Raw Interview Matthew Duepner28</linkclipref>
												<mediatype>video</mediatype>
												<trackindex>1</trackindex>
												<clipindex>8</clipindex>
											</link>
											<link>
												<linkclipref>Raw Interview Matthew Duepner30</linkclipref>
												<mediatype>audio</mediatype>
												<trackindex>1</trackindex>
												<clipindex>8</clipindex>
												<groupindex>1</groupindex>
											</link>
											<link>
												<linkclipref>Raw Interview Matthew Duepner31</linkclipref>
												<mediatype>audio</mediatype>
												<trackindex>2</trackindex>
												<clipindex>8</clipindex>
												<groupindex>1</groupindex>
											</link>
											<itemhistory>
												<uuid>15954A3B-ECFD-4DE7-BFC4-7DF3D0D9E861</uuid>
											</itemhistory>
										</clipitem>
										<clipitem id="Raw Interview Matthew Duepner34">
											<name>Raw Interview Matthew Duepner</name>
											<duration>81486</duration>
											<rate>
												<ntsc>TRUE</ntsc>
												<timebase>24</timebase>
											</rate>
											<in>5496</in>
											<out>5591</out>
											<start>1037</start>
											<end>1132</end>
											<masterclipid>Raw Interview Matthew Duepner268</masterclipid>
											<logginginfo>
												<scene/>
												<shottake/>
												<lognote/>
												<good>FALSE</good>
											</logginginfo>
											<labels>
												<label2/>
											</labels>
											<comments>
												<mastercomment1/>
												<mastercomment2/>
												<mastercomment3/>
												<mastercomment4/>
											</comments>
											<file id="YIN_2013-05-28_LG-5 "/>
											<filter>
												<effect>
													<name>Audio Levels</name>
													<effectid>audiolevels</effectid>
													<effectcategory>audiolevels</effectcategory>
													<effecttype>audiolevels</effecttype>
													<mediatype>audio</mediatype>
													<parameter>
														<name>Level</name>
														<parameterid>level</parameterid>
														<valuemin>0</valuemin>
														<valuemax>3.98109</valuemax>
														<value>1</value>
													</parameter>
												</effect>
											</filter>
											<filter>
												<effect>
													<name>Audio Pan</name>
													<effectid>audiopan</effectid>
													<effectcategory>audiopan</effectcategory>
													<effecttype>audiopan</effecttype>
													<mediatype>audio</mediatype>
													<parameter>
														<name>Pan</name>
														<parameterid>pan</parameterid>
														<valuemin>-1</valuemin>
														<valuemax>1</valuemax>
														<value>0</value>
													</parameter>
												</effect>
											</filter>
											<sourcetrack>
												<mediatype>audio</mediatype>
												<trackindex>1</trackindex>
											</sourcetrack>
											<link>
												<linkclipref>Raw Interview Matthew Duepner32</linkclipref>
												<mediatype>video</mediatype>
												<trackindex>1</trackindex>
												<clipindex>9</clipindex>
											</link>
											<link>
												<linkclipref>Raw Interview Matthew Duepner34</linkclipref>
												<mediatype>audio</mediatype>
												<trackindex>1</trackindex>
												<clipindex>9</clipindex>
												<groupindex>1</groupindex>
											</link>
											<link>
												<linkclipref>Raw Interview Matthew Duepner35</linkclipref>
												<mediatype>audio</mediatype>
												<trackindex>2</trackindex>
												<clipindex>9</clipindex>
												<groupindex>1</groupindex>
											</link>
											<itemhistory>
												<uuid>5055D8FF-06D5-4030-AAC1-A5B7D11C2317</uuid>
											</itemhistory>
										</clipitem>
										<clipitem id="Raw Interview Matthew Duepner38">
											<name>Raw Interview Matthew Duepner</name>
											<duration>81486</duration>
											<rate>
												<ntsc>TRUE</ntsc>
												<timebase>24</timebase>
											</rate>
											<in>6176</in>
											<out>6256</out>
											<start>1132</start>
											<end>1212</end>
											<masterclipid>Raw Interview Matthew Duepner269</masterclipid>
											<logginginfo>
												<scene/>
												<shottake/>
												<lognote/>
												<good>FALSE</good>
											</logginginfo>
											<labels>
												<label2/>
											</labels>
											<comments>
												<mastercomment1/>
												<mastercomment2/>
												<mastercomment3/>
												<mastercomment4/>
											</comments>
											<file id="YIN_2013-05-28_LG-5 "/>
											<filter>
												<effect>
													<name>Audio Levels</name>
													<effectid>audiolevels</effectid>
													<effectcategory>audiolevels</effectcategory>
													<effecttype>audiolevels</effecttype>
													<mediatype>audio</mediatype>
													<parameter>
														<name>Level</name>
														<parameterid>level</parameterid>
														<valuemin>0</valuemin>
														<valuemax>3.98109</valuemax>
														<value>1</value>
													</parameter>
												</effect>
											</filter>
											<filter>
												<effect>
													<name>Audio Pan</name>
													<effectid>audiopan</effectid>
													<effectcategory>audiopan</effectcategory>
													<effecttype>audiopan</effecttype>
													<mediatype>audio</mediatype>
													<parameter>
														<name>Pan</name>
														<parameterid>pan</parameterid>
														<valuemin>-1</valuemin>
														<valuemax>1</valuemax>
														<value>0</value>
													</parameter>
												</effect>
											</filter>
											<sourcetrack>
												<mediatype>audio</mediatype>
												<trackindex>1</trackindex>
											</sourcetrack>
											<link>
												<linkclipref>Raw Interview Matthew Duepner36</linkclipref>
												<mediatype>video</mediatype>
												<trackindex>1</trackindex>
												<clipindex>10</clipindex>
											</link>
											<link>
												<linkclipref>Raw Interview Matthew Duepner38</linkclipref>
												<mediatype>audio</mediatype>
												<trackindex>1</trackindex>
												<clipindex>10</clipindex>
												<groupindex>1</groupindex>
											</link>
											<link>
												<linkclipref>Raw Interview Matthew Duepner39</linkclipref>
												<mediatype>audio</mediatype>
												<trackindex>2</trackindex>
												<clipindex>10</clipindex>
												<groupindex>1</groupindex>
											</link>
											<itemhistory>
												<uuid>E1D705DB-3F6D-4BE7-BCB0-0645C829533C</uuid>
											</itemhistory>
										</clipitem>
										<clipitem id="Raw Interview Matthew Duepner42">
											<name>Raw Interview Matthew Duepner</name>
											<duration>81486</duration>
											<rate>
												<ntsc>TRUE</ntsc>
												<timebase>24</timebase>
											</rate>
											<in>25948</in>
											<out>26160</out>
											<start>1212</start>
											<end>1424</end>
											<masterclipid>Raw Interview Matthew Duepner270</masterclipid>
											<logginginfo>
												<scene/>
												<shottake/>
												<lognote/>
												<good>FALSE</good>
											</logginginfo>
											<labels>
												<label2/>
											</labels>
											<comments>
												<mastercomment1/>
												<mastercomment2/>
												<mastercomment3/>
												<mastercomment4/>
											</comments>
											<file id="YIN_2013-05-28_LG-5 "/>
											<filter>
												<effect>
													<name>Audio Levels</name>
													<effectid>audiolevels</effectid>
													<effectcategory>audiolevels</effectcategory>
													<effecttype>audiolevels</effecttype>
													<mediatype>audio</mediatype>
													<parameter>
														<name>Level</name>
														<parameterid>level</parameterid>
														<valuemin>0</valuemin>
														<valuemax>3.98109</valuemax>
														<value>1</value>
													</parameter>
												</effect>
											</filter>
											<filter>
												<effect>
													<name>Audio Pan</name>
													<effectid>audiopan</effectid>
													<effectcategory>audiopan</effectcategory>
													<effecttype>audiopan</effecttype>
													<mediatype>audio</mediatype>
													<parameter>
														<name>Pan</name>
														<parameterid>pan</parameterid>
														<valuemin>-1</valuemin>
														<valuemax>1</valuemax>
														<value>0</value>
													</parameter>
												</effect>
											</filter>
											<sourcetrack>
												<mediatype>audio</mediatype>
												<trackindex>1</trackindex>
											</sourcetrack>
											<link>
												<linkclipref>Raw Interview Matthew Duepner40</linkclipref>
												<mediatype>video</mediatype>
												<trackindex>1</trackindex>
												<clipindex>11</clipindex>
											</link>
											<link>
												<linkclipref>Raw Interview Matthew Duepner42</linkclipref>
												<mediatype>audio</mediatype>
												<trackindex>1</trackindex>
												<clipindex>11</clipindex>
												<groupindex>1</groupindex>
											</link>
											<link>
												<linkclipref>Raw Interview Matthew Duepner43</linkclipref>
												<mediatype>audio</mediatype>
												<trackindex>2</trackindex>
												<clipindex>11</clipindex>
												<groupindex>1</groupindex>
											</link>
											<itemhistory>
												<uuid>73EC9960-2039-4D9F-8018-4F347A064892</uuid>
											</itemhistory>
										</clipitem>
										<clipitem id="Raw Interview Matthew Duepner46">
											<name>Raw Interview Matthew Duepner</name>
											<duration>81486</duration>
											<rate>
												<ntsc>TRUE</ntsc>
												<timebase>24</timebase>
											</rate>
											<in>14189</in>
											<out>14334</out>
											<start>1424</start>
											<end>1569</end>
											<masterclipid>Raw Interview Matthew Duepner271</masterclipid>
											<logginginfo>
												<scene/>
												<shottake/>
												<lognote/>
												<good>FALSE</good>
											</logginginfo>
											<labels>
												<label2/>
											</labels>
											<comments>
												<mastercomment1/>
												<mastercomment2/>
												<mastercomment3/>
												<mastercomment4/>
											</comments>
											<file id="YIN_2013-05-28_LG-5 "/>
											<filter>
												<effect>
													<name>Audio Levels</name>
													<effectid>audiolevels</effectid>
													<effectcategory>audiolevels</effectcategory>
													<effecttype>audiolevels</effecttype>
													<mediatype>audio</mediatype>
													<parameter>
														<name>Level</name>
														<parameterid>level</parameterid>
														<valuemin>0</valuemin>
														<valuemax>3.98109</valuemax>
														<value>1</value>
													</parameter>
												</effect>
											</filter>
											<filter>
												<effect>
													<name>Audio Pan</name>
													<effectid>audiopan</effectid>
													<effectcategory>audiopan</effectcategory>
													<effecttype>audiopan</effecttype>
													<mediatype>audio</mediatype>
													<parameter>
														<name>Pan</name>
														<parameterid>pan</parameterid>
														<valuemin>-1</valuemin>
														<valuemax>1</valuemax>
														<value>0</value>
													</parameter>
												</effect>
											</filter>
											<sourcetrack>
												<mediatype>audio</mediatype>
												<trackindex>1</trackindex>
											</sourcetrack>
											<link>
												<linkclipref>Raw Interview Matthew Duepner44</linkclipref>
												<mediatype>video</mediatype>
												<trackindex>1</trackindex>
												<clipindex>12</clipindex>
											</link>
											<link>
												<linkclipref>Raw Interview Matthew Duepner46</linkclipref>
												<mediatype>audio</mediatype>
												<trackindex>1</trackindex>
												<clipindex>12</clipindex>
												<groupindex>1</groupindex>
											</link>
											<link>
												<linkclipref>Raw Interview Matthew Duepner47</linkclipref>
												<mediatype>audio</mediatype>
												<trackindex>2</trackindex>
												<clipindex>12</clipindex>
												<groupindex>1</groupindex>
											</link>
											<itemhistory>
												<uuid>1D9C8F36-FC5E-4E95-89A9-2D3C06591A9C</uuid>
											</itemhistory>
										</clipitem>
										<clipitem id="Raw Interview Matthew Duepner50">
											<name>Raw Interview Matthew Duepner</name>
											<duration>81486</duration>
											<rate>
												<ntsc>TRUE</ntsc>
												<timebase>24</timebase>
											</rate>
											<in>9373</in>
											<out>9540</out>
											<start>1569</start>
											<end>1736</end>
											<masterclipid>Raw Interview Matthew Duepner272</masterclipid>
											<logginginfo>
												<scene/>
												<shottake/>
												<lognote/>
												<good>FALSE</good>
											</logginginfo>
											<labels>
												<label2/>
											</labels>
											<comments>
												<mastercomment1/>
												<mastercomment2/>
												<mastercomment3/>
												<mastercomment4/>
											</comments>
											<file id="YIN_2013-05-28_LG-5 "/>
											<filter>
												<effect>
													<name>Audio Levels</name>
													<effectid>audiolevels</effectid>
													<effectcategory>audiolevels</effectcategory>
													<effecttype>audiolevels</effecttype>
													<mediatype>audio</mediatype>
													<parameter>
														<name>Level</name>
														<parameterid>level</parameterid>
														<valuemin>0</valuemin>
														<valuemax>3.98109</valuemax>
														<value>1</value>
													</parameter>
												</effect>
											</filter>
											<filter>
												<effect>
													<name>Audio Pan</name>
													<effectid>audiopan</effectid>
													<effectcategory>audiopan</effectcategory>
													<effecttype>audiopan</effecttype>
													<mediatype>audio</mediatype>
													<parameter>
														<name>Pan</name>
														<parameterid>pan</parameterid>
														<valuemin>-1</valuemin>
														<valuemax>1</valuemax>
														<value>0</value>
													</parameter>
												</effect>
											</filter>
											<sourcetrack>
												<mediatype>audio</mediatype>
												<trackindex>1</trackindex>
											</sourcetrack>
											<link>
												<linkclipref>Raw Interview Matthew Duepner48</linkclipref>
												<mediatype>video</mediatype>
												<trackindex>1</trackindex>
												<clipindex>13</clipindex>
											</link>
											<link>
												<linkclipref>Raw Interview Matthew Duepner50</linkclipref>
												<mediatype>audio</mediatype>
												<trackindex>1</trackindex>
												<clipindex>13</clipindex>
												<groupindex>1</groupindex>
											</link>
											<link>
												<linkclipref>Raw Interview Matthew Duepner51</linkclipref>
												<mediatype>audio</mediatype>
												<trackindex>2</trackindex>
												<clipindex>13</clipindex>
												<groupindex>1</groupindex>
											</link>
											<itemhistory>
												<uuid>80353D03-B698-4AD4-8B1E-5F71EEE0590E</uuid>
											</itemhistory>
										</clipitem>
										<clipitem id="Raw Interview Matthew Duepner54">
											<name>Raw Interview Matthew Duepner</name>
											<duration>81486</duration>
											<rate>
												<ntsc>TRUE</ntsc>
												<timebase>24</timebase>
											</rate>
											<in>17169</in>
											<out>17401</out>
											<start>1736</start>
											<end>1968</end>
											<masterclipid>Raw Interview Matthew Duepner273</masterclipid>
											<logginginfo>
												<scene/>
												<shottake/>
												<lognote/>
												<good>FALSE</good>
											</logginginfo>
											<labels>
												<label2/>
											</labels>
											<comments>
												<mastercomment1/>
												<mastercomment2/>
												<mastercomment3/>
												<mastercomment4/>
											</comments>
											<file id="YIN_2013-05-28_LG-5 "/>
											<filter>
												<effect>
													<name>Audio Levels</name>
													<effectid>audiolevels</effectid>
													<effectcategory>audiolevels</effectcategory>
													<effecttype>audiolevels</effecttype>
													<mediatype>audio</mediatype>
													<parameter>
														<name>Level</name>
														<parameterid>level</parameterid>
														<valuemin>0</valuemin>
														<valuemax>3.98109</valuemax>
														<value>1</value>
													</parameter>
												</effect>
											</filter>
											<filter>
												<effect>
													<name>Audio Pan</name>
													<effectid>audiopan</effectid>
													<effectcategory>audiopan</effectcategory>
													<effecttype>audiopan</effecttype>
													<mediatype>audio</mediatype>
													<parameter>
														<name>Pan</name>
														<parameterid>pan</parameterid>
														<valuemin>-1</valuemin>
														<valuemax>1</valuemax>
														<value>0</value>
													</parameter>
												</effect>
											</filter>
											<sourcetrack>
												<mediatype>audio</mediatype>
												<trackindex>1</trackindex>
											</sourcetrack>
											<link>
												<linkclipref>Raw Interview Matthew Duepner52</linkclipref>
												<mediatype>video</mediatype>
												<trackindex>1</trackindex>
												<clipindex>14</clipindex>
											</link>
											<link>
												<linkclipref>Raw Interview Matthew Duepner54</linkclipref>
												<mediatype>audio</mediatype>
												<trackindex>1</trackindex>
												<clipindex>14</clipindex>
												<groupindex>1</groupindex>
											</link>
											<link>
												<linkclipref>Raw Interview Matthew Duepner55</linkclipref>
												<mediatype>audio</mediatype>
												<trackindex>2</trackindex>
												<clipindex>14</clipindex>
												<groupindex>1</groupindex>
											</link>
											<itemhistory>
												<uuid>7427A8A6-D029-4BF5-B375-27B8698AF5EB</uuid>
											</itemhistory>
										</clipitem>
										<clipitem id="Raw Interview Matthew Duepner58">
											<name>Raw Interview Matthew Duepner</name>
											<duration>81486</duration>
											<rate>
												<ntsc>TRUE</ntsc>
												<timebase>24</timebase>
											</rate>
											<in>10616</in>
											<out>10693</out>
											<start>1968</start>
											<end>2045</end>
											<masterclipid>Raw Interview Matthew Duepner274</masterclipid>
											<logginginfo>
												<scene/>
												<shottake/>
												<lognote/>
												<good>FALSE</good>
											</logginginfo>
											<labels>
												<label2/>
											</labels>
											<comments>
												<mastercomment1/>
												<mastercomment2/>
												<mastercomment3/>
												<mastercomment4/>
											</comments>
											<file id="YIN_2013-05-28_LG-5 "/>
											<filter>
												<effect>
													<name>Audio Levels</name>
													<effectid>audiolevels</effectid>
													<effectcategory>audiolevels</effectcategory>
													<effecttype>audiolevels</effecttype>
													<mediatype>audio</mediatype>
													<parameter>
														<name>Level</name>
														<parameterid>level</parameterid>
														<valuemin>0</valuemin>
														<valuemax>3.98109</valuemax>
														<value>1</value>
													</parameter>
												</effect>
											</filter>
											<filter>
												<effect>
													<name>Audio Pan</name>
													<effectid>audiopan</effectid>
													<effectcategory>audiopan</effectcategory>
													<effecttype>audiopan</effecttype>
													<mediatype>audio</mediatype>
													<parameter>
														<name>Pan</name>
														<parameterid>pan</parameterid>
														<valuemin>-1</valuemin>
														<valuemax>1</valuemax>
														<value>0</value>
													</parameter>
												</effect>
											</filter>
											<sourcetrack>
												<mediatype>audio</mediatype>
												<trackindex>1</trackindex>
											</sourcetrack>
											<link>
												<linkclipref>Raw Interview Matthew Duepner56</linkclipref>
												<mediatype>video</mediatype>
												<trackindex>1</trackindex>
												<clipindex>15</clipindex>
											</link>
											<link>
												<linkclipref>Raw Interview Matthew Duepner58</linkclipref>
												<mediatype>audio</mediatype>
												<trackindex>1</trackindex>
												<clipindex>15</clipindex>
												<groupindex>1</groupindex>
											</link>
											<link>
												<linkclipref>Raw Interview Matthew Duepner59</linkclipref>
												<mediatype>audio</mediatype>
												<trackindex>2</trackindex>
												<clipindex>15</clipindex>
												<groupindex>1</groupindex>
											</link>
											<itemhistory>
												<uuid>799C2BAB-C80F-4688-BD6F-4099EBFECE76</uuid>
											</itemhistory>
										</clipitem>
										<clipitem id="Raw Interview Matthew Duepner62">
											<name>Raw Interview Matthew Duepner</name>
											<duration>81486</duration>
											<rate>
												<ntsc>TRUE</ntsc>
												<timebase>24</timebase>
											</rate>
											<in>26630</in>
											<out>26790</out>
											<start>2045</start>
											<end>2205</end>
											<masterclipid>Raw Interview Matthew Duepner275</masterclipid>
											<logginginfo>
												<scene/>
												<shottake/>
												<lognote/>
												<good>FALSE</good>
											</logginginfo>
											<labels>
												<label2/>
											</labels>
											<comments>
												<mastercomment1/>
												<mastercomment2/>
												<mastercomment3/>
												<mastercomment4/>
											</comments>
											<file id="YIN_2013-05-28_LG-5 "/>
											<filter>
												<effect>
													<name>Audio Levels</name>
													<effectid>audiolevels</effectid>
													<effectcategory>audiolevels</effectcategory>
													<effecttype>audiolevels</effecttype>
													<mediatype>audio</mediatype>
													<parameter>
														<name>Level</name>
														<parameterid>level</parameterid>
														<valuemin>0</valuemin>
														<valuemax>3.98109</valuemax>
														<value>1</value>
													</parameter>
												</effect>
											</filter>
											<filter>
												<effect>
													<name>Audio Pan</name>
													<effectid>audiopan</effectid>
													<effectcategory>audiopan</effectcategory>
													<effecttype>audiopan</effecttype>
													<mediatype>audio</mediatype>
													<parameter>
														<name>Pan</name>
														<parameterid>pan</parameterid>
														<valuemin>-1</valuemin>
														<valuemax>1</valuemax>
														<value>0</value>
													</parameter>
												</effect>
											</filter>
											<sourcetrack>
												<mediatype>audio</mediatype>
												<trackindex>1</trackindex>
											</sourcetrack>
											<link>
												<linkclipref>Raw Interview Matthew Duepner60</linkclipref>
												<mediatype>video</mediatype>
												<trackindex>1</trackindex>
												<clipindex>16</clipindex>
											</link>
											<link>
												<linkclipref>Raw Interview Matthew Duepner62</linkclipref>
												<mediatype>audio</mediatype>
												<trackindex>1</trackindex>
												<clipindex>16</clipindex>
												<groupindex>1</groupindex>
											</link>
											<link>
												<linkclipref>Raw Interview Matthew Duepner63</linkclipref>
												<mediatype>audio</mediatype>
												<trackindex>2</trackindex>
												<clipindex>16</clipindex>
												<groupindex>1</groupindex>
											</link>
											<itemhistory>
												<uuid>7ABCFD1C-291A-4C61-B089-0BA8DD93C4A5</uuid>
											</itemhistory>
										</clipitem>
										<clipitem id="Raw Interview Matthew Duepner66">
											<name>Raw Interview Matthew Duepner</name>
											<duration>81486</duration>
											<rate>
												<ntsc>TRUE</ntsc>
												<timebase>24</timebase>
											</rate>
											<in>27080</in>
											<out>27302</out>
											<start>2205</start>
											<end>2427</end>
											<masterclipid>Raw Interview Matthew Duepner276</masterclipid>
											<logginginfo>
												<scene/>
												<shottake/>
												<lognote/>
												<good>FALSE</good>
											</logginginfo>
											<labels>
												<label2/>
											</labels>
											<comments>
												<mastercomment1/>
												<mastercomment2/>
												<mastercomment3/>
												<mastercomment4/>
											</comments>
											<file id="YIN_2013-05-28_LG-5 "/>
											<filter>
												<effect>
													<name>Audio Levels</name>
													<effectid>audiolevels</effectid>
													<effectcategory>audiolevels</effectcategory>
													<effecttype>audiolevels</effecttype>
													<mediatype>audio</mediatype>
													<parameter>
														<name>Level</name>
														<parameterid>level</parameterid>
														<valuemin>0</valuemin>
														<valuemax>3.98109</valuemax>
														<value>1</value>
													</parameter>
												</effect>
											</filter>
											<filter>
												<effect>
													<name>Audio Pan</name>
													<effectid>audiopan</effectid>
													<effectcategory>audiopan</effectcategory>
													<effecttype>audiopan</effecttype>
													<mediatype>audio</mediatype>
													<parameter>
														<name>Pan</name>
														<parameterid>pan</parameterid>
														<valuemin>-1</valuemin>
														<valuemax>1</valuemax>
														<value>0</value>
													</parameter>
												</effect>
											</filter>
											<sourcetrack>
												<mediatype>audio</mediatype>
												<trackindex>1</trackindex>
											</sourcetrack>
											<link>
												<linkclipref>Raw Interview Matthew Duepner64</linkclipref>
												<mediatype>video</mediatype>
												<trackindex>1</trackindex>
												<clipindex>17</clipindex>
											</link>
											<link>
												<linkclipref>Raw Interview Matthew Duepner66</linkclipref>
												<mediatype>audio</mediatype>
												<trackindex>1</trackindex>
												<clipindex>17</clipindex>
												<groupindex>1</groupindex>
											</link>
											<link>
												<linkclipref>Raw Interview Matthew Duepner67</linkclipref>
												<mediatype>audio</mediatype>
												<trackindex>2</trackindex>
												<clipindex>17</clipindex>
												<groupindex>1</groupindex>
											</link>
											<itemhistory>
												<uuid>CB1874F0-330B-4D3E-861A-E03316D9E2F2</uuid>
											</itemhistory>
										</clipitem>
										<clipitem id="Raw Interview Matthew Duepner70">
											<name>Raw Interview Matthew Duepner</name>
											<duration>81486</duration>
											<rate>
												<ntsc>TRUE</ntsc>
												<timebase>24</timebase>
											</rate>
											<in>10554</in>
											<out>10577</out>
											<start>2427</start>
											<end>2450</end>
											<masterclipid>Raw Interview Matthew Duepner277</masterclipid>
											<logginginfo>
												<scene/>
												<shottake/>
												<lognote/>
												<good>FALSE</good>
											</logginginfo>
											<labels>
												<label2/>
											</labels>
											<comments>
												<mastercomment1/>
												<mastercomment2/>
												<mastercomment3/>
												<mastercomment4/>
											</comments>
											<file id="YIN_2013-05-28_LG-5 "/>
											<filter>
												<effect>
													<name>Audio Levels</name>
													<effectid>audiolevels</effectid>
													<effectcategory>audiolevels</effectcategory>
													<effecttype>audiolevels</effecttype>
													<mediatype>audio</mediatype>
													<parameter>
														<name>Level</name>
														<parameterid>level</parameterid>
														<valuemin>0</valuemin>
														<valuemax>3.98109</valuemax>
														<value>1</value>
													</parameter>
												</effect>
											</filter>
											<filter>
												<effect>
													<name>Audio Pan</name>
													<effectid>audiopan</effectid>
													<effectcategory>audiopan</effectcategory>
													<effecttype>audiopan</effecttype>
													<mediatype>audio</mediatype>
													<parameter>
														<name>Pan</name>
														<parameterid>pan</parameterid>
														<valuemin>-1</valuemin>
														<valuemax>1</valuemax>
														<value>0</value>
													</parameter>
												</effect>
											</filter>
											<sourcetrack>
												<mediatype>audio</mediatype>
												<trackindex>1</trackindex>
											</sourcetrack>
											<link>
												<linkclipref>Raw Interview Matthew Duepner68</linkclipref>
												<mediatype>video</mediatype>
												<trackindex>1</trackindex>
												<clipindex>18</clipindex>
											</link>
											<link>
												<linkclipref>Raw Interview Matthew Duepner70</linkclipref>
												<mediatype>audio</mediatype>
												<trackindex>1</trackindex>
												<clipindex>18</clipindex>
												<groupindex>1</groupindex>
											</link>
											<link>
												<linkclipref>Raw Interview Matthew Duepner71</linkclipref>
												<mediatype>audio</mediatype>
												<trackindex>2</trackindex>
												<clipindex>18</clipindex>
												<groupindex>1</groupindex>
											</link>
											<itemhistory>
												<uuid>CDA5D305-7352-42A5-88B5-AE5A2C856768</uuid>
											</itemhistory>
										</clipitem>
										<clipitem id="Raw Interview Matthew Duepner74">
											<name>Raw Interview Matthew Duepner</name>
											<duration>81486</duration>
											<rate>
												<ntsc>TRUE</ntsc>
												<timebase>24</timebase>
											</rate>
											<in>20313</in>
											<out>20815</out>
											<start>2450</start>
											<end>2952</end>
											<masterclipid>Raw Interview Matthew Duepner278</masterclipid>
											<logginginfo>
												<scene/>
												<shottake/>
												<lognote/>
												<good>FALSE</good>
											</logginginfo>
											<labels>
												<label2/>
											</labels>
											<comments>
												<mastercomment1/>
												<mastercomment2/>
												<mastercomment3/>
												<mastercomment4/>
											</comments>
											<file id="YIN_2013-05-28_LG-5 "/>
											<filter>
												<effect>
													<name>Audio Levels</name>
													<effectid>audiolevels</effectid>
													<effectcategory>audiolevels</effectcategory>
													<effecttype>audiolevels</effecttype>
													<mediatype>audio</mediatype>
													<parameter>
														<name>Level</name>
														<parameterid>level</parameterid>
														<valuemin>0</valuemin>
														<valuemax>3.98109</valuemax>
														<value>1</value>
													</parameter>
												</effect>
											</filter>
											<filter>
												<effect>
													<name>Audio Pan</name>
													<effectid>audiopan</effectid>
													<effectcategory>audiopan</effectcategory>
													<effecttype>audiopan</effecttype>
													<mediatype>audio</mediatype>
													<parameter>
														<name>Pan</name>
														<parameterid>pan</parameterid>
														<valuemin>-1</valuemin>
														<valuemax>1</valuemax>
														<value>0</value>
													</parameter>
												</effect>
											</filter>
											<sourcetrack>
												<mediatype>audio</mediatype>
												<trackindex>1</trackindex>
											</sourcetrack>
											<link>
												<linkclipref>Raw Interview Matthew Duepner72</linkclipref>
												<mediatype>video</mediatype>
												<trackindex>1</trackindex>
												<clipindex>19</clipindex>
											</link>
											<link>
												<linkclipref>Raw Interview Matthew Duepner74</linkclipref>
												<mediatype>audio</mediatype>
												<trackindex>1</trackindex>
												<clipindex>19</clipindex>
												<groupindex>1</groupindex>
											</link>
											<link>
												<linkclipref>Raw Interview Matthew Duepner75</linkclipref>
												<mediatype>audio</mediatype>
												<trackindex>2</trackindex>
												<clipindex>19</clipindex>
												<groupindex>1</groupindex>
											</link>
											<itemhistory>
												<uuid>D4E2F2FA-AF9A-44C6-A353-C3BDF71ADC6B</uuid>
											</itemhistory>
										</clipitem>
										<clipitem id="Raw Interview Matthew Duepner78">
											<name>Raw Interview Matthew Duepner</name>
											<duration>81486</duration>
											<rate>
												<ntsc>TRUE</ntsc>
												<timebase>24</timebase>
											</rate>
											<in>11151</in>
											<out>11298</out>
											<start>2952</start>
											<end>3099</end>
											<masterclipid>Raw Interview Matthew Duepner279</masterclipid>
											<logginginfo>
												<scene/>
												<shottake/>
												<lognote/>
												<good>FALSE</good>
											</logginginfo>
											<labels>
												<label2/>
											</labels>
											<comments>
												<mastercomment1/>
												<mastercomment2/>
												<mastercomment3/>
												<mastercomment4/>
											</comments>
											<file id="YIN_2013-05-28_LG-5 "/>
											<filter>
												<effect>
													<name>Audio Levels</name>
													<effectid>audiolevels</effectid>
													<effectcategory>audiolevels</effectcategory>
													<effecttype>audiolevels</effecttype>
													<mediatype>audio</mediatype>
													<parameter>
														<name>Level</name>
														<parameterid>level</parameterid>
														<valuemin>0</valuemin>
														<valuemax>3.98109</valuemax>
														<value>1</value>
													</parameter>
												</effect>
											</filter>
											<filter>
												<effect>
													<name>Audio Pan</name>
													<effectid>audiopan</effectid>
													<effectcategory>audiopan</effectcategory>
													<effecttype>audiopan</effecttype>
													<mediatype>audio</mediatype>
													<parameter>
														<name>Pan</name>
														<parameterid>pan</parameterid>
														<valuemin>-1</valuemin>
														<valuemax>1</valuemax>
														<value>0</value>
													</parameter>
												</effect>
											</filter>
											<sourcetrack>
												<mediatype>audio</mediatype>
												<trackindex>1</trackindex>
											</sourcetrack>
											<link>
												<linkclipref>Raw Interview Matthew Duepner76</linkclipref>
												<mediatype>video</mediatype>
												<trackindex>1</trackindex>
												<clipindex>20</clipindex>
											</link>
											<link>
												<linkclipref>Raw Interview Matthew Duepner78</linkclipref>
												<mediatype>audio</mediatype>
												<trackindex>1</trackindex>
												<clipindex>20</clipindex>
												<groupindex>1</groupindex>
											</link>
											<link>
												<linkclipref>Raw Interview Matthew Duepner79</linkclipref>
												<mediatype>audio</mediatype>
												<trackindex>2</trackindex>
												<clipindex>20</clipindex>
												<groupindex>1</groupindex>
											</link>
											<itemhistory>
												<uuid>8B76100A-CB22-499C-8193-A461B9D3395C</uuid>
											</itemhistory>
										</clipitem>
										<clipitem id="Raw Interview Matthew Duepner82">
											<name>Raw Interview Matthew Duepner</name>
											<duration>81486</duration>
											<rate>
												<ntsc>TRUE</ntsc>
												<timebase>24</timebase>
											</rate>
											<in>21014</in>
											<out>21125</out>
											<start>3131</start>
											<end>3242</end>
											<masterclipid>Raw Interview Matthew Duepner280</masterclipid>
											<logginginfo>
												<scene/>
												<shottake/>
												<lognote/>
												<good>FALSE</good>
											</logginginfo>
											<labels>
												<label2/>
											</labels>
											<comments>
												<mastercomment1/>
												<mastercomment2/>
												<mastercomment3/>
												<mastercomment4/>
											</comments>
											<file id="YIN_2013-05-28_LG-5 "/>
											<filter>
												<effect>
													<name>Audio Levels</name>
													<effectid>audiolevels</effectid>
													<effectcategory>audiolevels</effectcategory>
													<effecttype>audiolevels</effecttype>
													<mediatype>audio</mediatype>
													<parameter>
														<name>Level</name>
														<parameterid>level</parameterid>
														<valuemin>0</valuemin>
														<valuemax>3.98109</valuemax>
														<value>1</value>
													</parameter>
												</effect>
											</filter>
											<filter>
												<effect>
													<name>Audio Pan</name>
													<effectid>audiopan</effectid>
													<effectcategory>audiopan</effectcategory>
													<effecttype>audiopan</effecttype>
													<mediatype>audio</mediatype>
													<parameter>
														<name>Pan</name>
														<parameterid>pan</parameterid>
														<valuemin>-1</valuemin>
														<valuemax>1</valuemax>
														<value>0</value>
													</parameter>
												</effect>
											</filter>
											<sourcetrack>
												<mediatype>audio</mediatype>
												<trackindex>1</trackindex>
											</sourcetrack>
											<link>
												<linkclipref>Raw Interview Matthew Duepner80</linkclipref>
												<mediatype>video</mediatype>
												<trackindex>1</trackindex>
												<clipindex>21</clipindex>
											</link>
											<link>
												<linkclipref>Raw Interview Matthew Duepner82</linkclipref>
												<mediatype>audio</mediatype>
												<trackindex>1</trackindex>
												<clipindex>21</clipindex>
												<groupindex>1</groupindex>
											</link>
											<link>
												<linkclipref>Raw Interview Matthew Duepner83</linkclipref>
												<mediatype>audio</mediatype>
												<trackindex>2</trackindex>
												<clipindex>21</clipindex>
												<groupindex>1</groupindex>
											</link>
											<itemhistory>
												<uuid>7D2D319E-CE95-41B4-9FA0-D5D5F4939E37</uuid>
											</itemhistory>
										</clipitem>
										<clipitem id="Raw Interview Matthew Duepner86">
											<name>Raw Interview Matthew Duepner</name>
											<duration>81486</duration>
											<rate>
												<ntsc>TRUE</ntsc>
												<timebase>24</timebase>
											</rate>
											<in>20982</in>
											<out>21013</out>
											<start>3245</start>
											<end>3276</end>
											<masterclipid>Raw Interview Matthew Duepner281</masterclipid>
											<logginginfo>
												<scene/>
												<shottake/>
												<lognote/>
												<good>FALSE</good>
											</logginginfo>
											<labels>
												<label2/>
											</labels>
											<comments>
												<mastercomment1/>
												<mastercomment2/>
												<mastercomment3/>
												<mastercomment4/>
											</comments>
											<file id="YIN_2013-05-28_LG-5 "/>
											<filter>
												<effect>
													<name>Audio Levels</name>
													<effectid>audiolevels</effectid>
													<effectcategory>audiolevels</effectcategory>
													<effecttype>audiolevels</effecttype>
													<mediatype>audio</mediatype>
													<parameter>
														<name>Level</name>
														<parameterid>level</parameterid>
														<valuemin>0</valuemin>
														<valuemax>3.98109</valuemax>
														<value>1</value>
													</parameter>
												</effect>
											</filter>
											<filter>
												<effect>
													<name>Audio Pan</name>
													<effectid>audiopan</effectid>
													<effectcategory>audiopan</effectcategory>
													<effecttype>audiopan</effecttype>
													<mediatype>audio</mediatype>
													<parameter>
														<name>Pan</name>
														<parameterid>pan</parameterid>
														<valuemin>-1</valuemin>
														<valuemax>1</valuemax>
														<value>0</value>
													</parameter>
												</effect>
											</filter>
											<sourcetrack>
												<mediatype>audio</mediatype>
												<trackindex>1</trackindex>
											</sourcetrack>
											<link>
												<linkclipref>Raw Interview Matthew Duepner84</linkclipref>
												<mediatype>video</mediatype>
												<trackindex>1</trackindex>
												<clipindex>22</clipindex>
											</link>
											<link>
												<linkclipref>Raw Interview Matthew Duepner86</linkclipref>
												<mediatype>audio</mediatype>
												<trackindex>1</trackindex>
												<clipindex>22</clipindex>
												<groupindex>1</groupindex>
											</link>
											<link>
												<linkclipref>Raw Interview Matthew Duepner87</linkclipref>
												<mediatype>audio</mediatype>
												<trackindex>2</trackindex>
												<clipindex>22</clipindex>
												<groupindex>1</groupindex>
											</link>
											<itemhistory>
												<uuid>6696A876-FB46-4FDC-A62E-6CD8743E5B0C</uuid>
											</itemhistory>
										</clipitem>
										<clipitem id="Raw Interview Matthew Duepner90">
											<name>Raw Interview Matthew Duepner</name>
											<duration>81486</duration>
											<rate>
												<ntsc>TRUE</ntsc>
												<timebase>24</timebase>
											</rate>
											<in>21714</in>
											<out>21826</out>
											<start>3276</start>
											<end>3388</end>
											<masterclipid>Raw Interview Matthew Duepner282</masterclipid>
											<logginginfo>
												<scene/>
												<shottake/>
												<lognote/>
												<good>FALSE</good>
											</logginginfo>
											<labels>
												<label2/>
											</labels>
											<comments>
												<mastercomment1/>
												<mastercomment2/>
												<mastercomment3/>
												<mastercomment4/>
											</comments>
											<file id="YIN_2013-05-28_LG-5 "/>
											<filter>
												<effect>
													<name>Audio Levels</name>
													<effectid>audiolevels</effectid>
													<effectcategory>audiolevels</effectcategory>
													<effecttype>audiolevels</effecttype>
													<mediatype>audio</mediatype>
													<parameter>
														<name>Level</name>
														<parameterid>level</parameterid>
														<valuemin>0</valuemin>
														<valuemax>3.98109</valuemax>
														<value>1</value>
													</parameter>
												</effect>
											</filter>
											<filter>
												<effect>
													<name>Audio Pan</name>
													<effectid>audiopan</effectid>
													<effectcategory>audiopan</effectcategory>
													<effecttype>audiopan</effecttype>
													<mediatype>audio</mediatype>
													<parameter>
														<name>Pan</name>
														<parameterid>pan</parameterid>
														<valuemin>-1</valuemin>
														<valuemax>1</valuemax>
														<value>0</value>
													</parameter>
												</effect>
											</filter>
											<sourcetrack>
												<mediatype>audio</mediatype>
												<trackindex>1</trackindex>
											</sourcetrack>
											<link>
												<linkclipref>Raw Interview Matthew Duepner88</linkclipref>
												<mediatype>video</mediatype>
												<trackindex>1</trackindex>
												<clipindex>23</clipindex>
											</link>
											<link>
												<linkclipref>Raw Interview Matthew Duepner90</linkclipref>
												<mediatype>audio</mediatype>
												<trackindex>1</trackindex>
												<clipindex>23</clipindex>
												<groupindex>1</groupindex>
											</link>
											<link>
												<linkclipref>Raw Interview Matthew Duepner91</linkclipref>
												<mediatype>audio</mediatype>
												<trackindex>2</trackindex>
												<clipindex>23</clipindex>
												<groupindex>1</groupindex>
											</link>
											<itemhistory>
												<uuid>6CB0DA2D-8E9C-4DFC-94D6-E95582C6C313</uuid>
											</itemhistory>
										</clipitem>
										<clipitem id="Raw Interview Matthew Duepner94">
											<name>Raw Interview Matthew Duepner</name>
											<duration>81486</duration>
											<rate>
												<ntsc>TRUE</ntsc>
												<timebase>24</timebase>
											</rate>
											<in>22225</in>
											<out>22353</out>
											<start>3388</start>
											<end>3516</end>
											<masterclipid>Raw Interview Matthew Duepner283</masterclipid>
											<logginginfo>
												<scene/>
												<shottake/>
												<lognote/>
												<good>FALSE</good>
											</logginginfo>
											<labels>
												<label2/>
											</labels>
											<comments>
												<mastercomment1/>
												<mastercomment2/>
												<mastercomment3/>
												<mastercomment4/>
											</comments>
											<file id="YIN_2013-05-28_LG-5 "/>
											<filter>
												<effect>
													<name>Audio Levels</name>
													<effectid>audiolevels</effectid>
													<effectcategory>audiolevels</effectcategory>
													<effecttype>audiolevels</effecttype>
													<mediatype>audio</mediatype>
													<parameter>
														<name>Level</name>
														<parameterid>level</parameterid>
														<valuemin>0</valuemin>
														<valuemax>3.98109</valuemax>
														<value>1</value>
													</parameter>
												</effect>
											</filter>
											<filter>
												<effect>
													<name>Audio Pan</name>
													<effectid>audiopan</effectid>
													<effectcategory>audiopan</effectcategory>
													<effecttype>audiopan</effecttype>
													<mediatype>audio</mediatype>
													<parameter>
														<name>Pan</name>
														<parameterid>pan</parameterid>
														<valuemin>-1</valuemin>
														<valuemax>1</valuemax>
														<value>0</value>
													</parameter>
												</effect>
											</filter>
											<sourcetrack>
												<mediatype>audio</mediatype>
												<trackindex>1</trackindex>
											</sourcetrack>
											<link>
												<linkclipref>Raw Interview Matthew Duepner92</linkclipref>
												<mediatype>video</mediatype>
												<trackindex>1</trackindex>
												<clipindex>24</clipindex>
											</link>
											<link>
												<linkclipref>Raw Interview Matthew Duepner94</linkclipref>
												<mediatype>audio</mediatype>
												<trackindex>1</trackindex>
												<clipindex>24</clipindex>
												<groupindex>1</groupindex>
											</link>
											<link>
												<linkclipref>Raw Interview Matthew Duepner95</linkclipref>
												<mediatype>audio</mediatype>
												<trackindex>2</trackindex>
												<clipindex>24</clipindex>
												<groupindex>1</groupindex>
											</link>
											<itemhistory>
												<uuid>65DC748F-52F8-46D3-BCAD-AA60415C79FD</uuid>
											</itemhistory>
										</clipitem>
										<clipitem id="Raw Interview Matthew Duepner98">
											<name>Raw Interview Matthew Duepner</name>
											<duration>81486</duration>
											<rate>
												<ntsc>TRUE</ntsc>
												<timebase>24</timebase>
											</rate>
											<in>22806</in>
											<out>23027</out>
											<start>3516</start>
											<end>3737</end>
											<masterclipid>Raw Interview Matthew Duepner284</masterclipid>
											<logginginfo>
												<scene/>
												<shottake/>
												<lognote/>
												<good>FALSE</good>
											</logginginfo>
											<labels>
												<label2/>
											</labels>
											<comments>
												<mastercomment1/>
												<mastercomment2/>
												<mastercomment3/>
												<mastercomment4/>
											</comments>
											<file id="YIN_2013-05-28_LG-5 "/>
											<filter>
												<effect>
													<name>Audio Levels</name>
													<effectid>audiolevels</effectid>
													<effectcategory>audiolevels</effectcategory>
													<effecttype>audiolevels</effecttype>
													<mediatype>audio</mediatype>
													<parameter>
														<name>Level</name>
														<parameterid>level</parameterid>
														<valuemin>0</valuemin>
														<valuemax>3.98109</valuemax>
														<value>1</value>
													</parameter>
												</effect>
											</filter>
											<filter>
												<effect>
													<name>Audio Pan</name>
													<effectid>audiopan</effectid>
													<effectcategory>audiopan</effectcategory>
													<effecttype>audiopan</effecttype>
													<mediatype>audio</mediatype>
													<parameter>
														<name>Pan</name>
														<parameterid>pan</parameterid>
														<valuemin>-1</valuemin>
														<valuemax>1</valuemax>
														<value>0</value>
													</parameter>
												</effect>
											</filter>
											<sourcetrack>
												<mediatype>audio</mediatype>
												<trackindex>1</trackindex>
											</sourcetrack>
											<link>
												<linkclipref>Raw Interview Matthew Duepner96</linkclipref>
												<mediatype>video</mediatype>
												<trackindex>1</trackindex>
												<clipindex>25</clipindex>
											</link>
											<link>
												<linkclipref>Raw Interview Matthew Duepner98</linkclipref>
												<mediatype>audio</mediatype>
												<trackindex>1</trackindex>
												<clipindex>25</clipindex>
												<groupindex>1</groupindex>
											</link>
											<link>
												<linkclipref>Raw Interview Matthew Duepner99</linkclipref>
												<mediatype>audio</mediatype>
												<trackindex>2</trackindex>
												<clipindex>25</clipindex>
												<groupindex>1</groupindex>
											</link>
											<itemhistory>
												<uuid>A95F0002-BE65-4AD1-B2FA-4078BEF31F82</uuid>
											</itemhistory>
										</clipitem>
										<clipitem id="Raw Interview Matthew Duepner102">
											<name>Raw Interview Matthew Duepner</name>
											<duration>81486</duration>
											<rate>
												<ntsc>TRUE</ntsc>
												<timebase>24</timebase>
											</rate>
											<in>24285</in>
											<out>24488</out>
											<start>3737</start>
											<end>3940</end>
											<masterclipid>Raw Interview Matthew Duepner285</masterclipid>
											<logginginfo>
												<scene/>
												<shottake/>
												<lognote/>
												<good>FALSE</good>
											</logginginfo>
											<labels>
												<label2/>
											</labels>
											<comments>
												<mastercomment1/>
												<mastercomment2/>
												<mastercomment3/>
												<mastercomment4/>
											</comments>
											<file id="YIN_2013-05-28_LG-5 "/>
											<filter>
												<effect>
													<name>Audio Levels</name>
													<effectid>audiolevels</effectid>
													<effectcategory>audiolevels</effectcategory>
													<effecttype>audiolevels</effecttype>
													<mediatype>audio</mediatype>
													<parameter>
														<name>Level</name>
														<parameterid>level</parameterid>
														<valuemin>0</valuemin>
														<valuemax>3.98109</valuemax>
														<value>1</value>
													</parameter>
												</effect>
											</filter>
											<filter>
												<effect>
													<name>Audio Pan</name>
													<effectid>audiopan</effectid>
													<effectcategory>audiopan</effectcategory>
													<effecttype>audiopan</effecttype>
													<mediatype>audio</mediatype>
													<parameter>
														<name>Pan</name>
														<parameterid>pan</parameterid>
														<valuemin>-1</valuemin>
														<valuemax>1</valuemax>
														<value>0</value>
													</parameter>
												</effect>
											</filter>
											<sourcetrack>
												<mediatype>audio</mediatype>
												<trackindex>1</trackindex>
											</sourcetrack>
											<link>
												<linkclipref>Raw Interview Matthew Duepner100</linkclipref>
												<mediatype>video</mediatype>
												<trackindex>1</trackindex>
												<clipindex>26</clipindex>
											</link>
											<link>
												<linkclipref>Raw Interview Matthew Duepner102</linkclipref>
												<mediatype>audio</mediatype>
												<trackindex>1</trackindex>
												<clipindex>26</clipindex>
												<groupindex>1</groupindex>
											</link>
											<link>
												<linkclipref>Raw Interview Matthew Duepner103</linkclipref>
												<mediatype>audio</mediatype>
												<trackindex>2</trackindex>
												<clipindex>26</clipindex>
												<groupindex>1</groupindex>
											</link>
											<itemhistory>
												<uuid>7458B29A-7D6C-4344-9470-736730D1B1B7</uuid>
											</itemhistory>
										</clipitem>
										<clipitem id="Raw Interview Matthew Duepner106">
											<name>Raw Interview Matthew Duepner</name>
											<duration>81486</duration>
											<rate>
												<ntsc>TRUE</ntsc>
												<timebase>24</timebase>
											</rate>
											<in>24734</in>
											<out>25029</out>
											<start>3940</start>
											<end>4235</end>
											<masterclipid>Raw Interview Matthew Duepner286</masterclipid>
											<logginginfo>
												<scene/>
												<shottake/>
												<lognote/>
												<good>FALSE</good>
											</logginginfo>
											<labels>
												<label2/>
											</labels>
											<comments>
												<mastercomment1/>
												<mastercomment2/>
												<mastercomment3/>
												<mastercomment4/>
											</comments>
											<file id="YIN_2013-05-28_LG-5 "/>
											<filter>
												<effect>
													<name>Audio Levels</name>
													<effectid>audiolevels</effectid>
													<effectcategory>audiolevels</effectcategory>
													<effecttype>audiolevels</effecttype>
													<mediatype>audio</mediatype>
													<parameter>
														<name>Level</name>
														<parameterid>level</parameterid>
														<valuemin>0</valuemin>
														<valuemax>3.98109</valuemax>
														<value>1</value>
													</parameter>
												</effect>
											</filter>
											<filter>
												<effect>
													<name>Audio Pan</name>
													<effectid>audiopan</effectid>
													<effectcategory>audiopan</effectcategory>
													<effecttype>audiopan</effecttype>
													<mediatype>audio</mediatype>
													<parameter>
														<name>Pan</name>
														<parameterid>pan</parameterid>
														<valuemin>-1</valuemin>
														<valuemax>1</valuemax>
														<value>0</value>
													</parameter>
												</effect>
											</filter>
											<sourcetrack>
												<mediatype>audio</mediatype>
												<trackindex>1</trackindex>
											</sourcetrack>
											<link>
												<linkclipref>Raw Interview Matthew Duepner104</linkclipref>
												<mediatype>video</mediatype>
												<trackindex>1</trackindex>
												<clipindex>27</clipindex>
											</link>
											<link>
												<linkclipref>Raw Interview Matthew Duepner106</linkclipref>
												<mediatype>audio</mediatype>
												<trackindex>1</trackindex>
												<clipindex>27</clipindex>
												<groupindex>1</groupindex>
											</link>
											<link>
												<linkclipref>Raw Interview Matthew Duepner107</linkclipref>
												<mediatype>audio</mediatype>
												<trackindex>2</trackindex>
												<clipindex>27</clipindex>
												<groupindex>1</groupindex>
											</link>
											<itemhistory>
												<uuid>0187A046-9023-46D6-B20F-884697A30960</uuid>
											</itemhistory>
										</clipitem>
										<clipitem id="Raw Interview Matthew Duepner110">
											<name>Raw Interview Matthew Duepner</name>
											<duration>81486</duration>
											<rate>
												<ntsc>TRUE</ntsc>
												<timebase>24</timebase>
											</rate>
											<in>23029</in>
											<out>23131</out>
											<start>4235</start>
											<end>4337</end>
											<masterclipid>Raw Interview Matthew Duepner287</masterclipid>
											<logginginfo>
												<scene/>
												<shottake/>
												<lognote/>
												<good>FALSE</good>
											</logginginfo>
											<labels>
												<label2/>
											</labels>
											<comments>
												<mastercomment1/>
												<mastercomment2/>
												<mastercomment3/>
												<mastercomment4/>
											</comments>
											<file id="YIN_2013-05-28_LG-5 "/>
											<filter>
												<effect>
													<name>Audio Levels</name>
													<effectid>audiolevels</effectid>
													<effectcategory>audiolevels</effectcategory>
													<effecttype>audiolevels</effecttype>
													<mediatype>audio</mediatype>
													<parameter>
														<name>Level</name>
														<parameterid>level</parameterid>
														<valuemin>0</valuemin>
														<valuemax>3.98109</valuemax>
														<value>1</value>
													</parameter>
												</effect>
											</filter>
											<filter>
												<effect>
													<name>Audio Pan</name>
													<effectid>audiopan</effectid>
													<effectcategory>audiopan</effectcategory>
													<effecttype>audiopan</effecttype>
													<mediatype>audio</mediatype>
													<parameter>
														<name>Pan</name>
														<parameterid>pan</parameterid>
														<valuemin>-1</valuemin>
														<valuemax>1</valuemax>
														<value>0</value>
													</parameter>
												</effect>
											</filter>
											<sourcetrack>
												<mediatype>audio</mediatype>
												<trackindex>1</trackindex>
											</sourcetrack>
											<link>
												<linkclipref>Raw Interview Matthew Duepner108</linkclipref>
												<mediatype>video</mediatype>
												<trackindex>1</trackindex>
												<clipindex>28</clipindex>
											</link>
											<link>
												<linkclipref>Raw Interview Matthew Duepner110</linkclipref>
												<mediatype>audio</mediatype>
												<trackindex>1</trackindex>
												<clipindex>28</clipindex>
												<groupindex>1</groupindex>
											</link>
											<link>
												<linkclipref>Raw Interview Matthew Duepner111</linkclipref>
												<mediatype>audio</mediatype>
												<trackindex>2</trackindex>
												<clipindex>28</clipindex>
												<groupindex>1</groupindex>
											</link>
											<itemhistory>
												<uuid>814F6058-A53E-4A32-B8F9-5B92F64891AE</uuid>
											</itemhistory>
										</clipitem>
										<clipitem id="Raw Interview Matthew Duepner114">
											<name>Raw Interview Matthew Duepner</name>
											<duration>81486</duration>
											<rate>
												<ntsc>TRUE</ntsc>
												<timebase>24</timebase>
											</rate>
											<in>1221</in>
											<out>1396</out>
											<start>4440</start>
											<end>4615</end>
											<masterclipid>Raw Interview Matthew Duepner288</masterclipid>
											<logginginfo>
												<scene/>
												<shottake/>
												<lognote/>
												<good>FALSE</good>
											</logginginfo>
											<labels>
												<label2/>
											</labels>
											<comments>
												<mastercomment1/>
												<mastercomment2/>
												<mastercomment3/>
												<mastercomment4/>
											</comments>
											<file id="YIN_2013-05-28_LG-5 "/>
											<filter>
												<effect>
													<name>Audio Levels</name>
													<effectid>audiolevels</effectid>
													<effectcategory>audiolevels</effectcategory>
													<effecttype>audiolevels</effecttype>
													<mediatype>audio</mediatype>
													<parameter>
														<name>Level</name>
														<parameterid>level</parameterid>
														<valuemin>0</valuemin>
														<valuemax>3.98109</valuemax>
														<value>1</value>
													</parameter>
												</effect>
											</filter>
											<filter>
												<effect>
													<name>Audio Pan</name>
													<effectid>audiopan</effectid>
													<effectcategory>audiopan</effectcategory>
													<effecttype>audiopan</effecttype>
													<mediatype>audio</mediatype>
													<parameter>
														<name>Pan</name>
														<parameterid>pan</parameterid>
														<valuemin>-1</valuemin>
														<valuemax>1</valuemax>
														<value>0</value>
													</parameter>
												</effect>
											</filter>
											<sourcetrack>
												<mediatype>audio</mediatype>
												<trackindex>1</trackindex>
											</sourcetrack>
											<link>
												<linkclipref>Raw Interview Matthew Duepner112</linkclipref>
												<mediatype>video</mediatype>
												<trackindex>1</trackindex>
												<clipindex>29</clipindex>
											</link>
											<link>
												<linkclipref>Raw Interview Matthew Duepner114</linkclipref>
												<mediatype>audio</mediatype>
												<trackindex>1</trackindex>
												<clipindex>29</clipindex>
												<groupindex>1</groupindex>
											</link>
											<link>
												<linkclipref>Raw Interview Matthew Duepner115</linkclipref>
												<mediatype>audio</mediatype>
												<trackindex>2</trackindex>
												<clipindex>29</clipindex>
												<groupindex>1</groupindex>
											</link>
											<itemhistory>
												<uuid>3A9E3A2A-C786-41E8-B62E-57196A9913C7</uuid>
											</itemhistory>
										</clipitem>
										<clipitem id="Raw Interview Matthew Duepner118">
											<name>Raw Interview Matthew Duepner</name>
											<duration>81486</duration>
											<rate>
												<ntsc>TRUE</ntsc>
												<timebase>24</timebase>
											</rate>
											<in>5143</in>
											<out>5320</out>
											<start>4615</start>
											<end>4792</end>
											<masterclipid>Raw Interview Matthew Duepner289</masterclipid>
											<logginginfo>
												<scene/>
												<shottake/>
												<lognote/>
												<good>FALSE</good>
											</logginginfo>
											<labels>
												<label2/>
											</labels>
											<comments>
												<mastercomment1/>
												<mastercomment2/>
												<mastercomment3/>
												<mastercomment4/>
											</comments>
											<file id="YIN_2013-05-28_LG-5 "/>
											<filter>
												<effect>
													<name>Audio Levels</name>
													<effectid>audiolevels</effectid>
													<effectcategory>audiolevels</effectcategory>
													<effecttype>audiolevels</effecttype>
													<mediatype>audio</mediatype>
													<parameter>
														<name>Level</name>
														<parameterid>level</parameterid>
														<valuemin>0</valuemin>
														<valuemax>3.98109</valuemax>
														<value>1</value>
													</parameter>
												</effect>
											</filter>
											<filter>
												<effect>
													<name>Audio Pan</name>
													<effectid>audiopan</effectid>
													<effectcategory>audiopan</effectcategory>
													<effecttype>audiopan</effecttype>
													<mediatype>audio</mediatype>
													<parameter>
														<name>Pan</name>
														<parameterid>pan</parameterid>
														<valuemin>-1</valuemin>
														<valuemax>1</valuemax>
														<value>0</value>
													</parameter>
												</effect>
											</filter>
											<sourcetrack>
												<mediatype>audio</mediatype>
												<trackindex>1</trackindex>
											</sourcetrack>
											<link>
												<linkclipref>Raw Interview Matthew Duepner116</linkclipref>
												<mediatype>video</mediatype>
												<trackindex>1</trackindex>
												<clipindex>30</clipindex>
											</link>
											<link>
												<linkclipref>Raw Interview Matthew Duepner118</linkclipref>
												<mediatype>audio</mediatype>
												<trackindex>1</trackindex>
												<clipindex>30</clipindex>
												<groupindex>1</groupindex>
											</link>
											<link>
												<linkclipref>Raw Interview Matthew Duepner119</linkclipref>
												<mediatype>audio</mediatype>
												<trackindex>2</trackindex>
												<clipindex>30</clipindex>
												<groupindex>1</groupindex>
											</link>
											<itemhistory>
												<uuid>3933772A-CAFF-466E-A4E9-2EAB41F8C5EE</uuid>
											</itemhistory>
										</clipitem>
										<clipitem id="Raw Interview Matthew Duepner122">
											<name>Raw Interview Matthew Duepner</name>
											<duration>81486</duration>
											<rate>
												<ntsc>TRUE</ntsc>
												<timebase>24</timebase>
											</rate>
											<in>17964</in>
											<out>18186</out>
											<start>4824</start>
											<end>5046</end>
											<masterclipid>Raw Interview Matthew Duepner290</masterclipid>
											<logginginfo>
												<scene/>
												<shottake/>
												<lognote/>
												<good>FALSE</good>
											</logginginfo>
											<labels>
												<label2/>
											</labels>
											<comments>
												<mastercomment1/>
												<mastercomment2/>
												<mastercomment3/>
												<mastercomment4/>
											</comments>
											<file id="YIN_2013-05-28_LG-5 "/>
											<filter>
												<effect>
													<name>Audio Levels</name>
													<effectid>audiolevels</effectid>
													<effectcategory>audiolevels</effectcategory>
													<effecttype>audiolevels</effecttype>
													<mediatype>audio</mediatype>
													<parameter>
														<name>Level</name>
														<parameterid>level</parameterid>
														<valuemin>0</valuemin>
														<valuemax>3.98109</valuemax>
														<value>1</value>
													</parameter>
												</effect>
											</filter>
											<filter>
												<effect>
													<name>Audio Pan</name>
													<effectid>audiopan</effectid>
													<effectcategory>audiopan</effectcategory>
													<effecttype>audiopan</effecttype>
													<mediatype>audio</mediatype>
													<parameter>
														<name>Pan</name>
														<parameterid>pan</parameterid>
														<valuemin>-1</valuemin>
														<valuemax>1</valuemax>
														<value>0</value>
													</parameter>
												</effect>
											</filter>
											<sourcetrack>
												<mediatype>audio</mediatype>
												<trackindex>1</trackindex>
											</sourcetrack>
											<link>
												<linkclipref>Raw Interview Matthew Duepner120</linkclipref>
												<mediatype>video</mediatype>
												<trackindex>1</trackindex>
												<clipindex>31</clipindex>
											</link>
											<link>
												<linkclipref>Raw Interview Matthew Duepner122</linkclipref>
												<mediatype>audio</mediatype>
												<trackindex>1</trackindex>
												<clipindex>31</clipindex>
												<groupindex>1</groupindex>
											</link>
											<link>
												<linkclipref>Raw Interview Matthew Duepner123</linkclipref>
												<mediatype>audio</mediatype>
												<trackindex>2</trackindex>
												<clipindex>31</clipindex>
												<groupindex>1</groupindex>
											</link>
											<itemhistory>
												<uuid>8E341E68-96D2-4252-83C2-BA71902769BA</uuid>
											</itemhistory>
										</clipitem>
										<clipitem id="Raw Interview Matthew Duepner126">
											<name>Raw Interview Matthew Duepner</name>
											<duration>81486</duration>
											<rate>
												<ntsc>TRUE</ntsc>
												<timebase>24</timebase>
											</rate>
											<in>18235</in>
											<out>18405</out>
											<start>5046</start>
											<end>5216</end>
											<masterclipid>Raw Interview Matthew Duepner291</masterclipid>
											<logginginfo>
												<scene/>
												<shottake/>
												<lognote/>
												<good>FALSE</good>
											</logginginfo>
											<labels>
												<label2/>
											</labels>
											<comments>
												<mastercomment1/>
												<mastercomment2/>
												<mastercomment3/>
												<mastercomment4/>
											</comments>
											<file id="YIN_2013-05-28_LG-5 "/>
											<filter>
												<effect>
													<name>Audio Levels</name>
													<effectid>audiolevels</effectid>
													<effectcategory>audiolevels</effectcategory>
													<effecttype>audiolevels</effecttype>
													<mediatype>audio</mediatype>
													<parameter>
														<name>Level</name>
														<parameterid>level</parameterid>
														<valuemin>0</valuemin>
														<valuemax>3.98109</valuemax>
														<value>1</value>
													</parameter>
												</effect>
											</filter>
											<filter>
												<effect>
													<name>Audio Pan</name>
													<effectid>audiopan</effectid>
													<effectcategory>audiopan</effectcategory>
													<effecttype>audiopan</effecttype>
													<mediatype>audio</mediatype>
													<parameter>
														<name>Pan</name>
														<parameterid>pan</parameterid>
														<valuemin>-1</valuemin>
														<valuemax>1</valuemax>
														<value>0</value>
													</parameter>
												</effect>
											</filter>
											<sourcetrack>
												<mediatype>audio</mediatype>
												<trackindex>1</trackindex>
											</sourcetrack>
											<link>
												<linkclipref>Raw Interview Matthew Duepner124</linkclipref>
												<mediatype>video</mediatype>
												<trackindex>1</trackindex>
												<clipindex>32</clipindex>
											</link>
											<link>
												<linkclipref>Raw Interview Matthew Duepner126</linkclipref>
												<mediatype>audio</mediatype>
												<trackindex>1</trackindex>
												<clipindex>32</clipindex>
												<groupindex>1</groupindex>
											</link>
											<link>
												<linkclipref>Raw Interview Matthew Duepner127</linkclipref>
												<mediatype>audio</mediatype>
												<trackindex>2</trackindex>
												<clipindex>32</clipindex>
												<groupindex>1</groupindex>
											</link>
											<itemhistory>
												<uuid>31B1BC56-84F8-402E-BF3D-191247559A48</uuid>
											</itemhistory>
										</clipitem>
										<clipitem id="Raw Interview Matthew Duepner130">
											<name>Raw Interview Matthew Duepner</name>
											<duration>81486</duration>
											<rate>
												<ntsc>TRUE</ntsc>
												<timebase>24</timebase>
											</rate>
											<in>18444</in>
											<out>18613</out>
											<start>5216</start>
											<end>5385</end>
											<masterclipid>Raw Interview Matthew Duepner292</masterclipid>
											<logginginfo>
												<scene/>
												<shottake/>
												<lognote/>
												<good>FALSE</good>
											</logginginfo>
											<labels>
												<label2/>
											</labels>
											<comments>
												<mastercomment1/>
												<mastercomment2/>
												<mastercomment3/>
												<mastercomment4/>
											</comments>
											<file id="YIN_2013-05-28_LG-5 "/>
											<filter>
												<effect>
													<name>Audio Levels</name>
													<effectid>audiolevels</effectid>
													<effectcategory>audiolevels</effectcategory>
													<effecttype>audiolevels</effecttype>
													<mediatype>audio</mediatype>
													<parameter>
														<name>Level</name>
														<parameterid>level</parameterid>
														<valuemin>0</valuemin>
														<valuemax>3.98109</valuemax>
														<value>1</value>
													</parameter>
												</effect>
											</filter>
											<filter>
												<effect>
													<name>Audio Pan</name>
													<effectid>audiopan</effectid>
													<effectcategory>audiopan</effectcategory>
													<effecttype>audiopan</effecttype>
													<mediatype>audio</mediatype>
													<parameter>
														<name>Pan</name>
														<parameterid>pan</parameterid>
														<valuemin>-1</valuemin>
														<valuemax>1</valuemax>
														<value>0</value>
													</parameter>
												</effect>
											</filter>
											<sourcetrack>
												<mediatype>audio</mediatype>
												<trackindex>1</trackindex>
											</sourcetrack>
											<link>
												<linkclipref>Raw Interview Matthew Duepner128</linkclipref>
												<mediatype>video</mediatype>
												<trackindex>1</trackindex>
												<clipindex>33</clipindex>
											</link>
											<link>
												<linkclipref>Raw Interview Matthew Duepner130</linkclipref>
												<mediatype>audio</mediatype>
												<trackindex>1</trackindex>
												<clipindex>33</clipindex>
												<groupindex>1</groupindex>
											</link>
											<link>
												<linkclipref>Raw Interview Matthew Duepner131</linkclipref>
												<mediatype>audio</mediatype>
												<trackindex>2</trackindex>
												<clipindex>33</clipindex>
												<groupindex>1</groupindex>
											</link>
											<itemhistory>
												<uuid>136EC43B-A9C4-4E87-A733-EEBCF733B617</uuid>
											</itemhistory>
										</clipitem>
										<clipitem id="Raw Interview Matthew Duepner134">
											<name>Raw Interview Matthew Duepner</name>
											<duration>81486</duration>
											<rate>
												<ntsc>TRUE</ntsc>
												<timebase>24</timebase>
											</rate>
											<in>18645</in>
											<out>18709</out>
											<start>5385</start>
											<end>5449</end>
											<masterclipid>Raw Interview Matthew Duepner293</masterclipid>
											<logginginfo>
												<scene/>
												<shottake/>
												<lognote/>
												<good>FALSE</good>
											</logginginfo>
											<labels>
												<label2/>
											</labels>
											<comments>
												<mastercomment1/>
												<mastercomment2/>
												<mastercomment3/>
												<mastercomment4/>
											</comments>
											<file id="YIN_2013-05-28_LG-5 "/>
											<filter>
												<effect>
													<name>Audio Levels</name>
													<effectid>audiolevels</effectid>
													<effectcategory>audiolevels</effectcategory>
													<effecttype>audiolevels</effecttype>
													<mediatype>audio</mediatype>
													<parameter>
														<name>Level</name>
														<parameterid>level</parameterid>
														<valuemin>0</valuemin>
														<valuemax>3.98109</valuemax>
														<value>1</value>
													</parameter>
												</effect>
											</filter>
											<filter>
												<effect>
													<name>Audio Pan</name>
													<effectid>audiopan</effectid>
													<effectcategory>audiopan</effectcategory>
													<effecttype>audiopan</effecttype>
													<mediatype>audio</mediatype>
													<parameter>
														<name>Pan</name>
														<parameterid>pan</parameterid>
														<valuemin>-1</valuemin>
														<valuemax>1</valuemax>
														<value>0</value>
													</parameter>
												</effect>
											</filter>
											<sourcetrack>
												<mediatype>audio</mediatype>
												<trackindex>1</trackindex>
											</sourcetrack>
											<link>
												<linkclipref>Raw Interview Matthew Duepner132</linkclipref>
												<mediatype>video</mediatype>
												<trackindex>1</trackindex>
												<clipindex>34</clipindex>
											</link>
											<link>
												<linkclipref>Raw Interview Matthew Duepner134</linkclipref>
												<mediatype>audio</mediatype>
												<trackindex>1</trackindex>
												<clipindex>34</clipindex>
												<groupindex>1</groupindex>
											</link>
											<link>
												<linkclipref>Raw Interview Matthew Duepner135</linkclipref>
												<mediatype>audio</mediatype>
												<trackindex>2</trackindex>
												<clipindex>34</clipindex>
												<groupindex>1</groupindex>
											</link>
											<itemhistory>
												<uuid>50E4724D-22FF-4012-833E-3E4BAFB5B03C</uuid>
											</itemhistory>
										</clipitem>
										<clipitem id="Raw Interview Matthew Duepner138">
											<name>Raw Interview Matthew Duepner</name>
											<duration>81486</duration>
											<rate>
												<ntsc>TRUE</ntsc>
												<timebase>24</timebase>
											</rate>
											<in>50956</in>
											<out>51015</out>
											<start>5449</start>
											<end>5508</end>
											<masterclipid>Raw Interview Matthew Duepner294</masterclipid>
											<logginginfo>
												<scene/>
												<shottake/>
												<lognote/>
												<good>FALSE</good>
											</logginginfo>
											<labels>
												<label2/>
											</labels>
											<comments>
												<mastercomment1/>
												<mastercomment2/>
												<mastercomment3/>
												<mastercomment4/>
											</comments>
											<file id="YIN_2013-05-28_LG-5 "/>
											<filter>
												<effect>
													<name>Audio Levels</name>
													<effectid>audiolevels</effectid>
													<effectcategory>audiolevels</effectcategory>
													<effecttype>audiolevels</effecttype>
													<mediatype>audio</mediatype>
													<parameter>
														<name>Level</name>
														<parameterid>level</parameterid>
														<valuemin>0</valuemin>
														<valuemax>3.98109</valuemax>
														<value>1</value>
													</parameter>
												</effect>
											</filter>
											<filter>
												<effect>
													<name>Audio Pan</name>
													<effectid>audiopan</effectid>
													<effectcategory>audiopan</effectcategory>
													<effecttype>audiopan</effecttype>
													<mediatype>audio</mediatype>
													<parameter>
														<name>Pan</name>
														<parameterid>pan</parameterid>
														<valuemin>-1</valuemin>
														<valuemax>1</valuemax>
														<value>0</value>
													</parameter>
												</effect>
											</filter>
											<sourcetrack>
												<mediatype>audio</mediatype>
												<trackindex>1</trackindex>
											</sourcetrack>
											<link>
												<linkclipref>Raw Interview Matthew Duepner136</linkclipref>
												<mediatype>video</mediatype>
												<trackindex>1</trackindex>
												<clipindex>35</clipindex>
											</link>
											<link>
												<linkclipref>Raw Interview Matthew Duepner138</linkclipref>
												<mediatype>audio</mediatype>
												<trackindex>1</trackindex>
												<clipindex>35</clipindex>
												<groupindex>1</groupindex>
											</link>
											<link>
												<linkclipref>Raw Interview Matthew Duepner139</linkclipref>
												<mediatype>audio</mediatype>
												<trackindex>2</trackindex>
												<clipindex>35</clipindex>
												<groupindex>1</groupindex>
											</link>
											<itemhistory>
												<uuid>ADFC7411-1094-4698-8568-12E55D0308E2</uuid>
											</itemhistory>
										</clipitem>
										<clipitem id="Raw Interview Matthew Duepner142">
											<name>Raw Interview Matthew Duepner</name>
											<duration>81486</duration>
											<rate>
												<ntsc>TRUE</ntsc>
												<timebase>24</timebase>
											</rate>
											<in>18739</in>
											<out>19018</out>
											<start>5508</start>
											<end>5787</end>
											<masterclipid>Raw Interview Matthew Duepner295</masterclipid>
											<logginginfo>
												<scene/>
												<shottake/>
												<lognote/>
												<good>FALSE</good>
											</logginginfo>
											<labels>
												<label2/>
											</labels>
											<comments>
												<mastercomment1/>
												<mastercomment2/>
												<mastercomment3/>
												<mastercomment4/>
											</comments>
											<file id="YIN_2013-05-28_LG-5 "/>
											<filter>
												<effect>
													<name>Audio Levels</name>
													<effectid>audiolevels</effectid>
													<effectcategory>audiolevels</effectcategory>
													<effecttype>audiolevels</effecttype>
													<mediatype>audio</mediatype>
													<parameter>
														<name>Level</name>
														<parameterid>level</parameterid>
														<valuemin>0</valuemin>
														<valuemax>3.98109</valuemax>
														<value>1</value>
													</parameter>
												</effect>
											</filter>
											<filter>
												<effect>
													<name>Audio Pan</name>
													<effectid>audiopan</effectid>
													<effectcategory>audiopan</effectcategory>
													<effecttype>audiopan</effecttype>
													<mediatype>audio</mediatype>
													<parameter>
														<name>Pan</name>
														<parameterid>pan</parameterid>
														<valuemin>-1</valuemin>
														<valuemax>1</valuemax>
														<value>0</value>
													</parameter>
												</effect>
											</filter>
											<sourcetrack>
												<mediatype>audio</mediatype>
												<trackindex>1</trackindex>
											</sourcetrack>
											<link>
												<linkclipref>Raw Interview Matthew Duepner140</linkclipref>
												<mediatype>video</mediatype>
												<trackindex>1</trackindex>
												<clipindex>36</clipindex>
											</link>
											<link>
												<linkclipref>Raw Interview Matthew Duepner142</linkclipref>
												<mediatype>audio</mediatype>
												<trackindex>1</trackindex>
												<clipindex>36</clipindex>
												<groupindex>1</groupindex>
											</link>
											<link>
												<linkclipref>Raw Interview Matthew Duepner143</linkclipref>
												<mediatype>audio</mediatype>
												<trackindex>2</trackindex>
												<clipindex>36</clipindex>
												<groupindex>1</groupindex>
											</link>
											<itemhistory>
												<uuid>1646EE7B-F450-408F-9F9C-4F25CB231FBE</uuid>
											</itemhistory>
										</clipitem>
										<clipitem id="Raw Interview Matthew Duepner146">
											<name>Raw Interview Matthew Duepner</name>
											<duration>81486</duration>
											<rate>
												<ntsc>TRUE</ntsc>
												<timebase>24</timebase>
											</rate>
											<in>56083</in>
											<out>56203</out>
											<start>5829</start>
											<end>5949</end>
											<masterclipid>Raw Interview Matthew Duepner296</masterclipid>
											<logginginfo>
												<scene/>
												<shottake/>
												<lognote/>
												<good>FALSE</good>
											</logginginfo>
											<labels>
												<label2/>
											</labels>
											<comments>
												<mastercomment1/>
												<mastercomment2/>
												<mastercomment3/>
												<mastercomment4/>
											</comments>
											<file id="YIN_2013-05-28_LG-5 "/>
											<filter>
												<effect>
													<name>Audio Levels</name>
													<effectid>audiolevels</effectid>
													<effectcategory>audiolevels</effectcategory>
													<effecttype>audiolevels</effecttype>
													<mediatype>audio</mediatype>
													<parameter>
														<name>Level</name>
														<parameterid>level</parameterid>
														<valuemin>0</valuemin>
														<valuemax>3.98109</valuemax>
														<value>1</value>
													</parameter>
												</effect>
											</filter>
											<filter>
												<effect>
													<name>Audio Pan</name>
													<effectid>audiopan</effectid>
													<effectcategory>audiopan</effectcategory>
													<effecttype>audiopan</effecttype>
													<mediatype>audio</mediatype>
													<parameter>
														<name>Pan</name>
														<parameterid>pan</parameterid>
														<valuemin>-1</valuemin>
														<valuemax>1</valuemax>
														<value>0</value>
													</parameter>
												</effect>
											</filter>
											<sourcetrack>
												<mediatype>audio</mediatype>
												<trackindex>1</trackindex>
											</sourcetrack>
											<link>
												<linkclipref>Raw Interview Matthew Duepner144</linkclipref>
												<mediatype>video</mediatype>
												<trackindex>1</trackindex>
												<clipindex>37</clipindex>
											</link>
											<link>
												<linkclipref>Raw Interview Matthew Duepner146</linkclipref>
												<mediatype>audio</mediatype>
												<trackindex>1</trackindex>
												<clipindex>37</clipindex>
												<groupindex>1</groupindex>
											</link>
											<link>
												<linkclipref>Raw Interview Matthew Duepner147</linkclipref>
												<mediatype>audio</mediatype>
												<trackindex>2</trackindex>
												<clipindex>37</clipindex>
												<groupindex>1</groupindex>
											</link>
											<itemhistory>
												<uuid>7BF6C1C8-9CAA-46FD-B9D1-6F0B1B714EA9</uuid>
											</itemhistory>
										</clipitem>
										<clipitem id="Raw Interview Matthew Duepner150">
											<name>Raw Interview Matthew Duepner</name>
											<duration>81486</duration>
											<rate>
												<ntsc>TRUE</ntsc>
												<timebase>24</timebase>
											</rate>
											<in>56334</in>
											<out>56423</out>
											<start>5949</start>
											<end>6038</end>
											<masterclipid>Raw Interview Matthew Duepner297</masterclipid>
											<logginginfo>
												<scene/>
												<shottake/>
												<lognote/>
												<good>FALSE</good>
											</logginginfo>
											<labels>
												<label2/>
											</labels>
											<comments>
												<mastercomment1/>
												<mastercomment2/>
												<mastercomment3/>
												<mastercomment4/>
											</comments>
											<file id="YIN_2013-05-28_LG-5 "/>
											<filter>
												<effect>
													<name>Audio Levels</name>
													<effectid>audiolevels</effectid>
													<effectcategory>audiolevels</effectcategory>
													<effecttype>audiolevels</effecttype>
													<mediatype>audio</mediatype>
													<parameter>
														<name>Level</name>
														<parameterid>level</parameterid>
														<valuemin>0</valuemin>
														<valuemax>3.98109</valuemax>
														<value>1</value>
													</parameter>
												</effect>
											</filter>
											<filter>
												<effect>
													<name>Audio Pan</name>
													<effectid>audiopan</effectid>
													<effectcategory>audiopan</effectcategory>
													<effecttype>audiopan</effecttype>
													<mediatype>audio</mediatype>
													<parameter>
														<name>Pan</name>
														<parameterid>pan</parameterid>
														<valuemin>-1</valuemin>
														<valuemax>1</valuemax>
														<value>0</value>
													</parameter>
												</effect>
											</filter>
											<sourcetrack>
												<mediatype>audio</mediatype>
												<trackindex>1</trackindex>
											</sourcetrack>
											<link>
												<linkclipref>Raw Interview Matthew Duepner148</linkclipref>
												<mediatype>video</mediatype>
												<trackindex>1</trackindex>
												<clipindex>38</clipindex>
											</link>
											<link>
												<linkclipref>Raw Interview Matthew Duepner150</linkclipref>
												<mediatype>audio</mediatype>
												<trackindex>1</trackindex>
												<clipindex>38</clipindex>
												<groupindex>1</groupindex>
											</link>
											<link>
												<linkclipref>Raw Interview Matthew Duepner151</linkclipref>
												<mediatype>audio</mediatype>
												<trackindex>2</trackindex>
												<clipindex>38</clipindex>
												<groupindex>1</groupindex>
											</link>
											<itemhistory>
												<uuid>F8A9F814-EBC4-475C-AB75-484704D7D517</uuid>
											</itemhistory>
										</clipitem>
										<clipitem id="Raw Interview Matthew Duepner154">
											<name>Raw Interview Matthew Duepner</name>
											<duration>81486</duration>
											<rate>
												<ntsc>TRUE</ntsc>
												<timebase>24</timebase>
											</rate>
											<in>19126</in>
											<out>19267</out>
											<start>6093</start>
											<end>6234</end>
											<masterclipid>Raw Interview Matthew Duepner298</masterclipid>
											<logginginfo>
												<scene/>
												<shottake/>
												<lognote/>
												<good>FALSE</good>
											</logginginfo>
											<labels>
												<label2/>
											</labels>
											<comments>
												<mastercomment1/>
												<mastercomment2/>
												<mastercomment3/>
												<mastercomment4/>
											</comments>
											<file id="YIN_2013-05-28_LG-5 "/>
											<filter>
												<effect>
													<name>Audio Levels</name>
													<effectid>audiolevels</effectid>
													<effectcategory>audiolevels</effectcategory>
													<effecttype>audiolevels</effecttype>
													<mediatype>audio</mediatype>
													<parameter>
														<name>Level</name>
														<parameterid>level</parameterid>
														<valuemin>0</valuemin>
														<valuemax>3.98109</valuemax>
														<value>1</value>
													</parameter>
												</effect>
											</filter>
											<filter>
												<effect>
													<name>Audio Pan</name>
													<effectid>audiopan</effectid>
													<effectcategory>audiopan</effectcategory>
													<effecttype>audiopan</effecttype>
													<mediatype>audio</mediatype>
													<parameter>
														<name>Pan</name>
														<parameterid>pan</parameterid>
														<valuemin>-1</valuemin>
														<valuemax>1</valuemax>
														<value>0</value>
													</parameter>
												</effect>
											</filter>
											<sourcetrack>
												<mediatype>audio</mediatype>
												<trackindex>1</trackindex>
											</sourcetrack>
											<link>
												<linkclipref>Raw Interview Matthew Duepner152</linkclipref>
												<mediatype>video</mediatype>
												<trackindex>1</trackindex>
												<clipindex>39</clipindex>
											</link>
											<link>
												<linkclipref>Raw Interview Matthew Duepner154</linkclipref>
												<mediatype>audio</mediatype>
												<trackindex>1</trackindex>
												<clipindex>39</clipindex>
												<groupindex>1</groupindex>
											</link>
											<link>
												<linkclipref>Raw Interview Matthew Duepner155</linkclipref>
												<mediatype>audio</mediatype>
												<trackindex>2</trackindex>
												<clipindex>39</clipindex>
												<groupindex>1</groupindex>
											</link>
											<itemhistory>
												<uuid>483D3D72-1E89-48F7-A7C3-926A438E07D7</uuid>
											</itemhistory>
										</clipitem>
										<clipitem id="Raw Interview Matthew Duepner158">
											<name>Raw Interview Matthew Duepner</name>
											<duration>81486</duration>
											<rate>
												<ntsc>TRUE</ntsc>
												<timebase>24</timebase>
											</rate>
											<in>57619</in>
											<out>57904</out>
											<start>6234</start>
											<end>6519</end>
											<masterclipid>Raw Interview Matthew Duepner299</masterclipid>
											<logginginfo>
												<scene/>
												<shottake/>
												<lognote/>
												<good>FALSE</good>
											</logginginfo>
											<labels>
												<label2/>
											</labels>
											<comments>
												<mastercomment1/>
												<mastercomment2/>
												<mastercomment3/>
												<mastercomment4/>
											</comments>
											<file id="YIN_2013-05-28_LG-5 "/>
											<filter>
												<effect>
													<name>Audio Levels</name>
													<effectid>audiolevels</effectid>
													<effectcategory>audiolevels</effectcategory>
													<effecttype>audiolevels</effecttype>
													<mediatype>audio</mediatype>
													<parameter>
														<name>Level</name>
														<parameterid>level</parameterid>
														<valuemin>0</valuemin>
														<valuemax>3.98109</valuemax>
														<value>1</value>
													</parameter>
												</effect>
											</filter>
											<filter>
												<effect>
													<name>Audio Pan</name>
													<effectid>audiopan</effectid>
													<effectcategory>audiopan</effectcategory>
													<effecttype>audiopan</effecttype>
													<mediatype>audio</mediatype>
													<parameter>
														<name>Pan</name>
														<parameterid>pan</parameterid>
														<valuemin>-1</valuemin>
														<valuemax>1</valuemax>
														<value>0</value>
													</parameter>
												</effect>
											</filter>
											<sourcetrack>
												<mediatype>audio</mediatype>
												<trackindex>1</trackindex>
											</sourcetrack>
											<link>
												<linkclipref>Raw Interview Matthew Duepner156</linkclipref>
												<mediatype>video</mediatype>
												<trackindex>1</trackindex>
												<clipindex>40</clipindex>
											</link>
											<link>
												<linkclipref>Raw Interview Matthew Duepner158</linkclipref>
												<mediatype>audio</mediatype>
												<trackindex>1</trackindex>
												<clipindex>40</clipindex>
												<groupindex>1</groupindex>
											</link>
											<link>
												<linkclipref>Raw Interview Matthew Duepner159</linkclipref>
												<mediatype>audio</mediatype>
												<trackindex>2</trackindex>
												<clipindex>40</clipindex>
												<groupindex>1</groupindex>
											</link>
											<itemhistory>
												<uuid>CC213260-4917-4A23-AC3E-6401978F004B</uuid>
											</itemhistory>
										</clipitem>
										<clipitem id="Raw Interview Matthew Duepner162">
											<name>Raw Interview Matthew Duepner</name>
											<duration>81486</duration>
											<rate>
												<ntsc>TRUE</ntsc>
												<timebase>24</timebase>
											</rate>
											<in>51376</in>
											<out>51520</out>
											<start>6519</start>
											<end>6663</end>
											<masterclipid>Raw Interview Matthew Duepner300</masterclipid>
											<logginginfo>
												<scene/>
												<shottake/>
												<lognote/>
												<good>FALSE</good>
											</logginginfo>
											<labels>
												<label2/>
											</labels>
											<comments>
												<mastercomment1/>
												<mastercomment2/>
												<mastercomment3/>
												<mastercomment4/>
											</comments>
											<file id="YIN_2013-05-28_LG-5 "/>
											<filter>
												<effect>
													<name>Audio Levels</name>
													<effectid>audiolevels</effectid>
													<effectcategory>audiolevels</effectcategory>
													<effecttype>audiolevels</effecttype>
													<mediatype>audio</mediatype>
													<parameter>
														<name>Level</name>
														<parameterid>level</parameterid>
														<valuemin>0</valuemin>
														<valuemax>3.98109</valuemax>
														<value>1</value>
													</parameter>
												</effect>
											</filter>
											<filter>
												<effect>
													<name>Audio Pan</name>
													<effectid>audiopan</effectid>
													<effectcategory>audiopan</effectcategory>
													<effecttype>audiopan</effecttype>
													<mediatype>audio</mediatype>
													<parameter>
														<name>Pan</name>
														<parameterid>pan</parameterid>
														<valuemin>-1</valuemin>
														<valuemax>1</valuemax>
														<value>0</value>
													</parameter>
												</effect>
											</filter>
											<sourcetrack>
												<mediatype>audio</mediatype>
												<trackindex>1</trackindex>
											</sourcetrack>
											<link>
												<linkclipref>Raw Interview Matthew Duepner160</linkclipref>
												<mediatype>video</mediatype>
												<trackindex>1</trackindex>
												<clipindex>41</clipindex>
											</link>
											<link>
												<linkclipref>Raw Interview Matthew Duepner162</linkclipref>
												<mediatype>audio</mediatype>
												<trackindex>1</trackindex>
												<clipindex>41</clipindex>
												<groupindex>1</groupindex>
											</link>
											<link>
												<linkclipref>Raw Interview Matthew Duepner163</linkclipref>
												<mediatype>audio</mediatype>
												<trackindex>2</trackindex>
												<clipindex>41</clipindex>
												<groupindex>1</groupindex>
											</link>
											<itemhistory>
												<uuid>55C260B3-FC88-484D-97F4-4F69011A6B9B</uuid>
											</itemhistory>
										</clipitem>
										<clipitem id="Raw Interview Matthew Duepner166">
											<name>Raw Interview Matthew Duepner</name>
											<duration>81486</duration>
											<rate>
												<ntsc>TRUE</ntsc>
												<timebase>24</timebase>
											</rate>
											<in>38283</in>
											<out>38784</out>
											<start>7006</start>
											<end>7507</end>
											<masterclipid>Raw Interview Matthew Duepner301</masterclipid>
											<logginginfo>
												<scene/>
												<shottake/>
												<lognote/>
												<good>FALSE</good>
											</logginginfo>
											<labels>
												<label2/>
											</labels>
											<comments>
												<mastercomment1/>
												<mastercomment2/>
												<mastercomment3/>
												<mastercomment4/>
											</comments>
											<file id="YIN_2013-05-28_LG-5 "/>
											<filter>
												<effect>
													<name>Audio Levels</name>
													<effectid>audiolevels</effectid>
													<effectcategory>audiolevels</effectcategory>
													<effecttype>audiolevels</effecttype>
													<mediatype>audio</mediatype>
													<parameter>
														<name>Level</name>
														<parameterid>level</parameterid>
														<valuemin>0</valuemin>
														<valuemax>3.98109</valuemax>
														<value>1</value>
													</parameter>
												</effect>
											</filter>
											<filter>
												<effect>
													<name>Audio Pan</name>
													<effectid>audiopan</effectid>
													<effectcategory>audiopan</effectcategory>
													<effecttype>audiopan</effecttype>
													<mediatype>audio</mediatype>
													<parameter>
														<name>Pan</name>
														<parameterid>pan</parameterid>
														<valuemin>-1</valuemin>
														<valuemax>1</valuemax>
														<value>0</value>
													</parameter>
												</effect>
											</filter>
											<sourcetrack>
												<mediatype>audio</mediatype>
												<trackindex>1</trackindex>
											</sourcetrack>
											<link>
												<linkclipref>Raw Interview Matthew Duepner164</linkclipref>
												<mediatype>video</mediatype>
												<trackindex>1</trackindex>
												<clipindex>42</clipindex>
											</link>
											<link>
												<linkclipref>Raw Interview Matthew Duepner166</linkclipref>
												<mediatype>audio</mediatype>
												<trackindex>1</trackindex>
												<clipindex>42</clipindex>
												<groupindex>1</groupindex>
											</link>
											<link>
												<linkclipref>Raw Interview Matthew Duepner167</linkclipref>
												<mediatype>audio</mediatype>
												<trackindex>2</trackindex>
												<clipindex>42</clipindex>
												<groupindex>1</groupindex>
											</link>
											<itemhistory>
												<uuid>0D9FD30B-0E49-4B92-8CB7-39C3EEEC9AA5</uuid>
											</itemhistory>
										</clipitem>
										<clipitem id="Raw Interview Matthew Duepner170">
											<name>Raw Interview Matthew Duepner</name>
											<duration>81486</duration>
											<rate>
												<ntsc>TRUE</ntsc>
												<timebase>24</timebase>
											</rate>
											<in>51892</in>
											<out>52054</out>
											<start>7507</start>
											<end>7669</end>
											<masterclipid>Raw Interview Matthew Duepner302</masterclipid>
											<logginginfo>
												<scene/>
												<shottake/>
												<lognote/>
												<good>FALSE</good>
											</logginginfo>
											<labels>
												<label2/>
											</labels>
											<comments>
												<mastercomment1/>
												<mastercomment2/>
												<mastercomment3/>
												<mastercomment4/>
											</comments>
											<file id="YIN_2013-05-28_LG-5 "/>
											<filter>
												<effect>
													<name>Audio Levels</name>
													<effectid>audiolevels</effectid>
													<effectcategory>audiolevels</effectcategory>
													<effecttype>audiolevels</effecttype>
													<mediatype>audio</mediatype>
													<parameter>
														<name>Level</name>
														<parameterid>level</parameterid>
														<valuemin>0</valuemin>
														<valuemax>3.98109</valuemax>
														<value>1</value>
													</parameter>
												</effect>
											</filter>
											<filter>
												<effect>
													<name>Audio Pan</name>
													<effectid>audiopan</effectid>
													<effectcategory>audiopan</effectcategory>
													<effecttype>audiopan</effecttype>
													<mediatype>audio</mediatype>
													<parameter>
														<name>Pan</name>
														<parameterid>pan</parameterid>
														<valuemin>-1</valuemin>
														<valuemax>1</valuemax>
														<value>0</value>
													</parameter>
												</effect>
											</filter>
											<sourcetrack>
												<mediatype>audio</mediatype>
												<trackindex>1</trackindex>
											</sourcetrack>
											<link>
												<linkclipref>Raw Interview Matthew Duepner168</linkclipref>
												<mediatype>video</mediatype>
												<trackindex>1</trackindex>
												<clipindex>43</clipindex>
											</link>
											<link>
												<linkclipref>Raw Interview Matthew Duepner170</linkclipref>
												<mediatype>audio</mediatype>
												<trackindex>1</trackindex>
												<clipindex>43</clipindex>
												<groupindex>1</groupindex>
											</link>
											<link>
												<linkclipref>Raw Interview Matthew Duepner171</linkclipref>
												<mediatype>audio</mediatype>
												<trackindex>2</trackindex>
												<clipindex>43</clipindex>
												<groupindex>1</groupindex>
											</link>
											<itemhistory>
												<uuid>032309A9-9E26-49DB-99A9-007B831634D1</uuid>
											</itemhistory>
										</clipitem>
										<clipitem id="Raw Interview Matthew Duepner174">
											<name>Raw Interview Matthew Duepner</name>
											<duration>81486</duration>
											<rate>
												<ntsc>TRUE</ntsc>
												<timebase>24</timebase>
											</rate>
											<in>19372</in>
											<out>19423</out>
											<start>7734</start>
											<end>7785</end>
											<masterclipid>Raw Interview Matthew Duepner303</masterclipid>
											<logginginfo>
												<scene/>
												<shottake/>
												<lognote/>
												<good>FALSE</good>
											</logginginfo>
											<labels>
												<label2/>
											</labels>
											<comments>
												<mastercomment1/>
												<mastercomment2/>
												<mastercomment3/>
												<mastercomment4/>
											</comments>
											<file id="YIN_2013-05-28_LG-5 "/>
											<filter>
												<effect>
													<name>Audio Levels</name>
													<effectid>audiolevels</effectid>
													<effectcategory>audiolevels</effectcategory>
													<effecttype>audiolevels</effecttype>
													<mediatype>audio</mediatype>
													<parameter>
														<name>Level</name>
														<parameterid>level</parameterid>
														<valuemin>0</valuemin>
														<valuemax>3.98109</valuemax>
														<value>1</value>
													</parameter>
												</effect>
											</filter>
											<filter>
												<effect>
													<name>Audio Pan</name>
													<effectid>audiopan</effectid>
													<effectcategory>audiopan</effectcategory>
													<effecttype>audiopan</effecttype>
													<mediatype>audio</mediatype>
													<parameter>
														<name>Pan</name>
														<parameterid>pan</parameterid>
														<valuemin>-1</valuemin>
														<valuemax>1</valuemax>
														<value>0</value>
													</parameter>
												</effect>
											</filter>
											<sourcetrack>
												<mediatype>audio</mediatype>
												<trackindex>1</trackindex>
											</sourcetrack>
											<link>
												<linkclipref>Raw Interview Matthew Duepner172</linkclipref>
												<mediatype>video</mediatype>
												<trackindex>1</trackindex>
												<clipindex>44</clipindex>
											</link>
											<link>
												<linkclipref>Raw Interview Matthew Duepner174</linkclipref>
												<mediatype>audio</mediatype>
												<trackindex>1</trackindex>
												<clipindex>44</clipindex>
												<groupindex>1</groupindex>
											</link>
											<link>
												<linkclipref>Raw Interview Matthew Duepner175</linkclipref>
												<mediatype>audio</mediatype>
												<trackindex>2</trackindex>
												<clipindex>44</clipindex>
												<groupindex>1</groupindex>
											</link>
											<itemhistory>
												<uuid>063122B5-FF3C-4412-A594-B23D61054C84</uuid>
											</itemhistory>
										</clipitem>
										<clipitem id="Raw Interview Matthew Duepner178">
											<name>Raw Interview Matthew Duepner</name>
											<duration>81486</duration>
											<rate>
												<ntsc>TRUE</ntsc>
												<timebase>24</timebase>
											</rate>
											<in>19423</in>
											<out>19457</out>
											<start>7785</start>
											<end>7819</end>
											<masterclipid>Raw Interview Matthew Duepner304</masterclipid>
											<logginginfo>
												<scene/>
												<shottake/>
												<lognote/>
												<good>FALSE</good>
											</logginginfo>
											<labels>
												<label2/>
											</labels>
											<comments>
												<mastercomment1/>
												<mastercomment2/>
												<mastercomment3/>
												<mastercomment4/>
											</comments>
											<file id="YIN_2013-05-28_LG-5 "/>
											<filter>
												<effect>
													<name>Audio Levels</name>
													<effectid>audiolevels</effectid>
													<effectcategory>audiolevels</effectcategory>
													<effecttype>audiolevels</effecttype>
													<mediatype>audio</mediatype>
													<parameter>
														<name>Level</name>
														<parameterid>level</parameterid>
														<valuemin>0</valuemin>
														<valuemax>3.98109</valuemax>
														<value>1</value>
													</parameter>
												</effect>
											</filter>
											<filter>
												<effect>
													<name>Audio Pan</name>
													<effectid>audiopan</effectid>
													<effectcategory>audiopan</effectcategory>
													<effecttype>audiopan</effecttype>
													<mediatype>audio</mediatype>
													<parameter>
														<name>Pan</name>
														<parameterid>pan</parameterid>
														<valuemin>-1</valuemin>
														<valuemax>1</valuemax>
														<value>0</value>
													</parameter>
												</effect>
											</filter>
											<sourcetrack>
												<mediatype>audio</mediatype>
												<trackindex>1</trackindex>
											</sourcetrack>
											<link>
												<linkclipref>Raw Interview Matthew Duepner176</linkclipref>
												<mediatype>video</mediatype>
												<trackindex>1</trackindex>
												<clipindex>45</clipindex>
											</link>
											<link>
												<linkclipref>Raw Interview Matthew Duepner178</linkclipref>
												<mediatype>audio</mediatype>
												<trackindex>1</trackindex>
												<clipindex>45</clipindex>
												<groupindex>1</groupindex>
											</link>
											<link>
												<linkclipref>Raw Interview Matthew Duepner179</linkclipref>
												<mediatype>audio</mediatype>
												<trackindex>2</trackindex>
												<clipindex>45</clipindex>
												<groupindex>1</groupindex>
											</link>
											<itemhistory>
												<uuid>BFB3F990-741A-4171-859D-9554731D6410</uuid>
											</itemhistory>
										</clipitem>
										<clipitem id="Raw Interview Matthew Duepner182">
											<name>Raw Interview Matthew Duepner</name>
											<duration>81486</duration>
											<rate>
												<ntsc>TRUE</ntsc>
												<timebase>24</timebase>
											</rate>
											<in>19522</in>
											<out>19602</out>
											<start>7819</start>
											<end>7899</end>
											<masterclipid>Raw Interview Matthew Duepner305</masterclipid>
											<logginginfo>
												<scene/>
												<shottake/>
												<lognote/>
												<good>FALSE</good>
											</logginginfo>
											<labels>
												<label2/>
											</labels>
											<comments>
												<mastercomment1/>
												<mastercomment2/>
												<mastercomment3/>
												<mastercomment4/>
											</comments>
											<file id="YIN_2013-05-28_LG-5 "/>
											<filter>
												<effect>
													<name>Audio Levels</name>
													<effectid>audiolevels</effectid>
													<effectcategory>audiolevels</effectcategory>
													<effecttype>audiolevels</effecttype>
													<mediatype>audio</mediatype>
													<parameter>
														<name>Level</name>
														<parameterid>level</parameterid>
														<valuemin>0</valuemin>
														<valuemax>3.98109</valuemax>
														<value>1</value>
													</parameter>
												</effect>
											</filter>
											<filter>
												<effect>
													<name>Audio Pan</name>
													<effectid>audiopan</effectid>
													<effectcategory>audiopan</effectcategory>
													<effecttype>audiopan</effecttype>
													<mediatype>audio</mediatype>
													<parameter>
														<name>Pan</name>
														<parameterid>pan</parameterid>
														<valuemin>-1</valuemin>
														<valuemax>1</valuemax>
														<value>0</value>
													</parameter>
												</effect>
											</filter>
											<sourcetrack>
												<mediatype>audio</mediatype>
												<trackindex>1</trackindex>
											</sourcetrack>
											<link>
												<linkclipref>Raw Interview Matthew Duepner180</linkclipref>
												<mediatype>video</mediatype>
												<trackindex>1</trackindex>
												<clipindex>46</clipindex>
											</link>
											<link>
												<linkclipref>Raw Interview Matthew Duepner182</linkclipref>
												<mediatype>audio</mediatype>
												<trackindex>1</trackindex>
												<clipindex>46</clipindex>
												<groupindex>1</groupindex>
											</link>
											<link>
												<linkclipref>Raw Interview Matthew Duepner183</linkclipref>
												<mediatype>audio</mediatype>
												<trackindex>2</trackindex>
												<clipindex>46</clipindex>
												<groupindex>1</groupindex>
											</link>
											<itemhistory>
												<uuid>0AE1BFC2-A2ED-494D-8C05-90F2BD27F7CF</uuid>
											</itemhistory>
										</clipitem>
										<clipitem id="Raw Interview Matthew Duepner186">
											<name>Raw Interview Matthew Duepner</name>
											<duration>81486</duration>
											<rate>
												<ntsc>TRUE</ntsc>
												<timebase>24</timebase>
											</rate>
											<in>19602</in>
											<out>19780</out>
											<start>7899</start>
											<end>8077</end>
											<masterclipid>Raw Interview Matthew Duepner306</masterclipid>
											<logginginfo>
												<scene/>
												<shottake/>
												<lognote/>
												<good>FALSE</good>
											</logginginfo>
											<labels>
												<label2/>
											</labels>
											<comments>
												<mastercomment1/>
												<mastercomment2/>
												<mastercomment3/>
												<mastercomment4/>
											</comments>
											<file id="YIN_2013-05-28_LG-5 "/>
											<filter>
												<effect>
													<name>Audio Levels</name>
													<effectid>audiolevels</effectid>
													<effectcategory>audiolevels</effectcategory>
													<effecttype>audiolevels</effecttype>
													<mediatype>audio</mediatype>
													<parameter>
														<name>Level</name>
														<parameterid>level</parameterid>
														<valuemin>0</valuemin>
														<valuemax>3.98109</valuemax>
														<value>1</value>
													</parameter>
												</effect>
											</filter>
											<filter>
												<effect>
													<name>Audio Pan</name>
													<effectid>audiopan</effectid>
													<effectcategory>audiopan</effectcategory>
													<effecttype>audiopan</effecttype>
													<mediatype>audio</mediatype>
													<parameter>
														<name>Pan</name>
														<parameterid>pan</parameterid>
														<valuemin>-1</valuemin>
														<valuemax>1</valuemax>
														<value>0</value>
													</parameter>
												</effect>
											</filter>
											<sourcetrack>
												<mediatype>audio</mediatype>
												<trackindex>1</trackindex>
											</sourcetrack>
											<link>
												<linkclipref>Raw Interview Matthew Duepner184</linkclipref>
												<mediatype>video</mediatype>
												<trackindex>1</trackindex>
												<clipindex>47</clipindex>
											</link>
											<link>
												<linkclipref>Raw Interview Matthew Duepner186</linkclipref>
												<mediatype>audio</mediatype>
												<trackindex>1</trackindex>
												<clipindex>47</clipindex>
												<groupindex>1</groupindex>
											</link>
											<link>
												<linkclipref>Raw Interview Matthew Duepner187</linkclipref>
												<mediatype>audio</mediatype>
												<trackindex>2</trackindex>
												<clipindex>47</clipindex>
												<groupindex>1</groupindex>
											</link>
											<itemhistory>
												<uuid>45D63618-9766-49BA-B32E-E6F032C05096</uuid>
											</itemhistory>
										</clipitem>
										<clipitem id="Raw Interview Matthew Duepner190">
											<name>Raw Interview Matthew Duepner</name>
											<duration>81486</duration>
											<rate>
												<ntsc>TRUE</ntsc>
												<timebase>24</timebase>
											</rate>
											<in>68841</in>
											<out>69079</out>
											<start>8163</start>
											<end>8401</end>
											<masterclipid>Raw Interview Matthew Duepner307</masterclipid>
											<logginginfo>
												<scene/>
												<shottake/>
												<lognote/>
												<good>FALSE</good>
											</logginginfo>
											<labels>
												<label2/>
											</labels>
											<comments>
												<mastercomment1/>
												<mastercomment2/>
												<mastercomment3/>
												<mastercomment4/>
											</comments>
											<file id="YIN_2013-05-28_LG-5 "/>
											<filter>
												<effect>
													<name>Audio Levels</name>
													<effectid>audiolevels</effectid>
													<effectcategory>audiolevels</effectcategory>
													<effecttype>audiolevels</effecttype>
													<mediatype>audio</mediatype>
													<parameter>
														<name>Level</name>
														<parameterid>level</parameterid>
														<valuemin>0</valuemin>
														<valuemax>3.98109</valuemax>
														<value>1</value>
													</parameter>
												</effect>
											</filter>
											<filter>
												<effect>
													<name>Audio Pan</name>
													<effectid>audiopan</effectid>
													<effectcategory>audiopan</effectcategory>
													<effecttype>audiopan</effecttype>
													<mediatype>audio</mediatype>
													<parameter>
														<name>Pan</name>
														<parameterid>pan</parameterid>
														<valuemin>-1</valuemin>
														<valuemax>1</valuemax>
														<value>0</value>
													</parameter>
												</effect>
											</filter>
											<sourcetrack>
												<mediatype>audio</mediatype>
												<trackindex>1</trackindex>
											</sourcetrack>
											<link>
												<linkclipref>Raw Interview Matthew Duepner188</linkclipref>
												<mediatype>video</mediatype>
												<trackindex>1</trackindex>
												<clipindex>48</clipindex>
											</link>
											<link>
												<linkclipref>Raw Interview Matthew Duepner190</linkclipref>
												<mediatype>audio</mediatype>
												<trackindex>1</trackindex>
												<clipindex>48</clipindex>
												<groupindex>1</groupindex>
											</link>
											<link>
												<linkclipref>Raw Interview Matthew Duepner191</linkclipref>
												<mediatype>audio</mediatype>
												<trackindex>2</trackindex>
												<clipindex>48</clipindex>
												<groupindex>1</groupindex>
											</link>
											<itemhistory>
												<uuid>FC8B9F71-98F2-4464-86A9-9E686863839B</uuid>
											</itemhistory>
										</clipitem>
										<clipitem id="Raw Interview Matthew Duepner194">
											<name>Raw Interview Matthew Duepner</name>
											<duration>81486</duration>
											<rate>
												<ntsc>TRUE</ntsc>
												<timebase>24</timebase>
											</rate>
											<in>69853</in>
											<out>69933</out>
											<start>8401</start>
											<end>8481</end>
											<masterclipid>Raw Interview Matthew Duepner308</masterclipid>
											<logginginfo>
												<scene/>
												<shottake/>
												<lognote/>
												<good>FALSE</good>
											</logginginfo>
											<labels>
												<label2/>
											</labels>
											<comments>
												<mastercomment1/>
												<mastercomment2/>
												<mastercomment3/>
												<mastercomment4/>
											</comments>
											<file id="YIN_2013-05-28_LG-5 "/>
											<filter>
												<effect>
													<name>Audio Levels</name>
													<effectid>audiolevels</effectid>
													<effectcategory>audiolevels</effectcategory>
													<effecttype>audiolevels</effecttype>
													<mediatype>audio</mediatype>
													<parameter>
														<name>Level</name>
														<parameterid>level</parameterid>
														<valuemin>0</valuemin>
														<valuemax>3.98109</valuemax>
														<value>1</value>
													</parameter>
												</effect>
											</filter>
											<filter>
												<effect>
													<name>Audio Pan</name>
													<effectid>audiopan</effectid>
													<effectcategory>audiopan</effectcategory>
													<effecttype>audiopan</effecttype>
													<mediatype>audio</mediatype>
													<parameter>
														<name>Pan</name>
														<parameterid>pan</parameterid>
														<valuemin>-1</valuemin>
														<valuemax>1</valuemax>
														<value>0</value>
													</parameter>
												</effect>
											</filter>
											<sourcetrack>
												<mediatype>audio</mediatype>
												<trackindex>1</trackindex>
											</sourcetrack>
											<link>
												<linkclipref>Raw Interview Matthew Duepner192</linkclipref>
												<mediatype>video</mediatype>
												<trackindex>1</trackindex>
												<clipindex>49</clipindex>
											</link>
											<link>
												<linkclipref>Raw Interview Matthew Duepner194</linkclipref>
												<mediatype>audio</mediatype>
												<trackindex>1</trackindex>
												<clipindex>49</clipindex>
												<groupindex>1</groupindex>
											</link>
											<link>
												<linkclipref>Raw Interview Matthew Duepner195</linkclipref>
												<mediatype>audio</mediatype>
												<trackindex>2</trackindex>
												<clipindex>49</clipindex>
												<groupindex>1</groupindex>
											</link>
											<itemhistory>
												<uuid>1A935072-7A00-4115-854F-FA8115E15092</uuid>
											</itemhistory>
										</clipitem>
										<clipitem id="Raw Interview Matthew Duepner198">
											<name>Raw Interview Matthew Duepner</name>
											<duration>81486</duration>
											<rate>
												<ntsc>TRUE</ntsc>
												<timebase>24</timebase>
											</rate>
											<in>71462</in>
											<out>71987</out>
											<start>8481</start>
											<end>9006</end>
											<masterclipid>Raw Interview Matthew Duepner309</masterclipid>
											<logginginfo>
												<scene/>
												<shottake/>
												<lognote/>
												<good>FALSE</good>
											</logginginfo>
											<labels>
												<label2/>
											</labels>
											<comments>
												<mastercomment1/>
												<mastercomment2/>
												<mastercomment3/>
												<mastercomment4/>
											</comments>
											<file id="YIN_2013-05-28_LG-5 "/>
											<filter>
												<effect>
													<name>Audio Levels</name>
													<effectid>audiolevels</effectid>
													<effectcategory>audiolevels</effectcategory>
													<effecttype>audiolevels</effecttype>
													<mediatype>audio</mediatype>
													<parameter>
														<name>Level</name>
														<parameterid>level</parameterid>
														<valuemin>0</valuemin>
														<valuemax>3.98109</valuemax>
														<value>1</value>
													</parameter>
												</effect>
											</filter>
											<filter>
												<effect>
													<name>Audio Pan</name>
													<effectid>audiopan</effectid>
													<effectcategory>audiopan</effectcategory>
													<effecttype>audiopan</effecttype>
													<mediatype>audio</mediatype>
													<parameter>
														<name>Pan</name>
														<parameterid>pan</parameterid>
														<valuemin>-1</valuemin>
														<valuemax>1</valuemax>
														<value>0</value>
													</parameter>
												</effect>
											</filter>
											<sourcetrack>
												<mediatype>audio</mediatype>
												<trackindex>1</trackindex>
											</sourcetrack>
											<link>
												<linkclipref>Raw Interview Matthew Duepner196</linkclipref>
												<mediatype>video</mediatype>
												<trackindex>1</trackindex>
												<clipindex>50</clipindex>
											</link>
											<link>
												<linkclipref>Raw Interview Matthew Duepner198</linkclipref>
												<mediatype>audio</mediatype>
												<trackindex>1</trackindex>
												<clipindex>50</clipindex>
												<groupindex>1</groupindex>
											</link>
											<link>
												<linkclipref>Raw Interview Matthew Duepner199</linkclipref>
												<mediatype>audio</mediatype>
												<trackindex>2</trackindex>
												<clipindex>50</clipindex>
												<groupindex>1</groupindex>
											</link>
											<itemhistory>
												<uuid>14538240-71C7-439C-8C5B-E3287077BC6E</uuid>
											</itemhistory>
										</clipitem>
										<clipitem id="Raw Interview Matthew Duepner202">
											<name>Raw Interview Matthew Duepner</name>
											<duration>81486</duration>
											<rate>
												<ntsc>TRUE</ntsc>
												<timebase>24</timebase>
											</rate>
											<in>72861</in>
											<out>73353</out>
											<start>9006</start>
											<end>9498</end>
											<masterclipid>Raw Interview Matthew Duepner310</masterclipid>
											<logginginfo>
												<scene/>
												<shottake/>
												<lognote/>
												<good>FALSE</good>
											</logginginfo>
											<labels>
												<label2/>
											</labels>
											<comments>
												<mastercomment1/>
												<mastercomment2/>
												<mastercomment3/>
												<mastercomment4/>
											</comments>
											<file id="YIN_2013-05-28_LG-5 "/>
											<filter>
												<effect>
													<name>Audio Levels</name>
													<effectid>audiolevels</effectid>
													<effectcategory>audiolevels</effectcategory>
													<effecttype>audiolevels</effecttype>
													<mediatype>audio</mediatype>
													<parameter>
														<name>Level</name>
														<parameterid>level</parameterid>
														<valuemin>0</valuemin>
														<valuemax>3.98109</valuemax>
														<value>1</value>
													</parameter>
												</effect>
											</filter>
											<filter>
												<effect>
													<name>Audio Pan</name>
													<effectid>audiopan</effectid>
													<effectcategory>audiopan</effectcategory>
													<effecttype>audiopan</effecttype>
													<mediatype>audio</mediatype>
													<parameter>
														<name>Pan</name>
														<parameterid>pan</parameterid>
														<valuemin>-1</valuemin>
														<valuemax>1</valuemax>
														<value>0</value>
													</parameter>
												</effect>
											</filter>
											<sourcetrack>
												<mediatype>audio</mediatype>
												<trackindex>1</trackindex>
											</sourcetrack>
											<link>
												<linkclipref>Raw Interview Matthew Duepner200</linkclipref>
												<mediatype>video</mediatype>
												<trackindex>1</trackindex>
												<clipindex>51</clipindex>
											</link>
											<link>
												<linkclipref>Raw Interview Matthew Duepner202</linkclipref>
												<mediatype>audio</mediatype>
												<trackindex>1</trackindex>
												<clipindex>51</clipindex>
												<groupindex>1</groupindex>
											</link>
											<link>
												<linkclipref>Raw Interview Matthew Duepner203</linkclipref>
												<mediatype>audio</mediatype>
												<trackindex>2</trackindex>
												<clipindex>51</clipindex>
												<groupindex>1</groupindex>
											</link>
											<itemhistory>
												<uuid>C2FAC235-5AA4-4E29-B9BB-20DD92DFA236</uuid>
											</itemhistory>
										</clipitem>
										<clipitem id="Raw Interview Matthew Duepner206">
											<name>Raw Interview Matthew Duepner</name>
											<duration>81486</duration>
											<rate>
												<ntsc>TRUE</ntsc>
												<timebase>24</timebase>
											</rate>
											<in>79338</in>
											<out>79574</out>
											<start>9752</start>
											<end>9988</end>
											<masterclipid>Raw Interview Matthew Duepner311</masterclipid>
											<logginginfo>
												<scene/>
												<shottake/>
												<lognote/>
												<good>FALSE</good>
											</logginginfo>
											<labels>
												<label2/>
											</labels>
											<comments>
												<mastercomment1/>
												<mastercomment2/>
												<mastercomment3/>
												<mastercomment4/>
											</comments>
											<file id="YIN_2013-05-28_LG-5 "/>
											<filter>
												<effect>
													<name>Audio Levels</name>
													<effectid>audiolevels</effectid>
													<effectcategory>audiolevels</effectcategory>
													<effecttype>audiolevels</effecttype>
													<mediatype>audio</mediatype>
													<parameter>
														<name>Level</name>
														<parameterid>level</parameterid>
														<valuemin>0</valuemin>
														<valuemax>3.98109</valuemax>
														<value>1</value>
													</parameter>
												</effect>
											</filter>
											<filter>
												<effect>
													<name>Audio Pan</name>
													<effectid>audiopan</effectid>
													<effectcategory>audiopan</effectcategory>
													<effecttype>audiopan</effecttype>
													<mediatype>audio</mediatype>
													<parameter>
														<name>Pan</name>
														<parameterid>pan</parameterid>
														<valuemin>-1</valuemin>
														<valuemax>1</valuemax>
														<value>0</value>
													</parameter>
												</effect>
											</filter>
											<sourcetrack>
												<mediatype>audio</mediatype>
												<trackindex>1</trackindex>
											</sourcetrack>
											<link>
												<linkclipref>Raw Interview Matthew Duepner204</linkclipref>
												<mediatype>video</mediatype>
												<trackindex>1</trackindex>
												<clipindex>52</clipindex>
											</link>
											<link>
												<linkclipref>Raw Interview Matthew Duepner206</linkclipref>
												<mediatype>audio</mediatype>
												<trackindex>1</trackindex>
												<clipindex>52</clipindex>
												<groupindex>1</groupindex>
											</link>
											<link>
												<linkclipref>Raw Interview Matthew Duepner207</linkclipref>
												<mediatype>audio</mediatype>
												<trackindex>2</trackindex>
												<clipindex>52</clipindex>
												<groupindex>1</groupindex>
											</link>
											<itemhistory>
												<uuid>5C59F506-FCBD-4CFD-B7CA-8FA6CF625050</uuid>
											</itemhistory>
										</clipitem>
										<clipitem id="Raw Interview Matthew Duepner210">
											<name>Raw Interview Matthew Duepner</name>
											<duration>81486</duration>
											<rate>
												<ntsc>TRUE</ntsc>
												<timebase>24</timebase>
											</rate>
											<in>80136</in>
											<out>80276</out>
											<start>10343</start>
											<end>10483</end>
											<masterclipid>Raw Interview Matthew Duepner312</masterclipid>
											<logginginfo>
												<scene/>
												<shottake/>
												<lognote/>
												<good>FALSE</good>
											</logginginfo>
											<labels>
												<label2/>
											</labels>
											<comments>
												<mastercomment1/>
												<mastercomment2/>
												<mastercomment3/>
												<mastercomment4/>
											</comments>
											<file id="YIN_2013-05-28_LG-5 "/>
											<filter>
												<effect>
													<name>Audio Levels</name>
													<effectid>audiolevels</effectid>
													<effectcategory>audiolevels</effectcategory>
													<effecttype>audiolevels</effecttype>
													<mediatype>audio</mediatype>
													<parameter>
														<name>Level</name>
														<parameterid>level</parameterid>
														<valuemin>0</valuemin>
														<valuemax>3.98109</valuemax>
														<value>1</value>
													</parameter>
												</effect>
											</filter>
											<filter>
												<effect>
													<name>Audio Pan</name>
													<effectid>audiopan</effectid>
													<effectcategory>audiopan</effectcategory>
													<effecttype>audiopan</effecttype>
													<mediatype>audio</mediatype>
													<parameter>
														<name>Pan</name>
														<parameterid>pan</parameterid>
														<valuemin>-1</valuemin>
														<valuemax>1</valuemax>
														<value>0</value>
													</parameter>
												</effect>
											</filter>
											<sourcetrack>
												<mediatype>audio</mediatype>
												<trackindex>1</trackindex>
											</sourcetrack>
											<link>
												<linkclipref>Raw Interview Matthew Duepner208</linkclipref>
												<mediatype>video</mediatype>
												<trackindex>1</trackindex>
												<clipindex>53</clipindex>
											</link>
											<link>
												<linkclipref>Raw Interview Matthew Duepner210</linkclipref>
												<mediatype>audio</mediatype>
												<trackindex>1</trackindex>
												<clipindex>53</clipindex>
												<groupindex>1</groupindex>
											</link>
											<link>
												<linkclipref>Raw Interview Matthew Duepner211</linkclipref>
												<mediatype>audio</mediatype>
												<trackindex>2</trackindex>
												<clipindex>53</clipindex>
												<groupindex>1</groupindex>
											</link>
											<itemhistory>
												<uuid>F5158010-BF2F-410D-8DE6-07AF0BDDB333</uuid>
											</itemhistory>
										</clipitem>
										<clipitem id="Raw Interview Matthew Duepner214">
											<name>Raw Interview Matthew Duepner</name>
											<duration>81486</duration>
											<rate>
												<ntsc>TRUE</ntsc>
												<timebase>24</timebase>
											</rate>
											<in>79941</in>
											<out>80136</out>
											<start>10550</start>
											<end>10745</end>
											<masterclipid>Raw Interview Matthew Duepner313</masterclipid>
											<logginginfo>
												<scene/>
												<shottake/>
												<lognote/>
												<good>FALSE</good>
											</logginginfo>
											<labels>
												<label2/>
											</labels>
											<comments>
												<mastercomment1/>
												<mastercomment2/>
												<mastercomment3/>
												<mastercomment4/>
											</comments>
											<file id="YIN_2013-05-28_LG-5 "/>
											<filter>
												<effect>
													<name>Audio Levels</name>
													<effectid>audiolevels</effectid>
													<effectcategory>audiolevels</effectcategory>
													<effecttype>audiolevels</effecttype>
													<mediatype>audio</mediatype>
													<parameter>
														<name>Level</name>
														<parameterid>level</parameterid>
														<valuemin>0</valuemin>
														<valuemax>3.98109</valuemax>
														<value>1</value>
													</parameter>
												</effect>
											</filter>
											<filter>
												<effect>
													<name>Audio Pan</name>
													<effectid>audiopan</effectid>
													<effectcategory>audiopan</effectcategory>
													<effecttype>audiopan</effecttype>
													<mediatype>audio</mediatype>
													<parameter>
														<name>Pan</name>
														<parameterid>pan</parameterid>
														<valuemin>-1</valuemin>
														<valuemax>1</valuemax>
														<value>0</value>
													</parameter>
												</effect>
											</filter>
											<sourcetrack>
												<mediatype>audio</mediatype>
												<trackindex>1</trackindex>
											</sourcetrack>
											<link>
												<linkclipref>Raw Interview Matthew Duepner212</linkclipref>
												<mediatype>video</mediatype>
												<trackindex>1</trackindex>
												<clipindex>54</clipindex>
											</link>
											<link>
												<linkclipref>Raw Interview Matthew Duepner214</linkclipref>
												<mediatype>audio</mediatype>
												<trackindex>1</trackindex>
												<clipindex>54</clipindex>
												<groupindex>1</groupindex>
											</link>
											<link>
												<linkclipref>Raw Interview Matthew Duepner215</linkclipref>
												<mediatype>audio</mediatype>
												<trackindex>2</trackindex>
												<clipindex>54</clipindex>
												<groupindex>1</groupindex>
											</link>
											<itemhistory>
												<uuid>213E6E98-4C18-4223-ACE6-9D12477D52AA</uuid>
											</itemhistory>
										</clipitem>
										<clipitem id="Raw Interview Matthew Duepner218">
											<name>Raw Interview Matthew Duepner</name>
											<duration>81486</duration>
											<rate>
												<ntsc>TRUE</ntsc>
												<timebase>24</timebase>
											</rate>
											<in>43670</in>
											<out>43863</out>
											<start>11035</start>
											<end>11228</end>
											<masterclipid>Raw Interview Matthew Duepner314</masterclipid>
											<logginginfo>
												<scene/>
												<shottake/>
												<lognote/>
												<good>FALSE</good>
											</logginginfo>
											<labels>
												<label2/>
											</labels>
											<comments>
												<mastercomment1/>
												<mastercomment2/>
												<mastercomment3/>
												<mastercomment4/>
											</comments>
											<file id="YIN_2013-05-28_LG-5 "/>
											<filter>
												<effect>
													<name>Audio Levels</name>
													<effectid>audiolevels</effectid>
													<effectcategory>audiolevels</effectcategory>
													<effecttype>audiolevels</effecttype>
													<mediatype>audio</mediatype>
													<parameter>
														<name>Level</name>
														<parameterid>level</parameterid>
														<valuemin>0</valuemin>
														<valuemax>3.98109</valuemax>
														<value>1</value>
													</parameter>
												</effect>
											</filter>
											<filter>
												<effect>
													<name>Audio Pan</name>
													<effectid>audiopan</effectid>
													<effectcategory>audiopan</effectcategory>
													<effecttype>audiopan</effecttype>
													<mediatype>audio</mediatype>
													<parameter>
														<name>Pan</name>
														<parameterid>pan</parameterid>
														<valuemin>-1</valuemin>
														<valuemax>1</valuemax>
														<value>0</value>
													</parameter>
												</effect>
											</filter>
											<sourcetrack>
												<mediatype>audio</mediatype>
												<trackindex>1</trackindex>
											</sourcetrack>
											<link>
												<linkclipref>Raw Interview Matthew Duepner216</linkclipref>
												<mediatype>video</mediatype>
												<trackindex>1</trackindex>
												<clipindex>55</clipindex>
											</link>
											<link>
												<linkclipref>Raw Interview Matthew Duepner218</linkclipref>
												<mediatype>audio</mediatype>
												<trackindex>1</trackindex>
												<clipindex>55</clipindex>
												<groupindex>1</groupindex>
											</link>
											<link>
												<linkclipref>Raw Interview Matthew Duepner219</linkclipref>
												<mediatype>audio</mediatype>
												<trackindex>2</trackindex>
												<clipindex>55</clipindex>
												<groupindex>1</groupindex>
											</link>
											<itemhistory>
												<uuid>ADCA75DF-5C8C-4FC1-B6C4-EBBC09F8D382</uuid>
											</itemhistory>
										</clipitem>
										<clipitem id="Raw Interview Matthew Duepner222">
											<name>Raw Interview Matthew Duepner</name>
											<duration>81486</duration>
											<rate>
												<ntsc>TRUE</ntsc>
												<timebase>24</timebase>
											</rate>
											<in>10404</in>
											<out>10508</out>
											<start>11318</start>
											<end>11422</end>
											<masterclipid>Raw Interview Matthew Duepner315</masterclipid>
											<logginginfo>
												<scene/>
												<shottake/>
												<lognote/>
												<good>FALSE</good>
											</logginginfo>
											<labels>
												<label2/>
											</labels>
											<comments>
												<mastercomment1/>
												<mastercomment2/>
												<mastercomment3/>
												<mastercomment4/>
											</comments>
											<file id="YIN_2013-05-28_LG-5 "/>
											<filter>
												<effect>
													<name>Audio Levels</name>
													<effectid>audiolevels</effectid>
													<effectcategory>audiolevels</effectcategory>
													<effecttype>audiolevels</effecttype>
													<mediatype>audio</mediatype>
													<parameter>
														<name>Level</name>
														<parameterid>level</parameterid>
														<valuemin>0</valuemin>
														<valuemax>3.98109</valuemax>
														<value>1</value>
													</parameter>
												</effect>
											</filter>
											<filter>
												<effect>
													<name>Audio Pan</name>
													<effectid>audiopan</effectid>
													<effectcategory>audiopan</effectcategory>
													<effecttype>audiopan</effecttype>
													<mediatype>audio</mediatype>
													<parameter>
														<name>Pan</name>
														<parameterid>pan</parameterid>
														<valuemin>-1</valuemin>
														<valuemax>1</valuemax>
														<value>0</value>
													</parameter>
												</effect>
											</filter>
											<sourcetrack>
												<mediatype>audio</mediatype>
												<trackindex>1</trackindex>
											</sourcetrack>
											<link>
												<linkclipref>Raw Interview Matthew Duepner220</linkclipref>
												<mediatype>video</mediatype>
												<trackindex>1</trackindex>
												<clipindex>56</clipindex>
											</link>
											<link>
												<linkclipref>Raw Interview Matthew Duepner222</linkclipref>
												<mediatype>audio</mediatype>
												<trackindex>1</trackindex>
												<clipindex>56</clipindex>
												<groupindex>1</groupindex>
											</link>
											<link>
												<linkclipref>Raw Interview Matthew Duepner223</linkclipref>
												<mediatype>audio</mediatype>
												<trackindex>2</trackindex>
												<clipindex>56</clipindex>
												<groupindex>1</groupindex>
											</link>
											<itemhistory>
												<uuid>98080725-44BA-4D2F-8764-D46576AD91B5</uuid>
											</itemhistory>
										</clipitem>
										<clipitem id="Raw Interview Matthew Duepner226">
											<name>Raw Interview Matthew Duepner</name>
											<duration>81486</duration>
											<rate>
												<ntsc>TRUE</ntsc>
												<timebase>24</timebase>
											</rate>
											<in>3945</in>
											<out>3989</out>
											<start>11448</start>
											<end>11492</end>
											<masterclipid>Raw Interview Matthew Duepner316</masterclipid>
											<logginginfo>
												<scene/>
												<shottake/>
												<lognote/>
												<good>FALSE</good>
											</logginginfo>
											<labels>
												<label2/>
											</labels>
											<comments>
												<mastercomment1/>
												<mastercomment2/>
												<mastercomment3/>
												<mastercomment4/>
											</comments>
											<file id="YIN_2013-05-28_LG-5 "/>
											<filter>
												<effect>
													<name>Audio Levels</name>
													<effectid>audiolevels</effectid>
													<effectcategory>audiolevels</effectcategory>
													<effecttype>audiolevels</effecttype>
													<mediatype>audio</mediatype>
													<parameter>
														<name>Level</name>
														<parameterid>level</parameterid>
														<valuemin>0</valuemin>
														<valuemax>3.98109</valuemax>
														<value>1</value>
													</parameter>
												</effect>
											</filter>
											<filter>
												<effect>
													<name>Audio Pan</name>
													<effectid>audiopan</effectid>
													<effectcategory>audiopan</effectcategory>
													<effecttype>audiopan</effecttype>
													<mediatype>audio</mediatype>
													<parameter>
														<name>Pan</name>
														<parameterid>pan</parameterid>
														<valuemin>-1</valuemin>
														<valuemax>1</valuemax>
														<value>0</value>
													</parameter>
												</effect>
											</filter>
											<sourcetrack>
												<mediatype>audio</mediatype>
												<trackindex>1</trackindex>
											</sourcetrack>
											<link>
												<linkclipref>Raw Interview Matthew Duepner224</linkclipref>
												<mediatype>video</mediatype>
												<trackindex>1</trackindex>
												<clipindex>57</clipindex>
											</link>
											<link>
												<linkclipref>Raw Interview Matthew Duepner226</linkclipref>
												<mediatype>audio</mediatype>
												<trackindex>1</trackindex>
												<clipindex>57</clipindex>
												<groupindex>1</groupindex>
											</link>
											<link>
												<linkclipref>Raw Interview Matthew Duepner227</linkclipref>
												<mediatype>audio</mediatype>
												<trackindex>2</trackindex>
												<clipindex>57</clipindex>
												<groupindex>1</groupindex>
											</link>
											<itemhistory>
												<uuid>AAE1B974-E994-4F89-B4D9-9B20EE89AE81</uuid>
											</itemhistory>
										</clipitem>
										<clipitem id="Raw Interview Matthew Duepner230">
											<name>Raw Interview Matthew Duepner</name>
											<duration>81486</duration>
											<rate>
												<ntsc>TRUE</ntsc>
												<timebase>24</timebase>
											</rate>
											<in>1396</in>
											<out>1514</out>
											<start>11567</start>
											<end>11685</end>
											<masterclipid>Raw Interview Matthew Duepner317</masterclipid>
											<logginginfo>
												<scene/>
												<shottake/>
												<lognote/>
												<good>FALSE</good>
											</logginginfo>
											<labels>
												<label2/>
											</labels>
											<comments>
												<mastercomment1/>
												<mastercomment2/>
												<mastercomment3/>
												<mastercomment4/>
											</comments>
											<file id="YIN_2013-05-28_LG-5 "/>
											<filter>
												<effect>
													<name>Audio Levels</name>
													<effectid>audiolevels</effectid>
													<effectcategory>audiolevels</effectcategory>
													<effecttype>audiolevels</effecttype>
													<mediatype>audio</mediatype>
													<parameter>
														<name>Level</name>
														<parameterid>level</parameterid>
														<valuemin>0</valuemin>
														<valuemax>3.98109</valuemax>
														<value>1</value>
													</parameter>
												</effect>
											</filter>
											<filter>
												<effect>
													<name>Audio Pan</name>
													<effectid>audiopan</effectid>
													<effectcategory>audiopan</effectcategory>
													<effecttype>audiopan</effecttype>
													<mediatype>audio</mediatype>
													<parameter>
														<name>Pan</name>
														<parameterid>pan</parameterid>
														<valuemin>-1</valuemin>
														<valuemax>1</valuemax>
														<value>0</value>
													</parameter>
												</effect>
											</filter>
											<sourcetrack>
												<mediatype>audio</mediatype>
												<trackindex>1</trackindex>
											</sourcetrack>
											<link>
												<linkclipref>Raw Interview Matthew Duepner228</linkclipref>
												<mediatype>video</mediatype>
												<trackindex>1</trackindex>
												<clipindex>58</clipindex>
											</link>
											<link>
												<linkclipref>Raw Interview Matthew Duepner230</linkclipref>
												<mediatype>audio</mediatype>
												<trackindex>1</trackindex>
												<clipindex>58</clipindex>
												<groupindex>1</groupindex>
											</link>
											<link>
												<linkclipref>Raw Interview Matthew Duepner231</linkclipref>
												<mediatype>audio</mediatype>
												<trackindex>2</trackindex>
												<clipindex>58</clipindex>
												<groupindex>1</groupindex>
											</link>
											<itemhistory>
												<uuid>CFC7B3FE-3694-498A-A971-4DA20969AF51</uuid>
											</itemhistory>
										</clipitem>
										<clipitem id="Raw Interview Matthew Duepner234">
											<name>Raw Interview Matthew Duepner</name>
											<duration>81486</duration>
											<rate>
												<ntsc>TRUE</ntsc>
												<timebase>24</timebase>
											</rate>
											<in>1656</in>
											<out>1742</out>
											<start>11685</start>
											<end>11771</end>
											<masterclipid>Raw Interview Matthew Duepner318</masterclipid>
											<logginginfo>
												<scene/>
												<shottake/>
												<lognote/>
												<good>FALSE</good>
											</logginginfo>
											<labels>
												<label2/>
											</labels>
											<comments>
												<mastercomment1/>
												<mastercomment2/>
												<mastercomment3/>
												<mastercomment4/>
											</comments>
											<file id="YIN_2013-05-28_LG-5 "/>
											<filter>
												<effect>
													<name>Audio Levels</name>
													<effectid>audiolevels</effectid>
													<effectcategory>audiolevels</effectcategory>
													<effecttype>audiolevels</effecttype>
													<mediatype>audio</mediatype>
													<parameter>
														<name>Level</name>
														<parameterid>level</parameterid>
														<valuemin>0</valuemin>
														<valuemax>3.98109</valuemax>
														<value>1</value>
													</parameter>
												</effect>
											</filter>
											<filter>
												<effect>
													<name>Audio Pan</name>
													<effectid>audiopan</effectid>
													<effectcategory>audiopan</effectcategory>
													<effecttype>audiopan</effecttype>
													<mediatype>audio</mediatype>
													<parameter>
														<name>Pan</name>
														<parameterid>pan</parameterid>
														<valuemin>-1</valuemin>
														<valuemax>1</valuemax>
														<value>0</value>
													</parameter>
												</effect>
											</filter>
											<sourcetrack>
												<mediatype>audio</mediatype>
												<trackindex>1</trackindex>
											</sourcetrack>
											<link>
												<linkclipref>Raw Interview Matthew Duepner232</linkclipref>
												<mediatype>video</mediatype>
												<trackindex>1</trackindex>
												<clipindex>59</clipindex>
											</link>
											<link>
												<linkclipref>Raw Interview Matthew Duepner234</linkclipref>
												<mediatype>audio</mediatype>
												<trackindex>1</trackindex>
												<clipindex>59</clipindex>
												<groupindex>1</groupindex>
											</link>
											<link>
												<linkclipref>Raw Interview Matthew Duepner235</linkclipref>
												<mediatype>audio</mediatype>
												<trackindex>2</trackindex>
												<clipindex>59</clipindex>
												<groupindex>1</groupindex>
											</link>
											<itemhistory>
												<uuid>41E1A10F-21A2-4D82-A25A-F3D7C9C13476</uuid>
											</itemhistory>
										</clipitem>
										<clipitem id="Raw Interview Matthew Duepner238">
											<name>Raw Interview Matthew Duepner</name>
											<duration>81486</duration>
											<rate>
												<ntsc>TRUE</ntsc>
												<timebase>24</timebase>
											</rate>
											<in>2087</in>
											<out>2229</out>
											<start>11771</start>
											<end>11913</end>
											<masterclipid>Raw Interview Matthew Duepner319</masterclipid>
											<logginginfo>
												<scene/>
												<shottake/>
												<lognote/>
												<good>FALSE</good>
											</logginginfo>
											<labels>
												<label2/>
											</labels>
											<comments>
												<mastercomment1/>
												<mastercomment2/>
												<mastercomment3/>
												<mastercomment4/>
											</comments>
											<file id="YIN_2013-05-28_LG-5 "/>
											<filter>
												<effect>
													<name>Audio Levels</name>
													<effectid>audiolevels</effectid>
													<effectcategory>audiolevels</effectcategory>
													<effecttype>audiolevels</effecttype>
													<mediatype>audio</mediatype>
													<parameter>
														<name>Level</name>
														<parameterid>level</parameterid>
														<valuemin>0</valuemin>
														<valuemax>3.98109</valuemax>
														<value>1</value>
													</parameter>
												</effect>
											</filter>
											<filter>
												<effect>
													<name>Audio Pan</name>
													<effectid>audiopan</effectid>
													<effectcategory>audiopan</effectcategory>
													<effecttype>audiopan</effecttype>
													<mediatype>audio</mediatype>
													<parameter>
														<name>Pan</name>
														<parameterid>pan</parameterid>
														<valuemin>-1</valuemin>
														<valuemax>1</valuemax>
														<value>0</value>
													</parameter>
												</effect>
											</filter>
											<sourcetrack>
												<mediatype>audio</mediatype>
												<trackindex>1</trackindex>
											</sourcetrack>
											<link>
												<linkclipref>Raw Interview Matthew Duepner236</linkclipref>
												<mediatype>video</mediatype>
												<trackindex>1</trackindex>
												<clipindex>60</clipindex>
											</link>
											<link>
												<linkclipref>Raw Interview Matthew Duepner238</linkclipref>
												<mediatype>audio</mediatype>
												<trackindex>1</trackindex>
												<clipindex>60</clipindex>
												<groupindex>1</groupindex>
											</link>
											<link>
												<linkclipref>Raw Interview Matthew Duepner239</linkclipref>
												<mediatype>audio</mediatype>
												<trackindex>2</trackindex>
												<clipindex>60</clipindex>
												<groupindex>1</groupindex>
											</link>
											<itemhistory>
												<uuid>030E115A-2356-4DDF-B63F-7ED4215C26E8</uuid>
											</itemhistory>
										</clipitem>
										<clipitem id="Raw Interview Matthew Duepner242">
											<name>Raw Interview Matthew Duepner</name>
											<duration>81486</duration>
											<rate>
												<ntsc>TRUE</ntsc>
												<timebase>24</timebase>
											</rate>
											<in>81210</in>
											<out>81278</out>
											<start>12178</start>
											<end>12246</end>
											<masterclipid>Raw Interview Matthew Duepner320</masterclipid>
											<logginginfo>
												<scene/>
												<shottake/>
												<lognote/>
												<good>FALSE</good>
											</logginginfo>
											<labels>
												<label2/>
											</labels>
											<comments>
												<mastercomment1/>
												<mastercomment2/>
												<mastercomment3/>
												<mastercomment4/>
											</comments>
											<file id="YIN_2013-05-28_LG-5 "/>
											<filter>
												<effect>
													<name>Audio Levels</name>
													<effectid>audiolevels</effectid>
													<effectcategory>audiolevels</effectcategory>
													<effecttype>audiolevels</effecttype>
													<mediatype>audio</mediatype>
													<parameter>
														<name>Level</name>
														<parameterid>level</parameterid>
														<valuemin>0</valuemin>
														<valuemax>3.98109</valuemax>
														<value>1</value>
													</parameter>
												</effect>
											</filter>
											<filter>
												<effect>
													<name>Audio Pan</name>
													<effectid>audiopan</effectid>
													<effectcategory>audiopan</effectcategory>
													<effecttype>audiopan</effecttype>
													<mediatype>audio</mediatype>
													<parameter>
														<name>Pan</name>
														<parameterid>pan</parameterid>
														<valuemin>-1</valuemin>
														<valuemax>1</valuemax>
														<value>0</value>
													</parameter>
												</effect>
											</filter>
											<sourcetrack>
												<mediatype>audio</mediatype>
												<trackindex>1</trackindex>
											</sourcetrack>
											<link>
												<linkclipref>Raw Interview Matthew Duepner240</linkclipref>
												<mediatype>video</mediatype>
												<trackindex>1</trackindex>
												<clipindex>61</clipindex>
											</link>
											<link>
												<linkclipref>Raw Interview Matthew Duepner242</linkclipref>
												<mediatype>audio</mediatype>
												<trackindex>1</trackindex>
												<clipindex>61</clipindex>
												<groupindex>1</groupindex>
											</link>
											<link>
												<linkclipref>Raw Interview Matthew Duepner243</linkclipref>
												<mediatype>audio</mediatype>
												<trackindex>2</trackindex>
												<clipindex>61</clipindex>
												<groupindex>1</groupindex>
											</link>
											<itemhistory>
												<uuid>D35038E5-BCA2-42D8-9FB9-EEC3C2405B62</uuid>
											</itemhistory>
										</clipitem>
										<clipitem id="Raw Interview Matthew Duepner246">
											<name>Raw Interview Matthew Duepner</name>
											<duration>81486</duration>
											<rate>
												<ntsc>TRUE</ntsc>
												<timebase>24</timebase>
											</rate>
											<in>79574</in>
											<out>79734</out>
											<start>12246</start>
											<end>12406</end>
											<masterclipid>Raw Interview Matthew Duepner321</masterclipid>
											<logginginfo>
												<scene/>
												<shottake/>
												<lognote/>
												<good>FALSE</good>
											</logginginfo>
											<labels>
												<label2/>
											</labels>
											<comments>
												<mastercomment1/>
												<mastercomment2/>
												<mastercomment3/>
												<mastercomment4/>
											</comments>
											<file id="YIN_2013-05-28_LG-5 "/>
											<filter>
												<effect>
													<name>Audio Levels</name>
													<effectid>audiolevels</effectid>
													<effectcategory>audiolevels</effectcategory>
													<effecttype>audiolevels</effecttype>
													<mediatype>audio</mediatype>
													<parameter>
														<name>Level</name>
														<parameterid>level</parameterid>
														<valuemin>0</valuemin>
														<valuemax>3.98109</valuemax>
														<value>1</value>
													</parameter>
												</effect>
											</filter>
											<filter>
												<effect>
													<name>Audio Pan</name>
													<effectid>audiopan</effectid>
													<effectcategory>audiopan</effectcategory>
													<effecttype>audiopan</effecttype>
													<mediatype>audio</mediatype>
													<parameter>
														<name>Pan</name>
														<parameterid>pan</parameterid>
														<valuemin>-1</valuemin>
														<valuemax>1</valuemax>
														<value>0</value>
													</parameter>
												</effect>
											</filter>
											<sourcetrack>
												<mediatype>audio</mediatype>
												<trackindex>1</trackindex>
											</sourcetrack>
											<link>
												<linkclipref>Raw Interview Matthew Duepner244</linkclipref>
												<mediatype>video</mediatype>
												<trackindex>1</trackindex>
												<clipindex>62</clipindex>
											</link>
											<link>
												<linkclipref>Raw Interview Matthew Duepner246</linkclipref>
												<mediatype>audio</mediatype>
												<trackindex>1</trackindex>
												<clipindex>62</clipindex>
												<groupindex>1</groupindex>
											</link>
											<link>
												<linkclipref>Raw Interview Matthew Duepner247</linkclipref>
												<mediatype>audio</mediatype>
												<trackindex>2</trackindex>
												<clipindex>62</clipindex>
												<groupindex>1</groupindex>
											</link>
											<itemhistory>
												<uuid>46C1B17E-6F57-4105-83E6-5A7CBD1F17D9</uuid>
											</itemhistory>
										</clipitem>
										<clipitem id="Raw Interview Matthew Duepner250">
											<name>Raw Interview Matthew Duepner</name>
											<duration>81486</duration>
											<rate>
												<ntsc>TRUE</ntsc>
												<timebase>24</timebase>
											</rate>
											<in>7002</in>
											<out>7205</out>
											<start>12988</start>
											<end>13191</end>
											<masterclipid>Raw Interview Matthew Duepner322</masterclipid>
											<logginginfo>
												<scene/>
												<shottake/>
												<lognote/>
												<good>FALSE</good>
											</logginginfo>
											<labels>
												<label2/>
											</labels>
											<comments>
												<mastercomment1/>
												<mastercomment2/>
												<mastercomment3/>
												<mastercomment4/>
											</comments>
											<file id="YIN_2013-05-28_LG-5 "/>
											<filter>
												<effect>
													<name>Audio Levels</name>
													<effectid>audiolevels</effectid>
													<effectcategory>audiolevels</effectcategory>
													<effecttype>audiolevels</effecttype>
													<mediatype>audio</mediatype>
													<parameter>
														<name>Level</name>
														<parameterid>level</parameterid>
														<valuemin>0</valuemin>
														<valuemax>3.98109</valuemax>
														<value>1</value>
													</parameter>
												</effect>
											</filter>
											<filter>
												<effect>
													<name>Audio Pan</name>
													<effectid>audiopan</effectid>
													<effectcategory>audiopan</effectcategory>
													<effecttype>audiopan</effecttype>
													<mediatype>audio</mediatype>
													<parameter>
														<name>Pan</name>
														<parameterid>pan</parameterid>
														<valuemin>-1</valuemin>
														<valuemax>1</valuemax>
														<value>0</value>
													</parameter>
												</effect>
											</filter>
											<sourcetrack>
												<mediatype>audio</mediatype>
												<trackindex>1</trackindex>
											</sourcetrack>
											<link>
												<linkclipref>Raw Interview Matthew Duepner248</linkclipref>
												<mediatype>video</mediatype>
												<trackindex>1</trackindex>
												<clipindex>63</clipindex>
											</link>
											<link>
												<linkclipref>Raw Interview Matthew Duepner250</linkclipref>
												<mediatype>audio</mediatype>
												<trackindex>1</trackindex>
												<clipindex>63</clipindex>
												<groupindex>1</groupindex>
											</link>
											<link>
												<linkclipref>Raw Interview Matthew Duepner251</linkclipref>
												<mediatype>audio</mediatype>
												<trackindex>2</trackindex>
												<clipindex>63</clipindex>
												<groupindex>1</groupindex>
											</link>
											<itemhistory>
												<uuid>60ADF8B3-0672-44B3-8C68-13E6E167FE09</uuid>
											</itemhistory>
										</clipitem>
										<clipitem id="Raw Interview Matthew Duepner254">
											<name>Raw Interview Matthew Duepner</name>
											<duration>81486</duration>
											<rate>
												<ntsc>TRUE</ntsc>
												<timebase>24</timebase>
											</rate>
											<in>11865</in>
											<out>11984</out>
											<start>14093</start>
											<end>14212</end>
											<masterclipid>Raw Interview Matthew Duepner323</masterclipid>
											<logginginfo>
												<scene/>
												<shottake/>
												<lognote/>
												<good>FALSE</good>
											</logginginfo>
											<labels>
												<label2/>
											</labels>
											<comments>
												<mastercomment1/>
												<mastercomment2/>
												<mastercomment3/>
												<mastercomment4/>
											</comments>
											<file id="YIN_2013-05-28_LG-5 "/>
											<filter>
												<effect>
													<name>Audio Levels</name>
													<effectid>audiolevels</effectid>
													<effectcategory>audiolevels</effectcategory>
													<effecttype>audiolevels</effecttype>
													<mediatype>audio</mediatype>
													<parameter>
														<name>Level</name>
														<parameterid>level</parameterid>
														<valuemin>0</valuemin>
														<valuemax>3.98109</valuemax>
														<value>1</value>
													</parameter>
												</effect>
											</filter>
											<filter>
												<effect>
													<name>Audio Pan</name>
													<effectid>audiopan</effectid>
													<effectcategory>audiopan</effectcategory>
													<effecttype>audiopan</effecttype>
													<mediatype>audio</mediatype>
													<parameter>
														<name>Pan</name>
														<parameterid>pan</parameterid>
														<valuemin>-1</valuemin>
														<valuemax>1</valuemax>
														<value>0</value>
													</parameter>
												</effect>
											</filter>
											<sourcetrack>
												<mediatype>audio</mediatype>
												<trackindex>1</trackindex>
											</sourcetrack>
											<link>
												<linkclipref>Raw Interview Matthew Duepner252</linkclipref>
												<mediatype>video</mediatype>
												<trackindex>1</trackindex>
												<clipindex>64</clipindex>
											</link>
											<link>
												<linkclipref>Raw Interview Matthew Duepner254</linkclipref>
												<mediatype>audio</mediatype>
												<trackindex>1</trackindex>
												<clipindex>64</clipindex>
												<groupindex>1</groupindex>
											</link>
											<link>
												<linkclipref>Raw Interview Matthew Duepner255</linkclipref>
												<mediatype>audio</mediatype>
												<trackindex>2</trackindex>
												<clipindex>64</clipindex>
												<groupindex>1</groupindex>
											</link>
											<itemhistory>
												<uuid>42C20E7C-817A-444E-BC04-F21D59685C76</uuid>
											</itemhistory>
										</clipitem>
										<clipitem id="Raw Interview Matthew Duepner258">
											<name>Raw Interview Matthew Duepner</name>
											<duration>81486</duration>
											<rate>
												<ntsc>TRUE</ntsc>
												<timebase>24</timebase>
											</rate>
											<in>12116</in>
											<out>12289</out>
											<start>14212</start>
											<end>14385</end>
											<masterclipid>Raw Interview Matthew Duepner324</masterclipid>
											<logginginfo>
												<scene/>
												<shottake/>
												<lognote/>
												<good>FALSE</good>
											</logginginfo>
											<labels>
												<label2/>
											</labels>
											<comments>
												<mastercomment1/>
												<mastercomment2/>
												<mastercomment3/>
												<mastercomment4/>
											</comments>
											<file id="YIN_2013-05-28_LG-5 "/>
											<filter>
												<effect>
													<name>Audio Levels</name>
													<effectid>audiolevels</effectid>
													<effectcategory>audiolevels</effectcategory>
													<effecttype>audiolevels</effecttype>
													<mediatype>audio</mediatype>
													<parameter>
														<name>Level</name>
														<parameterid>level</parameterid>
														<valuemin>0</valuemin>
														<valuemax>3.98109</valuemax>
														<value>1</value>
													</parameter>
												</effect>
											</filter>
											<filter>
												<effect>
													<name>Audio Pan</name>
													<effectid>audiopan</effectid>
													<effectcategory>audiopan</effectcategory>
													<effecttype>audiopan</effecttype>
													<mediatype>audio</mediatype>
													<parameter>
														<name>Pan</name>
														<parameterid>pan</parameterid>
														<valuemin>-1</valuemin>
														<valuemax>1</valuemax>
														<value>0</value>
													</parameter>
												</effect>
											</filter>
											<sourcetrack>
												<mediatype>audio</mediatype>
												<trackindex>1</trackindex>
											</sourcetrack>
											<link>
												<linkclipref>Raw Interview Matthew Duepner256</linkclipref>
												<mediatype>video</mediatype>
												<trackindex>1</trackindex>
												<clipindex>65</clipindex>
											</link>
											<link>
												<linkclipref>Raw Interview Matthew Duepner258</linkclipref>
												<mediatype>audio</mediatype>
												<trackindex>1</trackindex>
												<clipindex>65</clipindex>
												<groupindex>1</groupindex>
											</link>
											<link>
												<linkclipref>Raw Interview Matthew Duepner259</linkclipref>
												<mediatype>audio</mediatype>
												<trackindex>2</trackindex>
												<clipindex>65</clipindex>
												<groupindex>1</groupindex>
											</link>
											<itemhistory>
												<uuid>1CAA26BE-9FA2-42BB-B43D-52FC0C7DCA6E</uuid>
											</itemhistory>
										</clipitem>
										<enabled>TRUE</enabled>
										<locked>FALSE</locked>
										<outputchannelindex>1</outputchannelindex>
									</track>
									<track>
										<clipitem id="Raw Interview Matthew Duepner3">
											<name>Raw Interview Matthew Duepner</name>
											<duration>81486</duration>
											<rate>
												<ntsc>TRUE</ntsc>
												<timebase>24</timebase>
											</rate>
											<in>2994</in>
											<out>3183</out>
											<start>0</start>
											<end>189</end>
											<masterclipid>Raw Interview Matthew Duepner325</masterclipid>
											<logginginfo>
												<scene/>
												<shottake/>
												<lognote/>
												<good>FALSE</good>
											</logginginfo>
											<labels>
												<label2/>
											</labels>
											<comments>
												<mastercomment1/>
												<mastercomment2/>
												<mastercomment3/>
												<mastercomment4/>
											</comments>
											<file id="YIN_2013-05-28_LG-5 "/>
											<filter>
												<effect>
													<name>Audio Levels</name>
													<effectid>audiolevels</effectid>
													<effectcategory>audiolevels</effectcategory>
													<effecttype>audiolevels</effecttype>
													<mediatype>audio</mediatype>
													<parameter>
														<name>Level</name>
														<parameterid>level</parameterid>
														<valuemin>0</valuemin>
														<valuemax>3.98109</valuemax>
														<value>1</value>
													</parameter>
												</effect>
											</filter>
											<filter>
												<effect>
													<name>Audio Pan</name>
													<effectid>audiopan</effectid>
													<effectcategory>audiopan</effectcategory>
													<effecttype>audiopan</effecttype>
													<mediatype>audio</mediatype>
													<parameter>
														<name>Pan</name>
														<parameterid>pan</parameterid>
														<valuemin>-1</valuemin>
														<valuemax>1</valuemax>
														<value>-0</value>
													</parameter>
												</effect>
											</filter>
											<sourcetrack>
												<mediatype>audio</mediatype>
												<trackindex>2</trackindex>
											</sourcetrack>
											<link>
												<linkclipref>Raw Interview Matthew Duepner</linkclipref>
												<mediatype>video</mediatype>
												<trackindex>1</trackindex>
												<clipindex>1</clipindex>
											</link>
											<link>
												<linkclipref>Raw Interview Matthew Duepner2</linkclipref>
												<mediatype>audio</mediatype>
												<trackindex>1</trackindex>
												<clipindex>1</clipindex>
												<groupindex>1</groupindex>
											</link>
											<link>
												<linkclipref>Raw Interview Matthew Duepner3</linkclipref>
												<mediatype>audio</mediatype>
												<trackindex>2</trackindex>
												<clipindex>1</clipindex>
												<groupindex>1</groupindex>
											</link>
											<itemhistory>
												<uuid>BE1048FF-E53F-4FFE-A3F8-2DB600A9D5D5</uuid>
											</itemhistory>
										</clipitem>
										<clipitem id="Raw Interview Matthew Duepner7">
											<name>Raw Interview Matthew Duepner</name>
											<duration>81486</duration>
											<rate>
												<ntsc>TRUE</ntsc>
												<timebase>24</timebase>
											</rate>
											<in>3586</in>
											<out>3636</out>
											<start>189</start>
											<end>239</end>
											<masterclipid>Raw Interview Matthew Duepner326</masterclipid>
											<logginginfo>
												<scene/>
												<shottake/>
												<lognote/>
												<good>FALSE</good>
											</logginginfo>
											<labels>
												<label2/>
											</labels>
											<comments>
												<mastercomment1/>
												<mastercomment2/>
												<mastercomment3/>
												<mastercomment4/>
											</comments>
											<file id="YIN_2013-05-28_LG-5 "/>
											<filter>
												<effect>
													<name>Audio Levels</name>
													<effectid>audiolevels</effectid>
													<effectcategory>audiolevels</effectcategory>
													<effecttype>audiolevels</effecttype>
													<mediatype>audio</mediatype>
													<parameter>
														<name>Level</name>
														<parameterid>level</parameterid>
														<valuemin>0</valuemin>
														<valuemax>3.98109</valuemax>
														<value>1</value>
													</parameter>
												</effect>
											</filter>
											<filter>
												<effect>
													<name>Audio Pan</name>
													<effectid>audiopan</effectid>
													<effectcategory>audiopan</effectcategory>
													<effecttype>audiopan</effecttype>
													<mediatype>audio</mediatype>
													<parameter>
														<name>Pan</name>
														<parameterid>pan</parameterid>
														<valuemin>-1</valuemin>
														<valuemax>1</valuemax>
														<value>-0</value>
													</parameter>
												</effect>
											</filter>
											<sourcetrack>
												<mediatype>audio</mediatype>
												<trackindex>2</trackindex>
											</sourcetrack>
											<link>
												<linkclipref>Raw Interview Matthew Duepner4</linkclipref>
												<mediatype>video</mediatype>
												<trackindex>1</trackindex>
												<clipindex>2</clipindex>
											</link>
											<link>
												<linkclipref>Raw Interview Matthew Duepner6</linkclipref>
												<mediatype>audio</mediatype>
												<trackindex>1</trackindex>
												<clipindex>2</clipindex>
												<groupindex>1</groupindex>
											</link>
											<link>
												<linkclipref>Raw Interview Matthew Duepner7</linkclipref>
												<mediatype>audio</mediatype>
												<trackindex>2</trackindex>
												<clipindex>2</clipindex>
												<groupindex>1</groupindex>
											</link>
											<itemhistory>
												<uuid>3EF91269-5459-4819-8B6C-407B1DC1122B</uuid>
											</itemhistory>
										</clipitem>
										<clipitem id="Raw Interview Matthew Duepner11">
											<name>Raw Interview Matthew Duepner</name>
											<duration>81486</duration>
											<rate>
												<ntsc>TRUE</ntsc>
												<timebase>24</timebase>
											</rate>
											<in>589</in>
											<out>687</out>
											<start>239</start>
											<end>337</end>
											<masterclipid>Raw Interview Matthew Duepner327</masterclipid>
											<logginginfo>
												<scene/>
												<shottake/>
												<lognote/>
												<good>FALSE</good>
											</logginginfo>
											<labels>
												<label2/>
											</labels>
											<comments>
												<mastercomment1/>
												<mastercomment2/>
												<mastercomment3/>
												<mastercomment4/>
											</comments>
											<file id="YIN_2013-05-28_LG-5 "/>
											<filter>
												<effect>
													<name>Audio Levels</name>
													<effectid>audiolevels</effectid>
													<effectcategory>audiolevels</effectcategory>
													<effecttype>audiolevels</effecttype>
													<mediatype>audio</mediatype>
													<parameter>
														<name>Level</name>
														<parameterid>level</parameterid>
														<valuemin>0</valuemin>
														<valuemax>3.98109</valuemax>
														<value>1</value>
													</parameter>
												</effect>
											</filter>
											<filter>
												<effect>
													<name>Audio Pan</name>
													<effectid>audiopan</effectid>
													<effectcategory>audiopan</effectcategory>
													<effecttype>audiopan</effecttype>
													<mediatype>audio</mediatype>
													<parameter>
														<name>Pan</name>
														<parameterid>pan</parameterid>
														<valuemin>-1</valuemin>
														<valuemax>1</valuemax>
														<value>-0</value>
													</parameter>
												</effect>
											</filter>
											<sourcetrack>
												<mediatype>audio</mediatype>
												<trackindex>2</trackindex>
											</sourcetrack>
											<link>
												<linkclipref>Raw Interview Matthew Duepner8</linkclipref>
												<mediatype>video</mediatype>
												<trackindex>1</trackindex>
												<clipindex>3</clipindex>
											</link>
											<link>
												<linkclipref>Raw Interview Matthew Duepner10</linkclipref>
												<mediatype>audio</mediatype>
												<trackindex>1</trackindex>
												<clipindex>3</clipindex>
												<groupindex>1</groupindex>
											</link>
											<link>
												<linkclipref>Raw Interview Matthew Duepner11</linkclipref>
												<mediatype>audio</mediatype>
												<trackindex>2</trackindex>
												<clipindex>3</clipindex>
												<groupindex>1</groupindex>
											</link>
											<itemhistory>
												<uuid>1E8E9D0B-2CC1-4BD4-A759-E38BEC3BE693</uuid>
											</itemhistory>
										</clipitem>
										<clipitem id="Raw Interview Matthew Duepner15">
											<name>Raw Interview Matthew Duepner</name>
											<duration>81486</duration>
											<rate>
												<ntsc>TRUE</ntsc>
												<timebase>24</timebase>
											</rate>
											<in>6757</in>
											<out>6892</out>
											<start>367</start>
											<end>502</end>
											<masterclipid>Raw Interview Matthew Duepner328</masterclipid>
											<logginginfo>
												<scene/>
												<shottake/>
												<lognote/>
												<good>FALSE</good>
											</logginginfo>
											<labels>
												<label2/>
											</labels>
											<comments>
												<mastercomment1/>
												<mastercomment2/>
												<mastercomment3/>
												<mastercomment4/>
											</comments>
											<file id="YIN_2013-05-28_LG-5 "/>
											<filter>
												<effect>
													<name>Audio Levels</name>
													<effectid>audiolevels</effectid>
													<effectcategory>audiolevels</effectcategory>
													<effecttype>audiolevels</effecttype>
													<mediatype>audio</mediatype>
													<parameter>
														<name>Level</name>
														<parameterid>level</parameterid>
														<valuemin>0</valuemin>
														<valuemax>3.98109</valuemax>
														<value>1</value>
													</parameter>
												</effect>
											</filter>
											<filter>
												<effect>
													<name>Audio Pan</name>
													<effectid>audiopan</effectid>
													<effectcategory>audiopan</effectcategory>
													<effecttype>audiopan</effecttype>
													<mediatype>audio</mediatype>
													<parameter>
														<name>Pan</name>
														<parameterid>pan</parameterid>
														<valuemin>-1</valuemin>
														<valuemax>1</valuemax>
														<value>-0</value>
													</parameter>
												</effect>
											</filter>
											<sourcetrack>
												<mediatype>audio</mediatype>
												<trackindex>2</trackindex>
											</sourcetrack>
											<link>
												<linkclipref>Raw Interview Matthew Duepner12</linkclipref>
												<mediatype>video</mediatype>
												<trackindex>1</trackindex>
												<clipindex>4</clipindex>
											</link>
											<link>
												<linkclipref>Raw Interview Matthew Duepner14</linkclipref>
												<mediatype>audio</mediatype>
												<trackindex>1</trackindex>
												<clipindex>4</clipindex>
												<groupindex>1</groupindex>
											</link>
											<link>
												<linkclipref>Raw Interview Matthew Duepner15</linkclipref>
												<mediatype>audio</mediatype>
												<trackindex>2</trackindex>
												<clipindex>4</clipindex>
												<groupindex>1</groupindex>
											</link>
											<itemhistory>
												<uuid>22084AC8-B4E5-476B-924C-6BB3BB5DD1FB</uuid>
											</itemhistory>
										</clipitem>
										<clipitem id="Raw Interview Matthew Duepner19">
											<name>Raw Interview Matthew Duepner</name>
											<duration>81486</duration>
											<rate>
												<ntsc>TRUE</ntsc>
												<timebase>24</timebase>
											</rate>
											<in>28282</in>
											<out>28305</out>
											<start>502</start>
											<end>525</end>
											<masterclipid>Raw Interview Matthew Duepner329</masterclipid>
											<logginginfo>
												<scene/>
												<shottake/>
												<lognote/>
												<good>FALSE</good>
											</logginginfo>
											<labels>
												<label2/>
											</labels>
											<comments>
												<mastercomment1/>
												<mastercomment2/>
												<mastercomment3/>
												<mastercomment4/>
											</comments>
											<file id="YIN_2013-05-28_LG-5 "/>
											<filter>
												<effect>
													<name>Audio Levels</name>
													<effectid>audiolevels</effectid>
													<effectcategory>audiolevels</effectcategory>
													<effecttype>audiolevels</effecttype>
													<mediatype>audio</mediatype>
													<parameter>
														<name>Level</name>
														<parameterid>level</parameterid>
														<valuemin>0</valuemin>
														<valuemax>3.98109</valuemax>
														<value>1</value>
													</parameter>
												</effect>
											</filter>
											<filter>
												<effect>
													<name>Audio Pan</name>
													<effectid>audiopan</effectid>
													<effectcategory>audiopan</effectcategory>
													<effecttype>audiopan</effecttype>
													<mediatype>audio</mediatype>
													<parameter>
														<name>Pan</name>
														<parameterid>pan</parameterid>
														<valuemin>-1</valuemin>
														<valuemax>1</valuemax>
														<value>-0</value>
													</parameter>
												</effect>
											</filter>
											<sourcetrack>
												<mediatype>audio</mediatype>
												<trackindex>2</trackindex>
											</sourcetrack>
											<link>
												<linkclipref>Raw Interview Matthew Duepner16</linkclipref>
												<mediatype>video</mediatype>
												<trackindex>1</trackindex>
												<clipindex>5</clipindex>
											</link>
											<link>
												<linkclipref>Raw Interview Matthew Duepner18</linkclipref>
												<mediatype>audio</mediatype>
												<trackindex>1</trackindex>
												<clipindex>5</clipindex>
												<groupindex>1</groupindex>
											</link>
											<link>
												<linkclipref>Raw Interview Matthew Duepner19</linkclipref>
												<mediatype>audio</mediatype>
												<trackindex>2</trackindex>
												<clipindex>5</clipindex>
												<groupindex>1</groupindex>
											</link>
											<itemhistory>
												<uuid>D13C076D-C805-472F-B9DF-448ED4125AFA</uuid>
											</itemhistory>
										</clipitem>
										<clipitem id="Raw Interview Matthew Duepner23">
											<name>Raw Interview Matthew Duepner</name>
											<duration>81486</duration>
											<rate>
												<ntsc>TRUE</ntsc>
												<timebase>24</timebase>
											</rate>
											<in>28332</in>
											<out>28387</out>
											<start>525</start>
											<end>580</end>
											<masterclipid>Raw Interview Matthew Duepner330</masterclipid>
											<logginginfo>
												<scene/>
												<shottake/>
												<lognote/>
												<good>FALSE</good>
											</logginginfo>
											<labels>
												<label2/>
											</labels>
											<comments>
												<mastercomment1/>
												<mastercomment2/>
												<mastercomment3/>
												<mastercomment4/>
											</comments>
											<file id="YIN_2013-05-28_LG-5 "/>
											<filter>
												<effect>
													<name>Audio Levels</name>
													<effectid>audiolevels</effectid>
													<effectcategory>audiolevels</effectcategory>
													<effecttype>audiolevels</effecttype>
													<mediatype>audio</mediatype>
													<parameter>
														<name>Level</name>
														<parameterid>level</parameterid>
														<valuemin>0</valuemin>
														<valuemax>3.98109</valuemax>
														<value>1</value>
													</parameter>
												</effect>
											</filter>
											<filter>
												<effect>
													<name>Audio Pan</name>
													<effectid>audiopan</effectid>
													<effectcategory>audiopan</effectcategory>
													<effecttype>audiopan</effecttype>
													<mediatype>audio</mediatype>
													<parameter>
														<name>Pan</name>
														<parameterid>pan</parameterid>
														<valuemin>-1</valuemin>
														<valuemax>1</valuemax>
														<value>-0</value>
													</parameter>
												</effect>
											</filter>
											<sourcetrack>
												<mediatype>audio</mediatype>
												<trackindex>2</trackindex>
											</sourcetrack>
											<link>
												<linkclipref>Raw Interview Matthew Duepner20</linkclipref>
												<mediatype>video</mediatype>
												<trackindex>1</trackindex>
												<clipindex>6</clipindex>
											</link>
											<link>
												<linkclipref>Raw Interview Matthew Duepner22</linkclipref>
												<mediatype>audio</mediatype>
												<trackindex>1</trackindex>
												<clipindex>6</clipindex>
												<groupindex>1</groupindex>
											</link>
											<link>
												<linkclipref>Raw Interview Matthew Duepner23</linkclipref>
												<mediatype>audio</mediatype>
												<trackindex>2</trackindex>
												<clipindex>6</clipindex>
												<groupindex>1</groupindex>
											</link>
											<itemhistory>
												<uuid>36A3E0CD-2A43-4B68-B9C0-20E0D4AA09D1</uuid>
											</itemhistory>
										</clipitem>
										<clipitem id="Raw Interview Matthew Duepner27">
											<name>Raw Interview Matthew Duepner</name>
											<duration>81486</duration>
											<rate>
												<ntsc>TRUE</ntsc>
												<timebase>24</timebase>
											</rate>
											<in>28387</in>
											<out>28619</out>
											<start>580</start>
											<end>812</end>
											<masterclipid>Raw Interview Matthew Duepner331</masterclipid>
											<logginginfo>
												<scene/>
												<shottake/>
												<lognote/>
												<good>FALSE</good>
											</logginginfo>
											<labels>
												<label2/>
											</labels>
											<comments>
												<mastercomment1/>
												<mastercomment2/>
												<mastercomment3/>
												<mastercomment4/>
											</comments>
											<file id="YIN_2013-05-28_LG-5 "/>
											<filter>
												<effect>
													<name>Audio Levels</name>
													<effectid>audiolevels</effectid>
													<effectcategory>audiolevels</effectcategory>
													<effecttype>audiolevels</effecttype>
													<mediatype>audio</mediatype>
													<parameter>
														<name>Level</name>
														<parameterid>level</parameterid>
														<valuemin>0</valuemin>
														<valuemax>3.98109</valuemax>
														<value>1</value>
													</parameter>
												</effect>
											</filter>
											<filter>
												<effect>
													<name>Audio Pan</name>
													<effectid>audiopan</effectid>
													<effectcategory>audiopan</effectcategory>
													<effecttype>audiopan</effecttype>
													<mediatype>audio</mediatype>
													<parameter>
														<name>Pan</name>
														<parameterid>pan</parameterid>
														<valuemin>-1</valuemin>
														<valuemax>1</valuemax>
														<value>-0</value>
													</parameter>
												</effect>
											</filter>
											<sourcetrack>
												<mediatype>audio</mediatype>
												<trackindex>2</trackindex>
											</sourcetrack>
											<link>
												<linkclipref>Raw Interview Matthew Duepner24</linkclipref>
												<mediatype>video</mediatype>
												<trackindex>1</trackindex>
												<clipindex>7</clipindex>
											</link>
											<link>
												<linkclipref>Raw Interview Matthew Duepner26</linkclipref>
												<mediatype>audio</mediatype>
												<trackindex>1</trackindex>
												<clipindex>7</clipindex>
												<groupindex>1</groupindex>
											</link>
											<link>
												<linkclipref>Raw Interview Matthew Duepner27</linkclipref>
												<mediatype>audio</mediatype>
												<trackindex>2</trackindex>
												<clipindex>7</clipindex>
												<groupindex>1</groupindex>
											</link>
											<itemhistory>
												<uuid>47DB2EEE-D22E-4970-A803-761F8B12EB4A</uuid>
											</itemhistory>
										</clipitem>
										<clipitem id="Raw Interview Matthew Duepner31">
											<name>Raw Interview Matthew Duepner</name>
											<duration>81486</duration>
											<rate>
												<ntsc>TRUE</ntsc>
												<timebase>24</timebase>
											</rate>
											<in>76128</in>
											<out>76339</out>
											<start>812</start>
											<end>1023</end>
											<masterclipid>Raw Interview Matthew Duepner332</masterclipid>
											<logginginfo>
												<scene/>
												<shottake/>
												<lognote/>
												<good>FALSE</good>
											</logginginfo>
											<labels>
												<label2/>
											</labels>
											<comments>
												<mastercomment1/>
												<mastercomment2/>
												<mastercomment3/>
												<mastercomment4/>
											</comments>
											<file id="YIN_2013-05-28_LG-5 "/>
											<filter>
												<effect>
													<name>Audio Levels</name>
													<effectid>audiolevels</effectid>
													<effectcategory>audiolevels</effectcategory>
													<effecttype>audiolevels</effecttype>
													<mediatype>audio</mediatype>
													<parameter>
														<name>Level</name>
														<parameterid>level</parameterid>
														<valuemin>0</valuemin>
														<valuemax>3.98109</valuemax>
														<value>1</value>
													</parameter>
												</effect>
											</filter>
											<filter>
												<effect>
													<name>Audio Pan</name>
													<effectid>audiopan</effectid>
													<effectcategory>audiopan</effectcategory>
													<effecttype>audiopan</effecttype>
													<mediatype>audio</mediatype>
													<parameter>
														<name>Pan</name>
														<parameterid>pan</parameterid>
														<valuemin>-1</valuemin>
														<valuemax>1</valuemax>
														<value>-0</value>
													</parameter>
												</effect>
											</filter>
											<sourcetrack>
												<mediatype>audio</mediatype>
												<trackindex>2</trackindex>
											</sourcetrack>
											<link>
												<linkclipref>Raw Interview Matthew Duepner28</linkclipref>
												<mediatype>video</mediatype>
												<trackindex>1</trackindex>
												<clipindex>8</clipindex>
											</link>
											<link>
												<linkclipref>Raw Interview Matthew Duepner30</linkclipref>
												<mediatype>audio</mediatype>
												<trackindex>1</trackindex>
												<clipindex>8</clipindex>
												<groupindex>1</groupindex>
											</link>
											<link>
												<linkclipref>Raw Interview Matthew Duepner31</linkclipref>
												<mediatype>audio</mediatype>
												<trackindex>2</trackindex>
												<clipindex>8</clipindex>
												<groupindex>1</groupindex>
											</link>
											<itemhistory>
												<uuid>C21E7F44-F1C0-4525-A7B2-EA1E20C3AAF5</uuid>
											</itemhistory>
										</clipitem>
										<clipitem id="Raw Interview Matthew Duepner35">
											<name>Raw Interview Matthew Duepner</name>
											<duration>81486</duration>
											<rate>
												<ntsc>TRUE</ntsc>
												<timebase>24</timebase>
											</rate>
											<in>5496</in>
											<out>5591</out>
											<start>1037</start>
											<end>1132</end>
											<masterclipid>Raw Interview Matthew Duepner333</masterclipid>
											<logginginfo>
												<scene/>
												<shottake/>
												<lognote/>
												<good>FALSE</good>
											</logginginfo>
											<labels>
												<label2/>
											</labels>
											<comments>
												<mastercomment1/>
												<mastercomment2/>
												<mastercomment3/>
												<mastercomment4/>
											</comments>
											<file id="YIN_2013-05-28_LG-5 "/>
											<filter>
												<effect>
													<name>Audio Levels</name>
													<effectid>audiolevels</effectid>
													<effectcategory>audiolevels</effectcategory>
													<effecttype>audiolevels</effecttype>
													<mediatype>audio</mediatype>
													<parameter>
														<name>Level</name>
														<parameterid>level</parameterid>
														<valuemin>0</valuemin>
														<valuemax>3.98109</valuemax>
														<value>1</value>
													</parameter>
												</effect>
											</filter>
											<filter>
												<effect>
													<name>Audio Pan</name>
													<effectid>audiopan</effectid>
													<effectcategory>audiopan</effectcategory>
													<effecttype>audiopan</effecttype>
													<mediatype>audio</mediatype>
													<parameter>
														<name>Pan</name>
														<parameterid>pan</parameterid>
														<valuemin>-1</valuemin>
														<valuemax>1</valuemax>
														<value>-0</value>
													</parameter>
												</effect>
											</filter>
											<sourcetrack>
												<mediatype>audio</mediatype>
												<trackindex>2</trackindex>
											</sourcetrack>
											<link>
												<linkclipref>Raw Interview Matthew Duepner32</linkclipref>
												<mediatype>video</mediatype>
												<trackindex>1</trackindex>
												<clipindex>9</clipindex>
											</link>
											<link>
												<linkclipref>Raw Interview Matthew Duepner34</linkclipref>
												<mediatype>audio</mediatype>
												<trackindex>1</trackindex>
												<clipindex>9</clipindex>
												<groupindex>1</groupindex>
											</link>
											<link>
												<linkclipref>Raw Interview Matthew Duepner35</linkclipref>
												<mediatype>audio</mediatype>
												<trackindex>2</trackindex>
												<clipindex>9</clipindex>
												<groupindex>1</groupindex>
											</link>
											<itemhistory>
												<uuid>B759C86D-BDCD-4DE1-B55F-BAE7C82FB706</uuid>
											</itemhistory>
										</clipitem>
										<clipitem id="Raw Interview Matthew Duepner39">
											<name>Raw Interview Matthew Duepner</name>
											<duration>81486</duration>
											<rate>
												<ntsc>TRUE</ntsc>
												<timebase>24</timebase>
											</rate>
											<in>6176</in>
											<out>6256</out>
											<start>1132</start>
											<end>1212</end>
											<masterclipid>Raw Interview Matthew Duepner334</masterclipid>
											<logginginfo>
												<scene/>
												<shottake/>
												<lognote/>
												<good>FALSE</good>
											</logginginfo>
											<labels>
												<label2/>
											</labels>
											<comments>
												<mastercomment1/>
												<mastercomment2/>
												<mastercomment3/>
												<mastercomment4/>
											</comments>
											<file id="YIN_2013-05-28_LG-5 "/>
											<filter>
												<effect>
													<name>Audio Levels</name>
													<effectid>audiolevels</effectid>
													<effectcategory>audiolevels</effectcategory>
													<effecttype>audiolevels</effecttype>
													<mediatype>audio</mediatype>
													<parameter>
														<name>Level</name>
														<parameterid>level</parameterid>
														<valuemin>0</valuemin>
														<valuemax>3.98109</valuemax>
														<value>1</value>
													</parameter>
												</effect>
											</filter>
											<filter>
												<effect>
													<name>Audio Pan</name>
													<effectid>audiopan</effectid>
													<effectcategory>audiopan</effectcategory>
													<effecttype>audiopan</effecttype>
													<mediatype>audio</mediatype>
													<parameter>
														<name>Pan</name>
														<parameterid>pan</parameterid>
														<valuemin>-1</valuemin>
														<valuemax>1</valuemax>
														<value>-0</value>
													</parameter>
												</effect>
											</filter>
											<sourcetrack>
												<mediatype>audio</mediatype>
												<trackindex>2</trackindex>
											</sourcetrack>
											<link>
												<linkclipref>Raw Interview Matthew Duepner36</linkclipref>
												<mediatype>video</mediatype>
												<trackindex>1</trackindex>
												<clipindex>10</clipindex>
											</link>
											<link>
												<linkclipref>Raw Interview Matthew Duepner38</linkclipref>
												<mediatype>audio</mediatype>
												<trackindex>1</trackindex>
												<clipindex>10</clipindex>
												<groupindex>1</groupindex>
											</link>
											<link>
												<linkclipref>Raw Interview Matthew Duepner39</linkclipref>
												<mediatype>audio</mediatype>
												<trackindex>2</trackindex>
												<clipindex>10</clipindex>
												<groupindex>1</groupindex>
											</link>
											<itemhistory>
												<uuid>FBEB23DE-1E81-416F-8D27-FF2F065C1FF7</uuid>
											</itemhistory>
										</clipitem>
										<clipitem id="Raw Interview Matthew Duepner43">
											<name>Raw Interview Matthew Duepner</name>
											<duration>81486</duration>
											<rate>
												<ntsc>TRUE</ntsc>
												<timebase>24</timebase>
											</rate>
											<in>25948</in>
											<out>26160</out>
											<start>1212</start>
											<end>1424</end>
											<masterclipid>Raw Interview Matthew Duepner335</masterclipid>
											<logginginfo>
												<scene/>
												<shottake/>
												<lognote/>
												<good>FALSE</good>
											</logginginfo>
											<labels>
												<label2/>
											</labels>
											<comments>
												<mastercomment1/>
												<mastercomment2/>
												<mastercomment3/>
												<mastercomment4/>
											</comments>
											<file id="YIN_2013-05-28_LG-5 "/>
											<filter>
												<effect>
													<name>Audio Levels</name>
													<effectid>audiolevels</effectid>
													<effectcategory>audiolevels</effectcategory>
													<effecttype>audiolevels</effecttype>
													<mediatype>audio</mediatype>
													<parameter>
														<name>Level</name>
														<parameterid>level</parameterid>
														<valuemin>0</valuemin>
														<valuemax>3.98109</valuemax>
														<value>1</value>
													</parameter>
												</effect>
											</filter>
											<filter>
												<effect>
													<name>Audio Pan</name>
													<effectid>audiopan</effectid>
													<effectcategory>audiopan</effectcategory>
													<effecttype>audiopan</effecttype>
													<mediatype>audio</mediatype>
													<parameter>
														<name>Pan</name>
														<parameterid>pan</parameterid>
														<valuemin>-1</valuemin>
														<valuemax>1</valuemax>
														<value>-0</value>
													</parameter>
												</effect>
											</filter>
											<sourcetrack>
												<mediatype>audio</mediatype>
												<trackindex>2</trackindex>
											</sourcetrack>
											<link>
												<linkclipref>Raw Interview Matthew Duepner40</linkclipref>
												<mediatype>video</mediatype>
												<trackindex>1</trackindex>
												<clipindex>11</clipindex>
											</link>
											<link>
												<linkclipref>Raw Interview Matthew Duepner42</linkclipref>
												<mediatype>audio</mediatype>
												<trackindex>1</trackindex>
												<clipindex>11</clipindex>
												<groupindex>1</groupindex>
											</link>
											<link>
												<linkclipref>Raw Interview Matthew Duepner43</linkclipref>
												<mediatype>audio</mediatype>
												<trackindex>2</trackindex>
												<clipindex>11</clipindex>
												<groupindex>1</groupindex>
											</link>
											<itemhistory>
												<uuid>5E078762-B262-43B4-8AD3-4B9113822435</uuid>
											</itemhistory>
										</clipitem>
										<clipitem id="Raw Interview Matthew Duepner47">
											<name>Raw Interview Matthew Duepner</name>
											<duration>81486</duration>
											<rate>
												<ntsc>TRUE</ntsc>
												<timebase>24</timebase>
											</rate>
											<in>14189</in>
											<out>14334</out>
											<start>1424</start>
											<end>1569</end>
											<masterclipid>Raw Interview Matthew Duepner336</masterclipid>
											<logginginfo>
												<scene/>
												<shottake/>
												<lognote/>
												<good>FALSE</good>
											</logginginfo>
											<labels>
												<label2/>
											</labels>
											<comments>
												<mastercomment1/>
												<mastercomment2/>
												<mastercomment3/>
												<mastercomment4/>
											</comments>
											<file id="YIN_2013-05-28_LG-5 "/>
											<filter>
												<effect>
													<name>Audio Levels</name>
													<effectid>audiolevels</effectid>
													<effectcategory>audiolevels</effectcategory>
													<effecttype>audiolevels</effecttype>
													<mediatype>audio</mediatype>
													<parameter>
														<name>Level</name>
														<parameterid>level</parameterid>
														<valuemin>0</valuemin>
														<valuemax>3.98109</valuemax>
														<value>1</value>
													</parameter>
												</effect>
											</filter>
											<filter>
												<effect>
													<name>Audio Pan</name>
													<effectid>audiopan</effectid>
													<effectcategory>audiopan</effectcategory>
													<effecttype>audiopan</effecttype>
													<mediatype>audio</mediatype>
													<parameter>
														<name>Pan</name>
														<parameterid>pan</parameterid>
														<valuemin>-1</valuemin>
														<valuemax>1</valuemax>
														<value>-0</value>
													</parameter>
												</effect>
											</filter>
											<sourcetrack>
												<mediatype>audio</mediatype>
												<trackindex>2</trackindex>
											</sourcetrack>
											<link>
												<linkclipref>Raw Interview Matthew Duepner44</linkclipref>
												<mediatype>video</mediatype>
												<trackindex>1</trackindex>
												<clipindex>12</clipindex>
											</link>
											<link>
												<linkclipref>Raw Interview Matthew Duepner46</linkclipref>
												<mediatype>audio</mediatype>
												<trackindex>1</trackindex>
												<clipindex>12</clipindex>
												<groupindex>1</groupindex>
											</link>
											<link>
												<linkclipref>Raw Interview Matthew Duepner47</linkclipref>
												<mediatype>audio</mediatype>
												<trackindex>2</trackindex>
												<clipindex>12</clipindex>
												<groupindex>1</groupindex>
											</link>
											<itemhistory>
												<uuid>BC172454-CA46-4C06-B449-D353D8B27A54</uuid>
											</itemhistory>
										</clipitem>
										<clipitem id="Raw Interview Matthew Duepner51">
											<name>Raw Interview Matthew Duepner</name>
											<duration>81486</duration>
											<rate>
												<ntsc>TRUE</ntsc>
												<timebase>24</timebase>
											</rate>
											<in>9373</in>
											<out>9540</out>
											<start>1569</start>
											<end>1736</end>
											<masterclipid>Raw Interview Matthew Duepner337</masterclipid>
											<logginginfo>
												<scene/>
												<shottake/>
												<lognote/>
												<good>FALSE</good>
											</logginginfo>
											<labels>
												<label2/>
											</labels>
											<comments>
												<mastercomment1/>
												<mastercomment2/>
												<mastercomment3/>
												<mastercomment4/>
											</comments>
											<file id="YIN_2013-05-28_LG-5 "/>
											<filter>
												<effect>
													<name>Audio Levels</name>
													<effectid>audiolevels</effectid>
													<effectcategory>audiolevels</effectcategory>
													<effecttype>audiolevels</effecttype>
													<mediatype>audio</mediatype>
													<parameter>
														<name>Level</name>
														<parameterid>level</parameterid>
														<valuemin>0</valuemin>
														<valuemax>3.98109</valuemax>
														<value>1</value>
													</parameter>
												</effect>
											</filter>
											<filter>
												<effect>
													<name>Audio Pan</name>
													<effectid>audiopan</effectid>
													<effectcategory>audiopan</effectcategory>
													<effecttype>audiopan</effecttype>
													<mediatype>audio</mediatype>
													<parameter>
														<name>Pan</name>
														<parameterid>pan</parameterid>
														<valuemin>-1</valuemin>
														<valuemax>1</valuemax>
														<value>-0</value>
													</parameter>
												</effect>
											</filter>
											<sourcetrack>
												<mediatype>audio</mediatype>
												<trackindex>2</trackindex>
											</sourcetrack>
											<link>
												<linkclipref>Raw Interview Matthew Duepner48</linkclipref>
												<mediatype>video</mediatype>
												<trackindex>1</trackindex>
												<clipindex>13</clipindex>
											</link>
											<link>
												<linkclipref>Raw Interview Matthew Duepner50</linkclipref>
												<mediatype>audio</mediatype>
												<trackindex>1</trackindex>
												<clipindex>13</clipindex>
												<groupindex>1</groupindex>
											</link>
											<link>
												<linkclipref>Raw Interview Matthew Duepner51</linkclipref>
												<mediatype>audio</mediatype>
												<trackindex>2</trackindex>
												<clipindex>13</clipindex>
												<groupindex>1</groupindex>
											</link>
											<itemhistory>
												<uuid>A54FB3F2-D761-4D4F-BB9C-EB3046837018</uuid>
											</itemhistory>
										</clipitem>
										<clipitem id="Raw Interview Matthew Duepner55">
											<name>Raw Interview Matthew Duepner</name>
											<duration>81486</duration>
											<rate>
												<ntsc>TRUE</ntsc>
												<timebase>24</timebase>
											</rate>
											<in>17169</in>
											<out>17401</out>
											<start>1736</start>
											<end>1968</end>
											<masterclipid>Raw Interview Matthew Duepner338</masterclipid>
											<logginginfo>
												<scene/>
												<shottake/>
												<lognote/>
												<good>FALSE</good>
											</logginginfo>
											<labels>
												<label2/>
											</labels>
											<comments>
												<mastercomment1/>
												<mastercomment2/>
												<mastercomment3/>
												<mastercomment4/>
											</comments>
											<file id="YIN_2013-05-28_LG-5 "/>
											<filter>
												<effect>
													<name>Audio Levels</name>
													<effectid>audiolevels</effectid>
													<effectcategory>audiolevels</effectcategory>
													<effecttype>audiolevels</effecttype>
													<mediatype>audio</mediatype>
													<parameter>
														<name>Level</name>
														<parameterid>level</parameterid>
														<valuemin>0</valuemin>
														<valuemax>3.98109</valuemax>
														<value>1</value>
													</parameter>
												</effect>
											</filter>
											<filter>
												<effect>
													<name>Audio Pan</name>
													<effectid>audiopan</effectid>
													<effectcategory>audiopan</effectcategory>
													<effecttype>audiopan</effecttype>
													<mediatype>audio</mediatype>
													<parameter>
														<name>Pan</name>
														<parameterid>pan</parameterid>
														<valuemin>-1</valuemin>
														<valuemax>1</valuemax>
														<value>-0</value>
													</parameter>
												</effect>
											</filter>
											<sourcetrack>
												<mediatype>audio</mediatype>
												<trackindex>2</trackindex>
											</sourcetrack>
											<link>
												<linkclipref>Raw Interview Matthew Duepner52</linkclipref>
												<mediatype>video</mediatype>
												<trackindex>1</trackindex>
												<clipindex>14</clipindex>
											</link>
											<link>
												<linkclipref>Raw Interview Matthew Duepner54</linkclipref>
												<mediatype>audio</mediatype>
												<trackindex>1</trackindex>
												<clipindex>14</clipindex>
												<groupindex>1</groupindex>
											</link>
											<link>
												<linkclipref>Raw Interview Matthew Duepner55</linkclipref>
												<mediatype>audio</mediatype>
												<trackindex>2</trackindex>
												<clipindex>14</clipindex>
												<groupindex>1</groupindex>
											</link>
											<itemhistory>
												<uuid>413A1730-4E86-4F8D-8587-652BC26B82B4</uuid>
											</itemhistory>
										</clipitem>
										<clipitem id="Raw Interview Matthew Duepner59">
											<name>Raw Interview Matthew Duepner</name>
											<duration>81486</duration>
											<rate>
												<ntsc>TRUE</ntsc>
												<timebase>24</timebase>
											</rate>
											<in>10616</in>
											<out>10693</out>
											<start>1968</start>
											<end>2045</end>
											<masterclipid>Raw Interview Matthew Duepner339</masterclipid>
											<logginginfo>
												<scene/>
												<shottake/>
												<lognote/>
												<good>FALSE</good>
											</logginginfo>
											<labels>
												<label2/>
											</labels>
											<comments>
												<mastercomment1/>
												<mastercomment2/>
												<mastercomment3/>
												<mastercomment4/>
											</comments>
											<file id="YIN_2013-05-28_LG-5 "/>
											<filter>
												<effect>
													<name>Audio Levels</name>
													<effectid>audiolevels</effectid>
													<effectcategory>audiolevels</effectcategory>
													<effecttype>audiolevels</effecttype>
													<mediatype>audio</mediatype>
													<parameter>
														<name>Level</name>
														<parameterid>level</parameterid>
														<valuemin>0</valuemin>
														<valuemax>3.98109</valuemax>
														<value>1</value>
													</parameter>
												</effect>
											</filter>
											<filter>
												<effect>
													<name>Audio Pan</name>
													<effectid>audiopan</effectid>
													<effectcategory>audiopan</effectcategory>
													<effecttype>audiopan</effecttype>
													<mediatype>audio</mediatype>
													<parameter>
														<name>Pan</name>
														<parameterid>pan</parameterid>
														<valuemin>-1</valuemin>
														<valuemax>1</valuemax>
														<value>-0</value>
													</parameter>
												</effect>
											</filter>
											<sourcetrack>
												<mediatype>audio</mediatype>
												<trackindex>2</trackindex>
											</sourcetrack>
											<link>
												<linkclipref>Raw Interview Matthew Duepner56</linkclipref>
												<mediatype>video</mediatype>
												<trackindex>1</trackindex>
												<clipindex>15</clipindex>
											</link>
											<link>
												<linkclipref>Raw Interview Matthew Duepner58</linkclipref>
												<mediatype>audio</mediatype>
												<trackindex>1</trackindex>
												<clipindex>15</clipindex>
												<groupindex>1</groupindex>
											</link>
											<link>
												<linkclipref>Raw Interview Matthew Duepner59</linkclipref>
												<mediatype>audio</mediatype>
												<trackindex>2</trackindex>
												<clipindex>15</clipindex>
												<groupindex>1</groupindex>
											</link>
											<itemhistory>
												<uuid>4E50C45E-CE23-497C-8825-23600FE7A30D</uuid>
											</itemhistory>
										</clipitem>
										<clipitem id="Raw Interview Matthew Duepner63">
											<name>Raw Interview Matthew Duepner</name>
											<duration>81486</duration>
											<rate>
												<ntsc>TRUE</ntsc>
												<timebase>24</timebase>
											</rate>
											<in>26630</in>
											<out>26790</out>
											<start>2045</start>
											<end>2205</end>
											<masterclipid>Raw Interview Matthew Duepner340</masterclipid>
											<logginginfo>
												<scene/>
												<shottake/>
												<lognote/>
												<good>FALSE</good>
											</logginginfo>
											<labels>
												<label2/>
											</labels>
											<comments>
												<mastercomment1/>
												<mastercomment2/>
												<mastercomment3/>
												<mastercomment4/>
											</comments>
											<file id="YIN_2013-05-28_LG-5 "/>
											<filter>
												<effect>
													<name>Audio Levels</name>
													<effectid>audiolevels</effectid>
													<effectcategory>audiolevels</effectcategory>
													<effecttype>audiolevels</effecttype>
													<mediatype>audio</mediatype>
													<parameter>
														<name>Level</name>
														<parameterid>level</parameterid>
														<valuemin>0</valuemin>
														<valuemax>3.98109</valuemax>
														<value>1</value>
													</parameter>
												</effect>
											</filter>
											<filter>
												<effect>
													<name>Audio Pan</name>
													<effectid>audiopan</effectid>
													<effectcategory>audiopan</effectcategory>
													<effecttype>audiopan</effecttype>
													<mediatype>audio</mediatype>
													<parameter>
														<name>Pan</name>
														<parameterid>pan</parameterid>
														<valuemin>-1</valuemin>
														<valuemax>1</valuemax>
														<value>-0</value>
													</parameter>
												</effect>
											</filter>
											<sourcetrack>
												<mediatype>audio</mediatype>
												<trackindex>2</trackindex>
											</sourcetrack>
											<link>
												<linkclipref>Raw Interview Matthew Duepner60</linkclipref>
												<mediatype>video</mediatype>
												<trackindex>1</trackindex>
												<clipindex>16</clipindex>
											</link>
											<link>
												<linkclipref>Raw Interview Matthew Duepner62</linkclipref>
												<mediatype>audio</mediatype>
												<trackindex>1</trackindex>
												<clipindex>16</clipindex>
												<groupindex>1</groupindex>
											</link>
											<link>
												<linkclipref>Raw Interview Matthew Duepner63</linkclipref>
												<mediatype>audio</mediatype>
												<trackindex>2</trackindex>
												<clipindex>16</clipindex>
												<groupindex>1</groupindex>
											</link>
											<itemhistory>
												<uuid>36590103-2B3C-4043-8223-B123D08A8148</uuid>
											</itemhistory>
										</clipitem>
										<clipitem id="Raw Interview Matthew Duepner67">
											<name>Raw Interview Matthew Duepner</name>
											<duration>81486</duration>
											<rate>
												<ntsc>TRUE</ntsc>
												<timebase>24</timebase>
											</rate>
											<in>27080</in>
											<out>27302</out>
											<start>2205</start>
											<end>2427</end>
											<masterclipid>Raw Interview Matthew Duepner341</masterclipid>
											<logginginfo>
												<scene/>
												<shottake/>
												<lognote/>
												<good>FALSE</good>
											</logginginfo>
											<labels>
												<label2/>
											</labels>
											<comments>
												<mastercomment1/>
												<mastercomment2/>
												<mastercomment3/>
												<mastercomment4/>
											</comments>
											<file id="YIN_2013-05-28_LG-5 "/>
											<filter>
												<effect>
													<name>Audio Levels</name>
													<effectid>audiolevels</effectid>
													<effectcategory>audiolevels</effectcategory>
													<effecttype>audiolevels</effecttype>
													<mediatype>audio</mediatype>
													<parameter>
														<name>Level</name>
														<parameterid>level</parameterid>
														<valuemin>0</valuemin>
														<valuemax>3.98109</valuemax>
														<value>1</value>
													</parameter>
												</effect>
											</filter>
											<filter>
												<effect>
													<name>Audio Pan</name>
													<effectid>audiopan</effectid>
													<effectcategory>audiopan</effectcategory>
													<effecttype>audiopan</effecttype>
													<mediatype>audio</mediatype>
													<parameter>
														<name>Pan</name>
														<parameterid>pan</parameterid>
														<valuemin>-1</valuemin>
														<valuemax>1</valuemax>
														<value>-0</value>
													</parameter>
												</effect>
											</filter>
											<sourcetrack>
												<mediatype>audio</mediatype>
												<trackindex>2</trackindex>
											</sourcetrack>
											<link>
												<linkclipref>Raw Interview Matthew Duepner64</linkclipref>
												<mediatype>video</mediatype>
												<trackindex>1</trackindex>
												<clipindex>17</clipindex>
											</link>
											<link>
												<linkclipref>Raw Interview Matthew Duepner66</linkclipref>
												<mediatype>audio</mediatype>
												<trackindex>1</trackindex>
												<clipindex>17</clipindex>
												<groupindex>1</groupindex>
											</link>
											<link>
												<linkclipref>Raw Interview Matthew Duepner67</linkclipref>
												<mediatype>audio</mediatype>
												<trackindex>2</trackindex>
												<clipindex>17</clipindex>
												<groupindex>1</groupindex>
											</link>
											<itemhistory>
												<uuid>BB91A60B-550A-4F2E-B58F-116C35A695A7</uuid>
											</itemhistory>
										</clipitem>
										<clipitem id="Raw Interview Matthew Duepner71">
											<name>Raw Interview Matthew Duepner</name>
											<duration>81486</duration>
											<rate>
												<ntsc>TRUE</ntsc>
												<timebase>24</timebase>
											</rate>
											<in>10554</in>
											<out>10577</out>
											<start>2427</start>
											<end>2450</end>
											<masterclipid>Raw Interview Matthew Duepner342</masterclipid>
											<logginginfo>
												<scene/>
												<shottake/>
												<lognote/>
												<good>FALSE</good>
											</logginginfo>
											<labels>
												<label2/>
											</labels>
											<comments>
												<mastercomment1/>
												<mastercomment2/>
												<mastercomment3/>
												<mastercomment4/>
											</comments>
											<file id="YIN_2013-05-28_LG-5 "/>
											<filter>
												<effect>
													<name>Audio Levels</name>
													<effectid>audiolevels</effectid>
													<effectcategory>audiolevels</effectcategory>
													<effecttype>audiolevels</effecttype>
													<mediatype>audio</mediatype>
													<parameter>
														<name>Level</name>
														<parameterid>level</parameterid>
														<valuemin>0</valuemin>
														<valuemax>3.98109</valuemax>
														<value>1</value>
													</parameter>
												</effect>
											</filter>
											<filter>
												<effect>
													<name>Audio Pan</name>
													<effectid>audiopan</effectid>
													<effectcategory>audiopan</effectcategory>
													<effecttype>audiopan</effecttype>
													<mediatype>audio</mediatype>
													<parameter>
														<name>Pan</name>
														<parameterid>pan</parameterid>
														<valuemin>-1</valuemin>
														<valuemax>1</valuemax>
														<value>-0</value>
													</parameter>
												</effect>
											</filter>
											<sourcetrack>
												<mediatype>audio</mediatype>
												<trackindex>2</trackindex>
											</sourcetrack>
											<link>
												<linkclipref>Raw Interview Matthew Duepner68</linkclipref>
												<mediatype>video</mediatype>
												<trackindex>1</trackindex>
												<clipindex>18</clipindex>
											</link>
											<link>
												<linkclipref>Raw Interview Matthew Duepner70</linkclipref>
												<mediatype>audio</mediatype>
												<trackindex>1</trackindex>
												<clipindex>18</clipindex>
												<groupindex>1</groupindex>
											</link>
											<link>
												<linkclipref>Raw Interview Matthew Duepner71</linkclipref>
												<mediatype>audio</mediatype>
												<trackindex>2</trackindex>
												<clipindex>18</clipindex>
												<groupindex>1</groupindex>
											</link>
											<itemhistory>
												<uuid>26732D5C-4E9C-454E-9734-65B4781A85C6</uuid>
											</itemhistory>
										</clipitem>
										<clipitem id="Raw Interview Matthew Duepner75">
											<name>Raw Interview Matthew Duepner</name>
											<duration>81486</duration>
											<rate>
												<ntsc>TRUE</ntsc>
												<timebase>24</timebase>
											</rate>
											<in>20313</in>
											<out>20815</out>
											<start>2450</start>
											<end>2952</end>
											<masterclipid>Raw Interview Matthew Duepner343</masterclipid>
											<logginginfo>
												<scene/>
												<shottake/>
												<lognote/>
												<good>FALSE</good>
											</logginginfo>
											<labels>
												<label2/>
											</labels>
											<comments>
												<mastercomment1/>
												<mastercomment2/>
												<mastercomment3/>
												<mastercomment4/>
											</comments>
											<file id="YIN_2013-05-28_LG-5 "/>
											<filter>
												<effect>
													<name>Audio Levels</name>
													<effectid>audiolevels</effectid>
													<effectcategory>audiolevels</effectcategory>
													<effecttype>audiolevels</effecttype>
													<mediatype>audio</mediatype>
													<parameter>
														<name>Level</name>
														<parameterid>level</parameterid>
														<valuemin>0</valuemin>
														<valuemax>3.98109</valuemax>
														<value>1</value>
													</parameter>
												</effect>
											</filter>
											<filter>
												<effect>
													<name>Audio Pan</name>
													<effectid>audiopan</effectid>
													<effectcategory>audiopan</effectcategory>
													<effecttype>audiopan</effecttype>
													<mediatype>audio</mediatype>
													<parameter>
														<name>Pan</name>
														<parameterid>pan</parameterid>
														<valuemin>-1</valuemin>
														<valuemax>1</valuemax>
														<value>-0</value>
													</parameter>
												</effect>
											</filter>
											<sourcetrack>
												<mediatype>audio</mediatype>
												<trackindex>2</trackindex>
											</sourcetrack>
											<link>
												<linkclipref>Raw Interview Matthew Duepner72</linkclipref>
												<mediatype>video</mediatype>
												<trackindex>1</trackindex>
												<clipindex>19</clipindex>
											</link>
											<link>
												<linkclipref>Raw Interview Matthew Duepner74</linkclipref>
												<mediatype>audio</mediatype>
												<trackindex>1</trackindex>
												<clipindex>19</clipindex>
												<groupindex>1</groupindex>
											</link>
											<link>
												<linkclipref>Raw Interview Matthew Duepner75</linkclipref>
												<mediatype>audio</mediatype>
												<trackindex>2</trackindex>
												<clipindex>19</clipindex>
												<groupindex>1</groupindex>
											</link>
											<itemhistory>
												<uuid>57545804-D42C-4181-B3B1-37365A924B74</uuid>
											</itemhistory>
										</clipitem>
										<clipitem id="Raw Interview Matthew Duepner79">
											<name>Raw Interview Matthew Duepner</name>
											<duration>81486</duration>
											<rate>
												<ntsc>TRUE</ntsc>
												<timebase>24</timebase>
											</rate>
											<in>11151</in>
											<out>11298</out>
											<start>2952</start>
											<end>3099</end>
											<masterclipid>Raw Interview Matthew Duepner344</masterclipid>
											<logginginfo>
												<scene/>
												<shottake/>
												<lognote/>
												<good>FALSE</good>
											</logginginfo>
											<labels>
												<label2/>
											</labels>
											<comments>
												<mastercomment1/>
												<mastercomment2/>
												<mastercomment3/>
												<mastercomment4/>
											</comments>
											<file id="YIN_2013-05-28_LG-5 "/>
											<filter>
												<effect>
													<name>Audio Levels</name>
													<effectid>audiolevels</effectid>
													<effectcategory>audiolevels</effectcategory>
													<effecttype>audiolevels</effecttype>
													<mediatype>audio</mediatype>
													<parameter>
														<name>Level</name>
														<parameterid>level</parameterid>
														<valuemin>0</valuemin>
														<valuemax>3.98109</valuemax>
														<value>1</value>
													</parameter>
												</effect>
											</filter>
											<filter>
												<effect>
													<name>Audio Pan</name>
													<effectid>audiopan</effectid>
													<effectcategory>audiopan</effectcategory>
													<effecttype>audiopan</effecttype>
													<mediatype>audio</mediatype>
													<parameter>
														<name>Pan</name>
														<parameterid>pan</parameterid>
														<valuemin>-1</valuemin>
														<valuemax>1</valuemax>
														<value>-0</value>
													</parameter>
												</effect>
											</filter>
											<sourcetrack>
												<mediatype>audio</mediatype>
												<trackindex>2</trackindex>
											</sourcetrack>
											<link>
												<linkclipref>Raw Interview Matthew Duepner76</linkclipref>
												<mediatype>video</mediatype>
												<trackindex>1</trackindex>
												<clipindex>20</clipindex>
											</link>
											<link>
												<linkclipref>Raw Interview Matthew Duepner78</linkclipref>
												<mediatype>audio</mediatype>
												<trackindex>1</trackindex>
												<clipindex>20</clipindex>
												<groupindex>1</groupindex>
											</link>
											<link>
												<linkclipref>Raw Interview Matthew Duepner79</linkclipref>
												<mediatype>audio</mediatype>
												<trackindex>2</trackindex>
												<clipindex>20</clipindex>
												<groupindex>1</groupindex>
											</link>
											<itemhistory>
												<uuid>5ECD6569-90FF-4442-9977-A9873389C995</uuid>
											</itemhistory>
										</clipitem>
										<clipitem id="Raw Interview Matthew Duepner83">
											<name>Raw Interview Matthew Duepner</name>
											<duration>81486</duration>
											<rate>
												<ntsc>TRUE</ntsc>
												<timebase>24</timebase>
											</rate>
											<in>21014</in>
											<out>21125</out>
											<start>3131</start>
											<end>3242</end>
											<masterclipid>Raw Interview Matthew Duepner345</masterclipid>
											<logginginfo>
												<scene/>
												<shottake/>
												<lognote/>
												<good>FALSE</good>
											</logginginfo>
											<labels>
												<label2/>
											</labels>
											<comments>
												<mastercomment1/>
												<mastercomment2/>
												<mastercomment3/>
												<mastercomment4/>
											</comments>
											<file id="YIN_2013-05-28_LG-5 "/>
											<filter>
												<effect>
													<name>Audio Levels</name>
													<effectid>audiolevels</effectid>
													<effectcategory>audiolevels</effectcategory>
													<effecttype>audiolevels</effecttype>
													<mediatype>audio</mediatype>
													<parameter>
														<name>Level</name>
														<parameterid>level</parameterid>
														<valuemin>0</valuemin>
														<valuemax>3.98109</valuemax>
														<value>1</value>
													</parameter>
												</effect>
											</filter>
											<filter>
												<effect>
													<name>Audio Pan</name>
													<effectid>audiopan</effectid>
													<effectcategory>audiopan</effectcategory>
													<effecttype>audiopan</effecttype>
													<mediatype>audio</mediatype>
													<parameter>
														<name>Pan</name>
														<parameterid>pan</parameterid>
														<valuemin>-1</valuemin>
														<valuemax>1</valuemax>
														<value>-0</value>
													</parameter>
												</effect>
											</filter>
											<sourcetrack>
												<mediatype>audio</mediatype>
												<trackindex>2</trackindex>
											</sourcetrack>
											<link>
												<linkclipref>Raw Interview Matthew Duepner80</linkclipref>
												<mediatype>video</mediatype>
												<trackindex>1</trackindex>
												<clipindex>21</clipindex>
											</link>
											<link>
												<linkclipref>Raw Interview Matthew Duepner82</linkclipref>
												<mediatype>audio</mediatype>
												<trackindex>1</trackindex>
												<clipindex>21</clipindex>
												<groupindex>1</groupindex>
											</link>
											<link>
												<linkclipref>Raw Interview Matthew Duepner83</linkclipref>
												<mediatype>audio</mediatype>
												<trackindex>2</trackindex>
												<clipindex>21</clipindex>
												<groupindex>1</groupindex>
											</link>
											<itemhistory>
												<uuid>8130487A-A388-44AE-836E-D8C803104244</uuid>
											</itemhistory>
										</clipitem>
										<clipitem id="Raw Interview Matthew Duepner87">
											<name>Raw Interview Matthew Duepner</name>
											<duration>81486</duration>
											<rate>
												<ntsc>TRUE</ntsc>
												<timebase>24</timebase>
											</rate>
											<in>20982</in>
											<out>21013</out>
											<start>3245</start>
											<end>3276</end>
											<masterclipid>Raw Interview Matthew Duepner346</masterclipid>
											<logginginfo>
												<scene/>
												<shottake/>
												<lognote/>
												<good>FALSE</good>
											</logginginfo>
											<labels>
												<label2/>
											</labels>
											<comments>
												<mastercomment1/>
												<mastercomment2/>
												<mastercomment3/>
												<mastercomment4/>
											</comments>
											<file id="YIN_2013-05-28_LG-5 "/>
											<filter>
												<effect>
													<name>Audio Levels</name>
													<effectid>audiolevels</effectid>
													<effectcategory>audiolevels</effectcategory>
													<effecttype>audiolevels</effecttype>
													<mediatype>audio</mediatype>
													<parameter>
														<name>Level</name>
														<parameterid>level</parameterid>
														<valuemin>0</valuemin>
														<valuemax>3.98109</valuemax>
														<value>1</value>
													</parameter>
												</effect>
											</filter>
											<filter>
												<effect>
													<name>Audio Pan</name>
													<effectid>audiopan</effectid>
													<effectcategory>audiopan</effectcategory>
													<effecttype>audiopan</effecttype>
													<mediatype>audio</mediatype>
													<parameter>
														<name>Pan</name>
														<parameterid>pan</parameterid>
														<valuemin>-1</valuemin>
														<valuemax>1</valuemax>
														<value>-0</value>
													</parameter>
												</effect>
											</filter>
											<sourcetrack>
												<mediatype>audio</mediatype>
												<trackindex>2</trackindex>
											</sourcetrack>
											<link>
												<linkclipref>Raw Interview Matthew Duepner84</linkclipref>
												<mediatype>video</mediatype>
												<trackindex>1</trackindex>
												<clipindex>22</clipindex>
											</link>
											<link>
												<linkclipref>Raw Interview Matthew Duepner86</linkclipref>
												<mediatype>audio</mediatype>
												<trackindex>1</trackindex>
												<clipindex>22</clipindex>
												<groupindex>1</groupindex>
											</link>
											<link>
												<linkclipref>Raw Interview Matthew Duepner87</linkclipref>
												<mediatype>audio</mediatype>
												<trackindex>2</trackindex>
												<clipindex>22</clipindex>
												<groupindex>1</groupindex>
											</link>
											<itemhistory>
												<uuid>CF8D1D3F-7D6F-4709-AF62-D7E205C22076</uuid>
											</itemhistory>
										</clipitem>
										<clipitem id="Raw Interview Matthew Duepner91">
											<name>Raw Interview Matthew Duepner</name>
											<duration>81486</duration>
											<rate>
												<ntsc>TRUE</ntsc>
												<timebase>24</timebase>
											</rate>
											<in>21714</in>
											<out>21826</out>
											<start>3276</start>
											<end>3388</end>
											<masterclipid>Raw Interview Matthew Duepner347</masterclipid>
											<logginginfo>
												<scene/>
												<shottake/>
												<lognote/>
												<good>FALSE</good>
											</logginginfo>
											<labels>
												<label2/>
											</labels>
											<comments>
												<mastercomment1/>
												<mastercomment2/>
												<mastercomment3/>
												<mastercomment4/>
											</comments>
											<file id="YIN_2013-05-28_LG-5 "/>
											<filter>
												<effect>
													<name>Audio Levels</name>
													<effectid>audiolevels</effectid>
													<effectcategory>audiolevels</effectcategory>
													<effecttype>audiolevels</effecttype>
													<mediatype>audio</mediatype>
													<parameter>
														<name>Level</name>
														<parameterid>level</parameterid>
														<valuemin>0</valuemin>
														<valuemax>3.98109</valuemax>
														<value>1</value>
													</parameter>
												</effect>
											</filter>
											<filter>
												<effect>
													<name>Audio Pan</name>
													<effectid>audiopan</effectid>
													<effectcategory>audiopan</effectcategory>
													<effecttype>audiopan</effecttype>
													<mediatype>audio</mediatype>
													<parameter>
														<name>Pan</name>
														<parameterid>pan</parameterid>
														<valuemin>-1</valuemin>
														<valuemax>1</valuemax>
														<value>-0</value>
													</parameter>
												</effect>
											</filter>
											<sourcetrack>
												<mediatype>audio</mediatype>
												<trackindex>2</trackindex>
											</sourcetrack>
											<link>
												<linkclipref>Raw Interview Matthew Duepner88</linkclipref>
												<mediatype>video</mediatype>
												<trackindex>1</trackindex>
												<clipindex>23</clipindex>
											</link>
											<link>
												<linkclipref>Raw Interview Matthew Duepner90</linkclipref>
												<mediatype>audio</mediatype>
												<trackindex>1</trackindex>
												<clipindex>23</clipindex>
												<groupindex>1</groupindex>
											</link>
											<link>
												<linkclipref>Raw Interview Matthew Duepner91</linkclipref>
												<mediatype>audio</mediatype>
												<trackindex>2</trackindex>
												<clipindex>23</clipindex>
												<groupindex>1</groupindex>
											</link>
											<itemhistory>
												<uuid>526ECB5E-ADB4-4E27-809C-BC2D3201AD6C</uuid>
											</itemhistory>
										</clipitem>
										<clipitem id="Raw Interview Matthew Duepner95">
											<name>Raw Interview Matthew Duepner</name>
											<duration>81486</duration>
											<rate>
												<ntsc>TRUE</ntsc>
												<timebase>24</timebase>
											</rate>
											<in>22225</in>
											<out>22353</out>
											<start>3388</start>
											<end>3516</end>
											<masterclipid>Raw Interview Matthew Duepner348</masterclipid>
											<logginginfo>
												<scene/>
												<shottake/>
												<lognote/>
												<good>FALSE</good>
											</logginginfo>
											<labels>
												<label2/>
											</labels>
											<comments>
												<mastercomment1/>
												<mastercomment2/>
												<mastercomment3/>
												<mastercomment4/>
											</comments>
											<file id="YIN_2013-05-28_LG-5 "/>
											<filter>
												<effect>
													<name>Audio Levels</name>
													<effectid>audiolevels</effectid>
													<effectcategory>audiolevels</effectcategory>
													<effecttype>audiolevels</effecttype>
													<mediatype>audio</mediatype>
													<parameter>
														<name>Level</name>
														<parameterid>level</parameterid>
														<valuemin>0</valuemin>
														<valuemax>3.98109</valuemax>
														<value>1</value>
													</parameter>
												</effect>
											</filter>
											<filter>
												<effect>
													<name>Audio Pan</name>
													<effectid>audiopan</effectid>
													<effectcategory>audiopan</effectcategory>
													<effecttype>audiopan</effecttype>
													<mediatype>audio</mediatype>
													<parameter>
														<name>Pan</name>
														<parameterid>pan</parameterid>
														<valuemin>-1</valuemin>
														<valuemax>1</valuemax>
														<value>-0</value>
													</parameter>
												</effect>
											</filter>
											<sourcetrack>
												<mediatype>audio</mediatype>
												<trackindex>2</trackindex>
											</sourcetrack>
											<link>
												<linkclipref>Raw Interview Matthew Duepner92</linkclipref>
												<mediatype>video</mediatype>
												<trackindex>1</trackindex>
												<clipindex>24</clipindex>
											</link>
											<link>
												<linkclipref>Raw Interview Matthew Duepner94</linkclipref>
												<mediatype>audio</mediatype>
												<trackindex>1</trackindex>
												<clipindex>24</clipindex>
												<groupindex>1</groupindex>
											</link>
											<link>
												<linkclipref>Raw Interview Matthew Duepner95</linkclipref>
												<mediatype>audio</mediatype>
												<trackindex>2</trackindex>
												<clipindex>24</clipindex>
												<groupindex>1</groupindex>
											</link>
											<itemhistory>
												<uuid>60B885EB-EDC0-412E-ADA9-612B1BD0CA7A</uuid>
											</itemhistory>
										</clipitem>
										<clipitem id="Raw Interview Matthew Duepner99">
											<name>Raw Interview Matthew Duepner</name>
											<duration>81486</duration>
											<rate>
												<ntsc>TRUE</ntsc>
												<timebase>24</timebase>
											</rate>
											<in>22806</in>
											<out>23027</out>
											<start>3516</start>
											<end>3737</end>
											<masterclipid>Raw Interview Matthew Duepner349</masterclipid>
											<logginginfo>
												<scene/>
												<shottake/>
												<lognote/>
												<good>FALSE</good>
											</logginginfo>
											<labels>
												<label2/>
											</labels>
											<comments>
												<mastercomment1/>
												<mastercomment2/>
												<mastercomment3/>
												<mastercomment4/>
											</comments>
											<file id="YIN_2013-05-28_LG-5 "/>
											<filter>
												<effect>
													<name>Audio Levels</name>
													<effectid>audiolevels</effectid>
													<effectcategory>audiolevels</effectcategory>
													<effecttype>audiolevels</effecttype>
													<mediatype>audio</mediatype>
													<parameter>
														<name>Level</name>
														<parameterid>level</parameterid>
														<valuemin>0</valuemin>
														<valuemax>3.98109</valuemax>
														<value>1</value>
													</parameter>
												</effect>
											</filter>
											<filter>
												<effect>
													<name>Audio Pan</name>
													<effectid>audiopan</effectid>
													<effectcategory>audiopan</effectcategory>
													<effecttype>audiopan</effecttype>
													<mediatype>audio</mediatype>
													<parameter>
														<name>Pan</name>
														<parameterid>pan</parameterid>
														<valuemin>-1</valuemin>
														<valuemax>1</valuemax>
														<value>-0</value>
													</parameter>
												</effect>
											</filter>
											<sourcetrack>
												<mediatype>audio</mediatype>
												<trackindex>2</trackindex>
											</sourcetrack>
											<link>
												<linkclipref>Raw Interview Matthew Duepner96</linkclipref>
												<mediatype>video</mediatype>
												<trackindex>1</trackindex>
												<clipindex>25</clipindex>
											</link>
											<link>
												<linkclipref>Raw Interview Matthew Duepner98</linkclipref>
												<mediatype>audio</mediatype>
												<trackindex>1</trackindex>
												<clipindex>25</clipindex>
												<groupindex>1</groupindex>
											</link>
											<link>
												<linkclipref>Raw Interview Matthew Duepner99</linkclipref>
												<mediatype>audio</mediatype>
												<trackindex>2</trackindex>
												<clipindex>25</clipindex>
												<groupindex>1</groupindex>
											</link>
											<itemhistory>
												<uuid>35D5F675-2F5B-4872-985A-31F447DF9F04</uuid>
											</itemhistory>
										</clipitem>
										<clipitem id="Raw Interview Matthew Duepner103">
											<name>Raw Interview Matthew Duepner</name>
											<duration>81486</duration>
											<rate>
												<ntsc>TRUE</ntsc>
												<timebase>24</timebase>
											</rate>
											<in>24285</in>
											<out>24488</out>
											<start>3737</start>
											<end>3940</end>
											<masterclipid>Raw Interview Matthew Duepner350</masterclipid>
											<logginginfo>
												<scene/>
												<shottake/>
												<lognote/>
												<good>FALSE</good>
											</logginginfo>
											<labels>
												<label2/>
											</labels>
											<comments>
												<mastercomment1/>
												<mastercomment2/>
												<mastercomment3/>
												<mastercomment4/>
											</comments>
											<file id="YIN_2013-05-28_LG-5 "/>
											<filter>
												<effect>
													<name>Audio Levels</name>
													<effectid>audiolevels</effectid>
													<effectcategory>audiolevels</effectcategory>
													<effecttype>audiolevels</effecttype>
													<mediatype>audio</mediatype>
													<parameter>
														<name>Level</name>
														<parameterid>level</parameterid>
														<valuemin>0</valuemin>
														<valuemax>3.98109</valuemax>
														<value>1</value>
													</parameter>
												</effect>
											</filter>
											<filter>
												<effect>
													<name>Audio Pan</name>
													<effectid>audiopan</effectid>
													<effectcategory>audiopan</effectcategory>
													<effecttype>audiopan</effecttype>
													<mediatype>audio</mediatype>
													<parameter>
														<name>Pan</name>
														<parameterid>pan</parameterid>
														<valuemin>-1</valuemin>
														<valuemax>1</valuemax>
														<value>-0</value>
													</parameter>
												</effect>
											</filter>
											<sourcetrack>
												<mediatype>audio</mediatype>
												<trackindex>2</trackindex>
											</sourcetrack>
											<link>
												<linkclipref>Raw Interview Matthew Duepner100</linkclipref>
												<mediatype>video</mediatype>
												<trackindex>1</trackindex>
												<clipindex>26</clipindex>
											</link>
											<link>
												<linkclipref>Raw Interview Matthew Duepner102</linkclipref>
												<mediatype>audio</mediatype>
												<trackindex>1</trackindex>
												<clipindex>26</clipindex>
												<groupindex>1</groupindex>
											</link>
											<link>
												<linkclipref>Raw Interview Matthew Duepner103</linkclipref>
												<mediatype>audio</mediatype>
												<trackindex>2</trackindex>
												<clipindex>26</clipindex>
												<groupindex>1</groupindex>
											</link>
											<itemhistory>
												<uuid>0DFE028C-6AF1-468F-8945-DF7AFEE8496B</uuid>
											</itemhistory>
										</clipitem>
										<clipitem id="Raw Interview Matthew Duepner107">
											<name>Raw Interview Matthew Duepner</name>
											<duration>81486</duration>
											<rate>
												<ntsc>TRUE</ntsc>
												<timebase>24</timebase>
											</rate>
											<in>24734</in>
											<out>25029</out>
											<start>3940</start>
											<end>4235</end>
											<masterclipid>Raw Interview Matthew Duepner351</masterclipid>
											<logginginfo>
												<scene/>
												<shottake/>
												<lognote/>
												<good>FALSE</good>
											</logginginfo>
											<labels>
												<label2/>
											</labels>
											<comments>
												<mastercomment1/>
												<mastercomment2/>
												<mastercomment3/>
												<mastercomment4/>
											</comments>
											<file id="YIN_2013-05-28_LG-5 "/>
											<filter>
												<effect>
													<name>Audio Levels</name>
													<effectid>audiolevels</effectid>
													<effectcategory>audiolevels</effectcategory>
													<effecttype>audiolevels</effecttype>
													<mediatype>audio</mediatype>
													<parameter>
														<name>Level</name>
														<parameterid>level</parameterid>
														<valuemin>0</valuemin>
														<valuemax>3.98109</valuemax>
														<value>1</value>
													</parameter>
												</effect>
											</filter>
											<filter>
												<effect>
													<name>Audio Pan</name>
													<effectid>audiopan</effectid>
													<effectcategory>audiopan</effectcategory>
													<effecttype>audiopan</effecttype>
													<mediatype>audio</mediatype>
													<parameter>
														<name>Pan</name>
														<parameterid>pan</parameterid>
														<valuemin>-1</valuemin>
														<valuemax>1</valuemax>
														<value>-0</value>
													</parameter>
												</effect>
											</filter>
											<sourcetrack>
												<mediatype>audio</mediatype>
												<trackindex>2</trackindex>
											</sourcetrack>
											<link>
												<linkclipref>Raw Interview Matthew Duepner104</linkclipref>
												<mediatype>video</mediatype>
												<trackindex>1</trackindex>
												<clipindex>27</clipindex>
											</link>
											<link>
												<linkclipref>Raw Interview Matthew Duepner106</linkclipref>
												<mediatype>audio</mediatype>
												<trackindex>1</trackindex>
												<clipindex>27</clipindex>
												<groupindex>1</groupindex>
											</link>
											<link>
												<linkclipref>Raw Interview Matthew Duepner107</linkclipref>
												<mediatype>audio</mediatype>
												<trackindex>2</trackindex>
												<clipindex>27</clipindex>
												<groupindex>1</groupindex>
											</link>
											<itemhistory>
												<uuid>C5F5CB9C-5C80-4AB4-860A-9FC6B2B495B4</uuid>
											</itemhistory>
										</clipitem>
										<clipitem id="Raw Interview Matthew Duepner111">
											<name>Raw Interview Matthew Duepner</name>
											<duration>81486</duration>
											<rate>
												<ntsc>TRUE</ntsc>
												<timebase>24</timebase>
											</rate>
											<in>23029</in>
											<out>23131</out>
											<start>4235</start>
											<end>4337</end>
											<masterclipid>Raw Interview Matthew Duepner352</masterclipid>
											<logginginfo>
												<scene/>
												<shottake/>
												<lognote/>
												<good>FALSE</good>
											</logginginfo>
											<labels>
												<label2/>
											</labels>
											<comments>
												<mastercomment1/>
												<mastercomment2/>
												<mastercomment3/>
												<mastercomment4/>
											</comments>
											<file id="YIN_2013-05-28_LG-5 "/>
											<filter>
												<effect>
													<name>Audio Levels</name>
													<effectid>audiolevels</effectid>
													<effectcategory>audiolevels</effectcategory>
													<effecttype>audiolevels</effecttype>
													<mediatype>audio</mediatype>
													<parameter>
														<name>Level</name>
														<parameterid>level</parameterid>
														<valuemin>0</valuemin>
														<valuemax>3.98109</valuemax>
														<value>1</value>
													</parameter>
												</effect>
											</filter>
											<filter>
												<effect>
													<name>Audio Pan</name>
													<effectid>audiopan</effectid>
													<effectcategory>audiopan</effectcategory>
													<effecttype>audiopan</effecttype>
													<mediatype>audio</mediatype>
													<parameter>
														<name>Pan</name>
														<parameterid>pan</parameterid>
														<valuemin>-1</valuemin>
														<valuemax>1</valuemax>
														<value>-0</value>
													</parameter>
												</effect>
											</filter>
											<sourcetrack>
												<mediatype>audio</mediatype>
												<trackindex>2</trackindex>
											</sourcetrack>
											<link>
												<linkclipref>Raw Interview Matthew Duepner108</linkclipref>
												<mediatype>video</mediatype>
												<trackindex>1</trackindex>
												<clipindex>28</clipindex>
											</link>
											<link>
												<linkclipref>Raw Interview Matthew Duepner110</linkclipref>
												<mediatype>audio</mediatype>
												<trackindex>1</trackindex>
												<clipindex>28</clipindex>
												<groupindex>1</groupindex>
											</link>
											<link>
												<linkclipref>Raw Interview Matthew Duepner111</linkclipref>
												<mediatype>audio</mediatype>
												<trackindex>2</trackindex>
												<clipindex>28</clipindex>
												<groupindex>1</groupindex>
											</link>
											<itemhistory>
												<uuid>1F5EEA26-6CFB-488D-AF85-A44678587FE2</uuid>
											</itemhistory>
										</clipitem>
										<clipitem id="Raw Interview Matthew Duepner115">
											<name>Raw Interview Matthew Duepner</name>
											<duration>81486</duration>
											<rate>
												<ntsc>TRUE</ntsc>
												<timebase>24</timebase>
											</rate>
											<in>1221</in>
											<out>1396</out>
											<start>4440</start>
											<end>4615</end>
											<masterclipid>Raw Interview Matthew Duepner353</masterclipid>
											<logginginfo>
												<scene/>
												<shottake/>
												<lognote/>
												<good>FALSE</good>
											</logginginfo>
											<labels>
												<label2/>
											</labels>
											<comments>
												<mastercomment1/>
												<mastercomment2/>
												<mastercomment3/>
												<mastercomment4/>
											</comments>
											<file id="YIN_2013-05-28_LG-5 "/>
											<filter>
												<effect>
													<name>Audio Levels</name>
													<effectid>audiolevels</effectid>
													<effectcategory>audiolevels</effectcategory>
													<effecttype>audiolevels</effecttype>
													<mediatype>audio</mediatype>
													<parameter>
														<name>Level</name>
														<parameterid>level</parameterid>
														<valuemin>0</valuemin>
														<valuemax>3.98109</valuemax>
														<value>1</value>
													</parameter>
												</effect>
											</filter>
											<filter>
												<effect>
													<name>Audio Pan</name>
													<effectid>audiopan</effectid>
													<effectcategory>audiopan</effectcategory>
													<effecttype>audiopan</effecttype>
													<mediatype>audio</mediatype>
													<parameter>
														<name>Pan</name>
														<parameterid>pan</parameterid>
														<valuemin>-1</valuemin>
														<valuemax>1</valuemax>
														<value>-0</value>
													</parameter>
												</effect>
											</filter>
											<sourcetrack>
												<mediatype>audio</mediatype>
												<trackindex>2</trackindex>
											</sourcetrack>
											<link>
												<linkclipref>Raw Interview Matthew Duepner112</linkclipref>
												<mediatype>video</mediatype>
												<trackindex>1</trackindex>
												<clipindex>29</clipindex>
											</link>
											<link>
												<linkclipref>Raw Interview Matthew Duepner114</linkclipref>
												<mediatype>audio</mediatype>
												<trackindex>1</trackindex>
												<clipindex>29</clipindex>
												<groupindex>1</groupindex>
											</link>
											<link>
												<linkclipref>Raw Interview Matthew Duepner115</linkclipref>
												<mediatype>audio</mediatype>
												<trackindex>2</trackindex>
												<clipindex>29</clipindex>
												<groupindex>1</groupindex>
											</link>
											<itemhistory>
												<uuid>4DC5088C-B8D3-42CE-89ED-283D4808B799</uuid>
											</itemhistory>
										</clipitem>
										<clipitem id="Raw Interview Matthew Duepner119">
											<name>Raw Interview Matthew Duepner</name>
											<duration>81486</duration>
											<rate>
												<ntsc>TRUE</ntsc>
												<timebase>24</timebase>
											</rate>
											<in>5143</in>
											<out>5320</out>
											<start>4615</start>
											<end>4792</end>
											<masterclipid>Raw Interview Matthew Duepner354</masterclipid>
											<logginginfo>
												<scene/>
												<shottake/>
												<lognote/>
												<good>FALSE</good>
											</logginginfo>
											<labels>
												<label2/>
											</labels>
											<comments>
												<mastercomment1/>
												<mastercomment2/>
												<mastercomment3/>
												<mastercomment4/>
											</comments>
											<file id="YIN_2013-05-28_LG-5 "/>
											<filter>
												<effect>
													<name>Audio Levels</name>
													<effectid>audiolevels</effectid>
													<effectcategory>audiolevels</effectcategory>
													<effecttype>audiolevels</effecttype>
													<mediatype>audio</mediatype>
													<parameter>
														<name>Level</name>
														<parameterid>level</parameterid>
														<valuemin>0</valuemin>
														<valuemax>3.98109</valuemax>
														<value>1</value>
													</parameter>
												</effect>
											</filter>
											<filter>
												<effect>
													<name>Audio Pan</name>
													<effectid>audiopan</effectid>
													<effectcategory>audiopan</effectcategory>
													<effecttype>audiopan</effecttype>
													<mediatype>audio</mediatype>
													<parameter>
														<name>Pan</name>
														<parameterid>pan</parameterid>
														<valuemin>-1</valuemin>
														<valuemax>1</valuemax>
														<value>-0</value>
													</parameter>
												</effect>
											</filter>
											<sourcetrack>
												<mediatype>audio</mediatype>
												<trackindex>2</trackindex>
											</sourcetrack>
											<link>
												<linkclipref>Raw Interview Matthew Duepner116</linkclipref>
												<mediatype>video</mediatype>
												<trackindex>1</trackindex>
												<clipindex>30</clipindex>
											</link>
											<link>
												<linkclipref>Raw Interview Matthew Duepner118</linkclipref>
												<mediatype>audio</mediatype>
												<trackindex>1</trackindex>
												<clipindex>30</clipindex>
												<groupindex>1</groupindex>
											</link>
											<link>
												<linkclipref>Raw Interview Matthew Duepner119</linkclipref>
												<mediatype>audio</mediatype>
												<trackindex>2</trackindex>
												<clipindex>30</clipindex>
												<groupindex>1</groupindex>
											</link>
											<itemhistory>
												<uuid>63A9A9DC-9563-4206-B5CD-06C519B087C6</uuid>
											</itemhistory>
										</clipitem>
										<clipitem id="Raw Interview Matthew Duepner123">
											<name>Raw Interview Matthew Duepner</name>
											<duration>81486</duration>
											<rate>
												<ntsc>TRUE</ntsc>
												<timebase>24</timebase>
											</rate>
											<in>17964</in>
											<out>18186</out>
											<start>4824</start>
											<end>5046</end>
											<masterclipid>Raw Interview Matthew Duepner355</masterclipid>
											<logginginfo>
												<scene/>
												<shottake/>
												<lognote/>
												<good>FALSE</good>
											</logginginfo>
											<labels>
												<label2/>
											</labels>
											<comments>
												<mastercomment1/>
												<mastercomment2/>
												<mastercomment3/>
												<mastercomment4/>
											</comments>
											<file id="YIN_2013-05-28_LG-5 "/>
											<filter>
												<effect>
													<name>Audio Levels</name>
													<effectid>audiolevels</effectid>
													<effectcategory>audiolevels</effectcategory>
													<effecttype>audiolevels</effecttype>
													<mediatype>audio</mediatype>
													<parameter>
														<name>Level</name>
														<parameterid>level</parameterid>
														<valuemin>0</valuemin>
														<valuemax>3.98109</valuemax>
														<value>1</value>
													</parameter>
												</effect>
											</filter>
											<filter>
												<effect>
													<name>Audio Pan</name>
													<effectid>audiopan</effectid>
													<effectcategory>audiopan</effectcategory>
													<effecttype>audiopan</effecttype>
													<mediatype>audio</mediatype>
													<parameter>
														<name>Pan</name>
														<parameterid>pan</parameterid>
														<valuemin>-1</valuemin>
														<valuemax>1</valuemax>
														<value>-0</value>
													</parameter>
												</effect>
											</filter>
											<sourcetrack>
												<mediatype>audio</mediatype>
												<trackindex>2</trackindex>
											</sourcetrack>
											<link>
												<linkclipref>Raw Interview Matthew Duepner120</linkclipref>
												<mediatype>video</mediatype>
												<trackindex>1</trackindex>
												<clipindex>31</clipindex>
											</link>
											<link>
												<linkclipref>Raw Interview Matthew Duepner122</linkclipref>
												<mediatype>audio</mediatype>
												<trackindex>1</trackindex>
												<clipindex>31</clipindex>
												<groupindex>1</groupindex>
											</link>
											<link>
												<linkclipref>Raw Interview Matthew Duepner123</linkclipref>
												<mediatype>audio</mediatype>
												<trackindex>2</trackindex>
												<clipindex>31</clipindex>
												<groupindex>1</groupindex>
											</link>
											<itemhistory>
												<uuid>872EC7A3-5783-4E92-84ED-1CBD74DEBE2A</uuid>
											</itemhistory>
										</clipitem>
										<clipitem id="Raw Interview Matthew Duepner127">
											<name>Raw Interview Matthew Duepner</name>
											<duration>81486</duration>
											<rate>
												<ntsc>TRUE</ntsc>
												<timebase>24</timebase>
											</rate>
											<in>18235</in>
											<out>18405</out>
											<start>5046</start>
											<end>5216</end>
											<masterclipid>Raw Interview Matthew Duepner356</masterclipid>
											<logginginfo>
												<scene/>
												<shottake/>
												<lognote/>
												<good>FALSE</good>
											</logginginfo>
											<labels>
												<label2/>
											</labels>
											<comments>
												<mastercomment1/>
												<mastercomment2/>
												<mastercomment3/>
												<mastercomment4/>
											</comments>
											<file id="YIN_2013-05-28_LG-5 "/>
											<filter>
												<effect>
													<name>Audio Levels</name>
													<effectid>audiolevels</effectid>
													<effectcategory>audiolevels</effectcategory>
													<effecttype>audiolevels</effecttype>
													<mediatype>audio</mediatype>
													<parameter>
														<name>Level</name>
														<parameterid>level</parameterid>
														<valuemin>0</valuemin>
														<valuemax>3.98109</valuemax>
														<value>1</value>
													</parameter>
												</effect>
											</filter>
											<filter>
												<effect>
													<name>Audio Pan</name>
													<effectid>audiopan</effectid>
													<effectcategory>audiopan</effectcategory>
													<effecttype>audiopan</effecttype>
													<mediatype>audio</mediatype>
													<parameter>
														<name>Pan</name>
														<parameterid>pan</parameterid>
														<valuemin>-1</valuemin>
														<valuemax>1</valuemax>
														<value>-0</value>
													</parameter>
												</effect>
											</filter>
											<sourcetrack>
												<mediatype>audio</mediatype>
												<trackindex>2</trackindex>
											</sourcetrack>
											<link>
												<linkclipref>Raw Interview Matthew Duepner124</linkclipref>
												<mediatype>video</mediatype>
												<trackindex>1</trackindex>
												<clipindex>32</clipindex>
											</link>
											<link>
												<linkclipref>Raw Interview Matthew Duepner126</linkclipref>
												<mediatype>audio</mediatype>
												<trackindex>1</trackindex>
												<clipindex>32</clipindex>
												<groupindex>1</groupindex>
											</link>
											<link>
												<linkclipref>Raw Interview Matthew Duepner127</linkclipref>
												<mediatype>audio</mediatype>
												<trackindex>2</trackindex>
												<clipindex>32</clipindex>
												<groupindex>1</groupindex>
											</link>
											<itemhistory>
												<uuid>FC4132FD-0894-40DD-BBE2-28BB9090D011</uuid>
											</itemhistory>
										</clipitem>
										<clipitem id="Raw Interview Matthew Duepner131">
											<name>Raw Interview Matthew Duepner</name>
											<duration>81486</duration>
											<rate>
												<ntsc>TRUE</ntsc>
												<timebase>24</timebase>
											</rate>
											<in>18444</in>
											<out>18613</out>
											<start>5216</start>
											<end>5385</end>
											<masterclipid>Raw Interview Matthew Duepner357</masterclipid>
											<logginginfo>
												<scene/>
												<shottake/>
												<lognote/>
												<good>FALSE</good>
											</logginginfo>
											<labels>
												<label2/>
											</labels>
											<comments>
												<mastercomment1/>
												<mastercomment2/>
												<mastercomment3/>
												<mastercomment4/>
											</comments>
											<file id="YIN_2013-05-28_LG-5 "/>
											<filter>
												<effect>
													<name>Audio Levels</name>
													<effectid>audiolevels</effectid>
													<effectcategory>audiolevels</effectcategory>
													<effecttype>audiolevels</effecttype>
													<mediatype>audio</mediatype>
													<parameter>
														<name>Level</name>
														<parameterid>level</parameterid>
														<valuemin>0</valuemin>
														<valuemax>3.98109</valuemax>
														<value>1</value>
													</parameter>
												</effect>
											</filter>
											<filter>
												<effect>
													<name>Audio Pan</name>
													<effectid>audiopan</effectid>
													<effectcategory>audiopan</effectcategory>
													<effecttype>audiopan</effecttype>
													<mediatype>audio</mediatype>
													<parameter>
														<name>Pan</name>
														<parameterid>pan</parameterid>
														<valuemin>-1</valuemin>
														<valuemax>1</valuemax>
														<value>-0</value>
													</parameter>
												</effect>
											</filter>
											<sourcetrack>
												<mediatype>audio</mediatype>
												<trackindex>2</trackindex>
											</sourcetrack>
											<link>
												<linkclipref>Raw Interview Matthew Duepner128</linkclipref>
												<mediatype>video</mediatype>
												<trackindex>1</trackindex>
												<clipindex>33</clipindex>
											</link>
											<link>
												<linkclipref>Raw Interview Matthew Duepner130</linkclipref>
												<mediatype>audio</mediatype>
												<trackindex>1</trackindex>
												<clipindex>33</clipindex>
												<groupindex>1</groupindex>
											</link>
											<link>
												<linkclipref>Raw Interview Matthew Duepner131</linkclipref>
												<mediatype>audio</mediatype>
												<trackindex>2</trackindex>
												<clipindex>33</clipindex>
												<groupindex>1</groupindex>
											</link>
											<itemhistory>
												<uuid>64787D6D-A614-4605-AC5E-0F1B1A3487C3</uuid>
											</itemhistory>
										</clipitem>
										<clipitem id="Raw Interview Matthew Duepner135">
											<name>Raw Interview Matthew Duepner</name>
											<duration>81486</duration>
											<rate>
												<ntsc>TRUE</ntsc>
												<timebase>24</timebase>
											</rate>
											<in>18645</in>
											<out>18709</out>
											<start>5385</start>
											<end>5449</end>
											<masterclipid>Raw Interview Matthew Duepner358</masterclipid>
											<logginginfo>
												<scene/>
												<shottake/>
												<lognote/>
												<good>FALSE</good>
											</logginginfo>
											<labels>
												<label2/>
											</labels>
											<comments>
												<mastercomment1/>
												<mastercomment2/>
												<mastercomment3/>
												<mastercomment4/>
											</comments>
											<file id="YIN_2013-05-28_LG-5 "/>
											<filter>
												<effect>
													<name>Audio Levels</name>
													<effectid>audiolevels</effectid>
													<effectcategory>audiolevels</effectcategory>
													<effecttype>audiolevels</effecttype>
													<mediatype>audio</mediatype>
													<parameter>
														<name>Level</name>
														<parameterid>level</parameterid>
														<valuemin>0</valuemin>
														<valuemax>3.98109</valuemax>
														<value>1</value>
													</parameter>
												</effect>
											</filter>
											<filter>
												<effect>
													<name>Audio Pan</name>
													<effectid>audiopan</effectid>
													<effectcategory>audiopan</effectcategory>
													<effecttype>audiopan</effecttype>
													<mediatype>audio</mediatype>
													<parameter>
														<name>Pan</name>
														<parameterid>pan</parameterid>
														<valuemin>-1</valuemin>
														<valuemax>1</valuemax>
														<value>-0</value>
													</parameter>
												</effect>
											</filter>
											<sourcetrack>
												<mediatype>audio</mediatype>
												<trackindex>2</trackindex>
											</sourcetrack>
											<link>
												<linkclipref>Raw Interview Matthew Duepner132</linkclipref>
												<mediatype>video</mediatype>
												<trackindex>1</trackindex>
												<clipindex>34</clipindex>
											</link>
											<link>
												<linkclipref>Raw Interview Matthew Duepner134</linkclipref>
												<mediatype>audio</mediatype>
												<trackindex>1</trackindex>
												<clipindex>34</clipindex>
												<groupindex>1</groupindex>
											</link>
											<link>
												<linkclipref>Raw Interview Matthew Duepner135</linkclipref>
												<mediatype>audio</mediatype>
												<trackindex>2</trackindex>
												<clipindex>34</clipindex>
												<groupindex>1</groupindex>
											</link>
											<itemhistory>
												<uuid>FAB680AB-3983-4322-B45E-FC40416DCAE3</uuid>
											</itemhistory>
										</clipitem>
										<clipitem id="Raw Interview Matthew Duepner139">
											<name>Raw Interview Matthew Duepner</name>
											<duration>81486</duration>
											<rate>
												<ntsc>TRUE</ntsc>
												<timebase>24</timebase>
											</rate>
											<in>50956</in>
											<out>51015</out>
											<start>5449</start>
											<end>5508</end>
											<masterclipid>Raw Interview Matthew Duepner359</masterclipid>
											<logginginfo>
												<scene/>
												<shottake/>
												<lognote/>
												<good>FALSE</good>
											</logginginfo>
											<labels>
												<label2/>
											</labels>
											<comments>
												<mastercomment1/>
												<mastercomment2/>
												<mastercomment3/>
												<mastercomment4/>
											</comments>
											<file id="YIN_2013-05-28_LG-5 "/>
											<filter>
												<effect>
													<name>Audio Levels</name>
													<effectid>audiolevels</effectid>
													<effectcategory>audiolevels</effectcategory>
													<effecttype>audiolevels</effecttype>
													<mediatype>audio</mediatype>
													<parameter>
														<name>Level</name>
														<parameterid>level</parameterid>
														<valuemin>0</valuemin>
														<valuemax>3.98109</valuemax>
														<value>1</value>
													</parameter>
												</effect>
											</filter>
											<filter>
												<effect>
													<name>Audio Pan</name>
													<effectid>audiopan</effectid>
													<effectcategory>audiopan</effectcategory>
													<effecttype>audiopan</effecttype>
													<mediatype>audio</mediatype>
													<parameter>
														<name>Pan</name>
														<parameterid>pan</parameterid>
														<valuemin>-1</valuemin>
														<valuemax>1</valuemax>
														<value>-0</value>
													</parameter>
												</effect>
											</filter>
											<sourcetrack>
												<mediatype>audio</mediatype>
												<trackindex>2</trackindex>
											</sourcetrack>
											<link>
												<linkclipref>Raw Interview Matthew Duepner136</linkclipref>
												<mediatype>video</mediatype>
												<trackindex>1</trackindex>
												<clipindex>35</clipindex>
											</link>
											<link>
												<linkclipref>Raw Interview Matthew Duepner138</linkclipref>
												<mediatype>audio</mediatype>
												<trackindex>1</trackindex>
												<clipindex>35</clipindex>
												<groupindex>1</groupindex>
											</link>
											<link>
												<linkclipref>Raw Interview Matthew Duepner139</linkclipref>
												<mediatype>audio</mediatype>
												<trackindex>2</trackindex>
												<clipindex>35</clipindex>
												<groupindex>1</groupindex>
											</link>
											<itemhistory>
												<uuid>DEF8D4EA-1D59-416A-8B7E-711BE1061FE6</uuid>
											</itemhistory>
										</clipitem>
										<clipitem id="Raw Interview Matthew Duepner143">
											<name>Raw Interview Matthew Duepner</name>
											<duration>81486</duration>
											<rate>
												<ntsc>TRUE</ntsc>
												<timebase>24</timebase>
											</rate>
											<in>18739</in>
											<out>19018</out>
											<start>5508</start>
											<end>5787</end>
											<masterclipid>Raw Interview Matthew Duepner360</masterclipid>
											<logginginfo>
												<scene/>
												<shottake/>
												<lognote/>
												<good>FALSE</good>
											</logginginfo>
											<labels>
												<label2/>
											</labels>
											<comments>
												<mastercomment1/>
												<mastercomment2/>
												<mastercomment3/>
												<mastercomment4/>
											</comments>
											<file id="YIN_2013-05-28_LG-5 "/>
											<filter>
												<effect>
													<name>Audio Levels</name>
													<effectid>audiolevels</effectid>
													<effectcategory>audiolevels</effectcategory>
													<effecttype>audiolevels</effecttype>
													<mediatype>audio</mediatype>
													<parameter>
														<name>Level</name>
														<parameterid>level</parameterid>
														<valuemin>0</valuemin>
														<valuemax>3.98109</valuemax>
														<value>1</value>
													</parameter>
												</effect>
											</filter>
											<filter>
												<effect>
													<name>Audio Pan</name>
													<effectid>audiopan</effectid>
													<effectcategory>audiopan</effectcategory>
													<effecttype>audiopan</effecttype>
													<mediatype>audio</mediatype>
													<parameter>
														<name>Pan</name>
														<parameterid>pan</parameterid>
														<valuemin>-1</valuemin>
														<valuemax>1</valuemax>
														<value>-0</value>
													</parameter>
												</effect>
											</filter>
											<sourcetrack>
												<mediatype>audio</mediatype>
												<trackindex>2</trackindex>
											</sourcetrack>
											<link>
												<linkclipref>Raw Interview Matthew Duepner140</linkclipref>
												<mediatype>video</mediatype>
												<trackindex>1</trackindex>
												<clipindex>36</clipindex>
											</link>
											<link>
												<linkclipref>Raw Interview Matthew Duepner142</linkclipref>
												<mediatype>audio</mediatype>
												<trackindex>1</trackindex>
												<clipindex>36</clipindex>
												<groupindex>1</groupindex>
											</link>
											<link>
												<linkclipref>Raw Interview Matthew Duepner143</linkclipref>
												<mediatype>audio</mediatype>
												<trackindex>2</trackindex>
												<clipindex>36</clipindex>
												<groupindex>1</groupindex>
											</link>
											<itemhistory>
												<uuid>8A91D870-0057-4BAD-9CC7-F7A82DC92D5D</uuid>
											</itemhistory>
										</clipitem>
										<clipitem id="Raw Interview Matthew Duepner147">
											<name>Raw Interview Matthew Duepner</name>
											<duration>81486</duration>
											<rate>
												<ntsc>TRUE</ntsc>
												<timebase>24</timebase>
											</rate>
											<in>56083</in>
											<out>56203</out>
											<start>5829</start>
											<end>5949</end>
											<masterclipid>Raw Interview Matthew Duepner361</masterclipid>
											<logginginfo>
												<scene/>
												<shottake/>
												<lognote/>
												<good>FALSE</good>
											</logginginfo>
											<labels>
												<label2/>
											</labels>
											<comments>
												<mastercomment1/>
												<mastercomment2/>
												<mastercomment3/>
												<mastercomment4/>
											</comments>
											<file id="YIN_2013-05-28_LG-5 "/>
											<filter>
												<effect>
													<name>Audio Levels</name>
													<effectid>audiolevels</effectid>
													<effectcategory>audiolevels</effectcategory>
													<effecttype>audiolevels</effecttype>
													<mediatype>audio</mediatype>
													<parameter>
														<name>Level</name>
														<parameterid>level</parameterid>
														<valuemin>0</valuemin>
														<valuemax>3.98109</valuemax>
														<value>1</value>
													</parameter>
												</effect>
											</filter>
											<filter>
												<effect>
													<name>Audio Pan</name>
													<effectid>audiopan</effectid>
													<effectcategory>audiopan</effectcategory>
													<effecttype>audiopan</effecttype>
													<mediatype>audio</mediatype>
													<parameter>
														<name>Pan</name>
														<parameterid>pan</parameterid>
														<valuemin>-1</valuemin>
														<valuemax>1</valuemax>
														<value>-0</value>
													</parameter>
												</effect>
											</filter>
											<sourcetrack>
												<mediatype>audio</mediatype>
												<trackindex>2</trackindex>
											</sourcetrack>
											<link>
												<linkclipref>Raw Interview Matthew Duepner144</linkclipref>
												<mediatype>video</mediatype>
												<trackindex>1</trackindex>
												<clipindex>37</clipindex>
											</link>
											<link>
												<linkclipref>Raw Interview Matthew Duepner146</linkclipref>
												<mediatype>audio</mediatype>
												<trackindex>1</trackindex>
												<clipindex>37</clipindex>
												<groupindex>1</groupindex>
											</link>
											<link>
												<linkclipref>Raw Interview Matthew Duepner147</linkclipref>
												<mediatype>audio</mediatype>
												<trackindex>2</trackindex>
												<clipindex>37</clipindex>
												<groupindex>1</groupindex>
											</link>
											<itemhistory>
												<uuid>CE63A1E4-94A1-4E1B-B826-1025446C919A</uuid>
											</itemhistory>
										</clipitem>
										<clipitem id="Raw Interview Matthew Duepner151">
											<name>Raw Interview Matthew Duepner</name>
											<duration>81486</duration>
											<rate>
												<ntsc>TRUE</ntsc>
												<timebase>24</timebase>
											</rate>
											<in>56334</in>
											<out>56423</out>
											<start>5949</start>
											<end>6038</end>
											<masterclipid>Raw Interview Matthew Duepner362</masterclipid>
											<logginginfo>
												<scene/>
												<shottake/>
												<lognote/>
												<good>FALSE</good>
											</logginginfo>
											<labels>
												<label2/>
											</labels>
											<comments>
												<mastercomment1/>
												<mastercomment2/>
												<mastercomment3/>
												<mastercomment4/>
											</comments>
											<file id="YIN_2013-05-28_LG-5 "/>
											<filter>
												<effect>
													<name>Audio Levels</name>
													<effectid>audiolevels</effectid>
													<effectcategory>audiolevels</effectcategory>
													<effecttype>audiolevels</effecttype>
													<mediatype>audio</mediatype>
													<parameter>
														<name>Level</name>
														<parameterid>level</parameterid>
														<valuemin>0</valuemin>
														<valuemax>3.98109</valuemax>
														<value>1</value>
													</parameter>
												</effect>
											</filter>
											<filter>
												<effect>
													<name>Audio Pan</name>
													<effectid>audiopan</effectid>
													<effectcategory>audiopan</effectcategory>
													<effecttype>audiopan</effecttype>
													<mediatype>audio</mediatype>
													<parameter>
														<name>Pan</name>
														<parameterid>pan</parameterid>
														<valuemin>-1</valuemin>
														<valuemax>1</valuemax>
														<value>-0</value>
													</parameter>
												</effect>
											</filter>
											<sourcetrack>
												<mediatype>audio</mediatype>
												<trackindex>2</trackindex>
											</sourcetrack>
											<link>
												<linkclipref>Raw Interview Matthew Duepner148</linkclipref>
												<mediatype>video</mediatype>
												<trackindex>1</trackindex>
												<clipindex>38</clipindex>
											</link>
											<link>
												<linkclipref>Raw Interview Matthew Duepner150</linkclipref>
												<mediatype>audio</mediatype>
												<trackindex>1</trackindex>
												<clipindex>38</clipindex>
												<groupindex>1</groupindex>
											</link>
											<link>
												<linkclipref>Raw Interview Matthew Duepner151</linkclipref>
												<mediatype>audio</mediatype>
												<trackindex>2</trackindex>
												<clipindex>38</clipindex>
												<groupindex>1</groupindex>
											</link>
											<itemhistory>
												<uuid>12752A51-B412-4988-B4CC-28CD26CC9860</uuid>
											</itemhistory>
										</clipitem>
										<clipitem id="Raw Interview Matthew Duepner155">
											<name>Raw Interview Matthew Duepner</name>
											<duration>81486</duration>
											<rate>
												<ntsc>TRUE</ntsc>
												<timebase>24</timebase>
											</rate>
											<in>19126</in>
											<out>19267</out>
											<start>6093</start>
											<end>6234</end>
											<masterclipid>Raw Interview Matthew Duepner363</masterclipid>
											<logginginfo>
												<scene/>
												<shottake/>
												<lognote/>
												<good>FALSE</good>
											</logginginfo>
											<labels>
												<label2/>
											</labels>
											<comments>
												<mastercomment1/>
												<mastercomment2/>
												<mastercomment3/>
												<mastercomment4/>
											</comments>
											<file id="YIN_2013-05-28_LG-5 "/>
											<filter>
												<effect>
													<name>Audio Levels</name>
													<effectid>audiolevels</effectid>
													<effectcategory>audiolevels</effectcategory>
													<effecttype>audiolevels</effecttype>
													<mediatype>audio</mediatype>
													<parameter>
														<name>Level</name>
														<parameterid>level</parameterid>
														<valuemin>0</valuemin>
														<valuemax>3.98109</valuemax>
														<value>1</value>
													</parameter>
												</effect>
											</filter>
											<filter>
												<effect>
													<name>Audio Pan</name>
													<effectid>audiopan</effectid>
													<effectcategory>audiopan</effectcategory>
													<effecttype>audiopan</effecttype>
													<mediatype>audio</mediatype>
													<parameter>
														<name>Pan</name>
														<parameterid>pan</parameterid>
														<valuemin>-1</valuemin>
														<valuemax>1</valuemax>
														<value>-0</value>
													</parameter>
												</effect>
											</filter>
											<sourcetrack>
												<mediatype>audio</mediatype>
												<trackindex>2</trackindex>
											</sourcetrack>
											<link>
												<linkclipref>Raw Interview Matthew Duepner152</linkclipref>
												<mediatype>video</mediatype>
												<trackindex>1</trackindex>
												<clipindex>39</clipindex>
											</link>
											<link>
												<linkclipref>Raw Interview Matthew Duepner154</linkclipref>
												<mediatype>audio</mediatype>
												<trackindex>1</trackindex>
												<clipindex>39</clipindex>
												<groupindex>1</groupindex>
											</link>
											<link>
												<linkclipref>Raw Interview Matthew Duepner155</linkclipref>
												<mediatype>audio</mediatype>
												<trackindex>2</trackindex>
												<clipindex>39</clipindex>
												<groupindex>1</groupindex>
											</link>
											<itemhistory>
												<uuid>2254673A-4ECF-418B-82E5-FBE17EFC6E17</uuid>
											</itemhistory>
										</clipitem>
										<clipitem id="Raw Interview Matthew Duepner159">
											<name>Raw Interview Matthew Duepner</name>
											<duration>81486</duration>
											<rate>
												<ntsc>TRUE</ntsc>
												<timebase>24</timebase>
											</rate>
											<in>57619</in>
											<out>57904</out>
											<start>6234</start>
											<end>6519</end>
											<masterclipid>Raw Interview Matthew Duepner364</masterclipid>
											<logginginfo>
												<scene/>
												<shottake/>
												<lognote/>
												<good>FALSE</good>
											</logginginfo>
											<labels>
												<label2/>
											</labels>
											<comments>
												<mastercomment1/>
												<mastercomment2/>
												<mastercomment3/>
												<mastercomment4/>
											</comments>
											<file id="YIN_2013-05-28_LG-5 "/>
											<filter>
												<effect>
													<name>Audio Levels</name>
													<effectid>audiolevels</effectid>
													<effectcategory>audiolevels</effectcategory>
													<effecttype>audiolevels</effecttype>
													<mediatype>audio</mediatype>
													<parameter>
														<name>Level</name>
														<parameterid>level</parameterid>
														<valuemin>0</valuemin>
														<valuemax>3.98109</valuemax>
														<value>1</value>
													</parameter>
												</effect>
											</filter>
											<filter>
												<effect>
													<name>Audio Pan</name>
													<effectid>audiopan</effectid>
													<effectcategory>audiopan</effectcategory>
													<effecttype>audiopan</effecttype>
													<mediatype>audio</mediatype>
													<parameter>
														<name>Pan</name>
														<parameterid>pan</parameterid>
														<valuemin>-1</valuemin>
														<valuemax>1</valuemax>
														<value>-0</value>
													</parameter>
												</effect>
											</filter>
											<sourcetrack>
												<mediatype>audio</mediatype>
												<trackindex>2</trackindex>
											</sourcetrack>
											<link>
												<linkclipref>Raw Interview Matthew Duepner156</linkclipref>
												<mediatype>video</mediatype>
												<trackindex>1</trackindex>
												<clipindex>40</clipindex>
											</link>
											<link>
												<linkclipref>Raw Interview Matthew Duepner158</linkclipref>
												<mediatype>audio</mediatype>
												<trackindex>1</trackindex>
												<clipindex>40</clipindex>
												<groupindex>1</groupindex>
											</link>
											<link>
												<linkclipref>Raw Interview Matthew Duepner159</linkclipref>
												<mediatype>audio</mediatype>
												<trackindex>2</trackindex>
												<clipindex>40</clipindex>
												<groupindex>1</groupindex>
											</link>
											<itemhistory>
												<uuid>CCBEC167-CC98-4433-9A5E-6EEBE2D979FF</uuid>
											</itemhistory>
										</clipitem>
										<clipitem id="Raw Interview Matthew Duepner163">
											<name>Raw Interview Matthew Duepner</name>
											<duration>81486</duration>
											<rate>
												<ntsc>TRUE</ntsc>
												<timebase>24</timebase>
											</rate>
											<in>51376</in>
											<out>51520</out>
											<start>6519</start>
											<end>6663</end>
											<masterclipid>Raw Interview Matthew Duepner365</masterclipid>
											<logginginfo>
												<scene/>
												<shottake/>
												<lognote/>
												<good>FALSE</good>
											</logginginfo>
											<labels>
												<label2/>
											</labels>
											<comments>
												<mastercomment1/>
												<mastercomment2/>
												<mastercomment3/>
												<mastercomment4/>
											</comments>
											<file id="YIN_2013-05-28_LG-5 "/>
											<filter>
												<effect>
													<name>Audio Levels</name>
													<effectid>audiolevels</effectid>
													<effectcategory>audiolevels</effectcategory>
													<effecttype>audiolevels</effecttype>
													<mediatype>audio</mediatype>
													<parameter>
														<name>Level</name>
														<parameterid>level</parameterid>
														<valuemin>0</valuemin>
														<valuemax>3.98109</valuemax>
														<value>1</value>
													</parameter>
												</effect>
											</filter>
											<filter>
												<effect>
													<name>Audio Pan</name>
													<effectid>audiopan</effectid>
													<effectcategory>audiopan</effectcategory>
													<effecttype>audiopan</effecttype>
													<mediatype>audio</mediatype>
													<parameter>
														<name>Pan</name>
														<parameterid>pan</parameterid>
														<valuemin>-1</valuemin>
														<valuemax>1</valuemax>
														<value>-0</value>
													</parameter>
												</effect>
											</filter>
											<sourcetrack>
												<mediatype>audio</mediatype>
												<trackindex>2</trackindex>
											</sourcetrack>
											<link>
												<linkclipref>Raw Interview Matthew Duepner160</linkclipref>
												<mediatype>video</mediatype>
												<trackindex>1</trackindex>
												<clipindex>41</clipindex>
											</link>
											<link>
												<linkclipref>Raw Interview Matthew Duepner162</linkclipref>
												<mediatype>audio</mediatype>
												<trackindex>1</trackindex>
												<clipindex>41</clipindex>
												<groupindex>1</groupindex>
											</link>
											<link>
												<linkclipref>Raw Interview Matthew Duepner163</linkclipref>
												<mediatype>audio</mediatype>
												<trackindex>2</trackindex>
												<clipindex>41</clipindex>
												<groupindex>1</groupindex>
											</link>
											<itemhistory>
												<uuid>0C3893D7-A25C-4A94-B742-7D56634A4FF3</uuid>
											</itemhistory>
										</clipitem>
										<clipitem id="Raw Interview Matthew Duepner167">
											<name>Raw Interview Matthew Duepner</name>
											<duration>81486</duration>
											<rate>
												<ntsc>TRUE</ntsc>
												<timebase>24</timebase>
											</rate>
											<in>38283</in>
											<out>38784</out>
											<start>7006</start>
											<end>7507</end>
											<masterclipid>Raw Interview Matthew Duepner366</masterclipid>
											<logginginfo>
												<scene/>
												<shottake/>
												<lognote/>
												<good>FALSE</good>
											</logginginfo>
											<labels>
												<label2/>
											</labels>
											<comments>
												<mastercomment1/>
												<mastercomment2/>
												<mastercomment3/>
												<mastercomment4/>
											</comments>
											<file id="YIN_2013-05-28_LG-5 "/>
											<filter>
												<effect>
													<name>Audio Levels</name>
													<effectid>audiolevels</effectid>
													<effectcategory>audiolevels</effectcategory>
													<effecttype>audiolevels</effecttype>
													<mediatype>audio</mediatype>
													<parameter>
														<name>Level</name>
														<parameterid>level</parameterid>
														<valuemin>0</valuemin>
														<valuemax>3.98109</valuemax>
														<value>1</value>
													</parameter>
												</effect>
											</filter>
											<filter>
												<effect>
													<name>Audio Pan</name>
													<effectid>audiopan</effectid>
													<effectcategory>audiopan</effectcategory>
													<effecttype>audiopan</effecttype>
													<mediatype>audio</mediatype>
													<parameter>
														<name>Pan</name>
														<parameterid>pan</parameterid>
														<valuemin>-1</valuemin>
														<valuemax>1</valuemax>
														<value>-0</value>
													</parameter>
												</effect>
											</filter>
											<sourcetrack>
												<mediatype>audio</mediatype>
												<trackindex>2</trackindex>
											</sourcetrack>
											<link>
												<linkclipref>Raw Interview Matthew Duepner164</linkclipref>
												<mediatype>video</mediatype>
												<trackindex>1</trackindex>
												<clipindex>42</clipindex>
											</link>
											<link>
												<linkclipref>Raw Interview Matthew Duepner166</linkclipref>
												<mediatype>audio</mediatype>
												<trackindex>1</trackindex>
												<clipindex>42</clipindex>
												<groupindex>1</groupindex>
											</link>
											<link>
												<linkclipref>Raw Interview Matthew Duepner167</linkclipref>
												<mediatype>audio</mediatype>
												<trackindex>2</trackindex>
												<clipindex>42</clipindex>
												<groupindex>1</groupindex>
											</link>
											<itemhistory>
												<uuid>B5E7E1D5-DE96-4A79-B007-FBBAD63B7454</uuid>
											</itemhistory>
										</clipitem>
										<clipitem id="Raw Interview Matthew Duepner171">
											<name>Raw Interview Matthew Duepner</name>
											<duration>81486</duration>
											<rate>
												<ntsc>TRUE</ntsc>
												<timebase>24</timebase>
											</rate>
											<in>51892</in>
											<out>52054</out>
											<start>7507</start>
											<end>7669</end>
											<masterclipid>Raw Interview Matthew Duepner367</masterclipid>
											<logginginfo>
												<scene/>
												<shottake/>
												<lognote/>
												<good>FALSE</good>
											</logginginfo>
											<labels>
												<label2/>
											</labels>
											<comments>
												<mastercomment1/>
												<mastercomment2/>
												<mastercomment3/>
												<mastercomment4/>
											</comments>
											<file id="YIN_2013-05-28_LG-5 "/>
											<filter>
												<effect>
													<name>Audio Levels</name>
													<effectid>audiolevels</effectid>
													<effectcategory>audiolevels</effectcategory>
													<effecttype>audiolevels</effecttype>
													<mediatype>audio</mediatype>
													<parameter>
														<name>Level</name>
														<parameterid>level</parameterid>
														<valuemin>0</valuemin>
														<valuemax>3.98109</valuemax>
														<value>1</value>
													</parameter>
												</effect>
											</filter>
											<filter>
												<effect>
													<name>Audio Pan</name>
													<effectid>audiopan</effectid>
													<effectcategory>audiopan</effectcategory>
													<effecttype>audiopan</effecttype>
													<mediatype>audio</mediatype>
													<parameter>
														<name>Pan</name>
														<parameterid>pan</parameterid>
														<valuemin>-1</valuemin>
														<valuemax>1</valuemax>
														<value>-0</value>
													</parameter>
												</effect>
											</filter>
											<sourcetrack>
												<mediatype>audio</mediatype>
												<trackindex>2</trackindex>
											</sourcetrack>
											<link>
												<linkclipref>Raw Interview Matthew Duepner168</linkclipref>
												<mediatype>video</mediatype>
												<trackindex>1</trackindex>
												<clipindex>43</clipindex>
											</link>
											<link>
												<linkclipref>Raw Interview Matthew Duepner170</linkclipref>
												<mediatype>audio</mediatype>
												<trackindex>1</trackindex>
												<clipindex>43</clipindex>
												<groupindex>1</groupindex>
											</link>
											<link>
												<linkclipref>Raw Interview Matthew Duepner171</linkclipref>
												<mediatype>audio</mediatype>
												<trackindex>2</trackindex>
												<clipindex>43</clipindex>
												<groupindex>1</groupindex>
											</link>
											<itemhistory>
												<uuid>1D2B69D6-8504-4E04-BB25-A48E1307B508</uuid>
											</itemhistory>
										</clipitem>
										<clipitem id="Raw Interview Matthew Duepner175">
											<name>Raw Interview Matthew Duepner</name>
											<duration>81486</duration>
											<rate>
												<ntsc>TRUE</ntsc>
												<timebase>24</timebase>
											</rate>
											<in>19372</in>
											<out>19423</out>
											<start>7734</start>
											<end>7785</end>
											<masterclipid>Raw Interview Matthew Duepner368</masterclipid>
											<logginginfo>
												<scene/>
												<shottake/>
												<lognote/>
												<good>FALSE</good>
											</logginginfo>
											<labels>
												<label2/>
											</labels>
											<comments>
												<mastercomment1/>
												<mastercomment2/>
												<mastercomment3/>
												<mastercomment4/>
											</comments>
											<file id="YIN_2013-05-28_LG-5 "/>
											<filter>
												<effect>
													<name>Audio Levels</name>
													<effectid>audiolevels</effectid>
													<effectcategory>audiolevels</effectcategory>
													<effecttype>audiolevels</effecttype>
													<mediatype>audio</mediatype>
													<parameter>
														<name>Level</name>
														<parameterid>level</parameterid>
														<valuemin>0</valuemin>
														<valuemax>3.98109</valuemax>
														<value>1</value>
													</parameter>
												</effect>
											</filter>
											<filter>
												<effect>
													<name>Audio Pan</name>
													<effectid>audiopan</effectid>
													<effectcategory>audiopan</effectcategory>
													<effecttype>audiopan</effecttype>
													<mediatype>audio</mediatype>
													<parameter>
														<name>Pan</name>
														<parameterid>pan</parameterid>
														<valuemin>-1</valuemin>
														<valuemax>1</valuemax>
														<value>-0</value>
													</parameter>
												</effect>
											</filter>
											<sourcetrack>
												<mediatype>audio</mediatype>
												<trackindex>2</trackindex>
											</sourcetrack>
											<link>
												<linkclipref>Raw Interview Matthew Duepner172</linkclipref>
												<mediatype>video</mediatype>
												<trackindex>1</trackindex>
												<clipindex>44</clipindex>
											</link>
											<link>
												<linkclipref>Raw Interview Matthew Duepner174</linkclipref>
												<mediatype>audio</mediatype>
												<trackindex>1</trackindex>
												<clipindex>44</clipindex>
												<groupindex>1</groupindex>
											</link>
											<link>
												<linkclipref>Raw Interview Matthew Duepner175</linkclipref>
												<mediatype>audio</mediatype>
												<trackindex>2</trackindex>
												<clipindex>44</clipindex>
												<groupindex>1</groupindex>
											</link>
											<itemhistory>
												<uuid>3B52F826-54CF-49ED-9A42-CF06BE35D442</uuid>
											</itemhistory>
										</clipitem>
										<clipitem id="Raw Interview Matthew Duepner179">
											<name>Raw Interview Matthew Duepner</name>
											<duration>81486</duration>
											<rate>
												<ntsc>TRUE</ntsc>
												<timebase>24</timebase>
											</rate>
											<in>19423</in>
											<out>19457</out>
											<start>7785</start>
											<end>7819</end>
											<masterclipid>Raw Interview Matthew Duepner369</masterclipid>
											<logginginfo>
												<scene/>
												<shottake/>
												<lognote/>
												<good>FALSE</good>
											</logginginfo>
											<labels>
												<label2/>
											</labels>
											<comments>
												<mastercomment1/>
												<mastercomment2/>
												<mastercomment3/>
												<mastercomment4/>
											</comments>
											<file id="YIN_2013-05-28_LG-5 "/>
											<filter>
												<effect>
													<name>Audio Levels</name>
													<effectid>audiolevels</effectid>
													<effectcategory>audiolevels</effectcategory>
													<effecttype>audiolevels</effecttype>
													<mediatype>audio</mediatype>
													<parameter>
														<name>Level</name>
														<parameterid>level</parameterid>
														<valuemin>0</valuemin>
														<valuemax>3.98109</valuemax>
														<value>1</value>
													</parameter>
												</effect>
											</filter>
											<filter>
												<effect>
													<name>Audio Pan</name>
													<effectid>audiopan</effectid>
													<effectcategory>audiopan</effectcategory>
													<effecttype>audiopan</effecttype>
													<mediatype>audio</mediatype>
													<parameter>
														<name>Pan</name>
														<parameterid>pan</parameterid>
														<valuemin>-1</valuemin>
														<valuemax>1</valuemax>
														<value>-0</value>
													</parameter>
												</effect>
											</filter>
											<sourcetrack>
												<mediatype>audio</mediatype>
												<trackindex>2</trackindex>
											</sourcetrack>
											<link>
												<linkclipref>Raw Interview Matthew Duepner176</linkclipref>
												<mediatype>video</mediatype>
												<trackindex>1</trackindex>
												<clipindex>45</clipindex>
											</link>
											<link>
												<linkclipref>Raw Interview Matthew Duepner178</linkclipref>
												<mediatype>audio</mediatype>
												<trackindex>1</trackindex>
												<clipindex>45</clipindex>
												<groupindex>1</groupindex>
											</link>
											<link>
												<linkclipref>Raw Interview Matthew Duepner179</linkclipref>
												<mediatype>audio</mediatype>
												<trackindex>2</trackindex>
												<clipindex>45</clipindex>
												<groupindex>1</groupindex>
											</link>
											<itemhistory>
												<uuid>6CF21E2E-BC71-4691-A68D-4FD147331FAC</uuid>
											</itemhistory>
										</clipitem>
										<clipitem id="Raw Interview Matthew Duepner183">
											<name>Raw Interview Matthew Duepner</name>
											<duration>81486</duration>
											<rate>
												<ntsc>TRUE</ntsc>
												<timebase>24</timebase>
											</rate>
											<in>19522</in>
											<out>19602</out>
											<start>7819</start>
											<end>7899</end>
											<masterclipid>Raw Interview Matthew Duepner370</masterclipid>
											<logginginfo>
												<scene/>
												<shottake/>
												<lognote/>
												<good>FALSE</good>
											</logginginfo>
											<labels>
												<label2/>
											</labels>
											<comments>
												<mastercomment1/>
												<mastercomment2/>
												<mastercomment3/>
												<mastercomment4/>
											</comments>
											<file id="YIN_2013-05-28_LG-5 "/>
											<filter>
												<effect>
													<name>Audio Levels</name>
													<effectid>audiolevels</effectid>
													<effectcategory>audiolevels</effectcategory>
													<effecttype>audiolevels</effecttype>
													<mediatype>audio</mediatype>
													<parameter>
														<name>Level</name>
														<parameterid>level</parameterid>
														<valuemin>0</valuemin>
														<valuemax>3.98109</valuemax>
														<value>1</value>
													</parameter>
												</effect>
											</filter>
											<filter>
												<effect>
													<name>Audio Pan</name>
													<effectid>audiopan</effectid>
													<effectcategory>audiopan</effectcategory>
													<effecttype>audiopan</effecttype>
													<mediatype>audio</mediatype>
													<parameter>
														<name>Pan</name>
														<parameterid>pan</parameterid>
														<valuemin>-1</valuemin>
														<valuemax>1</valuemax>
														<value>-0</value>
													</parameter>
												</effect>
											</filter>
											<sourcetrack>
												<mediatype>audio</mediatype>
												<trackindex>2</trackindex>
											</sourcetrack>
											<link>
												<linkclipref>Raw Interview Matthew Duepner180</linkclipref>
												<mediatype>video</mediatype>
												<trackindex>1</trackindex>
												<clipindex>46</clipindex>
											</link>
											<link>
												<linkclipref>Raw Interview Matthew Duepner182</linkclipref>
												<mediatype>audio</mediatype>
												<trackindex>1</trackindex>
												<clipindex>46</clipindex>
												<groupindex>1</groupindex>
											</link>
											<link>
												<linkclipref>Raw Interview Matthew Duepner183</linkclipref>
												<mediatype>audio</mediatype>
												<trackindex>2</trackindex>
												<clipindex>46</clipindex>
												<groupindex>1</groupindex>
											</link>
											<itemhistory>
												<uuid>F209B254-1A5F-44F6-BD3F-61DE1098C084</uuid>
											</itemhistory>
										</clipitem>
										<clipitem id="Raw Interview Matthew Duepner187">
											<name>Raw Interview Matthew Duepner</name>
											<duration>81486</duration>
											<rate>
												<ntsc>TRUE</ntsc>
												<timebase>24</timebase>
											</rate>
											<in>19602</in>
											<out>19780</out>
											<start>7899</start>
											<end>8077</end>
											<masterclipid>Raw Interview Matthew Duepner371</masterclipid>
											<logginginfo>
												<scene/>
												<shottake/>
												<lognote/>
												<good>FALSE</good>
											</logginginfo>
											<labels>
												<label2/>
											</labels>
											<comments>
												<mastercomment1/>
												<mastercomment2/>
												<mastercomment3/>
												<mastercomment4/>
											</comments>
											<file id="YIN_2013-05-28_LG-5 "/>
											<filter>
												<effect>
													<name>Audio Levels</name>
													<effectid>audiolevels</effectid>
													<effectcategory>audiolevels</effectcategory>
													<effecttype>audiolevels</effecttype>
													<mediatype>audio</mediatype>
													<parameter>
														<name>Level</name>
														<parameterid>level</parameterid>
														<valuemin>0</valuemin>
														<valuemax>3.98109</valuemax>
														<value>1</value>
													</parameter>
												</effect>
											</filter>
											<filter>
												<effect>
													<name>Audio Pan</name>
													<effectid>audiopan</effectid>
													<effectcategory>audiopan</effectcategory>
													<effecttype>audiopan</effecttype>
													<mediatype>audio</mediatype>
													<parameter>
														<name>Pan</name>
														<parameterid>pan</parameterid>
														<valuemin>-1</valuemin>
														<valuemax>1</valuemax>
														<value>-0</value>
													</parameter>
												</effect>
											</filter>
											<sourcetrack>
												<mediatype>audio</mediatype>
												<trackindex>2</trackindex>
											</sourcetrack>
											<link>
												<linkclipref>Raw Interview Matthew Duepner184</linkclipref>
												<mediatype>video</mediatype>
												<trackindex>1</trackindex>
												<clipindex>47</clipindex>
											</link>
											<link>
												<linkclipref>Raw Interview Matthew Duepner186</linkclipref>
												<mediatype>audio</mediatype>
												<trackindex>1</trackindex>
												<clipindex>47</clipindex>
												<groupindex>1</groupindex>
											</link>
											<link>
												<linkclipref>Raw Interview Matthew Duepner187</linkclipref>
												<mediatype>audio</mediatype>
												<trackindex>2</trackindex>
												<clipindex>47</clipindex>
												<groupindex>1</groupindex>
											</link>
											<itemhistory>
												<uuid>3CD89380-0EDD-48E6-84D8-7212423033BF</uuid>
											</itemhistory>
										</clipitem>
										<clipitem id="Raw Interview Matthew Duepner191">
											<name>Raw Interview Matthew Duepner</name>
											<duration>81486</duration>
											<rate>
												<ntsc>TRUE</ntsc>
												<timebase>24</timebase>
											</rate>
											<in>68841</in>
											<out>69079</out>
											<start>8163</start>
											<end>8401</end>
											<masterclipid>Raw Interview Matthew Duepner372</masterclipid>
											<logginginfo>
												<scene/>
												<shottake/>
												<lognote/>
												<good>FALSE</good>
											</logginginfo>
											<labels>
												<label2/>
											</labels>
											<comments>
												<mastercomment1/>
												<mastercomment2/>
												<mastercomment3/>
												<mastercomment4/>
											</comments>
											<file id="YIN_2013-05-28_LG-5 "/>
											<filter>
												<effect>
													<name>Audio Levels</name>
													<effectid>audiolevels</effectid>
													<effectcategory>audiolevels</effectcategory>
													<effecttype>audiolevels</effecttype>
													<mediatype>audio</mediatype>
													<parameter>
														<name>Level</name>
														<parameterid>level</parameterid>
														<valuemin>0</valuemin>
														<valuemax>3.98109</valuemax>
														<value>1</value>
													</parameter>
												</effect>
											</filter>
											<filter>
												<effect>
													<name>Audio Pan</name>
													<effectid>audiopan</effectid>
													<effectcategory>audiopan</effectcategory>
													<effecttype>audiopan</effecttype>
													<mediatype>audio</mediatype>
													<parameter>
														<name>Pan</name>
														<parameterid>pan</parameterid>
														<valuemin>-1</valuemin>
														<valuemax>1</valuemax>
														<value>-0</value>
													</parameter>
												</effect>
											</filter>
											<sourcetrack>
												<mediatype>audio</mediatype>
												<trackindex>2</trackindex>
											</sourcetrack>
											<link>
												<linkclipref>Raw Interview Matthew Duepner188</linkclipref>
												<mediatype>video</mediatype>
												<trackindex>1</trackindex>
												<clipindex>48</clipindex>
											</link>
											<link>
												<linkclipref>Raw Interview Matthew Duepner190</linkclipref>
												<mediatype>audio</mediatype>
												<trackindex>1</trackindex>
												<clipindex>48</clipindex>
												<groupindex>1</groupindex>
											</link>
											<link>
												<linkclipref>Raw Interview Matthew Duepner191</linkclipref>
												<mediatype>audio</mediatype>
												<trackindex>2</trackindex>
												<clipindex>48</clipindex>
												<groupindex>1</groupindex>
											</link>
											<itemhistory>
												<uuid>0BA52DAC-F73A-4B2A-8CC0-57DFE222606C</uuid>
											</itemhistory>
										</clipitem>
										<clipitem id="Raw Interview Matthew Duepner195">
											<name>Raw Interview Matthew Duepner</name>
											<duration>81486</duration>
											<rate>
												<ntsc>TRUE</ntsc>
												<timebase>24</timebase>
											</rate>
											<in>69853</in>
											<out>69933</out>
											<start>8401</start>
											<end>8481</end>
											<masterclipid>Raw Interview Matthew Duepner373</masterclipid>
											<logginginfo>
												<scene/>
												<shottake/>
												<lognote/>
												<good>FALSE</good>
											</logginginfo>
											<labels>
												<label2/>
											</labels>
											<comments>
												<mastercomment1/>
												<mastercomment2/>
												<mastercomment3/>
												<mastercomment4/>
											</comments>
											<file id="YIN_2013-05-28_LG-5 "/>
											<filter>
												<effect>
													<name>Audio Levels</name>
													<effectid>audiolevels</effectid>
													<effectcategory>audiolevels</effectcategory>
													<effecttype>audiolevels</effecttype>
													<mediatype>audio</mediatype>
													<parameter>
														<name>Level</name>
														<parameterid>level</parameterid>
														<valuemin>0</valuemin>
														<valuemax>3.98109</valuemax>
														<value>1</value>
													</parameter>
												</effect>
											</filter>
											<filter>
												<effect>
													<name>Audio Pan</name>
													<effectid>audiopan</effectid>
													<effectcategory>audiopan</effectcategory>
													<effecttype>audiopan</effecttype>
													<mediatype>audio</mediatype>
													<parameter>
														<name>Pan</name>
														<parameterid>pan</parameterid>
														<valuemin>-1</valuemin>
														<valuemax>1</valuemax>
														<value>-0</value>
													</parameter>
												</effect>
											</filter>
											<sourcetrack>
												<mediatype>audio</mediatype>
												<trackindex>2</trackindex>
											</sourcetrack>
											<link>
												<linkclipref>Raw Interview Matthew Duepner192</linkclipref>
												<mediatype>video</mediatype>
												<trackindex>1</trackindex>
												<clipindex>49</clipindex>
											</link>
											<link>
												<linkclipref>Raw Interview Matthew Duepner194</linkclipref>
												<mediatype>audio</mediatype>
												<trackindex>1</trackindex>
												<clipindex>49</clipindex>
												<groupindex>1</groupindex>
											</link>
											<link>
												<linkclipref>Raw Interview Matthew Duepner195</linkclipref>
												<mediatype>audio</mediatype>
												<trackindex>2</trackindex>
												<clipindex>49</clipindex>
												<groupindex>1</groupindex>
											</link>
											<itemhistory>
												<uuid>402CB585-B926-427A-881C-7D8D34059BE8</uuid>
											</itemhistory>
										</clipitem>
										<clipitem id="Raw Interview Matthew Duepner199">
											<name>Raw Interview Matthew Duepner</name>
											<duration>81486</duration>
											<rate>
												<ntsc>TRUE</ntsc>
												<timebase>24</timebase>
											</rate>
											<in>71462</in>
											<out>71987</out>
											<start>8481</start>
											<end>9006</end>
											<masterclipid>Raw Interview Matthew Duepner374</masterclipid>
											<logginginfo>
												<scene/>
												<shottake/>
												<lognote/>
												<good>FALSE</good>
											</logginginfo>
											<labels>
												<label2/>
											</labels>
											<comments>
												<mastercomment1/>
												<mastercomment2/>
												<mastercomment3/>
												<mastercomment4/>
											</comments>
											<file id="YIN_2013-05-28_LG-5 "/>
											<filter>
												<effect>
													<name>Audio Levels</name>
													<effectid>audiolevels</effectid>
													<effectcategory>audiolevels</effectcategory>
													<effecttype>audiolevels</effecttype>
													<mediatype>audio</mediatype>
													<parameter>
														<name>Level</name>
														<parameterid>level</parameterid>
														<valuemin>0</valuemin>
														<valuemax>3.98109</valuemax>
														<value>1</value>
													</parameter>
												</effect>
											</filter>
											<filter>
												<effect>
													<name>Audio Pan</name>
													<effectid>audiopan</effectid>
													<effectcategory>audiopan</effectcategory>
													<effecttype>audiopan</effecttype>
													<mediatype>audio</mediatype>
													<parameter>
														<name>Pan</name>
														<parameterid>pan</parameterid>
														<valuemin>-1</valuemin>
														<valuemax>1</valuemax>
														<value>-0</value>
													</parameter>
												</effect>
											</filter>
											<sourcetrack>
												<mediatype>audio</mediatype>
												<trackindex>2</trackindex>
											</sourcetrack>
											<link>
												<linkclipref>Raw Interview Matthew Duepner196</linkclipref>
												<mediatype>video</mediatype>
												<trackindex>1</trackindex>
												<clipindex>50</clipindex>
											</link>
											<link>
												<linkclipref>Raw Interview Matthew Duepner198</linkclipref>
												<mediatype>audio</mediatype>
												<trackindex>1</trackindex>
												<clipindex>50</clipindex>
												<groupindex>1</groupindex>
											</link>
											<link>
												<linkclipref>Raw Interview Matthew Duepner199</linkclipref>
												<mediatype>audio</mediatype>
												<trackindex>2</trackindex>
												<clipindex>50</clipindex>
												<groupindex>1</groupindex>
											</link>
											<itemhistory>
												<uuid>5693B8C7-2D11-49E1-84DA-0406F455985B</uuid>
											</itemhistory>
										</clipitem>
										<clipitem id="Raw Interview Matthew Duepner203">
											<name>Raw Interview Matthew Duepner</name>
											<duration>81486</duration>
											<rate>
												<ntsc>TRUE</ntsc>
												<timebase>24</timebase>
											</rate>
											<in>72861</in>
											<out>73353</out>
											<start>9006</start>
											<end>9498</end>
											<masterclipid>Raw Interview Matthew Duepner375</masterclipid>
											<logginginfo>
												<scene/>
												<shottake/>
												<lognote/>
												<good>FALSE</good>
											</logginginfo>
											<labels>
												<label2/>
											</labels>
											<comments>
												<mastercomment1/>
												<mastercomment2/>
												<mastercomment3/>
												<mastercomment4/>
											</comments>
											<file id="YIN_2013-05-28_LG-5 "/>
											<filter>
												<effect>
													<name>Audio Levels</name>
													<effectid>audiolevels</effectid>
													<effectcategory>audiolevels</effectcategory>
													<effecttype>audiolevels</effecttype>
													<mediatype>audio</mediatype>
													<parameter>
														<name>Level</name>
														<parameterid>level</parameterid>
														<valuemin>0</valuemin>
														<valuemax>3.98109</valuemax>
														<value>1</value>
													</parameter>
												</effect>
											</filter>
											<filter>
												<effect>
													<name>Audio Pan</name>
													<effectid>audiopan</effectid>
													<effectcategory>audiopan</effectcategory>
													<effecttype>audiopan</effecttype>
													<mediatype>audio</mediatype>
													<parameter>
														<name>Pan</name>
														<parameterid>pan</parameterid>
														<valuemin>-1</valuemin>
														<valuemax>1</valuemax>
														<value>-0</value>
													</parameter>
												</effect>
											</filter>
											<sourcetrack>
												<mediatype>audio</mediatype>
												<trackindex>2</trackindex>
											</sourcetrack>
											<link>
												<linkclipref>Raw Interview Matthew Duepner200</linkclipref>
												<mediatype>video</mediatype>
												<trackindex>1</trackindex>
												<clipindex>51</clipindex>
											</link>
											<link>
												<linkclipref>Raw Interview Matthew Duepner202</linkclipref>
												<mediatype>audio</mediatype>
												<trackindex>1</trackindex>
												<clipindex>51</clipindex>
												<groupindex>1</groupindex>
											</link>
											<link>
												<linkclipref>Raw Interview Matthew Duepner203</linkclipref>
												<mediatype>audio</mediatype>
												<trackindex>2</trackindex>
												<clipindex>51</clipindex>
												<groupindex>1</groupindex>
											</link>
											<itemhistory>
												<uuid>857224B7-6A9F-4E9D-BEAD-BC7A7509E79A</uuid>
											</itemhistory>
										</clipitem>
										<clipitem id="Raw Interview Matthew Duepner207">
											<name>Raw Interview Matthew Duepner</name>
											<duration>81486</duration>
											<rate>
												<ntsc>TRUE</ntsc>
												<timebase>24</timebase>
											</rate>
											<in>79338</in>
											<out>79574</out>
											<start>9752</start>
											<end>9988</end>
											<masterclipid>Raw Interview Matthew Duepner376</masterclipid>
											<logginginfo>
												<scene/>
												<shottake/>
												<lognote/>
												<good>FALSE</good>
											</logginginfo>
											<labels>
												<label2/>
											</labels>
											<comments>
												<mastercomment1/>
												<mastercomment2/>
												<mastercomment3/>
												<mastercomment4/>
											</comments>
											<file id="YIN_2013-05-28_LG-5 "/>
											<filter>
												<effect>
													<name>Audio Levels</name>
													<effectid>audiolevels</effectid>
													<effectcategory>audiolevels</effectcategory>
													<effecttype>audiolevels</effecttype>
													<mediatype>audio</mediatype>
													<parameter>
														<name>Level</name>
														<parameterid>level</parameterid>
														<valuemin>0</valuemin>
														<valuemax>3.98109</valuemax>
														<value>1</value>
													</parameter>
												</effect>
											</filter>
											<filter>
												<effect>
													<name>Audio Pan</name>
													<effectid>audiopan</effectid>
													<effectcategory>audiopan</effectcategory>
													<effecttype>audiopan</effecttype>
													<mediatype>audio</mediatype>
													<parameter>
														<name>Pan</name>
														<parameterid>pan</parameterid>
														<valuemin>-1</valuemin>
														<valuemax>1</valuemax>
														<value>-0</value>
													</parameter>
												</effect>
											</filter>
											<sourcetrack>
												<mediatype>audio</mediatype>
												<trackindex>2</trackindex>
											</sourcetrack>
											<link>
												<linkclipref>Raw Interview Matthew Duepner204</linkclipref>
												<mediatype>video</mediatype>
												<trackindex>1</trackindex>
												<clipindex>52</clipindex>
											</link>
											<link>
												<linkclipref>Raw Interview Matthew Duepner206</linkclipref>
												<mediatype>audio</mediatype>
												<trackindex>1</trackindex>
												<clipindex>52</clipindex>
												<groupindex>1</groupindex>
											</link>
											<link>
												<linkclipref>Raw Interview Matthew Duepner207</linkclipref>
												<mediatype>audio</mediatype>
												<trackindex>2</trackindex>
												<clipindex>52</clipindex>
												<groupindex>1</groupindex>
											</link>
											<itemhistory>
												<uuid>73C3D52F-DF07-402C-AC2C-2A8A65B18B66</uuid>
											</itemhistory>
										</clipitem>
										<clipitem id="Raw Interview Matthew Duepner211">
											<name>Raw Interview Matthew Duepner</name>
											<duration>81486</duration>
											<rate>
												<ntsc>TRUE</ntsc>
												<timebase>24</timebase>
											</rate>
											<in>80136</in>
											<out>80276</out>
											<start>10343</start>
											<end>10483</end>
											<masterclipid>Raw Interview Matthew Duepner377</masterclipid>
											<logginginfo>
												<scene/>
												<shottake/>
												<lognote/>
												<good>FALSE</good>
											</logginginfo>
											<labels>
												<label2/>
											</labels>
											<comments>
												<mastercomment1/>
												<mastercomment2/>
												<mastercomment3/>
												<mastercomment4/>
											</comments>
											<file id="YIN_2013-05-28_LG-5 "/>
											<filter>
												<effect>
													<name>Audio Levels</name>
													<effectid>audiolevels</effectid>
													<effectcategory>audiolevels</effectcategory>
													<effecttype>audiolevels</effecttype>
													<mediatype>audio</mediatype>
													<parameter>
														<name>Level</name>
														<parameterid>level</parameterid>
														<valuemin>0</valuemin>
														<valuemax>3.98109</valuemax>
														<value>1</value>
													</parameter>
												</effect>
											</filter>
											<filter>
												<effect>
													<name>Audio Pan</name>
													<effectid>audiopan</effectid>
													<effectcategory>audiopan</effectcategory>
													<effecttype>audiopan</effecttype>
													<mediatype>audio</mediatype>
													<parameter>
														<name>Pan</name>
														<parameterid>pan</parameterid>
														<valuemin>-1</valuemin>
														<valuemax>1</valuemax>
														<value>-0</value>
													</parameter>
												</effect>
											</filter>
											<sourcetrack>
												<mediatype>audio</mediatype>
												<trackindex>2</trackindex>
											</sourcetrack>
											<link>
												<linkclipref>Raw Interview Matthew Duepner208</linkclipref>
												<mediatype>video</mediatype>
												<trackindex>1</trackindex>
												<clipindex>53</clipindex>
											</link>
											<link>
												<linkclipref>Raw Interview Matthew Duepner210</linkclipref>
												<mediatype>audio</mediatype>
												<trackindex>1</trackindex>
												<clipindex>53</clipindex>
												<groupindex>1</groupindex>
											</link>
											<link>
												<linkclipref>Raw Interview Matthew Duepner211</linkclipref>
												<mediatype>audio</mediatype>
												<trackindex>2</trackindex>
												<clipindex>53</clipindex>
												<groupindex>1</groupindex>
											</link>
											<itemhistory>
												<uuid>0724198E-BA58-490A-B972-F9131A4010E7</uuid>
											</itemhistory>
										</clipitem>
										<clipitem id="Raw Interview Matthew Duepner215">
											<name>Raw Interview Matthew Duepner</name>
											<duration>81486</duration>
											<rate>
												<ntsc>TRUE</ntsc>
												<timebase>24</timebase>
											</rate>
											<in>79941</in>
											<out>80136</out>
											<start>10550</start>
											<end>10745</end>
											<masterclipid>Raw Interview Matthew Duepner378</masterclipid>
											<logginginfo>
												<scene/>
												<shottake/>
												<lognote/>
												<good>FALSE</good>
											</logginginfo>
											<labels>
												<label2/>
											</labels>
											<comments>
												<mastercomment1/>
												<mastercomment2/>
												<mastercomment3/>
												<mastercomment4/>
											</comments>
											<file id="YIN_2013-05-28_LG-5 "/>
											<filter>
												<effect>
													<name>Audio Levels</name>
													<effectid>audiolevels</effectid>
													<effectcategory>audiolevels</effectcategory>
													<effecttype>audiolevels</effecttype>
													<mediatype>audio</mediatype>
													<parameter>
														<name>Level</name>
														<parameterid>level</parameterid>
														<valuemin>0</valuemin>
														<valuemax>3.98109</valuemax>
														<value>1</value>
													</parameter>
												</effect>
											</filter>
											<filter>
												<effect>
													<name>Audio Pan</name>
													<effectid>audiopan</effectid>
													<effectcategory>audiopan</effectcategory>
													<effecttype>audiopan</effecttype>
													<mediatype>audio</mediatype>
													<parameter>
														<name>Pan</name>
														<parameterid>pan</parameterid>
														<valuemin>-1</valuemin>
														<valuemax>1</valuemax>
														<value>-0</value>
													</parameter>
												</effect>
											</filter>
											<sourcetrack>
												<mediatype>audio</mediatype>
												<trackindex>2</trackindex>
											</sourcetrack>
											<link>
												<linkclipref>Raw Interview Matthew Duepner212</linkclipref>
												<mediatype>video</mediatype>
												<trackindex>1</trackindex>
												<clipindex>54</clipindex>
											</link>
											<link>
												<linkclipref>Raw Interview Matthew Duepner214</linkclipref>
												<mediatype>audio</mediatype>
												<trackindex>1</trackindex>
												<clipindex>54</clipindex>
												<groupindex>1</groupindex>
											</link>
											<link>
												<linkclipref>Raw Interview Matthew Duepner215</linkclipref>
												<mediatype>audio</mediatype>
												<trackindex>2</trackindex>
												<clipindex>54</clipindex>
												<groupindex>1</groupindex>
											</link>
											<itemhistory>
												<uuid>575F3B31-CBBD-4E53-923A-08967238E1BD</uuid>
											</itemhistory>
										</clipitem>
										<clipitem id="Raw Interview Matthew Duepner219">
											<name>Raw Interview Matthew Duepner</name>
											<duration>81486</duration>
											<rate>
												<ntsc>TRUE</ntsc>
												<timebase>24</timebase>
											</rate>
											<in>43670</in>
											<out>43863</out>
											<start>11035</start>
											<end>11228</end>
											<masterclipid>Raw Interview Matthew Duepner379</masterclipid>
											<logginginfo>
												<scene/>
												<shottake/>
												<lognote/>
												<good>FALSE</good>
											</logginginfo>
											<labels>
												<label2/>
											</labels>
											<comments>
												<mastercomment1/>
												<mastercomment2/>
												<mastercomment3/>
												<mastercomment4/>
											</comments>
											<file id="YIN_2013-05-28_LG-5 "/>
											<filter>
												<effect>
													<name>Audio Levels</name>
													<effectid>audiolevels</effectid>
													<effectcategory>audiolevels</effectcategory>
													<effecttype>audiolevels</effecttype>
													<mediatype>audio</mediatype>
													<parameter>
														<name>Level</name>
														<parameterid>level</parameterid>
														<valuemin>0</valuemin>
														<valuemax>3.98109</valuemax>
														<value>1</value>
													</parameter>
												</effect>
											</filter>
											<filter>
												<effect>
													<name>Audio Pan</name>
													<effectid>audiopan</effectid>
													<effectcategory>audiopan</effectcategory>
													<effecttype>audiopan</effecttype>
													<mediatype>audio</mediatype>
													<parameter>
														<name>Pan</name>
														<parameterid>pan</parameterid>
														<valuemin>-1</valuemin>
														<valuemax>1</valuemax>
														<value>-0</value>
													</parameter>
												</effect>
											</filter>
											<sourcetrack>
												<mediatype>audio</mediatype>
												<trackindex>2</trackindex>
											</sourcetrack>
											<link>
												<linkclipref>Raw Interview Matthew Duepner216</linkclipref>
												<mediatype>video</mediatype>
												<trackindex>1</trackindex>
												<clipindex>55</clipindex>
											</link>
											<link>
												<linkclipref>Raw Interview Matthew Duepner218</linkclipref>
												<mediatype>audio</mediatype>
												<trackindex>1</trackindex>
												<clipindex>55</clipindex>
												<groupindex>1</groupindex>
											</link>
											<link>
												<linkclipref>Raw Interview Matthew Duepner219</linkclipref>
												<mediatype>audio</mediatype>
												<trackindex>2</trackindex>
												<clipindex>55</clipindex>
												<groupindex>1</groupindex>
											</link>
											<itemhistory>
												<uuid>D4CB7843-DC2D-4124-901D-9396739AB690</uuid>
											</itemhistory>
										</clipitem>
										<clipitem id="Raw Interview Matthew Duepner223">
											<name>Raw Interview Matthew Duepner</name>
											<duration>81486</duration>
											<rate>
												<ntsc>TRUE</ntsc>
												<timebase>24</timebase>
											</rate>
											<in>10404</in>
											<out>10508</out>
											<start>11318</start>
											<end>11422</end>
											<masterclipid>Raw Interview Matthew Duepner380</masterclipid>
											<logginginfo>
												<scene/>
												<shottake/>
												<lognote/>
												<good>FALSE</good>
											</logginginfo>
											<labels>
												<label2/>
											</labels>
											<comments>
												<mastercomment1/>
												<mastercomment2/>
												<mastercomment3/>
												<mastercomment4/>
											</comments>
											<file id="YIN_2013-05-28_LG-5 "/>
											<filter>
												<effect>
													<name>Audio Levels</name>
													<effectid>audiolevels</effectid>
													<effectcategory>audiolevels</effectcategory>
													<effecttype>audiolevels</effecttype>
													<mediatype>audio</mediatype>
													<parameter>
														<name>Level</name>
														<parameterid>level</parameterid>
														<valuemin>0</valuemin>
														<valuemax>3.98109</valuemax>
														<value>1</value>
													</parameter>
												</effect>
											</filter>
											<filter>
												<effect>
													<name>Audio Pan</name>
													<effectid>audiopan</effectid>
													<effectcategory>audiopan</effectcategory>
													<effecttype>audiopan</effecttype>
													<mediatype>audio</mediatype>
													<parameter>
														<name>Pan</name>
														<parameterid>pan</parameterid>
														<valuemin>-1</valuemin>
														<valuemax>1</valuemax>
														<value>-0</value>
													</parameter>
												</effect>
											</filter>
											<sourcetrack>
												<mediatype>audio</mediatype>
												<trackindex>2</trackindex>
											</sourcetrack>
											<link>
												<linkclipref>Raw Interview Matthew Duepner220</linkclipref>
												<mediatype>video</mediatype>
												<trackindex>1</trackindex>
												<clipindex>56</clipindex>
											</link>
											<link>
												<linkclipref>Raw Interview Matthew Duepner222</linkclipref>
												<mediatype>audio</mediatype>
												<trackindex>1</trackindex>
												<clipindex>56</clipindex>
												<groupindex>1</groupindex>
											</link>
											<link>
												<linkclipref>Raw Interview Matthew Duepner223</linkclipref>
												<mediatype>audio</mediatype>
												<trackindex>2</trackindex>
												<clipindex>56</clipindex>
												<groupindex>1</groupindex>
											</link>
											<itemhistory>
												<uuid>5B8B503F-5E45-40B6-96E2-7D388D022C64</uuid>
											</itemhistory>
										</clipitem>
										<clipitem id="Raw Interview Matthew Duepner227">
											<name>Raw Interview Matthew Duepner</name>
											<duration>81486</duration>
											<rate>
												<ntsc>TRUE</ntsc>
												<timebase>24</timebase>
											</rate>
											<in>3945</in>
											<out>3989</out>
											<start>11448</start>
											<end>11492</end>
											<masterclipid>Raw Interview Matthew Duepner381</masterclipid>
											<logginginfo>
												<scene/>
												<shottake/>
												<lognote/>
												<good>FALSE</good>
											</logginginfo>
											<labels>
												<label2/>
											</labels>
											<comments>
												<mastercomment1/>
												<mastercomment2/>
												<mastercomment3/>
												<mastercomment4/>
											</comments>
											<file id="YIN_2013-05-28_LG-5 "/>
											<filter>
												<effect>
													<name>Audio Levels</name>
													<effectid>audiolevels</effectid>
													<effectcategory>audiolevels</effectcategory>
													<effecttype>audiolevels</effecttype>
													<mediatype>audio</mediatype>
													<parameter>
														<name>Level</name>
														<parameterid>level</parameterid>
														<valuemin>0</valuemin>
														<valuemax>3.98109</valuemax>
														<value>1</value>
													</parameter>
												</effect>
											</filter>
											<filter>
												<effect>
													<name>Audio Pan</name>
													<effectid>audiopan</effectid>
													<effectcategory>audiopan</effectcategory>
													<effecttype>audiopan</effecttype>
													<mediatype>audio</mediatype>
													<parameter>
														<name>Pan</name>
														<parameterid>pan</parameterid>
														<valuemin>-1</valuemin>
														<valuemax>1</valuemax>
														<value>-0</value>
													</parameter>
												</effect>
											</filter>
											<sourcetrack>
												<mediatype>audio</mediatype>
												<trackindex>2</trackindex>
											</sourcetrack>
											<link>
												<linkclipref>Raw Interview Matthew Duepner224</linkclipref>
												<mediatype>video</mediatype>
												<trackindex>1</trackindex>
												<clipindex>57</clipindex>
											</link>
											<link>
												<linkclipref>Raw Interview Matthew Duepner226</linkclipref>
												<mediatype>audio</mediatype>
												<trackindex>1</trackindex>
												<clipindex>57</clipindex>
												<groupindex>1</groupindex>
											</link>
											<link>
												<linkclipref>Raw Interview Matthew Duepner227</linkclipref>
												<mediatype>audio</mediatype>
												<trackindex>2</trackindex>
												<clipindex>57</clipindex>
												<groupindex>1</groupindex>
											</link>
											<itemhistory>
												<uuid>3C86477A-12B2-4E16-8B53-8AAA5192C6F2</uuid>
											</itemhistory>
										</clipitem>
										<clipitem id="Raw Interview Matthew Duepner231">
											<name>Raw Interview Matthew Duepner</name>
											<duration>81486</duration>
											<rate>
												<ntsc>TRUE</ntsc>
												<timebase>24</timebase>
											</rate>
											<in>1396</in>
											<out>1514</out>
											<start>11567</start>
											<end>11685</end>
											<masterclipid>Raw Interview Matthew Duepner382</masterclipid>
											<logginginfo>
												<scene/>
												<shottake/>
												<lognote/>
												<good>FALSE</good>
											</logginginfo>
											<labels>
												<label2/>
											</labels>
											<comments>
												<mastercomment1/>
												<mastercomment2/>
												<mastercomment3/>
												<mastercomment4/>
											</comments>
											<file id="YIN_2013-05-28_LG-5 "/>
											<filter>
												<effect>
													<name>Audio Levels</name>
													<effectid>audiolevels</effectid>
													<effectcategory>audiolevels</effectcategory>
													<effecttype>audiolevels</effecttype>
													<mediatype>audio</mediatype>
													<parameter>
														<name>Level</name>
														<parameterid>level</parameterid>
														<valuemin>0</valuemin>
														<valuemax>3.98109</valuemax>
														<value>1</value>
													</parameter>
												</effect>
											</filter>
											<filter>
												<effect>
													<name>Audio Pan</name>
													<effectid>audiopan</effectid>
													<effectcategory>audiopan</effectcategory>
													<effecttype>audiopan</effecttype>
													<mediatype>audio</mediatype>
													<parameter>
														<name>Pan</name>
														<parameterid>pan</parameterid>
														<valuemin>-1</valuemin>
														<valuemax>1</valuemax>
														<value>-0</value>
													</parameter>
												</effect>
											</filter>
											<sourcetrack>
												<mediatype>audio</mediatype>
												<trackindex>2</trackindex>
											</sourcetrack>
											<link>
												<linkclipref>Raw Interview Matthew Duepner228</linkclipref>
												<mediatype>video</mediatype>
												<trackindex>1</trackindex>
												<clipindex>58</clipindex>
											</link>
											<link>
												<linkclipref>Raw Interview Matthew Duepner230</linkclipref>
												<mediatype>audio</mediatype>
												<trackindex>1</trackindex>
												<clipindex>58</clipindex>
												<groupindex>1</groupindex>
											</link>
											<link>
												<linkclipref>Raw Interview Matthew Duepner231</linkclipref>
												<mediatype>audio</mediatype>
												<trackindex>2</trackindex>
												<clipindex>58</clipindex>
												<groupindex>1</groupindex>
											</link>
											<itemhistory>
												<uuid>8F32E3B0-3F75-4023-A63A-A12E27FDEEF2</uuid>
											</itemhistory>
										</clipitem>
										<clipitem id="Raw Interview Matthew Duepner235">
											<name>Raw Interview Matthew Duepner</name>
											<duration>81486</duration>
											<rate>
												<ntsc>TRUE</ntsc>
												<timebase>24</timebase>
											</rate>
											<in>1656</in>
											<out>1742</out>
											<start>11685</start>
											<end>11771</end>
											<masterclipid>Raw Interview Matthew Duepner383</masterclipid>
											<logginginfo>
												<scene/>
												<shottake/>
												<lognote/>
												<good>FALSE</good>
											</logginginfo>
											<labels>
												<label2/>
											</labels>
											<comments>
												<mastercomment1/>
												<mastercomment2/>
												<mastercomment3/>
												<mastercomment4/>
											</comments>
											<file id="YIN_2013-05-28_LG-5 "/>
											<filter>
												<effect>
													<name>Audio Levels</name>
													<effectid>audiolevels</effectid>
													<effectcategory>audiolevels</effectcategory>
													<effecttype>audiolevels</effecttype>
													<mediatype>audio</mediatype>
													<parameter>
														<name>Level</name>
														<parameterid>level</parameterid>
														<valuemin>0</valuemin>
														<valuemax>3.98109</valuemax>
														<value>1</value>
													</parameter>
												</effect>
											</filter>
											<filter>
												<effect>
													<name>Audio Pan</name>
													<effectid>audiopan</effectid>
													<effectcategory>audiopan</effectcategory>
													<effecttype>audiopan</effecttype>
													<mediatype>audio</mediatype>
													<parameter>
														<name>Pan</name>
														<parameterid>pan</parameterid>
														<valuemin>-1</valuemin>
														<valuemax>1</valuemax>
														<value>-0</value>
													</parameter>
												</effect>
											</filter>
											<sourcetrack>
												<mediatype>audio</mediatype>
												<trackindex>2</trackindex>
											</sourcetrack>
											<link>
												<linkclipref>Raw Interview Matthew Duepner232</linkclipref>
												<mediatype>video</mediatype>
												<trackindex>1</trackindex>
												<clipindex>59</clipindex>
											</link>
											<link>
												<linkclipref>Raw Interview Matthew Duepner234</linkclipref>
												<mediatype>audio</mediatype>
												<trackindex>1</trackindex>
												<clipindex>59</clipindex>
												<groupindex>1</groupindex>
											</link>
											<link>
												<linkclipref>Raw Interview Matthew Duepner235</linkclipref>
												<mediatype>audio</mediatype>
												<trackindex>2</trackindex>
												<clipindex>59</clipindex>
												<groupindex>1</groupindex>
											</link>
											<itemhistory>
												<uuid>0EEAE32E-AF69-4F1A-AA84-7B6CA06F933D</uuid>
											</itemhistory>
										</clipitem>
										<clipitem id="Raw Interview Matthew Duepner239">
											<name>Raw Interview Matthew Duepner</name>
											<duration>81486</duration>
											<rate>
												<ntsc>TRUE</ntsc>
												<timebase>24</timebase>
											</rate>
											<in>2087</in>
											<out>2229</out>
											<start>11771</start>
											<end>11913</end>
											<masterclipid>Raw Interview Matthew Duepner384</masterclipid>
											<logginginfo>
												<scene/>
												<shottake/>
												<lognote/>
												<good>FALSE</good>
											</logginginfo>
											<labels>
												<label2/>
											</labels>
											<comments>
												<mastercomment1/>
												<mastercomment2/>
												<mastercomment3/>
												<mastercomment4/>
											</comments>
											<file id="YIN_2013-05-28_LG-5 "/>
											<filter>
												<effect>
													<name>Audio Levels</name>
													<effectid>audiolevels</effectid>
													<effectcategory>audiolevels</effectcategory>
													<effecttype>audiolevels</effecttype>
													<mediatype>audio</mediatype>
													<parameter>
														<name>Level</name>
														<parameterid>level</parameterid>
														<valuemin>0</valuemin>
														<valuemax>3.98109</valuemax>
														<value>1</value>
													</parameter>
												</effect>
											</filter>
											<filter>
												<effect>
													<name>Audio Pan</name>
													<effectid>audiopan</effectid>
													<effectcategory>audiopan</effectcategory>
													<effecttype>audiopan</effecttype>
													<mediatype>audio</mediatype>
													<parameter>
														<name>Pan</name>
														<parameterid>pan</parameterid>
														<valuemin>-1</valuemin>
														<valuemax>1</valuemax>
														<value>-0</value>
													</parameter>
												</effect>
											</filter>
											<sourcetrack>
												<mediatype>audio</mediatype>
												<trackindex>2</trackindex>
											</sourcetrack>
											<link>
												<linkclipref>Raw Interview Matthew Duepner236</linkclipref>
												<mediatype>video</mediatype>
												<trackindex>1</trackindex>
												<clipindex>60</clipindex>
											</link>
											<link>
												<linkclipref>Raw Interview Matthew Duepner238</linkclipref>
												<mediatype>audio</mediatype>
												<trackindex>1</trackindex>
												<clipindex>60</clipindex>
												<groupindex>1</groupindex>
											</link>
											<link>
												<linkclipref>Raw Interview Matthew Duepner239</linkclipref>
												<mediatype>audio</mediatype>
												<trackindex>2</trackindex>
												<clipindex>60</clipindex>
												<groupindex>1</groupindex>
											</link>
											<itemhistory>
												<uuid>ECDA81F0-D5FD-4FC2-8B99-3BBD75D7561E</uuid>
											</itemhistory>
										</clipitem>
										<clipitem id="Raw Interview Matthew Duepner243">
											<name>Raw Interview Matthew Duepner</name>
											<duration>81486</duration>
											<rate>
												<ntsc>TRUE</ntsc>
												<timebase>24</timebase>
											</rate>
											<in>81210</in>
											<out>81278</out>
											<start>12178</start>
											<end>12246</end>
											<masterclipid>Raw Interview Matthew Duepner385</masterclipid>
											<logginginfo>
												<scene/>
												<shottake/>
												<lognote/>
												<good>FALSE</good>
											</logginginfo>
											<labels>
												<label2/>
											</labels>
											<comments>
												<mastercomment1/>
												<mastercomment2/>
												<mastercomment3/>
												<mastercomment4/>
											</comments>
											<file id="YIN_2013-05-28_LG-5 "/>
											<filter>
												<effect>
													<name>Audio Levels</name>
													<effectid>audiolevels</effectid>
													<effectcategory>audiolevels</effectcategory>
													<effecttype>audiolevels</effecttype>
													<mediatype>audio</mediatype>
													<parameter>
														<name>Level</name>
														<parameterid>level</parameterid>
														<valuemin>0</valuemin>
														<valuemax>3.98109</valuemax>
														<value>1</value>
													</parameter>
												</effect>
											</filter>
											<filter>
												<effect>
													<name>Audio Pan</name>
													<effectid>audiopan</effectid>
													<effectcategory>audiopan</effectcategory>
													<effecttype>audiopan</effecttype>
													<mediatype>audio</mediatype>
													<parameter>
														<name>Pan</name>
														<parameterid>pan</parameterid>
														<valuemin>-1</valuemin>
														<valuemax>1</valuemax>
														<value>-0</value>
													</parameter>
												</effect>
											</filter>
											<sourcetrack>
												<mediatype>audio</mediatype>
												<trackindex>2</trackindex>
											</sourcetrack>
											<link>
												<linkclipref>Raw Interview Matthew Duepner240</linkclipref>
												<mediatype>video</mediatype>
												<trackindex>1</trackindex>
												<clipindex>61</clipindex>
											</link>
											<link>
												<linkclipref>Raw Interview Matthew Duepner242</linkclipref>
												<mediatype>audio</mediatype>
												<trackindex>1</trackindex>
												<clipindex>61</clipindex>
												<groupindex>1</groupindex>
											</link>
											<link>
												<linkclipref>Raw Interview Matthew Duepner243</linkclipref>
												<mediatype>audio</mediatype>
												<trackindex>2</trackindex>
												<clipindex>61</clipindex>
												<groupindex>1</groupindex>
											</link>
											<itemhistory>
												<uuid>0A0FC440-6C56-47FD-A898-10F4557B8DDA</uuid>
											</itemhistory>
										</clipitem>
										<clipitem id="Raw Interview Matthew Duepner247">
											<name>Raw Interview Matthew Duepner</name>
											<duration>81486</duration>
											<rate>
												<ntsc>TRUE</ntsc>
												<timebase>24</timebase>
											</rate>
											<in>79574</in>
											<out>79734</out>
											<start>12246</start>
											<end>12406</end>
											<masterclipid>Raw Interview Matthew Duepner386</masterclipid>
											<logginginfo>
												<scene/>
												<shottake/>
												<lognote/>
												<good>FALSE</good>
											</logginginfo>
											<labels>
												<label2/>
											</labels>
											<comments>
												<mastercomment1/>
												<mastercomment2/>
												<mastercomment3/>
												<mastercomment4/>
											</comments>
											<file id="YIN_2013-05-28_LG-5 "/>
											<filter>
												<effect>
													<name>Audio Levels</name>
													<effectid>audiolevels</effectid>
													<effectcategory>audiolevels</effectcategory>
													<effecttype>audiolevels</effecttype>
													<mediatype>audio</mediatype>
													<parameter>
														<name>Level</name>
														<parameterid>level</parameterid>
														<valuemin>0</valuemin>
														<valuemax>3.98109</valuemax>
														<value>1</value>
													</parameter>
												</effect>
											</filter>
											<filter>
												<effect>
													<name>Audio Pan</name>
													<effectid>audiopan</effectid>
													<effectcategory>audiopan</effectcategory>
													<effecttype>audiopan</effecttype>
													<mediatype>audio</mediatype>
													<parameter>
														<name>Pan</name>
														<parameterid>pan</parameterid>
														<valuemin>-1</valuemin>
														<valuemax>1</valuemax>
														<value>-0</value>
													</parameter>
												</effect>
											</filter>
											<sourcetrack>
												<mediatype>audio</mediatype>
												<trackindex>2</trackindex>
											</sourcetrack>
											<link>
												<linkclipref>Raw Interview Matthew Duepner244</linkclipref>
												<mediatype>video</mediatype>
												<trackindex>1</trackindex>
												<clipindex>62</clipindex>
											</link>
											<link>
												<linkclipref>Raw Interview Matthew Duepner246</linkclipref>
												<mediatype>audio</mediatype>
												<trackindex>1</trackindex>
												<clipindex>62</clipindex>
												<groupindex>1</groupindex>
											</link>
											<link>
												<linkclipref>Raw Interview Matthew Duepner247</linkclipref>
												<mediatype>audio</mediatype>
												<trackindex>2</trackindex>
												<clipindex>62</clipindex>
												<groupindex>1</groupindex>
											</link>
											<itemhistory>
												<uuid>0A7D9EFF-915A-4947-9EAE-4D8E57B30E52</uuid>
											</itemhistory>
										</clipitem>
										<clipitem id="Raw Interview Matthew Duepner251">
											<name>Raw Interview Matthew Duepner</name>
											<duration>81486</duration>
											<rate>
												<ntsc>TRUE</ntsc>
												<timebase>24</timebase>
											</rate>
											<in>7002</in>
											<out>7205</out>
											<start>12988</start>
											<end>13191</end>
											<masterclipid>Raw Interview Matthew Duepner387</masterclipid>
											<logginginfo>
												<scene/>
												<shottake/>
												<lognote/>
												<good>FALSE</good>
											</logginginfo>
											<labels>
												<label2/>
											</labels>
											<comments>
												<mastercomment1/>
												<mastercomment2/>
												<mastercomment3/>
												<mastercomment4/>
											</comments>
											<file id="YIN_2013-05-28_LG-5 "/>
											<filter>
												<effect>
													<name>Audio Levels</name>
													<effectid>audiolevels</effectid>
													<effectcategory>audiolevels</effectcategory>
													<effecttype>audiolevels</effecttype>
													<mediatype>audio</mediatype>
													<parameter>
														<name>Level</name>
														<parameterid>level</parameterid>
														<valuemin>0</valuemin>
														<valuemax>3.98109</valuemax>
														<value>1</value>
													</parameter>
												</effect>
											</filter>
											<filter>
												<effect>
													<name>Audio Pan</name>
													<effectid>audiopan</effectid>
													<effectcategory>audiopan</effectcategory>
													<effecttype>audiopan</effecttype>
													<mediatype>audio</mediatype>
													<parameter>
														<name>Pan</name>
														<parameterid>pan</parameterid>
														<valuemin>-1</valuemin>
														<valuemax>1</valuemax>
														<value>-0</value>
													</parameter>
												</effect>
											</filter>
											<sourcetrack>
												<mediatype>audio</mediatype>
												<trackindex>2</trackindex>
											</sourcetrack>
											<link>
												<linkclipref>Raw Interview Matthew Duepner248</linkclipref>
												<mediatype>video</mediatype>
												<trackindex>1</trackindex>
												<clipindex>63</clipindex>
											</link>
											<link>
												<linkclipref>Raw Interview Matthew Duepner250</linkclipref>
												<mediatype>audio</mediatype>
												<trackindex>1</trackindex>
												<clipindex>63</clipindex>
												<groupindex>1</groupindex>
											</link>
											<link>
												<linkclipref>Raw Interview Matthew Duepner251</linkclipref>
												<mediatype>audio</mediatype>
												<trackindex>2</trackindex>
												<clipindex>63</clipindex>
												<groupindex>1</groupindex>
											</link>
											<itemhistory>
												<uuid>738F8316-0518-4518-97CF-56F7D1C9B0C2</uuid>
											</itemhistory>
										</clipitem>
										<clipitem id="Raw Interview Matthew Duepner255">
											<name>Raw Interview Matthew Duepner</name>
											<duration>81486</duration>
											<rate>
												<ntsc>TRUE</ntsc>
												<timebase>24</timebase>
											</rate>
											<in>11865</in>
											<out>11984</out>
											<start>14093</start>
											<end>14212</end>
											<masterclipid>Raw Interview Matthew Duepner388</masterclipid>
											<logginginfo>
												<scene/>
												<shottake/>
												<lognote/>
												<good>FALSE</good>
											</logginginfo>
											<labels>
												<label2/>
											</labels>
											<comments>
												<mastercomment1/>
												<mastercomment2/>
												<mastercomment3/>
												<mastercomment4/>
											</comments>
											<file id="YIN_2013-05-28_LG-5 "/>
											<filter>
												<effect>
													<name>Audio Levels</name>
													<effectid>audiolevels</effectid>
													<effectcategory>audiolevels</effectcategory>
													<effecttype>audiolevels</effecttype>
													<mediatype>audio</mediatype>
													<parameter>
														<name>Level</name>
														<parameterid>level</parameterid>
														<valuemin>0</valuemin>
														<valuemax>3.98109</valuemax>
														<value>1</value>
													</parameter>
												</effect>
											</filter>
											<filter>
												<effect>
													<name>Audio Pan</name>
													<effectid>audiopan</effectid>
													<effectcategory>audiopan</effectcategory>
													<effecttype>audiopan</effecttype>
													<mediatype>audio</mediatype>
													<parameter>
														<name>Pan</name>
														<parameterid>pan</parameterid>
														<valuemin>-1</valuemin>
														<valuemax>1</valuemax>
														<value>-0</value>
													</parameter>
												</effect>
											</filter>
											<sourcetrack>
												<mediatype>audio</mediatype>
												<trackindex>2</trackindex>
											</sourcetrack>
											<link>
												<linkclipref>Raw Interview Matthew Duepner252</linkclipref>
												<mediatype>video</mediatype>
												<trackindex>1</trackindex>
												<clipindex>64</clipindex>
											</link>
											<link>
												<linkclipref>Raw Interview Matthew Duepner254</linkclipref>
												<mediatype>audio</mediatype>
												<trackindex>1</trackindex>
												<clipindex>64</clipindex>
												<groupindex>1</groupindex>
											</link>
											<link>
												<linkclipref>Raw Interview Matthew Duepner255</linkclipref>
												<mediatype>audio</mediatype>
												<trackindex>2</trackindex>
												<clipindex>64</clipindex>
												<groupindex>1</groupindex>
											</link>
											<itemhistory>
												<uuid>2658D31D-FD59-40FE-9C4E-DE9404F0FD78</uuid>
											</itemhistory>
										</clipitem>
										<clipitem id="Raw Interview Matthew Duepner259">
											<name>Raw Interview Matthew Duepner</name>
											<duration>81486</duration>
											<rate>
												<ntsc>TRUE</ntsc>
												<timebase>24</timebase>
											</rate>
											<in>12116</in>
											<out>12289</out>
											<start>14212</start>
											<end>14385</end>
											<masterclipid>Raw Interview Matthew Duepner389</masterclipid>
											<logginginfo>
												<scene/>
												<shottake/>
												<lognote/>
												<good>FALSE</good>
											</logginginfo>
											<labels>
												<label2/>
											</labels>
											<comments>
												<mastercomment1/>
												<mastercomment2/>
												<mastercomment3/>
												<mastercomment4/>
											</comments>
											<file id="YIN_2013-05-28_LG-5 "/>
											<filter>
												<effect>
													<name>Audio Levels</name>
													<effectid>audiolevels</effectid>
													<effectcategory>audiolevels</effectcategory>
													<effecttype>audiolevels</effecttype>
													<mediatype>audio</mediatype>
													<parameter>
														<name>Level</name>
														<parameterid>level</parameterid>
														<valuemin>0</valuemin>
														<valuemax>3.98109</valuemax>
														<value>1</value>
													</parameter>
												</effect>
											</filter>
											<filter>
												<effect>
													<name>Audio Pan</name>
													<effectid>audiopan</effectid>
													<effectcategory>audiopan</effectcategory>
													<effecttype>audiopan</effecttype>
													<mediatype>audio</mediatype>
													<parameter>
														<name>Pan</name>
														<parameterid>pan</parameterid>
														<valuemin>-1</valuemin>
														<valuemax>1</valuemax>
														<value>-0</value>
													</parameter>
												</effect>
											</filter>
											<sourcetrack>
												<mediatype>audio</mediatype>
												<trackindex>2</trackindex>
											</sourcetrack>
											<link>
												<linkclipref>Raw Interview Matthew Duepner256</linkclipref>
												<mediatype>video</mediatype>
												<trackindex>1</trackindex>
												<clipindex>65</clipindex>
											</link>
											<link>
												<linkclipref>Raw Interview Matthew Duepner258</linkclipref>
												<mediatype>audio</mediatype>
												<trackindex>1</trackindex>
												<clipindex>65</clipindex>
												<groupindex>1</groupindex>
											</link>
											<link>
												<linkclipref>Raw Interview Matthew Duepner259</linkclipref>
												<mediatype>audio</mediatype>
												<trackindex>2</trackindex>
												<clipindex>65</clipindex>
												<groupindex>1</groupindex>
											</link>
											<itemhistory>
												<uuid>429EF84D-E7B1-4E09-9ACB-0A6C8625E582</uuid>
											</itemhistory>
										</clipitem>
										<enabled>TRUE</enabled>
										<locked>FALSE</locked>
										<outputchannelindex>2</outputchannelindex>
									</track>
									<track>
										<enabled>TRUE</enabled>
										<locked>FALSE</locked>
										<outputchannelindex>1</outputchannelindex>
									</track>
									<track>
										<enabled>TRUE</enabled>
										<locked>FALSE</locked>
										<outputchannelindex>2</outputchannelindex>
									</track>
									<track>
										<enabled>TRUE</enabled>
										<locked>FALSE</locked>
										<outputchannelindex>1</outputchannelindex>
									</track>
									<track>
										<enabled>TRUE</enabled>
										<locked>FALSE</locked>
										<outputchannelindex>2</outputchannelindex>
									</track>
									<track>
										<enabled>TRUE</enabled>
										<locked>FALSE</locked>
										<outputchannelindex>1</outputchannelindex>
									</track>
									<track>
										<enabled>TRUE</enabled>
										<locked>FALSE</locked>
										<outputchannelindex>2</outputchannelindex>
									</track>
									<track>
										<enabled>TRUE</enabled>
										<locked>FALSE</locked>
										<outputchannelindex>1</outputchannelindex>
									</track>
									<track>
										<enabled>TRUE</enabled>
										<locked>FALSE</locked>
										<outputchannelindex>2</outputchannelindex>
									</track>
									<track>
										<enabled>TRUE</enabled>
										<locked>FALSE</locked>
										<outputchannelindex>1</outputchannelindex>
									</track>
									<track>
										<enabled>TRUE</enabled>
										<locked>FALSE</locked>
										<outputchannelindex>2</outputchannelindex>
									</track>
									<track>
										<enabled>TRUE</enabled>
										<locked>FALSE</locked>
										<outputchannelindex>1</outputchannelindex>
									</track>
									<track>
										<enabled>TRUE</enabled>
										<locked>FALSE</locked>
										<outputchannelindex>2</outputchannelindex>
									</track>
									<track>
										<enabled>TRUE</enabled>
										<locked>FALSE</locked>
										<outputchannelindex>1</outputchannelindex>
									</track>
									<track>
										<enabled>TRUE</enabled>
										<locked>FALSE</locked>
										<outputchannelindex>2</outputchannelindex>
									</track>
									<track>
										<enabled>TRUE</enabled>
										<locked>FALSE</locked>
										<outputchannelindex>1</outputchannelindex>
									</track>
									<track>
										<enabled>TRUE</enabled>
										<locked>FALSE</locked>
										<outputchannelindex>2</outputchannelindex>
									</track>
									<track>
										<enabled>TRUE</enabled>
										<locked>FALSE</locked>
										<outputchannelindex>1</outputchannelindex>
									</track>
									<track>
										<enabled>TRUE</enabled>
										<locked>FALSE</locked>
										<outputchannelindex>2</outputchannelindex>
									</track>
									<track>
										<enabled>TRUE</enabled>
										<locked>FALSE</locked>
										<outputchannelindex>1</outputchannelindex>
									</track>
									<track>
										<enabled>TRUE</enabled>
										<locked>FALSE</locked>
										<outputchannelindex>2</outputchannelindex>
									</track>
									<track>
										<enabled>TRUE</enabled>
										<locked>FALSE</locked>
										<outputchannelindex>1</outputchannelindex>
									</track>
									<track>
										<enabled>TRUE</enabled>
										<locked>FALSE</locked>
										<outputchannelindex>2</outputchannelindex>
									</track>
									<track>
										<enabled>TRUE</enabled>
										<locked>FALSE</locked>
										<outputchannelindex>1</outputchannelindex>
									</track>
									<track>
										<enabled>TRUE</enabled>
										<locked>FALSE</locked>
										<outputchannelindex>2</outputchannelindex>
									</track>
									<track>
										<enabled>TRUE</enabled>
										<locked>FALSE</locked>
										<outputchannelindex>1</outputchannelindex>
									</track>
									<track>
										<enabled>TRUE</enabled>
										<locked>FALSE</locked>
										<outputchannelindex>2</outputchannelindex>
									</track>
									<track>
										<enabled>TRUE</enabled>
										<locked>FALSE</locked>
										<outputchannelindex>1</outputchannelindex>
									</track>
									<track>
										<enabled>TRUE</enabled>
										<locked>FALSE</locked>
										<outputchannelindex>2</outputchannelindex>
									</track>
									<track>
										<enabled>TRUE</enabled>
										<locked>FALSE</locked>
										<outputchannelindex>1</outputchannelindex>
									</track>
									<track>
										<enabled>TRUE</enabled>
										<locked>FALSE</locked>
										<outputchannelindex>2</outputchannelindex>
									</track>
									<track>
										<enabled>TRUE</enabled>
										<locked>FALSE</locked>
										<outputchannelindex>1</outputchannelindex>
									</track>
									<track>
										<enabled>TRUE</enabled>
										<locked>FALSE</locked>
										<outputchannelindex>2</outputchannelindex>
									</track>
									<track>
										<enabled>TRUE</enabled>
										<locked>FALSE</locked>
										<outputchannelindex>1</outputchannelindex>
									</track>
									<track>
										<enabled>TRUE</enabled>
										<locked>FALSE</locked>
										<outputchannelindex>2</outputchannelindex>
									</track>
									<track>
										<enabled>TRUE</enabled>
										<locked>FALSE</locked>
										<outputchannelindex>1</outputchannelindex>
									</track>
									<track>
										<enabled>TRUE</enabled>
										<locked>FALSE</locked>
										<outputchannelindex>2</outputchannelindex>
									</track>
									<track>
										<enabled>TRUE</enabled>
										<locked>FALSE</locked>
										<outputchannelindex>1</outputchannelindex>
									</track>
									<track>
										<enabled>TRUE</enabled>
										<locked>FALSE</locked>
										<outputchannelindex>2</outputchannelindex>
									</track>
									<track>
										<enabled>TRUE</enabled>
										<locked>FALSE</locked>
										<outputchannelindex>1</outputchannelindex>
									</track>
									<track>
										<enabled>TRUE</enabled>
										<locked>FALSE</locked>
										<outputchannelindex>2</outputchannelindex>
									</track>
									<track>
										<enabled>TRUE</enabled>
										<locked>FALSE</locked>
										<outputchannelindex>1</outputchannelindex>
									</track>
									<track>
										<enabled>TRUE</enabled>
										<locked>FALSE</locked>
										<outputchannelindex>2</outputchannelindex>
									</track>
									<track>
										<enabled>TRUE</enabled>
										<locked>FALSE</locked>
										<outputchannelindex>1</outputchannelindex>
									</track>
									<track>
										<enabled>TRUE</enabled>
										<locked>FALSE</locked>
										<outputchannelindex>2</outputchannelindex>
									</track>
									<track>
										<enabled>TRUE</enabled>
										<locked>FALSE</locked>
										<outputchannelindex>1</outputchannelindex>
									</track>
									<track>
										<enabled>TRUE</enabled>
										<locked>FALSE</locked>
										<outputchannelindex>2</outputchannelindex>
									</track>
									<track>
										<enabled>TRUE</enabled>
										<locked>FALSE</locked>
										<outputchannelindex>1</outputchannelindex>
									</track>
									<track>
										<enabled>TRUE</enabled>
										<locked>FALSE</locked>
										<outputchannelindex>2</outputchannelindex>
									</track>
									<track>
										<enabled>TRUE</enabled>
										<locked>FALSE</locked>
										<outputchannelindex>1</outputchannelindex>
									</track>
									<track>
										<enabled>TRUE</enabled>
										<locked>FALSE</locked>
										<outputchannelindex>2</outputchannelindex>
									</track>
									<track>
										<enabled>TRUE</enabled>
										<locked>FALSE</locked>
										<outputchannelindex>1</outputchannelindex>
									</track>
									<track>
										<enabled>TRUE</enabled>
										<locked>FALSE</locked>
										<outputchannelindex>2</outputchannelindex>
									</track>
									<track>
										<enabled>TRUE</enabled>
										<locked>FALSE</locked>
										<outputchannelindex>1</outputchannelindex>
									</track>
									<track>
										<enabled>TRUE</enabled>
										<locked>FALSE</locked>
										<outputchannelindex>2</outputchannelindex>
									</track>
									<track>
										<enabled>TRUE</enabled>
										<locked>FALSE</locked>
										<outputchannelindex>1</outputchannelindex>
									</track>
									<track>
										<enabled>TRUE</enabled>
										<locked>FALSE</locked>
										<outputchannelindex>2</outputchannelindex>
									</track>
									<track>
										<enabled>TRUE</enabled>
										<locked>FALSE</locked>
										<outputchannelindex>1</outputchannelindex>
									</track>
									<track>
										<enabled>TRUE</enabled>
										<locked>FALSE</locked>
										<outputchannelindex>2</outputchannelindex>
									</track>
									<track>
										<enabled>TRUE</enabled>
										<locked>FALSE</locked>
										<outputchannelindex>1</outputchannelindex>
									</track>
									<track>
										<enabled>TRUE</enabled>
										<locked>FALSE</locked>
										<outputchannelindex>2</outputchannelindex>
									</track>
									<track>
										<enabled>TRUE</enabled>
										<locked>FALSE</locked>
										<outputchannelindex>1</outputchannelindex>
									</track>
									<track>
										<enabled>TRUE</enabled>
										<locked>FALSE</locked>
										<outputchannelindex>2</outputchannelindex>
									</track>
									<track>
										<enabled>TRUE</enabled>
										<locked>FALSE</locked>
										<outputchannelindex>1</outputchannelindex>
									</track>
									<track>
										<enabled>TRUE</enabled>
										<locked>FALSE</locked>
										<outputchannelindex>2</outputchannelindex>
									</track>
									<filter>
										<effect>
											<name>Audio Levels</name>
											<effectid>audiolevels</effectid>
											<effectcategory>audiolevels</effectcategory>
											<effecttype>audiolevels</effecttype>
											<mediatype>audio</mediatype>
											<parameter>
												<name>Level</name>
												<parameterid>level</parameterid>
												<valuemin>0</valuemin>
												<valuemax>3.98109</valuemax>
												<value>1</value>
											</parameter>
										</effect>
									</filter>
								</audio>
							</media>
							<ismasterclip>FALSE</ismasterclip>
						</sequence>
						<sequence id="Assembly Scene Matthew Deupner">
							<uuid>6D504DA6-0FDF-4D39-9865-73F29BB9263A</uuid>
							<updatebehavior>add</updatebehavior>
							<name>Assembly Scene Matthew Deupner</name>
							<duration>9784</duration>
							<rate>
								<ntsc>TRUE</ntsc>
								<timebase>24</timebase>
							</rate>
							<timecode>
								<rate>
									<ntsc>TRUE</ntsc>
									<timebase>24</timebase>
								</rate>
								<string>00:00:00:00</string>
								<frame>0</frame>
								<source>source</source>
								<displayformat>NDF</displayformat>
							</timecode>
							<in>-1</in>
							<out>-1</out>
							<media>
								<video>
									<format>
										<samplecharacteristics>
											<width>640</width>
											<height>360</height>
											<anamorphic>FALSE</anamorphic>
											<pixelaspectratio>Square</pixelaspectratio>
											<fielddominance>none</fielddominance>
											<rate>
												<ntsc>TRUE</ntsc>
												<timebase>24</timebase>
											</rate>
											<colordepth>24</colordepth>
											<codec>
												<name>Apple ProRes 422</name>
												<appspecificdata>
													<appname>Final Cut Pro</appname>
													<appmanufacturer>Apple Inc.</appmanufacturer>
													<appversion>7.0</appversion>
													<data>
														<qtcodec>
															<codecname>Apple ProRes 422</codecname>
															<codectypename>Apple ProRes 422</codectypename>
															<codectypecode>apcn</codectypecode>
															<codecvendorcode>appl</codecvendorcode>
															<spatialquality>1024</spatialquality>
															<temporalquality>0</temporalquality>
															<keyframerate>0</keyframerate>
															<datarate>0</datarate>
														</qtcodec>
													</data>
												</appspecificdata>
											</codec>
										</samplecharacteristics>
										<appspecificdata>
											<appname>Final Cut Pro</appname>
											<appmanufacturer>Apple Inc.</appmanufacturer>
											<appversion>7.0</appversion>
											<data>
												<fcpimageprocessing>
													<useyuv>TRUE</useyuv>
													<usesuperwhite>TRUE</usesuperwhite>
													<rendermode>Float10BPP</rendermode>
												</fcpimageprocessing>
											</data>
										</appspecificdata>
									</format>
									<track>
										<enabled>TRUE</enabled>
										<locked>FALSE</locked>
									</track>
									<track>
										<enabled>TRUE</enabled>
										<locked>FALSE</locked>
									</track>
									<track>
										<clipitem id="Raw B Roll Hack Manhattan Matthew Duepner's House">
											<name>Raw B Roll Hack Manhattan Matthew Duepner's House</name>
											<duration>6617</duration>
											<rate>
												<ntsc>TRUE</ntsc>
												<timebase>24</timebase>
											</rate>
											<in>5680</in>
											<out>5776</out>
											<start>0</start>
											<end>96</end>
											<pixelaspectratio>Square</pixelaspectratio>
											<anamorphic>FALSE</anamorphic>
											<alphatype>black</alphatype>
											<masterclipid>Raw B Roll Hack Manhattan Matthew Duepner's House1</masterclipid>
											<logginginfo>
												<scene/>
												<shottake/>
												<lognote/>
												<good>FALSE</good>
											</logginginfo>
											<labels>
												<label2/>
											</labels>
											<comments>
												<mastercomment1/>
												<mastercomment2/>
												<mastercomment3/>
												<mastercomment4/>
											</comments>
											<file id="YIN_2013-04-28_JB-1 ">
												<name>YIN_2013-04-28_JB-1.mov</name>
												<pathurl>file://localhost/Volumes/Curiouser%2010cc/Curiouser/Video/Active/Your%20Input%20Needed/Produced%20assets/Offline/jBuras/New%20York%20City%20-%20HackManhattan/YIN_2013-04-28_JB-1.mov</pathurl>
												<rate>
													<timebase>24</timebase>
													<ntsc>TRUE</ntsc>
												</rate>
												<duration>6617</duration>
												<media>
													<video>
														<duration>6617</duration>
														<samplecharacteristics>
															<width>640</width>
															<height>360</height>
														</samplecharacteristics>
													</video>
													<audio>
														<samplecharacteristics>
															<samplerate>48000</samplerate>
															<depth>32</depth>
														</samplecharacteristics>
														<channelcount>2</channelcount>
													</audio>
												</media>
											</file>
											<sourcetrack>
												<mediatype>video</mediatype>
											</sourcetrack>
											<link>
												<linkclipref>Raw B Roll Hack Manhattan Matthew Duepner's House</linkclipref>
												<mediatype>video</mediatype>
												<trackindex>3</trackindex>
												<clipindex>1</clipindex>
											</link>
											<link>
												<linkclipref>Raw B Roll Hack Manhattan Matthew Duepner's House2</linkclipref>
												<mediatype>audio</mediatype>
												<trackindex>65</trackindex>
												<clipindex>1</clipindex>
												<groupindex>1</groupindex>
											</link>
											<link>
												<linkclipref>Raw B Roll Hack Manhattan Matthew Duepner's House3</linkclipref>
												<mediatype>audio</mediatype>
												<trackindex>66</trackindex>
												<clipindex>1</clipindex>
												<groupindex>1</groupindex>
											</link>
											<fielddominance>none</fielddominance>
											<itemhistory>
												<uuid>14D238C1-BCD6-4EAC-8B13-043E4969D862</uuid>
											</itemhistory>
										</clipitem>
										<clipitem id="Raw B Roll Hack Manhattan Matthew Duepner's House4">
											<name>Raw B Roll Hack Manhattan Matthew Duepner's House</name>
											<duration>6617</duration>
											<rate>
												<ntsc>TRUE</ntsc>
												<timebase>24</timebase>
											</rate>
											<in>6344</in>
											<out>6443</out>
											<start>96</start>
											<end>195</end>
											<pixelaspectratio>Square</pixelaspectratio>
											<anamorphic>FALSE</anamorphic>
											<alphatype>black</alphatype>
											<masterclipid>Raw B Roll Hack Manhattan Matthew Duepner's House1</masterclipid>
											<logginginfo>
												<scene/>
												<shottake/>
												<lognote/>
												<good>FALSE</good>
											</logginginfo>
											<labels>
												<label2/>
											</labels>
											<comments>
												<mastercomment1/>
												<mastercomment2/>
												<mastercomment3/>
												<mastercomment4/>
											</comments>
											<file id="YIN_2013-04-28_JB-1 "/>
											<sourcetrack>
												<mediatype>video</mediatype>
											</sourcetrack>
											<link>
												<linkclipref>Raw B Roll Hack Manhattan Matthew Duepner's House4</linkclipref>
												<mediatype>video</mediatype>
												<trackindex>3</trackindex>
												<clipindex>2</clipindex>
											</link>
											<link>
												<linkclipref>Raw B Roll Hack Manhattan Matthew Duepner's House5</linkclipref>
												<mediatype>audio</mediatype>
												<trackindex>65</trackindex>
												<clipindex>2</clipindex>
												<groupindex>1</groupindex>
											</link>
											<link>
												<linkclipref>Raw B Roll Hack Manhattan Matthew Duepner's House6</linkclipref>
												<mediatype>audio</mediatype>
												<trackindex>66</trackindex>
												<clipindex>2</clipindex>
												<groupindex>1</groupindex>
											</link>
											<fielddominance>none</fielddominance>
											<itemhistory>
												<uuid>15F3DE46-6B46-49D9-800F-203F15F5E19F</uuid>
											</itemhistory>
										</clipitem>
										<clipitem id="Raw B Roll Hack Manhattan Matthew Duepner's House7">
											<name>Raw B Roll Hack Manhattan Matthew Duepner's House</name>
											<duration>6617</duration>
											<rate>
												<ntsc>TRUE</ntsc>
												<timebase>24</timebase>
											</rate>
											<in>6530</in>
											<out>6600</out>
											<start>195</start>
											<end>265</end>
											<pixelaspectratio>Square</pixelaspectratio>
											<anamorphic>FALSE</anamorphic>
											<alphatype>black</alphatype>
											<masterclipid>Raw B Roll Hack Manhattan Matthew Duepner's House1</masterclipid>
											<logginginfo>
												<scene/>
												<shottake/>
												<lognote/>
												<good>FALSE</good>
											</logginginfo>
											<labels>
												<label2/>
											</labels>
											<comments>
												<mastercomment1/>
												<mastercomment2/>
												<mastercomment3/>
												<mastercomment4/>
											</comments>
											<file id="YIN_2013-04-28_JB-1 "/>
											<sourcetrack>
												<mediatype>video</mediatype>
											</sourcetrack>
											<link>
												<linkclipref>Raw B Roll Hack Manhattan Matthew Duepner's House7</linkclipref>
												<mediatype>video</mediatype>
												<trackindex>3</trackindex>
												<clipindex>3</clipindex>
											</link>
											<link>
												<linkclipref>Raw B Roll Hack Manhattan Matthew Duepner's House8</linkclipref>
												<mediatype>audio</mediatype>
												<trackindex>65</trackindex>
												<clipindex>3</clipindex>
												<groupindex>1</groupindex>
											</link>
											<link>
												<linkclipref>Raw B Roll Hack Manhattan Matthew Duepner's House9</linkclipref>
												<mediatype>audio</mediatype>
												<trackindex>66</trackindex>
												<clipindex>3</clipindex>
												<groupindex>1</groupindex>
											</link>
											<fielddominance>none</fielddominance>
											<itemhistory>
												<uuid>AB1E7F53-85B1-40E4-BC26-4435B631D5D5</uuid>
											</itemhistory>
										</clipitem>
										<clipitem id="Raw B Roll Hack Manhattan Matthew Duepner's House10">
											<name>Raw B Roll Hack Manhattan Matthew Duepner's House</name>
											<duration>6617</duration>
											<rate>
												<ntsc>TRUE</ntsc>
												<timebase>24</timebase>
											</rate>
											<in>6074</in>
											<out>6140</out>
											<start>265</start>
											<end>331</end>
											<pixelaspectratio>Square</pixelaspectratio>
											<anamorphic>FALSE</anamorphic>
											<alphatype>black</alphatype>
											<masterclipid>Raw B Roll Hack Manhattan Matthew Duepner's House1</masterclipid>
											<logginginfo>
												<scene/>
												<shottake/>
												<lognote/>
												<good>FALSE</good>
											</logginginfo>
											<labels>
												<label2/>
											</labels>
											<comments>
												<mastercomment1/>
												<mastercomment2/>
												<mastercomment3/>
												<mastercomment4/>
											</comments>
											<file id="YIN_2013-04-28_JB-1 "/>
											<sourcetrack>
												<mediatype>video</mediatype>
											</sourcetrack>
											<link>
												<linkclipref>Raw B Roll Hack Manhattan Matthew Duepner's House10</linkclipref>
												<mediatype>video</mediatype>
												<trackindex>3</trackindex>
												<clipindex>4</clipindex>
											</link>
											<link>
												<linkclipref>Raw B Roll Hack Manhattan Matthew Duepner's House11</linkclipref>
												<mediatype>audio</mediatype>
												<trackindex>65</trackindex>
												<clipindex>4</clipindex>
												<groupindex>1</groupindex>
											</link>
											<link>
												<linkclipref>Raw B Roll Hack Manhattan Matthew Duepner's House12</linkclipref>
												<mediatype>audio</mediatype>
												<trackindex>66</trackindex>
												<clipindex>4</clipindex>
												<groupindex>1</groupindex>
											</link>
											<fielddominance>none</fielddominance>
											<itemhistory>
												<uuid>DC85782E-AC78-4B98-94B6-3AC1603F431E</uuid>
											</itemhistory>
										</clipitem>
										<clipitem id="Raw B Roll Hack Manhattan Matthew Duepner's House13">
											<name>Raw B Roll Hack Manhattan Matthew Duepner's House</name>
											<duration>6617</duration>
											<rate>
												<ntsc>TRUE</ntsc>
												<timebase>24</timebase>
											</rate>
											<in>5559</in>
											<out>5659</out>
											<start>331</start>
											<end>431</end>
											<pixelaspectratio>Square</pixelaspectratio>
											<anamorphic>FALSE</anamorphic>
											<alphatype>black</alphatype>
											<masterclipid>Raw B Roll Hack Manhattan Matthew Duepner's House1</masterclipid>
											<logginginfo>
												<scene/>
												<shottake/>
												<lognote/>
												<good>FALSE</good>
											</logginginfo>
											<labels>
												<label2/>
											</labels>
											<comments>
												<mastercomment1/>
												<mastercomment2/>
												<mastercomment3/>
												<mastercomment4/>
											</comments>
											<file id="YIN_2013-04-28_JB-1 "/>
											<sourcetrack>
												<mediatype>video</mediatype>
											</sourcetrack>
											<link>
												<linkclipref>Raw B Roll Hack Manhattan Matthew Duepner's House13</linkclipref>
												<mediatype>video</mediatype>
												<trackindex>3</trackindex>
												<clipindex>5</clipindex>
											</link>
											<link>
												<linkclipref>Raw B Roll Hack Manhattan Matthew Duepner's House14</linkclipref>
												<mediatype>audio</mediatype>
												<trackindex>65</trackindex>
												<clipindex>5</clipindex>
												<groupindex>1</groupindex>
											</link>
											<link>
												<linkclipref>Raw B Roll Hack Manhattan Matthew Duepner's House15</linkclipref>
												<mediatype>audio</mediatype>
												<trackindex>66</trackindex>
												<clipindex>5</clipindex>
												<groupindex>1</groupindex>
											</link>
											<fielddominance>none</fielddominance>
											<itemhistory>
												<uuid>CC8A11CF-6016-4B98-802C-CFEB41BDA038</uuid>
											</itemhistory>
										</clipitem>
										<clipitem id="Raw B Roll Hack Manhattan Matthew Duepner's House16">
											<name>Raw B Roll Hack Manhattan Matthew Duepner's House</name>
											<duration>6617</duration>
											<rate>
												<ntsc>TRUE</ntsc>
												<timebase>24</timebase>
											</rate>
											<in>5878</in>
											<out>5953</out>
											<start>431</start>
											<end>506</end>
											<pixelaspectratio>Square</pixelaspectratio>
											<anamorphic>FALSE</anamorphic>
											<alphatype>black</alphatype>
											<masterclipid>Raw B Roll Hack Manhattan Matthew Duepner's House1</masterclipid>
											<logginginfo>
												<scene/>
												<shottake/>
												<lognote/>
												<good>FALSE</good>
											</logginginfo>
											<labels>
												<label2/>
											</labels>
											<comments>
												<mastercomment1/>
												<mastercomment2/>
												<mastercomment3/>
												<mastercomment4/>
											</comments>
											<file id="YIN_2013-04-28_JB-1 "/>
											<sourcetrack>
												<mediatype>video</mediatype>
											</sourcetrack>
											<link>
												<linkclipref>Raw B Roll Hack Manhattan Matthew Duepner's House16</linkclipref>
												<mediatype>video</mediatype>
												<trackindex>3</trackindex>
												<clipindex>6</clipindex>
											</link>
											<link>
												<linkclipref>Raw B Roll Hack Manhattan Matthew Duepner's House17</linkclipref>
												<mediatype>audio</mediatype>
												<trackindex>65</trackindex>
												<clipindex>6</clipindex>
												<groupindex>1</groupindex>
											</link>
											<link>
												<linkclipref>Raw B Roll Hack Manhattan Matthew Duepner's House18</linkclipref>
												<mediatype>audio</mediatype>
												<trackindex>66</trackindex>
												<clipindex>6</clipindex>
												<groupindex>1</groupindex>
											</link>
											<fielddominance>none</fielddominance>
											<itemhistory>
												<uuid>4F7CB031-9986-4FFC-AF19-EA4AB76836AC</uuid>
											</itemhistory>
										</clipitem>
										<clipitem id="Raw B Roll Hack Manhattan Matthew Duepner's House19">
											<name>Raw B Roll Hack Manhattan Matthew Duepner's House</name>
											<duration>6617</duration>
											<rate>
												<ntsc>TRUE</ntsc>
												<timebase>24</timebase>
											</rate>
											<in>4745</in>
											<out>4829</out>
											<start>506</start>
											<end>590</end>
											<pixelaspectratio>Square</pixelaspectratio>
											<anamorphic>FALSE</anamorphic>
											<alphatype>black</alphatype>
											<masterclipid>Raw B Roll Hack Manhattan Matthew Duepner's House1</masterclipid>
											<logginginfo>
												<scene/>
												<shottake/>
												<lognote/>
												<good>FALSE</good>
											</logginginfo>
											<labels>
												<label2/>
											</labels>
											<comments>
												<mastercomment1/>
												<mastercomment2/>
												<mastercomment3/>
												<mastercomment4/>
											</comments>
											<file id="YIN_2013-04-28_JB-1 "/>
											<sourcetrack>
												<mediatype>video</mediatype>
											</sourcetrack>
											<link>
												<linkclipref>Raw B Roll Hack Manhattan Matthew Duepner's House19</linkclipref>
												<mediatype>video</mediatype>
												<trackindex>3</trackindex>
												<clipindex>7</clipindex>
											</link>
											<link>
												<linkclipref>Raw B Roll Hack Manhattan Matthew Duepner's House20</linkclipref>
												<mediatype>audio</mediatype>
												<trackindex>65</trackindex>
												<clipindex>7</clipindex>
												<groupindex>1</groupindex>
											</link>
											<link>
												<linkclipref>Raw B Roll Hack Manhattan Matthew Duepner's House21</linkclipref>
												<mediatype>audio</mediatype>
												<trackindex>66</trackindex>
												<clipindex>7</clipindex>
												<groupindex>1</groupindex>
											</link>
											<fielddominance>none</fielddominance>
											<itemhistory>
												<uuid>E51AFF7A-C6D4-4EE2-AFA6-5EE2EA45F50D</uuid>
											</itemhistory>
										</clipitem>
										<clipitem id="Raw B Roll Hack Manhattan Matthew Duepner's House22">
											<name>Raw B Roll Hack Manhattan Matthew Duepner's House</name>
											<duration>6617</duration>
											<rate>
												<ntsc>TRUE</ntsc>
												<timebase>24</timebase>
											</rate>
											<in>3527</in>
											<out>3604</out>
											<start>590</start>
											<end>667</end>
											<pixelaspectratio>Square</pixelaspectratio>
											<anamorphic>FALSE</anamorphic>
											<alphatype>black</alphatype>
											<masterclipid>Raw B Roll Hack Manhattan Matthew Duepner's House1</masterclipid>
											<logginginfo>
												<scene/>
												<shottake/>
												<lognote/>
												<good>FALSE</good>
											</logginginfo>
											<labels>
												<label2/>
											</labels>
											<comments>
												<mastercomment1/>
												<mastercomment2/>
												<mastercomment3/>
												<mastercomment4/>
											</comments>
											<file id="YIN_2013-04-28_JB-1 "/>
											<sourcetrack>
												<mediatype>video</mediatype>
											</sourcetrack>
											<link>
												<linkclipref>Raw B Roll Hack Manhattan Matthew Duepner's House22</linkclipref>
												<mediatype>video</mediatype>
												<trackindex>3</trackindex>
												<clipindex>8</clipindex>
											</link>
											<link>
												<linkclipref>Raw B Roll Hack Manhattan Matthew Duepner's House23</linkclipref>
												<mediatype>audio</mediatype>
												<trackindex>65</trackindex>
												<clipindex>8</clipindex>
												<groupindex>1</groupindex>
											</link>
											<link>
												<linkclipref>Raw B Roll Hack Manhattan Matthew Duepner's House24</linkclipref>
												<mediatype>audio</mediatype>
												<trackindex>66</trackindex>
												<clipindex>8</clipindex>
												<groupindex>1</groupindex>
											</link>
											<fielddominance>none</fielddominance>
											<itemhistory>
												<uuid>2E5EB3F4-4534-4E6D-81C1-2E849D240F4F</uuid>
											</itemhistory>
										</clipitem>
										<clipitem id="Raw B Roll Hack Manhattan Matthew Duepner's House25">
											<name>Raw B Roll Hack Manhattan Matthew Duepner's House</name>
											<duration>6617</duration>
											<rate>
												<ntsc>TRUE</ntsc>
												<timebase>24</timebase>
											</rate>
											<in>2432</in>
											<out>2555</out>
											<start>667</start>
											<end>790</end>
											<pixelaspectratio>Square</pixelaspectratio>
											<anamorphic>FALSE</anamorphic>
											<alphatype>black</alphatype>
											<masterclipid>Raw B Roll Hack Manhattan Matthew Duepner's House1</masterclipid>
											<logginginfo>
												<scene/>
												<shottake/>
												<lognote/>
												<good>FALSE</good>
											</logginginfo>
											<labels>
												<label2/>
											</labels>
											<comments>
												<mastercomment1/>
												<mastercomment2/>
												<mastercomment3/>
												<mastercomment4/>
											</comments>
											<file id="YIN_2013-04-28_JB-1 "/>
											<sourcetrack>
												<mediatype>video</mediatype>
											</sourcetrack>
											<link>
												<linkclipref>Raw B Roll Hack Manhattan Matthew Duepner's House25</linkclipref>
												<mediatype>video</mediatype>
												<trackindex>3</trackindex>
												<clipindex>9</clipindex>
											</link>
											<link>
												<linkclipref>Raw B Roll Hack Manhattan Matthew Duepner's House26</linkclipref>
												<mediatype>audio</mediatype>
												<trackindex>65</trackindex>
												<clipindex>9</clipindex>
												<groupindex>1</groupindex>
											</link>
											<link>
												<linkclipref>Raw B Roll Hack Manhattan Matthew Duepner's House27</linkclipref>
												<mediatype>audio</mediatype>
												<trackindex>66</trackindex>
												<clipindex>9</clipindex>
												<groupindex>1</groupindex>
											</link>
											<fielddominance>none</fielddominance>
											<itemhistory>
												<uuid>1A8DE1ED-B3D1-47B8-9E60-64FF1C4C2CB8</uuid>
											</itemhistory>
										</clipitem>
										<clipitem id="Raw B Roll Hack Manhattan Matthew Duepner's House28">
											<name>Raw B Roll Hack Manhattan Matthew Duepner's House</name>
											<duration>6617</duration>
											<rate>
												<ntsc>TRUE</ntsc>
												<timebase>24</timebase>
											</rate>
											<in>2733</in>
											<out>2884</out>
											<start>790</start>
											<end>941</end>
											<pixelaspectratio>Square</pixelaspectratio>
											<anamorphic>FALSE</anamorphic>
											<alphatype>black</alphatype>
											<masterclipid>Raw B Roll Hack Manhattan Matthew Duepner's House1</masterclipid>
											<logginginfo>
												<scene/>
												<shottake/>
												<lognote/>
												<good>FALSE</good>
											</logginginfo>
											<labels>
												<label2/>
											</labels>
											<comments>
												<mastercomment1/>
												<mastercomment2/>
												<mastercomment3/>
												<mastercomment4/>
											</comments>
											<file id="YIN_2013-04-28_JB-1 "/>
											<sourcetrack>
												<mediatype>video</mediatype>
											</sourcetrack>
											<link>
												<linkclipref>Raw B Roll Hack Manhattan Matthew Duepner's House28</linkclipref>
												<mediatype>video</mediatype>
												<trackindex>3</trackindex>
												<clipindex>10</clipindex>
											</link>
											<link>
												<linkclipref>Raw B Roll Hack Manhattan Matthew Duepner's House29</linkclipref>
												<mediatype>audio</mediatype>
												<trackindex>65</trackindex>
												<clipindex>10</clipindex>
												<groupindex>1</groupindex>
											</link>
											<link>
												<linkclipref>Raw B Roll Hack Manhattan Matthew Duepner's House30</linkclipref>
												<mediatype>audio</mediatype>
												<trackindex>66</trackindex>
												<clipindex>10</clipindex>
												<groupindex>1</groupindex>
											</link>
											<fielddominance>none</fielddominance>
											<itemhistory>
												<uuid>B1A06E63-C6EC-4EDB-8F9B-C22FF075248B</uuid>
											</itemhistory>
										</clipitem>
										<clipitem id="Raw B Roll Hack Manhattan Matthew Duepner's House31">
											<name>Raw B Roll Hack Manhattan Matthew Duepner's House</name>
											<duration>6617</duration>
											<rate>
												<ntsc>TRUE</ntsc>
												<timebase>24</timebase>
											</rate>
											<in>5318</in>
											<out>5486</out>
											<start>941</start>
											<end>1109</end>
											<pixelaspectratio>Square</pixelaspectratio>
											<anamorphic>FALSE</anamorphic>
											<alphatype>black</alphatype>
											<masterclipid>Raw B Roll Hack Manhattan Matthew Duepner's House1</masterclipid>
											<logginginfo>
												<scene/>
												<shottake/>
												<lognote/>
												<good>FALSE</good>
											</logginginfo>
											<labels>
												<label2/>
											</labels>
											<comments>
												<mastercomment1/>
												<mastercomment2/>
												<mastercomment3/>
												<mastercomment4/>
											</comments>
											<file id="YIN_2013-04-28_JB-1 "/>
											<sourcetrack>
												<mediatype>video</mediatype>
											</sourcetrack>
											<link>
												<linkclipref>Raw B Roll Hack Manhattan Matthew Duepner's House31</linkclipref>
												<mediatype>video</mediatype>
												<trackindex>3</trackindex>
												<clipindex>11</clipindex>
											</link>
											<link>
												<linkclipref>Raw B Roll Hack Manhattan Matthew Duepner's House32</linkclipref>
												<mediatype>audio</mediatype>
												<trackindex>65</trackindex>
												<clipindex>11</clipindex>
												<groupindex>1</groupindex>
											</link>
											<link>
												<linkclipref>Raw B Roll Hack Manhattan Matthew Duepner's House33</linkclipref>
												<mediatype>audio</mediatype>
												<trackindex>66</trackindex>
												<clipindex>11</clipindex>
												<groupindex>1</groupindex>
											</link>
											<fielddominance>none</fielddominance>
											<itemhistory>
												<uuid>28C544A1-9688-4F47-958B-56361F1C23A6</uuid>
											</itemhistory>
										</clipitem>
										<clipitem id="Raw B Roll Hack Manhattan Matthew Duepner's House34">
											<name>Raw B Roll Hack Manhattan Matthew Duepner's House</name>
											<duration>6617</duration>
											<rate>
												<ntsc>TRUE</ntsc>
												<timebase>24</timebase>
											</rate>
											<in>2948</in>
											<out>3117</out>
											<start>1109</start>
											<end>1278</end>
											<pixelaspectratio>Square</pixelaspectratio>
											<anamorphic>FALSE</anamorphic>
											<alphatype>black</alphatype>
											<masterclipid>Raw B Roll Hack Manhattan Matthew Duepner's House1</masterclipid>
											<logginginfo>
												<scene/>
												<shottake/>
												<lognote/>
												<good>FALSE</good>
											</logginginfo>
											<labels>
												<label2/>
											</labels>
											<comments>
												<mastercomment1/>
												<mastercomment2/>
												<mastercomment3/>
												<mastercomment4/>
											</comments>
											<file id="YIN_2013-04-28_JB-1 "/>
											<sourcetrack>
												<mediatype>video</mediatype>
											</sourcetrack>
											<link>
												<linkclipref>Raw B Roll Hack Manhattan Matthew Duepner's House34</linkclipref>
												<mediatype>video</mediatype>
												<trackindex>3</trackindex>
												<clipindex>12</clipindex>
											</link>
											<link>
												<linkclipref>Raw B Roll Hack Manhattan Matthew Duepner's House35</linkclipref>
												<mediatype>audio</mediatype>
												<trackindex>65</trackindex>
												<clipindex>12</clipindex>
												<groupindex>1</groupindex>
											</link>
											<link>
												<linkclipref>Raw B Roll Hack Manhattan Matthew Duepner's House36</linkclipref>
												<mediatype>audio</mediatype>
												<trackindex>66</trackindex>
												<clipindex>12</clipindex>
												<groupindex>1</groupindex>
											</link>
											<fielddominance>none</fielddominance>
											<itemhistory>
												<uuid>81F65C95-22F3-4926-9BCC-93E43C21CB58</uuid>
											</itemhistory>
										</clipitem>
										<clipitem id="Raw B Roll Hack Manhattan Matthew Duepner's House37">
											<name>Raw B Roll Hack Manhattan Matthew Duepner's House</name>
											<duration>6617</duration>
											<rate>
												<ntsc>TRUE</ntsc>
												<timebase>24</timebase>
											</rate>
											<in>4099</in>
											<out>4179</out>
											<start>1278</start>
											<end>1358</end>
											<pixelaspectratio>Square</pixelaspectratio>
											<anamorphic>FALSE</anamorphic>
											<alphatype>black</alphatype>
											<masterclipid>Raw B Roll Hack Manhattan Matthew Duepner's House1</masterclipid>
											<logginginfo>
												<scene/>
												<shottake/>
												<lognote/>
												<good>FALSE</good>
											</logginginfo>
											<labels>
												<label2/>
											</labels>
											<comments>
												<mastercomment1/>
												<mastercomment2/>
												<mastercomment3/>
												<mastercomment4/>
											</comments>
											<file id="YIN_2013-04-28_JB-1 "/>
											<sourcetrack>
												<mediatype>video</mediatype>
											</sourcetrack>
											<link>
												<linkclipref>Raw B Roll Hack Manhattan Matthew Duepner's House37</linkclipref>
												<mediatype>video</mediatype>
												<trackindex>3</trackindex>
												<clipindex>13</clipindex>
											</link>
											<link>
												<linkclipref>Raw B Roll Hack Manhattan Matthew Duepner's House38</linkclipref>
												<mediatype>audio</mediatype>
												<trackindex>65</trackindex>
												<clipindex>13</clipindex>
												<groupindex>1</groupindex>
											</link>
											<link>
												<linkclipref>Raw B Roll Hack Manhattan Matthew Duepner's House39</linkclipref>
												<mediatype>audio</mediatype>
												<trackindex>66</trackindex>
												<clipindex>13</clipindex>
												<groupindex>1</groupindex>
											</link>
											<fielddominance>none</fielddominance>
											<itemhistory>
												<uuid>C0B14240-7ED9-4B3F-86EB-BDC4EFC1B88B</uuid>
											</itemhistory>
										</clipitem>
										<clipitem id="Raw B Roll Hack Manhattan Matthew Duepner's House40">
											<name>Raw B Roll Hack Manhattan Matthew Duepner's House</name>
											<duration>6617</duration>
											<rate>
												<ntsc>TRUE</ntsc>
												<timebase>24</timebase>
											</rate>
											<in>4305</in>
											<out>4396</out>
											<start>1358</start>
											<end>1449</end>
											<pixelaspectratio>Square</pixelaspectratio>
											<anamorphic>FALSE</anamorphic>
											<alphatype>black</alphatype>
											<masterclipid>Raw B Roll Hack Manhattan Matthew Duepner's House1</masterclipid>
											<logginginfo>
												<scene/>
												<shottake/>
												<lognote/>
												<good>FALSE</good>
											</logginginfo>
											<labels>
												<label2/>
											</labels>
											<comments>
												<mastercomment1/>
												<mastercomment2/>
												<mastercomment3/>
												<mastercomment4/>
											</comments>
											<file id="YIN_2013-04-28_JB-1 "/>
											<sourcetrack>
												<mediatype>video</mediatype>
											</sourcetrack>
											<link>
												<linkclipref>Raw B Roll Hack Manhattan Matthew Duepner's House40</linkclipref>
												<mediatype>video</mediatype>
												<trackindex>3</trackindex>
												<clipindex>14</clipindex>
											</link>
											<link>
												<linkclipref>Raw B Roll Hack Manhattan Matthew Duepner's House41</linkclipref>
												<mediatype>audio</mediatype>
												<trackindex>65</trackindex>
												<clipindex>14</clipindex>
												<groupindex>1</groupindex>
											</link>
											<link>
												<linkclipref>Raw B Roll Hack Manhattan Matthew Duepner's House42</linkclipref>
												<mediatype>audio</mediatype>
												<trackindex>66</trackindex>
												<clipindex>14</clipindex>
												<groupindex>1</groupindex>
											</link>
											<fielddominance>none</fielddominance>
											<itemhistory>
												<uuid>A1D5E4A4-A073-44D7-A18E-ACA02467ABF9</uuid>
											</itemhistory>
										</clipitem>
										<clipitem id="Raw B Roll Hack Manhattan Matthew Duepner's House43">
											<name>Raw B Roll Hack Manhattan Matthew Duepner's House</name>
											<duration>6617</duration>
											<rate>
												<ntsc>TRUE</ntsc>
												<timebase>24</timebase>
											</rate>
											<in>4585</in>
											<out>4685</out>
											<start>1449</start>
											<end>1549</end>
											<pixelaspectratio>Square</pixelaspectratio>
											<anamorphic>FALSE</anamorphic>
											<alphatype>black</alphatype>
											<masterclipid>Raw B Roll Hack Manhattan Matthew Duepner's House1</masterclipid>
											<logginginfo>
												<scene/>
												<shottake/>
												<lognote/>
												<good>FALSE</good>
											</logginginfo>
											<labels>
												<label2/>
											</labels>
											<comments>
												<mastercomment1/>
												<mastercomment2/>
												<mastercomment3/>
												<mastercomment4/>
											</comments>
											<file id="YIN_2013-04-28_JB-1 "/>
											<sourcetrack>
												<mediatype>video</mediatype>
											</sourcetrack>
											<link>
												<linkclipref>Raw B Roll Hack Manhattan Matthew Duepner's House43</linkclipref>
												<mediatype>video</mediatype>
												<trackindex>3</trackindex>
												<clipindex>15</clipindex>
											</link>
											<link>
												<linkclipref>Raw B Roll Hack Manhattan Matthew Duepner's House44</linkclipref>
												<mediatype>audio</mediatype>
												<trackindex>65</trackindex>
												<clipindex>15</clipindex>
												<groupindex>1</groupindex>
											</link>
											<link>
												<linkclipref>Raw B Roll Hack Manhattan Matthew Duepner's House45</linkclipref>
												<mediatype>audio</mediatype>
												<trackindex>66</trackindex>
												<clipindex>15</clipindex>
												<groupindex>1</groupindex>
											</link>
											<fielddominance>none</fielddominance>
											<itemhistory>
												<uuid>9C8A4C93-2CE8-4017-A799-0E7A9399B36A</uuid>
											</itemhistory>
										</clipitem>
										<clipitem id="Raw Scene Matthew Duepner Printing">
											<name>Raw Scene Matthew Duepner Printing</name>
											<duration>28553</duration>
											<rate>
												<ntsc>TRUE</ntsc>
												<timebase>24</timebase>
											</rate>
											<in>25118</in>
											<out>25193</out>
											<start>1549</start>
											<end>1624</end>
											<pixelaspectratio>Square</pixelaspectratio>
											<anamorphic>FALSE</anamorphic>
											<alphatype>black</alphatype>
											<masterclipid>Raw Scene Matthew Duepner Printing1</masterclipid>
											<logginginfo>
												<scene/>
												<shottake/>
												<lognote/>
												<good>FALSE</good>
											</logginginfo>
											<labels>
												<label2/>
											</labels>
											<comments>
												<mastercomment1/>
												<mastercomment2/>
												<mastercomment3/>
												<mastercomment4/>
											</comments>
											<file id="YIN_2013-05-28_LG-6 ">
												<name>YIN_2013-05-28_LG-6.mov</name>
												<pathurl>file://localhost/Volumes/Curiouser%2010cc/Curiouser/Video/Active/Your%20Input%20Needed/Produced%20assets/Offline/Curiouser/5.13%20NYC/YIN_2013-05-28_LG-6.mov</pathurl>
												<rate>
													<timebase>24</timebase>
													<ntsc>TRUE</ntsc>
												</rate>
												<duration>28553</duration>
												<media>
													<video>
														<duration>28553</duration>
														<samplecharacteristics>
															<width>640</width>
															<height>360</height>
														</samplecharacteristics>
													</video>
													<audio>
														<samplecharacteristics>
															<samplerate>48000</samplerate>
															<depth>32</depth>
														</samplecharacteristics>
														<channelcount>2</channelcount>
													</audio>
												</media>
											</file>
											<sourcetrack>
												<mediatype>video</mediatype>
											</sourcetrack>
											<link>
												<linkclipref>Raw Scene Matthew Duepner Printing</linkclipref>
												<mediatype>video</mediatype>
												<trackindex>3</trackindex>
												<clipindex>16</clipindex>
											</link>
											<link>
												<linkclipref>Raw Scene Matthew Duepner Printing2</linkclipref>
												<mediatype>audio</mediatype>
												<trackindex>65</trackindex>
												<clipindex>16</clipindex>
												<groupindex>1</groupindex>
											</link>
											<link>
												<linkclipref>Raw Scene Matthew Duepner Printing3</linkclipref>
												<mediatype>audio</mediatype>
												<trackindex>66</trackindex>
												<clipindex>16</clipindex>
												<groupindex>1</groupindex>
											</link>
											<fielddominance>none</fielddominance>
											<itemhistory>
												<uuid>A061323E-A860-4E98-89A4-26987C5AC0AA</uuid>
											</itemhistory>
										</clipitem>
										<clipitem id="Raw B Roll Hack Manhattan Matthew Duepner's House46">
											<name>Raw B Roll Hack Manhattan Matthew Duepner's House</name>
											<duration>6617</duration>
											<rate>
												<ntsc>TRUE</ntsc>
												<timebase>24</timebase>
											</rate>
											<in>3931</in>
											<out>4052</out>
											<start>1624</start>
											<end>1745</end>
											<pixelaspectratio>Square</pixelaspectratio>
											<anamorphic>FALSE</anamorphic>
											<alphatype>black</alphatype>
											<masterclipid>Raw B Roll Hack Manhattan Matthew Duepner's House1</masterclipid>
											<logginginfo>
												<scene/>
												<shottake/>
												<lognote/>
												<good>FALSE</good>
											</logginginfo>
											<labels>
												<label2/>
											</labels>
											<comments>
												<mastercomment1/>
												<mastercomment2/>
												<mastercomment3/>
												<mastercomment4/>
											</comments>
											<file id="YIN_2013-04-28_JB-1 "/>
											<sourcetrack>
												<mediatype>video</mediatype>
											</sourcetrack>
											<link>
												<linkclipref>Raw B Roll Hack Manhattan Matthew Duepner's House46</linkclipref>
												<mediatype>video</mediatype>
												<trackindex>3</trackindex>
												<clipindex>17</clipindex>
											</link>
											<link>
												<linkclipref>Raw B Roll Hack Manhattan Matthew Duepner's House47</linkclipref>
												<mediatype>audio</mediatype>
												<trackindex>65</trackindex>
												<clipindex>17</clipindex>
												<groupindex>1</groupindex>
											</link>
											<link>
												<linkclipref>Raw B Roll Hack Manhattan Matthew Duepner's House48</linkclipref>
												<mediatype>audio</mediatype>
												<trackindex>66</trackindex>
												<clipindex>17</clipindex>
												<groupindex>1</groupindex>
											</link>
											<fielddominance>none</fielddominance>
											<itemhistory>
												<uuid>9377A9DF-171E-4984-BA39-8BADF11B38AE</uuid>
											</itemhistory>
										</clipitem>
										<clipitem id="Raw B Roll Hack Manhattan Matthew Duepner's House49">
											<name>Raw B Roll Hack Manhattan Matthew Duepner's House</name>
											<duration>6617</duration>
											<rate>
												<ntsc>TRUE</ntsc>
												<timebase>24</timebase>
											</rate>
											<in>5073</in>
											<out>5227</out>
											<start>1745</start>
											<end>1899</end>
											<pixelaspectratio>Square</pixelaspectratio>
											<anamorphic>FALSE</anamorphic>
											<alphatype>black</alphatype>
											<masterclipid>Raw B Roll Hack Manhattan Matthew Duepner's House1</masterclipid>
											<logginginfo>
												<scene/>
												<shottake/>
												<lognote/>
												<good>FALSE</good>
											</logginginfo>
											<labels>
												<label2/>
											</labels>
											<comments>
												<mastercomment1/>
												<mastercomment2/>
												<mastercomment3/>
												<mastercomment4/>
											</comments>
											<file id="YIN_2013-04-28_JB-1 "/>
											<sourcetrack>
												<mediatype>video</mediatype>
											</sourcetrack>
											<link>
												<linkclipref>Raw B Roll Hack Manhattan Matthew Duepner's House49</linkclipref>
												<mediatype>video</mediatype>
												<trackindex>3</trackindex>
												<clipindex>18</clipindex>
											</link>
											<link>
												<linkclipref>Raw B Roll Hack Manhattan Matthew Duepner's House50</linkclipref>
												<mediatype>audio</mediatype>
												<trackindex>65</trackindex>
												<clipindex>18</clipindex>
												<groupindex>1</groupindex>
											</link>
											<link>
												<linkclipref>Raw B Roll Hack Manhattan Matthew Duepner's House51</linkclipref>
												<mediatype>audio</mediatype>
												<trackindex>66</trackindex>
												<clipindex>18</clipindex>
												<groupindex>1</groupindex>
											</link>
											<fielddominance>none</fielddominance>
											<itemhistory>
												<uuid>A0D43CA7-4555-4097-848B-895C253D55E9</uuid>
											</itemhistory>
										</clipitem>
										<clipitem id="Raw Scene Matthew Duepner Printing4">
											<name>Raw Scene Matthew Duepner Printing</name>
											<duration>28553</duration>
											<rate>
												<ntsc>TRUE</ntsc>
												<timebase>24</timebase>
											</rate>
											<in>13248</in>
											<out>13390</out>
											<start>1899</start>
											<end>2041</end>
											<pixelaspectratio>Square</pixelaspectratio>
											<anamorphic>FALSE</anamorphic>
											<alphatype>black</alphatype>
											<masterclipid>Raw Scene Matthew Duepner Printing5</masterclipid>
											<logginginfo>
												<scene/>
												<shottake/>
												<lognote/>
												<good>FALSE</good>
											</logginginfo>
											<labels>
												<label2/>
											</labels>
											<comments>
												<mastercomment1/>
												<mastercomment2/>
												<mastercomment3/>
												<mastercomment4/>
											</comments>
											<file id="YIN_2013-05-28_LG-6 "/>
											<sourcetrack>
												<mediatype>video</mediatype>
											</sourcetrack>
											<link>
												<linkclipref>Raw Scene Matthew Duepner Printing4</linkclipref>
												<mediatype>video</mediatype>
												<trackindex>3</trackindex>
												<clipindex>19</clipindex>
											</link>
											<link>
												<linkclipref>Raw Scene Matthew Duepner Printing6</linkclipref>
												<mediatype>audio</mediatype>
												<trackindex>65</trackindex>
												<clipindex>19</clipindex>
												<groupindex>1</groupindex>
											</link>
											<link>
												<linkclipref>Raw Scene Matthew Duepner Printing7</linkclipref>
												<mediatype>audio</mediatype>
												<trackindex>66</trackindex>
												<clipindex>19</clipindex>
												<groupindex>1</groupindex>
											</link>
											<fielddominance>none</fielddominance>
											<itemhistory>
												<uuid>0A687F61-FB72-4A54-9FBE-EA0375A22B5A</uuid>
											</itemhistory>
										</clipitem>
										<clipitem id="Raw Scene Matthew Duepner Printing8">
											<name>Raw Scene Matthew Duepner Printing</name>
											<duration>28553</duration>
											<rate>
												<ntsc>TRUE</ntsc>
												<timebase>24</timebase>
											</rate>
											<in>13645</in>
											<out>13872</out>
											<start>2041</start>
											<end>2268</end>
											<pixelaspectratio>Square</pixelaspectratio>
											<anamorphic>FALSE</anamorphic>
											<alphatype>black</alphatype>
											<masterclipid>Raw Scene Matthew Duepner Printing9</masterclipid>
											<logginginfo>
												<scene/>
												<shottake/>
												<lognote/>
												<good>FALSE</good>
											</logginginfo>
											<labels>
												<label2/>
											</labels>
											<comments>
												<mastercomment1/>
												<mastercomment2/>
												<mastercomment3/>
												<mastercomment4/>
											</comments>
											<file id="YIN_2013-05-28_LG-6 "/>
											<sourcetrack>
												<mediatype>video</mediatype>
											</sourcetrack>
											<link>
												<linkclipref>Raw Scene Matthew Duepner Printing8</linkclipref>
												<mediatype>video</mediatype>
												<trackindex>3</trackindex>
												<clipindex>20</clipindex>
											</link>
											<link>
												<linkclipref>Raw Scene Matthew Duepner Printing10</linkclipref>
												<mediatype>audio</mediatype>
												<trackindex>65</trackindex>
												<clipindex>20</clipindex>
												<groupindex>1</groupindex>
											</link>
											<link>
												<linkclipref>Raw Scene Matthew Duepner Printing11</linkclipref>
												<mediatype>audio</mediatype>
												<trackindex>66</trackindex>
												<clipindex>20</clipindex>
												<groupindex>1</groupindex>
											</link>
											<fielddominance>none</fielddominance>
											<itemhistory>
												<uuid>659DED3F-7965-4B6D-873A-2250207E1544</uuid>
											</itemhistory>
										</clipitem>
										<clipitem id="Raw Scene Matthew Duepner Printing12">
											<name>Raw Scene Matthew Duepner Printing</name>
											<duration>28553</duration>
											<rate>
												<ntsc>TRUE</ntsc>
												<timebase>24</timebase>
											</rate>
											<in>14375</in>
											<out>14590</out>
											<start>2268</start>
											<end>2483</end>
											<pixelaspectratio>Square</pixelaspectratio>
											<anamorphic>FALSE</anamorphic>
											<alphatype>black</alphatype>
											<masterclipid>Raw Scene Matthew Duepner Printing13</masterclipid>
											<logginginfo>
												<scene/>
												<shottake/>
												<lognote/>
												<good>FALSE</good>
											</logginginfo>
											<labels>
												<label2/>
											</labels>
											<comments>
												<mastercomment1/>
												<mastercomment2/>
												<mastercomment3/>
												<mastercomment4/>
											</comments>
											<file id="YIN_2013-05-28_LG-6 "/>
											<sourcetrack>
												<mediatype>video</mediatype>
											</sourcetrack>
											<link>
												<linkclipref>Raw Scene Matthew Duepner Printing12</linkclipref>
												<mediatype>video</mediatype>
												<trackindex>3</trackindex>
												<clipindex>21</clipindex>
											</link>
											<link>
												<linkclipref>Raw Scene Matthew Duepner Printing14</linkclipref>
												<mediatype>audio</mediatype>
												<trackindex>65</trackindex>
												<clipindex>21</clipindex>
												<groupindex>1</groupindex>
											</link>
											<link>
												<linkclipref>Raw Scene Matthew Duepner Printing15</linkclipref>
												<mediatype>audio</mediatype>
												<trackindex>66</trackindex>
												<clipindex>21</clipindex>
												<groupindex>1</groupindex>
											</link>
											<fielddominance>none</fielddominance>
											<itemhistory>
												<uuid>B994B2B3-6B83-4998-8B90-D1E83B6761DD</uuid>
											</itemhistory>
										</clipitem>
										<clipitem id="Raw Scene Matthew Duepner Printing16">
											<name>Raw Scene Matthew Duepner Printing</name>
											<duration>28553</duration>
											<rate>
												<ntsc>TRUE</ntsc>
												<timebase>24</timebase>
											</rate>
											<in>17176</in>
											<out>17239</out>
											<start>2483</start>
											<end>2546</end>
											<pixelaspectratio>Square</pixelaspectratio>
											<anamorphic>FALSE</anamorphic>
											<alphatype>black</alphatype>
											<masterclipid>Raw Scene Matthew Duepner Printing17</masterclipid>
											<logginginfo>
												<scene/>
												<shottake/>
												<lognote/>
												<good>FALSE</good>
											</logginginfo>
											<labels>
												<label2/>
											</labels>
											<comments>
												<mastercomment1/>
												<mastercomment2/>
												<mastercomment3/>
												<mastercomment4/>
											</comments>
											<file id="YIN_2013-05-28_LG-6 "/>
											<sourcetrack>
												<mediatype>video</mediatype>
											</sourcetrack>
											<link>
												<linkclipref>Raw Scene Matthew Duepner Printing16</linkclipref>
												<mediatype>video</mediatype>
												<trackindex>3</trackindex>
												<clipindex>22</clipindex>
											</link>
											<link>
												<linkclipref>Raw Scene Matthew Duepner Printing18</linkclipref>
												<mediatype>audio</mediatype>
												<trackindex>65</trackindex>
												<clipindex>22</clipindex>
												<groupindex>1</groupindex>
											</link>
											<link>
												<linkclipref>Raw Scene Matthew Duepner Printing19</linkclipref>
												<mediatype>audio</mediatype>
												<trackindex>66</trackindex>
												<clipindex>22</clipindex>
												<groupindex>1</groupindex>
											</link>
											<fielddominance>none</fielddominance>
											<itemhistory>
												<uuid>2BA5F38F-69A7-429A-AED5-B6222C8F3D0F</uuid>
											</itemhistory>
										</clipitem>
										<clipitem id="Raw Scene Matthew Duepner Printing20">
											<name>Raw Scene Matthew Duepner Printing</name>
											<duration>28553</duration>
											<rate>
												<ntsc>TRUE</ntsc>
												<timebase>24</timebase>
											</rate>
											<in>22417</in>
											<out>22543</out>
											<start>2546</start>
											<end>2672</end>
											<pixelaspectratio>Square</pixelaspectratio>
											<anamorphic>FALSE</anamorphic>
											<alphatype>black</alphatype>
											<masterclipid>Raw Scene Matthew Duepner Printing21</masterclipid>
											<logginginfo>
												<scene/>
												<shottake/>
												<lognote/>
												<good>FALSE</good>
											</logginginfo>
											<labels>
												<label2/>
											</labels>
											<comments>
												<mastercomment1/>
												<mastercomment2/>
												<mastercomment3/>
												<mastercomment4/>
											</comments>
											<file id="YIN_2013-05-28_LG-6 "/>
											<sourcetrack>
												<mediatype>video</mediatype>
											</sourcetrack>
											<link>
												<linkclipref>Raw Scene Matthew Duepner Printing20</linkclipref>
												<mediatype>video</mediatype>
												<trackindex>3</trackindex>
												<clipindex>23</clipindex>
											</link>
											<link>
												<linkclipref>Raw Scene Matthew Duepner Printing22</linkclipref>
												<mediatype>audio</mediatype>
												<trackindex>65</trackindex>
												<clipindex>23</clipindex>
												<groupindex>1</groupindex>
											</link>
											<link>
												<linkclipref>Raw Scene Matthew Duepner Printing23</linkclipref>
												<mediatype>audio</mediatype>
												<trackindex>66</trackindex>
												<clipindex>23</clipindex>
												<groupindex>1</groupindex>
											</link>
											<fielddominance>none</fielddominance>
											<itemhistory>
												<uuid>B98DBB88-E0F5-4FC3-9038-A170E2894A53</uuid>
											</itemhistory>
										</clipitem>
										<clipitem id="Raw Scene Matthew Duepner Printing24">
											<name>Raw Scene Matthew Duepner Printing</name>
											<duration>28553</duration>
											<rate>
												<ntsc>TRUE</ntsc>
												<timebase>24</timebase>
											</rate>
											<in>22831</in>
											<out>22878</out>
											<start>2672</start>
											<end>2719</end>
											<pixelaspectratio>Square</pixelaspectratio>
											<anamorphic>FALSE</anamorphic>
											<alphatype>black</alphatype>
											<masterclipid>Raw Scene Matthew Duepner Printing25</masterclipid>
											<logginginfo>
												<scene/>
												<shottake/>
												<lognote/>
												<good>FALSE</good>
											</logginginfo>
											<labels>
												<label2/>
											</labels>
											<comments>
												<mastercomment1/>
												<mastercomment2/>
												<mastercomment3/>
												<mastercomment4/>
											</comments>
											<file id="YIN_2013-05-28_LG-6 "/>
											<sourcetrack>
												<mediatype>video</mediatype>
											</sourcetrack>
											<link>
												<linkclipref>Raw Scene Matthew Duepner Printing24</linkclipref>
												<mediatype>video</mediatype>
												<trackindex>3</trackindex>
												<clipindex>24</clipindex>
											</link>
											<link>
												<linkclipref>Raw Scene Matthew Duepner Printing26</linkclipref>
												<mediatype>audio</mediatype>
												<trackindex>65</trackindex>
												<clipindex>24</clipindex>
												<groupindex>1</groupindex>
											</link>
											<link>
												<linkclipref>Raw Scene Matthew Duepner Printing27</linkclipref>
												<mediatype>audio</mediatype>
												<trackindex>66</trackindex>
												<clipindex>24</clipindex>
												<groupindex>1</groupindex>
											</link>
											<fielddominance>none</fielddominance>
											<itemhistory>
												<uuid>0AA45A6A-4FCF-4F17-B06B-860D2AEEFBF3</uuid>
											</itemhistory>
										</clipitem>
										<clipitem id="Raw Scene Matthew Duepner Printing28">
											<name>Raw Scene Matthew Duepner Printing</name>
											<duration>28553</duration>
											<rate>
												<ntsc>TRUE</ntsc>
												<timebase>24</timebase>
											</rate>
											<in>23483</in>
											<out>23542</out>
											<start>2719</start>
											<end>2778</end>
											<pixelaspectratio>Square</pixelaspectratio>
											<anamorphic>FALSE</anamorphic>
											<alphatype>black</alphatype>
											<masterclipid>Raw Scene Matthew Duepner Printing29</masterclipid>
											<logginginfo>
												<scene/>
												<shottake/>
												<lognote/>
												<good>FALSE</good>
											</logginginfo>
											<labels>
												<label2/>
											</labels>
											<comments>
												<mastercomment1/>
												<mastercomment2/>
												<mastercomment3/>
												<mastercomment4/>
											</comments>
											<file id="YIN_2013-05-28_LG-6 "/>
											<sourcetrack>
												<mediatype>video</mediatype>
											</sourcetrack>
											<link>
												<linkclipref>Raw Scene Matthew Duepner Printing28</linkclipref>
												<mediatype>video</mediatype>
												<trackindex>3</trackindex>
												<clipindex>25</clipindex>
											</link>
											<link>
												<linkclipref>Raw Scene Matthew Duepner Printing30</linkclipref>
												<mediatype>audio</mediatype>
												<trackindex>65</trackindex>
												<clipindex>25</clipindex>
												<groupindex>1</groupindex>
											</link>
											<link>
												<linkclipref>Raw Scene Matthew Duepner Printing31</linkclipref>
												<mediatype>audio</mediatype>
												<trackindex>66</trackindex>
												<clipindex>25</clipindex>
												<groupindex>1</groupindex>
											</link>
											<fielddominance>none</fielddominance>
											<itemhistory>
												<uuid>6F8ED081-A68C-4CCE-BD89-2EBC981F410A</uuid>
											</itemhistory>
										</clipitem>
										<clipitem id="Raw Scene Matthew Duepner Printing32">
											<name>Raw Scene Matthew Duepner Printing</name>
											<duration>28553</duration>
											<rate>
												<ntsc>TRUE</ntsc>
												<timebase>24</timebase>
											</rate>
											<in>23633</in>
											<out>23762</out>
											<start>2778</start>
											<end>2907</end>
											<pixelaspectratio>Square</pixelaspectratio>
											<anamorphic>FALSE</anamorphic>
											<alphatype>black</alphatype>
											<masterclipid>Raw Scene Matthew Duepner Printing33</masterclipid>
											<logginginfo>
												<scene/>
												<shottake/>
												<lognote/>
												<good>FALSE</good>
											</logginginfo>
											<labels>
												<label2/>
											</labels>
											<comments>
												<mastercomment1/>
												<mastercomment2/>
												<mastercomment3/>
												<mastercomment4/>
											</comments>
											<file id="YIN_2013-05-28_LG-6 "/>
											<sourcetrack>
												<mediatype>video</mediatype>
											</sourcetrack>
											<link>
												<linkclipref>Raw Scene Matthew Duepner Printing32</linkclipref>
												<mediatype>video</mediatype>
												<trackindex>3</trackindex>
												<clipindex>26</clipindex>
											</link>
											<link>
												<linkclipref>Raw Scene Matthew Duepner Printing34</linkclipref>
												<mediatype>audio</mediatype>
												<trackindex>65</trackindex>
												<clipindex>26</clipindex>
												<groupindex>1</groupindex>
											</link>
											<link>
												<linkclipref>Raw Scene Matthew Duepner Printing35</linkclipref>
												<mediatype>audio</mediatype>
												<trackindex>66</trackindex>
												<clipindex>26</clipindex>
												<groupindex>1</groupindex>
											</link>
											<fielddominance>none</fielddominance>
											<itemhistory>
												<uuid>BB566AE6-4A5D-430D-A6D6-9587C97BCC84</uuid>
											</itemhistory>
										</clipitem>
										<clipitem id="Raw Scene Matthew Duepner Printing36">
											<name>Raw Scene Matthew Duepner Printing</name>
											<duration>28553</duration>
											<rate>
												<ntsc>TRUE</ntsc>
												<timebase>24</timebase>
											</rate>
											<in>24554</in>
											<out>24706</out>
											<start>2907</start>
											<end>3059</end>
											<pixelaspectratio>Square</pixelaspectratio>
											<anamorphic>FALSE</anamorphic>
											<alphatype>black</alphatype>
											<masterclipid>Raw Scene Matthew Duepner Printing37</masterclipid>
											<logginginfo>
												<scene/>
												<shottake/>
												<lognote/>
												<good>FALSE</good>
											</logginginfo>
											<labels>
												<label2/>
											</labels>
											<comments>
												<mastercomment1/>
												<mastercomment2/>
												<mastercomment3/>
												<mastercomment4/>
											</comments>
											<file id="YIN_2013-05-28_LG-6 "/>
											<sourcetrack>
												<mediatype>video</mediatype>
											</sourcetrack>
											<link>
												<linkclipref>Raw Scene Matthew Duepner Printing36</linkclipref>
												<mediatype>video</mediatype>
												<trackindex>3</trackindex>
												<clipindex>27</clipindex>
											</link>
											<link>
												<linkclipref>Raw Scene Matthew Duepner Printing38</linkclipref>
												<mediatype>audio</mediatype>
												<trackindex>65</trackindex>
												<clipindex>27</clipindex>
												<groupindex>1</groupindex>
											</link>
											<link>
												<linkclipref>Raw Scene Matthew Duepner Printing39</linkclipref>
												<mediatype>audio</mediatype>
												<trackindex>66</trackindex>
												<clipindex>27</clipindex>
												<groupindex>1</groupindex>
											</link>
											<fielddominance>none</fielddominance>
											<itemhistory>
												<uuid>6A878BE3-6FAB-42C0-B3E4-29A2CEB88EB4</uuid>
											</itemhistory>
										</clipitem>
										<clipitem id="Raw Scene Matthew Duepner Printing40">
											<name>Raw Scene Matthew Duepner Printing</name>
											<duration>28553</duration>
											<rate>
												<ntsc>TRUE</ntsc>
												<timebase>24</timebase>
											</rate>
											<in>27525</in>
											<out>27797</out>
											<start>3059</start>
											<end>3331</end>
											<pixelaspectratio>Square</pixelaspectratio>
											<anamorphic>FALSE</anamorphic>
											<alphatype>black</alphatype>
											<masterclipid>Raw Scene Matthew Duepner Printing41</masterclipid>
											<logginginfo>
												<scene/>
												<shottake/>
												<lognote/>
												<good>FALSE</good>
											</logginginfo>
											<labels>
												<label2/>
											</labels>
											<comments>
												<mastercomment1/>
												<mastercomment2/>
												<mastercomment3/>
												<mastercomment4/>
											</comments>
											<file id="YIN_2013-05-28_LG-6 "/>
											<sourcetrack>
												<mediatype>video</mediatype>
											</sourcetrack>
											<link>
												<linkclipref>Raw Scene Matthew Duepner Printing40</linkclipref>
												<mediatype>video</mediatype>
												<trackindex>3</trackindex>
												<clipindex>28</clipindex>
											</link>
											<link>
												<linkclipref>Raw Scene Matthew Duepner Printing42</linkclipref>
												<mediatype>audio</mediatype>
												<trackindex>65</trackindex>
												<clipindex>28</clipindex>
												<groupindex>1</groupindex>
											</link>
											<link>
												<linkclipref>Raw Scene Matthew Duepner Printing43</linkclipref>
												<mediatype>audio</mediatype>
												<trackindex>66</trackindex>
												<clipindex>28</clipindex>
												<groupindex>1</groupindex>
											</link>
											<fielddominance>none</fielddominance>
											<itemhistory>
												<uuid>3C18A629-9A9A-4E56-9B8A-4A5C01AF1849</uuid>
											</itemhistory>
										</clipitem>
										<clipitem id="Raw Scene Matthew Duepner Printing44">
											<name>Raw Scene Matthew Duepner Printing</name>
											<duration>28553</duration>
											<rate>
												<ntsc>TRUE</ntsc>
												<timebase>24</timebase>
											</rate>
											<in>28313</in>
											<out>28455</out>
											<start>3331</start>
											<end>3473</end>
											<pixelaspectratio>Square</pixelaspectratio>
											<anamorphic>FALSE</anamorphic>
											<alphatype>black</alphatype>
											<masterclipid>Raw Scene Matthew Duepner Printing45</masterclipid>
											<logginginfo>
												<scene/>
												<shottake/>
												<lognote/>
												<good>FALSE</good>
											</logginginfo>
											<labels>
												<label2/>
											</labels>
											<comments>
												<mastercomment1/>
												<mastercomment2/>
												<mastercomment3/>
												<mastercomment4/>
											</comments>
											<file id="YIN_2013-05-28_LG-6 "/>
											<sourcetrack>
												<mediatype>video</mediatype>
											</sourcetrack>
											<link>
												<linkclipref>Raw Scene Matthew Duepner Printing44</linkclipref>
												<mediatype>video</mediatype>
												<trackindex>3</trackindex>
												<clipindex>29</clipindex>
											</link>
											<link>
												<linkclipref>Raw Scene Matthew Duepner Printing46</linkclipref>
												<mediatype>audio</mediatype>
												<trackindex>65</trackindex>
												<clipindex>29</clipindex>
												<groupindex>1</groupindex>
											</link>
											<link>
												<linkclipref>Raw Scene Matthew Duepner Printing47</linkclipref>
												<mediatype>audio</mediatype>
												<trackindex>66</trackindex>
												<clipindex>29</clipindex>
												<groupindex>1</groupindex>
											</link>
											<fielddominance>none</fielddominance>
											<itemhistory>
												<uuid>127CE57C-FC39-43FA-BAA6-81A6D1C09A9C</uuid>
											</itemhistory>
										</clipitem>
										<clipitem id="Raw Scene Matthew Duepner Walkabout">
											<name>Raw Scene Matthew Duepner Walkabout</name>
											<duration>38484</duration>
											<rate>
												<ntsc>TRUE</ntsc>
												<timebase>24</timebase>
											</rate>
											<in>5133</in>
											<out>5266</out>
											<start>3473</start>
											<end>3606</end>
											<pixelaspectratio>Square</pixelaspectratio>
											<anamorphic>FALSE</anamorphic>
											<alphatype>black</alphatype>
											<masterclipid>Raw Scene Matthew Duepner Walkabout1</masterclipid>
											<logginginfo>
												<scene/>
												<shottake/>
												<lognote/>
												<good>FALSE</good>
											</logginginfo>
											<labels>
												<label2/>
											</labels>
											<comments>
												<mastercomment1/>
												<mastercomment2/>
												<mastercomment3/>
												<mastercomment4/>
											</comments>
											<file id="YIN_2013-05-28_LG-4 ">
												<name>YIN_2013-05-28_LG-4.mov</name>
												<pathurl>file://localhost/Volumes/Curiouser%2010cc/Curiouser/Video/Active/Your%20Input%20Needed/Produced%20assets/Offline/Curiouser/5.13%20NYC/YIN_2013-05-28_LG-4.mov</pathurl>
												<rate>
													<timebase>24</timebase>
													<ntsc>TRUE</ntsc>
												</rate>
												<duration>38484</duration>
												<media>
													<video>
														<duration>38484</duration>
														<samplecharacteristics>
															<width>640</width>
															<height>360</height>
														</samplecharacteristics>
													</video>
													<audio>
														<samplecharacteristics>
															<samplerate>48000</samplerate>
															<depth>32</depth>
														</samplecharacteristics>
														<channelcount>2</channelcount>
													</audio>
												</media>
											</file>
											<sourcetrack>
												<mediatype>video</mediatype>
											</sourcetrack>
											<fielddominance>none</fielddominance>
											<itemhistory>
												<uuid>54B5C7BD-B61D-4FA0-955F-B71169D03639</uuid>
											</itemhistory>
										</clipitem>
										<clipitem id="Raw Scene Matthew Duepner Walkabout2">
											<name>Raw Scene Matthew Duepner Walkabout</name>
											<duration>38484</duration>
											<rate>
												<ntsc>TRUE</ntsc>
												<timebase>24</timebase>
											</rate>
											<in>4745</in>
											<out>5123</out>
											<start>3606</start>
											<end>3984</end>
											<pixelaspectratio>Square</pixelaspectratio>
											<anamorphic>FALSE</anamorphic>
											<alphatype>black</alphatype>
											<masterclipid>Raw Scene Matthew Duepner Walkabout3</masterclipid>
											<logginginfo>
												<scene/>
												<shottake/>
												<lognote/>
												<good>FALSE</good>
											</logginginfo>
											<labels>
												<label2/>
											</labels>
											<comments>
												<mastercomment1/>
												<mastercomment2/>
												<mastercomment3/>
												<mastercomment4/>
											</comments>
											<file id="YIN_2013-05-28_LG-4 "/>
											<sourcetrack>
												<mediatype>video</mediatype>
											</sourcetrack>
											<link>
												<linkclipref>Raw Scene Matthew Duepner Walkabout2</linkclipref>
												<mediatype>video</mediatype>
												<trackindex>3</trackindex>
												<clipindex>31</clipindex>
											</link>
											<link>
												<linkclipref>Raw Scene Matthew Duepner Walkabout4</linkclipref>
												<mediatype>audio</mediatype>
												<trackindex>65</trackindex>
												<clipindex>31</clipindex>
												<groupindex>1</groupindex>
											</link>
											<link>
												<linkclipref>Raw Scene Matthew Duepner Walkabout5</linkclipref>
												<mediatype>audio</mediatype>
												<trackindex>66</trackindex>
												<clipindex>31</clipindex>
												<groupindex>1</groupindex>
											</link>
											<fielddominance>none</fielddominance>
											<itemhistory>
												<uuid>936570E0-946E-4FD3-8DB1-28F05211F51A</uuid>
											</itemhistory>
										</clipitem>
										<clipitem id="Raw Scene Matthew Duepner Walkabout6">
											<name>Raw Scene Matthew Duepner Walkabout</name>
											<duration>38484</duration>
											<rate>
												<ntsc>TRUE</ntsc>
												<timebase>24</timebase>
											</rate>
											<in>6473</in>
											<out>6911</out>
											<start>3984</start>
											<end>4422</end>
											<pixelaspectratio>Square</pixelaspectratio>
											<anamorphic>FALSE</anamorphic>
											<alphatype>black</alphatype>
											<masterclipid>Raw Scene Matthew Duepner Walkabout7</masterclipid>
											<logginginfo>
												<scene/>
												<shottake/>
												<lognote/>
												<good>FALSE</good>
											</logginginfo>
											<labels>
												<label2/>
											</labels>
											<comments>
												<mastercomment1/>
												<mastercomment2/>
												<mastercomment3/>
												<mastercomment4/>
											</comments>
											<file id="YIN_2013-05-28_LG-4 "/>
											<sourcetrack>
												<mediatype>video</mediatype>
											</sourcetrack>
											<link>
												<linkclipref>Raw Scene Matthew Duepner Walkabout6</linkclipref>
												<mediatype>video</mediatype>
												<trackindex>3</trackindex>
												<clipindex>32</clipindex>
											</link>
											<link>
												<linkclipref>Raw Scene Matthew Duepner Walkabout8</linkclipref>
												<mediatype>audio</mediatype>
												<trackindex>65</trackindex>
												<clipindex>32</clipindex>
												<groupindex>1</groupindex>
											</link>
											<link>
												<linkclipref>Raw Scene Matthew Duepner Walkabout9</linkclipref>
												<mediatype>audio</mediatype>
												<trackindex>66</trackindex>
												<clipindex>32</clipindex>
												<groupindex>1</groupindex>
											</link>
											<fielddominance>none</fielddominance>
											<itemhistory>
												<uuid>948E8CC3-7012-4809-B64B-37AFD8C3C60C</uuid>
											</itemhistory>
										</clipitem>
										<clipitem id="Raw Scene Matthew Duepner Walkabout10">
											<name>Raw Scene Matthew Duepner Walkabout</name>
											<duration>38484</duration>
											<rate>
												<ntsc>TRUE</ntsc>
												<timebase>24</timebase>
											</rate>
											<in>7070</in>
											<out>7250</out>
											<start>4422</start>
											<end>4602</end>
											<pixelaspectratio>Square</pixelaspectratio>
											<anamorphic>FALSE</anamorphic>
											<alphatype>black</alphatype>
											<masterclipid>Raw Scene Matthew Duepner Walkabout11</masterclipid>
											<logginginfo>
												<scene/>
												<shottake/>
												<lognote/>
												<good>FALSE</good>
											</logginginfo>
											<labels>
												<label2/>
											</labels>
											<comments>
												<mastercomment1/>
												<mastercomment2/>
												<mastercomment3/>
												<mastercomment4/>
											</comments>
											<file id="YIN_2013-05-28_LG-4 "/>
											<sourcetrack>
												<mediatype>video</mediatype>
											</sourcetrack>
											<link>
												<linkclipref>Raw Scene Matthew Duepner Walkabout10</linkclipref>
												<mediatype>video</mediatype>
												<trackindex>3</trackindex>
												<clipindex>33</clipindex>
											</link>
											<link>
												<linkclipref>Raw Scene Matthew Duepner Walkabout12</linkclipref>
												<mediatype>audio</mediatype>
												<trackindex>65</trackindex>
												<clipindex>33</clipindex>
												<groupindex>1</groupindex>
											</link>
											<link>
												<linkclipref>Raw Scene Matthew Duepner Walkabout13</linkclipref>
												<mediatype>audio</mediatype>
												<trackindex>66</trackindex>
												<clipindex>33</clipindex>
												<groupindex>1</groupindex>
											</link>
											<fielddominance>none</fielddominance>
											<itemhistory>
												<uuid>47820933-2B99-404C-A763-616556F609D5</uuid>
											</itemhistory>
										</clipitem>
										<clipitem id="Raw Scene Matthew Duepner Walkabout14">
											<name>Raw Scene Matthew Duepner Walkabout</name>
											<duration>38484</duration>
											<rate>
												<ntsc>TRUE</ntsc>
												<timebase>24</timebase>
											</rate>
											<in>10560</in>
											<out>10599</out>
											<start>4602</start>
											<end>4641</end>
											<pixelaspectratio>Square</pixelaspectratio>
											<anamorphic>FALSE</anamorphic>
											<alphatype>black</alphatype>
											<masterclipid>Raw Scene Matthew Duepner Walkabout15</masterclipid>
											<logginginfo>
												<scene/>
												<shottake/>
												<lognote/>
												<good>FALSE</good>
											</logginginfo>
											<labels>
												<label2/>
											</labels>
											<comments>
												<mastercomment1/>
												<mastercomment2/>
												<mastercomment3/>
												<mastercomment4/>
											</comments>
											<file id="YIN_2013-05-28_LG-4 "/>
											<sourcetrack>
												<mediatype>video</mediatype>
											</sourcetrack>
											<link>
												<linkclipref>Raw Scene Matthew Duepner Walkabout14</linkclipref>
												<mediatype>video</mediatype>
												<trackindex>3</trackindex>
												<clipindex>34</clipindex>
											</link>
											<link>
												<linkclipref>Raw Scene Matthew Duepner Walkabout16</linkclipref>
												<mediatype>audio</mediatype>
												<trackindex>65</trackindex>
												<clipindex>34</clipindex>
												<groupindex>1</groupindex>
											</link>
											<link>
												<linkclipref>Raw Scene Matthew Duepner Walkabout17</linkclipref>
												<mediatype>audio</mediatype>
												<trackindex>66</trackindex>
												<clipindex>34</clipindex>
												<groupindex>1</groupindex>
											</link>
											<fielddominance>none</fielddominance>
											<itemhistory>
												<uuid>7F196594-CE7B-44DC-B833-8DA3CDAECA32</uuid>
											</itemhistory>
										</clipitem>
										<clipitem id="Raw Scene Matthew Duepner Walkabout18">
											<name>Raw Scene Matthew Duepner Walkabout</name>
											<duration>38484</duration>
											<rate>
												<ntsc>TRUE</ntsc>
												<timebase>24</timebase>
											</rate>
											<in>11332</in>
											<out>11408</out>
											<start>4641</start>
											<end>4717</end>
											<pixelaspectratio>Square</pixelaspectratio>
											<anamorphic>FALSE</anamorphic>
											<alphatype>black</alphatype>
											<masterclipid>Raw Scene Matthew Duepner Walkabout19</masterclipid>
											<logginginfo>
												<scene/>
												<shottake/>
												<lognote/>
												<good>FALSE</good>
											</logginginfo>
											<labels>
												<label2/>
											</labels>
											<comments>
												<mastercomment1/>
												<mastercomment2/>
												<mastercomment3/>
												<mastercomment4/>
											</comments>
											<file id="YIN_2013-05-28_LG-4 "/>
											<sourcetrack>
												<mediatype>video</mediatype>
											</sourcetrack>
											<link>
												<linkclipref>Raw Scene Matthew Duepner Walkabout18</linkclipref>
												<mediatype>video</mediatype>
												<trackindex>3</trackindex>
												<clipindex>35</clipindex>
											</link>
											<link>
												<linkclipref>Raw Scene Matthew Duepner Walkabout20</linkclipref>
												<mediatype>audio</mediatype>
												<trackindex>65</trackindex>
												<clipindex>35</clipindex>
												<groupindex>1</groupindex>
											</link>
											<link>
												<linkclipref>Raw Scene Matthew Duepner Walkabout21</linkclipref>
												<mediatype>audio</mediatype>
												<trackindex>66</trackindex>
												<clipindex>35</clipindex>
												<groupindex>1</groupindex>
											</link>
											<fielddominance>none</fielddominance>
											<itemhistory>
												<uuid>FD483978-495D-46C8-9530-ECE7CFD23061</uuid>
											</itemhistory>
										</clipitem>
										<clipitem id="Raw Scene Matthew Duepner Walkabout22">
											<name>Raw Scene Matthew Duepner Walkabout</name>
											<duration>38484</duration>
											<rate>
												<ntsc>TRUE</ntsc>
												<timebase>24</timebase>
											</rate>
											<in>11540</in>
											<out>11595</out>
											<start>4717</start>
											<end>4772</end>
											<pixelaspectratio>Square</pixelaspectratio>
											<anamorphic>FALSE</anamorphic>
											<alphatype>black</alphatype>
											<masterclipid>Raw Scene Matthew Duepner Walkabout23</masterclipid>
											<logginginfo>
												<scene/>
												<shottake/>
												<lognote/>
												<good>FALSE</good>
											</logginginfo>
											<labels>
												<label2/>
											</labels>
											<comments>
												<mastercomment1/>
												<mastercomment2/>
												<mastercomment3/>
												<mastercomment4/>
											</comments>
											<file id="YIN_2013-05-28_LG-4 "/>
											<sourcetrack>
												<mediatype>video</mediatype>
											</sourcetrack>
											<link>
												<linkclipref>Raw Scene Matthew Duepner Walkabout22</linkclipref>
												<mediatype>video</mediatype>
												<trackindex>3</trackindex>
												<clipindex>36</clipindex>
											</link>
											<link>
												<linkclipref>Raw Scene Matthew Duepner Walkabout24</linkclipref>
												<mediatype>audio</mediatype>
												<trackindex>65</trackindex>
												<clipindex>36</clipindex>
												<groupindex>1</groupindex>
											</link>
											<link>
												<linkclipref>Raw Scene Matthew Duepner Walkabout25</linkclipref>
												<mediatype>audio</mediatype>
												<trackindex>66</trackindex>
												<clipindex>36</clipindex>
												<groupindex>1</groupindex>
											</link>
											<fielddominance>none</fielddominance>
											<itemhistory>
												<uuid>6094CF0A-C39E-4431-B602-A5648D8F6E11</uuid>
											</itemhistory>
										</clipitem>
										<clipitem id="Raw Scene Matthew Duepner Walkabout26">
											<name>Raw Scene Matthew Duepner Walkabout</name>
											<duration>38484</duration>
											<rate>
												<ntsc>TRUE</ntsc>
												<timebase>24</timebase>
											</rate>
											<in>13339</in>
											<out>13489</out>
											<start>4772</start>
											<end>4922</end>
											<pixelaspectratio>Square</pixelaspectratio>
											<anamorphic>FALSE</anamorphic>
											<alphatype>black</alphatype>
											<masterclipid>Raw Scene Matthew Duepner Walkabout27</masterclipid>
											<logginginfo>
												<scene/>
												<shottake/>
												<lognote/>
												<good>FALSE</good>
											</logginginfo>
											<labels>
												<label2/>
											</labels>
											<comments>
												<mastercomment1/>
												<mastercomment2/>
												<mastercomment3/>
												<mastercomment4/>
											</comments>
											<file id="YIN_2013-05-28_LG-4 "/>
											<sourcetrack>
												<mediatype>video</mediatype>
											</sourcetrack>
											<link>
												<linkclipref>Raw Scene Matthew Duepner Walkabout26</linkclipref>
												<mediatype>video</mediatype>
												<trackindex>3</trackindex>
												<clipindex>37</clipindex>
											</link>
											<link>
												<linkclipref>Raw Scene Matthew Duepner Walkabout28</linkclipref>
												<mediatype>audio</mediatype>
												<trackindex>65</trackindex>
												<clipindex>37</clipindex>
												<groupindex>1</groupindex>
											</link>
											<link>
												<linkclipref>Raw Scene Matthew Duepner Walkabout29</linkclipref>
												<mediatype>audio</mediatype>
												<trackindex>66</trackindex>
												<clipindex>37</clipindex>
												<groupindex>1</groupindex>
											</link>
											<fielddominance>none</fielddominance>
											<itemhistory>
												<uuid>DB654E22-BACE-45B5-98A7-DBB0BD3AE4D0</uuid>
											</itemhistory>
										</clipitem>
										<clipitem id="Raw Scene Matthew Duepner Walkabout30">
											<name>Raw Scene Matthew Duepner Walkabout</name>
											<duration>38484</duration>
											<rate>
												<ntsc>TRUE</ntsc>
												<timebase>24</timebase>
											</rate>
											<in>13825</in>
											<out>13967</out>
											<start>4922</start>
											<end>5064</end>
											<pixelaspectratio>Square</pixelaspectratio>
											<anamorphic>FALSE</anamorphic>
											<alphatype>black</alphatype>
											<masterclipid>Raw Scene Matthew Duepner Walkabout31</masterclipid>
											<logginginfo>
												<scene/>
												<shottake/>
												<lognote/>
												<good>FALSE</good>
											</logginginfo>
											<labels>
												<label2/>
											</labels>
											<comments>
												<mastercomment1/>
												<mastercomment2/>
												<mastercomment3/>
												<mastercomment4/>
											</comments>
											<file id="YIN_2013-05-28_LG-4 "/>
											<sourcetrack>
												<mediatype>video</mediatype>
											</sourcetrack>
											<link>
												<linkclipref>Raw Scene Matthew Duepner Walkabout30</linkclipref>
												<mediatype>video</mediatype>
												<trackindex>3</trackindex>
												<clipindex>38</clipindex>
											</link>
											<link>
												<linkclipref>Raw Scene Matthew Duepner Walkabout32</linkclipref>
												<mediatype>audio</mediatype>
												<trackindex>65</trackindex>
												<clipindex>38</clipindex>
												<groupindex>1</groupindex>
											</link>
											<link>
												<linkclipref>Raw Scene Matthew Duepner Walkabout33</linkclipref>
												<mediatype>audio</mediatype>
												<trackindex>66</trackindex>
												<clipindex>38</clipindex>
												<groupindex>1</groupindex>
											</link>
											<fielddominance>none</fielddominance>
											<itemhistory>
												<uuid>934271E6-89EC-4F2F-BA65-F611481E7BAB</uuid>
											</itemhistory>
										</clipitem>
										<clipitem id="Raw Scene Matthew Duepner Walkabout34">
											<name>Raw Scene Matthew Duepner Walkabout</name>
											<duration>38484</duration>
											<rate>
												<ntsc>TRUE</ntsc>
												<timebase>24</timebase>
											</rate>
											<in>14191</in>
											<out>14629</out>
											<start>5064</start>
											<end>5502</end>
											<pixelaspectratio>Square</pixelaspectratio>
											<anamorphic>FALSE</anamorphic>
											<alphatype>black</alphatype>
											<masterclipid>Raw Scene Matthew Duepner Walkabout35</masterclipid>
											<logginginfo>
												<scene/>
												<shottake/>
												<lognote/>
												<good>FALSE</good>
											</logginginfo>
											<labels>
												<label2/>
											</labels>
											<comments>
												<mastercomment1/>
												<mastercomment2/>
												<mastercomment3/>
												<mastercomment4/>
											</comments>
											<file id="YIN_2013-05-28_LG-4 "/>
											<sourcetrack>
												<mediatype>video</mediatype>
											</sourcetrack>
											<link>
												<linkclipref>Raw Scene Matthew Duepner Walkabout34</linkclipref>
												<mediatype>video</mediatype>
												<trackindex>3</trackindex>
												<clipindex>39</clipindex>
											</link>
											<link>
												<linkclipref>Raw Scene Matthew Duepner Walkabout36</linkclipref>
												<mediatype>audio</mediatype>
												<trackindex>65</trackindex>
												<clipindex>39</clipindex>
												<groupindex>1</groupindex>
											</link>
											<link>
												<linkclipref>Raw Scene Matthew Duepner Walkabout37</linkclipref>
												<mediatype>audio</mediatype>
												<trackindex>66</trackindex>
												<clipindex>39</clipindex>
												<groupindex>1</groupindex>
											</link>
											<fielddominance>none</fielddominance>
											<itemhistory>
												<uuid>EC3E2876-7633-44E5-AAAA-7C08E888C873</uuid>
											</itemhistory>
										</clipitem>
										<clipitem id="Raw Scene Matthew Duepner Walkabout38">
											<name>Raw Scene Matthew Duepner Walkabout</name>
											<duration>38484</duration>
											<rate>
												<ntsc>TRUE</ntsc>
												<timebase>24</timebase>
											</rate>
											<in>14910</in>
											<out>15123</out>
											<start>5502</start>
											<end>5715</end>
											<pixelaspectratio>Square</pixelaspectratio>
											<anamorphic>FALSE</anamorphic>
											<alphatype>black</alphatype>
											<masterclipid>Raw Scene Matthew Duepner Walkabout39</masterclipid>
											<logginginfo>
												<scene/>
												<shottake/>
												<lognote/>
												<good>FALSE</good>
											</logginginfo>
											<labels>
												<label2/>
											</labels>
											<comments>
												<mastercomment1/>
												<mastercomment2/>
												<mastercomment3/>
												<mastercomment4/>
											</comments>
											<file id="YIN_2013-05-28_LG-4 "/>
											<sourcetrack>
												<mediatype>video</mediatype>
											</sourcetrack>
											<link>
												<linkclipref>Raw Scene Matthew Duepner Walkabout38</linkclipref>
												<mediatype>video</mediatype>
												<trackindex>3</trackindex>
												<clipindex>40</clipindex>
											</link>
											<link>
												<linkclipref>Raw Scene Matthew Duepner Walkabout40</linkclipref>
												<mediatype>audio</mediatype>
												<trackindex>65</trackindex>
												<clipindex>40</clipindex>
												<groupindex>1</groupindex>
											</link>
											<link>
												<linkclipref>Raw Scene Matthew Duepner Walkabout41</linkclipref>
												<mediatype>audio</mediatype>
												<trackindex>66</trackindex>
												<clipindex>40</clipindex>
												<groupindex>1</groupindex>
											</link>
											<fielddominance>none</fielddominance>
											<itemhistory>
												<uuid>76BAFB7C-EB4E-4BA9-A46C-A44A5AA302BF</uuid>
											</itemhistory>
										</clipitem>
										<clipitem id="Raw Scene Matthew Duepner Walkabout42">
											<name>Raw Scene Matthew Duepner Walkabout</name>
											<duration>38484</duration>
											<rate>
												<ntsc>TRUE</ntsc>
												<timebase>24</timebase>
											</rate>
											<in>17326</in>
											<out>17746</out>
											<start>5715</start>
											<end>6135</end>
											<pixelaspectratio>Square</pixelaspectratio>
											<anamorphic>FALSE</anamorphic>
											<alphatype>black</alphatype>
											<masterclipid>Raw Scene Matthew Duepner Walkabout43</masterclipid>
											<logginginfo>
												<scene/>
												<shottake/>
												<lognote/>
												<good>FALSE</good>
											</logginginfo>
											<labels>
												<label2/>
											</labels>
											<comments>
												<mastercomment1/>
												<mastercomment2/>
												<mastercomment3/>
												<mastercomment4/>
											</comments>
											<file id="YIN_2013-05-28_LG-4 "/>
											<sourcetrack>
												<mediatype>video</mediatype>
											</sourcetrack>
											<link>
												<linkclipref>Raw Scene Matthew Duepner Walkabout42</linkclipref>
												<mediatype>video</mediatype>
												<trackindex>3</trackindex>
												<clipindex>41</clipindex>
											</link>
											<link>
												<linkclipref>Raw Scene Matthew Duepner Walkabout44</linkclipref>
												<mediatype>audio</mediatype>
												<trackindex>65</trackindex>
												<clipindex>41</clipindex>
												<groupindex>1</groupindex>
											</link>
											<link>
												<linkclipref>Raw Scene Matthew Duepner Walkabout45</linkclipref>
												<mediatype>audio</mediatype>
												<trackindex>66</trackindex>
												<clipindex>41</clipindex>
												<groupindex>1</groupindex>
											</link>
											<fielddominance>none</fielddominance>
											<itemhistory>
												<uuid>4D5C2A8B-09B0-4E17-B773-4E5EED8808B6</uuid>
											</itemhistory>
										</clipitem>
										<clipitem id="Raw Scene Matthew Duepner Walkabout46">
											<name>Raw Scene Matthew Duepner Walkabout</name>
											<duration>38484</duration>
											<rate>
												<ntsc>TRUE</ntsc>
												<timebase>24</timebase>
											</rate>
											<in>18256</in>
											<out>18413</out>
											<start>6135</start>
											<end>6292</end>
											<pixelaspectratio>Square</pixelaspectratio>
											<anamorphic>FALSE</anamorphic>
											<alphatype>black</alphatype>
											<masterclipid>Raw Scene Matthew Duepner Walkabout47</masterclipid>
											<logginginfo>
												<scene/>
												<shottake/>
												<lognote/>
												<good>FALSE</good>
											</logginginfo>
											<labels>
												<label2/>
											</labels>
											<comments>
												<mastercomment1/>
												<mastercomment2/>
												<mastercomment3/>
												<mastercomment4/>
											</comments>
											<file id="YIN_2013-05-28_LG-4 "/>
											<sourcetrack>
												<mediatype>video</mediatype>
											</sourcetrack>
											<link>
												<linkclipref>Raw Scene Matthew Duepner Walkabout46</linkclipref>
												<mediatype>video</mediatype>
												<trackindex>3</trackindex>
												<clipindex>42</clipindex>
											</link>
											<link>
												<linkclipref>Raw Scene Matthew Duepner Walkabout48</linkclipref>
												<mediatype>audio</mediatype>
												<trackindex>65</trackindex>
												<clipindex>42</clipindex>
												<groupindex>1</groupindex>
											</link>
											<link>
												<linkclipref>Raw Scene Matthew Duepner Walkabout49</linkclipref>
												<mediatype>audio</mediatype>
												<trackindex>66</trackindex>
												<clipindex>42</clipindex>
												<groupindex>1</groupindex>
											</link>
											<fielddominance>none</fielddominance>
											<itemhistory>
												<uuid>1B064651-119C-4063-A5FA-63C7514F87A3</uuid>
											</itemhistory>
										</clipitem>
										<clipitem id="Raw Scene Matthew Duepner Walkabout50">
											<name>Raw Scene Matthew Duepner Walkabout</name>
											<duration>38484</duration>
											<rate>
												<ntsc>TRUE</ntsc>
												<timebase>24</timebase>
											</rate>
											<in>19758</in>
											<out>19953</out>
											<start>6292</start>
											<end>6487</end>
											<pixelaspectratio>Square</pixelaspectratio>
											<anamorphic>FALSE</anamorphic>
											<alphatype>black</alphatype>
											<masterclipid>Raw Scene Matthew Duepner Walkabout51</masterclipid>
											<logginginfo>
												<scene/>
												<shottake/>
												<lognote/>
												<good>FALSE</good>
											</logginginfo>
											<labels>
												<label2/>
											</labels>
											<comments>
												<mastercomment1/>
												<mastercomment2/>
												<mastercomment3/>
												<mastercomment4/>
											</comments>
											<file id="YIN_2013-05-28_LG-4 "/>
											<sourcetrack>
												<mediatype>video</mediatype>
											</sourcetrack>
											<link>
												<linkclipref>Raw Scene Matthew Duepner Walkabout50</linkclipref>
												<mediatype>video</mediatype>
												<trackindex>3</trackindex>
												<clipindex>43</clipindex>
											</link>
											<link>
												<linkclipref>Raw Scene Matthew Duepner Walkabout52</linkclipref>
												<mediatype>audio</mediatype>
												<trackindex>65</trackindex>
												<clipindex>43</clipindex>
												<groupindex>1</groupindex>
											</link>
											<link>
												<linkclipref>Raw Scene Matthew Duepner Walkabout53</linkclipref>
												<mediatype>audio</mediatype>
												<trackindex>66</trackindex>
												<clipindex>43</clipindex>
												<groupindex>1</groupindex>
											</link>
											<fielddominance>none</fielddominance>
											<itemhistory>
												<uuid>545EEE30-69B1-4F37-ADFA-EF91ACCC23E7</uuid>
											</itemhistory>
										</clipitem>
										<clipitem id="Raw Scene Matthew Duepner Walkabout54">
											<name>Raw Scene Matthew Duepner Walkabout</name>
											<duration>38484</duration>
											<rate>
												<ntsc>TRUE</ntsc>
												<timebase>24</timebase>
											</rate>
											<in>21572</in>
											<out>21660</out>
											<start>6487</start>
											<end>6575</end>
											<pixelaspectratio>Square</pixelaspectratio>
											<anamorphic>FALSE</anamorphic>
											<alphatype>black</alphatype>
											<masterclipid>Raw Scene Matthew Duepner Walkabout55</masterclipid>
											<logginginfo>
												<scene/>
												<shottake/>
												<lognote/>
												<good>FALSE</good>
											</logginginfo>
											<labels>
												<label2/>
											</labels>
											<comments>
												<mastercomment1/>
												<mastercomment2/>
												<mastercomment3/>
												<mastercomment4/>
											</comments>
											<file id="YIN_2013-05-28_LG-4 "/>
											<sourcetrack>
												<mediatype>video</mediatype>
											</sourcetrack>
											<link>
												<linkclipref>Raw Scene Matthew Duepner Walkabout54</linkclipref>
												<mediatype>video</mediatype>
												<trackindex>3</trackindex>
												<clipindex>44</clipindex>
											</link>
											<link>
												<linkclipref>Raw Scene Matthew Duepner Walkabout56</linkclipref>
												<mediatype>audio</mediatype>
												<trackindex>65</trackindex>
												<clipindex>44</clipindex>
												<groupindex>1</groupindex>
											</link>
											<link>
												<linkclipref>Raw Scene Matthew Duepner Walkabout57</linkclipref>
												<mediatype>audio</mediatype>
												<trackindex>66</trackindex>
												<clipindex>44</clipindex>
												<groupindex>1</groupindex>
											</link>
											<fielddominance>none</fielddominance>
											<itemhistory>
												<uuid>27C19987-BE4A-4F8D-9D7C-DC50AB7E2AC2</uuid>
											</itemhistory>
										</clipitem>
										<clipitem id="Raw Scene Matthew Duepner Walkabout58">
											<name>Raw Scene Matthew Duepner Walkabout</name>
											<duration>38484</duration>
											<rate>
												<ntsc>TRUE</ntsc>
												<timebase>24</timebase>
											</rate>
											<in>22012</in>
											<out>22143</out>
											<start>6575</start>
											<end>6706</end>
											<pixelaspectratio>Square</pixelaspectratio>
											<anamorphic>FALSE</anamorphic>
											<alphatype>black</alphatype>
											<masterclipid>Raw Scene Matthew Duepner Walkabout59</masterclipid>
											<logginginfo>
												<scene/>
												<shottake/>
												<lognote/>
												<good>FALSE</good>
											</logginginfo>
											<labels>
												<label2/>
											</labels>
											<comments>
												<mastercomment1/>
												<mastercomment2/>
												<mastercomment3/>
												<mastercomment4/>
											</comments>
											<file id="YIN_2013-05-28_LG-4 "/>
											<sourcetrack>
												<mediatype>video</mediatype>
											</sourcetrack>
											<link>
												<linkclipref>Raw Scene Matthew Duepner Walkabout58</linkclipref>
												<mediatype>video</mediatype>
												<trackindex>3</trackindex>
												<clipindex>45</clipindex>
											</link>
											<link>
												<linkclipref>Raw Scene Matthew Duepner Walkabout60</linkclipref>
												<mediatype>audio</mediatype>
												<trackindex>65</trackindex>
												<clipindex>45</clipindex>
												<groupindex>1</groupindex>
											</link>
											<link>
												<linkclipref>Raw Scene Matthew Duepner Walkabout61</linkclipref>
												<mediatype>audio</mediatype>
												<trackindex>66</trackindex>
												<clipindex>45</clipindex>
												<groupindex>1</groupindex>
											</link>
											<fielddominance>none</fielddominance>
											<itemhistory>
												<uuid>C6F112BF-F853-4485-9B85-AF91DC0A234B</uuid>
											</itemhistory>
										</clipitem>
										<clipitem id="Raw Scene Matthew Duepner Walkabout62">
											<name>Raw Scene Matthew Duepner Walkabout</name>
											<duration>38484</duration>
											<rate>
												<ntsc>TRUE</ntsc>
												<timebase>24</timebase>
											</rate>
											<in>23496</in>
											<out>23611</out>
											<start>6706</start>
											<end>6821</end>
											<pixelaspectratio>Square</pixelaspectratio>
											<anamorphic>FALSE</anamorphic>
											<alphatype>black</alphatype>
											<masterclipid>Raw Scene Matthew Duepner Walkabout63</masterclipid>
											<logginginfo>
												<scene/>
												<shottake/>
												<lognote/>
												<good>FALSE</good>
											</logginginfo>
											<labels>
												<label2/>
											</labels>
											<comments>
												<mastercomment1/>
												<mastercomment2/>
												<mastercomment3/>
												<mastercomment4/>
											</comments>
											<file id="YIN_2013-05-28_LG-4 "/>
											<sourcetrack>
												<mediatype>video</mediatype>
											</sourcetrack>
											<link>
												<linkclipref>Raw Scene Matthew Duepner Walkabout62</linkclipref>
												<mediatype>video</mediatype>
												<trackindex>3</trackindex>
												<clipindex>46</clipindex>
											</link>
											<link>
												<linkclipref>Raw Scene Matthew Duepner Walkabout64</linkclipref>
												<mediatype>audio</mediatype>
												<trackindex>65</trackindex>
												<clipindex>46</clipindex>
												<groupindex>1</groupindex>
											</link>
											<link>
												<linkclipref>Raw Scene Matthew Duepner Walkabout65</linkclipref>
												<mediatype>audio</mediatype>
												<trackindex>66</trackindex>
												<clipindex>46</clipindex>
												<groupindex>1</groupindex>
											</link>
											<fielddominance>none</fielddominance>
											<itemhistory>
												<uuid>EC7B1880-BE89-4C4A-B1AF-25366266BDAA</uuid>
											</itemhistory>
										</clipitem>
										<clipitem id="Raw Scene Matthew Duepner Walkabout66">
											<name>Raw Scene Matthew Duepner Walkabout</name>
											<duration>38484</duration>
											<rate>
												<ntsc>TRUE</ntsc>
												<timebase>24</timebase>
											</rate>
											<in>25130</in>
											<out>25241</out>
											<start>6821</start>
											<end>6932</end>
											<pixelaspectratio>Square</pixelaspectratio>
											<anamorphic>FALSE</anamorphic>
											<alphatype>black</alphatype>
											<masterclipid>Raw Scene Matthew Duepner Walkabout67</masterclipid>
											<logginginfo>
												<scene/>
												<shottake/>
												<lognote/>
												<good>FALSE</good>
											</logginginfo>
											<labels>
												<label2/>
											</labels>
											<comments>
												<mastercomment1/>
												<mastercomment2/>
												<mastercomment3/>
												<mastercomment4/>
											</comments>
											<file id="YIN_2013-05-28_LG-4 "/>
											<sourcetrack>
												<mediatype>video</mediatype>
											</sourcetrack>
											<link>
												<linkclipref>Raw Scene Matthew Duepner Walkabout66</linkclipref>
												<mediatype>video</mediatype>
												<trackindex>3</trackindex>
												<clipindex>47</clipindex>
											</link>
											<link>
												<linkclipref>Raw Scene Matthew Duepner Walkabout68</linkclipref>
												<mediatype>audio</mediatype>
												<trackindex>65</trackindex>
												<clipindex>47</clipindex>
												<groupindex>1</groupindex>
											</link>
											<link>
												<linkclipref>Raw Scene Matthew Duepner Walkabout69</linkclipref>
												<mediatype>audio</mediatype>
												<trackindex>66</trackindex>
												<clipindex>47</clipindex>
												<groupindex>1</groupindex>
											</link>
											<fielddominance>none</fielddominance>
											<itemhistory>
												<uuid>7F3E3A0E-7844-4C6C-B0F2-2D5046BB0077</uuid>
											</itemhistory>
										</clipitem>
										<clipitem id="Raw Scene Matthew Duepner Walkabout70">
											<name>Raw Scene Matthew Duepner Walkabout</name>
											<duration>38484</duration>
											<rate>
												<ntsc>TRUE</ntsc>
												<timebase>24</timebase>
											</rate>
											<in>24211</in>
											<out>24295</out>
											<start>6932</start>
											<end>7016</end>
											<pixelaspectratio>Square</pixelaspectratio>
											<anamorphic>FALSE</anamorphic>
											<alphatype>black</alphatype>
											<masterclipid>Raw Scene Matthew Duepner Walkabout71</masterclipid>
											<logginginfo>
												<scene/>
												<shottake/>
												<lognote/>
												<good>FALSE</good>
											</logginginfo>
											<labels>
												<label2/>
											</labels>
											<comments>
												<mastercomment1/>
												<mastercomment2/>
												<mastercomment3/>
												<mastercomment4/>
											</comments>
											<file id="YIN_2013-05-28_LG-4 "/>
											<sourcetrack>
												<mediatype>video</mediatype>
											</sourcetrack>
											<link>
												<linkclipref>Raw Scene Matthew Duepner Walkabout70</linkclipref>
												<mediatype>video</mediatype>
												<trackindex>3</trackindex>
												<clipindex>48</clipindex>
											</link>
											<link>
												<linkclipref>Raw Scene Matthew Duepner Walkabout72</linkclipref>
												<mediatype>audio</mediatype>
												<trackindex>65</trackindex>
												<clipindex>48</clipindex>
												<groupindex>1</groupindex>
											</link>
											<link>
												<linkclipref>Raw Scene Matthew Duepner Walkabout73</linkclipref>
												<mediatype>audio</mediatype>
												<trackindex>66</trackindex>
												<clipindex>48</clipindex>
												<groupindex>1</groupindex>
											</link>
											<fielddominance>none</fielddominance>
											<itemhistory>
												<uuid>7C5AEDAD-5467-4DAA-A528-DF6699E6D760</uuid>
											</itemhistory>
										</clipitem>
										<clipitem id="Raw Scene Matthew Duepner Walkabout74">
											<name>Raw Scene Matthew Duepner Walkabout</name>
											<duration>38484</duration>
											<rate>
												<ntsc>TRUE</ntsc>
												<timebase>24</timebase>
											</rate>
											<in>23727</in>
											<out>23813</out>
											<start>7016</start>
											<end>7102</end>
											<pixelaspectratio>Square</pixelaspectratio>
											<anamorphic>FALSE</anamorphic>
											<alphatype>black</alphatype>
											<masterclipid>Raw Scene Matthew Duepner Walkabout75</masterclipid>
											<logginginfo>
												<scene/>
												<shottake/>
												<lognote/>
												<good>FALSE</good>
											</logginginfo>
											<labels>
												<label2/>
											</labels>
											<comments>
												<mastercomment1/>
												<mastercomment2/>
												<mastercomment3/>
												<mastercomment4/>
											</comments>
											<file id="YIN_2013-05-28_LG-4 "/>
											<sourcetrack>
												<mediatype>video</mediatype>
											</sourcetrack>
											<link>
												<linkclipref>Raw Scene Matthew Duepner Walkabout74</linkclipref>
												<mediatype>video</mediatype>
												<trackindex>3</trackindex>
												<clipindex>49</clipindex>
											</link>
											<link>
												<linkclipref>Raw Scene Matthew Duepner Walkabout76</linkclipref>
												<mediatype>audio</mediatype>
												<trackindex>65</trackindex>
												<clipindex>49</clipindex>
												<groupindex>1</groupindex>
											</link>
											<link>
												<linkclipref>Raw Scene Matthew Duepner Walkabout77</linkclipref>
												<mediatype>audio</mediatype>
												<trackindex>66</trackindex>
												<clipindex>49</clipindex>
												<groupindex>1</groupindex>
											</link>
											<fielddominance>none</fielddominance>
											<itemhistory>
												<uuid>98F6196E-E7AA-461D-98C6-26C514E03111</uuid>
											</itemhistory>
										</clipitem>
										<clipitem id="Raw Scene Matthew Duepner Walkabout78">
											<name>Raw Scene Matthew Duepner Walkabout</name>
											<duration>38484</duration>
											<rate>
												<ntsc>TRUE</ntsc>
												<timebase>24</timebase>
											</rate>
											<in>24423</in>
											<out>24509</out>
											<start>7102</start>
											<end>7188</end>
											<pixelaspectratio>Square</pixelaspectratio>
											<anamorphic>FALSE</anamorphic>
											<alphatype>black</alphatype>
											<masterclipid>Raw Scene Matthew Duepner Walkabout79</masterclipid>
											<logginginfo>
												<scene/>
												<shottake/>
												<lognote/>
												<good>FALSE</good>
											</logginginfo>
											<labels>
												<label2/>
											</labels>
											<comments>
												<mastercomment1/>
												<mastercomment2/>
												<mastercomment3/>
												<mastercomment4/>
											</comments>
											<file id="YIN_2013-05-28_LG-4 "/>
											<sourcetrack>
												<mediatype>video</mediatype>
											</sourcetrack>
											<link>
												<linkclipref>Raw Scene Matthew Duepner Walkabout78</linkclipref>
												<mediatype>video</mediatype>
												<trackindex>3</trackindex>
												<clipindex>50</clipindex>
											</link>
											<link>
												<linkclipref>Raw Scene Matthew Duepner Walkabout80</linkclipref>
												<mediatype>audio</mediatype>
												<trackindex>65</trackindex>
												<clipindex>50</clipindex>
												<groupindex>1</groupindex>
											</link>
											<link>
												<linkclipref>Raw Scene Matthew Duepner Walkabout81</linkclipref>
												<mediatype>audio</mediatype>
												<trackindex>66</trackindex>
												<clipindex>50</clipindex>
												<groupindex>1</groupindex>
											</link>
											<fielddominance>none</fielddominance>
											<itemhistory>
												<uuid>316A28AB-889A-42C5-A6A3-50332D7ECD26</uuid>
											</itemhistory>
										</clipitem>
										<clipitem id="Raw Scene Matthew Duepner Walkabout82">
											<name>Raw Scene Matthew Duepner Walkabout</name>
											<duration>38484</duration>
											<rate>
												<ntsc>TRUE</ntsc>
												<timebase>24</timebase>
											</rate>
											<in>26628</in>
											<out>26940</out>
											<start>7188</start>
											<end>7500</end>
											<pixelaspectratio>Square</pixelaspectratio>
											<anamorphic>FALSE</anamorphic>
											<alphatype>black</alphatype>
											<masterclipid>Raw Scene Matthew Duepner Walkabout83</masterclipid>
											<logginginfo>
												<scene/>
												<shottake/>
												<lognote/>
												<good>FALSE</good>
											</logginginfo>
											<labels>
												<label2/>
											</labels>
											<comments>
												<mastercomment1/>
												<mastercomment2/>
												<mastercomment3/>
												<mastercomment4/>
											</comments>
											<file id="YIN_2013-05-28_LG-4 "/>
											<sourcetrack>
												<mediatype>video</mediatype>
											</sourcetrack>
											<link>
												<linkclipref>Raw Scene Matthew Duepner Walkabout82</linkclipref>
												<mediatype>video</mediatype>
												<trackindex>3</trackindex>
												<clipindex>51</clipindex>
											</link>
											<link>
												<linkclipref>Raw Scene Matthew Duepner Walkabout84</linkclipref>
												<mediatype>audio</mediatype>
												<trackindex>65</trackindex>
												<clipindex>51</clipindex>
												<groupindex>1</groupindex>
											</link>
											<link>
												<linkclipref>Raw Scene Matthew Duepner Walkabout85</linkclipref>
												<mediatype>audio</mediatype>
												<trackindex>66</trackindex>
												<clipindex>51</clipindex>
												<groupindex>1</groupindex>
											</link>
											<fielddominance>none</fielddominance>
											<itemhistory>
												<uuid>B9D65D7B-1C4C-40DC-9218-B2667215BB54</uuid>
											</itemhistory>
										</clipitem>
										<clipitem id="Raw Scene Matthew Duepner Walkabout86">
											<name>Raw Scene Matthew Duepner Walkabout</name>
											<duration>38484</duration>
											<rate>
												<ntsc>TRUE</ntsc>
												<timebase>24</timebase>
											</rate>
											<in>26962</in>
											<out>27016</out>
											<start>7500</start>
											<end>7554</end>
											<pixelaspectratio>Square</pixelaspectratio>
											<anamorphic>FALSE</anamorphic>
											<alphatype>black</alphatype>
											<masterclipid>Raw Scene Matthew Duepner Walkabout87</masterclipid>
											<logginginfo>
												<scene/>
												<shottake/>
												<lognote/>
												<good>FALSE</good>
											</logginginfo>
											<labels>
												<label2/>
											</labels>
											<comments>
												<mastercomment1/>
												<mastercomment2/>
												<mastercomment3/>
												<mastercomment4/>
											</comments>
											<file id="YIN_2013-05-28_LG-4 "/>
											<sourcetrack>
												<mediatype>video</mediatype>
											</sourcetrack>
											<link>
												<linkclipref>Raw Scene Matthew Duepner Walkabout86</linkclipref>
												<mediatype>video</mediatype>
												<trackindex>3</trackindex>
												<clipindex>52</clipindex>
											</link>
											<link>
												<linkclipref>Raw Scene Matthew Duepner Walkabout88</linkclipref>
												<mediatype>audio</mediatype>
												<trackindex>65</trackindex>
												<clipindex>52</clipindex>
												<groupindex>1</groupindex>
											</link>
											<link>
												<linkclipref>Raw Scene Matthew Duepner Walkabout89</linkclipref>
												<mediatype>audio</mediatype>
												<trackindex>66</trackindex>
												<clipindex>52</clipindex>
												<groupindex>1</groupindex>
											</link>
											<fielddominance>none</fielddominance>
											<itemhistory>
												<uuid>93FEFE06-C5F4-4072-8709-FFD0C01594AE</uuid>
											</itemhistory>
										</clipitem>
										<clipitem id="Raw Scene Matthew Duepner Walkabout90">
											<name>Raw Scene Matthew Duepner Walkabout</name>
											<duration>38484</duration>
											<rate>
												<ntsc>TRUE</ntsc>
												<timebase>24</timebase>
											</rate>
											<in>27816</in>
											<out>28338</out>
											<start>7554</start>
											<end>8076</end>
											<pixelaspectratio>Square</pixelaspectratio>
											<anamorphic>FALSE</anamorphic>
											<alphatype>black</alphatype>
											<masterclipid>Raw Scene Matthew Duepner Walkabout91</masterclipid>
											<logginginfo>
												<scene/>
												<shottake/>
												<lognote/>
												<good>FALSE</good>
											</logginginfo>
											<labels>
												<label2/>
											</labels>
											<comments>
												<mastercomment1/>
												<mastercomment2/>
												<mastercomment3/>
												<mastercomment4/>
											</comments>
											<file id="YIN_2013-05-28_LG-4 "/>
											<sourcetrack>
												<mediatype>video</mediatype>
											</sourcetrack>
											<link>
												<linkclipref>Raw Scene Matthew Duepner Walkabout90</linkclipref>
												<mediatype>video</mediatype>
												<trackindex>3</trackindex>
												<clipindex>53</clipindex>
											</link>
											<link>
												<linkclipref>Raw Scene Matthew Duepner Walkabout92</linkclipref>
												<mediatype>audio</mediatype>
												<trackindex>65</trackindex>
												<clipindex>53</clipindex>
												<groupindex>1</groupindex>
											</link>
											<link>
												<linkclipref>Raw Scene Matthew Duepner Walkabout93</linkclipref>
												<mediatype>audio</mediatype>
												<trackindex>66</trackindex>
												<clipindex>53</clipindex>
												<groupindex>1</groupindex>
											</link>
											<fielddominance>none</fielddominance>
											<itemhistory>
												<uuid>D3454E65-DCC4-4EA5-8DAE-A71016B80DCC</uuid>
											</itemhistory>
										</clipitem>
										<clipitem id="Raw Scene Matthew Duepner Walkabout94">
											<name>Raw Scene Matthew Duepner Walkabout</name>
											<duration>38484</duration>
											<rate>
												<ntsc>TRUE</ntsc>
												<timebase>24</timebase>
											</rate>
											<in>28558</in>
											<out>28719</out>
											<start>8076</start>
											<end>8237</end>
											<pixelaspectratio>Square</pixelaspectratio>
											<anamorphic>FALSE</anamorphic>
											<alphatype>black</alphatype>
											<masterclipid>Raw Scene Matthew Duepner Walkabout95</masterclipid>
											<logginginfo>
												<scene/>
												<shottake/>
												<lognote/>
												<good>FALSE</good>
											</logginginfo>
											<labels>
												<label2/>
											</labels>
											<comments>
												<mastercomment1/>
												<mastercomment2/>
												<mastercomment3/>
												<mastercomment4/>
											</comments>
											<file id="YIN_2013-05-28_LG-4 "/>
											<sourcetrack>
												<mediatype>video</mediatype>
											</sourcetrack>
											<link>
												<linkclipref>Raw Scene Matthew Duepner Walkabout94</linkclipref>
												<mediatype>video</mediatype>
												<trackindex>3</trackindex>
												<clipindex>54</clipindex>
											</link>
											<link>
												<linkclipref>Raw Scene Matthew Duepner Walkabout96</linkclipref>
												<mediatype>audio</mediatype>
												<trackindex>65</trackindex>
												<clipindex>54</clipindex>
												<groupindex>1</groupindex>
											</link>
											<link>
												<linkclipref>Raw Scene Matthew Duepner Walkabout97</linkclipref>
												<mediatype>audio</mediatype>
												<trackindex>66</trackindex>
												<clipindex>54</clipindex>
												<groupindex>1</groupindex>
											</link>
											<fielddominance>none</fielddominance>
											<itemhistory>
												<uuid>D85DC02E-DAA5-4399-8ED3-3FB316158F52</uuid>
											</itemhistory>
										</clipitem>
										<clipitem id="Raw Scene Matthew Duepner Walkabout98">
											<name>Raw Scene Matthew Duepner Walkabout</name>
											<duration>38484</duration>
											<rate>
												<ntsc>TRUE</ntsc>
												<timebase>24</timebase>
											</rate>
											<in>30624</in>
											<out>30700</out>
											<start>8237</start>
											<end>8313</end>
											<pixelaspectratio>Square</pixelaspectratio>
											<anamorphic>FALSE</anamorphic>
											<alphatype>black</alphatype>
											<masterclipid>Raw Scene Matthew Duepner Walkabout99</masterclipid>
											<logginginfo>
												<scene/>
												<shottake/>
												<lognote/>
												<good>FALSE</good>
											</logginginfo>
											<labels>
												<label2/>
											</labels>
											<comments>
												<mastercomment1/>
												<mastercomment2/>
												<mastercomment3/>
												<mastercomment4/>
											</comments>
											<file id="YIN_2013-05-28_LG-4 "/>
											<sourcetrack>
												<mediatype>video</mediatype>
											</sourcetrack>
											<link>
												<linkclipref>Raw Scene Matthew Duepner Walkabout98</linkclipref>
												<mediatype>video</mediatype>
												<trackindex>3</trackindex>
												<clipindex>55</clipindex>
											</link>
											<link>
												<linkclipref>Raw Scene Matthew Duepner Walkabout100</linkclipref>
												<mediatype>audio</mediatype>
												<trackindex>65</trackindex>
												<clipindex>55</clipindex>
												<groupindex>1</groupindex>
											</link>
											<link>
												<linkclipref>Raw Scene Matthew Duepner Walkabout101</linkclipref>
												<mediatype>audio</mediatype>
												<trackindex>66</trackindex>
												<clipindex>55</clipindex>
												<groupindex>1</groupindex>
											</link>
											<fielddominance>none</fielddominance>
											<itemhistory>
												<uuid>A19AA97D-9B25-44AC-9115-EF2EA19367BF</uuid>
											</itemhistory>
										</clipitem>
										<clipitem id="Raw Scene Matthew Duepner Walkabout102">
											<name>Raw Scene Matthew Duepner Walkabout</name>
											<duration>38484</duration>
											<rate>
												<ntsc>TRUE</ntsc>
												<timebase>24</timebase>
											</rate>
											<in>30946</in>
											<out>30968</out>
											<start>8313</start>
											<end>8335</end>
											<pixelaspectratio>Square</pixelaspectratio>
											<anamorphic>FALSE</anamorphic>
											<alphatype>black</alphatype>
											<masterclipid>Raw Scene Matthew Duepner Walkabout103</masterclipid>
											<logginginfo>
												<scene/>
												<shottake/>
												<lognote/>
												<good>FALSE</good>
											</logginginfo>
											<labels>
												<label2/>
											</labels>
											<comments>
												<mastercomment1/>
												<mastercomment2/>
												<mastercomment3/>
												<mastercomment4/>
											</comments>
											<file id="YIN_2013-05-28_LG-4 "/>
											<sourcetrack>
												<mediatype>video</mediatype>
											</sourcetrack>
											<link>
												<linkclipref>Raw Scene Matthew Duepner Walkabout102</linkclipref>
												<mediatype>video</mediatype>
												<trackindex>3</trackindex>
												<clipindex>56</clipindex>
											</link>
											<link>
												<linkclipref>Raw Scene Matthew Duepner Walkabout104</linkclipref>
												<mediatype>audio</mediatype>
												<trackindex>65</trackindex>
												<clipindex>56</clipindex>
												<groupindex>1</groupindex>
											</link>
											<link>
												<linkclipref>Raw Scene Matthew Duepner Walkabout105</linkclipref>
												<mediatype>audio</mediatype>
												<trackindex>66</trackindex>
												<clipindex>56</clipindex>
												<groupindex>1</groupindex>
											</link>
											<fielddominance>none</fielddominance>
											<itemhistory>
												<uuid>43BB336B-9220-44D5-9AF5-CDFEFCBB7840</uuid>
											</itemhistory>
										</clipitem>
										<clipitem id="Raw Scene Matthew Duepner Walkabout106">
											<name>Raw Scene Matthew Duepner Walkabout</name>
											<duration>38484</duration>
											<rate>
												<ntsc>TRUE</ntsc>
												<timebase>24</timebase>
											</rate>
											<in>31032</in>
											<out>31190</out>
											<start>8335</start>
											<end>8493</end>
											<pixelaspectratio>Square</pixelaspectratio>
											<anamorphic>FALSE</anamorphic>
											<alphatype>black</alphatype>
											<masterclipid>Raw Scene Matthew Duepner Walkabout107</masterclipid>
											<logginginfo>
												<scene/>
												<shottake/>
												<lognote/>
												<good>FALSE</good>
											</logginginfo>
											<labels>
												<label2/>
											</labels>
											<comments>
												<mastercomment1/>
												<mastercomment2/>
												<mastercomment3/>
												<mastercomment4/>
											</comments>
											<file id="YIN_2013-05-28_LG-4 "/>
											<sourcetrack>
												<mediatype>video</mediatype>
											</sourcetrack>
											<link>
												<linkclipref>Raw Scene Matthew Duepner Walkabout106</linkclipref>
												<mediatype>video</mediatype>
												<trackindex>3</trackindex>
												<clipindex>57</clipindex>
											</link>
											<link>
												<linkclipref>Raw Scene Matthew Duepner Walkabout108</linkclipref>
												<mediatype>audio</mediatype>
												<trackindex>65</trackindex>
												<clipindex>57</clipindex>
												<groupindex>1</groupindex>
											</link>
											<link>
												<linkclipref>Raw Scene Matthew Duepner Walkabout109</linkclipref>
												<mediatype>audio</mediatype>
												<trackindex>66</trackindex>
												<clipindex>57</clipindex>
												<groupindex>1</groupindex>
											</link>
											<fielddominance>none</fielddominance>
											<itemhistory>
												<uuid>C74FD7B2-E1E7-4278-AAD7-050D821F977A</uuid>
											</itemhistory>
										</clipitem>
										<clipitem id="Raw Scene Matthew Duepner Walkabout110">
											<name>Raw Scene Matthew Duepner Walkabout</name>
											<duration>38484</duration>
											<rate>
												<ntsc>TRUE</ntsc>
												<timebase>24</timebase>
											</rate>
											<in>31795</in>
											<out>31917</out>
											<start>8493</start>
											<end>8615</end>
											<pixelaspectratio>Square</pixelaspectratio>
											<anamorphic>FALSE</anamorphic>
											<alphatype>black</alphatype>
											<masterclipid>Raw Scene Matthew Duepner Walkabout111</masterclipid>
											<logginginfo>
												<scene/>
												<shottake/>
												<lognote/>
												<good>FALSE</good>
											</logginginfo>
											<labels>
												<label2/>
											</labels>
											<comments>
												<mastercomment1/>
												<mastercomment2/>
												<mastercomment3/>
												<mastercomment4/>
											</comments>
											<file id="YIN_2013-05-28_LG-4 "/>
											<sourcetrack>
												<mediatype>video</mediatype>
											</sourcetrack>
											<link>
												<linkclipref>Raw Scene Matthew Duepner Walkabout110</linkclipref>
												<mediatype>video</mediatype>
												<trackindex>3</trackindex>
												<clipindex>58</clipindex>
											</link>
											<link>
												<linkclipref>Raw Scene Matthew Duepner Walkabout112</linkclipref>
												<mediatype>audio</mediatype>
												<trackindex>65</trackindex>
												<clipindex>58</clipindex>
												<groupindex>1</groupindex>
											</link>
											<link>
												<linkclipref>Raw Scene Matthew Duepner Walkabout113</linkclipref>
												<mediatype>audio</mediatype>
												<trackindex>66</trackindex>
												<clipindex>58</clipindex>
												<groupindex>1</groupindex>
											</link>
											<fielddominance>none</fielddominance>
											<itemhistory>
												<uuid>E053540A-7C8E-4FCA-A4E3-15F7F4F708AA</uuid>
											</itemhistory>
										</clipitem>
										<clipitem id="Raw Scene Matthew Duepner Walkabout114">
											<name>Raw Scene Matthew Duepner Walkabout</name>
											<duration>38484</duration>
											<rate>
												<ntsc>TRUE</ntsc>
												<timebase>24</timebase>
											</rate>
											<in>32375</in>
											<out>32507</out>
											<start>8615</start>
											<end>8747</end>
											<pixelaspectratio>Square</pixelaspectratio>
											<anamorphic>FALSE</anamorphic>
											<alphatype>black</alphatype>
											<masterclipid>Raw Scene Matthew Duepner Walkabout115</masterclipid>
											<logginginfo>
												<scene/>
												<shottake/>
												<lognote/>
												<good>FALSE</good>
											</logginginfo>
											<labels>
												<label2/>
											</labels>
											<comments>
												<mastercomment1/>
												<mastercomment2/>
												<mastercomment3/>
												<mastercomment4/>
											</comments>
											<file id="YIN_2013-05-28_LG-4 "/>
											<sourcetrack>
												<mediatype>video</mediatype>
											</sourcetrack>
											<link>
												<linkclipref>Raw Scene Matthew Duepner Walkabout114</linkclipref>
												<mediatype>video</mediatype>
												<trackindex>3</trackindex>
												<clipindex>59</clipindex>
											</link>
											<link>
												<linkclipref>Raw Scene Matthew Duepner Walkabout116</linkclipref>
												<mediatype>audio</mediatype>
												<trackindex>65</trackindex>
												<clipindex>59</clipindex>
												<groupindex>1</groupindex>
											</link>
											<link>
												<linkclipref>Raw Scene Matthew Duepner Walkabout117</linkclipref>
												<mediatype>audio</mediatype>
												<trackindex>66</trackindex>
												<clipindex>59</clipindex>
												<groupindex>1</groupindex>
											</link>
											<fielddominance>none</fielddominance>
											<itemhistory>
												<uuid>9A374D71-3A2B-4137-888B-9193D9081A9D</uuid>
											</itemhistory>
										</clipitem>
										<clipitem id="Raw Scene Matthew Duepner Walkabout118">
											<name>Raw Scene Matthew Duepner Walkabout</name>
											<duration>38484</duration>
											<rate>
												<ntsc>TRUE</ntsc>
												<timebase>24</timebase>
											</rate>
											<in>32997</in>
											<out>33142</out>
											<start>8747</start>
											<end>8892</end>
											<pixelaspectratio>Square</pixelaspectratio>
											<anamorphic>FALSE</anamorphic>
											<alphatype>black</alphatype>
											<masterclipid>Raw Scene Matthew Duepner Walkabout119</masterclipid>
											<logginginfo>
												<scene/>
												<shottake/>
												<lognote/>
												<good>FALSE</good>
											</logginginfo>
											<labels>
												<label2/>
											</labels>
											<comments>
												<mastercomment1/>
												<mastercomment2/>
												<mastercomment3/>
												<mastercomment4/>
											</comments>
											<file id="YIN_2013-05-28_LG-4 "/>
											<sourcetrack>
												<mediatype>video</mediatype>
											</sourcetrack>
											<link>
												<linkclipref>Raw Scene Matthew Duepner Walkabout118</linkclipref>
												<mediatype>video</mediatype>
												<trackindex>3</trackindex>
												<clipindex>60</clipindex>
											</link>
											<link>
												<linkclipref>Raw Scene Matthew Duepner Walkabout120</linkclipref>
												<mediatype>audio</mediatype>
												<trackindex>65</trackindex>
												<clipindex>60</clipindex>
												<groupindex>1</groupindex>
											</link>
											<link>
												<linkclipref>Raw Scene Matthew Duepner Walkabout121</linkclipref>
												<mediatype>audio</mediatype>
												<trackindex>66</trackindex>
												<clipindex>60</clipindex>
												<groupindex>1</groupindex>
											</link>
											<fielddominance>none</fielddominance>
											<itemhistory>
												<uuid>46932D83-1BE1-4AD8-9F9D-3954B440B7AF</uuid>
											</itemhistory>
										</clipitem>
										<clipitem id="Raw Scene Matthew Duepner Walkabout122">
											<name>Raw Scene Matthew Duepner Walkabout</name>
											<duration>38484</duration>
											<rate>
												<ntsc>TRUE</ntsc>
												<timebase>24</timebase>
											</rate>
											<in>33365</in>
											<out>33603</out>
											<start>8892</start>
											<end>9130</end>
											<pixelaspectratio>Square</pixelaspectratio>
											<anamorphic>FALSE</anamorphic>
											<alphatype>black</alphatype>
											<masterclipid>Raw Scene Matthew Duepner Walkabout123</masterclipid>
											<logginginfo>
												<scene/>
												<shottake/>
												<lognote/>
												<good>FALSE</good>
											</logginginfo>
											<labels>
												<label2/>
											</labels>
											<comments>
												<mastercomment1/>
												<mastercomment2/>
												<mastercomment3/>
												<mastercomment4/>
											</comments>
											<file id="YIN_2013-05-28_LG-4 "/>
											<sourcetrack>
												<mediatype>video</mediatype>
											</sourcetrack>
											<link>
												<linkclipref>Raw Scene Matthew Duepner Walkabout122</linkclipref>
												<mediatype>video</mediatype>
												<trackindex>3</trackindex>
												<clipindex>61</clipindex>
											</link>
											<link>
												<linkclipref>Raw Scene Matthew Duepner Walkabout124</linkclipref>
												<mediatype>audio</mediatype>
												<trackindex>65</trackindex>
												<clipindex>61</clipindex>
												<groupindex>1</groupindex>
											</link>
											<link>
												<linkclipref>Raw Scene Matthew Duepner Walkabout125</linkclipref>
												<mediatype>audio</mediatype>
												<trackindex>66</trackindex>
												<clipindex>61</clipindex>
												<groupindex>1</groupindex>
											</link>
											<fielddominance>none</fielddominance>
											<itemhistory>
												<uuid>3D447050-2328-42DE-9690-335CD6AD2DF7</uuid>
											</itemhistory>
										</clipitem>
										<clipitem id="Raw Scene Matthew Duepner Walkabout126">
											<name>Raw Scene Matthew Duepner Walkabout</name>
											<duration>38484</duration>
											<rate>
												<ntsc>TRUE</ntsc>
												<timebase>24</timebase>
											</rate>
											<in>34172</in>
											<out>34249</out>
											<start>9130</start>
											<end>9207</end>
											<pixelaspectratio>Square</pixelaspectratio>
											<anamorphic>FALSE</anamorphic>
											<alphatype>black</alphatype>
											<masterclipid>Raw Scene Matthew Duepner Walkabout127</masterclipid>
											<logginginfo>
												<scene/>
												<shottake/>
												<lognote/>
												<good>FALSE</good>
											</logginginfo>
											<labels>
												<label2/>
											</labels>
											<comments>
												<mastercomment1/>
												<mastercomment2/>
												<mastercomment3/>
												<mastercomment4/>
											</comments>
											<file id="YIN_2013-05-28_LG-4 "/>
											<sourcetrack>
												<mediatype>video</mediatype>
											</sourcetrack>
											<link>
												<linkclipref>Raw Scene Matthew Duepner Walkabout126</linkclipref>
												<mediatype>video</mediatype>
												<trackindex>3</trackindex>
												<clipindex>62</clipindex>
											</link>
											<link>
												<linkclipref>Raw Scene Matthew Duepner Walkabout128</linkclipref>
												<mediatype>audio</mediatype>
												<trackindex>65</trackindex>
												<clipindex>62</clipindex>
												<groupindex>1</groupindex>
											</link>
											<link>
												<linkclipref>Raw Scene Matthew Duepner Walkabout129</linkclipref>
												<mediatype>audio</mediatype>
												<trackindex>66</trackindex>
												<clipindex>62</clipindex>
												<groupindex>1</groupindex>
											</link>
											<fielddominance>none</fielddominance>
											<itemhistory>
												<uuid>C4217133-5980-4A1D-8119-7F0C25FE1BE3</uuid>
											</itemhistory>
										</clipitem>
										<clipitem id="Raw Scene Matthew Duepner Walkabout130">
											<name>Raw Scene Matthew Duepner Walkabout</name>
											<duration>38484</duration>
											<rate>
												<ntsc>TRUE</ntsc>
												<timebase>24</timebase>
											</rate>
											<in>34380</in>
											<out>34644</out>
											<start>9207</start>
											<end>9471</end>
											<pixelaspectratio>Square</pixelaspectratio>
											<anamorphic>FALSE</anamorphic>
											<alphatype>black</alphatype>
											<masterclipid>Raw Scene Matthew Duepner Walkabout131</masterclipid>
											<logginginfo>
												<scene/>
												<shottake/>
												<lognote/>
												<good>FALSE</good>
											</logginginfo>
											<labels>
												<label2/>
											</labels>
											<comments>
												<mastercomment1/>
												<mastercomment2/>
												<mastercomment3/>
												<mastercomment4/>
											</comments>
											<file id="YIN_2013-05-28_LG-4 "/>
											<sourcetrack>
												<mediatype>video</mediatype>
											</sourcetrack>
											<link>
												<linkclipref>Raw Scene Matthew Duepner Walkabout130</linkclipref>
												<mediatype>video</mediatype>
												<trackindex>3</trackindex>
												<clipindex>63</clipindex>
											</link>
											<link>
												<linkclipref>Raw Scene Matthew Duepner Walkabout132</linkclipref>
												<mediatype>audio</mediatype>
												<trackindex>65</trackindex>
												<clipindex>63</clipindex>
												<groupindex>1</groupindex>
											</link>
											<link>
												<linkclipref>Raw Scene Matthew Duepner Walkabout133</linkclipref>
												<mediatype>audio</mediatype>
												<trackindex>66</trackindex>
												<clipindex>63</clipindex>
												<groupindex>1</groupindex>
											</link>
											<fielddominance>none</fielddominance>
											<itemhistory>
												<uuid>2111E0D6-CEC8-4763-B9AA-02A2712B46D8</uuid>
											</itemhistory>
										</clipitem>
										<clipitem id="Raw Scene Matthew Duepner Walkabout134">
											<name>Raw Scene Matthew Duepner Walkabout</name>
											<duration>38484</duration>
											<rate>
												<ntsc>TRUE</ntsc>
												<timebase>24</timebase>
											</rate>
											<in>36124</in>
											<out>36168</out>
											<start>9471</start>
											<end>9515</end>
											<pixelaspectratio>Square</pixelaspectratio>
											<anamorphic>FALSE</anamorphic>
											<alphatype>black</alphatype>
											<masterclipid>Raw Scene Matthew Duepner Walkabout135</masterclipid>
											<logginginfo>
												<scene/>
												<shottake/>
												<lognote/>
												<good>FALSE</good>
											</logginginfo>
											<labels>
												<label2/>
											</labels>
											<comments>
												<mastercomment1/>
												<mastercomment2/>
												<mastercomment3/>
												<mastercomment4/>
											</comments>
											<file id="YIN_2013-05-28_LG-4 "/>
											<sourcetrack>
												<mediatype>video</mediatype>
											</sourcetrack>
											<link>
												<linkclipref>Raw Scene Matthew Duepner Walkabout134</linkclipref>
												<mediatype>video</mediatype>
												<trackindex>3</trackindex>
												<clipindex>64</clipindex>
											</link>
											<link>
												<linkclipref>Raw Scene Matthew Duepner Walkabout136</linkclipref>
												<mediatype>audio</mediatype>
												<trackindex>65</trackindex>
												<clipindex>64</clipindex>
												<groupindex>1</groupindex>
											</link>
											<link>
												<linkclipref>Raw Scene Matthew Duepner Walkabout137</linkclipref>
												<mediatype>audio</mediatype>
												<trackindex>66</trackindex>
												<clipindex>64</clipindex>
												<groupindex>1</groupindex>
											</link>
											<fielddominance>none</fielddominance>
											<itemhistory>
												<uuid>0C4C38EF-4709-4EC7-8A9E-C9562E559C9D</uuid>
											</itemhistory>
										</clipitem>
										<clipitem id="Raw Scene Matthew Duepner Walkabout138">
											<name>Raw Scene Matthew Duepner Walkabout</name>
											<duration>38484</duration>
											<rate>
												<ntsc>TRUE</ntsc>
												<timebase>24</timebase>
											</rate>
											<in>36397</in>
											<out>36474</out>
											<start>9515</start>
											<end>9592</end>
											<pixelaspectratio>Square</pixelaspectratio>
											<anamorphic>FALSE</anamorphic>
											<alphatype>black</alphatype>
											<masterclipid>Raw Scene Matthew Duepner Walkabout139</masterclipid>
											<logginginfo>
												<scene/>
												<shottake/>
												<lognote/>
												<good>FALSE</good>
											</logginginfo>
											<labels>
												<label2/>
											</labels>
											<comments>
												<mastercomment1/>
												<mastercomment2/>
												<mastercomment3/>
												<mastercomment4/>
											</comments>
											<file id="YIN_2013-05-28_LG-4 "/>
											<sourcetrack>
												<mediatype>video</mediatype>
											</sourcetrack>
											<link>
												<linkclipref>Raw Scene Matthew Duepner Walkabout138</linkclipref>
												<mediatype>video</mediatype>
												<trackindex>3</trackindex>
												<clipindex>65</clipindex>
											</link>
											<link>
												<linkclipref>Raw Scene Matthew Duepner Walkabout140</linkclipref>
												<mediatype>audio</mediatype>
												<trackindex>65</trackindex>
												<clipindex>65</clipindex>
												<groupindex>1</groupindex>
											</link>
											<link>
												<linkclipref>Raw Scene Matthew Duepner Walkabout141</linkclipref>
												<mediatype>audio</mediatype>
												<trackindex>66</trackindex>
												<clipindex>65</clipindex>
												<groupindex>1</groupindex>
											</link>
											<fielddominance>none</fielddominance>
											<itemhistory>
												<uuid>B6F01115-C044-471C-AFAD-46A8B917331A</uuid>
											</itemhistory>
										</clipitem>
										<clipitem id="Raw Scene Matthew Duepner Walkabout142">
											<name>Raw Scene Matthew Duepner Walkabout</name>
											<duration>38484</duration>
											<rate>
												<ntsc>TRUE</ntsc>
												<timebase>24</timebase>
											</rate>
											<in>37446</in>
											<out>37533</out>
											<start>9592</start>
											<end>9679</end>
											<pixelaspectratio>Square</pixelaspectratio>
											<anamorphic>FALSE</anamorphic>
											<alphatype>black</alphatype>
											<masterclipid>Raw Scene Matthew Duepner Walkabout143</masterclipid>
											<logginginfo>
												<scene/>
												<shottake/>
												<lognote/>
												<good>FALSE</good>
											</logginginfo>
											<labels>
												<label2/>
											</labels>
											<comments>
												<mastercomment1/>
												<mastercomment2/>
												<mastercomment3/>
												<mastercomment4/>
											</comments>
											<file id="YIN_2013-05-28_LG-4 "/>
											<sourcetrack>
												<mediatype>video</mediatype>
											</sourcetrack>
											<link>
												<linkclipref>Raw Scene Matthew Duepner Walkabout142</linkclipref>
												<mediatype>video</mediatype>
												<trackindex>3</trackindex>
												<clipindex>66</clipindex>
											</link>
											<link>
												<linkclipref>Raw Scene Matthew Duepner Walkabout144</linkclipref>
												<mediatype>audio</mediatype>
												<trackindex>65</trackindex>
												<clipindex>66</clipindex>
												<groupindex>1</groupindex>
											</link>
											<link>
												<linkclipref>Raw Scene Matthew Duepner Walkabout145</linkclipref>
												<mediatype>audio</mediatype>
												<trackindex>66</trackindex>
												<clipindex>66</clipindex>
												<groupindex>1</groupindex>
											</link>
											<fielddominance>none</fielddominance>
											<itemhistory>
												<uuid>9BD9BF07-ACEA-489E-97A6-061A52E41F28</uuid>
											</itemhistory>
										</clipitem>
										<clipitem id="Raw Scene Matthew Duepner Walkabout146">
											<name>Raw Scene Matthew Duepner Walkabout</name>
											<duration>38484</duration>
											<rate>
												<ntsc>TRUE</ntsc>
												<timebase>24</timebase>
											</rate>
											<in>37856</in>
											<out>37874</out>
											<start>9679</start>
											<end>9697</end>
											<pixelaspectratio>Square</pixelaspectratio>
											<anamorphic>FALSE</anamorphic>
											<alphatype>black</alphatype>
											<masterclipid>Raw Scene Matthew Duepner Walkabout147</masterclipid>
											<logginginfo>
												<scene/>
												<shottake/>
												<lognote/>
												<good>FALSE</good>
											</logginginfo>
											<labels>
												<label2/>
											</labels>
											<comments>
												<mastercomment1/>
												<mastercomment2/>
												<mastercomment3/>
												<mastercomment4/>
											</comments>
											<file id="YIN_2013-05-28_LG-4 "/>
											<sourcetrack>
												<mediatype>video</mediatype>
											</sourcetrack>
											<link>
												<linkclipref>Raw Scene Matthew Duepner Walkabout146</linkclipref>
												<mediatype>video</mediatype>
												<trackindex>3</trackindex>
												<clipindex>67</clipindex>
											</link>
											<link>
												<linkclipref>Raw Scene Matthew Duepner Walkabout148</linkclipref>
												<mediatype>audio</mediatype>
												<trackindex>65</trackindex>
												<clipindex>67</clipindex>
												<groupindex>1</groupindex>
											</link>
											<link>
												<linkclipref>Raw Scene Matthew Duepner Walkabout149</linkclipref>
												<mediatype>audio</mediatype>
												<trackindex>66</trackindex>
												<clipindex>67</clipindex>
												<groupindex>1</groupindex>
											</link>
											<fielddominance>none</fielddominance>
											<itemhistory>
												<uuid>9FB74560-F773-4AF0-86DC-34C77848C0A8</uuid>
											</itemhistory>
										</clipitem>
										<clipitem id="Raw Scene Matthew Duepner Walkabout150">
											<name>Raw Scene Matthew Duepner Walkabout</name>
											<duration>38484</duration>
											<rate>
												<ntsc>TRUE</ntsc>
												<timebase>24</timebase>
											</rate>
											<in>38389</in>
											<out>38476</out>
											<start>9697</start>
											<end>9784</end>
											<pixelaspectratio>Square</pixelaspectratio>
											<anamorphic>FALSE</anamorphic>
											<alphatype>black</alphatype>
											<masterclipid>Raw Scene Matthew Duepner Walkabout151</masterclipid>
											<logginginfo>
												<scene/>
												<shottake/>
												<lognote/>
												<good>FALSE</good>
											</logginginfo>
											<labels>
												<label2/>
											</labels>
											<comments>
												<mastercomment1/>
												<mastercomment2/>
												<mastercomment3/>
												<mastercomment4/>
											</comments>
											<file id="YIN_2013-05-28_LG-4 "/>
											<sourcetrack>
												<mediatype>video</mediatype>
											</sourcetrack>
											<link>
												<linkclipref>Raw Scene Matthew Duepner Walkabout150</linkclipref>
												<mediatype>video</mediatype>
												<trackindex>3</trackindex>
												<clipindex>68</clipindex>
											</link>
											<link>
												<linkclipref>Raw Scene Matthew Duepner Walkabout152</linkclipref>
												<mediatype>audio</mediatype>
												<trackindex>65</trackindex>
												<clipindex>68</clipindex>
												<groupindex>1</groupindex>
											</link>
											<link>
												<linkclipref>Raw Scene Matthew Duepner Walkabout153</linkclipref>
												<mediatype>audio</mediatype>
												<trackindex>66</trackindex>
												<clipindex>68</clipindex>
												<groupindex>1</groupindex>
											</link>
											<fielddominance>none</fielddominance>
											<itemhistory>
												<uuid>7863D67A-8ACC-42F8-890B-0B4526F06D9F</uuid>
											</itemhistory>
										</clipitem>
										<enabled>TRUE</enabled>
										<locked>FALSE</locked>
									</track>
								</video>
								<audio>
									<format>
										<samplecharacteristics>
											<depth>16</depth>
											<samplerate>48000</samplerate>
										</samplecharacteristics>
									</format>
									<outputs>
										<group>
											<index>1</index>
											<numchannels>1</numchannels>
											<downmix>0</downmix>
											<channel>
												<index>1</index>
											</channel>
										</group>
										<group>
											<index>2</index>
											<numchannels>1</numchannels>
											<downmix>0</downmix>
											<channel>
												<index>2</index>
											</channel>
										</group>
									</outputs>
									<in>-1</in>
									<out>-1</out>
									<track>
										<enabled>TRUE</enabled>
										<locked>FALSE</locked>
										<outputchannelindex>1</outputchannelindex>
									</track>
									<track>
										<enabled>TRUE</enabled>
										<locked>FALSE</locked>
										<outputchannelindex>2</outputchannelindex>
									</track>
									<track>
										<enabled>TRUE</enabled>
										<locked>FALSE</locked>
										<outputchannelindex>1</outputchannelindex>
									</track>
									<track>
										<enabled>TRUE</enabled>
										<locked>FALSE</locked>
										<outputchannelindex>2</outputchannelindex>
									</track>
									<track>
										<enabled>TRUE</enabled>
										<locked>FALSE</locked>
										<outputchannelindex>1</outputchannelindex>
									</track>
									<track>
										<enabled>TRUE</enabled>
										<locked>FALSE</locked>
										<outputchannelindex>2</outputchannelindex>
									</track>
									<track>
										<enabled>TRUE</enabled>
										<locked>FALSE</locked>
										<outputchannelindex>1</outputchannelindex>
									</track>
									<track>
										<enabled>TRUE</enabled>
										<locked>FALSE</locked>
										<outputchannelindex>2</outputchannelindex>
									</track>
									<track>
										<enabled>TRUE</enabled>
										<locked>FALSE</locked>
										<outputchannelindex>1</outputchannelindex>
									</track>
									<track>
										<enabled>TRUE</enabled>
										<locked>FALSE</locked>
										<outputchannelindex>2</outputchannelindex>
									</track>
									<track>
										<enabled>TRUE</enabled>
										<locked>FALSE</locked>
										<outputchannelindex>1</outputchannelindex>
									</track>
									<track>
										<enabled>TRUE</enabled>
										<locked>FALSE</locked>
										<outputchannelindex>2</outputchannelindex>
									</track>
									<track>
										<enabled>TRUE</enabled>
										<locked>FALSE</locked>
										<outputchannelindex>1</outputchannelindex>
									</track>
									<track>
										<enabled>TRUE</enabled>
										<locked>FALSE</locked>
										<outputchannelindex>2</outputchannelindex>
									</track>
									<track>
										<enabled>TRUE</enabled>
										<locked>FALSE</locked>
										<outputchannelindex>1</outputchannelindex>
									</track>
									<track>
										<enabled>TRUE</enabled>
										<locked>FALSE</locked>
										<outputchannelindex>2</outputchannelindex>
									</track>
									<track>
										<enabled>TRUE</enabled>
										<locked>FALSE</locked>
										<outputchannelindex>1</outputchannelindex>
									</track>
									<track>
										<enabled>TRUE</enabled>
										<locked>FALSE</locked>
										<outputchannelindex>2</outputchannelindex>
									</track>
									<track>
										<enabled>TRUE</enabled>
										<locked>FALSE</locked>
										<outputchannelindex>1</outputchannelindex>
									</track>
									<track>
										<enabled>TRUE</enabled>
										<locked>FALSE</locked>
										<outputchannelindex>2</outputchannelindex>
									</track>
									<track>
										<enabled>TRUE</enabled>
										<locked>FALSE</locked>
										<outputchannelindex>1</outputchannelindex>
									</track>
									<track>
										<enabled>TRUE</enabled>
										<locked>FALSE</locked>
										<outputchannelindex>2</outputchannelindex>
									</track>
									<track>
										<enabled>TRUE</enabled>
										<locked>FALSE</locked>
										<outputchannelindex>1</outputchannelindex>
									</track>
									<track>
										<enabled>TRUE</enabled>
										<locked>FALSE</locked>
										<outputchannelindex>2</outputchannelindex>
									</track>
									<track>
										<enabled>TRUE</enabled>
										<locked>FALSE</locked>
										<outputchannelindex>1</outputchannelindex>
									</track>
									<track>
										<enabled>TRUE</enabled>
										<locked>FALSE</locked>
										<outputchannelindex>2</outputchannelindex>
									</track>
									<track>
										<enabled>TRUE</enabled>
										<locked>FALSE</locked>
										<outputchannelindex>1</outputchannelindex>
									</track>
									<track>
										<enabled>TRUE</enabled>
										<locked>FALSE</locked>
										<outputchannelindex>2</outputchannelindex>
									</track>
									<track>
										<enabled>TRUE</enabled>
										<locked>FALSE</locked>
										<outputchannelindex>1</outputchannelindex>
									</track>
									<track>
										<enabled>TRUE</enabled>
										<locked>FALSE</locked>
										<outputchannelindex>2</outputchannelindex>
									</track>
									<track>
										<enabled>TRUE</enabled>
										<locked>FALSE</locked>
										<outputchannelindex>1</outputchannelindex>
									</track>
									<track>
										<enabled>TRUE</enabled>
										<locked>FALSE</locked>
										<outputchannelindex>2</outputchannelindex>
									</track>
									<track>
										<enabled>TRUE</enabled>
										<locked>FALSE</locked>
										<outputchannelindex>1</outputchannelindex>
									</track>
									<track>
										<enabled>TRUE</enabled>
										<locked>FALSE</locked>
										<outputchannelindex>2</outputchannelindex>
									</track>
									<track>
										<enabled>TRUE</enabled>
										<locked>FALSE</locked>
										<outputchannelindex>1</outputchannelindex>
									</track>
									<track>
										<enabled>TRUE</enabled>
										<locked>FALSE</locked>
										<outputchannelindex>2</outputchannelindex>
									</track>
									<track>
										<enabled>TRUE</enabled>
										<locked>FALSE</locked>
										<outputchannelindex>1</outputchannelindex>
									</track>
									<track>
										<enabled>TRUE</enabled>
										<locked>FALSE</locked>
										<outputchannelindex>2</outputchannelindex>
									</track>
									<track>
										<enabled>TRUE</enabled>
										<locked>FALSE</locked>
										<outputchannelindex>1</outputchannelindex>
									</track>
									<track>
										<enabled>TRUE</enabled>
										<locked>FALSE</locked>
										<outputchannelindex>2</outputchannelindex>
									</track>
									<track>
										<enabled>TRUE</enabled>
										<locked>FALSE</locked>
										<outputchannelindex>1</outputchannelindex>
									</track>
									<track>
										<enabled>TRUE</enabled>
										<locked>FALSE</locked>
										<outputchannelindex>2</outputchannelindex>
									</track>
									<track>
										<enabled>TRUE</enabled>
										<locked>FALSE</locked>
										<outputchannelindex>1</outputchannelindex>
									</track>
									<track>
										<enabled>TRUE</enabled>
										<locked>FALSE</locked>
										<outputchannelindex>2</outputchannelindex>
									</track>
									<track>
										<enabled>TRUE</enabled>
										<locked>FALSE</locked>
										<outputchannelindex>1</outputchannelindex>
									</track>
									<track>
										<enabled>TRUE</enabled>
										<locked>FALSE</locked>
										<outputchannelindex>2</outputchannelindex>
									</track>
									<track>
										<enabled>TRUE</enabled>
										<locked>FALSE</locked>
										<outputchannelindex>1</outputchannelindex>
									</track>
									<track>
										<enabled>TRUE</enabled>
										<locked>FALSE</locked>
										<outputchannelindex>2</outputchannelindex>
									</track>
									<track>
										<enabled>TRUE</enabled>
										<locked>FALSE</locked>
										<outputchannelindex>1</outputchannelindex>
									</track>
									<track>
										<enabled>TRUE</enabled>
										<locked>FALSE</locked>
										<outputchannelindex>2</outputchannelindex>
									</track>
									<track>
										<enabled>TRUE</enabled>
										<locked>FALSE</locked>
										<outputchannelindex>1</outputchannelindex>
									</track>
									<track>
										<enabled>TRUE</enabled>
										<locked>FALSE</locked>
										<outputchannelindex>2</outputchannelindex>
									</track>
									<track>
										<enabled>TRUE</enabled>
										<locked>FALSE</locked>
										<outputchannelindex>1</outputchannelindex>
									</track>
									<track>
										<enabled>TRUE</enabled>
										<locked>FALSE</locked>
										<outputchannelindex>2</outputchannelindex>
									</track>
									<track>
										<enabled>TRUE</enabled>
										<locked>FALSE</locked>
										<outputchannelindex>1</outputchannelindex>
									</track>
									<track>
										<enabled>TRUE</enabled>
										<locked>FALSE</locked>
										<outputchannelindex>2</outputchannelindex>
									</track>
									<track>
										<enabled>TRUE</enabled>
										<locked>FALSE</locked>
										<outputchannelindex>1</outputchannelindex>
									</track>
									<track>
										<enabled>TRUE</enabled>
										<locked>FALSE</locked>
										<outputchannelindex>2</outputchannelindex>
									</track>
									<track>
										<enabled>TRUE</enabled>
										<locked>FALSE</locked>
										<outputchannelindex>1</outputchannelindex>
									</track>
									<track>
										<enabled>TRUE</enabled>
										<locked>FALSE</locked>
										<outputchannelindex>2</outputchannelindex>
									</track>
									<track>
										<enabled>TRUE</enabled>
										<locked>FALSE</locked>
										<outputchannelindex>1</outputchannelindex>
									</track>
									<track>
										<enabled>TRUE</enabled>
										<locked>FALSE</locked>
										<outputchannelindex>2</outputchannelindex>
									</track>
									<track>
										<enabled>TRUE</enabled>
										<locked>FALSE</locked>
										<outputchannelindex>1</outputchannelindex>
									</track>
									<track>
										<enabled>TRUE</enabled>
										<locked>FALSE</locked>
										<outputchannelindex>2</outputchannelindex>
									</track>
									<track>
										<clipitem id="Raw B Roll Hack Manhattan Matthew Duepner's House2">
											<name>Raw B Roll Hack Manhattan Matthew Duepner's House</name>
											<duration>6617</duration>
											<rate>
												<ntsc>TRUE</ntsc>
												<timebase>24</timebase>
											</rate>
											<in>5680</in>
											<out>5776</out>
											<start>0</start>
											<end>96</end>
											<masterclipid>Raw B Roll Hack Manhattan Matthew Duepner's House1</masterclipid>
											<logginginfo>
												<scene/>
												<shottake/>
												<lognote/>
												<good>FALSE</good>
											</logginginfo>
											<labels>
												<label2/>
											</labels>
											<comments>
												<mastercomment1/>
												<mastercomment2/>
												<mastercomment3/>
												<mastercomment4/>
											</comments>
											<file id="YIN_2013-04-28_JB-1 "/>
											<filter>
												<effect>
													<name>Audio Levels</name>
													<effectid>audiolevels</effectid>
													<effectcategory>audiolevels</effectcategory>
													<effecttype>audiolevels</effecttype>
													<mediatype>audio</mediatype>
													<parameter>
														<name>Level</name>
														<parameterid>level</parameterid>
														<valuemin>0</valuemin>
														<valuemax>3.98109</valuemax>
														<value>1</value>
													</parameter>
												</effect>
											</filter>
											<filter>
												<effect>
													<name>Audio Pan</name>
													<effectid>audiopan</effectid>
													<effectcategory>audiopan</effectcategory>
													<effecttype>audiopan</effecttype>
													<mediatype>audio</mediatype>
													<parameter>
														<name>Pan</name>
														<parameterid>pan</parameterid>
														<valuemin>-1</valuemin>
														<valuemax>1</valuemax>
														<value>0</value>
													</parameter>
												</effect>
											</filter>
											<sourcetrack>
												<mediatype>audio</mediatype>
												<trackindex>1</trackindex>
											</sourcetrack>
											<link>
												<linkclipref>Raw B Roll Hack Manhattan Matthew Duepner's House</linkclipref>
												<mediatype>video</mediatype>
												<trackindex>3</trackindex>
												<clipindex>1</clipindex>
											</link>
											<link>
												<linkclipref>Raw B Roll Hack Manhattan Matthew Duepner's House2</linkclipref>
												<mediatype>audio</mediatype>
												<trackindex>65</trackindex>
												<clipindex>1</clipindex>
												<groupindex>1</groupindex>
											</link>
											<link>
												<linkclipref>Raw B Roll Hack Manhattan Matthew Duepner's House3</linkclipref>
												<mediatype>audio</mediatype>
												<trackindex>66</trackindex>
												<clipindex>1</clipindex>
												<groupindex>1</groupindex>
											</link>
											<itemhistory>
												<uuid>9BF19F65-1989-4A25-8376-9C9B78D4C8AC</uuid>
											</itemhistory>
										</clipitem>
										<clipitem id="Raw B Roll Hack Manhattan Matthew Duepner's House5">
											<name>Raw B Roll Hack Manhattan Matthew Duepner's House</name>
											<duration>6617</duration>
											<rate>
												<ntsc>TRUE</ntsc>
												<timebase>24</timebase>
											</rate>
											<in>6344</in>
											<out>6443</out>
											<start>96</start>
											<end>195</end>
											<masterclipid>Raw B Roll Hack Manhattan Matthew Duepner's House1</masterclipid>
											<logginginfo>
												<scene/>
												<shottake/>
												<lognote/>
												<good>FALSE</good>
											</logginginfo>
											<labels>
												<label2/>
											</labels>
											<comments>
												<mastercomment1/>
												<mastercomment2/>
												<mastercomment3/>
												<mastercomment4/>
											</comments>
											<file id="YIN_2013-04-28_JB-1 "/>
											<filter>
												<effect>
													<name>Audio Levels</name>
													<effectid>audiolevels</effectid>
													<effectcategory>audiolevels</effectcategory>
													<effecttype>audiolevels</effecttype>
													<mediatype>audio</mediatype>
													<parameter>
														<name>Level</name>
														<parameterid>level</parameterid>
														<valuemin>0</valuemin>
														<valuemax>3.98109</valuemax>
														<value>1</value>
													</parameter>
												</effect>
											</filter>
											<filter>
												<effect>
													<name>Audio Pan</name>
													<effectid>audiopan</effectid>
													<effectcategory>audiopan</effectcategory>
													<effecttype>audiopan</effecttype>
													<mediatype>audio</mediatype>
													<parameter>
														<name>Pan</name>
														<parameterid>pan</parameterid>
														<valuemin>-1</valuemin>
														<valuemax>1</valuemax>
														<value>0</value>
													</parameter>
												</effect>
											</filter>
											<sourcetrack>
												<mediatype>audio</mediatype>
												<trackindex>1</trackindex>
											</sourcetrack>
											<link>
												<linkclipref>Raw B Roll Hack Manhattan Matthew Duepner's House4</linkclipref>
												<mediatype>video</mediatype>
												<trackindex>3</trackindex>
												<clipindex>2</clipindex>
											</link>
											<link>
												<linkclipref>Raw B Roll Hack Manhattan Matthew Duepner's House5</linkclipref>
												<mediatype>audio</mediatype>
												<trackindex>65</trackindex>
												<clipindex>2</clipindex>
												<groupindex>1</groupindex>
											</link>
											<link>
												<linkclipref>Raw B Roll Hack Manhattan Matthew Duepner's House6</linkclipref>
												<mediatype>audio</mediatype>
												<trackindex>66</trackindex>
												<clipindex>2</clipindex>
												<groupindex>1</groupindex>
											</link>
											<itemhistory>
												<uuid>FD6329C9-FF49-48EA-8A85-85BDF32D8FC8</uuid>
											</itemhistory>
										</clipitem>
										<clipitem id="Raw B Roll Hack Manhattan Matthew Duepner's House8">
											<name>Raw B Roll Hack Manhattan Matthew Duepner's House</name>
											<duration>6617</duration>
											<rate>
												<ntsc>TRUE</ntsc>
												<timebase>24</timebase>
											</rate>
											<in>6530</in>
											<out>6600</out>
											<start>195</start>
											<end>265</end>
											<masterclipid>Raw B Roll Hack Manhattan Matthew Duepner's House1</masterclipid>
											<logginginfo>
												<scene/>
												<shottake/>
												<lognote/>
												<good>FALSE</good>
											</logginginfo>
											<labels>
												<label2/>
											</labels>
											<comments>
												<mastercomment1/>
												<mastercomment2/>
												<mastercomment3/>
												<mastercomment4/>
											</comments>
											<file id="YIN_2013-04-28_JB-1 "/>
											<filter>
												<effect>
													<name>Audio Levels</name>
													<effectid>audiolevels</effectid>
													<effectcategory>audiolevels</effectcategory>
													<effecttype>audiolevels</effecttype>
													<mediatype>audio</mediatype>
													<parameter>
														<name>Level</name>
														<parameterid>level</parameterid>
														<valuemin>0</valuemin>
														<valuemax>3.98109</valuemax>
														<value>1</value>
													</parameter>
												</effect>
											</filter>
											<filter>
												<effect>
													<name>Audio Pan</name>
													<effectid>audiopan</effectid>
													<effectcategory>audiopan</effectcategory>
													<effecttype>audiopan</effecttype>
													<mediatype>audio</mediatype>
													<parameter>
														<name>Pan</name>
														<parameterid>pan</parameterid>
														<valuemin>-1</valuemin>
														<valuemax>1</valuemax>
														<value>0</value>
													</parameter>
												</effect>
											</filter>
											<sourcetrack>
												<mediatype>audio</mediatype>
												<trackindex>1</trackindex>
											</sourcetrack>
											<link>
												<linkclipref>Raw B Roll Hack Manhattan Matthew Duepner's House7</linkclipref>
												<mediatype>video</mediatype>
												<trackindex>3</trackindex>
												<clipindex>3</clipindex>
											</link>
											<link>
												<linkclipref>Raw B Roll Hack Manhattan Matthew Duepner's House8</linkclipref>
												<mediatype>audio</mediatype>
												<trackindex>65</trackindex>
												<clipindex>3</clipindex>
												<groupindex>1</groupindex>
											</link>
											<link>
												<linkclipref>Raw B Roll Hack Manhattan Matthew Duepner's House9</linkclipref>
												<mediatype>audio</mediatype>
												<trackindex>66</trackindex>
												<clipindex>3</clipindex>
												<groupindex>1</groupindex>
											</link>
											<itemhistory>
												<uuid>F4C02A7D-7B2C-4A1C-AF77-0EB672439E25</uuid>
											</itemhistory>
										</clipitem>
										<clipitem id="Raw B Roll Hack Manhattan Matthew Duepner's House11">
											<name>Raw B Roll Hack Manhattan Matthew Duepner's House</name>
											<duration>6617</duration>
											<rate>
												<ntsc>TRUE</ntsc>
												<timebase>24</timebase>
											</rate>
											<in>6074</in>
											<out>6140</out>
											<start>265</start>
											<end>331</end>
											<masterclipid>Raw B Roll Hack Manhattan Matthew Duepner's House1</masterclipid>
											<logginginfo>
												<scene/>
												<shottake/>
												<lognote/>
												<good>FALSE</good>
											</logginginfo>
											<labels>
												<label2/>
											</labels>
											<comments>
												<mastercomment1/>
												<mastercomment2/>
												<mastercomment3/>
												<mastercomment4/>
											</comments>
											<file id="YIN_2013-04-28_JB-1 "/>
											<filter>
												<effect>
													<name>Audio Levels</name>
													<effectid>audiolevels</effectid>
													<effectcategory>audiolevels</effectcategory>
													<effecttype>audiolevels</effecttype>
													<mediatype>audio</mediatype>
													<parameter>
														<name>Level</name>
														<parameterid>level</parameterid>
														<valuemin>0</valuemin>
														<valuemax>3.98109</valuemax>
														<value>1</value>
													</parameter>
												</effect>
											</filter>
											<filter>
												<effect>
													<name>Audio Pan</name>
													<effectid>audiopan</effectid>
													<effectcategory>audiopan</effectcategory>
													<effecttype>audiopan</effecttype>
													<mediatype>audio</mediatype>
													<parameter>
														<name>Pan</name>
														<parameterid>pan</parameterid>
														<valuemin>-1</valuemin>
														<valuemax>1</valuemax>
														<value>0</value>
													</parameter>
												</effect>
											</filter>
											<sourcetrack>
												<mediatype>audio</mediatype>
												<trackindex>1</trackindex>
											</sourcetrack>
											<link>
												<linkclipref>Raw B Roll Hack Manhattan Matthew Duepner's House10</linkclipref>
												<mediatype>video</mediatype>
												<trackindex>3</trackindex>
												<clipindex>4</clipindex>
											</link>
											<link>
												<linkclipref>Raw B Roll Hack Manhattan Matthew Duepner's House11</linkclipref>
												<mediatype>audio</mediatype>
												<trackindex>65</trackindex>
												<clipindex>4</clipindex>
												<groupindex>1</groupindex>
											</link>
											<link>
												<linkclipref>Raw B Roll Hack Manhattan Matthew Duepner's House12</linkclipref>
												<mediatype>audio</mediatype>
												<trackindex>66</trackindex>
												<clipindex>4</clipindex>
												<groupindex>1</groupindex>
											</link>
											<itemhistory>
												<uuid>199C2E6E-217F-4246-8061-12BAF8253BF3</uuid>
											</itemhistory>
										</clipitem>
										<clipitem id="Raw B Roll Hack Manhattan Matthew Duepner's House14">
											<name>Raw B Roll Hack Manhattan Matthew Duepner's House</name>
											<duration>6617</duration>
											<rate>
												<ntsc>TRUE</ntsc>
												<timebase>24</timebase>
											</rate>
											<in>5559</in>
											<out>5659</out>
											<start>331</start>
											<end>431</end>
											<masterclipid>Raw B Roll Hack Manhattan Matthew Duepner's House1</masterclipid>
											<logginginfo>
												<scene/>
												<shottake/>
												<lognote/>
												<good>FALSE</good>
											</logginginfo>
											<labels>
												<label2/>
											</labels>
											<comments>
												<mastercomment1/>
												<mastercomment2/>
												<mastercomment3/>
												<mastercomment4/>
											</comments>
											<file id="YIN_2013-04-28_JB-1 "/>
											<filter>
												<effect>
													<name>Audio Levels</name>
													<effectid>audiolevels</effectid>
													<effectcategory>audiolevels</effectcategory>
													<effecttype>audiolevels</effecttype>
													<mediatype>audio</mediatype>
													<parameter>
														<name>Level</name>
														<parameterid>level</parameterid>
														<valuemin>0</valuemin>
														<valuemax>3.98109</valuemax>
														<value>1</value>
													</parameter>
												</effect>
											</filter>
											<filter>
												<effect>
													<name>Audio Pan</name>
													<effectid>audiopan</effectid>
													<effectcategory>audiopan</effectcategory>
													<effecttype>audiopan</effecttype>
													<mediatype>audio</mediatype>
													<parameter>
														<name>Pan</name>
														<parameterid>pan</parameterid>
														<valuemin>-1</valuemin>
														<valuemax>1</valuemax>
														<value>0</value>
													</parameter>
												</effect>
											</filter>
											<sourcetrack>
												<mediatype>audio</mediatype>
												<trackindex>1</trackindex>
											</sourcetrack>
											<link>
												<linkclipref>Raw B Roll Hack Manhattan Matthew Duepner's House13</linkclipref>
												<mediatype>video</mediatype>
												<trackindex>3</trackindex>
												<clipindex>5</clipindex>
											</link>
											<link>
												<linkclipref>Raw B Roll Hack Manhattan Matthew Duepner's House14</linkclipref>
												<mediatype>audio</mediatype>
												<trackindex>65</trackindex>
												<clipindex>5</clipindex>
												<groupindex>1</groupindex>
											</link>
											<link>
												<linkclipref>Raw B Roll Hack Manhattan Matthew Duepner's House15</linkclipref>
												<mediatype>audio</mediatype>
												<trackindex>66</trackindex>
												<clipindex>5</clipindex>
												<groupindex>1</groupindex>
											</link>
											<itemhistory>
												<uuid>8AFF6A31-1F73-4AB0-889C-FFC93E53CEA8</uuid>
											</itemhistory>
										</clipitem>
										<clipitem id="Raw B Roll Hack Manhattan Matthew Duepner's House17">
											<name>Raw B Roll Hack Manhattan Matthew Duepner's House</name>
											<duration>6617</duration>
											<rate>
												<ntsc>TRUE</ntsc>
												<timebase>24</timebase>
											</rate>
											<in>5878</in>
											<out>5953</out>
											<start>431</start>
											<end>506</end>
											<masterclipid>Raw B Roll Hack Manhattan Matthew Duepner's House1</masterclipid>
											<logginginfo>
												<scene/>
												<shottake/>
												<lognote/>
												<good>FALSE</good>
											</logginginfo>
											<labels>
												<label2/>
											</labels>
											<comments>
												<mastercomment1/>
												<mastercomment2/>
												<mastercomment3/>
												<mastercomment4/>
											</comments>
											<file id="YIN_2013-04-28_JB-1 "/>
											<filter>
												<effect>
													<name>Audio Levels</name>
													<effectid>audiolevels</effectid>
													<effectcategory>audiolevels</effectcategory>
													<effecttype>audiolevels</effecttype>
													<mediatype>audio</mediatype>
													<parameter>
														<name>Level</name>
														<parameterid>level</parameterid>
														<valuemin>0</valuemin>
														<valuemax>3.98109</valuemax>
														<value>1</value>
													</parameter>
												</effect>
											</filter>
											<filter>
												<effect>
													<name>Audio Pan</name>
													<effectid>audiopan</effectid>
													<effectcategory>audiopan</effectcategory>
													<effecttype>audiopan</effecttype>
													<mediatype>audio</mediatype>
													<parameter>
														<name>Pan</name>
														<parameterid>pan</parameterid>
														<valuemin>-1</valuemin>
														<valuemax>1</valuemax>
														<value>0</value>
													</parameter>
												</effect>
											</filter>
											<sourcetrack>
												<mediatype>audio</mediatype>
												<trackindex>1</trackindex>
											</sourcetrack>
											<link>
												<linkclipref>Raw B Roll Hack Manhattan Matthew Duepner's House16</linkclipref>
												<mediatype>video</mediatype>
												<trackindex>3</trackindex>
												<clipindex>6</clipindex>
											</link>
											<link>
												<linkclipref>Raw B Roll Hack Manhattan Matthew Duepner's House17</linkclipref>
												<mediatype>audio</mediatype>
												<trackindex>65</trackindex>
												<clipindex>6</clipindex>
												<groupindex>1</groupindex>
											</link>
											<link>
												<linkclipref>Raw B Roll Hack Manhattan Matthew Duepner's House18</linkclipref>
												<mediatype>audio</mediatype>
												<trackindex>66</trackindex>
												<clipindex>6</clipindex>
												<groupindex>1</groupindex>
											</link>
											<itemhistory>
												<uuid>23068D8F-F47C-4378-AC25-C091C1EEEAB7</uuid>
											</itemhistory>
										</clipitem>
										<clipitem id="Raw B Roll Hack Manhattan Matthew Duepner's House20">
											<name>Raw B Roll Hack Manhattan Matthew Duepner's House</name>
											<duration>6617</duration>
											<rate>
												<ntsc>TRUE</ntsc>
												<timebase>24</timebase>
											</rate>
											<in>4745</in>
											<out>4829</out>
											<start>506</start>
											<end>590</end>
											<masterclipid>Raw B Roll Hack Manhattan Matthew Duepner's House1</masterclipid>
											<logginginfo>
												<scene/>
												<shottake/>
												<lognote/>
												<good>FALSE</good>
											</logginginfo>
											<labels>
												<label2/>
											</labels>
											<comments>
												<mastercomment1/>
												<mastercomment2/>
												<mastercomment3/>
												<mastercomment4/>
											</comments>
											<file id="YIN_2013-04-28_JB-1 "/>
											<filter>
												<effect>
													<name>Audio Levels</name>
													<effectid>audiolevels</effectid>
													<effectcategory>audiolevels</effectcategory>
													<effecttype>audiolevels</effecttype>
													<mediatype>audio</mediatype>
													<parameter>
														<name>Level</name>
														<parameterid>level</parameterid>
														<valuemin>0</valuemin>
														<valuemax>3.98109</valuemax>
														<value>1</value>
													</parameter>
												</effect>
											</filter>
											<filter>
												<effect>
													<name>Audio Pan</name>
													<effectid>audiopan</effectid>
													<effectcategory>audiopan</effectcategory>
													<effecttype>audiopan</effecttype>
													<mediatype>audio</mediatype>
													<parameter>
														<name>Pan</name>
														<parameterid>pan</parameterid>
														<valuemin>-1</valuemin>
														<valuemax>1</valuemax>
														<value>0</value>
													</parameter>
												</effect>
											</filter>
											<sourcetrack>
												<mediatype>audio</mediatype>
												<trackindex>1</trackindex>
											</sourcetrack>
											<link>
												<linkclipref>Raw B Roll Hack Manhattan Matthew Duepner's House19</linkclipref>
												<mediatype>video</mediatype>
												<trackindex>3</trackindex>
												<clipindex>7</clipindex>
											</link>
											<link>
												<linkclipref>Raw B Roll Hack Manhattan Matthew Duepner's House20</linkclipref>
												<mediatype>audio</mediatype>
												<trackindex>65</trackindex>
												<clipindex>7</clipindex>
												<groupindex>1</groupindex>
											</link>
											<link>
												<linkclipref>Raw B Roll Hack Manhattan Matthew Duepner's House21</linkclipref>
												<mediatype>audio</mediatype>
												<trackindex>66</trackindex>
												<clipindex>7</clipindex>
												<groupindex>1</groupindex>
											</link>
											<itemhistory>
												<uuid>436920E4-A1A5-4F80-84E1-F1156BFB684E</uuid>
											</itemhistory>
										</clipitem>
										<clipitem id="Raw B Roll Hack Manhattan Matthew Duepner's House23">
											<name>Raw B Roll Hack Manhattan Matthew Duepner's House</name>
											<duration>6617</duration>
											<rate>
												<ntsc>TRUE</ntsc>
												<timebase>24</timebase>
											</rate>
											<in>3527</in>
											<out>3604</out>
											<start>590</start>
											<end>667</end>
											<masterclipid>Raw B Roll Hack Manhattan Matthew Duepner's House1</masterclipid>
											<logginginfo>
												<scene/>
												<shottake/>
												<lognote/>
												<good>FALSE</good>
											</logginginfo>
											<labels>
												<label2/>
											</labels>
											<comments>
												<mastercomment1/>
												<mastercomment2/>
												<mastercomment3/>
												<mastercomment4/>
											</comments>
											<file id="YIN_2013-04-28_JB-1 "/>
											<filter>
												<effect>
													<name>Audio Levels</name>
													<effectid>audiolevels</effectid>
													<effectcategory>audiolevels</effectcategory>
													<effecttype>audiolevels</effecttype>
													<mediatype>audio</mediatype>
													<parameter>
														<name>Level</name>
														<parameterid>level</parameterid>
														<valuemin>0</valuemin>
														<valuemax>3.98109</valuemax>
														<value>1</value>
													</parameter>
												</effect>
											</filter>
											<filter>
												<effect>
													<name>Audio Pan</name>
													<effectid>audiopan</effectid>
													<effectcategory>audiopan</effectcategory>
													<effecttype>audiopan</effecttype>
													<mediatype>audio</mediatype>
													<parameter>
														<name>Pan</name>
														<parameterid>pan</parameterid>
														<valuemin>-1</valuemin>
														<valuemax>1</valuemax>
														<value>0</value>
													</parameter>
												</effect>
											</filter>
											<sourcetrack>
												<mediatype>audio</mediatype>
												<trackindex>1</trackindex>
											</sourcetrack>
											<link>
												<linkclipref>Raw B Roll Hack Manhattan Matthew Duepner's House22</linkclipref>
												<mediatype>video</mediatype>
												<trackindex>3</trackindex>
												<clipindex>8</clipindex>
											</link>
											<link>
												<linkclipref>Raw B Roll Hack Manhattan Matthew Duepner's House23</linkclipref>
												<mediatype>audio</mediatype>
												<trackindex>65</trackindex>
												<clipindex>8</clipindex>
												<groupindex>1</groupindex>
											</link>
											<link>
												<linkclipref>Raw B Roll Hack Manhattan Matthew Duepner's House24</linkclipref>
												<mediatype>audio</mediatype>
												<trackindex>66</trackindex>
												<clipindex>8</clipindex>
												<groupindex>1</groupindex>
											</link>
											<itemhistory>
												<uuid>169B1082-4BDA-4A40-B533-6496BBA98405</uuid>
											</itemhistory>
										</clipitem>
										<clipitem id="Raw B Roll Hack Manhattan Matthew Duepner's House26">
											<name>Raw B Roll Hack Manhattan Matthew Duepner's House</name>
											<duration>6617</duration>
											<rate>
												<ntsc>TRUE</ntsc>
												<timebase>24</timebase>
											</rate>
											<in>2432</in>
											<out>2555</out>
											<start>667</start>
											<end>790</end>
											<masterclipid>Raw B Roll Hack Manhattan Matthew Duepner's House1</masterclipid>
											<logginginfo>
												<scene/>
												<shottake/>
												<lognote/>
												<good>FALSE</good>
											</logginginfo>
											<labels>
												<label2/>
											</labels>
											<comments>
												<mastercomment1/>
												<mastercomment2/>
												<mastercomment3/>
												<mastercomment4/>
											</comments>
											<file id="YIN_2013-04-28_JB-1 "/>
											<filter>
												<effect>
													<name>Audio Levels</name>
													<effectid>audiolevels</effectid>
													<effectcategory>audiolevels</effectcategory>
													<effecttype>audiolevels</effecttype>
													<mediatype>audio</mediatype>
													<parameter>
														<name>Level</name>
														<parameterid>level</parameterid>
														<valuemin>0</valuemin>
														<valuemax>3.98109</valuemax>
														<value>1</value>
													</parameter>
												</effect>
											</filter>
											<filter>
												<effect>
													<name>Audio Pan</name>
													<effectid>audiopan</effectid>
													<effectcategory>audiopan</effectcategory>
													<effecttype>audiopan</effecttype>
													<mediatype>audio</mediatype>
													<parameter>
														<name>Pan</name>
														<parameterid>pan</parameterid>
														<valuemin>-1</valuemin>
														<valuemax>1</valuemax>
														<value>0</value>
													</parameter>
												</effect>
											</filter>
											<sourcetrack>
												<mediatype>audio</mediatype>
												<trackindex>1</trackindex>
											</sourcetrack>
											<link>
												<linkclipref>Raw B Roll Hack Manhattan Matthew Duepner's House25</linkclipref>
												<mediatype>video</mediatype>
												<trackindex>3</trackindex>
												<clipindex>9</clipindex>
											</link>
											<link>
												<linkclipref>Raw B Roll Hack Manhattan Matthew Duepner's House26</linkclipref>
												<mediatype>audio</mediatype>
												<trackindex>65</trackindex>
												<clipindex>9</clipindex>
												<groupindex>1</groupindex>
											</link>
											<link>
												<linkclipref>Raw B Roll Hack Manhattan Matthew Duepner's House27</linkclipref>
												<mediatype>audio</mediatype>
												<trackindex>66</trackindex>
												<clipindex>9</clipindex>
												<groupindex>1</groupindex>
											</link>
											<itemhistory>
												<uuid>3A129B44-70F6-4507-92F1-DF81799073F6</uuid>
											</itemhistory>
										</clipitem>
										<clipitem id="Raw B Roll Hack Manhattan Matthew Duepner's House29">
											<name>Raw B Roll Hack Manhattan Matthew Duepner's House</name>
											<duration>6617</duration>
											<rate>
												<ntsc>TRUE</ntsc>
												<timebase>24</timebase>
											</rate>
											<in>2733</in>
											<out>2884</out>
											<start>790</start>
											<end>941</end>
											<masterclipid>Raw B Roll Hack Manhattan Matthew Duepner's House1</masterclipid>
											<logginginfo>
												<scene/>
												<shottake/>
												<lognote/>
												<good>FALSE</good>
											</logginginfo>
											<labels>
												<label2/>
											</labels>
											<comments>
												<mastercomment1/>
												<mastercomment2/>
												<mastercomment3/>
												<mastercomment4/>
											</comments>
											<file id="YIN_2013-04-28_JB-1 "/>
											<filter>
												<effect>
													<name>Audio Levels</name>
													<effectid>audiolevels</effectid>
													<effectcategory>audiolevels</effectcategory>
													<effecttype>audiolevels</effecttype>
													<mediatype>audio</mediatype>
													<parameter>
														<name>Level</name>
														<parameterid>level</parameterid>
														<valuemin>0</valuemin>
														<valuemax>3.98109</valuemax>
														<value>1</value>
													</parameter>
												</effect>
											</filter>
											<filter>
												<effect>
													<name>Audio Pan</name>
													<effectid>audiopan</effectid>
													<effectcategory>audiopan</effectcategory>
													<effecttype>audiopan</effecttype>
													<mediatype>audio</mediatype>
													<parameter>
														<name>Pan</name>
														<parameterid>pan</parameterid>
														<valuemin>-1</valuemin>
														<valuemax>1</valuemax>
														<value>0</value>
													</parameter>
												</effect>
											</filter>
											<sourcetrack>
												<mediatype>audio</mediatype>
												<trackindex>1</trackindex>
											</sourcetrack>
											<link>
												<linkclipref>Raw B Roll Hack Manhattan Matthew Duepner's House28</linkclipref>
												<mediatype>video</mediatype>
												<trackindex>3</trackindex>
												<clipindex>10</clipindex>
											</link>
											<link>
												<linkclipref>Raw B Roll Hack Manhattan Matthew Duepner's House29</linkclipref>
												<mediatype>audio</mediatype>
												<trackindex>65</trackindex>
												<clipindex>10</clipindex>
												<groupindex>1</groupindex>
											</link>
											<link>
												<linkclipref>Raw B Roll Hack Manhattan Matthew Duepner's House30</linkclipref>
												<mediatype>audio</mediatype>
												<trackindex>66</trackindex>
												<clipindex>10</clipindex>
												<groupindex>1</groupindex>
											</link>
											<itemhistory>
												<uuid>3BA6B145-E7D6-4BDD-907D-1947D3B08B7E</uuid>
											</itemhistory>
										</clipitem>
										<clipitem id="Raw B Roll Hack Manhattan Matthew Duepner's House32">
											<name>Raw B Roll Hack Manhattan Matthew Duepner's House</name>
											<duration>6617</duration>
											<rate>
												<ntsc>TRUE</ntsc>
												<timebase>24</timebase>
											</rate>
											<in>5318</in>
											<out>5486</out>
											<start>941</start>
											<end>1109</end>
											<masterclipid>Raw B Roll Hack Manhattan Matthew Duepner's House1</masterclipid>
											<logginginfo>
												<scene/>
												<shottake/>
												<lognote/>
												<good>FALSE</good>
											</logginginfo>
											<labels>
												<label2/>
											</labels>
											<comments>
												<mastercomment1/>
												<mastercomment2/>
												<mastercomment3/>
												<mastercomment4/>
											</comments>
											<file id="YIN_2013-04-28_JB-1 "/>
											<filter>
												<effect>
													<name>Audio Levels</name>
													<effectid>audiolevels</effectid>
													<effectcategory>audiolevels</effectcategory>
													<effecttype>audiolevels</effecttype>
													<mediatype>audio</mediatype>
													<parameter>
														<name>Level</name>
														<parameterid>level</parameterid>
														<valuemin>0</valuemin>
														<valuemax>3.98109</valuemax>
														<value>1</value>
													</parameter>
												</effect>
											</filter>
											<filter>
												<effect>
													<name>Audio Pan</name>
													<effectid>audiopan</effectid>
													<effectcategory>audiopan</effectcategory>
													<effecttype>audiopan</effecttype>
													<mediatype>audio</mediatype>
													<parameter>
														<name>Pan</name>
														<parameterid>pan</parameterid>
														<valuemin>-1</valuemin>
														<valuemax>1</valuemax>
														<value>0</value>
													</parameter>
												</effect>
											</filter>
											<sourcetrack>
												<mediatype>audio</mediatype>
												<trackindex>1</trackindex>
											</sourcetrack>
											<link>
												<linkclipref>Raw B Roll Hack Manhattan Matthew Duepner's House31</linkclipref>
												<mediatype>video</mediatype>
												<trackindex>3</trackindex>
												<clipindex>11</clipindex>
											</link>
											<link>
												<linkclipref>Raw B Roll Hack Manhattan Matthew Duepner's House32</linkclipref>
												<mediatype>audio</mediatype>
												<trackindex>65</trackindex>
												<clipindex>11</clipindex>
												<groupindex>1</groupindex>
											</link>
											<link>
												<linkclipref>Raw B Roll Hack Manhattan Matthew Duepner's House33</linkclipref>
												<mediatype>audio</mediatype>
												<trackindex>66</trackindex>
												<clipindex>11</clipindex>
												<groupindex>1</groupindex>
											</link>
											<itemhistory>
												<uuid>12E3E389-19A4-4C1A-B7B8-E641E8C1F873</uuid>
											</itemhistory>
										</clipitem>
										<clipitem id="Raw B Roll Hack Manhattan Matthew Duepner's House35">
											<name>Raw B Roll Hack Manhattan Matthew Duepner's House</name>
											<duration>6617</duration>
											<rate>
												<ntsc>TRUE</ntsc>
												<timebase>24</timebase>
											</rate>
											<in>2948</in>
											<out>3117</out>
											<start>1109</start>
											<end>1278</end>
											<masterclipid>Raw B Roll Hack Manhattan Matthew Duepner's House1</masterclipid>
											<logginginfo>
												<scene/>
												<shottake/>
												<lognote/>
												<good>FALSE</good>
											</logginginfo>
											<labels>
												<label2/>
											</labels>
											<comments>
												<mastercomment1/>
												<mastercomment2/>
												<mastercomment3/>
												<mastercomment4/>
											</comments>
											<file id="YIN_2013-04-28_JB-1 "/>
											<filter>
												<effect>
													<name>Audio Levels</name>
													<effectid>audiolevels</effectid>
													<effectcategory>audiolevels</effectcategory>
													<effecttype>audiolevels</effecttype>
													<mediatype>audio</mediatype>
													<parameter>
														<name>Level</name>
														<parameterid>level</parameterid>
														<valuemin>0</valuemin>
														<valuemax>3.98109</valuemax>
														<value>1</value>
													</parameter>
												</effect>
											</filter>
											<filter>
												<effect>
													<name>Audio Pan</name>
													<effectid>audiopan</effectid>
													<effectcategory>audiopan</effectcategory>
													<effecttype>audiopan</effecttype>
													<mediatype>audio</mediatype>
													<parameter>
														<name>Pan</name>
														<parameterid>pan</parameterid>
														<valuemin>-1</valuemin>
														<valuemax>1</valuemax>
														<value>0</value>
													</parameter>
												</effect>
											</filter>
											<sourcetrack>
												<mediatype>audio</mediatype>
												<trackindex>1</trackindex>
											</sourcetrack>
											<link>
												<linkclipref>Raw B Roll Hack Manhattan Matthew Duepner's House34</linkclipref>
												<mediatype>video</mediatype>
												<trackindex>3</trackindex>
												<clipindex>12</clipindex>
											</link>
											<link>
												<linkclipref>Raw B Roll Hack Manhattan Matthew Duepner's House35</linkclipref>
												<mediatype>audio</mediatype>
												<trackindex>65</trackindex>
												<clipindex>12</clipindex>
												<groupindex>1</groupindex>
											</link>
											<link>
												<linkclipref>Raw B Roll Hack Manhattan Matthew Duepner's House36</linkclipref>
												<mediatype>audio</mediatype>
												<trackindex>66</trackindex>
												<clipindex>12</clipindex>
												<groupindex>1</groupindex>
											</link>
											<itemhistory>
												<uuid>E90AFCE1-B808-49CE-B603-8F0D91C2592B</uuid>
											</itemhistory>
										</clipitem>
										<clipitem id="Raw B Roll Hack Manhattan Matthew Duepner's House38">
											<name>Raw B Roll Hack Manhattan Matthew Duepner's House</name>
											<duration>6617</duration>
											<rate>
												<ntsc>TRUE</ntsc>
												<timebase>24</timebase>
											</rate>
											<in>4099</in>
											<out>4179</out>
											<start>1278</start>
											<end>1358</end>
											<masterclipid>Raw B Roll Hack Manhattan Matthew Duepner's House1</masterclipid>
											<logginginfo>
												<scene/>
												<shottake/>
												<lognote/>
												<good>FALSE</good>
											</logginginfo>
											<labels>
												<label2/>
											</labels>
											<comments>
												<mastercomment1/>
												<mastercomment2/>
												<mastercomment3/>
												<mastercomment4/>
											</comments>
											<file id="YIN_2013-04-28_JB-1 "/>
											<filter>
												<effect>
													<name>Audio Levels</name>
													<effectid>audiolevels</effectid>
													<effectcategory>audiolevels</effectcategory>
													<effecttype>audiolevels</effecttype>
													<mediatype>audio</mediatype>
													<parameter>
														<name>Level</name>
														<parameterid>level</parameterid>
														<valuemin>0</valuemin>
														<valuemax>3.98109</valuemax>
														<value>1</value>
													</parameter>
												</effect>
											</filter>
											<filter>
												<effect>
													<name>Audio Pan</name>
													<effectid>audiopan</effectid>
													<effectcategory>audiopan</effectcategory>
													<effecttype>audiopan</effecttype>
													<mediatype>audio</mediatype>
													<parameter>
														<name>Pan</name>
														<parameterid>pan</parameterid>
														<valuemin>-1</valuemin>
														<valuemax>1</valuemax>
														<value>0</value>
													</parameter>
												</effect>
											</filter>
											<sourcetrack>
												<mediatype>audio</mediatype>
												<trackindex>1</trackindex>
											</sourcetrack>
											<link>
												<linkclipref>Raw B Roll Hack Manhattan Matthew Duepner's House37</linkclipref>
												<mediatype>video</mediatype>
												<trackindex>3</trackindex>
												<clipindex>13</clipindex>
											</link>
											<link>
												<linkclipref>Raw B Roll Hack Manhattan Matthew Duepner's House38</linkclipref>
												<mediatype>audio</mediatype>
												<trackindex>65</trackindex>
												<clipindex>13</clipindex>
												<groupindex>1</groupindex>
											</link>
											<link>
												<linkclipref>Raw B Roll Hack Manhattan Matthew Duepner's House39</linkclipref>
												<mediatype>audio</mediatype>
												<trackindex>66</trackindex>
												<clipindex>13</clipindex>
												<groupindex>1</groupindex>
											</link>
											<itemhistory>
												<uuid>2C339D72-F7C8-40B9-B74C-2E52BDADE72B</uuid>
											</itemhistory>
										</clipitem>
										<clipitem id="Raw B Roll Hack Manhattan Matthew Duepner's House41">
											<name>Raw B Roll Hack Manhattan Matthew Duepner's House</name>
											<duration>6617</duration>
											<rate>
												<ntsc>TRUE</ntsc>
												<timebase>24</timebase>
											</rate>
											<in>4305</in>
											<out>4396</out>
											<start>1358</start>
											<end>1449</end>
											<masterclipid>Raw B Roll Hack Manhattan Matthew Duepner's House1</masterclipid>
											<logginginfo>
												<scene/>
												<shottake/>
												<lognote/>
												<good>FALSE</good>
											</logginginfo>
											<labels>
												<label2/>
											</labels>
											<comments>
												<mastercomment1/>
												<mastercomment2/>
												<mastercomment3/>
												<mastercomment4/>
											</comments>
											<file id="YIN_2013-04-28_JB-1 "/>
											<filter>
												<effect>
													<name>Audio Levels</name>
													<effectid>audiolevels</effectid>
													<effectcategory>audiolevels</effectcategory>
													<effecttype>audiolevels</effecttype>
													<mediatype>audio</mediatype>
													<parameter>
														<name>Level</name>
														<parameterid>level</parameterid>
														<valuemin>0</valuemin>
														<valuemax>3.98109</valuemax>
														<value>1</value>
													</parameter>
												</effect>
											</filter>
											<filter>
												<effect>
													<name>Audio Pan</name>
													<effectid>audiopan</effectid>
													<effectcategory>audiopan</effectcategory>
													<effecttype>audiopan</effecttype>
													<mediatype>audio</mediatype>
													<parameter>
														<name>Pan</name>
														<parameterid>pan</parameterid>
														<valuemin>-1</valuemin>
														<valuemax>1</valuemax>
														<value>0</value>
													</parameter>
												</effect>
											</filter>
											<sourcetrack>
												<mediatype>audio</mediatype>
												<trackindex>1</trackindex>
											</sourcetrack>
											<link>
												<linkclipref>Raw B Roll Hack Manhattan Matthew Duepner's House40</linkclipref>
												<mediatype>video</mediatype>
												<trackindex>3</trackindex>
												<clipindex>14</clipindex>
											</link>
											<link>
												<linkclipref>Raw B Roll Hack Manhattan Matthew Duepner's House41</linkclipref>
												<mediatype>audio</mediatype>
												<trackindex>65</trackindex>
												<clipindex>14</clipindex>
												<groupindex>1</groupindex>
											</link>
											<link>
												<linkclipref>Raw B Roll Hack Manhattan Matthew Duepner's House42</linkclipref>
												<mediatype>audio</mediatype>
												<trackindex>66</trackindex>
												<clipindex>14</clipindex>
												<groupindex>1</groupindex>
											</link>
											<itemhistory>
												<uuid>CC3715D1-DA58-405C-B593-913C85909173</uuid>
											</itemhistory>
										</clipitem>
										<clipitem id="Raw B Roll Hack Manhattan Matthew Duepner's House44">
											<name>Raw B Roll Hack Manhattan Matthew Duepner's House</name>
											<duration>6617</duration>
											<rate>
												<ntsc>TRUE</ntsc>
												<timebase>24</timebase>
											</rate>
											<in>4585</in>
											<out>4685</out>
											<start>1449</start>
											<end>1549</end>
											<masterclipid>Raw B Roll Hack Manhattan Matthew Duepner's House1</masterclipid>
											<logginginfo>
												<scene/>
												<shottake/>
												<lognote/>
												<good>FALSE</good>
											</logginginfo>
											<labels>
												<label2/>
											</labels>
											<comments>
												<mastercomment1/>
												<mastercomment2/>
												<mastercomment3/>
												<mastercomment4/>
											</comments>
											<file id="YIN_2013-04-28_JB-1 "/>
											<filter>
												<effect>
													<name>Audio Levels</name>
													<effectid>audiolevels</effectid>
													<effectcategory>audiolevels</effectcategory>
													<effecttype>audiolevels</effecttype>
													<mediatype>audio</mediatype>
													<parameter>
														<name>Level</name>
														<parameterid>level</parameterid>
														<valuemin>0</valuemin>
														<valuemax>3.98109</valuemax>
														<value>1</value>
													</parameter>
												</effect>
											</filter>
											<filter>
												<effect>
													<name>Audio Pan</name>
													<effectid>audiopan</effectid>
													<effectcategory>audiopan</effectcategory>
													<effecttype>audiopan</effecttype>
													<mediatype>audio</mediatype>
													<parameter>
														<name>Pan</name>
														<parameterid>pan</parameterid>
														<valuemin>-1</valuemin>
														<valuemax>1</valuemax>
														<value>0</value>
													</parameter>
												</effect>
											</filter>
											<sourcetrack>
												<mediatype>audio</mediatype>
												<trackindex>1</trackindex>
											</sourcetrack>
											<link>
												<linkclipref>Raw B Roll Hack Manhattan Matthew Duepner's House43</linkclipref>
												<mediatype>video</mediatype>
												<trackindex>3</trackindex>
												<clipindex>15</clipindex>
											</link>
											<link>
												<linkclipref>Raw B Roll Hack Manhattan Matthew Duepner's House44</linkclipref>
												<mediatype>audio</mediatype>
												<trackindex>65</trackindex>
												<clipindex>15</clipindex>
												<groupindex>1</groupindex>
											</link>
											<link>
												<linkclipref>Raw B Roll Hack Manhattan Matthew Duepner's House45</linkclipref>
												<mediatype>audio</mediatype>
												<trackindex>66</trackindex>
												<clipindex>15</clipindex>
												<groupindex>1</groupindex>
											</link>
											<itemhistory>
												<uuid>F9CE18A8-7A45-43B8-80AB-D5AA07F70E84</uuid>
											</itemhistory>
										</clipitem>
										<clipitem id="Raw Scene Matthew Duepner Printing2">
											<name>Raw Scene Matthew Duepner Printing</name>
											<duration>28553</duration>
											<rate>
												<ntsc>TRUE</ntsc>
												<timebase>24</timebase>
											</rate>
											<in>25118</in>
											<out>25193</out>
											<start>1549</start>
											<end>1624</end>
											<masterclipid>Raw Scene Matthew Duepner Printing48</masterclipid>
											<logginginfo>
												<scene/>
												<shottake/>
												<lognote/>
												<good>FALSE</good>
											</logginginfo>
											<labels>
												<label2/>
											</labels>
											<comments>
												<mastercomment1/>
												<mastercomment2/>
												<mastercomment3/>
												<mastercomment4/>
											</comments>
											<file id="YIN_2013-05-28_LG-6 "/>
											<filter>
												<effect>
													<name>Audio Levels</name>
													<effectid>audiolevels</effectid>
													<effectcategory>audiolevels</effectcategory>
													<effecttype>audiolevels</effecttype>
													<mediatype>audio</mediatype>
													<parameter>
														<name>Level</name>
														<parameterid>level</parameterid>
														<valuemin>0</valuemin>
														<valuemax>3.98109</valuemax>
														<value>1</value>
													</parameter>
												</effect>
											</filter>
											<filter>
												<effect>
													<name>Audio Pan</name>
													<effectid>audiopan</effectid>
													<effectcategory>audiopan</effectcategory>
													<effecttype>audiopan</effecttype>
													<mediatype>audio</mediatype>
													<parameter>
														<name>Pan</name>
														<parameterid>pan</parameterid>
														<valuemin>-1</valuemin>
														<valuemax>1</valuemax>
														<value>0</value>
													</parameter>
												</effect>
											</filter>
											<sourcetrack>
												<mediatype>audio</mediatype>
												<trackindex>1</trackindex>
											</sourcetrack>
											<link>
												<linkclipref>Raw Scene Matthew Duepner Printing</linkclipref>
												<mediatype>video</mediatype>
												<trackindex>3</trackindex>
												<clipindex>16</clipindex>
											</link>
											<link>
												<linkclipref>Raw Scene Matthew Duepner Printing2</linkclipref>
												<mediatype>audio</mediatype>
												<trackindex>65</trackindex>
												<clipindex>16</clipindex>
												<groupindex>1</groupindex>
											</link>
											<link>
												<linkclipref>Raw Scene Matthew Duepner Printing3</linkclipref>
												<mediatype>audio</mediatype>
												<trackindex>66</trackindex>
												<clipindex>16</clipindex>
												<groupindex>1</groupindex>
											</link>
											<itemhistory>
												<uuid>542B6C8E-673E-451A-9C30-E0F57E438AA1</uuid>
											</itemhistory>
										</clipitem>
										<clipitem id="Raw B Roll Hack Manhattan Matthew Duepner's House47">
											<name>Raw B Roll Hack Manhattan Matthew Duepner's House</name>
											<duration>6617</duration>
											<rate>
												<ntsc>TRUE</ntsc>
												<timebase>24</timebase>
											</rate>
											<in>3931</in>
											<out>4052</out>
											<start>1624</start>
											<end>1745</end>
											<masterclipid>Raw B Roll Hack Manhattan Matthew Duepner's House1</masterclipid>
											<logginginfo>
												<scene/>
												<shottake/>
												<lognote/>
												<good>FALSE</good>
											</logginginfo>
											<labels>
												<label2/>
											</labels>
											<comments>
												<mastercomment1/>
												<mastercomment2/>
												<mastercomment3/>
												<mastercomment4/>
											</comments>
											<file id="YIN_2013-04-28_JB-1 "/>
											<filter>
												<effect>
													<name>Audio Levels</name>
													<effectid>audiolevels</effectid>
													<effectcategory>audiolevels</effectcategory>
													<effecttype>audiolevels</effecttype>
													<mediatype>audio</mediatype>
													<parameter>
														<name>Level</name>
														<parameterid>level</parameterid>
														<valuemin>0</valuemin>
														<valuemax>3.98109</valuemax>
														<value>1</value>
													</parameter>
												</effect>
											</filter>
											<filter>
												<effect>
													<name>Audio Pan</name>
													<effectid>audiopan</effectid>
													<effectcategory>audiopan</effectcategory>
													<effecttype>audiopan</effecttype>
													<mediatype>audio</mediatype>
													<parameter>
														<name>Pan</name>
														<parameterid>pan</parameterid>
														<valuemin>-1</valuemin>
														<valuemax>1</valuemax>
														<value>0</value>
													</parameter>
												</effect>
											</filter>
											<sourcetrack>
												<mediatype>audio</mediatype>
												<trackindex>1</trackindex>
											</sourcetrack>
											<link>
												<linkclipref>Raw B Roll Hack Manhattan Matthew Duepner's House46</linkclipref>
												<mediatype>video</mediatype>
												<trackindex>3</trackindex>
												<clipindex>17</clipindex>
											</link>
											<link>
												<linkclipref>Raw B Roll Hack Manhattan Matthew Duepner's House47</linkclipref>
												<mediatype>audio</mediatype>
												<trackindex>65</trackindex>
												<clipindex>17</clipindex>
												<groupindex>1</groupindex>
											</link>
											<link>
												<linkclipref>Raw B Roll Hack Manhattan Matthew Duepner's House48</linkclipref>
												<mediatype>audio</mediatype>
												<trackindex>66</trackindex>
												<clipindex>17</clipindex>
												<groupindex>1</groupindex>
											</link>
											<itemhistory>
												<uuid>7DB673AB-FE66-4043-BEC3-6CBE4A100EF0</uuid>
											</itemhistory>
										</clipitem>
										<clipitem id="Raw B Roll Hack Manhattan Matthew Duepner's House50">
											<name>Raw B Roll Hack Manhattan Matthew Duepner's House</name>
											<duration>6617</duration>
											<rate>
												<ntsc>TRUE</ntsc>
												<timebase>24</timebase>
											</rate>
											<in>5073</in>
											<out>5227</out>
											<start>1745</start>
											<end>1899</end>
											<masterclipid>Raw B Roll Hack Manhattan Matthew Duepner's House1</masterclipid>
											<logginginfo>
												<scene/>
												<shottake/>
												<lognote/>
												<good>FALSE</good>
											</logginginfo>
											<labels>
												<label2/>
											</labels>
											<comments>
												<mastercomment1/>
												<mastercomment2/>
												<mastercomment3/>
												<mastercomment4/>
											</comments>
											<file id="YIN_2013-04-28_JB-1 "/>
											<filter>
												<effect>
													<name>Audio Levels</name>
													<effectid>audiolevels</effectid>
													<effectcategory>audiolevels</effectcategory>
													<effecttype>audiolevels</effecttype>
													<mediatype>audio</mediatype>
													<parameter>
														<name>Level</name>
														<parameterid>level</parameterid>
														<valuemin>0</valuemin>
														<valuemax>3.98109</valuemax>
														<value>1</value>
													</parameter>
												</effect>
											</filter>
											<filter>
												<effect>
													<name>Audio Pan</name>
													<effectid>audiopan</effectid>
													<effectcategory>audiopan</effectcategory>
													<effecttype>audiopan</effecttype>
													<mediatype>audio</mediatype>
													<parameter>
														<name>Pan</name>
														<parameterid>pan</parameterid>
														<valuemin>-1</valuemin>
														<valuemax>1</valuemax>
														<value>0</value>
													</parameter>
												</effect>
											</filter>
											<sourcetrack>
												<mediatype>audio</mediatype>
												<trackindex>1</trackindex>
											</sourcetrack>
											<link>
												<linkclipref>Raw B Roll Hack Manhattan Matthew Duepner's House49</linkclipref>
												<mediatype>video</mediatype>
												<trackindex>3</trackindex>
												<clipindex>18</clipindex>
											</link>
											<link>
												<linkclipref>Raw B Roll Hack Manhattan Matthew Duepner's House50</linkclipref>
												<mediatype>audio</mediatype>
												<trackindex>65</trackindex>
												<clipindex>18</clipindex>
												<groupindex>1</groupindex>
											</link>
											<link>
												<linkclipref>Raw B Roll Hack Manhattan Matthew Duepner's House51</linkclipref>
												<mediatype>audio</mediatype>
												<trackindex>66</trackindex>
												<clipindex>18</clipindex>
												<groupindex>1</groupindex>
											</link>
											<itemhistory>
												<uuid>067D1BE3-5275-43A6-8AA9-622227B96872</uuid>
											</itemhistory>
										</clipitem>
										<clipitem id="Raw Scene Matthew Duepner Printing6">
											<name>Raw Scene Matthew Duepner Printing</name>
											<duration>28553</duration>
											<rate>
												<ntsc>TRUE</ntsc>
												<timebase>24</timebase>
											</rate>
											<in>13248</in>
											<out>13390</out>
											<start>1899</start>
											<end>2041</end>
											<masterclipid>Raw Scene Matthew Duepner Printing49</masterclipid>
											<logginginfo>
												<scene/>
												<shottake/>
												<lognote/>
												<good>FALSE</good>
											</logginginfo>
											<labels>
												<label2/>
											</labels>
											<comments>
												<mastercomment1/>
												<mastercomment2/>
												<mastercomment3/>
												<mastercomment4/>
											</comments>
											<file id="YIN_2013-05-28_LG-6 "/>
											<filter>
												<effect>
													<name>Audio Levels</name>
													<effectid>audiolevels</effectid>
													<effectcategory>audiolevels</effectcategory>
													<effecttype>audiolevels</effecttype>
													<mediatype>audio</mediatype>
													<parameter>
														<name>Level</name>
														<parameterid>level</parameterid>
														<valuemin>0</valuemin>
														<valuemax>3.98109</valuemax>
														<value>1</value>
													</parameter>
												</effect>
											</filter>
											<filter>
												<effect>
													<name>Audio Pan</name>
													<effectid>audiopan</effectid>
													<effectcategory>audiopan</effectcategory>
													<effecttype>audiopan</effecttype>
													<mediatype>audio</mediatype>
													<parameter>
														<name>Pan</name>
														<parameterid>pan</parameterid>
														<valuemin>-1</valuemin>
														<valuemax>1</valuemax>
														<value>0</value>
													</parameter>
												</effect>
											</filter>
											<sourcetrack>
												<mediatype>audio</mediatype>
												<trackindex>1</trackindex>
											</sourcetrack>
											<link>
												<linkclipref>Raw Scene Matthew Duepner Printing4</linkclipref>
												<mediatype>video</mediatype>
												<trackindex>3</trackindex>
												<clipindex>19</clipindex>
											</link>
											<link>
												<linkclipref>Raw Scene Matthew Duepner Printing6</linkclipref>
												<mediatype>audio</mediatype>
												<trackindex>65</trackindex>
												<clipindex>19</clipindex>
												<groupindex>1</groupindex>
											</link>
											<link>
												<linkclipref>Raw Scene Matthew Duepner Printing7</linkclipref>
												<mediatype>audio</mediatype>
												<trackindex>66</trackindex>
												<clipindex>19</clipindex>
												<groupindex>1</groupindex>
											</link>
											<itemhistory>
												<uuid>A27D04D2-7F8B-4D1B-B80A-BD1EFC0E2923</uuid>
											</itemhistory>
										</clipitem>
										<clipitem id="Raw Scene Matthew Duepner Printing10">
											<name>Raw Scene Matthew Duepner Printing</name>
											<duration>28553</duration>
											<rate>
												<ntsc>TRUE</ntsc>
												<timebase>24</timebase>
											</rate>
											<in>13645</in>
											<out>13872</out>
											<start>2041</start>
											<end>2268</end>
											<masterclipid>Raw Scene Matthew Duepner Printing50</masterclipid>
											<logginginfo>
												<scene/>
												<shottake/>
												<lognote/>
												<good>FALSE</good>
											</logginginfo>
											<labels>
												<label2/>
											</labels>
											<comments>
												<mastercomment1/>
												<mastercomment2/>
												<mastercomment3/>
												<mastercomment4/>
											</comments>
											<file id="YIN_2013-05-28_LG-6 "/>
											<filter>
												<effect>
													<name>Audio Levels</name>
													<effectid>audiolevels</effectid>
													<effectcategory>audiolevels</effectcategory>
													<effecttype>audiolevels</effecttype>
													<mediatype>audio</mediatype>
													<parameter>
														<name>Level</name>
														<parameterid>level</parameterid>
														<valuemin>0</valuemin>
														<valuemax>3.98109</valuemax>
														<value>1</value>
													</parameter>
												</effect>
											</filter>
											<filter>
												<effect>
													<name>Audio Pan</name>
													<effectid>audiopan</effectid>
													<effectcategory>audiopan</effectcategory>
													<effecttype>audiopan</effecttype>
													<mediatype>audio</mediatype>
													<parameter>
														<name>Pan</name>
														<parameterid>pan</parameterid>
														<valuemin>-1</valuemin>
														<valuemax>1</valuemax>
														<value>0</value>
													</parameter>
												</effect>
											</filter>
											<sourcetrack>
												<mediatype>audio</mediatype>
												<trackindex>1</trackindex>
											</sourcetrack>
											<link>
												<linkclipref>Raw Scene Matthew Duepner Printing8</linkclipref>
												<mediatype>video</mediatype>
												<trackindex>3</trackindex>
												<clipindex>20</clipindex>
											</link>
											<link>
												<linkclipref>Raw Scene Matthew Duepner Printing10</linkclipref>
												<mediatype>audio</mediatype>
												<trackindex>65</trackindex>
												<clipindex>20</clipindex>
												<groupindex>1</groupindex>
											</link>
											<link>
												<linkclipref>Raw Scene Matthew Duepner Printing11</linkclipref>
												<mediatype>audio</mediatype>
												<trackindex>66</trackindex>
												<clipindex>20</clipindex>
												<groupindex>1</groupindex>
											</link>
											<itemhistory>
												<uuid>E037B79E-E00F-4927-B56C-2FF55C2E4B79</uuid>
											</itemhistory>
										</clipitem>
										<clipitem id="Raw Scene Matthew Duepner Printing14">
											<name>Raw Scene Matthew Duepner Printing</name>
											<duration>28553</duration>
											<rate>
												<ntsc>TRUE</ntsc>
												<timebase>24</timebase>
											</rate>
											<in>14375</in>
											<out>14590</out>
											<start>2268</start>
											<end>2483</end>
											<masterclipid>Raw Scene Matthew Duepner Printing51</masterclipid>
											<logginginfo>
												<scene/>
												<shottake/>
												<lognote/>
												<good>FALSE</good>
											</logginginfo>
											<labels>
												<label2/>
											</labels>
											<comments>
												<mastercomment1/>
												<mastercomment2/>
												<mastercomment3/>
												<mastercomment4/>
											</comments>
											<file id="YIN_2013-05-28_LG-6 "/>
											<filter>
												<effect>
													<name>Audio Levels</name>
													<effectid>audiolevels</effectid>
													<effectcategory>audiolevels</effectcategory>
													<effecttype>audiolevels</effecttype>
													<mediatype>audio</mediatype>
													<parameter>
														<name>Level</name>
														<parameterid>level</parameterid>
														<valuemin>0</valuemin>
														<valuemax>3.98109</valuemax>
														<value>1</value>
													</parameter>
												</effect>
											</filter>
											<filter>
												<effect>
													<name>Audio Pan</name>
													<effectid>audiopan</effectid>
													<effectcategory>audiopan</effectcategory>
													<effecttype>audiopan</effecttype>
													<mediatype>audio</mediatype>
													<parameter>
														<name>Pan</name>
														<parameterid>pan</parameterid>
														<valuemin>-1</valuemin>
														<valuemax>1</valuemax>
														<value>0</value>
													</parameter>
												</effect>
											</filter>
											<sourcetrack>
												<mediatype>audio</mediatype>
												<trackindex>1</trackindex>
											</sourcetrack>
											<link>
												<linkclipref>Raw Scene Matthew Duepner Printing12</linkclipref>
												<mediatype>video</mediatype>
												<trackindex>3</trackindex>
												<clipindex>21</clipindex>
											</link>
											<link>
												<linkclipref>Raw Scene Matthew Duepner Printing14</linkclipref>
												<mediatype>audio</mediatype>
												<trackindex>65</trackindex>
												<clipindex>21</clipindex>
												<groupindex>1</groupindex>
											</link>
											<link>
												<linkclipref>Raw Scene Matthew Duepner Printing15</linkclipref>
												<mediatype>audio</mediatype>
												<trackindex>66</trackindex>
												<clipindex>21</clipindex>
												<groupindex>1</groupindex>
											</link>
											<itemhistory>
												<uuid>2CE13D2E-FD5D-4056-9C61-389DB2B3B625</uuid>
											</itemhistory>
										</clipitem>
										<clipitem id="Raw Scene Matthew Duepner Printing18">
											<name>Raw Scene Matthew Duepner Printing</name>
											<duration>28553</duration>
											<rate>
												<ntsc>TRUE</ntsc>
												<timebase>24</timebase>
											</rate>
											<in>17176</in>
											<out>17239</out>
											<start>2483</start>
											<end>2546</end>
											<masterclipid>Raw Scene Matthew Duepner Printing52</masterclipid>
											<logginginfo>
												<scene/>
												<shottake/>
												<lognote/>
												<good>FALSE</good>
											</logginginfo>
											<labels>
												<label2/>
											</labels>
											<comments>
												<mastercomment1/>
												<mastercomment2/>
												<mastercomment3/>
												<mastercomment4/>
											</comments>
											<file id="YIN_2013-05-28_LG-6 "/>
											<filter>
												<effect>
													<name>Audio Levels</name>
													<effectid>audiolevels</effectid>
													<effectcategory>audiolevels</effectcategory>
													<effecttype>audiolevels</effecttype>
													<mediatype>audio</mediatype>
													<parameter>
														<name>Level</name>
														<parameterid>level</parameterid>
														<valuemin>0</valuemin>
														<valuemax>3.98109</valuemax>
														<value>1</value>
													</parameter>
												</effect>
											</filter>
											<filter>
												<effect>
													<name>Audio Pan</name>
													<effectid>audiopan</effectid>
													<effectcategory>audiopan</effectcategory>
													<effecttype>audiopan</effecttype>
													<mediatype>audio</mediatype>
													<parameter>
														<name>Pan</name>
														<parameterid>pan</parameterid>
														<valuemin>-1</valuemin>
														<valuemax>1</valuemax>
														<value>0</value>
													</parameter>
												</effect>
											</filter>
											<sourcetrack>
												<mediatype>audio</mediatype>
												<trackindex>1</trackindex>
											</sourcetrack>
											<link>
												<linkclipref>Raw Scene Matthew Duepner Printing16</linkclipref>
												<mediatype>video</mediatype>
												<trackindex>3</trackindex>
												<clipindex>22</clipindex>
											</link>
											<link>
												<linkclipref>Raw Scene Matthew Duepner Printing18</linkclipref>
												<mediatype>audio</mediatype>
												<trackindex>65</trackindex>
												<clipindex>22</clipindex>
												<groupindex>1</groupindex>
											</link>
											<link>
												<linkclipref>Raw Scene Matthew Duepner Printing19</linkclipref>
												<mediatype>audio</mediatype>
												<trackindex>66</trackindex>
												<clipindex>22</clipindex>
												<groupindex>1</groupindex>
											</link>
											<itemhistory>
												<uuid>7D34CBC7-37E1-4596-A7C2-10FB27220891</uuid>
											</itemhistory>
										</clipitem>
										<clipitem id="Raw Scene Matthew Duepner Printing22">
											<name>Raw Scene Matthew Duepner Printing</name>
											<duration>28553</duration>
											<rate>
												<ntsc>TRUE</ntsc>
												<timebase>24</timebase>
											</rate>
											<in>22417</in>
											<out>22543</out>
											<start>2546</start>
											<end>2672</end>
											<masterclipid>Raw Scene Matthew Duepner Printing53</masterclipid>
											<logginginfo>
												<scene/>
												<shottake/>
												<lognote/>
												<good>FALSE</good>
											</logginginfo>
											<labels>
												<label2/>
											</labels>
											<comments>
												<mastercomment1/>
												<mastercomment2/>
												<mastercomment3/>
												<mastercomment4/>
											</comments>
											<file id="YIN_2013-05-28_LG-6 "/>
											<filter>
												<effect>
													<name>Audio Levels</name>
													<effectid>audiolevels</effectid>
													<effectcategory>audiolevels</effectcategory>
													<effecttype>audiolevels</effecttype>
													<mediatype>audio</mediatype>
													<parameter>
														<name>Level</name>
														<parameterid>level</parameterid>
														<valuemin>0</valuemin>
														<valuemax>3.98109</valuemax>
														<value>1</value>
													</parameter>
												</effect>
											</filter>
											<filter>
												<effect>
													<name>Audio Pan</name>
													<effectid>audiopan</effectid>
													<effectcategory>audiopan</effectcategory>
													<effecttype>audiopan</effecttype>
													<mediatype>audio</mediatype>
													<parameter>
														<name>Pan</name>
														<parameterid>pan</parameterid>
														<valuemin>-1</valuemin>
														<valuemax>1</valuemax>
														<value>0</value>
													</parameter>
												</effect>
											</filter>
											<sourcetrack>
												<mediatype>audio</mediatype>
												<trackindex>1</trackindex>
											</sourcetrack>
											<link>
												<linkclipref>Raw Scene Matthew Duepner Printing20</linkclipref>
												<mediatype>video</mediatype>
												<trackindex>3</trackindex>
												<clipindex>23</clipindex>
											</link>
											<link>
												<linkclipref>Raw Scene Matthew Duepner Printing22</linkclipref>
												<mediatype>audio</mediatype>
												<trackindex>65</trackindex>
												<clipindex>23</clipindex>
												<groupindex>1</groupindex>
											</link>
											<link>
												<linkclipref>Raw Scene Matthew Duepner Printing23</linkclipref>
												<mediatype>audio</mediatype>
												<trackindex>66</trackindex>
												<clipindex>23</clipindex>
												<groupindex>1</groupindex>
											</link>
											<itemhistory>
												<uuid>19247FDF-ADCD-47BD-B86A-D096B77413FB</uuid>
											</itemhistory>
										</clipitem>
										<clipitem id="Raw Scene Matthew Duepner Printing26">
											<name>Raw Scene Matthew Duepner Printing</name>
											<duration>28553</duration>
											<rate>
												<ntsc>TRUE</ntsc>
												<timebase>24</timebase>
											</rate>
											<in>22831</in>
											<out>22878</out>
											<start>2672</start>
											<end>2719</end>
											<masterclipid>Raw Scene Matthew Duepner Printing54</masterclipid>
											<logginginfo>
												<scene/>
												<shottake/>
												<lognote/>
												<good>FALSE</good>
											</logginginfo>
											<labels>
												<label2/>
											</labels>
											<comments>
												<mastercomment1/>
												<mastercomment2/>
												<mastercomment3/>
												<mastercomment4/>
											</comments>
											<file id="YIN_2013-05-28_LG-6 "/>
											<filter>
												<effect>
													<name>Audio Levels</name>
													<effectid>audiolevels</effectid>
													<effectcategory>audiolevels</effectcategory>
													<effecttype>audiolevels</effecttype>
													<mediatype>audio</mediatype>
													<parameter>
														<name>Level</name>
														<parameterid>level</parameterid>
														<valuemin>0</valuemin>
														<valuemax>3.98109</valuemax>
														<value>1</value>
													</parameter>
												</effect>
											</filter>
											<filter>
												<effect>
													<name>Audio Pan</name>
													<effectid>audiopan</effectid>
													<effectcategory>audiopan</effectcategory>
													<effecttype>audiopan</effecttype>
													<mediatype>audio</mediatype>
													<parameter>
														<name>Pan</name>
														<parameterid>pan</parameterid>
														<valuemin>-1</valuemin>
														<valuemax>1</valuemax>
														<value>0</value>
													</parameter>
												</effect>
											</filter>
											<sourcetrack>
												<mediatype>audio</mediatype>
												<trackindex>1</trackindex>
											</sourcetrack>
											<link>
												<linkclipref>Raw Scene Matthew Duepner Printing24</linkclipref>
												<mediatype>video</mediatype>
												<trackindex>3</trackindex>
												<clipindex>24</clipindex>
											</link>
											<link>
												<linkclipref>Raw Scene Matthew Duepner Printing26</linkclipref>
												<mediatype>audio</mediatype>
												<trackindex>65</trackindex>
												<clipindex>24</clipindex>
												<groupindex>1</groupindex>
											</link>
											<link>
												<linkclipref>Raw Scene Matthew Duepner Printing27</linkclipref>
												<mediatype>audio</mediatype>
												<trackindex>66</trackindex>
												<clipindex>24</clipindex>
												<groupindex>1</groupindex>
											</link>
											<itemhistory>
												<uuid>0FA6C146-2AB3-43AC-930C-983F2D218D2D</uuid>
											</itemhistory>
										</clipitem>
										<clipitem id="Raw Scene Matthew Duepner Printing30">
											<name>Raw Scene Matthew Duepner Printing</name>
											<duration>28553</duration>
											<rate>
												<ntsc>TRUE</ntsc>
												<timebase>24</timebase>
											</rate>
											<in>23483</in>
											<out>23542</out>
											<start>2719</start>
											<end>2778</end>
											<masterclipid>Raw Scene Matthew Duepner Printing55</masterclipid>
											<logginginfo>
												<scene/>
												<shottake/>
												<lognote/>
												<good>FALSE</good>
											</logginginfo>
											<labels>
												<label2/>
											</labels>
											<comments>
												<mastercomment1/>
												<mastercomment2/>
												<mastercomment3/>
												<mastercomment4/>
											</comments>
											<file id="YIN_2013-05-28_LG-6 "/>
											<filter>
												<effect>
													<name>Audio Levels</name>
													<effectid>audiolevels</effectid>
													<effectcategory>audiolevels</effectcategory>
													<effecttype>audiolevels</effecttype>
													<mediatype>audio</mediatype>
													<parameter>
														<name>Level</name>
														<parameterid>level</parameterid>
														<valuemin>0</valuemin>
														<valuemax>3.98109</valuemax>
														<value>1</value>
													</parameter>
												</effect>
											</filter>
											<filter>
												<effect>
													<name>Audio Pan</name>
													<effectid>audiopan</effectid>
													<effectcategory>audiopan</effectcategory>
													<effecttype>audiopan</effecttype>
													<mediatype>audio</mediatype>
													<parameter>
														<name>Pan</name>
														<parameterid>pan</parameterid>
														<valuemin>-1</valuemin>
														<valuemax>1</valuemax>
														<value>0</value>
													</parameter>
												</effect>
											</filter>
											<sourcetrack>
												<mediatype>audio</mediatype>
												<trackindex>1</trackindex>
											</sourcetrack>
											<link>
												<linkclipref>Raw Scene Matthew Duepner Printing28</linkclipref>
												<mediatype>video</mediatype>
												<trackindex>3</trackindex>
												<clipindex>25</clipindex>
											</link>
											<link>
												<linkclipref>Raw Scene Matthew Duepner Printing30</linkclipref>
												<mediatype>audio</mediatype>
												<trackindex>65</trackindex>
												<clipindex>25</clipindex>
												<groupindex>1</groupindex>
											</link>
											<link>
												<linkclipref>Raw Scene Matthew Duepner Printing31</linkclipref>
												<mediatype>audio</mediatype>
												<trackindex>66</trackindex>
												<clipindex>25</clipindex>
												<groupindex>1</groupindex>
											</link>
											<itemhistory>
												<uuid>DB8707FB-ACBA-48FD-A9BA-DB81C1161F88</uuid>
											</itemhistory>
										</clipitem>
										<clipitem id="Raw Scene Matthew Duepner Printing34">
											<name>Raw Scene Matthew Duepner Printing</name>
											<duration>28553</duration>
											<rate>
												<ntsc>TRUE</ntsc>
												<timebase>24</timebase>
											</rate>
											<in>23633</in>
											<out>23762</out>
											<start>2778</start>
											<end>2907</end>
											<masterclipid>Raw Scene Matthew Duepner Printing56</masterclipid>
											<logginginfo>
												<scene/>
												<shottake/>
												<lognote/>
												<good>FALSE</good>
											</logginginfo>
											<labels>
												<label2/>
											</labels>
											<comments>
												<mastercomment1/>
												<mastercomment2/>
												<mastercomment3/>
												<mastercomment4/>
											</comments>
											<file id="YIN_2013-05-28_LG-6 "/>
											<filter>
												<effect>
													<name>Audio Levels</name>
													<effectid>audiolevels</effectid>
													<effectcategory>audiolevels</effectcategory>
													<effecttype>audiolevels</effecttype>
													<mediatype>audio</mediatype>
													<parameter>
														<name>Level</name>
														<parameterid>level</parameterid>
														<valuemin>0</valuemin>
														<valuemax>3.98109</valuemax>
														<value>1</value>
													</parameter>
												</effect>
											</filter>
											<filter>
												<effect>
													<name>Audio Pan</name>
													<effectid>audiopan</effectid>
													<effectcategory>audiopan</effectcategory>
													<effecttype>audiopan</effecttype>
													<mediatype>audio</mediatype>
													<parameter>
														<name>Pan</name>
														<parameterid>pan</parameterid>
														<valuemin>-1</valuemin>
														<valuemax>1</valuemax>
														<value>0</value>
													</parameter>
												</effect>
											</filter>
											<sourcetrack>
												<mediatype>audio</mediatype>
												<trackindex>1</trackindex>
											</sourcetrack>
											<link>
												<linkclipref>Raw Scene Matthew Duepner Printing32</linkclipref>
												<mediatype>video</mediatype>
												<trackindex>3</trackindex>
												<clipindex>26</clipindex>
											</link>
											<link>
												<linkclipref>Raw Scene Matthew Duepner Printing34</linkclipref>
												<mediatype>audio</mediatype>
												<trackindex>65</trackindex>
												<clipindex>26</clipindex>
												<groupindex>1</groupindex>
											</link>
											<link>
												<linkclipref>Raw Scene Matthew Duepner Printing35</linkclipref>
												<mediatype>audio</mediatype>
												<trackindex>66</trackindex>
												<clipindex>26</clipindex>
												<groupindex>1</groupindex>
											</link>
											<itemhistory>
												<uuid>81BC69B5-B126-4C3F-B4DB-44F0510AEF9D</uuid>
											</itemhistory>
										</clipitem>
										<clipitem id="Raw Scene Matthew Duepner Printing38">
											<name>Raw Scene Matthew Duepner Printing</name>
											<duration>28553</duration>
											<rate>
												<ntsc>TRUE</ntsc>
												<timebase>24</timebase>
											</rate>
											<in>24554</in>
											<out>24706</out>
											<start>2907</start>
											<end>3059</end>
											<masterclipid>Raw Scene Matthew Duepner Printing57</masterclipid>
											<logginginfo>
												<scene/>
												<shottake/>
												<lognote/>
												<good>FALSE</good>
											</logginginfo>
											<labels>
												<label2/>
											</labels>
											<comments>
												<mastercomment1/>
												<mastercomment2/>
												<mastercomment3/>
												<mastercomment4/>
											</comments>
											<file id="YIN_2013-05-28_LG-6 "/>
											<filter>
												<effect>
													<name>Audio Levels</name>
													<effectid>audiolevels</effectid>
													<effectcategory>audiolevels</effectcategory>
													<effecttype>audiolevels</effecttype>
													<mediatype>audio</mediatype>
													<parameter>
														<name>Level</name>
														<parameterid>level</parameterid>
														<valuemin>0</valuemin>
														<valuemax>3.98109</valuemax>
														<value>1</value>
													</parameter>
												</effect>
											</filter>
											<filter>
												<effect>
													<name>Audio Pan</name>
													<effectid>audiopan</effectid>
													<effectcategory>audiopan</effectcategory>
													<effecttype>audiopan</effecttype>
													<mediatype>audio</mediatype>
													<parameter>
														<name>Pan</name>
														<parameterid>pan</parameterid>
														<valuemin>-1</valuemin>
														<valuemax>1</valuemax>
														<value>0</value>
													</parameter>
												</effect>
											</filter>
											<sourcetrack>
												<mediatype>audio</mediatype>
												<trackindex>1</trackindex>
											</sourcetrack>
											<link>
												<linkclipref>Raw Scene Matthew Duepner Printing36</linkclipref>
												<mediatype>video</mediatype>
												<trackindex>3</trackindex>
												<clipindex>27</clipindex>
											</link>
											<link>
												<linkclipref>Raw Scene Matthew Duepner Printing38</linkclipref>
												<mediatype>audio</mediatype>
												<trackindex>65</trackindex>
												<clipindex>27</clipindex>
												<groupindex>1</groupindex>
											</link>
											<link>
												<linkclipref>Raw Scene Matthew Duepner Printing39</linkclipref>
												<mediatype>audio</mediatype>
												<trackindex>66</trackindex>
												<clipindex>27</clipindex>
												<groupindex>1</groupindex>
											</link>
											<itemhistory>
												<uuid>752104EF-0DC5-4E82-90D1-1D610C8B0373</uuid>
											</itemhistory>
										</clipitem>
										<clipitem id="Raw Scene Matthew Duepner Printing42">
											<name>Raw Scene Matthew Duepner Printing</name>
											<duration>28553</duration>
											<rate>
												<ntsc>TRUE</ntsc>
												<timebase>24</timebase>
											</rate>
											<in>27525</in>
											<out>27797</out>
											<start>3059</start>
											<end>3331</end>
											<masterclipid>Raw Scene Matthew Duepner Printing58</masterclipid>
											<logginginfo>
												<scene/>
												<shottake/>
												<lognote/>
												<good>FALSE</good>
											</logginginfo>
											<labels>
												<label2/>
											</labels>
											<comments>
												<mastercomment1/>
												<mastercomment2/>
												<mastercomment3/>
												<mastercomment4/>
											</comments>
											<file id="YIN_2013-05-28_LG-6 "/>
											<filter>
												<effect>
													<name>Audio Levels</name>
													<effectid>audiolevels</effectid>
													<effectcategory>audiolevels</effectcategory>
													<effecttype>audiolevels</effecttype>
													<mediatype>audio</mediatype>
													<parameter>
														<name>Level</name>
														<parameterid>level</parameterid>
														<valuemin>0</valuemin>
														<valuemax>3.98109</valuemax>
														<value>1</value>
													</parameter>
												</effect>
											</filter>
											<filter>
												<effect>
													<name>Audio Pan</name>
													<effectid>audiopan</effectid>
													<effectcategory>audiopan</effectcategory>
													<effecttype>audiopan</effecttype>
													<mediatype>audio</mediatype>
													<parameter>
														<name>Pan</name>
														<parameterid>pan</parameterid>
														<valuemin>-1</valuemin>
														<valuemax>1</valuemax>
														<value>0</value>
													</parameter>
												</effect>
											</filter>
											<sourcetrack>
												<mediatype>audio</mediatype>
												<trackindex>1</trackindex>
											</sourcetrack>
											<link>
												<linkclipref>Raw Scene Matthew Duepner Printing40</linkclipref>
												<mediatype>video</mediatype>
												<trackindex>3</trackindex>
												<clipindex>28</clipindex>
											</link>
											<link>
												<linkclipref>Raw Scene Matthew Duepner Printing42</linkclipref>
												<mediatype>audio</mediatype>
												<trackindex>65</trackindex>
												<clipindex>28</clipindex>
												<groupindex>1</groupindex>
											</link>
											<link>
												<linkclipref>Raw Scene Matthew Duepner Printing43</linkclipref>
												<mediatype>audio</mediatype>
												<trackindex>66</trackindex>
												<clipindex>28</clipindex>
												<groupindex>1</groupindex>
											</link>
											<itemhistory>
												<uuid>3E93489D-F0C5-4F35-919F-CBAC38958449</uuid>
											</itemhistory>
										</clipitem>
										<clipitem id="Raw Scene Matthew Duepner Printing46">
											<name>Raw Scene Matthew Duepner Printing</name>
											<duration>28553</duration>
											<rate>
												<ntsc>TRUE</ntsc>
												<timebase>24</timebase>
											</rate>
											<in>28313</in>
											<out>28455</out>
											<start>3331</start>
											<end>3473</end>
											<masterclipid>Raw Scene Matthew Duepner Printing59</masterclipid>
											<logginginfo>
												<scene/>
												<shottake/>
												<lognote/>
												<good>FALSE</good>
											</logginginfo>
											<labels>
												<label2/>
											</labels>
											<comments>
												<mastercomment1/>
												<mastercomment2/>
												<mastercomment3/>
												<mastercomment4/>
											</comments>
											<file id="YIN_2013-05-28_LG-6 "/>
											<filter>
												<effect>
													<name>Audio Levels</name>
													<effectid>audiolevels</effectid>
													<effectcategory>audiolevels</effectcategory>
													<effecttype>audiolevels</effecttype>
													<mediatype>audio</mediatype>
													<parameter>
														<name>Level</name>
														<parameterid>level</parameterid>
														<valuemin>0</valuemin>
														<valuemax>3.98109</valuemax>
														<value>1</value>
													</parameter>
												</effect>
											</filter>
											<filter>
												<effect>
													<name>Audio Pan</name>
													<effectid>audiopan</effectid>
													<effectcategory>audiopan</effectcategory>
													<effecttype>audiopan</effecttype>
													<mediatype>audio</mediatype>
													<parameter>
														<name>Pan</name>
														<parameterid>pan</parameterid>
														<valuemin>-1</valuemin>
														<valuemax>1</valuemax>
														<value>0</value>
													</parameter>
												</effect>
											</filter>
											<sourcetrack>
												<mediatype>audio</mediatype>
												<trackindex>1</trackindex>
											</sourcetrack>
											<link>
												<linkclipref>Raw Scene Matthew Duepner Printing44</linkclipref>
												<mediatype>video</mediatype>
												<trackindex>3</trackindex>
												<clipindex>29</clipindex>
											</link>
											<link>
												<linkclipref>Raw Scene Matthew Duepner Printing46</linkclipref>
												<mediatype>audio</mediatype>
												<trackindex>65</trackindex>
												<clipindex>29</clipindex>
												<groupindex>1</groupindex>
											</link>
											<link>
												<linkclipref>Raw Scene Matthew Duepner Printing47</linkclipref>
												<mediatype>audio</mediatype>
												<trackindex>66</trackindex>
												<clipindex>29</clipindex>
												<groupindex>1</groupindex>
											</link>
											<itemhistory>
												<uuid>B05D97F0-34F6-4BCC-9D5F-B76AC7D1DC68</uuid>
											</itemhistory>
										</clipitem>
										<clipitem id="Raw Scene Matthew Duepner Walkabout154">
											<name>Raw Scene Matthew Duepner Walkabout</name>
											<duration>38484</duration>
											<rate>
												<ntsc>TRUE</ntsc>
												<timebase>24</timebase>
											</rate>
											<in>5133</in>
											<out>5266</out>
											<start>3473</start>
											<end>3606</end>
											<masterclipid>Raw Scene Matthew Duepner Walkabout155</masterclipid>
											<logginginfo>
												<scene/>
												<shottake/>
												<lognote/>
												<good>FALSE</good>
											</logginginfo>
											<labels>
												<label2/>
											</labels>
											<comments>
												<mastercomment1/>
												<mastercomment2/>
												<mastercomment3/>
												<mastercomment4/>
											</comments>
											<file id="YIN_2013-05-28_LG-4 "/>
											<filter>
												<effect>
													<name>Audio Levels</name>
													<effectid>audiolevels</effectid>
													<effectcategory>audiolevels</effectcategory>
													<effecttype>audiolevels</effecttype>
													<mediatype>audio</mediatype>
													<parameter>
														<name>Level</name>
														<parameterid>level</parameterid>
														<valuemin>0</valuemin>
														<valuemax>3.98109</valuemax>
														<value>1</value>
													</parameter>
												</effect>
											</filter>
											<filter>
												<effect>
													<name>Audio Pan</name>
													<effectid>audiopan</effectid>
													<effectcategory>audiopan</effectcategory>
													<effecttype>audiopan</effecttype>
													<mediatype>audio</mediatype>
													<parameter>
														<name>Pan</name>
														<parameterid>pan</parameterid>
														<valuemin>-1</valuemin>
														<valuemax>1</valuemax>
														<value>0</value>
													</parameter>
												</effect>
											</filter>
											<sourcetrack>
												<mediatype>audio</mediatype>
												<trackindex>1</trackindex>
											</sourcetrack>
											<link>
												<linkclipref>Raw Scene Matthew Duepner Walkabout154</linkclipref>
												<mediatype>audio</mediatype>
												<trackindex>65</trackindex>
												<clipindex>30</clipindex>
												<groupindex>1</groupindex>
											</link>
											<link>
												<linkclipref>Raw Scene Matthew Duepner Walkabout156</linkclipref>
												<mediatype>audio</mediatype>
												<trackindex>66</trackindex>
												<clipindex>30</clipindex>
												<groupindex>1</groupindex>
											</link>
											<itemhistory>
												<uuid>D76C77D3-871E-46D8-B3ED-7F9E96C58185</uuid>
											</itemhistory>
										</clipitem>
										<clipitem id="Raw Scene Matthew Duepner Walkabout4">
											<name>Raw Scene Matthew Duepner Walkabout</name>
											<duration>38484</duration>
											<rate>
												<ntsc>TRUE</ntsc>
												<timebase>24</timebase>
											</rate>
											<in>4745</in>
											<out>5123</out>
											<start>3606</start>
											<end>3984</end>
											<masterclipid>Raw Scene Matthew Duepner Walkabout157</masterclipid>
											<logginginfo>
												<scene/>
												<shottake/>
												<lognote/>
												<good>FALSE</good>
											</logginginfo>
											<labels>
												<label2/>
											</labels>
											<comments>
												<mastercomment1/>
												<mastercomment2/>
												<mastercomment3/>
												<mastercomment4/>
											</comments>
											<file id="YIN_2013-05-28_LG-4 "/>
											<filter>
												<effect>
													<name>Audio Levels</name>
													<effectid>audiolevels</effectid>
													<effectcategory>audiolevels</effectcategory>
													<effecttype>audiolevels</effecttype>
													<mediatype>audio</mediatype>
													<parameter>
														<name>Level</name>
														<parameterid>level</parameterid>
														<valuemin>0</valuemin>
														<valuemax>3.98109</valuemax>
														<value>1</value>
													</parameter>
												</effect>
											</filter>
											<filter>
												<effect>
													<name>Audio Pan</name>
													<effectid>audiopan</effectid>
													<effectcategory>audiopan</effectcategory>
													<effecttype>audiopan</effecttype>
													<mediatype>audio</mediatype>
													<parameter>
														<name>Pan</name>
														<parameterid>pan</parameterid>
														<valuemin>-1</valuemin>
														<valuemax>1</valuemax>
														<value>0</value>
													</parameter>
												</effect>
											</filter>
											<sourcetrack>
												<mediatype>audio</mediatype>
												<trackindex>1</trackindex>
											</sourcetrack>
											<link>
												<linkclipref>Raw Scene Matthew Duepner Walkabout2</linkclipref>
												<mediatype>video</mediatype>
												<trackindex>3</trackindex>
												<clipindex>31</clipindex>
											</link>
											<link>
												<linkclipref>Raw Scene Matthew Duepner Walkabout4</linkclipref>
												<mediatype>audio</mediatype>
												<trackindex>65</trackindex>
												<clipindex>31</clipindex>
												<groupindex>1</groupindex>
											</link>
											<link>
												<linkclipref>Raw Scene Matthew Duepner Walkabout5</linkclipref>
												<mediatype>audio</mediatype>
												<trackindex>66</trackindex>
												<clipindex>31</clipindex>
												<groupindex>1</groupindex>
											</link>
											<itemhistory>
												<uuid>65F52327-0910-4874-A04D-66CB928F41BB</uuid>
											</itemhistory>
										</clipitem>
										<clipitem id="Raw Scene Matthew Duepner Walkabout8">
											<name>Raw Scene Matthew Duepner Walkabout</name>
											<duration>38484</duration>
											<rate>
												<ntsc>TRUE</ntsc>
												<timebase>24</timebase>
											</rate>
											<in>6473</in>
											<out>6911</out>
											<start>3984</start>
											<end>4422</end>
											<masterclipid>Raw Scene Matthew Duepner Walkabout158</masterclipid>
											<logginginfo>
												<scene/>
												<shottake/>
												<lognote/>
												<good>FALSE</good>
											</logginginfo>
											<labels>
												<label2/>
											</labels>
											<comments>
												<mastercomment1/>
												<mastercomment2/>
												<mastercomment3/>
												<mastercomment4/>
											</comments>
											<file id="YIN_2013-05-28_LG-4 "/>
											<filter>
												<effect>
													<name>Audio Levels</name>
													<effectid>audiolevels</effectid>
													<effectcategory>audiolevels</effectcategory>
													<effecttype>audiolevels</effecttype>
													<mediatype>audio</mediatype>
													<parameter>
														<name>Level</name>
														<parameterid>level</parameterid>
														<valuemin>0</valuemin>
														<valuemax>3.98109</valuemax>
														<value>1</value>
													</parameter>
												</effect>
											</filter>
											<filter>
												<effect>
													<name>Audio Pan</name>
													<effectid>audiopan</effectid>
													<effectcategory>audiopan</effectcategory>
													<effecttype>audiopan</effecttype>
													<mediatype>audio</mediatype>
													<parameter>
														<name>Pan</name>
														<parameterid>pan</parameterid>
														<valuemin>-1</valuemin>
														<valuemax>1</valuemax>
														<value>0</value>
													</parameter>
												</effect>
											</filter>
											<sourcetrack>
												<mediatype>audio</mediatype>
												<trackindex>1</trackindex>
											</sourcetrack>
											<link>
												<linkclipref>Raw Scene Matthew Duepner Walkabout6</linkclipref>
												<mediatype>video</mediatype>
												<trackindex>3</trackindex>
												<clipindex>32</clipindex>
											</link>
											<link>
												<linkclipref>Raw Scene Matthew Duepner Walkabout8</linkclipref>
												<mediatype>audio</mediatype>
												<trackindex>65</trackindex>
												<clipindex>32</clipindex>
												<groupindex>1</groupindex>
											</link>
											<link>
												<linkclipref>Raw Scene Matthew Duepner Walkabout9</linkclipref>
												<mediatype>audio</mediatype>
												<trackindex>66</trackindex>
												<clipindex>32</clipindex>
												<groupindex>1</groupindex>
											</link>
											<itemhistory>
												<uuid>CAAF8377-A75A-4D86-91DB-02D200306BDD</uuid>
											</itemhistory>
										</clipitem>
										<clipitem id="Raw Scene Matthew Duepner Walkabout12">
											<name>Raw Scene Matthew Duepner Walkabout</name>
											<duration>38484</duration>
											<rate>
												<ntsc>TRUE</ntsc>
												<timebase>24</timebase>
											</rate>
											<in>7070</in>
											<out>7250</out>
											<start>4422</start>
											<end>4602</end>
											<masterclipid>Raw Scene Matthew Duepner Walkabout159</masterclipid>
											<logginginfo>
												<scene/>
												<shottake/>
												<lognote/>
												<good>FALSE</good>
											</logginginfo>
											<labels>
												<label2/>
											</labels>
											<comments>
												<mastercomment1/>
												<mastercomment2/>
												<mastercomment3/>
												<mastercomment4/>
											</comments>
											<file id="YIN_2013-05-28_LG-4 "/>
											<filter>
												<effect>
													<name>Audio Levels</name>
													<effectid>audiolevels</effectid>
													<effectcategory>audiolevels</effectcategory>
													<effecttype>audiolevels</effecttype>
													<mediatype>audio</mediatype>
													<parameter>
														<name>Level</name>
														<parameterid>level</parameterid>
														<valuemin>0</valuemin>
														<valuemax>3.98109</valuemax>
														<value>1</value>
													</parameter>
												</effect>
											</filter>
											<filter>
												<effect>
													<name>Audio Pan</name>
													<effectid>audiopan</effectid>
													<effectcategory>audiopan</effectcategory>
													<effecttype>audiopan</effecttype>
													<mediatype>audio</mediatype>
													<parameter>
														<name>Pan</name>
														<parameterid>pan</parameterid>
														<valuemin>-1</valuemin>
														<valuemax>1</valuemax>
														<value>0</value>
													</parameter>
												</effect>
											</filter>
											<sourcetrack>
												<mediatype>audio</mediatype>
												<trackindex>1</trackindex>
											</sourcetrack>
											<link>
												<linkclipref>Raw Scene Matthew Duepner Walkabout10</linkclipref>
												<mediatype>video</mediatype>
												<trackindex>3</trackindex>
												<clipindex>33</clipindex>
											</link>
											<link>
												<linkclipref>Raw Scene Matthew Duepner Walkabout12</linkclipref>
												<mediatype>audio</mediatype>
												<trackindex>65</trackindex>
												<clipindex>33</clipindex>
												<groupindex>1</groupindex>
											</link>
											<link>
												<linkclipref>Raw Scene Matthew Duepner Walkabout13</linkclipref>
												<mediatype>audio</mediatype>
												<trackindex>66</trackindex>
												<clipindex>33</clipindex>
												<groupindex>1</groupindex>
											</link>
											<itemhistory>
												<uuid>B135D2A1-D50B-46FE-8695-AE1D2F210A91</uuid>
											</itemhistory>
										</clipitem>
										<clipitem id="Raw Scene Matthew Duepner Walkabout16">
											<name>Raw Scene Matthew Duepner Walkabout</name>
											<duration>38484</duration>
											<rate>
												<ntsc>TRUE</ntsc>
												<timebase>24</timebase>
											</rate>
											<in>10560</in>
											<out>10599</out>
											<start>4602</start>
											<end>4641</end>
											<masterclipid>Raw Scene Matthew Duepner Walkabout160</masterclipid>
											<logginginfo>
												<scene/>
												<shottake/>
												<lognote/>
												<good>FALSE</good>
											</logginginfo>
											<labels>
												<label2/>
											</labels>
											<comments>
												<mastercomment1/>
												<mastercomment2/>
												<mastercomment3/>
												<mastercomment4/>
											</comments>
											<file id="YIN_2013-05-28_LG-4 "/>
											<filter>
												<effect>
													<name>Audio Levels</name>
													<effectid>audiolevels</effectid>
													<effectcategory>audiolevels</effectcategory>
													<effecttype>audiolevels</effecttype>
													<mediatype>audio</mediatype>
													<parameter>
														<name>Level</name>
														<parameterid>level</parameterid>
														<valuemin>0</valuemin>
														<valuemax>3.98109</valuemax>
														<value>1</value>
													</parameter>
												</effect>
											</filter>
											<filter>
												<effect>
													<name>Audio Pan</name>
													<effectid>audiopan</effectid>
													<effectcategory>audiopan</effectcategory>
													<effecttype>audiopan</effecttype>
													<mediatype>audio</mediatype>
													<parameter>
														<name>Pan</name>
														<parameterid>pan</parameterid>
														<valuemin>-1</valuemin>
														<valuemax>1</valuemax>
														<value>0</value>
													</parameter>
												</effect>
											</filter>
											<sourcetrack>
												<mediatype>audio</mediatype>
												<trackindex>1</trackindex>
											</sourcetrack>
											<link>
												<linkclipref>Raw Scene Matthew Duepner Walkabout14</linkclipref>
												<mediatype>video</mediatype>
												<trackindex>3</trackindex>
												<clipindex>34</clipindex>
											</link>
											<link>
												<linkclipref>Raw Scene Matthew Duepner Walkabout16</linkclipref>
												<mediatype>audio</mediatype>
												<trackindex>65</trackindex>
												<clipindex>34</clipindex>
												<groupindex>1</groupindex>
											</link>
											<link>
												<linkclipref>Raw Scene Matthew Duepner Walkabout17</linkclipref>
												<mediatype>audio</mediatype>
												<trackindex>66</trackindex>
												<clipindex>34</clipindex>
												<groupindex>1</groupindex>
											</link>
											<itemhistory>
												<uuid>DB9CC438-DBD4-43FC-A346-BF5CBC0404F7</uuid>
											</itemhistory>
										</clipitem>
										<clipitem id="Raw Scene Matthew Duepner Walkabout20">
											<name>Raw Scene Matthew Duepner Walkabout</name>
											<duration>38484</duration>
											<rate>
												<ntsc>TRUE</ntsc>
												<timebase>24</timebase>
											</rate>
											<in>11332</in>
											<out>11408</out>
											<start>4641</start>
											<end>4717</end>
											<masterclipid>Raw Scene Matthew Duepner Walkabout161</masterclipid>
											<logginginfo>
												<scene/>
												<shottake/>
												<lognote/>
												<good>FALSE</good>
											</logginginfo>
											<labels>
												<label2/>
											</labels>
											<comments>
												<mastercomment1/>
												<mastercomment2/>
												<mastercomment3/>
												<mastercomment4/>
											</comments>
											<file id="YIN_2013-05-28_LG-4 "/>
											<filter>
												<effect>
													<name>Audio Levels</name>
													<effectid>audiolevels</effectid>
													<effectcategory>audiolevels</effectcategory>
													<effecttype>audiolevels</effecttype>
													<mediatype>audio</mediatype>
													<parameter>
														<name>Level</name>
														<parameterid>level</parameterid>
														<valuemin>0</valuemin>
														<valuemax>3.98109</valuemax>
														<value>1</value>
													</parameter>
												</effect>
											</filter>
											<filter>
												<effect>
													<name>Audio Pan</name>
													<effectid>audiopan</effectid>
													<effectcategory>audiopan</effectcategory>
													<effecttype>audiopan</effecttype>
													<mediatype>audio</mediatype>
													<parameter>
														<name>Pan</name>
														<parameterid>pan</parameterid>
														<valuemin>-1</valuemin>
														<valuemax>1</valuemax>
														<value>0</value>
													</parameter>
												</effect>
											</filter>
											<sourcetrack>
												<mediatype>audio</mediatype>
												<trackindex>1</trackindex>
											</sourcetrack>
											<link>
												<linkclipref>Raw Scene Matthew Duepner Walkabout18</linkclipref>
												<mediatype>video</mediatype>
												<trackindex>3</trackindex>
												<clipindex>35</clipindex>
											</link>
											<link>
												<linkclipref>Raw Scene Matthew Duepner Walkabout20</linkclipref>
												<mediatype>audio</mediatype>
												<trackindex>65</trackindex>
												<clipindex>35</clipindex>
												<groupindex>1</groupindex>
											</link>
											<link>
												<linkclipref>Raw Scene Matthew Duepner Walkabout21</linkclipref>
												<mediatype>audio</mediatype>
												<trackindex>66</trackindex>
												<clipindex>35</clipindex>
												<groupindex>1</groupindex>
											</link>
											<itemhistory>
												<uuid>184354B7-3379-423F-B5B9-1C3E99C51C00</uuid>
											</itemhistory>
										</clipitem>
										<clipitem id="Raw Scene Matthew Duepner Walkabout24">
											<name>Raw Scene Matthew Duepner Walkabout</name>
											<duration>38484</duration>
											<rate>
												<ntsc>TRUE</ntsc>
												<timebase>24</timebase>
											</rate>
											<in>11540</in>
											<out>11595</out>
											<start>4717</start>
											<end>4772</end>
											<masterclipid>Raw Scene Matthew Duepner Walkabout162</masterclipid>
											<logginginfo>
												<scene/>
												<shottake/>
												<lognote/>
												<good>FALSE</good>
											</logginginfo>
											<labels>
												<label2/>
											</labels>
											<comments>
												<mastercomment1/>
												<mastercomment2/>
												<mastercomment3/>
												<mastercomment4/>
											</comments>
											<file id="YIN_2013-05-28_LG-4 "/>
											<filter>
												<effect>
													<name>Audio Levels</name>
													<effectid>audiolevels</effectid>
													<effectcategory>audiolevels</effectcategory>
													<effecttype>audiolevels</effecttype>
													<mediatype>audio</mediatype>
													<parameter>
														<name>Level</name>
														<parameterid>level</parameterid>
														<valuemin>0</valuemin>
														<valuemax>3.98109</valuemax>
														<value>1</value>
													</parameter>
												</effect>
											</filter>
											<filter>
												<effect>
													<name>Audio Pan</name>
													<effectid>audiopan</effectid>
													<effectcategory>audiopan</effectcategory>
													<effecttype>audiopan</effecttype>
													<mediatype>audio</mediatype>
													<parameter>
														<name>Pan</name>
														<parameterid>pan</parameterid>
														<valuemin>-1</valuemin>
														<valuemax>1</valuemax>
														<value>0</value>
													</parameter>
												</effect>
											</filter>
											<sourcetrack>
												<mediatype>audio</mediatype>
												<trackindex>1</trackindex>
											</sourcetrack>
											<link>
												<linkclipref>Raw Scene Matthew Duepner Walkabout22</linkclipref>
												<mediatype>video</mediatype>
												<trackindex>3</trackindex>
												<clipindex>36</clipindex>
											</link>
											<link>
												<linkclipref>Raw Scene Matthew Duepner Walkabout24</linkclipref>
												<mediatype>audio</mediatype>
												<trackindex>65</trackindex>
												<clipindex>36</clipindex>
												<groupindex>1</groupindex>
											</link>
											<link>
												<linkclipref>Raw Scene Matthew Duepner Walkabout25</linkclipref>
												<mediatype>audio</mediatype>
												<trackindex>66</trackindex>
												<clipindex>36</clipindex>
												<groupindex>1</groupindex>
											</link>
											<itemhistory>
												<uuid>FAC4AA1F-CCBD-4989-A457-0C8106308380</uuid>
											</itemhistory>
										</clipitem>
										<clipitem id="Raw Scene Matthew Duepner Walkabout28">
											<name>Raw Scene Matthew Duepner Walkabout</name>
											<duration>38484</duration>
											<rate>
												<ntsc>TRUE</ntsc>
												<timebase>24</timebase>
											</rate>
											<in>13339</in>
											<out>13489</out>
											<start>4772</start>
											<end>4922</end>
											<masterclipid>Raw Scene Matthew Duepner Walkabout163</masterclipid>
											<logginginfo>
												<scene/>
												<shottake/>
												<lognote/>
												<good>FALSE</good>
											</logginginfo>
											<labels>
												<label2/>
											</labels>
											<comments>
												<mastercomment1/>
												<mastercomment2/>
												<mastercomment3/>
												<mastercomment4/>
											</comments>
											<file id="YIN_2013-05-28_LG-4 "/>
											<filter>
												<effect>
													<name>Audio Levels</name>
													<effectid>audiolevels</effectid>
													<effectcategory>audiolevels</effectcategory>
													<effecttype>audiolevels</effecttype>
													<mediatype>audio</mediatype>
													<parameter>
														<name>Level</name>
														<parameterid>level</parameterid>
														<valuemin>0</valuemin>
														<valuemax>3.98109</valuemax>
														<value>1</value>
													</parameter>
												</effect>
											</filter>
											<filter>
												<effect>
													<name>Audio Pan</name>
													<effectid>audiopan</effectid>
													<effectcategory>audiopan</effectcategory>
													<effecttype>audiopan</effecttype>
													<mediatype>audio</mediatype>
													<parameter>
														<name>Pan</name>
														<parameterid>pan</parameterid>
														<valuemin>-1</valuemin>
														<valuemax>1</valuemax>
														<value>0</value>
													</parameter>
												</effect>
											</filter>
											<sourcetrack>
												<mediatype>audio</mediatype>
												<trackindex>1</trackindex>
											</sourcetrack>
											<link>
												<linkclipref>Raw Scene Matthew Duepner Walkabout26</linkclipref>
												<mediatype>video</mediatype>
												<trackindex>3</trackindex>
												<clipindex>37</clipindex>
											</link>
											<link>
												<linkclipref>Raw Scene Matthew Duepner Walkabout28</linkclipref>
												<mediatype>audio</mediatype>
												<trackindex>65</trackindex>
												<clipindex>37</clipindex>
												<groupindex>1</groupindex>
											</link>
											<link>
												<linkclipref>Raw Scene Matthew Duepner Walkabout29</linkclipref>
												<mediatype>audio</mediatype>
												<trackindex>66</trackindex>
												<clipindex>37</clipindex>
												<groupindex>1</groupindex>
											</link>
											<itemhistory>
												<uuid>D7763BB5-4937-4DE0-ADA2-94FB7063C459</uuid>
											</itemhistory>
										</clipitem>
										<clipitem id="Raw Scene Matthew Duepner Walkabout32">
											<name>Raw Scene Matthew Duepner Walkabout</name>
											<duration>38484</duration>
											<rate>
												<ntsc>TRUE</ntsc>
												<timebase>24</timebase>
											</rate>
											<in>13825</in>
											<out>13967</out>
											<start>4922</start>
											<end>5064</end>
											<masterclipid>Raw Scene Matthew Duepner Walkabout164</masterclipid>
											<logginginfo>
												<scene/>
												<shottake/>
												<lognote/>
												<good>FALSE</good>
											</logginginfo>
											<labels>
												<label2/>
											</labels>
											<comments>
												<mastercomment1/>
												<mastercomment2/>
												<mastercomment3/>
												<mastercomment4/>
											</comments>
											<file id="YIN_2013-05-28_LG-4 "/>
											<filter>
												<effect>
													<name>Audio Levels</name>
													<effectid>audiolevels</effectid>
													<effectcategory>audiolevels</effectcategory>
													<effecttype>audiolevels</effecttype>
													<mediatype>audio</mediatype>
													<parameter>
														<name>Level</name>
														<parameterid>level</parameterid>
														<valuemin>0</valuemin>
														<valuemax>3.98109</valuemax>
														<value>1</value>
													</parameter>
												</effect>
											</filter>
											<filter>
												<effect>
													<name>Audio Pan</name>
													<effectid>audiopan</effectid>
													<effectcategory>audiopan</effectcategory>
													<effecttype>audiopan</effecttype>
													<mediatype>audio</mediatype>
													<parameter>
														<name>Pan</name>
														<parameterid>pan</parameterid>
														<valuemin>-1</valuemin>
														<valuemax>1</valuemax>
														<value>0</value>
													</parameter>
												</effect>
											</filter>
											<sourcetrack>
												<mediatype>audio</mediatype>
												<trackindex>1</trackindex>
											</sourcetrack>
											<link>
												<linkclipref>Raw Scene Matthew Duepner Walkabout30</linkclipref>
												<mediatype>video</mediatype>
												<trackindex>3</trackindex>
												<clipindex>38</clipindex>
											</link>
											<link>
												<linkclipref>Raw Scene Matthew Duepner Walkabout32</linkclipref>
												<mediatype>audio</mediatype>
												<trackindex>65</trackindex>
												<clipindex>38</clipindex>
												<groupindex>1</groupindex>
											</link>
											<link>
												<linkclipref>Raw Scene Matthew Duepner Walkabout33</linkclipref>
												<mediatype>audio</mediatype>
												<trackindex>66</trackindex>
												<clipindex>38</clipindex>
												<groupindex>1</groupindex>
											</link>
											<itemhistory>
												<uuid>515A91F0-344B-4A19-B422-793E3EF6092E</uuid>
											</itemhistory>
										</clipitem>
										<clipitem id="Raw Scene Matthew Duepner Walkabout36">
											<name>Raw Scene Matthew Duepner Walkabout</name>
											<duration>38484</duration>
											<rate>
												<ntsc>TRUE</ntsc>
												<timebase>24</timebase>
											</rate>
											<in>14191</in>
											<out>14629</out>
											<start>5064</start>
											<end>5502</end>
											<masterclipid>Raw Scene Matthew Duepner Walkabout165</masterclipid>
											<logginginfo>
												<scene/>
												<shottake/>
												<lognote/>
												<good>FALSE</good>
											</logginginfo>
											<labels>
												<label2/>
											</labels>
											<comments>
												<mastercomment1/>
												<mastercomment2/>
												<mastercomment3/>
												<mastercomment4/>
											</comments>
											<file id="YIN_2013-05-28_LG-4 "/>
											<filter>
												<effect>
													<name>Audio Levels</name>
													<effectid>audiolevels</effectid>
													<effectcategory>audiolevels</effectcategory>
													<effecttype>audiolevels</effecttype>
													<mediatype>audio</mediatype>
													<parameter>
														<name>Level</name>
														<parameterid>level</parameterid>
														<valuemin>0</valuemin>
														<valuemax>3.98109</valuemax>
														<value>1</value>
													</parameter>
												</effect>
											</filter>
											<filter>
												<effect>
													<name>Audio Pan</name>
													<effectid>audiopan</effectid>
													<effectcategory>audiopan</effectcategory>
													<effecttype>audiopan</effecttype>
													<mediatype>audio</mediatype>
													<parameter>
														<name>Pan</name>
														<parameterid>pan</parameterid>
														<valuemin>-1</valuemin>
														<valuemax>1</valuemax>
														<value>0</value>
													</parameter>
												</effect>
											</filter>
											<sourcetrack>
												<mediatype>audio</mediatype>
												<trackindex>1</trackindex>
											</sourcetrack>
											<link>
												<linkclipref>Raw Scene Matthew Duepner Walkabout34</linkclipref>
												<mediatype>video</mediatype>
												<trackindex>3</trackindex>
												<clipindex>39</clipindex>
											</link>
											<link>
												<linkclipref>Raw Scene Matthew Duepner Walkabout36</linkclipref>
												<mediatype>audio</mediatype>
												<trackindex>65</trackindex>
												<clipindex>39</clipindex>
												<groupindex>1</groupindex>
											</link>
											<link>
												<linkclipref>Raw Scene Matthew Duepner Walkabout37</linkclipref>
												<mediatype>audio</mediatype>
												<trackindex>66</trackindex>
												<clipindex>39</clipindex>
												<groupindex>1</groupindex>
											</link>
											<itemhistory>
												<uuid>70715BA8-A462-4395-9A94-323AB3FF2A0E</uuid>
											</itemhistory>
										</clipitem>
										<clipitem id="Raw Scene Matthew Duepner Walkabout40">
											<name>Raw Scene Matthew Duepner Walkabout</name>
											<duration>38484</duration>
											<rate>
												<ntsc>TRUE</ntsc>
												<timebase>24</timebase>
											</rate>
											<in>14910</in>
											<out>15123</out>
											<start>5502</start>
											<end>5715</end>
											<masterclipid>Raw Scene Matthew Duepner Walkabout166</masterclipid>
											<logginginfo>
												<scene/>
												<shottake/>
												<lognote/>
												<good>FALSE</good>
											</logginginfo>
											<labels>
												<label2/>
											</labels>
											<comments>
												<mastercomment1/>
												<mastercomment2/>
												<mastercomment3/>
												<mastercomment4/>
											</comments>
											<file id="YIN_2013-05-28_LG-4 "/>
											<filter>
												<effect>
													<name>Audio Levels</name>
													<effectid>audiolevels</effectid>
													<effectcategory>audiolevels</effectcategory>
													<effecttype>audiolevels</effecttype>
													<mediatype>audio</mediatype>
													<parameter>
														<name>Level</name>
														<parameterid>level</parameterid>
														<valuemin>0</valuemin>
														<valuemax>3.98109</valuemax>
														<value>1</value>
													</parameter>
												</effect>
											</filter>
											<filter>
												<effect>
													<name>Audio Pan</name>
													<effectid>audiopan</effectid>
													<effectcategory>audiopan</effectcategory>
													<effecttype>audiopan</effecttype>
													<mediatype>audio</mediatype>
													<parameter>
														<name>Pan</name>
														<parameterid>pan</parameterid>
														<valuemin>-1</valuemin>
														<valuemax>1</valuemax>
														<value>0</value>
													</parameter>
												</effect>
											</filter>
											<sourcetrack>
												<mediatype>audio</mediatype>
												<trackindex>1</trackindex>
											</sourcetrack>
											<link>
												<linkclipref>Raw Scene Matthew Duepner Walkabout38</linkclipref>
												<mediatype>video</mediatype>
												<trackindex>3</trackindex>
												<clipindex>40</clipindex>
											</link>
											<link>
												<linkclipref>Raw Scene Matthew Duepner Walkabout40</linkclipref>
												<mediatype>audio</mediatype>
												<trackindex>65</trackindex>
												<clipindex>40</clipindex>
												<groupindex>1</groupindex>
											</link>
											<link>
												<linkclipref>Raw Scene Matthew Duepner Walkabout41</linkclipref>
												<mediatype>audio</mediatype>
												<trackindex>66</trackindex>
												<clipindex>40</clipindex>
												<groupindex>1</groupindex>
											</link>
											<itemhistory>
												<uuid>794F1A24-E1C8-422F-9E55-9E87E1135BC0</uuid>
											</itemhistory>
										</clipitem>
										<clipitem id="Raw Scene Matthew Duepner Walkabout44">
											<name>Raw Scene Matthew Duepner Walkabout</name>
											<duration>38484</duration>
											<rate>
												<ntsc>TRUE</ntsc>
												<timebase>24</timebase>
											</rate>
											<in>17326</in>
											<out>17746</out>
											<start>5715</start>
											<end>6135</end>
											<masterclipid>Raw Scene Matthew Duepner Walkabout167</masterclipid>
											<logginginfo>
												<scene/>
												<shottake/>
												<lognote/>
												<good>FALSE</good>
											</logginginfo>
											<labels>
												<label2/>
											</labels>
											<comments>
												<mastercomment1/>
												<mastercomment2/>
												<mastercomment3/>
												<mastercomment4/>
											</comments>
											<file id="YIN_2013-05-28_LG-4 "/>
											<filter>
												<effect>
													<name>Audio Levels</name>
													<effectid>audiolevels</effectid>
													<effectcategory>audiolevels</effectcategory>
													<effecttype>audiolevels</effecttype>
													<mediatype>audio</mediatype>
													<parameter>
														<name>Level</name>
														<parameterid>level</parameterid>
														<valuemin>0</valuemin>
														<valuemax>3.98109</valuemax>
														<value>1</value>
													</parameter>
												</effect>
											</filter>
											<filter>
												<effect>
													<name>Audio Pan</name>
													<effectid>audiopan</effectid>
													<effectcategory>audiopan</effectcategory>
													<effecttype>audiopan</effecttype>
													<mediatype>audio</mediatype>
													<parameter>
														<name>Pan</name>
														<parameterid>pan</parameterid>
														<valuemin>-1</valuemin>
														<valuemax>1</valuemax>
														<value>0</value>
													</parameter>
												</effect>
											</filter>
											<sourcetrack>
												<mediatype>audio</mediatype>
												<trackindex>1</trackindex>
											</sourcetrack>
											<link>
												<linkclipref>Raw Scene Matthew Duepner Walkabout42</linkclipref>
												<mediatype>video</mediatype>
												<trackindex>3</trackindex>
												<clipindex>41</clipindex>
											</link>
											<link>
												<linkclipref>Raw Scene Matthew Duepner Walkabout44</linkclipref>
												<mediatype>audio</mediatype>
												<trackindex>65</trackindex>
												<clipindex>41</clipindex>
												<groupindex>1</groupindex>
											</link>
											<link>
												<linkclipref>Raw Scene Matthew Duepner Walkabout45</linkclipref>
												<mediatype>audio</mediatype>
												<trackindex>66</trackindex>
												<clipindex>41</clipindex>
												<groupindex>1</groupindex>
											</link>
											<itemhistory>
												<uuid>13C6B505-3A67-45B5-B1B2-9134659AEBD6</uuid>
											</itemhistory>
										</clipitem>
										<clipitem id="Raw Scene Matthew Duepner Walkabout48">
											<name>Raw Scene Matthew Duepner Walkabout</name>
											<duration>38484</duration>
											<rate>
												<ntsc>TRUE</ntsc>
												<timebase>24</timebase>
											</rate>
											<in>18256</in>
											<out>18413</out>
											<start>6135</start>
											<end>6292</end>
											<masterclipid>Raw Scene Matthew Duepner Walkabout168</masterclipid>
											<logginginfo>
												<scene/>
												<shottake/>
												<lognote/>
												<good>FALSE</good>
											</logginginfo>
											<labels>
												<label2/>
											</labels>
											<comments>
												<mastercomment1/>
												<mastercomment2/>
												<mastercomment3/>
												<mastercomment4/>
											</comments>
											<file id="YIN_2013-05-28_LG-4 "/>
											<filter>
												<effect>
													<name>Audio Levels</name>
													<effectid>audiolevels</effectid>
													<effectcategory>audiolevels</effectcategory>
													<effecttype>audiolevels</effecttype>
													<mediatype>audio</mediatype>
													<parameter>
														<name>Level</name>
														<parameterid>level</parameterid>
														<valuemin>0</valuemin>
														<valuemax>3.98109</valuemax>
														<value>1</value>
													</parameter>
												</effect>
											</filter>
											<filter>
												<effect>
													<name>Audio Pan</name>
													<effectid>audiopan</effectid>
													<effectcategory>audiopan</effectcategory>
													<effecttype>audiopan</effecttype>
													<mediatype>audio</mediatype>
													<parameter>
														<name>Pan</name>
														<parameterid>pan</parameterid>
														<valuemin>-1</valuemin>
														<valuemax>1</valuemax>
														<value>0</value>
													</parameter>
												</effect>
											</filter>
											<sourcetrack>
												<mediatype>audio</mediatype>
												<trackindex>1</trackindex>
											</sourcetrack>
											<link>
												<linkclipref>Raw Scene Matthew Duepner Walkabout46</linkclipref>
												<mediatype>video</mediatype>
												<trackindex>3</trackindex>
												<clipindex>42</clipindex>
											</link>
											<link>
												<linkclipref>Raw Scene Matthew Duepner Walkabout48</linkclipref>
												<mediatype>audio</mediatype>
												<trackindex>65</trackindex>
												<clipindex>42</clipindex>
												<groupindex>1</groupindex>
											</link>
											<link>
												<linkclipref>Raw Scene Matthew Duepner Walkabout49</linkclipref>
												<mediatype>audio</mediatype>
												<trackindex>66</trackindex>
												<clipindex>42</clipindex>
												<groupindex>1</groupindex>
											</link>
											<itemhistory>
												<uuid>97D42BDA-6D2F-4889-91AA-E3E4BAC0E47E</uuid>
											</itemhistory>
										</clipitem>
										<clipitem id="Raw Scene Matthew Duepner Walkabout52">
											<name>Raw Scene Matthew Duepner Walkabout</name>
											<duration>38484</duration>
											<rate>
												<ntsc>TRUE</ntsc>
												<timebase>24</timebase>
											</rate>
											<in>19758</in>
											<out>19953</out>
											<start>6292</start>
											<end>6487</end>
											<masterclipid>Raw Scene Matthew Duepner Walkabout169</masterclipid>
											<logginginfo>
												<scene/>
												<shottake/>
												<lognote/>
												<good>FALSE</good>
											</logginginfo>
											<labels>
												<label2/>
											</labels>
											<comments>
												<mastercomment1/>
												<mastercomment2/>
												<mastercomment3/>
												<mastercomment4/>
											</comments>
											<file id="YIN_2013-05-28_LG-4 "/>
											<filter>
												<effect>
													<name>Audio Levels</name>
													<effectid>audiolevels</effectid>
													<effectcategory>audiolevels</effectcategory>
													<effecttype>audiolevels</effecttype>
													<mediatype>audio</mediatype>
													<parameter>
														<name>Level</name>
														<parameterid>level</parameterid>
														<valuemin>0</valuemin>
														<valuemax>3.98109</valuemax>
														<value>1</value>
													</parameter>
												</effect>
											</filter>
											<filter>
												<effect>
													<name>Audio Pan</name>
													<effectid>audiopan</effectid>
													<effectcategory>audiopan</effectcategory>
													<effecttype>audiopan</effecttype>
													<mediatype>audio</mediatype>
													<parameter>
														<name>Pan</name>
														<parameterid>pan</parameterid>
														<valuemin>-1</valuemin>
														<valuemax>1</valuemax>
														<value>0</value>
													</parameter>
												</effect>
											</filter>
											<sourcetrack>
												<mediatype>audio</mediatype>
												<trackindex>1</trackindex>
											</sourcetrack>
											<link>
												<linkclipref>Raw Scene Matthew Duepner Walkabout50</linkclipref>
												<mediatype>video</mediatype>
												<trackindex>3</trackindex>
												<clipindex>43</clipindex>
											</link>
											<link>
												<linkclipref>Raw Scene Matthew Duepner Walkabout52</linkclipref>
												<mediatype>audio</mediatype>
												<trackindex>65</trackindex>
												<clipindex>43</clipindex>
												<groupindex>1</groupindex>
											</link>
											<link>
												<linkclipref>Raw Scene Matthew Duepner Walkabout53</linkclipref>
												<mediatype>audio</mediatype>
												<trackindex>66</trackindex>
												<clipindex>43</clipindex>
												<groupindex>1</groupindex>
											</link>
											<itemhistory>
												<uuid>B54153B0-ED24-422F-B486-81F51DD5B443</uuid>
											</itemhistory>
										</clipitem>
										<clipitem id="Raw Scene Matthew Duepner Walkabout56">
											<name>Raw Scene Matthew Duepner Walkabout</name>
											<duration>38484</duration>
											<rate>
												<ntsc>TRUE</ntsc>
												<timebase>24</timebase>
											</rate>
											<in>21572</in>
											<out>21660</out>
											<start>6487</start>
											<end>6575</end>
											<masterclipid>Raw Scene Matthew Duepner Walkabout170</masterclipid>
											<logginginfo>
												<scene/>
												<shottake/>
												<lognote/>
												<good>FALSE</good>
											</logginginfo>
											<labels>
												<label2/>
											</labels>
											<comments>
												<mastercomment1/>
												<mastercomment2/>
												<mastercomment3/>
												<mastercomment4/>
											</comments>
											<file id="YIN_2013-05-28_LG-4 "/>
											<filter>
												<effect>
													<name>Audio Levels</name>
													<effectid>audiolevels</effectid>
													<effectcategory>audiolevels</effectcategory>
													<effecttype>audiolevels</effecttype>
													<mediatype>audio</mediatype>
													<parameter>
														<name>Level</name>
														<parameterid>level</parameterid>
														<valuemin>0</valuemin>
														<valuemax>3.98109</valuemax>
														<value>1</value>
													</parameter>
												</effect>
											</filter>
											<filter>
												<effect>
													<name>Audio Pan</name>
													<effectid>audiopan</effectid>
													<effectcategory>audiopan</effectcategory>
													<effecttype>audiopan</effecttype>
													<mediatype>audio</mediatype>
													<parameter>
														<name>Pan</name>
														<parameterid>pan</parameterid>
														<valuemin>-1</valuemin>
														<valuemax>1</valuemax>
														<value>0</value>
													</parameter>
												</effect>
											</filter>
											<sourcetrack>
												<mediatype>audio</mediatype>
												<trackindex>1</trackindex>
											</sourcetrack>
											<link>
												<linkclipref>Raw Scene Matthew Duepner Walkabout54</linkclipref>
												<mediatype>video</mediatype>
												<trackindex>3</trackindex>
												<clipindex>44</clipindex>
											</link>
											<link>
												<linkclipref>Raw Scene Matthew Duepner Walkabout56</linkclipref>
												<mediatype>audio</mediatype>
												<trackindex>65</trackindex>
												<clipindex>44</clipindex>
												<groupindex>1</groupindex>
											</link>
											<link>
												<linkclipref>Raw Scene Matthew Duepner Walkabout57</linkclipref>
												<mediatype>audio</mediatype>
												<trackindex>66</trackindex>
												<clipindex>44</clipindex>
												<groupindex>1</groupindex>
											</link>
											<itemhistory>
												<uuid>D63899D9-3CF1-49DA-BA85-9803A96F3DAC</uuid>
											</itemhistory>
										</clipitem>
										<clipitem id="Raw Scene Matthew Duepner Walkabout60">
											<name>Raw Scene Matthew Duepner Walkabout</name>
											<duration>38484</duration>
											<rate>
												<ntsc>TRUE</ntsc>
												<timebase>24</timebase>
											</rate>
											<in>22012</in>
											<out>22143</out>
											<start>6575</start>
											<end>6706</end>
											<masterclipid>Raw Scene Matthew Duepner Walkabout171</masterclipid>
											<logginginfo>
												<scene/>
												<shottake/>
												<lognote/>
												<good>FALSE</good>
											</logginginfo>
											<labels>
												<label2/>
											</labels>
											<comments>
												<mastercomment1/>
												<mastercomment2/>
												<mastercomment3/>
												<mastercomment4/>
											</comments>
											<file id="YIN_2013-05-28_LG-4 "/>
											<filter>
												<effect>
													<name>Audio Levels</name>
													<effectid>audiolevels</effectid>
													<effectcategory>audiolevels</effectcategory>
													<effecttype>audiolevels</effecttype>
													<mediatype>audio</mediatype>
													<parameter>
														<name>Level</name>
														<parameterid>level</parameterid>
														<valuemin>0</valuemin>
														<valuemax>3.98109</valuemax>
														<value>1</value>
													</parameter>
												</effect>
											</filter>
											<filter>
												<effect>
													<name>Audio Pan</name>
													<effectid>audiopan</effectid>
													<effectcategory>audiopan</effectcategory>
													<effecttype>audiopan</effecttype>
													<mediatype>audio</mediatype>
													<parameter>
														<name>Pan</name>
														<parameterid>pan</parameterid>
														<valuemin>-1</valuemin>
														<valuemax>1</valuemax>
														<value>0</value>
													</parameter>
												</effect>
											</filter>
											<sourcetrack>
												<mediatype>audio</mediatype>
												<trackindex>1</trackindex>
											</sourcetrack>
											<link>
												<linkclipref>Raw Scene Matthew Duepner Walkabout58</linkclipref>
												<mediatype>video</mediatype>
												<trackindex>3</trackindex>
												<clipindex>45</clipindex>
											</link>
											<link>
												<linkclipref>Raw Scene Matthew Duepner Walkabout60</linkclipref>
												<mediatype>audio</mediatype>
												<trackindex>65</trackindex>
												<clipindex>45</clipindex>
												<groupindex>1</groupindex>
											</link>
											<link>
												<linkclipref>Raw Scene Matthew Duepner Walkabout61</linkclipref>
												<mediatype>audio</mediatype>
												<trackindex>66</trackindex>
												<clipindex>45</clipindex>
												<groupindex>1</groupindex>
											</link>
											<itemhistory>
												<uuid>43B7478E-1C20-4C84-8CFC-910236A93609</uuid>
											</itemhistory>
										</clipitem>
										<clipitem id="Raw Scene Matthew Duepner Walkabout64">
											<name>Raw Scene Matthew Duepner Walkabout</name>
											<duration>38484</duration>
											<rate>
												<ntsc>TRUE</ntsc>
												<timebase>24</timebase>
											</rate>
											<in>23496</in>
											<out>23611</out>
											<start>6706</start>
											<end>6821</end>
											<masterclipid>Raw Scene Matthew Duepner Walkabout172</masterclipid>
											<logginginfo>
												<scene/>
												<shottake/>
												<lognote/>
												<good>FALSE</good>
											</logginginfo>
											<labels>
												<label2/>
											</labels>
											<comments>
												<mastercomment1/>
												<mastercomment2/>
												<mastercomment3/>
												<mastercomment4/>
											</comments>
											<file id="YIN_2013-05-28_LG-4 "/>
											<filter>
												<effect>
													<name>Audio Levels</name>
													<effectid>audiolevels</effectid>
													<effectcategory>audiolevels</effectcategory>
													<effecttype>audiolevels</effecttype>
													<mediatype>audio</mediatype>
													<parameter>
														<name>Level</name>
														<parameterid>level</parameterid>
														<valuemin>0</valuemin>
														<valuemax>3.98109</valuemax>
														<value>1</value>
													</parameter>
												</effect>
											</filter>
											<filter>
												<effect>
													<name>Audio Pan</name>
													<effectid>audiopan</effectid>
													<effectcategory>audiopan</effectcategory>
													<effecttype>audiopan</effecttype>
													<mediatype>audio</mediatype>
													<parameter>
														<name>Pan</name>
														<parameterid>pan</parameterid>
														<valuemin>-1</valuemin>
														<valuemax>1</valuemax>
														<value>0</value>
													</parameter>
												</effect>
											</filter>
											<sourcetrack>
												<mediatype>audio</mediatype>
												<trackindex>1</trackindex>
											</sourcetrack>
											<link>
												<linkclipref>Raw Scene Matthew Duepner Walkabout62</linkclipref>
												<mediatype>video</mediatype>
												<trackindex>3</trackindex>
												<clipindex>46</clipindex>
											</link>
											<link>
												<linkclipref>Raw Scene Matthew Duepner Walkabout64</linkclipref>
												<mediatype>audio</mediatype>
												<trackindex>65</trackindex>
												<clipindex>46</clipindex>
												<groupindex>1</groupindex>
											</link>
											<link>
												<linkclipref>Raw Scene Matthew Duepner Walkabout65</linkclipref>
												<mediatype>audio</mediatype>
												<trackindex>66</trackindex>
												<clipindex>46</clipindex>
												<groupindex>1</groupindex>
											</link>
											<itemhistory>
												<uuid>A6C66B4E-BE61-462A-AC4A-171AF58A7799</uuid>
											</itemhistory>
										</clipitem>
										<clipitem id="Raw Scene Matthew Duepner Walkabout68">
											<name>Raw Scene Matthew Duepner Walkabout</name>
											<duration>38484</duration>
											<rate>
												<ntsc>TRUE</ntsc>
												<timebase>24</timebase>
											</rate>
											<in>25130</in>
											<out>25241</out>
											<start>6821</start>
											<end>6932</end>
											<masterclipid>Raw Scene Matthew Duepner Walkabout173</masterclipid>
											<logginginfo>
												<scene/>
												<shottake/>
												<lognote/>
												<good>FALSE</good>
											</logginginfo>
											<labels>
												<label2/>
											</labels>
											<comments>
												<mastercomment1/>
												<mastercomment2/>
												<mastercomment3/>
												<mastercomment4/>
											</comments>
											<file id="YIN_2013-05-28_LG-4 "/>
											<filter>
												<effect>
													<name>Audio Levels</name>
													<effectid>audiolevels</effectid>
													<effectcategory>audiolevels</effectcategory>
													<effecttype>audiolevels</effecttype>
													<mediatype>audio</mediatype>
													<parameter>
														<name>Level</name>
														<parameterid>level</parameterid>
														<valuemin>0</valuemin>
														<valuemax>3.98109</valuemax>
														<value>1</value>
													</parameter>
												</effect>
											</filter>
											<filter>
												<effect>
													<name>Audio Pan</name>
													<effectid>audiopan</effectid>
													<effectcategory>audiopan</effectcategory>
													<effecttype>audiopan</effecttype>
													<mediatype>audio</mediatype>
													<parameter>
														<name>Pan</name>
														<parameterid>pan</parameterid>
														<valuemin>-1</valuemin>
														<valuemax>1</valuemax>
														<value>0</value>
													</parameter>
												</effect>
											</filter>
											<sourcetrack>
												<mediatype>audio</mediatype>
												<trackindex>1</trackindex>
											</sourcetrack>
											<link>
												<linkclipref>Raw Scene Matthew Duepner Walkabout66</linkclipref>
												<mediatype>video</mediatype>
												<trackindex>3</trackindex>
												<clipindex>47</clipindex>
											</link>
											<link>
												<linkclipref>Raw Scene Matthew Duepner Walkabout68</linkclipref>
												<mediatype>audio</mediatype>
												<trackindex>65</trackindex>
												<clipindex>47</clipindex>
												<groupindex>1</groupindex>
											</link>
											<link>
												<linkclipref>Raw Scene Matthew Duepner Walkabout69</linkclipref>
												<mediatype>audio</mediatype>
												<trackindex>66</trackindex>
												<clipindex>47</clipindex>
												<groupindex>1</groupindex>
											</link>
											<itemhistory>
												<uuid>E3B4EFB6-A49E-41E6-8ABC-C940D8396CB9</uuid>
											</itemhistory>
										</clipitem>
										<clipitem id="Raw Scene Matthew Duepner Walkabout72">
											<name>Raw Scene Matthew Duepner Walkabout</name>
											<duration>38484</duration>
											<rate>
												<ntsc>TRUE</ntsc>
												<timebase>24</timebase>
											</rate>
											<in>24211</in>
											<out>24295</out>
											<start>6932</start>
											<end>7016</end>
											<masterclipid>Raw Scene Matthew Duepner Walkabout174</masterclipid>
											<logginginfo>
												<scene/>
												<shottake/>
												<lognote/>
												<good>FALSE</good>
											</logginginfo>
											<labels>
												<label2/>
											</labels>
											<comments>
												<mastercomment1/>
												<mastercomment2/>
												<mastercomment3/>
												<mastercomment4/>
											</comments>
											<file id="YIN_2013-05-28_LG-4 "/>
											<filter>
												<effect>
													<name>Audio Levels</name>
													<effectid>audiolevels</effectid>
													<effectcategory>audiolevels</effectcategory>
													<effecttype>audiolevels</effecttype>
													<mediatype>audio</mediatype>
													<parameter>
														<name>Level</name>
														<parameterid>level</parameterid>
														<valuemin>0</valuemin>
														<valuemax>3.98109</valuemax>
														<value>1</value>
													</parameter>
												</effect>
											</filter>
											<filter>
												<effect>
													<name>Audio Pan</name>
													<effectid>audiopan</effectid>
													<effectcategory>audiopan</effectcategory>
													<effecttype>audiopan</effecttype>
													<mediatype>audio</mediatype>
													<parameter>
														<name>Pan</name>
														<parameterid>pan</parameterid>
														<valuemin>-1</valuemin>
														<valuemax>1</valuemax>
														<value>0</value>
													</parameter>
												</effect>
											</filter>
											<sourcetrack>
												<mediatype>audio</mediatype>
												<trackindex>1</trackindex>
											</sourcetrack>
											<link>
												<linkclipref>Raw Scene Matthew Duepner Walkabout70</linkclipref>
												<mediatype>video</mediatype>
												<trackindex>3</trackindex>
												<clipindex>48</clipindex>
											</link>
											<link>
												<linkclipref>Raw Scene Matthew Duepner Walkabout72</linkclipref>
												<mediatype>audio</mediatype>
												<trackindex>65</trackindex>
												<clipindex>48</clipindex>
												<groupindex>1</groupindex>
											</link>
											<link>
												<linkclipref>Raw Scene Matthew Duepner Walkabout73</linkclipref>
												<mediatype>audio</mediatype>
												<trackindex>66</trackindex>
												<clipindex>48</clipindex>
												<groupindex>1</groupindex>
											</link>
											<itemhistory>
												<uuid>D964A83F-5A95-4699-9F5E-2B5F7D60BBE1</uuid>
											</itemhistory>
										</clipitem>
										<clipitem id="Raw Scene Matthew Duepner Walkabout76">
											<name>Raw Scene Matthew Duepner Walkabout</name>
											<duration>38484</duration>
											<rate>
												<ntsc>TRUE</ntsc>
												<timebase>24</timebase>
											</rate>
											<in>23727</in>
											<out>23813</out>
											<start>7016</start>
											<end>7102</end>
											<masterclipid>Raw Scene Matthew Duepner Walkabout175</masterclipid>
											<logginginfo>
												<scene/>
												<shottake/>
												<lognote/>
												<good>FALSE</good>
											</logginginfo>
											<labels>
												<label2/>
											</labels>
											<comments>
												<mastercomment1/>
												<mastercomment2/>
												<mastercomment3/>
												<mastercomment4/>
											</comments>
											<file id="YIN_2013-05-28_LG-4 "/>
											<filter>
												<effect>
													<name>Audio Levels</name>
													<effectid>audiolevels</effectid>
													<effectcategory>audiolevels</effectcategory>
													<effecttype>audiolevels</effecttype>
													<mediatype>audio</mediatype>
													<parameter>
														<name>Level</name>
														<parameterid>level</parameterid>
														<valuemin>0</valuemin>
														<valuemax>3.98109</valuemax>
														<value>1</value>
													</parameter>
												</effect>
											</filter>
											<filter>
												<effect>
													<name>Audio Pan</name>
													<effectid>audiopan</effectid>
													<effectcategory>audiopan</effectcategory>
													<effecttype>audiopan</effecttype>
													<mediatype>audio</mediatype>
													<parameter>
														<name>Pan</name>
														<parameterid>pan</parameterid>
														<valuemin>-1</valuemin>
														<valuemax>1</valuemax>
														<value>0</value>
													</parameter>
												</effect>
											</filter>
											<sourcetrack>
												<mediatype>audio</mediatype>
												<trackindex>1</trackindex>
											</sourcetrack>
											<link>
												<linkclipref>Raw Scene Matthew Duepner Walkabout74</linkclipref>
												<mediatype>video</mediatype>
												<trackindex>3</trackindex>
												<clipindex>49</clipindex>
											</link>
											<link>
												<linkclipref>Raw Scene Matthew Duepner Walkabout76</linkclipref>
												<mediatype>audio</mediatype>
												<trackindex>65</trackindex>
												<clipindex>49</clipindex>
												<groupindex>1</groupindex>
											</link>
											<link>
												<linkclipref>Raw Scene Matthew Duepner Walkabout77</linkclipref>
												<mediatype>audio</mediatype>
												<trackindex>66</trackindex>
												<clipindex>49</clipindex>
												<groupindex>1</groupindex>
											</link>
											<itemhistory>
												<uuid>2B2F11C5-9E5E-45D0-A826-5FB7D2FABBDE</uuid>
											</itemhistory>
										</clipitem>
										<clipitem id="Raw Scene Matthew Duepner Walkabout80">
											<name>Raw Scene Matthew Duepner Walkabout</name>
											<duration>38484</duration>
											<rate>
												<ntsc>TRUE</ntsc>
												<timebase>24</timebase>
											</rate>
											<in>24423</in>
											<out>24509</out>
											<start>7102</start>
											<end>7188</end>
											<masterclipid>Raw Scene Matthew Duepner Walkabout176</masterclipid>
											<logginginfo>
												<scene/>
												<shottake/>
												<lognote/>
												<good>FALSE</good>
											</logginginfo>
											<labels>
												<label2/>
											</labels>
											<comments>
												<mastercomment1/>
												<mastercomment2/>
												<mastercomment3/>
												<mastercomment4/>
											</comments>
											<file id="YIN_2013-05-28_LG-4 "/>
											<filter>
												<effect>
													<name>Audio Levels</name>
													<effectid>audiolevels</effectid>
													<effectcategory>audiolevels</effectcategory>
													<effecttype>audiolevels</effecttype>
													<mediatype>audio</mediatype>
													<parameter>
														<name>Level</name>
														<parameterid>level</parameterid>
														<valuemin>0</valuemin>
														<valuemax>3.98109</valuemax>
														<value>1</value>
													</parameter>
												</effect>
											</filter>
											<filter>
												<effect>
													<name>Audio Pan</name>
													<effectid>audiopan</effectid>
													<effectcategory>audiopan</effectcategory>
													<effecttype>audiopan</effecttype>
													<mediatype>audio</mediatype>
													<parameter>
														<name>Pan</name>
														<parameterid>pan</parameterid>
														<valuemin>-1</valuemin>
														<valuemax>1</valuemax>
														<value>0</value>
													</parameter>
												</effect>
											</filter>
											<sourcetrack>
												<mediatype>audio</mediatype>
												<trackindex>1</trackindex>
											</sourcetrack>
											<link>
												<linkclipref>Raw Scene Matthew Duepner Walkabout78</linkclipref>
												<mediatype>video</mediatype>
												<trackindex>3</trackindex>
												<clipindex>50</clipindex>
											</link>
											<link>
												<linkclipref>Raw Scene Matthew Duepner Walkabout80</linkclipref>
												<mediatype>audio</mediatype>
												<trackindex>65</trackindex>
												<clipindex>50</clipindex>
												<groupindex>1</groupindex>
											</link>
											<link>
												<linkclipref>Raw Scene Matthew Duepner Walkabout81</linkclipref>
												<mediatype>audio</mediatype>
												<trackindex>66</trackindex>
												<clipindex>50</clipindex>
												<groupindex>1</groupindex>
											</link>
											<itemhistory>
												<uuid>94221F98-7741-4675-BE73-BC2402805546</uuid>
											</itemhistory>
										</clipitem>
										<clipitem id="Raw Scene Matthew Duepner Walkabout84">
											<name>Raw Scene Matthew Duepner Walkabout</name>
											<duration>38484</duration>
											<rate>
												<ntsc>TRUE</ntsc>
												<timebase>24</timebase>
											</rate>
											<in>26628</in>
											<out>26940</out>
											<start>7188</start>
											<end>7500</end>
											<masterclipid>Raw Scene Matthew Duepner Walkabout177</masterclipid>
											<logginginfo>
												<scene/>
												<shottake/>
												<lognote/>
												<good>FALSE</good>
											</logginginfo>
											<labels>
												<label2/>
											</labels>
											<comments>
												<mastercomment1/>
												<mastercomment2/>
												<mastercomment3/>
												<mastercomment4/>
											</comments>
											<file id="YIN_2013-05-28_LG-4 "/>
											<filter>
												<effect>
													<name>Audio Levels</name>
													<effectid>audiolevels</effectid>
													<effectcategory>audiolevels</effectcategory>
													<effecttype>audiolevels</effecttype>
													<mediatype>audio</mediatype>
													<parameter>
														<name>Level</name>
														<parameterid>level</parameterid>
														<valuemin>0</valuemin>
														<valuemax>3.98109</valuemax>
														<value>1</value>
													</parameter>
												</effect>
											</filter>
											<filter>
												<effect>
													<name>Audio Pan</name>
													<effectid>audiopan</effectid>
													<effectcategory>audiopan</effectcategory>
													<effecttype>audiopan</effecttype>
													<mediatype>audio</mediatype>
													<parameter>
														<name>Pan</name>
														<parameterid>pan</parameterid>
														<valuemin>-1</valuemin>
														<valuemax>1</valuemax>
														<value>0</value>
													</parameter>
												</effect>
											</filter>
											<sourcetrack>
												<mediatype>audio</mediatype>
												<trackindex>1</trackindex>
											</sourcetrack>
											<link>
												<linkclipref>Raw Scene Matthew Duepner Walkabout82</linkclipref>
												<mediatype>video</mediatype>
												<trackindex>3</trackindex>
												<clipindex>51</clipindex>
											</link>
											<link>
												<linkclipref>Raw Scene Matthew Duepner Walkabout84</linkclipref>
												<mediatype>audio</mediatype>
												<trackindex>65</trackindex>
												<clipindex>51</clipindex>
												<groupindex>1</groupindex>
											</link>
											<link>
												<linkclipref>Raw Scene Matthew Duepner Walkabout85</linkclipref>
												<mediatype>audio</mediatype>
												<trackindex>66</trackindex>
												<clipindex>51</clipindex>
												<groupindex>1</groupindex>
											</link>
											<itemhistory>
												<uuid>85108B0A-65F3-433D-85F2-64B9FB2C026F</uuid>
											</itemhistory>
										</clipitem>
										<clipitem id="Raw Scene Matthew Duepner Walkabout88">
											<name>Raw Scene Matthew Duepner Walkabout</name>
											<duration>38484</duration>
											<rate>
												<ntsc>TRUE</ntsc>
												<timebase>24</timebase>
											</rate>
											<in>26962</in>
											<out>27016</out>
											<start>7500</start>
											<end>7554</end>
											<masterclipid>Raw Scene Matthew Duepner Walkabout178</masterclipid>
											<logginginfo>
												<scene/>
												<shottake/>
												<lognote/>
												<good>FALSE</good>
											</logginginfo>
											<labels>
												<label2/>
											</labels>
											<comments>
												<mastercomment1/>
												<mastercomment2/>
												<mastercomment3/>
												<mastercomment4/>
											</comments>
											<file id="YIN_2013-05-28_LG-4 "/>
											<filter>
												<effect>
													<name>Audio Levels</name>
													<effectid>audiolevels</effectid>
													<effectcategory>audiolevels</effectcategory>
													<effecttype>audiolevels</effecttype>
													<mediatype>audio</mediatype>
													<parameter>
														<name>Level</name>
														<parameterid>level</parameterid>
														<valuemin>0</valuemin>
														<valuemax>3.98109</valuemax>
														<value>1</value>
													</parameter>
												</effect>
											</filter>
											<filter>
												<effect>
													<name>Audio Pan</name>
													<effectid>audiopan</effectid>
													<effectcategory>audiopan</effectcategory>
													<effecttype>audiopan</effecttype>
													<mediatype>audio</mediatype>
													<parameter>
														<name>Pan</name>
														<parameterid>pan</parameterid>
														<valuemin>-1</valuemin>
														<valuemax>1</valuemax>
														<value>0</value>
													</parameter>
												</effect>
											</filter>
											<sourcetrack>
												<mediatype>audio</mediatype>
												<trackindex>1</trackindex>
											</sourcetrack>
											<link>
												<linkclipref>Raw Scene Matthew Duepner Walkabout86</linkclipref>
												<mediatype>video</mediatype>
												<trackindex>3</trackindex>
												<clipindex>52</clipindex>
											</link>
											<link>
												<linkclipref>Raw Scene Matthew Duepner Walkabout88</linkclipref>
												<mediatype>audio</mediatype>
												<trackindex>65</trackindex>
												<clipindex>52</clipindex>
												<groupindex>1</groupindex>
											</link>
											<link>
												<linkclipref>Raw Scene Matthew Duepner Walkabout89</linkclipref>
												<mediatype>audio</mediatype>
												<trackindex>66</trackindex>
												<clipindex>52</clipindex>
												<groupindex>1</groupindex>
											</link>
											<itemhistory>
												<uuid>528D0E94-E658-4DE5-A7C1-54BDE49F9465</uuid>
											</itemhistory>
										</clipitem>
										<clipitem id="Raw Scene Matthew Duepner Walkabout92">
											<name>Raw Scene Matthew Duepner Walkabout</name>
											<duration>38484</duration>
											<rate>
												<ntsc>TRUE</ntsc>
												<timebase>24</timebase>
											</rate>
											<in>27816</in>
											<out>28338</out>
											<start>7554</start>
											<end>8076</end>
											<masterclipid>Raw Scene Matthew Duepner Walkabout179</masterclipid>
											<logginginfo>
												<scene/>
												<shottake/>
												<lognote/>
												<good>FALSE</good>
											</logginginfo>
											<labels>
												<label2/>
											</labels>
											<comments>
												<mastercomment1/>
												<mastercomment2/>
												<mastercomment3/>
												<mastercomment4/>
											</comments>
											<file id="YIN_2013-05-28_LG-4 "/>
											<filter>
												<effect>
													<name>Audio Levels</name>
													<effectid>audiolevels</effectid>
													<effectcategory>audiolevels</effectcategory>
													<effecttype>audiolevels</effecttype>
													<mediatype>audio</mediatype>
													<parameter>
														<name>Level</name>
														<parameterid>level</parameterid>
														<valuemin>0</valuemin>
														<valuemax>3.98109</valuemax>
														<value>1</value>
													</parameter>
												</effect>
											</filter>
											<filter>
												<effect>
													<name>Audio Pan</name>
													<effectid>audiopan</effectid>
													<effectcategory>audiopan</effectcategory>
													<effecttype>audiopan</effecttype>
													<mediatype>audio</mediatype>
													<parameter>
														<name>Pan</name>
														<parameterid>pan</parameterid>
														<valuemin>-1</valuemin>
														<valuemax>1</valuemax>
														<value>0</value>
													</parameter>
												</effect>
											</filter>
											<sourcetrack>
												<mediatype>audio</mediatype>
												<trackindex>1</trackindex>
											</sourcetrack>
											<link>
												<linkclipref>Raw Scene Matthew Duepner Walkabout90</linkclipref>
												<mediatype>video</mediatype>
												<trackindex>3</trackindex>
												<clipindex>53</clipindex>
											</link>
											<link>
												<linkclipref>Raw Scene Matthew Duepner Walkabout92</linkclipref>
												<mediatype>audio</mediatype>
												<trackindex>65</trackindex>
												<clipindex>53</clipindex>
												<groupindex>1</groupindex>
											</link>
											<link>
												<linkclipref>Raw Scene Matthew Duepner Walkabout93</linkclipref>
												<mediatype>audio</mediatype>
												<trackindex>66</trackindex>
												<clipindex>53</clipindex>
												<groupindex>1</groupindex>
											</link>
											<itemhistory>
												<uuid>623664C8-7356-41A8-83D9-9D05DEF9B0C9</uuid>
											</itemhistory>
										</clipitem>
										<clipitem id="Raw Scene Matthew Duepner Walkabout96">
											<name>Raw Scene Matthew Duepner Walkabout</name>
											<duration>38484</duration>
											<rate>
												<ntsc>TRUE</ntsc>
												<timebase>24</timebase>
											</rate>
											<in>28558</in>
											<out>28719</out>
											<start>8076</start>
											<end>8237</end>
											<masterclipid>Raw Scene Matthew Duepner Walkabout180</masterclipid>
											<logginginfo>
												<scene/>
												<shottake/>
												<lognote/>
												<good>FALSE</good>
											</logginginfo>
											<labels>
												<label2/>
											</labels>
											<comments>
												<mastercomment1/>
												<mastercomment2/>
												<mastercomment3/>
												<mastercomment4/>
											</comments>
											<file id="YIN_2013-05-28_LG-4 "/>
											<filter>
												<effect>
													<name>Audio Levels</name>
													<effectid>audiolevels</effectid>
													<effectcategory>audiolevels</effectcategory>
													<effecttype>audiolevels</effecttype>
													<mediatype>audio</mediatype>
													<parameter>
														<name>Level</name>
														<parameterid>level</parameterid>
														<valuemin>0</valuemin>
														<valuemax>3.98109</valuemax>
														<value>1</value>
													</parameter>
												</effect>
											</filter>
											<filter>
												<effect>
													<name>Audio Pan</name>
													<effectid>audiopan</effectid>
													<effectcategory>audiopan</effectcategory>
													<effecttype>audiopan</effecttype>
													<mediatype>audio</mediatype>
													<parameter>
														<name>Pan</name>
														<parameterid>pan</parameterid>
														<valuemin>-1</valuemin>
														<valuemax>1</valuemax>
														<value>0</value>
													</parameter>
												</effect>
											</filter>
											<sourcetrack>
												<mediatype>audio</mediatype>
												<trackindex>1</trackindex>
											</sourcetrack>
											<link>
												<linkclipref>Raw Scene Matthew Duepner Walkabout94</linkclipref>
												<mediatype>video</mediatype>
												<trackindex>3</trackindex>
												<clipindex>54</clipindex>
											</link>
											<link>
												<linkclipref>Raw Scene Matthew Duepner Walkabout96</linkclipref>
												<mediatype>audio</mediatype>
												<trackindex>65</trackindex>
												<clipindex>54</clipindex>
												<groupindex>1</groupindex>
											</link>
											<link>
												<linkclipref>Raw Scene Matthew Duepner Walkabout97</linkclipref>
												<mediatype>audio</mediatype>
												<trackindex>66</trackindex>
												<clipindex>54</clipindex>
												<groupindex>1</groupindex>
											</link>
											<itemhistory>
												<uuid>67601AFE-B55C-4255-8281-09EAA4E50B3B</uuid>
											</itemhistory>
										</clipitem>
										<clipitem id="Raw Scene Matthew Duepner Walkabout100">
											<name>Raw Scene Matthew Duepner Walkabout</name>
											<duration>38484</duration>
											<rate>
												<ntsc>TRUE</ntsc>
												<timebase>24</timebase>
											</rate>
											<in>30624</in>
											<out>30700</out>
											<start>8237</start>
											<end>8313</end>
											<masterclipid>Raw Scene Matthew Duepner Walkabout181</masterclipid>
											<logginginfo>
												<scene/>
												<shottake/>
												<lognote/>
												<good>FALSE</good>
											</logginginfo>
											<labels>
												<label2/>
											</labels>
											<comments>
												<mastercomment1/>
												<mastercomment2/>
												<mastercomment3/>
												<mastercomment4/>
											</comments>
											<file id="YIN_2013-05-28_LG-4 "/>
											<filter>
												<effect>
													<name>Audio Levels</name>
													<effectid>audiolevels</effectid>
													<effectcategory>audiolevels</effectcategory>
													<effecttype>audiolevels</effecttype>
													<mediatype>audio</mediatype>
													<parameter>
														<name>Level</name>
														<parameterid>level</parameterid>
														<valuemin>0</valuemin>
														<valuemax>3.98109</valuemax>
														<value>1</value>
													</parameter>
												</effect>
											</filter>
											<filter>
												<effect>
													<name>Audio Pan</name>
													<effectid>audiopan</effectid>
													<effectcategory>audiopan</effectcategory>
													<effecttype>audiopan</effecttype>
													<mediatype>audio</mediatype>
													<parameter>
														<name>Pan</name>
														<parameterid>pan</parameterid>
														<valuemin>-1</valuemin>
														<valuemax>1</valuemax>
														<value>0</value>
													</parameter>
												</effect>
											</filter>
											<sourcetrack>
												<mediatype>audio</mediatype>
												<trackindex>1</trackindex>
											</sourcetrack>
											<link>
												<linkclipref>Raw Scene Matthew Duepner Walkabout98</linkclipref>
												<mediatype>video</mediatype>
												<trackindex>3</trackindex>
												<clipindex>55</clipindex>
											</link>
											<link>
												<linkclipref>Raw Scene Matthew Duepner Walkabout100</linkclipref>
												<mediatype>audio</mediatype>
												<trackindex>65</trackindex>
												<clipindex>55</clipindex>
												<groupindex>1</groupindex>
											</link>
											<link>
												<linkclipref>Raw Scene Matthew Duepner Walkabout101</linkclipref>
												<mediatype>audio</mediatype>
												<trackindex>66</trackindex>
												<clipindex>55</clipindex>
												<groupindex>1</groupindex>
											</link>
											<itemhistory>
												<uuid>D31137EF-DE61-49A8-82B4-1894AE19A75C</uuid>
											</itemhistory>
										</clipitem>
										<clipitem id="Raw Scene Matthew Duepner Walkabout104">
											<name>Raw Scene Matthew Duepner Walkabout</name>
											<duration>38484</duration>
											<rate>
												<ntsc>TRUE</ntsc>
												<timebase>24</timebase>
											</rate>
											<in>30946</in>
											<out>30968</out>
											<start>8313</start>
											<end>8335</end>
											<masterclipid>Raw Scene Matthew Duepner Walkabout182</masterclipid>
											<logginginfo>
												<scene/>
												<shottake/>
												<lognote/>
												<good>FALSE</good>
											</logginginfo>
											<labels>
												<label2/>
											</labels>
											<comments>
												<mastercomment1/>
												<mastercomment2/>
												<mastercomment3/>
												<mastercomment4/>
											</comments>
											<file id="YIN_2013-05-28_LG-4 "/>
											<filter>
												<effect>
													<name>Audio Levels</name>
													<effectid>audiolevels</effectid>
													<effectcategory>audiolevels</effectcategory>
													<effecttype>audiolevels</effecttype>
													<mediatype>audio</mediatype>
													<parameter>
														<name>Level</name>
														<parameterid>level</parameterid>
														<valuemin>0</valuemin>
														<valuemax>3.98109</valuemax>
														<value>1</value>
													</parameter>
												</effect>
											</filter>
											<filter>
												<effect>
													<name>Audio Pan</name>
													<effectid>audiopan</effectid>
													<effectcategory>audiopan</effectcategory>
													<effecttype>audiopan</effecttype>
													<mediatype>audio</mediatype>
													<parameter>
														<name>Pan</name>
														<parameterid>pan</parameterid>
														<valuemin>-1</valuemin>
														<valuemax>1</valuemax>
														<value>0</value>
													</parameter>
												</effect>
											</filter>
											<sourcetrack>
												<mediatype>audio</mediatype>
												<trackindex>1</trackindex>
											</sourcetrack>
											<link>
												<linkclipref>Raw Scene Matthew Duepner Walkabout102</linkclipref>
												<mediatype>video</mediatype>
												<trackindex>3</trackindex>
												<clipindex>56</clipindex>
											</link>
											<link>
												<linkclipref>Raw Scene Matthew Duepner Walkabout104</linkclipref>
												<mediatype>audio</mediatype>
												<trackindex>65</trackindex>
												<clipindex>56</clipindex>
												<groupindex>1</groupindex>
											</link>
											<link>
												<linkclipref>Raw Scene Matthew Duepner Walkabout105</linkclipref>
												<mediatype>audio</mediatype>
												<trackindex>66</trackindex>
												<clipindex>56</clipindex>
												<groupindex>1</groupindex>
											</link>
											<itemhistory>
												<uuid>F8AC5EAE-CCF4-4126-99CC-041F2CDEBEFC</uuid>
											</itemhistory>
										</clipitem>
										<clipitem id="Raw Scene Matthew Duepner Walkabout108">
											<name>Raw Scene Matthew Duepner Walkabout</name>
											<duration>38484</duration>
											<rate>
												<ntsc>TRUE</ntsc>
												<timebase>24</timebase>
											</rate>
											<in>31032</in>
											<out>31190</out>
											<start>8335</start>
											<end>8493</end>
											<masterclipid>Raw Scene Matthew Duepner Walkabout183</masterclipid>
											<logginginfo>
												<scene/>
												<shottake/>
												<lognote/>
												<good>FALSE</good>
											</logginginfo>
											<labels>
												<label2/>
											</labels>
											<comments>
												<mastercomment1/>
												<mastercomment2/>
												<mastercomment3/>
												<mastercomment4/>
											</comments>
											<file id="YIN_2013-05-28_LG-4 "/>
											<filter>
												<effect>
													<name>Audio Levels</name>
													<effectid>audiolevels</effectid>
													<effectcategory>audiolevels</effectcategory>
													<effecttype>audiolevels</effecttype>
													<mediatype>audio</mediatype>
													<parameter>
														<name>Level</name>
														<parameterid>level</parameterid>
														<valuemin>0</valuemin>
														<valuemax>3.98109</valuemax>
														<value>1</value>
													</parameter>
												</effect>
											</filter>
											<filter>
												<effect>
													<name>Audio Pan</name>
													<effectid>audiopan</effectid>
													<effectcategory>audiopan</effectcategory>
													<effecttype>audiopan</effecttype>
													<mediatype>audio</mediatype>
													<parameter>
														<name>Pan</name>
														<parameterid>pan</parameterid>
														<valuemin>-1</valuemin>
														<valuemax>1</valuemax>
														<value>0</value>
													</parameter>
												</effect>
											</filter>
											<sourcetrack>
												<mediatype>audio</mediatype>
												<trackindex>1</trackindex>
											</sourcetrack>
											<link>
												<linkclipref>Raw Scene Matthew Duepner Walkabout106</linkclipref>
												<mediatype>video</mediatype>
												<trackindex>3</trackindex>
												<clipindex>57</clipindex>
											</link>
											<link>
												<linkclipref>Raw Scene Matthew Duepner Walkabout108</linkclipref>
												<mediatype>audio</mediatype>
												<trackindex>65</trackindex>
												<clipindex>57</clipindex>
												<groupindex>1</groupindex>
											</link>
											<link>
												<linkclipref>Raw Scene Matthew Duepner Walkabout109</linkclipref>
												<mediatype>audio</mediatype>
												<trackindex>66</trackindex>
												<clipindex>57</clipindex>
												<groupindex>1</groupindex>
											</link>
											<itemhistory>
												<uuid>C6E4A566-ECF0-4607-82D3-DE387E6730B6</uuid>
											</itemhistory>
										</clipitem>
										<clipitem id="Raw Scene Matthew Duepner Walkabout112">
											<name>Raw Scene Matthew Duepner Walkabout</name>
											<duration>38484</duration>
											<rate>
												<ntsc>TRUE</ntsc>
												<timebase>24</timebase>
											</rate>
											<in>31795</in>
											<out>31917</out>
											<start>8493</start>
											<end>8615</end>
											<masterclipid>Raw Scene Matthew Duepner Walkabout184</masterclipid>
											<logginginfo>
												<scene/>
												<shottake/>
												<lognote/>
												<good>FALSE</good>
											</logginginfo>
											<labels>
												<label2/>
											</labels>
											<comments>
												<mastercomment1/>
												<mastercomment2/>
												<mastercomment3/>
												<mastercomment4/>
											</comments>
											<file id="YIN_2013-05-28_LG-4 "/>
											<filter>
												<effect>
													<name>Audio Levels</name>
													<effectid>audiolevels</effectid>
													<effectcategory>audiolevels</effectcategory>
													<effecttype>audiolevels</effecttype>
													<mediatype>audio</mediatype>
													<parameter>
														<name>Level</name>
														<parameterid>level</parameterid>
														<valuemin>0</valuemin>
														<valuemax>3.98109</valuemax>
														<value>1</value>
													</parameter>
												</effect>
											</filter>
											<filter>
												<effect>
													<name>Audio Pan</name>
													<effectid>audiopan</effectid>
													<effectcategory>audiopan</effectcategory>
													<effecttype>audiopan</effecttype>
													<mediatype>audio</mediatype>
													<parameter>
														<name>Pan</name>
														<parameterid>pan</parameterid>
														<valuemin>-1</valuemin>
														<valuemax>1</valuemax>
														<value>0</value>
													</parameter>
												</effect>
											</filter>
											<sourcetrack>
												<mediatype>audio</mediatype>
												<trackindex>1</trackindex>
											</sourcetrack>
											<link>
												<linkclipref>Raw Scene Matthew Duepner Walkabout110</linkclipref>
												<mediatype>video</mediatype>
												<trackindex>3</trackindex>
												<clipindex>58</clipindex>
											</link>
											<link>
												<linkclipref>Raw Scene Matthew Duepner Walkabout112</linkclipref>
												<mediatype>audio</mediatype>
												<trackindex>65</trackindex>
												<clipindex>58</clipindex>
												<groupindex>1</groupindex>
											</link>
											<link>
												<linkclipref>Raw Scene Matthew Duepner Walkabout113</linkclipref>
												<mediatype>audio</mediatype>
												<trackindex>66</trackindex>
												<clipindex>58</clipindex>
												<groupindex>1</groupindex>
											</link>
											<itemhistory>
												<uuid>4147F34E-A714-4627-9CEF-D222E7E6CE58</uuid>
											</itemhistory>
										</clipitem>
										<clipitem id="Raw Scene Matthew Duepner Walkabout116">
											<name>Raw Scene Matthew Duepner Walkabout</name>
											<duration>38484</duration>
											<rate>
												<ntsc>TRUE</ntsc>
												<timebase>24</timebase>
											</rate>
											<in>32375</in>
											<out>32507</out>
											<start>8615</start>
											<end>8747</end>
											<masterclipid>Raw Scene Matthew Duepner Walkabout185</masterclipid>
											<logginginfo>
												<scene/>
												<shottake/>
												<lognote/>
												<good>FALSE</good>
											</logginginfo>
											<labels>
												<label2/>
											</labels>
											<comments>
												<mastercomment1/>
												<mastercomment2/>
												<mastercomment3/>
												<mastercomment4/>
											</comments>
											<file id="YIN_2013-05-28_LG-4 "/>
											<filter>
												<effect>
													<name>Audio Levels</name>
													<effectid>audiolevels</effectid>
													<effectcategory>audiolevels</effectcategory>
													<effecttype>audiolevels</effecttype>
													<mediatype>audio</mediatype>
													<parameter>
														<name>Level</name>
														<parameterid>level</parameterid>
														<valuemin>0</valuemin>
														<valuemax>3.98109</valuemax>
														<value>1</value>
													</parameter>
												</effect>
											</filter>
											<filter>
												<effect>
													<name>Audio Pan</name>
													<effectid>audiopan</effectid>
													<effectcategory>audiopan</effectcategory>
													<effecttype>audiopan</effecttype>
													<mediatype>audio</mediatype>
													<parameter>
														<name>Pan</name>
														<parameterid>pan</parameterid>
														<valuemin>-1</valuemin>
														<valuemax>1</valuemax>
														<value>0</value>
													</parameter>
												</effect>
											</filter>
											<sourcetrack>
												<mediatype>audio</mediatype>
												<trackindex>1</trackindex>
											</sourcetrack>
											<link>
												<linkclipref>Raw Scene Matthew Duepner Walkabout114</linkclipref>
												<mediatype>video</mediatype>
												<trackindex>3</trackindex>
												<clipindex>59</clipindex>
											</link>
											<link>
												<linkclipref>Raw Scene Matthew Duepner Walkabout116</linkclipref>
												<mediatype>audio</mediatype>
												<trackindex>65</trackindex>
												<clipindex>59</clipindex>
												<groupindex>1</groupindex>
											</link>
											<link>
												<linkclipref>Raw Scene Matthew Duepner Walkabout117</linkclipref>
												<mediatype>audio</mediatype>
												<trackindex>66</trackindex>
												<clipindex>59</clipindex>
												<groupindex>1</groupindex>
											</link>
											<itemhistory>
												<uuid>FD789947-63CF-40D1-9477-CAA39BA4BD9F</uuid>
											</itemhistory>
										</clipitem>
										<clipitem id="Raw Scene Matthew Duepner Walkabout120">
											<name>Raw Scene Matthew Duepner Walkabout</name>
											<duration>38484</duration>
											<rate>
												<ntsc>TRUE</ntsc>
												<timebase>24</timebase>
											</rate>
											<in>32997</in>
											<out>33142</out>
											<start>8747</start>
											<end>8892</end>
											<masterclipid>Raw Scene Matthew Duepner Walkabout186</masterclipid>
											<logginginfo>
												<scene/>
												<shottake/>
												<lognote/>
												<good>FALSE</good>
											</logginginfo>
											<labels>
												<label2/>
											</labels>
											<comments>
												<mastercomment1/>
												<mastercomment2/>
												<mastercomment3/>
												<mastercomment4/>
											</comments>
											<file id="YIN_2013-05-28_LG-4 "/>
											<filter>
												<effect>
													<name>Audio Levels</name>
													<effectid>audiolevels</effectid>
													<effectcategory>audiolevels</effectcategory>
													<effecttype>audiolevels</effecttype>
													<mediatype>audio</mediatype>
													<parameter>
														<name>Level</name>
														<parameterid>level</parameterid>
														<valuemin>0</valuemin>
														<valuemax>3.98109</valuemax>
														<value>1</value>
													</parameter>
												</effect>
											</filter>
											<filter>
												<effect>
													<name>Audio Pan</name>
													<effectid>audiopan</effectid>
													<effectcategory>audiopan</effectcategory>
													<effecttype>audiopan</effecttype>
													<mediatype>audio</mediatype>
													<parameter>
														<name>Pan</name>
														<parameterid>pan</parameterid>
														<valuemin>-1</valuemin>
														<valuemax>1</valuemax>
														<value>0</value>
													</parameter>
												</effect>
											</filter>
											<sourcetrack>
												<mediatype>audio</mediatype>
												<trackindex>1</trackindex>
											</sourcetrack>
											<link>
												<linkclipref>Raw Scene Matthew Duepner Walkabout118</linkclipref>
												<mediatype>video</mediatype>
												<trackindex>3</trackindex>
												<clipindex>60</clipindex>
											</link>
											<link>
												<linkclipref>Raw Scene Matthew Duepner Walkabout120</linkclipref>
												<mediatype>audio</mediatype>
												<trackindex>65</trackindex>
												<clipindex>60</clipindex>
												<groupindex>1</groupindex>
											</link>
											<link>
												<linkclipref>Raw Scene Matthew Duepner Walkabout121</linkclipref>
												<mediatype>audio</mediatype>
												<trackindex>66</trackindex>
												<clipindex>60</clipindex>
												<groupindex>1</groupindex>
											</link>
											<itemhistory>
												<uuid>DE300994-4F59-461C-B103-5843091A17AC</uuid>
											</itemhistory>
										</clipitem>
										<clipitem id="Raw Scene Matthew Duepner Walkabout124">
											<name>Raw Scene Matthew Duepner Walkabout</name>
											<duration>38484</duration>
											<rate>
												<ntsc>TRUE</ntsc>
												<timebase>24</timebase>
											</rate>
											<in>33365</in>
											<out>33603</out>
											<start>8892</start>
											<end>9130</end>
											<masterclipid>Raw Scene Matthew Duepner Walkabout187</masterclipid>
											<logginginfo>
												<scene/>
												<shottake/>
												<lognote/>
												<good>FALSE</good>
											</logginginfo>
											<labels>
												<label2/>
											</labels>
											<comments>
												<mastercomment1/>
												<mastercomment2/>
												<mastercomment3/>
												<mastercomment4/>
											</comments>
											<file id="YIN_2013-05-28_LG-4 "/>
											<filter>
												<effect>
													<name>Audio Levels</name>
													<effectid>audiolevels</effectid>
													<effectcategory>audiolevels</effectcategory>
													<effecttype>audiolevels</effecttype>
													<mediatype>audio</mediatype>
													<parameter>
														<name>Level</name>
														<parameterid>level</parameterid>
														<valuemin>0</valuemin>
														<valuemax>3.98109</valuemax>
														<value>1</value>
													</parameter>
												</effect>
											</filter>
											<filter>
												<effect>
													<name>Audio Pan</name>
													<effectid>audiopan</effectid>
													<effectcategory>audiopan</effectcategory>
													<effecttype>audiopan</effecttype>
													<mediatype>audio</mediatype>
													<parameter>
														<name>Pan</name>
														<parameterid>pan</parameterid>
														<valuemin>-1</valuemin>
														<valuemax>1</valuemax>
														<value>0</value>
													</parameter>
												</effect>
											</filter>
											<sourcetrack>
												<mediatype>audio</mediatype>
												<trackindex>1</trackindex>
											</sourcetrack>
											<link>
												<linkclipref>Raw Scene Matthew Duepner Walkabout122</linkclipref>
												<mediatype>video</mediatype>
												<trackindex>3</trackindex>
												<clipindex>61</clipindex>
											</link>
											<link>
												<linkclipref>Raw Scene Matthew Duepner Walkabout124</linkclipref>
												<mediatype>audio</mediatype>
												<trackindex>65</trackindex>
												<clipindex>61</clipindex>
												<groupindex>1</groupindex>
											</link>
											<link>
												<linkclipref>Raw Scene Matthew Duepner Walkabout125</linkclipref>
												<mediatype>audio</mediatype>
												<trackindex>66</trackindex>
												<clipindex>61</clipindex>
												<groupindex>1</groupindex>
											</link>
											<itemhistory>
												<uuid>947928C8-82E2-4A9E-85C7-515C4D32CED6</uuid>
											</itemhistory>
										</clipitem>
										<clipitem id="Raw Scene Matthew Duepner Walkabout128">
											<name>Raw Scene Matthew Duepner Walkabout</name>
											<duration>38484</duration>
											<rate>
												<ntsc>TRUE</ntsc>
												<timebase>24</timebase>
											</rate>
											<in>34172</in>
											<out>34249</out>
											<start>9130</start>
											<end>9207</end>
											<masterclipid>Raw Scene Matthew Duepner Walkabout188</masterclipid>
											<logginginfo>
												<scene/>
												<shottake/>
												<lognote/>
												<good>FALSE</good>
											</logginginfo>
											<labels>
												<label2/>
											</labels>
											<comments>
												<mastercomment1/>
												<mastercomment2/>
												<mastercomment3/>
												<mastercomment4/>
											</comments>
											<file id="YIN_2013-05-28_LG-4 "/>
											<filter>
												<effect>
													<name>Audio Levels</name>
													<effectid>audiolevels</effectid>
													<effectcategory>audiolevels</effectcategory>
													<effecttype>audiolevels</effecttype>
													<mediatype>audio</mediatype>
													<parameter>
														<name>Level</name>
														<parameterid>level</parameterid>
														<valuemin>0</valuemin>
														<valuemax>3.98109</valuemax>
														<value>1</value>
													</parameter>
												</effect>
											</filter>
											<filter>
												<effect>
													<name>Audio Pan</name>
													<effectid>audiopan</effectid>
													<effectcategory>audiopan</effectcategory>
													<effecttype>audiopan</effecttype>
													<mediatype>audio</mediatype>
													<parameter>
														<name>Pan</name>
														<parameterid>pan</parameterid>
														<valuemin>-1</valuemin>
														<valuemax>1</valuemax>
														<value>0</value>
													</parameter>
												</effect>
											</filter>
											<sourcetrack>
												<mediatype>audio</mediatype>
												<trackindex>1</trackindex>
											</sourcetrack>
											<link>
												<linkclipref>Raw Scene Matthew Duepner Walkabout126</linkclipref>
												<mediatype>video</mediatype>
												<trackindex>3</trackindex>
												<clipindex>62</clipindex>
											</link>
											<link>
												<linkclipref>Raw Scene Matthew Duepner Walkabout128</linkclipref>
												<mediatype>audio</mediatype>
												<trackindex>65</trackindex>
												<clipindex>62</clipindex>
												<groupindex>1</groupindex>
											</link>
											<link>
												<linkclipref>Raw Scene Matthew Duepner Walkabout129</linkclipref>
												<mediatype>audio</mediatype>
												<trackindex>66</trackindex>
												<clipindex>62</clipindex>
												<groupindex>1</groupindex>
											</link>
											<itemhistory>
												<uuid>35267E4C-241F-47B9-B646-302AE170A1E6</uuid>
											</itemhistory>
										</clipitem>
										<clipitem id="Raw Scene Matthew Duepner Walkabout132">
											<name>Raw Scene Matthew Duepner Walkabout</name>
											<duration>38484</duration>
											<rate>
												<ntsc>TRUE</ntsc>
												<timebase>24</timebase>
											</rate>
											<in>34380</in>
											<out>34644</out>
											<start>9207</start>
											<end>9471</end>
											<masterclipid>Raw Scene Matthew Duepner Walkabout189</masterclipid>
											<logginginfo>
												<scene/>
												<shottake/>
												<lognote/>
												<good>FALSE</good>
											</logginginfo>
											<labels>
												<label2/>
											</labels>
											<comments>
												<mastercomment1/>
												<mastercomment2/>
												<mastercomment3/>
												<mastercomment4/>
											</comments>
											<file id="YIN_2013-05-28_LG-4 "/>
											<filter>
												<effect>
													<name>Audio Levels</name>
													<effectid>audiolevels</effectid>
													<effectcategory>audiolevels</effectcategory>
													<effecttype>audiolevels</effecttype>
													<mediatype>audio</mediatype>
													<parameter>
														<name>Level</name>
														<parameterid>level</parameterid>
														<valuemin>0</valuemin>
														<valuemax>3.98109</valuemax>
														<value>1</value>
													</parameter>
												</effect>
											</filter>
											<filter>
												<effect>
													<name>Audio Pan</name>
													<effectid>audiopan</effectid>
													<effectcategory>audiopan</effectcategory>
													<effecttype>audiopan</effecttype>
													<mediatype>audio</mediatype>
													<parameter>
														<name>Pan</name>
														<parameterid>pan</parameterid>
														<valuemin>-1</valuemin>
														<valuemax>1</valuemax>
														<value>0</value>
													</parameter>
												</effect>
											</filter>
											<sourcetrack>
												<mediatype>audio</mediatype>
												<trackindex>1</trackindex>
											</sourcetrack>
											<link>
												<linkclipref>Raw Scene Matthew Duepner Walkabout130</linkclipref>
												<mediatype>video</mediatype>
												<trackindex>3</trackindex>
												<clipindex>63</clipindex>
											</link>
											<link>
												<linkclipref>Raw Scene Matthew Duepner Walkabout132</linkclipref>
												<mediatype>audio</mediatype>
												<trackindex>65</trackindex>
												<clipindex>63</clipindex>
												<groupindex>1</groupindex>
											</link>
											<link>
												<linkclipref>Raw Scene Matthew Duepner Walkabout133</linkclipref>
												<mediatype>audio</mediatype>
												<trackindex>66</trackindex>
												<clipindex>63</clipindex>
												<groupindex>1</groupindex>
											</link>
											<itemhistory>
												<uuid>D07B74B1-30A0-4A63-B17C-3A01F1825C98</uuid>
											</itemhistory>
										</clipitem>
										<clipitem id="Raw Scene Matthew Duepner Walkabout136">
											<name>Raw Scene Matthew Duepner Walkabout</name>
											<duration>38484</duration>
											<rate>
												<ntsc>TRUE</ntsc>
												<timebase>24</timebase>
											</rate>
											<in>36124</in>
											<out>36168</out>
											<start>9471</start>
											<end>9515</end>
											<masterclipid>Raw Scene Matthew Duepner Walkabout190</masterclipid>
											<logginginfo>
												<scene/>
												<shottake/>
												<lognote/>
												<good>FALSE</good>
											</logginginfo>
											<labels>
												<label2/>
											</labels>
											<comments>
												<mastercomment1/>
												<mastercomment2/>
												<mastercomment3/>
												<mastercomment4/>
											</comments>
											<file id="YIN_2013-05-28_LG-4 "/>
											<filter>
												<effect>
													<name>Audio Levels</name>
													<effectid>audiolevels</effectid>
													<effectcategory>audiolevels</effectcategory>
													<effecttype>audiolevels</effecttype>
													<mediatype>audio</mediatype>
													<parameter>
														<name>Level</name>
														<parameterid>level</parameterid>
														<valuemin>0</valuemin>
														<valuemax>3.98109</valuemax>
														<value>1</value>
													</parameter>
												</effect>
											</filter>
											<filter>
												<effect>
													<name>Audio Pan</name>
													<effectid>audiopan</effectid>
													<effectcategory>audiopan</effectcategory>
													<effecttype>audiopan</effecttype>
													<mediatype>audio</mediatype>
													<parameter>
														<name>Pan</name>
														<parameterid>pan</parameterid>
														<valuemin>-1</valuemin>
														<valuemax>1</valuemax>
														<value>0</value>
													</parameter>
												</effect>
											</filter>
											<sourcetrack>
												<mediatype>audio</mediatype>
												<trackindex>1</trackindex>
											</sourcetrack>
											<link>
												<linkclipref>Raw Scene Matthew Duepner Walkabout134</linkclipref>
												<mediatype>video</mediatype>
												<trackindex>3</trackindex>
												<clipindex>64</clipindex>
											</link>
											<link>
												<linkclipref>Raw Scene Matthew Duepner Walkabout136</linkclipref>
												<mediatype>audio</mediatype>
												<trackindex>65</trackindex>
												<clipindex>64</clipindex>
												<groupindex>1</groupindex>
											</link>
											<link>
												<linkclipref>Raw Scene Matthew Duepner Walkabout137</linkclipref>
												<mediatype>audio</mediatype>
												<trackindex>66</trackindex>
												<clipindex>64</clipindex>
												<groupindex>1</groupindex>
											</link>
											<itemhistory>
												<uuid>5164337D-3B11-4B0D-975A-56EA7CCFED1A</uuid>
											</itemhistory>
										</clipitem>
										<clipitem id="Raw Scene Matthew Duepner Walkabout140">
											<name>Raw Scene Matthew Duepner Walkabout</name>
											<duration>38484</duration>
											<rate>
												<ntsc>TRUE</ntsc>
												<timebase>24</timebase>
											</rate>
											<in>36397</in>
											<out>36474</out>
											<start>9515</start>
											<end>9592</end>
											<masterclipid>Raw Scene Matthew Duepner Walkabout191</masterclipid>
											<logginginfo>
												<scene/>
												<shottake/>
												<lognote/>
												<good>FALSE</good>
											</logginginfo>
											<labels>
												<label2/>
											</labels>
											<comments>
												<mastercomment1/>
												<mastercomment2/>
												<mastercomment3/>
												<mastercomment4/>
											</comments>
											<file id="YIN_2013-05-28_LG-4 "/>
											<filter>
												<effect>
													<name>Audio Levels</name>
													<effectid>audiolevels</effectid>
													<effectcategory>audiolevels</effectcategory>
													<effecttype>audiolevels</effecttype>
													<mediatype>audio</mediatype>
													<parameter>
														<name>Level</name>
														<parameterid>level</parameterid>
														<valuemin>0</valuemin>
														<valuemax>3.98109</valuemax>
														<value>1</value>
													</parameter>
												</effect>
											</filter>
											<filter>
												<effect>
													<name>Audio Pan</name>
													<effectid>audiopan</effectid>
													<effectcategory>audiopan</effectcategory>
													<effecttype>audiopan</effecttype>
													<mediatype>audio</mediatype>
													<parameter>
														<name>Pan</name>
														<parameterid>pan</parameterid>
														<valuemin>-1</valuemin>
														<valuemax>1</valuemax>
														<value>0</value>
													</parameter>
												</effect>
											</filter>
											<sourcetrack>
												<mediatype>audio</mediatype>
												<trackindex>1</trackindex>
											</sourcetrack>
											<link>
												<linkclipref>Raw Scene Matthew Duepner Walkabout138</linkclipref>
												<mediatype>video</mediatype>
												<trackindex>3</trackindex>
												<clipindex>65</clipindex>
											</link>
											<link>
												<linkclipref>Raw Scene Matthew Duepner Walkabout140</linkclipref>
												<mediatype>audio</mediatype>
												<trackindex>65</trackindex>
												<clipindex>65</clipindex>
												<groupindex>1</groupindex>
											</link>
											<link>
												<linkclipref>Raw Scene Matthew Duepner Walkabout141</linkclipref>
												<mediatype>audio</mediatype>
												<trackindex>66</trackindex>
												<clipindex>65</clipindex>
												<groupindex>1</groupindex>
											</link>
											<itemhistory>
												<uuid>D85DA33B-5B5E-4548-A940-EBDE0E98DFB3</uuid>
											</itemhistory>
										</clipitem>
										<clipitem id="Raw Scene Matthew Duepner Walkabout144">
											<name>Raw Scene Matthew Duepner Walkabout</name>
											<duration>38484</duration>
											<rate>
												<ntsc>TRUE</ntsc>
												<timebase>24</timebase>
											</rate>
											<in>37446</in>
											<out>37533</out>
											<start>9592</start>
											<end>9679</end>
											<masterclipid>Raw Scene Matthew Duepner Walkabout192</masterclipid>
											<logginginfo>
												<scene/>
												<shottake/>
												<lognote/>
												<good>FALSE</good>
											</logginginfo>
											<labels>
												<label2/>
											</labels>
											<comments>
												<mastercomment1/>
												<mastercomment2/>
												<mastercomment3/>
												<mastercomment4/>
											</comments>
											<file id="YIN_2013-05-28_LG-4 "/>
											<filter>
												<effect>
													<name>Audio Levels</name>
													<effectid>audiolevels</effectid>
													<effectcategory>audiolevels</effectcategory>
													<effecttype>audiolevels</effecttype>
													<mediatype>audio</mediatype>
													<parameter>
														<name>Level</name>
														<parameterid>level</parameterid>
														<valuemin>0</valuemin>
														<valuemax>3.98109</valuemax>
														<value>1</value>
													</parameter>
												</effect>
											</filter>
											<filter>
												<effect>
													<name>Audio Pan</name>
													<effectid>audiopan</effectid>
													<effectcategory>audiopan</effectcategory>
													<effecttype>audiopan</effecttype>
													<mediatype>audio</mediatype>
													<parameter>
														<name>Pan</name>
														<parameterid>pan</parameterid>
														<valuemin>-1</valuemin>
														<valuemax>1</valuemax>
														<value>0</value>
													</parameter>
												</effect>
											</filter>
											<sourcetrack>
												<mediatype>audio</mediatype>
												<trackindex>1</trackindex>
											</sourcetrack>
											<link>
												<linkclipref>Raw Scene Matthew Duepner Walkabout142</linkclipref>
												<mediatype>video</mediatype>
												<trackindex>3</trackindex>
												<clipindex>66</clipindex>
											</link>
											<link>
												<linkclipref>Raw Scene Matthew Duepner Walkabout144</linkclipref>
												<mediatype>audio</mediatype>
												<trackindex>65</trackindex>
												<clipindex>66</clipindex>
												<groupindex>1</groupindex>
											</link>
											<link>
												<linkclipref>Raw Scene Matthew Duepner Walkabout145</linkclipref>
												<mediatype>audio</mediatype>
												<trackindex>66</trackindex>
												<clipindex>66</clipindex>
												<groupindex>1</groupindex>
											</link>
											<itemhistory>
												<uuid>A8F88F50-6A07-4942-8245-2B650AD82BD2</uuid>
											</itemhistory>
										</clipitem>
										<clipitem id="Raw Scene Matthew Duepner Walkabout148">
											<name>Raw Scene Matthew Duepner Walkabout</name>
											<duration>38484</duration>
											<rate>
												<ntsc>TRUE</ntsc>
												<timebase>24</timebase>
											</rate>
											<in>37856</in>
											<out>37874</out>
											<start>9679</start>
											<end>9697</end>
											<masterclipid>Raw Scene Matthew Duepner Walkabout193</masterclipid>
											<logginginfo>
												<scene/>
												<shottake/>
												<lognote/>
												<good>FALSE</good>
											</logginginfo>
											<labels>
												<label2/>
											</labels>
											<comments>
												<mastercomment1/>
												<mastercomment2/>
												<mastercomment3/>
												<mastercomment4/>
											</comments>
											<file id="YIN_2013-05-28_LG-4 "/>
											<filter>
												<effect>
													<name>Audio Levels</name>
													<effectid>audiolevels</effectid>
													<effectcategory>audiolevels</effectcategory>
													<effecttype>audiolevels</effecttype>
													<mediatype>audio</mediatype>
													<parameter>
														<name>Level</name>
														<parameterid>level</parameterid>
														<valuemin>0</valuemin>
														<valuemax>3.98109</valuemax>
														<value>1</value>
													</parameter>
												</effect>
											</filter>
											<filter>
												<effect>
													<name>Audio Pan</name>
													<effectid>audiopan</effectid>
													<effectcategory>audiopan</effectcategory>
													<effecttype>audiopan</effecttype>
													<mediatype>audio</mediatype>
													<parameter>
														<name>Pan</name>
														<parameterid>pan</parameterid>
														<valuemin>-1</valuemin>
														<valuemax>1</valuemax>
														<value>0</value>
													</parameter>
												</effect>
											</filter>
											<sourcetrack>
												<mediatype>audio</mediatype>
												<trackindex>1</trackindex>
											</sourcetrack>
											<link>
												<linkclipref>Raw Scene Matthew Duepner Walkabout146</linkclipref>
												<mediatype>video</mediatype>
												<trackindex>3</trackindex>
												<clipindex>67</clipindex>
											</link>
											<link>
												<linkclipref>Raw Scene Matthew Duepner Walkabout148</linkclipref>
												<mediatype>audio</mediatype>
												<trackindex>65</trackindex>
												<clipindex>67</clipindex>
												<groupindex>1</groupindex>
											</link>
											<link>
												<linkclipref>Raw Scene Matthew Duepner Walkabout149</linkclipref>
												<mediatype>audio</mediatype>
												<trackindex>66</trackindex>
												<clipindex>67</clipindex>
												<groupindex>1</groupindex>
											</link>
											<itemhistory>
												<uuid>E36BDCAB-DF66-4805-83ED-9A194843CB53</uuid>
											</itemhistory>
										</clipitem>
										<clipitem id="Raw Scene Matthew Duepner Walkabout152">
											<name>Raw Scene Matthew Duepner Walkabout</name>
											<duration>38484</duration>
											<rate>
												<ntsc>TRUE</ntsc>
												<timebase>24</timebase>
											</rate>
											<in>38389</in>
											<out>38476</out>
											<start>9697</start>
											<end>9784</end>
											<masterclipid>Raw Scene Matthew Duepner Walkabout194</masterclipid>
											<logginginfo>
												<scene/>
												<shottake/>
												<lognote/>
												<good>FALSE</good>
											</logginginfo>
											<labels>
												<label2/>
											</labels>
											<comments>
												<mastercomment1/>
												<mastercomment2/>
												<mastercomment3/>
												<mastercomment4/>
											</comments>
											<file id="YIN_2013-05-28_LG-4 "/>
											<filter>
												<effect>
													<name>Audio Levels</name>
													<effectid>audiolevels</effectid>
													<effectcategory>audiolevels</effectcategory>
													<effecttype>audiolevels</effecttype>
													<mediatype>audio</mediatype>
													<parameter>
														<name>Level</name>
														<parameterid>level</parameterid>
														<valuemin>0</valuemin>
														<valuemax>3.98109</valuemax>
														<value>1</value>
													</parameter>
												</effect>
											</filter>
											<filter>
												<effect>
													<name>Audio Pan</name>
													<effectid>audiopan</effectid>
													<effectcategory>audiopan</effectcategory>
													<effecttype>audiopan</effecttype>
													<mediatype>audio</mediatype>
													<parameter>
														<name>Pan</name>
														<parameterid>pan</parameterid>
														<valuemin>-1</valuemin>
														<valuemax>1</valuemax>
														<value>0</value>
													</parameter>
												</effect>
											</filter>
											<sourcetrack>
												<mediatype>audio</mediatype>
												<trackindex>1</trackindex>
											</sourcetrack>
											<link>
												<linkclipref>Raw Scene Matthew Duepner Walkabout150</linkclipref>
												<mediatype>video</mediatype>
												<trackindex>3</trackindex>
												<clipindex>68</clipindex>
											</link>
											<link>
												<linkclipref>Raw Scene Matthew Duepner Walkabout152</linkclipref>
												<mediatype>audio</mediatype>
												<trackindex>65</trackindex>
												<clipindex>68</clipindex>
												<groupindex>1</groupindex>
											</link>
											<link>
												<linkclipref>Raw Scene Matthew Duepner Walkabout153</linkclipref>
												<mediatype>audio</mediatype>
												<trackindex>66</trackindex>
												<clipindex>68</clipindex>
												<groupindex>1</groupindex>
											</link>
											<itemhistory>
												<uuid>35D15528-05E3-40A9-A6E8-136C8B529D4F</uuid>
											</itemhistory>
										</clipitem>
										<enabled>TRUE</enabled>
										<locked>FALSE</locked>
										<outputchannelindex>1</outputchannelindex>
									</track>
									<track>
										<clipitem id="Raw B Roll Hack Manhattan Matthew Duepner's House3">
											<name>Raw B Roll Hack Manhattan Matthew Duepner's House</name>
											<duration>6617</duration>
											<rate>
												<ntsc>TRUE</ntsc>
												<timebase>24</timebase>
											</rate>
											<in>5680</in>
											<out>5776</out>
											<start>0</start>
											<end>96</end>
											<masterclipid>Raw B Roll Hack Manhattan Matthew Duepner's House1</masterclipid>
											<logginginfo>
												<scene/>
												<shottake/>
												<lognote/>
												<good>FALSE</good>
											</logginginfo>
											<labels>
												<label2/>
											</labels>
											<comments>
												<mastercomment1/>
												<mastercomment2/>
												<mastercomment3/>
												<mastercomment4/>
											</comments>
											<file id="YIN_2013-04-28_JB-1 "/>
											<filter>
												<effect>
													<name>Audio Levels</name>
													<effectid>audiolevels</effectid>
													<effectcategory>audiolevels</effectcategory>
													<effecttype>audiolevels</effecttype>
													<mediatype>audio</mediatype>
													<parameter>
														<name>Level</name>
														<parameterid>level</parameterid>
														<valuemin>0</valuemin>
														<valuemax>3.98109</valuemax>
														<value>1</value>
													</parameter>
												</effect>
											</filter>
											<filter>
												<effect>
													<name>Audio Pan</name>
													<effectid>audiopan</effectid>
													<effectcategory>audiopan</effectcategory>
													<effecttype>audiopan</effecttype>
													<mediatype>audio</mediatype>
													<parameter>
														<name>Pan</name>
														<parameterid>pan</parameterid>
														<valuemin>-1</valuemin>
														<valuemax>1</valuemax>
														<value>-0</value>
													</parameter>
												</effect>
											</filter>
											<sourcetrack>
												<mediatype>audio</mediatype>
												<trackindex>2</trackindex>
											</sourcetrack>
											<link>
												<linkclipref>Raw B Roll Hack Manhattan Matthew Duepner's House</linkclipref>
												<mediatype>video</mediatype>
												<trackindex>3</trackindex>
												<clipindex>1</clipindex>
											</link>
											<link>
												<linkclipref>Raw B Roll Hack Manhattan Matthew Duepner's House2</linkclipref>
												<mediatype>audio</mediatype>
												<trackindex>65</trackindex>
												<clipindex>1</clipindex>
												<groupindex>1</groupindex>
											</link>
											<link>
												<linkclipref>Raw B Roll Hack Manhattan Matthew Duepner's House3</linkclipref>
												<mediatype>audio</mediatype>
												<trackindex>66</trackindex>
												<clipindex>1</clipindex>
												<groupindex>1</groupindex>
											</link>
											<itemhistory>
												<uuid>71B44B68-1F79-4534-A0C0-D0B60E17E741</uuid>
											</itemhistory>
										</clipitem>
										<clipitem id="Raw B Roll Hack Manhattan Matthew Duepner's House6">
											<name>Raw B Roll Hack Manhattan Matthew Duepner's House</name>
											<duration>6617</duration>
											<rate>
												<ntsc>TRUE</ntsc>
												<timebase>24</timebase>
											</rate>
											<in>6344</in>
											<out>6443</out>
											<start>96</start>
											<end>195</end>
											<masterclipid>Raw B Roll Hack Manhattan Matthew Duepner's House1</masterclipid>
											<logginginfo>
												<scene/>
												<shottake/>
												<lognote/>
												<good>FALSE</good>
											</logginginfo>
											<labels>
												<label2/>
											</labels>
											<comments>
												<mastercomment1/>
												<mastercomment2/>
												<mastercomment3/>
												<mastercomment4/>
											</comments>
											<file id="YIN_2013-04-28_JB-1 "/>
											<filter>
												<effect>
													<name>Audio Levels</name>
													<effectid>audiolevels</effectid>
													<effectcategory>audiolevels</effectcategory>
													<effecttype>audiolevels</effecttype>
													<mediatype>audio</mediatype>
													<parameter>
														<name>Level</name>
														<parameterid>level</parameterid>
														<valuemin>0</valuemin>
														<valuemax>3.98109</valuemax>
														<value>1</value>
													</parameter>
												</effect>
											</filter>
											<filter>
												<effect>
													<name>Audio Pan</name>
													<effectid>audiopan</effectid>
													<effectcategory>audiopan</effectcategory>
													<effecttype>audiopan</effecttype>
													<mediatype>audio</mediatype>
													<parameter>
														<name>Pan</name>
														<parameterid>pan</parameterid>
														<valuemin>-1</valuemin>
														<valuemax>1</valuemax>
														<value>-0</value>
													</parameter>
												</effect>
											</filter>
											<sourcetrack>
												<mediatype>audio</mediatype>
												<trackindex>2</trackindex>
											</sourcetrack>
											<link>
												<linkclipref>Raw B Roll Hack Manhattan Matthew Duepner's House4</linkclipref>
												<mediatype>video</mediatype>
												<trackindex>3</trackindex>
												<clipindex>2</clipindex>
											</link>
											<link>
												<linkclipref>Raw B Roll Hack Manhattan Matthew Duepner's House5</linkclipref>
												<mediatype>audio</mediatype>
												<trackindex>65</trackindex>
												<clipindex>2</clipindex>
												<groupindex>1</groupindex>
											</link>
											<link>
												<linkclipref>Raw B Roll Hack Manhattan Matthew Duepner's House6</linkclipref>
												<mediatype>audio</mediatype>
												<trackindex>66</trackindex>
												<clipindex>2</clipindex>
												<groupindex>1</groupindex>
											</link>
											<itemhistory>
												<uuid>CBEEFF99-C512-4F56-8D1C-8945F27A3918</uuid>
											</itemhistory>
										</clipitem>
										<clipitem id="Raw B Roll Hack Manhattan Matthew Duepner's House9">
											<name>Raw B Roll Hack Manhattan Matthew Duepner's House</name>
											<duration>6617</duration>
											<rate>
												<ntsc>TRUE</ntsc>
												<timebase>24</timebase>
											</rate>
											<in>6530</in>
											<out>6600</out>
											<start>195</start>
											<end>265</end>
											<masterclipid>Raw B Roll Hack Manhattan Matthew Duepner's House1</masterclipid>
											<logginginfo>
												<scene/>
												<shottake/>
												<lognote/>
												<good>FALSE</good>
											</logginginfo>
											<labels>
												<label2/>
											</labels>
											<comments>
												<mastercomment1/>
												<mastercomment2/>
												<mastercomment3/>
												<mastercomment4/>
											</comments>
											<file id="YIN_2013-04-28_JB-1 "/>
											<filter>
												<effect>
													<name>Audio Levels</name>
													<effectid>audiolevels</effectid>
													<effectcategory>audiolevels</effectcategory>
													<effecttype>audiolevels</effecttype>
													<mediatype>audio</mediatype>
													<parameter>
														<name>Level</name>
														<parameterid>level</parameterid>
														<valuemin>0</valuemin>
														<valuemax>3.98109</valuemax>
														<value>1</value>
													</parameter>
												</effect>
											</filter>
											<filter>
												<effect>
													<name>Audio Pan</name>
													<effectid>audiopan</effectid>
													<effectcategory>audiopan</effectcategory>
													<effecttype>audiopan</effecttype>
													<mediatype>audio</mediatype>
													<parameter>
														<name>Pan</name>
														<parameterid>pan</parameterid>
														<valuemin>-1</valuemin>
														<valuemax>1</valuemax>
														<value>-0</value>
													</parameter>
												</effect>
											</filter>
											<sourcetrack>
												<mediatype>audio</mediatype>
												<trackindex>2</trackindex>
											</sourcetrack>
											<link>
												<linkclipref>Raw B Roll Hack Manhattan Matthew Duepner's House7</linkclipref>
												<mediatype>video</mediatype>
												<trackindex>3</trackindex>
												<clipindex>3</clipindex>
											</link>
											<link>
												<linkclipref>Raw B Roll Hack Manhattan Matthew Duepner's House8</linkclipref>
												<mediatype>audio</mediatype>
												<trackindex>65</trackindex>
												<clipindex>3</clipindex>
												<groupindex>1</groupindex>
											</link>
											<link>
												<linkclipref>Raw B Roll Hack Manhattan Matthew Duepner's House9</linkclipref>
												<mediatype>audio</mediatype>
												<trackindex>66</trackindex>
												<clipindex>3</clipindex>
												<groupindex>1</groupindex>
											</link>
											<itemhistory>
												<uuid>4457A910-17AB-41EC-9690-7A6B363F7A16</uuid>
											</itemhistory>
										</clipitem>
										<clipitem id="Raw B Roll Hack Manhattan Matthew Duepner's House12">
											<name>Raw B Roll Hack Manhattan Matthew Duepner's House</name>
											<duration>6617</duration>
											<rate>
												<ntsc>TRUE</ntsc>
												<timebase>24</timebase>
											</rate>
											<in>6074</in>
											<out>6140</out>
											<start>265</start>
											<end>331</end>
											<masterclipid>Raw B Roll Hack Manhattan Matthew Duepner's House1</masterclipid>
											<logginginfo>
												<scene/>
												<shottake/>
												<lognote/>
												<good>FALSE</good>
											</logginginfo>
											<labels>
												<label2/>
											</labels>
											<comments>
												<mastercomment1/>
												<mastercomment2/>
												<mastercomment3/>
												<mastercomment4/>
											</comments>
											<file id="YIN_2013-04-28_JB-1 "/>
											<filter>
												<effect>
													<name>Audio Levels</name>
													<effectid>audiolevels</effectid>
													<effectcategory>audiolevels</effectcategory>
													<effecttype>audiolevels</effecttype>
													<mediatype>audio</mediatype>
													<parameter>
														<name>Level</name>
														<parameterid>level</parameterid>
														<valuemin>0</valuemin>
														<valuemax>3.98109</valuemax>
														<value>1</value>
													</parameter>
												</effect>
											</filter>
											<filter>
												<effect>
													<name>Audio Pan</name>
													<effectid>audiopan</effectid>
													<effectcategory>audiopan</effectcategory>
													<effecttype>audiopan</effecttype>
													<mediatype>audio</mediatype>
													<parameter>
														<name>Pan</name>
														<parameterid>pan</parameterid>
														<valuemin>-1</valuemin>
														<valuemax>1</valuemax>
														<value>-0</value>
													</parameter>
												</effect>
											</filter>
											<sourcetrack>
												<mediatype>audio</mediatype>
												<trackindex>2</trackindex>
											</sourcetrack>
											<link>
												<linkclipref>Raw B Roll Hack Manhattan Matthew Duepner's House10</linkclipref>
												<mediatype>video</mediatype>
												<trackindex>3</trackindex>
												<clipindex>4</clipindex>
											</link>
											<link>
												<linkclipref>Raw B Roll Hack Manhattan Matthew Duepner's House11</linkclipref>
												<mediatype>audio</mediatype>
												<trackindex>65</trackindex>
												<clipindex>4</clipindex>
												<groupindex>1</groupindex>
											</link>
											<link>
												<linkclipref>Raw B Roll Hack Manhattan Matthew Duepner's House12</linkclipref>
												<mediatype>audio</mediatype>
												<trackindex>66</trackindex>
												<clipindex>4</clipindex>
												<groupindex>1</groupindex>
											</link>
											<itemhistory>
												<uuid>05DBC345-1487-4241-87F8-C77146821367</uuid>
											</itemhistory>
										</clipitem>
										<clipitem id="Raw B Roll Hack Manhattan Matthew Duepner's House15">
											<name>Raw B Roll Hack Manhattan Matthew Duepner's House</name>
											<duration>6617</duration>
											<rate>
												<ntsc>TRUE</ntsc>
												<timebase>24</timebase>
											</rate>
											<in>5559</in>
											<out>5659</out>
											<start>331</start>
											<end>431</end>
											<masterclipid>Raw B Roll Hack Manhattan Matthew Duepner's House1</masterclipid>
											<logginginfo>
												<scene/>
												<shottake/>
												<lognote/>
												<good>FALSE</good>
											</logginginfo>
											<labels>
												<label2/>
											</labels>
											<comments>
												<mastercomment1/>
												<mastercomment2/>
												<mastercomment3/>
												<mastercomment4/>
											</comments>
											<file id="YIN_2013-04-28_JB-1 "/>
											<filter>
												<effect>
													<name>Audio Levels</name>
													<effectid>audiolevels</effectid>
													<effectcategory>audiolevels</effectcategory>
													<effecttype>audiolevels</effecttype>
													<mediatype>audio</mediatype>
													<parameter>
														<name>Level</name>
														<parameterid>level</parameterid>
														<valuemin>0</valuemin>
														<valuemax>3.98109</valuemax>
														<value>1</value>
													</parameter>
												</effect>
											</filter>
											<filter>
												<effect>
													<name>Audio Pan</name>
													<effectid>audiopan</effectid>
													<effectcategory>audiopan</effectcategory>
													<effecttype>audiopan</effecttype>
													<mediatype>audio</mediatype>
													<parameter>
														<name>Pan</name>
														<parameterid>pan</parameterid>
														<valuemin>-1</valuemin>
														<valuemax>1</valuemax>
														<value>-0</value>
													</parameter>
												</effect>
											</filter>
											<sourcetrack>
												<mediatype>audio</mediatype>
												<trackindex>2</trackindex>
											</sourcetrack>
											<link>
												<linkclipref>Raw B Roll Hack Manhattan Matthew Duepner's House13</linkclipref>
												<mediatype>video</mediatype>
												<trackindex>3</trackindex>
												<clipindex>5</clipindex>
											</link>
											<link>
												<linkclipref>Raw B Roll Hack Manhattan Matthew Duepner's House14</linkclipref>
												<mediatype>audio</mediatype>
												<trackindex>65</trackindex>
												<clipindex>5</clipindex>
												<groupindex>1</groupindex>
											</link>
											<link>
												<linkclipref>Raw B Roll Hack Manhattan Matthew Duepner's House15</linkclipref>
												<mediatype>audio</mediatype>
												<trackindex>66</trackindex>
												<clipindex>5</clipindex>
												<groupindex>1</groupindex>
											</link>
											<itemhistory>
												<uuid>943D0B21-4779-4DD4-B33D-DB09ECD001D8</uuid>
											</itemhistory>
										</clipitem>
										<clipitem id="Raw B Roll Hack Manhattan Matthew Duepner's House18">
											<name>Raw B Roll Hack Manhattan Matthew Duepner's House</name>
											<duration>6617</duration>
											<rate>
												<ntsc>TRUE</ntsc>
												<timebase>24</timebase>
											</rate>
											<in>5878</in>
											<out>5953</out>
											<start>431</start>
											<end>506</end>
											<masterclipid>Raw B Roll Hack Manhattan Matthew Duepner's House1</masterclipid>
											<logginginfo>
												<scene/>
												<shottake/>
												<lognote/>
												<good>FALSE</good>
											</logginginfo>
											<labels>
												<label2/>
											</labels>
											<comments>
												<mastercomment1/>
												<mastercomment2/>
												<mastercomment3/>
												<mastercomment4/>
											</comments>
											<file id="YIN_2013-04-28_JB-1 "/>
											<filter>
												<effect>
													<name>Audio Levels</name>
													<effectid>audiolevels</effectid>
													<effectcategory>audiolevels</effectcategory>
													<effecttype>audiolevels</effecttype>
													<mediatype>audio</mediatype>
													<parameter>
														<name>Level</name>
														<parameterid>level</parameterid>
														<valuemin>0</valuemin>
														<valuemax>3.98109</valuemax>
														<value>1</value>
													</parameter>
												</effect>
											</filter>
											<filter>
												<effect>
													<name>Audio Pan</name>
													<effectid>audiopan</effectid>
													<effectcategory>audiopan</effectcategory>
													<effecttype>audiopan</effecttype>
													<mediatype>audio</mediatype>
													<parameter>
														<name>Pan</name>
														<parameterid>pan</parameterid>
														<valuemin>-1</valuemin>
														<valuemax>1</valuemax>
														<value>-0</value>
													</parameter>
												</effect>
											</filter>
											<sourcetrack>
												<mediatype>audio</mediatype>
												<trackindex>2</trackindex>
											</sourcetrack>
											<link>
												<linkclipref>Raw B Roll Hack Manhattan Matthew Duepner's House16</linkclipref>
												<mediatype>video</mediatype>
												<trackindex>3</trackindex>
												<clipindex>6</clipindex>
											</link>
											<link>
												<linkclipref>Raw B Roll Hack Manhattan Matthew Duepner's House17</linkclipref>
												<mediatype>audio</mediatype>
												<trackindex>65</trackindex>
												<clipindex>6</clipindex>
												<groupindex>1</groupindex>
											</link>
											<link>
												<linkclipref>Raw B Roll Hack Manhattan Matthew Duepner's House18</linkclipref>
												<mediatype>audio</mediatype>
												<trackindex>66</trackindex>
												<clipindex>6</clipindex>
												<groupindex>1</groupindex>
											</link>
											<itemhistory>
												<uuid>086A22B2-A6AD-4492-BF38-A8D64D58DD05</uuid>
											</itemhistory>
										</clipitem>
										<clipitem id="Raw B Roll Hack Manhattan Matthew Duepner's House21">
											<name>Raw B Roll Hack Manhattan Matthew Duepner's House</name>
											<duration>6617</duration>
											<rate>
												<ntsc>TRUE</ntsc>
												<timebase>24</timebase>
											</rate>
											<in>4745</in>
											<out>4829</out>
											<start>506</start>
											<end>590</end>
											<masterclipid>Raw B Roll Hack Manhattan Matthew Duepner's House1</masterclipid>
											<logginginfo>
												<scene/>
												<shottake/>
												<lognote/>
												<good>FALSE</good>
											</logginginfo>
											<labels>
												<label2/>
											</labels>
											<comments>
												<mastercomment1/>
												<mastercomment2/>
												<mastercomment3/>
												<mastercomment4/>
											</comments>
											<file id="YIN_2013-04-28_JB-1 "/>
											<filter>
												<effect>
													<name>Audio Levels</name>
													<effectid>audiolevels</effectid>
													<effectcategory>audiolevels</effectcategory>
													<effecttype>audiolevels</effecttype>
													<mediatype>audio</mediatype>
													<parameter>
														<name>Level</name>
														<parameterid>level</parameterid>
														<valuemin>0</valuemin>
														<valuemax>3.98109</valuemax>
														<value>1</value>
													</parameter>
												</effect>
											</filter>
											<filter>
												<effect>
													<name>Audio Pan</name>
													<effectid>audiopan</effectid>
													<effectcategory>audiopan</effectcategory>
													<effecttype>audiopan</effecttype>
													<mediatype>audio</mediatype>
													<parameter>
														<name>Pan</name>
														<parameterid>pan</parameterid>
														<valuemin>-1</valuemin>
														<valuemax>1</valuemax>
														<value>-0</value>
													</parameter>
												</effect>
											</filter>
											<sourcetrack>
												<mediatype>audio</mediatype>
												<trackindex>2</trackindex>
											</sourcetrack>
											<link>
												<linkclipref>Raw B Roll Hack Manhattan Matthew Duepner's House19</linkclipref>
												<mediatype>video</mediatype>
												<trackindex>3</trackindex>
												<clipindex>7</clipindex>
											</link>
											<link>
												<linkclipref>Raw B Roll Hack Manhattan Matthew Duepner's House20</linkclipref>
												<mediatype>audio</mediatype>
												<trackindex>65</trackindex>
												<clipindex>7</clipindex>
												<groupindex>1</groupindex>
											</link>
											<link>
												<linkclipref>Raw B Roll Hack Manhattan Matthew Duepner's House21</linkclipref>
												<mediatype>audio</mediatype>
												<trackindex>66</trackindex>
												<clipindex>7</clipindex>
												<groupindex>1</groupindex>
											</link>
											<itemhistory>
												<uuid>6632E47E-4BF6-4FD2-AE7E-351EAF6E7D92</uuid>
											</itemhistory>
										</clipitem>
										<clipitem id="Raw B Roll Hack Manhattan Matthew Duepner's House24">
											<name>Raw B Roll Hack Manhattan Matthew Duepner's House</name>
											<duration>6617</duration>
											<rate>
												<ntsc>TRUE</ntsc>
												<timebase>24</timebase>
											</rate>
											<in>3527</in>
											<out>3604</out>
											<start>590</start>
											<end>667</end>
											<masterclipid>Raw B Roll Hack Manhattan Matthew Duepner's House1</masterclipid>
											<logginginfo>
												<scene/>
												<shottake/>
												<lognote/>
												<good>FALSE</good>
											</logginginfo>
											<labels>
												<label2/>
											</labels>
											<comments>
												<mastercomment1/>
												<mastercomment2/>
												<mastercomment3/>
												<mastercomment4/>
											</comments>
											<file id="YIN_2013-04-28_JB-1 "/>
											<filter>
												<effect>
													<name>Audio Levels</name>
													<effectid>audiolevels</effectid>
													<effectcategory>audiolevels</effectcategory>
													<effecttype>audiolevels</effecttype>
													<mediatype>audio</mediatype>
													<parameter>
														<name>Level</name>
														<parameterid>level</parameterid>
														<valuemin>0</valuemin>
														<valuemax>3.98109</valuemax>
														<value>1</value>
													</parameter>
												</effect>
											</filter>
											<filter>
												<effect>
													<name>Audio Pan</name>
													<effectid>audiopan</effectid>
													<effectcategory>audiopan</effectcategory>
													<effecttype>audiopan</effecttype>
													<mediatype>audio</mediatype>
													<parameter>
														<name>Pan</name>
														<parameterid>pan</parameterid>
														<valuemin>-1</valuemin>
														<valuemax>1</valuemax>
														<value>-0</value>
													</parameter>
												</effect>
											</filter>
											<sourcetrack>
												<mediatype>audio</mediatype>
												<trackindex>2</trackindex>
											</sourcetrack>
											<link>
												<linkclipref>Raw B Roll Hack Manhattan Matthew Duepner's House22</linkclipref>
												<mediatype>video</mediatype>
												<trackindex>3</trackindex>
												<clipindex>8</clipindex>
											</link>
											<link>
												<linkclipref>Raw B Roll Hack Manhattan Matthew Duepner's House23</linkclipref>
												<mediatype>audio</mediatype>
												<trackindex>65</trackindex>
												<clipindex>8</clipindex>
												<groupindex>1</groupindex>
											</link>
											<link>
												<linkclipref>Raw B Roll Hack Manhattan Matthew Duepner's House24</linkclipref>
												<mediatype>audio</mediatype>
												<trackindex>66</trackindex>
												<clipindex>8</clipindex>
												<groupindex>1</groupindex>
											</link>
											<itemhistory>
												<uuid>01F093F0-05B1-45EF-BB71-A4541B3733F2</uuid>
											</itemhistory>
										</clipitem>
										<clipitem id="Raw B Roll Hack Manhattan Matthew Duepner's House27">
											<name>Raw B Roll Hack Manhattan Matthew Duepner's House</name>
											<duration>6617</duration>
											<rate>
												<ntsc>TRUE</ntsc>
												<timebase>24</timebase>
											</rate>
											<in>2432</in>
											<out>2555</out>
											<start>667</start>
											<end>790</end>
											<masterclipid>Raw B Roll Hack Manhattan Matthew Duepner's House1</masterclipid>
											<logginginfo>
												<scene/>
												<shottake/>
												<lognote/>
												<good>FALSE</good>
											</logginginfo>
											<labels>
												<label2/>
											</labels>
											<comments>
												<mastercomment1/>
												<mastercomment2/>
												<mastercomment3/>
												<mastercomment4/>
											</comments>
											<file id="YIN_2013-04-28_JB-1 "/>
											<filter>
												<effect>
													<name>Audio Levels</name>
													<effectid>audiolevels</effectid>
													<effectcategory>audiolevels</effectcategory>
													<effecttype>audiolevels</effecttype>
													<mediatype>audio</mediatype>
													<parameter>
														<name>Level</name>
														<parameterid>level</parameterid>
														<valuemin>0</valuemin>
														<valuemax>3.98109</valuemax>
														<value>1</value>
													</parameter>
												</effect>
											</filter>
											<filter>
												<effect>
													<name>Audio Pan</name>
													<effectid>audiopan</effectid>
													<effectcategory>audiopan</effectcategory>
													<effecttype>audiopan</effecttype>
													<mediatype>audio</mediatype>
													<parameter>
														<name>Pan</name>
														<parameterid>pan</parameterid>
														<valuemin>-1</valuemin>
														<valuemax>1</valuemax>
														<value>-0</value>
													</parameter>
												</effect>
											</filter>
											<sourcetrack>
												<mediatype>audio</mediatype>
												<trackindex>2</trackindex>
											</sourcetrack>
											<link>
												<linkclipref>Raw B Roll Hack Manhattan Matthew Duepner's House25</linkclipref>
												<mediatype>video</mediatype>
												<trackindex>3</trackindex>
												<clipindex>9</clipindex>
											</link>
											<link>
												<linkclipref>Raw B Roll Hack Manhattan Matthew Duepner's House26</linkclipref>
												<mediatype>audio</mediatype>
												<trackindex>65</trackindex>
												<clipindex>9</clipindex>
												<groupindex>1</groupindex>
											</link>
											<link>
												<linkclipref>Raw B Roll Hack Manhattan Matthew Duepner's House27</linkclipref>
												<mediatype>audio</mediatype>
												<trackindex>66</trackindex>
												<clipindex>9</clipindex>
												<groupindex>1</groupindex>
											</link>
											<itemhistory>
												<uuid>7B9DE4AF-9E4A-48FB-AC11-3B0347AD7C3A</uuid>
											</itemhistory>
										</clipitem>
										<clipitem id="Raw B Roll Hack Manhattan Matthew Duepner's House30">
											<name>Raw B Roll Hack Manhattan Matthew Duepner's House</name>
											<duration>6617</duration>
											<rate>
												<ntsc>TRUE</ntsc>
												<timebase>24</timebase>
											</rate>
											<in>2733</in>
											<out>2884</out>
											<start>790</start>
											<end>941</end>
											<masterclipid>Raw B Roll Hack Manhattan Matthew Duepner's House1</masterclipid>
											<logginginfo>
												<scene/>
												<shottake/>
												<lognote/>
												<good>FALSE</good>
											</logginginfo>
											<labels>
												<label2/>
											</labels>
											<comments>
												<mastercomment1/>
												<mastercomment2/>
												<mastercomment3/>
												<mastercomment4/>
											</comments>
											<file id="YIN_2013-04-28_JB-1 "/>
											<filter>
												<effect>
													<name>Audio Levels</name>
													<effectid>audiolevels</effectid>
													<effectcategory>audiolevels</effectcategory>
													<effecttype>audiolevels</effecttype>
													<mediatype>audio</mediatype>
													<parameter>
														<name>Level</name>
														<parameterid>level</parameterid>
														<valuemin>0</valuemin>
														<valuemax>3.98109</valuemax>
														<value>1</value>
													</parameter>
												</effect>
											</filter>
											<filter>
												<effect>
													<name>Audio Pan</name>
													<effectid>audiopan</effectid>
													<effectcategory>audiopan</effectcategory>
													<effecttype>audiopan</effecttype>
													<mediatype>audio</mediatype>
													<parameter>
														<name>Pan</name>
														<parameterid>pan</parameterid>
														<valuemin>-1</valuemin>
														<valuemax>1</valuemax>
														<value>-0</value>
													</parameter>
												</effect>
											</filter>
											<sourcetrack>
												<mediatype>audio</mediatype>
												<trackindex>2</trackindex>
											</sourcetrack>
											<link>
												<linkclipref>Raw B Roll Hack Manhattan Matthew Duepner's House28</linkclipref>
												<mediatype>video</mediatype>
												<trackindex>3</trackindex>
												<clipindex>10</clipindex>
											</link>
											<link>
												<linkclipref>Raw B Roll Hack Manhattan Matthew Duepner's House29</linkclipref>
												<mediatype>audio</mediatype>
												<trackindex>65</trackindex>
												<clipindex>10</clipindex>
												<groupindex>1</groupindex>
											</link>
											<link>
												<linkclipref>Raw B Roll Hack Manhattan Matthew Duepner's House30</linkclipref>
												<mediatype>audio</mediatype>
												<trackindex>66</trackindex>
												<clipindex>10</clipindex>
												<groupindex>1</groupindex>
											</link>
											<itemhistory>
												<uuid>45059CFD-B823-4078-B06C-3245C71545D4</uuid>
											</itemhistory>
										</clipitem>
										<clipitem id="Raw B Roll Hack Manhattan Matthew Duepner's House33">
											<name>Raw B Roll Hack Manhattan Matthew Duepner's House</name>
											<duration>6617</duration>
											<rate>
												<ntsc>TRUE</ntsc>
												<timebase>24</timebase>
											</rate>
											<in>5318</in>
											<out>5486</out>
											<start>941</start>
											<end>1109</end>
											<masterclipid>Raw B Roll Hack Manhattan Matthew Duepner's House1</masterclipid>
											<logginginfo>
												<scene/>
												<shottake/>
												<lognote/>
												<good>FALSE</good>
											</logginginfo>
											<labels>
												<label2/>
											</labels>
											<comments>
												<mastercomment1/>
												<mastercomment2/>
												<mastercomment3/>
												<mastercomment4/>
											</comments>
											<file id="YIN_2013-04-28_JB-1 "/>
											<filter>
												<effect>
													<name>Audio Levels</name>
													<effectid>audiolevels</effectid>
													<effectcategory>audiolevels</effectcategory>
													<effecttype>audiolevels</effecttype>
													<mediatype>audio</mediatype>
													<parameter>
														<name>Level</name>
														<parameterid>level</parameterid>
														<valuemin>0</valuemin>
														<valuemax>3.98109</valuemax>
														<value>1</value>
													</parameter>
												</effect>
											</filter>
											<filter>
												<effect>
													<name>Audio Pan</name>
													<effectid>audiopan</effectid>
													<effectcategory>audiopan</effectcategory>
													<effecttype>audiopan</effecttype>
													<mediatype>audio</mediatype>
													<parameter>
														<name>Pan</name>
														<parameterid>pan</parameterid>
														<valuemin>-1</valuemin>
														<valuemax>1</valuemax>
														<value>-0</value>
													</parameter>
												</effect>
											</filter>
											<sourcetrack>
												<mediatype>audio</mediatype>
												<trackindex>2</trackindex>
											</sourcetrack>
											<link>
												<linkclipref>Raw B Roll Hack Manhattan Matthew Duepner's House31</linkclipref>
												<mediatype>video</mediatype>
												<trackindex>3</trackindex>
												<clipindex>11</clipindex>
											</link>
											<link>
												<linkclipref>Raw B Roll Hack Manhattan Matthew Duepner's House32</linkclipref>
												<mediatype>audio</mediatype>
												<trackindex>65</trackindex>
												<clipindex>11</clipindex>
												<groupindex>1</groupindex>
											</link>
											<link>
												<linkclipref>Raw B Roll Hack Manhattan Matthew Duepner's House33</linkclipref>
												<mediatype>audio</mediatype>
												<trackindex>66</trackindex>
												<clipindex>11</clipindex>
												<groupindex>1</groupindex>
											</link>
											<itemhistory>
												<uuid>32E855C5-A9C6-4676-8258-67959F9C1C62</uuid>
											</itemhistory>
										</clipitem>
										<clipitem id="Raw B Roll Hack Manhattan Matthew Duepner's House36">
											<name>Raw B Roll Hack Manhattan Matthew Duepner's House</name>
											<duration>6617</duration>
											<rate>
												<ntsc>TRUE</ntsc>
												<timebase>24</timebase>
											</rate>
											<in>2948</in>
											<out>3117</out>
											<start>1109</start>
											<end>1278</end>
											<masterclipid>Raw B Roll Hack Manhattan Matthew Duepner's House1</masterclipid>
											<logginginfo>
												<scene/>
												<shottake/>
												<lognote/>
												<good>FALSE</good>
											</logginginfo>
											<labels>
												<label2/>
											</labels>
											<comments>
												<mastercomment1/>
												<mastercomment2/>
												<mastercomment3/>
												<mastercomment4/>
											</comments>
											<file id="YIN_2013-04-28_JB-1 "/>
											<filter>
												<effect>
													<name>Audio Levels</name>
													<effectid>audiolevels</effectid>
													<effectcategory>audiolevels</effectcategory>
													<effecttype>audiolevels</effecttype>
													<mediatype>audio</mediatype>
													<parameter>
														<name>Level</name>
														<parameterid>level</parameterid>
														<valuemin>0</valuemin>
														<valuemax>3.98109</valuemax>
														<value>1</value>
													</parameter>
												</effect>
											</filter>
											<filter>
												<effect>
													<name>Audio Pan</name>
													<effectid>audiopan</effectid>
													<effectcategory>audiopan</effectcategory>
													<effecttype>audiopan</effecttype>
													<mediatype>audio</mediatype>
													<parameter>
														<name>Pan</name>
														<parameterid>pan</parameterid>
														<valuemin>-1</valuemin>
														<valuemax>1</valuemax>
														<value>-0</value>
													</parameter>
												</effect>
											</filter>
											<sourcetrack>
												<mediatype>audio</mediatype>
												<trackindex>2</trackindex>
											</sourcetrack>
											<link>
												<linkclipref>Raw B Roll Hack Manhattan Matthew Duepner's House34</linkclipref>
												<mediatype>video</mediatype>
												<trackindex>3</trackindex>
												<clipindex>12</clipindex>
											</link>
											<link>
												<linkclipref>Raw B Roll Hack Manhattan Matthew Duepner's House35</linkclipref>
												<mediatype>audio</mediatype>
												<trackindex>65</trackindex>
												<clipindex>12</clipindex>
												<groupindex>1</groupindex>
											</link>
											<link>
												<linkclipref>Raw B Roll Hack Manhattan Matthew Duepner's House36</linkclipref>
												<mediatype>audio</mediatype>
												<trackindex>66</trackindex>
												<clipindex>12</clipindex>
												<groupindex>1</groupindex>
											</link>
											<itemhistory>
												<uuid>0DD0B8DA-8D89-47D1-86E4-968173684D77</uuid>
											</itemhistory>
										</clipitem>
										<clipitem id="Raw B Roll Hack Manhattan Matthew Duepner's House39">
											<name>Raw B Roll Hack Manhattan Matthew Duepner's House</name>
											<duration>6617</duration>
											<rate>
												<ntsc>TRUE</ntsc>
												<timebase>24</timebase>
											</rate>
											<in>4099</in>
											<out>4179</out>
											<start>1278</start>
											<end>1358</end>
											<masterclipid>Raw B Roll Hack Manhattan Matthew Duepner's House1</masterclipid>
											<logginginfo>
												<scene/>
												<shottake/>
												<lognote/>
												<good>FALSE</good>
											</logginginfo>
											<labels>
												<label2/>
											</labels>
											<comments>
												<mastercomment1/>
												<mastercomment2/>
												<mastercomment3/>
												<mastercomment4/>
											</comments>
											<file id="YIN_2013-04-28_JB-1 "/>
											<filter>
												<effect>
													<name>Audio Levels</name>
													<effectid>audiolevels</effectid>
													<effectcategory>audiolevels</effectcategory>
													<effecttype>audiolevels</effecttype>
													<mediatype>audio</mediatype>
													<parameter>
														<name>Level</name>
														<parameterid>level</parameterid>
														<valuemin>0</valuemin>
														<valuemax>3.98109</valuemax>
														<value>1</value>
													</parameter>
												</effect>
											</filter>
											<filter>
												<effect>
													<name>Audio Pan</name>
													<effectid>audiopan</effectid>
													<effectcategory>audiopan</effectcategory>
													<effecttype>audiopan</effecttype>
													<mediatype>audio</mediatype>
													<parameter>
														<name>Pan</name>
														<parameterid>pan</parameterid>
														<valuemin>-1</valuemin>
														<valuemax>1</valuemax>
														<value>-0</value>
													</parameter>
												</effect>
											</filter>
											<sourcetrack>
												<mediatype>audio</mediatype>
												<trackindex>2</trackindex>
											</sourcetrack>
											<link>
												<linkclipref>Raw B Roll Hack Manhattan Matthew Duepner's House37</linkclipref>
												<mediatype>video</mediatype>
												<trackindex>3</trackindex>
												<clipindex>13</clipindex>
											</link>
											<link>
												<linkclipref>Raw B Roll Hack Manhattan Matthew Duepner's House38</linkclipref>
												<mediatype>audio</mediatype>
												<trackindex>65</trackindex>
												<clipindex>13</clipindex>
												<groupindex>1</groupindex>
											</link>
											<link>
												<linkclipref>Raw B Roll Hack Manhattan Matthew Duepner's House39</linkclipref>
												<mediatype>audio</mediatype>
												<trackindex>66</trackindex>
												<clipindex>13</clipindex>
												<groupindex>1</groupindex>
											</link>
											<itemhistory>
												<uuid>B1962134-1BED-4707-9902-F34BD914E294</uuid>
											</itemhistory>
										</clipitem>
										<clipitem id="Raw B Roll Hack Manhattan Matthew Duepner's House42">
											<name>Raw B Roll Hack Manhattan Matthew Duepner's House</name>
											<duration>6617</duration>
											<rate>
												<ntsc>TRUE</ntsc>
												<timebase>24</timebase>
											</rate>
											<in>4305</in>
											<out>4396</out>
											<start>1358</start>
											<end>1449</end>
											<masterclipid>Raw B Roll Hack Manhattan Matthew Duepner's House1</masterclipid>
											<logginginfo>
												<scene/>
												<shottake/>
												<lognote/>
												<good>FALSE</good>
											</logginginfo>
											<labels>
												<label2/>
											</labels>
											<comments>
												<mastercomment1/>
												<mastercomment2/>
												<mastercomment3/>
												<mastercomment4/>
											</comments>
											<file id="YIN_2013-04-28_JB-1 "/>
											<filter>
												<effect>
													<name>Audio Levels</name>
													<effectid>audiolevels</effectid>
													<effectcategory>audiolevels</effectcategory>
													<effecttype>audiolevels</effecttype>
													<mediatype>audio</mediatype>
													<parameter>
														<name>Level</name>
														<parameterid>level</parameterid>
														<valuemin>0</valuemin>
														<valuemax>3.98109</valuemax>
														<value>1</value>
													</parameter>
												</effect>
											</filter>
											<filter>
												<effect>
													<name>Audio Pan</name>
													<effectid>audiopan</effectid>
													<effectcategory>audiopan</effectcategory>
													<effecttype>audiopan</effecttype>
													<mediatype>audio</mediatype>
													<parameter>
														<name>Pan</name>
														<parameterid>pan</parameterid>
														<valuemin>-1</valuemin>
														<valuemax>1</valuemax>
														<value>-0</value>
													</parameter>
												</effect>
											</filter>
											<sourcetrack>
												<mediatype>audio</mediatype>
												<trackindex>2</trackindex>
											</sourcetrack>
											<link>
												<linkclipref>Raw B Roll Hack Manhattan Matthew Duepner's House40</linkclipref>
												<mediatype>video</mediatype>
												<trackindex>3</trackindex>
												<clipindex>14</clipindex>
											</link>
											<link>
												<linkclipref>Raw B Roll Hack Manhattan Matthew Duepner's House41</linkclipref>
												<mediatype>audio</mediatype>
												<trackindex>65</trackindex>
												<clipindex>14</clipindex>
												<groupindex>1</groupindex>
											</link>
											<link>
												<linkclipref>Raw B Roll Hack Manhattan Matthew Duepner's House42</linkclipref>
												<mediatype>audio</mediatype>
												<trackindex>66</trackindex>
												<clipindex>14</clipindex>
												<groupindex>1</groupindex>
											</link>
											<itemhistory>
												<uuid>69300C08-948F-4BA9-94A3-6B30F0EDE27D</uuid>
											</itemhistory>
										</clipitem>
										<clipitem id="Raw B Roll Hack Manhattan Matthew Duepner's House45">
											<name>Raw B Roll Hack Manhattan Matthew Duepner's House</name>
											<duration>6617</duration>
											<rate>
												<ntsc>TRUE</ntsc>
												<timebase>24</timebase>
											</rate>
											<in>4585</in>
											<out>4685</out>
											<start>1449</start>
											<end>1549</end>
											<masterclipid>Raw B Roll Hack Manhattan Matthew Duepner's House1</masterclipid>
											<logginginfo>
												<scene/>
												<shottake/>
												<lognote/>
												<good>FALSE</good>
											</logginginfo>
											<labels>
												<label2/>
											</labels>
											<comments>
												<mastercomment1/>
												<mastercomment2/>
												<mastercomment3/>
												<mastercomment4/>
											</comments>
											<file id="YIN_2013-04-28_JB-1 "/>
											<filter>
												<effect>
													<name>Audio Levels</name>
													<effectid>audiolevels</effectid>
													<effectcategory>audiolevels</effectcategory>
													<effecttype>audiolevels</effecttype>
													<mediatype>audio</mediatype>
													<parameter>
														<name>Level</name>
														<parameterid>level</parameterid>
														<valuemin>0</valuemin>
														<valuemax>3.98109</valuemax>
														<value>1</value>
													</parameter>
												</effect>
											</filter>
											<filter>
												<effect>
													<name>Audio Pan</name>
													<effectid>audiopan</effectid>
													<effectcategory>audiopan</effectcategory>
													<effecttype>audiopan</effecttype>
													<mediatype>audio</mediatype>
													<parameter>
														<name>Pan</name>
														<parameterid>pan</parameterid>
														<valuemin>-1</valuemin>
														<valuemax>1</valuemax>
														<value>-0</value>
													</parameter>
												</effect>
											</filter>
											<sourcetrack>
												<mediatype>audio</mediatype>
												<trackindex>2</trackindex>
											</sourcetrack>
											<link>
												<linkclipref>Raw B Roll Hack Manhattan Matthew Duepner's House43</linkclipref>
												<mediatype>video</mediatype>
												<trackindex>3</trackindex>
												<clipindex>15</clipindex>
											</link>
											<link>
												<linkclipref>Raw B Roll Hack Manhattan Matthew Duepner's House44</linkclipref>
												<mediatype>audio</mediatype>
												<trackindex>65</trackindex>
												<clipindex>15</clipindex>
												<groupindex>1</groupindex>
											</link>
											<link>
												<linkclipref>Raw B Roll Hack Manhattan Matthew Duepner's House45</linkclipref>
												<mediatype>audio</mediatype>
												<trackindex>66</trackindex>
												<clipindex>15</clipindex>
												<groupindex>1</groupindex>
											</link>
											<itemhistory>
												<uuid>BA099931-7F78-4D95-888B-97364C93760E</uuid>
											</itemhistory>
										</clipitem>
										<clipitem id="Raw Scene Matthew Duepner Printing3">
											<name>Raw Scene Matthew Duepner Printing</name>
											<duration>28553</duration>
											<rate>
												<ntsc>TRUE</ntsc>
												<timebase>24</timebase>
											</rate>
											<in>25118</in>
											<out>25193</out>
											<start>1549</start>
											<end>1624</end>
											<masterclipid>Raw Scene Matthew Duepner Printing60</masterclipid>
											<logginginfo>
												<scene/>
												<shottake/>
												<lognote/>
												<good>FALSE</good>
											</logginginfo>
											<labels>
												<label2/>
											</labels>
											<comments>
												<mastercomment1/>
												<mastercomment2/>
												<mastercomment3/>
												<mastercomment4/>
											</comments>
											<file id="YIN_2013-05-28_LG-6 "/>
											<filter>
												<effect>
													<name>Audio Levels</name>
													<effectid>audiolevels</effectid>
													<effectcategory>audiolevels</effectcategory>
													<effecttype>audiolevels</effecttype>
													<mediatype>audio</mediatype>
													<parameter>
														<name>Level</name>
														<parameterid>level</parameterid>
														<valuemin>0</valuemin>
														<valuemax>3.98109</valuemax>
														<value>1</value>
													</parameter>
												</effect>
											</filter>
											<filter>
												<effect>
													<name>Audio Pan</name>
													<effectid>audiopan</effectid>
													<effectcategory>audiopan</effectcategory>
													<effecttype>audiopan</effecttype>
													<mediatype>audio</mediatype>
													<parameter>
														<name>Pan</name>
														<parameterid>pan</parameterid>
														<valuemin>-1</valuemin>
														<valuemax>1</valuemax>
														<value>-0</value>
													</parameter>
												</effect>
											</filter>
											<sourcetrack>
												<mediatype>audio</mediatype>
												<trackindex>2</trackindex>
											</sourcetrack>
											<link>
												<linkclipref>Raw Scene Matthew Duepner Printing</linkclipref>
												<mediatype>video</mediatype>
												<trackindex>3</trackindex>
												<clipindex>16</clipindex>
											</link>
											<link>
												<linkclipref>Raw Scene Matthew Duepner Printing2</linkclipref>
												<mediatype>audio</mediatype>
												<trackindex>65</trackindex>
												<clipindex>16</clipindex>
												<groupindex>1</groupindex>
											</link>
											<link>
												<linkclipref>Raw Scene Matthew Duepner Printing3</linkclipref>
												<mediatype>audio</mediatype>
												<trackindex>66</trackindex>
												<clipindex>16</clipindex>
												<groupindex>1</groupindex>
											</link>
											<itemhistory>
												<uuid>7DA95D91-47F3-4B19-917F-C8A5F4DB9E94</uuid>
											</itemhistory>
										</clipitem>
										<clipitem id="Raw B Roll Hack Manhattan Matthew Duepner's House48">
											<name>Raw B Roll Hack Manhattan Matthew Duepner's House</name>
											<duration>6617</duration>
											<rate>
												<ntsc>TRUE</ntsc>
												<timebase>24</timebase>
											</rate>
											<in>3931</in>
											<out>4052</out>
											<start>1624</start>
											<end>1745</end>
											<masterclipid>Raw B Roll Hack Manhattan Matthew Duepner's House1</masterclipid>
											<logginginfo>
												<scene/>
												<shottake/>
												<lognote/>
												<good>FALSE</good>
											</logginginfo>
											<labels>
												<label2/>
											</labels>
											<comments>
												<mastercomment1/>
												<mastercomment2/>
												<mastercomment3/>
												<mastercomment4/>
											</comments>
											<file id="YIN_2013-04-28_JB-1 "/>
											<filter>
												<effect>
													<name>Audio Levels</name>
													<effectid>audiolevels</effectid>
													<effectcategory>audiolevels</effectcategory>
													<effecttype>audiolevels</effecttype>
													<mediatype>audio</mediatype>
													<parameter>
														<name>Level</name>
														<parameterid>level</parameterid>
														<valuemin>0</valuemin>
														<valuemax>3.98109</valuemax>
														<value>1</value>
													</parameter>
												</effect>
											</filter>
											<filter>
												<effect>
													<name>Audio Pan</name>
													<effectid>audiopan</effectid>
													<effectcategory>audiopan</effectcategory>
													<effecttype>audiopan</effecttype>
													<mediatype>audio</mediatype>
													<parameter>
														<name>Pan</name>
														<parameterid>pan</parameterid>
														<valuemin>-1</valuemin>
														<valuemax>1</valuemax>
														<value>-0</value>
													</parameter>
												</effect>
											</filter>
											<sourcetrack>
												<mediatype>audio</mediatype>
												<trackindex>2</trackindex>
											</sourcetrack>
											<link>
												<linkclipref>Raw B Roll Hack Manhattan Matthew Duepner's House46</linkclipref>
												<mediatype>video</mediatype>
												<trackindex>3</trackindex>
												<clipindex>17</clipindex>
											</link>
											<link>
												<linkclipref>Raw B Roll Hack Manhattan Matthew Duepner's House47</linkclipref>
												<mediatype>audio</mediatype>
												<trackindex>65</trackindex>
												<clipindex>17</clipindex>
												<groupindex>1</groupindex>
											</link>
											<link>
												<linkclipref>Raw B Roll Hack Manhattan Matthew Duepner's House48</linkclipref>
												<mediatype>audio</mediatype>
												<trackindex>66</trackindex>
												<clipindex>17</clipindex>
												<groupindex>1</groupindex>
											</link>
											<itemhistory>
												<uuid>93948258-F290-45FF-8DF6-CAFB8EC8ED22</uuid>
											</itemhistory>
										</clipitem>
										<clipitem id="Raw B Roll Hack Manhattan Matthew Duepner's House51">
											<name>Raw B Roll Hack Manhattan Matthew Duepner's House</name>
											<duration>6617</duration>
											<rate>
												<ntsc>TRUE</ntsc>
												<timebase>24</timebase>
											</rate>
											<in>5073</in>
											<out>5227</out>
											<start>1745</start>
											<end>1899</end>
											<masterclipid>Raw B Roll Hack Manhattan Matthew Duepner's House1</masterclipid>
											<logginginfo>
												<scene/>
												<shottake/>
												<lognote/>
												<good>FALSE</good>
											</logginginfo>
											<labels>
												<label2/>
											</labels>
											<comments>
												<mastercomment1/>
												<mastercomment2/>
												<mastercomment3/>
												<mastercomment4/>
											</comments>
											<file id="YIN_2013-04-28_JB-1 "/>
											<filter>
												<effect>
													<name>Audio Levels</name>
													<effectid>audiolevels</effectid>
													<effectcategory>audiolevels</effectcategory>
													<effecttype>audiolevels</effecttype>
													<mediatype>audio</mediatype>
													<parameter>
														<name>Level</name>
														<parameterid>level</parameterid>
														<valuemin>0</valuemin>
														<valuemax>3.98109</valuemax>
														<value>1</value>
													</parameter>
												</effect>
											</filter>
											<filter>
												<effect>
													<name>Audio Pan</name>
													<effectid>audiopan</effectid>
													<effectcategory>audiopan</effectcategory>
													<effecttype>audiopan</effecttype>
													<mediatype>audio</mediatype>
													<parameter>
														<name>Pan</name>
														<parameterid>pan</parameterid>
														<valuemin>-1</valuemin>
														<valuemax>1</valuemax>
														<value>-0</value>
													</parameter>
												</effect>
											</filter>
											<sourcetrack>
												<mediatype>audio</mediatype>
												<trackindex>2</trackindex>
											</sourcetrack>
											<link>
												<linkclipref>Raw B Roll Hack Manhattan Matthew Duepner's House49</linkclipref>
												<mediatype>video</mediatype>
												<trackindex>3</trackindex>
												<clipindex>18</clipindex>
											</link>
											<link>
												<linkclipref>Raw B Roll Hack Manhattan Matthew Duepner's House50</linkclipref>
												<mediatype>audio</mediatype>
												<trackindex>65</trackindex>
												<clipindex>18</clipindex>
												<groupindex>1</groupindex>
											</link>
											<link>
												<linkclipref>Raw B Roll Hack Manhattan Matthew Duepner's House51</linkclipref>
												<mediatype>audio</mediatype>
												<trackindex>66</trackindex>
												<clipindex>18</clipindex>
												<groupindex>1</groupindex>
											</link>
											<itemhistory>
												<uuid>FEF995F1-61D6-437F-984F-DA9BDBFB4BF1</uuid>
											</itemhistory>
										</clipitem>
										<clipitem id="Raw Scene Matthew Duepner Printing7">
											<name>Raw Scene Matthew Duepner Printing</name>
											<duration>28553</duration>
											<rate>
												<ntsc>TRUE</ntsc>
												<timebase>24</timebase>
											</rate>
											<in>13248</in>
											<out>13390</out>
											<start>1899</start>
											<end>2041</end>
											<masterclipid>Raw Scene Matthew Duepner Printing61</masterclipid>
											<logginginfo>
												<scene/>
												<shottake/>
												<lognote/>
												<good>FALSE</good>
											</logginginfo>
											<labels>
												<label2/>
											</labels>
											<comments>
												<mastercomment1/>
												<mastercomment2/>
												<mastercomment3/>
												<mastercomment4/>
											</comments>
											<file id="YIN_2013-05-28_LG-6 "/>
											<filter>
												<effect>
													<name>Audio Levels</name>
													<effectid>audiolevels</effectid>
													<effectcategory>audiolevels</effectcategory>
													<effecttype>audiolevels</effecttype>
													<mediatype>audio</mediatype>
													<parameter>
														<name>Level</name>
														<parameterid>level</parameterid>
														<valuemin>0</valuemin>
														<valuemax>3.98109</valuemax>
														<value>1</value>
													</parameter>
												</effect>
											</filter>
											<filter>
												<effect>
													<name>Audio Pan</name>
													<effectid>audiopan</effectid>
													<effectcategory>audiopan</effectcategory>
													<effecttype>audiopan</effecttype>
													<mediatype>audio</mediatype>
													<parameter>
														<name>Pan</name>
														<parameterid>pan</parameterid>
														<valuemin>-1</valuemin>
														<valuemax>1</valuemax>
														<value>-0</value>
													</parameter>
												</effect>
											</filter>
											<sourcetrack>
												<mediatype>audio</mediatype>
												<trackindex>2</trackindex>
											</sourcetrack>
											<link>
												<linkclipref>Raw Scene Matthew Duepner Printing4</linkclipref>
												<mediatype>video</mediatype>
												<trackindex>3</trackindex>
												<clipindex>19</clipindex>
											</link>
											<link>
												<linkclipref>Raw Scene Matthew Duepner Printing6</linkclipref>
												<mediatype>audio</mediatype>
												<trackindex>65</trackindex>
												<clipindex>19</clipindex>
												<groupindex>1</groupindex>
											</link>
											<link>
												<linkclipref>Raw Scene Matthew Duepner Printing7</linkclipref>
												<mediatype>audio</mediatype>
												<trackindex>66</trackindex>
												<clipindex>19</clipindex>
												<groupindex>1</groupindex>
											</link>
											<itemhistory>
												<uuid>C74F3C82-8383-4A36-BB07-8AE572C45082</uuid>
											</itemhistory>
										</clipitem>
										<clipitem id="Raw Scene Matthew Duepner Printing11">
											<name>Raw Scene Matthew Duepner Printing</name>
											<duration>28553</duration>
											<rate>
												<ntsc>TRUE</ntsc>
												<timebase>24</timebase>
											</rate>
											<in>13645</in>
											<out>13872</out>
											<start>2041</start>
											<end>2268</end>
											<masterclipid>Raw Scene Matthew Duepner Printing62</masterclipid>
											<logginginfo>
												<scene/>
												<shottake/>
												<lognote/>
												<good>FALSE</good>
											</logginginfo>
											<labels>
												<label2/>
											</labels>
											<comments>
												<mastercomment1/>
												<mastercomment2/>
												<mastercomment3/>
												<mastercomment4/>
											</comments>
											<file id="YIN_2013-05-28_LG-6 "/>
											<filter>
												<effect>
													<name>Audio Levels</name>
													<effectid>audiolevels</effectid>
													<effectcategory>audiolevels</effectcategory>
													<effecttype>audiolevels</effecttype>
													<mediatype>audio</mediatype>
													<parameter>
														<name>Level</name>
														<parameterid>level</parameterid>
														<valuemin>0</valuemin>
														<valuemax>3.98109</valuemax>
														<value>1</value>
													</parameter>
												</effect>
											</filter>
											<filter>
												<effect>
													<name>Audio Pan</name>
													<effectid>audiopan</effectid>
													<effectcategory>audiopan</effectcategory>
													<effecttype>audiopan</effecttype>
													<mediatype>audio</mediatype>
													<parameter>
														<name>Pan</name>
														<parameterid>pan</parameterid>
														<valuemin>-1</valuemin>
														<valuemax>1</valuemax>
														<value>-0</value>
													</parameter>
												</effect>
											</filter>
											<sourcetrack>
												<mediatype>audio</mediatype>
												<trackindex>2</trackindex>
											</sourcetrack>
											<link>
												<linkclipref>Raw Scene Matthew Duepner Printing8</linkclipref>
												<mediatype>video</mediatype>
												<trackindex>3</trackindex>
												<clipindex>20</clipindex>
											</link>
											<link>
												<linkclipref>Raw Scene Matthew Duepner Printing10</linkclipref>
												<mediatype>audio</mediatype>
												<trackindex>65</trackindex>
												<clipindex>20</clipindex>
												<groupindex>1</groupindex>
											</link>
											<link>
												<linkclipref>Raw Scene Matthew Duepner Printing11</linkclipref>
												<mediatype>audio</mediatype>
												<trackindex>66</trackindex>
												<clipindex>20</clipindex>
												<groupindex>1</groupindex>
											</link>
											<itemhistory>
												<uuid>A8982650-00CE-4C5D-AF7B-7C7FF1D6BABC</uuid>
											</itemhistory>
										</clipitem>
										<clipitem id="Raw Scene Matthew Duepner Printing15">
											<name>Raw Scene Matthew Duepner Printing</name>
											<duration>28553</duration>
											<rate>
												<ntsc>TRUE</ntsc>
												<timebase>24</timebase>
											</rate>
											<in>14375</in>
											<out>14590</out>
											<start>2268</start>
											<end>2483</end>
											<masterclipid>Raw Scene Matthew Duepner Printing63</masterclipid>
											<logginginfo>
												<scene/>
												<shottake/>
												<lognote/>
												<good>FALSE</good>
											</logginginfo>
											<labels>
												<label2/>
											</labels>
											<comments>
												<mastercomment1/>
												<mastercomment2/>
												<mastercomment3/>
												<mastercomment4/>
											</comments>
											<file id="YIN_2013-05-28_LG-6 "/>
											<filter>
												<effect>
													<name>Audio Levels</name>
													<effectid>audiolevels</effectid>
													<effectcategory>audiolevels</effectcategory>
													<effecttype>audiolevels</effecttype>
													<mediatype>audio</mediatype>
													<parameter>
														<name>Level</name>
														<parameterid>level</parameterid>
														<valuemin>0</valuemin>
														<valuemax>3.98109</valuemax>
														<value>1</value>
													</parameter>
												</effect>
											</filter>
											<filter>
												<effect>
													<name>Audio Pan</name>
													<effectid>audiopan</effectid>
													<effectcategory>audiopan</effectcategory>
													<effecttype>audiopan</effecttype>
													<mediatype>audio</mediatype>
													<parameter>
														<name>Pan</name>
														<parameterid>pan</parameterid>
														<valuemin>-1</valuemin>
														<valuemax>1</valuemax>
														<value>-0</value>
													</parameter>
												</effect>
											</filter>
											<sourcetrack>
												<mediatype>audio</mediatype>
												<trackindex>2</trackindex>
											</sourcetrack>
											<link>
												<linkclipref>Raw Scene Matthew Duepner Printing12</linkclipref>
												<mediatype>video</mediatype>
												<trackindex>3</trackindex>
												<clipindex>21</clipindex>
											</link>
											<link>
												<linkclipref>Raw Scene Matthew Duepner Printing14</linkclipref>
												<mediatype>audio</mediatype>
												<trackindex>65</trackindex>
												<clipindex>21</clipindex>
												<groupindex>1</groupindex>
											</link>
											<link>
												<linkclipref>Raw Scene Matthew Duepner Printing15</linkclipref>
												<mediatype>audio</mediatype>
												<trackindex>66</trackindex>
												<clipindex>21</clipindex>
												<groupindex>1</groupindex>
											</link>
											<itemhistory>
												<uuid>26C3531A-DAD2-4B9E-A719-DE00F809A823</uuid>
											</itemhistory>
										</clipitem>
										<clipitem id="Raw Scene Matthew Duepner Printing19">
											<name>Raw Scene Matthew Duepner Printing</name>
											<duration>28553</duration>
											<rate>
												<ntsc>TRUE</ntsc>
												<timebase>24</timebase>
											</rate>
											<in>17176</in>
											<out>17239</out>
											<start>2483</start>
											<end>2546</end>
											<masterclipid>Raw Scene Matthew Duepner Printing64</masterclipid>
											<logginginfo>
												<scene/>
												<shottake/>
												<lognote/>
												<good>FALSE</good>
											</logginginfo>
											<labels>
												<label2/>
											</labels>
											<comments>
												<mastercomment1/>
												<mastercomment2/>
												<mastercomment3/>
												<mastercomment4/>
											</comments>
											<file id="YIN_2013-05-28_LG-6 "/>
											<filter>
												<effect>
													<name>Audio Levels</name>
													<effectid>audiolevels</effectid>
													<effectcategory>audiolevels</effectcategory>
													<effecttype>audiolevels</effecttype>
													<mediatype>audio</mediatype>
													<parameter>
														<name>Level</name>
														<parameterid>level</parameterid>
														<valuemin>0</valuemin>
														<valuemax>3.98109</valuemax>
														<value>1</value>
													</parameter>
												</effect>
											</filter>
											<filter>
												<effect>
													<name>Audio Pan</name>
													<effectid>audiopan</effectid>
													<effectcategory>audiopan</effectcategory>
													<effecttype>audiopan</effecttype>
													<mediatype>audio</mediatype>
													<parameter>
														<name>Pan</name>
														<parameterid>pan</parameterid>
														<valuemin>-1</valuemin>
														<valuemax>1</valuemax>
														<value>-0</value>
													</parameter>
												</effect>
											</filter>
											<sourcetrack>
												<mediatype>audio</mediatype>
												<trackindex>2</trackindex>
											</sourcetrack>
											<link>
												<linkclipref>Raw Scene Matthew Duepner Printing16</linkclipref>
												<mediatype>video</mediatype>
												<trackindex>3</trackindex>
												<clipindex>22</clipindex>
											</link>
											<link>
												<linkclipref>Raw Scene Matthew Duepner Printing18</linkclipref>
												<mediatype>audio</mediatype>
												<trackindex>65</trackindex>
												<clipindex>22</clipindex>
												<groupindex>1</groupindex>
											</link>
											<link>
												<linkclipref>Raw Scene Matthew Duepner Printing19</linkclipref>
												<mediatype>audio</mediatype>
												<trackindex>66</trackindex>
												<clipindex>22</clipindex>
												<groupindex>1</groupindex>
											</link>
											<itemhistory>
												<uuid>F3EAE30D-5295-4F03-A54C-A6BC096AD6B8</uuid>
											</itemhistory>
										</clipitem>
										<clipitem id="Raw Scene Matthew Duepner Printing23">
											<name>Raw Scene Matthew Duepner Printing</name>
											<duration>28553</duration>
											<rate>
												<ntsc>TRUE</ntsc>
												<timebase>24</timebase>
											</rate>
											<in>22417</in>
											<out>22543</out>
											<start>2546</start>
											<end>2672</end>
											<masterclipid>Raw Scene Matthew Duepner Printing65</masterclipid>
											<logginginfo>
												<scene/>
												<shottake/>
												<lognote/>
												<good>FALSE</good>
											</logginginfo>
											<labels>
												<label2/>
											</labels>
											<comments>
												<mastercomment1/>
												<mastercomment2/>
												<mastercomment3/>
												<mastercomment4/>
											</comments>
											<file id="YIN_2013-05-28_LG-6 "/>
											<filter>
												<effect>
													<name>Audio Levels</name>
													<effectid>audiolevels</effectid>
													<effectcategory>audiolevels</effectcategory>
													<effecttype>audiolevels</effecttype>
													<mediatype>audio</mediatype>
													<parameter>
														<name>Level</name>
														<parameterid>level</parameterid>
														<valuemin>0</valuemin>
														<valuemax>3.98109</valuemax>
														<value>1</value>
													</parameter>
												</effect>
											</filter>
											<filter>
												<effect>
													<name>Audio Pan</name>
													<effectid>audiopan</effectid>
													<effectcategory>audiopan</effectcategory>
													<effecttype>audiopan</effecttype>
													<mediatype>audio</mediatype>
													<parameter>
														<name>Pan</name>
														<parameterid>pan</parameterid>
														<valuemin>-1</valuemin>
														<valuemax>1</valuemax>
														<value>-0</value>
													</parameter>
												</effect>
											</filter>
											<sourcetrack>
												<mediatype>audio</mediatype>
												<trackindex>2</trackindex>
											</sourcetrack>
											<link>
												<linkclipref>Raw Scene Matthew Duepner Printing20</linkclipref>
												<mediatype>video</mediatype>
												<trackindex>3</trackindex>
												<clipindex>23</clipindex>
											</link>
											<link>
												<linkclipref>Raw Scene Matthew Duepner Printing22</linkclipref>
												<mediatype>audio</mediatype>
												<trackindex>65</trackindex>
												<clipindex>23</clipindex>
												<groupindex>1</groupindex>
											</link>
											<link>
												<linkclipref>Raw Scene Matthew Duepner Printing23</linkclipref>
												<mediatype>audio</mediatype>
												<trackindex>66</trackindex>
												<clipindex>23</clipindex>
												<groupindex>1</groupindex>
											</link>
											<itemhistory>
												<uuid>DE9DFE4B-8692-4293-B42E-0D8649482962</uuid>
											</itemhistory>
										</clipitem>
										<clipitem id="Raw Scene Matthew Duepner Printing27">
											<name>Raw Scene Matthew Duepner Printing</name>
											<duration>28553</duration>
											<rate>
												<ntsc>TRUE</ntsc>
												<timebase>24</timebase>
											</rate>
											<in>22831</in>
											<out>22878</out>
											<start>2672</start>
											<end>2719</end>
											<masterclipid>Raw Scene Matthew Duepner Printing66</masterclipid>
											<logginginfo>
												<scene/>
												<shottake/>
												<lognote/>
												<good>FALSE</good>
											</logginginfo>
											<labels>
												<label2/>
											</labels>
											<comments>
												<mastercomment1/>
												<mastercomment2/>
												<mastercomment3/>
												<mastercomment4/>
											</comments>
											<file id="YIN_2013-05-28_LG-6 "/>
											<filter>
												<effect>
													<name>Audio Levels</name>
													<effectid>audiolevels</effectid>
													<effectcategory>audiolevels</effectcategory>
													<effecttype>audiolevels</effecttype>
													<mediatype>audio</mediatype>
													<parameter>
														<name>Level</name>
														<parameterid>level</parameterid>
														<valuemin>0</valuemin>
														<valuemax>3.98109</valuemax>
														<value>1</value>
													</parameter>
												</effect>
											</filter>
											<filter>
												<effect>
													<name>Audio Pan</name>
													<effectid>audiopan</effectid>
													<effectcategory>audiopan</effectcategory>
													<effecttype>audiopan</effecttype>
													<mediatype>audio</mediatype>
													<parameter>
														<name>Pan</name>
														<parameterid>pan</parameterid>
														<valuemin>-1</valuemin>
														<valuemax>1</valuemax>
														<value>-0</value>
													</parameter>
												</effect>
											</filter>
											<sourcetrack>
												<mediatype>audio</mediatype>
												<trackindex>2</trackindex>
											</sourcetrack>
											<link>
												<linkclipref>Raw Scene Matthew Duepner Printing24</linkclipref>
												<mediatype>video</mediatype>
												<trackindex>3</trackindex>
												<clipindex>24</clipindex>
											</link>
											<link>
												<linkclipref>Raw Scene Matthew Duepner Printing26</linkclipref>
												<mediatype>audio</mediatype>
												<trackindex>65</trackindex>
												<clipindex>24</clipindex>
												<groupindex>1</groupindex>
											</link>
											<link>
												<linkclipref>Raw Scene Matthew Duepner Printing27</linkclipref>
												<mediatype>audio</mediatype>
												<trackindex>66</trackindex>
												<clipindex>24</clipindex>
												<groupindex>1</groupindex>
											</link>
											<itemhistory>
												<uuid>82BB4C0B-1C7C-49C4-ABD7-82A53B0615AB</uuid>
											</itemhistory>
										</clipitem>
										<clipitem id="Raw Scene Matthew Duepner Printing31">
											<name>Raw Scene Matthew Duepner Printing</name>
											<duration>28553</duration>
											<rate>
												<ntsc>TRUE</ntsc>
												<timebase>24</timebase>
											</rate>
											<in>23483</in>
											<out>23542</out>
											<start>2719</start>
											<end>2778</end>
											<masterclipid>Raw Scene Matthew Duepner Printing67</masterclipid>
											<logginginfo>
												<scene/>
												<shottake/>
												<lognote/>
												<good>FALSE</good>
											</logginginfo>
											<labels>
												<label2/>
											</labels>
											<comments>
												<mastercomment1/>
												<mastercomment2/>
												<mastercomment3/>
												<mastercomment4/>
											</comments>
											<file id="YIN_2013-05-28_LG-6 "/>
											<filter>
												<effect>
													<name>Audio Levels</name>
													<effectid>audiolevels</effectid>
													<effectcategory>audiolevels</effectcategory>
													<effecttype>audiolevels</effecttype>
													<mediatype>audio</mediatype>
													<parameter>
														<name>Level</name>
														<parameterid>level</parameterid>
														<valuemin>0</valuemin>
														<valuemax>3.98109</valuemax>
														<value>1</value>
													</parameter>
												</effect>
											</filter>
											<filter>
												<effect>
													<name>Audio Pan</name>
													<effectid>audiopan</effectid>
													<effectcategory>audiopan</effectcategory>
													<effecttype>audiopan</effecttype>
													<mediatype>audio</mediatype>
													<parameter>
														<name>Pan</name>
														<parameterid>pan</parameterid>
														<valuemin>-1</valuemin>
														<valuemax>1</valuemax>
														<value>-0</value>
													</parameter>
												</effect>
											</filter>
											<sourcetrack>
												<mediatype>audio</mediatype>
												<trackindex>2</trackindex>
											</sourcetrack>
											<link>
												<linkclipref>Raw Scene Matthew Duepner Printing28</linkclipref>
												<mediatype>video</mediatype>
												<trackindex>3</trackindex>
												<clipindex>25</clipindex>
											</link>
											<link>
												<linkclipref>Raw Scene Matthew Duepner Printing30</linkclipref>
												<mediatype>audio</mediatype>
												<trackindex>65</trackindex>
												<clipindex>25</clipindex>
												<groupindex>1</groupindex>
											</link>
											<link>
												<linkclipref>Raw Scene Matthew Duepner Printing31</linkclipref>
												<mediatype>audio</mediatype>
												<trackindex>66</trackindex>
												<clipindex>25</clipindex>
												<groupindex>1</groupindex>
											</link>
											<itemhistory>
												<uuid>C35094AA-1FB5-4ED2-9C0D-FB30BB3051AC</uuid>
											</itemhistory>
										</clipitem>
										<clipitem id="Raw Scene Matthew Duepner Printing35">
											<name>Raw Scene Matthew Duepner Printing</name>
											<duration>28553</duration>
											<rate>
												<ntsc>TRUE</ntsc>
												<timebase>24</timebase>
											</rate>
											<in>23633</in>
											<out>23762</out>
											<start>2778</start>
											<end>2907</end>
											<masterclipid>Raw Scene Matthew Duepner Printing68</masterclipid>
											<logginginfo>
												<scene/>
												<shottake/>
												<lognote/>
												<good>FALSE</good>
											</logginginfo>
											<labels>
												<label2/>
											</labels>
											<comments>
												<mastercomment1/>
												<mastercomment2/>
												<mastercomment3/>
												<mastercomment4/>
											</comments>
											<file id="YIN_2013-05-28_LG-6 "/>
											<filter>
												<effect>
													<name>Audio Levels</name>
													<effectid>audiolevels</effectid>
													<effectcategory>audiolevels</effectcategory>
													<effecttype>audiolevels</effecttype>
													<mediatype>audio</mediatype>
													<parameter>
														<name>Level</name>
														<parameterid>level</parameterid>
														<valuemin>0</valuemin>
														<valuemax>3.98109</valuemax>
														<value>1</value>
													</parameter>
												</effect>
											</filter>
											<filter>
												<effect>
													<name>Audio Pan</name>
													<effectid>audiopan</effectid>
													<effectcategory>audiopan</effectcategory>
													<effecttype>audiopan</effecttype>
													<mediatype>audio</mediatype>
													<parameter>
														<name>Pan</name>
														<parameterid>pan</parameterid>
														<valuemin>-1</valuemin>
														<valuemax>1</valuemax>
														<value>-0</value>
													</parameter>
												</effect>
											</filter>
											<sourcetrack>
												<mediatype>audio</mediatype>
												<trackindex>2</trackindex>
											</sourcetrack>
											<link>
												<linkclipref>Raw Scene Matthew Duepner Printing32</linkclipref>
												<mediatype>video</mediatype>
												<trackindex>3</trackindex>
												<clipindex>26</clipindex>
											</link>
											<link>
												<linkclipref>Raw Scene Matthew Duepner Printing34</linkclipref>
												<mediatype>audio</mediatype>
												<trackindex>65</trackindex>
												<clipindex>26</clipindex>
												<groupindex>1</groupindex>
											</link>
											<link>
												<linkclipref>Raw Scene Matthew Duepner Printing35</linkclipref>
												<mediatype>audio</mediatype>
												<trackindex>66</trackindex>
												<clipindex>26</clipindex>
												<groupindex>1</groupindex>
											</link>
											<itemhistory>
												<uuid>336DDAC2-1489-4FA1-89F8-0A17EFE39D42</uuid>
											</itemhistory>
										</clipitem>
										<clipitem id="Raw Scene Matthew Duepner Printing39">
											<name>Raw Scene Matthew Duepner Printing</name>
											<duration>28553</duration>
											<rate>
												<ntsc>TRUE</ntsc>
												<timebase>24</timebase>
											</rate>
											<in>24554</in>
											<out>24706</out>
											<start>2907</start>
											<end>3059</end>
											<masterclipid>Raw Scene Matthew Duepner Printing69</masterclipid>
											<logginginfo>
												<scene/>
												<shottake/>
												<lognote/>
												<good>FALSE</good>
											</logginginfo>
											<labels>
												<label2/>
											</labels>
											<comments>
												<mastercomment1/>
												<mastercomment2/>
												<mastercomment3/>
												<mastercomment4/>
											</comments>
											<file id="YIN_2013-05-28_LG-6 "/>
											<filter>
												<effect>
													<name>Audio Levels</name>
													<effectid>audiolevels</effectid>
													<effectcategory>audiolevels</effectcategory>
													<effecttype>audiolevels</effecttype>
													<mediatype>audio</mediatype>
													<parameter>
														<name>Level</name>
														<parameterid>level</parameterid>
														<valuemin>0</valuemin>
														<valuemax>3.98109</valuemax>
														<value>1</value>
													</parameter>
												</effect>
											</filter>
											<filter>
												<effect>
													<name>Audio Pan</name>
													<effectid>audiopan</effectid>
													<effectcategory>audiopan</effectcategory>
													<effecttype>audiopan</effecttype>
													<mediatype>audio</mediatype>
													<parameter>
														<name>Pan</name>
														<parameterid>pan</parameterid>
														<valuemin>-1</valuemin>
														<valuemax>1</valuemax>
														<value>-0</value>
													</parameter>
												</effect>
											</filter>
											<sourcetrack>
												<mediatype>audio</mediatype>
												<trackindex>2</trackindex>
											</sourcetrack>
											<link>
												<linkclipref>Raw Scene Matthew Duepner Printing36</linkclipref>
												<mediatype>video</mediatype>
												<trackindex>3</trackindex>
												<clipindex>27</clipindex>
											</link>
											<link>
												<linkclipref>Raw Scene Matthew Duepner Printing38</linkclipref>
												<mediatype>audio</mediatype>
												<trackindex>65</trackindex>
												<clipindex>27</clipindex>
												<groupindex>1</groupindex>
											</link>
											<link>
												<linkclipref>Raw Scene Matthew Duepner Printing39</linkclipref>
												<mediatype>audio</mediatype>
												<trackindex>66</trackindex>
												<clipindex>27</clipindex>
												<groupindex>1</groupindex>
											</link>
											<itemhistory>
												<uuid>1D3D3613-C7B9-4980-A5AF-2254AB4C1839</uuid>
											</itemhistory>
										</clipitem>
										<clipitem id="Raw Scene Matthew Duepner Printing43">
											<name>Raw Scene Matthew Duepner Printing</name>
											<duration>28553</duration>
											<rate>
												<ntsc>TRUE</ntsc>
												<timebase>24</timebase>
											</rate>
											<in>27525</in>
											<out>27797</out>
											<start>3059</start>
											<end>3331</end>
											<masterclipid>Raw Scene Matthew Duepner Printing70</masterclipid>
											<logginginfo>
												<scene/>
												<shottake/>
												<lognote/>
												<good>FALSE</good>
											</logginginfo>
											<labels>
												<label2/>
											</labels>
											<comments>
												<mastercomment1/>
												<mastercomment2/>
												<mastercomment3/>
												<mastercomment4/>
											</comments>
											<file id="YIN_2013-05-28_LG-6 "/>
											<filter>
												<effect>
													<name>Audio Levels</name>
													<effectid>audiolevels</effectid>
													<effectcategory>audiolevels</effectcategory>
													<effecttype>audiolevels</effecttype>
													<mediatype>audio</mediatype>
													<parameter>
														<name>Level</name>
														<parameterid>level</parameterid>
														<valuemin>0</valuemin>
														<valuemax>3.98109</valuemax>
														<value>1</value>
													</parameter>
												</effect>
											</filter>
											<filter>
												<effect>
													<name>Audio Pan</name>
													<effectid>audiopan</effectid>
													<effectcategory>audiopan</effectcategory>
													<effecttype>audiopan</effecttype>
													<mediatype>audio</mediatype>
													<parameter>
														<name>Pan</name>
														<parameterid>pan</parameterid>
														<valuemin>-1</valuemin>
														<valuemax>1</valuemax>
														<value>-0</value>
													</parameter>
												</effect>
											</filter>
											<sourcetrack>
												<mediatype>audio</mediatype>
												<trackindex>2</trackindex>
											</sourcetrack>
											<link>
												<linkclipref>Raw Scene Matthew Duepner Printing40</linkclipref>
												<mediatype>video</mediatype>
												<trackindex>3</trackindex>
												<clipindex>28</clipindex>
											</link>
											<link>
												<linkclipref>Raw Scene Matthew Duepner Printing42</linkclipref>
												<mediatype>audio</mediatype>
												<trackindex>65</trackindex>
												<clipindex>28</clipindex>
												<groupindex>1</groupindex>
											</link>
											<link>
												<linkclipref>Raw Scene Matthew Duepner Printing43</linkclipref>
												<mediatype>audio</mediatype>
												<trackindex>66</trackindex>
												<clipindex>28</clipindex>
												<groupindex>1</groupindex>
											</link>
											<itemhistory>
												<uuid>ED190C4A-6640-441E-908E-278A3112A149</uuid>
											</itemhistory>
										</clipitem>
										<clipitem id="Raw Scene Matthew Duepner Printing47">
											<name>Raw Scene Matthew Duepner Printing</name>
											<duration>28553</duration>
											<rate>
												<ntsc>TRUE</ntsc>
												<timebase>24</timebase>
											</rate>
											<in>28313</in>
											<out>28455</out>
											<start>3331</start>
											<end>3473</end>
											<masterclipid>Raw Scene Matthew Duepner Printing71</masterclipid>
											<logginginfo>
												<scene/>
												<shottake/>
												<lognote/>
												<good>FALSE</good>
											</logginginfo>
											<labels>
												<label2/>
											</labels>
											<comments>
												<mastercomment1/>
												<mastercomment2/>
												<mastercomment3/>
												<mastercomment4/>
											</comments>
											<file id="YIN_2013-05-28_LG-6 "/>
											<filter>
												<effect>
													<name>Audio Levels</name>
													<effectid>audiolevels</effectid>
													<effectcategory>audiolevels</effectcategory>
													<effecttype>audiolevels</effecttype>
													<mediatype>audio</mediatype>
													<parameter>
														<name>Level</name>
														<parameterid>level</parameterid>
														<valuemin>0</valuemin>
														<valuemax>3.98109</valuemax>
														<value>1</value>
													</parameter>
												</effect>
											</filter>
											<filter>
												<effect>
													<name>Audio Pan</name>
													<effectid>audiopan</effectid>
													<effectcategory>audiopan</effectcategory>
													<effecttype>audiopan</effecttype>
													<mediatype>audio</mediatype>
													<parameter>
														<name>Pan</name>
														<parameterid>pan</parameterid>
														<valuemin>-1</valuemin>
														<valuemax>1</valuemax>
														<value>-0</value>
													</parameter>
												</effect>
											</filter>
											<sourcetrack>
												<mediatype>audio</mediatype>
												<trackindex>2</trackindex>
											</sourcetrack>
											<link>
												<linkclipref>Raw Scene Matthew Duepner Printing44</linkclipref>
												<mediatype>video</mediatype>
												<trackindex>3</trackindex>
												<clipindex>29</clipindex>
											</link>
											<link>
												<linkclipref>Raw Scene Matthew Duepner Printing46</linkclipref>
												<mediatype>audio</mediatype>
												<trackindex>65</trackindex>
												<clipindex>29</clipindex>
												<groupindex>1</groupindex>
											</link>
											<link>
												<linkclipref>Raw Scene Matthew Duepner Printing47</linkclipref>
												<mediatype>audio</mediatype>
												<trackindex>66</trackindex>
												<clipindex>29</clipindex>
												<groupindex>1</groupindex>
											</link>
											<itemhistory>
												<uuid>FA752A55-4967-4204-AD97-9ED393A44C97</uuid>
											</itemhistory>
										</clipitem>
										<clipitem id="Raw Scene Matthew Duepner Walkabout156">
											<name>Raw Scene Matthew Duepner Walkabout</name>
											<duration>38484</duration>
											<rate>
												<ntsc>TRUE</ntsc>
												<timebase>24</timebase>
											</rate>
											<in>5133</in>
											<out>5266</out>
											<start>3473</start>
											<end>3606</end>
											<masterclipid>Raw Scene Matthew Duepner Walkabout195</masterclipid>
											<logginginfo>
												<scene/>
												<shottake/>
												<lognote/>
												<good>FALSE</good>
											</logginginfo>
											<labels>
												<label2/>
											</labels>
											<comments>
												<mastercomment1/>
												<mastercomment2/>
												<mastercomment3/>
												<mastercomment4/>
											</comments>
											<file id="YIN_2013-05-28_LG-4 "/>
											<filter>
												<effect>
													<name>Audio Levels</name>
													<effectid>audiolevels</effectid>
													<effectcategory>audiolevels</effectcategory>
													<effecttype>audiolevels</effecttype>
													<mediatype>audio</mediatype>
													<parameter>
														<name>Level</name>
														<parameterid>level</parameterid>
														<valuemin>0</valuemin>
														<valuemax>3.98109</valuemax>
														<value>1</value>
													</parameter>
												</effect>
											</filter>
											<filter>
												<effect>
													<name>Audio Pan</name>
													<effectid>audiopan</effectid>
													<effectcategory>audiopan</effectcategory>
													<effecttype>audiopan</effecttype>
													<mediatype>audio</mediatype>
													<parameter>
														<name>Pan</name>
														<parameterid>pan</parameterid>
														<valuemin>-1</valuemin>
														<valuemax>1</valuemax>
														<value>-0</value>
													</parameter>
												</effect>
											</filter>
											<sourcetrack>
												<mediatype>audio</mediatype>
												<trackindex>2</trackindex>
											</sourcetrack>
											<link>
												<linkclipref>Raw Scene Matthew Duepner Walkabout154</linkclipref>
												<mediatype>audio</mediatype>
												<trackindex>65</trackindex>
												<clipindex>30</clipindex>
												<groupindex>1</groupindex>
											</link>
											<link>
												<linkclipref>Raw Scene Matthew Duepner Walkabout156</linkclipref>
												<mediatype>audio</mediatype>
												<trackindex>66</trackindex>
												<clipindex>30</clipindex>
												<groupindex>1</groupindex>
											</link>
											<itemhistory>
												<uuid>8BF60978-EFB8-4EED-94F7-CD854579C915</uuid>
											</itemhistory>
										</clipitem>
										<clipitem id="Raw Scene Matthew Duepner Walkabout5">
											<name>Raw Scene Matthew Duepner Walkabout</name>
											<duration>38484</duration>
											<rate>
												<ntsc>TRUE</ntsc>
												<timebase>24</timebase>
											</rate>
											<in>4745</in>
											<out>5123</out>
											<start>3606</start>
											<end>3984</end>
											<masterclipid>Raw Scene Matthew Duepner Walkabout196</masterclipid>
											<logginginfo>
												<scene/>
												<shottake/>
												<lognote/>
												<good>FALSE</good>
											</logginginfo>
											<labels>
												<label2/>
											</labels>
											<comments>
												<mastercomment1/>
												<mastercomment2/>
												<mastercomment3/>
												<mastercomment4/>
											</comments>
											<file id="YIN_2013-05-28_LG-4 "/>
											<filter>
												<effect>
													<name>Audio Levels</name>
													<effectid>audiolevels</effectid>
													<effectcategory>audiolevels</effectcategory>
													<effecttype>audiolevels</effecttype>
													<mediatype>audio</mediatype>
													<parameter>
														<name>Level</name>
														<parameterid>level</parameterid>
														<valuemin>0</valuemin>
														<valuemax>3.98109</valuemax>
														<value>1</value>
													</parameter>
												</effect>
											</filter>
											<filter>
												<effect>
													<name>Audio Pan</name>
													<effectid>audiopan</effectid>
													<effectcategory>audiopan</effectcategory>
													<effecttype>audiopan</effecttype>
													<mediatype>audio</mediatype>
													<parameter>
														<name>Pan</name>
														<parameterid>pan</parameterid>
														<valuemin>-1</valuemin>
														<valuemax>1</valuemax>
														<value>-0</value>
													</parameter>
												</effect>
											</filter>
											<sourcetrack>
												<mediatype>audio</mediatype>
												<trackindex>2</trackindex>
											</sourcetrack>
											<link>
												<linkclipref>Raw Scene Matthew Duepner Walkabout2</linkclipref>
												<mediatype>video</mediatype>
												<trackindex>3</trackindex>
												<clipindex>31</clipindex>
											</link>
											<link>
												<linkclipref>Raw Scene Matthew Duepner Walkabout4</linkclipref>
												<mediatype>audio</mediatype>
												<trackindex>65</trackindex>
												<clipindex>31</clipindex>
												<groupindex>1</groupindex>
											</link>
											<link>
												<linkclipref>Raw Scene Matthew Duepner Walkabout5</linkclipref>
												<mediatype>audio</mediatype>
												<trackindex>66</trackindex>
												<clipindex>31</clipindex>
												<groupindex>1</groupindex>
											</link>
											<itemhistory>
												<uuid>5B1BFBAD-B9B8-4621-8BF6-218BEFAFDAE8</uuid>
											</itemhistory>
										</clipitem>
										<clipitem id="Raw Scene Matthew Duepner Walkabout9">
											<name>Raw Scene Matthew Duepner Walkabout</name>
											<duration>38484</duration>
											<rate>
												<ntsc>TRUE</ntsc>
												<timebase>24</timebase>
											</rate>
											<in>6473</in>
											<out>6911</out>
											<start>3984</start>
											<end>4422</end>
											<masterclipid>Raw Scene Matthew Duepner Walkabout197</masterclipid>
											<logginginfo>
												<scene/>
												<shottake/>
												<lognote/>
												<good>FALSE</good>
											</logginginfo>
											<labels>
												<label2/>
											</labels>
											<comments>
												<mastercomment1/>
												<mastercomment2/>
												<mastercomment3/>
												<mastercomment4/>
											</comments>
											<file id="YIN_2013-05-28_LG-4 "/>
											<filter>
												<effect>
													<name>Audio Levels</name>
													<effectid>audiolevels</effectid>
													<effectcategory>audiolevels</effectcategory>
													<effecttype>audiolevels</effecttype>
													<mediatype>audio</mediatype>
													<parameter>
														<name>Level</name>
														<parameterid>level</parameterid>
														<valuemin>0</valuemin>
														<valuemax>3.98109</valuemax>
														<value>1</value>
													</parameter>
												</effect>
											</filter>
											<filter>
												<effect>
													<name>Audio Pan</name>
													<effectid>audiopan</effectid>
													<effectcategory>audiopan</effectcategory>
													<effecttype>audiopan</effecttype>
													<mediatype>audio</mediatype>
													<parameter>
														<name>Pan</name>
														<parameterid>pan</parameterid>
														<valuemin>-1</valuemin>
														<valuemax>1</valuemax>
														<value>-0</value>
													</parameter>
												</effect>
											</filter>
											<sourcetrack>
												<mediatype>audio</mediatype>
												<trackindex>2</trackindex>
											</sourcetrack>
											<link>
												<linkclipref>Raw Scene Matthew Duepner Walkabout6</linkclipref>
												<mediatype>video</mediatype>
												<trackindex>3</trackindex>
												<clipindex>32</clipindex>
											</link>
											<link>
												<linkclipref>Raw Scene Matthew Duepner Walkabout8</linkclipref>
												<mediatype>audio</mediatype>
												<trackindex>65</trackindex>
												<clipindex>32</clipindex>
												<groupindex>1</groupindex>
											</link>
											<link>
												<linkclipref>Raw Scene Matthew Duepner Walkabout9</linkclipref>
												<mediatype>audio</mediatype>
												<trackindex>66</trackindex>
												<clipindex>32</clipindex>
												<groupindex>1</groupindex>
											</link>
											<itemhistory>
												<uuid>E9A48679-4B5A-4BD0-BA93-CB887A3E6B3B</uuid>
											</itemhistory>
										</clipitem>
										<clipitem id="Raw Scene Matthew Duepner Walkabout13">
											<name>Raw Scene Matthew Duepner Walkabout</name>
											<duration>38484</duration>
											<rate>
												<ntsc>TRUE</ntsc>
												<timebase>24</timebase>
											</rate>
											<in>7070</in>
											<out>7250</out>
											<start>4422</start>
											<end>4602</end>
											<masterclipid>Raw Scene Matthew Duepner Walkabout198</masterclipid>
											<logginginfo>
												<scene/>
												<shottake/>
												<lognote/>
												<good>FALSE</good>
											</logginginfo>
											<labels>
												<label2/>
											</labels>
											<comments>
												<mastercomment1/>
												<mastercomment2/>
												<mastercomment3/>
												<mastercomment4/>
											</comments>
											<file id="YIN_2013-05-28_LG-4 "/>
											<filter>
												<effect>
													<name>Audio Levels</name>
													<effectid>audiolevels</effectid>
													<effectcategory>audiolevels</effectcategory>
													<effecttype>audiolevels</effecttype>
													<mediatype>audio</mediatype>
													<parameter>
														<name>Level</name>
														<parameterid>level</parameterid>
														<valuemin>0</valuemin>
														<valuemax>3.98109</valuemax>
														<value>1</value>
													</parameter>
												</effect>
											</filter>
											<filter>
												<effect>
													<name>Audio Pan</name>
													<effectid>audiopan</effectid>
													<effectcategory>audiopan</effectcategory>
													<effecttype>audiopan</effecttype>
													<mediatype>audio</mediatype>
													<parameter>
														<name>Pan</name>
														<parameterid>pan</parameterid>
														<valuemin>-1</valuemin>
														<valuemax>1</valuemax>
														<value>-0</value>
													</parameter>
												</effect>
											</filter>
											<sourcetrack>
												<mediatype>audio</mediatype>
												<trackindex>2</trackindex>
											</sourcetrack>
											<link>
												<linkclipref>Raw Scene Matthew Duepner Walkabout10</linkclipref>
												<mediatype>video</mediatype>
												<trackindex>3</trackindex>
												<clipindex>33</clipindex>
											</link>
											<link>
												<linkclipref>Raw Scene Matthew Duepner Walkabout12</linkclipref>
												<mediatype>audio</mediatype>
												<trackindex>65</trackindex>
												<clipindex>33</clipindex>
												<groupindex>1</groupindex>
											</link>
											<link>
												<linkclipref>Raw Scene Matthew Duepner Walkabout13</linkclipref>
												<mediatype>audio</mediatype>
												<trackindex>66</trackindex>
												<clipindex>33</clipindex>
												<groupindex>1</groupindex>
											</link>
											<itemhistory>
												<uuid>3BA2B809-D2A0-4FFD-B3CC-ACBEBEBF3BFD</uuid>
											</itemhistory>
										</clipitem>
										<clipitem id="Raw Scene Matthew Duepner Walkabout17">
											<name>Raw Scene Matthew Duepner Walkabout</name>
											<duration>38484</duration>
											<rate>
												<ntsc>TRUE</ntsc>
												<timebase>24</timebase>
											</rate>
											<in>10560</in>
											<out>10599</out>
											<start>4602</start>
											<end>4641</end>
											<masterclipid>Raw Scene Matthew Duepner Walkabout199</masterclipid>
											<logginginfo>
												<scene/>
												<shottake/>
												<lognote/>
												<good>FALSE</good>
											</logginginfo>
											<labels>
												<label2/>
											</labels>
											<comments>
												<mastercomment1/>
												<mastercomment2/>
												<mastercomment3/>
												<mastercomment4/>
											</comments>
											<file id="YIN_2013-05-28_LG-4 "/>
											<filter>
												<effect>
													<name>Audio Levels</name>
													<effectid>audiolevels</effectid>
													<effectcategory>audiolevels</effectcategory>
													<effecttype>audiolevels</effecttype>
													<mediatype>audio</mediatype>
													<parameter>
														<name>Level</name>
														<parameterid>level</parameterid>
														<valuemin>0</valuemin>
														<valuemax>3.98109</valuemax>
														<value>1</value>
													</parameter>
												</effect>
											</filter>
											<filter>
												<effect>
													<name>Audio Pan</name>
													<effectid>audiopan</effectid>
													<effectcategory>audiopan</effectcategory>
													<effecttype>audiopan</effecttype>
													<mediatype>audio</mediatype>
													<parameter>
														<name>Pan</name>
														<parameterid>pan</parameterid>
														<valuemin>-1</valuemin>
														<valuemax>1</valuemax>
														<value>-0</value>
													</parameter>
												</effect>
											</filter>
											<sourcetrack>
												<mediatype>audio</mediatype>
												<trackindex>2</trackindex>
											</sourcetrack>
											<link>
												<linkclipref>Raw Scene Matthew Duepner Walkabout14</linkclipref>
												<mediatype>video</mediatype>
												<trackindex>3</trackindex>
												<clipindex>34</clipindex>
											</link>
											<link>
												<linkclipref>Raw Scene Matthew Duepner Walkabout16</linkclipref>
												<mediatype>audio</mediatype>
												<trackindex>65</trackindex>
												<clipindex>34</clipindex>
												<groupindex>1</groupindex>
											</link>
											<link>
												<linkclipref>Raw Scene Matthew Duepner Walkabout17</linkclipref>
												<mediatype>audio</mediatype>
												<trackindex>66</trackindex>
												<clipindex>34</clipindex>
												<groupindex>1</groupindex>
											</link>
											<itemhistory>
												<uuid>33AE9504-D30D-4D59-8126-00951A52C1D1</uuid>
											</itemhistory>
										</clipitem>
										<clipitem id="Raw Scene Matthew Duepner Walkabout21">
											<name>Raw Scene Matthew Duepner Walkabout</name>
											<duration>38484</duration>
											<rate>
												<ntsc>TRUE</ntsc>
												<timebase>24</timebase>
											</rate>
											<in>11332</in>
											<out>11408</out>
											<start>4641</start>
											<end>4717</end>
											<masterclipid>Raw Scene Matthew Duepner Walkabout200</masterclipid>
											<logginginfo>
												<scene/>
												<shottake/>
												<lognote/>
												<good>FALSE</good>
											</logginginfo>
											<labels>
												<label2/>
											</labels>
											<comments>
												<mastercomment1/>
												<mastercomment2/>
												<mastercomment3/>
												<mastercomment4/>
											</comments>
											<file id="YIN_2013-05-28_LG-4 "/>
											<filter>
												<effect>
													<name>Audio Levels</name>
													<effectid>audiolevels</effectid>
													<effectcategory>audiolevels</effectcategory>
													<effecttype>audiolevels</effecttype>
													<mediatype>audio</mediatype>
													<parameter>
														<name>Level</name>
														<parameterid>level</parameterid>
														<valuemin>0</valuemin>
														<valuemax>3.98109</valuemax>
														<value>1</value>
													</parameter>
												</effect>
											</filter>
											<filter>
												<effect>
													<name>Audio Pan</name>
													<effectid>audiopan</effectid>
													<effectcategory>audiopan</effectcategory>
													<effecttype>audiopan</effecttype>
													<mediatype>audio</mediatype>
													<parameter>
														<name>Pan</name>
														<parameterid>pan</parameterid>
														<valuemin>-1</valuemin>
														<valuemax>1</valuemax>
														<value>-0</value>
													</parameter>
												</effect>
											</filter>
											<sourcetrack>
												<mediatype>audio</mediatype>
												<trackindex>2</trackindex>
											</sourcetrack>
											<link>
												<linkclipref>Raw Scene Matthew Duepner Walkabout18</linkclipref>
												<mediatype>video</mediatype>
												<trackindex>3</trackindex>
												<clipindex>35</clipindex>
											</link>
											<link>
												<linkclipref>Raw Scene Matthew Duepner Walkabout20</linkclipref>
												<mediatype>audio</mediatype>
												<trackindex>65</trackindex>
												<clipindex>35</clipindex>
												<groupindex>1</groupindex>
											</link>
											<link>
												<linkclipref>Raw Scene Matthew Duepner Walkabout21</linkclipref>
												<mediatype>audio</mediatype>
												<trackindex>66</trackindex>
												<clipindex>35</clipindex>
												<groupindex>1</groupindex>
											</link>
											<itemhistory>
												<uuid>D2A90128-9CE2-4EF1-A45D-9F5477C7D3CA</uuid>
											</itemhistory>
										</clipitem>
										<clipitem id="Raw Scene Matthew Duepner Walkabout25">
											<name>Raw Scene Matthew Duepner Walkabout</name>
											<duration>38484</duration>
											<rate>
												<ntsc>TRUE</ntsc>
												<timebase>24</timebase>
											</rate>
											<in>11540</in>
											<out>11595</out>
											<start>4717</start>
											<end>4772</end>
											<masterclipid>Raw Scene Matthew Duepner Walkabout201</masterclipid>
											<logginginfo>
												<scene/>
												<shottake/>
												<lognote/>
												<good>FALSE</good>
											</logginginfo>
											<labels>
												<label2/>
											</labels>
											<comments>
												<mastercomment1/>
												<mastercomment2/>
												<mastercomment3/>
												<mastercomment4/>
											</comments>
											<file id="YIN_2013-05-28_LG-4 "/>
											<filter>
												<effect>
													<name>Audio Levels</name>
													<effectid>audiolevels</effectid>
													<effectcategory>audiolevels</effectcategory>
													<effecttype>audiolevels</effecttype>
													<mediatype>audio</mediatype>
													<parameter>
														<name>Level</name>
														<parameterid>level</parameterid>
														<valuemin>0</valuemin>
														<valuemax>3.98109</valuemax>
														<value>1</value>
													</parameter>
												</effect>
											</filter>
											<filter>
												<effect>
													<name>Audio Pan</name>
													<effectid>audiopan</effectid>
													<effectcategory>audiopan</effectcategory>
													<effecttype>audiopan</effecttype>
													<mediatype>audio</mediatype>
													<parameter>
														<name>Pan</name>
														<parameterid>pan</parameterid>
														<valuemin>-1</valuemin>
														<valuemax>1</valuemax>
														<value>-0</value>
													</parameter>
												</effect>
											</filter>
											<sourcetrack>
												<mediatype>audio</mediatype>
												<trackindex>2</trackindex>
											</sourcetrack>
											<link>
												<linkclipref>Raw Scene Matthew Duepner Walkabout22</linkclipref>
												<mediatype>video</mediatype>
												<trackindex>3</trackindex>
												<clipindex>36</clipindex>
											</link>
											<link>
												<linkclipref>Raw Scene Matthew Duepner Walkabout24</linkclipref>
												<mediatype>audio</mediatype>
												<trackindex>65</trackindex>
												<clipindex>36</clipindex>
												<groupindex>1</groupindex>
											</link>
											<link>
												<linkclipref>Raw Scene Matthew Duepner Walkabout25</linkclipref>
												<mediatype>audio</mediatype>
												<trackindex>66</trackindex>
												<clipindex>36</clipindex>
												<groupindex>1</groupindex>
											</link>
											<itemhistory>
												<uuid>CC7FE52F-0F46-48F6-B2AD-210350953F53</uuid>
											</itemhistory>
										</clipitem>
										<clipitem id="Raw Scene Matthew Duepner Walkabout29">
											<name>Raw Scene Matthew Duepner Walkabout</name>
											<duration>38484</duration>
											<rate>
												<ntsc>TRUE</ntsc>
												<timebase>24</timebase>
											</rate>
											<in>13339</in>
											<out>13489</out>
											<start>4772</start>
											<end>4922</end>
											<masterclipid>Raw Scene Matthew Duepner Walkabout202</masterclipid>
											<logginginfo>
												<scene/>
												<shottake/>
												<lognote/>
												<good>FALSE</good>
											</logginginfo>
											<labels>
												<label2/>
											</labels>
											<comments>
												<mastercomment1/>
												<mastercomment2/>
												<mastercomment3/>
												<mastercomment4/>
											</comments>
											<file id="YIN_2013-05-28_LG-4 "/>
											<filter>
												<effect>
													<name>Audio Levels</name>
													<effectid>audiolevels</effectid>
													<effectcategory>audiolevels</effectcategory>
													<effecttype>audiolevels</effecttype>
													<mediatype>audio</mediatype>
													<parameter>
														<name>Level</name>
														<parameterid>level</parameterid>
														<valuemin>0</valuemin>
														<valuemax>3.98109</valuemax>
														<value>1</value>
													</parameter>
												</effect>
											</filter>
											<filter>
												<effect>
													<name>Audio Pan</name>
													<effectid>audiopan</effectid>
													<effectcategory>audiopan</effectcategory>
													<effecttype>audiopan</effecttype>
													<mediatype>audio</mediatype>
													<parameter>
														<name>Pan</name>
														<parameterid>pan</parameterid>
														<valuemin>-1</valuemin>
														<valuemax>1</valuemax>
														<value>-0</value>
													</parameter>
												</effect>
											</filter>
											<sourcetrack>
												<mediatype>audio</mediatype>
												<trackindex>2</trackindex>
											</sourcetrack>
											<link>
												<linkclipref>Raw Scene Matthew Duepner Walkabout26</linkclipref>
												<mediatype>video</mediatype>
												<trackindex>3</trackindex>
												<clipindex>37</clipindex>
											</link>
											<link>
												<linkclipref>Raw Scene Matthew Duepner Walkabout28</linkclipref>
												<mediatype>audio</mediatype>
												<trackindex>65</trackindex>
												<clipindex>37</clipindex>
												<groupindex>1</groupindex>
											</link>
											<link>
												<linkclipref>Raw Scene Matthew Duepner Walkabout29</linkclipref>
												<mediatype>audio</mediatype>
												<trackindex>66</trackindex>
												<clipindex>37</clipindex>
												<groupindex>1</groupindex>
											</link>
											<itemhistory>
												<uuid>50B09BCB-C34B-4496-8BCB-29BCEAEBD4DB</uuid>
											</itemhistory>
										</clipitem>
										<clipitem id="Raw Scene Matthew Duepner Walkabout33">
											<name>Raw Scene Matthew Duepner Walkabout</name>
											<duration>38484</duration>
											<rate>
												<ntsc>TRUE</ntsc>
												<timebase>24</timebase>
											</rate>
											<in>13825</in>
											<out>13967</out>
											<start>4922</start>
											<end>5064</end>
											<masterclipid>Raw Scene Matthew Duepner Walkabout203</masterclipid>
											<logginginfo>
												<scene/>
												<shottake/>
												<lognote/>
												<good>FALSE</good>
											</logginginfo>
											<labels>
												<label2/>
											</labels>
											<comments>
												<mastercomment1/>
												<mastercomment2/>
												<mastercomment3/>
												<mastercomment4/>
											</comments>
											<file id="YIN_2013-05-28_LG-4 "/>
											<filter>
												<effect>
													<name>Audio Levels</name>
													<effectid>audiolevels</effectid>
													<effectcategory>audiolevels</effectcategory>
													<effecttype>audiolevels</effecttype>
													<mediatype>audio</mediatype>
													<parameter>
														<name>Level</name>
														<parameterid>level</parameterid>
														<valuemin>0</valuemin>
														<valuemax>3.98109</valuemax>
														<value>1</value>
													</parameter>
												</effect>
											</filter>
											<filter>
												<effect>
													<name>Audio Pan</name>
													<effectid>audiopan</effectid>
													<effectcategory>audiopan</effectcategory>
													<effecttype>audiopan</effecttype>
													<mediatype>audio</mediatype>
													<parameter>
														<name>Pan</name>
														<parameterid>pan</parameterid>
														<valuemin>-1</valuemin>
														<valuemax>1</valuemax>
														<value>-0</value>
													</parameter>
												</effect>
											</filter>
											<sourcetrack>
												<mediatype>audio</mediatype>
												<trackindex>2</trackindex>
											</sourcetrack>
											<link>
												<linkclipref>Raw Scene Matthew Duepner Walkabout30</linkclipref>
												<mediatype>video</mediatype>
												<trackindex>3</trackindex>
												<clipindex>38</clipindex>
											</link>
											<link>
												<linkclipref>Raw Scene Matthew Duepner Walkabout32</linkclipref>
												<mediatype>audio</mediatype>
												<trackindex>65</trackindex>
												<clipindex>38</clipindex>
												<groupindex>1</groupindex>
											</link>
											<link>
												<linkclipref>Raw Scene Matthew Duepner Walkabout33</linkclipref>
												<mediatype>audio</mediatype>
												<trackindex>66</trackindex>
												<clipindex>38</clipindex>
												<groupindex>1</groupindex>
											</link>
											<itemhistory>
												<uuid>6795AE30-511D-46DC-B45E-F2316AB7F520</uuid>
											</itemhistory>
										</clipitem>
										<clipitem id="Raw Scene Matthew Duepner Walkabout37">
											<name>Raw Scene Matthew Duepner Walkabout</name>
											<duration>38484</duration>
											<rate>
												<ntsc>TRUE</ntsc>
												<timebase>24</timebase>
											</rate>
											<in>14191</in>
											<out>14629</out>
											<start>5064</start>
											<end>5502</end>
											<masterclipid>Raw Scene Matthew Duepner Walkabout204</masterclipid>
											<logginginfo>
												<scene/>
												<shottake/>
												<lognote/>
												<good>FALSE</good>
											</logginginfo>
											<labels>
												<label2/>
											</labels>
											<comments>
												<mastercomment1/>
												<mastercomment2/>
												<mastercomment3/>
												<mastercomment4/>
											</comments>
											<file id="YIN_2013-05-28_LG-4 "/>
											<filter>
												<effect>
													<name>Audio Levels</name>
													<effectid>audiolevels</effectid>
													<effectcategory>audiolevels</effectcategory>
													<effecttype>audiolevels</effecttype>
													<mediatype>audio</mediatype>
													<parameter>
														<name>Level</name>
														<parameterid>level</parameterid>
														<valuemin>0</valuemin>
														<valuemax>3.98109</valuemax>
														<value>1</value>
													</parameter>
												</effect>
											</filter>
											<filter>
												<effect>
													<name>Audio Pan</name>
													<effectid>audiopan</effectid>
													<effectcategory>audiopan</effectcategory>
													<effecttype>audiopan</effecttype>
													<mediatype>audio</mediatype>
													<parameter>
														<name>Pan</name>
														<parameterid>pan</parameterid>
														<valuemin>-1</valuemin>
														<valuemax>1</valuemax>
														<value>-0</value>
													</parameter>
												</effect>
											</filter>
											<sourcetrack>
												<mediatype>audio</mediatype>
												<trackindex>2</trackindex>
											</sourcetrack>
											<link>
												<linkclipref>Raw Scene Matthew Duepner Walkabout34</linkclipref>
												<mediatype>video</mediatype>
												<trackindex>3</trackindex>
												<clipindex>39</clipindex>
											</link>
											<link>
												<linkclipref>Raw Scene Matthew Duepner Walkabout36</linkclipref>
												<mediatype>audio</mediatype>
												<trackindex>65</trackindex>
												<clipindex>39</clipindex>
												<groupindex>1</groupindex>
											</link>
											<link>
												<linkclipref>Raw Scene Matthew Duepner Walkabout37</linkclipref>
												<mediatype>audio</mediatype>
												<trackindex>66</trackindex>
												<clipindex>39</clipindex>
												<groupindex>1</groupindex>
											</link>
											<itemhistory>
												<uuid>CDD0002F-32AA-40E8-89AD-D2595587970F</uuid>
											</itemhistory>
										</clipitem>
										<clipitem id="Raw Scene Matthew Duepner Walkabout41">
											<name>Raw Scene Matthew Duepner Walkabout</name>
											<duration>38484</duration>
											<rate>
												<ntsc>TRUE</ntsc>
												<timebase>24</timebase>
											</rate>
											<in>14910</in>
											<out>15123</out>
											<start>5502</start>
											<end>5715</end>
											<masterclipid>Raw Scene Matthew Duepner Walkabout205</masterclipid>
											<logginginfo>
												<scene/>
												<shottake/>
												<lognote/>
												<good>FALSE</good>
											</logginginfo>
											<labels>
												<label2/>
											</labels>
											<comments>
												<mastercomment1/>
												<mastercomment2/>
												<mastercomment3/>
												<mastercomment4/>
											</comments>
											<file id="YIN_2013-05-28_LG-4 "/>
											<filter>
												<effect>
													<name>Audio Levels</name>
													<effectid>audiolevels</effectid>
													<effectcategory>audiolevels</effectcategory>
													<effecttype>audiolevels</effecttype>
													<mediatype>audio</mediatype>
													<parameter>
														<name>Level</name>
														<parameterid>level</parameterid>
														<valuemin>0</valuemin>
														<valuemax>3.98109</valuemax>
														<value>1</value>
													</parameter>
												</effect>
											</filter>
											<filter>
												<effect>
													<name>Audio Pan</name>
													<effectid>audiopan</effectid>
													<effectcategory>audiopan</effectcategory>
													<effecttype>audiopan</effecttype>
													<mediatype>audio</mediatype>
													<parameter>
														<name>Pan</name>
														<parameterid>pan</parameterid>
														<valuemin>-1</valuemin>
														<valuemax>1</valuemax>
														<value>-0</value>
													</parameter>
												</effect>
											</filter>
											<sourcetrack>
												<mediatype>audio</mediatype>
												<trackindex>2</trackindex>
											</sourcetrack>
											<link>
												<linkclipref>Raw Scene Matthew Duepner Walkabout38</linkclipref>
												<mediatype>video</mediatype>
												<trackindex>3</trackindex>
												<clipindex>40</clipindex>
											</link>
											<link>
												<linkclipref>Raw Scene Matthew Duepner Walkabout40</linkclipref>
												<mediatype>audio</mediatype>
												<trackindex>65</trackindex>
												<clipindex>40</clipindex>
												<groupindex>1</groupindex>
											</link>
											<link>
												<linkclipref>Raw Scene Matthew Duepner Walkabout41</linkclipref>
												<mediatype>audio</mediatype>
												<trackindex>66</trackindex>
												<clipindex>40</clipindex>
												<groupindex>1</groupindex>
											</link>
											<itemhistory>
												<uuid>BEDBA7D9-B9B5-4CD1-8EC3-E008A555B292</uuid>
											</itemhistory>
										</clipitem>
										<clipitem id="Raw Scene Matthew Duepner Walkabout45">
											<name>Raw Scene Matthew Duepner Walkabout</name>
											<duration>38484</duration>
											<rate>
												<ntsc>TRUE</ntsc>
												<timebase>24</timebase>
											</rate>
											<in>17326</in>
											<out>17746</out>
											<start>5715</start>
											<end>6135</end>
											<masterclipid>Raw Scene Matthew Duepner Walkabout206</masterclipid>
											<logginginfo>
												<scene/>
												<shottake/>
												<lognote/>
												<good>FALSE</good>
											</logginginfo>
											<labels>
												<label2/>
											</labels>
											<comments>
												<mastercomment1/>
												<mastercomment2/>
												<mastercomment3/>
												<mastercomment4/>
											</comments>
											<file id="YIN_2013-05-28_LG-4 "/>
											<filter>
												<effect>
													<name>Audio Levels</name>
													<effectid>audiolevels</effectid>
													<effectcategory>audiolevels</effectcategory>
													<effecttype>audiolevels</effecttype>
													<mediatype>audio</mediatype>
													<parameter>
														<name>Level</name>
														<parameterid>level</parameterid>
														<valuemin>0</valuemin>
														<valuemax>3.98109</valuemax>
														<value>1</value>
													</parameter>
												</effect>
											</filter>
											<filter>
												<effect>
													<name>Audio Pan</name>
													<effectid>audiopan</effectid>
													<effectcategory>audiopan</effectcategory>
													<effecttype>audiopan</effecttype>
													<mediatype>audio</mediatype>
													<parameter>
														<name>Pan</name>
														<parameterid>pan</parameterid>
														<valuemin>-1</valuemin>
														<valuemax>1</valuemax>
														<value>-0</value>
													</parameter>
												</effect>
											</filter>
											<sourcetrack>
												<mediatype>audio</mediatype>
												<trackindex>2</trackindex>
											</sourcetrack>
											<link>
												<linkclipref>Raw Scene Matthew Duepner Walkabout42</linkclipref>
												<mediatype>video</mediatype>
												<trackindex>3</trackindex>
												<clipindex>41</clipindex>
											</link>
											<link>
												<linkclipref>Raw Scene Matthew Duepner Walkabout44</linkclipref>
												<mediatype>audio</mediatype>
												<trackindex>65</trackindex>
												<clipindex>41</clipindex>
												<groupindex>1</groupindex>
											</link>
											<link>
												<linkclipref>Raw Scene Matthew Duepner Walkabout45</linkclipref>
												<mediatype>audio</mediatype>
												<trackindex>66</trackindex>
												<clipindex>41</clipindex>
												<groupindex>1</groupindex>
											</link>
											<itemhistory>
												<uuid>E9EBACD4-15B1-4F30-A552-65B6B572B823</uuid>
											</itemhistory>
										</clipitem>
										<clipitem id="Raw Scene Matthew Duepner Walkabout49">
											<name>Raw Scene Matthew Duepner Walkabout</name>
											<duration>38484</duration>
											<rate>
												<ntsc>TRUE</ntsc>
												<timebase>24</timebase>
											</rate>
											<in>18256</in>
											<out>18413</out>
											<start>6135</start>
											<end>6292</end>
											<masterclipid>Raw Scene Matthew Duepner Walkabout207</masterclipid>
											<logginginfo>
												<scene/>
												<shottake/>
												<lognote/>
												<good>FALSE</good>
											</logginginfo>
											<labels>
												<label2/>
											</labels>
											<comments>
												<mastercomment1/>
												<mastercomment2/>
												<mastercomment3/>
												<mastercomment4/>
											</comments>
											<file id="YIN_2013-05-28_LG-4 "/>
											<filter>
												<effect>
													<name>Audio Levels</name>
													<effectid>audiolevels</effectid>
													<effectcategory>audiolevels</effectcategory>
													<effecttype>audiolevels</effecttype>
													<mediatype>audio</mediatype>
													<parameter>
														<name>Level</name>
														<parameterid>level</parameterid>
														<valuemin>0</valuemin>
														<valuemax>3.98109</valuemax>
														<value>1</value>
													</parameter>
												</effect>
											</filter>
											<filter>
												<effect>
													<name>Audio Pan</name>
													<effectid>audiopan</effectid>
													<effectcategory>audiopan</effectcategory>
													<effecttype>audiopan</effecttype>
													<mediatype>audio</mediatype>
													<parameter>
														<name>Pan</name>
														<parameterid>pan</parameterid>
														<valuemin>-1</valuemin>
														<valuemax>1</valuemax>
														<value>-0</value>
													</parameter>
												</effect>
											</filter>
											<sourcetrack>
												<mediatype>audio</mediatype>
												<trackindex>2</trackindex>
											</sourcetrack>
											<link>
												<linkclipref>Raw Scene Matthew Duepner Walkabout46</linkclipref>
												<mediatype>video</mediatype>
												<trackindex>3</trackindex>
												<clipindex>42</clipindex>
											</link>
											<link>
												<linkclipref>Raw Scene Matthew Duepner Walkabout48</linkclipref>
												<mediatype>audio</mediatype>
												<trackindex>65</trackindex>
												<clipindex>42</clipindex>
												<groupindex>1</groupindex>
											</link>
											<link>
												<linkclipref>Raw Scene Matthew Duepner Walkabout49</linkclipref>
												<mediatype>audio</mediatype>
												<trackindex>66</trackindex>
												<clipindex>42</clipindex>
												<groupindex>1</groupindex>
											</link>
											<itemhistory>
												<uuid>1A68F241-8C8E-4771-8C55-FBA3180AE78B</uuid>
											</itemhistory>
										</clipitem>
										<clipitem id="Raw Scene Matthew Duepner Walkabout53">
											<name>Raw Scene Matthew Duepner Walkabout</name>
											<duration>38484</duration>
											<rate>
												<ntsc>TRUE</ntsc>
												<timebase>24</timebase>
											</rate>
											<in>19758</in>
											<out>19953</out>
											<start>6292</start>
											<end>6487</end>
											<masterclipid>Raw Scene Matthew Duepner Walkabout208</masterclipid>
											<logginginfo>
												<scene/>
												<shottake/>
												<lognote/>
												<good>FALSE</good>
											</logginginfo>
											<labels>
												<label2/>
											</labels>
											<comments>
												<mastercomment1/>
												<mastercomment2/>
												<mastercomment3/>
												<mastercomment4/>
											</comments>
											<file id="YIN_2013-05-28_LG-4 "/>
											<filter>
												<effect>
													<name>Audio Levels</name>
													<effectid>audiolevels</effectid>
													<effectcategory>audiolevels</effectcategory>
													<effecttype>audiolevels</effecttype>
													<mediatype>audio</mediatype>
													<parameter>
														<name>Level</name>
														<parameterid>level</parameterid>
														<valuemin>0</valuemin>
														<valuemax>3.98109</valuemax>
														<value>1</value>
													</parameter>
												</effect>
											</filter>
											<filter>
												<effect>
													<name>Audio Pan</name>
													<effectid>audiopan</effectid>
													<effectcategory>audiopan</effectcategory>
													<effecttype>audiopan</effecttype>
													<mediatype>audio</mediatype>
													<parameter>
														<name>Pan</name>
														<parameterid>pan</parameterid>
														<valuemin>-1</valuemin>
														<valuemax>1</valuemax>
														<value>-0</value>
													</parameter>
												</effect>
											</filter>
											<sourcetrack>
												<mediatype>audio</mediatype>
												<trackindex>2</trackindex>
											</sourcetrack>
											<link>
												<linkclipref>Raw Scene Matthew Duepner Walkabout50</linkclipref>
												<mediatype>video</mediatype>
												<trackindex>3</trackindex>
												<clipindex>43</clipindex>
											</link>
											<link>
												<linkclipref>Raw Scene Matthew Duepner Walkabout52</linkclipref>
												<mediatype>audio</mediatype>
												<trackindex>65</trackindex>
												<clipindex>43</clipindex>
												<groupindex>1</groupindex>
											</link>
											<link>
												<linkclipref>Raw Scene Matthew Duepner Walkabout53</linkclipref>
												<mediatype>audio</mediatype>
												<trackindex>66</trackindex>
												<clipindex>43</clipindex>
												<groupindex>1</groupindex>
											</link>
											<itemhistory>
												<uuid>7C2E7469-C61A-414B-BC81-C273474E3DF0</uuid>
											</itemhistory>
										</clipitem>
										<clipitem id="Raw Scene Matthew Duepner Walkabout57">
											<name>Raw Scene Matthew Duepner Walkabout</name>
											<duration>38484</duration>
											<rate>
												<ntsc>TRUE</ntsc>
												<timebase>24</timebase>
											</rate>
											<in>21572</in>
											<out>21660</out>
											<start>6487</start>
											<end>6575</end>
											<masterclipid>Raw Scene Matthew Duepner Walkabout209</masterclipid>
											<logginginfo>
												<scene/>
												<shottake/>
												<lognote/>
												<good>FALSE</good>
											</logginginfo>
											<labels>
												<label2/>
											</labels>
											<comments>
												<mastercomment1/>
												<mastercomment2/>
												<mastercomment3/>
												<mastercomment4/>
											</comments>
											<file id="YIN_2013-05-28_LG-4 "/>
											<filter>
												<effect>
													<name>Audio Levels</name>
													<effectid>audiolevels</effectid>
													<effectcategory>audiolevels</effectcategory>
													<effecttype>audiolevels</effecttype>
													<mediatype>audio</mediatype>
													<parameter>
														<name>Level</name>
														<parameterid>level</parameterid>
														<valuemin>0</valuemin>
														<valuemax>3.98109</valuemax>
														<value>1</value>
													</parameter>
												</effect>
											</filter>
											<filter>
												<effect>
													<name>Audio Pan</name>
													<effectid>audiopan</effectid>
													<effectcategory>audiopan</effectcategory>
													<effecttype>audiopan</effecttype>
													<mediatype>audio</mediatype>
													<parameter>
														<name>Pan</name>
														<parameterid>pan</parameterid>
														<valuemin>-1</valuemin>
														<valuemax>1</valuemax>
														<value>-0</value>
													</parameter>
												</effect>
											</filter>
											<sourcetrack>
												<mediatype>audio</mediatype>
												<trackindex>2</trackindex>
											</sourcetrack>
											<link>
												<linkclipref>Raw Scene Matthew Duepner Walkabout54</linkclipref>
												<mediatype>video</mediatype>
												<trackindex>3</trackindex>
												<clipindex>44</clipindex>
											</link>
											<link>
												<linkclipref>Raw Scene Matthew Duepner Walkabout56</linkclipref>
												<mediatype>audio</mediatype>
												<trackindex>65</trackindex>
												<clipindex>44</clipindex>
												<groupindex>1</groupindex>
											</link>
											<link>
												<linkclipref>Raw Scene Matthew Duepner Walkabout57</linkclipref>
												<mediatype>audio</mediatype>
												<trackindex>66</trackindex>
												<clipindex>44</clipindex>
												<groupindex>1</groupindex>
											</link>
											<itemhistory>
												<uuid>37F23E52-6FD9-4F8B-8615-C561142F8550</uuid>
											</itemhistory>
										</clipitem>
										<clipitem id="Raw Scene Matthew Duepner Walkabout61">
											<name>Raw Scene Matthew Duepner Walkabout</name>
											<duration>38484</duration>
											<rate>
												<ntsc>TRUE</ntsc>
												<timebase>24</timebase>
											</rate>
											<in>22012</in>
											<out>22143</out>
											<start>6575</start>
											<end>6706</end>
											<masterclipid>Raw Scene Matthew Duepner Walkabout210</masterclipid>
											<logginginfo>
												<scene/>
												<shottake/>
												<lognote/>
												<good>FALSE</good>
											</logginginfo>
											<labels>
												<label2/>
											</labels>
											<comments>
												<mastercomment1/>
												<mastercomment2/>
												<mastercomment3/>
												<mastercomment4/>
											</comments>
											<file id="YIN_2013-05-28_LG-4 "/>
											<filter>
												<effect>
													<name>Audio Levels</name>
													<effectid>audiolevels</effectid>
													<effectcategory>audiolevels</effectcategory>
													<effecttype>audiolevels</effecttype>
													<mediatype>audio</mediatype>
													<parameter>
														<name>Level</name>
														<parameterid>level</parameterid>
														<valuemin>0</valuemin>
														<valuemax>3.98109</valuemax>
														<value>1</value>
													</parameter>
												</effect>
											</filter>
											<filter>
												<effect>
													<name>Audio Pan</name>
													<effectid>audiopan</effectid>
													<effectcategory>audiopan</effectcategory>
													<effecttype>audiopan</effecttype>
													<mediatype>audio</mediatype>
													<parameter>
														<name>Pan</name>
														<parameterid>pan</parameterid>
														<valuemin>-1</valuemin>
														<valuemax>1</valuemax>
														<value>-0</value>
													</parameter>
												</effect>
											</filter>
											<sourcetrack>
												<mediatype>audio</mediatype>
												<trackindex>2</trackindex>
											</sourcetrack>
											<link>
												<linkclipref>Raw Scene Matthew Duepner Walkabout58</linkclipref>
												<mediatype>video</mediatype>
												<trackindex>3</trackindex>
												<clipindex>45</clipindex>
											</link>
											<link>
												<linkclipref>Raw Scene Matthew Duepner Walkabout60</linkclipref>
												<mediatype>audio</mediatype>
												<trackindex>65</trackindex>
												<clipindex>45</clipindex>
												<groupindex>1</groupindex>
											</link>
											<link>
												<linkclipref>Raw Scene Matthew Duepner Walkabout61</linkclipref>
												<mediatype>audio</mediatype>
												<trackindex>66</trackindex>
												<clipindex>45</clipindex>
												<groupindex>1</groupindex>
											</link>
											<itemhistory>
												<uuid>371C80F5-CD15-40F4-8F17-FBE158D7AC25</uuid>
											</itemhistory>
										</clipitem>
										<clipitem id="Raw Scene Matthew Duepner Walkabout65">
											<name>Raw Scene Matthew Duepner Walkabout</name>
											<duration>38484</duration>
											<rate>
												<ntsc>TRUE</ntsc>
												<timebase>24</timebase>
											</rate>
											<in>23496</in>
											<out>23611</out>
											<start>6706</start>
											<end>6821</end>
											<masterclipid>Raw Scene Matthew Duepner Walkabout211</masterclipid>
											<logginginfo>
												<scene/>
												<shottake/>
												<lognote/>
												<good>FALSE</good>
											</logginginfo>
											<labels>
												<label2/>
											</labels>
											<comments>
												<mastercomment1/>
												<mastercomment2/>
												<mastercomment3/>
												<mastercomment4/>
											</comments>
											<file id="YIN_2013-05-28_LG-4 "/>
											<filter>
												<effect>
													<name>Audio Levels</name>
													<effectid>audiolevels</effectid>
													<effectcategory>audiolevels</effectcategory>
													<effecttype>audiolevels</effecttype>
													<mediatype>audio</mediatype>
													<parameter>
														<name>Level</name>
														<parameterid>level</parameterid>
														<valuemin>0</valuemin>
														<valuemax>3.98109</valuemax>
														<value>1</value>
													</parameter>
												</effect>
											</filter>
											<filter>
												<effect>
													<name>Audio Pan</name>
													<effectid>audiopan</effectid>
													<effectcategory>audiopan</effectcategory>
													<effecttype>audiopan</effecttype>
													<mediatype>audio</mediatype>
													<parameter>
														<name>Pan</name>
														<parameterid>pan</parameterid>
														<valuemin>-1</valuemin>
														<valuemax>1</valuemax>
														<value>-0</value>
													</parameter>
												</effect>
											</filter>
											<sourcetrack>
												<mediatype>audio</mediatype>
												<trackindex>2</trackindex>
											</sourcetrack>
											<link>
												<linkclipref>Raw Scene Matthew Duepner Walkabout62</linkclipref>
												<mediatype>video</mediatype>
												<trackindex>3</trackindex>
												<clipindex>46</clipindex>
											</link>
											<link>
												<linkclipref>Raw Scene Matthew Duepner Walkabout64</linkclipref>
												<mediatype>audio</mediatype>
												<trackindex>65</trackindex>
												<clipindex>46</clipindex>
												<groupindex>1</groupindex>
											</link>
											<link>
												<linkclipref>Raw Scene Matthew Duepner Walkabout65</linkclipref>
												<mediatype>audio</mediatype>
												<trackindex>66</trackindex>
												<clipindex>46</clipindex>
												<groupindex>1</groupindex>
											</link>
											<itemhistory>
												<uuid>CFB39932-72A1-4C15-95BF-58F11DE3AFDF</uuid>
											</itemhistory>
										</clipitem>
										<clipitem id="Raw Scene Matthew Duepner Walkabout69">
											<name>Raw Scene Matthew Duepner Walkabout</name>
											<duration>38484</duration>
											<rate>
												<ntsc>TRUE</ntsc>
												<timebase>24</timebase>
											</rate>
											<in>25130</in>
											<out>25241</out>
											<start>6821</start>
											<end>6932</end>
											<masterclipid>Raw Scene Matthew Duepner Walkabout212</masterclipid>
											<logginginfo>
												<scene/>
												<shottake/>
												<lognote/>
												<good>FALSE</good>
											</logginginfo>
											<labels>
												<label2/>
											</labels>
											<comments>
												<mastercomment1/>
												<mastercomment2/>
												<mastercomment3/>
												<mastercomment4/>
											</comments>
											<file id="YIN_2013-05-28_LG-4 "/>
											<filter>
												<effect>
													<name>Audio Levels</name>
													<effectid>audiolevels</effectid>
													<effectcategory>audiolevels</effectcategory>
													<effecttype>audiolevels</effecttype>
													<mediatype>audio</mediatype>
													<parameter>
														<name>Level</name>
														<parameterid>level</parameterid>
														<valuemin>0</valuemin>
														<valuemax>3.98109</valuemax>
														<value>1</value>
													</parameter>
												</effect>
											</filter>
											<filter>
												<effect>
													<name>Audio Pan</name>
													<effectid>audiopan</effectid>
													<effectcategory>audiopan</effectcategory>
													<effecttype>audiopan</effecttype>
													<mediatype>audio</mediatype>
													<parameter>
														<name>Pan</name>
														<parameterid>pan</parameterid>
														<valuemin>-1</valuemin>
														<valuemax>1</valuemax>
														<value>-0</value>
													</parameter>
												</effect>
											</filter>
											<sourcetrack>
												<mediatype>audio</mediatype>
												<trackindex>2</trackindex>
											</sourcetrack>
											<link>
												<linkclipref>Raw Scene Matthew Duepner Walkabout66</linkclipref>
												<mediatype>video</mediatype>
												<trackindex>3</trackindex>
												<clipindex>47</clipindex>
											</link>
											<link>
												<linkclipref>Raw Scene Matthew Duepner Walkabout68</linkclipref>
												<mediatype>audio</mediatype>
												<trackindex>65</trackindex>
												<clipindex>47</clipindex>
												<groupindex>1</groupindex>
											</link>
											<link>
												<linkclipref>Raw Scene Matthew Duepner Walkabout69</linkclipref>
												<mediatype>audio</mediatype>
												<trackindex>66</trackindex>
												<clipindex>47</clipindex>
												<groupindex>1</groupindex>
											</link>
											<itemhistory>
												<uuid>A1BBBB3B-1FFA-4C4B-914F-50BDE7507C7D</uuid>
											</itemhistory>
										</clipitem>
										<clipitem id="Raw Scene Matthew Duepner Walkabout73">
											<name>Raw Scene Matthew Duepner Walkabout</name>
											<duration>38484</duration>
											<rate>
												<ntsc>TRUE</ntsc>
												<timebase>24</timebase>
											</rate>
											<in>24211</in>
											<out>24295</out>
											<start>6932</start>
											<end>7016</end>
											<masterclipid>Raw Scene Matthew Duepner Walkabout213</masterclipid>
											<logginginfo>
												<scene/>
												<shottake/>
												<lognote/>
												<good>FALSE</good>
											</logginginfo>
											<labels>
												<label2/>
											</labels>
											<comments>
												<mastercomment1/>
												<mastercomment2/>
												<mastercomment3/>
												<mastercomment4/>
											</comments>
											<file id="YIN_2013-05-28_LG-4 "/>
											<filter>
												<effect>
													<name>Audio Levels</name>
													<effectid>audiolevels</effectid>
													<effectcategory>audiolevels</effectcategory>
													<effecttype>audiolevels</effecttype>
													<mediatype>audio</mediatype>
													<parameter>
														<name>Level</name>
														<parameterid>level</parameterid>
														<valuemin>0</valuemin>
														<valuemax>3.98109</valuemax>
														<value>1</value>
													</parameter>
												</effect>
											</filter>
											<filter>
												<effect>
													<name>Audio Pan</name>
													<effectid>audiopan</effectid>
													<effectcategory>audiopan</effectcategory>
													<effecttype>audiopan</effecttype>
													<mediatype>audio</mediatype>
													<parameter>
														<name>Pan</name>
														<parameterid>pan</parameterid>
														<valuemin>-1</valuemin>
														<valuemax>1</valuemax>
														<value>-0</value>
													</parameter>
												</effect>
											</filter>
											<sourcetrack>
												<mediatype>audio</mediatype>
												<trackindex>2</trackindex>
											</sourcetrack>
											<link>
												<linkclipref>Raw Scene Matthew Duepner Walkabout70</linkclipref>
												<mediatype>video</mediatype>
												<trackindex>3</trackindex>
												<clipindex>48</clipindex>
											</link>
											<link>
												<linkclipref>Raw Scene Matthew Duepner Walkabout72</linkclipref>
												<mediatype>audio</mediatype>
												<trackindex>65</trackindex>
												<clipindex>48</clipindex>
												<groupindex>1</groupindex>
											</link>
											<link>
												<linkclipref>Raw Scene Matthew Duepner Walkabout73</linkclipref>
												<mediatype>audio</mediatype>
												<trackindex>66</trackindex>
												<clipindex>48</clipindex>
												<groupindex>1</groupindex>
											</link>
											<itemhistory>
												<uuid>1FD1C741-B6BE-4154-A458-3F9798342BEA</uuid>
											</itemhistory>
										</clipitem>
										<clipitem id="Raw Scene Matthew Duepner Walkabout77">
											<name>Raw Scene Matthew Duepner Walkabout</name>
											<duration>38484</duration>
											<rate>
												<ntsc>TRUE</ntsc>
												<timebase>24</timebase>
											</rate>
											<in>23727</in>
											<out>23813</out>
											<start>7016</start>
											<end>7102</end>
											<masterclipid>Raw Scene Matthew Duepner Walkabout214</masterclipid>
											<logginginfo>
												<scene/>
												<shottake/>
												<lognote/>
												<good>FALSE</good>
											</logginginfo>
											<labels>
												<label2/>
											</labels>
											<comments>
												<mastercomment1/>
												<mastercomment2/>
												<mastercomment3/>
												<mastercomment4/>
											</comments>
											<file id="YIN_2013-05-28_LG-4 "/>
											<filter>
												<effect>
													<name>Audio Levels</name>
													<effectid>audiolevels</effectid>
													<effectcategory>audiolevels</effectcategory>
													<effecttype>audiolevels</effecttype>
													<mediatype>audio</mediatype>
													<parameter>
														<name>Level</name>
														<parameterid>level</parameterid>
														<valuemin>0</valuemin>
														<valuemax>3.98109</valuemax>
														<value>1</value>
													</parameter>
												</effect>
											</filter>
											<filter>
												<effect>
													<name>Audio Pan</name>
													<effectid>audiopan</effectid>
													<effectcategory>audiopan</effectcategory>
													<effecttype>audiopan</effecttype>
													<mediatype>audio</mediatype>
													<parameter>
														<name>Pan</name>
														<parameterid>pan</parameterid>
														<valuemin>-1</valuemin>
														<valuemax>1</valuemax>
														<value>-0</value>
													</parameter>
												</effect>
											</filter>
											<sourcetrack>
												<mediatype>audio</mediatype>
												<trackindex>2</trackindex>
											</sourcetrack>
											<link>
												<linkclipref>Raw Scene Matthew Duepner Walkabout74</linkclipref>
												<mediatype>video</mediatype>
												<trackindex>3</trackindex>
												<clipindex>49</clipindex>
											</link>
											<link>
												<linkclipref>Raw Scene Matthew Duepner Walkabout76</linkclipref>
												<mediatype>audio</mediatype>
												<trackindex>65</trackindex>
												<clipindex>49</clipindex>
												<groupindex>1</groupindex>
											</link>
											<link>
												<linkclipref>Raw Scene Matthew Duepner Walkabout77</linkclipref>
												<mediatype>audio</mediatype>
												<trackindex>66</trackindex>
												<clipindex>49</clipindex>
												<groupindex>1</groupindex>
											</link>
											<itemhistory>
												<uuid>26EC658B-63EE-43F8-BA1A-D1F2D1235439</uuid>
											</itemhistory>
										</clipitem>
										<clipitem id="Raw Scene Matthew Duepner Walkabout81">
											<name>Raw Scene Matthew Duepner Walkabout</name>
											<duration>38484</duration>
											<rate>
												<ntsc>TRUE</ntsc>
												<timebase>24</timebase>
											</rate>
											<in>24423</in>
											<out>24509</out>
											<start>7102</start>
											<end>7188</end>
											<masterclipid>Raw Scene Matthew Duepner Walkabout215</masterclipid>
											<logginginfo>
												<scene/>
												<shottake/>
												<lognote/>
												<good>FALSE</good>
											</logginginfo>
											<labels>
												<label2/>
											</labels>
											<comments>
												<mastercomment1/>
												<mastercomment2/>
												<mastercomment3/>
												<mastercomment4/>
											</comments>
											<file id="YIN_2013-05-28_LG-4 "/>
											<filter>
												<effect>
													<name>Audio Levels</name>
													<effectid>audiolevels</effectid>
													<effectcategory>audiolevels</effectcategory>
													<effecttype>audiolevels</effecttype>
													<mediatype>audio</mediatype>
													<parameter>
														<name>Level</name>
														<parameterid>level</parameterid>
														<valuemin>0</valuemin>
														<valuemax>3.98109</valuemax>
														<value>1</value>
													</parameter>
												</effect>
											</filter>
											<filter>
												<effect>
													<name>Audio Pan</name>
													<effectid>audiopan</effectid>
													<effectcategory>audiopan</effectcategory>
													<effecttype>audiopan</effecttype>
													<mediatype>audio</mediatype>
													<parameter>
														<name>Pan</name>
														<parameterid>pan</parameterid>
														<valuemin>-1</valuemin>
														<valuemax>1</valuemax>
														<value>-0</value>
													</parameter>
												</effect>
											</filter>
											<sourcetrack>
												<mediatype>audio</mediatype>
												<trackindex>2</trackindex>
											</sourcetrack>
											<link>
												<linkclipref>Raw Scene Matthew Duepner Walkabout78</linkclipref>
												<mediatype>video</mediatype>
												<trackindex>3</trackindex>
												<clipindex>50</clipindex>
											</link>
											<link>
												<linkclipref>Raw Scene Matthew Duepner Walkabout80</linkclipref>
												<mediatype>audio</mediatype>
												<trackindex>65</trackindex>
												<clipindex>50</clipindex>
												<groupindex>1</groupindex>
											</link>
											<link>
												<linkclipref>Raw Scene Matthew Duepner Walkabout81</linkclipref>
												<mediatype>audio</mediatype>
												<trackindex>66</trackindex>
												<clipindex>50</clipindex>
												<groupindex>1</groupindex>
											</link>
											<itemhistory>
												<uuid>3254B4BA-D5B2-417C-B1E9-ECF1582DAEAE</uuid>
											</itemhistory>
										</clipitem>
										<clipitem id="Raw Scene Matthew Duepner Walkabout85">
											<name>Raw Scene Matthew Duepner Walkabout</name>
											<duration>38484</duration>
											<rate>
												<ntsc>TRUE</ntsc>
												<timebase>24</timebase>
											</rate>
											<in>26628</in>
											<out>26940</out>
											<start>7188</start>
											<end>7500</end>
											<masterclipid>Raw Scene Matthew Duepner Walkabout216</masterclipid>
											<logginginfo>
												<scene/>
												<shottake/>
												<lognote/>
												<good>FALSE</good>
											</logginginfo>
											<labels>
												<label2/>
											</labels>
											<comments>
												<mastercomment1/>
												<mastercomment2/>
												<mastercomment3/>
												<mastercomment4/>
											</comments>
											<file id="YIN_2013-05-28_LG-4 "/>
											<filter>
												<effect>
													<name>Audio Levels</name>
													<effectid>audiolevels</effectid>
													<effectcategory>audiolevels</effectcategory>
													<effecttype>audiolevels</effecttype>
													<mediatype>audio</mediatype>
													<parameter>
														<name>Level</name>
														<parameterid>level</parameterid>
														<valuemin>0</valuemin>
														<valuemax>3.98109</valuemax>
														<value>1</value>
													</parameter>
												</effect>
											</filter>
											<filter>
												<effect>
													<name>Audio Pan</name>
													<effectid>audiopan</effectid>
													<effectcategory>audiopan</effectcategory>
													<effecttype>audiopan</effecttype>
													<mediatype>audio</mediatype>
													<parameter>
														<name>Pan</name>
														<parameterid>pan</parameterid>
														<valuemin>-1</valuemin>
														<valuemax>1</valuemax>
														<value>-0</value>
													</parameter>
												</effect>
											</filter>
											<sourcetrack>
												<mediatype>audio</mediatype>
												<trackindex>2</trackindex>
											</sourcetrack>
											<link>
												<linkclipref>Raw Scene Matthew Duepner Walkabout82</linkclipref>
												<mediatype>video</mediatype>
												<trackindex>3</trackindex>
												<clipindex>51</clipindex>
											</link>
											<link>
												<linkclipref>Raw Scene Matthew Duepner Walkabout84</linkclipref>
												<mediatype>audio</mediatype>
												<trackindex>65</trackindex>
												<clipindex>51</clipindex>
												<groupindex>1</groupindex>
											</link>
											<link>
												<linkclipref>Raw Scene Matthew Duepner Walkabout85</linkclipref>
												<mediatype>audio</mediatype>
												<trackindex>66</trackindex>
												<clipindex>51</clipindex>
												<groupindex>1</groupindex>
											</link>
											<itemhistory>
												<uuid>DD322A74-52A7-42C7-B9E3-F63F3A284D34</uuid>
											</itemhistory>
										</clipitem>
										<clipitem id="Raw Scene Matthew Duepner Walkabout89">
											<name>Raw Scene Matthew Duepner Walkabout</name>
											<duration>38484</duration>
											<rate>
												<ntsc>TRUE</ntsc>
												<timebase>24</timebase>
											</rate>
											<in>26962</in>
											<out>27016</out>
											<start>7500</start>
											<end>7554</end>
											<masterclipid>Raw Scene Matthew Duepner Walkabout217</masterclipid>
											<logginginfo>
												<scene/>
												<shottake/>
												<lognote/>
												<good>FALSE</good>
											</logginginfo>
											<labels>
												<label2/>
											</labels>
											<comments>
												<mastercomment1/>
												<mastercomment2/>
												<mastercomment3/>
												<mastercomment4/>
											</comments>
											<file id="YIN_2013-05-28_LG-4 "/>
											<filter>
												<effect>
													<name>Audio Levels</name>
													<effectid>audiolevels</effectid>
													<effectcategory>audiolevels</effectcategory>
													<effecttype>audiolevels</effecttype>
													<mediatype>audio</mediatype>
													<parameter>
														<name>Level</name>
														<parameterid>level</parameterid>
														<valuemin>0</valuemin>
														<valuemax>3.98109</valuemax>
														<value>1</value>
													</parameter>
												</effect>
											</filter>
											<filter>
												<effect>
													<name>Audio Pan</name>
													<effectid>audiopan</effectid>
													<effectcategory>audiopan</effectcategory>
													<effecttype>audiopan</effecttype>
													<mediatype>audio</mediatype>
													<parameter>
														<name>Pan</name>
														<parameterid>pan</parameterid>
														<valuemin>-1</valuemin>
														<valuemax>1</valuemax>
														<value>-0</value>
													</parameter>
												</effect>
											</filter>
											<sourcetrack>
												<mediatype>audio</mediatype>
												<trackindex>2</trackindex>
											</sourcetrack>
											<link>
												<linkclipref>Raw Scene Matthew Duepner Walkabout86</linkclipref>
												<mediatype>video</mediatype>
												<trackindex>3</trackindex>
												<clipindex>52</clipindex>
											</link>
											<link>
												<linkclipref>Raw Scene Matthew Duepner Walkabout88</linkclipref>
												<mediatype>audio</mediatype>
												<trackindex>65</trackindex>
												<clipindex>52</clipindex>
												<groupindex>1</groupindex>
											</link>
											<link>
												<linkclipref>Raw Scene Matthew Duepner Walkabout89</linkclipref>
												<mediatype>audio</mediatype>
												<trackindex>66</trackindex>
												<clipindex>52</clipindex>
												<groupindex>1</groupindex>
											</link>
											<itemhistory>
												<uuid>594CF9C0-FA30-413E-A3ED-F9B089CD8112</uuid>
											</itemhistory>
										</clipitem>
										<clipitem id="Raw Scene Matthew Duepner Walkabout93">
											<name>Raw Scene Matthew Duepner Walkabout</name>
											<duration>38484</duration>
											<rate>
												<ntsc>TRUE</ntsc>
												<timebase>24</timebase>
											</rate>
											<in>27816</in>
											<out>28338</out>
											<start>7554</start>
											<end>8076</end>
											<masterclipid>Raw Scene Matthew Duepner Walkabout218</masterclipid>
											<logginginfo>
												<scene/>
												<shottake/>
												<lognote/>
												<good>FALSE</good>
											</logginginfo>
											<labels>
												<label2/>
											</labels>
											<comments>
												<mastercomment1/>
												<mastercomment2/>
												<mastercomment3/>
												<mastercomment4/>
											</comments>
											<file id="YIN_2013-05-28_LG-4 "/>
											<filter>
												<effect>
													<name>Audio Levels</name>
													<effectid>audiolevels</effectid>
													<effectcategory>audiolevels</effectcategory>
													<effecttype>audiolevels</effecttype>
													<mediatype>audio</mediatype>
													<parameter>
														<name>Level</name>
														<parameterid>level</parameterid>
														<valuemin>0</valuemin>
														<valuemax>3.98109</valuemax>
														<value>1</value>
													</parameter>
												</effect>
											</filter>
											<filter>
												<effect>
													<name>Audio Pan</name>
													<effectid>audiopan</effectid>
													<effectcategory>audiopan</effectcategory>
													<effecttype>audiopan</effecttype>
													<mediatype>audio</mediatype>
													<parameter>
														<name>Pan</name>
														<parameterid>pan</parameterid>
														<valuemin>-1</valuemin>
														<valuemax>1</valuemax>
														<value>-0</value>
													</parameter>
												</effect>
											</filter>
											<sourcetrack>
												<mediatype>audio</mediatype>
												<trackindex>2</trackindex>
											</sourcetrack>
											<link>
												<linkclipref>Raw Scene Matthew Duepner Walkabout90</linkclipref>
												<mediatype>video</mediatype>
												<trackindex>3</trackindex>
												<clipindex>53</clipindex>
											</link>
											<link>
												<linkclipref>Raw Scene Matthew Duepner Walkabout92</linkclipref>
												<mediatype>audio</mediatype>
												<trackindex>65</trackindex>
												<clipindex>53</clipindex>
												<groupindex>1</groupindex>
											</link>
											<link>
												<linkclipref>Raw Scene Matthew Duepner Walkabout93</linkclipref>
												<mediatype>audio</mediatype>
												<trackindex>66</trackindex>
												<clipindex>53</clipindex>
												<groupindex>1</groupindex>
											</link>
											<itemhistory>
												<uuid>6E9FD50B-FAD2-4771-9F5A-BE4009038FFD</uuid>
											</itemhistory>
										</clipitem>
										<clipitem id="Raw Scene Matthew Duepner Walkabout97">
											<name>Raw Scene Matthew Duepner Walkabout</name>
											<duration>38484</duration>
											<rate>
												<ntsc>TRUE</ntsc>
												<timebase>24</timebase>
											</rate>
											<in>28558</in>
											<out>28719</out>
											<start>8076</start>
											<end>8237</end>
											<masterclipid>Raw Scene Matthew Duepner Walkabout219</masterclipid>
											<logginginfo>
												<scene/>
												<shottake/>
												<lognote/>
												<good>FALSE</good>
											</logginginfo>
											<labels>
												<label2/>
											</labels>
											<comments>
												<mastercomment1/>
												<mastercomment2/>
												<mastercomment3/>
												<mastercomment4/>
											</comments>
											<file id="YIN_2013-05-28_LG-4 "/>
											<filter>
												<effect>
													<name>Audio Levels</name>
													<effectid>audiolevels</effectid>
													<effectcategory>audiolevels</effectcategory>
													<effecttype>audiolevels</effecttype>
													<mediatype>audio</mediatype>
													<parameter>
														<name>Level</name>
														<parameterid>level</parameterid>
														<valuemin>0</valuemin>
														<valuemax>3.98109</valuemax>
														<value>1</value>
													</parameter>
												</effect>
											</filter>
											<filter>
												<effect>
													<name>Audio Pan</name>
													<effectid>audiopan</effectid>
													<effectcategory>audiopan</effectcategory>
													<effecttype>audiopan</effecttype>
													<mediatype>audio</mediatype>
													<parameter>
														<name>Pan</name>
														<parameterid>pan</parameterid>
														<valuemin>-1</valuemin>
														<valuemax>1</valuemax>
														<value>-0</value>
													</parameter>
												</effect>
											</filter>
											<sourcetrack>
												<mediatype>audio</mediatype>
												<trackindex>2</trackindex>
											</sourcetrack>
											<link>
												<linkclipref>Raw Scene Matthew Duepner Walkabout94</linkclipref>
												<mediatype>video</mediatype>
												<trackindex>3</trackindex>
												<clipindex>54</clipindex>
											</link>
											<link>
												<linkclipref>Raw Scene Matthew Duepner Walkabout96</linkclipref>
												<mediatype>audio</mediatype>
												<trackindex>65</trackindex>
												<clipindex>54</clipindex>
												<groupindex>1</groupindex>
											</link>
											<link>
												<linkclipref>Raw Scene Matthew Duepner Walkabout97</linkclipref>
												<mediatype>audio</mediatype>
												<trackindex>66</trackindex>
												<clipindex>54</clipindex>
												<groupindex>1</groupindex>
											</link>
											<itemhistory>
												<uuid>562206D0-7548-4795-910B-F4792FB012DF</uuid>
											</itemhistory>
										</clipitem>
										<clipitem id="Raw Scene Matthew Duepner Walkabout101">
											<name>Raw Scene Matthew Duepner Walkabout</name>
											<duration>38484</duration>
											<rate>
												<ntsc>TRUE</ntsc>
												<timebase>24</timebase>
											</rate>
											<in>30624</in>
											<out>30700</out>
											<start>8237</start>
											<end>8313</end>
											<masterclipid>Raw Scene Matthew Duepner Walkabout220</masterclipid>
											<logginginfo>
												<scene/>
												<shottake/>
												<lognote/>
												<good>FALSE</good>
											</logginginfo>
											<labels>
												<label2/>
											</labels>
											<comments>
												<mastercomment1/>
												<mastercomment2/>
												<mastercomment3/>
												<mastercomment4/>
											</comments>
											<file id="YIN_2013-05-28_LG-4 "/>
											<filter>
												<effect>
													<name>Audio Levels</name>
													<effectid>audiolevels</effectid>
													<effectcategory>audiolevels</effectcategory>
													<effecttype>audiolevels</effecttype>
													<mediatype>audio</mediatype>
													<parameter>
														<name>Level</name>
														<parameterid>level</parameterid>
														<valuemin>0</valuemin>
														<valuemax>3.98109</valuemax>
														<value>1</value>
													</parameter>
												</effect>
											</filter>
											<filter>
												<effect>
													<name>Audio Pan</name>
													<effectid>audiopan</effectid>
													<effectcategory>audiopan</effectcategory>
													<effecttype>audiopan</effecttype>
													<mediatype>audio</mediatype>
													<parameter>
														<name>Pan</name>
														<parameterid>pan</parameterid>
														<valuemin>-1</valuemin>
														<valuemax>1</valuemax>
														<value>-0</value>
													</parameter>
												</effect>
											</filter>
											<sourcetrack>
												<mediatype>audio</mediatype>
												<trackindex>2</trackindex>
											</sourcetrack>
											<link>
												<linkclipref>Raw Scene Matthew Duepner Walkabout98</linkclipref>
												<mediatype>video</mediatype>
												<trackindex>3</trackindex>
												<clipindex>55</clipindex>
											</link>
											<link>
												<linkclipref>Raw Scene Matthew Duepner Walkabout100</linkclipref>
												<mediatype>audio</mediatype>
												<trackindex>65</trackindex>
												<clipindex>55</clipindex>
												<groupindex>1</groupindex>
											</link>
											<link>
												<linkclipref>Raw Scene Matthew Duepner Walkabout101</linkclipref>
												<mediatype>audio</mediatype>
												<trackindex>66</trackindex>
												<clipindex>55</clipindex>
												<groupindex>1</groupindex>
											</link>
											<itemhistory>
												<uuid>547A9156-0A21-43BD-91D2-DF2CC2193B60</uuid>
											</itemhistory>
										</clipitem>
										<clipitem id="Raw Scene Matthew Duepner Walkabout105">
											<name>Raw Scene Matthew Duepner Walkabout</name>
											<duration>38484</duration>
											<rate>
												<ntsc>TRUE</ntsc>
												<timebase>24</timebase>
											</rate>
											<in>30946</in>
											<out>30968</out>
											<start>8313</start>
											<end>8335</end>
											<masterclipid>Raw Scene Matthew Duepner Walkabout221</masterclipid>
											<logginginfo>
												<scene/>
												<shottake/>
												<lognote/>
												<good>FALSE</good>
											</logginginfo>
											<labels>
												<label2/>
											</labels>
											<comments>
												<mastercomment1/>
												<mastercomment2/>
												<mastercomment3/>
												<mastercomment4/>
											</comments>
											<file id="YIN_2013-05-28_LG-4 "/>
											<filter>
												<effect>
													<name>Audio Levels</name>
													<effectid>audiolevels</effectid>
													<effectcategory>audiolevels</effectcategory>
													<effecttype>audiolevels</effecttype>
													<mediatype>audio</mediatype>
													<parameter>
														<name>Level</name>
														<parameterid>level</parameterid>
														<valuemin>0</valuemin>
														<valuemax>3.98109</valuemax>
														<value>1</value>
													</parameter>
												</effect>
											</filter>
											<filter>
												<effect>
													<name>Audio Pan</name>
													<effectid>audiopan</effectid>
													<effectcategory>audiopan</effectcategory>
													<effecttype>audiopan</effecttype>
													<mediatype>audio</mediatype>
													<parameter>
														<name>Pan</name>
														<parameterid>pan</parameterid>
														<valuemin>-1</valuemin>
														<valuemax>1</valuemax>
														<value>-0</value>
													</parameter>
												</effect>
											</filter>
											<sourcetrack>
												<mediatype>audio</mediatype>
												<trackindex>2</trackindex>
											</sourcetrack>
											<link>
												<linkclipref>Raw Scene Matthew Duepner Walkabout102</linkclipref>
												<mediatype>video</mediatype>
												<trackindex>3</trackindex>
												<clipindex>56</clipindex>
											</link>
											<link>
												<linkclipref>Raw Scene Matthew Duepner Walkabout104</linkclipref>
												<mediatype>audio</mediatype>
												<trackindex>65</trackindex>
												<clipindex>56</clipindex>
												<groupindex>1</groupindex>
											</link>
											<link>
												<linkclipref>Raw Scene Matthew Duepner Walkabout105</linkclipref>
												<mediatype>audio</mediatype>
												<trackindex>66</trackindex>
												<clipindex>56</clipindex>
												<groupindex>1</groupindex>
											</link>
											<itemhistory>
												<uuid>C97E132A-C59E-4EF6-8A7A-97AA791BB29E</uuid>
											</itemhistory>
										</clipitem>
										<clipitem id="Raw Scene Matthew Duepner Walkabout109">
											<name>Raw Scene Matthew Duepner Walkabout</name>
											<duration>38484</duration>
											<rate>
												<ntsc>TRUE</ntsc>
												<timebase>24</timebase>
											</rate>
											<in>31032</in>
											<out>31190</out>
											<start>8335</start>
											<end>8493</end>
											<masterclipid>Raw Scene Matthew Duepner Walkabout222</masterclipid>
											<logginginfo>
												<scene/>
												<shottake/>
												<lognote/>
												<good>FALSE</good>
											</logginginfo>
											<labels>
												<label2/>
											</labels>
											<comments>
												<mastercomment1/>
												<mastercomment2/>
												<mastercomment3/>
												<mastercomment4/>
											</comments>
											<file id="YIN_2013-05-28_LG-4 "/>
											<filter>
												<effect>
													<name>Audio Levels</name>
													<effectid>audiolevels</effectid>
													<effectcategory>audiolevels</effectcategory>
													<effecttype>audiolevels</effecttype>
													<mediatype>audio</mediatype>
													<parameter>
														<name>Level</name>
														<parameterid>level</parameterid>
														<valuemin>0</valuemin>
														<valuemax>3.98109</valuemax>
														<value>1</value>
													</parameter>
												</effect>
											</filter>
											<filter>
												<effect>
													<name>Audio Pan</name>
													<effectid>audiopan</effectid>
													<effectcategory>audiopan</effectcategory>
													<effecttype>audiopan</effecttype>
													<mediatype>audio</mediatype>
													<parameter>
														<name>Pan</name>
														<parameterid>pan</parameterid>
														<valuemin>-1</valuemin>
														<valuemax>1</valuemax>
														<value>-0</value>
													</parameter>
												</effect>
											</filter>
											<sourcetrack>
												<mediatype>audio</mediatype>
												<trackindex>2</trackindex>
											</sourcetrack>
											<link>
												<linkclipref>Raw Scene Matthew Duepner Walkabout106</linkclipref>
												<mediatype>video</mediatype>
												<trackindex>3</trackindex>
												<clipindex>57</clipindex>
											</link>
											<link>
												<linkclipref>Raw Scene Matthew Duepner Walkabout108</linkclipref>
												<mediatype>audio</mediatype>
												<trackindex>65</trackindex>
												<clipindex>57</clipindex>
												<groupindex>1</groupindex>
											</link>
											<link>
												<linkclipref>Raw Scene Matthew Duepner Walkabout109</linkclipref>
												<mediatype>audio</mediatype>
												<trackindex>66</trackindex>
												<clipindex>57</clipindex>
												<groupindex>1</groupindex>
											</link>
											<itemhistory>
												<uuid>3485132F-3FAB-46A8-AD46-33B97007261C</uuid>
											</itemhistory>
										</clipitem>
										<clipitem id="Raw Scene Matthew Duepner Walkabout113">
											<name>Raw Scene Matthew Duepner Walkabout</name>
											<duration>38484</duration>
											<rate>
												<ntsc>TRUE</ntsc>
												<timebase>24</timebase>
											</rate>
											<in>31795</in>
											<out>31917</out>
											<start>8493</start>
											<end>8615</end>
											<masterclipid>Raw Scene Matthew Duepner Walkabout223</masterclipid>
											<logginginfo>
												<scene/>
												<shottake/>
												<lognote/>
												<good>FALSE</good>
											</logginginfo>
											<labels>
												<label2/>
											</labels>
											<comments>
												<mastercomment1/>
												<mastercomment2/>
												<mastercomment3/>
												<mastercomment4/>
											</comments>
											<file id="YIN_2013-05-28_LG-4 "/>
											<filter>
												<effect>
													<name>Audio Levels</name>
													<effectid>audiolevels</effectid>
													<effectcategory>audiolevels</effectcategory>
													<effecttype>audiolevels</effecttype>
													<mediatype>audio</mediatype>
													<parameter>
														<name>Level</name>
														<parameterid>level</parameterid>
														<valuemin>0</valuemin>
														<valuemax>3.98109</valuemax>
														<value>1</value>
													</parameter>
												</effect>
											</filter>
											<filter>
												<effect>
													<name>Audio Pan</name>
													<effectid>audiopan</effectid>
													<effectcategory>audiopan</effectcategory>
													<effecttype>audiopan</effecttype>
													<mediatype>audio</mediatype>
													<parameter>
														<name>Pan</name>
														<parameterid>pan</parameterid>
														<valuemin>-1</valuemin>
														<valuemax>1</valuemax>
														<value>-0</value>
													</parameter>
												</effect>
											</filter>
											<sourcetrack>
												<mediatype>audio</mediatype>
												<trackindex>2</trackindex>
											</sourcetrack>
											<link>
												<linkclipref>Raw Scene Matthew Duepner Walkabout110</linkclipref>
												<mediatype>video</mediatype>
												<trackindex>3</trackindex>
												<clipindex>58</clipindex>
											</link>
											<link>
												<linkclipref>Raw Scene Matthew Duepner Walkabout112</linkclipref>
												<mediatype>audio</mediatype>
												<trackindex>65</trackindex>
												<clipindex>58</clipindex>
												<groupindex>1</groupindex>
											</link>
											<link>
												<linkclipref>Raw Scene Matthew Duepner Walkabout113</linkclipref>
												<mediatype>audio</mediatype>
												<trackindex>66</trackindex>
												<clipindex>58</clipindex>
												<groupindex>1</groupindex>
											</link>
											<itemhistory>
												<uuid>2E00EB14-D826-4C85-BD78-28EE0A666D32</uuid>
											</itemhistory>
										</clipitem>
										<clipitem id="Raw Scene Matthew Duepner Walkabout117">
											<name>Raw Scene Matthew Duepner Walkabout</name>
											<duration>38484</duration>
											<rate>
												<ntsc>TRUE</ntsc>
												<timebase>24</timebase>
											</rate>
											<in>32375</in>
											<out>32507</out>
											<start>8615</start>
											<end>8747</end>
											<masterclipid>Raw Scene Matthew Duepner Walkabout224</masterclipid>
											<logginginfo>
												<scene/>
												<shottake/>
												<lognote/>
												<good>FALSE</good>
											</logginginfo>
											<labels>
												<label2/>
											</labels>
											<comments>
												<mastercomment1/>
												<mastercomment2/>
												<mastercomment3/>
												<mastercomment4/>
											</comments>
											<file id="YIN_2013-05-28_LG-4 "/>
											<filter>
												<effect>
													<name>Audio Levels</name>
													<effectid>audiolevels</effectid>
													<effectcategory>audiolevels</effectcategory>
													<effecttype>audiolevels</effecttype>
													<mediatype>audio</mediatype>
													<parameter>
														<name>Level</name>
														<parameterid>level</parameterid>
														<valuemin>0</valuemin>
														<valuemax>3.98109</valuemax>
														<value>1</value>
													</parameter>
												</effect>
											</filter>
											<filter>
												<effect>
													<name>Audio Pan</name>
													<effectid>audiopan</effectid>
													<effectcategory>audiopan</effectcategory>
													<effecttype>audiopan</effecttype>
													<mediatype>audio</mediatype>
													<parameter>
														<name>Pan</name>
														<parameterid>pan</parameterid>
														<valuemin>-1</valuemin>
														<valuemax>1</valuemax>
														<value>-0</value>
													</parameter>
												</effect>
											</filter>
											<sourcetrack>
												<mediatype>audio</mediatype>
												<trackindex>2</trackindex>
											</sourcetrack>
											<link>
												<linkclipref>Raw Scene Matthew Duepner Walkabout114</linkclipref>
												<mediatype>video</mediatype>
												<trackindex>3</trackindex>
												<clipindex>59</clipindex>
											</link>
											<link>
												<linkclipref>Raw Scene Matthew Duepner Walkabout116</linkclipref>
												<mediatype>audio</mediatype>
												<trackindex>65</trackindex>
												<clipindex>59</clipindex>
												<groupindex>1</groupindex>
											</link>
											<link>
												<linkclipref>Raw Scene Matthew Duepner Walkabout117</linkclipref>
												<mediatype>audio</mediatype>
												<trackindex>66</trackindex>
												<clipindex>59</clipindex>
												<groupindex>1</groupindex>
											</link>
											<itemhistory>
												<uuid>9FF67A13-4D08-42C6-BE29-5186894DA122</uuid>
											</itemhistory>
										</clipitem>
										<clipitem id="Raw Scene Matthew Duepner Walkabout121">
											<name>Raw Scene Matthew Duepner Walkabout</name>
											<duration>38484</duration>
											<rate>
												<ntsc>TRUE</ntsc>
												<timebase>24</timebase>
											</rate>
											<in>32997</in>
											<out>33142</out>
											<start>8747</start>
											<end>8892</end>
											<masterclipid>Raw Scene Matthew Duepner Walkabout225</masterclipid>
											<logginginfo>
												<scene/>
												<shottake/>
												<lognote/>
												<good>FALSE</good>
											</logginginfo>
											<labels>
												<label2/>
											</labels>
											<comments>
												<mastercomment1/>
												<mastercomment2/>
												<mastercomment3/>
												<mastercomment4/>
											</comments>
											<file id="YIN_2013-05-28_LG-4 "/>
											<filter>
												<effect>
													<name>Audio Levels</name>
													<effectid>audiolevels</effectid>
													<effectcategory>audiolevels</effectcategory>
													<effecttype>audiolevels</effecttype>
													<mediatype>audio</mediatype>
													<parameter>
														<name>Level</name>
														<parameterid>level</parameterid>
														<valuemin>0</valuemin>
														<valuemax>3.98109</valuemax>
														<value>1</value>
													</parameter>
												</effect>
											</filter>
											<filter>
												<effect>
													<name>Audio Pan</name>
													<effectid>audiopan</effectid>
													<effectcategory>audiopan</effectcategory>
													<effecttype>audiopan</effecttype>
													<mediatype>audio</mediatype>
													<parameter>
														<name>Pan</name>
														<parameterid>pan</parameterid>
														<valuemin>-1</valuemin>
														<valuemax>1</valuemax>
														<value>-0</value>
													</parameter>
												</effect>
											</filter>
											<sourcetrack>
												<mediatype>audio</mediatype>
												<trackindex>2</trackindex>
											</sourcetrack>
											<link>
												<linkclipref>Raw Scene Matthew Duepner Walkabout118</linkclipref>
												<mediatype>video</mediatype>
												<trackindex>3</trackindex>
												<clipindex>60</clipindex>
											</link>
											<link>
												<linkclipref>Raw Scene Matthew Duepner Walkabout120</linkclipref>
												<mediatype>audio</mediatype>
												<trackindex>65</trackindex>
												<clipindex>60</clipindex>
												<groupindex>1</groupindex>
											</link>
											<link>
												<linkclipref>Raw Scene Matthew Duepner Walkabout121</linkclipref>
												<mediatype>audio</mediatype>
												<trackindex>66</trackindex>
												<clipindex>60</clipindex>
												<groupindex>1</groupindex>
											</link>
											<itemhistory>
												<uuid>FE6A56A3-6F51-41F6-9E8E-9D6EC44F1041</uuid>
											</itemhistory>
										</clipitem>
										<clipitem id="Raw Scene Matthew Duepner Walkabout125">
											<name>Raw Scene Matthew Duepner Walkabout</name>
											<duration>38484</duration>
											<rate>
												<ntsc>TRUE</ntsc>
												<timebase>24</timebase>
											</rate>
											<in>33365</in>
											<out>33603</out>
											<start>8892</start>
											<end>9130</end>
											<masterclipid>Raw Scene Matthew Duepner Walkabout226</masterclipid>
											<logginginfo>
												<scene/>
												<shottake/>
												<lognote/>
												<good>FALSE</good>
											</logginginfo>
											<labels>
												<label2/>
											</labels>
											<comments>
												<mastercomment1/>
												<mastercomment2/>
												<mastercomment3/>
												<mastercomment4/>
											</comments>
											<file id="YIN_2013-05-28_LG-4 "/>
											<filter>
												<effect>
													<name>Audio Levels</name>
													<effectid>audiolevels</effectid>
													<effectcategory>audiolevels</effectcategory>
													<effecttype>audiolevels</effecttype>
													<mediatype>audio</mediatype>
													<parameter>
														<name>Level</name>
														<parameterid>level</parameterid>
														<valuemin>0</valuemin>
														<valuemax>3.98109</valuemax>
														<value>1</value>
													</parameter>
												</effect>
											</filter>
											<filter>
												<effect>
													<name>Audio Pan</name>
													<effectid>audiopan</effectid>
													<effectcategory>audiopan</effectcategory>
													<effecttype>audiopan</effecttype>
													<mediatype>audio</mediatype>
													<parameter>
														<name>Pan</name>
														<parameterid>pan</parameterid>
														<valuemin>-1</valuemin>
														<valuemax>1</valuemax>
														<value>-0</value>
													</parameter>
												</effect>
											</filter>
											<sourcetrack>
												<mediatype>audio</mediatype>
												<trackindex>2</trackindex>
											</sourcetrack>
											<link>
												<linkclipref>Raw Scene Matthew Duepner Walkabout122</linkclipref>
												<mediatype>video</mediatype>
												<trackindex>3</trackindex>
												<clipindex>61</clipindex>
											</link>
											<link>
												<linkclipref>Raw Scene Matthew Duepner Walkabout124</linkclipref>
												<mediatype>audio</mediatype>
												<trackindex>65</trackindex>
												<clipindex>61</clipindex>
												<groupindex>1</groupindex>
											</link>
											<link>
												<linkclipref>Raw Scene Matthew Duepner Walkabout125</linkclipref>
												<mediatype>audio</mediatype>
												<trackindex>66</trackindex>
												<clipindex>61</clipindex>
												<groupindex>1</groupindex>
											</link>
											<itemhistory>
												<uuid>C0B8FF41-39EE-4321-852A-8C62AC7F8A36</uuid>
											</itemhistory>
										</clipitem>
										<clipitem id="Raw Scene Matthew Duepner Walkabout129">
											<name>Raw Scene Matthew Duepner Walkabout</name>
											<duration>38484</duration>
											<rate>
												<ntsc>TRUE</ntsc>
												<timebase>24</timebase>
											</rate>
											<in>34172</in>
											<out>34249</out>
											<start>9130</start>
											<end>9207</end>
											<masterclipid>Raw Scene Matthew Duepner Walkabout227</masterclipid>
											<logginginfo>
												<scene/>
												<shottake/>
												<lognote/>
												<good>FALSE</good>
											</logginginfo>
											<labels>
												<label2/>
											</labels>
											<comments>
												<mastercomment1/>
												<mastercomment2/>
												<mastercomment3/>
												<mastercomment4/>
											</comments>
											<file id="YIN_2013-05-28_LG-4 "/>
											<filter>
												<effect>
													<name>Audio Levels</name>
													<effectid>audiolevels</effectid>
													<effectcategory>audiolevels</effectcategory>
													<effecttype>audiolevels</effecttype>
													<mediatype>audio</mediatype>
													<parameter>
														<name>Level</name>
														<parameterid>level</parameterid>
														<valuemin>0</valuemin>
														<valuemax>3.98109</valuemax>
														<value>1</value>
													</parameter>
												</effect>
											</filter>
											<filter>
												<effect>
													<name>Audio Pan</name>
													<effectid>audiopan</effectid>
													<effectcategory>audiopan</effectcategory>
													<effecttype>audiopan</effecttype>
													<mediatype>audio</mediatype>
													<parameter>
														<name>Pan</name>
														<parameterid>pan</parameterid>
														<valuemin>-1</valuemin>
														<valuemax>1</valuemax>
														<value>-0</value>
													</parameter>
												</effect>
											</filter>
											<sourcetrack>
												<mediatype>audio</mediatype>
												<trackindex>2</trackindex>
											</sourcetrack>
											<link>
												<linkclipref>Raw Scene Matthew Duepner Walkabout126</linkclipref>
												<mediatype>video</mediatype>
												<trackindex>3</trackindex>
												<clipindex>62</clipindex>
											</link>
											<link>
												<linkclipref>Raw Scene Matthew Duepner Walkabout128</linkclipref>
												<mediatype>audio</mediatype>
												<trackindex>65</trackindex>
												<clipindex>62</clipindex>
												<groupindex>1</groupindex>
											</link>
											<link>
												<linkclipref>Raw Scene Matthew Duepner Walkabout129</linkclipref>
												<mediatype>audio</mediatype>
												<trackindex>66</trackindex>
												<clipindex>62</clipindex>
												<groupindex>1</groupindex>
											</link>
											<itemhistory>
												<uuid>5C74DB7E-72F0-4A3A-9918-A6C93FF265F2</uuid>
											</itemhistory>
										</clipitem>
										<clipitem id="Raw Scene Matthew Duepner Walkabout133">
											<name>Raw Scene Matthew Duepner Walkabout</name>
											<duration>38484</duration>
											<rate>
												<ntsc>TRUE</ntsc>
												<timebase>24</timebase>
											</rate>
											<in>34380</in>
											<out>34644</out>
											<start>9207</start>
											<end>9471</end>
											<masterclipid>Raw Scene Matthew Duepner Walkabout228</masterclipid>
											<logginginfo>
												<scene/>
												<shottake/>
												<lognote/>
												<good>FALSE</good>
											</logginginfo>
											<labels>
												<label2/>
											</labels>
											<comments>
												<mastercomment1/>
												<mastercomment2/>
												<mastercomment3/>
												<mastercomment4/>
											</comments>
											<file id="YIN_2013-05-28_LG-4 "/>
											<filter>
												<effect>
													<name>Audio Levels</name>
													<effectid>audiolevels</effectid>
													<effectcategory>audiolevels</effectcategory>
													<effecttype>audiolevels</effecttype>
													<mediatype>audio</mediatype>
													<parameter>
														<name>Level</name>
														<parameterid>level</parameterid>
														<valuemin>0</valuemin>
														<valuemax>3.98109</valuemax>
														<value>1</value>
													</parameter>
												</effect>
											</filter>
											<filter>
												<effect>
													<name>Audio Pan</name>
													<effectid>audiopan</effectid>
													<effectcategory>audiopan</effectcategory>
													<effecttype>audiopan</effecttype>
													<mediatype>audio</mediatype>
													<parameter>
														<name>Pan</name>
														<parameterid>pan</parameterid>
														<valuemin>-1</valuemin>
														<valuemax>1</valuemax>
														<value>-0</value>
													</parameter>
												</effect>
											</filter>
											<sourcetrack>
												<mediatype>audio</mediatype>
												<trackindex>2</trackindex>
											</sourcetrack>
											<link>
												<linkclipref>Raw Scene Matthew Duepner Walkabout130</linkclipref>
												<mediatype>video</mediatype>
												<trackindex>3</trackindex>
												<clipindex>63</clipindex>
											</link>
											<link>
												<linkclipref>Raw Scene Matthew Duepner Walkabout132</linkclipref>
												<mediatype>audio</mediatype>
												<trackindex>65</trackindex>
												<clipindex>63</clipindex>
												<groupindex>1</groupindex>
											</link>
											<link>
												<linkclipref>Raw Scene Matthew Duepner Walkabout133</linkclipref>
												<mediatype>audio</mediatype>
												<trackindex>66</trackindex>
												<clipindex>63</clipindex>
												<groupindex>1</groupindex>
											</link>
											<itemhistory>
												<uuid>FFF00A0E-9800-4AAF-B54D-EE212278EEF0</uuid>
											</itemhistory>
										</clipitem>
										<clipitem id="Raw Scene Matthew Duepner Walkabout137">
											<name>Raw Scene Matthew Duepner Walkabout</name>
											<duration>38484</duration>
											<rate>
												<ntsc>TRUE</ntsc>
												<timebase>24</timebase>
											</rate>
											<in>36124</in>
											<out>36168</out>
											<start>9471</start>
											<end>9515</end>
											<masterclipid>Raw Scene Matthew Duepner Walkabout229</masterclipid>
											<logginginfo>
												<scene/>
												<shottake/>
												<lognote/>
												<good>FALSE</good>
											</logginginfo>
											<labels>
												<label2/>
											</labels>
											<comments>
												<mastercomment1/>
												<mastercomment2/>
												<mastercomment3/>
												<mastercomment4/>
											</comments>
											<file id="YIN_2013-05-28_LG-4 "/>
											<filter>
												<effect>
													<name>Audio Levels</name>
													<effectid>audiolevels</effectid>
													<effectcategory>audiolevels</effectcategory>
													<effecttype>audiolevels</effecttype>
													<mediatype>audio</mediatype>
													<parameter>
														<name>Level</name>
														<parameterid>level</parameterid>
														<valuemin>0</valuemin>
														<valuemax>3.98109</valuemax>
														<value>1</value>
													</parameter>
												</effect>
											</filter>
											<filter>
												<effect>
													<name>Audio Pan</name>
													<effectid>audiopan</effectid>
													<effectcategory>audiopan</effectcategory>
													<effecttype>audiopan</effecttype>
													<mediatype>audio</mediatype>
													<parameter>
														<name>Pan</name>
														<parameterid>pan</parameterid>
														<valuemin>-1</valuemin>
														<valuemax>1</valuemax>
														<value>-0</value>
													</parameter>
												</effect>
											</filter>
											<sourcetrack>
												<mediatype>audio</mediatype>
												<trackindex>2</trackindex>
											</sourcetrack>
											<link>
												<linkclipref>Raw Scene Matthew Duepner Walkabout134</linkclipref>
												<mediatype>video</mediatype>
												<trackindex>3</trackindex>
												<clipindex>64</clipindex>
											</link>
											<link>
												<linkclipref>Raw Scene Matthew Duepner Walkabout136</linkclipref>
												<mediatype>audio</mediatype>
												<trackindex>65</trackindex>
												<clipindex>64</clipindex>
												<groupindex>1</groupindex>
											</link>
											<link>
												<linkclipref>Raw Scene Matthew Duepner Walkabout137</linkclipref>
												<mediatype>audio</mediatype>
												<trackindex>66</trackindex>
												<clipindex>64</clipindex>
												<groupindex>1</groupindex>
											</link>
											<itemhistory>
												<uuid>8BFC2576-DAF2-4C56-9B7F-171BB7CF0E8B</uuid>
											</itemhistory>
										</clipitem>
										<clipitem id="Raw Scene Matthew Duepner Walkabout141">
											<name>Raw Scene Matthew Duepner Walkabout</name>
											<duration>38484</duration>
											<rate>
												<ntsc>TRUE</ntsc>
												<timebase>24</timebase>
											</rate>
											<in>36397</in>
											<out>36474</out>
											<start>9515</start>
											<end>9592</end>
											<masterclipid>Raw Scene Matthew Duepner Walkabout230</masterclipid>
											<logginginfo>
												<scene/>
												<shottake/>
												<lognote/>
												<good>FALSE</good>
											</logginginfo>
											<labels>
												<label2/>
											</labels>
											<comments>
												<mastercomment1/>
												<mastercomment2/>
												<mastercomment3/>
												<mastercomment4/>
											</comments>
											<file id="YIN_2013-05-28_LG-4 "/>
											<filter>
												<effect>
													<name>Audio Levels</name>
													<effectid>audiolevels</effectid>
													<effectcategory>audiolevels</effectcategory>
													<effecttype>audiolevels</effecttype>
													<mediatype>audio</mediatype>
													<parameter>
														<name>Level</name>
														<parameterid>level</parameterid>
														<valuemin>0</valuemin>
														<valuemax>3.98109</valuemax>
														<value>1</value>
													</parameter>
												</effect>
											</filter>
											<filter>
												<effect>
													<name>Audio Pan</name>
													<effectid>audiopan</effectid>
													<effectcategory>audiopan</effectcategory>
													<effecttype>audiopan</effecttype>
													<mediatype>audio</mediatype>
													<parameter>
														<name>Pan</name>
														<parameterid>pan</parameterid>
														<valuemin>-1</valuemin>
														<valuemax>1</valuemax>
														<value>-0</value>
													</parameter>
												</effect>
											</filter>
											<sourcetrack>
												<mediatype>audio</mediatype>
												<trackindex>2</trackindex>
											</sourcetrack>
											<link>
												<linkclipref>Raw Scene Matthew Duepner Walkabout138</linkclipref>
												<mediatype>video</mediatype>
												<trackindex>3</trackindex>
												<clipindex>65</clipindex>
											</link>
											<link>
												<linkclipref>Raw Scene Matthew Duepner Walkabout140</linkclipref>
												<mediatype>audio</mediatype>
												<trackindex>65</trackindex>
												<clipindex>65</clipindex>
												<groupindex>1</groupindex>
											</link>
											<link>
												<linkclipref>Raw Scene Matthew Duepner Walkabout141</linkclipref>
												<mediatype>audio</mediatype>
												<trackindex>66</trackindex>
												<clipindex>65</clipindex>
												<groupindex>1</groupindex>
											</link>
											<itemhistory>
												<uuid>339F91FD-76B0-4149-9213-4B834EEFD99E</uuid>
											</itemhistory>
										</clipitem>
										<clipitem id="Raw Scene Matthew Duepner Walkabout145">
											<name>Raw Scene Matthew Duepner Walkabout</name>
											<duration>38484</duration>
											<rate>
												<ntsc>TRUE</ntsc>
												<timebase>24</timebase>
											</rate>
											<in>37446</in>
											<out>37533</out>
											<start>9592</start>
											<end>9679</end>
											<masterclipid>Raw Scene Matthew Duepner Walkabout231</masterclipid>
											<logginginfo>
												<scene/>
												<shottake/>
												<lognote/>
												<good>FALSE</good>
											</logginginfo>
											<labels>
												<label2/>
											</labels>
											<comments>
												<mastercomment1/>
												<mastercomment2/>
												<mastercomment3/>
												<mastercomment4/>
											</comments>
											<file id="YIN_2013-05-28_LG-4 "/>
											<filter>
												<effect>
													<name>Audio Levels</name>
													<effectid>audiolevels</effectid>
													<effectcategory>audiolevels</effectcategory>
													<effecttype>audiolevels</effecttype>
													<mediatype>audio</mediatype>
													<parameter>
														<name>Level</name>
														<parameterid>level</parameterid>
														<valuemin>0</valuemin>
														<valuemax>3.98109</valuemax>
														<value>1</value>
													</parameter>
												</effect>
											</filter>
											<filter>
												<effect>
													<name>Audio Pan</name>
													<effectid>audiopan</effectid>
													<effectcategory>audiopan</effectcategory>
													<effecttype>audiopan</effecttype>
													<mediatype>audio</mediatype>
													<parameter>
														<name>Pan</name>
														<parameterid>pan</parameterid>
														<valuemin>-1</valuemin>
														<valuemax>1</valuemax>
														<value>-0</value>
													</parameter>
												</effect>
											</filter>
											<sourcetrack>
												<mediatype>audio</mediatype>
												<trackindex>2</trackindex>
											</sourcetrack>
											<link>
												<linkclipref>Raw Scene Matthew Duepner Walkabout142</linkclipref>
												<mediatype>video</mediatype>
												<trackindex>3</trackindex>
												<clipindex>66</clipindex>
											</link>
											<link>
												<linkclipref>Raw Scene Matthew Duepner Walkabout144</linkclipref>
												<mediatype>audio</mediatype>
												<trackindex>65</trackindex>
												<clipindex>66</clipindex>
												<groupindex>1</groupindex>
											</link>
											<link>
												<linkclipref>Raw Scene Matthew Duepner Walkabout145</linkclipref>
												<mediatype>audio</mediatype>
												<trackindex>66</trackindex>
												<clipindex>66</clipindex>
												<groupindex>1</groupindex>
											</link>
											<itemhistory>
												<uuid>1B3F7DC0-DAB2-476A-861D-23EE75AA6832</uuid>
											</itemhistory>
										</clipitem>
										<clipitem id="Raw Scene Matthew Duepner Walkabout149">
											<name>Raw Scene Matthew Duepner Walkabout</name>
											<duration>38484</duration>
											<rate>
												<ntsc>TRUE</ntsc>
												<timebase>24</timebase>
											</rate>
											<in>37856</in>
											<out>37874</out>
											<start>9679</start>
											<end>9697</end>
											<masterclipid>Raw Scene Matthew Duepner Walkabout232</masterclipid>
											<logginginfo>
												<scene/>
												<shottake/>
												<lognote/>
												<good>FALSE</good>
											</logginginfo>
											<labels>
												<label2/>
											</labels>
											<comments>
												<mastercomment1/>
												<mastercomment2/>
												<mastercomment3/>
												<mastercomment4/>
											</comments>
											<file id="YIN_2013-05-28_LG-4 "/>
											<filter>
												<effect>
													<name>Audio Levels</name>
													<effectid>audiolevels</effectid>
													<effectcategory>audiolevels</effectcategory>
													<effecttype>audiolevels</effecttype>
													<mediatype>audio</mediatype>
													<parameter>
														<name>Level</name>
														<parameterid>level</parameterid>
														<valuemin>0</valuemin>
														<valuemax>3.98109</valuemax>
														<value>1</value>
													</parameter>
												</effect>
											</filter>
											<filter>
												<effect>
													<name>Audio Pan</name>
													<effectid>audiopan</effectid>
													<effectcategory>audiopan</effectcategory>
													<effecttype>audiopan</effecttype>
													<mediatype>audio</mediatype>
													<parameter>
														<name>Pan</name>
														<parameterid>pan</parameterid>
														<valuemin>-1</valuemin>
														<valuemax>1</valuemax>
														<value>-0</value>
													</parameter>
												</effect>
											</filter>
											<sourcetrack>
												<mediatype>audio</mediatype>
												<trackindex>2</trackindex>
											</sourcetrack>
											<link>
												<linkclipref>Raw Scene Matthew Duepner Walkabout146</linkclipref>
												<mediatype>video</mediatype>
												<trackindex>3</trackindex>
												<clipindex>67</clipindex>
											</link>
											<link>
												<linkclipref>Raw Scene Matthew Duepner Walkabout148</linkclipref>
												<mediatype>audio</mediatype>
												<trackindex>65</trackindex>
												<clipindex>67</clipindex>
												<groupindex>1</groupindex>
											</link>
											<link>
												<linkclipref>Raw Scene Matthew Duepner Walkabout149</linkclipref>
												<mediatype>audio</mediatype>
												<trackindex>66</trackindex>
												<clipindex>67</clipindex>
												<groupindex>1</groupindex>
											</link>
											<itemhistory>
												<uuid>81B68B33-3E84-4503-96D1-8DFE97BFAD3F</uuid>
											</itemhistory>
										</clipitem>
										<clipitem id="Raw Scene Matthew Duepner Walkabout153">
											<name>Raw Scene Matthew Duepner Walkabout</name>
											<duration>38484</duration>
											<rate>
												<ntsc>TRUE</ntsc>
												<timebase>24</timebase>
											</rate>
											<in>38389</in>
											<out>38476</out>
											<start>9697</start>
											<end>9784</end>
											<masterclipid>Raw Scene Matthew Duepner Walkabout233</masterclipid>
											<logginginfo>
												<scene/>
												<shottake/>
												<lognote/>
												<good>FALSE</good>
											</logginginfo>
											<labels>
												<label2/>
											</labels>
											<comments>
												<mastercomment1/>
												<mastercomment2/>
												<mastercomment3/>
												<mastercomment4/>
											</comments>
											<file id="YIN_2013-05-28_LG-4 "/>
											<filter>
												<effect>
													<name>Audio Levels</name>
													<effectid>audiolevels</effectid>
													<effectcategory>audiolevels</effectcategory>
													<effecttype>audiolevels</effecttype>
													<mediatype>audio</mediatype>
													<parameter>
														<name>Level</name>
														<parameterid>level</parameterid>
														<valuemin>0</valuemin>
														<valuemax>3.98109</valuemax>
														<value>1</value>
													</parameter>
												</effect>
											</filter>
											<filter>
												<effect>
													<name>Audio Pan</name>
													<effectid>audiopan</effectid>
													<effectcategory>audiopan</effectcategory>
													<effecttype>audiopan</effecttype>
													<mediatype>audio</mediatype>
													<parameter>
														<name>Pan</name>
														<parameterid>pan</parameterid>
														<valuemin>-1</valuemin>
														<valuemax>1</valuemax>
														<value>-0</value>
													</parameter>
												</effect>
											</filter>
											<sourcetrack>
												<mediatype>audio</mediatype>
												<trackindex>2</trackindex>
											</sourcetrack>
											<link>
												<linkclipref>Raw Scene Matthew Duepner Walkabout150</linkclipref>
												<mediatype>video</mediatype>
												<trackindex>3</trackindex>
												<clipindex>68</clipindex>
											</link>
											<link>
												<linkclipref>Raw Scene Matthew Duepner Walkabout152</linkclipref>
												<mediatype>audio</mediatype>
												<trackindex>65</trackindex>
												<clipindex>68</clipindex>
												<groupindex>1</groupindex>
											</link>
											<link>
												<linkclipref>Raw Scene Matthew Duepner Walkabout153</linkclipref>
												<mediatype>audio</mediatype>
												<trackindex>66</trackindex>
												<clipindex>68</clipindex>
												<groupindex>1</groupindex>
											</link>
											<itemhistory>
												<uuid>04C801C4-8241-429C-9FA6-D61DBE70D89D</uuid>
											</itemhistory>
										</clipitem>
										<enabled>TRUE</enabled>
										<locked>FALSE</locked>
										<outputchannelindex>2</outputchannelindex>
									</track>
									<filter>
										<effect>
											<name>Audio Levels</name>
											<effectid>audiolevels</effectid>
											<effectcategory>audiolevels</effectcategory>
											<effecttype>audiolevels</effecttype>
											<mediatype>audio</mediatype>
											<parameter>
												<name>Level</name>
												<parameterid>level</parameterid>
												<valuemin>0</valuemin>
												<valuemax>3.98109</valuemax>
												<value>1</value>
											</parameter>
										</effect>
									</filter>
								</audio>
							</media>
							<ismasterclip>FALSE</ismasterclip>
						</sequence>
						<bin>
							<uuid>24992E4B-B100-437B-808E-88DE4E4F3A31</uuid>
							<updatebehavior>add</updatebehavior>
							<name>Selects</name>
							<children>
								<bin>
									<uuid>B851F366-D574-4191-9B2B-E0131FF68C4B</uuid>
									<updatebehavior>add</updatebehavior>
									<name>Raw</name>
									<children>
										<clip id="Raw B Roll Hack Manhattan and Matthew Duepner's House">
											<uuid>F05848B6-4FDD-4E6C-B465-E55D1DA07F45</uuid>
											<updatebehavior>add</updatebehavior>
											<name>Raw B Roll Hack Manhattan and Matthew Duepner's House</name>
											<duration>6617</duration>
											<rate>
												<ntsc>TRUE</ntsc>
												<timebase>24</timebase>
											</rate>
											<in>2174</in>
											<out>2265</out>
											<masterclipid>Raw B Roll Hack Manhattan and Matthew Duepner's House</masterclipid>
											<ismasterclip>TRUE</ismasterclip>
											<logginginfo>
												<description/>
												<scene/>
												<shottake/>
												<lognote/>
												<good>FALSE</good>
											</logginginfo>
											<labels>
												<label2/>
											</labels>
											<comments>
												<mastercomment1/>
												<mastercomment2/>
												<mastercomment3/>
												<mastercomment4/>
											</comments>
											<media>
												<video>
													<track>
														<clipitem id="Raw B Roll Hack Manhattan and Matthew Duepner's House1">
															<name>Raw B Roll Hack Manhattan and Matthew Duepner's House</name>
															<duration>6617</duration>
															<rate>
																<ntsc>TRUE</ntsc>
																<timebase>24</timebase>
															</rate>
															<in>0</in>
															<out>6617</out>
															<start>0</start>
															<end>6617</end>
															<pixelaspectratio>Square</pixelaspectratio>
															<anamorphic>FALSE</anamorphic>
															<alphatype>black</alphatype>
															<masterclipid>Raw B Roll Hack Manhattan and Matthew Duepner's House</masterclipid>
															<logginginfo>
																<scene/>
																<shottake/>
																<lognote/>
																<good>FALSE</good>
															</logginginfo>
															<labels>
																<label2/>
															</labels>
															<comments>
																<mastercomment1/>
																<mastercomment2/>
																<mastercomment3/>
																<mastercomment4/>
															</comments>
															<file id="YIN_2013-04-28_JB-1 "/>
															<sourcetrack>
																<mediatype>video</mediatype>
															</sourcetrack>
															<link>
																<linkclipref>Raw B Roll Hack Manhattan and Matthew Duepner's House1</linkclipref>
																<mediatype>video</mediatype>
																<trackindex>1</trackindex>
																<clipindex>1</clipindex>
															</link>
															<link>
																<linkclipref>Raw B Roll Hack Manhattan and Matthew Duepner's House2</linkclipref>
																<mediatype>audio</mediatype>
																<trackindex>1</trackindex>
																<clipindex>1</clipindex>
																<groupindex>1</groupindex>
															</link>
															<link>
																<linkclipref>Raw B Roll Hack Manhattan and Matthew Duepner's House3</linkclipref>
																<mediatype>audio</mediatype>
																<trackindex>2</trackindex>
																<clipindex>1</clipindex>
																<groupindex>1</groupindex>
															</link>
															<fielddominance>none</fielddominance>
															<itemhistory>
																<uuid>86FF32E0-EBD1-4BF4-8FB4-A9ABF74176C1</uuid>
																<uuid>FDBFDEF4-943A-4914-BACF-2C6C725DF431</uuid>
															</itemhistory>
														</clipitem>
														<enabled>TRUE</enabled>
														<locked>FALSE</locked>
													</track>
												</video>
												<audio>
													<in>2174</in>
													<out>2265</out>
													<track>
														<clipitem id="Raw B Roll Hack Manhattan and Matthew Duepner's House2">
															<name>Raw B Roll Hack Manhattan and Matthew Duepner's House</name>
															<duration>6617</duration>
															<rate>
																<ntsc>TRUE</ntsc>
																<timebase>24</timebase>
															</rate>
															<in>0</in>
															<out>6617</out>
															<start>0</start>
															<end>6617</end>
															<subframeoffset>0</subframeoffset>
															<masterclipid>Raw B Roll Hack Manhattan and Matthew Duepner's House</masterclipid>
															<logginginfo>
																<scene/>
																<shottake/>
																<lognote/>
																<good>FALSE</good>
															</logginginfo>
															<labels>
																<label2/>
															</labels>
															<comments>
																<mastercomment1/>
																<mastercomment2/>
																<mastercomment3/>
																<mastercomment4/>
															</comments>
															<file id="YIN_2013-04-28_JB-1 "/>
															<filter>
																<effect>
																	<name>Audio Levels</name>
																	<effectid>audiolevels</effectid>
																	<effectcategory>audiolevels</effectcategory>
																	<effecttype>audiolevels</effecttype>
																	<mediatype>audio</mediatype>
																	<parameter>
																		<name>Level</name>
																		<parameterid>level</parameterid>
																		<valuemin>0</valuemin>
																		<valuemax>3.98109</valuemax>
																		<value>1</value>
																	</parameter>
																</effect>
															</filter>
															<filter>
																<effect>
																	<name>Audio Pan</name>
																	<effectid>audiopan</effectid>
																	<effectcategory>audiopan</effectcategory>
																	<effecttype>audiopan</effecttype>
																	<mediatype>audio</mediatype>
																	<parameter>
																		<name>Pan</name>
																		<parameterid>pan</parameterid>
																		<valuemin>-1</valuemin>
																		<valuemax>1</valuemax>
																		<value>-1</value>
																	</parameter>
																</effect>
															</filter>
															<sourcetrack>
																<mediatype>audio</mediatype>
																<trackindex>1</trackindex>
															</sourcetrack>
															<link>
																<linkclipref>Raw B Roll Hack Manhattan and Matthew Duepner's House1</linkclipref>
																<mediatype>video</mediatype>
																<trackindex>1</trackindex>
																<clipindex>1</clipindex>
															</link>
															<link>
																<linkclipref>Raw B Roll Hack Manhattan and Matthew Duepner's House2</linkclipref>
																<mediatype>audio</mediatype>
																<trackindex>1</trackindex>
																<clipindex>1</clipindex>
																<groupindex>1</groupindex>
															</link>
															<link>
																<linkclipref>Raw B Roll Hack Manhattan and Matthew Duepner's House3</linkclipref>
																<mediatype>audio</mediatype>
																<trackindex>2</trackindex>
																<clipindex>1</clipindex>
																<groupindex>1</groupindex>
															</link>
															<itemhistory>
																<uuid>87660D7E-E62D-4FD2-9E4B-A4A12C682FAC</uuid>
																<uuid>03FDCCB0-A6FD-4C5A-B705-259D8A351E96</uuid>
															</itemhistory>
														</clipitem>
														<enabled>TRUE</enabled>
														<locked>FALSE</locked>
													</track>
													<track>
														<clipitem id="Raw B Roll Hack Manhattan and Matthew Duepner's House3">
															<name>Raw B Roll Hack Manhattan and Matthew Duepner's House</name>
															<duration>6617</duration>
															<rate>
																<ntsc>TRUE</ntsc>
																<timebase>24</timebase>
															</rate>
															<in>0</in>
															<out>6617</out>
															<start>0</start>
															<end>6617</end>
															<subframeoffset>0</subframeoffset>
															<masterclipid>Raw B Roll Hack Manhattan and Matthew Duepner's House</masterclipid>
															<logginginfo>
																<scene/>
																<shottake/>
																<lognote/>
																<good>FALSE</good>
															</logginginfo>
															<labels>
																<label2/>
															</labels>
															<comments>
																<mastercomment1/>
																<mastercomment2/>
																<mastercomment3/>
																<mastercomment4/>
															</comments>
															<file id="YIN_2013-04-28_JB-1 "/>
															<filter>
																<effect>
																	<name>Audio Levels</name>
																	<effectid>audiolevels</effectid>
																	<effectcategory>audiolevels</effectcategory>
																	<effecttype>audiolevels</effecttype>
																	<mediatype>audio</mediatype>
																	<parameter>
																		<name>Level</name>
																		<parameterid>level</parameterid>
																		<valuemin>0</valuemin>
																		<valuemax>3.98109</valuemax>
																		<value>1</value>
																	</parameter>
																</effect>
															</filter>
															<filter>
																<effect>
																	<name>Audio Pan</name>
																	<effectid>audiopan</effectid>
																	<effectcategory>audiopan</effectcategory>
																	<effecttype>audiopan</effecttype>
																	<mediatype>audio</mediatype>
																	<parameter>
																		<name>Pan</name>
																		<parameterid>pan</parameterid>
																		<valuemin>-1</valuemin>
																		<valuemax>1</valuemax>
																		<value>1</value>
																	</parameter>
																</effect>
															</filter>
															<sourcetrack>
																<mediatype>audio</mediatype>
																<trackindex>2</trackindex>
															</sourcetrack>
															<link>
																<linkclipref>Raw B Roll Hack Manhattan and Matthew Duepner's House1</linkclipref>
																<mediatype>video</mediatype>
																<trackindex>1</trackindex>
																<clipindex>1</clipindex>
															</link>
															<link>
																<linkclipref>Raw B Roll Hack Manhattan and Matthew Duepner's House2</linkclipref>
																<mediatype>audio</mediatype>
																<trackindex>1</trackindex>
																<clipindex>1</clipindex>
																<groupindex>1</groupindex>
															</link>
															<link>
																<linkclipref>Raw B Roll Hack Manhattan and Matthew Duepner's House3</linkclipref>
																<mediatype>audio</mediatype>
																<trackindex>2</trackindex>
																<clipindex>1</clipindex>
																<groupindex>1</groupindex>
															</link>
															<itemhistory>
																<uuid>704BF563-6164-4281-8FE0-C8332D9EED6C</uuid>
																<uuid>56B8F574-7D58-49DD-8EEC-2B73A08BD555</uuid>
															</itemhistory>
														</clipitem>
														<enabled>TRUE</enabled>
														<locked>FALSE</locked>
													</track>
													<filter>
														<effect>
															<name>Audio Levels</name>
															<effectid>audiolevels</effectid>
															<effectcategory>audiolevels</effectcategory>
															<effecttype>audiolevels</effecttype>
															<mediatype>audio</mediatype>
															<parameter>
																<name>Level</name>
																<parameterid>level</parameterid>
																<valuemin>0</valuemin>
																<valuemax>3.98109</valuemax>
																<value>1</value>
															</parameter>
														</effect>
													</filter>
												</audio>
											</media>
										</clip>
										<clip id="Raw Interview Matthew Duepner390">
											<uuid>66B91EAE-6EFC-4BC1-BEE0-43EBD0B6E1E2</uuid>
											<updatebehavior>add</updatebehavior>
											<name>Raw Interview Matthew Duepner</name>
											<duration>81486</duration>
											<rate>
												<ntsc>TRUE</ntsc>
												<timebase>24</timebase>
											</rate>
											<in>81210</in>
											<out>81278</out>
											<masterclipid>Raw Interview Matthew Duepner390</masterclipid>
											<ismasterclip>TRUE</ismasterclip>
											<logginginfo>
												<description/>
												<scene/>
												<shottake/>
												<lognote/>
												<good>FALSE</good>
											</logginginfo>
											<labels>
												<label2/>
											</labels>
											<comments>
												<mastercomment1/>
												<mastercomment2/>
												<mastercomment3/>
												<mastercomment4/>
											</comments>
											<media>
												<video>
													<track>
														<clipitem id="Raw Interview Matthew Duepner391">
															<name>Raw Interview Matthew Duepner</name>
															<duration>81486</duration>
															<rate>
																<ntsc>TRUE</ntsc>
																<timebase>24</timebase>
															</rate>
															<in>0</in>
															<out>81486</out>
															<start>0</start>
															<end>81486</end>
															<pixelaspectratio>Square</pixelaspectratio>
															<anamorphic>FALSE</anamorphic>
															<alphatype>black</alphatype>
															<masterclipid>Raw Interview Matthew Duepner390</masterclipid>
															<logginginfo>
																<scene/>
																<shottake/>
																<lognote/>
																<good>FALSE</good>
															</logginginfo>
															<labels>
																<label2/>
															</labels>
															<comments>
																<mastercomment1/>
																<mastercomment2/>
																<mastercomment3/>
																<mastercomment4/>
															</comments>
															<file id="YIN_2013-05-28_LG-5 "/>
															<sourcetrack>
																<mediatype>video</mediatype>
															</sourcetrack>
															<link>
																<linkclipref>Raw Interview Matthew Duepner391</linkclipref>
																<mediatype>video</mediatype>
																<trackindex>1</trackindex>
																<clipindex>1</clipindex>
															</link>
															<link>
																<linkclipref>Raw Interview Matthew Duepner392</linkclipref>
																<mediatype>audio</mediatype>
																<trackindex>1</trackindex>
																<clipindex>1</clipindex>
																<groupindex>1</groupindex>
															</link>
															<link>
																<linkclipref>Raw Interview Matthew Duepner393</linkclipref>
																<mediatype>audio</mediatype>
																<trackindex>2</trackindex>
																<clipindex>1</clipindex>
																<groupindex>1</groupindex>
															</link>
															<fielddominance>none</fielddominance>
															<itemhistory>
																<uuid>3C573EC1-D78F-4200-AD9D-B6DB7ACE1358</uuid>
															</itemhistory>
														</clipitem>
														<enabled>TRUE</enabled>
														<locked>FALSE</locked>
													</track>
												</video>
												<audio>
													<in>81210</in>
													<out>81278</out>
													<track>
														<clipitem id="Raw Interview Matthew Duepner392">
															<name>Raw Interview Matthew Duepner</name>
															<duration>81486</duration>
															<rate>
																<ntsc>TRUE</ntsc>
																<timebase>24</timebase>
															</rate>
															<in>0</in>
															<out>81486</out>
															<start>0</start>
															<end>81486</end>
															<subframeoffset>0</subframeoffset>
															<masterclipid>Raw Interview Matthew Duepner390</masterclipid>
															<logginginfo>
																<scene/>
																<shottake/>
																<lognote/>
																<good>FALSE</good>
															</logginginfo>
															<labels>
																<label2/>
															</labels>
															<comments>
																<mastercomment1/>
																<mastercomment2/>
																<mastercomment3/>
																<mastercomment4/>
															</comments>
															<file id="YIN_2013-05-28_LG-5 "/>
															<filter>
																<effect>
																	<name>Audio Levels</name>
																	<effectid>audiolevels</effectid>
																	<effectcategory>audiolevels</effectcategory>
																	<effecttype>audiolevels</effecttype>
																	<mediatype>audio</mediatype>
																	<parameter>
																		<name>Level</name>
																		<parameterid>level</parameterid>
																		<valuemin>0</valuemin>
																		<valuemax>3.98109</valuemax>
																		<value>1</value>
																	</parameter>
																</effect>
															</filter>
															<filter>
																<effect>
																	<name>Audio Pan</name>
																	<effectid>audiopan</effectid>
																	<effectcategory>audiopan</effectcategory>
																	<effecttype>audiopan</effecttype>
																	<mediatype>audio</mediatype>
																	<parameter>
																		<name>Pan</name>
																		<parameterid>pan</parameterid>
																		<valuemin>-1</valuemin>
																		<valuemax>1</valuemax>
																		<value>-1</value>
																	</parameter>
																</effect>
															</filter>
															<sourcetrack>
																<mediatype>audio</mediatype>
																<trackindex>1</trackindex>
															</sourcetrack>
															<link>
																<linkclipref>Raw Interview Matthew Duepner391</linkclipref>
																<mediatype>video</mediatype>
																<trackindex>1</trackindex>
																<clipindex>1</clipindex>
															</link>
															<link>
																<linkclipref>Raw Interview Matthew Duepner392</linkclipref>
																<mediatype>audio</mediatype>
																<trackindex>1</trackindex>
																<clipindex>1</clipindex>
																<groupindex>1</groupindex>
															</link>
															<link>
																<linkclipref>Raw Interview Matthew Duepner393</linkclipref>
																<mediatype>audio</mediatype>
																<trackindex>2</trackindex>
																<clipindex>1</clipindex>
																<groupindex>1</groupindex>
															</link>
															<itemhistory>
																<uuid>45F41746-6C44-4CD4-8D1E-94BCAF91C9C6</uuid>
															</itemhistory>
														</clipitem>
														<enabled>TRUE</enabled>
														<locked>FALSE</locked>
													</track>
													<track>
														<clipitem id="Raw Interview Matthew Duepner393">
															<name>Raw Interview Matthew Duepner</name>
															<duration>81486</duration>
															<rate>
																<ntsc>TRUE</ntsc>
																<timebase>24</timebase>
															</rate>
															<in>0</in>
															<out>81486</out>
															<start>0</start>
															<end>81486</end>
															<subframeoffset>0</subframeoffset>
															<masterclipid>Raw Interview Matthew Duepner390</masterclipid>
															<logginginfo>
																<scene/>
																<shottake/>
																<lognote/>
																<good>FALSE</good>
															</logginginfo>
															<labels>
																<label2/>
															</labels>
															<comments>
																<mastercomment1/>
																<mastercomment2/>
																<mastercomment3/>
																<mastercomment4/>
															</comments>
															<file id="YIN_2013-05-28_LG-5 "/>
															<filter>
																<effect>
																	<name>Audio Levels</name>
																	<effectid>audiolevels</effectid>
																	<effectcategory>audiolevels</effectcategory>
																	<effecttype>audiolevels</effecttype>
																	<mediatype>audio</mediatype>
																	<parameter>
																		<name>Level</name>
																		<parameterid>level</parameterid>
																		<valuemin>0</valuemin>
																		<valuemax>3.98109</valuemax>
																		<value>1</value>
																	</parameter>
																</effect>
															</filter>
															<filter>
																<effect>
																	<name>Audio Pan</name>
																	<effectid>audiopan</effectid>
																	<effectcategory>audiopan</effectcategory>
																	<effecttype>audiopan</effecttype>
																	<mediatype>audio</mediatype>
																	<parameter>
																		<name>Pan</name>
																		<parameterid>pan</parameterid>
																		<valuemin>-1</valuemin>
																		<valuemax>1</valuemax>
																		<value>1</value>
																	</parameter>
																</effect>
															</filter>
															<sourcetrack>
																<mediatype>audio</mediatype>
																<trackindex>2</trackindex>
															</sourcetrack>
															<link>
																<linkclipref>Raw Interview Matthew Duepner391</linkclipref>
																<mediatype>video</mediatype>
																<trackindex>1</trackindex>
																<clipindex>1</clipindex>
															</link>
															<link>
																<linkclipref>Raw Interview Matthew Duepner392</linkclipref>
																<mediatype>audio</mediatype>
																<trackindex>1</trackindex>
																<clipindex>1</clipindex>
																<groupindex>1</groupindex>
															</link>
															<link>
																<linkclipref>Raw Interview Matthew Duepner393</linkclipref>
																<mediatype>audio</mediatype>
																<trackindex>2</trackindex>
																<clipindex>1</clipindex>
																<groupindex>1</groupindex>
															</link>
															<itemhistory>
																<uuid>032F1AA7-F9D4-480A-8518-88DBDC938957</uuid>
															</itemhistory>
														</clipitem>
														<enabled>TRUE</enabled>
														<locked>FALSE</locked>
													</track>
													<filter>
														<effect>
															<name>Audio Levels</name>
															<effectid>audiolevels</effectid>
															<effectcategory>audiolevels</effectcategory>
															<effecttype>audiolevels</effecttype>
															<mediatype>audio</mediatype>
															<parameter>
																<name>Level</name>
																<parameterid>level</parameterid>
																<valuemin>0</valuemin>
																<valuemax>3.98109</valuemax>
																<value>1</value>
															</parameter>
														</effect>
													</filter>
												</audio>
											</media>
										</clip>
										<clip id="Raw Scene Matthew Duepner House Tour">
											<uuid>7AA3CD02-5009-4D52-A9EF-5577C3054ED1</uuid>
											<updatebehavior>add</updatebehavior>
											<name>Raw Scene Matthew Duepner House Tour</name>
											<duration>16257</duration>
											<rate>
												<ntsc>TRUE</ntsc>
												<timebase>24</timebase>
											</rate>
											<in>6085</in>
											<out>6136</out>
											<masterclipid>Raw Scene Matthew Duepner House Tour</masterclipid>
											<ismasterclip>TRUE</ismasterclip>
											<logginginfo>
												<description/>
												<scene/>
												<shottake/>
												<lognote/>
												<good>FALSE</good>
											</logginginfo>
											<labels>
												<label2/>
											</labels>
											<comments>
												<mastercomment1/>
												<mastercomment2/>
												<mastercomment3/>
												<mastercomment4/>
											</comments>
											<media>
												<video>
													<track>
														<clipitem id="Raw Scene Matthew Duepner House Tour1">
															<name>Raw Scene Matthew Duepner House Tour</name>
															<duration>16257</duration>
															<rate>
																<ntsc>TRUE</ntsc>
																<timebase>24</timebase>
															</rate>
															<in>0</in>
															<out>16257</out>
															<start>0</start>
															<end>16257</end>
															<pixelaspectratio>Square</pixelaspectratio>
															<anamorphic>FALSE</anamorphic>
															<alphatype>black</alphatype>
															<masterclipid>Raw Scene Matthew Duepner House Tour</masterclipid>
															<logginginfo>
																<scene/>
																<shottake/>
																<lognote/>
																<good>FALSE</good>
															</logginginfo>
															<labels>
																<label2/>
															</labels>
															<comments>
																<mastercomment1/>
																<mastercomment2/>
																<mastercomment3/>
																<mastercomment4/>
															</comments>
															<file id="YIN_2013-05-28_LG-3 ">
																<name>YIN_2013-05-28_LG-3.mov</name>
																<pathurl>file://localhost/Volumes/Curiouser%2010cc/Curiouser/Video/Active/Your%20Input%20Needed/Produced%20assets/Offline/Curiouser/5.13%20NYC/YIN_2013-05-28_LG-3.mov</pathurl>
																<rate>
																	<timebase>24</timebase>
																	<ntsc>TRUE</ntsc>
																</rate>
																<duration>16257</duration>
																<media>
																	<video>
																		<duration>16257</duration>
																		<samplecharacteristics>
																			<width>640</width>
																			<height>360</height>
																		</samplecharacteristics>
																	</video>
																	<audio>
																		<samplecharacteristics>
																			<samplerate>48000</samplerate>
																			<depth>32</depth>
																		</samplecharacteristics>
																		<channelcount>2</channelcount>
																	</audio>
																</media>
															</file>
															<sourcetrack>
																<mediatype>video</mediatype>
															</sourcetrack>
															<link>
																<linkclipref>Raw Scene Matthew Duepner House Tour1</linkclipref>
																<mediatype>video</mediatype>
																<trackindex>1</trackindex>
																<clipindex>1</clipindex>
															</link>
															<link>
																<linkclipref>Raw Scene Matthew Duepner House Tour2</linkclipref>
																<mediatype>audio</mediatype>
																<trackindex>1</trackindex>
																<clipindex>1</clipindex>
																<groupindex>1</groupindex>
															</link>
															<link>
																<linkclipref>Raw Scene Matthew Duepner House Tour3</linkclipref>
																<mediatype>audio</mediatype>
																<trackindex>2</trackindex>
																<clipindex>1</clipindex>
																<groupindex>1</groupindex>
															</link>
															<fielddominance>none</fielddominance>
															<itemhistory>
																<uuid>3CB0562E-B411-49B4-98A6-942C852DF67E</uuid>
															</itemhistory>
														</clipitem>
														<enabled>TRUE</enabled>
														<locked>FALSE</locked>
													</track>
												</video>
												<audio>
													<in>6085</in>
													<out>6136</out>
													<track>
														<clipitem id="Raw Scene Matthew Duepner House Tour2">
															<name>Raw Scene Matthew Duepner House Tour</name>
															<duration>16257</duration>
															<rate>
																<ntsc>TRUE</ntsc>
																<timebase>24</timebase>
															</rate>
															<in>0</in>
															<out>16257</out>
															<start>0</start>
															<end>16257</end>
															<subframeoffset>0</subframeoffset>
															<masterclipid>Raw Scene Matthew Duepner House Tour</masterclipid>
															<logginginfo>
																<scene/>
																<shottake/>
																<lognote/>
																<good>FALSE</good>
															</logginginfo>
															<labels>
																<label2/>
															</labels>
															<comments>
																<mastercomment1/>
																<mastercomment2/>
																<mastercomment3/>
																<mastercomment4/>
															</comments>
															<file id="YIN_2013-05-28_LG-3 "/>
															<filter>
																<effect>
																	<name>Audio Levels</name>
																	<effectid>audiolevels</effectid>
																	<effectcategory>audiolevels</effectcategory>
																	<effecttype>audiolevels</effecttype>
																	<mediatype>audio</mediatype>
																	<parameter>
																		<name>Level</name>
																		<parameterid>level</parameterid>
																		<valuemin>0</valuemin>
																		<valuemax>3.98109</valuemax>
																		<value>1</value>
																	</parameter>
																</effect>
															</filter>
															<filter>
																<effect>
																	<name>Audio Pan</name>
																	<effectid>audiopan</effectid>
																	<effectcategory>audiopan</effectcategory>
																	<effecttype>audiopan</effecttype>
																	<mediatype>audio</mediatype>
																	<parameter>
																		<name>Pan</name>
																		<parameterid>pan</parameterid>
																		<valuemin>-1</valuemin>
																		<valuemax>1</valuemax>
																		<value>-1</value>
																	</parameter>
																</effect>
															</filter>
															<sourcetrack>
																<mediatype>audio</mediatype>
																<trackindex>1</trackindex>
															</sourcetrack>
															<link>
																<linkclipref>Raw Scene Matthew Duepner House Tour1</linkclipref>
																<mediatype>video</mediatype>
																<trackindex>1</trackindex>
																<clipindex>1</clipindex>
															</link>
															<link>
																<linkclipref>Raw Scene Matthew Duepner House Tour2</linkclipref>
																<mediatype>audio</mediatype>
																<trackindex>1</trackindex>
																<clipindex>1</clipindex>
																<groupindex>1</groupindex>
															</link>
															<link>
																<linkclipref>Raw Scene Matthew Duepner House Tour3</linkclipref>
																<mediatype>audio</mediatype>
																<trackindex>2</trackindex>
																<clipindex>1</clipindex>
																<groupindex>1</groupindex>
															</link>
															<itemhistory>
																<uuid>0228E433-25C1-4102-AA1F-1A688F3C8D58</uuid>
															</itemhistory>
														</clipitem>
														<enabled>TRUE</enabled>
														<locked>FALSE</locked>
													</track>
													<track>
														<clipitem id="Raw Scene Matthew Duepner House Tour3">
															<name>Raw Scene Matthew Duepner House Tour</name>
															<duration>16257</duration>
															<rate>
																<ntsc>TRUE</ntsc>
																<timebase>24</timebase>
															</rate>
															<in>0</in>
															<out>16257</out>
															<start>0</start>
															<end>16257</end>
															<subframeoffset>0</subframeoffset>
															<masterclipid>Raw Scene Matthew Duepner House Tour</masterclipid>
															<logginginfo>
																<scene/>
																<shottake/>
																<lognote/>
																<good>FALSE</good>
															</logginginfo>
															<labels>
																<label2/>
															</labels>
															<comments>
																<mastercomment1/>
																<mastercomment2/>
																<mastercomment3/>
																<mastercomment4/>
															</comments>
															<file id="YIN_2013-05-28_LG-3 "/>
															<filter>
																<effect>
																	<name>Audio Levels</name>
																	<effectid>audiolevels</effectid>
																	<effectcategory>audiolevels</effectcategory>
																	<effecttype>audiolevels</effecttype>
																	<mediatype>audio</mediatype>
																	<parameter>
																		<name>Level</name>
																		<parameterid>level</parameterid>
																		<valuemin>0</valuemin>
																		<valuemax>3.98109</valuemax>
																		<value>1</value>
																	</parameter>
																</effect>
															</filter>
															<filter>
																<effect>
																	<name>Audio Pan</name>
																	<effectid>audiopan</effectid>
																	<effectcategory>audiopan</effectcategory>
																	<effecttype>audiopan</effecttype>
																	<mediatype>audio</mediatype>
																	<parameter>
																		<name>Pan</name>
																		<parameterid>pan</parameterid>
																		<valuemin>-1</valuemin>
																		<valuemax>1</valuemax>
																		<value>1</value>
																	</parameter>
																</effect>
															</filter>
															<sourcetrack>
																<mediatype>audio</mediatype>
																<trackindex>2</trackindex>
															</sourcetrack>
															<link>
																<linkclipref>Raw Scene Matthew Duepner House Tour1</linkclipref>
																<mediatype>video</mediatype>
																<trackindex>1</trackindex>
																<clipindex>1</clipindex>
															</link>
															<link>
																<linkclipref>Raw Scene Matthew Duepner House Tour2</linkclipref>
																<mediatype>audio</mediatype>
																<trackindex>1</trackindex>
																<clipindex>1</clipindex>
																<groupindex>1</groupindex>
															</link>
															<link>
																<linkclipref>Raw Scene Matthew Duepner House Tour3</linkclipref>
																<mediatype>audio</mediatype>
																<trackindex>2</trackindex>
																<clipindex>1</clipindex>
																<groupindex>1</groupindex>
															</link>
															<itemhistory>
																<uuid>F715E3C7-8F9D-4288-AEF7-BB6C351C3155</uuid>
															</itemhistory>
														</clipitem>
														<enabled>TRUE</enabled>
														<locked>FALSE</locked>
													</track>
												</audio>
											</media>
										</clip>
										<clip id="Raw Scene Matthew Duepner Printing72">
											<uuid>D0042AD1-AFF9-435D-A03C-1673047B7FDA</uuid>
											<updatebehavior>add</updatebehavior>
											<name>Raw Scene Matthew Duepner Printing</name>
											<duration>28553</duration>
											<rate>
												<ntsc>TRUE</ntsc>
												<timebase>24</timebase>
											</rate>
											<in>4025</in>
											<out>4353</out>
											<masterclipid>Raw Scene Matthew Duepner Printing72</masterclipid>
											<ismasterclip>TRUE</ismasterclip>
											<logginginfo>
												<description/>
												<scene/>
												<shottake/>
												<lognote/>
												<good>FALSE</good>
											</logginginfo>
											<labels>
												<label2/>
											</labels>
											<comments>
												<mastercomment1/>
												<mastercomment2/>
												<mastercomment3/>
												<mastercomment4/>
											</comments>
											<media>
												<video>
													<track>
														<clipitem id="Raw Scene Matthew Duepner Printing73">
															<name>Raw Scene Matthew Duepner Printing</name>
															<duration>28553</duration>
															<rate>
																<ntsc>TRUE</ntsc>
																<timebase>24</timebase>
															</rate>
															<in>0</in>
															<out>28553</out>
															<start>0</start>
															<end>28553</end>
															<pixelaspectratio>Square</pixelaspectratio>
															<anamorphic>FALSE</anamorphic>
															<alphatype>black</alphatype>
															<masterclipid>Raw Scene Matthew Duepner Printing72</masterclipid>
															<logginginfo>
																<scene/>
																<shottake/>
																<lognote/>
																<good>FALSE</good>
															</logginginfo>
															<labels>
																<label2/>
															</labels>
															<comments>
																<mastercomment1/>
																<mastercomment2/>
																<mastercomment3/>
																<mastercomment4/>
															</comments>
															<file id="YIN_2013-05-28_LG-6 "/>
															<sourcetrack>
																<mediatype>video</mediatype>
															</sourcetrack>
															<link>
																<linkclipref>Raw Scene Matthew Duepner Printing73</linkclipref>
																<mediatype>video</mediatype>
																<trackindex>1</trackindex>
																<clipindex>1</clipindex>
															</link>
															<link>
																<linkclipref>Raw Scene Matthew Duepner Printing74</linkclipref>
																<mediatype>audio</mediatype>
																<trackindex>1</trackindex>
																<clipindex>1</clipindex>
																<groupindex>1</groupindex>
															</link>
															<link>
																<linkclipref>Raw Scene Matthew Duepner Printing75</linkclipref>
																<mediatype>audio</mediatype>
																<trackindex>2</trackindex>
																<clipindex>1</clipindex>
																<groupindex>1</groupindex>
															</link>
															<fielddominance>none</fielddominance>
															<itemhistory>
																<uuid>9A6E43B8-E621-4D68-90B6-168EF9B5A375</uuid>
															</itemhistory>
														</clipitem>
														<enabled>TRUE</enabled>
														<locked>FALSE</locked>
													</track>
												</video>
												<audio>
													<in>4025</in>
													<out>4353</out>
													<track>
														<clipitem id="Raw Scene Matthew Duepner Printing74">
															<name>Raw Scene Matthew Duepner Printing</name>
															<duration>28553</duration>
															<rate>
																<ntsc>TRUE</ntsc>
																<timebase>24</timebase>
															</rate>
															<in>0</in>
															<out>28553</out>
															<start>0</start>
															<end>28553</end>
															<subframeoffset>0</subframeoffset>
															<masterclipid>Raw Scene Matthew Duepner Printing72</masterclipid>
															<logginginfo>
																<scene/>
																<shottake/>
																<lognote/>
																<good>FALSE</good>
															</logginginfo>
															<labels>
																<label2/>
															</labels>
															<comments>
																<mastercomment1/>
																<mastercomment2/>
																<mastercomment3/>
																<mastercomment4/>
															</comments>
															<file id="YIN_2013-05-28_LG-6 "/>
															<filter>
																<effect>
																	<name>Audio Levels</name>
																	<effectid>audiolevels</effectid>
																	<effectcategory>audiolevels</effectcategory>
																	<effecttype>audiolevels</effecttype>
																	<mediatype>audio</mediatype>
																	<parameter>
																		<name>Level</name>
																		<parameterid>level</parameterid>
																		<valuemin>0</valuemin>
																		<valuemax>3.98109</valuemax>
																		<value>1</value>
																	</parameter>
																</effect>
															</filter>
															<filter>
																<effect>
																	<name>Audio Pan</name>
																	<effectid>audiopan</effectid>
																	<effectcategory>audiopan</effectcategory>
																	<effecttype>audiopan</effecttype>
																	<mediatype>audio</mediatype>
																	<parameter>
																		<name>Pan</name>
																		<parameterid>pan</parameterid>
																		<valuemin>-1</valuemin>
																		<valuemax>1</valuemax>
																		<value>-1</value>
																	</parameter>
																</effect>
															</filter>
															<sourcetrack>
																<mediatype>audio</mediatype>
																<trackindex>1</trackindex>
															</sourcetrack>
															<link>
																<linkclipref>Raw Scene Matthew Duepner Printing73</linkclipref>
																<mediatype>video</mediatype>
																<trackindex>1</trackindex>
																<clipindex>1</clipindex>
															</link>
															<link>
																<linkclipref>Raw Scene Matthew Duepner Printing74</linkclipref>
																<mediatype>audio</mediatype>
																<trackindex>1</trackindex>
																<clipindex>1</clipindex>
																<groupindex>1</groupindex>
															</link>
															<link>
																<linkclipref>Raw Scene Matthew Duepner Printing75</linkclipref>
																<mediatype>audio</mediatype>
																<trackindex>2</trackindex>
																<clipindex>1</clipindex>
																<groupindex>1</groupindex>
															</link>
															<itemhistory>
																<uuid>299C8F9C-6CC0-42E7-98F7-B415A3A5EF0D</uuid>
															</itemhistory>
														</clipitem>
														<enabled>TRUE</enabled>
														<locked>FALSE</locked>
													</track>
													<track>
														<clipitem id="Raw Scene Matthew Duepner Printing75">
															<name>Raw Scene Matthew Duepner Printing</name>
															<duration>28553</duration>
															<rate>
																<ntsc>TRUE</ntsc>
																<timebase>24</timebase>
															</rate>
															<in>0</in>
															<out>28553</out>
															<start>0</start>
															<end>28553</end>
															<subframeoffset>0</subframeoffset>
															<masterclipid>Raw Scene Matthew Duepner Printing72</masterclipid>
															<logginginfo>
																<scene/>
																<shottake/>
																<lognote/>
																<good>FALSE</good>
															</logginginfo>
															<labels>
																<label2/>
															</labels>
															<comments>
																<mastercomment1/>
																<mastercomment2/>
																<mastercomment3/>
																<mastercomment4/>
															</comments>
															<file id="YIN_2013-05-28_LG-6 "/>
															<filter>
																<effect>
																	<name>Audio Levels</name>
																	<effectid>audiolevels</effectid>
																	<effectcategory>audiolevels</effectcategory>
																	<effecttype>audiolevels</effecttype>
																	<mediatype>audio</mediatype>
																	<parameter>
																		<name>Level</name>
																		<parameterid>level</parameterid>
																		<valuemin>0</valuemin>
																		<valuemax>3.98109</valuemax>
																		<value>1</value>
																	</parameter>
																</effect>
															</filter>
															<filter>
																<effect>
																	<name>Audio Pan</name>
																	<effectid>audiopan</effectid>
																	<effectcategory>audiopan</effectcategory>
																	<effecttype>audiopan</effecttype>
																	<mediatype>audio</mediatype>
																	<parameter>
																		<name>Pan</name>
																		<parameterid>pan</parameterid>
																		<valuemin>-1</valuemin>
																		<valuemax>1</valuemax>
																		<value>1</value>
																	</parameter>
																</effect>
															</filter>
															<sourcetrack>
																<mediatype>audio</mediatype>
																<trackindex>2</trackindex>
															</sourcetrack>
															<link>
																<linkclipref>Raw Scene Matthew Duepner Printing73</linkclipref>
																<mediatype>video</mediatype>
																<trackindex>1</trackindex>
																<clipindex>1</clipindex>
															</link>
															<link>
																<linkclipref>Raw Scene Matthew Duepner Printing74</linkclipref>
																<mediatype>audio</mediatype>
																<trackindex>1</trackindex>
																<clipindex>1</clipindex>
																<groupindex>1</groupindex>
															</link>
															<link>
																<linkclipref>Raw Scene Matthew Duepner Printing75</linkclipref>
																<mediatype>audio</mediatype>
																<trackindex>2</trackindex>
																<clipindex>1</clipindex>
																<groupindex>1</groupindex>
															</link>
															<itemhistory>
																<uuid>7B7A24D2-639A-46CF-8CE7-BC8AE37DA5B8</uuid>
															</itemhistory>
														</clipitem>
														<enabled>TRUE</enabled>
														<locked>FALSE</locked>
													</track>
												</audio>
											</media>
										</clip>
										<clip id="Raw Scene Matthew Duepner Walkabout234">
											<uuid>26262A3F-043E-4540-A8A0-4E23C82960F9</uuid>
											<updatebehavior>add</updatebehavior>
											<name>Raw Scene Matthew Duepner Walkabout</name>
											<duration>38484</duration>
											<rate>
												<ntsc>TRUE</ntsc>
												<timebase>24</timebase>
											</rate>
											<in>38389</in>
											<out>38476</out>
											<masterclipid>Raw Scene Matthew Duepner Walkabout234</masterclipid>
											<ismasterclip>TRUE</ismasterclip>
											<logginginfo>
												<description/>
												<scene/>
												<shottake/>
												<lognote/>
												<good>FALSE</good>
											</logginginfo>
											<labels>
												<label2/>
											</labels>
											<comments>
												<mastercomment1/>
												<mastercomment2/>
												<mastercomment3/>
												<mastercomment4/>
											</comments>
											<media>
												<video>
													<track>
														<clipitem id="Raw Scene Matthew Duepner Walkabout235">
															<name>Raw Scene Matthew Duepner Walkabout</name>
															<duration>38484</duration>
															<rate>
																<ntsc>TRUE</ntsc>
																<timebase>24</timebase>
															</rate>
															<in>0</in>
															<out>38484</out>
															<start>0</start>
															<end>38484</end>
															<pixelaspectratio>Square</pixelaspectratio>
															<anamorphic>FALSE</anamorphic>
															<alphatype>black</alphatype>
															<masterclipid>Raw Scene Matthew Duepner Walkabout234</masterclipid>
															<logginginfo>
																<scene/>
																<shottake/>
																<lognote/>
																<good>FALSE</good>
															</logginginfo>
															<labels>
																<label2/>
															</labels>
															<comments>
																<mastercomment1/>
																<mastercomment2/>
																<mastercomment3/>
																<mastercomment4/>
															</comments>
															<file id="YIN_2013-05-28_LG-4 "/>
															<sourcetrack>
																<mediatype>video</mediatype>
															</sourcetrack>
															<link>
																<linkclipref>Raw Scene Matthew Duepner Walkabout235</linkclipref>
																<mediatype>video</mediatype>
																<trackindex>1</trackindex>
																<clipindex>1</clipindex>
															</link>
															<link>
																<linkclipref>Raw Scene Matthew Duepner Walkabout236</linkclipref>
																<mediatype>audio</mediatype>
																<trackindex>1</trackindex>
																<clipindex>1</clipindex>
																<groupindex>1</groupindex>
															</link>
															<link>
																<linkclipref>Raw Scene Matthew Duepner Walkabout237</linkclipref>
																<mediatype>audio</mediatype>
																<trackindex>2</trackindex>
																<clipindex>1</clipindex>
																<groupindex>1</groupindex>
															</link>
															<fielddominance>none</fielddominance>
															<itemhistory>
																<uuid>1753B1A7-ED8D-4FC3-BBC7-9C97F1569252</uuid>
															</itemhistory>
														</clipitem>
														<enabled>TRUE</enabled>
														<locked>FALSE</locked>
													</track>
												</video>
												<audio>
													<in>38389</in>
													<out>38476</out>
													<track>
														<clipitem id="Raw Scene Matthew Duepner Walkabout236">
															<name>Raw Scene Matthew Duepner Walkabout</name>
															<duration>38484</duration>
															<rate>
																<ntsc>TRUE</ntsc>
																<timebase>24</timebase>
															</rate>
															<in>0</in>
															<out>38484</out>
															<start>0</start>
															<end>38484</end>
															<subframeoffset>0</subframeoffset>
															<masterclipid>Raw Scene Matthew Duepner Walkabout234</masterclipid>
															<logginginfo>
																<scene/>
																<shottake/>
																<lognote/>
																<good>FALSE</good>
															</logginginfo>
															<labels>
																<label2/>
															</labels>
															<comments>
																<mastercomment1/>
																<mastercomment2/>
																<mastercomment3/>
																<mastercomment4/>
															</comments>
															<file id="YIN_2013-05-28_LG-4 "/>
															<filter>
																<effect>
																	<name>Audio Levels</name>
																	<effectid>audiolevels</effectid>
																	<effectcategory>audiolevels</effectcategory>
																	<effecttype>audiolevels</effecttype>
																	<mediatype>audio</mediatype>
																	<parameter>
																		<name>Level</name>
																		<parameterid>level</parameterid>
																		<valuemin>0</valuemin>
																		<valuemax>3.98109</valuemax>
																		<value>1</value>
																	</parameter>
																</effect>
															</filter>
															<filter>
																<effect>
																	<name>Audio Pan</name>
																	<effectid>audiopan</effectid>
																	<effectcategory>audiopan</effectcategory>
																	<effecttype>audiopan</effecttype>
																	<mediatype>audio</mediatype>
																	<parameter>
																		<name>Pan</name>
																		<parameterid>pan</parameterid>
																		<valuemin>-1</valuemin>
																		<valuemax>1</valuemax>
																		<value>-1</value>
																	</parameter>
																</effect>
															</filter>
															<sourcetrack>
																<mediatype>audio</mediatype>
																<trackindex>1</trackindex>
															</sourcetrack>
															<link>
																<linkclipref>Raw Scene Matthew Duepner Walkabout235</linkclipref>
																<mediatype>video</mediatype>
																<trackindex>1</trackindex>
																<clipindex>1</clipindex>
															</link>
															<link>
																<linkclipref>Raw Scene Matthew Duepner Walkabout236</linkclipref>
																<mediatype>audio</mediatype>
																<trackindex>1</trackindex>
																<clipindex>1</clipindex>
																<groupindex>1</groupindex>
															</link>
															<link>
																<linkclipref>Raw Scene Matthew Duepner Walkabout237</linkclipref>
																<mediatype>audio</mediatype>
																<trackindex>2</trackindex>
																<clipindex>1</clipindex>
																<groupindex>1</groupindex>
															</link>
															<itemhistory>
																<uuid>A2FFF0DF-BF27-47EF-BAC7-F0B08105D4CC</uuid>
															</itemhistory>
														</clipitem>
														<enabled>TRUE</enabled>
														<locked>FALSE</locked>
													</track>
													<track>
														<clipitem id="Raw Scene Matthew Duepner Walkabout237">
															<name>Raw Scene Matthew Duepner Walkabout</name>
															<duration>38484</duration>
															<rate>
																<ntsc>TRUE</ntsc>
																<timebase>24</timebase>
															</rate>
															<in>0</in>
															<out>38484</out>
															<start>0</start>
															<end>38484</end>
															<subframeoffset>0</subframeoffset>
															<masterclipid>Raw Scene Matthew Duepner Walkabout234</masterclipid>
															<logginginfo>
																<scene/>
																<shottake/>
																<lognote/>
																<good>FALSE</good>
															</logginginfo>
															<labels>
																<label2/>
															</labels>
															<comments>
																<mastercomment1/>
																<mastercomment2/>
																<mastercomment3/>
																<mastercomment4/>
															</comments>
															<file id="YIN_2013-05-28_LG-4 "/>
															<filter>
																<effect>
																	<name>Audio Levels</name>
																	<effectid>audiolevels</effectid>
																	<effectcategory>audiolevels</effectcategory>
																	<effecttype>audiolevels</effecttype>
																	<mediatype>audio</mediatype>
																	<parameter>
																		<name>Level</name>
																		<parameterid>level</parameterid>
																		<valuemin>0</valuemin>
																		<valuemax>3.98109</valuemax>
																		<value>1</value>
																	</parameter>
																</effect>
															</filter>
															<filter>
																<effect>
																	<name>Audio Pan</name>
																	<effectid>audiopan</effectid>
																	<effectcategory>audiopan</effectcategory>
																	<effecttype>audiopan</effecttype>
																	<mediatype>audio</mediatype>
																	<parameter>
																		<name>Pan</name>
																		<parameterid>pan</parameterid>
																		<valuemin>-1</valuemin>
																		<valuemax>1</valuemax>
																		<value>1</value>
																	</parameter>
																</effect>
															</filter>
															<sourcetrack>
																<mediatype>audio</mediatype>
																<trackindex>2</trackindex>
															</sourcetrack>
															<link>
																<linkclipref>Raw Scene Matthew Duepner Walkabout235</linkclipref>
																<mediatype>video</mediatype>
																<trackindex>1</trackindex>
																<clipindex>1</clipindex>
															</link>
															<link>
																<linkclipref>Raw Scene Matthew Duepner Walkabout236</linkclipref>
																<mediatype>audio</mediatype>
																<trackindex>1</trackindex>
																<clipindex>1</clipindex>
																<groupindex>1</groupindex>
															</link>
															<link>
																<linkclipref>Raw Scene Matthew Duepner Walkabout237</linkclipref>
																<mediatype>audio</mediatype>
																<trackindex>2</trackindex>
																<clipindex>1</clipindex>
																<groupindex>1</groupindex>
															</link>
															<itemhistory>
																<uuid>8A4CA2F9-CF03-4D9F-92EF-84386F49438E</uuid>
															</itemhistory>
														</clipitem>
														<enabled>TRUE</enabled>
														<locked>FALSE</locked>
													</track>
												</audio>
											</media>
										</clip>
									</children>
								</bin>
								<sequence id="Selects Interview Matthew Duepner">
									<uuid>B279B6BB-92F7-42B8-A9E3-7768EDFA9124</uuid>
									<updatebehavior>add</updatebehavior>
									<name>Selects Interview Matthew Duepner</name>
									<duration>11546</duration>
									<rate>
										<ntsc>TRUE</ntsc>
										<timebase>24</timebase>
									</rate>
									<timecode>
										<rate>
											<ntsc>TRUE</ntsc>
											<timebase>24</timebase>
										</rate>
										<string>00:00:00:00</string>
										<frame>0</frame>
										<source>source</source>
										<displayformat>NDF</displayformat>
									</timecode>
									<in>-1</in>
									<out>-1</out>
									<media>
										<video>
											<format>
												<samplecharacteristics>
													<width>640</width>
													<height>360</height>
													<anamorphic>FALSE</anamorphic>
													<pixelaspectratio>Square</pixelaspectratio>
													<fielddominance>none</fielddominance>
													<rate>
														<ntsc>TRUE</ntsc>
														<timebase>24</timebase>
													</rate>
													<colordepth>24</colordepth>
													<codec>
														<name>Apple ProRes 422</name>
														<appspecificdata>
															<appname>Final Cut Pro</appname>
															<appmanufacturer>Apple Inc.</appmanufacturer>
															<appversion>7.0</appversion>
															<data>
																<qtcodec>
																	<codecname>Apple ProRes 422</codecname>
																	<codectypename>Apple ProRes 422</codectypename>
																	<codectypecode>apcn</codectypecode>
																	<codecvendorcode>appl</codecvendorcode>
																	<spatialquality>1024</spatialquality>
																	<temporalquality>0</temporalquality>
																	<keyframerate>0</keyframerate>
																	<datarate>0</datarate>
																</qtcodec>
															</data>
														</appspecificdata>
													</codec>
												</samplecharacteristics>
												<appspecificdata>
													<appname>Final Cut Pro</appname>
													<appmanufacturer>Apple Inc.</appmanufacturer>
													<appversion>7.0</appversion>
													<data>
														<fcpimageprocessing>
															<useyuv>TRUE</useyuv>
															<usesuperwhite>TRUE</usesuperwhite>
															<rendermode>Float10BPP</rendermode>
														</fcpimageprocessing>
													</data>
												</appspecificdata>
											</format>
											<track>
												<clipitem id="Raw Interview Matthew Duepner394">
													<name>Raw Interview Matthew Duepner</name>
													<duration>81486</duration>
													<rate>
														<ntsc>TRUE</ntsc>
														<timebase>24</timebase>
													</rate>
													<in>242</in>
													<out>687</out>
													<start>0</start>
													<end>445</end>
													<pixelaspectratio>Square</pixelaspectratio>
													<anamorphic>FALSE</anamorphic>
													<alphatype>black</alphatype>
													<masterclipid>Raw Interview Matthew Duepner390</masterclipid>
													<logginginfo>
														<scene/>
														<shottake/>
														<lognote/>
														<good>FALSE</good>
													</logginginfo>
													<labels>
														<label2/>
													</labels>
													<comments>
														<mastercomment1/>
														<mastercomment2/>
														<mastercomment3/>
														<mastercomment4/>
													</comments>
													<file id="YIN_2013-05-28_LG-5 "/>
													<sourcetrack>
														<mediatype>video</mediatype>
													</sourcetrack>
													<link>
														<linkclipref>Raw Interview Matthew Duepner394</linkclipref>
														<mediatype>video</mediatype>
														<trackindex>1</trackindex>
														<clipindex>1</clipindex>
													</link>
													<link>
														<linkclipref>Raw Interview Matthew Duepner395</linkclipref>
														<mediatype>audio</mediatype>
														<trackindex>1</trackindex>
														<clipindex>1</clipindex>
														<groupindex>1</groupindex>
													</link>
													<link>
														<linkclipref>Raw Interview Matthew Duepner396</linkclipref>
														<mediatype>audio</mediatype>
														<trackindex>2</trackindex>
														<clipindex>1</clipindex>
														<groupindex>1</groupindex>
													</link>
													<fielddominance>none</fielddominance>
													<itemhistory>
														<uuid>3D0CD137-131F-48AC-8492-F36B77748F4A</uuid>
													</itemhistory>
												</clipitem>
												<clipitem id="Raw Interview Matthew Duepner397">
													<name>Raw Interview Matthew Duepner</name>
													<duration>81486</duration>
													<rate>
														<ntsc>TRUE</ntsc>
														<timebase>24</timebase>
													</rate>
													<in>1221</in>
													<out>1514</out>
													<start>445</start>
													<end>738</end>
													<pixelaspectratio>Square</pixelaspectratio>
													<anamorphic>FALSE</anamorphic>
													<alphatype>black</alphatype>
													<masterclipid>Raw Interview Matthew Duepner390</masterclipid>
													<logginginfo>
														<scene/>
														<shottake/>
														<lognote/>
														<good>FALSE</good>
													</logginginfo>
													<labels>
														<label2/>
													</labels>
													<comments>
														<mastercomment1/>
														<mastercomment2/>
														<mastercomment3/>
														<mastercomment4/>
													</comments>
													<file id="YIN_2013-05-28_LG-5 "/>
													<sourcetrack>
														<mediatype>video</mediatype>
													</sourcetrack>
													<link>
														<linkclipref>Raw Interview Matthew Duepner397</linkclipref>
														<mediatype>video</mediatype>
														<trackindex>1</trackindex>
														<clipindex>2</clipindex>
													</link>
													<link>
														<linkclipref>Raw Interview Matthew Duepner398</linkclipref>
														<mediatype>audio</mediatype>
														<trackindex>1</trackindex>
														<clipindex>2</clipindex>
														<groupindex>1</groupindex>
													</link>
													<link>
														<linkclipref>Raw Interview Matthew Duepner399</linkclipref>
														<mediatype>audio</mediatype>
														<trackindex>2</trackindex>
														<clipindex>2</clipindex>
														<groupindex>1</groupindex>
													</link>
													<fielddominance>none</fielddominance>
													<itemhistory>
														<uuid>2612F87E-A799-435D-A238-83898B436F36</uuid>
													</itemhistory>
												</clipitem>
												<clipitem id="Raw Interview Matthew Duepner400">
													<name>Raw Interview Matthew Duepner</name>
													<duration>81486</duration>
													<rate>
														<ntsc>TRUE</ntsc>
														<timebase>24</timebase>
													</rate>
													<in>1656</in>
													<out>1742</out>
													<start>738</start>
													<end>824</end>
													<pixelaspectratio>Square</pixelaspectratio>
													<anamorphic>FALSE</anamorphic>
													<alphatype>black</alphatype>
													<masterclipid>Raw Interview Matthew Duepner390</masterclipid>
													<logginginfo>
														<scene/>
														<shottake/>
														<lognote/>
														<good>FALSE</good>
													</logginginfo>
													<labels>
														<label2/>
													</labels>
													<comments>
														<mastercomment1/>
														<mastercomment2/>
														<mastercomment3/>
														<mastercomment4/>
													</comments>
													<file id="YIN_2013-05-28_LG-5 "/>
													<sourcetrack>
														<mediatype>video</mediatype>
													</sourcetrack>
													<link>
														<linkclipref>Raw Interview Matthew Duepner400</linkclipref>
														<mediatype>video</mediatype>
														<trackindex>1</trackindex>
														<clipindex>3</clipindex>
													</link>
													<link>
														<linkclipref>Raw Interview Matthew Duepner401</linkclipref>
														<mediatype>audio</mediatype>
														<trackindex>1</trackindex>
														<clipindex>3</clipindex>
														<groupindex>1</groupindex>
													</link>
													<link>
														<linkclipref>Raw Interview Matthew Duepner402</linkclipref>
														<mediatype>audio</mediatype>
														<trackindex>2</trackindex>
														<clipindex>3</clipindex>
														<groupindex>1</groupindex>
													</link>
													<fielddominance>none</fielddominance>
													<itemhistory>
														<uuid>B05B70EE-8585-47B7-A29B-B82E1CF4DB53</uuid>
													</itemhistory>
												</clipitem>
												<clipitem id="Raw Interview Matthew Duepner403">
													<name>Raw Interview Matthew Duepner</name>
													<duration>81486</duration>
													<rate>
														<ntsc>TRUE</ntsc>
														<timebase>24</timebase>
													</rate>
													<in>2087</in>
													<out>2229</out>
													<start>824</start>
													<end>966</end>
													<pixelaspectratio>Square</pixelaspectratio>
													<anamorphic>FALSE</anamorphic>
													<alphatype>black</alphatype>
													<masterclipid>Raw Interview Matthew Duepner390</masterclipid>
													<logginginfo>
														<scene/>
														<shottake/>
														<lognote/>
														<good>FALSE</good>
													</logginginfo>
													<labels>
														<label2/>
													</labels>
													<comments>
														<mastercomment1/>
														<mastercomment2/>
														<mastercomment3/>
														<mastercomment4/>
													</comments>
													<file id="YIN_2013-05-28_LG-5 "/>
													<sourcetrack>
														<mediatype>video</mediatype>
													</sourcetrack>
													<link>
														<linkclipref>Raw Interview Matthew Duepner403</linkclipref>
														<mediatype>video</mediatype>
														<trackindex>1</trackindex>
														<clipindex>4</clipindex>
													</link>
													<link>
														<linkclipref>Raw Interview Matthew Duepner404</linkclipref>
														<mediatype>audio</mediatype>
														<trackindex>1</trackindex>
														<clipindex>4</clipindex>
														<groupindex>1</groupindex>
													</link>
													<link>
														<linkclipref>Raw Interview Matthew Duepner405</linkclipref>
														<mediatype>audio</mediatype>
														<trackindex>2</trackindex>
														<clipindex>4</clipindex>
														<groupindex>1</groupindex>
													</link>
													<fielddominance>none</fielddominance>
													<itemhistory>
														<uuid>1829867C-891B-4DA8-8B8E-0A05D7468F22</uuid>
													</itemhistory>
												</clipitem>
												<clipitem id="Raw Interview Matthew Duepner406">
													<name>Raw Interview Matthew Duepner</name>
													<duration>81486</duration>
													<rate>
														<ntsc>TRUE</ntsc>
														<timebase>24</timebase>
													</rate>
													<in>2994</in>
													<out>3183</out>
													<start>966</start>
													<end>1155</end>
													<pixelaspectratio>Square</pixelaspectratio>
													<anamorphic>FALSE</anamorphic>
													<alphatype>black</alphatype>
													<masterclipid>Raw Interview Matthew Duepner390</masterclipid>
													<logginginfo>
														<scene/>
														<shottake/>
														<lognote/>
														<good>FALSE</good>
													</logginginfo>
													<labels>
														<label2/>
													</labels>
													<comments>
														<mastercomment1/>
														<mastercomment2/>
														<mastercomment3/>
														<mastercomment4/>
													</comments>
													<file id="YIN_2013-05-28_LG-5 "/>
													<sourcetrack>
														<mediatype>video</mediatype>
													</sourcetrack>
													<link>
														<linkclipref>Raw Interview Matthew Duepner406</linkclipref>
														<mediatype>video</mediatype>
														<trackindex>1</trackindex>
														<clipindex>5</clipindex>
													</link>
													<link>
														<linkclipref>Raw Interview Matthew Duepner407</linkclipref>
														<mediatype>audio</mediatype>
														<trackindex>1</trackindex>
														<clipindex>5</clipindex>
														<groupindex>1</groupindex>
													</link>
													<link>
														<linkclipref>Raw Interview Matthew Duepner408</linkclipref>
														<mediatype>audio</mediatype>
														<trackindex>2</trackindex>
														<clipindex>5</clipindex>
														<groupindex>1</groupindex>
													</link>
													<fielddominance>none</fielddominance>
													<itemhistory>
														<uuid>20BF269D-CCF8-499F-8895-4B97B45A1D14</uuid>
													</itemhistory>
												</clipitem>
												<clipitem id="Raw Interview Matthew Duepner409">
													<name>Raw Interview Matthew Duepner</name>
													<duration>81486</duration>
													<rate>
														<ntsc>TRUE</ntsc>
														<timebase>24</timebase>
													</rate>
													<in>3411</in>
													<out>3636</out>
													<start>1155</start>
													<end>1380</end>
													<pixelaspectratio>Square</pixelaspectratio>
													<anamorphic>FALSE</anamorphic>
													<alphatype>black</alphatype>
													<masterclipid>Raw Interview Matthew Duepner390</masterclipid>
													<logginginfo>
														<scene/>
														<shottake/>
														<lognote/>
														<good>FALSE</good>
													</logginginfo>
													<labels>
														<label2/>
													</labels>
													<comments>
														<mastercomment1/>
														<mastercomment2/>
														<mastercomment3/>
														<mastercomment4/>
													</comments>
													<file id="YIN_2013-05-28_LG-5 "/>
													<sourcetrack>
														<mediatype>video</mediatype>
													</sourcetrack>
													<link>
														<linkclipref>Raw Interview Matthew Duepner409</linkclipref>
														<mediatype>video</mediatype>
														<trackindex>1</trackindex>
														<clipindex>6</clipindex>
													</link>
													<link>
														<linkclipref>Raw Interview Matthew Duepner410</linkclipref>
														<mediatype>audio</mediatype>
														<trackindex>1</trackindex>
														<clipindex>6</clipindex>
														<groupindex>1</groupindex>
													</link>
													<link>
														<linkclipref>Raw Interview Matthew Duepner411</linkclipref>
														<mediatype>audio</mediatype>
														<trackindex>2</trackindex>
														<clipindex>6</clipindex>
														<groupindex>1</groupindex>
													</link>
													<fielddominance>none</fielddominance>
													<itemhistory>
														<uuid>FAA55703-A79E-4B62-87FB-08DCDE145F41</uuid>
													</itemhistory>
												</clipitem>
												<clipitem id="Raw Interview Matthew Duepner412">
													<name>Raw Interview Matthew Duepner</name>
													<duration>81486</duration>
													<rate>
														<ntsc>TRUE</ntsc>
														<timebase>24</timebase>
													</rate>
													<in>3945</in>
													<out>3987</out>
													<start>1380</start>
													<end>1422</end>
													<pixelaspectratio>Square</pixelaspectratio>
													<anamorphic>FALSE</anamorphic>
													<alphatype>black</alphatype>
													<masterclipid>Raw Interview Matthew Duepner390</masterclipid>
													<logginginfo>
														<scene/>
														<shottake/>
														<lognote/>
														<good>FALSE</good>
													</logginginfo>
													<labels>
														<label2/>
													</labels>
													<comments>
														<mastercomment1/>
														<mastercomment2/>
														<mastercomment3/>
														<mastercomment4/>
													</comments>
													<file id="YIN_2013-05-28_LG-5 "/>
													<sourcetrack>
														<mediatype>video</mediatype>
													</sourcetrack>
													<link>
														<linkclipref>Raw Interview Matthew Duepner412</linkclipref>
														<mediatype>video</mediatype>
														<trackindex>1</trackindex>
														<clipindex>7</clipindex>
													</link>
													<link>
														<linkclipref>Raw Interview Matthew Duepner413</linkclipref>
														<mediatype>audio</mediatype>
														<trackindex>1</trackindex>
														<clipindex>7</clipindex>
														<groupindex>1</groupindex>
													</link>
													<link>
														<linkclipref>Raw Interview Matthew Duepner414</linkclipref>
														<mediatype>audio</mediatype>
														<trackindex>2</trackindex>
														<clipindex>7</clipindex>
														<groupindex>1</groupindex>
													</link>
													<fielddominance>none</fielddominance>
													<itemhistory>
														<uuid>E2B7C95D-B8C9-4226-8680-682C0BA010D1</uuid>
													</itemhistory>
												</clipitem>
												<clipitem id="Raw Interview Matthew Duepner415">
													<name>Raw Interview Matthew Duepner</name>
													<duration>81486</duration>
													<rate>
														<ntsc>TRUE</ntsc>
														<timebase>24</timebase>
													</rate>
													<in>5143</in>
													<out>5320</out>
													<start>1422</start>
													<end>1599</end>
													<pixelaspectratio>Square</pixelaspectratio>
													<anamorphic>FALSE</anamorphic>
													<alphatype>black</alphatype>
													<masterclipid>Raw Interview Matthew Duepner390</masterclipid>
													<logginginfo>
														<scene/>
														<shottake/>
														<lognote/>
														<good>FALSE</good>
													</logginginfo>
													<labels>
														<label2/>
													</labels>
													<comments>
														<mastercomment1/>
														<mastercomment2/>
														<mastercomment3/>
														<mastercomment4/>
													</comments>
													<file id="YIN_2013-05-28_LG-5 "/>
													<sourcetrack>
														<mediatype>video</mediatype>
													</sourcetrack>
													<link>
														<linkclipref>Raw Interview Matthew Duepner415</linkclipref>
														<mediatype>video</mediatype>
														<trackindex>1</trackindex>
														<clipindex>8</clipindex>
													</link>
													<link>
														<linkclipref>Raw Interview Matthew Duepner416</linkclipref>
														<mediatype>audio</mediatype>
														<trackindex>1</trackindex>
														<clipindex>8</clipindex>
														<groupindex>1</groupindex>
													</link>
													<link>
														<linkclipref>Raw Interview Matthew Duepner417</linkclipref>
														<mediatype>audio</mediatype>
														<trackindex>2</trackindex>
														<clipindex>8</clipindex>
														<groupindex>1</groupindex>
													</link>
													<fielddominance>none</fielddominance>
													<itemhistory>
														<uuid>D3F7F5F5-FE52-47B1-BA70-A68C50D20BC5</uuid>
													</itemhistory>
												</clipitem>
												<clipitem id="Raw Interview Matthew Duepner418">
													<name>Raw Interview Matthew Duepner</name>
													<duration>81486</duration>
													<rate>
														<ntsc>TRUE</ntsc>
														<timebase>24</timebase>
													</rate>
													<in>5486</in>
													<out>5591</out>
													<start>1599</start>
													<end>1704</end>
													<pixelaspectratio>Square</pixelaspectratio>
													<anamorphic>FALSE</anamorphic>
													<alphatype>black</alphatype>
													<masterclipid>Raw Interview Matthew Duepner390</masterclipid>
													<logginginfo>
														<scene/>
														<shottake/>
														<lognote/>
														<good>FALSE</good>
													</logginginfo>
													<labels>
														<label2/>
													</labels>
													<comments>
														<mastercomment1/>
														<mastercomment2/>
														<mastercomment3/>
														<mastercomment4/>
													</comments>
													<file id="YIN_2013-05-28_LG-5 "/>
													<sourcetrack>
														<mediatype>video</mediatype>
													</sourcetrack>
													<link>
														<linkclipref>Raw Interview Matthew Duepner418</linkclipref>
														<mediatype>video</mediatype>
														<trackindex>1</trackindex>
														<clipindex>9</clipindex>
													</link>
													<link>
														<linkclipref>Raw Interview Matthew Duepner419</linkclipref>
														<mediatype>audio</mediatype>
														<trackindex>1</trackindex>
														<clipindex>9</clipindex>
														<groupindex>1</groupindex>
													</link>
													<link>
														<linkclipref>Raw Interview Matthew Duepner420</linkclipref>
														<mediatype>audio</mediatype>
														<trackindex>2</trackindex>
														<clipindex>9</clipindex>
														<groupindex>1</groupindex>
													</link>
													<fielddominance>none</fielddominance>
													<itemhistory>
														<uuid>9B889D91-958F-418A-9F49-65194F8E7956</uuid>
													</itemhistory>
												</clipitem>
												<clipitem id="Raw Interview Matthew Duepner421">
													<name>Raw Interview Matthew Duepner</name>
													<duration>81486</duration>
													<rate>
														<ntsc>TRUE</ntsc>
														<timebase>24</timebase>
													</rate>
													<in>6176</in>
													<out>6256</out>
													<start>1704</start>
													<end>1784</end>
													<pixelaspectratio>Square</pixelaspectratio>
													<anamorphic>FALSE</anamorphic>
													<alphatype>black</alphatype>
													<masterclipid>Raw Interview Matthew Duepner390</masterclipid>
													<logginginfo>
														<scene/>
														<shottake/>
														<lognote/>
														<good>FALSE</good>
													</logginginfo>
													<labels>
														<label2/>
													</labels>
													<comments>
														<mastercomment1/>
														<mastercomment2/>
														<mastercomment3/>
														<mastercomment4/>
													</comments>
													<file id="YIN_2013-05-28_LG-5 "/>
													<sourcetrack>
														<mediatype>video</mediatype>
													</sourcetrack>
													<link>
														<linkclipref>Raw Interview Matthew Duepner421</linkclipref>
														<mediatype>video</mediatype>
														<trackindex>1</trackindex>
														<clipindex>10</clipindex>
													</link>
													<link>
														<linkclipref>Raw Interview Matthew Duepner422</linkclipref>
														<mediatype>audio</mediatype>
														<trackindex>1</trackindex>
														<clipindex>10</clipindex>
														<groupindex>1</groupindex>
													</link>
													<link>
														<linkclipref>Raw Interview Matthew Duepner423</linkclipref>
														<mediatype>audio</mediatype>
														<trackindex>2</trackindex>
														<clipindex>10</clipindex>
														<groupindex>1</groupindex>
													</link>
													<fielddominance>none</fielddominance>
													<itemhistory>
														<uuid>C81100ED-A49F-44F3-BCA1-6ED3B5782580</uuid>
													</itemhistory>
												</clipitem>
												<clipitem id="Raw Interview Matthew Duepner424">
													<name>Raw Interview Matthew Duepner</name>
													<duration>81486</duration>
													<rate>
														<ntsc>TRUE</ntsc>
														<timebase>24</timebase>
													</rate>
													<in>6757</in>
													<out>6892</out>
													<start>1784</start>
													<end>1919</end>
													<pixelaspectratio>Square</pixelaspectratio>
													<anamorphic>FALSE</anamorphic>
													<alphatype>black</alphatype>
													<masterclipid>Raw Interview Matthew Duepner390</masterclipid>
													<logginginfo>
														<scene/>
														<shottake/>
														<lognote/>
														<good>FALSE</good>
													</logginginfo>
													<labels>
														<label2/>
													</labels>
													<comments>
														<mastercomment1/>
														<mastercomment2/>
														<mastercomment3/>
														<mastercomment4/>
													</comments>
													<file id="YIN_2013-05-28_LG-5 "/>
													<sourcetrack>
														<mediatype>video</mediatype>
													</sourcetrack>
													<link>
														<linkclipref>Raw Interview Matthew Duepner424</linkclipref>
														<mediatype>video</mediatype>
														<trackindex>1</trackindex>
														<clipindex>11</clipindex>
													</link>
													<link>
														<linkclipref>Raw Interview Matthew Duepner425</linkclipref>
														<mediatype>audio</mediatype>
														<trackindex>1</trackindex>
														<clipindex>11</clipindex>
														<groupindex>1</groupindex>
													</link>
													<link>
														<linkclipref>Raw Interview Matthew Duepner426</linkclipref>
														<mediatype>audio</mediatype>
														<trackindex>2</trackindex>
														<clipindex>11</clipindex>
														<groupindex>1</groupindex>
													</link>
													<fielddominance>none</fielddominance>
													<itemhistory>
														<uuid>C0417F38-C685-4935-857D-703570C894B9</uuid>
													</itemhistory>
												</clipitem>
												<clipitem id="Raw Interview Matthew Duepner427">
													<name>Raw Interview Matthew Duepner</name>
													<duration>81486</duration>
													<rate>
														<ntsc>TRUE</ntsc>
														<timebase>24</timebase>
													</rate>
													<in>7002</in>
													<out>7205</out>
													<start>1919</start>
													<end>2122</end>
													<pixelaspectratio>Square</pixelaspectratio>
													<anamorphic>FALSE</anamorphic>
													<alphatype>black</alphatype>
													<masterclipid>Raw Interview Matthew Duepner390</masterclipid>
													<logginginfo>
														<scene/>
														<shottake/>
														<lognote/>
														<good>FALSE</good>
													</logginginfo>
													<labels>
														<label2/>
													</labels>
													<comments>
														<mastercomment1/>
														<mastercomment2/>
														<mastercomment3/>
														<mastercomment4/>
													</comments>
													<file id="YIN_2013-05-28_LG-5 "/>
													<sourcetrack>
														<mediatype>video</mediatype>
													</sourcetrack>
													<link>
														<linkclipref>Raw Interview Matthew Duepner427</linkclipref>
														<mediatype>video</mediatype>
														<trackindex>1</trackindex>
														<clipindex>12</clipindex>
													</link>
													<link>
														<linkclipref>Raw Interview Matthew Duepner428</linkclipref>
														<mediatype>audio</mediatype>
														<trackindex>1</trackindex>
														<clipindex>12</clipindex>
														<groupindex>1</groupindex>
													</link>
													<link>
														<linkclipref>Raw Interview Matthew Duepner429</linkclipref>
														<mediatype>audio</mediatype>
														<trackindex>2</trackindex>
														<clipindex>12</clipindex>
														<groupindex>1</groupindex>
													</link>
													<fielddominance>none</fielddominance>
													<itemhistory>
														<uuid>B67C09BD-CCE8-42D0-A9FB-C49ED39E9A92</uuid>
													</itemhistory>
												</clipitem>
												<clipitem id="Raw Interview Matthew Duepner430">
													<name>Raw Interview Matthew Duepner</name>
													<duration>81486</duration>
													<rate>
														<ntsc>TRUE</ntsc>
														<timebase>24</timebase>
													</rate>
													<in>9373</in>
													<out>9540</out>
													<start>2122</start>
													<end>2289</end>
													<pixelaspectratio>Square</pixelaspectratio>
													<anamorphic>FALSE</anamorphic>
													<alphatype>black</alphatype>
													<masterclipid>Raw Interview Matthew Duepner390</masterclipid>
													<logginginfo>
														<scene/>
														<shottake/>
														<lognote/>
														<good>FALSE</good>
													</logginginfo>
													<labels>
														<label2/>
													</labels>
													<comments>
														<mastercomment1/>
														<mastercomment2/>
														<mastercomment3/>
														<mastercomment4/>
													</comments>
													<file id="YIN_2013-05-28_LG-5 "/>
													<sourcetrack>
														<mediatype>video</mediatype>
													</sourcetrack>
													<link>
														<linkclipref>Raw Interview Matthew Duepner430</linkclipref>
														<mediatype>video</mediatype>
														<trackindex>1</trackindex>
														<clipindex>13</clipindex>
													</link>
													<link>
														<linkclipref>Raw Interview Matthew Duepner431</linkclipref>
														<mediatype>audio</mediatype>
														<trackindex>1</trackindex>
														<clipindex>13</clipindex>
														<groupindex>1</groupindex>
													</link>
													<link>
														<linkclipref>Raw Interview Matthew Duepner432</linkclipref>
														<mediatype>audio</mediatype>
														<trackindex>2</trackindex>
														<clipindex>13</clipindex>
														<groupindex>1</groupindex>
													</link>
													<fielddominance>none</fielddominance>
													<itemhistory>
														<uuid>E70176C8-CBA1-4B4D-B7E4-6BC31EA0E907</uuid>
													</itemhistory>
												</clipitem>
												<clipitem id="Raw Interview Matthew Duepner433">
													<name>Raw Interview Matthew Duepner</name>
													<duration>81486</duration>
													<rate>
														<ntsc>TRUE</ntsc>
														<timebase>24</timebase>
													</rate>
													<in>10404</in>
													<out>10508</out>
													<start>2289</start>
													<end>2393</end>
													<pixelaspectratio>Square</pixelaspectratio>
													<anamorphic>FALSE</anamorphic>
													<alphatype>black</alphatype>
													<masterclipid>Raw Interview Matthew Duepner390</masterclipid>
													<logginginfo>
														<scene/>
														<shottake/>
														<lognote/>
														<good>FALSE</good>
													</logginginfo>
													<labels>
														<label2/>
													</labels>
													<comments>
														<mastercomment1/>
														<mastercomment2/>
														<mastercomment3/>
														<mastercomment4/>
													</comments>
													<file id="YIN_2013-05-28_LG-5 "/>
													<sourcetrack>
														<mediatype>video</mediatype>
													</sourcetrack>
													<link>
														<linkclipref>Raw Interview Matthew Duepner433</linkclipref>
														<mediatype>video</mediatype>
														<trackindex>1</trackindex>
														<clipindex>14</clipindex>
													</link>
													<link>
														<linkclipref>Raw Interview Matthew Duepner434</linkclipref>
														<mediatype>audio</mediatype>
														<trackindex>1</trackindex>
														<clipindex>14</clipindex>
														<groupindex>1</groupindex>
													</link>
													<link>
														<linkclipref>Raw Interview Matthew Duepner435</linkclipref>
														<mediatype>audio</mediatype>
														<trackindex>2</trackindex>
														<clipindex>14</clipindex>
														<groupindex>1</groupindex>
													</link>
													<fielddominance>none</fielddominance>
													<itemhistory>
														<uuid>C1C5FDB9-D593-48E0-816B-81EC83D00FEE</uuid>
													</itemhistory>
												</clipitem>
												<clipitem id="Raw Interview Matthew Duepner436">
													<name>Raw Interview Matthew Duepner</name>
													<duration>81486</duration>
													<rate>
														<ntsc>TRUE</ntsc>
														<timebase>24</timebase>
													</rate>
													<in>10554</in>
													<out>10693</out>
													<start>2393</start>
													<end>2532</end>
													<pixelaspectratio>Square</pixelaspectratio>
													<anamorphic>FALSE</anamorphic>
													<alphatype>black</alphatype>
													<masterclipid>Raw Interview Matthew Duepner390</masterclipid>
													<logginginfo>
														<scene/>
														<shottake/>
														<lognote/>
														<good>FALSE</good>
													</logginginfo>
													<labels>
														<label2/>
													</labels>
													<comments>
														<mastercomment1/>
														<mastercomment2/>
														<mastercomment3/>
														<mastercomment4/>
													</comments>
													<file id="YIN_2013-05-28_LG-5 "/>
													<sourcetrack>
														<mediatype>video</mediatype>
													</sourcetrack>
													<link>
														<linkclipref>Raw Interview Matthew Duepner436</linkclipref>
														<mediatype>video</mediatype>
														<trackindex>1</trackindex>
														<clipindex>15</clipindex>
													</link>
													<link>
														<linkclipref>Raw Interview Matthew Duepner437</linkclipref>
														<mediatype>audio</mediatype>
														<trackindex>1</trackindex>
														<clipindex>15</clipindex>
														<groupindex>1</groupindex>
													</link>
													<link>
														<linkclipref>Raw Interview Matthew Duepner438</linkclipref>
														<mediatype>audio</mediatype>
														<trackindex>2</trackindex>
														<clipindex>15</clipindex>
														<groupindex>1</groupindex>
													</link>
													<fielddominance>none</fielddominance>
													<itemhistory>
														<uuid>DD6A88E9-2AE5-459B-9749-25A76F21BD8C</uuid>
													</itemhistory>
												</clipitem>
												<clipitem id="Raw Interview Matthew Duepner439">
													<name>Raw Interview Matthew Duepner</name>
													<duration>81486</duration>
													<rate>
														<ntsc>TRUE</ntsc>
														<timebase>24</timebase>
													</rate>
													<in>11151</in>
													<out>11298</out>
													<start>2532</start>
													<end>2679</end>
													<pixelaspectratio>Square</pixelaspectratio>
													<anamorphic>FALSE</anamorphic>
													<alphatype>black</alphatype>
													<masterclipid>Raw Interview Matthew Duepner390</masterclipid>
													<logginginfo>
														<scene/>
														<shottake/>
														<lognote/>
														<good>FALSE</good>
													</logginginfo>
													<labels>
														<label2/>
													</labels>
													<comments>
														<mastercomment1/>
														<mastercomment2/>
														<mastercomment3/>
														<mastercomment4/>
													</comments>
													<file id="YIN_2013-05-28_LG-5 "/>
													<sourcetrack>
														<mediatype>video</mediatype>
													</sourcetrack>
													<link>
														<linkclipref>Raw Interview Matthew Duepner439</linkclipref>
														<mediatype>video</mediatype>
														<trackindex>1</trackindex>
														<clipindex>16</clipindex>
													</link>
													<link>
														<linkclipref>Raw Interview Matthew Duepner440</linkclipref>
														<mediatype>audio</mediatype>
														<trackindex>1</trackindex>
														<clipindex>16</clipindex>
														<groupindex>1</groupindex>
													</link>
													<link>
														<linkclipref>Raw Interview Matthew Duepner441</linkclipref>
														<mediatype>audio</mediatype>
														<trackindex>2</trackindex>
														<clipindex>16</clipindex>
														<groupindex>1</groupindex>
													</link>
													<fielddominance>none</fielddominance>
													<itemhistory>
														<uuid>2EEA56AC-9FA8-4917-925A-2EE84D747853</uuid>
													</itemhistory>
												</clipitem>
												<clipitem id="Raw Interview Matthew Duepner442">
													<name>Raw Interview Matthew Duepner</name>
													<duration>81486</duration>
													<rate>
														<ntsc>TRUE</ntsc>
														<timebase>24</timebase>
													</rate>
													<in>11865</in>
													<out>11984</out>
													<start>2679</start>
													<end>2798</end>
													<pixelaspectratio>Square</pixelaspectratio>
													<anamorphic>FALSE</anamorphic>
													<alphatype>black</alphatype>
													<masterclipid>Raw Interview Matthew Duepner390</masterclipid>
													<logginginfo>
														<scene/>
														<shottake/>
														<lognote/>
														<good>FALSE</good>
													</logginginfo>
													<labels>
														<label2/>
													</labels>
													<comments>
														<mastercomment1/>
														<mastercomment2/>
														<mastercomment3/>
														<mastercomment4/>
													</comments>
													<file id="YIN_2013-05-28_LG-5 "/>
													<sourcetrack>
														<mediatype>video</mediatype>
													</sourcetrack>
													<link>
														<linkclipref>Raw Interview Matthew Duepner442</linkclipref>
														<mediatype>video</mediatype>
														<trackindex>1</trackindex>
														<clipindex>17</clipindex>
													</link>
													<link>
														<linkclipref>Raw Interview Matthew Duepner443</linkclipref>
														<mediatype>audio</mediatype>
														<trackindex>1</trackindex>
														<clipindex>17</clipindex>
														<groupindex>1</groupindex>
													</link>
													<link>
														<linkclipref>Raw Interview Matthew Duepner444</linkclipref>
														<mediatype>audio</mediatype>
														<trackindex>2</trackindex>
														<clipindex>17</clipindex>
														<groupindex>1</groupindex>
													</link>
													<fielddominance>none</fielddominance>
													<itemhistory>
														<uuid>8A85B715-CA89-4FBB-8D24-B7EE95DCDCB1</uuid>
													</itemhistory>
												</clipitem>
												<clipitem id="Raw Interview Matthew Duepner445">
													<name>Raw Interview Matthew Duepner</name>
													<duration>81486</duration>
													<rate>
														<ntsc>TRUE</ntsc>
														<timebase>24</timebase>
													</rate>
													<in>12116</in>
													<out>12289</out>
													<start>2798</start>
													<end>2971</end>
													<pixelaspectratio>Square</pixelaspectratio>
													<anamorphic>FALSE</anamorphic>
													<alphatype>black</alphatype>
													<masterclipid>Raw Interview Matthew Duepner390</masterclipid>
													<logginginfo>
														<scene/>
														<shottake/>
														<lognote/>
														<good>FALSE</good>
													</logginginfo>
													<labels>
														<label2/>
													</labels>
													<comments>
														<mastercomment1/>
														<mastercomment2/>
														<mastercomment3/>
														<mastercomment4/>
													</comments>
													<file id="YIN_2013-05-28_LG-5 "/>
													<sourcetrack>
														<mediatype>video</mediatype>
													</sourcetrack>
													<link>
														<linkclipref>Raw Interview Matthew Duepner445</linkclipref>
														<mediatype>video</mediatype>
														<trackindex>1</trackindex>
														<clipindex>18</clipindex>
													</link>
													<link>
														<linkclipref>Raw Interview Matthew Duepner446</linkclipref>
														<mediatype>audio</mediatype>
														<trackindex>1</trackindex>
														<clipindex>18</clipindex>
														<groupindex>1</groupindex>
													</link>
													<link>
														<linkclipref>Raw Interview Matthew Duepner447</linkclipref>
														<mediatype>audio</mediatype>
														<trackindex>2</trackindex>
														<clipindex>18</clipindex>
														<groupindex>1</groupindex>
													</link>
													<fielddominance>none</fielddominance>
													<itemhistory>
														<uuid>3E59D7BB-11AF-43B0-9394-EDF136B55AA2</uuid>
													</itemhistory>
												</clipitem>
												<clipitem id="Raw Interview Matthew Duepner448">
													<name>Raw Interview Matthew Duepner</name>
													<duration>81486</duration>
													<rate>
														<ntsc>TRUE</ntsc>
														<timebase>24</timebase>
													</rate>
													<in>14189</in>
													<out>14334</out>
													<start>2971</start>
													<end>3116</end>
													<pixelaspectratio>Square</pixelaspectratio>
													<anamorphic>FALSE</anamorphic>
													<alphatype>black</alphatype>
													<masterclipid>Raw Interview Matthew Duepner390</masterclipid>
													<logginginfo>
														<scene/>
														<shottake/>
														<lognote/>
														<good>FALSE</good>
													</logginginfo>
													<labels>
														<label2/>
													</labels>
													<comments>
														<mastercomment1/>
														<mastercomment2/>
														<mastercomment3/>
														<mastercomment4/>
													</comments>
													<file id="YIN_2013-05-28_LG-5 "/>
													<sourcetrack>
														<mediatype>video</mediatype>
													</sourcetrack>
													<link>
														<linkclipref>Raw Interview Matthew Duepner448</linkclipref>
														<mediatype>video</mediatype>
														<trackindex>1</trackindex>
														<clipindex>19</clipindex>
													</link>
													<link>
														<linkclipref>Raw Interview Matthew Duepner449</linkclipref>
														<mediatype>audio</mediatype>
														<trackindex>1</trackindex>
														<clipindex>19</clipindex>
														<groupindex>1</groupindex>
													</link>
													<link>
														<linkclipref>Raw Interview Matthew Duepner450</linkclipref>
														<mediatype>audio</mediatype>
														<trackindex>2</trackindex>
														<clipindex>19</clipindex>
														<groupindex>1</groupindex>
													</link>
													<fielddominance>none</fielddominance>
													<itemhistory>
														<uuid>F3D25E5D-C0BD-45E3-81FC-1889A6EA5344</uuid>
													</itemhistory>
												</clipitem>
												<clipitem id="Raw Interview Matthew Duepner451">
													<name>Raw Interview Matthew Duepner</name>
													<duration>81486</duration>
													<rate>
														<ntsc>TRUE</ntsc>
														<timebase>24</timebase>
													</rate>
													<in>17169</in>
													<out>17401</out>
													<start>3116</start>
													<end>3348</end>
													<pixelaspectratio>Square</pixelaspectratio>
													<anamorphic>FALSE</anamorphic>
													<alphatype>black</alphatype>
													<masterclipid>Raw Interview Matthew Duepner390</masterclipid>
													<logginginfo>
														<scene/>
														<shottake/>
														<lognote/>
														<good>FALSE</good>
													</logginginfo>
													<labels>
														<label2/>
													</labels>
													<comments>
														<mastercomment1/>
														<mastercomment2/>
														<mastercomment3/>
														<mastercomment4/>
													</comments>
													<file id="YIN_2013-05-28_LG-5 "/>
													<sourcetrack>
														<mediatype>video</mediatype>
													</sourcetrack>
													<link>
														<linkclipref>Raw Interview Matthew Duepner451</linkclipref>
														<mediatype>video</mediatype>
														<trackindex>1</trackindex>
														<clipindex>20</clipindex>
													</link>
													<link>
														<linkclipref>Raw Interview Matthew Duepner452</linkclipref>
														<mediatype>audio</mediatype>
														<trackindex>1</trackindex>
														<clipindex>20</clipindex>
														<groupindex>1</groupindex>
													</link>
													<link>
														<linkclipref>Raw Interview Matthew Duepner453</linkclipref>
														<mediatype>audio</mediatype>
														<trackindex>2</trackindex>
														<clipindex>20</clipindex>
														<groupindex>1</groupindex>
													</link>
													<fielddominance>none</fielddominance>
													<itemhistory>
														<uuid>52A40BE1-0D98-4FA0-8A0E-4D163AABA60F</uuid>
													</itemhistory>
												</clipitem>
												<clipitem id="Raw Interview Matthew Duepner454">
													<name>Raw Interview Matthew Duepner</name>
													<duration>81486</duration>
													<rate>
														<ntsc>TRUE</ntsc>
														<timebase>24</timebase>
													</rate>
													<in>17964</in>
													<out>18613</out>
													<start>3348</start>
													<end>3997</end>
													<pixelaspectratio>Square</pixelaspectratio>
													<anamorphic>FALSE</anamorphic>
													<alphatype>black</alphatype>
													<masterclipid>Raw Interview Matthew Duepner390</masterclipid>
													<logginginfo>
														<scene/>
														<shottake/>
														<lognote/>
														<good>FALSE</good>
													</logginginfo>
													<labels>
														<label2/>
													</labels>
													<comments>
														<mastercomment1/>
														<mastercomment2/>
														<mastercomment3/>
														<mastercomment4/>
													</comments>
													<file id="YIN_2013-05-28_LG-5 "/>
													<sourcetrack>
														<mediatype>video</mediatype>
													</sourcetrack>
													<link>
														<linkclipref>Raw Interview Matthew Duepner454</linkclipref>
														<mediatype>video</mediatype>
														<trackindex>1</trackindex>
														<clipindex>21</clipindex>
													</link>
													<link>
														<linkclipref>Raw Interview Matthew Duepner455</linkclipref>
														<mediatype>audio</mediatype>
														<trackindex>1</trackindex>
														<clipindex>21</clipindex>
														<groupindex>1</groupindex>
													</link>
													<link>
														<linkclipref>Raw Interview Matthew Duepner456</linkclipref>
														<mediatype>audio</mediatype>
														<trackindex>2</trackindex>
														<clipindex>21</clipindex>
														<groupindex>1</groupindex>
													</link>
													<fielddominance>none</fielddominance>
													<itemhistory>
														<uuid>47DB7D67-B844-41ED-8B81-CCF60BBA130A</uuid>
													</itemhistory>
												</clipitem>
												<clipitem id="Raw Interview Matthew Duepner457">
													<name>Raw Interview Matthew Duepner</name>
													<duration>81486</duration>
													<rate>
														<ntsc>TRUE</ntsc>
														<timebase>24</timebase>
													</rate>
													<in>18645</in>
													<out>19018</out>
													<start>3997</start>
													<end>4370</end>
													<pixelaspectratio>Square</pixelaspectratio>
													<anamorphic>FALSE</anamorphic>
													<alphatype>black</alphatype>
													<masterclipid>Raw Interview Matthew Duepner390</masterclipid>
													<logginginfo>
														<scene/>
														<shottake/>
														<lognote/>
														<good>FALSE</good>
													</logginginfo>
													<labels>
														<label2/>
													</labels>
													<comments>
														<mastercomment1/>
														<mastercomment2/>
														<mastercomment3/>
														<mastercomment4/>
													</comments>
													<file id="YIN_2013-05-28_LG-5 "/>
													<sourcetrack>
														<mediatype>video</mediatype>
													</sourcetrack>
													<link>
														<linkclipref>Raw Interview Matthew Duepner457</linkclipref>
														<mediatype>video</mediatype>
														<trackindex>1</trackindex>
														<clipindex>22</clipindex>
													</link>
													<link>
														<linkclipref>Raw Interview Matthew Duepner458</linkclipref>
														<mediatype>audio</mediatype>
														<trackindex>1</trackindex>
														<clipindex>22</clipindex>
														<groupindex>1</groupindex>
													</link>
													<link>
														<linkclipref>Raw Interview Matthew Duepner459</linkclipref>
														<mediatype>audio</mediatype>
														<trackindex>2</trackindex>
														<clipindex>22</clipindex>
														<groupindex>1</groupindex>
													</link>
													<fielddominance>none</fielddominance>
													<itemhistory>
														<uuid>7792BF41-3C3B-408E-A034-0263D091FCD3</uuid>
													</itemhistory>
												</clipitem>
												<clipitem id="Raw Interview Matthew Duepner460">
													<name>Raw Interview Matthew Duepner</name>
													<duration>81486</duration>
													<rate>
														<ntsc>TRUE</ntsc>
														<timebase>24</timebase>
													</rate>
													<in>19126</in>
													<out>19267</out>
													<start>4370</start>
													<end>4511</end>
													<pixelaspectratio>Square</pixelaspectratio>
													<anamorphic>FALSE</anamorphic>
													<alphatype>black</alphatype>
													<masterclipid>Raw Interview Matthew Duepner390</masterclipid>
													<logginginfo>
														<scene/>
														<shottake/>
														<lognote/>
														<good>FALSE</good>
													</logginginfo>
													<labels>
														<label2/>
													</labels>
													<comments>
														<mastercomment1/>
														<mastercomment2/>
														<mastercomment3/>
														<mastercomment4/>
													</comments>
													<file id="YIN_2013-05-28_LG-5 "/>
													<sourcetrack>
														<mediatype>video</mediatype>
													</sourcetrack>
													<link>
														<linkclipref>Raw Interview Matthew Duepner460</linkclipref>
														<mediatype>video</mediatype>
														<trackindex>1</trackindex>
														<clipindex>23</clipindex>
													</link>
													<link>
														<linkclipref>Raw Interview Matthew Duepner461</linkclipref>
														<mediatype>audio</mediatype>
														<trackindex>1</trackindex>
														<clipindex>23</clipindex>
														<groupindex>1</groupindex>
													</link>
													<link>
														<linkclipref>Raw Interview Matthew Duepner462</linkclipref>
														<mediatype>audio</mediatype>
														<trackindex>2</trackindex>
														<clipindex>23</clipindex>
														<groupindex>1</groupindex>
													</link>
													<fielddominance>none</fielddominance>
													<itemhistory>
														<uuid>6E0F5AAE-F508-4F77-88A9-84308F8ACF03</uuid>
													</itemhistory>
												</clipitem>
												<clipitem id="Raw Interview Matthew Duepner463">
													<name>Raw Interview Matthew Duepner</name>
													<duration>81486</duration>
													<rate>
														<ntsc>TRUE</ntsc>
														<timebase>24</timebase>
													</rate>
													<in>19372</in>
													<out>19423</out>
													<start>4511</start>
													<end>4562</end>
													<pixelaspectratio>Square</pixelaspectratio>
													<anamorphic>FALSE</anamorphic>
													<alphatype>black</alphatype>
													<masterclipid>Raw Interview Matthew Duepner390</masterclipid>
													<logginginfo>
														<scene/>
														<shottake/>
														<lognote/>
														<good>FALSE</good>
													</logginginfo>
													<labels>
														<label2/>
													</labels>
													<comments>
														<mastercomment1/>
														<mastercomment2/>
														<mastercomment3/>
														<mastercomment4/>
													</comments>
													<file id="YIN_2013-05-28_LG-5 "/>
													<sourcetrack>
														<mediatype>video</mediatype>
													</sourcetrack>
													<link>
														<linkclipref>Raw Interview Matthew Duepner463</linkclipref>
														<mediatype>video</mediatype>
														<trackindex>1</trackindex>
														<clipindex>24</clipindex>
													</link>
													<link>
														<linkclipref>Raw Interview Matthew Duepner464</linkclipref>
														<mediatype>audio</mediatype>
														<trackindex>1</trackindex>
														<clipindex>24</clipindex>
														<groupindex>1</groupindex>
													</link>
													<link>
														<linkclipref>Raw Interview Matthew Duepner465</linkclipref>
														<mediatype>audio</mediatype>
														<trackindex>2</trackindex>
														<clipindex>24</clipindex>
														<groupindex>1</groupindex>
													</link>
													<fielddominance>none</fielddominance>
													<itemhistory>
														<uuid>E44E2EEE-E2B5-4FC7-AAE1-84CCF003C745</uuid>
													</itemhistory>
												</clipitem>
												<clipitem id="Raw Interview Matthew Duepner466">
													<name>Raw Interview Matthew Duepner</name>
													<duration>81486</duration>
													<rate>
														<ntsc>TRUE</ntsc>
														<timebase>24</timebase>
													</rate>
													<in>19423</in>
													<out>19455</out>
													<start>4562</start>
													<end>4594</end>
													<pixelaspectratio>Square</pixelaspectratio>
													<anamorphic>FALSE</anamorphic>
													<alphatype>black</alphatype>
													<masterclipid>Raw Interview Matthew Duepner390</masterclipid>
													<logginginfo>
														<scene/>
														<shottake/>
														<lognote/>
														<good>FALSE</good>
													</logginginfo>
													<labels>
														<label2/>
													</labels>
													<comments>
														<mastercomment1/>
														<mastercomment2/>
														<mastercomment3/>
														<mastercomment4/>
													</comments>
													<file id="YIN_2013-05-28_LG-5 "/>
													<sourcetrack>
														<mediatype>video</mediatype>
													</sourcetrack>
													<link>
														<linkclipref>Raw Interview Matthew Duepner466</linkclipref>
														<mediatype>video</mediatype>
														<trackindex>1</trackindex>
														<clipindex>25</clipindex>
													</link>
													<link>
														<linkclipref>Raw Interview Matthew Duepner467</linkclipref>
														<mediatype>audio</mediatype>
														<trackindex>1</trackindex>
														<clipindex>25</clipindex>
														<groupindex>1</groupindex>
													</link>
													<link>
														<linkclipref>Raw Interview Matthew Duepner468</linkclipref>
														<mediatype>audio</mediatype>
														<trackindex>2</trackindex>
														<clipindex>25</clipindex>
														<groupindex>1</groupindex>
													</link>
													<fielddominance>none</fielddominance>
													<itemhistory>
														<uuid>334E010E-A9F2-4E3F-B1A8-5600F2082126</uuid>
													</itemhistory>
												</clipitem>
												<clipitem id="Raw Interview Matthew Duepner469">
													<name>Raw Interview Matthew Duepner</name>
													<duration>81486</duration>
													<rate>
														<ntsc>TRUE</ntsc>
														<timebase>24</timebase>
													</rate>
													<in>19520</in>
													<out>19602</out>
													<start>4594</start>
													<end>4676</end>
													<pixelaspectratio>Square</pixelaspectratio>
													<anamorphic>FALSE</anamorphic>
													<alphatype>black</alphatype>
													<masterclipid>Raw Interview Matthew Duepner390</masterclipid>
													<logginginfo>
														<scene/>
														<shottake/>
														<lognote/>
														<good>FALSE</good>
													</logginginfo>
													<labels>
														<label2/>
													</labels>
													<comments>
														<mastercomment1/>
														<mastercomment2/>
														<mastercomment3/>
														<mastercomment4/>
													</comments>
													<file id="YIN_2013-05-28_LG-5 "/>
													<sourcetrack>
														<mediatype>video</mediatype>
													</sourcetrack>
													<link>
														<linkclipref>Raw Interview Matthew Duepner469</linkclipref>
														<mediatype>video</mediatype>
														<trackindex>1</trackindex>
														<clipindex>26</clipindex>
													</link>
													<link>
														<linkclipref>Raw Interview Matthew Duepner470</linkclipref>
														<mediatype>audio</mediatype>
														<trackindex>1</trackindex>
														<clipindex>26</clipindex>
														<groupindex>1</groupindex>
													</link>
													<link>
														<linkclipref>Raw Interview Matthew Duepner471</linkclipref>
														<mediatype>audio</mediatype>
														<trackindex>2</trackindex>
														<clipindex>26</clipindex>
														<groupindex>1</groupindex>
													</link>
													<fielddominance>none</fielddominance>
													<itemhistory>
														<uuid>1CD89385-48B6-4945-B0E3-CF1DF69406CC</uuid>
													</itemhistory>
												</clipitem>
												<clipitem id="Raw Interview Matthew Duepner472">
													<name>Raw Interview Matthew Duepner</name>
													<duration>81486</duration>
													<rate>
														<ntsc>TRUE</ntsc>
														<timebase>24</timebase>
													</rate>
													<in>19602</in>
													<out>19780</out>
													<start>4676</start>
													<end>4854</end>
													<pixelaspectratio>Square</pixelaspectratio>
													<anamorphic>FALSE</anamorphic>
													<alphatype>black</alphatype>
													<masterclipid>Raw Interview Matthew Duepner390</masterclipid>
													<logginginfo>
														<scene/>
														<shottake/>
														<lognote/>
														<good>FALSE</good>
													</logginginfo>
													<labels>
														<label2/>
													</labels>
													<comments>
														<mastercomment1/>
														<mastercomment2/>
														<mastercomment3/>
														<mastercomment4/>
													</comments>
													<file id="YIN_2013-05-28_LG-5 "/>
													<sourcetrack>
														<mediatype>video</mediatype>
													</sourcetrack>
													<link>
														<linkclipref>Raw Interview Matthew Duepner472</linkclipref>
														<mediatype>video</mediatype>
														<trackindex>1</trackindex>
														<clipindex>27</clipindex>
													</link>
													<link>
														<linkclipref>Raw Interview Matthew Duepner473</linkclipref>
														<mediatype>audio</mediatype>
														<trackindex>1</trackindex>
														<clipindex>27</clipindex>
														<groupindex>1</groupindex>
													</link>
													<link>
														<linkclipref>Raw Interview Matthew Duepner474</linkclipref>
														<mediatype>audio</mediatype>
														<trackindex>2</trackindex>
														<clipindex>27</clipindex>
														<groupindex>1</groupindex>
													</link>
													<fielddominance>none</fielddominance>
													<itemhistory>
														<uuid>4B76B29A-AA61-4B3F-AF2E-D1FF11231241</uuid>
													</itemhistory>
												</clipitem>
												<clipitem id="Raw Interview Matthew Duepner475">
													<name>Raw Interview Matthew Duepner</name>
													<duration>81486</duration>
													<rate>
														<ntsc>TRUE</ntsc>
														<timebase>24</timebase>
													</rate>
													<in>20313</in>
													<out>20815</out>
													<start>4854</start>
													<end>5356</end>
													<pixelaspectratio>Square</pixelaspectratio>
													<anamorphic>FALSE</anamorphic>
													<alphatype>black</alphatype>
													<masterclipid>Raw Interview Matthew Duepner390</masterclipid>
													<logginginfo>
														<scene/>
														<shottake/>
														<lognote/>
														<good>FALSE</good>
													</logginginfo>
													<labels>
														<label2/>
													</labels>
													<comments>
														<mastercomment1/>
														<mastercomment2/>
														<mastercomment3/>
														<mastercomment4/>
													</comments>
													<file id="YIN_2013-05-28_LG-5 "/>
													<sourcetrack>
														<mediatype>video</mediatype>
													</sourcetrack>
													<link>
														<linkclipref>Raw Interview Matthew Duepner475</linkclipref>
														<mediatype>video</mediatype>
														<trackindex>1</trackindex>
														<clipindex>28</clipindex>
													</link>
													<link>
														<linkclipref>Raw Interview Matthew Duepner476</linkclipref>
														<mediatype>audio</mediatype>
														<trackindex>1</trackindex>
														<clipindex>28</clipindex>
														<groupindex>1</groupindex>
													</link>
													<link>
														<linkclipref>Raw Interview Matthew Duepner477</linkclipref>
														<mediatype>audio</mediatype>
														<trackindex>2</trackindex>
														<clipindex>28</clipindex>
														<groupindex>1</groupindex>
													</link>
													<fielddominance>none</fielddominance>
													<itemhistory>
														<uuid>8C124817-FE79-4BE7-A9E8-1B1E078CC2F4</uuid>
													</itemhistory>
												</clipitem>
												<clipitem id="Raw Interview Matthew Duepner478">
													<name>Raw Interview Matthew Duepner</name>
													<duration>81486</duration>
													<rate>
														<ntsc>TRUE</ntsc>
														<timebase>24</timebase>
													</rate>
													<in>20982</in>
													<out>21125</out>
													<start>5356</start>
													<end>5499</end>
													<pixelaspectratio>Square</pixelaspectratio>
													<anamorphic>FALSE</anamorphic>
													<alphatype>black</alphatype>
													<masterclipid>Raw Interview Matthew Duepner390</masterclipid>
													<logginginfo>
														<scene/>
														<shottake/>
														<lognote/>
														<good>FALSE</good>
													</logginginfo>
													<labels>
														<label2/>
													</labels>
													<comments>
														<mastercomment1/>
														<mastercomment2/>
														<mastercomment3/>
														<mastercomment4/>
													</comments>
													<file id="YIN_2013-05-28_LG-5 "/>
													<sourcetrack>
														<mediatype>video</mediatype>
													</sourcetrack>
													<link>
														<linkclipref>Raw Interview Matthew Duepner478</linkclipref>
														<mediatype>video</mediatype>
														<trackindex>1</trackindex>
														<clipindex>29</clipindex>
													</link>
													<link>
														<linkclipref>Raw Interview Matthew Duepner479</linkclipref>
														<mediatype>audio</mediatype>
														<trackindex>1</trackindex>
														<clipindex>29</clipindex>
														<groupindex>1</groupindex>
													</link>
													<link>
														<linkclipref>Raw Interview Matthew Duepner480</linkclipref>
														<mediatype>audio</mediatype>
														<trackindex>2</trackindex>
														<clipindex>29</clipindex>
														<groupindex>1</groupindex>
													</link>
													<fielddominance>none</fielddominance>
													<itemhistory>
														<uuid>0BC4E81E-7B4B-42E9-8D49-6647D2B77F91</uuid>
													</itemhistory>
												</clipitem>
												<clipitem id="Raw Interview Matthew Duepner481">
													<name>Raw Interview Matthew Duepner</name>
													<duration>81486</duration>
													<rate>
														<ntsc>TRUE</ntsc>
														<timebase>24</timebase>
													</rate>
													<in>21684</in>
													<out>21826</out>
													<start>5499</start>
													<end>5641</end>
													<pixelaspectratio>Square</pixelaspectratio>
													<anamorphic>FALSE</anamorphic>
													<alphatype>black</alphatype>
													<masterclipid>Raw Interview Matthew Duepner390</masterclipid>
													<logginginfo>
														<scene/>
														<shottake/>
														<lognote/>
														<good>FALSE</good>
													</logginginfo>
													<labels>
														<label2/>
													</labels>
													<comments>
														<mastercomment1/>
														<mastercomment2/>
														<mastercomment3/>
														<mastercomment4/>
													</comments>
													<file id="YIN_2013-05-28_LG-5 "/>
													<sourcetrack>
														<mediatype>video</mediatype>
													</sourcetrack>
													<link>
														<linkclipref>Raw Interview Matthew Duepner481</linkclipref>
														<mediatype>video</mediatype>
														<trackindex>1</trackindex>
														<clipindex>30</clipindex>
													</link>
													<link>
														<linkclipref>Raw Interview Matthew Duepner482</linkclipref>
														<mediatype>audio</mediatype>
														<trackindex>1</trackindex>
														<clipindex>30</clipindex>
														<groupindex>1</groupindex>
													</link>
													<link>
														<linkclipref>Raw Interview Matthew Duepner483</linkclipref>
														<mediatype>audio</mediatype>
														<trackindex>2</trackindex>
														<clipindex>30</clipindex>
														<groupindex>1</groupindex>
													</link>
													<fielddominance>none</fielddominance>
													<itemhistory>
														<uuid>220D2BDF-0493-40D6-ABAD-7E5235825832</uuid>
													</itemhistory>
												</clipitem>
												<clipitem id="Raw Interview Matthew Duepner484">
													<name>Raw Interview Matthew Duepner</name>
													<duration>81486</duration>
													<rate>
														<ntsc>TRUE</ntsc>
														<timebase>24</timebase>
													</rate>
													<in>22225</in>
													<out>22353</out>
													<start>5641</start>
													<end>5769</end>
													<pixelaspectratio>Square</pixelaspectratio>
													<anamorphic>FALSE</anamorphic>
													<alphatype>black</alphatype>
													<masterclipid>Raw Interview Matthew Duepner390</masterclipid>
													<logginginfo>
														<scene/>
														<shottake/>
														<lognote/>
														<good>FALSE</good>
													</logginginfo>
													<labels>
														<label2/>
													</labels>
													<comments>
														<mastercomment1/>
														<mastercomment2/>
														<mastercomment3/>
														<mastercomment4/>
													</comments>
													<file id="YIN_2013-05-28_LG-5 "/>
													<sourcetrack>
														<mediatype>video</mediatype>
													</sourcetrack>
													<link>
														<linkclipref>Raw Interview Matthew Duepner484</linkclipref>
														<mediatype>video</mediatype>
														<trackindex>1</trackindex>
														<clipindex>31</clipindex>
													</link>
													<link>
														<linkclipref>Raw Interview Matthew Duepner485</linkclipref>
														<mediatype>audio</mediatype>
														<trackindex>1</trackindex>
														<clipindex>31</clipindex>
														<groupindex>1</groupindex>
													</link>
													<link>
														<linkclipref>Raw Interview Matthew Duepner486</linkclipref>
														<mediatype>audio</mediatype>
														<trackindex>2</trackindex>
														<clipindex>31</clipindex>
														<groupindex>1</groupindex>
													</link>
													<fielddominance>none</fielddominance>
													<itemhistory>
														<uuid>054E1C41-2AB4-4FB5-8441-995D5888734B</uuid>
													</itemhistory>
												</clipitem>
												<clipitem id="Raw Interview Matthew Duepner487">
													<name>Raw Interview Matthew Duepner</name>
													<duration>81486</duration>
													<rate>
														<ntsc>TRUE</ntsc>
														<timebase>24</timebase>
													</rate>
													<in>22806</in>
													<out>23131</out>
													<start>5769</start>
													<end>6094</end>
													<pixelaspectratio>Square</pixelaspectratio>
													<anamorphic>FALSE</anamorphic>
													<alphatype>black</alphatype>
													<masterclipid>Raw Interview Matthew Duepner390</masterclipid>
													<logginginfo>
														<scene/>
														<shottake/>
														<lognote/>
														<good>FALSE</good>
													</logginginfo>
													<labels>
														<label2/>
													</labels>
													<comments>
														<mastercomment1/>
														<mastercomment2/>
														<mastercomment3/>
														<mastercomment4/>
													</comments>
													<file id="YIN_2013-05-28_LG-5 "/>
													<sourcetrack>
														<mediatype>video</mediatype>
													</sourcetrack>
													<link>
														<linkclipref>Raw Interview Matthew Duepner487</linkclipref>
														<mediatype>video</mediatype>
														<trackindex>1</trackindex>
														<clipindex>32</clipindex>
													</link>
													<link>
														<linkclipref>Raw Interview Matthew Duepner488</linkclipref>
														<mediatype>audio</mediatype>
														<trackindex>1</trackindex>
														<clipindex>32</clipindex>
														<groupindex>1</groupindex>
													</link>
													<link>
														<linkclipref>Raw Interview Matthew Duepner489</linkclipref>
														<mediatype>audio</mediatype>
														<trackindex>2</trackindex>
														<clipindex>32</clipindex>
														<groupindex>1</groupindex>
													</link>
													<fielddominance>none</fielddominance>
													<itemhistory>
														<uuid>A102DD73-6635-4735-B820-7B6284F84B7D</uuid>
													</itemhistory>
												</clipitem>
												<clipitem id="Raw Interview Matthew Duepner490">
													<name>Raw Interview Matthew Duepner</name>
													<duration>81486</duration>
													<rate>
														<ntsc>TRUE</ntsc>
														<timebase>24</timebase>
													</rate>
													<in>24240</in>
													<out>24488</out>
													<start>6094</start>
													<end>6342</end>
													<pixelaspectratio>Square</pixelaspectratio>
													<anamorphic>FALSE</anamorphic>
													<alphatype>black</alphatype>
													<masterclipid>Raw Interview Matthew Duepner390</masterclipid>
													<logginginfo>
														<scene/>
														<shottake/>
														<lognote/>
														<good>FALSE</good>
													</logginginfo>
													<labels>
														<label2/>
													</labels>
													<comments>
														<mastercomment1/>
														<mastercomment2/>
														<mastercomment3/>
														<mastercomment4/>
													</comments>
													<file id="YIN_2013-05-28_LG-5 "/>
													<sourcetrack>
														<mediatype>video</mediatype>
													</sourcetrack>
													<link>
														<linkclipref>Raw Interview Matthew Duepner490</linkclipref>
														<mediatype>video</mediatype>
														<trackindex>1</trackindex>
														<clipindex>33</clipindex>
													</link>
													<link>
														<linkclipref>Raw Interview Matthew Duepner491</linkclipref>
														<mediatype>audio</mediatype>
														<trackindex>1</trackindex>
														<clipindex>33</clipindex>
														<groupindex>1</groupindex>
													</link>
													<link>
														<linkclipref>Raw Interview Matthew Duepner492</linkclipref>
														<mediatype>audio</mediatype>
														<trackindex>2</trackindex>
														<clipindex>33</clipindex>
														<groupindex>1</groupindex>
													</link>
													<fielddominance>none</fielddominance>
													<itemhistory>
														<uuid>8BC54DA5-C5C5-402A-B737-957237AE810E</uuid>
													</itemhistory>
												</clipitem>
												<clipitem id="Raw Interview Matthew Duepner493">
													<name>Raw Interview Matthew Duepner</name>
													<duration>81486</duration>
													<rate>
														<ntsc>TRUE</ntsc>
														<timebase>24</timebase>
													</rate>
													<in>24734</in>
													<out>25029</out>
													<start>6342</start>
													<end>6637</end>
													<pixelaspectratio>Square</pixelaspectratio>
													<anamorphic>FALSE</anamorphic>
													<alphatype>black</alphatype>
													<masterclipid>Raw Interview Matthew Duepner390</masterclipid>
													<logginginfo>
														<scene/>
														<shottake/>
														<lognote/>
														<good>FALSE</good>
													</logginginfo>
													<labels>
														<label2/>
													</labels>
													<comments>
														<mastercomment1/>
														<mastercomment2/>
														<mastercomment3/>
														<mastercomment4/>
													</comments>
													<file id="YIN_2013-05-28_LG-5 "/>
													<sourcetrack>
														<mediatype>video</mediatype>
													</sourcetrack>
													<link>
														<linkclipref>Raw Interview Matthew Duepner493</linkclipref>
														<mediatype>video</mediatype>
														<trackindex>1</trackindex>
														<clipindex>34</clipindex>
													</link>
													<link>
														<linkclipref>Raw Interview Matthew Duepner494</linkclipref>
														<mediatype>audio</mediatype>
														<trackindex>1</trackindex>
														<clipindex>34</clipindex>
														<groupindex>1</groupindex>
													</link>
													<link>
														<linkclipref>Raw Interview Matthew Duepner495</linkclipref>
														<mediatype>audio</mediatype>
														<trackindex>2</trackindex>
														<clipindex>34</clipindex>
														<groupindex>1</groupindex>
													</link>
													<fielddominance>none</fielddominance>
													<itemhistory>
														<uuid>2D40EFCB-D9EB-4748-8112-1F9C4BC63211</uuid>
													</itemhistory>
												</clipitem>
												<clipitem id="Raw Interview Matthew Duepner496">
													<name>Raw Interview Matthew Duepner</name>
													<duration>81486</duration>
													<rate>
														<ntsc>TRUE</ntsc>
														<timebase>24</timebase>
													</rate>
													<in>25948</in>
													<out>26160</out>
													<start>6637</start>
													<end>6849</end>
													<pixelaspectratio>Square</pixelaspectratio>
													<anamorphic>FALSE</anamorphic>
													<alphatype>black</alphatype>
													<masterclipid>Raw Interview Matthew Duepner390</masterclipid>
													<logginginfo>
														<scene/>
														<shottake/>
														<lognote/>
														<good>FALSE</good>
													</logginginfo>
													<labels>
														<label2/>
													</labels>
													<comments>
														<mastercomment1/>
														<mastercomment2/>
														<mastercomment3/>
														<mastercomment4/>
													</comments>
													<file id="YIN_2013-05-28_LG-5 "/>
													<sourcetrack>
														<mediatype>video</mediatype>
													</sourcetrack>
													<link>
														<linkclipref>Raw Interview Matthew Duepner496</linkclipref>
														<mediatype>video</mediatype>
														<trackindex>1</trackindex>
														<clipindex>35</clipindex>
													</link>
													<link>
														<linkclipref>Raw Interview Matthew Duepner497</linkclipref>
														<mediatype>audio</mediatype>
														<trackindex>1</trackindex>
														<clipindex>35</clipindex>
														<groupindex>1</groupindex>
													</link>
													<link>
														<linkclipref>Raw Interview Matthew Duepner498</linkclipref>
														<mediatype>audio</mediatype>
														<trackindex>2</trackindex>
														<clipindex>35</clipindex>
														<groupindex>1</groupindex>
													</link>
													<fielddominance>none</fielddominance>
													<itemhistory>
														<uuid>BDCCB03D-710F-475D-B610-BE5B92AADA09</uuid>
													</itemhistory>
												</clipitem>
												<clipitem id="Raw Interview Matthew Duepner499">
													<name>Raw Interview Matthew Duepner</name>
													<duration>81486</duration>
													<rate>
														<ntsc>TRUE</ntsc>
														<timebase>24</timebase>
													</rate>
													<in>26630</in>
													<out>26790</out>
													<start>6849</start>
													<end>7009</end>
													<pixelaspectratio>Square</pixelaspectratio>
													<anamorphic>FALSE</anamorphic>
													<alphatype>black</alphatype>
													<masterclipid>Raw Interview Matthew Duepner390</masterclipid>
													<logginginfo>
														<scene/>
														<shottake/>
														<lognote/>
														<good>FALSE</good>
													</logginginfo>
													<labels>
														<label2/>
													</labels>
													<comments>
														<mastercomment1/>
														<mastercomment2/>
														<mastercomment3/>
														<mastercomment4/>
													</comments>
													<file id="YIN_2013-05-28_LG-5 "/>
													<sourcetrack>
														<mediatype>video</mediatype>
													</sourcetrack>
													<link>
														<linkclipref>Raw Interview Matthew Duepner499</linkclipref>
														<mediatype>video</mediatype>
														<trackindex>1</trackindex>
														<clipindex>36</clipindex>
													</link>
													<link>
														<linkclipref>Raw Interview Matthew Duepner500</linkclipref>
														<mediatype>audio</mediatype>
														<trackindex>1</trackindex>
														<clipindex>36</clipindex>
														<groupindex>1</groupindex>
													</link>
													<link>
														<linkclipref>Raw Interview Matthew Duepner501</linkclipref>
														<mediatype>audio</mediatype>
														<trackindex>2</trackindex>
														<clipindex>36</clipindex>
														<groupindex>1</groupindex>
													</link>
													<fielddominance>none</fielddominance>
													<itemhistory>
														<uuid>E0878E5E-E362-4B69-AE69-584439C01B5A</uuid>
													</itemhistory>
												</clipitem>
												<clipitem id="Raw Interview Matthew Duepner502">
													<name>Raw Interview Matthew Duepner</name>
													<duration>81486</duration>
													<rate>
														<ntsc>TRUE</ntsc>
														<timebase>24</timebase>
													</rate>
													<in>27080</in>
													<out>27302</out>
													<start>7009</start>
													<end>7231</end>
													<pixelaspectratio>Square</pixelaspectratio>
													<anamorphic>FALSE</anamorphic>
													<alphatype>black</alphatype>
													<masterclipid>Raw Interview Matthew Duepner390</masterclipid>
													<logginginfo>
														<scene/>
														<shottake/>
														<lognote/>
														<good>FALSE</good>
													</logginginfo>
													<labels>
														<label2/>
													</labels>
													<comments>
														<mastercomment1/>
														<mastercomment2/>
														<mastercomment3/>
														<mastercomment4/>
													</comments>
													<file id="YIN_2013-05-28_LG-5 "/>
													<sourcetrack>
														<mediatype>video</mediatype>
													</sourcetrack>
													<link>
														<linkclipref>Raw Interview Matthew Duepner502</linkclipref>
														<mediatype>video</mediatype>
														<trackindex>1</trackindex>
														<clipindex>37</clipindex>
													</link>
													<link>
														<linkclipref>Raw Interview Matthew Duepner503</linkclipref>
														<mediatype>audio</mediatype>
														<trackindex>1</trackindex>
														<clipindex>37</clipindex>
														<groupindex>1</groupindex>
													</link>
													<link>
														<linkclipref>Raw Interview Matthew Duepner504</linkclipref>
														<mediatype>audio</mediatype>
														<trackindex>2</trackindex>
														<clipindex>37</clipindex>
														<groupindex>1</groupindex>
													</link>
													<fielddominance>none</fielddominance>
													<itemhistory>
														<uuid>5EFD27FD-A672-469B-A9DD-85BB669BC3DD</uuid>
													</itemhistory>
												</clipitem>
												<clipitem id="Raw Interview Matthew Duepner505">
													<name>Raw Interview Matthew Duepner</name>
													<duration>81486</duration>
													<rate>
														<ntsc>TRUE</ntsc>
														<timebase>24</timebase>
													</rate>
													<in>28282</in>
													<out>28619</out>
													<start>7231</start>
													<end>7568</end>
													<pixelaspectratio>Square</pixelaspectratio>
													<anamorphic>FALSE</anamorphic>
													<alphatype>black</alphatype>
													<masterclipid>Raw Interview Matthew Duepner390</masterclipid>
													<logginginfo>
														<scene/>
														<shottake/>
														<lognote/>
														<good>FALSE</good>
													</logginginfo>
													<labels>
														<label2/>
													</labels>
													<comments>
														<mastercomment1/>
														<mastercomment2/>
														<mastercomment3/>
														<mastercomment4/>
													</comments>
													<file id="YIN_2013-05-28_LG-5 "/>
													<sourcetrack>
														<mediatype>video</mediatype>
													</sourcetrack>
													<link>
														<linkclipref>Raw Interview Matthew Duepner505</linkclipref>
														<mediatype>video</mediatype>
														<trackindex>1</trackindex>
														<clipindex>38</clipindex>
													</link>
													<link>
														<linkclipref>Raw Interview Matthew Duepner506</linkclipref>
														<mediatype>audio</mediatype>
														<trackindex>1</trackindex>
														<clipindex>38</clipindex>
														<groupindex>1</groupindex>
													</link>
													<link>
														<linkclipref>Raw Interview Matthew Duepner507</linkclipref>
														<mediatype>audio</mediatype>
														<trackindex>2</trackindex>
														<clipindex>38</clipindex>
														<groupindex>1</groupindex>
													</link>
													<fielddominance>none</fielddominance>
													<itemhistory>
														<uuid>725F4560-47BC-4F0B-92C1-3334E53DC287</uuid>
													</itemhistory>
												</clipitem>
												<clipitem id="Raw Interview Matthew Duepner508">
													<name>Raw Interview Matthew Duepner</name>
													<duration>81486</duration>
													<rate>
														<ntsc>TRUE</ntsc>
														<timebase>24</timebase>
													</rate>
													<in>38283</in>
													<out>38784</out>
													<start>7568</start>
													<end>8069</end>
													<pixelaspectratio>Square</pixelaspectratio>
													<anamorphic>FALSE</anamorphic>
													<alphatype>black</alphatype>
													<masterclipid>Raw Interview Matthew Duepner390</masterclipid>
													<logginginfo>
														<scene/>
														<shottake/>
														<lognote/>
														<good>FALSE</good>
													</logginginfo>
													<labels>
														<label2/>
													</labels>
													<comments>
														<mastercomment1/>
														<mastercomment2/>
														<mastercomment3/>
														<mastercomment4/>
													</comments>
													<file id="YIN_2013-05-28_LG-5 "/>
													<sourcetrack>
														<mediatype>video</mediatype>
													</sourcetrack>
													<link>
														<linkclipref>Raw Interview Matthew Duepner508</linkclipref>
														<mediatype>video</mediatype>
														<trackindex>1</trackindex>
														<clipindex>39</clipindex>
													</link>
													<link>
														<linkclipref>Raw Interview Matthew Duepner509</linkclipref>
														<mediatype>audio</mediatype>
														<trackindex>1</trackindex>
														<clipindex>39</clipindex>
														<groupindex>1</groupindex>
													</link>
													<link>
														<linkclipref>Raw Interview Matthew Duepner510</linkclipref>
														<mediatype>audio</mediatype>
														<trackindex>2</trackindex>
														<clipindex>39</clipindex>
														<groupindex>1</groupindex>
													</link>
													<fielddominance>none</fielddominance>
													<itemhistory>
														<uuid>42CAE1EA-55E4-4AFD-98C2-E7B0B596DDCA</uuid>
													</itemhistory>
												</clipitem>
												<clipitem id="Raw Interview Matthew Duepner511">
													<name>Raw Interview Matthew Duepner</name>
													<duration>81486</duration>
													<rate>
														<ntsc>TRUE</ntsc>
														<timebase>24</timebase>
													</rate>
													<in>43670</in>
													<out>43863</out>
													<start>8069</start>
													<end>8262</end>
													<pixelaspectratio>Square</pixelaspectratio>
													<anamorphic>FALSE</anamorphic>
													<alphatype>black</alphatype>
													<masterclipid>Raw Interview Matthew Duepner390</masterclipid>
													<logginginfo>
														<scene/>
														<shottake/>
														<lognote/>
														<good>FALSE</good>
													</logginginfo>
													<labels>
														<label2/>
													</labels>
													<comments>
														<mastercomment1/>
														<mastercomment2/>
														<mastercomment3/>
														<mastercomment4/>
													</comments>
													<file id="YIN_2013-05-28_LG-5 "/>
													<sourcetrack>
														<mediatype>video</mediatype>
													</sourcetrack>
													<link>
														<linkclipref>Raw Interview Matthew Duepner511</linkclipref>
														<mediatype>video</mediatype>
														<trackindex>1</trackindex>
														<clipindex>40</clipindex>
													</link>
													<link>
														<linkclipref>Raw Interview Matthew Duepner512</linkclipref>
														<mediatype>audio</mediatype>
														<trackindex>1</trackindex>
														<clipindex>40</clipindex>
														<groupindex>1</groupindex>
													</link>
													<link>
														<linkclipref>Raw Interview Matthew Duepner513</linkclipref>
														<mediatype>audio</mediatype>
														<trackindex>2</trackindex>
														<clipindex>40</clipindex>
														<groupindex>1</groupindex>
													</link>
													<fielddominance>none</fielddominance>
													<itemhistory>
														<uuid>8B10E7CA-8186-4DE0-B2C3-8DF6CB360896</uuid>
													</itemhistory>
												</clipitem>
												<clipitem id="Raw Interview Matthew Duepner514">
													<name>Raw Interview Matthew Duepner</name>
													<duration>81486</duration>
													<rate>
														<ntsc>TRUE</ntsc>
														<timebase>24</timebase>
													</rate>
													<in>50956</in>
													<out>51052</out>
													<start>8262</start>
													<end>8358</end>
													<pixelaspectratio>Square</pixelaspectratio>
													<anamorphic>FALSE</anamorphic>
													<alphatype>black</alphatype>
													<masterclipid>Raw Interview Matthew Duepner390</masterclipid>
													<logginginfo>
														<scene/>
														<shottake/>
														<lognote/>
														<good>FALSE</good>
													</logginginfo>
													<labels>
														<label2/>
													</labels>
													<comments>
														<mastercomment1/>
														<mastercomment2/>
														<mastercomment3/>
														<mastercomment4/>
													</comments>
													<file id="YIN_2013-05-28_LG-5 "/>
													<sourcetrack>
														<mediatype>video</mediatype>
													</sourcetrack>
													<link>
														<linkclipref>Raw Interview Matthew Duepner514</linkclipref>
														<mediatype>video</mediatype>
														<trackindex>1</trackindex>
														<clipindex>41</clipindex>
													</link>
													<link>
														<linkclipref>Raw Interview Matthew Duepner515</linkclipref>
														<mediatype>audio</mediatype>
														<trackindex>1</trackindex>
														<clipindex>41</clipindex>
														<groupindex>1</groupindex>
													</link>
													<link>
														<linkclipref>Raw Interview Matthew Duepner516</linkclipref>
														<mediatype>audio</mediatype>
														<trackindex>2</trackindex>
														<clipindex>41</clipindex>
														<groupindex>1</groupindex>
													</link>
													<fielddominance>none</fielddominance>
													<itemhistory>
														<uuid>121111D6-5618-4A0B-A94B-066533F1DC44</uuid>
													</itemhistory>
												</clipitem>
												<clipitem id="Raw Interview Matthew Duepner517">
													<name>Raw Interview Matthew Duepner</name>
													<duration>81486</duration>
													<rate>
														<ntsc>TRUE</ntsc>
														<timebase>24</timebase>
													</rate>
													<in>51376</in>
													<out>51520</out>
													<start>8358</start>
													<end>8502</end>
													<pixelaspectratio>Square</pixelaspectratio>
													<anamorphic>FALSE</anamorphic>
													<alphatype>black</alphatype>
													<masterclipid>Raw Interview Matthew Duepner390</masterclipid>
													<logginginfo>
														<scene/>
														<shottake/>
														<lognote/>
														<good>FALSE</good>
													</logginginfo>
													<labels>
														<label2/>
													</labels>
													<comments>
														<mastercomment1/>
														<mastercomment2/>
														<mastercomment3/>
														<mastercomment4/>
													</comments>
													<file id="YIN_2013-05-28_LG-5 "/>
													<sourcetrack>
														<mediatype>video</mediatype>
													</sourcetrack>
													<link>
														<linkclipref>Raw Interview Matthew Duepner517</linkclipref>
														<mediatype>video</mediatype>
														<trackindex>1</trackindex>
														<clipindex>42</clipindex>
													</link>
													<link>
														<linkclipref>Raw Interview Matthew Duepner518</linkclipref>
														<mediatype>audio</mediatype>
														<trackindex>1</trackindex>
														<clipindex>42</clipindex>
														<groupindex>1</groupindex>
													</link>
													<link>
														<linkclipref>Raw Interview Matthew Duepner519</linkclipref>
														<mediatype>audio</mediatype>
														<trackindex>2</trackindex>
														<clipindex>42</clipindex>
														<groupindex>1</groupindex>
													</link>
													<fielddominance>none</fielddominance>
													<itemhistory>
														<uuid>5DE63BCE-8BF2-427D-A5D6-710802518D6C</uuid>
													</itemhistory>
												</clipitem>
												<clipitem id="Raw Interview Matthew Duepner520">
													<name>Raw Interview Matthew Duepner</name>
													<duration>81486</duration>
													<rate>
														<ntsc>TRUE</ntsc>
														<timebase>24</timebase>
													</rate>
													<in>51892</in>
													<out>52054</out>
													<start>8502</start>
													<end>8664</end>
													<pixelaspectratio>Square</pixelaspectratio>
													<anamorphic>FALSE</anamorphic>
													<alphatype>black</alphatype>
													<masterclipid>Raw Interview Matthew Duepner390</masterclipid>
													<logginginfo>
														<scene/>
														<shottake/>
														<lognote/>
														<good>FALSE</good>
													</logginginfo>
													<labels>
														<label2/>
													</labels>
													<comments>
														<mastercomment1/>
														<mastercomment2/>
														<mastercomment3/>
														<mastercomment4/>
													</comments>
													<file id="YIN_2013-05-28_LG-5 "/>
													<sourcetrack>
														<mediatype>video</mediatype>
													</sourcetrack>
													<link>
														<linkclipref>Raw Interview Matthew Duepner520</linkclipref>
														<mediatype>video</mediatype>
														<trackindex>1</trackindex>
														<clipindex>43</clipindex>
													</link>
													<link>
														<linkclipref>Raw Interview Matthew Duepner521</linkclipref>
														<mediatype>audio</mediatype>
														<trackindex>1</trackindex>
														<clipindex>43</clipindex>
														<groupindex>1</groupindex>
													</link>
													<link>
														<linkclipref>Raw Interview Matthew Duepner522</linkclipref>
														<mediatype>audio</mediatype>
														<trackindex>2</trackindex>
														<clipindex>43</clipindex>
														<groupindex>1</groupindex>
													</link>
													<fielddominance>none</fielddominance>
													<itemhistory>
														<uuid>9BF70D0B-6D51-4EAE-B3E1-017336D44135</uuid>
													</itemhistory>
												</clipitem>
												<clipitem id="Raw Interview Matthew Duepner523">
													<name>Raw Interview Matthew Duepner</name>
													<duration>81486</duration>
													<rate>
														<ntsc>TRUE</ntsc>
														<timebase>24</timebase>
													</rate>
													<in>56083</in>
													<out>56203</out>
													<start>8664</start>
													<end>8784</end>
													<pixelaspectratio>Square</pixelaspectratio>
													<anamorphic>FALSE</anamorphic>
													<alphatype>black</alphatype>
													<masterclipid>Raw Interview Matthew Duepner390</masterclipid>
													<logginginfo>
														<scene/>
														<shottake/>
														<lognote/>
														<good>FALSE</good>
													</logginginfo>
													<labels>
														<label2/>
													</labels>
													<comments>
														<mastercomment1/>
														<mastercomment2/>
														<mastercomment3/>
														<mastercomment4/>
													</comments>
													<file id="YIN_2013-05-28_LG-5 "/>
													<sourcetrack>
														<mediatype>video</mediatype>
													</sourcetrack>
													<link>
														<linkclipref>Raw Interview Matthew Duepner523</linkclipref>
														<mediatype>video</mediatype>
														<trackindex>1</trackindex>
														<clipindex>44</clipindex>
													</link>
													<link>
														<linkclipref>Raw Interview Matthew Duepner524</linkclipref>
														<mediatype>audio</mediatype>
														<trackindex>1</trackindex>
														<clipindex>44</clipindex>
														<groupindex>1</groupindex>
													</link>
													<link>
														<linkclipref>Raw Interview Matthew Duepner525</linkclipref>
														<mediatype>audio</mediatype>
														<trackindex>2</trackindex>
														<clipindex>44</clipindex>
														<groupindex>1</groupindex>
													</link>
													<fielddominance>none</fielddominance>
													<itemhistory>
														<uuid>F156A781-DF49-476B-960B-CF225F8EFF34</uuid>
													</itemhistory>
												</clipitem>
												<clipitem id="Raw Interview Matthew Duepner526">
													<name>Raw Interview Matthew Duepner</name>
													<duration>81486</duration>
													<rate>
														<ntsc>TRUE</ntsc>
														<timebase>24</timebase>
													</rate>
													<in>56334</in>
													<out>56423</out>
													<start>8784</start>
													<end>8873</end>
													<pixelaspectratio>Square</pixelaspectratio>
													<anamorphic>FALSE</anamorphic>
													<alphatype>black</alphatype>
													<masterclipid>Raw Interview Matthew Duepner390</masterclipid>
													<logginginfo>
														<scene/>
														<shottake/>
														<lognote/>
														<good>FALSE</good>
													</logginginfo>
													<labels>
														<label2/>
													</labels>
													<comments>
														<mastercomment1/>
														<mastercomment2/>
														<mastercomment3/>
														<mastercomment4/>
													</comments>
													<file id="YIN_2013-05-28_LG-5 "/>
													<sourcetrack>
														<mediatype>video</mediatype>
													</sourcetrack>
													<link>
														<linkclipref>Raw Interview Matthew Duepner526</linkclipref>
														<mediatype>video</mediatype>
														<trackindex>1</trackindex>
														<clipindex>45</clipindex>
													</link>
													<link>
														<linkclipref>Raw Interview Matthew Duepner527</linkclipref>
														<mediatype>audio</mediatype>
														<trackindex>1</trackindex>
														<clipindex>45</clipindex>
														<groupindex>1</groupindex>
													</link>
													<link>
														<linkclipref>Raw Interview Matthew Duepner528</linkclipref>
														<mediatype>audio</mediatype>
														<trackindex>2</trackindex>
														<clipindex>45</clipindex>
														<groupindex>1</groupindex>
													</link>
													<fielddominance>none</fielddominance>
													<itemhistory>
														<uuid>9D0A86FD-C2C7-41AD-BE65-341707E7CA88</uuid>
													</itemhistory>
												</clipitem>
												<clipitem id="Raw Interview Matthew Duepner529">
													<name>Raw Interview Matthew Duepner</name>
													<duration>81486</duration>
													<rate>
														<ntsc>TRUE</ntsc>
														<timebase>24</timebase>
													</rate>
													<in>57619</in>
													<out>57904</out>
													<start>8873</start>
													<end>9158</end>
													<pixelaspectratio>Square</pixelaspectratio>
													<anamorphic>FALSE</anamorphic>
													<alphatype>black</alphatype>
													<masterclipid>Raw Interview Matthew Duepner390</masterclipid>
													<logginginfo>
														<scene/>
														<shottake/>
														<lognote/>
														<good>FALSE</good>
													</logginginfo>
													<labels>
														<label2/>
													</labels>
													<comments>
														<mastercomment1/>
														<mastercomment2/>
														<mastercomment3/>
														<mastercomment4/>
													</comments>
													<file id="YIN_2013-05-28_LG-5 "/>
													<sourcetrack>
														<mediatype>video</mediatype>
													</sourcetrack>
													<link>
														<linkclipref>Raw Interview Matthew Duepner529</linkclipref>
														<mediatype>video</mediatype>
														<trackindex>1</trackindex>
														<clipindex>46</clipindex>
													</link>
													<link>
														<linkclipref>Raw Interview Matthew Duepner530</linkclipref>
														<mediatype>audio</mediatype>
														<trackindex>1</trackindex>
														<clipindex>46</clipindex>
														<groupindex>1</groupindex>
													</link>
													<link>
														<linkclipref>Raw Interview Matthew Duepner531</linkclipref>
														<mediatype>audio</mediatype>
														<trackindex>2</trackindex>
														<clipindex>46</clipindex>
														<groupindex>1</groupindex>
													</link>
													<fielddominance>none</fielddominance>
													<itemhistory>
														<uuid>F6A1CA1C-34E3-4958-80ED-20AF89401BAF</uuid>
													</itemhistory>
												</clipitem>
												<clipitem id="Raw Interview Matthew Duepner532">
													<name>Raw Interview Matthew Duepner</name>
													<duration>81486</duration>
													<rate>
														<ntsc>TRUE</ntsc>
														<timebase>24</timebase>
													</rate>
													<in>68841</in>
													<out>69079</out>
													<start>9158</start>
													<end>9396</end>
													<pixelaspectratio>Square</pixelaspectratio>
													<anamorphic>FALSE</anamorphic>
													<alphatype>black</alphatype>
													<masterclipid>Raw Interview Matthew Duepner390</masterclipid>
													<logginginfo>
														<scene/>
														<shottake/>
														<lognote/>
														<good>FALSE</good>
													</logginginfo>
													<labels>
														<label2/>
													</labels>
													<comments>
														<mastercomment1/>
														<mastercomment2/>
														<mastercomment3/>
														<mastercomment4/>
													</comments>
													<file id="YIN_2013-05-28_LG-5 "/>
													<sourcetrack>
														<mediatype>video</mediatype>
													</sourcetrack>
													<link>
														<linkclipref>Raw Interview Matthew Duepner532</linkclipref>
														<mediatype>video</mediatype>
														<trackindex>1</trackindex>
														<clipindex>47</clipindex>
													</link>
													<link>
														<linkclipref>Raw Interview Matthew Duepner533</linkclipref>
														<mediatype>audio</mediatype>
														<trackindex>1</trackindex>
														<clipindex>47</clipindex>
														<groupindex>1</groupindex>
													</link>
													<link>
														<linkclipref>Raw Interview Matthew Duepner534</linkclipref>
														<mediatype>audio</mediatype>
														<trackindex>2</trackindex>
														<clipindex>47</clipindex>
														<groupindex>1</groupindex>
													</link>
													<fielddominance>none</fielddominance>
													<itemhistory>
														<uuid>78A3B445-6638-4A96-BC64-0B61C11F993D</uuid>
													</itemhistory>
												</clipitem>
												<clipitem id="Raw Interview Matthew Duepner535">
													<name>Raw Interview Matthew Duepner</name>
													<duration>81486</duration>
													<rate>
														<ntsc>TRUE</ntsc>
														<timebase>24</timebase>
													</rate>
													<in>69853</in>
													<out>69933</out>
													<start>9396</start>
													<end>9476</end>
													<pixelaspectratio>Square</pixelaspectratio>
													<anamorphic>FALSE</anamorphic>
													<alphatype>black</alphatype>
													<masterclipid>Raw Interview Matthew Duepner390</masterclipid>
													<logginginfo>
														<scene/>
														<shottake/>
														<lognote/>
														<good>FALSE</good>
													</logginginfo>
													<labels>
														<label2/>
													</labels>
													<comments>
														<mastercomment1/>
														<mastercomment2/>
														<mastercomment3/>
														<mastercomment4/>
													</comments>
													<file id="YIN_2013-05-28_LG-5 "/>
													<sourcetrack>
														<mediatype>video</mediatype>
													</sourcetrack>
													<link>
														<linkclipref>Raw Interview Matthew Duepner535</linkclipref>
														<mediatype>video</mediatype>
														<trackindex>1</trackindex>
														<clipindex>48</clipindex>
													</link>
													<link>
														<linkclipref>Raw Interview Matthew Duepner536</linkclipref>
														<mediatype>audio</mediatype>
														<trackindex>1</trackindex>
														<clipindex>48</clipindex>
														<groupindex>1</groupindex>
													</link>
													<link>
														<linkclipref>Raw Interview Matthew Duepner537</linkclipref>
														<mediatype>audio</mediatype>
														<trackindex>2</trackindex>
														<clipindex>48</clipindex>
														<groupindex>1</groupindex>
													</link>
													<fielddominance>none</fielddominance>
													<itemhistory>
														<uuid>04B5EF84-6DF0-4AF4-B25D-07391728D258</uuid>
													</itemhistory>
												</clipitem>
												<clipitem id="Raw Interview Matthew Duepner538">
													<name>Raw Interview Matthew Duepner</name>
													<duration>81486</duration>
													<rate>
														<ntsc>TRUE</ntsc>
														<timebase>24</timebase>
													</rate>
													<in>71462</in>
													<out>71987</out>
													<start>9476</start>
													<end>10001</end>
													<pixelaspectratio>Square</pixelaspectratio>
													<anamorphic>FALSE</anamorphic>
													<alphatype>black</alphatype>
													<masterclipid>Raw Interview Matthew Duepner390</masterclipid>
													<logginginfo>
														<scene/>
														<shottake/>
														<lognote/>
														<good>FALSE</good>
													</logginginfo>
													<labels>
														<label2/>
													</labels>
													<comments>
														<mastercomment1/>
														<mastercomment2/>
														<mastercomment3/>
														<mastercomment4/>
													</comments>
													<file id="YIN_2013-05-28_LG-5 "/>
													<sourcetrack>
														<mediatype>video</mediatype>
													</sourcetrack>
													<link>
														<linkclipref>Raw Interview Matthew Duepner538</linkclipref>
														<mediatype>video</mediatype>
														<trackindex>1</trackindex>
														<clipindex>49</clipindex>
													</link>
													<link>
														<linkclipref>Raw Interview Matthew Duepner539</linkclipref>
														<mediatype>audio</mediatype>
														<trackindex>1</trackindex>
														<clipindex>49</clipindex>
														<groupindex>1</groupindex>
													</link>
													<link>
														<linkclipref>Raw Interview Matthew Duepner540</linkclipref>
														<mediatype>audio</mediatype>
														<trackindex>2</trackindex>
														<clipindex>49</clipindex>
														<groupindex>1</groupindex>
													</link>
													<fielddominance>none</fielddominance>
													<itemhistory>
														<uuid>84BCA6CB-9840-4DB9-9FAB-CFB27188FAE4</uuid>
													</itemhistory>
												</clipitem>
												<clipitem id="Raw Interview Matthew Duepner541">
													<name>Raw Interview Matthew Duepner</name>
													<duration>81486</duration>
													<rate>
														<ntsc>TRUE</ntsc>
														<timebase>24</timebase>
													</rate>
													<in>72861</in>
													<out>73353</out>
													<start>10001</start>
													<end>10493</end>
													<pixelaspectratio>Square</pixelaspectratio>
													<anamorphic>FALSE</anamorphic>
													<alphatype>black</alphatype>
													<masterclipid>Raw Interview Matthew Duepner390</masterclipid>
													<logginginfo>
														<scene/>
														<shottake/>
														<lognote/>
														<good>FALSE</good>
													</logginginfo>
													<labels>
														<label2/>
													</labels>
													<comments>
														<mastercomment1/>
														<mastercomment2/>
														<mastercomment3/>
														<mastercomment4/>
													</comments>
													<file id="YIN_2013-05-28_LG-5 "/>
													<sourcetrack>
														<mediatype>video</mediatype>
													</sourcetrack>
													<link>
														<linkclipref>Raw Interview Matthew Duepner541</linkclipref>
														<mediatype>video</mediatype>
														<trackindex>1</trackindex>
														<clipindex>50</clipindex>
													</link>
													<link>
														<linkclipref>Raw Interview Matthew Duepner542</linkclipref>
														<mediatype>audio</mediatype>
														<trackindex>1</trackindex>
														<clipindex>50</clipindex>
														<groupindex>1</groupindex>
													</link>
													<link>
														<linkclipref>Raw Interview Matthew Duepner543</linkclipref>
														<mediatype>audio</mediatype>
														<trackindex>2</trackindex>
														<clipindex>50</clipindex>
														<groupindex>1</groupindex>
													</link>
													<fielddominance>none</fielddominance>
													<itemhistory>
														<uuid>FD943C94-35F5-4D45-88E0-80F4995F53F2</uuid>
													</itemhistory>
												</clipitem>
												<clipitem id="Raw Interview Matthew Duepner544">
													<name>Raw Interview Matthew Duepner</name>
													<duration>81486</duration>
													<rate>
														<ntsc>TRUE</ntsc>
														<timebase>24</timebase>
													</rate>
													<in>76085</in>
													<out>76339</out>
													<start>10493</start>
													<end>10747</end>
													<pixelaspectratio>Square</pixelaspectratio>
													<anamorphic>FALSE</anamorphic>
													<alphatype>black</alphatype>
													<masterclipid>Raw Interview Matthew Duepner390</masterclipid>
													<logginginfo>
														<scene/>
														<shottake/>
														<lognote/>
														<good>FALSE</good>
													</logginginfo>
													<labels>
														<label2/>
													</labels>
													<comments>
														<mastercomment1/>
														<mastercomment2/>
														<mastercomment3/>
														<mastercomment4/>
													</comments>
													<file id="YIN_2013-05-28_LG-5 "/>
													<sourcetrack>
														<mediatype>video</mediatype>
													</sourcetrack>
													<link>
														<linkclipref>Raw Interview Matthew Duepner544</linkclipref>
														<mediatype>video</mediatype>
														<trackindex>1</trackindex>
														<clipindex>51</clipindex>
													</link>
													<link>
														<linkclipref>Raw Interview Matthew Duepner545</linkclipref>
														<mediatype>audio</mediatype>
														<trackindex>1</trackindex>
														<clipindex>51</clipindex>
														<groupindex>1</groupindex>
													</link>
													<link>
														<linkclipref>Raw Interview Matthew Duepner546</linkclipref>
														<mediatype>audio</mediatype>
														<trackindex>2</trackindex>
														<clipindex>51</clipindex>
														<groupindex>1</groupindex>
													</link>
													<fielddominance>none</fielddominance>
													<itemhistory>
														<uuid>1C8292AE-F589-444C-98BA-A8C906CDC6CD</uuid>
													</itemhistory>
												</clipitem>
												<clipitem id="Raw Interview Matthew Duepner547">
													<name>Raw Interview Matthew Duepner</name>
													<duration>81486</duration>
													<rate>
														<ntsc>TRUE</ntsc>
														<timebase>24</timebase>
													</rate>
													<in>79338</in>
													<out>79734</out>
													<start>10747</start>
													<end>11143</end>
													<pixelaspectratio>Square</pixelaspectratio>
													<anamorphic>FALSE</anamorphic>
													<alphatype>black</alphatype>
													<masterclipid>Raw Interview Matthew Duepner390</masterclipid>
													<logginginfo>
														<scene/>
														<shottake/>
														<lognote/>
														<good>FALSE</good>
													</logginginfo>
													<labels>
														<label2/>
													</labels>
													<comments>
														<mastercomment1/>
														<mastercomment2/>
														<mastercomment3/>
														<mastercomment4/>
													</comments>
													<file id="YIN_2013-05-28_LG-5 "/>
													<sourcetrack>
														<mediatype>video</mediatype>
													</sourcetrack>
													<link>
														<linkclipref>Raw Interview Matthew Duepner547</linkclipref>
														<mediatype>video</mediatype>
														<trackindex>1</trackindex>
														<clipindex>52</clipindex>
													</link>
													<link>
														<linkclipref>Raw Interview Matthew Duepner548</linkclipref>
														<mediatype>audio</mediatype>
														<trackindex>1</trackindex>
														<clipindex>52</clipindex>
														<groupindex>1</groupindex>
													</link>
													<link>
														<linkclipref>Raw Interview Matthew Duepner549</linkclipref>
														<mediatype>audio</mediatype>
														<trackindex>2</trackindex>
														<clipindex>52</clipindex>
														<groupindex>1</groupindex>
													</link>
													<fielddominance>none</fielddominance>
													<itemhistory>
														<uuid>E03D2EC6-758C-403C-AA3D-355A4DDD3A39</uuid>
													</itemhistory>
												</clipitem>
												<clipitem id="Raw Interview Matthew Duepner550">
													<name>Raw Interview Matthew Duepner</name>
													<duration>81486</duration>
													<rate>
														<ntsc>TRUE</ntsc>
														<timebase>24</timebase>
													</rate>
													<in>79941</in>
													<out>80276</out>
													<start>11143</start>
													<end>11478</end>
													<pixelaspectratio>Square</pixelaspectratio>
													<anamorphic>FALSE</anamorphic>
													<alphatype>black</alphatype>
													<masterclipid>Raw Interview Matthew Duepner390</masterclipid>
													<logginginfo>
														<scene/>
														<shottake/>
														<lognote/>
														<good>FALSE</good>
													</logginginfo>
													<labels>
														<label2/>
													</labels>
													<comments>
														<mastercomment1/>
														<mastercomment2/>
														<mastercomment3/>
														<mastercomment4/>
													</comments>
													<file id="YIN_2013-05-28_LG-5 "/>
													<sourcetrack>
														<mediatype>video</mediatype>
													</sourcetrack>
													<link>
														<linkclipref>Raw Interview Matthew Duepner550</linkclipref>
														<mediatype>video</mediatype>
														<trackindex>1</trackindex>
														<clipindex>53</clipindex>
													</link>
													<link>
														<linkclipref>Raw Interview Matthew Duepner551</linkclipref>
														<mediatype>audio</mediatype>
														<trackindex>1</trackindex>
														<clipindex>53</clipindex>
														<groupindex>1</groupindex>
													</link>
													<link>
														<linkclipref>Raw Interview Matthew Duepner552</linkclipref>
														<mediatype>audio</mediatype>
														<trackindex>2</trackindex>
														<clipindex>53</clipindex>
														<groupindex>1</groupindex>
													</link>
													<fielddominance>none</fielddominance>
													<itemhistory>
														<uuid>F9D54DEE-4C4A-4CC6-8079-4C0946D944D4</uuid>
													</itemhistory>
												</clipitem>
												<clipitem id="Raw Interview Matthew Duepner553">
													<name>Raw Interview Matthew Duepner</name>
													<duration>81486</duration>
													<rate>
														<ntsc>TRUE</ntsc>
														<timebase>24</timebase>
													</rate>
													<in>81210</in>
													<out>81278</out>
													<start>11478</start>
													<end>11546</end>
													<pixelaspectratio>Square</pixelaspectratio>
													<anamorphic>FALSE</anamorphic>
													<alphatype>black</alphatype>
													<masterclipid>Raw Interview Matthew Duepner390</masterclipid>
													<logginginfo>
														<scene/>
														<shottake/>
														<lognote/>
														<good>FALSE</good>
													</logginginfo>
													<labels>
														<label2/>
													</labels>
													<comments>
														<mastercomment1/>
														<mastercomment2/>
														<mastercomment3/>
														<mastercomment4/>
													</comments>
													<file id="YIN_2013-05-28_LG-5 "/>
													<sourcetrack>
														<mediatype>video</mediatype>
													</sourcetrack>
													<link>
														<linkclipref>Raw Interview Matthew Duepner553</linkclipref>
														<mediatype>video</mediatype>
														<trackindex>1</trackindex>
														<clipindex>54</clipindex>
													</link>
													<link>
														<linkclipref>Raw Interview Matthew Duepner554</linkclipref>
														<mediatype>audio</mediatype>
														<trackindex>1</trackindex>
														<clipindex>54</clipindex>
														<groupindex>1</groupindex>
													</link>
													<link>
														<linkclipref>Raw Interview Matthew Duepner555</linkclipref>
														<mediatype>audio</mediatype>
														<trackindex>2</trackindex>
														<clipindex>54</clipindex>
														<groupindex>1</groupindex>
													</link>
													<fielddominance>none</fielddominance>
													<itemhistory>
														<uuid>FAAD2E8D-24AB-4D67-92EE-8F747BD9109D</uuid>
													</itemhistory>
												</clipitem>
												<enabled>TRUE</enabled>
												<locked>FALSE</locked>
											</track>
											<track>
												<enabled>TRUE</enabled>
												<locked>FALSE</locked>
											</track>
											<track>
												<enabled>TRUE</enabled>
												<locked>FALSE</locked>
											</track>
										</video>
										<audio>
											<format>
												<samplecharacteristics>
													<depth>16</depth>
													<samplerate>48000</samplerate>
												</samplecharacteristics>
											</format>
											<outputs>
												<group>
													<index>1</index>
													<numchannels>1</numchannels>
													<downmix>0</downmix>
													<channel>
														<index>1</index>
													</channel>
												</group>
												<group>
													<index>2</index>
													<numchannels>1</numchannels>
													<downmix>0</downmix>
													<channel>
														<index>2</index>
													</channel>
												</group>
											</outputs>
											<in>-1</in>
											<out>-1</out>
											<track>
												<clipitem id="Raw Interview Matthew Duepner395">
													<name>Raw Interview Matthew Duepner</name>
													<duration>81486</duration>
													<rate>
														<ntsc>TRUE</ntsc>
														<timebase>24</timebase>
													</rate>
													<in>242</in>
													<out>687</out>
													<start>0</start>
													<end>445</end>
													<masterclipid>Raw Interview Matthew Duepner390</masterclipid>
													<logginginfo>
														<scene/>
														<shottake/>
														<lognote/>
														<good>FALSE</good>
													</logginginfo>
													<labels>
														<label2/>
													</labels>
													<comments>
														<mastercomment1/>
														<mastercomment2/>
														<mastercomment3/>
														<mastercomment4/>
													</comments>
													<file id="YIN_2013-05-28_LG-5 "/>
													<filter>
														<effect>
															<name>Audio Levels</name>
															<effectid>audiolevels</effectid>
															<effectcategory>audiolevels</effectcategory>
															<effecttype>audiolevels</effecttype>
															<mediatype>audio</mediatype>
															<parameter>
																<name>Level</name>
																<parameterid>level</parameterid>
																<valuemin>0</valuemin>
																<valuemax>3.98109</valuemax>
																<value>1</value>
															</parameter>
														</effect>
													</filter>
													<filter>
														<effect>
															<name>Audio Pan</name>
															<effectid>audiopan</effectid>
															<effectcategory>audiopan</effectcategory>
															<effecttype>audiopan</effecttype>
															<mediatype>audio</mediatype>
															<parameter>
																<name>Pan</name>
																<parameterid>pan</parameterid>
																<valuemin>-1</valuemin>
																<valuemax>1</valuemax>
																<value>0</value>
															</parameter>
														</effect>
													</filter>
													<sourcetrack>
														<mediatype>audio</mediatype>
														<trackindex>1</trackindex>
													</sourcetrack>
													<link>
														<linkclipref>Raw Interview Matthew Duepner394</linkclipref>
														<mediatype>video</mediatype>
														<trackindex>1</trackindex>
														<clipindex>1</clipindex>
													</link>
													<link>
														<linkclipref>Raw Interview Matthew Duepner395</linkclipref>
														<mediatype>audio</mediatype>
														<trackindex>1</trackindex>
														<clipindex>1</clipindex>
														<groupindex>1</groupindex>
													</link>
													<link>
														<linkclipref>Raw Interview Matthew Duepner396</linkclipref>
														<mediatype>audio</mediatype>
														<trackindex>2</trackindex>
														<clipindex>1</clipindex>
														<groupindex>1</groupindex>
													</link>
													<itemhistory>
														<uuid>C25144BD-4882-40AB-8C06-13C116C6778C</uuid>
													</itemhistory>
												</clipitem>
												<clipitem id="Raw Interview Matthew Duepner398">
													<name>Raw Interview Matthew Duepner</name>
													<duration>81486</duration>
													<rate>
														<ntsc>TRUE</ntsc>
														<timebase>24</timebase>
													</rate>
													<in>1221</in>
													<out>1514</out>
													<start>445</start>
													<end>738</end>
													<masterclipid>Raw Interview Matthew Duepner390</masterclipid>
													<logginginfo>
														<scene/>
														<shottake/>
														<lognote/>
														<good>FALSE</good>
													</logginginfo>
													<labels>
														<label2/>
													</labels>
													<comments>
														<mastercomment1/>
														<mastercomment2/>
														<mastercomment3/>
														<mastercomment4/>
													</comments>
													<file id="YIN_2013-05-28_LG-5 "/>
													<filter>
														<effect>
															<name>Audio Levels</name>
															<effectid>audiolevels</effectid>
															<effectcategory>audiolevels</effectcategory>
															<effecttype>audiolevels</effecttype>
															<mediatype>audio</mediatype>
															<parameter>
																<name>Level</name>
																<parameterid>level</parameterid>
																<valuemin>0</valuemin>
																<valuemax>3.98109</valuemax>
																<value>1</value>
															</parameter>
														</effect>
													</filter>
													<filter>
														<effect>
															<name>Audio Pan</name>
															<effectid>audiopan</effectid>
															<effectcategory>audiopan</effectcategory>
															<effecttype>audiopan</effecttype>
															<mediatype>audio</mediatype>
															<parameter>
																<name>Pan</name>
																<parameterid>pan</parameterid>
																<valuemin>-1</valuemin>
																<valuemax>1</valuemax>
																<value>0</value>
															</parameter>
														</effect>
													</filter>
													<sourcetrack>
														<mediatype>audio</mediatype>
														<trackindex>1</trackindex>
													</sourcetrack>
													<link>
														<linkclipref>Raw Interview Matthew Duepner397</linkclipref>
														<mediatype>video</mediatype>
														<trackindex>1</trackindex>
														<clipindex>2</clipindex>
													</link>
													<link>
														<linkclipref>Raw Interview Matthew Duepner398</linkclipref>
														<mediatype>audio</mediatype>
														<trackindex>1</trackindex>
														<clipindex>2</clipindex>
														<groupindex>1</groupindex>
													</link>
													<link>
														<linkclipref>Raw Interview Matthew Duepner399</linkclipref>
														<mediatype>audio</mediatype>
														<trackindex>2</trackindex>
														<clipindex>2</clipindex>
														<groupindex>1</groupindex>
													</link>
													<itemhistory>
														<uuid>519FBE44-DEF6-4991-90DE-5341618F229A</uuid>
													</itemhistory>
												</clipitem>
												<clipitem id="Raw Interview Matthew Duepner401">
													<name>Raw Interview Matthew Duepner</name>
													<duration>81486</duration>
													<rate>
														<ntsc>TRUE</ntsc>
														<timebase>24</timebase>
													</rate>
													<in>1656</in>
													<out>1742</out>
													<start>738</start>
													<end>824</end>
													<masterclipid>Raw Interview Matthew Duepner390</masterclipid>
													<logginginfo>
														<scene/>
														<shottake/>
														<lognote/>
														<good>FALSE</good>
													</logginginfo>
													<labels>
														<label2/>
													</labels>
													<comments>
														<mastercomment1/>
														<mastercomment2/>
														<mastercomment3/>
														<mastercomment4/>
													</comments>
													<file id="YIN_2013-05-28_LG-5 "/>
													<filter>
														<effect>
															<name>Audio Levels</name>
															<effectid>audiolevels</effectid>
															<effectcategory>audiolevels</effectcategory>
															<effecttype>audiolevels</effecttype>
															<mediatype>audio</mediatype>
															<parameter>
																<name>Level</name>
																<parameterid>level</parameterid>
																<valuemin>0</valuemin>
																<valuemax>3.98109</valuemax>
																<value>1</value>
															</parameter>
														</effect>
													</filter>
													<filter>
														<effect>
															<name>Audio Pan</name>
															<effectid>audiopan</effectid>
															<effectcategory>audiopan</effectcategory>
															<effecttype>audiopan</effecttype>
															<mediatype>audio</mediatype>
															<parameter>
																<name>Pan</name>
																<parameterid>pan</parameterid>
																<valuemin>-1</valuemin>
																<valuemax>1</valuemax>
																<value>0</value>
															</parameter>
														</effect>
													</filter>
													<sourcetrack>
														<mediatype>audio</mediatype>
														<trackindex>1</trackindex>
													</sourcetrack>
													<link>
														<linkclipref>Raw Interview Matthew Duepner400</linkclipref>
														<mediatype>video</mediatype>
														<trackindex>1</trackindex>
														<clipindex>3</clipindex>
													</link>
													<link>
														<linkclipref>Raw Interview Matthew Duepner401</linkclipref>
														<mediatype>audio</mediatype>
														<trackindex>1</trackindex>
														<clipindex>3</clipindex>
														<groupindex>1</groupindex>
													</link>
													<link>
														<linkclipref>Raw Interview Matthew Duepner402</linkclipref>
														<mediatype>audio</mediatype>
														<trackindex>2</trackindex>
														<clipindex>3</clipindex>
														<groupindex>1</groupindex>
													</link>
													<itemhistory>
														<uuid>EA939B80-40D5-449E-9035-01E0B65462D0</uuid>
													</itemhistory>
												</clipitem>
												<clipitem id="Raw Interview Matthew Duepner404">
													<name>Raw Interview Matthew Duepner</name>
													<duration>81486</duration>
													<rate>
														<ntsc>TRUE</ntsc>
														<timebase>24</timebase>
													</rate>
													<in>2087</in>
													<out>2229</out>
													<start>824</start>
													<end>966</end>
													<masterclipid>Raw Interview Matthew Duepner390</masterclipid>
													<logginginfo>
														<scene/>
														<shottake/>
														<lognote/>
														<good>FALSE</good>
													</logginginfo>
													<labels>
														<label2/>
													</labels>
													<comments>
														<mastercomment1/>
														<mastercomment2/>
														<mastercomment3/>
														<mastercomment4/>
													</comments>
													<file id="YIN_2013-05-28_LG-5 "/>
													<filter>
														<effect>
															<name>Audio Levels</name>
															<effectid>audiolevels</effectid>
															<effectcategory>audiolevels</effectcategory>
															<effecttype>audiolevels</effecttype>
															<mediatype>audio</mediatype>
															<parameter>
																<name>Level</name>
																<parameterid>level</parameterid>
																<valuemin>0</valuemin>
																<valuemax>3.98109</valuemax>
																<value>1</value>
															</parameter>
														</effect>
													</filter>
													<filter>
														<effect>
															<name>Audio Pan</name>
															<effectid>audiopan</effectid>
															<effectcategory>audiopan</effectcategory>
															<effecttype>audiopan</effecttype>
															<mediatype>audio</mediatype>
															<parameter>
																<name>Pan</name>
																<parameterid>pan</parameterid>
																<valuemin>-1</valuemin>
																<valuemax>1</valuemax>
																<value>0</value>
															</parameter>
														</effect>
													</filter>
													<sourcetrack>
														<mediatype>audio</mediatype>
														<trackindex>1</trackindex>
													</sourcetrack>
													<link>
														<linkclipref>Raw Interview Matthew Duepner403</linkclipref>
														<mediatype>video</mediatype>
														<trackindex>1</trackindex>
														<clipindex>4</clipindex>
													</link>
													<link>
														<linkclipref>Raw Interview Matthew Duepner404</linkclipref>
														<mediatype>audio</mediatype>
														<trackindex>1</trackindex>
														<clipindex>4</clipindex>
														<groupindex>1</groupindex>
													</link>
													<link>
														<linkclipref>Raw Interview Matthew Duepner405</linkclipref>
														<mediatype>audio</mediatype>
														<trackindex>2</trackindex>
														<clipindex>4</clipindex>
														<groupindex>1</groupindex>
													</link>
													<itemhistory>
														<uuid>4050FCBB-4285-453D-A9AC-BDEBC3F004DC</uuid>
													</itemhistory>
												</clipitem>
												<clipitem id="Raw Interview Matthew Duepner407">
													<name>Raw Interview Matthew Duepner</name>
													<duration>81486</duration>
													<rate>
														<ntsc>TRUE</ntsc>
														<timebase>24</timebase>
													</rate>
													<in>2994</in>
													<out>3183</out>
													<start>966</start>
													<end>1155</end>
													<masterclipid>Raw Interview Matthew Duepner390</masterclipid>
													<logginginfo>
														<scene/>
														<shottake/>
														<lognote/>
														<good>FALSE</good>
													</logginginfo>
													<labels>
														<label2/>
													</labels>
													<comments>
														<mastercomment1/>
														<mastercomment2/>
														<mastercomment3/>
														<mastercomment4/>
													</comments>
													<file id="YIN_2013-05-28_LG-5 "/>
													<filter>
														<effect>
															<name>Audio Levels</name>
															<effectid>audiolevels</effectid>
															<effectcategory>audiolevels</effectcategory>
															<effecttype>audiolevels</effecttype>
															<mediatype>audio</mediatype>
															<parameter>
																<name>Level</name>
																<parameterid>level</parameterid>
																<valuemin>0</valuemin>
																<valuemax>3.98109</valuemax>
																<value>1</value>
															</parameter>
														</effect>
													</filter>
													<filter>
														<effect>
															<name>Audio Pan</name>
															<effectid>audiopan</effectid>
															<effectcategory>audiopan</effectcategory>
															<effecttype>audiopan</effecttype>
															<mediatype>audio</mediatype>
															<parameter>
																<name>Pan</name>
																<parameterid>pan</parameterid>
																<valuemin>-1</valuemin>
																<valuemax>1</valuemax>
																<value>0</value>
															</parameter>
														</effect>
													</filter>
													<sourcetrack>
														<mediatype>audio</mediatype>
														<trackindex>1</trackindex>
													</sourcetrack>
													<link>
														<linkclipref>Raw Interview Matthew Duepner406</linkclipref>
														<mediatype>video</mediatype>
														<trackindex>1</trackindex>
														<clipindex>5</clipindex>
													</link>
													<link>
														<linkclipref>Raw Interview Matthew Duepner407</linkclipref>
														<mediatype>audio</mediatype>
														<trackindex>1</trackindex>
														<clipindex>5</clipindex>
														<groupindex>1</groupindex>
													</link>
													<link>
														<linkclipref>Raw Interview Matthew Duepner408</linkclipref>
														<mediatype>audio</mediatype>
														<trackindex>2</trackindex>
														<clipindex>5</clipindex>
														<groupindex>1</groupindex>
													</link>
													<itemhistory>
														<uuid>E1269DCA-F176-403A-8539-CE6F382B8739</uuid>
													</itemhistory>
												</clipitem>
												<clipitem id="Raw Interview Matthew Duepner410">
													<name>Raw Interview Matthew Duepner</name>
													<duration>81486</duration>
													<rate>
														<ntsc>TRUE</ntsc>
														<timebase>24</timebase>
													</rate>
													<in>3411</in>
													<out>3636</out>
													<start>1155</start>
													<end>1380</end>
													<masterclipid>Raw Interview Matthew Duepner390</masterclipid>
													<logginginfo>
														<scene/>
														<shottake/>
														<lognote/>
														<good>FALSE</good>
													</logginginfo>
													<labels>
														<label2/>
													</labels>
													<comments>
														<mastercomment1/>
														<mastercomment2/>
														<mastercomment3/>
														<mastercomment4/>
													</comments>
													<file id="YIN_2013-05-28_LG-5 "/>
													<filter>
														<effect>
															<name>Audio Levels</name>
															<effectid>audiolevels</effectid>
															<effectcategory>audiolevels</effectcategory>
															<effecttype>audiolevels</effecttype>
															<mediatype>audio</mediatype>
															<parameter>
																<name>Level</name>
																<parameterid>level</parameterid>
																<valuemin>0</valuemin>
																<valuemax>3.98109</valuemax>
																<value>1</value>
															</parameter>
														</effect>
													</filter>
													<filter>
														<effect>
															<name>Audio Pan</name>
															<effectid>audiopan</effectid>
															<effectcategory>audiopan</effectcategory>
															<effecttype>audiopan</effecttype>
															<mediatype>audio</mediatype>
															<parameter>
																<name>Pan</name>
																<parameterid>pan</parameterid>
																<valuemin>-1</valuemin>
																<valuemax>1</valuemax>
																<value>0</value>
															</parameter>
														</effect>
													</filter>
													<sourcetrack>
														<mediatype>audio</mediatype>
														<trackindex>1</trackindex>
													</sourcetrack>
													<link>
														<linkclipref>Raw Interview Matthew Duepner409</linkclipref>
														<mediatype>video</mediatype>
														<trackindex>1</trackindex>
														<clipindex>6</clipindex>
													</link>
													<link>
														<linkclipref>Raw Interview Matthew Duepner410</linkclipref>
														<mediatype>audio</mediatype>
														<trackindex>1</trackindex>
														<clipindex>6</clipindex>
														<groupindex>1</groupindex>
													</link>
													<link>
														<linkclipref>Raw Interview Matthew Duepner411</linkclipref>
														<mediatype>audio</mediatype>
														<trackindex>2</trackindex>
														<clipindex>6</clipindex>
														<groupindex>1</groupindex>
													</link>
													<itemhistory>
														<uuid>18242B90-0F9B-4D89-9FB1-FA66E385D829</uuid>
													</itemhistory>
												</clipitem>
												<clipitem id="Raw Interview Matthew Duepner413">
													<name>Raw Interview Matthew Duepner</name>
													<duration>81486</duration>
													<rate>
														<ntsc>TRUE</ntsc>
														<timebase>24</timebase>
													</rate>
													<in>3945</in>
													<out>3987</out>
													<start>1380</start>
													<end>1422</end>
													<masterclipid>Raw Interview Matthew Duepner390</masterclipid>
													<logginginfo>
														<scene/>
														<shottake/>
														<lognote/>
														<good>FALSE</good>
													</logginginfo>
													<labels>
														<label2/>
													</labels>
													<comments>
														<mastercomment1/>
														<mastercomment2/>
														<mastercomment3/>
														<mastercomment4/>
													</comments>
													<file id="YIN_2013-05-28_LG-5 "/>
													<filter>
														<effect>
															<name>Audio Levels</name>
															<effectid>audiolevels</effectid>
															<effectcategory>audiolevels</effectcategory>
															<effecttype>audiolevels</effecttype>
															<mediatype>audio</mediatype>
															<parameter>
																<name>Level</name>
																<parameterid>level</parameterid>
																<valuemin>0</valuemin>
																<valuemax>3.98109</valuemax>
																<value>1</value>
															</parameter>
														</effect>
													</filter>
													<filter>
														<effect>
															<name>Audio Pan</name>
															<effectid>audiopan</effectid>
															<effectcategory>audiopan</effectcategory>
															<effecttype>audiopan</effecttype>
															<mediatype>audio</mediatype>
															<parameter>
																<name>Pan</name>
																<parameterid>pan</parameterid>
																<valuemin>-1</valuemin>
																<valuemax>1</valuemax>
																<value>0</value>
															</parameter>
														</effect>
													</filter>
													<sourcetrack>
														<mediatype>audio</mediatype>
														<trackindex>1</trackindex>
													</sourcetrack>
													<link>
														<linkclipref>Raw Interview Matthew Duepner412</linkclipref>
														<mediatype>video</mediatype>
														<trackindex>1</trackindex>
														<clipindex>7</clipindex>
													</link>
													<link>
														<linkclipref>Raw Interview Matthew Duepner413</linkclipref>
														<mediatype>audio</mediatype>
														<trackindex>1</trackindex>
														<clipindex>7</clipindex>
														<groupindex>1</groupindex>
													</link>
													<link>
														<linkclipref>Raw Interview Matthew Duepner414</linkclipref>
														<mediatype>audio</mediatype>
														<trackindex>2</trackindex>
														<clipindex>7</clipindex>
														<groupindex>1</groupindex>
													</link>
													<itemhistory>
														<uuid>71302F72-A784-41E0-8F41-CF78EA981BE3</uuid>
													</itemhistory>
												</clipitem>
												<clipitem id="Raw Interview Matthew Duepner416">
													<name>Raw Interview Matthew Duepner</name>
													<duration>81486</duration>
													<rate>
														<ntsc>TRUE</ntsc>
														<timebase>24</timebase>
													</rate>
													<in>5143</in>
													<out>5320</out>
													<start>1422</start>
													<end>1599</end>
													<masterclipid>Raw Interview Matthew Duepner390</masterclipid>
													<logginginfo>
														<scene/>
														<shottake/>
														<lognote/>
														<good>FALSE</good>
													</logginginfo>
													<labels>
														<label2/>
													</labels>
													<comments>
														<mastercomment1/>
														<mastercomment2/>
														<mastercomment3/>
														<mastercomment4/>
													</comments>
													<file id="YIN_2013-05-28_LG-5 "/>
													<filter>
														<effect>
															<name>Audio Levels</name>
															<effectid>audiolevels</effectid>
															<effectcategory>audiolevels</effectcategory>
															<effecttype>audiolevels</effecttype>
															<mediatype>audio</mediatype>
															<parameter>
																<name>Level</name>
																<parameterid>level</parameterid>
																<valuemin>0</valuemin>
																<valuemax>3.98109</valuemax>
																<value>1</value>
															</parameter>
														</effect>
													</filter>
													<filter>
														<effect>
															<name>Audio Pan</name>
															<effectid>audiopan</effectid>
															<effectcategory>audiopan</effectcategory>
															<effecttype>audiopan</effecttype>
															<mediatype>audio</mediatype>
															<parameter>
																<name>Pan</name>
																<parameterid>pan</parameterid>
																<valuemin>-1</valuemin>
																<valuemax>1</valuemax>
																<value>0</value>
															</parameter>
														</effect>
													</filter>
													<sourcetrack>
														<mediatype>audio</mediatype>
														<trackindex>1</trackindex>
													</sourcetrack>
													<link>
														<linkclipref>Raw Interview Matthew Duepner415</linkclipref>
														<mediatype>video</mediatype>
														<trackindex>1</trackindex>
														<clipindex>8</clipindex>
													</link>
													<link>
														<linkclipref>Raw Interview Matthew Duepner416</linkclipref>
														<mediatype>audio</mediatype>
														<trackindex>1</trackindex>
														<clipindex>8</clipindex>
														<groupindex>1</groupindex>
													</link>
													<link>
														<linkclipref>Raw Interview Matthew Duepner417</linkclipref>
														<mediatype>audio</mediatype>
														<trackindex>2</trackindex>
														<clipindex>8</clipindex>
														<groupindex>1</groupindex>
													</link>
													<itemhistory>
														<uuid>4CED3B09-A029-4511-BC5E-4F5787D5D94F</uuid>
													</itemhistory>
												</clipitem>
												<clipitem id="Raw Interview Matthew Duepner419">
													<name>Raw Interview Matthew Duepner</name>
													<duration>81486</duration>
													<rate>
														<ntsc>TRUE</ntsc>
														<timebase>24</timebase>
													</rate>
													<in>5486</in>
													<out>5591</out>
													<start>1599</start>
													<end>1704</end>
													<masterclipid>Raw Interview Matthew Duepner390</masterclipid>
													<logginginfo>
														<scene/>
														<shottake/>
														<lognote/>
														<good>FALSE</good>
													</logginginfo>
													<labels>
														<label2/>
													</labels>
													<comments>
														<mastercomment1/>
														<mastercomment2/>
														<mastercomment3/>
														<mastercomment4/>
													</comments>
													<file id="YIN_2013-05-28_LG-5 "/>
													<filter>
														<effect>
															<name>Audio Levels</name>
															<effectid>audiolevels</effectid>
															<effectcategory>audiolevels</effectcategory>
															<effecttype>audiolevels</effecttype>
															<mediatype>audio</mediatype>
															<parameter>
																<name>Level</name>
																<parameterid>level</parameterid>
																<valuemin>0</valuemin>
																<valuemax>3.98109</valuemax>
																<value>1</value>
															</parameter>
														</effect>
													</filter>
													<filter>
														<effect>
															<name>Audio Pan</name>
															<effectid>audiopan</effectid>
															<effectcategory>audiopan</effectcategory>
															<effecttype>audiopan</effecttype>
															<mediatype>audio</mediatype>
															<parameter>
																<name>Pan</name>
																<parameterid>pan</parameterid>
																<valuemin>-1</valuemin>
																<valuemax>1</valuemax>
																<value>0</value>
															</parameter>
														</effect>
													</filter>
													<sourcetrack>
														<mediatype>audio</mediatype>
														<trackindex>1</trackindex>
													</sourcetrack>
													<link>
														<linkclipref>Raw Interview Matthew Duepner418</linkclipref>
														<mediatype>video</mediatype>
														<trackindex>1</trackindex>
														<clipindex>9</clipindex>
													</link>
													<link>
														<linkclipref>Raw Interview Matthew Duepner419</linkclipref>
														<mediatype>audio</mediatype>
														<trackindex>1</trackindex>
														<clipindex>9</clipindex>
														<groupindex>1</groupindex>
													</link>
													<link>
														<linkclipref>Raw Interview Matthew Duepner420</linkclipref>
														<mediatype>audio</mediatype>
														<trackindex>2</trackindex>
														<clipindex>9</clipindex>
														<groupindex>1</groupindex>
													</link>
													<itemhistory>
														<uuid>924EE74F-F9D6-4155-B6E2-86E043D54A0C</uuid>
													</itemhistory>
												</clipitem>
												<clipitem id="Raw Interview Matthew Duepner422">
													<name>Raw Interview Matthew Duepner</name>
													<duration>81486</duration>
													<rate>
														<ntsc>TRUE</ntsc>
														<timebase>24</timebase>
													</rate>
													<in>6176</in>
													<out>6256</out>
													<start>1704</start>
													<end>1784</end>
													<masterclipid>Raw Interview Matthew Duepner390</masterclipid>
													<logginginfo>
														<scene/>
														<shottake/>
														<lognote/>
														<good>FALSE</good>
													</logginginfo>
													<labels>
														<label2/>
													</labels>
													<comments>
														<mastercomment1/>
														<mastercomment2/>
														<mastercomment3/>
														<mastercomment4/>
													</comments>
													<file id="YIN_2013-05-28_LG-5 "/>
													<filter>
														<effect>
															<name>Audio Levels</name>
															<effectid>audiolevels</effectid>
															<effectcategory>audiolevels</effectcategory>
															<effecttype>audiolevels</effecttype>
															<mediatype>audio</mediatype>
															<parameter>
																<name>Level</name>
																<parameterid>level</parameterid>
																<valuemin>0</valuemin>
																<valuemax>3.98109</valuemax>
																<value>1</value>
															</parameter>
														</effect>
													</filter>
													<filter>
														<effect>
															<name>Audio Pan</name>
															<effectid>audiopan</effectid>
															<effectcategory>audiopan</effectcategory>
															<effecttype>audiopan</effecttype>
															<mediatype>audio</mediatype>
															<parameter>
																<name>Pan</name>
																<parameterid>pan</parameterid>
																<valuemin>-1</valuemin>
																<valuemax>1</valuemax>
																<value>0</value>
															</parameter>
														</effect>
													</filter>
													<sourcetrack>
														<mediatype>audio</mediatype>
														<trackindex>1</trackindex>
													</sourcetrack>
													<link>
														<linkclipref>Raw Interview Matthew Duepner421</linkclipref>
														<mediatype>video</mediatype>
														<trackindex>1</trackindex>
														<clipindex>10</clipindex>
													</link>
													<link>
														<linkclipref>Raw Interview Matthew Duepner422</linkclipref>
														<mediatype>audio</mediatype>
														<trackindex>1</trackindex>
														<clipindex>10</clipindex>
														<groupindex>1</groupindex>
													</link>
													<link>
														<linkclipref>Raw Interview Matthew Duepner423</linkclipref>
														<mediatype>audio</mediatype>
														<trackindex>2</trackindex>
														<clipindex>10</clipindex>
														<groupindex>1</groupindex>
													</link>
													<itemhistory>
														<uuid>1D74E0CE-0899-46B9-A4A9-DA74DB76F3CF</uuid>
													</itemhistory>
												</clipitem>
												<clipitem id="Raw Interview Matthew Duepner425">
													<name>Raw Interview Matthew Duepner</name>
													<duration>81486</duration>
													<rate>
														<ntsc>TRUE</ntsc>
														<timebase>24</timebase>
													</rate>
													<in>6757</in>
													<out>6892</out>
													<start>1784</start>
													<end>1919</end>
													<masterclipid>Raw Interview Matthew Duepner390</masterclipid>
													<logginginfo>
														<scene/>
														<shottake/>
														<lognote/>
														<good>FALSE</good>
													</logginginfo>
													<labels>
														<label2/>
													</labels>
													<comments>
														<mastercomment1/>
														<mastercomment2/>
														<mastercomment3/>
														<mastercomment4/>
													</comments>
													<file id="YIN_2013-05-28_LG-5 "/>
													<filter>
														<effect>
															<name>Audio Levels</name>
															<effectid>audiolevels</effectid>
															<effectcategory>audiolevels</effectcategory>
															<effecttype>audiolevels</effecttype>
															<mediatype>audio</mediatype>
															<parameter>
																<name>Level</name>
																<parameterid>level</parameterid>
																<valuemin>0</valuemin>
																<valuemax>3.98109</valuemax>
																<value>1</value>
															</parameter>
														</effect>
													</filter>
													<filter>
														<effect>
															<name>Audio Pan</name>
															<effectid>audiopan</effectid>
															<effectcategory>audiopan</effectcategory>
															<effecttype>audiopan</effecttype>
															<mediatype>audio</mediatype>
															<parameter>
																<name>Pan</name>
																<parameterid>pan</parameterid>
																<valuemin>-1</valuemin>
																<valuemax>1</valuemax>
																<value>0</value>
															</parameter>
														</effect>
													</filter>
													<sourcetrack>
														<mediatype>audio</mediatype>
														<trackindex>1</trackindex>
													</sourcetrack>
													<link>
														<linkclipref>Raw Interview Matthew Duepner424</linkclipref>
														<mediatype>video</mediatype>
														<trackindex>1</trackindex>
														<clipindex>11</clipindex>
													</link>
													<link>
														<linkclipref>Raw Interview Matthew Duepner425</linkclipref>
														<mediatype>audio</mediatype>
														<trackindex>1</trackindex>
														<clipindex>11</clipindex>
														<groupindex>1</groupindex>
													</link>
													<link>
														<linkclipref>Raw Interview Matthew Duepner426</linkclipref>
														<mediatype>audio</mediatype>
														<trackindex>2</trackindex>
														<clipindex>11</clipindex>
														<groupindex>1</groupindex>
													</link>
													<itemhistory>
														<uuid>EAF0A653-48F0-4D4B-BAA5-A59FBA23F1C8</uuid>
													</itemhistory>
												</clipitem>
												<clipitem id="Raw Interview Matthew Duepner428">
													<name>Raw Interview Matthew Duepner</name>
													<duration>81486</duration>
													<rate>
														<ntsc>TRUE</ntsc>
														<timebase>24</timebase>
													</rate>
													<in>7002</in>
													<out>7205</out>
													<start>1919</start>
													<end>2122</end>
													<masterclipid>Raw Interview Matthew Duepner390</masterclipid>
													<logginginfo>
														<scene/>
														<shottake/>
														<lognote/>
														<good>FALSE</good>
													</logginginfo>
													<labels>
														<label2/>
													</labels>
													<comments>
														<mastercomment1/>
														<mastercomment2/>
														<mastercomment3/>
														<mastercomment4/>
													</comments>
													<file id="YIN_2013-05-28_LG-5 "/>
													<filter>
														<effect>
															<name>Audio Levels</name>
															<effectid>audiolevels</effectid>
															<effectcategory>audiolevels</effectcategory>
															<effecttype>audiolevels</effecttype>
															<mediatype>audio</mediatype>
															<parameter>
																<name>Level</name>
																<parameterid>level</parameterid>
																<valuemin>0</valuemin>
																<valuemax>3.98109</valuemax>
																<value>1</value>
															</parameter>
														</effect>
													</filter>
													<filter>
														<effect>
															<name>Audio Pan</name>
															<effectid>audiopan</effectid>
															<effectcategory>audiopan</effectcategory>
															<effecttype>audiopan</effecttype>
															<mediatype>audio</mediatype>
															<parameter>
																<name>Pan</name>
																<parameterid>pan</parameterid>
																<valuemin>-1</valuemin>
																<valuemax>1</valuemax>
																<value>0</value>
															</parameter>
														</effect>
													</filter>
													<sourcetrack>
														<mediatype>audio</mediatype>
														<trackindex>1</trackindex>
													</sourcetrack>
													<link>
														<linkclipref>Raw Interview Matthew Duepner427</linkclipref>
														<mediatype>video</mediatype>
														<trackindex>1</trackindex>
														<clipindex>12</clipindex>
													</link>
													<link>
														<linkclipref>Raw Interview Matthew Duepner428</linkclipref>
														<mediatype>audio</mediatype>
														<trackindex>1</trackindex>
														<clipindex>12</clipindex>
														<groupindex>1</groupindex>
													</link>
													<link>
														<linkclipref>Raw Interview Matthew Duepner429</linkclipref>
														<mediatype>audio</mediatype>
														<trackindex>2</trackindex>
														<clipindex>12</clipindex>
														<groupindex>1</groupindex>
													</link>
													<itemhistory>
														<uuid>C95D261B-DA1D-47E8-B11D-7AC0E2462DA8</uuid>
													</itemhistory>
												</clipitem>
												<clipitem id="Raw Interview Matthew Duepner431">
													<name>Raw Interview Matthew Duepner</name>
													<duration>81486</duration>
													<rate>
														<ntsc>TRUE</ntsc>
														<timebase>24</timebase>
													</rate>
													<in>9373</in>
													<out>9540</out>
													<start>2122</start>
													<end>2289</end>
													<masterclipid>Raw Interview Matthew Duepner390</masterclipid>
													<logginginfo>
														<scene/>
														<shottake/>
														<lognote/>
														<good>FALSE</good>
													</logginginfo>
													<labels>
														<label2/>
													</labels>
													<comments>
														<mastercomment1/>
														<mastercomment2/>
														<mastercomment3/>
														<mastercomment4/>
													</comments>
													<file id="YIN_2013-05-28_LG-5 "/>
													<filter>
														<effect>
															<name>Audio Levels</name>
															<effectid>audiolevels</effectid>
															<effectcategory>audiolevels</effectcategory>
															<effecttype>audiolevels</effecttype>
															<mediatype>audio</mediatype>
															<parameter>
																<name>Level</name>
																<parameterid>level</parameterid>
																<valuemin>0</valuemin>
																<valuemax>3.98109</valuemax>
																<value>1</value>
															</parameter>
														</effect>
													</filter>
													<filter>
														<effect>
															<name>Audio Pan</name>
															<effectid>audiopan</effectid>
															<effectcategory>audiopan</effectcategory>
															<effecttype>audiopan</effecttype>
															<mediatype>audio</mediatype>
															<parameter>
																<name>Pan</name>
																<parameterid>pan</parameterid>
																<valuemin>-1</valuemin>
																<valuemax>1</valuemax>
																<value>0</value>
															</parameter>
														</effect>
													</filter>
													<sourcetrack>
														<mediatype>audio</mediatype>
														<trackindex>1</trackindex>
													</sourcetrack>
													<link>
														<linkclipref>Raw Interview Matthew Duepner430</linkclipref>
														<mediatype>video</mediatype>
														<trackindex>1</trackindex>
														<clipindex>13</clipindex>
													</link>
													<link>
														<linkclipref>Raw Interview Matthew Duepner431</linkclipref>
														<mediatype>audio</mediatype>
														<trackindex>1</trackindex>
														<clipindex>13</clipindex>
														<groupindex>1</groupindex>
													</link>
													<link>
														<linkclipref>Raw Interview Matthew Duepner432</linkclipref>
														<mediatype>audio</mediatype>
														<trackindex>2</trackindex>
														<clipindex>13</clipindex>
														<groupindex>1</groupindex>
													</link>
													<itemhistory>
														<uuid>0E1C9BE4-3CDD-496D-9A84-E140198F0FD7</uuid>
													</itemhistory>
												</clipitem>
												<clipitem id="Raw Interview Matthew Duepner434">
													<name>Raw Interview Matthew Duepner</name>
													<duration>81486</duration>
													<rate>
														<ntsc>TRUE</ntsc>
														<timebase>24</timebase>
													</rate>
													<in>10404</in>
													<out>10508</out>
													<start>2289</start>
													<end>2393</end>
													<masterclipid>Raw Interview Matthew Duepner390</masterclipid>
													<logginginfo>
														<scene/>
														<shottake/>
														<lognote/>
														<good>FALSE</good>
													</logginginfo>
													<labels>
														<label2/>
													</labels>
													<comments>
														<mastercomment1/>
														<mastercomment2/>
														<mastercomment3/>
														<mastercomment4/>
													</comments>
													<file id="YIN_2013-05-28_LG-5 "/>
													<filter>
														<effect>
															<name>Audio Levels</name>
															<effectid>audiolevels</effectid>
															<effectcategory>audiolevels</effectcategory>
															<effecttype>audiolevels</effecttype>
															<mediatype>audio</mediatype>
															<parameter>
																<name>Level</name>
																<parameterid>level</parameterid>
																<valuemin>0</valuemin>
																<valuemax>3.98109</valuemax>
																<value>1</value>
															</parameter>
														</effect>
													</filter>
													<filter>
														<effect>
															<name>Audio Pan</name>
															<effectid>audiopan</effectid>
															<effectcategory>audiopan</effectcategory>
															<effecttype>audiopan</effecttype>
															<mediatype>audio</mediatype>
															<parameter>
																<name>Pan</name>
																<parameterid>pan</parameterid>
																<valuemin>-1</valuemin>
																<valuemax>1</valuemax>
																<value>0</value>
															</parameter>
														</effect>
													</filter>
													<sourcetrack>
														<mediatype>audio</mediatype>
														<trackindex>1</trackindex>
													</sourcetrack>
													<link>
														<linkclipref>Raw Interview Matthew Duepner433</linkclipref>
														<mediatype>video</mediatype>
														<trackindex>1</trackindex>
														<clipindex>14</clipindex>
													</link>
													<link>
														<linkclipref>Raw Interview Matthew Duepner434</linkclipref>
														<mediatype>audio</mediatype>
														<trackindex>1</trackindex>
														<clipindex>14</clipindex>
														<groupindex>1</groupindex>
													</link>
													<link>
														<linkclipref>Raw Interview Matthew Duepner435</linkclipref>
														<mediatype>audio</mediatype>
														<trackindex>2</trackindex>
														<clipindex>14</clipindex>
														<groupindex>1</groupindex>
													</link>
													<itemhistory>
														<uuid>DE1AE7EE-C7FB-4509-A952-F849B0104645</uuid>
													</itemhistory>
												</clipitem>
												<clipitem id="Raw Interview Matthew Duepner437">
													<name>Raw Interview Matthew Duepner</name>
													<duration>81486</duration>
													<rate>
														<ntsc>TRUE</ntsc>
														<timebase>24</timebase>
													</rate>
													<in>10554</in>
													<out>10693</out>
													<start>2393</start>
													<end>2532</end>
													<masterclipid>Raw Interview Matthew Duepner390</masterclipid>
													<logginginfo>
														<scene/>
														<shottake/>
														<lognote/>
														<good>FALSE</good>
													</logginginfo>
													<labels>
														<label2/>
													</labels>
													<comments>
														<mastercomment1/>
														<mastercomment2/>
														<mastercomment3/>
														<mastercomment4/>
													</comments>
													<file id="YIN_2013-05-28_LG-5 "/>
													<filter>
														<effect>
															<name>Audio Levels</name>
															<effectid>audiolevels</effectid>
															<effectcategory>audiolevels</effectcategory>
															<effecttype>audiolevels</effecttype>
															<mediatype>audio</mediatype>
															<parameter>
																<name>Level</name>
																<parameterid>level</parameterid>
																<valuemin>0</valuemin>
																<valuemax>3.98109</valuemax>
																<value>1</value>
															</parameter>
														</effect>
													</filter>
													<filter>
														<effect>
															<name>Audio Pan</name>
															<effectid>audiopan</effectid>
															<effectcategory>audiopan</effectcategory>
															<effecttype>audiopan</effecttype>
															<mediatype>audio</mediatype>
															<parameter>
																<name>Pan</name>
																<parameterid>pan</parameterid>
																<valuemin>-1</valuemin>
																<valuemax>1</valuemax>
																<value>0</value>
															</parameter>
														</effect>
													</filter>
													<sourcetrack>
														<mediatype>audio</mediatype>
														<trackindex>1</trackindex>
													</sourcetrack>
													<link>
														<linkclipref>Raw Interview Matthew Duepner436</linkclipref>
														<mediatype>video</mediatype>
														<trackindex>1</trackindex>
														<clipindex>15</clipindex>
													</link>
													<link>
														<linkclipref>Raw Interview Matthew Duepner437</linkclipref>
														<mediatype>audio</mediatype>
														<trackindex>1</trackindex>
														<clipindex>15</clipindex>
														<groupindex>1</groupindex>
													</link>
													<link>
														<linkclipref>Raw Interview Matthew Duepner438</linkclipref>
														<mediatype>audio</mediatype>
														<trackindex>2</trackindex>
														<clipindex>15</clipindex>
														<groupindex>1</groupindex>
													</link>
													<itemhistory>
														<uuid>10D76574-8019-4A8D-A8EA-67A3E89A322E</uuid>
													</itemhistory>
												</clipitem>
												<clipitem id="Raw Interview Matthew Duepner440">
													<name>Raw Interview Matthew Duepner</name>
													<duration>81486</duration>
													<rate>
														<ntsc>TRUE</ntsc>
														<timebase>24</timebase>
													</rate>
													<in>11151</in>
													<out>11298</out>
													<start>2532</start>
													<end>2679</end>
													<masterclipid>Raw Interview Matthew Duepner390</masterclipid>
													<logginginfo>
														<scene/>
														<shottake/>
														<lognote/>
														<good>FALSE</good>
													</logginginfo>
													<labels>
														<label2/>
													</labels>
													<comments>
														<mastercomment1/>
														<mastercomment2/>
														<mastercomment3/>
														<mastercomment4/>
													</comments>
													<file id="YIN_2013-05-28_LG-5 "/>
													<filter>
														<effect>
															<name>Audio Levels</name>
															<effectid>audiolevels</effectid>
															<effectcategory>audiolevels</effectcategory>
															<effecttype>audiolevels</effecttype>
															<mediatype>audio</mediatype>
															<parameter>
																<name>Level</name>
																<parameterid>level</parameterid>
																<valuemin>0</valuemin>
																<valuemax>3.98109</valuemax>
																<value>1</value>
															</parameter>
														</effect>
													</filter>
													<filter>
														<effect>
															<name>Audio Pan</name>
															<effectid>audiopan</effectid>
															<effectcategory>audiopan</effectcategory>
															<effecttype>audiopan</effecttype>
															<mediatype>audio</mediatype>
															<parameter>
																<name>Pan</name>
																<parameterid>pan</parameterid>
																<valuemin>-1</valuemin>
																<valuemax>1</valuemax>
																<value>0</value>
															</parameter>
														</effect>
													</filter>
													<sourcetrack>
														<mediatype>audio</mediatype>
														<trackindex>1</trackindex>
													</sourcetrack>
													<link>
														<linkclipref>Raw Interview Matthew Duepner439</linkclipref>
														<mediatype>video</mediatype>
														<trackindex>1</trackindex>
														<clipindex>16</clipindex>
													</link>
													<link>
														<linkclipref>Raw Interview Matthew Duepner440</linkclipref>
														<mediatype>audio</mediatype>
														<trackindex>1</trackindex>
														<clipindex>16</clipindex>
														<groupindex>1</groupindex>
													</link>
													<link>
														<linkclipref>Raw Interview Matthew Duepner441</linkclipref>
														<mediatype>audio</mediatype>
														<trackindex>2</trackindex>
														<clipindex>16</clipindex>
														<groupindex>1</groupindex>
													</link>
													<itemhistory>
														<uuid>6DB76CCB-C806-4967-9F55-DEEE82F6F503</uuid>
													</itemhistory>
												</clipitem>
												<clipitem id="Raw Interview Matthew Duepner443">
													<name>Raw Interview Matthew Duepner</name>
													<duration>81486</duration>
													<rate>
														<ntsc>TRUE</ntsc>
														<timebase>24</timebase>
													</rate>
													<in>11865</in>
													<out>11984</out>
													<start>2679</start>
													<end>2798</end>
													<masterclipid>Raw Interview Matthew Duepner390</masterclipid>
													<logginginfo>
														<scene/>
														<shottake/>
														<lognote/>
														<good>FALSE</good>
													</logginginfo>
													<labels>
														<label2/>
													</labels>
													<comments>
														<mastercomment1/>
														<mastercomment2/>
														<mastercomment3/>
														<mastercomment4/>
													</comments>
													<file id="YIN_2013-05-28_LG-5 "/>
													<filter>
														<effect>
															<name>Audio Levels</name>
															<effectid>audiolevels</effectid>
															<effectcategory>audiolevels</effectcategory>
															<effecttype>audiolevels</effecttype>
															<mediatype>audio</mediatype>
															<parameter>
																<name>Level</name>
																<parameterid>level</parameterid>
																<valuemin>0</valuemin>
																<valuemax>3.98109</valuemax>
																<value>1</value>
															</parameter>
														</effect>
													</filter>
													<filter>
														<effect>
															<name>Audio Pan</name>
															<effectid>audiopan</effectid>
															<effectcategory>audiopan</effectcategory>
															<effecttype>audiopan</effecttype>
															<mediatype>audio</mediatype>
															<parameter>
																<name>Pan</name>
																<parameterid>pan</parameterid>
																<valuemin>-1</valuemin>
																<valuemax>1</valuemax>
																<value>0</value>
															</parameter>
														</effect>
													</filter>
													<sourcetrack>
														<mediatype>audio</mediatype>
														<trackindex>1</trackindex>
													</sourcetrack>
													<link>
														<linkclipref>Raw Interview Matthew Duepner442</linkclipref>
														<mediatype>video</mediatype>
														<trackindex>1</trackindex>
														<clipindex>17</clipindex>
													</link>
													<link>
														<linkclipref>Raw Interview Matthew Duepner443</linkclipref>
														<mediatype>audio</mediatype>
														<trackindex>1</trackindex>
														<clipindex>17</clipindex>
														<groupindex>1</groupindex>
													</link>
													<link>
														<linkclipref>Raw Interview Matthew Duepner444</linkclipref>
														<mediatype>audio</mediatype>
														<trackindex>2</trackindex>
														<clipindex>17</clipindex>
														<groupindex>1</groupindex>
													</link>
													<itemhistory>
														<uuid>83D62076-1747-4F43-BEE2-AD274FEC86CD</uuid>
													</itemhistory>
												</clipitem>
												<clipitem id="Raw Interview Matthew Duepner446">
													<name>Raw Interview Matthew Duepner</name>
													<duration>81486</duration>
													<rate>
														<ntsc>TRUE</ntsc>
														<timebase>24</timebase>
													</rate>
													<in>12116</in>
													<out>12289</out>
													<start>2798</start>
													<end>2971</end>
													<masterclipid>Raw Interview Matthew Duepner390</masterclipid>
													<logginginfo>
														<scene/>
														<shottake/>
														<lognote/>
														<good>FALSE</good>
													</logginginfo>
													<labels>
														<label2/>
													</labels>
													<comments>
														<mastercomment1/>
														<mastercomment2/>
														<mastercomment3/>
														<mastercomment4/>
													</comments>
													<file id="YIN_2013-05-28_LG-5 "/>
													<filter>
														<effect>
															<name>Audio Levels</name>
															<effectid>audiolevels</effectid>
															<effectcategory>audiolevels</effectcategory>
															<effecttype>audiolevels</effecttype>
															<mediatype>audio</mediatype>
															<parameter>
																<name>Level</name>
																<parameterid>level</parameterid>
																<valuemin>0</valuemin>
																<valuemax>3.98109</valuemax>
																<value>1</value>
															</parameter>
														</effect>
													</filter>
													<filter>
														<effect>
															<name>Audio Pan</name>
															<effectid>audiopan</effectid>
															<effectcategory>audiopan</effectcategory>
															<effecttype>audiopan</effecttype>
															<mediatype>audio</mediatype>
															<parameter>
																<name>Pan</name>
																<parameterid>pan</parameterid>
																<valuemin>-1</valuemin>
																<valuemax>1</valuemax>
																<value>0</value>
															</parameter>
														</effect>
													</filter>
													<sourcetrack>
														<mediatype>audio</mediatype>
														<trackindex>1</trackindex>
													</sourcetrack>
													<link>
														<linkclipref>Raw Interview Matthew Duepner445</linkclipref>
														<mediatype>video</mediatype>
														<trackindex>1</trackindex>
														<clipindex>18</clipindex>
													</link>
													<link>
														<linkclipref>Raw Interview Matthew Duepner446</linkclipref>
														<mediatype>audio</mediatype>
														<trackindex>1</trackindex>
														<clipindex>18</clipindex>
														<groupindex>1</groupindex>
													</link>
													<link>
														<linkclipref>Raw Interview Matthew Duepner447</linkclipref>
														<mediatype>audio</mediatype>
														<trackindex>2</trackindex>
														<clipindex>18</clipindex>
														<groupindex>1</groupindex>
													</link>
													<itemhistory>
														<uuid>5FECA060-7EAF-48BA-B56B-EB4E53E56BF9</uuid>
													</itemhistory>
												</clipitem>
												<clipitem id="Raw Interview Matthew Duepner449">
													<name>Raw Interview Matthew Duepner</name>
													<duration>81486</duration>
													<rate>
														<ntsc>TRUE</ntsc>
														<timebase>24</timebase>
													</rate>
													<in>14189</in>
													<out>14334</out>
													<start>2971</start>
													<end>3116</end>
													<masterclipid>Raw Interview Matthew Duepner390</masterclipid>
													<logginginfo>
														<scene/>
														<shottake/>
														<lognote/>
														<good>FALSE</good>
													</logginginfo>
													<labels>
														<label2/>
													</labels>
													<comments>
														<mastercomment1/>
														<mastercomment2/>
														<mastercomment3/>
														<mastercomment4/>
													</comments>
													<file id="YIN_2013-05-28_LG-5 "/>
													<filter>
														<effect>
															<name>Audio Levels</name>
															<effectid>audiolevels</effectid>
															<effectcategory>audiolevels</effectcategory>
															<effecttype>audiolevels</effecttype>
															<mediatype>audio</mediatype>
															<parameter>
																<name>Level</name>
																<parameterid>level</parameterid>
																<valuemin>0</valuemin>
																<valuemax>3.98109</valuemax>
																<value>1</value>
															</parameter>
														</effect>
													</filter>
													<filter>
														<effect>
															<name>Audio Pan</name>
															<effectid>audiopan</effectid>
															<effectcategory>audiopan</effectcategory>
															<effecttype>audiopan</effecttype>
															<mediatype>audio</mediatype>
															<parameter>
																<name>Pan</name>
																<parameterid>pan</parameterid>
																<valuemin>-1</valuemin>
																<valuemax>1</valuemax>
																<value>0</value>
															</parameter>
														</effect>
													</filter>
													<sourcetrack>
														<mediatype>audio</mediatype>
														<trackindex>1</trackindex>
													</sourcetrack>
													<link>
														<linkclipref>Raw Interview Matthew Duepner448</linkclipref>
														<mediatype>video</mediatype>
														<trackindex>1</trackindex>
														<clipindex>19</clipindex>
													</link>
													<link>
														<linkclipref>Raw Interview Matthew Duepner449</linkclipref>
														<mediatype>audio</mediatype>
														<trackindex>1</trackindex>
														<clipindex>19</clipindex>
														<groupindex>1</groupindex>
													</link>
													<link>
														<linkclipref>Raw Interview Matthew Duepner450</linkclipref>
														<mediatype>audio</mediatype>
														<trackindex>2</trackindex>
														<clipindex>19</clipindex>
														<groupindex>1</groupindex>
													</link>
													<itemhistory>
														<uuid>154B63DA-2DE6-48DA-9E83-4541952BFF36</uuid>
													</itemhistory>
												</clipitem>
												<clipitem id="Raw Interview Matthew Duepner452">
													<name>Raw Interview Matthew Duepner</name>
													<duration>81486</duration>
													<rate>
														<ntsc>TRUE</ntsc>
														<timebase>24</timebase>
													</rate>
													<in>17169</in>
													<out>17401</out>
													<start>3116</start>
													<end>3348</end>
													<masterclipid>Raw Interview Matthew Duepner390</masterclipid>
													<logginginfo>
														<scene/>
														<shottake/>
														<lognote/>
														<good>FALSE</good>
													</logginginfo>
													<labels>
														<label2/>
													</labels>
													<comments>
														<mastercomment1/>
														<mastercomment2/>
														<mastercomment3/>
														<mastercomment4/>
													</comments>
													<file id="YIN_2013-05-28_LG-5 "/>
													<filter>
														<effect>
															<name>Audio Levels</name>
															<effectid>audiolevels</effectid>
															<effectcategory>audiolevels</effectcategory>
															<effecttype>audiolevels</effecttype>
															<mediatype>audio</mediatype>
															<parameter>
																<name>Level</name>
																<parameterid>level</parameterid>
																<valuemin>0</valuemin>
																<valuemax>3.98109</valuemax>
																<value>1</value>
															</parameter>
														</effect>
													</filter>
													<filter>
														<effect>
															<name>Audio Pan</name>
															<effectid>audiopan</effectid>
															<effectcategory>audiopan</effectcategory>
															<effecttype>audiopan</effecttype>
															<mediatype>audio</mediatype>
															<parameter>
																<name>Pan</name>
																<parameterid>pan</parameterid>
																<valuemin>-1</valuemin>
																<valuemax>1</valuemax>
																<value>0</value>
															</parameter>
														</effect>
													</filter>
													<sourcetrack>
														<mediatype>audio</mediatype>
														<trackindex>1</trackindex>
													</sourcetrack>
													<link>
														<linkclipref>Raw Interview Matthew Duepner451</linkclipref>
														<mediatype>video</mediatype>
														<trackindex>1</trackindex>
														<clipindex>20</clipindex>
													</link>
													<link>
														<linkclipref>Raw Interview Matthew Duepner452</linkclipref>
														<mediatype>audio</mediatype>
														<trackindex>1</trackindex>
														<clipindex>20</clipindex>
														<groupindex>1</groupindex>
													</link>
													<link>
														<linkclipref>Raw Interview Matthew Duepner453</linkclipref>
														<mediatype>audio</mediatype>
														<trackindex>2</trackindex>
														<clipindex>20</clipindex>
														<groupindex>1</groupindex>
													</link>
													<itemhistory>
														<uuid>C720B29F-9680-4762-A3DA-0D01EA1E3789</uuid>
													</itemhistory>
												</clipitem>
												<clipitem id="Raw Interview Matthew Duepner455">
													<name>Raw Interview Matthew Duepner</name>
													<duration>81486</duration>
													<rate>
														<ntsc>TRUE</ntsc>
														<timebase>24</timebase>
													</rate>
													<in>17964</in>
													<out>18613</out>
													<start>3348</start>
													<end>3997</end>
													<masterclipid>Raw Interview Matthew Duepner390</masterclipid>
													<logginginfo>
														<scene/>
														<shottake/>
														<lognote/>
														<good>FALSE</good>
													</logginginfo>
													<labels>
														<label2/>
													</labels>
													<comments>
														<mastercomment1/>
														<mastercomment2/>
														<mastercomment3/>
														<mastercomment4/>
													</comments>
													<file id="YIN_2013-05-28_LG-5 "/>
													<filter>
														<effect>
															<name>Audio Levels</name>
															<effectid>audiolevels</effectid>
															<effectcategory>audiolevels</effectcategory>
															<effecttype>audiolevels</effecttype>
															<mediatype>audio</mediatype>
															<parameter>
																<name>Level</name>
																<parameterid>level</parameterid>
																<valuemin>0</valuemin>
																<valuemax>3.98109</valuemax>
																<value>1</value>
															</parameter>
														</effect>
													</filter>
													<filter>
														<effect>
															<name>Audio Pan</name>
															<effectid>audiopan</effectid>
															<effectcategory>audiopan</effectcategory>
															<effecttype>audiopan</effecttype>
															<mediatype>audio</mediatype>
															<parameter>
																<name>Pan</name>
																<parameterid>pan</parameterid>
																<valuemin>-1</valuemin>
																<valuemax>1</valuemax>
																<value>0</value>
															</parameter>
														</effect>
													</filter>
													<sourcetrack>
														<mediatype>audio</mediatype>
														<trackindex>1</trackindex>
													</sourcetrack>
													<link>
														<linkclipref>Raw Interview Matthew Duepner454</linkclipref>
														<mediatype>video</mediatype>
														<trackindex>1</trackindex>
														<clipindex>21</clipindex>
													</link>
													<link>
														<linkclipref>Raw Interview Matthew Duepner455</linkclipref>
														<mediatype>audio</mediatype>
														<trackindex>1</trackindex>
														<clipindex>21</clipindex>
														<groupindex>1</groupindex>
													</link>
													<link>
														<linkclipref>Raw Interview Matthew Duepner456</linkclipref>
														<mediatype>audio</mediatype>
														<trackindex>2</trackindex>
														<clipindex>21</clipindex>
														<groupindex>1</groupindex>
													</link>
													<itemhistory>
														<uuid>98C7094B-85BC-4B34-A56D-A56D58222D34</uuid>
													</itemhistory>
												</clipitem>
												<clipitem id="Raw Interview Matthew Duepner458">
													<name>Raw Interview Matthew Duepner</name>
													<duration>81486</duration>
													<rate>
														<ntsc>TRUE</ntsc>
														<timebase>24</timebase>
													</rate>
													<in>18645</in>
													<out>19018</out>
													<start>3997</start>
													<end>4370</end>
													<masterclipid>Raw Interview Matthew Duepner390</masterclipid>
													<logginginfo>
														<scene/>
														<shottake/>
														<lognote/>
														<good>FALSE</good>
													</logginginfo>
													<labels>
														<label2/>
													</labels>
													<comments>
														<mastercomment1/>
														<mastercomment2/>
														<mastercomment3/>
														<mastercomment4/>
													</comments>
													<file id="YIN_2013-05-28_LG-5 "/>
													<filter>
														<effect>
															<name>Audio Levels</name>
															<effectid>audiolevels</effectid>
															<effectcategory>audiolevels</effectcategory>
															<effecttype>audiolevels</effecttype>
															<mediatype>audio</mediatype>
															<parameter>
																<name>Level</name>
																<parameterid>level</parameterid>
																<valuemin>0</valuemin>
																<valuemax>3.98109</valuemax>
																<value>1</value>
															</parameter>
														</effect>
													</filter>
													<filter>
														<effect>
															<name>Audio Pan</name>
															<effectid>audiopan</effectid>
															<effectcategory>audiopan</effectcategory>
															<effecttype>audiopan</effecttype>
															<mediatype>audio</mediatype>
															<parameter>
																<name>Pan</name>
																<parameterid>pan</parameterid>
																<valuemin>-1</valuemin>
																<valuemax>1</valuemax>
																<value>0</value>
															</parameter>
														</effect>
													</filter>
													<sourcetrack>
														<mediatype>audio</mediatype>
														<trackindex>1</trackindex>
													</sourcetrack>
													<link>
														<linkclipref>Raw Interview Matthew Duepner457</linkclipref>
														<mediatype>video</mediatype>
														<trackindex>1</trackindex>
														<clipindex>22</clipindex>
													</link>
													<link>
														<linkclipref>Raw Interview Matthew Duepner458</linkclipref>
														<mediatype>audio</mediatype>
														<trackindex>1</trackindex>
														<clipindex>22</clipindex>
														<groupindex>1</groupindex>
													</link>
													<link>
														<linkclipref>Raw Interview Matthew Duepner459</linkclipref>
														<mediatype>audio</mediatype>
														<trackindex>2</trackindex>
														<clipindex>22</clipindex>
														<groupindex>1</groupindex>
													</link>
													<itemhistory>
														<uuid>9B2911DB-65F8-4A45-965A-485C7FC64908</uuid>
													</itemhistory>
												</clipitem>
												<clipitem id="Raw Interview Matthew Duepner461">
													<name>Raw Interview Matthew Duepner</name>
													<duration>81486</duration>
													<rate>
														<ntsc>TRUE</ntsc>
														<timebase>24</timebase>
													</rate>
													<in>19126</in>
													<out>19267</out>
													<start>4370</start>
													<end>4511</end>
													<masterclipid>Raw Interview Matthew Duepner390</masterclipid>
													<logginginfo>
														<scene/>
														<shottake/>
														<lognote/>
														<good>FALSE</good>
													</logginginfo>
													<labels>
														<label2/>
													</labels>
													<comments>
														<mastercomment1/>
														<mastercomment2/>
														<mastercomment3/>
														<mastercomment4/>
													</comments>
													<file id="YIN_2013-05-28_LG-5 "/>
													<filter>
														<effect>
															<name>Audio Levels</name>
															<effectid>audiolevels</effectid>
															<effectcategory>audiolevels</effectcategory>
															<effecttype>audiolevels</effecttype>
															<mediatype>audio</mediatype>
															<parameter>
																<name>Level</name>
																<parameterid>level</parameterid>
																<valuemin>0</valuemin>
																<valuemax>3.98109</valuemax>
																<value>1</value>
															</parameter>
														</effect>
													</filter>
													<filter>
														<effect>
															<name>Audio Pan</name>
															<effectid>audiopan</effectid>
															<effectcategory>audiopan</effectcategory>
															<effecttype>audiopan</effecttype>
															<mediatype>audio</mediatype>
															<parameter>
																<name>Pan</name>
																<parameterid>pan</parameterid>
																<valuemin>-1</valuemin>
																<valuemax>1</valuemax>
																<value>0</value>
															</parameter>
														</effect>
													</filter>
													<sourcetrack>
														<mediatype>audio</mediatype>
														<trackindex>1</trackindex>
													</sourcetrack>
													<link>
														<linkclipref>Raw Interview Matthew Duepner460</linkclipref>
														<mediatype>video</mediatype>
														<trackindex>1</trackindex>
														<clipindex>23</clipindex>
													</link>
													<link>
														<linkclipref>Raw Interview Matthew Duepner461</linkclipref>
														<mediatype>audio</mediatype>
														<trackindex>1</trackindex>
														<clipindex>23</clipindex>
														<groupindex>1</groupindex>
													</link>
													<link>
														<linkclipref>Raw Interview Matthew Duepner462</linkclipref>
														<mediatype>audio</mediatype>
														<trackindex>2</trackindex>
														<clipindex>23</clipindex>
														<groupindex>1</groupindex>
													</link>
													<itemhistory>
														<uuid>CF499AE6-F688-4A9E-884E-AFAFA45240E8</uuid>
													</itemhistory>
												</clipitem>
												<clipitem id="Raw Interview Matthew Duepner464">
													<name>Raw Interview Matthew Duepner</name>
													<duration>81486</duration>
													<rate>
														<ntsc>TRUE</ntsc>
														<timebase>24</timebase>
													</rate>
													<in>19372</in>
													<out>19423</out>
													<start>4511</start>
													<end>4562</end>
													<masterclipid>Raw Interview Matthew Duepner390</masterclipid>
													<logginginfo>
														<scene/>
														<shottake/>
														<lognote/>
														<good>FALSE</good>
													</logginginfo>
													<labels>
														<label2/>
													</labels>
													<comments>
														<mastercomment1/>
														<mastercomment2/>
														<mastercomment3/>
														<mastercomment4/>
													</comments>
													<file id="YIN_2013-05-28_LG-5 "/>
													<filter>
														<effect>
															<name>Audio Levels</name>
															<effectid>audiolevels</effectid>
															<effectcategory>audiolevels</effectcategory>
															<effecttype>audiolevels</effecttype>
															<mediatype>audio</mediatype>
															<parameter>
																<name>Level</name>
																<parameterid>level</parameterid>
																<valuemin>0</valuemin>
																<valuemax>3.98109</valuemax>
																<value>1</value>
															</parameter>
														</effect>
													</filter>
													<filter>
														<effect>
															<name>Audio Pan</name>
															<effectid>audiopan</effectid>
															<effectcategory>audiopan</effectcategory>
															<effecttype>audiopan</effecttype>
															<mediatype>audio</mediatype>
															<parameter>
																<name>Pan</name>
																<parameterid>pan</parameterid>
																<valuemin>-1</valuemin>
																<valuemax>1</valuemax>
																<value>0</value>
															</parameter>
														</effect>
													</filter>
													<sourcetrack>
														<mediatype>audio</mediatype>
														<trackindex>1</trackindex>
													</sourcetrack>
													<link>
														<linkclipref>Raw Interview Matthew Duepner463</linkclipref>
														<mediatype>video</mediatype>
														<trackindex>1</trackindex>
														<clipindex>24</clipindex>
													</link>
													<link>
														<linkclipref>Raw Interview Matthew Duepner464</linkclipref>
														<mediatype>audio</mediatype>
														<trackindex>1</trackindex>
														<clipindex>24</clipindex>
														<groupindex>1</groupindex>
													</link>
													<link>
														<linkclipref>Raw Interview Matthew Duepner465</linkclipref>
														<mediatype>audio</mediatype>
														<trackindex>2</trackindex>
														<clipindex>24</clipindex>
														<groupindex>1</groupindex>
													</link>
													<itemhistory>
														<uuid>2115E875-1D20-4D9D-B272-F6B37B6434E4</uuid>
													</itemhistory>
												</clipitem>
												<clipitem id="Raw Interview Matthew Duepner467">
													<name>Raw Interview Matthew Duepner</name>
													<duration>81486</duration>
													<rate>
														<ntsc>TRUE</ntsc>
														<timebase>24</timebase>
													</rate>
													<in>19423</in>
													<out>19455</out>
													<start>4562</start>
													<end>4594</end>
													<masterclipid>Raw Interview Matthew Duepner390</masterclipid>
													<logginginfo>
														<scene/>
														<shottake/>
														<lognote/>
														<good>FALSE</good>
													</logginginfo>
													<labels>
														<label2/>
													</labels>
													<comments>
														<mastercomment1/>
														<mastercomment2/>
														<mastercomment3/>
														<mastercomment4/>
													</comments>
													<file id="YIN_2013-05-28_LG-5 "/>
													<filter>
														<effect>
															<name>Audio Levels</name>
															<effectid>audiolevels</effectid>
															<effectcategory>audiolevels</effectcategory>
															<effecttype>audiolevels</effecttype>
															<mediatype>audio</mediatype>
															<parameter>
																<name>Level</name>
																<parameterid>level</parameterid>
																<valuemin>0</valuemin>
																<valuemax>3.98109</valuemax>
																<value>1</value>
															</parameter>
														</effect>
													</filter>
													<filter>
														<effect>
															<name>Audio Pan</name>
															<effectid>audiopan</effectid>
															<effectcategory>audiopan</effectcategory>
															<effecttype>audiopan</effecttype>
															<mediatype>audio</mediatype>
															<parameter>
																<name>Pan</name>
																<parameterid>pan</parameterid>
																<valuemin>-1</valuemin>
																<valuemax>1</valuemax>
																<value>0</value>
															</parameter>
														</effect>
													</filter>
													<sourcetrack>
														<mediatype>audio</mediatype>
														<trackindex>1</trackindex>
													</sourcetrack>
													<link>
														<linkclipref>Raw Interview Matthew Duepner466</linkclipref>
														<mediatype>video</mediatype>
														<trackindex>1</trackindex>
														<clipindex>25</clipindex>
													</link>
													<link>
														<linkclipref>Raw Interview Matthew Duepner467</linkclipref>
														<mediatype>audio</mediatype>
														<trackindex>1</trackindex>
														<clipindex>25</clipindex>
														<groupindex>1</groupindex>
													</link>
													<link>
														<linkclipref>Raw Interview Matthew Duepner468</linkclipref>
														<mediatype>audio</mediatype>
														<trackindex>2</trackindex>
														<clipindex>25</clipindex>
														<groupindex>1</groupindex>
													</link>
													<itemhistory>
														<uuid>F4C6EE6F-B1D2-435D-9366-A070CE0CC4D3</uuid>
													</itemhistory>
												</clipitem>
												<clipitem id="Raw Interview Matthew Duepner470">
													<name>Raw Interview Matthew Duepner</name>
													<duration>81486</duration>
													<rate>
														<ntsc>TRUE</ntsc>
														<timebase>24</timebase>
													</rate>
													<in>19520</in>
													<out>19602</out>
													<start>4594</start>
													<end>4676</end>
													<masterclipid>Raw Interview Matthew Duepner390</masterclipid>
													<logginginfo>
														<scene/>
														<shottake/>
														<lognote/>
														<good>FALSE</good>
													</logginginfo>
													<labels>
														<label2/>
													</labels>
													<comments>
														<mastercomment1/>
														<mastercomment2/>
														<mastercomment3/>
														<mastercomment4/>
													</comments>
													<file id="YIN_2013-05-28_LG-5 "/>
													<filter>
														<effect>
															<name>Audio Levels</name>
															<effectid>audiolevels</effectid>
															<effectcategory>audiolevels</effectcategory>
															<effecttype>audiolevels</effecttype>
															<mediatype>audio</mediatype>
															<parameter>
																<name>Level</name>
																<parameterid>level</parameterid>
																<valuemin>0</valuemin>
																<valuemax>3.98109</valuemax>
																<value>1</value>
															</parameter>
														</effect>
													</filter>
													<filter>
														<effect>
															<name>Audio Pan</name>
															<effectid>audiopan</effectid>
															<effectcategory>audiopan</effectcategory>
															<effecttype>audiopan</effecttype>
															<mediatype>audio</mediatype>
															<parameter>
																<name>Pan</name>
																<parameterid>pan</parameterid>
																<valuemin>-1</valuemin>
																<valuemax>1</valuemax>
																<value>0</value>
															</parameter>
														</effect>
													</filter>
													<sourcetrack>
														<mediatype>audio</mediatype>
														<trackindex>1</trackindex>
													</sourcetrack>
													<link>
														<linkclipref>Raw Interview Matthew Duepner469</linkclipref>
														<mediatype>video</mediatype>
														<trackindex>1</trackindex>
														<clipindex>26</clipindex>
													</link>
													<link>
														<linkclipref>Raw Interview Matthew Duepner470</linkclipref>
														<mediatype>audio</mediatype>
														<trackindex>1</trackindex>
														<clipindex>26</clipindex>
														<groupindex>1</groupindex>
													</link>
													<link>
														<linkclipref>Raw Interview Matthew Duepner471</linkclipref>
														<mediatype>audio</mediatype>
														<trackindex>2</trackindex>
														<clipindex>26</clipindex>
														<groupindex>1</groupindex>
													</link>
													<itemhistory>
														<uuid>A85BD1C6-FE8C-46D6-91D6-A696B078FAAF</uuid>
													</itemhistory>
												</clipitem>
												<clipitem id="Raw Interview Matthew Duepner473">
													<name>Raw Interview Matthew Duepner</name>
													<duration>81486</duration>
													<rate>
														<ntsc>TRUE</ntsc>
														<timebase>24</timebase>
													</rate>
													<in>19602</in>
													<out>19780</out>
													<start>4676</start>
													<end>4854</end>
													<masterclipid>Raw Interview Matthew Duepner390</masterclipid>
													<logginginfo>
														<scene/>
														<shottake/>
														<lognote/>
														<good>FALSE</good>
													</logginginfo>
													<labels>
														<label2/>
													</labels>
													<comments>
														<mastercomment1/>
														<mastercomment2/>
														<mastercomment3/>
														<mastercomment4/>
													</comments>
													<file id="YIN_2013-05-28_LG-5 "/>
													<filter>
														<effect>
															<name>Audio Levels</name>
															<effectid>audiolevels</effectid>
															<effectcategory>audiolevels</effectcategory>
															<effecttype>audiolevels</effecttype>
															<mediatype>audio</mediatype>
															<parameter>
																<name>Level</name>
																<parameterid>level</parameterid>
																<valuemin>0</valuemin>
																<valuemax>3.98109</valuemax>
																<value>1</value>
															</parameter>
														</effect>
													</filter>
													<filter>
														<effect>
															<name>Audio Pan</name>
															<effectid>audiopan</effectid>
															<effectcategory>audiopan</effectcategory>
															<effecttype>audiopan</effecttype>
															<mediatype>audio</mediatype>
															<parameter>
																<name>Pan</name>
																<parameterid>pan</parameterid>
																<valuemin>-1</valuemin>
																<valuemax>1</valuemax>
																<value>0</value>
															</parameter>
														</effect>
													</filter>
													<sourcetrack>
														<mediatype>audio</mediatype>
														<trackindex>1</trackindex>
													</sourcetrack>
													<link>
														<linkclipref>Raw Interview Matthew Duepner472</linkclipref>
														<mediatype>video</mediatype>
														<trackindex>1</trackindex>
														<clipindex>27</clipindex>
													</link>
													<link>
														<linkclipref>Raw Interview Matthew Duepner473</linkclipref>
														<mediatype>audio</mediatype>
														<trackindex>1</trackindex>
														<clipindex>27</clipindex>
														<groupindex>1</groupindex>
													</link>
													<link>
														<linkclipref>Raw Interview Matthew Duepner474</linkclipref>
														<mediatype>audio</mediatype>
														<trackindex>2</trackindex>
														<clipindex>27</clipindex>
														<groupindex>1</groupindex>
													</link>
													<itemhistory>
														<uuid>4E181046-3F9E-4AAF-9235-DF6360BF2AA4</uuid>
													</itemhistory>
												</clipitem>
												<clipitem id="Raw Interview Matthew Duepner476">
													<name>Raw Interview Matthew Duepner</name>
													<duration>81486</duration>
													<rate>
														<ntsc>TRUE</ntsc>
														<timebase>24</timebase>
													</rate>
													<in>20313</in>
													<out>20815</out>
													<start>4854</start>
													<end>5356</end>
													<masterclipid>Raw Interview Matthew Duepner390</masterclipid>
													<logginginfo>
														<scene/>
														<shottake/>
														<lognote/>
														<good>FALSE</good>
													</logginginfo>
													<labels>
														<label2/>
													</labels>
													<comments>
														<mastercomment1/>
														<mastercomment2/>
														<mastercomment3/>
														<mastercomment4/>
													</comments>
													<file id="YIN_2013-05-28_LG-5 "/>
													<filter>
														<effect>
															<name>Audio Levels</name>
															<effectid>audiolevels</effectid>
															<effectcategory>audiolevels</effectcategory>
															<effecttype>audiolevels</effecttype>
															<mediatype>audio</mediatype>
															<parameter>
																<name>Level</name>
																<parameterid>level</parameterid>
																<valuemin>0</valuemin>
																<valuemax>3.98109</valuemax>
																<value>1</value>
															</parameter>
														</effect>
													</filter>
													<filter>
														<effect>
															<name>Audio Pan</name>
															<effectid>audiopan</effectid>
															<effectcategory>audiopan</effectcategory>
															<effecttype>audiopan</effecttype>
															<mediatype>audio</mediatype>
															<parameter>
																<name>Pan</name>
																<parameterid>pan</parameterid>
																<valuemin>-1</valuemin>
																<valuemax>1</valuemax>
																<value>0</value>
															</parameter>
														</effect>
													</filter>
													<sourcetrack>
														<mediatype>audio</mediatype>
														<trackindex>1</trackindex>
													</sourcetrack>
													<link>
														<linkclipref>Raw Interview Matthew Duepner475</linkclipref>
														<mediatype>video</mediatype>
														<trackindex>1</trackindex>
														<clipindex>28</clipindex>
													</link>
													<link>
														<linkclipref>Raw Interview Matthew Duepner476</linkclipref>
														<mediatype>audio</mediatype>
														<trackindex>1</trackindex>
														<clipindex>28</clipindex>
														<groupindex>1</groupindex>
													</link>
													<link>
														<linkclipref>Raw Interview Matthew Duepner477</linkclipref>
														<mediatype>audio</mediatype>
														<trackindex>2</trackindex>
														<clipindex>28</clipindex>
														<groupindex>1</groupindex>
													</link>
													<itemhistory>
														<uuid>B611EDD0-DCB5-4DFF-832F-42537CD4B2F0</uuid>
													</itemhistory>
												</clipitem>
												<clipitem id="Raw Interview Matthew Duepner479">
													<name>Raw Interview Matthew Duepner</name>
													<duration>81486</duration>
													<rate>
														<ntsc>TRUE</ntsc>
														<timebase>24</timebase>
													</rate>
													<in>20982</in>
													<out>21125</out>
													<start>5356</start>
													<end>5499</end>
													<masterclipid>Raw Interview Matthew Duepner390</masterclipid>
													<logginginfo>
														<scene/>
														<shottake/>
														<lognote/>
														<good>FALSE</good>
													</logginginfo>
													<labels>
														<label2/>
													</labels>
													<comments>
														<mastercomment1/>
														<mastercomment2/>
														<mastercomment3/>
														<mastercomment4/>
													</comments>
													<file id="YIN_2013-05-28_LG-5 "/>
													<filter>
														<effect>
															<name>Audio Levels</name>
															<effectid>audiolevels</effectid>
															<effectcategory>audiolevels</effectcategory>
															<effecttype>audiolevels</effecttype>
															<mediatype>audio</mediatype>
															<parameter>
																<name>Level</name>
																<parameterid>level</parameterid>
																<valuemin>0</valuemin>
																<valuemax>3.98109</valuemax>
																<value>1</value>
															</parameter>
														</effect>
													</filter>
													<filter>
														<effect>
															<name>Audio Pan</name>
															<effectid>audiopan</effectid>
															<effectcategory>audiopan</effectcategory>
															<effecttype>audiopan</effecttype>
															<mediatype>audio</mediatype>
															<parameter>
																<name>Pan</name>
																<parameterid>pan</parameterid>
																<valuemin>-1</valuemin>
																<valuemax>1</valuemax>
																<value>0</value>
															</parameter>
														</effect>
													</filter>
													<sourcetrack>
														<mediatype>audio</mediatype>
														<trackindex>1</trackindex>
													</sourcetrack>
													<link>
														<linkclipref>Raw Interview Matthew Duepner478</linkclipref>
														<mediatype>video</mediatype>
														<trackindex>1</trackindex>
														<clipindex>29</clipindex>
													</link>
													<link>
														<linkclipref>Raw Interview Matthew Duepner479</linkclipref>
														<mediatype>audio</mediatype>
														<trackindex>1</trackindex>
														<clipindex>29</clipindex>
														<groupindex>1</groupindex>
													</link>
													<link>
														<linkclipref>Raw Interview Matthew Duepner480</linkclipref>
														<mediatype>audio</mediatype>
														<trackindex>2</trackindex>
														<clipindex>29</clipindex>
														<groupindex>1</groupindex>
													</link>
													<itemhistory>
														<uuid>2AC20AD1-426E-401E-B90B-F1E323E94A2F</uuid>
													</itemhistory>
												</clipitem>
												<clipitem id="Raw Interview Matthew Duepner482">
													<name>Raw Interview Matthew Duepner</name>
													<duration>81486</duration>
													<rate>
														<ntsc>TRUE</ntsc>
														<timebase>24</timebase>
													</rate>
													<in>21684</in>
													<out>21826</out>
													<start>5499</start>
													<end>5641</end>
													<masterclipid>Raw Interview Matthew Duepner390</masterclipid>
													<logginginfo>
														<scene/>
														<shottake/>
														<lognote/>
														<good>FALSE</good>
													</logginginfo>
													<labels>
														<label2/>
													</labels>
													<comments>
														<mastercomment1/>
														<mastercomment2/>
														<mastercomment3/>
														<mastercomment4/>
													</comments>
													<file id="YIN_2013-05-28_LG-5 "/>
													<filter>
														<effect>
															<name>Audio Levels</name>
															<effectid>audiolevels</effectid>
															<effectcategory>audiolevels</effectcategory>
															<effecttype>audiolevels</effecttype>
															<mediatype>audio</mediatype>
															<parameter>
																<name>Level</name>
																<parameterid>level</parameterid>
																<valuemin>0</valuemin>
																<valuemax>3.98109</valuemax>
																<value>1</value>
															</parameter>
														</effect>
													</filter>
													<filter>
														<effect>
															<name>Audio Pan</name>
															<effectid>audiopan</effectid>
															<effectcategory>audiopan</effectcategory>
															<effecttype>audiopan</effecttype>
															<mediatype>audio</mediatype>
															<parameter>
																<name>Pan</name>
																<parameterid>pan</parameterid>
																<valuemin>-1</valuemin>
																<valuemax>1</valuemax>
																<value>0</value>
															</parameter>
														</effect>
													</filter>
													<sourcetrack>
														<mediatype>audio</mediatype>
														<trackindex>1</trackindex>
													</sourcetrack>
													<link>
														<linkclipref>Raw Interview Matthew Duepner481</linkclipref>
														<mediatype>video</mediatype>
														<trackindex>1</trackindex>
														<clipindex>30</clipindex>
													</link>
													<link>
														<linkclipref>Raw Interview Matthew Duepner482</linkclipref>
														<mediatype>audio</mediatype>
														<trackindex>1</trackindex>
														<clipindex>30</clipindex>
														<groupindex>1</groupindex>
													</link>
													<link>
														<linkclipref>Raw Interview Matthew Duepner483</linkclipref>
														<mediatype>audio</mediatype>
														<trackindex>2</trackindex>
														<clipindex>30</clipindex>
														<groupindex>1</groupindex>
													</link>
													<itemhistory>
														<uuid>B9120A35-84D8-4E1E-AC62-50CA4496DBF6</uuid>
													</itemhistory>
												</clipitem>
												<clipitem id="Raw Interview Matthew Duepner485">
													<name>Raw Interview Matthew Duepner</name>
													<duration>81486</duration>
													<rate>
														<ntsc>TRUE</ntsc>
														<timebase>24</timebase>
													</rate>
													<in>22225</in>
													<out>22353</out>
													<start>5641</start>
													<end>5769</end>
													<masterclipid>Raw Interview Matthew Duepner390</masterclipid>
													<logginginfo>
														<scene/>
														<shottake/>
														<lognote/>
														<good>FALSE</good>
													</logginginfo>
													<labels>
														<label2/>
													</labels>
													<comments>
														<mastercomment1/>
														<mastercomment2/>
														<mastercomment3/>
														<mastercomment4/>
													</comments>
													<file id="YIN_2013-05-28_LG-5 "/>
													<filter>
														<effect>
															<name>Audio Levels</name>
															<effectid>audiolevels</effectid>
															<effectcategory>audiolevels</effectcategory>
															<effecttype>audiolevels</effecttype>
															<mediatype>audio</mediatype>
															<parameter>
																<name>Level</name>
																<parameterid>level</parameterid>
																<valuemin>0</valuemin>
																<valuemax>3.98109</valuemax>
																<value>1</value>
															</parameter>
														</effect>
													</filter>
													<filter>
														<effect>
															<name>Audio Pan</name>
															<effectid>audiopan</effectid>
															<effectcategory>audiopan</effectcategory>
															<effecttype>audiopan</effecttype>
															<mediatype>audio</mediatype>
															<parameter>
																<name>Pan</name>
																<parameterid>pan</parameterid>
																<valuemin>-1</valuemin>
																<valuemax>1</valuemax>
																<value>0</value>
															</parameter>
														</effect>
													</filter>
													<sourcetrack>
														<mediatype>audio</mediatype>
														<trackindex>1</trackindex>
													</sourcetrack>
													<link>
														<linkclipref>Raw Interview Matthew Duepner484</linkclipref>
														<mediatype>video</mediatype>
														<trackindex>1</trackindex>
														<clipindex>31</clipindex>
													</link>
													<link>
														<linkclipref>Raw Interview Matthew Duepner485</linkclipref>
														<mediatype>audio</mediatype>
														<trackindex>1</trackindex>
														<clipindex>31</clipindex>
														<groupindex>1</groupindex>
													</link>
													<link>
														<linkclipref>Raw Interview Matthew Duepner486</linkclipref>
														<mediatype>audio</mediatype>
														<trackindex>2</trackindex>
														<clipindex>31</clipindex>
														<groupindex>1</groupindex>
													</link>
													<itemhistory>
														<uuid>180D7C72-938D-4846-A383-8FB9EC969DB1</uuid>
													</itemhistory>
												</clipitem>
												<clipitem id="Raw Interview Matthew Duepner488">
													<name>Raw Interview Matthew Duepner</name>
													<duration>81486</duration>
													<rate>
														<ntsc>TRUE</ntsc>
														<timebase>24</timebase>
													</rate>
													<in>22806</in>
													<out>23131</out>
													<start>5769</start>
													<end>6094</end>
													<masterclipid>Raw Interview Matthew Duepner390</masterclipid>
													<logginginfo>
														<scene/>
														<shottake/>
														<lognote/>
														<good>FALSE</good>
													</logginginfo>
													<labels>
														<label2/>
													</labels>
													<comments>
														<mastercomment1/>
														<mastercomment2/>
														<mastercomment3/>
														<mastercomment4/>
													</comments>
													<file id="YIN_2013-05-28_LG-5 "/>
													<filter>
														<effect>
															<name>Audio Levels</name>
															<effectid>audiolevels</effectid>
															<effectcategory>audiolevels</effectcategory>
															<effecttype>audiolevels</effecttype>
															<mediatype>audio</mediatype>
															<parameter>
																<name>Level</name>
																<parameterid>level</parameterid>
																<valuemin>0</valuemin>
																<valuemax>3.98109</valuemax>
																<value>1</value>
															</parameter>
														</effect>
													</filter>
													<filter>
														<effect>
															<name>Audio Pan</name>
															<effectid>audiopan</effectid>
															<effectcategory>audiopan</effectcategory>
															<effecttype>audiopan</effecttype>
															<mediatype>audio</mediatype>
															<parameter>
																<name>Pan</name>
																<parameterid>pan</parameterid>
																<valuemin>-1</valuemin>
																<valuemax>1</valuemax>
																<value>0</value>
															</parameter>
														</effect>
													</filter>
													<sourcetrack>
														<mediatype>audio</mediatype>
														<trackindex>1</trackindex>
													</sourcetrack>
													<link>
														<linkclipref>Raw Interview Matthew Duepner487</linkclipref>
														<mediatype>video</mediatype>
														<trackindex>1</trackindex>
														<clipindex>32</clipindex>
													</link>
													<link>
														<linkclipref>Raw Interview Matthew Duepner488</linkclipref>
														<mediatype>audio</mediatype>
														<trackindex>1</trackindex>
														<clipindex>32</clipindex>
														<groupindex>1</groupindex>
													</link>
													<link>
														<linkclipref>Raw Interview Matthew Duepner489</linkclipref>
														<mediatype>audio</mediatype>
														<trackindex>2</trackindex>
														<clipindex>32</clipindex>
														<groupindex>1</groupindex>
													</link>
													<itemhistory>
														<uuid>CEBDBBCA-F518-4067-9462-722E3D6332C9</uuid>
													</itemhistory>
												</clipitem>
												<clipitem id="Raw Interview Matthew Duepner491">
													<name>Raw Interview Matthew Duepner</name>
													<duration>81486</duration>
													<rate>
														<ntsc>TRUE</ntsc>
														<timebase>24</timebase>
													</rate>
													<in>24240</in>
													<out>24488</out>
													<start>6094</start>
													<end>6342</end>
													<masterclipid>Raw Interview Matthew Duepner390</masterclipid>
													<logginginfo>
														<scene/>
														<shottake/>
														<lognote/>
														<good>FALSE</good>
													</logginginfo>
													<labels>
														<label2/>
													</labels>
													<comments>
														<mastercomment1/>
														<mastercomment2/>
														<mastercomment3/>
														<mastercomment4/>
													</comments>
													<file id="YIN_2013-05-28_LG-5 "/>
													<filter>
														<effect>
															<name>Audio Levels</name>
															<effectid>audiolevels</effectid>
															<effectcategory>audiolevels</effectcategory>
															<effecttype>audiolevels</effecttype>
															<mediatype>audio</mediatype>
															<parameter>
																<name>Level</name>
																<parameterid>level</parameterid>
																<valuemin>0</valuemin>
																<valuemax>3.98109</valuemax>
																<value>1</value>
															</parameter>
														</effect>
													</filter>
													<filter>
														<effect>
															<name>Audio Pan</name>
															<effectid>audiopan</effectid>
															<effectcategory>audiopan</effectcategory>
															<effecttype>audiopan</effecttype>
															<mediatype>audio</mediatype>
															<parameter>
																<name>Pan</name>
																<parameterid>pan</parameterid>
																<valuemin>-1</valuemin>
																<valuemax>1</valuemax>
																<value>0</value>
															</parameter>
														</effect>
													</filter>
													<sourcetrack>
														<mediatype>audio</mediatype>
														<trackindex>1</trackindex>
													</sourcetrack>
													<link>
														<linkclipref>Raw Interview Matthew Duepner490</linkclipref>
														<mediatype>video</mediatype>
														<trackindex>1</trackindex>
														<clipindex>33</clipindex>
													</link>
													<link>
														<linkclipref>Raw Interview Matthew Duepner491</linkclipref>
														<mediatype>audio</mediatype>
														<trackindex>1</trackindex>
														<clipindex>33</clipindex>
														<groupindex>1</groupindex>
													</link>
													<link>
														<linkclipref>Raw Interview Matthew Duepner492</linkclipref>
														<mediatype>audio</mediatype>
														<trackindex>2</trackindex>
														<clipindex>33</clipindex>
														<groupindex>1</groupindex>
													</link>
													<itemhistory>
														<uuid>8BD63601-EC42-4F59-ABD4-09F9292CAC49</uuid>
													</itemhistory>
												</clipitem>
												<clipitem id="Raw Interview Matthew Duepner494">
													<name>Raw Interview Matthew Duepner</name>
													<duration>81486</duration>
													<rate>
														<ntsc>TRUE</ntsc>
														<timebase>24</timebase>
													</rate>
													<in>24734</in>
													<out>25029</out>
													<start>6342</start>
													<end>6637</end>
													<masterclipid>Raw Interview Matthew Duepner390</masterclipid>
													<logginginfo>
														<scene/>
														<shottake/>
														<lognote/>
														<good>FALSE</good>
													</logginginfo>
													<labels>
														<label2/>
													</labels>
													<comments>
														<mastercomment1/>
														<mastercomment2/>
														<mastercomment3/>
														<mastercomment4/>
													</comments>
													<file id="YIN_2013-05-28_LG-5 "/>
													<filter>
														<effect>
															<name>Audio Levels</name>
															<effectid>audiolevels</effectid>
															<effectcategory>audiolevels</effectcategory>
															<effecttype>audiolevels</effecttype>
															<mediatype>audio</mediatype>
															<parameter>
																<name>Level</name>
																<parameterid>level</parameterid>
																<valuemin>0</valuemin>
																<valuemax>3.98109</valuemax>
																<value>1</value>
															</parameter>
														</effect>
													</filter>
													<filter>
														<effect>
															<name>Audio Pan</name>
															<effectid>audiopan</effectid>
															<effectcategory>audiopan</effectcategory>
															<effecttype>audiopan</effecttype>
															<mediatype>audio</mediatype>
															<parameter>
																<name>Pan</name>
																<parameterid>pan</parameterid>
																<valuemin>-1</valuemin>
																<valuemax>1</valuemax>
																<value>0</value>
															</parameter>
														</effect>
													</filter>
													<sourcetrack>
														<mediatype>audio</mediatype>
														<trackindex>1</trackindex>
													</sourcetrack>
													<link>
														<linkclipref>Raw Interview Matthew Duepner493</linkclipref>
														<mediatype>video</mediatype>
														<trackindex>1</trackindex>
														<clipindex>34</clipindex>
													</link>
													<link>
														<linkclipref>Raw Interview Matthew Duepner494</linkclipref>
														<mediatype>audio</mediatype>
														<trackindex>1</trackindex>
														<clipindex>34</clipindex>
														<groupindex>1</groupindex>
													</link>
													<link>
														<linkclipref>Raw Interview Matthew Duepner495</linkclipref>
														<mediatype>audio</mediatype>
														<trackindex>2</trackindex>
														<clipindex>34</clipindex>
														<groupindex>1</groupindex>
													</link>
													<itemhistory>
														<uuid>2BE8235D-6E89-4770-9777-35A149CFE1BB</uuid>
													</itemhistory>
												</clipitem>
												<clipitem id="Raw Interview Matthew Duepner497">
													<name>Raw Interview Matthew Duepner</name>
													<duration>81486</duration>
													<rate>
														<ntsc>TRUE</ntsc>
														<timebase>24</timebase>
													</rate>
													<in>25948</in>
													<out>26160</out>
													<start>6637</start>
													<end>6849</end>
													<masterclipid>Raw Interview Matthew Duepner390</masterclipid>
													<logginginfo>
														<scene/>
														<shottake/>
														<lognote/>
														<good>FALSE</good>
													</logginginfo>
													<labels>
														<label2/>
													</labels>
													<comments>
														<mastercomment1/>
														<mastercomment2/>
														<mastercomment3/>
														<mastercomment4/>
													</comments>
													<file id="YIN_2013-05-28_LG-5 "/>
													<filter>
														<effect>
															<name>Audio Levels</name>
															<effectid>audiolevels</effectid>
															<effectcategory>audiolevels</effectcategory>
															<effecttype>audiolevels</effecttype>
															<mediatype>audio</mediatype>
															<parameter>
																<name>Level</name>
																<parameterid>level</parameterid>
																<valuemin>0</valuemin>
																<valuemax>3.98109</valuemax>
																<value>1</value>
															</parameter>
														</effect>
													</filter>
													<filter>
														<effect>
															<name>Audio Pan</name>
															<effectid>audiopan</effectid>
															<effectcategory>audiopan</effectcategory>
															<effecttype>audiopan</effecttype>
															<mediatype>audio</mediatype>
															<parameter>
																<name>Pan</name>
																<parameterid>pan</parameterid>
																<valuemin>-1</valuemin>
																<valuemax>1</valuemax>
																<value>0</value>
															</parameter>
														</effect>
													</filter>
													<sourcetrack>
														<mediatype>audio</mediatype>
														<trackindex>1</trackindex>
													</sourcetrack>
													<link>
														<linkclipref>Raw Interview Matthew Duepner496</linkclipref>
														<mediatype>video</mediatype>
														<trackindex>1</trackindex>
														<clipindex>35</clipindex>
													</link>
													<link>
														<linkclipref>Raw Interview Matthew Duepner497</linkclipref>
														<mediatype>audio</mediatype>
														<trackindex>1</trackindex>
														<clipindex>35</clipindex>
														<groupindex>1</groupindex>
													</link>
													<link>
														<linkclipref>Raw Interview Matthew Duepner498</linkclipref>
														<mediatype>audio</mediatype>
														<trackindex>2</trackindex>
														<clipindex>35</clipindex>
														<groupindex>1</groupindex>
													</link>
													<itemhistory>
														<uuid>A0AFF4D4-70D7-40DC-A47D-DDCF5543385E</uuid>
													</itemhistory>
												</clipitem>
												<clipitem id="Raw Interview Matthew Duepner500">
													<name>Raw Interview Matthew Duepner</name>
													<duration>81486</duration>
													<rate>
														<ntsc>TRUE</ntsc>
														<timebase>24</timebase>
													</rate>
													<in>26630</in>
													<out>26790</out>
													<start>6849</start>
													<end>7009</end>
													<masterclipid>Raw Interview Matthew Duepner390</masterclipid>
													<logginginfo>
														<scene/>
														<shottake/>
														<lognote/>
														<good>FALSE</good>
													</logginginfo>
													<labels>
														<label2/>
													</labels>
													<comments>
														<mastercomment1/>
														<mastercomment2/>
														<mastercomment3/>
														<mastercomment4/>
													</comments>
													<file id="YIN_2013-05-28_LG-5 "/>
													<filter>
														<effect>
															<name>Audio Levels</name>
															<effectid>audiolevels</effectid>
															<effectcategory>audiolevels</effectcategory>
															<effecttype>audiolevels</effecttype>
															<mediatype>audio</mediatype>
															<parameter>
																<name>Level</name>
																<parameterid>level</parameterid>
																<valuemin>0</valuemin>
																<valuemax>3.98109</valuemax>
																<value>1</value>
															</parameter>
														</effect>
													</filter>
													<filter>
														<effect>
															<name>Audio Pan</name>
															<effectid>audiopan</effectid>
															<effectcategory>audiopan</effectcategory>
															<effecttype>audiopan</effecttype>
															<mediatype>audio</mediatype>
															<parameter>
																<name>Pan</name>
																<parameterid>pan</parameterid>
																<valuemin>-1</valuemin>
																<valuemax>1</valuemax>
																<value>0</value>
															</parameter>
														</effect>
													</filter>
													<sourcetrack>
														<mediatype>audio</mediatype>
														<trackindex>1</trackindex>
													</sourcetrack>
													<link>
														<linkclipref>Raw Interview Matthew Duepner499</linkclipref>
														<mediatype>video</mediatype>
														<trackindex>1</trackindex>
														<clipindex>36</clipindex>
													</link>
													<link>
														<linkclipref>Raw Interview Matthew Duepner500</linkclipref>
														<mediatype>audio</mediatype>
														<trackindex>1</trackindex>
														<clipindex>36</clipindex>
														<groupindex>1</groupindex>
													</link>
													<link>
														<linkclipref>Raw Interview Matthew Duepner501</linkclipref>
														<mediatype>audio</mediatype>
														<trackindex>2</trackindex>
														<clipindex>36</clipindex>
														<groupindex>1</groupindex>
													</link>
													<itemhistory>
														<uuid>430D73A7-78F4-41AB-BB6A-4FEF2D3F662F</uuid>
													</itemhistory>
												</clipitem>
												<clipitem id="Raw Interview Matthew Duepner503">
													<name>Raw Interview Matthew Duepner</name>
													<duration>81486</duration>
													<rate>
														<ntsc>TRUE</ntsc>
														<timebase>24</timebase>
													</rate>
													<in>27080</in>
													<out>27302</out>
													<start>7009</start>
													<end>7231</end>
													<masterclipid>Raw Interview Matthew Duepner390</masterclipid>
													<logginginfo>
														<scene/>
														<shottake/>
														<lognote/>
														<good>FALSE</good>
													</logginginfo>
													<labels>
														<label2/>
													</labels>
													<comments>
														<mastercomment1/>
														<mastercomment2/>
														<mastercomment3/>
														<mastercomment4/>
													</comments>
													<file id="YIN_2013-05-28_LG-5 "/>
													<filter>
														<effect>
															<name>Audio Levels</name>
															<effectid>audiolevels</effectid>
															<effectcategory>audiolevels</effectcategory>
															<effecttype>audiolevels</effecttype>
															<mediatype>audio</mediatype>
															<parameter>
																<name>Level</name>
																<parameterid>level</parameterid>
																<valuemin>0</valuemin>
																<valuemax>3.98109</valuemax>
																<value>1</value>
															</parameter>
														</effect>
													</filter>
													<filter>
														<effect>
															<name>Audio Pan</name>
															<effectid>audiopan</effectid>
															<effectcategory>audiopan</effectcategory>
															<effecttype>audiopan</effecttype>
															<mediatype>audio</mediatype>
															<parameter>
																<name>Pan</name>
																<parameterid>pan</parameterid>
																<valuemin>-1</valuemin>
																<valuemax>1</valuemax>
																<value>0</value>
															</parameter>
														</effect>
													</filter>
													<sourcetrack>
														<mediatype>audio</mediatype>
														<trackindex>1</trackindex>
													</sourcetrack>
													<link>
														<linkclipref>Raw Interview Matthew Duepner502</linkclipref>
														<mediatype>video</mediatype>
														<trackindex>1</trackindex>
														<clipindex>37</clipindex>
													</link>
													<link>
														<linkclipref>Raw Interview Matthew Duepner503</linkclipref>
														<mediatype>audio</mediatype>
														<trackindex>1</trackindex>
														<clipindex>37</clipindex>
														<groupindex>1</groupindex>
													</link>
													<link>
														<linkclipref>Raw Interview Matthew Duepner504</linkclipref>
														<mediatype>audio</mediatype>
														<trackindex>2</trackindex>
														<clipindex>37</clipindex>
														<groupindex>1</groupindex>
													</link>
													<itemhistory>
														<uuid>60E49213-9EB2-4208-A32A-D4C56C8EB2D0</uuid>
													</itemhistory>
												</clipitem>
												<clipitem id="Raw Interview Matthew Duepner506">
													<name>Raw Interview Matthew Duepner</name>
													<duration>81486</duration>
													<rate>
														<ntsc>TRUE</ntsc>
														<timebase>24</timebase>
													</rate>
													<in>28282</in>
													<out>28619</out>
													<start>7231</start>
													<end>7568</end>
													<masterclipid>Raw Interview Matthew Duepner390</masterclipid>
													<logginginfo>
														<scene/>
														<shottake/>
														<lognote/>
														<good>FALSE</good>
													</logginginfo>
													<labels>
														<label2/>
													</labels>
													<comments>
														<mastercomment1/>
														<mastercomment2/>
														<mastercomment3/>
														<mastercomment4/>
													</comments>
													<file id="YIN_2013-05-28_LG-5 "/>
													<filter>
														<effect>
															<name>Audio Levels</name>
															<effectid>audiolevels</effectid>
															<effectcategory>audiolevels</effectcategory>
															<effecttype>audiolevels</effecttype>
															<mediatype>audio</mediatype>
															<parameter>
																<name>Level</name>
																<parameterid>level</parameterid>
																<valuemin>0</valuemin>
																<valuemax>3.98109</valuemax>
																<value>1</value>
															</parameter>
														</effect>
													</filter>
													<filter>
														<effect>
															<name>Audio Pan</name>
															<effectid>audiopan</effectid>
															<effectcategory>audiopan</effectcategory>
															<effecttype>audiopan</effecttype>
															<mediatype>audio</mediatype>
															<parameter>
																<name>Pan</name>
																<parameterid>pan</parameterid>
																<valuemin>-1</valuemin>
																<valuemax>1</valuemax>
																<value>0</value>
															</parameter>
														</effect>
													</filter>
													<sourcetrack>
														<mediatype>audio</mediatype>
														<trackindex>1</trackindex>
													</sourcetrack>
													<link>
														<linkclipref>Raw Interview Matthew Duepner505</linkclipref>
														<mediatype>video</mediatype>
														<trackindex>1</trackindex>
														<clipindex>38</clipindex>
													</link>
													<link>
														<linkclipref>Raw Interview Matthew Duepner506</linkclipref>
														<mediatype>audio</mediatype>
														<trackindex>1</trackindex>
														<clipindex>38</clipindex>
														<groupindex>1</groupindex>
													</link>
													<link>
														<linkclipref>Raw Interview Matthew Duepner507</linkclipref>
														<mediatype>audio</mediatype>
														<trackindex>2</trackindex>
														<clipindex>38</clipindex>
														<groupindex>1</groupindex>
													</link>
													<itemhistory>
														<uuid>72DB61B3-3E7A-4B7F-9756-2EBF4F5E0636</uuid>
													</itemhistory>
												</clipitem>
												<clipitem id="Raw Interview Matthew Duepner509">
													<name>Raw Interview Matthew Duepner</name>
													<duration>81486</duration>
													<rate>
														<ntsc>TRUE</ntsc>
														<timebase>24</timebase>
													</rate>
													<in>38283</in>
													<out>38784</out>
													<start>7568</start>
													<end>8069</end>
													<masterclipid>Raw Interview Matthew Duepner390</masterclipid>
													<logginginfo>
														<scene/>
														<shottake/>
														<lognote/>
														<good>FALSE</good>
													</logginginfo>
													<labels>
														<label2/>
													</labels>
													<comments>
														<mastercomment1/>
														<mastercomment2/>
														<mastercomment3/>
														<mastercomment4/>
													</comments>
													<file id="YIN_2013-05-28_LG-5 "/>
													<filter>
														<effect>
															<name>Audio Levels</name>
															<effectid>audiolevels</effectid>
															<effectcategory>audiolevels</effectcategory>
															<effecttype>audiolevels</effecttype>
															<mediatype>audio</mediatype>
															<parameter>
																<name>Level</name>
																<parameterid>level</parameterid>
																<valuemin>0</valuemin>
																<valuemax>3.98109</valuemax>
																<value>1</value>
															</parameter>
														</effect>
													</filter>
													<filter>
														<effect>
															<name>Audio Pan</name>
															<effectid>audiopan</effectid>
															<effectcategory>audiopan</effectcategory>
															<effecttype>audiopan</effecttype>
															<mediatype>audio</mediatype>
															<parameter>
																<name>Pan</name>
																<parameterid>pan</parameterid>
																<valuemin>-1</valuemin>
																<valuemax>1</valuemax>
																<value>0</value>
															</parameter>
														</effect>
													</filter>
													<sourcetrack>
														<mediatype>audio</mediatype>
														<trackindex>1</trackindex>
													</sourcetrack>
													<link>
														<linkclipref>Raw Interview Matthew Duepner508</linkclipref>
														<mediatype>video</mediatype>
														<trackindex>1</trackindex>
														<clipindex>39</clipindex>
													</link>
													<link>
														<linkclipref>Raw Interview Matthew Duepner509</linkclipref>
														<mediatype>audio</mediatype>
														<trackindex>1</trackindex>
														<clipindex>39</clipindex>
														<groupindex>1</groupindex>
													</link>
													<link>
														<linkclipref>Raw Interview Matthew Duepner510</linkclipref>
														<mediatype>audio</mediatype>
														<trackindex>2</trackindex>
														<clipindex>39</clipindex>
														<groupindex>1</groupindex>
													</link>
													<itemhistory>
														<uuid>E08AE578-9E17-4397-BFC9-D41149F6085C</uuid>
													</itemhistory>
												</clipitem>
												<clipitem id="Raw Interview Matthew Duepner512">
													<name>Raw Interview Matthew Duepner</name>
													<duration>81486</duration>
													<rate>
														<ntsc>TRUE</ntsc>
														<timebase>24</timebase>
													</rate>
													<in>43670</in>
													<out>43863</out>
													<start>8069</start>
													<end>8262</end>
													<masterclipid>Raw Interview Matthew Duepner390</masterclipid>
													<logginginfo>
														<scene/>
														<shottake/>
														<lognote/>
														<good>FALSE</good>
													</logginginfo>
													<labels>
														<label2/>
													</labels>
													<comments>
														<mastercomment1/>
														<mastercomment2/>
														<mastercomment3/>
														<mastercomment4/>
													</comments>
													<file id="YIN_2013-05-28_LG-5 "/>
													<filter>
														<effect>
															<name>Audio Levels</name>
															<effectid>audiolevels</effectid>
															<effectcategory>audiolevels</effectcategory>
															<effecttype>audiolevels</effecttype>
															<mediatype>audio</mediatype>
															<parameter>
																<name>Level</name>
																<parameterid>level</parameterid>
																<valuemin>0</valuemin>
																<valuemax>3.98109</valuemax>
																<value>1</value>
															</parameter>
														</effect>
													</filter>
													<filter>
														<effect>
															<name>Audio Pan</name>
															<effectid>audiopan</effectid>
															<effectcategory>audiopan</effectcategory>
															<effecttype>audiopan</effecttype>
															<mediatype>audio</mediatype>
															<parameter>
																<name>Pan</name>
																<parameterid>pan</parameterid>
																<valuemin>-1</valuemin>
																<valuemax>1</valuemax>
																<value>0</value>
															</parameter>
														</effect>
													</filter>
													<sourcetrack>
														<mediatype>audio</mediatype>
														<trackindex>1</trackindex>
													</sourcetrack>
													<link>
														<linkclipref>Raw Interview Matthew Duepner511</linkclipref>
														<mediatype>video</mediatype>
														<trackindex>1</trackindex>
														<clipindex>40</clipindex>
													</link>
													<link>
														<linkclipref>Raw Interview Matthew Duepner512</linkclipref>
														<mediatype>audio</mediatype>
														<trackindex>1</trackindex>
														<clipindex>40</clipindex>
														<groupindex>1</groupindex>
													</link>
													<link>
														<linkclipref>Raw Interview Matthew Duepner513</linkclipref>
														<mediatype>audio</mediatype>
														<trackindex>2</trackindex>
														<clipindex>40</clipindex>
														<groupindex>1</groupindex>
													</link>
													<itemhistory>
														<uuid>716B0F66-B731-408E-B463-2A09081C83F4</uuid>
													</itemhistory>
												</clipitem>
												<clipitem id="Raw Interview Matthew Duepner515">
													<name>Raw Interview Matthew Duepner</name>
													<duration>81486</duration>
													<rate>
														<ntsc>TRUE</ntsc>
														<timebase>24</timebase>
													</rate>
													<in>50956</in>
													<out>51052</out>
													<start>8262</start>
													<end>8358</end>
													<masterclipid>Raw Interview Matthew Duepner390</masterclipid>
													<logginginfo>
														<scene/>
														<shottake/>
														<lognote/>
														<good>FALSE</good>
													</logginginfo>
													<labels>
														<label2/>
													</labels>
													<comments>
														<mastercomment1/>
														<mastercomment2/>
														<mastercomment3/>
														<mastercomment4/>
													</comments>
													<file id="YIN_2013-05-28_LG-5 "/>
													<filter>
														<effect>
															<name>Audio Levels</name>
															<effectid>audiolevels</effectid>
															<effectcategory>audiolevels</effectcategory>
															<effecttype>audiolevels</effecttype>
															<mediatype>audio</mediatype>
															<parameter>
																<name>Level</name>
																<parameterid>level</parameterid>
																<valuemin>0</valuemin>
																<valuemax>3.98109</valuemax>
																<value>1</value>
															</parameter>
														</effect>
													</filter>
													<filter>
														<effect>
															<name>Audio Pan</name>
															<effectid>audiopan</effectid>
															<effectcategory>audiopan</effectcategory>
															<effecttype>audiopan</effecttype>
															<mediatype>audio</mediatype>
															<parameter>
																<name>Pan</name>
																<parameterid>pan</parameterid>
																<valuemin>-1</valuemin>
																<valuemax>1</valuemax>
																<value>0</value>
															</parameter>
														</effect>
													</filter>
													<sourcetrack>
														<mediatype>audio</mediatype>
														<trackindex>1</trackindex>
													</sourcetrack>
													<link>
														<linkclipref>Raw Interview Matthew Duepner514</linkclipref>
														<mediatype>video</mediatype>
														<trackindex>1</trackindex>
														<clipindex>41</clipindex>
													</link>
													<link>
														<linkclipref>Raw Interview Matthew Duepner515</linkclipref>
														<mediatype>audio</mediatype>
														<trackindex>1</trackindex>
														<clipindex>41</clipindex>
														<groupindex>1</groupindex>
													</link>
													<link>
														<linkclipref>Raw Interview Matthew Duepner516</linkclipref>
														<mediatype>audio</mediatype>
														<trackindex>2</trackindex>
														<clipindex>41</clipindex>
														<groupindex>1</groupindex>
													</link>
													<itemhistory>
														<uuid>B5B3C5B2-E4AA-4087-B4FC-866E632C1549</uuid>
													</itemhistory>
												</clipitem>
												<clipitem id="Raw Interview Matthew Duepner518">
													<name>Raw Interview Matthew Duepner</name>
													<duration>81486</duration>
													<rate>
														<ntsc>TRUE</ntsc>
														<timebase>24</timebase>
													</rate>
													<in>51376</in>
													<out>51520</out>
													<start>8358</start>
													<end>8502</end>
													<masterclipid>Raw Interview Matthew Duepner390</masterclipid>
													<logginginfo>
														<scene/>
														<shottake/>
														<lognote/>
														<good>FALSE</good>
													</logginginfo>
													<labels>
														<label2/>
													</labels>
													<comments>
														<mastercomment1/>
														<mastercomment2/>
														<mastercomment3/>
														<mastercomment4/>
													</comments>
													<file id="YIN_2013-05-28_LG-5 "/>
													<filter>
														<effect>
															<name>Audio Levels</name>
															<effectid>audiolevels</effectid>
															<effectcategory>audiolevels</effectcategory>
															<effecttype>audiolevels</effecttype>
															<mediatype>audio</mediatype>
															<parameter>
																<name>Level</name>
																<parameterid>level</parameterid>
																<valuemin>0</valuemin>
																<valuemax>3.98109</valuemax>
																<value>1</value>
															</parameter>
														</effect>
													</filter>
													<filter>
														<effect>
															<name>Audio Pan</name>
															<effectid>audiopan</effectid>
															<effectcategory>audiopan</effectcategory>
															<effecttype>audiopan</effecttype>
															<mediatype>audio</mediatype>
															<parameter>
																<name>Pan</name>
																<parameterid>pan</parameterid>
																<valuemin>-1</valuemin>
																<valuemax>1</valuemax>
																<value>0</value>
															</parameter>
														</effect>
													</filter>
													<sourcetrack>
														<mediatype>audio</mediatype>
														<trackindex>1</trackindex>
													</sourcetrack>
													<link>
														<linkclipref>Raw Interview Matthew Duepner517</linkclipref>
														<mediatype>video</mediatype>
														<trackindex>1</trackindex>
														<clipindex>42</clipindex>
													</link>
													<link>
														<linkclipref>Raw Interview Matthew Duepner518</linkclipref>
														<mediatype>audio</mediatype>
														<trackindex>1</trackindex>
														<clipindex>42</clipindex>
														<groupindex>1</groupindex>
													</link>
													<link>
														<linkclipref>Raw Interview Matthew Duepner519</linkclipref>
														<mediatype>audio</mediatype>
														<trackindex>2</trackindex>
														<clipindex>42</clipindex>
														<groupindex>1</groupindex>
													</link>
													<itemhistory>
														<uuid>30EC122D-1ADE-4A59-B551-FF63C34F9648</uuid>
													</itemhistory>
												</clipitem>
												<clipitem id="Raw Interview Matthew Duepner521">
													<name>Raw Interview Matthew Duepner</name>
													<duration>81486</duration>
													<rate>
														<ntsc>TRUE</ntsc>
														<timebase>24</timebase>
													</rate>
													<in>51892</in>
													<out>52054</out>
													<start>8502</start>
													<end>8664</end>
													<masterclipid>Raw Interview Matthew Duepner390</masterclipid>
													<logginginfo>
														<scene/>
														<shottake/>
														<lognote/>
														<good>FALSE</good>
													</logginginfo>
													<labels>
														<label2/>
													</labels>
													<comments>
														<mastercomment1/>
														<mastercomment2/>
														<mastercomment3/>
														<mastercomment4/>
													</comments>
													<file id="YIN_2013-05-28_LG-5 "/>
													<filter>
														<effect>
															<name>Audio Levels</name>
															<effectid>audiolevels</effectid>
															<effectcategory>audiolevels</effectcategory>
															<effecttype>audiolevels</effecttype>
															<mediatype>audio</mediatype>
															<parameter>
																<name>Level</name>
																<parameterid>level</parameterid>
																<valuemin>0</valuemin>
																<valuemax>3.98109</valuemax>
																<value>1</value>
															</parameter>
														</effect>
													</filter>
													<filter>
														<effect>
															<name>Audio Pan</name>
															<effectid>audiopan</effectid>
															<effectcategory>audiopan</effectcategory>
															<effecttype>audiopan</effecttype>
															<mediatype>audio</mediatype>
															<parameter>
																<name>Pan</name>
																<parameterid>pan</parameterid>
																<valuemin>-1</valuemin>
																<valuemax>1</valuemax>
																<value>0</value>
															</parameter>
														</effect>
													</filter>
													<sourcetrack>
														<mediatype>audio</mediatype>
														<trackindex>1</trackindex>
													</sourcetrack>
													<link>
														<linkclipref>Raw Interview Matthew Duepner520</linkclipref>
														<mediatype>video</mediatype>
														<trackindex>1</trackindex>
														<clipindex>43</clipindex>
													</link>
													<link>
														<linkclipref>Raw Interview Matthew Duepner521</linkclipref>
														<mediatype>audio</mediatype>
														<trackindex>1</trackindex>
														<clipindex>43</clipindex>
														<groupindex>1</groupindex>
													</link>
													<link>
														<linkclipref>Raw Interview Matthew Duepner522</linkclipref>
														<mediatype>audio</mediatype>
														<trackindex>2</trackindex>
														<clipindex>43</clipindex>
														<groupindex>1</groupindex>
													</link>
													<itemhistory>
														<uuid>F30DF105-6403-40A8-80F1-02168BDDEF21</uuid>
													</itemhistory>
												</clipitem>
												<clipitem id="Raw Interview Matthew Duepner524">
													<name>Raw Interview Matthew Duepner</name>
													<duration>81486</duration>
													<rate>
														<ntsc>TRUE</ntsc>
														<timebase>24</timebase>
													</rate>
													<in>56083</in>
													<out>56203</out>
													<start>8664</start>
													<end>8784</end>
													<masterclipid>Raw Interview Matthew Duepner390</masterclipid>
													<logginginfo>
														<scene/>
														<shottake/>
														<lognote/>
														<good>FALSE</good>
													</logginginfo>
													<labels>
														<label2/>
													</labels>
													<comments>
														<mastercomment1/>
														<mastercomment2/>
														<mastercomment3/>
														<mastercomment4/>
													</comments>
													<file id="YIN_2013-05-28_LG-5 "/>
													<filter>
														<effect>
															<name>Audio Levels</name>
															<effectid>audiolevels</effectid>
															<effectcategory>audiolevels</effectcategory>
															<effecttype>audiolevels</effecttype>
															<mediatype>audio</mediatype>
															<parameter>
																<name>Level</name>
																<parameterid>level</parameterid>
																<valuemin>0</valuemin>
																<valuemax>3.98109</valuemax>
																<value>1</value>
															</parameter>
														</effect>
													</filter>
													<filter>
														<effect>
															<name>Audio Pan</name>
															<effectid>audiopan</effectid>
															<effectcategory>audiopan</effectcategory>
															<effecttype>audiopan</effecttype>
															<mediatype>audio</mediatype>
															<parameter>
																<name>Pan</name>
																<parameterid>pan</parameterid>
																<valuemin>-1</valuemin>
																<valuemax>1</valuemax>
																<value>0</value>
															</parameter>
														</effect>
													</filter>
													<sourcetrack>
														<mediatype>audio</mediatype>
														<trackindex>1</trackindex>
													</sourcetrack>
													<link>
														<linkclipref>Raw Interview Matthew Duepner523</linkclipref>
														<mediatype>video</mediatype>
														<trackindex>1</trackindex>
														<clipindex>44</clipindex>
													</link>
													<link>
														<linkclipref>Raw Interview Matthew Duepner524</linkclipref>
														<mediatype>audio</mediatype>
														<trackindex>1</trackindex>
														<clipindex>44</clipindex>
														<groupindex>1</groupindex>
													</link>
													<link>
														<linkclipref>Raw Interview Matthew Duepner525</linkclipref>
														<mediatype>audio</mediatype>
														<trackindex>2</trackindex>
														<clipindex>44</clipindex>
														<groupindex>1</groupindex>
													</link>
													<itemhistory>
														<uuid>AFCE5913-8609-4A8D-958F-557E2937797D</uuid>
													</itemhistory>
												</clipitem>
												<clipitem id="Raw Interview Matthew Duepner527">
													<name>Raw Interview Matthew Duepner</name>
													<duration>81486</duration>
													<rate>
														<ntsc>TRUE</ntsc>
														<timebase>24</timebase>
													</rate>
													<in>56334</in>
													<out>56423</out>
													<start>8784</start>
													<end>8873</end>
													<masterclipid>Raw Interview Matthew Duepner390</masterclipid>
													<logginginfo>
														<scene/>
														<shottake/>
														<lognote/>
														<good>FALSE</good>
													</logginginfo>
													<labels>
														<label2/>
													</labels>
													<comments>
														<mastercomment1/>
														<mastercomment2/>
														<mastercomment3/>
														<mastercomment4/>
													</comments>
													<file id="YIN_2013-05-28_LG-5 "/>
													<filter>
														<effect>
															<name>Audio Levels</name>
															<effectid>audiolevels</effectid>
															<effectcategory>audiolevels</effectcategory>
															<effecttype>audiolevels</effecttype>
															<mediatype>audio</mediatype>
															<parameter>
																<name>Level</name>
																<parameterid>level</parameterid>
																<valuemin>0</valuemin>
																<valuemax>3.98109</valuemax>
																<value>1</value>
															</parameter>
														</effect>
													</filter>
													<filter>
														<effect>
															<name>Audio Pan</name>
															<effectid>audiopan</effectid>
															<effectcategory>audiopan</effectcategory>
															<effecttype>audiopan</effecttype>
															<mediatype>audio</mediatype>
															<parameter>
																<name>Pan</name>
																<parameterid>pan</parameterid>
																<valuemin>-1</valuemin>
																<valuemax>1</valuemax>
																<value>0</value>
															</parameter>
														</effect>
													</filter>
													<sourcetrack>
														<mediatype>audio</mediatype>
														<trackindex>1</trackindex>
													</sourcetrack>
													<link>
														<linkclipref>Raw Interview Matthew Duepner526</linkclipref>
														<mediatype>video</mediatype>
														<trackindex>1</trackindex>
														<clipindex>45</clipindex>
													</link>
													<link>
														<linkclipref>Raw Interview Matthew Duepner527</linkclipref>
														<mediatype>audio</mediatype>
														<trackindex>1</trackindex>
														<clipindex>45</clipindex>
														<groupindex>1</groupindex>
													</link>
													<link>
														<linkclipref>Raw Interview Matthew Duepner528</linkclipref>
														<mediatype>audio</mediatype>
														<trackindex>2</trackindex>
														<clipindex>45</clipindex>
														<groupindex>1</groupindex>
													</link>
													<itemhistory>
														<uuid>751D61E8-3625-4D7C-9AF7-AA61E4894C42</uuid>
													</itemhistory>
												</clipitem>
												<clipitem id="Raw Interview Matthew Duepner530">
													<name>Raw Interview Matthew Duepner</name>
													<duration>81486</duration>
													<rate>
														<ntsc>TRUE</ntsc>
														<timebase>24</timebase>
													</rate>
													<in>57619</in>
													<out>57904</out>
													<start>8873</start>
													<end>9158</end>
													<masterclipid>Raw Interview Matthew Duepner390</masterclipid>
													<logginginfo>
														<scene/>
														<shottake/>
														<lognote/>
														<good>FALSE</good>
													</logginginfo>
													<labels>
														<label2/>
													</labels>
													<comments>
														<mastercomment1/>
														<mastercomment2/>
														<mastercomment3/>
														<mastercomment4/>
													</comments>
													<file id="YIN_2013-05-28_LG-5 "/>
													<filter>
														<effect>
															<name>Audio Levels</name>
															<effectid>audiolevels</effectid>
															<effectcategory>audiolevels</effectcategory>
															<effecttype>audiolevels</effecttype>
															<mediatype>audio</mediatype>
															<parameter>
																<name>Level</name>
																<parameterid>level</parameterid>
																<valuemin>0</valuemin>
																<valuemax>3.98109</valuemax>
																<value>1</value>
															</parameter>
														</effect>
													</filter>
													<filter>
														<effect>
															<name>Audio Pan</name>
															<effectid>audiopan</effectid>
															<effectcategory>audiopan</effectcategory>
															<effecttype>audiopan</effecttype>
															<mediatype>audio</mediatype>
															<parameter>
																<name>Pan</name>
																<parameterid>pan</parameterid>
																<valuemin>-1</valuemin>
																<valuemax>1</valuemax>
																<value>0</value>
															</parameter>
														</effect>
													</filter>
													<sourcetrack>
														<mediatype>audio</mediatype>
														<trackindex>1</trackindex>
													</sourcetrack>
													<link>
														<linkclipref>Raw Interview Matthew Duepner529</linkclipref>
														<mediatype>video</mediatype>
														<trackindex>1</trackindex>
														<clipindex>46</clipindex>
													</link>
													<link>
														<linkclipref>Raw Interview Matthew Duepner530</linkclipref>
														<mediatype>audio</mediatype>
														<trackindex>1</trackindex>
														<clipindex>46</clipindex>
														<groupindex>1</groupindex>
													</link>
													<link>
														<linkclipref>Raw Interview Matthew Duepner531</linkclipref>
														<mediatype>audio</mediatype>
														<trackindex>2</trackindex>
														<clipindex>46</clipindex>
														<groupindex>1</groupindex>
													</link>
													<itemhistory>
														<uuid>C5D69F95-E388-4A7C-BE19-2F35D62C0471</uuid>
													</itemhistory>
												</clipitem>
												<clipitem id="Raw Interview Matthew Duepner533">
													<name>Raw Interview Matthew Duepner</name>
													<duration>81486</duration>
													<rate>
														<ntsc>TRUE</ntsc>
														<timebase>24</timebase>
													</rate>
													<in>68841</in>
													<out>69079</out>
													<start>9158</start>
													<end>9396</end>
													<masterclipid>Raw Interview Matthew Duepner390</masterclipid>
													<logginginfo>
														<scene/>
														<shottake/>
														<lognote/>
														<good>FALSE</good>
													</logginginfo>
													<labels>
														<label2/>
													</labels>
													<comments>
														<mastercomment1/>
														<mastercomment2/>
														<mastercomment3/>
														<mastercomment4/>
													</comments>
													<file id="YIN_2013-05-28_LG-5 "/>
													<filter>
														<effect>
															<name>Audio Levels</name>
															<effectid>audiolevels</effectid>
															<effectcategory>audiolevels</effectcategory>
															<effecttype>audiolevels</effecttype>
															<mediatype>audio</mediatype>
															<parameter>
																<name>Level</name>
																<parameterid>level</parameterid>
																<valuemin>0</valuemin>
																<valuemax>3.98109</valuemax>
																<value>1</value>
															</parameter>
														</effect>
													</filter>
													<filter>
														<effect>
															<name>Audio Pan</name>
															<effectid>audiopan</effectid>
															<effectcategory>audiopan</effectcategory>
															<effecttype>audiopan</effecttype>
															<mediatype>audio</mediatype>
															<parameter>
																<name>Pan</name>
																<parameterid>pan</parameterid>
																<valuemin>-1</valuemin>
																<valuemax>1</valuemax>
																<value>0</value>
															</parameter>
														</effect>
													</filter>
													<sourcetrack>
														<mediatype>audio</mediatype>
														<trackindex>1</trackindex>
													</sourcetrack>
													<link>
														<linkclipref>Raw Interview Matthew Duepner532</linkclipref>
														<mediatype>video</mediatype>
														<trackindex>1</trackindex>
														<clipindex>47</clipindex>
													</link>
													<link>
														<linkclipref>Raw Interview Matthew Duepner533</linkclipref>
														<mediatype>audio</mediatype>
														<trackindex>1</trackindex>
														<clipindex>47</clipindex>
														<groupindex>1</groupindex>
													</link>
													<link>
														<linkclipref>Raw Interview Matthew Duepner534</linkclipref>
														<mediatype>audio</mediatype>
														<trackindex>2</trackindex>
														<clipindex>47</clipindex>
														<groupindex>1</groupindex>
													</link>
													<itemhistory>
														<uuid>3C1EF8F1-2682-454B-A50A-8A724FB95A61</uuid>
													</itemhistory>
												</clipitem>
												<clipitem id="Raw Interview Matthew Duepner536">
													<name>Raw Interview Matthew Duepner</name>
													<duration>81486</duration>
													<rate>
														<ntsc>TRUE</ntsc>
														<timebase>24</timebase>
													</rate>
													<in>69853</in>
													<out>69933</out>
													<start>9396</start>
													<end>9476</end>
													<masterclipid>Raw Interview Matthew Duepner390</masterclipid>
													<logginginfo>
														<scene/>
														<shottake/>
														<lognote/>
														<good>FALSE</good>
													</logginginfo>
													<labels>
														<label2/>
													</labels>
													<comments>
														<mastercomment1/>
														<mastercomment2/>
														<mastercomment3/>
														<mastercomment4/>
													</comments>
													<file id="YIN_2013-05-28_LG-5 "/>
													<filter>
														<effect>
															<name>Audio Levels</name>
															<effectid>audiolevels</effectid>
															<effectcategory>audiolevels</effectcategory>
															<effecttype>audiolevels</effecttype>
															<mediatype>audio</mediatype>
															<parameter>
																<name>Level</name>
																<parameterid>level</parameterid>
																<valuemin>0</valuemin>
																<valuemax>3.98109</valuemax>
																<value>1</value>
															</parameter>
														</effect>
													</filter>
													<filter>
														<effect>
															<name>Audio Pan</name>
															<effectid>audiopan</effectid>
															<effectcategory>audiopan</effectcategory>
															<effecttype>audiopan</effecttype>
															<mediatype>audio</mediatype>
															<parameter>
																<name>Pan</name>
																<parameterid>pan</parameterid>
																<valuemin>-1</valuemin>
																<valuemax>1</valuemax>
																<value>0</value>
															</parameter>
														</effect>
													</filter>
													<sourcetrack>
														<mediatype>audio</mediatype>
														<trackindex>1</trackindex>
													</sourcetrack>
													<link>
														<linkclipref>Raw Interview Matthew Duepner535</linkclipref>
														<mediatype>video</mediatype>
														<trackindex>1</trackindex>
														<clipindex>48</clipindex>
													</link>
													<link>
														<linkclipref>Raw Interview Matthew Duepner536</linkclipref>
														<mediatype>audio</mediatype>
														<trackindex>1</trackindex>
														<clipindex>48</clipindex>
														<groupindex>1</groupindex>
													</link>
													<link>
														<linkclipref>Raw Interview Matthew Duepner537</linkclipref>
														<mediatype>audio</mediatype>
														<trackindex>2</trackindex>
														<clipindex>48</clipindex>
														<groupindex>1</groupindex>
													</link>
													<itemhistory>
														<uuid>12713F36-3B22-48FD-827D-F7E3FCE1D8A2</uuid>
													</itemhistory>
												</clipitem>
												<clipitem id="Raw Interview Matthew Duepner539">
													<name>Raw Interview Matthew Duepner</name>
													<duration>81486</duration>
													<rate>
														<ntsc>TRUE</ntsc>
														<timebase>24</timebase>
													</rate>
													<in>71462</in>
													<out>71987</out>
													<start>9476</start>
													<end>10001</end>
													<masterclipid>Raw Interview Matthew Duepner390</masterclipid>
													<logginginfo>
														<scene/>
														<shottake/>
														<lognote/>
														<good>FALSE</good>
													</logginginfo>
													<labels>
														<label2/>
													</labels>
													<comments>
														<mastercomment1/>
														<mastercomment2/>
														<mastercomment3/>
														<mastercomment4/>
													</comments>
													<file id="YIN_2013-05-28_LG-5 "/>
													<filter>
														<effect>
															<name>Audio Levels</name>
															<effectid>audiolevels</effectid>
															<effectcategory>audiolevels</effectcategory>
															<effecttype>audiolevels</effecttype>
															<mediatype>audio</mediatype>
															<parameter>
																<name>Level</name>
																<parameterid>level</parameterid>
																<valuemin>0</valuemin>
																<valuemax>3.98109</valuemax>
																<value>1</value>
															</parameter>
														</effect>
													</filter>
													<filter>
														<effect>
															<name>Audio Pan</name>
															<effectid>audiopan</effectid>
															<effectcategory>audiopan</effectcategory>
															<effecttype>audiopan</effecttype>
															<mediatype>audio</mediatype>
															<parameter>
																<name>Pan</name>
																<parameterid>pan</parameterid>
																<valuemin>-1</valuemin>
																<valuemax>1</valuemax>
																<value>0</value>
															</parameter>
														</effect>
													</filter>
													<sourcetrack>
														<mediatype>audio</mediatype>
														<trackindex>1</trackindex>
													</sourcetrack>
													<link>
														<linkclipref>Raw Interview Matthew Duepner538</linkclipref>
														<mediatype>video</mediatype>
														<trackindex>1</trackindex>
														<clipindex>49</clipindex>
													</link>
													<link>
														<linkclipref>Raw Interview Matthew Duepner539</linkclipref>
														<mediatype>audio</mediatype>
														<trackindex>1</trackindex>
														<clipindex>49</clipindex>
														<groupindex>1</groupindex>
													</link>
													<link>
														<linkclipref>Raw Interview Matthew Duepner540</linkclipref>
														<mediatype>audio</mediatype>
														<trackindex>2</trackindex>
														<clipindex>49</clipindex>
														<groupindex>1</groupindex>
													</link>
													<itemhistory>
														<uuid>1CAC80D4-0348-4300-B168-C93A333F5D1E</uuid>
													</itemhistory>
												</clipitem>
												<clipitem id="Raw Interview Matthew Duepner542">
													<name>Raw Interview Matthew Duepner</name>
													<duration>81486</duration>
													<rate>
														<ntsc>TRUE</ntsc>
														<timebase>24</timebase>
													</rate>
													<in>72861</in>
													<out>73353</out>
													<start>10001</start>
													<end>10493</end>
													<masterclipid>Raw Interview Matthew Duepner390</masterclipid>
													<logginginfo>
														<scene/>
														<shottake/>
														<lognote/>
														<good>FALSE</good>
													</logginginfo>
													<labels>
														<label2/>
													</labels>
													<comments>
														<mastercomment1/>
														<mastercomment2/>
														<mastercomment3/>
														<mastercomment4/>
													</comments>
													<file id="YIN_2013-05-28_LG-5 "/>
													<filter>
														<effect>
															<name>Audio Levels</name>
															<effectid>audiolevels</effectid>
															<effectcategory>audiolevels</effectcategory>
															<effecttype>audiolevels</effecttype>
															<mediatype>audio</mediatype>
															<parameter>
																<name>Level</name>
																<parameterid>level</parameterid>
																<valuemin>0</valuemin>
																<valuemax>3.98109</valuemax>
																<value>1</value>
															</parameter>
														</effect>
													</filter>
													<filter>
														<effect>
															<name>Audio Pan</name>
															<effectid>audiopan</effectid>
															<effectcategory>audiopan</effectcategory>
															<effecttype>audiopan</effecttype>
															<mediatype>audio</mediatype>
															<parameter>
																<name>Pan</name>
																<parameterid>pan</parameterid>
																<valuemin>-1</valuemin>
																<valuemax>1</valuemax>
																<value>0</value>
															</parameter>
														</effect>
													</filter>
													<sourcetrack>
														<mediatype>audio</mediatype>
														<trackindex>1</trackindex>
													</sourcetrack>
													<link>
														<linkclipref>Raw Interview Matthew Duepner541</linkclipref>
														<mediatype>video</mediatype>
														<trackindex>1</trackindex>
														<clipindex>50</clipindex>
													</link>
													<link>
														<linkclipref>Raw Interview Matthew Duepner542</linkclipref>
														<mediatype>audio</mediatype>
														<trackindex>1</trackindex>
														<clipindex>50</clipindex>
														<groupindex>1</groupindex>
													</link>
													<link>
														<linkclipref>Raw Interview Matthew Duepner543</linkclipref>
														<mediatype>audio</mediatype>
														<trackindex>2</trackindex>
														<clipindex>50</clipindex>
														<groupindex>1</groupindex>
													</link>
													<itemhistory>
														<uuid>301177A5-AA8C-4CD0-82F4-EA5B6876AE5E</uuid>
													</itemhistory>
												</clipitem>
												<clipitem id="Raw Interview Matthew Duepner545">
													<name>Raw Interview Matthew Duepner</name>
													<duration>81486</duration>
													<rate>
														<ntsc>TRUE</ntsc>
														<timebase>24</timebase>
													</rate>
													<in>76085</in>
													<out>76339</out>
													<start>10493</start>
													<end>10747</end>
													<masterclipid>Raw Interview Matthew Duepner390</masterclipid>
													<logginginfo>
														<scene/>
														<shottake/>
														<lognote/>
														<good>FALSE</good>
													</logginginfo>
													<labels>
														<label2/>
													</labels>
													<comments>
														<mastercomment1/>
														<mastercomment2/>
														<mastercomment3/>
														<mastercomment4/>
													</comments>
													<file id="YIN_2013-05-28_LG-5 "/>
													<filter>
														<effect>
															<name>Audio Levels</name>
															<effectid>audiolevels</effectid>
															<effectcategory>audiolevels</effectcategory>
															<effecttype>audiolevels</effecttype>
															<mediatype>audio</mediatype>
															<parameter>
																<name>Level</name>
																<parameterid>level</parameterid>
																<valuemin>0</valuemin>
																<valuemax>3.98109</valuemax>
																<value>1</value>
															</parameter>
														</effect>
													</filter>
													<filter>
														<effect>
															<name>Audio Pan</name>
															<effectid>audiopan</effectid>
															<effectcategory>audiopan</effectcategory>
															<effecttype>audiopan</effecttype>
															<mediatype>audio</mediatype>
															<parameter>
																<name>Pan</name>
																<parameterid>pan</parameterid>
																<valuemin>-1</valuemin>
																<valuemax>1</valuemax>
																<value>0</value>
															</parameter>
														</effect>
													</filter>
													<sourcetrack>
														<mediatype>audio</mediatype>
														<trackindex>1</trackindex>
													</sourcetrack>
													<link>
														<linkclipref>Raw Interview Matthew Duepner544</linkclipref>
														<mediatype>video</mediatype>
														<trackindex>1</trackindex>
														<clipindex>51</clipindex>
													</link>
													<link>
														<linkclipref>Raw Interview Matthew Duepner545</linkclipref>
														<mediatype>audio</mediatype>
														<trackindex>1</trackindex>
														<clipindex>51</clipindex>
														<groupindex>1</groupindex>
													</link>
													<link>
														<linkclipref>Raw Interview Matthew Duepner546</linkclipref>
														<mediatype>audio</mediatype>
														<trackindex>2</trackindex>
														<clipindex>51</clipindex>
														<groupindex>1</groupindex>
													</link>
													<itemhistory>
														<uuid>2125CD20-DD0F-4CB8-ACB8-5FD19D44A928</uuid>
													</itemhistory>
												</clipitem>
												<clipitem id="Raw Interview Matthew Duepner548">
													<name>Raw Interview Matthew Duepner</name>
													<duration>81486</duration>
													<rate>
														<ntsc>TRUE</ntsc>
														<timebase>24</timebase>
													</rate>
													<in>79338</in>
													<out>79734</out>
													<start>10747</start>
													<end>11143</end>
													<masterclipid>Raw Interview Matthew Duepner390</masterclipid>
													<logginginfo>
														<scene/>
														<shottake/>
														<lognote/>
														<good>FALSE</good>
													</logginginfo>
													<labels>
														<label2/>
													</labels>
													<comments>
														<mastercomment1/>
														<mastercomment2/>
														<mastercomment3/>
														<mastercomment4/>
													</comments>
													<file id="YIN_2013-05-28_LG-5 "/>
													<filter>
														<effect>
															<name>Audio Levels</name>
															<effectid>audiolevels</effectid>
															<effectcategory>audiolevels</effectcategory>
															<effecttype>audiolevels</effecttype>
															<mediatype>audio</mediatype>
															<parameter>
																<name>Level</name>
																<parameterid>level</parameterid>
																<valuemin>0</valuemin>
																<valuemax>3.98109</valuemax>
																<value>1</value>
															</parameter>
														</effect>
													</filter>
													<filter>
														<effect>
															<name>Audio Pan</name>
															<effectid>audiopan</effectid>
															<effectcategory>audiopan</effectcategory>
															<effecttype>audiopan</effecttype>
															<mediatype>audio</mediatype>
															<parameter>
																<name>Pan</name>
																<parameterid>pan</parameterid>
																<valuemin>-1</valuemin>
																<valuemax>1</valuemax>
																<value>0</value>
															</parameter>
														</effect>
													</filter>
													<sourcetrack>
														<mediatype>audio</mediatype>
														<trackindex>1</trackindex>
													</sourcetrack>
													<link>
														<linkclipref>Raw Interview Matthew Duepner547</linkclipref>
														<mediatype>video</mediatype>
														<trackindex>1</trackindex>
														<clipindex>52</clipindex>
													</link>
													<link>
														<linkclipref>Raw Interview Matthew Duepner548</linkclipref>
														<mediatype>audio</mediatype>
														<trackindex>1</trackindex>
														<clipindex>52</clipindex>
														<groupindex>1</groupindex>
													</link>
													<link>
														<linkclipref>Raw Interview Matthew Duepner549</linkclipref>
														<mediatype>audio</mediatype>
														<trackindex>2</trackindex>
														<clipindex>52</clipindex>
														<groupindex>1</groupindex>
													</link>
													<itemhistory>
														<uuid>05C4B621-14AA-45D5-82D0-FDBEA619AB00</uuid>
													</itemhistory>
												</clipitem>
												<clipitem id="Raw Interview Matthew Duepner551">
													<name>Raw Interview Matthew Duepner</name>
													<duration>81486</duration>
													<rate>
														<ntsc>TRUE</ntsc>
														<timebase>24</timebase>
													</rate>
													<in>79941</in>
													<out>80276</out>
													<start>11143</start>
													<end>11478</end>
													<masterclipid>Raw Interview Matthew Duepner390</masterclipid>
													<logginginfo>
														<scene/>
														<shottake/>
														<lognote/>
														<good>FALSE</good>
													</logginginfo>
													<labels>
														<label2/>
													</labels>
													<comments>
														<mastercomment1/>
														<mastercomment2/>
														<mastercomment3/>
														<mastercomment4/>
													</comments>
													<file id="YIN_2013-05-28_LG-5 "/>
													<filter>
														<effect>
															<name>Audio Levels</name>
															<effectid>audiolevels</effectid>
															<effectcategory>audiolevels</effectcategory>
															<effecttype>audiolevels</effecttype>
															<mediatype>audio</mediatype>
															<parameter>
																<name>Level</name>
																<parameterid>level</parameterid>
																<valuemin>0</valuemin>
																<valuemax>3.98109</valuemax>
																<value>1</value>
															</parameter>
														</effect>
													</filter>
													<filter>
														<effect>
															<name>Audio Pan</name>
															<effectid>audiopan</effectid>
															<effectcategory>audiopan</effectcategory>
															<effecttype>audiopan</effecttype>
															<mediatype>audio</mediatype>
															<parameter>
																<name>Pan</name>
																<parameterid>pan</parameterid>
																<valuemin>-1</valuemin>
																<valuemax>1</valuemax>
																<value>0</value>
															</parameter>
														</effect>
													</filter>
													<sourcetrack>
														<mediatype>audio</mediatype>
														<trackindex>1</trackindex>
													</sourcetrack>
													<link>
														<linkclipref>Raw Interview Matthew Duepner550</linkclipref>
														<mediatype>video</mediatype>
														<trackindex>1</trackindex>
														<clipindex>53</clipindex>
													</link>
													<link>
														<linkclipref>Raw Interview Matthew Duepner551</linkclipref>
														<mediatype>audio</mediatype>
														<trackindex>1</trackindex>
														<clipindex>53</clipindex>
														<groupindex>1</groupindex>
													</link>
													<link>
														<linkclipref>Raw Interview Matthew Duepner552</linkclipref>
														<mediatype>audio</mediatype>
														<trackindex>2</trackindex>
														<clipindex>53</clipindex>
														<groupindex>1</groupindex>
													</link>
													<itemhistory>
														<uuid>FF27419C-C465-423B-953D-CD7E5E1C2F0C</uuid>
													</itemhistory>
												</clipitem>
												<clipitem id="Raw Interview Matthew Duepner554">
													<name>Raw Interview Matthew Duepner</name>
													<duration>81486</duration>
													<rate>
														<ntsc>TRUE</ntsc>
														<timebase>24</timebase>
													</rate>
													<in>81210</in>
													<out>81278</out>
													<start>11478</start>
													<end>11546</end>
													<masterclipid>Raw Interview Matthew Duepner390</masterclipid>
													<logginginfo>
														<scene/>
														<shottake/>
														<lognote/>
														<good>FALSE</good>
													</logginginfo>
													<labels>
														<label2/>
													</labels>
													<comments>
														<mastercomment1/>
														<mastercomment2/>
														<mastercomment3/>
														<mastercomment4/>
													</comments>
													<file id="YIN_2013-05-28_LG-5 "/>
													<filter>
														<effect>
															<name>Audio Levels</name>
															<effectid>audiolevels</effectid>
															<effectcategory>audiolevels</effectcategory>
															<effecttype>audiolevels</effecttype>
															<mediatype>audio</mediatype>
															<parameter>
																<name>Level</name>
																<parameterid>level</parameterid>
																<valuemin>0</valuemin>
																<valuemax>3.98109</valuemax>
																<value>1</value>
															</parameter>
														</effect>
													</filter>
													<filter>
														<effect>
															<name>Audio Pan</name>
															<effectid>audiopan</effectid>
															<effectcategory>audiopan</effectcategory>
															<effecttype>audiopan</effecttype>
															<mediatype>audio</mediatype>
															<parameter>
																<name>Pan</name>
																<parameterid>pan</parameterid>
																<valuemin>-1</valuemin>
																<valuemax>1</valuemax>
																<value>0</value>
															</parameter>
														</effect>
													</filter>
													<sourcetrack>
														<mediatype>audio</mediatype>
														<trackindex>1</trackindex>
													</sourcetrack>
													<link>
														<linkclipref>Raw Interview Matthew Duepner553</linkclipref>
														<mediatype>video</mediatype>
														<trackindex>1</trackindex>
														<clipindex>54</clipindex>
													</link>
													<link>
														<linkclipref>Raw Interview Matthew Duepner554</linkclipref>
														<mediatype>audio</mediatype>
														<trackindex>1</trackindex>
														<clipindex>54</clipindex>
														<groupindex>1</groupindex>
													</link>
													<link>
														<linkclipref>Raw Interview Matthew Duepner555</linkclipref>
														<mediatype>audio</mediatype>
														<trackindex>2</trackindex>
														<clipindex>54</clipindex>
														<groupindex>1</groupindex>
													</link>
													<itemhistory>
														<uuid>A71BBBFF-9389-450B-A3A0-DE0959E945BA</uuid>
													</itemhistory>
												</clipitem>
												<enabled>TRUE</enabled>
												<locked>FALSE</locked>
												<outputchannelindex>1</outputchannelindex>
											</track>
											<track>
												<clipitem id="Raw Interview Matthew Duepner396">
													<name>Raw Interview Matthew Duepner</name>
													<duration>81486</duration>
													<rate>
														<ntsc>TRUE</ntsc>
														<timebase>24</timebase>
													</rate>
													<in>242</in>
													<out>687</out>
													<start>0</start>
													<end>445</end>
													<masterclipid>Raw Interview Matthew Duepner390</masterclipid>
													<logginginfo>
														<scene/>
														<shottake/>
														<lognote/>
														<good>FALSE</good>
													</logginginfo>
													<labels>
														<label2/>
													</labels>
													<comments>
														<mastercomment1/>
														<mastercomment2/>
														<mastercomment3/>
														<mastercomment4/>
													</comments>
													<file id="YIN_2013-05-28_LG-5 "/>
													<filter>
														<effect>
															<name>Audio Levels</name>
															<effectid>audiolevels</effectid>
															<effectcategory>audiolevels</effectcategory>
															<effecttype>audiolevels</effecttype>
															<mediatype>audio</mediatype>
															<parameter>
																<name>Level</name>
																<parameterid>level</parameterid>
																<valuemin>0</valuemin>
																<valuemax>3.98109</valuemax>
																<value>1</value>
															</parameter>
														</effect>
													</filter>
													<filter>
														<effect>
															<name>Audio Pan</name>
															<effectid>audiopan</effectid>
															<effectcategory>audiopan</effectcategory>
															<effecttype>audiopan</effecttype>
															<mediatype>audio</mediatype>
															<parameter>
																<name>Pan</name>
																<parameterid>pan</parameterid>
																<valuemin>-1</valuemin>
																<valuemax>1</valuemax>
																<value>-0</value>
															</parameter>
														</effect>
													</filter>
													<sourcetrack>
														<mediatype>audio</mediatype>
														<trackindex>2</trackindex>
													</sourcetrack>
													<link>
														<linkclipref>Raw Interview Matthew Duepner394</linkclipref>
														<mediatype>video</mediatype>
														<trackindex>1</trackindex>
														<clipindex>1</clipindex>
													</link>
													<link>
														<linkclipref>Raw Interview Matthew Duepner395</linkclipref>
														<mediatype>audio</mediatype>
														<trackindex>1</trackindex>
														<clipindex>1</clipindex>
														<groupindex>1</groupindex>
													</link>
													<link>
														<linkclipref>Raw Interview Matthew Duepner396</linkclipref>
														<mediatype>audio</mediatype>
														<trackindex>2</trackindex>
														<clipindex>1</clipindex>
														<groupindex>1</groupindex>
													</link>
													<itemhistory>
														<uuid>150152AB-A727-4239-B748-C50B680BDAE2</uuid>
													</itemhistory>
												</clipitem>
												<clipitem id="Raw Interview Matthew Duepner399">
													<name>Raw Interview Matthew Duepner</name>
													<duration>81486</duration>
													<rate>
														<ntsc>TRUE</ntsc>
														<timebase>24</timebase>
													</rate>
													<in>1221</in>
													<out>1514</out>
													<start>445</start>
													<end>738</end>
													<masterclipid>Raw Interview Matthew Duepner390</masterclipid>
													<logginginfo>
														<scene/>
														<shottake/>
														<lognote/>
														<good>FALSE</good>
													</logginginfo>
													<labels>
														<label2/>
													</labels>
													<comments>
														<mastercomment1/>
														<mastercomment2/>
														<mastercomment3/>
														<mastercomment4/>
													</comments>
													<file id="YIN_2013-05-28_LG-5 "/>
													<filter>
														<effect>
															<name>Audio Levels</name>
															<effectid>audiolevels</effectid>
															<effectcategory>audiolevels</effectcategory>
															<effecttype>audiolevels</effecttype>
															<mediatype>audio</mediatype>
															<parameter>
																<name>Level</name>
																<parameterid>level</parameterid>
																<valuemin>0</valuemin>
																<valuemax>3.98109</valuemax>
																<value>1</value>
															</parameter>
														</effect>
													</filter>
													<filter>
														<effect>
															<name>Audio Pan</name>
															<effectid>audiopan</effectid>
															<effectcategory>audiopan</effectcategory>
															<effecttype>audiopan</effecttype>
															<mediatype>audio</mediatype>
															<parameter>
																<name>Pan</name>
																<parameterid>pan</parameterid>
																<valuemin>-1</valuemin>
																<valuemax>1</valuemax>
																<value>-0</value>
															</parameter>
														</effect>
													</filter>
													<sourcetrack>
														<mediatype>audio</mediatype>
														<trackindex>2</trackindex>
													</sourcetrack>
													<link>
														<linkclipref>Raw Interview Matthew Duepner397</linkclipref>
														<mediatype>video</mediatype>
														<trackindex>1</trackindex>
														<clipindex>2</clipindex>
													</link>
													<link>
														<linkclipref>Raw Interview Matthew Duepner398</linkclipref>
														<mediatype>audio</mediatype>
														<trackindex>1</trackindex>
														<clipindex>2</clipindex>
														<groupindex>1</groupindex>
													</link>
													<link>
														<linkclipref>Raw Interview Matthew Duepner399</linkclipref>
														<mediatype>audio</mediatype>
														<trackindex>2</trackindex>
														<clipindex>2</clipindex>
														<groupindex>1</groupindex>
													</link>
													<itemhistory>
														<uuid>A9E22642-A62B-4083-AEF8-8F7E456F7079</uuid>
													</itemhistory>
												</clipitem>
												<clipitem id="Raw Interview Matthew Duepner402">
													<name>Raw Interview Matthew Duepner</name>
													<duration>81486</duration>
													<rate>
														<ntsc>TRUE</ntsc>
														<timebase>24</timebase>
													</rate>
													<in>1656</in>
													<out>1742</out>
													<start>738</start>
													<end>824</end>
													<masterclipid>Raw Interview Matthew Duepner390</masterclipid>
													<logginginfo>
														<scene/>
														<shottake/>
														<lognote/>
														<good>FALSE</good>
													</logginginfo>
													<labels>
														<label2/>
													</labels>
													<comments>
														<mastercomment1/>
														<mastercomment2/>
														<mastercomment3/>
														<mastercomment4/>
													</comments>
													<file id="YIN_2013-05-28_LG-5 "/>
													<filter>
														<effect>
															<name>Audio Levels</name>
															<effectid>audiolevels</effectid>
															<effectcategory>audiolevels</effectcategory>
															<effecttype>audiolevels</effecttype>
															<mediatype>audio</mediatype>
															<parameter>
																<name>Level</name>
																<parameterid>level</parameterid>
																<valuemin>0</valuemin>
																<valuemax>3.98109</valuemax>
																<value>1</value>
															</parameter>
														</effect>
													</filter>
													<filter>
														<effect>
															<name>Audio Pan</name>
															<effectid>audiopan</effectid>
															<effectcategory>audiopan</effectcategory>
															<effecttype>audiopan</effecttype>
															<mediatype>audio</mediatype>
															<parameter>
																<name>Pan</name>
																<parameterid>pan</parameterid>
																<valuemin>-1</valuemin>
																<valuemax>1</valuemax>
																<value>-0</value>
															</parameter>
														</effect>
													</filter>
													<sourcetrack>
														<mediatype>audio</mediatype>
														<trackindex>2</trackindex>
													</sourcetrack>
													<link>
														<linkclipref>Raw Interview Matthew Duepner400</linkclipref>
														<mediatype>video</mediatype>
														<trackindex>1</trackindex>
														<clipindex>3</clipindex>
													</link>
													<link>
														<linkclipref>Raw Interview Matthew Duepner401</linkclipref>
														<mediatype>audio</mediatype>
														<trackindex>1</trackindex>
														<clipindex>3</clipindex>
														<groupindex>1</groupindex>
													</link>
													<link>
														<linkclipref>Raw Interview Matthew Duepner402</linkclipref>
														<mediatype>audio</mediatype>
														<trackindex>2</trackindex>
														<clipindex>3</clipindex>
														<groupindex>1</groupindex>
													</link>
													<itemhistory>
														<uuid>39A7977D-0288-4E20-A417-710DEFE5BF27</uuid>
													</itemhistory>
												</clipitem>
												<clipitem id="Raw Interview Matthew Duepner405">
													<name>Raw Interview Matthew Duepner</name>
													<duration>81486</duration>
													<rate>
														<ntsc>TRUE</ntsc>
														<timebase>24</timebase>
													</rate>
													<in>2087</in>
													<out>2229</out>
													<start>824</start>
													<end>966</end>
													<masterclipid>Raw Interview Matthew Duepner390</masterclipid>
													<logginginfo>
														<scene/>
														<shottake/>
														<lognote/>
														<good>FALSE</good>
													</logginginfo>
													<labels>
														<label2/>
													</labels>
													<comments>
														<mastercomment1/>
														<mastercomment2/>
														<mastercomment3/>
														<mastercomment4/>
													</comments>
													<file id="YIN_2013-05-28_LG-5 "/>
													<filter>
														<effect>
															<name>Audio Levels</name>
															<effectid>audiolevels</effectid>
															<effectcategory>audiolevels</effectcategory>
															<effecttype>audiolevels</effecttype>
															<mediatype>audio</mediatype>
															<parameter>
																<name>Level</name>
																<parameterid>level</parameterid>
																<valuemin>0</valuemin>
																<valuemax>3.98109</valuemax>
																<value>1</value>
															</parameter>
														</effect>
													</filter>
													<filter>
														<effect>
															<name>Audio Pan</name>
															<effectid>audiopan</effectid>
															<effectcategory>audiopan</effectcategory>
															<effecttype>audiopan</effecttype>
															<mediatype>audio</mediatype>
															<parameter>
																<name>Pan</name>
																<parameterid>pan</parameterid>
																<valuemin>-1</valuemin>
																<valuemax>1</valuemax>
																<value>-0</value>
															</parameter>
														</effect>
													</filter>
													<sourcetrack>
														<mediatype>audio</mediatype>
														<trackindex>2</trackindex>
													</sourcetrack>
													<link>
														<linkclipref>Raw Interview Matthew Duepner403</linkclipref>
														<mediatype>video</mediatype>
														<trackindex>1</trackindex>
														<clipindex>4</clipindex>
													</link>
													<link>
														<linkclipref>Raw Interview Matthew Duepner404</linkclipref>
														<mediatype>audio</mediatype>
														<trackindex>1</trackindex>
														<clipindex>4</clipindex>
														<groupindex>1</groupindex>
													</link>
													<link>
														<linkclipref>Raw Interview Matthew Duepner405</linkclipref>
														<mediatype>audio</mediatype>
														<trackindex>2</trackindex>
														<clipindex>4</clipindex>
														<groupindex>1</groupindex>
													</link>
													<itemhistory>
														<uuid>8DA96EF6-C631-45EC-94A1-D42DF790B04A</uuid>
													</itemhistory>
												</clipitem>
												<clipitem id="Raw Interview Matthew Duepner408">
													<name>Raw Interview Matthew Duepner</name>
													<duration>81486</duration>
													<rate>
														<ntsc>TRUE</ntsc>
														<timebase>24</timebase>
													</rate>
													<in>2994</in>
													<out>3183</out>
													<start>966</start>
													<end>1155</end>
													<masterclipid>Raw Interview Matthew Duepner390</masterclipid>
													<logginginfo>
														<scene/>
														<shottake/>
														<lognote/>
														<good>FALSE</good>
													</logginginfo>
													<labels>
														<label2/>
													</labels>
													<comments>
														<mastercomment1/>
														<mastercomment2/>
														<mastercomment3/>
														<mastercomment4/>
													</comments>
													<file id="YIN_2013-05-28_LG-5 "/>
													<filter>
														<effect>
															<name>Audio Levels</name>
															<effectid>audiolevels</effectid>
															<effectcategory>audiolevels</effectcategory>
															<effecttype>audiolevels</effecttype>
															<mediatype>audio</mediatype>
															<parameter>
																<name>Level</name>
																<parameterid>level</parameterid>
																<valuemin>0</valuemin>
																<valuemax>3.98109</valuemax>
																<value>1</value>
															</parameter>
														</effect>
													</filter>
													<filter>
														<effect>
															<name>Audio Pan</name>
															<effectid>audiopan</effectid>
															<effectcategory>audiopan</effectcategory>
															<effecttype>audiopan</effecttype>
															<mediatype>audio</mediatype>
															<parameter>
																<name>Pan</name>
																<parameterid>pan</parameterid>
																<valuemin>-1</valuemin>
																<valuemax>1</valuemax>
																<value>-0</value>
															</parameter>
														</effect>
													</filter>
													<sourcetrack>
														<mediatype>audio</mediatype>
														<trackindex>2</trackindex>
													</sourcetrack>
													<link>
														<linkclipref>Raw Interview Matthew Duepner406</linkclipref>
														<mediatype>video</mediatype>
														<trackindex>1</trackindex>
														<clipindex>5</clipindex>
													</link>
													<link>
														<linkclipref>Raw Interview Matthew Duepner407</linkclipref>
														<mediatype>audio</mediatype>
														<trackindex>1</trackindex>
														<clipindex>5</clipindex>
														<groupindex>1</groupindex>
													</link>
													<link>
														<linkclipref>Raw Interview Matthew Duepner408</linkclipref>
														<mediatype>audio</mediatype>
														<trackindex>2</trackindex>
														<clipindex>5</clipindex>
														<groupindex>1</groupindex>
													</link>
													<itemhistory>
														<uuid>A6F91C72-6C9B-4023-83DA-B5BE36D3EF3C</uuid>
													</itemhistory>
												</clipitem>
												<clipitem id="Raw Interview Matthew Duepner411">
													<name>Raw Interview Matthew Duepner</name>
													<duration>81486</duration>
													<rate>
														<ntsc>TRUE</ntsc>
														<timebase>24</timebase>
													</rate>
													<in>3411</in>
													<out>3636</out>
													<start>1155</start>
													<end>1380</end>
													<masterclipid>Raw Interview Matthew Duepner390</masterclipid>
													<logginginfo>
														<scene/>
														<shottake/>
														<lognote/>
														<good>FALSE</good>
													</logginginfo>
													<labels>
														<label2/>
													</labels>
													<comments>
														<mastercomment1/>
														<mastercomment2/>
														<mastercomment3/>
														<mastercomment4/>
													</comments>
													<file id="YIN_2013-05-28_LG-5 "/>
													<filter>
														<effect>
															<name>Audio Levels</name>
															<effectid>audiolevels</effectid>
															<effectcategory>audiolevels</effectcategory>
															<effecttype>audiolevels</effecttype>
															<mediatype>audio</mediatype>
															<parameter>
																<name>Level</name>
																<parameterid>level</parameterid>
																<valuemin>0</valuemin>
																<valuemax>3.98109</valuemax>
																<value>1</value>
															</parameter>
														</effect>
													</filter>
													<filter>
														<effect>
															<name>Audio Pan</name>
															<effectid>audiopan</effectid>
															<effectcategory>audiopan</effectcategory>
															<effecttype>audiopan</effecttype>
															<mediatype>audio</mediatype>
															<parameter>
																<name>Pan</name>
																<parameterid>pan</parameterid>
																<valuemin>-1</valuemin>
																<valuemax>1</valuemax>
																<value>-0</value>
															</parameter>
														</effect>
													</filter>
													<sourcetrack>
														<mediatype>audio</mediatype>
														<trackindex>2</trackindex>
													</sourcetrack>
													<link>
														<linkclipref>Raw Interview Matthew Duepner409</linkclipref>
														<mediatype>video</mediatype>
														<trackindex>1</trackindex>
														<clipindex>6</clipindex>
													</link>
													<link>
														<linkclipref>Raw Interview Matthew Duepner410</linkclipref>
														<mediatype>audio</mediatype>
														<trackindex>1</trackindex>
														<clipindex>6</clipindex>
														<groupindex>1</groupindex>
													</link>
													<link>
														<linkclipref>Raw Interview Matthew Duepner411</linkclipref>
														<mediatype>audio</mediatype>
														<trackindex>2</trackindex>
														<clipindex>6</clipindex>
														<groupindex>1</groupindex>
													</link>
													<itemhistory>
														<uuid>428FCE50-FBC3-44B4-A66D-C8E2840DA724</uuid>
													</itemhistory>
												</clipitem>
												<clipitem id="Raw Interview Matthew Duepner414">
													<name>Raw Interview Matthew Duepner</name>
													<duration>81486</duration>
													<rate>
														<ntsc>TRUE</ntsc>
														<timebase>24</timebase>
													</rate>
													<in>3945</in>
													<out>3987</out>
													<start>1380</start>
													<end>1422</end>
													<masterclipid>Raw Interview Matthew Duepner390</masterclipid>
													<logginginfo>
														<scene/>
														<shottake/>
														<lognote/>
														<good>FALSE</good>
													</logginginfo>
													<labels>
														<label2/>
													</labels>
													<comments>
														<mastercomment1/>
														<mastercomment2/>
														<mastercomment3/>
														<mastercomment4/>
													</comments>
													<file id="YIN_2013-05-28_LG-5 "/>
													<filter>
														<effect>
															<name>Audio Levels</name>
															<effectid>audiolevels</effectid>
															<effectcategory>audiolevels</effectcategory>
															<effecttype>audiolevels</effecttype>
															<mediatype>audio</mediatype>
															<parameter>
																<name>Level</name>
																<parameterid>level</parameterid>
																<valuemin>0</valuemin>
																<valuemax>3.98109</valuemax>
																<value>1</value>
															</parameter>
														</effect>
													</filter>
													<filter>
														<effect>
															<name>Audio Pan</name>
															<effectid>audiopan</effectid>
															<effectcategory>audiopan</effectcategory>
															<effecttype>audiopan</effecttype>
															<mediatype>audio</mediatype>
															<parameter>
																<name>Pan</name>
																<parameterid>pan</parameterid>
																<valuemin>-1</valuemin>
																<valuemax>1</valuemax>
																<value>-0</value>
															</parameter>
														</effect>
													</filter>
													<sourcetrack>
														<mediatype>audio</mediatype>
														<trackindex>2</trackindex>
													</sourcetrack>
													<link>
														<linkclipref>Raw Interview Matthew Duepner412</linkclipref>
														<mediatype>video</mediatype>
														<trackindex>1</trackindex>
														<clipindex>7</clipindex>
													</link>
													<link>
														<linkclipref>Raw Interview Matthew Duepner413</linkclipref>
														<mediatype>audio</mediatype>
														<trackindex>1</trackindex>
														<clipindex>7</clipindex>
														<groupindex>1</groupindex>
													</link>
													<link>
														<linkclipref>Raw Interview Matthew Duepner414</linkclipref>
														<mediatype>audio</mediatype>
														<trackindex>2</trackindex>
														<clipindex>7</clipindex>
														<groupindex>1</groupindex>
													</link>
													<itemhistory>
														<uuid>CA6312AB-2291-4AB6-AF80-2A38F6B71891</uuid>
													</itemhistory>
												</clipitem>
												<clipitem id="Raw Interview Matthew Duepner417">
													<name>Raw Interview Matthew Duepner</name>
													<duration>81486</duration>
													<rate>
														<ntsc>TRUE</ntsc>
														<timebase>24</timebase>
													</rate>
													<in>5143</in>
													<out>5320</out>
													<start>1422</start>
													<end>1599</end>
													<masterclipid>Raw Interview Matthew Duepner390</masterclipid>
													<logginginfo>
														<scene/>
														<shottake/>
														<lognote/>
														<good>FALSE</good>
													</logginginfo>
													<labels>
														<label2/>
													</labels>
													<comments>
														<mastercomment1/>
														<mastercomment2/>
														<mastercomment3/>
														<mastercomment4/>
													</comments>
													<file id="YIN_2013-05-28_LG-5 "/>
													<filter>
														<effect>
															<name>Audio Levels</name>
															<effectid>audiolevels</effectid>
															<effectcategory>audiolevels</effectcategory>
															<effecttype>audiolevels</effecttype>
															<mediatype>audio</mediatype>
															<parameter>
																<name>Level</name>
																<parameterid>level</parameterid>
																<valuemin>0</valuemin>
																<valuemax>3.98109</valuemax>
																<value>1</value>
															</parameter>
														</effect>
													</filter>
													<filter>
														<effect>
															<name>Audio Pan</name>
															<effectid>audiopan</effectid>
															<effectcategory>audiopan</effectcategory>
															<effecttype>audiopan</effecttype>
															<mediatype>audio</mediatype>
															<parameter>
																<name>Pan</name>
																<parameterid>pan</parameterid>
																<valuemin>-1</valuemin>
																<valuemax>1</valuemax>
																<value>-0</value>
															</parameter>
														</effect>
													</filter>
													<sourcetrack>
														<mediatype>audio</mediatype>
														<trackindex>2</trackindex>
													</sourcetrack>
													<link>
														<linkclipref>Raw Interview Matthew Duepner415</linkclipref>
														<mediatype>video</mediatype>
														<trackindex>1</trackindex>
														<clipindex>8</clipindex>
													</link>
													<link>
														<linkclipref>Raw Interview Matthew Duepner416</linkclipref>
														<mediatype>audio</mediatype>
														<trackindex>1</trackindex>
														<clipindex>8</clipindex>
														<groupindex>1</groupindex>
													</link>
													<link>
														<linkclipref>Raw Interview Matthew Duepner417</linkclipref>
														<mediatype>audio</mediatype>
														<trackindex>2</trackindex>
														<clipindex>8</clipindex>
														<groupindex>1</groupindex>
													</link>
													<itemhistory>
														<uuid>638CDF0E-5B20-4DCB-8667-92A5317EB3A8</uuid>
													</itemhistory>
												</clipitem>
												<clipitem id="Raw Interview Matthew Duepner420">
													<name>Raw Interview Matthew Duepner</name>
													<duration>81486</duration>
													<rate>
														<ntsc>TRUE</ntsc>
														<timebase>24</timebase>
													</rate>
													<in>5486</in>
													<out>5591</out>
													<start>1599</start>
													<end>1704</end>
													<masterclipid>Raw Interview Matthew Duepner390</masterclipid>
													<logginginfo>
														<scene/>
														<shottake/>
														<lognote/>
														<good>FALSE</good>
													</logginginfo>
													<labels>
														<label2/>
													</labels>
													<comments>
														<mastercomment1/>
														<mastercomment2/>
														<mastercomment3/>
														<mastercomment4/>
													</comments>
													<file id="YIN_2013-05-28_LG-5 "/>
													<filter>
														<effect>
															<name>Audio Levels</name>
															<effectid>audiolevels</effectid>
															<effectcategory>audiolevels</effectcategory>
															<effecttype>audiolevels</effecttype>
															<mediatype>audio</mediatype>
															<parameter>
																<name>Level</name>
																<parameterid>level</parameterid>
																<valuemin>0</valuemin>
																<valuemax>3.98109</valuemax>
																<value>1</value>
															</parameter>
														</effect>
													</filter>
													<filter>
														<effect>
															<name>Audio Pan</name>
															<effectid>audiopan</effectid>
															<effectcategory>audiopan</effectcategory>
															<effecttype>audiopan</effecttype>
															<mediatype>audio</mediatype>
															<parameter>
																<name>Pan</name>
																<parameterid>pan</parameterid>
																<valuemin>-1</valuemin>
																<valuemax>1</valuemax>
																<value>-0</value>
															</parameter>
														</effect>
													</filter>
													<sourcetrack>
														<mediatype>audio</mediatype>
														<trackindex>2</trackindex>
													</sourcetrack>
													<link>
														<linkclipref>Raw Interview Matthew Duepner418</linkclipref>
														<mediatype>video</mediatype>
														<trackindex>1</trackindex>
														<clipindex>9</clipindex>
													</link>
													<link>
														<linkclipref>Raw Interview Matthew Duepner419</linkclipref>
														<mediatype>audio</mediatype>
														<trackindex>1</trackindex>
														<clipindex>9</clipindex>
														<groupindex>1</groupindex>
													</link>
													<link>
														<linkclipref>Raw Interview Matthew Duepner420</linkclipref>
														<mediatype>audio</mediatype>
														<trackindex>2</trackindex>
														<clipindex>9</clipindex>
														<groupindex>1</groupindex>
													</link>
													<itemhistory>
														<uuid>4AA2AFB3-DF48-42EF-AE36-8FA46168FE77</uuid>
													</itemhistory>
												</clipitem>
												<clipitem id="Raw Interview Matthew Duepner423">
													<name>Raw Interview Matthew Duepner</name>
													<duration>81486</duration>
													<rate>
														<ntsc>TRUE</ntsc>
														<timebase>24</timebase>
													</rate>
													<in>6176</in>
													<out>6256</out>
													<start>1704</start>
													<end>1784</end>
													<masterclipid>Raw Interview Matthew Duepner390</masterclipid>
													<logginginfo>
														<scene/>
														<shottake/>
														<lognote/>
														<good>FALSE</good>
													</logginginfo>
													<labels>
														<label2/>
													</labels>
													<comments>
														<mastercomment1/>
														<mastercomment2/>
														<mastercomment3/>
														<mastercomment4/>
													</comments>
													<file id="YIN_2013-05-28_LG-5 "/>
													<filter>
														<effect>
															<name>Audio Levels</name>
															<effectid>audiolevels</effectid>
															<effectcategory>audiolevels</effectcategory>
															<effecttype>audiolevels</effecttype>
															<mediatype>audio</mediatype>
															<parameter>
																<name>Level</name>
																<parameterid>level</parameterid>
																<valuemin>0</valuemin>
																<valuemax>3.98109</valuemax>
																<value>1</value>
															</parameter>
														</effect>
													</filter>
													<filter>
														<effect>
															<name>Audio Pan</name>
															<effectid>audiopan</effectid>
															<effectcategory>audiopan</effectcategory>
															<effecttype>audiopan</effecttype>
															<mediatype>audio</mediatype>
															<parameter>
																<name>Pan</name>
																<parameterid>pan</parameterid>
																<valuemin>-1</valuemin>
																<valuemax>1</valuemax>
																<value>-0</value>
															</parameter>
														</effect>
													</filter>
													<sourcetrack>
														<mediatype>audio</mediatype>
														<trackindex>2</trackindex>
													</sourcetrack>
													<link>
														<linkclipref>Raw Interview Matthew Duepner421</linkclipref>
														<mediatype>video</mediatype>
														<trackindex>1</trackindex>
														<clipindex>10</clipindex>
													</link>
													<link>
														<linkclipref>Raw Interview Matthew Duepner422</linkclipref>
														<mediatype>audio</mediatype>
														<trackindex>1</trackindex>
														<clipindex>10</clipindex>
														<groupindex>1</groupindex>
													</link>
													<link>
														<linkclipref>Raw Interview Matthew Duepner423</linkclipref>
														<mediatype>audio</mediatype>
														<trackindex>2</trackindex>
														<clipindex>10</clipindex>
														<groupindex>1</groupindex>
													</link>
													<itemhistory>
														<uuid>1A019E3D-37FB-4850-A9A1-E8DEC95AB622</uuid>
													</itemhistory>
												</clipitem>
												<clipitem id="Raw Interview Matthew Duepner426">
													<name>Raw Interview Matthew Duepner</name>
													<duration>81486</duration>
													<rate>
														<ntsc>TRUE</ntsc>
														<timebase>24</timebase>
													</rate>
													<in>6757</in>
													<out>6892</out>
													<start>1784</start>
													<end>1919</end>
													<masterclipid>Raw Interview Matthew Duepner390</masterclipid>
													<logginginfo>
														<scene/>
														<shottake/>
														<lognote/>
														<good>FALSE</good>
													</logginginfo>
													<labels>
														<label2/>
													</labels>
													<comments>
														<mastercomment1/>
														<mastercomment2/>
														<mastercomment3/>
														<mastercomment4/>
													</comments>
													<file id="YIN_2013-05-28_LG-5 "/>
													<filter>
														<effect>
															<name>Audio Levels</name>
															<effectid>audiolevels</effectid>
															<effectcategory>audiolevels</effectcategory>
															<effecttype>audiolevels</effecttype>
															<mediatype>audio</mediatype>
															<parameter>
																<name>Level</name>
																<parameterid>level</parameterid>
																<valuemin>0</valuemin>
																<valuemax>3.98109</valuemax>
																<value>1</value>
															</parameter>
														</effect>
													</filter>
													<filter>
														<effect>
															<name>Audio Pan</name>
															<effectid>audiopan</effectid>
															<effectcategory>audiopan</effectcategory>
															<effecttype>audiopan</effecttype>
															<mediatype>audio</mediatype>
															<parameter>
																<name>Pan</name>
																<parameterid>pan</parameterid>
																<valuemin>-1</valuemin>
																<valuemax>1</valuemax>
																<value>-0</value>
															</parameter>
														</effect>
													</filter>
													<sourcetrack>
														<mediatype>audio</mediatype>
														<trackindex>2</trackindex>
													</sourcetrack>
													<link>
														<linkclipref>Raw Interview Matthew Duepner424</linkclipref>
														<mediatype>video</mediatype>
														<trackindex>1</trackindex>
														<clipindex>11</clipindex>
													</link>
													<link>
														<linkclipref>Raw Interview Matthew Duepner425</linkclipref>
														<mediatype>audio</mediatype>
														<trackindex>1</trackindex>
														<clipindex>11</clipindex>
														<groupindex>1</groupindex>
													</link>
													<link>
														<linkclipref>Raw Interview Matthew Duepner426</linkclipref>
														<mediatype>audio</mediatype>
														<trackindex>2</trackindex>
														<clipindex>11</clipindex>
														<groupindex>1</groupindex>
													</link>
													<itemhistory>
														<uuid>AFF2C588-5986-409A-BD78-A37445FED63E</uuid>
													</itemhistory>
												</clipitem>
												<clipitem id="Raw Interview Matthew Duepner429">
													<name>Raw Interview Matthew Duepner</name>
													<duration>81486</duration>
													<rate>
														<ntsc>TRUE</ntsc>
														<timebase>24</timebase>
													</rate>
													<in>7002</in>
													<out>7205</out>
													<start>1919</start>
													<end>2122</end>
													<masterclipid>Raw Interview Matthew Duepner390</masterclipid>
													<logginginfo>
														<scene/>
														<shottake/>
														<lognote/>
														<good>FALSE</good>
													</logginginfo>
													<labels>
														<label2/>
													</labels>
													<comments>
														<mastercomment1/>
														<mastercomment2/>
														<mastercomment3/>
														<mastercomment4/>
													</comments>
													<file id="YIN_2013-05-28_LG-5 "/>
													<filter>
														<effect>
															<name>Audio Levels</name>
															<effectid>audiolevels</effectid>
															<effectcategory>audiolevels</effectcategory>
															<effecttype>audiolevels</effecttype>
															<mediatype>audio</mediatype>
															<parameter>
																<name>Level</name>
																<parameterid>level</parameterid>
																<valuemin>0</valuemin>
																<valuemax>3.98109</valuemax>
																<value>1</value>
															</parameter>
														</effect>
													</filter>
													<filter>
														<effect>
															<name>Audio Pan</name>
															<effectid>audiopan</effectid>
															<effectcategory>audiopan</effectcategory>
															<effecttype>audiopan</effecttype>
															<mediatype>audio</mediatype>
															<parameter>
																<name>Pan</name>
																<parameterid>pan</parameterid>
																<valuemin>-1</valuemin>
																<valuemax>1</valuemax>
																<value>-0</value>
															</parameter>
														</effect>
													</filter>
													<sourcetrack>
														<mediatype>audio</mediatype>
														<trackindex>2</trackindex>
													</sourcetrack>
													<link>
														<linkclipref>Raw Interview Matthew Duepner427</linkclipref>
														<mediatype>video</mediatype>
														<trackindex>1</trackindex>
														<clipindex>12</clipindex>
													</link>
													<link>
														<linkclipref>Raw Interview Matthew Duepner428</linkclipref>
														<mediatype>audio</mediatype>
														<trackindex>1</trackindex>
														<clipindex>12</clipindex>
														<groupindex>1</groupindex>
													</link>
													<link>
														<linkclipref>Raw Interview Matthew Duepner429</linkclipref>
														<mediatype>audio</mediatype>
														<trackindex>2</trackindex>
														<clipindex>12</clipindex>
														<groupindex>1</groupindex>
													</link>
													<itemhistory>
														<uuid>D7AFD006-D57B-4428-9826-E4E986349303</uuid>
													</itemhistory>
												</clipitem>
												<clipitem id="Raw Interview Matthew Duepner432">
													<name>Raw Interview Matthew Duepner</name>
													<duration>81486</duration>
													<rate>
														<ntsc>TRUE</ntsc>
														<timebase>24</timebase>
													</rate>
													<in>9373</in>
													<out>9540</out>
													<start>2122</start>
													<end>2289</end>
													<masterclipid>Raw Interview Matthew Duepner390</masterclipid>
													<logginginfo>
														<scene/>
														<shottake/>
														<lognote/>
														<good>FALSE</good>
													</logginginfo>
													<labels>
														<label2/>
													</labels>
													<comments>
														<mastercomment1/>
														<mastercomment2/>
														<mastercomment3/>
														<mastercomment4/>
													</comments>
													<file id="YIN_2013-05-28_LG-5 "/>
													<filter>
														<effect>
															<name>Audio Levels</name>
															<effectid>audiolevels</effectid>
															<effectcategory>audiolevels</effectcategory>
															<effecttype>audiolevels</effecttype>
															<mediatype>audio</mediatype>
															<parameter>
																<name>Level</name>
																<parameterid>level</parameterid>
																<valuemin>0</valuemin>
																<valuemax>3.98109</valuemax>
																<value>1</value>
															</parameter>
														</effect>
													</filter>
													<filter>
														<effect>
															<name>Audio Pan</name>
															<effectid>audiopan</effectid>
															<effectcategory>audiopan</effectcategory>
															<effecttype>audiopan</effecttype>
															<mediatype>audio</mediatype>
															<parameter>
																<name>Pan</name>
																<parameterid>pan</parameterid>
																<valuemin>-1</valuemin>
																<valuemax>1</valuemax>
																<value>-0</value>
															</parameter>
														</effect>
													</filter>
													<sourcetrack>
														<mediatype>audio</mediatype>
														<trackindex>2</trackindex>
													</sourcetrack>
													<link>
														<linkclipref>Raw Interview Matthew Duepner430</linkclipref>
														<mediatype>video</mediatype>
														<trackindex>1</trackindex>
														<clipindex>13</clipindex>
													</link>
													<link>
														<linkclipref>Raw Interview Matthew Duepner431</linkclipref>
														<mediatype>audio</mediatype>
														<trackindex>1</trackindex>
														<clipindex>13</clipindex>
														<groupindex>1</groupindex>
													</link>
													<link>
														<linkclipref>Raw Interview Matthew Duepner432</linkclipref>
														<mediatype>audio</mediatype>
														<trackindex>2</trackindex>
														<clipindex>13</clipindex>
														<groupindex>1</groupindex>
													</link>
													<itemhistory>
														<uuid>09E3406E-329D-458C-9570-F78BCAAB5F26</uuid>
													</itemhistory>
												</clipitem>
												<clipitem id="Raw Interview Matthew Duepner435">
													<name>Raw Interview Matthew Duepner</name>
													<duration>81486</duration>
													<rate>
														<ntsc>TRUE</ntsc>
														<timebase>24</timebase>
													</rate>
													<in>10404</in>
													<out>10508</out>
													<start>2289</start>
													<end>2393</end>
													<masterclipid>Raw Interview Matthew Duepner390</masterclipid>
													<logginginfo>
														<scene/>
														<shottake/>
														<lognote/>
														<good>FALSE</good>
													</logginginfo>
													<labels>
														<label2/>
													</labels>
													<comments>
														<mastercomment1/>
														<mastercomment2/>
														<mastercomment3/>
														<mastercomment4/>
													</comments>
													<file id="YIN_2013-05-28_LG-5 "/>
													<filter>
														<effect>
															<name>Audio Levels</name>
															<effectid>audiolevels</effectid>
															<effectcategory>audiolevels</effectcategory>
															<effecttype>audiolevels</effecttype>
															<mediatype>audio</mediatype>
															<parameter>
																<name>Level</name>
																<parameterid>level</parameterid>
																<valuemin>0</valuemin>
																<valuemax>3.98109</valuemax>
																<value>1</value>
															</parameter>
														</effect>
													</filter>
													<filter>
														<effect>
															<name>Audio Pan</name>
															<effectid>audiopan</effectid>
															<effectcategory>audiopan</effectcategory>
															<effecttype>audiopan</effecttype>
															<mediatype>audio</mediatype>
															<parameter>
																<name>Pan</name>
																<parameterid>pan</parameterid>
																<valuemin>-1</valuemin>
																<valuemax>1</valuemax>
																<value>-0</value>
															</parameter>
														</effect>
													</filter>
													<sourcetrack>
														<mediatype>audio</mediatype>
														<trackindex>2</trackindex>
													</sourcetrack>
													<link>
														<linkclipref>Raw Interview Matthew Duepner433</linkclipref>
														<mediatype>video</mediatype>
														<trackindex>1</trackindex>
														<clipindex>14</clipindex>
													</link>
													<link>
														<linkclipref>Raw Interview Matthew Duepner434</linkclipref>
														<mediatype>audio</mediatype>
														<trackindex>1</trackindex>
														<clipindex>14</clipindex>
														<groupindex>1</groupindex>
													</link>
													<link>
														<linkclipref>Raw Interview Matthew Duepner435</linkclipref>
														<mediatype>audio</mediatype>
														<trackindex>2</trackindex>
														<clipindex>14</clipindex>
														<groupindex>1</groupindex>
													</link>
													<itemhistory>
														<uuid>7C01DFBF-0B8D-4DE7-972F-F2D857BC6E73</uuid>
													</itemhistory>
												</clipitem>
												<clipitem id="Raw Interview Matthew Duepner438">
													<name>Raw Interview Matthew Duepner</name>
													<duration>81486</duration>
													<rate>
														<ntsc>TRUE</ntsc>
														<timebase>24</timebase>
													</rate>
													<in>10554</in>
													<out>10693</out>
													<start>2393</start>
													<end>2532</end>
													<masterclipid>Raw Interview Matthew Duepner390</masterclipid>
													<logginginfo>
														<scene/>
														<shottake/>
														<lognote/>
														<good>FALSE</good>
													</logginginfo>
													<labels>
														<label2/>
													</labels>
													<comments>
														<mastercomment1/>
														<mastercomment2/>
														<mastercomment3/>
														<mastercomment4/>
													</comments>
													<file id="YIN_2013-05-28_LG-5 "/>
													<filter>
														<effect>
															<name>Audio Levels</name>
															<effectid>audiolevels</effectid>
															<effectcategory>audiolevels</effectcategory>
															<effecttype>audiolevels</effecttype>
															<mediatype>audio</mediatype>
															<parameter>
																<name>Level</name>
																<parameterid>level</parameterid>
																<valuemin>0</valuemin>
																<valuemax>3.98109</valuemax>
																<value>1</value>
															</parameter>
														</effect>
													</filter>
													<filter>
														<effect>
															<name>Audio Pan</name>
															<effectid>audiopan</effectid>
															<effectcategory>audiopan</effectcategory>
															<effecttype>audiopan</effecttype>
															<mediatype>audio</mediatype>
															<parameter>
																<name>Pan</name>
																<parameterid>pan</parameterid>
																<valuemin>-1</valuemin>
																<valuemax>1</valuemax>
																<value>-0</value>
															</parameter>
														</effect>
													</filter>
													<sourcetrack>
														<mediatype>audio</mediatype>
														<trackindex>2</trackindex>
													</sourcetrack>
													<link>
														<linkclipref>Raw Interview Matthew Duepner436</linkclipref>
														<mediatype>video</mediatype>
														<trackindex>1</trackindex>
														<clipindex>15</clipindex>
													</link>
													<link>
														<linkclipref>Raw Interview Matthew Duepner437</linkclipref>
														<mediatype>audio</mediatype>
														<trackindex>1</trackindex>
														<clipindex>15</clipindex>
														<groupindex>1</groupindex>
													</link>
													<link>
														<linkclipref>Raw Interview Matthew Duepner438</linkclipref>
														<mediatype>audio</mediatype>
														<trackindex>2</trackindex>
														<clipindex>15</clipindex>
														<groupindex>1</groupindex>
													</link>
													<itemhistory>
														<uuid>1830D445-2660-460D-B8E7-D70E4D423172</uuid>
													</itemhistory>
												</clipitem>
												<clipitem id="Raw Interview Matthew Duepner441">
													<name>Raw Interview Matthew Duepner</name>
													<duration>81486</duration>
													<rate>
														<ntsc>TRUE</ntsc>
														<timebase>24</timebase>
													</rate>
													<in>11151</in>
													<out>11298</out>
													<start>2532</start>
													<end>2679</end>
													<masterclipid>Raw Interview Matthew Duepner390</masterclipid>
													<logginginfo>
														<scene/>
														<shottake/>
														<lognote/>
														<good>FALSE</good>
													</logginginfo>
													<labels>
														<label2/>
													</labels>
													<comments>
														<mastercomment1/>
														<mastercomment2/>
														<mastercomment3/>
														<mastercomment4/>
													</comments>
													<file id="YIN_2013-05-28_LG-5 "/>
													<filter>
														<effect>
															<name>Audio Levels</name>
															<effectid>audiolevels</effectid>
															<effectcategory>audiolevels</effectcategory>
															<effecttype>audiolevels</effecttype>
															<mediatype>audio</mediatype>
															<parameter>
																<name>Level</name>
																<parameterid>level</parameterid>
																<valuemin>0</valuemin>
																<valuemax>3.98109</valuemax>
																<value>1</value>
															</parameter>
														</effect>
													</filter>
													<filter>
														<effect>
															<name>Audio Pan</name>
															<effectid>audiopan</effectid>
															<effectcategory>audiopan</effectcategory>
															<effecttype>audiopan</effecttype>
															<mediatype>audio</mediatype>
															<parameter>
																<name>Pan</name>
																<parameterid>pan</parameterid>
																<valuemin>-1</valuemin>
																<valuemax>1</valuemax>
																<value>-0</value>
															</parameter>
														</effect>
													</filter>
													<sourcetrack>
														<mediatype>audio</mediatype>
														<trackindex>2</trackindex>
													</sourcetrack>
													<link>
														<linkclipref>Raw Interview Matthew Duepner439</linkclipref>
														<mediatype>video</mediatype>
														<trackindex>1</trackindex>
														<clipindex>16</clipindex>
													</link>
													<link>
														<linkclipref>Raw Interview Matthew Duepner440</linkclipref>
														<mediatype>audio</mediatype>
														<trackindex>1</trackindex>
														<clipindex>16</clipindex>
														<groupindex>1</groupindex>
													</link>
													<link>
														<linkclipref>Raw Interview Matthew Duepner441</linkclipref>
														<mediatype>audio</mediatype>
														<trackindex>2</trackindex>
														<clipindex>16</clipindex>
														<groupindex>1</groupindex>
													</link>
													<itemhistory>
														<uuid>57456287-D166-4150-96A1-FC3422681B60</uuid>
													</itemhistory>
												</clipitem>
												<clipitem id="Raw Interview Matthew Duepner444">
													<name>Raw Interview Matthew Duepner</name>
													<duration>81486</duration>
													<rate>
														<ntsc>TRUE</ntsc>
														<timebase>24</timebase>
													</rate>
													<in>11865</in>
													<out>11984</out>
													<start>2679</start>
													<end>2798</end>
													<masterclipid>Raw Interview Matthew Duepner390</masterclipid>
													<logginginfo>
														<scene/>
														<shottake/>
														<lognote/>
														<good>FALSE</good>
													</logginginfo>
													<labels>
														<label2/>
													</labels>
													<comments>
														<mastercomment1/>
														<mastercomment2/>
														<mastercomment3/>
														<mastercomment4/>
													</comments>
													<file id="YIN_2013-05-28_LG-5 "/>
													<filter>
														<effect>
															<name>Audio Levels</name>
															<effectid>audiolevels</effectid>
															<effectcategory>audiolevels</effectcategory>
															<effecttype>audiolevels</effecttype>
															<mediatype>audio</mediatype>
															<parameter>
																<name>Level</name>
																<parameterid>level</parameterid>
																<valuemin>0</valuemin>
																<valuemax>3.98109</valuemax>
																<value>1</value>
															</parameter>
														</effect>
													</filter>
													<filter>
														<effect>
															<name>Audio Pan</name>
															<effectid>audiopan</effectid>
															<effectcategory>audiopan</effectcategory>
															<effecttype>audiopan</effecttype>
															<mediatype>audio</mediatype>
															<parameter>
																<name>Pan</name>
																<parameterid>pan</parameterid>
																<valuemin>-1</valuemin>
																<valuemax>1</valuemax>
																<value>-0</value>
															</parameter>
														</effect>
													</filter>
													<sourcetrack>
														<mediatype>audio</mediatype>
														<trackindex>2</trackindex>
													</sourcetrack>
													<link>
														<linkclipref>Raw Interview Matthew Duepner442</linkclipref>
														<mediatype>video</mediatype>
														<trackindex>1</trackindex>
														<clipindex>17</clipindex>
													</link>
													<link>
														<linkclipref>Raw Interview Matthew Duepner443</linkclipref>
														<mediatype>audio</mediatype>
														<trackindex>1</trackindex>
														<clipindex>17</clipindex>
														<groupindex>1</groupindex>
													</link>
													<link>
														<linkclipref>Raw Interview Matthew Duepner444</linkclipref>
														<mediatype>audio</mediatype>
														<trackindex>2</trackindex>
														<clipindex>17</clipindex>
														<groupindex>1</groupindex>
													</link>
													<itemhistory>
														<uuid>8FDA8D3E-6778-499A-B24E-C5A31C72D019</uuid>
													</itemhistory>
												</clipitem>
												<clipitem id="Raw Interview Matthew Duepner447">
													<name>Raw Interview Matthew Duepner</name>
													<duration>81486</duration>
													<rate>
														<ntsc>TRUE</ntsc>
														<timebase>24</timebase>
													</rate>
													<in>12116</in>
													<out>12289</out>
													<start>2798</start>
													<end>2971</end>
													<masterclipid>Raw Interview Matthew Duepner390</masterclipid>
													<logginginfo>
														<scene/>
														<shottake/>
														<lognote/>
														<good>FALSE</good>
													</logginginfo>
													<labels>
														<label2/>
													</labels>
													<comments>
														<mastercomment1/>
														<mastercomment2/>
														<mastercomment3/>
														<mastercomment4/>
													</comments>
													<file id="YIN_2013-05-28_LG-5 "/>
													<filter>
														<effect>
															<name>Audio Levels</name>
															<effectid>audiolevels</effectid>
															<effectcategory>audiolevels</effectcategory>
															<effecttype>audiolevels</effecttype>
															<mediatype>audio</mediatype>
															<parameter>
																<name>Level</name>
																<parameterid>level</parameterid>
																<valuemin>0</valuemin>
																<valuemax>3.98109</valuemax>
																<value>1</value>
															</parameter>
														</effect>
													</filter>
													<filter>
														<effect>
															<name>Audio Pan</name>
															<effectid>audiopan</effectid>
															<effectcategory>audiopan</effectcategory>
															<effecttype>audiopan</effecttype>
															<mediatype>audio</mediatype>
															<parameter>
																<name>Pan</name>
																<parameterid>pan</parameterid>
																<valuemin>-1</valuemin>
																<valuemax>1</valuemax>
																<value>-0</value>
															</parameter>
														</effect>
													</filter>
													<sourcetrack>
														<mediatype>audio</mediatype>
														<trackindex>2</trackindex>
													</sourcetrack>
													<link>
														<linkclipref>Raw Interview Matthew Duepner445</linkclipref>
														<mediatype>video</mediatype>
														<trackindex>1</trackindex>
														<clipindex>18</clipindex>
													</link>
													<link>
														<linkclipref>Raw Interview Matthew Duepner446</linkclipref>
														<mediatype>audio</mediatype>
														<trackindex>1</trackindex>
														<clipindex>18</clipindex>
														<groupindex>1</groupindex>
													</link>
													<link>
														<linkclipref>Raw Interview Matthew Duepner447</linkclipref>
														<mediatype>audio</mediatype>
														<trackindex>2</trackindex>
														<clipindex>18</clipindex>
														<groupindex>1</groupindex>
													</link>
													<itemhistory>
														<uuid>CDD38825-B8A0-42CC-B79D-11426A577E6A</uuid>
													</itemhistory>
												</clipitem>
												<clipitem id="Raw Interview Matthew Duepner450">
													<name>Raw Interview Matthew Duepner</name>
													<duration>81486</duration>
													<rate>
														<ntsc>TRUE</ntsc>
														<timebase>24</timebase>
													</rate>
													<in>14189</in>
													<out>14334</out>
													<start>2971</start>
													<end>3116</end>
													<masterclipid>Raw Interview Matthew Duepner390</masterclipid>
													<logginginfo>
														<scene/>
														<shottake/>
														<lognote/>
														<good>FALSE</good>
													</logginginfo>
													<labels>
														<label2/>
													</labels>
													<comments>
														<mastercomment1/>
														<mastercomment2/>
														<mastercomment3/>
														<mastercomment4/>
													</comments>
													<file id="YIN_2013-05-28_LG-5 "/>
													<filter>
														<effect>
															<name>Audio Levels</name>
															<effectid>audiolevels</effectid>
															<effectcategory>audiolevels</effectcategory>
															<effecttype>audiolevels</effecttype>
															<mediatype>audio</mediatype>
															<parameter>
																<name>Level</name>
																<parameterid>level</parameterid>
																<valuemin>0</valuemin>
																<valuemax>3.98109</valuemax>
																<value>1</value>
															</parameter>
														</effect>
													</filter>
													<filter>
														<effect>
															<name>Audio Pan</name>
															<effectid>audiopan</effectid>
															<effectcategory>audiopan</effectcategory>
															<effecttype>audiopan</effecttype>
															<mediatype>audio</mediatype>
															<parameter>
																<name>Pan</name>
																<parameterid>pan</parameterid>
																<valuemin>-1</valuemin>
																<valuemax>1</valuemax>
																<value>-0</value>
															</parameter>
														</effect>
													</filter>
													<sourcetrack>
														<mediatype>audio</mediatype>
														<trackindex>2</trackindex>
													</sourcetrack>
													<link>
														<linkclipref>Raw Interview Matthew Duepner448</linkclipref>
														<mediatype>video</mediatype>
														<trackindex>1</trackindex>
														<clipindex>19</clipindex>
													</link>
													<link>
														<linkclipref>Raw Interview Matthew Duepner449</linkclipref>
														<mediatype>audio</mediatype>
														<trackindex>1</trackindex>
														<clipindex>19</clipindex>
														<groupindex>1</groupindex>
													</link>
													<link>
														<linkclipref>Raw Interview Matthew Duepner450</linkclipref>
														<mediatype>audio</mediatype>
														<trackindex>2</trackindex>
														<clipindex>19</clipindex>
														<groupindex>1</groupindex>
													</link>
													<itemhistory>
														<uuid>A1BB2F2D-D403-4190-AAA8-ADB65074EC4A</uuid>
													</itemhistory>
												</clipitem>
												<clipitem id="Raw Interview Matthew Duepner453">
													<name>Raw Interview Matthew Duepner</name>
													<duration>81486</duration>
													<rate>
														<ntsc>TRUE</ntsc>
														<timebase>24</timebase>
													</rate>
													<in>17169</in>
													<out>17401</out>
													<start>3116</start>
													<end>3348</end>
													<masterclipid>Raw Interview Matthew Duepner390</masterclipid>
													<logginginfo>
														<scene/>
														<shottake/>
														<lognote/>
														<good>FALSE</good>
													</logginginfo>
													<labels>
														<label2/>
													</labels>
													<comments>
														<mastercomment1/>
														<mastercomment2/>
														<mastercomment3/>
														<mastercomment4/>
													</comments>
													<file id="YIN_2013-05-28_LG-5 "/>
													<filter>
														<effect>
															<name>Audio Levels</name>
															<effectid>audiolevels</effectid>
															<effectcategory>audiolevels</effectcategory>
															<effecttype>audiolevels</effecttype>
															<mediatype>audio</mediatype>
															<parameter>
																<name>Level</name>
																<parameterid>level</parameterid>
																<valuemin>0</valuemin>
																<valuemax>3.98109</valuemax>
																<value>1</value>
															</parameter>
														</effect>
													</filter>
													<filter>
														<effect>
															<name>Audio Pan</name>
															<effectid>audiopan</effectid>
															<effectcategory>audiopan</effectcategory>
															<effecttype>audiopan</effecttype>
															<mediatype>audio</mediatype>
															<parameter>
																<name>Pan</name>
																<parameterid>pan</parameterid>
																<valuemin>-1</valuemin>
																<valuemax>1</valuemax>
																<value>-0</value>
															</parameter>
														</effect>
													</filter>
													<sourcetrack>
														<mediatype>audio</mediatype>
														<trackindex>2</trackindex>
													</sourcetrack>
													<link>
														<linkclipref>Raw Interview Matthew Duepner451</linkclipref>
														<mediatype>video</mediatype>
														<trackindex>1</trackindex>
														<clipindex>20</clipindex>
													</link>
													<link>
														<linkclipref>Raw Interview Matthew Duepner452</linkclipref>
														<mediatype>audio</mediatype>
														<trackindex>1</trackindex>
														<clipindex>20</clipindex>
														<groupindex>1</groupindex>
													</link>
													<link>
														<linkclipref>Raw Interview Matthew Duepner453</linkclipref>
														<mediatype>audio</mediatype>
														<trackindex>2</trackindex>
														<clipindex>20</clipindex>
														<groupindex>1</groupindex>
													</link>
													<itemhistory>
														<uuid>E167E1FA-5CFC-4EBB-A28D-D1749D8B7234</uuid>
													</itemhistory>
												</clipitem>
												<clipitem id="Raw Interview Matthew Duepner456">
													<name>Raw Interview Matthew Duepner</name>
													<duration>81486</duration>
													<rate>
														<ntsc>TRUE</ntsc>
														<timebase>24</timebase>
													</rate>
													<in>17964</in>
													<out>18613</out>
													<start>3348</start>
													<end>3997</end>
													<masterclipid>Raw Interview Matthew Duepner390</masterclipid>
													<logginginfo>
														<scene/>
														<shottake/>
														<lognote/>
														<good>FALSE</good>
													</logginginfo>
													<labels>
														<label2/>
													</labels>
													<comments>
														<mastercomment1/>
														<mastercomment2/>
														<mastercomment3/>
														<mastercomment4/>
													</comments>
													<file id="YIN_2013-05-28_LG-5 "/>
													<filter>
														<effect>
															<name>Audio Levels</name>
															<effectid>audiolevels</effectid>
															<effectcategory>audiolevels</effectcategory>
															<effecttype>audiolevels</effecttype>
															<mediatype>audio</mediatype>
															<parameter>
																<name>Level</name>
																<parameterid>level</parameterid>
																<valuemin>0</valuemin>
																<valuemax>3.98109</valuemax>
																<value>1</value>
															</parameter>
														</effect>
													</filter>
													<filter>
														<effect>
															<name>Audio Pan</name>
															<effectid>audiopan</effectid>
															<effectcategory>audiopan</effectcategory>
															<effecttype>audiopan</effecttype>
															<mediatype>audio</mediatype>
															<parameter>
																<name>Pan</name>
																<parameterid>pan</parameterid>
																<valuemin>-1</valuemin>
																<valuemax>1</valuemax>
																<value>-0</value>
															</parameter>
														</effect>
													</filter>
													<sourcetrack>
														<mediatype>audio</mediatype>
														<trackindex>2</trackindex>
													</sourcetrack>
													<link>
														<linkclipref>Raw Interview Matthew Duepner454</linkclipref>
														<mediatype>video</mediatype>
														<trackindex>1</trackindex>
														<clipindex>21</clipindex>
													</link>
													<link>
														<linkclipref>Raw Interview Matthew Duepner455</linkclipref>
														<mediatype>audio</mediatype>
														<trackindex>1</trackindex>
														<clipindex>21</clipindex>
														<groupindex>1</groupindex>
													</link>
													<link>
														<linkclipref>Raw Interview Matthew Duepner456</linkclipref>
														<mediatype>audio</mediatype>
														<trackindex>2</trackindex>
														<clipindex>21</clipindex>
														<groupindex>1</groupindex>
													</link>
													<itemhistory>
														<uuid>E0549FAF-A5E3-4007-B935-1F6B23695359</uuid>
													</itemhistory>
												</clipitem>
												<clipitem id="Raw Interview Matthew Duepner459">
													<name>Raw Interview Matthew Duepner</name>
													<duration>81486</duration>
													<rate>
														<ntsc>TRUE</ntsc>
														<timebase>24</timebase>
													</rate>
													<in>18645</in>
													<out>19018</out>
													<start>3997</start>
													<end>4370</end>
													<masterclipid>Raw Interview Matthew Duepner390</masterclipid>
													<logginginfo>
														<scene/>
														<shottake/>
														<lognote/>
														<good>FALSE</good>
													</logginginfo>
													<labels>
														<label2/>
													</labels>
													<comments>
														<mastercomment1/>
														<mastercomment2/>
														<mastercomment3/>
														<mastercomment4/>
													</comments>
													<file id="YIN_2013-05-28_LG-5 "/>
													<filter>
														<effect>
															<name>Audio Levels</name>
															<effectid>audiolevels</effectid>
															<effectcategory>audiolevels</effectcategory>
															<effecttype>audiolevels</effecttype>
															<mediatype>audio</mediatype>
															<parameter>
																<name>Level</name>
																<parameterid>level</parameterid>
																<valuemin>0</valuemin>
																<valuemax>3.98109</valuemax>
																<value>1</value>
															</parameter>
														</effect>
													</filter>
													<filter>
														<effect>
															<name>Audio Pan</name>
															<effectid>audiopan</effectid>
															<effectcategory>audiopan</effectcategory>
															<effecttype>audiopan</effecttype>
															<mediatype>audio</mediatype>
															<parameter>
																<name>Pan</name>
																<parameterid>pan</parameterid>
																<valuemin>-1</valuemin>
																<valuemax>1</valuemax>
																<value>-0</value>
															</parameter>
														</effect>
													</filter>
													<sourcetrack>
														<mediatype>audio</mediatype>
														<trackindex>2</trackindex>
													</sourcetrack>
													<link>
														<linkclipref>Raw Interview Matthew Duepner457</linkclipref>
														<mediatype>video</mediatype>
														<trackindex>1</trackindex>
														<clipindex>22</clipindex>
													</link>
													<link>
														<linkclipref>Raw Interview Matthew Duepner458</linkclipref>
														<mediatype>audio</mediatype>
														<trackindex>1</trackindex>
														<clipindex>22</clipindex>
														<groupindex>1</groupindex>
													</link>
													<link>
														<linkclipref>Raw Interview Matthew Duepner459</linkclipref>
														<mediatype>audio</mediatype>
														<trackindex>2</trackindex>
														<clipindex>22</clipindex>
														<groupindex>1</groupindex>
													</link>
													<itemhistory>
														<uuid>DD8EBEDF-DEDE-4855-8693-435A819C36C5</uuid>
													</itemhistory>
												</clipitem>
												<clipitem id="Raw Interview Matthew Duepner462">
													<name>Raw Interview Matthew Duepner</name>
													<duration>81486</duration>
													<rate>
														<ntsc>TRUE</ntsc>
														<timebase>24</timebase>
													</rate>
													<in>19126</in>
													<out>19267</out>
													<start>4370</start>
													<end>4511</end>
													<masterclipid>Raw Interview Matthew Duepner390</masterclipid>
													<logginginfo>
														<scene/>
														<shottake/>
														<lognote/>
														<good>FALSE</good>
													</logginginfo>
													<labels>
														<label2/>
													</labels>
													<comments>
														<mastercomment1/>
														<mastercomment2/>
														<mastercomment3/>
														<mastercomment4/>
													</comments>
													<file id="YIN_2013-05-28_LG-5 "/>
													<filter>
														<effect>
															<name>Audio Levels</name>
															<effectid>audiolevels</effectid>
															<effectcategory>audiolevels</effectcategory>
															<effecttype>audiolevels</effecttype>
															<mediatype>audio</mediatype>
															<parameter>
																<name>Level</name>
																<parameterid>level</parameterid>
																<valuemin>0</valuemin>
																<valuemax>3.98109</valuemax>
																<value>1</value>
															</parameter>
														</effect>
													</filter>
													<filter>
														<effect>
															<name>Audio Pan</name>
															<effectid>audiopan</effectid>
															<effectcategory>audiopan</effectcategory>
															<effecttype>audiopan</effecttype>
															<mediatype>audio</mediatype>
															<parameter>
																<name>Pan</name>
																<parameterid>pan</parameterid>
																<valuemin>-1</valuemin>
																<valuemax>1</valuemax>
																<value>-0</value>
															</parameter>
														</effect>
													</filter>
													<sourcetrack>
														<mediatype>audio</mediatype>
														<trackindex>2</trackindex>
													</sourcetrack>
													<link>
														<linkclipref>Raw Interview Matthew Duepner460</linkclipref>
														<mediatype>video</mediatype>
														<trackindex>1</trackindex>
														<clipindex>23</clipindex>
													</link>
													<link>
														<linkclipref>Raw Interview Matthew Duepner461</linkclipref>
														<mediatype>audio</mediatype>
														<trackindex>1</trackindex>
														<clipindex>23</clipindex>
														<groupindex>1</groupindex>
													</link>
													<link>
														<linkclipref>Raw Interview Matthew Duepner462</linkclipref>
														<mediatype>audio</mediatype>
														<trackindex>2</trackindex>
														<clipindex>23</clipindex>
														<groupindex>1</groupindex>
													</link>
													<itemhistory>
														<uuid>93057BF9-D4F0-4CDD-97B4-12D634D25A3F</uuid>
													</itemhistory>
												</clipitem>
												<clipitem id="Raw Interview Matthew Duepner465">
													<name>Raw Interview Matthew Duepner</name>
													<duration>81486</duration>
													<rate>
														<ntsc>TRUE</ntsc>
														<timebase>24</timebase>
													</rate>
													<in>19372</in>
													<out>19423</out>
													<start>4511</start>
													<end>4562</end>
													<masterclipid>Raw Interview Matthew Duepner390</masterclipid>
													<logginginfo>
														<scene/>
														<shottake/>
														<lognote/>
														<good>FALSE</good>
													</logginginfo>
													<labels>
														<label2/>
													</labels>
													<comments>
														<mastercomment1/>
														<mastercomment2/>
														<mastercomment3/>
														<mastercomment4/>
													</comments>
													<file id="YIN_2013-05-28_LG-5 "/>
													<filter>
														<effect>
															<name>Audio Levels</name>
															<effectid>audiolevels</effectid>
															<effectcategory>audiolevels</effectcategory>
															<effecttype>audiolevels</effecttype>
															<mediatype>audio</mediatype>
															<parameter>
																<name>Level</name>
																<parameterid>level</parameterid>
																<valuemin>0</valuemin>
																<valuemax>3.98109</valuemax>
																<value>1</value>
															</parameter>
														</effect>
													</filter>
													<filter>
														<effect>
															<name>Audio Pan</name>
															<effectid>audiopan</effectid>
															<effectcategory>audiopan</effectcategory>
															<effecttype>audiopan</effecttype>
															<mediatype>audio</mediatype>
															<parameter>
																<name>Pan</name>
																<parameterid>pan</parameterid>
																<valuemin>-1</valuemin>
																<valuemax>1</valuemax>
																<value>-0</value>
															</parameter>
														</effect>
													</filter>
													<sourcetrack>
														<mediatype>audio</mediatype>
														<trackindex>2</trackindex>
													</sourcetrack>
													<link>
														<linkclipref>Raw Interview Matthew Duepner463</linkclipref>
														<mediatype>video</mediatype>
														<trackindex>1</trackindex>
														<clipindex>24</clipindex>
													</link>
													<link>
														<linkclipref>Raw Interview Matthew Duepner464</linkclipref>
														<mediatype>audio</mediatype>
														<trackindex>1</trackindex>
														<clipindex>24</clipindex>
														<groupindex>1</groupindex>
													</link>
													<link>
														<linkclipref>Raw Interview Matthew Duepner465</linkclipref>
														<mediatype>audio</mediatype>
														<trackindex>2</trackindex>
														<clipindex>24</clipindex>
														<groupindex>1</groupindex>
													</link>
													<itemhistory>
														<uuid>0F94C069-7740-4828-A384-2880DD388EDF</uuid>
													</itemhistory>
												</clipitem>
												<clipitem id="Raw Interview Matthew Duepner468">
													<name>Raw Interview Matthew Duepner</name>
													<duration>81486</duration>
													<rate>
														<ntsc>TRUE</ntsc>
														<timebase>24</timebase>
													</rate>
													<in>19423</in>
													<out>19455</out>
													<start>4562</start>
													<end>4594</end>
													<masterclipid>Raw Interview Matthew Duepner390</masterclipid>
													<logginginfo>
														<scene/>
														<shottake/>
														<lognote/>
														<good>FALSE</good>
													</logginginfo>
													<labels>
														<label2/>
													</labels>
													<comments>
														<mastercomment1/>
														<mastercomment2/>
														<mastercomment3/>
														<mastercomment4/>
													</comments>
													<file id="YIN_2013-05-28_LG-5 "/>
													<filter>
														<effect>
															<name>Audio Levels</name>
															<effectid>audiolevels</effectid>
															<effectcategory>audiolevels</effectcategory>
															<effecttype>audiolevels</effecttype>
															<mediatype>audio</mediatype>
															<parameter>
																<name>Level</name>
																<parameterid>level</parameterid>
																<valuemin>0</valuemin>
																<valuemax>3.98109</valuemax>
																<value>1</value>
															</parameter>
														</effect>
													</filter>
													<filter>
														<effect>
															<name>Audio Pan</name>
															<effectid>audiopan</effectid>
															<effectcategory>audiopan</effectcategory>
															<effecttype>audiopan</effecttype>
															<mediatype>audio</mediatype>
															<parameter>
																<name>Pan</name>
																<parameterid>pan</parameterid>
																<valuemin>-1</valuemin>
																<valuemax>1</valuemax>
																<value>-0</value>
															</parameter>
														</effect>
													</filter>
													<sourcetrack>
														<mediatype>audio</mediatype>
														<trackindex>2</trackindex>
													</sourcetrack>
													<link>
														<linkclipref>Raw Interview Matthew Duepner466</linkclipref>
														<mediatype>video</mediatype>
														<trackindex>1</trackindex>
														<clipindex>25</clipindex>
													</link>
													<link>
														<linkclipref>Raw Interview Matthew Duepner467</linkclipref>
														<mediatype>audio</mediatype>
														<trackindex>1</trackindex>
														<clipindex>25</clipindex>
														<groupindex>1</groupindex>
													</link>
													<link>
														<linkclipref>Raw Interview Matthew Duepner468</linkclipref>
														<mediatype>audio</mediatype>
														<trackindex>2</trackindex>
														<clipindex>25</clipindex>
														<groupindex>1</groupindex>
													</link>
													<itemhistory>
														<uuid>FAB4FA38-1FCD-4785-9088-F606FBC84B41</uuid>
													</itemhistory>
												</clipitem>
												<clipitem id="Raw Interview Matthew Duepner471">
													<name>Raw Interview Matthew Duepner</name>
													<duration>81486</duration>
													<rate>
														<ntsc>TRUE</ntsc>
														<timebase>24</timebase>
													</rate>
													<in>19520</in>
													<out>19602</out>
													<start>4594</start>
													<end>4676</end>
													<masterclipid>Raw Interview Matthew Duepner390</masterclipid>
													<logginginfo>
														<scene/>
														<shottake/>
														<lognote/>
														<good>FALSE</good>
													</logginginfo>
													<labels>
														<label2/>
													</labels>
													<comments>
														<mastercomment1/>
														<mastercomment2/>
														<mastercomment3/>
														<mastercomment4/>
													</comments>
													<file id="YIN_2013-05-28_LG-5 "/>
													<filter>
														<effect>
															<name>Audio Levels</name>
															<effectid>audiolevels</effectid>
															<effectcategory>audiolevels</effectcategory>
															<effecttype>audiolevels</effecttype>
															<mediatype>audio</mediatype>
															<parameter>
																<name>Level</name>
																<parameterid>level</parameterid>
																<valuemin>0</valuemin>
																<valuemax>3.98109</valuemax>
																<value>1</value>
															</parameter>
														</effect>
													</filter>
													<filter>
														<effect>
															<name>Audio Pan</name>
															<effectid>audiopan</effectid>
															<effectcategory>audiopan</effectcategory>
															<effecttype>audiopan</effecttype>
															<mediatype>audio</mediatype>
															<parameter>
																<name>Pan</name>
																<parameterid>pan</parameterid>
																<valuemin>-1</valuemin>
																<valuemax>1</valuemax>
																<value>-0</value>
															</parameter>
														</effect>
													</filter>
													<sourcetrack>
														<mediatype>audio</mediatype>
														<trackindex>2</trackindex>
													</sourcetrack>
													<link>
														<linkclipref>Raw Interview Matthew Duepner469</linkclipref>
														<mediatype>video</mediatype>
														<trackindex>1</trackindex>
														<clipindex>26</clipindex>
													</link>
													<link>
														<linkclipref>Raw Interview Matthew Duepner470</linkclipref>
														<mediatype>audio</mediatype>
														<trackindex>1</trackindex>
														<clipindex>26</clipindex>
														<groupindex>1</groupindex>
													</link>
													<link>
														<linkclipref>Raw Interview Matthew Duepner471</linkclipref>
														<mediatype>audio</mediatype>
														<trackindex>2</trackindex>
														<clipindex>26</clipindex>
														<groupindex>1</groupindex>
													</link>
													<itemhistory>
														<uuid>F97578AB-F030-4E7D-A839-2365DBE39E86</uuid>
													</itemhistory>
												</clipitem>
												<clipitem id="Raw Interview Matthew Duepner474">
													<name>Raw Interview Matthew Duepner</name>
													<duration>81486</duration>
													<rate>
														<ntsc>TRUE</ntsc>
														<timebase>24</timebase>
													</rate>
													<in>19602</in>
													<out>19780</out>
													<start>4676</start>
													<end>4854</end>
													<masterclipid>Raw Interview Matthew Duepner390</masterclipid>
													<logginginfo>
														<scene/>
														<shottake/>
														<lognote/>
														<good>FALSE</good>
													</logginginfo>
													<labels>
														<label2/>
													</labels>
													<comments>
														<mastercomment1/>
														<mastercomment2/>
														<mastercomment3/>
														<mastercomment4/>
													</comments>
													<file id="YIN_2013-05-28_LG-5 "/>
													<filter>
														<effect>
															<name>Audio Levels</name>
															<effectid>audiolevels</effectid>
															<effectcategory>audiolevels</effectcategory>
															<effecttype>audiolevels</effecttype>
															<mediatype>audio</mediatype>
															<parameter>
																<name>Level</name>
																<parameterid>level</parameterid>
																<valuemin>0</valuemin>
																<valuemax>3.98109</valuemax>
																<value>1</value>
															</parameter>
														</effect>
													</filter>
													<filter>
														<effect>
															<name>Audio Pan</name>
															<effectid>audiopan</effectid>
															<effectcategory>audiopan</effectcategory>
															<effecttype>audiopan</effecttype>
															<mediatype>audio</mediatype>
															<parameter>
																<name>Pan</name>
																<parameterid>pan</parameterid>
																<valuemin>-1</valuemin>
																<valuemax>1</valuemax>
																<value>-0</value>
															</parameter>
														</effect>
													</filter>
													<sourcetrack>
														<mediatype>audio</mediatype>
														<trackindex>2</trackindex>
													</sourcetrack>
													<link>
														<linkclipref>Raw Interview Matthew Duepner472</linkclipref>
														<mediatype>video</mediatype>
														<trackindex>1</trackindex>
														<clipindex>27</clipindex>
													</link>
													<link>
														<linkclipref>Raw Interview Matthew Duepner473</linkclipref>
														<mediatype>audio</mediatype>
														<trackindex>1</trackindex>
														<clipindex>27</clipindex>
														<groupindex>1</groupindex>
													</link>
													<link>
														<linkclipref>Raw Interview Matthew Duepner474</linkclipref>
														<mediatype>audio</mediatype>
														<trackindex>2</trackindex>
														<clipindex>27</clipindex>
														<groupindex>1</groupindex>
													</link>
													<itemhistory>
														<uuid>F16A4F15-C3D9-4084-9569-6A602A54611D</uuid>
													</itemhistory>
												</clipitem>
												<clipitem id="Raw Interview Matthew Duepner477">
													<name>Raw Interview Matthew Duepner</name>
													<duration>81486</duration>
													<rate>
														<ntsc>TRUE</ntsc>
														<timebase>24</timebase>
													</rate>
													<in>20313</in>
													<out>20815</out>
													<start>4854</start>
													<end>5356</end>
													<masterclipid>Raw Interview Matthew Duepner390</masterclipid>
													<logginginfo>
														<scene/>
														<shottake/>
														<lognote/>
														<good>FALSE</good>
													</logginginfo>
													<labels>
														<label2/>
													</labels>
													<comments>
														<mastercomment1/>
														<mastercomment2/>
														<mastercomment3/>
														<mastercomment4/>
													</comments>
													<file id="YIN_2013-05-28_LG-5 "/>
													<filter>
														<effect>
															<name>Audio Levels</name>
															<effectid>audiolevels</effectid>
															<effectcategory>audiolevels</effectcategory>
															<effecttype>audiolevels</effecttype>
															<mediatype>audio</mediatype>
															<parameter>
																<name>Level</name>
																<parameterid>level</parameterid>
																<valuemin>0</valuemin>
																<valuemax>3.98109</valuemax>
																<value>1</value>
															</parameter>
														</effect>
													</filter>
													<filter>
														<effect>
															<name>Audio Pan</name>
															<effectid>audiopan</effectid>
															<effectcategory>audiopan</effectcategory>
															<effecttype>audiopan</effecttype>
															<mediatype>audio</mediatype>
															<parameter>
																<name>Pan</name>
																<parameterid>pan</parameterid>
																<valuemin>-1</valuemin>
																<valuemax>1</valuemax>
																<value>-0</value>
															</parameter>
														</effect>
													</filter>
													<sourcetrack>
														<mediatype>audio</mediatype>
														<trackindex>2</trackindex>
													</sourcetrack>
													<link>
														<linkclipref>Raw Interview Matthew Duepner475</linkclipref>
														<mediatype>video</mediatype>
														<trackindex>1</trackindex>
														<clipindex>28</clipindex>
													</link>
													<link>
														<linkclipref>Raw Interview Matthew Duepner476</linkclipref>
														<mediatype>audio</mediatype>
														<trackindex>1</trackindex>
														<clipindex>28</clipindex>
														<groupindex>1</groupindex>
													</link>
													<link>
														<linkclipref>Raw Interview Matthew Duepner477</linkclipref>
														<mediatype>audio</mediatype>
														<trackindex>2</trackindex>
														<clipindex>28</clipindex>
														<groupindex>1</groupindex>
													</link>
													<itemhistory>
														<uuid>1396BECA-65A4-4B86-AAEA-A96067382D92</uuid>
													</itemhistory>
												</clipitem>
												<clipitem id="Raw Interview Matthew Duepner480">
													<name>Raw Interview Matthew Duepner</name>
													<duration>81486</duration>
													<rate>
														<ntsc>TRUE</ntsc>
														<timebase>24</timebase>
													</rate>
													<in>20982</in>
													<out>21125</out>
													<start>5356</start>
													<end>5499</end>
													<masterclipid>Raw Interview Matthew Duepner390</masterclipid>
													<logginginfo>
														<scene/>
														<shottake/>
														<lognote/>
														<good>FALSE</good>
													</logginginfo>
													<labels>
														<label2/>
													</labels>
													<comments>
														<mastercomment1/>
														<mastercomment2/>
														<mastercomment3/>
														<mastercomment4/>
													</comments>
													<file id="YIN_2013-05-28_LG-5 "/>
													<filter>
														<effect>
															<name>Audio Levels</name>
															<effectid>audiolevels</effectid>
															<effectcategory>audiolevels</effectcategory>
															<effecttype>audiolevels</effecttype>
															<mediatype>audio</mediatype>
															<parameter>
																<name>Level</name>
																<parameterid>level</parameterid>
																<valuemin>0</valuemin>
																<valuemax>3.98109</valuemax>
																<value>1</value>
															</parameter>
														</effect>
													</filter>
													<filter>
														<effect>
															<name>Audio Pan</name>
															<effectid>audiopan</effectid>
															<effectcategory>audiopan</effectcategory>
															<effecttype>audiopan</effecttype>
															<mediatype>audio</mediatype>
															<parameter>
																<name>Pan</name>
																<parameterid>pan</parameterid>
																<valuemin>-1</valuemin>
																<valuemax>1</valuemax>
																<value>-0</value>
															</parameter>
														</effect>
													</filter>
													<sourcetrack>
														<mediatype>audio</mediatype>
														<trackindex>2</trackindex>
													</sourcetrack>
													<link>
														<linkclipref>Raw Interview Matthew Duepner478</linkclipref>
														<mediatype>video</mediatype>
														<trackindex>1</trackindex>
														<clipindex>29</clipindex>
													</link>
													<link>
														<linkclipref>Raw Interview Matthew Duepner479</linkclipref>
														<mediatype>audio</mediatype>
														<trackindex>1</trackindex>
														<clipindex>29</clipindex>
														<groupindex>1</groupindex>
													</link>
													<link>
														<linkclipref>Raw Interview Matthew Duepner480</linkclipref>
														<mediatype>audio</mediatype>
														<trackindex>2</trackindex>
														<clipindex>29</clipindex>
														<groupindex>1</groupindex>
													</link>
													<itemhistory>
														<uuid>F5872491-1D5A-459C-B932-5A3A7986B2BC</uuid>
													</itemhistory>
												</clipitem>
												<clipitem id="Raw Interview Matthew Duepner483">
													<name>Raw Interview Matthew Duepner</name>
													<duration>81486</duration>
													<rate>
														<ntsc>TRUE</ntsc>
														<timebase>24</timebase>
													</rate>
													<in>21684</in>
													<out>21826</out>
													<start>5499</start>
													<end>5641</end>
													<masterclipid>Raw Interview Matthew Duepner390</masterclipid>
													<logginginfo>
														<scene/>
														<shottake/>
														<lognote/>
														<good>FALSE</good>
													</logginginfo>
													<labels>
														<label2/>
													</labels>
													<comments>
														<mastercomment1/>
														<mastercomment2/>
														<mastercomment3/>
														<mastercomment4/>
													</comments>
													<file id="YIN_2013-05-28_LG-5 "/>
													<filter>
														<effect>
															<name>Audio Levels</name>
															<effectid>audiolevels</effectid>
															<effectcategory>audiolevels</effectcategory>
															<effecttype>audiolevels</effecttype>
															<mediatype>audio</mediatype>
															<parameter>
																<name>Level</name>
																<parameterid>level</parameterid>
																<valuemin>0</valuemin>
																<valuemax>3.98109</valuemax>
																<value>1</value>
															</parameter>
														</effect>
													</filter>
													<filter>
														<effect>
															<name>Audio Pan</name>
															<effectid>audiopan</effectid>
															<effectcategory>audiopan</effectcategory>
															<effecttype>audiopan</effecttype>
															<mediatype>audio</mediatype>
															<parameter>
																<name>Pan</name>
																<parameterid>pan</parameterid>
																<valuemin>-1</valuemin>
																<valuemax>1</valuemax>
																<value>-0</value>
															</parameter>
														</effect>
													</filter>
													<sourcetrack>
														<mediatype>audio</mediatype>
														<trackindex>2</trackindex>
													</sourcetrack>
													<link>
														<linkclipref>Raw Interview Matthew Duepner481</linkclipref>
														<mediatype>video</mediatype>
														<trackindex>1</trackindex>
														<clipindex>30</clipindex>
													</link>
													<link>
														<linkclipref>Raw Interview Matthew Duepner482</linkclipref>
														<mediatype>audio</mediatype>
														<trackindex>1</trackindex>
														<clipindex>30</clipindex>
														<groupindex>1</groupindex>
													</link>
													<link>
														<linkclipref>Raw Interview Matthew Duepner483</linkclipref>
														<mediatype>audio</mediatype>
														<trackindex>2</trackindex>
														<clipindex>30</clipindex>
														<groupindex>1</groupindex>
													</link>
													<itemhistory>
														<uuid>FAABE9DF-E986-4D99-86AA-4047ACEA7AC0</uuid>
													</itemhistory>
												</clipitem>
												<clipitem id="Raw Interview Matthew Duepner486">
													<name>Raw Interview Matthew Duepner</name>
													<duration>81486</duration>
													<rate>
														<ntsc>TRUE</ntsc>
														<timebase>24</timebase>
													</rate>
													<in>22225</in>
													<out>22353</out>
													<start>5641</start>
													<end>5769</end>
													<masterclipid>Raw Interview Matthew Duepner390</masterclipid>
													<logginginfo>
														<scene/>
														<shottake/>
														<lognote/>
														<good>FALSE</good>
													</logginginfo>
													<labels>
														<label2/>
													</labels>
													<comments>
														<mastercomment1/>
														<mastercomment2/>
														<mastercomment3/>
														<mastercomment4/>
													</comments>
													<file id="YIN_2013-05-28_LG-5 "/>
													<filter>
														<effect>
															<name>Audio Levels</name>
															<effectid>audiolevels</effectid>
															<effectcategory>audiolevels</effectcategory>
															<effecttype>audiolevels</effecttype>
															<mediatype>audio</mediatype>
															<parameter>
																<name>Level</name>
																<parameterid>level</parameterid>
																<valuemin>0</valuemin>
																<valuemax>3.98109</valuemax>
																<value>1</value>
															</parameter>
														</effect>
													</filter>
													<filter>
														<effect>
															<name>Audio Pan</name>
															<effectid>audiopan</effectid>
															<effectcategory>audiopan</effectcategory>
															<effecttype>audiopan</effecttype>
															<mediatype>audio</mediatype>
															<parameter>
																<name>Pan</name>
																<parameterid>pan</parameterid>
																<valuemin>-1</valuemin>
																<valuemax>1</valuemax>
																<value>-0</value>
															</parameter>
														</effect>
													</filter>
													<sourcetrack>
														<mediatype>audio</mediatype>
														<trackindex>2</trackindex>
													</sourcetrack>
													<link>
														<linkclipref>Raw Interview Matthew Duepner484</linkclipref>
														<mediatype>video</mediatype>
														<trackindex>1</trackindex>
														<clipindex>31</clipindex>
													</link>
													<link>
														<linkclipref>Raw Interview Matthew Duepner485</linkclipref>
														<mediatype>audio</mediatype>
														<trackindex>1</trackindex>
														<clipindex>31</clipindex>
														<groupindex>1</groupindex>
													</link>
													<link>
														<linkclipref>Raw Interview Matthew Duepner486</linkclipref>
														<mediatype>audio</mediatype>
														<trackindex>2</trackindex>
														<clipindex>31</clipindex>
														<groupindex>1</groupindex>
													</link>
													<itemhistory>
														<uuid>80805D89-29DA-45E9-A49F-F85FB8741916</uuid>
													</itemhistory>
												</clipitem>
												<clipitem id="Raw Interview Matthew Duepner489">
													<name>Raw Interview Matthew Duepner</name>
													<duration>81486</duration>
													<rate>
														<ntsc>TRUE</ntsc>
														<timebase>24</timebase>
													</rate>
													<in>22806</in>
													<out>23131</out>
													<start>5769</start>
													<end>6094</end>
													<masterclipid>Raw Interview Matthew Duepner390</masterclipid>
													<logginginfo>
														<scene/>
														<shottake/>
														<lognote/>
														<good>FALSE</good>
													</logginginfo>
													<labels>
														<label2/>
													</labels>
													<comments>
														<mastercomment1/>
														<mastercomment2/>
														<mastercomment3/>
														<mastercomment4/>
													</comments>
													<file id="YIN_2013-05-28_LG-5 "/>
													<filter>
														<effect>
															<name>Audio Levels</name>
															<effectid>audiolevels</effectid>
															<effectcategory>audiolevels</effectcategory>
															<effecttype>audiolevels</effecttype>
															<mediatype>audio</mediatype>
															<parameter>
																<name>Level</name>
																<parameterid>level</parameterid>
																<valuemin>0</valuemin>
																<valuemax>3.98109</valuemax>
																<value>1</value>
															</parameter>
														</effect>
													</filter>
													<filter>
														<effect>
															<name>Audio Pan</name>
															<effectid>audiopan</effectid>
															<effectcategory>audiopan</effectcategory>
															<effecttype>audiopan</effecttype>
															<mediatype>audio</mediatype>
															<parameter>
																<name>Pan</name>
																<parameterid>pan</parameterid>
																<valuemin>-1</valuemin>
																<valuemax>1</valuemax>
																<value>-0</value>
															</parameter>
														</effect>
													</filter>
													<sourcetrack>
														<mediatype>audio</mediatype>
														<trackindex>2</trackindex>
													</sourcetrack>
													<link>
														<linkclipref>Raw Interview Matthew Duepner487</linkclipref>
														<mediatype>video</mediatype>
														<trackindex>1</trackindex>
														<clipindex>32</clipindex>
													</link>
													<link>
														<linkclipref>Raw Interview Matthew Duepner488</linkclipref>
														<mediatype>audio</mediatype>
														<trackindex>1</trackindex>
														<clipindex>32</clipindex>
														<groupindex>1</groupindex>
													</link>
													<link>
														<linkclipref>Raw Interview Matthew Duepner489</linkclipref>
														<mediatype>audio</mediatype>
														<trackindex>2</trackindex>
														<clipindex>32</clipindex>
														<groupindex>1</groupindex>
													</link>
													<itemhistory>
														<uuid>2C23CAEC-575D-4CD9-A5D0-D9ACBA13F92D</uuid>
													</itemhistory>
												</clipitem>
												<clipitem id="Raw Interview Matthew Duepner492">
													<name>Raw Interview Matthew Duepner</name>
													<duration>81486</duration>
													<rate>
														<ntsc>TRUE</ntsc>
														<timebase>24</timebase>
													</rate>
													<in>24240</in>
													<out>24488</out>
													<start>6094</start>
													<end>6342</end>
													<masterclipid>Raw Interview Matthew Duepner390</masterclipid>
													<logginginfo>
														<scene/>
														<shottake/>
														<lognote/>
														<good>FALSE</good>
													</logginginfo>
													<labels>
														<label2/>
													</labels>
													<comments>
														<mastercomment1/>
														<mastercomment2/>
														<mastercomment3/>
														<mastercomment4/>
													</comments>
													<file id="YIN_2013-05-28_LG-5 "/>
													<filter>
														<effect>
															<name>Audio Levels</name>
															<effectid>audiolevels</effectid>
															<effectcategory>audiolevels</effectcategory>
															<effecttype>audiolevels</effecttype>
															<mediatype>audio</mediatype>
															<parameter>
																<name>Level</name>
																<parameterid>level</parameterid>
																<valuemin>0</valuemin>
																<valuemax>3.98109</valuemax>
																<value>1</value>
															</parameter>
														</effect>
													</filter>
													<filter>
														<effect>
															<name>Audio Pan</name>
															<effectid>audiopan</effectid>
															<effectcategory>audiopan</effectcategory>
															<effecttype>audiopan</effecttype>
															<mediatype>audio</mediatype>
															<parameter>
																<name>Pan</name>
																<parameterid>pan</parameterid>
																<valuemin>-1</valuemin>
																<valuemax>1</valuemax>
																<value>-0</value>
															</parameter>
														</effect>
													</filter>
													<sourcetrack>
														<mediatype>audio</mediatype>
														<trackindex>2</trackindex>
													</sourcetrack>
													<link>
														<linkclipref>Raw Interview Matthew Duepner490</linkclipref>
														<mediatype>video</mediatype>
														<trackindex>1</trackindex>
														<clipindex>33</clipindex>
													</link>
													<link>
														<linkclipref>Raw Interview Matthew Duepner491</linkclipref>
														<mediatype>audio</mediatype>
														<trackindex>1</trackindex>
														<clipindex>33</clipindex>
														<groupindex>1</groupindex>
													</link>
													<link>
														<linkclipref>Raw Interview Matthew Duepner492</linkclipref>
														<mediatype>audio</mediatype>
														<trackindex>2</trackindex>
														<clipindex>33</clipindex>
														<groupindex>1</groupindex>
													</link>
													<itemhistory>
														<uuid>25E9FAE1-66B6-49CE-B736-D4521F8E6D94</uuid>
													</itemhistory>
												</clipitem>
												<clipitem id="Raw Interview Matthew Duepner495">
													<name>Raw Interview Matthew Duepner</name>
													<duration>81486</duration>
													<rate>
														<ntsc>TRUE</ntsc>
														<timebase>24</timebase>
													</rate>
													<in>24734</in>
													<out>25029</out>
													<start>6342</start>
													<end>6637</end>
													<masterclipid>Raw Interview Matthew Duepner390</masterclipid>
													<logginginfo>
														<scene/>
														<shottake/>
														<lognote/>
														<good>FALSE</good>
													</logginginfo>
													<labels>
														<label2/>
													</labels>
													<comments>
														<mastercomment1/>
														<mastercomment2/>
														<mastercomment3/>
														<mastercomment4/>
													</comments>
													<file id="YIN_2013-05-28_LG-5 "/>
													<filter>
														<effect>
															<name>Audio Levels</name>
															<effectid>audiolevels</effectid>
															<effectcategory>audiolevels</effectcategory>
															<effecttype>audiolevels</effecttype>
															<mediatype>audio</mediatype>
															<parameter>
																<name>Level</name>
																<parameterid>level</parameterid>
																<valuemin>0</valuemin>
																<valuemax>3.98109</valuemax>
																<value>1</value>
															</parameter>
														</effect>
													</filter>
													<filter>
														<effect>
															<name>Audio Pan</name>
															<effectid>audiopan</effectid>
															<effectcategory>audiopan</effectcategory>
															<effecttype>audiopan</effecttype>
															<mediatype>audio</mediatype>
															<parameter>
																<name>Pan</name>
																<parameterid>pan</parameterid>
																<valuemin>-1</valuemin>
																<valuemax>1</valuemax>
																<value>-0</value>
															</parameter>
														</effect>
													</filter>
													<sourcetrack>
														<mediatype>audio</mediatype>
														<trackindex>2</trackindex>
													</sourcetrack>
													<link>
														<linkclipref>Raw Interview Matthew Duepner493</linkclipref>
														<mediatype>video</mediatype>
														<trackindex>1</trackindex>
														<clipindex>34</clipindex>
													</link>
													<link>
														<linkclipref>Raw Interview Matthew Duepner494</linkclipref>
														<mediatype>audio</mediatype>
														<trackindex>1</trackindex>
														<clipindex>34</clipindex>
														<groupindex>1</groupindex>
													</link>
													<link>
														<linkclipref>Raw Interview Matthew Duepner495</linkclipref>
														<mediatype>audio</mediatype>
														<trackindex>2</trackindex>
														<clipindex>34</clipindex>
														<groupindex>1</groupindex>
													</link>
													<itemhistory>
														<uuid>8A7BCC9F-ECA9-4691-BBB6-6F63F4D6D5D3</uuid>
													</itemhistory>
												</clipitem>
												<clipitem id="Raw Interview Matthew Duepner498">
													<name>Raw Interview Matthew Duepner</name>
													<duration>81486</duration>
													<rate>
														<ntsc>TRUE</ntsc>
														<timebase>24</timebase>
													</rate>
													<in>25948</in>
													<out>26160</out>
													<start>6637</start>
													<end>6849</end>
													<masterclipid>Raw Interview Matthew Duepner390</masterclipid>
													<logginginfo>
														<scene/>
														<shottake/>
														<lognote/>
														<good>FALSE</good>
													</logginginfo>
													<labels>
														<label2/>
													</labels>
													<comments>
														<mastercomment1/>
														<mastercomment2/>
														<mastercomment3/>
														<mastercomment4/>
													</comments>
													<file id="YIN_2013-05-28_LG-5 "/>
													<filter>
														<effect>
															<name>Audio Levels</name>
															<effectid>audiolevels</effectid>
															<effectcategory>audiolevels</effectcategory>
															<effecttype>audiolevels</effecttype>
															<mediatype>audio</mediatype>
															<parameter>
																<name>Level</name>
																<parameterid>level</parameterid>
																<valuemin>0</valuemin>
																<valuemax>3.98109</valuemax>
																<value>1</value>
															</parameter>
														</effect>
													</filter>
													<filter>
														<effect>
															<name>Audio Pan</name>
															<effectid>audiopan</effectid>
															<effectcategory>audiopan</effectcategory>
															<effecttype>audiopan</effecttype>
															<mediatype>audio</mediatype>
															<parameter>
																<name>Pan</name>
																<parameterid>pan</parameterid>
																<valuemin>-1</valuemin>
																<valuemax>1</valuemax>
																<value>-0</value>
															</parameter>
														</effect>
													</filter>
													<sourcetrack>
														<mediatype>audio</mediatype>
														<trackindex>2</trackindex>
													</sourcetrack>
													<link>
														<linkclipref>Raw Interview Matthew Duepner496</linkclipref>
														<mediatype>video</mediatype>
														<trackindex>1</trackindex>
														<clipindex>35</clipindex>
													</link>
													<link>
														<linkclipref>Raw Interview Matthew Duepner497</linkclipref>
														<mediatype>audio</mediatype>
														<trackindex>1</trackindex>
														<clipindex>35</clipindex>
														<groupindex>1</groupindex>
													</link>
													<link>
														<linkclipref>Raw Interview Matthew Duepner498</linkclipref>
														<mediatype>audio</mediatype>
														<trackindex>2</trackindex>
														<clipindex>35</clipindex>
														<groupindex>1</groupindex>
													</link>
													<itemhistory>
														<uuid>5078DAEB-174F-4FA8-BBC6-227BE7E30146</uuid>
													</itemhistory>
												</clipitem>
												<clipitem id="Raw Interview Matthew Duepner501">
													<name>Raw Interview Matthew Duepner</name>
													<duration>81486</duration>
													<rate>
														<ntsc>TRUE</ntsc>
														<timebase>24</timebase>
													</rate>
													<in>26630</in>
													<out>26790</out>
													<start>6849</start>
													<end>7009</end>
													<masterclipid>Raw Interview Matthew Duepner390</masterclipid>
													<logginginfo>
														<scene/>
														<shottake/>
														<lognote/>
														<good>FALSE</good>
													</logginginfo>
													<labels>
														<label2/>
													</labels>
													<comments>
														<mastercomment1/>
														<mastercomment2/>
														<mastercomment3/>
														<mastercomment4/>
													</comments>
													<file id="YIN_2013-05-28_LG-5 "/>
													<filter>
														<effect>
															<name>Audio Levels</name>
															<effectid>audiolevels</effectid>
															<effectcategory>audiolevels</effectcategory>
															<effecttype>audiolevels</effecttype>
															<mediatype>audio</mediatype>
															<parameter>
																<name>Level</name>
																<parameterid>level</parameterid>
																<valuemin>0</valuemin>
																<valuemax>3.98109</valuemax>
																<value>1</value>
															</parameter>
														</effect>
													</filter>
													<filter>
														<effect>
															<name>Audio Pan</name>
															<effectid>audiopan</effectid>
															<effectcategory>audiopan</effectcategory>
															<effecttype>audiopan</effecttype>
															<mediatype>audio</mediatype>
															<parameter>
																<name>Pan</name>
																<parameterid>pan</parameterid>
																<valuemin>-1</valuemin>
																<valuemax>1</valuemax>
																<value>-0</value>
															</parameter>
														</effect>
													</filter>
													<sourcetrack>
														<mediatype>audio</mediatype>
														<trackindex>2</trackindex>
													</sourcetrack>
													<link>
														<linkclipref>Raw Interview Matthew Duepner499</linkclipref>
														<mediatype>video</mediatype>
														<trackindex>1</trackindex>
														<clipindex>36</clipindex>
													</link>
													<link>
														<linkclipref>Raw Interview Matthew Duepner500</linkclipref>
														<mediatype>audio</mediatype>
														<trackindex>1</trackindex>
														<clipindex>36</clipindex>
														<groupindex>1</groupindex>
													</link>
													<link>
														<linkclipref>Raw Interview Matthew Duepner501</linkclipref>
														<mediatype>audio</mediatype>
														<trackindex>2</trackindex>
														<clipindex>36</clipindex>
														<groupindex>1</groupindex>
													</link>
													<itemhistory>
														<uuid>BCC656B6-ACDE-4D4E-AA10-81B4FA55F9AD</uuid>
													</itemhistory>
												</clipitem>
												<clipitem id="Raw Interview Matthew Duepner504">
													<name>Raw Interview Matthew Duepner</name>
													<duration>81486</duration>
													<rate>
														<ntsc>TRUE</ntsc>
														<timebase>24</timebase>
													</rate>
													<in>27080</in>
													<out>27302</out>
													<start>7009</start>
													<end>7231</end>
													<masterclipid>Raw Interview Matthew Duepner390</masterclipid>
													<logginginfo>
														<scene/>
														<shottake/>
														<lognote/>
														<good>FALSE</good>
													</logginginfo>
													<labels>
														<label2/>
													</labels>
													<comments>
														<mastercomment1/>
														<mastercomment2/>
														<mastercomment3/>
														<mastercomment4/>
													</comments>
													<file id="YIN_2013-05-28_LG-5 "/>
													<filter>
														<effect>
															<name>Audio Levels</name>
															<effectid>audiolevels</effectid>
															<effectcategory>audiolevels</effectcategory>
															<effecttype>audiolevels</effecttype>
															<mediatype>audio</mediatype>
															<parameter>
																<name>Level</name>
																<parameterid>level</parameterid>
																<valuemin>0</valuemin>
																<valuemax>3.98109</valuemax>
																<value>1</value>
															</parameter>
														</effect>
													</filter>
													<filter>
														<effect>
															<name>Audio Pan</name>
															<effectid>audiopan</effectid>
															<effectcategory>audiopan</effectcategory>
															<effecttype>audiopan</effecttype>
															<mediatype>audio</mediatype>
															<parameter>
																<name>Pan</name>
																<parameterid>pan</parameterid>
																<valuemin>-1</valuemin>
																<valuemax>1</valuemax>
																<value>-0</value>
															</parameter>
														</effect>
													</filter>
													<sourcetrack>
														<mediatype>audio</mediatype>
														<trackindex>2</trackindex>
													</sourcetrack>
													<link>
														<linkclipref>Raw Interview Matthew Duepner502</linkclipref>
														<mediatype>video</mediatype>
														<trackindex>1</trackindex>
														<clipindex>37</clipindex>
													</link>
													<link>
														<linkclipref>Raw Interview Matthew Duepner503</linkclipref>
														<mediatype>audio</mediatype>
														<trackindex>1</trackindex>
														<clipindex>37</clipindex>
														<groupindex>1</groupindex>
													</link>
													<link>
														<linkclipref>Raw Interview Matthew Duepner504</linkclipref>
														<mediatype>audio</mediatype>
														<trackindex>2</trackindex>
														<clipindex>37</clipindex>
														<groupindex>1</groupindex>
													</link>
													<itemhistory>
														<uuid>1D6EA93E-3638-4D0B-8FE9-D7CE41531199</uuid>
													</itemhistory>
												</clipitem>
												<clipitem id="Raw Interview Matthew Duepner507">
													<name>Raw Interview Matthew Duepner</name>
													<duration>81486</duration>
													<rate>
														<ntsc>TRUE</ntsc>
														<timebase>24</timebase>
													</rate>
													<in>28282</in>
													<out>28619</out>
													<start>7231</start>
													<end>7568</end>
													<masterclipid>Raw Interview Matthew Duepner390</masterclipid>
													<logginginfo>
														<scene/>
														<shottake/>
														<lognote/>
														<good>FALSE</good>
													</logginginfo>
													<labels>
														<label2/>
													</labels>
													<comments>
														<mastercomment1/>
														<mastercomment2/>
														<mastercomment3/>
														<mastercomment4/>
													</comments>
													<file id="YIN_2013-05-28_LG-5 "/>
													<filter>
														<effect>
															<name>Audio Levels</name>
															<effectid>audiolevels</effectid>
															<effectcategory>audiolevels</effectcategory>
															<effecttype>audiolevels</effecttype>
															<mediatype>audio</mediatype>
															<parameter>
																<name>Level</name>
																<parameterid>level</parameterid>
																<valuemin>0</valuemin>
																<valuemax>3.98109</valuemax>
																<value>1</value>
															</parameter>
														</effect>
													</filter>
													<filter>
														<effect>
															<name>Audio Pan</name>
															<effectid>audiopan</effectid>
															<effectcategory>audiopan</effectcategory>
															<effecttype>audiopan</effecttype>
															<mediatype>audio</mediatype>
															<parameter>
																<name>Pan</name>
																<parameterid>pan</parameterid>
																<valuemin>-1</valuemin>
																<valuemax>1</valuemax>
																<value>-0</value>
															</parameter>
														</effect>
													</filter>
													<sourcetrack>
														<mediatype>audio</mediatype>
														<trackindex>2</trackindex>
													</sourcetrack>
													<link>
														<linkclipref>Raw Interview Matthew Duepner505</linkclipref>
														<mediatype>video</mediatype>
														<trackindex>1</trackindex>
														<clipindex>38</clipindex>
													</link>
													<link>
														<linkclipref>Raw Interview Matthew Duepner506</linkclipref>
														<mediatype>audio</mediatype>
														<trackindex>1</trackindex>
														<clipindex>38</clipindex>
														<groupindex>1</groupindex>
													</link>
													<link>
														<linkclipref>Raw Interview Matthew Duepner507</linkclipref>
														<mediatype>audio</mediatype>
														<trackindex>2</trackindex>
														<clipindex>38</clipindex>
														<groupindex>1</groupindex>
													</link>
													<itemhistory>
														<uuid>90AE5FD2-4E78-48D3-8DBA-2638F371EBDF</uuid>
													</itemhistory>
												</clipitem>
												<clipitem id="Raw Interview Matthew Duepner510">
													<name>Raw Interview Matthew Duepner</name>
													<duration>81486</duration>
													<rate>
														<ntsc>TRUE</ntsc>
														<timebase>24</timebase>
													</rate>
													<in>38283</in>
													<out>38784</out>
													<start>7568</start>
													<end>8069</end>
													<masterclipid>Raw Interview Matthew Duepner390</masterclipid>
													<logginginfo>
														<scene/>
														<shottake/>
														<lognote/>
														<good>FALSE</good>
													</logginginfo>
													<labels>
														<label2/>
													</labels>
													<comments>
														<mastercomment1/>
														<mastercomment2/>
														<mastercomment3/>
														<mastercomment4/>
													</comments>
													<file id="YIN_2013-05-28_LG-5 "/>
													<filter>
														<effect>
															<name>Audio Levels</name>
															<effectid>audiolevels</effectid>
															<effectcategory>audiolevels</effectcategory>
															<effecttype>audiolevels</effecttype>
															<mediatype>audio</mediatype>
															<parameter>
																<name>Level</name>
																<parameterid>level</parameterid>
																<valuemin>0</valuemin>
																<valuemax>3.98109</valuemax>
																<value>1</value>
															</parameter>
														</effect>
													</filter>
													<filter>
														<effect>
															<name>Audio Pan</name>
															<effectid>audiopan</effectid>
															<effectcategory>audiopan</effectcategory>
															<effecttype>audiopan</effecttype>
															<mediatype>audio</mediatype>
															<parameter>
																<name>Pan</name>
																<parameterid>pan</parameterid>
																<valuemin>-1</valuemin>
																<valuemax>1</valuemax>
																<value>-0</value>
															</parameter>
														</effect>
													</filter>
													<sourcetrack>
														<mediatype>audio</mediatype>
														<trackindex>2</trackindex>
													</sourcetrack>
													<link>
														<linkclipref>Raw Interview Matthew Duepner508</linkclipref>
														<mediatype>video</mediatype>
														<trackindex>1</trackindex>
														<clipindex>39</clipindex>
													</link>
													<link>
														<linkclipref>Raw Interview Matthew Duepner509</linkclipref>
														<mediatype>audio</mediatype>
														<trackindex>1</trackindex>
														<clipindex>39</clipindex>
														<groupindex>1</groupindex>
													</link>
													<link>
														<linkclipref>Raw Interview Matthew Duepner510</linkclipref>
														<mediatype>audio</mediatype>
														<trackindex>2</trackindex>
														<clipindex>39</clipindex>
														<groupindex>1</groupindex>
													</link>
													<itemhistory>
														<uuid>B2C44062-F04F-4D89-9707-5BDA228A73DA</uuid>
													</itemhistory>
												</clipitem>
												<clipitem id="Raw Interview Matthew Duepner513">
													<name>Raw Interview Matthew Duepner</name>
													<duration>81486</duration>
													<rate>
														<ntsc>TRUE</ntsc>
														<timebase>24</timebase>
													</rate>
													<in>43670</in>
													<out>43863</out>
													<start>8069</start>
													<end>8262</end>
													<masterclipid>Raw Interview Matthew Duepner390</masterclipid>
													<logginginfo>
														<scene/>
														<shottake/>
														<lognote/>
														<good>FALSE</good>
													</logginginfo>
													<labels>
														<label2/>
													</labels>
													<comments>
														<mastercomment1/>
														<mastercomment2/>
														<mastercomment3/>
														<mastercomment4/>
													</comments>
													<file id="YIN_2013-05-28_LG-5 "/>
													<filter>
														<effect>
															<name>Audio Levels</name>
															<effectid>audiolevels</effectid>
															<effectcategory>audiolevels</effectcategory>
															<effecttype>audiolevels</effecttype>
															<mediatype>audio</mediatype>
															<parameter>
																<name>Level</name>
																<parameterid>level</parameterid>
																<valuemin>0</valuemin>
																<valuemax>3.98109</valuemax>
																<value>1</value>
															</parameter>
														</effect>
													</filter>
													<filter>
														<effect>
															<name>Audio Pan</name>
															<effectid>audiopan</effectid>
															<effectcategory>audiopan</effectcategory>
															<effecttype>audiopan</effecttype>
															<mediatype>audio</mediatype>
															<parameter>
																<name>Pan</name>
																<parameterid>pan</parameterid>
																<valuemin>-1</valuemin>
																<valuemax>1</valuemax>
																<value>-0</value>
															</parameter>
														</effect>
													</filter>
													<sourcetrack>
														<mediatype>audio</mediatype>
														<trackindex>2</trackindex>
													</sourcetrack>
													<link>
														<linkclipref>Raw Interview Matthew Duepner511</linkclipref>
														<mediatype>video</mediatype>
														<trackindex>1</trackindex>
														<clipindex>40</clipindex>
													</link>
													<link>
														<linkclipref>Raw Interview Matthew Duepner512</linkclipref>
														<mediatype>audio</mediatype>
														<trackindex>1</trackindex>
														<clipindex>40</clipindex>
														<groupindex>1</groupindex>
													</link>
													<link>
														<linkclipref>Raw Interview Matthew Duepner513</linkclipref>
														<mediatype>audio</mediatype>
														<trackindex>2</trackindex>
														<clipindex>40</clipindex>
														<groupindex>1</groupindex>
													</link>
													<itemhistory>
														<uuid>F729D615-9CE8-4235-ADA2-0E4AAEE6AA23</uuid>
													</itemhistory>
												</clipitem>
												<clipitem id="Raw Interview Matthew Duepner516">
													<name>Raw Interview Matthew Duepner</name>
													<duration>81486</duration>
													<rate>
														<ntsc>TRUE</ntsc>
														<timebase>24</timebase>
													</rate>
													<in>50956</in>
													<out>51052</out>
													<start>8262</start>
													<end>8358</end>
													<masterclipid>Raw Interview Matthew Duepner390</masterclipid>
													<logginginfo>
														<scene/>
														<shottake/>
														<lognote/>
														<good>FALSE</good>
													</logginginfo>
													<labels>
														<label2/>
													</labels>
													<comments>
														<mastercomment1/>
														<mastercomment2/>
														<mastercomment3/>
														<mastercomment4/>
													</comments>
													<file id="YIN_2013-05-28_LG-5 "/>
													<filter>
														<effect>
															<name>Audio Levels</name>
															<effectid>audiolevels</effectid>
															<effectcategory>audiolevels</effectcategory>
															<effecttype>audiolevels</effecttype>
															<mediatype>audio</mediatype>
															<parameter>
																<name>Level</name>
																<parameterid>level</parameterid>
																<valuemin>0</valuemin>
																<valuemax>3.98109</valuemax>
																<value>1</value>
															</parameter>
														</effect>
													</filter>
													<filter>
														<effect>
															<name>Audio Pan</name>
															<effectid>audiopan</effectid>
															<effectcategory>audiopan</effectcategory>
															<effecttype>audiopan</effecttype>
															<mediatype>audio</mediatype>
															<parameter>
																<name>Pan</name>
																<parameterid>pan</parameterid>
																<valuemin>-1</valuemin>
																<valuemax>1</valuemax>
																<value>-0</value>
															</parameter>
														</effect>
													</filter>
													<sourcetrack>
														<mediatype>audio</mediatype>
														<trackindex>2</trackindex>
													</sourcetrack>
													<link>
														<linkclipref>Raw Interview Matthew Duepner514</linkclipref>
														<mediatype>video</mediatype>
														<trackindex>1</trackindex>
														<clipindex>41</clipindex>
													</link>
													<link>
														<linkclipref>Raw Interview Matthew Duepner515</linkclipref>
														<mediatype>audio</mediatype>
														<trackindex>1</trackindex>
														<clipindex>41</clipindex>
														<groupindex>1</groupindex>
													</link>
													<link>
														<linkclipref>Raw Interview Matthew Duepner516</linkclipref>
														<mediatype>audio</mediatype>
														<trackindex>2</trackindex>
														<clipindex>41</clipindex>
														<groupindex>1</groupindex>
													</link>
													<itemhistory>
														<uuid>4AE651E4-B0FB-440A-AB49-29DD219677BB</uuid>
													</itemhistory>
												</clipitem>
												<clipitem id="Raw Interview Matthew Duepner519">
													<name>Raw Interview Matthew Duepner</name>
													<duration>81486</duration>
													<rate>
														<ntsc>TRUE</ntsc>
														<timebase>24</timebase>
													</rate>
													<in>51376</in>
													<out>51520</out>
													<start>8358</start>
													<end>8502</end>
													<masterclipid>Raw Interview Matthew Duepner390</masterclipid>
													<logginginfo>
														<scene/>
														<shottake/>
														<lognote/>
														<good>FALSE</good>
													</logginginfo>
													<labels>
														<label2/>
													</labels>
													<comments>
														<mastercomment1/>
														<mastercomment2/>
														<mastercomment3/>
														<mastercomment4/>
													</comments>
													<file id="YIN_2013-05-28_LG-5 "/>
													<filter>
														<effect>
															<name>Audio Levels</name>
															<effectid>audiolevels</effectid>
															<effectcategory>audiolevels</effectcategory>
															<effecttype>audiolevels</effecttype>
															<mediatype>audio</mediatype>
															<parameter>
																<name>Level</name>
																<parameterid>level</parameterid>
																<valuemin>0</valuemin>
																<valuemax>3.98109</valuemax>
																<value>1</value>
															</parameter>
														</effect>
													</filter>
													<filter>
														<effect>
															<name>Audio Pan</name>
															<effectid>audiopan</effectid>
															<effectcategory>audiopan</effectcategory>
															<effecttype>audiopan</effecttype>
															<mediatype>audio</mediatype>
															<parameter>
																<name>Pan</name>
																<parameterid>pan</parameterid>
																<valuemin>-1</valuemin>
																<valuemax>1</valuemax>
																<value>-0</value>
															</parameter>
														</effect>
													</filter>
													<sourcetrack>
														<mediatype>audio</mediatype>
														<trackindex>2</trackindex>
													</sourcetrack>
													<link>
														<linkclipref>Raw Interview Matthew Duepner517</linkclipref>
														<mediatype>video</mediatype>
														<trackindex>1</trackindex>
														<clipindex>42</clipindex>
													</link>
													<link>
														<linkclipref>Raw Interview Matthew Duepner518</linkclipref>
														<mediatype>audio</mediatype>
														<trackindex>1</trackindex>
														<clipindex>42</clipindex>
														<groupindex>1</groupindex>
													</link>
													<link>
														<linkclipref>Raw Interview Matthew Duepner519</linkclipref>
														<mediatype>audio</mediatype>
														<trackindex>2</trackindex>
														<clipindex>42</clipindex>
														<groupindex>1</groupindex>
													</link>
													<itemhistory>
														<uuid>5D889885-3012-4999-86ED-9207204772B8</uuid>
													</itemhistory>
												</clipitem>
												<clipitem id="Raw Interview Matthew Duepner522">
													<name>Raw Interview Matthew Duepner</name>
													<duration>81486</duration>
													<rate>
														<ntsc>TRUE</ntsc>
														<timebase>24</timebase>
													</rate>
													<in>51892</in>
													<out>52054</out>
													<start>8502</start>
													<end>8664</end>
													<masterclipid>Raw Interview Matthew Duepner390</masterclipid>
													<logginginfo>
														<scene/>
														<shottake/>
														<lognote/>
														<good>FALSE</good>
													</logginginfo>
													<labels>
														<label2/>
													</labels>
													<comments>
														<mastercomment1/>
														<mastercomment2/>
														<mastercomment3/>
														<mastercomment4/>
													</comments>
													<file id="YIN_2013-05-28_LG-5 "/>
													<filter>
														<effect>
															<name>Audio Levels</name>
															<effectid>audiolevels</effectid>
															<effectcategory>audiolevels</effectcategory>
															<effecttype>audiolevels</effecttype>
															<mediatype>audio</mediatype>
															<parameter>
																<name>Level</name>
																<parameterid>level</parameterid>
																<valuemin>0</valuemin>
																<valuemax>3.98109</valuemax>
																<value>1</value>
															</parameter>
														</effect>
													</filter>
													<filter>
														<effect>
															<name>Audio Pan</name>
															<effectid>audiopan</effectid>
															<effectcategory>audiopan</effectcategory>
															<effecttype>audiopan</effecttype>
															<mediatype>audio</mediatype>
															<parameter>
																<name>Pan</name>
																<parameterid>pan</parameterid>
																<valuemin>-1</valuemin>
																<valuemax>1</valuemax>
																<value>-0</value>
															</parameter>
														</effect>
													</filter>
													<sourcetrack>
														<mediatype>audio</mediatype>
														<trackindex>2</trackindex>
													</sourcetrack>
													<link>
														<linkclipref>Raw Interview Matthew Duepner520</linkclipref>
														<mediatype>video</mediatype>
														<trackindex>1</trackindex>
														<clipindex>43</clipindex>
													</link>
													<link>
														<linkclipref>Raw Interview Matthew Duepner521</linkclipref>
														<mediatype>audio</mediatype>
														<trackindex>1</trackindex>
														<clipindex>43</clipindex>
														<groupindex>1</groupindex>
													</link>
													<link>
														<linkclipref>Raw Interview Matthew Duepner522</linkclipref>
														<mediatype>audio</mediatype>
														<trackindex>2</trackindex>
														<clipindex>43</clipindex>
														<groupindex>1</groupindex>
													</link>
													<itemhistory>
														<uuid>E652D50A-9C2B-442A-986D-64DC9EC51751</uuid>
													</itemhistory>
												</clipitem>
												<clipitem id="Raw Interview Matthew Duepner525">
													<name>Raw Interview Matthew Duepner</name>
													<duration>81486</duration>
													<rate>
														<ntsc>TRUE</ntsc>
														<timebase>24</timebase>
													</rate>
													<in>56083</in>
													<out>56203</out>
													<start>8664</start>
													<end>8784</end>
													<masterclipid>Raw Interview Matthew Duepner390</masterclipid>
													<logginginfo>
														<scene/>
														<shottake/>
														<lognote/>
														<good>FALSE</good>
													</logginginfo>
													<labels>
														<label2/>
													</labels>
													<comments>
														<mastercomment1/>
														<mastercomment2/>
														<mastercomment3/>
														<mastercomment4/>
													</comments>
													<file id="YIN_2013-05-28_LG-5 "/>
													<filter>
														<effect>
															<name>Audio Levels</name>
															<effectid>audiolevels</effectid>
															<effectcategory>audiolevels</effectcategory>
															<effecttype>audiolevels</effecttype>
															<mediatype>audio</mediatype>
															<parameter>
																<name>Level</name>
																<parameterid>level</parameterid>
																<valuemin>0</valuemin>
																<valuemax>3.98109</valuemax>
																<value>1</value>
															</parameter>
														</effect>
													</filter>
													<filter>
														<effect>
															<name>Audio Pan</name>
															<effectid>audiopan</effectid>
															<effectcategory>audiopan</effectcategory>
															<effecttype>audiopan</effecttype>
															<mediatype>audio</mediatype>
															<parameter>
																<name>Pan</name>
																<parameterid>pan</parameterid>
																<valuemin>-1</valuemin>
																<valuemax>1</valuemax>
																<value>-0</value>
															</parameter>
														</effect>
													</filter>
													<sourcetrack>
														<mediatype>audio</mediatype>
														<trackindex>2</trackindex>
													</sourcetrack>
													<link>
														<linkclipref>Raw Interview Matthew Duepner523</linkclipref>
														<mediatype>video</mediatype>
														<trackindex>1</trackindex>
														<clipindex>44</clipindex>
													</link>
													<link>
														<linkclipref>Raw Interview Matthew Duepner524</linkclipref>
														<mediatype>audio</mediatype>
														<trackindex>1</trackindex>
														<clipindex>44</clipindex>
														<groupindex>1</groupindex>
													</link>
													<link>
														<linkclipref>Raw Interview Matthew Duepner525</linkclipref>
														<mediatype>audio</mediatype>
														<trackindex>2</trackindex>
														<clipindex>44</clipindex>
														<groupindex>1</groupindex>
													</link>
													<itemhistory>
														<uuid>CB0C6A56-BFE2-4B7D-AE59-6DE8D2D339BC</uuid>
													</itemhistory>
												</clipitem>
												<clipitem id="Raw Interview Matthew Duepner528">
													<name>Raw Interview Matthew Duepner</name>
													<duration>81486</duration>
													<rate>
														<ntsc>TRUE</ntsc>
														<timebase>24</timebase>
													</rate>
													<in>56334</in>
													<out>56423</out>
													<start>8784</start>
													<end>8873</end>
													<masterclipid>Raw Interview Matthew Duepner390</masterclipid>
													<logginginfo>
														<scene/>
														<shottake/>
														<lognote/>
														<good>FALSE</good>
													</logginginfo>
													<labels>
														<label2/>
													</labels>
													<comments>
														<mastercomment1/>
														<mastercomment2/>
														<mastercomment3/>
														<mastercomment4/>
													</comments>
													<file id="YIN_2013-05-28_LG-5 "/>
													<filter>
														<effect>
															<name>Audio Levels</name>
															<effectid>audiolevels</effectid>
															<effectcategory>audiolevels</effectcategory>
															<effecttype>audiolevels</effecttype>
															<mediatype>audio</mediatype>
															<parameter>
																<name>Level</name>
																<parameterid>level</parameterid>
																<valuemin>0</valuemin>
																<valuemax>3.98109</valuemax>
																<value>1</value>
															</parameter>
														</effect>
													</filter>
													<filter>
														<effect>
															<name>Audio Pan</name>
															<effectid>audiopan</effectid>
															<effectcategory>audiopan</effectcategory>
															<effecttype>audiopan</effecttype>
															<mediatype>audio</mediatype>
															<parameter>
																<name>Pan</name>
																<parameterid>pan</parameterid>
																<valuemin>-1</valuemin>
																<valuemax>1</valuemax>
																<value>-0</value>
															</parameter>
														</effect>
													</filter>
													<sourcetrack>
														<mediatype>audio</mediatype>
														<trackindex>2</trackindex>
													</sourcetrack>
													<link>
														<linkclipref>Raw Interview Matthew Duepner526</linkclipref>
														<mediatype>video</mediatype>
														<trackindex>1</trackindex>
														<clipindex>45</clipindex>
													</link>
													<link>
														<linkclipref>Raw Interview Matthew Duepner527</linkclipref>
														<mediatype>audio</mediatype>
														<trackindex>1</trackindex>
														<clipindex>45</clipindex>
														<groupindex>1</groupindex>
													</link>
													<link>
														<linkclipref>Raw Interview Matthew Duepner528</linkclipref>
														<mediatype>audio</mediatype>
														<trackindex>2</trackindex>
														<clipindex>45</clipindex>
														<groupindex>1</groupindex>
													</link>
													<itemhistory>
														<uuid>3AA4A66A-E1CC-464E-9279-4BE6E345B4D5</uuid>
													</itemhistory>
												</clipitem>
												<clipitem id="Raw Interview Matthew Duepner531">
													<name>Raw Interview Matthew Duepner</name>
													<duration>81486</duration>
													<rate>
														<ntsc>TRUE</ntsc>
														<timebase>24</timebase>
													</rate>
													<in>57619</in>
													<out>57904</out>
													<start>8873</start>
													<end>9158</end>
													<masterclipid>Raw Interview Matthew Duepner390</masterclipid>
													<logginginfo>
														<scene/>
														<shottake/>
														<lognote/>
														<good>FALSE</good>
													</logginginfo>
													<labels>
														<label2/>
													</labels>
													<comments>
														<mastercomment1/>
														<mastercomment2/>
														<mastercomment3/>
														<mastercomment4/>
													</comments>
													<file id="YIN_2013-05-28_LG-5 "/>
													<filter>
														<effect>
															<name>Audio Levels</name>
															<effectid>audiolevels</effectid>
															<effectcategory>audiolevels</effectcategory>
															<effecttype>audiolevels</effecttype>
															<mediatype>audio</mediatype>
															<parameter>
																<name>Level</name>
																<parameterid>level</parameterid>
																<valuemin>0</valuemin>
																<valuemax>3.98109</valuemax>
																<value>1</value>
															</parameter>
														</effect>
													</filter>
													<filter>
														<effect>
															<name>Audio Pan</name>
															<effectid>audiopan</effectid>
															<effectcategory>audiopan</effectcategory>
															<effecttype>audiopan</effecttype>
															<mediatype>audio</mediatype>
															<parameter>
																<name>Pan</name>
																<parameterid>pan</parameterid>
																<valuemin>-1</valuemin>
																<valuemax>1</valuemax>
																<value>-0</value>
															</parameter>
														</effect>
													</filter>
													<sourcetrack>
														<mediatype>audio</mediatype>
														<trackindex>2</trackindex>
													</sourcetrack>
													<link>
														<linkclipref>Raw Interview Matthew Duepner529</linkclipref>
														<mediatype>video</mediatype>
														<trackindex>1</trackindex>
														<clipindex>46</clipindex>
													</link>
													<link>
														<linkclipref>Raw Interview Matthew Duepner530</linkclipref>
														<mediatype>audio</mediatype>
														<trackindex>1</trackindex>
														<clipindex>46</clipindex>
														<groupindex>1</groupindex>
													</link>
													<link>
														<linkclipref>Raw Interview Matthew Duepner531</linkclipref>
														<mediatype>audio</mediatype>
														<trackindex>2</trackindex>
														<clipindex>46</clipindex>
														<groupindex>1</groupindex>
													</link>
													<itemhistory>
														<uuid>AF4D0941-FB31-4296-BEFD-C9DAC6606CCE</uuid>
													</itemhistory>
												</clipitem>
												<clipitem id="Raw Interview Matthew Duepner534">
													<name>Raw Interview Matthew Duepner</name>
													<duration>81486</duration>
													<rate>
														<ntsc>TRUE</ntsc>
														<timebase>24</timebase>
													</rate>
													<in>68841</in>
													<out>69079</out>
													<start>9158</start>
													<end>9396</end>
													<masterclipid>Raw Interview Matthew Duepner390</masterclipid>
													<logginginfo>
														<scene/>
														<shottake/>
														<lognote/>
														<good>FALSE</good>
													</logginginfo>
													<labels>
														<label2/>
													</labels>
													<comments>
														<mastercomment1/>
														<mastercomment2/>
														<mastercomment3/>
														<mastercomment4/>
													</comments>
													<file id="YIN_2013-05-28_LG-5 "/>
													<filter>
														<effect>
															<name>Audio Levels</name>
															<effectid>audiolevels</effectid>
															<effectcategory>audiolevels</effectcategory>
															<effecttype>audiolevels</effecttype>
															<mediatype>audio</mediatype>
															<parameter>
																<name>Level</name>
																<parameterid>level</parameterid>
																<valuemin>0</valuemin>
																<valuemax>3.98109</valuemax>
																<value>1</value>
															</parameter>
														</effect>
													</filter>
													<filter>
														<effect>
															<name>Audio Pan</name>
															<effectid>audiopan</effectid>
															<effectcategory>audiopan</effectcategory>
															<effecttype>audiopan</effecttype>
															<mediatype>audio</mediatype>
															<parameter>
																<name>Pan</name>
																<parameterid>pan</parameterid>
																<valuemin>-1</valuemin>
																<valuemax>1</valuemax>
																<value>-0</value>
															</parameter>
														</effect>
													</filter>
													<sourcetrack>
														<mediatype>audio</mediatype>
														<trackindex>2</trackindex>
													</sourcetrack>
													<link>
														<linkclipref>Raw Interview Matthew Duepner532</linkclipref>
														<mediatype>video</mediatype>
														<trackindex>1</trackindex>
														<clipindex>47</clipindex>
													</link>
													<link>
														<linkclipref>Raw Interview Matthew Duepner533</linkclipref>
														<mediatype>audio</mediatype>
														<trackindex>1</trackindex>
														<clipindex>47</clipindex>
														<groupindex>1</groupindex>
													</link>
													<link>
														<linkclipref>Raw Interview Matthew Duepner534</linkclipref>
														<mediatype>audio</mediatype>
														<trackindex>2</trackindex>
														<clipindex>47</clipindex>
														<groupindex>1</groupindex>
													</link>
													<itemhistory>
														<uuid>C9240721-ECF9-44FB-B7C2-688BC174DFE9</uuid>
													</itemhistory>
												</clipitem>
												<clipitem id="Raw Interview Matthew Duepner537">
													<name>Raw Interview Matthew Duepner</name>
													<duration>81486</duration>
													<rate>
														<ntsc>TRUE</ntsc>
														<timebase>24</timebase>
													</rate>
													<in>69853</in>
													<out>69933</out>
													<start>9396</start>
													<end>9476</end>
													<masterclipid>Raw Interview Matthew Duepner390</masterclipid>
													<logginginfo>
														<scene/>
														<shottake/>
														<lognote/>
														<good>FALSE</good>
													</logginginfo>
													<labels>
														<label2/>
													</labels>
													<comments>
														<mastercomment1/>
														<mastercomment2/>
														<mastercomment3/>
														<mastercomment4/>
													</comments>
													<file id="YIN_2013-05-28_LG-5 "/>
													<filter>
														<effect>
															<name>Audio Levels</name>
															<effectid>audiolevels</effectid>
															<effectcategory>audiolevels</effectcategory>
															<effecttype>audiolevels</effecttype>
															<mediatype>audio</mediatype>
															<parameter>
																<name>Level</name>
																<parameterid>level</parameterid>
																<valuemin>0</valuemin>
																<valuemax>3.98109</valuemax>
																<value>1</value>
															</parameter>
														</effect>
													</filter>
													<filter>
														<effect>
															<name>Audio Pan</name>
															<effectid>audiopan</effectid>
															<effectcategory>audiopan</effectcategory>
															<effecttype>audiopan</effecttype>
															<mediatype>audio</mediatype>
															<parameter>
																<name>Pan</name>
																<parameterid>pan</parameterid>
																<valuemin>-1</valuemin>
																<valuemax>1</valuemax>
																<value>-0</value>
															</parameter>
														</effect>
													</filter>
													<sourcetrack>
														<mediatype>audio</mediatype>
														<trackindex>2</trackindex>
													</sourcetrack>
													<link>
														<linkclipref>Raw Interview Matthew Duepner535</linkclipref>
														<mediatype>video</mediatype>
														<trackindex>1</trackindex>
														<clipindex>48</clipindex>
													</link>
													<link>
														<linkclipref>Raw Interview Matthew Duepner536</linkclipref>
														<mediatype>audio</mediatype>
														<trackindex>1</trackindex>
														<clipindex>48</clipindex>
														<groupindex>1</groupindex>
													</link>
													<link>
														<linkclipref>Raw Interview Matthew Duepner537</linkclipref>
														<mediatype>audio</mediatype>
														<trackindex>2</trackindex>
														<clipindex>48</clipindex>
														<groupindex>1</groupindex>
													</link>
													<itemhistory>
														<uuid>A45D14B8-30CE-4AC6-8C19-9BB2C3B99B23</uuid>
													</itemhistory>
												</clipitem>
												<clipitem id="Raw Interview Matthew Duepner540">
													<name>Raw Interview Matthew Duepner</name>
													<duration>81486</duration>
													<rate>
														<ntsc>TRUE</ntsc>
														<timebase>24</timebase>
													</rate>
													<in>71462</in>
													<out>71987</out>
													<start>9476</start>
													<end>10001</end>
													<masterclipid>Raw Interview Matthew Duepner390</masterclipid>
													<logginginfo>
														<scene/>
														<shottake/>
														<lognote/>
														<good>FALSE</good>
													</logginginfo>
													<labels>
														<label2/>
													</labels>
													<comments>
														<mastercomment1/>
														<mastercomment2/>
														<mastercomment3/>
														<mastercomment4/>
													</comments>
													<file id="YIN_2013-05-28_LG-5 "/>
													<filter>
														<effect>
															<name>Audio Levels</name>
															<effectid>audiolevels</effectid>
															<effectcategory>audiolevels</effectcategory>
															<effecttype>audiolevels</effecttype>
															<mediatype>audio</mediatype>
															<parameter>
																<name>Level</name>
																<parameterid>level</parameterid>
																<valuemin>0</valuemin>
																<valuemax>3.98109</valuemax>
																<value>1</value>
															</parameter>
														</effect>
													</filter>
													<filter>
														<effect>
															<name>Audio Pan</name>
															<effectid>audiopan</effectid>
															<effectcategory>audiopan</effectcategory>
															<effecttype>audiopan</effecttype>
															<mediatype>audio</mediatype>
															<parameter>
																<name>Pan</name>
																<parameterid>pan</parameterid>
																<valuemin>-1</valuemin>
																<valuemax>1</valuemax>
																<value>-0</value>
															</parameter>
														</effect>
													</filter>
													<sourcetrack>
														<mediatype>audio</mediatype>
														<trackindex>2</trackindex>
													</sourcetrack>
													<link>
														<linkclipref>Raw Interview Matthew Duepner538</linkclipref>
														<mediatype>video</mediatype>
														<trackindex>1</trackindex>
														<clipindex>49</clipindex>
													</link>
													<link>
														<linkclipref>Raw Interview Matthew Duepner539</linkclipref>
														<mediatype>audio</mediatype>
														<trackindex>1</trackindex>
														<clipindex>49</clipindex>
														<groupindex>1</groupindex>
													</link>
													<link>
														<linkclipref>Raw Interview Matthew Duepner540</linkclipref>
														<mediatype>audio</mediatype>
														<trackindex>2</trackindex>
														<clipindex>49</clipindex>
														<groupindex>1</groupindex>
													</link>
													<itemhistory>
														<uuid>8A797CE7-CA5C-4DF2-8E9E-B544020214CE</uuid>
													</itemhistory>
												</clipitem>
												<clipitem id="Raw Interview Matthew Duepner543">
													<name>Raw Interview Matthew Duepner</name>
													<duration>81486</duration>
													<rate>
														<ntsc>TRUE</ntsc>
														<timebase>24</timebase>
													</rate>
													<in>72861</in>
													<out>73353</out>
													<start>10001</start>
													<end>10493</end>
													<masterclipid>Raw Interview Matthew Duepner390</masterclipid>
													<logginginfo>
														<scene/>
														<shottake/>
														<lognote/>
														<good>FALSE</good>
													</logginginfo>
													<labels>
														<label2/>
													</labels>
													<comments>
														<mastercomment1/>
														<mastercomment2/>
														<mastercomment3/>
														<mastercomment4/>
													</comments>
													<file id="YIN_2013-05-28_LG-5 "/>
													<filter>
														<effect>
															<name>Audio Levels</name>
															<effectid>audiolevels</effectid>
															<effectcategory>audiolevels</effectcategory>
															<effecttype>audiolevels</effecttype>
															<mediatype>audio</mediatype>
															<parameter>
																<name>Level</name>
																<parameterid>level</parameterid>
																<valuemin>0</valuemin>
																<valuemax>3.98109</valuemax>
																<value>1</value>
															</parameter>
														</effect>
													</filter>
													<filter>
														<effect>
															<name>Audio Pan</name>
															<effectid>audiopan</effectid>
															<effectcategory>audiopan</effectcategory>
															<effecttype>audiopan</effecttype>
															<mediatype>audio</mediatype>
															<parameter>
																<name>Pan</name>
																<parameterid>pan</parameterid>
																<valuemin>-1</valuemin>
																<valuemax>1</valuemax>
																<value>-0</value>
															</parameter>
														</effect>
													</filter>
													<sourcetrack>
														<mediatype>audio</mediatype>
														<trackindex>2</trackindex>
													</sourcetrack>
													<link>
														<linkclipref>Raw Interview Matthew Duepner541</linkclipref>
														<mediatype>video</mediatype>
														<trackindex>1</trackindex>
														<clipindex>50</clipindex>
													</link>
													<link>
														<linkclipref>Raw Interview Matthew Duepner542</linkclipref>
														<mediatype>audio</mediatype>
														<trackindex>1</trackindex>
														<clipindex>50</clipindex>
														<groupindex>1</groupindex>
													</link>
													<link>
														<linkclipref>Raw Interview Matthew Duepner543</linkclipref>
														<mediatype>audio</mediatype>
														<trackindex>2</trackindex>
														<clipindex>50</clipindex>
														<groupindex>1</groupindex>
													</link>
													<itemhistory>
														<uuid>C49C5959-7DBA-44C7-8AB5-65977710DD19</uuid>
													</itemhistory>
												</clipitem>
												<clipitem id="Raw Interview Matthew Duepner546">
													<name>Raw Interview Matthew Duepner</name>
													<duration>81486</duration>
													<rate>
														<ntsc>TRUE</ntsc>
														<timebase>24</timebase>
													</rate>
													<in>76085</in>
													<out>76339</out>
													<start>10493</start>
													<end>10747</end>
													<masterclipid>Raw Interview Matthew Duepner390</masterclipid>
													<logginginfo>
														<scene/>
														<shottake/>
														<lognote/>
														<good>FALSE</good>
													</logginginfo>
													<labels>
														<label2/>
													</labels>
													<comments>
														<mastercomment1/>
														<mastercomment2/>
														<mastercomment3/>
														<mastercomment4/>
													</comments>
													<file id="YIN_2013-05-28_LG-5 "/>
													<filter>
														<effect>
															<name>Audio Levels</name>
															<effectid>audiolevels</effectid>
															<effectcategory>audiolevels</effectcategory>
															<effecttype>audiolevels</effecttype>
															<mediatype>audio</mediatype>
															<parameter>
																<name>Level</name>
																<parameterid>level</parameterid>
																<valuemin>0</valuemin>
																<valuemax>3.98109</valuemax>
																<value>1</value>
															</parameter>
														</effect>
													</filter>
													<filter>
														<effect>
															<name>Audio Pan</name>
															<effectid>audiopan</effectid>
															<effectcategory>audiopan</effectcategory>
															<effecttype>audiopan</effecttype>
															<mediatype>audio</mediatype>
															<parameter>
																<name>Pan</name>
																<parameterid>pan</parameterid>
																<valuemin>-1</valuemin>
																<valuemax>1</valuemax>
																<value>-0</value>
															</parameter>
														</effect>
													</filter>
													<sourcetrack>
														<mediatype>audio</mediatype>
														<trackindex>2</trackindex>
													</sourcetrack>
													<link>
														<linkclipref>Raw Interview Matthew Duepner544</linkclipref>
														<mediatype>video</mediatype>
														<trackindex>1</trackindex>
														<clipindex>51</clipindex>
													</link>
													<link>
														<linkclipref>Raw Interview Matthew Duepner545</linkclipref>
														<mediatype>audio</mediatype>
														<trackindex>1</trackindex>
														<clipindex>51</clipindex>
														<groupindex>1</groupindex>
													</link>
													<link>
														<linkclipref>Raw Interview Matthew Duepner546</linkclipref>
														<mediatype>audio</mediatype>
														<trackindex>2</trackindex>
														<clipindex>51</clipindex>
														<groupindex>1</groupindex>
													</link>
													<itemhistory>
														<uuid>9C219208-1094-4688-928F-9B8E6E7E32FD</uuid>
													</itemhistory>
												</clipitem>
												<clipitem id="Raw Interview Matthew Duepner549">
													<name>Raw Interview Matthew Duepner</name>
													<duration>81486</duration>
													<rate>
														<ntsc>TRUE</ntsc>
														<timebase>24</timebase>
													</rate>
													<in>79338</in>
													<out>79734</out>
													<start>10747</start>
													<end>11143</end>
													<masterclipid>Raw Interview Matthew Duepner390</masterclipid>
													<logginginfo>
														<scene/>
														<shottake/>
														<lognote/>
														<good>FALSE</good>
													</logginginfo>
													<labels>
														<label2/>
													</labels>
													<comments>
														<mastercomment1/>
														<mastercomment2/>
														<mastercomment3/>
														<mastercomment4/>
													</comments>
													<file id="YIN_2013-05-28_LG-5 "/>
													<filter>
														<effect>
															<name>Audio Levels</name>
															<effectid>audiolevels</effectid>
															<effectcategory>audiolevels</effectcategory>
															<effecttype>audiolevels</effecttype>
															<mediatype>audio</mediatype>
															<parameter>
																<name>Level</name>
																<parameterid>level</parameterid>
																<valuemin>0</valuemin>
																<valuemax>3.98109</valuemax>
																<value>1</value>
															</parameter>
														</effect>
													</filter>
													<filter>
														<effect>
															<name>Audio Pan</name>
															<effectid>audiopan</effectid>
															<effectcategory>audiopan</effectcategory>
															<effecttype>audiopan</effecttype>
															<mediatype>audio</mediatype>
															<parameter>
																<name>Pan</name>
																<parameterid>pan</parameterid>
																<valuemin>-1</valuemin>
																<valuemax>1</valuemax>
																<value>-0</value>
															</parameter>
														</effect>
													</filter>
													<sourcetrack>
														<mediatype>audio</mediatype>
														<trackindex>2</trackindex>
													</sourcetrack>
													<link>
														<linkclipref>Raw Interview Matthew Duepner547</linkclipref>
														<mediatype>video</mediatype>
														<trackindex>1</trackindex>
														<clipindex>52</clipindex>
													</link>
													<link>
														<linkclipref>Raw Interview Matthew Duepner548</linkclipref>
														<mediatype>audio</mediatype>
														<trackindex>1</trackindex>
														<clipindex>52</clipindex>
														<groupindex>1</groupindex>
													</link>
													<link>
														<linkclipref>Raw Interview Matthew Duepner549</linkclipref>
														<mediatype>audio</mediatype>
														<trackindex>2</trackindex>
														<clipindex>52</clipindex>
														<groupindex>1</groupindex>
													</link>
													<itemhistory>
														<uuid>34EBC742-1610-4442-B624-47B7D030F68D</uuid>
													</itemhistory>
												</clipitem>
												<clipitem id="Raw Interview Matthew Duepner552">
													<name>Raw Interview Matthew Duepner</name>
													<duration>81486</duration>
													<rate>
														<ntsc>TRUE</ntsc>
														<timebase>24</timebase>
													</rate>
													<in>79941</in>
													<out>80276</out>
													<start>11143</start>
													<end>11478</end>
													<masterclipid>Raw Interview Matthew Duepner390</masterclipid>
													<logginginfo>
														<scene/>
														<shottake/>
														<lognote/>
														<good>FALSE</good>
													</logginginfo>
													<labels>
														<label2/>
													</labels>
													<comments>
														<mastercomment1/>
														<mastercomment2/>
														<mastercomment3/>
														<mastercomment4/>
													</comments>
													<file id="YIN_2013-05-28_LG-5 "/>
													<filter>
														<effect>
															<name>Audio Levels</name>
															<effectid>audiolevels</effectid>
															<effectcategory>audiolevels</effectcategory>
															<effecttype>audiolevels</effecttype>
															<mediatype>audio</mediatype>
															<parameter>
																<name>Level</name>
																<parameterid>level</parameterid>
																<valuemin>0</valuemin>
																<valuemax>3.98109</valuemax>
																<value>1</value>
															</parameter>
														</effect>
													</filter>
													<filter>
														<effect>
															<name>Audio Pan</name>
															<effectid>audiopan</effectid>
															<effectcategory>audiopan</effectcategory>
															<effecttype>audiopan</effecttype>
															<mediatype>audio</mediatype>
															<parameter>
																<name>Pan</name>
																<parameterid>pan</parameterid>
																<valuemin>-1</valuemin>
																<valuemax>1</valuemax>
																<value>-0</value>
															</parameter>
														</effect>
													</filter>
													<sourcetrack>
														<mediatype>audio</mediatype>
														<trackindex>2</trackindex>
													</sourcetrack>
													<link>
														<linkclipref>Raw Interview Matthew Duepner550</linkclipref>
														<mediatype>video</mediatype>
														<trackindex>1</trackindex>
														<clipindex>53</clipindex>
													</link>
													<link>
														<linkclipref>Raw Interview Matthew Duepner551</linkclipref>
														<mediatype>audio</mediatype>
														<trackindex>1</trackindex>
														<clipindex>53</clipindex>
														<groupindex>1</groupindex>
													</link>
													<link>
														<linkclipref>Raw Interview Matthew Duepner552</linkclipref>
														<mediatype>audio</mediatype>
														<trackindex>2</trackindex>
														<clipindex>53</clipindex>
														<groupindex>1</groupindex>
													</link>
													<itemhistory>
														<uuid>251B42B2-6175-4926-A2BE-6FA9A064593E</uuid>
													</itemhistory>
												</clipitem>
												<clipitem id="Raw Interview Matthew Duepner555">
													<name>Raw Interview Matthew Duepner</name>
													<duration>81486</duration>
													<rate>
														<ntsc>TRUE</ntsc>
														<timebase>24</timebase>
													</rate>
													<in>81210</in>
													<out>81278</out>
													<start>11478</start>
													<end>11546</end>
													<masterclipid>Raw Interview Matthew Duepner390</masterclipid>
													<logginginfo>
														<scene/>
														<shottake/>
														<lognote/>
														<good>FALSE</good>
													</logginginfo>
													<labels>
														<label2/>
													</labels>
													<comments>
														<mastercomment1/>
														<mastercomment2/>
														<mastercomment3/>
														<mastercomment4/>
													</comments>
													<file id="YIN_2013-05-28_LG-5 "/>
													<filter>
														<effect>
															<name>Audio Levels</name>
															<effectid>audiolevels</effectid>
															<effectcategory>audiolevels</effectcategory>
															<effecttype>audiolevels</effecttype>
															<mediatype>audio</mediatype>
															<parameter>
																<name>Level</name>
																<parameterid>level</parameterid>
																<valuemin>0</valuemin>
																<valuemax>3.98109</valuemax>
																<value>1</value>
															</parameter>
														</effect>
													</filter>
													<filter>
														<effect>
															<name>Audio Pan</name>
															<effectid>audiopan</effectid>
															<effectcategory>audiopan</effectcategory>
															<effecttype>audiopan</effecttype>
															<mediatype>audio</mediatype>
															<parameter>
																<name>Pan</name>
																<parameterid>pan</parameterid>
																<valuemin>-1</valuemin>
																<valuemax>1</valuemax>
																<value>-0</value>
															</parameter>
														</effect>
													</filter>
													<sourcetrack>
														<mediatype>audio</mediatype>
														<trackindex>2</trackindex>
													</sourcetrack>
													<link>
														<linkclipref>Raw Interview Matthew Duepner553</linkclipref>
														<mediatype>video</mediatype>
														<trackindex>1</trackindex>
														<clipindex>54</clipindex>
													</link>
													<link>
														<linkclipref>Raw Interview Matthew Duepner554</linkclipref>
														<mediatype>audio</mediatype>
														<trackindex>1</trackindex>
														<clipindex>54</clipindex>
														<groupindex>1</groupindex>
													</link>
													<link>
														<linkclipref>Raw Interview Matthew Duepner555</linkclipref>
														<mediatype>audio</mediatype>
														<trackindex>2</trackindex>
														<clipindex>54</clipindex>
														<groupindex>1</groupindex>
													</link>
													<itemhistory>
														<uuid>465B8D7B-17F4-473D-9540-B58DE155A453</uuid>
													</itemhistory>
												</clipitem>
												<enabled>TRUE</enabled>
												<locked>FALSE</locked>
												<outputchannelindex>2</outputchannelindex>
											</track>
											<track>
												<enabled>TRUE</enabled>
												<locked>FALSE</locked>
												<outputchannelindex>1</outputchannelindex>
											</track>
											<track>
												<enabled>TRUE</enabled>
												<locked>FALSE</locked>
												<outputchannelindex>2</outputchannelindex>
											</track>
											<track>
												<enabled>TRUE</enabled>
												<locked>FALSE</locked>
												<outputchannelindex>1</outputchannelindex>
											</track>
											<track>
												<enabled>TRUE</enabled>
												<locked>FALSE</locked>
												<outputchannelindex>2</outputchannelindex>
											</track>
											<track>
												<enabled>TRUE</enabled>
												<locked>FALSE</locked>
												<outputchannelindex>1</outputchannelindex>
											</track>
											<track>
												<enabled>TRUE</enabled>
												<locked>FALSE</locked>
												<outputchannelindex>2</outputchannelindex>
											</track>
											<track>
												<enabled>TRUE</enabled>
												<locked>FALSE</locked>
												<outputchannelindex>1</outputchannelindex>
											</track>
											<track>
												<enabled>TRUE</enabled>
												<locked>FALSE</locked>
												<outputchannelindex>2</outputchannelindex>
											</track>
											<track>
												<enabled>TRUE</enabled>
												<locked>FALSE</locked>
												<outputchannelindex>1</outputchannelindex>
											</track>
											<track>
												<enabled>TRUE</enabled>
												<locked>FALSE</locked>
												<outputchannelindex>2</outputchannelindex>
											</track>
											<track>
												<enabled>TRUE</enabled>
												<locked>FALSE</locked>
												<outputchannelindex>1</outputchannelindex>
											</track>
											<track>
												<enabled>TRUE</enabled>
												<locked>FALSE</locked>
												<outputchannelindex>2</outputchannelindex>
											</track>
											<track>
												<enabled>TRUE</enabled>
												<locked>FALSE</locked>
												<outputchannelindex>1</outputchannelindex>
											</track>
											<track>
												<enabled>TRUE</enabled>
												<locked>FALSE</locked>
												<outputchannelindex>2</outputchannelindex>
											</track>
											<track>
												<enabled>TRUE</enabled>
												<locked>FALSE</locked>
												<outputchannelindex>1</outputchannelindex>
											</track>
											<track>
												<enabled>TRUE</enabled>
												<locked>FALSE</locked>
												<outputchannelindex>2</outputchannelindex>
											</track>
											<track>
												<enabled>TRUE</enabled>
												<locked>FALSE</locked>
												<outputchannelindex>1</outputchannelindex>
											</track>
											<track>
												<enabled>TRUE</enabled>
												<locked>FALSE</locked>
												<outputchannelindex>2</outputchannelindex>
											</track>
											<track>
												<enabled>TRUE</enabled>
												<locked>FALSE</locked>
												<outputchannelindex>1</outputchannelindex>
											</track>
											<track>
												<enabled>TRUE</enabled>
												<locked>FALSE</locked>
												<outputchannelindex>2</outputchannelindex>
											</track>
											<track>
												<enabled>TRUE</enabled>
												<locked>FALSE</locked>
												<outputchannelindex>1</outputchannelindex>
											</track>
											<track>
												<enabled>TRUE</enabled>
												<locked>FALSE</locked>
												<outputchannelindex>2</outputchannelindex>
											</track>
											<track>
												<enabled>TRUE</enabled>
												<locked>FALSE</locked>
												<outputchannelindex>1</outputchannelindex>
											</track>
											<track>
												<enabled>TRUE</enabled>
												<locked>FALSE</locked>
												<outputchannelindex>2</outputchannelindex>
											</track>
											<track>
												<enabled>TRUE</enabled>
												<locked>FALSE</locked>
												<outputchannelindex>1</outputchannelindex>
											</track>
											<track>
												<enabled>TRUE</enabled>
												<locked>FALSE</locked>
												<outputchannelindex>2</outputchannelindex>
											</track>
											<track>
												<enabled>TRUE</enabled>
												<locked>FALSE</locked>
												<outputchannelindex>1</outputchannelindex>
											</track>
											<track>
												<enabled>TRUE</enabled>
												<locked>FALSE</locked>
												<outputchannelindex>2</outputchannelindex>
											</track>
											<track>
												<enabled>TRUE</enabled>
												<locked>FALSE</locked>
												<outputchannelindex>1</outputchannelindex>
											</track>
											<track>
												<enabled>TRUE</enabled>
												<locked>FALSE</locked>
												<outputchannelindex>2</outputchannelindex>
											</track>
											<track>
												<enabled>TRUE</enabled>
												<locked>FALSE</locked>
												<outputchannelindex>1</outputchannelindex>
											</track>
											<track>
												<enabled>TRUE</enabled>
												<locked>FALSE</locked>
												<outputchannelindex>2</outputchannelindex>
											</track>
											<track>
												<enabled>TRUE</enabled>
												<locked>FALSE</locked>
												<outputchannelindex>1</outputchannelindex>
											</track>
											<track>
												<enabled>TRUE</enabled>
												<locked>FALSE</locked>
												<outputchannelindex>2</outputchannelindex>
											</track>
											<track>
												<enabled>TRUE</enabled>
												<locked>FALSE</locked>
												<outputchannelindex>1</outputchannelindex>
											</track>
											<track>
												<enabled>TRUE</enabled>
												<locked>FALSE</locked>
												<outputchannelindex>2</outputchannelindex>
											</track>
											<track>
												<enabled>TRUE</enabled>
												<locked>FALSE</locked>
												<outputchannelindex>1</outputchannelindex>
											</track>
											<track>
												<enabled>TRUE</enabled>
												<locked>FALSE</locked>
												<outputchannelindex>2</outputchannelindex>
											</track>
											<track>
												<enabled>TRUE</enabled>
												<locked>FALSE</locked>
												<outputchannelindex>1</outputchannelindex>
											</track>
											<track>
												<enabled>TRUE</enabled>
												<locked>FALSE</locked>
												<outputchannelindex>2</outputchannelindex>
											</track>
											<track>
												<enabled>TRUE</enabled>
												<locked>FALSE</locked>
												<outputchannelindex>1</outputchannelindex>
											</track>
											<track>
												<enabled>TRUE</enabled>
												<locked>FALSE</locked>
												<outputchannelindex>2</outputchannelindex>
											</track>
											<track>
												<enabled>TRUE</enabled>
												<locked>FALSE</locked>
												<outputchannelindex>1</outputchannelindex>
											</track>
											<track>
												<enabled>TRUE</enabled>
												<locked>FALSE</locked>
												<outputchannelindex>2</outputchannelindex>
											</track>
											<track>
												<enabled>TRUE</enabled>
												<locked>FALSE</locked>
												<outputchannelindex>1</outputchannelindex>
											</track>
											<track>
												<enabled>TRUE</enabled>
												<locked>FALSE</locked>
												<outputchannelindex>2</outputchannelindex>
											</track>
											<track>
												<enabled>TRUE</enabled>
												<locked>FALSE</locked>
												<outputchannelindex>1</outputchannelindex>
											</track>
											<track>
												<enabled>TRUE</enabled>
												<locked>FALSE</locked>
												<outputchannelindex>2</outputchannelindex>
											</track>
											<track>
												<enabled>TRUE</enabled>
												<locked>FALSE</locked>
												<outputchannelindex>1</outputchannelindex>
											</track>
											<track>
												<enabled>TRUE</enabled>
												<locked>FALSE</locked>
												<outputchannelindex>2</outputchannelindex>
											</track>
											<track>
												<enabled>TRUE</enabled>
												<locked>FALSE</locked>
												<outputchannelindex>1</outputchannelindex>
											</track>
											<track>
												<enabled>TRUE</enabled>
												<locked>FALSE</locked>
												<outputchannelindex>2</outputchannelindex>
											</track>
											<track>
												<enabled>TRUE</enabled>
												<locked>FALSE</locked>
												<outputchannelindex>1</outputchannelindex>
											</track>
											<track>
												<enabled>TRUE</enabled>
												<locked>FALSE</locked>
												<outputchannelindex>2</outputchannelindex>
											</track>
											<track>
												<enabled>TRUE</enabled>
												<locked>FALSE</locked>
												<outputchannelindex>1</outputchannelindex>
											</track>
											<track>
												<enabled>TRUE</enabled>
												<locked>FALSE</locked>
												<outputchannelindex>2</outputchannelindex>
											</track>
											<track>
												<enabled>TRUE</enabled>
												<locked>FALSE</locked>
												<outputchannelindex>1</outputchannelindex>
											</track>
											<track>
												<enabled>TRUE</enabled>
												<locked>FALSE</locked>
												<outputchannelindex>2</outputchannelindex>
											</track>
											<track>
												<enabled>TRUE</enabled>
												<locked>FALSE</locked>
												<outputchannelindex>1</outputchannelindex>
											</track>
											<track>
												<enabled>TRUE</enabled>
												<locked>FALSE</locked>
												<outputchannelindex>2</outputchannelindex>
											</track>
											<track>
												<enabled>TRUE</enabled>
												<locked>FALSE</locked>
												<outputchannelindex>1</outputchannelindex>
											</track>
											<track>
												<enabled>TRUE</enabled>
												<locked>FALSE</locked>
												<outputchannelindex>2</outputchannelindex>
											</track>
											<track>
												<enabled>TRUE</enabled>
												<locked>FALSE</locked>
												<outputchannelindex>1</outputchannelindex>
											</track>
											<track>
												<enabled>TRUE</enabled>
												<locked>FALSE</locked>
												<outputchannelindex>2</outputchannelindex>
											</track>
										</audio>
									</media>
									<ismasterclip>FALSE</ismasterclip>
								</sequence>
								<sequence id="Selects Matthew Deupner Scenes">
									<uuid>4B6E3572-5915-4331-B185-1C855BF1DF43</uuid>
									<updatebehavior>add</updatebehavior>
									<name>Selects Matthew Deupner Scenes</name>
									<duration>9784</duration>
									<rate>
										<ntsc>TRUE</ntsc>
										<timebase>24</timebase>
									</rate>
									<timecode>
										<rate>
											<ntsc>TRUE</ntsc>
											<timebase>24</timebase>
										</rate>
										<string>00:00:00:00</string>
										<frame>0</frame>
										<source>source</source>
										<displayformat>NDF</displayformat>
									</timecode>
									<in>-1</in>
									<out>-1</out>
									<media>
										<video>
											<format>
												<samplecharacteristics>
													<width>640</width>
													<height>360</height>
													<anamorphic>FALSE</anamorphic>
													<pixelaspectratio>Square</pixelaspectratio>
													<fielddominance>none</fielddominance>
													<rate>
														<ntsc>TRUE</ntsc>
														<timebase>24</timebase>
													</rate>
													<colordepth>24</colordepth>
													<codec>
														<name>Apple ProRes 422</name>
														<appspecificdata>
															<appname>Final Cut Pro</appname>
															<appmanufacturer>Apple Inc.</appmanufacturer>
															<appversion>7.0</appversion>
															<data>
																<qtcodec>
																	<codecname>Apple ProRes 422</codecname>
																	<codectypename>Apple ProRes 422</codectypename>
																	<codectypecode>apcn</codectypecode>
																	<codecvendorcode>appl</codecvendorcode>
																	<spatialquality>1024</spatialquality>
																	<temporalquality>0</temporalquality>
																	<keyframerate>0</keyframerate>
																	<datarate>0</datarate>
																</qtcodec>
															</data>
														</appspecificdata>
													</codec>
												</samplecharacteristics>
												<appspecificdata>
													<appname>Final Cut Pro</appname>
													<appmanufacturer>Apple Inc.</appmanufacturer>
													<appversion>7.0</appversion>
													<data>
														<fcpimageprocessing>
															<useyuv>TRUE</useyuv>
															<usesuperwhite>TRUE</usesuperwhite>
															<rendermode>Float10BPP</rendermode>
														</fcpimageprocessing>
													</data>
												</appspecificdata>
											</format>
											<track>
												<clipitem id="Raw B Roll Hack Manhattan Matthew Duepner's House52">
													<name>Raw B Roll Hack Manhattan Matthew Duepner's House</name>
													<duration>6617</duration>
													<rate>
														<ntsc>TRUE</ntsc>
														<timebase>24</timebase>
													</rate>
													<in>5680</in>
													<out>5776</out>
													<start>0</start>
													<end>96</end>
													<pixelaspectratio>Square</pixelaspectratio>
													<anamorphic>FALSE</anamorphic>
													<alphatype>black</alphatype>
													<masterclipid>Raw B Roll Hack Manhattan Matthew Duepner's House1</masterclipid>
													<logginginfo>
														<scene/>
														<shottake/>
														<lognote/>
														<good>FALSE</good>
													</logginginfo>
													<labels>
														<label2/>
													</labels>
													<comments>
														<mastercomment1/>
														<mastercomment2/>
														<mastercomment3/>
														<mastercomment4/>
													</comments>
													<file id="YIN_2013-04-28_JB-1 "/>
													<sourcetrack>
														<mediatype>video</mediatype>
													</sourcetrack>
													<link>
														<linkclipref>Raw B Roll Hack Manhattan Matthew Duepner's House52</linkclipref>
														<mediatype>video</mediatype>
														<trackindex>1</trackindex>
														<clipindex>1</clipindex>
													</link>
													<link>
														<linkclipref>Raw B Roll Hack Manhattan Matthew Duepner's House53</linkclipref>
														<mediatype>audio</mediatype>
														<trackindex>1</trackindex>
														<clipindex>1</clipindex>
														<groupindex>1</groupindex>
													</link>
													<link>
														<linkclipref>Raw B Roll Hack Manhattan Matthew Duepner's House54</linkclipref>
														<mediatype>audio</mediatype>
														<trackindex>2</trackindex>
														<clipindex>1</clipindex>
														<groupindex>1</groupindex>
													</link>
													<fielddominance>none</fielddominance>
													<itemhistory>
														<uuid>69AAB33F-4FC8-414B-9842-24D26FD2611E</uuid>
													</itemhistory>
												</clipitem>
												<clipitem id="Raw B Roll Hack Manhattan Matthew Duepner's House55">
													<name>Raw B Roll Hack Manhattan Matthew Duepner's House</name>
													<duration>6617</duration>
													<rate>
														<ntsc>TRUE</ntsc>
														<timebase>24</timebase>
													</rate>
													<in>6344</in>
													<out>6443</out>
													<start>96</start>
													<end>195</end>
													<pixelaspectratio>Square</pixelaspectratio>
													<anamorphic>FALSE</anamorphic>
													<alphatype>black</alphatype>
													<masterclipid>Raw B Roll Hack Manhattan Matthew Duepner's House1</masterclipid>
													<logginginfo>
														<scene/>
														<shottake/>
														<lognote/>
														<good>FALSE</good>
													</logginginfo>
													<labels>
														<label2/>
													</labels>
													<comments>
														<mastercomment1/>
														<mastercomment2/>
														<mastercomment3/>
														<mastercomment4/>
													</comments>
													<file id="YIN_2013-04-28_JB-1 "/>
													<sourcetrack>
														<mediatype>video</mediatype>
													</sourcetrack>
													<link>
														<linkclipref>Raw B Roll Hack Manhattan Matthew Duepner's House55</linkclipref>
														<mediatype>video</mediatype>
														<trackindex>1</trackindex>
														<clipindex>2</clipindex>
													</link>
													<link>
														<linkclipref>Raw B Roll Hack Manhattan Matthew Duepner's House56</linkclipref>
														<mediatype>audio</mediatype>
														<trackindex>1</trackindex>
														<clipindex>2</clipindex>
														<groupindex>1</groupindex>
													</link>
													<link>
														<linkclipref>Raw B Roll Hack Manhattan Matthew Duepner's House57</linkclipref>
														<mediatype>audio</mediatype>
														<trackindex>2</trackindex>
														<clipindex>2</clipindex>
														<groupindex>1</groupindex>
													</link>
													<fielddominance>none</fielddominance>
													<itemhistory>
														<uuid>BA424E3A-92C6-4E7E-AACD-4E93E0E810B2</uuid>
													</itemhistory>
												</clipitem>
												<clipitem id="Raw B Roll Hack Manhattan Matthew Duepner's House58">
													<name>Raw B Roll Hack Manhattan Matthew Duepner's House</name>
													<duration>6617</duration>
													<rate>
														<ntsc>TRUE</ntsc>
														<timebase>24</timebase>
													</rate>
													<in>6530</in>
													<out>6600</out>
													<start>195</start>
													<end>265</end>
													<pixelaspectratio>Square</pixelaspectratio>
													<anamorphic>FALSE</anamorphic>
													<alphatype>black</alphatype>
													<masterclipid>Raw B Roll Hack Manhattan Matthew Duepner's House1</masterclipid>
													<logginginfo>
														<scene/>
														<shottake/>
														<lognote/>
														<good>FALSE</good>
													</logginginfo>
													<labels>
														<label2/>
													</labels>
													<comments>
														<mastercomment1/>
														<mastercomment2/>
														<mastercomment3/>
														<mastercomment4/>
													</comments>
													<file id="YIN_2013-04-28_JB-1 "/>
													<sourcetrack>
														<mediatype>video</mediatype>
													</sourcetrack>
													<link>
														<linkclipref>Raw B Roll Hack Manhattan Matthew Duepner's House58</linkclipref>
														<mediatype>video</mediatype>
														<trackindex>1</trackindex>
														<clipindex>3</clipindex>
													</link>
													<link>
														<linkclipref>Raw B Roll Hack Manhattan Matthew Duepner's House59</linkclipref>
														<mediatype>audio</mediatype>
														<trackindex>1</trackindex>
														<clipindex>3</clipindex>
														<groupindex>1</groupindex>
													</link>
													<link>
														<linkclipref>Raw B Roll Hack Manhattan Matthew Duepner's House60</linkclipref>
														<mediatype>audio</mediatype>
														<trackindex>2</trackindex>
														<clipindex>3</clipindex>
														<groupindex>1</groupindex>
													</link>
													<fielddominance>none</fielddominance>
													<itemhistory>
														<uuid>F528E634-1A1D-4EB1-8A06-D1249C4070A4</uuid>
													</itemhistory>
												</clipitem>
												<clipitem id="Raw B Roll Hack Manhattan Matthew Duepner's House61">
													<name>Raw B Roll Hack Manhattan Matthew Duepner's House</name>
													<duration>6617</duration>
													<rate>
														<ntsc>TRUE</ntsc>
														<timebase>24</timebase>
													</rate>
													<in>6074</in>
													<out>6140</out>
													<start>265</start>
													<end>331</end>
													<pixelaspectratio>Square</pixelaspectratio>
													<anamorphic>FALSE</anamorphic>
													<alphatype>black</alphatype>
													<masterclipid>Raw B Roll Hack Manhattan Matthew Duepner's House1</masterclipid>
													<logginginfo>
														<scene/>
														<shottake/>
														<lognote/>
														<good>FALSE</good>
													</logginginfo>
													<labels>
														<label2/>
													</labels>
													<comments>
														<mastercomment1/>
														<mastercomment2/>
														<mastercomment3/>
														<mastercomment4/>
													</comments>
													<file id="YIN_2013-04-28_JB-1 "/>
													<sourcetrack>
														<mediatype>video</mediatype>
													</sourcetrack>
													<link>
														<linkclipref>Raw B Roll Hack Manhattan Matthew Duepner's House61</linkclipref>
														<mediatype>video</mediatype>
														<trackindex>1</trackindex>
														<clipindex>4</clipindex>
													</link>
													<link>
														<linkclipref>Raw B Roll Hack Manhattan Matthew Duepner's House62</linkclipref>
														<mediatype>audio</mediatype>
														<trackindex>1</trackindex>
														<clipindex>4</clipindex>
														<groupindex>1</groupindex>
													</link>
													<link>
														<linkclipref>Raw B Roll Hack Manhattan Matthew Duepner's House63</linkclipref>
														<mediatype>audio</mediatype>
														<trackindex>2</trackindex>
														<clipindex>4</clipindex>
														<groupindex>1</groupindex>
													</link>
													<fielddominance>none</fielddominance>
													<itemhistory>
														<uuid>4856D9C4-D823-4D43-BF57-A835F194BB5C</uuid>
													</itemhistory>
												</clipitem>
												<clipitem id="Raw B Roll Hack Manhattan Matthew Duepner's House64">
													<name>Raw B Roll Hack Manhattan Matthew Duepner's House</name>
													<duration>6617</duration>
													<rate>
														<ntsc>TRUE</ntsc>
														<timebase>24</timebase>
													</rate>
													<in>5559</in>
													<out>5659</out>
													<start>331</start>
													<end>431</end>
													<pixelaspectratio>Square</pixelaspectratio>
													<anamorphic>FALSE</anamorphic>
													<alphatype>black</alphatype>
													<masterclipid>Raw B Roll Hack Manhattan Matthew Duepner's House1</masterclipid>
													<logginginfo>
														<scene/>
														<shottake/>
														<lognote/>
														<good>FALSE</good>
													</logginginfo>
													<labels>
														<label2/>
													</labels>
													<comments>
														<mastercomment1/>
														<mastercomment2/>
														<mastercomment3/>
														<mastercomment4/>
													</comments>
													<file id="YIN_2013-04-28_JB-1 "/>
													<sourcetrack>
														<mediatype>video</mediatype>
													</sourcetrack>
													<link>
														<linkclipref>Raw B Roll Hack Manhattan Matthew Duepner's House64</linkclipref>
														<mediatype>video</mediatype>
														<trackindex>1</trackindex>
														<clipindex>5</clipindex>
													</link>
													<link>
														<linkclipref>Raw B Roll Hack Manhattan Matthew Duepner's House65</linkclipref>
														<mediatype>audio</mediatype>
														<trackindex>1</trackindex>
														<clipindex>5</clipindex>
														<groupindex>1</groupindex>
													</link>
													<link>
														<linkclipref>Raw B Roll Hack Manhattan Matthew Duepner's House66</linkclipref>
														<mediatype>audio</mediatype>
														<trackindex>2</trackindex>
														<clipindex>5</clipindex>
														<groupindex>1</groupindex>
													</link>
													<fielddominance>none</fielddominance>
													<itemhistory>
														<uuid>68C25D08-3439-4C45-8C0F-13BB2B41A92C</uuid>
													</itemhistory>
												</clipitem>
												<clipitem id="Raw B Roll Hack Manhattan Matthew Duepner's House67">
													<name>Raw B Roll Hack Manhattan Matthew Duepner's House</name>
													<duration>6617</duration>
													<rate>
														<ntsc>TRUE</ntsc>
														<timebase>24</timebase>
													</rate>
													<in>5878</in>
													<out>5953</out>
													<start>431</start>
													<end>506</end>
													<pixelaspectratio>Square</pixelaspectratio>
													<anamorphic>FALSE</anamorphic>
													<alphatype>black</alphatype>
													<masterclipid>Raw B Roll Hack Manhattan Matthew Duepner's House1</masterclipid>
													<logginginfo>
														<scene/>
														<shottake/>
														<lognote/>
														<good>FALSE</good>
													</logginginfo>
													<labels>
														<label2/>
													</labels>
													<comments>
														<mastercomment1/>
														<mastercomment2/>
														<mastercomment3/>
														<mastercomment4/>
													</comments>
													<file id="YIN_2013-04-28_JB-1 "/>
													<sourcetrack>
														<mediatype>video</mediatype>
													</sourcetrack>
													<link>
														<linkclipref>Raw B Roll Hack Manhattan Matthew Duepner's House67</linkclipref>
														<mediatype>video</mediatype>
														<trackindex>1</trackindex>
														<clipindex>6</clipindex>
													</link>
													<link>
														<linkclipref>Raw B Roll Hack Manhattan Matthew Duepner's House68</linkclipref>
														<mediatype>audio</mediatype>
														<trackindex>1</trackindex>
														<clipindex>6</clipindex>
														<groupindex>1</groupindex>
													</link>
													<link>
														<linkclipref>Raw B Roll Hack Manhattan Matthew Duepner's House69</linkclipref>
														<mediatype>audio</mediatype>
														<trackindex>2</trackindex>
														<clipindex>6</clipindex>
														<groupindex>1</groupindex>
													</link>
													<fielddominance>none</fielddominance>
													<itemhistory>
														<uuid>3679E331-93AD-4999-84B9-F97E5A2F3C8C</uuid>
													</itemhistory>
												</clipitem>
												<clipitem id="Raw B Roll Hack Manhattan Matthew Duepner's House70">
													<name>Raw B Roll Hack Manhattan Matthew Duepner's House</name>
													<duration>6617</duration>
													<rate>
														<ntsc>TRUE</ntsc>
														<timebase>24</timebase>
													</rate>
													<in>4745</in>
													<out>4829</out>
													<start>506</start>
													<end>590</end>
													<pixelaspectratio>Square</pixelaspectratio>
													<anamorphic>FALSE</anamorphic>
													<alphatype>black</alphatype>
													<masterclipid>Raw B Roll Hack Manhattan Matthew Duepner's House1</masterclipid>
													<logginginfo>
														<scene/>
														<shottake/>
														<lognote/>
														<good>FALSE</good>
													</logginginfo>
													<labels>
														<label2/>
													</labels>
													<comments>
														<mastercomment1/>
														<mastercomment2/>
														<mastercomment3/>
														<mastercomment4/>
													</comments>
													<file id="YIN_2013-04-28_JB-1 "/>
													<sourcetrack>
														<mediatype>video</mediatype>
													</sourcetrack>
													<link>
														<linkclipref>Raw B Roll Hack Manhattan Matthew Duepner's House70</linkclipref>
														<mediatype>video</mediatype>
														<trackindex>1</trackindex>
														<clipindex>7</clipindex>
													</link>
													<link>
														<linkclipref>Raw B Roll Hack Manhattan Matthew Duepner's House71</linkclipref>
														<mediatype>audio</mediatype>
														<trackindex>1</trackindex>
														<clipindex>7</clipindex>
														<groupindex>1</groupindex>
													</link>
													<link>
														<linkclipref>Raw B Roll Hack Manhattan Matthew Duepner's House72</linkclipref>
														<mediatype>audio</mediatype>
														<trackindex>2</trackindex>
														<clipindex>7</clipindex>
														<groupindex>1</groupindex>
													</link>
													<fielddominance>none</fielddominance>
													<itemhistory>
														<uuid>F1DE1CEF-717B-4DAE-B97E-8E55D8E68C1C</uuid>
													</itemhistory>
												</clipitem>
												<clipitem id="Raw B Roll Hack Manhattan Matthew Duepner's House73">
													<name>Raw B Roll Hack Manhattan Matthew Duepner's House</name>
													<duration>6617</duration>
													<rate>
														<ntsc>TRUE</ntsc>
														<timebase>24</timebase>
													</rate>
													<in>3527</in>
													<out>3604</out>
													<start>590</start>
													<end>667</end>
													<pixelaspectratio>Square</pixelaspectratio>
													<anamorphic>FALSE</anamorphic>
													<alphatype>black</alphatype>
													<masterclipid>Raw B Roll Hack Manhattan Matthew Duepner's House1</masterclipid>
													<logginginfo>
														<scene/>
														<shottake/>
														<lognote/>
														<good>FALSE</good>
													</logginginfo>
													<labels>
														<label2/>
													</labels>
													<comments>
														<mastercomment1/>
														<mastercomment2/>
														<mastercomment3/>
														<mastercomment4/>
													</comments>
													<file id="YIN_2013-04-28_JB-1 "/>
													<sourcetrack>
														<mediatype>video</mediatype>
													</sourcetrack>
													<link>
														<linkclipref>Raw B Roll Hack Manhattan Matthew Duepner's House73</linkclipref>
														<mediatype>video</mediatype>
														<trackindex>1</trackindex>
														<clipindex>8</clipindex>
													</link>
													<link>
														<linkclipref>Raw B Roll Hack Manhattan Matthew Duepner's House74</linkclipref>
														<mediatype>audio</mediatype>
														<trackindex>1</trackindex>
														<clipindex>8</clipindex>
														<groupindex>1</groupindex>
													</link>
													<link>
														<linkclipref>Raw B Roll Hack Manhattan Matthew Duepner's House75</linkclipref>
														<mediatype>audio</mediatype>
														<trackindex>2</trackindex>
														<clipindex>8</clipindex>
														<groupindex>1</groupindex>
													</link>
													<fielddominance>none</fielddominance>
													<itemhistory>
														<uuid>FBB3DEF0-C438-4CDB-8996-6A6986613085</uuid>
													</itemhistory>
												</clipitem>
												<clipitem id="Raw B Roll Hack Manhattan Matthew Duepner's House76">
													<name>Raw B Roll Hack Manhattan Matthew Duepner's House</name>
													<duration>6617</duration>
													<rate>
														<ntsc>TRUE</ntsc>
														<timebase>24</timebase>
													</rate>
													<in>2432</in>
													<out>2555</out>
													<start>667</start>
													<end>790</end>
													<pixelaspectratio>Square</pixelaspectratio>
													<anamorphic>FALSE</anamorphic>
													<alphatype>black</alphatype>
													<masterclipid>Raw B Roll Hack Manhattan Matthew Duepner's House1</masterclipid>
													<logginginfo>
														<scene/>
														<shottake/>
														<lognote/>
														<good>FALSE</good>
													</logginginfo>
													<labels>
														<label2/>
													</labels>
													<comments>
														<mastercomment1/>
														<mastercomment2/>
														<mastercomment3/>
														<mastercomment4/>
													</comments>
													<file id="YIN_2013-04-28_JB-1 "/>
													<sourcetrack>
														<mediatype>video</mediatype>
													</sourcetrack>
													<link>
														<linkclipref>Raw B Roll Hack Manhattan Matthew Duepner's House76</linkclipref>
														<mediatype>video</mediatype>
														<trackindex>1</trackindex>
														<clipindex>9</clipindex>
													</link>
													<link>
														<linkclipref>Raw B Roll Hack Manhattan Matthew Duepner's House77</linkclipref>
														<mediatype>audio</mediatype>
														<trackindex>1</trackindex>
														<clipindex>9</clipindex>
														<groupindex>1</groupindex>
													</link>
													<link>
														<linkclipref>Raw B Roll Hack Manhattan Matthew Duepner's House78</linkclipref>
														<mediatype>audio</mediatype>
														<trackindex>2</trackindex>
														<clipindex>9</clipindex>
														<groupindex>1</groupindex>
													</link>
													<fielddominance>none</fielddominance>
													<itemhistory>
														<uuid>6DBC52FE-50BD-482F-B5ED-6D4B37C3F662</uuid>
													</itemhistory>
												</clipitem>
												<clipitem id="Raw B Roll Hack Manhattan Matthew Duepner's House79">
													<name>Raw B Roll Hack Manhattan Matthew Duepner's House</name>
													<duration>6617</duration>
													<rate>
														<ntsc>TRUE</ntsc>
														<timebase>24</timebase>
													</rate>
													<in>2733</in>
													<out>2884</out>
													<start>790</start>
													<end>941</end>
													<pixelaspectratio>Square</pixelaspectratio>
													<anamorphic>FALSE</anamorphic>
													<alphatype>black</alphatype>
													<masterclipid>Raw B Roll Hack Manhattan Matthew Duepner's House1</masterclipid>
													<logginginfo>
														<scene/>
														<shottake/>
														<lognote/>
														<good>FALSE</good>
													</logginginfo>
													<labels>
														<label2/>
													</labels>
													<comments>
														<mastercomment1/>
														<mastercomment2/>
														<mastercomment3/>
														<mastercomment4/>
													</comments>
													<file id="YIN_2013-04-28_JB-1 "/>
													<sourcetrack>
														<mediatype>video</mediatype>
													</sourcetrack>
													<link>
														<linkclipref>Raw B Roll Hack Manhattan Matthew Duepner's House79</linkclipref>
														<mediatype>video</mediatype>
														<trackindex>1</trackindex>
														<clipindex>10</clipindex>
													</link>
													<link>
														<linkclipref>Raw B Roll Hack Manhattan Matthew Duepner's House80</linkclipref>
														<mediatype>audio</mediatype>
														<trackindex>1</trackindex>
														<clipindex>10</clipindex>
														<groupindex>1</groupindex>
													</link>
													<link>
														<linkclipref>Raw B Roll Hack Manhattan Matthew Duepner's House81</linkclipref>
														<mediatype>audio</mediatype>
														<trackindex>2</trackindex>
														<clipindex>10</clipindex>
														<groupindex>1</groupindex>
													</link>
													<fielddominance>none</fielddominance>
													<itemhistory>
														<uuid>1974B806-1CE6-46F8-ABEA-0BC8B82A381B</uuid>
													</itemhistory>
												</clipitem>
												<clipitem id="Raw B Roll Hack Manhattan Matthew Duepner's House82">
													<name>Raw B Roll Hack Manhattan Matthew Duepner's House</name>
													<duration>6617</duration>
													<rate>
														<ntsc>TRUE</ntsc>
														<timebase>24</timebase>
													</rate>
													<in>5318</in>
													<out>5486</out>
													<start>941</start>
													<end>1109</end>
													<pixelaspectratio>Square</pixelaspectratio>
													<anamorphic>FALSE</anamorphic>
													<alphatype>black</alphatype>
													<masterclipid>Raw B Roll Hack Manhattan Matthew Duepner's House1</masterclipid>
													<logginginfo>
														<scene/>
														<shottake/>
														<lognote/>
														<good>FALSE</good>
													</logginginfo>
													<labels>
														<label2/>
													</labels>
													<comments>
														<mastercomment1/>
														<mastercomment2/>
														<mastercomment3/>
														<mastercomment4/>
													</comments>
													<file id="YIN_2013-04-28_JB-1 "/>
													<sourcetrack>
														<mediatype>video</mediatype>
													</sourcetrack>
													<link>
														<linkclipref>Raw B Roll Hack Manhattan Matthew Duepner's House82</linkclipref>
														<mediatype>video</mediatype>
														<trackindex>1</trackindex>
														<clipindex>11</clipindex>
													</link>
													<link>
														<linkclipref>Raw B Roll Hack Manhattan Matthew Duepner's House83</linkclipref>
														<mediatype>audio</mediatype>
														<trackindex>1</trackindex>
														<clipindex>11</clipindex>
														<groupindex>1</groupindex>
													</link>
													<link>
														<linkclipref>Raw B Roll Hack Manhattan Matthew Duepner's House84</linkclipref>
														<mediatype>audio</mediatype>
														<trackindex>2</trackindex>
														<clipindex>11</clipindex>
														<groupindex>1</groupindex>
													</link>
													<fielddominance>none</fielddominance>
													<itemhistory>
														<uuid>8D8001E1-3F6D-461C-9A28-0F20EE3F3F90</uuid>
													</itemhistory>
												</clipitem>
												<clipitem id="Raw B Roll Hack Manhattan Matthew Duepner's House85">
													<name>Raw B Roll Hack Manhattan Matthew Duepner's House</name>
													<duration>6617</duration>
													<rate>
														<ntsc>TRUE</ntsc>
														<timebase>24</timebase>
													</rate>
													<in>2948</in>
													<out>3117</out>
													<start>1109</start>
													<end>1278</end>
													<pixelaspectratio>Square</pixelaspectratio>
													<anamorphic>FALSE</anamorphic>
													<alphatype>black</alphatype>
													<masterclipid>Raw B Roll Hack Manhattan Matthew Duepner's House1</masterclipid>
													<logginginfo>
														<scene/>
														<shottake/>
														<lognote/>
														<good>FALSE</good>
													</logginginfo>
													<labels>
														<label2/>
													</labels>
													<comments>
														<mastercomment1/>
														<mastercomment2/>
														<mastercomment3/>
														<mastercomment4/>
													</comments>
													<file id="YIN_2013-04-28_JB-1 "/>
													<sourcetrack>
														<mediatype>video</mediatype>
													</sourcetrack>
													<link>
														<linkclipref>Raw B Roll Hack Manhattan Matthew Duepner's House85</linkclipref>
														<mediatype>video</mediatype>
														<trackindex>1</trackindex>
														<clipindex>12</clipindex>
													</link>
													<link>
														<linkclipref>Raw B Roll Hack Manhattan Matthew Duepner's House86</linkclipref>
														<mediatype>audio</mediatype>
														<trackindex>1</trackindex>
														<clipindex>12</clipindex>
														<groupindex>1</groupindex>
													</link>
													<link>
														<linkclipref>Raw B Roll Hack Manhattan Matthew Duepner's House87</linkclipref>
														<mediatype>audio</mediatype>
														<trackindex>2</trackindex>
														<clipindex>12</clipindex>
														<groupindex>1</groupindex>
													</link>
													<fielddominance>none</fielddominance>
													<itemhistory>
														<uuid>D7C17FAE-D8EC-419F-9E2F-326999E45DDC</uuid>
													</itemhistory>
												</clipitem>
												<clipitem id="Raw B Roll Hack Manhattan Matthew Duepner's House88">
													<name>Raw B Roll Hack Manhattan Matthew Duepner's House</name>
													<duration>6617</duration>
													<rate>
														<ntsc>TRUE</ntsc>
														<timebase>24</timebase>
													</rate>
													<in>4099</in>
													<out>4179</out>
													<start>1278</start>
													<end>1358</end>
													<pixelaspectratio>Square</pixelaspectratio>
													<anamorphic>FALSE</anamorphic>
													<alphatype>black</alphatype>
													<masterclipid>Raw B Roll Hack Manhattan Matthew Duepner's House1</masterclipid>
													<logginginfo>
														<scene/>
														<shottake/>
														<lognote/>
														<good>FALSE</good>
													</logginginfo>
													<labels>
														<label2/>
													</labels>
													<comments>
														<mastercomment1/>
														<mastercomment2/>
														<mastercomment3/>
														<mastercomment4/>
													</comments>
													<file id="YIN_2013-04-28_JB-1 "/>
													<sourcetrack>
														<mediatype>video</mediatype>
													</sourcetrack>
													<link>
														<linkclipref>Raw B Roll Hack Manhattan Matthew Duepner's House88</linkclipref>
														<mediatype>video</mediatype>
														<trackindex>1</trackindex>
														<clipindex>13</clipindex>
													</link>
													<link>
														<linkclipref>Raw B Roll Hack Manhattan Matthew Duepner's House89</linkclipref>
														<mediatype>audio</mediatype>
														<trackindex>1</trackindex>
														<clipindex>13</clipindex>
														<groupindex>1</groupindex>
													</link>
													<link>
														<linkclipref>Raw B Roll Hack Manhattan Matthew Duepner's House90</linkclipref>
														<mediatype>audio</mediatype>
														<trackindex>2</trackindex>
														<clipindex>13</clipindex>
														<groupindex>1</groupindex>
													</link>
													<fielddominance>none</fielddominance>
													<itemhistory>
														<uuid>54EECC2F-EF4B-4A37-BB5B-4378BA851C52</uuid>
													</itemhistory>
												</clipitem>
												<clipitem id="Raw B Roll Hack Manhattan Matthew Duepner's House91">
													<name>Raw B Roll Hack Manhattan Matthew Duepner's House</name>
													<duration>6617</duration>
													<rate>
														<ntsc>TRUE</ntsc>
														<timebase>24</timebase>
													</rate>
													<in>4305</in>
													<out>4396</out>
													<start>1358</start>
													<end>1449</end>
													<pixelaspectratio>Square</pixelaspectratio>
													<anamorphic>FALSE</anamorphic>
													<alphatype>black</alphatype>
													<masterclipid>Raw B Roll Hack Manhattan Matthew Duepner's House1</masterclipid>
													<logginginfo>
														<scene/>
														<shottake/>
														<lognote/>
														<good>FALSE</good>
													</logginginfo>
													<labels>
														<label2/>
													</labels>
													<comments>
														<mastercomment1/>
														<mastercomment2/>
														<mastercomment3/>
														<mastercomment4/>
													</comments>
													<file id="YIN_2013-04-28_JB-1 "/>
													<sourcetrack>
														<mediatype>video</mediatype>
													</sourcetrack>
													<link>
														<linkclipref>Raw B Roll Hack Manhattan Matthew Duepner's House91</linkclipref>
														<mediatype>video</mediatype>
														<trackindex>1</trackindex>
														<clipindex>14</clipindex>
													</link>
													<link>
														<linkclipref>Raw B Roll Hack Manhattan Matthew Duepner's House92</linkclipref>
														<mediatype>audio</mediatype>
														<trackindex>1</trackindex>
														<clipindex>14</clipindex>
														<groupindex>1</groupindex>
													</link>
													<link>
														<linkclipref>Raw B Roll Hack Manhattan Matthew Duepner's House93</linkclipref>
														<mediatype>audio</mediatype>
														<trackindex>2</trackindex>
														<clipindex>14</clipindex>
														<groupindex>1</groupindex>
													</link>
													<fielddominance>none</fielddominance>
													<itemhistory>
														<uuid>0ADAD5A4-1B5F-4E54-B910-4141FEDB3DCA</uuid>
													</itemhistory>
												</clipitem>
												<clipitem id="Raw B Roll Hack Manhattan Matthew Duepner's House94">
													<name>Raw B Roll Hack Manhattan Matthew Duepner's House</name>
													<duration>6617</duration>
													<rate>
														<ntsc>TRUE</ntsc>
														<timebase>24</timebase>
													</rate>
													<in>4585</in>
													<out>4685</out>
													<start>1449</start>
													<end>1549</end>
													<pixelaspectratio>Square</pixelaspectratio>
													<anamorphic>FALSE</anamorphic>
													<alphatype>black</alphatype>
													<masterclipid>Raw B Roll Hack Manhattan Matthew Duepner's House1</masterclipid>
													<logginginfo>
														<scene/>
														<shottake/>
														<lognote/>
														<good>FALSE</good>
													</logginginfo>
													<labels>
														<label2/>
													</labels>
													<comments>
														<mastercomment1/>
														<mastercomment2/>
														<mastercomment3/>
														<mastercomment4/>
													</comments>
													<file id="YIN_2013-04-28_JB-1 "/>
													<sourcetrack>
														<mediatype>video</mediatype>
													</sourcetrack>
													<link>
														<linkclipref>Raw B Roll Hack Manhattan Matthew Duepner's House94</linkclipref>
														<mediatype>video</mediatype>
														<trackindex>1</trackindex>
														<clipindex>15</clipindex>
													</link>
													<link>
														<linkclipref>Raw B Roll Hack Manhattan Matthew Duepner's House95</linkclipref>
														<mediatype>audio</mediatype>
														<trackindex>1</trackindex>
														<clipindex>15</clipindex>
														<groupindex>1</groupindex>
													</link>
													<link>
														<linkclipref>Raw B Roll Hack Manhattan Matthew Duepner's House96</linkclipref>
														<mediatype>audio</mediatype>
														<trackindex>2</trackindex>
														<clipindex>15</clipindex>
														<groupindex>1</groupindex>
													</link>
													<fielddominance>none</fielddominance>
													<itemhistory>
														<uuid>7498D36E-1E49-4665-B53D-A5F0AB87FFA0</uuid>
													</itemhistory>
												</clipitem>
												<clipitem id="Raw Scene Matthew Duepner Printing76">
													<name>Raw Scene Matthew Duepner Printing</name>
													<duration>28553</duration>
													<rate>
														<ntsc>TRUE</ntsc>
														<timebase>24</timebase>
													</rate>
													<in>25118</in>
													<out>25193</out>
													<start>1549</start>
													<end>1624</end>
													<pixelaspectratio>Square</pixelaspectratio>
													<anamorphic>FALSE</anamorphic>
													<alphatype>black</alphatype>
													<masterclipid>Raw Scene Matthew Duepner Printing72</masterclipid>
													<logginginfo>
														<scene/>
														<shottake/>
														<lognote/>
														<good>FALSE</good>
													</logginginfo>
													<labels>
														<label2/>
													</labels>
													<comments>
														<mastercomment1/>
														<mastercomment2/>
														<mastercomment3/>
														<mastercomment4/>
													</comments>
													<file id="YIN_2013-05-28_LG-6 "/>
													<sourcetrack>
														<mediatype>video</mediatype>
													</sourcetrack>
													<link>
														<linkclipref>Raw Scene Matthew Duepner Printing76</linkclipref>
														<mediatype>video</mediatype>
														<trackindex>1</trackindex>
														<clipindex>16</clipindex>
													</link>
													<link>
														<linkclipref>Raw Scene Matthew Duepner Printing77</linkclipref>
														<mediatype>audio</mediatype>
														<trackindex>1</trackindex>
														<clipindex>16</clipindex>
														<groupindex>1</groupindex>
													</link>
													<link>
														<linkclipref>Raw Scene Matthew Duepner Printing78</linkclipref>
														<mediatype>audio</mediatype>
														<trackindex>2</trackindex>
														<clipindex>16</clipindex>
														<groupindex>1</groupindex>
													</link>
													<fielddominance>none</fielddominance>
													<itemhistory>
														<uuid>10D86E63-0561-4C10-BF9B-5DEC33F757F8</uuid>
													</itemhistory>
												</clipitem>
												<clipitem id="Raw B Roll Hack Manhattan Matthew Duepner's House97">
													<name>Raw B Roll Hack Manhattan Matthew Duepner's House</name>
													<duration>6617</duration>
													<rate>
														<ntsc>TRUE</ntsc>
														<timebase>24</timebase>
													</rate>
													<in>3931</in>
													<out>4052</out>
													<start>1624</start>
													<end>1745</end>
													<pixelaspectratio>Square</pixelaspectratio>
													<anamorphic>FALSE</anamorphic>
													<alphatype>black</alphatype>
													<masterclipid>Raw B Roll Hack Manhattan Matthew Duepner's House1</masterclipid>
													<logginginfo>
														<scene/>
														<shottake/>
														<lognote/>
														<good>FALSE</good>
													</logginginfo>
													<labels>
														<label2/>
													</labels>
													<comments>
														<mastercomment1/>
														<mastercomment2/>
														<mastercomment3/>
														<mastercomment4/>
													</comments>
													<file id="YIN_2013-04-28_JB-1 "/>
													<sourcetrack>
														<mediatype>video</mediatype>
													</sourcetrack>
													<link>
														<linkclipref>Raw B Roll Hack Manhattan Matthew Duepner's House97</linkclipref>
														<mediatype>video</mediatype>
														<trackindex>1</trackindex>
														<clipindex>17</clipindex>
													</link>
													<link>
														<linkclipref>Raw B Roll Hack Manhattan Matthew Duepner's House98</linkclipref>
														<mediatype>audio</mediatype>
														<trackindex>1</trackindex>
														<clipindex>17</clipindex>
														<groupindex>1</groupindex>
													</link>
													<link>
														<linkclipref>Raw B Roll Hack Manhattan Matthew Duepner's House99</linkclipref>
														<mediatype>audio</mediatype>
														<trackindex>2</trackindex>
														<clipindex>17</clipindex>
														<groupindex>1</groupindex>
													</link>
													<fielddominance>none</fielddominance>
													<itemhistory>
														<uuid>CA28512E-2C56-45F1-9C0C-7ACB8E4347FA</uuid>
													</itemhistory>
												</clipitem>
												<clipitem id="Raw B Roll Hack Manhattan Matthew Duepner's House100">
													<name>Raw B Roll Hack Manhattan Matthew Duepner's House</name>
													<duration>6617</duration>
													<rate>
														<ntsc>TRUE</ntsc>
														<timebase>24</timebase>
													</rate>
													<in>5073</in>
													<out>5227</out>
													<start>1745</start>
													<end>1899</end>
													<pixelaspectratio>Square</pixelaspectratio>
													<anamorphic>FALSE</anamorphic>
													<alphatype>black</alphatype>
													<masterclipid>Raw B Roll Hack Manhattan Matthew Duepner's House1</masterclipid>
													<logginginfo>
														<scene/>
														<shottake/>
														<lognote/>
														<good>FALSE</good>
													</logginginfo>
													<labels>
														<label2/>
													</labels>
													<comments>
														<mastercomment1/>
														<mastercomment2/>
														<mastercomment3/>
														<mastercomment4/>
													</comments>
													<file id="YIN_2013-04-28_JB-1 "/>
													<sourcetrack>
														<mediatype>video</mediatype>
													</sourcetrack>
													<link>
														<linkclipref>Raw B Roll Hack Manhattan Matthew Duepner's House100</linkclipref>
														<mediatype>video</mediatype>
														<trackindex>1</trackindex>
														<clipindex>18</clipindex>
													</link>
													<link>
														<linkclipref>Raw B Roll Hack Manhattan Matthew Duepner's House101</linkclipref>
														<mediatype>audio</mediatype>
														<trackindex>1</trackindex>
														<clipindex>18</clipindex>
														<groupindex>1</groupindex>
													</link>
													<link>
														<linkclipref>Raw B Roll Hack Manhattan Matthew Duepner's House102</linkclipref>
														<mediatype>audio</mediatype>
														<trackindex>2</trackindex>
														<clipindex>18</clipindex>
														<groupindex>1</groupindex>
													</link>
													<fielddominance>none</fielddominance>
													<itemhistory>
														<uuid>E1350FF7-F89E-4575-AAC6-17CFC1346A29</uuid>
													</itemhistory>
												</clipitem>
												<clipitem id="Raw Scene Matthew Duepner Printing79">
													<name>Raw Scene Matthew Duepner Printing</name>
													<duration>28553</duration>
													<rate>
														<ntsc>TRUE</ntsc>
														<timebase>24</timebase>
													</rate>
													<in>13248</in>
													<out>13390</out>
													<start>1899</start>
													<end>2041</end>
													<pixelaspectratio>Square</pixelaspectratio>
													<anamorphic>FALSE</anamorphic>
													<alphatype>black</alphatype>
													<masterclipid>Raw Scene Matthew Duepner Printing72</masterclipid>
													<logginginfo>
														<scene/>
														<shottake/>
														<lognote/>
														<good>FALSE</good>
													</logginginfo>
													<labels>
														<label2/>
													</labels>
													<comments>
														<mastercomment1/>
														<mastercomment2/>
														<mastercomment3/>
														<mastercomment4/>
													</comments>
													<file id="YIN_2013-05-28_LG-6 "/>
													<sourcetrack>
														<mediatype>video</mediatype>
													</sourcetrack>
													<link>
														<linkclipref>Raw Scene Matthew Duepner Printing79</linkclipref>
														<mediatype>video</mediatype>
														<trackindex>1</trackindex>
														<clipindex>19</clipindex>
													</link>
													<link>
														<linkclipref>Raw Scene Matthew Duepner Printing80</linkclipref>
														<mediatype>audio</mediatype>
														<trackindex>1</trackindex>
														<clipindex>19</clipindex>
														<groupindex>1</groupindex>
													</link>
													<link>
														<linkclipref>Raw Scene Matthew Duepner Printing81</linkclipref>
														<mediatype>audio</mediatype>
														<trackindex>2</trackindex>
														<clipindex>19</clipindex>
														<groupindex>1</groupindex>
													</link>
													<fielddominance>none</fielddominance>
													<itemhistory>
														<uuid>33D9952F-DEB9-435E-AE30-BC5EE02CF267</uuid>
													</itemhistory>
												</clipitem>
												<clipitem id="Raw Scene Matthew Duepner Printing82">
													<name>Raw Scene Matthew Duepner Printing</name>
													<duration>28553</duration>
													<rate>
														<ntsc>TRUE</ntsc>
														<timebase>24</timebase>
													</rate>
													<in>13645</in>
													<out>13872</out>
													<start>2041</start>
													<end>2268</end>
													<pixelaspectratio>Square</pixelaspectratio>
													<anamorphic>FALSE</anamorphic>
													<alphatype>black</alphatype>
													<masterclipid>Raw Scene Matthew Duepner Printing72</masterclipid>
													<logginginfo>
														<scene/>
														<shottake/>
														<lognote/>
														<good>FALSE</good>
													</logginginfo>
													<labels>
														<label2/>
													</labels>
													<comments>
														<mastercomment1/>
														<mastercomment2/>
														<mastercomment3/>
														<mastercomment4/>
													</comments>
													<file id="YIN_2013-05-28_LG-6 "/>
													<sourcetrack>
														<mediatype>video</mediatype>
													</sourcetrack>
													<link>
														<linkclipref>Raw Scene Matthew Duepner Printing82</linkclipref>
														<mediatype>video</mediatype>
														<trackindex>1</trackindex>
														<clipindex>20</clipindex>
													</link>
													<link>
														<linkclipref>Raw Scene Matthew Duepner Printing83</linkclipref>
														<mediatype>audio</mediatype>
														<trackindex>1</trackindex>
														<clipindex>20</clipindex>
														<groupindex>1</groupindex>
													</link>
													<link>
														<linkclipref>Raw Scene Matthew Duepner Printing84</linkclipref>
														<mediatype>audio</mediatype>
														<trackindex>2</trackindex>
														<clipindex>20</clipindex>
														<groupindex>1</groupindex>
													</link>
													<fielddominance>none</fielddominance>
													<itemhistory>
														<uuid>08B03F8E-80AE-48C1-8F29-1C43F0520202</uuid>
													</itemhistory>
												</clipitem>
												<clipitem id="Raw Scene Matthew Duepner Printing85">
													<name>Raw Scene Matthew Duepner Printing</name>
													<duration>28553</duration>
													<rate>
														<ntsc>TRUE</ntsc>
														<timebase>24</timebase>
													</rate>
													<in>14375</in>
													<out>14590</out>
													<start>2268</start>
													<end>2483</end>
													<pixelaspectratio>Square</pixelaspectratio>
													<anamorphic>FALSE</anamorphic>
													<alphatype>black</alphatype>
													<masterclipid>Raw Scene Matthew Duepner Printing72</masterclipid>
													<logginginfo>
														<scene/>
														<shottake/>
														<lognote/>
														<good>FALSE</good>
													</logginginfo>
													<labels>
														<label2/>
													</labels>
													<comments>
														<mastercomment1/>
														<mastercomment2/>
														<mastercomment3/>
														<mastercomment4/>
													</comments>
													<file id="YIN_2013-05-28_LG-6 "/>
													<sourcetrack>
														<mediatype>video</mediatype>
													</sourcetrack>
													<link>
														<linkclipref>Raw Scene Matthew Duepner Printing85</linkclipref>
														<mediatype>video</mediatype>
														<trackindex>1</trackindex>
														<clipindex>21</clipindex>
													</link>
													<link>
														<linkclipref>Raw Scene Matthew Duepner Printing86</linkclipref>
														<mediatype>audio</mediatype>
														<trackindex>1</trackindex>
														<clipindex>21</clipindex>
														<groupindex>1</groupindex>
													</link>
													<link>
														<linkclipref>Raw Scene Matthew Duepner Printing87</linkclipref>
														<mediatype>audio</mediatype>
														<trackindex>2</trackindex>
														<clipindex>21</clipindex>
														<groupindex>1</groupindex>
													</link>
													<fielddominance>none</fielddominance>
													<itemhistory>
														<uuid>63536572-DE85-453E-A0EB-14FC12E9A47A</uuid>
													</itemhistory>
												</clipitem>
												<clipitem id="Raw Scene Matthew Duepner Printing88">
													<name>Raw Scene Matthew Duepner Printing</name>
													<duration>28553</duration>
													<rate>
														<ntsc>TRUE</ntsc>
														<timebase>24</timebase>
													</rate>
													<in>17176</in>
													<out>17239</out>
													<start>2483</start>
													<end>2546</end>
													<pixelaspectratio>Square</pixelaspectratio>
													<anamorphic>FALSE</anamorphic>
													<alphatype>black</alphatype>
													<masterclipid>Raw Scene Matthew Duepner Printing72</masterclipid>
													<logginginfo>
														<scene/>
														<shottake/>
														<lognote/>
														<good>FALSE</good>
													</logginginfo>
													<labels>
														<label2/>
													</labels>
													<comments>
														<mastercomment1/>
														<mastercomment2/>
														<mastercomment3/>
														<mastercomment4/>
													</comments>
													<file id="YIN_2013-05-28_LG-6 "/>
													<sourcetrack>
														<mediatype>video</mediatype>
													</sourcetrack>
													<link>
														<linkclipref>Raw Scene Matthew Duepner Printing88</linkclipref>
														<mediatype>video</mediatype>
														<trackindex>1</trackindex>
														<clipindex>22</clipindex>
													</link>
													<link>
														<linkclipref>Raw Scene Matthew Duepner Printing89</linkclipref>
														<mediatype>audio</mediatype>
														<trackindex>1</trackindex>
														<clipindex>22</clipindex>
														<groupindex>1</groupindex>
													</link>
													<link>
														<linkclipref>Raw Scene Matthew Duepner Printing90</linkclipref>
														<mediatype>audio</mediatype>
														<trackindex>2</trackindex>
														<clipindex>22</clipindex>
														<groupindex>1</groupindex>
													</link>
													<fielddominance>none</fielddominance>
													<itemhistory>
														<uuid>3B3C10FC-DDC9-4FED-A347-3BAA21D10493</uuid>
													</itemhistory>
												</clipitem>
												<clipitem id="Raw Scene Matthew Duepner Printing91">
													<name>Raw Scene Matthew Duepner Printing</name>
													<duration>28553</duration>
													<rate>
														<ntsc>TRUE</ntsc>
														<timebase>24</timebase>
													</rate>
													<in>22417</in>
													<out>22543</out>
													<start>2546</start>
													<end>2672</end>
													<pixelaspectratio>Square</pixelaspectratio>
													<anamorphic>FALSE</anamorphic>
													<alphatype>black</alphatype>
													<masterclipid>Raw Scene Matthew Duepner Printing72</masterclipid>
													<logginginfo>
														<scene/>
														<shottake/>
														<lognote/>
														<good>FALSE</good>
													</logginginfo>
													<labels>
														<label2/>
													</labels>
													<comments>
														<mastercomment1/>
														<mastercomment2/>
														<mastercomment3/>
														<mastercomment4/>
													</comments>
													<file id="YIN_2013-05-28_LG-6 "/>
													<sourcetrack>
														<mediatype>video</mediatype>
													</sourcetrack>
													<link>
														<linkclipref>Raw Scene Matthew Duepner Printing91</linkclipref>
														<mediatype>video</mediatype>
														<trackindex>1</trackindex>
														<clipindex>23</clipindex>
													</link>
													<link>
														<linkclipref>Raw Scene Matthew Duepner Printing92</linkclipref>
														<mediatype>audio</mediatype>
														<trackindex>1</trackindex>
														<clipindex>23</clipindex>
														<groupindex>1</groupindex>
													</link>
													<link>
														<linkclipref>Raw Scene Matthew Duepner Printing93</linkclipref>
														<mediatype>audio</mediatype>
														<trackindex>2</trackindex>
														<clipindex>23</clipindex>
														<groupindex>1</groupindex>
													</link>
													<fielddominance>none</fielddominance>
													<itemhistory>
														<uuid>0C3E3728-E904-4A5C-ADE3-B51E4A2A94E9</uuid>
													</itemhistory>
												</clipitem>
												<clipitem id="Raw Scene Matthew Duepner Printing94">
													<name>Raw Scene Matthew Duepner Printing</name>
													<duration>28553</duration>
													<rate>
														<ntsc>TRUE</ntsc>
														<timebase>24</timebase>
													</rate>
													<in>22831</in>
													<out>22878</out>
													<start>2672</start>
													<end>2719</end>
													<pixelaspectratio>Square</pixelaspectratio>
													<anamorphic>FALSE</anamorphic>
													<alphatype>black</alphatype>
													<masterclipid>Raw Scene Matthew Duepner Printing72</masterclipid>
													<logginginfo>
														<scene/>
														<shottake/>
														<lognote/>
														<good>FALSE</good>
													</logginginfo>
													<labels>
														<label2/>
													</labels>
													<comments>
														<mastercomment1/>
														<mastercomment2/>
														<mastercomment3/>
														<mastercomment4/>
													</comments>
													<file id="YIN_2013-05-28_LG-6 "/>
													<sourcetrack>
														<mediatype>video</mediatype>
													</sourcetrack>
													<link>
														<linkclipref>Raw Scene Matthew Duepner Printing94</linkclipref>
														<mediatype>video</mediatype>
														<trackindex>1</trackindex>
														<clipindex>24</clipindex>
													</link>
													<link>
														<linkclipref>Raw Scene Matthew Duepner Printing95</linkclipref>
														<mediatype>audio</mediatype>
														<trackindex>1</trackindex>
														<clipindex>24</clipindex>
														<groupindex>1</groupindex>
													</link>
													<link>
														<linkclipref>Raw Scene Matthew Duepner Printing96</linkclipref>
														<mediatype>audio</mediatype>
														<trackindex>2</trackindex>
														<clipindex>24</clipindex>
														<groupindex>1</groupindex>
													</link>
													<fielddominance>none</fielddominance>
													<itemhistory>
														<uuid>4DB8E80C-55E6-4123-9725-4E336118E4EE</uuid>
													</itemhistory>
												</clipitem>
												<clipitem id="Raw Scene Matthew Duepner Printing97">
													<name>Raw Scene Matthew Duepner Printing</name>
													<duration>28553</duration>
													<rate>
														<ntsc>TRUE</ntsc>
														<timebase>24</timebase>
													</rate>
													<in>23483</in>
													<out>23542</out>
													<start>2719</start>
													<end>2778</end>
													<pixelaspectratio>Square</pixelaspectratio>
													<anamorphic>FALSE</anamorphic>
													<alphatype>black</alphatype>
													<masterclipid>Raw Scene Matthew Duepner Printing72</masterclipid>
													<logginginfo>
														<scene/>
														<shottake/>
														<lognote/>
														<good>FALSE</good>
													</logginginfo>
													<labels>
														<label2/>
													</labels>
													<comments>
														<mastercomment1/>
														<mastercomment2/>
														<mastercomment3/>
														<mastercomment4/>
													</comments>
													<file id="YIN_2013-05-28_LG-6 "/>
													<sourcetrack>
														<mediatype>video</mediatype>
													</sourcetrack>
													<link>
														<linkclipref>Raw Scene Matthew Duepner Printing97</linkclipref>
														<mediatype>video</mediatype>
														<trackindex>1</trackindex>
														<clipindex>25</clipindex>
													</link>
													<link>
														<linkclipref>Raw Scene Matthew Duepner Printing98</linkclipref>
														<mediatype>audio</mediatype>
														<trackindex>1</trackindex>
														<clipindex>25</clipindex>
														<groupindex>1</groupindex>
													</link>
													<link>
														<linkclipref>Raw Scene Matthew Duepner Printing99</linkclipref>
														<mediatype>audio</mediatype>
														<trackindex>2</trackindex>
														<clipindex>25</clipindex>
														<groupindex>1</groupindex>
													</link>
													<fielddominance>none</fielddominance>
													<itemhistory>
														<uuid>EF844D44-D026-4ED8-A2D4-3F0F3EB77AD4</uuid>
													</itemhistory>
												</clipitem>
												<clipitem id="Raw Scene Matthew Duepner Printing100">
													<name>Raw Scene Matthew Duepner Printing</name>
													<duration>28553</duration>
													<rate>
														<ntsc>TRUE</ntsc>
														<timebase>24</timebase>
													</rate>
													<in>23633</in>
													<out>23762</out>
													<start>2778</start>
													<end>2907</end>
													<pixelaspectratio>Square</pixelaspectratio>
													<anamorphic>FALSE</anamorphic>
													<alphatype>black</alphatype>
													<masterclipid>Raw Scene Matthew Duepner Printing72</masterclipid>
													<logginginfo>
														<scene/>
														<shottake/>
														<lognote/>
														<good>FALSE</good>
													</logginginfo>
													<labels>
														<label2/>
													</labels>
													<comments>
														<mastercomment1/>
														<mastercomment2/>
														<mastercomment3/>
														<mastercomment4/>
													</comments>
													<file id="YIN_2013-05-28_LG-6 "/>
													<sourcetrack>
														<mediatype>video</mediatype>
													</sourcetrack>
													<link>
														<linkclipref>Raw Scene Matthew Duepner Printing100</linkclipref>
														<mediatype>video</mediatype>
														<trackindex>1</trackindex>
														<clipindex>26</clipindex>
													</link>
													<link>
														<linkclipref>Raw Scene Matthew Duepner Printing101</linkclipref>
														<mediatype>audio</mediatype>
														<trackindex>1</trackindex>
														<clipindex>26</clipindex>
														<groupindex>1</groupindex>
													</link>
													<link>
														<linkclipref>Raw Scene Matthew Duepner Printing102</linkclipref>
														<mediatype>audio</mediatype>
														<trackindex>2</trackindex>
														<clipindex>26</clipindex>
														<groupindex>1</groupindex>
													</link>
													<fielddominance>none</fielddominance>
													<itemhistory>
														<uuid>90069C11-0E0A-46DA-81C0-0BBB7C56244A</uuid>
													</itemhistory>
												</clipitem>
												<clipitem id="Raw Scene Matthew Duepner Printing103">
													<name>Raw Scene Matthew Duepner Printing</name>
													<duration>28553</duration>
													<rate>
														<ntsc>TRUE</ntsc>
														<timebase>24</timebase>
													</rate>
													<in>24554</in>
													<out>24706</out>
													<start>2907</start>
													<end>3059</end>
													<pixelaspectratio>Square</pixelaspectratio>
													<anamorphic>FALSE</anamorphic>
													<alphatype>black</alphatype>
													<masterclipid>Raw Scene Matthew Duepner Printing72</masterclipid>
													<logginginfo>
														<scene/>
														<shottake/>
														<lognote/>
														<good>FALSE</good>
													</logginginfo>
													<labels>
														<label2/>
													</labels>
													<comments>
														<mastercomment1/>
														<mastercomment2/>
														<mastercomment3/>
														<mastercomment4/>
													</comments>
													<file id="YIN_2013-05-28_LG-6 "/>
													<sourcetrack>
														<mediatype>video</mediatype>
													</sourcetrack>
													<link>
														<linkclipref>Raw Scene Matthew Duepner Printing103</linkclipref>
														<mediatype>video</mediatype>
														<trackindex>1</trackindex>
														<clipindex>27</clipindex>
													</link>
													<link>
														<linkclipref>Raw Scene Matthew Duepner Printing104</linkclipref>
														<mediatype>audio</mediatype>
														<trackindex>1</trackindex>
														<clipindex>27</clipindex>
														<groupindex>1</groupindex>
													</link>
													<link>
														<linkclipref>Raw Scene Matthew Duepner Printing105</linkclipref>
														<mediatype>audio</mediatype>
														<trackindex>2</trackindex>
														<clipindex>27</clipindex>
														<groupindex>1</groupindex>
													</link>
													<fielddominance>none</fielddominance>
													<itemhistory>
														<uuid>4797F7E4-2EEF-48AB-930F-EE37029C94AC</uuid>
													</itemhistory>
												</clipitem>
												<clipitem id="Raw Scene Matthew Duepner Printing106">
													<name>Raw Scene Matthew Duepner Printing</name>
													<duration>28553</duration>
													<rate>
														<ntsc>TRUE</ntsc>
														<timebase>24</timebase>
													</rate>
													<in>27525</in>
													<out>27797</out>
													<start>3059</start>
													<end>3331</end>
													<pixelaspectratio>Square</pixelaspectratio>
													<anamorphic>FALSE</anamorphic>
													<alphatype>black</alphatype>
													<masterclipid>Raw Scene Matthew Duepner Printing72</masterclipid>
													<logginginfo>
														<scene/>
														<shottake/>
														<lognote/>
														<good>FALSE</good>
													</logginginfo>
													<labels>
														<label2/>
													</labels>
													<comments>
														<mastercomment1/>
														<mastercomment2/>
														<mastercomment3/>
														<mastercomment4/>
													</comments>
													<file id="YIN_2013-05-28_LG-6 "/>
													<sourcetrack>
														<mediatype>video</mediatype>
													</sourcetrack>
													<link>
														<linkclipref>Raw Scene Matthew Duepner Printing106</linkclipref>
														<mediatype>video</mediatype>
														<trackindex>1</trackindex>
														<clipindex>28</clipindex>
													</link>
													<link>
														<linkclipref>Raw Scene Matthew Duepner Printing107</linkclipref>
														<mediatype>audio</mediatype>
														<trackindex>1</trackindex>
														<clipindex>28</clipindex>
														<groupindex>1</groupindex>
													</link>
													<link>
														<linkclipref>Raw Scene Matthew Duepner Printing108</linkclipref>
														<mediatype>audio</mediatype>
														<trackindex>2</trackindex>
														<clipindex>28</clipindex>
														<groupindex>1</groupindex>
													</link>
													<fielddominance>none</fielddominance>
													<itemhistory>
														<uuid>ADADDC0D-6B1C-4702-BE8E-F40B0887ED75</uuid>
													</itemhistory>
												</clipitem>
												<clipitem id="Raw Scene Matthew Duepner Printing109">
													<name>Raw Scene Matthew Duepner Printing</name>
													<duration>28553</duration>
													<rate>
														<ntsc>TRUE</ntsc>
														<timebase>24</timebase>
													</rate>
													<in>28313</in>
													<out>28455</out>
													<start>3331</start>
													<end>3473</end>
													<pixelaspectratio>Square</pixelaspectratio>
													<anamorphic>FALSE</anamorphic>
													<alphatype>black</alphatype>
													<masterclipid>Raw Scene Matthew Duepner Printing72</masterclipid>
													<logginginfo>
														<scene/>
														<shottake/>
														<lognote/>
														<good>FALSE</good>
													</logginginfo>
													<labels>
														<label2/>
													</labels>
													<comments>
														<mastercomment1/>
														<mastercomment2/>
														<mastercomment3/>
														<mastercomment4/>
													</comments>
													<file id="YIN_2013-05-28_LG-6 "/>
													<sourcetrack>
														<mediatype>video</mediatype>
													</sourcetrack>
													<link>
														<linkclipref>Raw Scene Matthew Duepner Printing109</linkclipref>
														<mediatype>video</mediatype>
														<trackindex>1</trackindex>
														<clipindex>29</clipindex>
													</link>
													<link>
														<linkclipref>Raw Scene Matthew Duepner Printing110</linkclipref>
														<mediatype>audio</mediatype>
														<trackindex>1</trackindex>
														<clipindex>29</clipindex>
														<groupindex>1</groupindex>
													</link>
													<link>
														<linkclipref>Raw Scene Matthew Duepner Printing111</linkclipref>
														<mediatype>audio</mediatype>
														<trackindex>2</trackindex>
														<clipindex>29</clipindex>
														<groupindex>1</groupindex>
													</link>
													<fielddominance>none</fielddominance>
													<itemhistory>
														<uuid>436AF9B8-4BF9-4350-96E9-E8056E002474</uuid>
													</itemhistory>
												</clipitem>
												<clipitem id="Raw Scene Matthew Duepner Walkabout238">
													<name>Raw Scene Matthew Duepner Walkabout</name>
													<duration>38484</duration>
													<rate>
														<ntsc>TRUE</ntsc>
														<timebase>24</timebase>
													</rate>
													<in>5133</in>
													<out>5266</out>
													<start>3473</start>
													<end>3606</end>
													<pixelaspectratio>Square</pixelaspectratio>
													<anamorphic>FALSE</anamorphic>
													<alphatype>black</alphatype>
													<masterclipid>Raw Scene Matthew Duepner Walkabout234</masterclipid>
													<logginginfo>
														<scene/>
														<shottake/>
														<lognote/>
														<good>FALSE</good>
													</logginginfo>
													<labels>
														<label2/>
													</labels>
													<comments>
														<mastercomment1/>
														<mastercomment2/>
														<mastercomment3/>
														<mastercomment4/>
													</comments>
													<file id="YIN_2013-05-28_LG-4 "/>
													<sourcetrack>
														<mediatype>video</mediatype>
													</sourcetrack>
													<fielddominance>none</fielddominance>
													<itemhistory>
														<uuid>7A3F7142-3B1F-480D-986A-271300EC39A3</uuid>
													</itemhistory>
												</clipitem>
												<clipitem id="Raw Scene Matthew Duepner Walkabout239">
													<name>Raw Scene Matthew Duepner Walkabout</name>
													<duration>38484</duration>
													<rate>
														<ntsc>TRUE</ntsc>
														<timebase>24</timebase>
													</rate>
													<in>4745</in>
													<out>5123</out>
													<start>3606</start>
													<end>3984</end>
													<pixelaspectratio>Square</pixelaspectratio>
													<anamorphic>FALSE</anamorphic>
													<alphatype>black</alphatype>
													<masterclipid>Raw Scene Matthew Duepner Walkabout234</masterclipid>
													<logginginfo>
														<scene/>
														<shottake/>
														<lognote/>
														<good>FALSE</good>
													</logginginfo>
													<labels>
														<label2/>
													</labels>
													<comments>
														<mastercomment1/>
														<mastercomment2/>
														<mastercomment3/>
														<mastercomment4/>
													</comments>
													<file id="YIN_2013-05-28_LG-4 "/>
													<sourcetrack>
														<mediatype>video</mediatype>
													</sourcetrack>
													<link>
														<linkclipref>Raw Scene Matthew Duepner Walkabout239</linkclipref>
														<mediatype>video</mediatype>
														<trackindex>1</trackindex>
														<clipindex>31</clipindex>
													</link>
													<link>
														<linkclipref>Raw Scene Matthew Duepner Walkabout240</linkclipref>
														<mediatype>audio</mediatype>
														<trackindex>1</trackindex>
														<clipindex>31</clipindex>
														<groupindex>1</groupindex>
													</link>
													<link>
														<linkclipref>Raw Scene Matthew Duepner Walkabout241</linkclipref>
														<mediatype>audio</mediatype>
														<trackindex>2</trackindex>
														<clipindex>31</clipindex>
														<groupindex>1</groupindex>
													</link>
													<fielddominance>none</fielddominance>
													<itemhistory>
														<uuid>FC4209BE-970A-425B-8BFF-B592645C2EF4</uuid>
													</itemhistory>
												</clipitem>
												<clipitem id="Raw Scene Matthew Duepner Walkabout242">
													<name>Raw Scene Matthew Duepner Walkabout</name>
													<duration>38484</duration>
													<rate>
														<ntsc>TRUE</ntsc>
														<timebase>24</timebase>
													</rate>
													<in>6473</in>
													<out>6911</out>
													<start>3984</start>
													<end>4422</end>
													<pixelaspectratio>Square</pixelaspectratio>
													<anamorphic>FALSE</anamorphic>
													<alphatype>black</alphatype>
													<masterclipid>Raw Scene Matthew Duepner Walkabout234</masterclipid>
													<logginginfo>
														<scene/>
														<shottake/>
														<lognote/>
														<good>FALSE</good>
													</logginginfo>
													<labels>
														<label2/>
													</labels>
													<comments>
														<mastercomment1/>
														<mastercomment2/>
														<mastercomment3/>
														<mastercomment4/>
													</comments>
													<file id="YIN_2013-05-28_LG-4 "/>
													<sourcetrack>
														<mediatype>video</mediatype>
													</sourcetrack>
													<link>
														<linkclipref>Raw Scene Matthew Duepner Walkabout242</linkclipref>
														<mediatype>video</mediatype>
														<trackindex>1</trackindex>
														<clipindex>32</clipindex>
													</link>
													<link>
														<linkclipref>Raw Scene Matthew Duepner Walkabout243</linkclipref>
														<mediatype>audio</mediatype>
														<trackindex>1</trackindex>
														<clipindex>32</clipindex>
														<groupindex>1</groupindex>
													</link>
													<link>
														<linkclipref>Raw Scene Matthew Duepner Walkabout244</linkclipref>
														<mediatype>audio</mediatype>
														<trackindex>2</trackindex>
														<clipindex>32</clipindex>
														<groupindex>1</groupindex>
													</link>
													<fielddominance>none</fielddominance>
													<itemhistory>
														<uuid>2301B8B4-DCEE-4752-A7FC-7A11789DC02C</uuid>
													</itemhistory>
												</clipitem>
												<clipitem id="Raw Scene Matthew Duepner Walkabout245">
													<name>Raw Scene Matthew Duepner Walkabout</name>
													<duration>38484</duration>
													<rate>
														<ntsc>TRUE</ntsc>
														<timebase>24</timebase>
													</rate>
													<in>7070</in>
													<out>7250</out>
													<start>4422</start>
													<end>4602</end>
													<pixelaspectratio>Square</pixelaspectratio>
													<anamorphic>FALSE</anamorphic>
													<alphatype>black</alphatype>
													<masterclipid>Raw Scene Matthew Duepner Walkabout234</masterclipid>
													<logginginfo>
														<scene/>
														<shottake/>
														<lognote/>
														<good>FALSE</good>
													</logginginfo>
													<labels>
														<label2/>
													</labels>
													<comments>
														<mastercomment1/>
														<mastercomment2/>
														<mastercomment3/>
														<mastercomment4/>
													</comments>
													<file id="YIN_2013-05-28_LG-4 "/>
													<sourcetrack>
														<mediatype>video</mediatype>
													</sourcetrack>
													<link>
														<linkclipref>Raw Scene Matthew Duepner Walkabout245</linkclipref>
														<mediatype>video</mediatype>
														<trackindex>1</trackindex>
														<clipindex>33</clipindex>
													</link>
													<link>
														<linkclipref>Raw Scene Matthew Duepner Walkabout246</linkclipref>
														<mediatype>audio</mediatype>
														<trackindex>1</trackindex>
														<clipindex>33</clipindex>
														<groupindex>1</groupindex>
													</link>
													<link>
														<linkclipref>Raw Scene Matthew Duepner Walkabout247</linkclipref>
														<mediatype>audio</mediatype>
														<trackindex>2</trackindex>
														<clipindex>33</clipindex>
														<groupindex>1</groupindex>
													</link>
													<fielddominance>none</fielddominance>
													<itemhistory>
														<uuid>A5F388AE-85F5-427A-B1DC-14F9BC383CB7</uuid>
													</itemhistory>
												</clipitem>
												<clipitem id="Raw Scene Matthew Duepner Walkabout248">
													<name>Raw Scene Matthew Duepner Walkabout</name>
													<duration>38484</duration>
													<rate>
														<ntsc>TRUE</ntsc>
														<timebase>24</timebase>
													</rate>
													<in>10560</in>
													<out>10599</out>
													<start>4602</start>
													<end>4641</end>
													<pixelaspectratio>Square</pixelaspectratio>
													<anamorphic>FALSE</anamorphic>
													<alphatype>black</alphatype>
													<masterclipid>Raw Scene Matthew Duepner Walkabout234</masterclipid>
													<logginginfo>
														<scene/>
														<shottake/>
														<lognote/>
														<good>FALSE</good>
													</logginginfo>
													<labels>
														<label2/>
													</labels>
													<comments>
														<mastercomment1/>
														<mastercomment2/>
														<mastercomment3/>
														<mastercomment4/>
													</comments>
													<file id="YIN_2013-05-28_LG-4 "/>
													<sourcetrack>
														<mediatype>video</mediatype>
													</sourcetrack>
													<link>
														<linkclipref>Raw Scene Matthew Duepner Walkabout248</linkclipref>
														<mediatype>video</mediatype>
														<trackindex>1</trackindex>
														<clipindex>34</clipindex>
													</link>
													<link>
														<linkclipref>Raw Scene Matthew Duepner Walkabout249</linkclipref>
														<mediatype>audio</mediatype>
														<trackindex>1</trackindex>
														<clipindex>34</clipindex>
														<groupindex>1</groupindex>
													</link>
													<link>
														<linkclipref>Raw Scene Matthew Duepner Walkabout250</linkclipref>
														<mediatype>audio</mediatype>
														<trackindex>2</trackindex>
														<clipindex>34</clipindex>
														<groupindex>1</groupindex>
													</link>
													<fielddominance>none</fielddominance>
													<itemhistory>
														<uuid>D918F2FE-5A22-48E6-9FF6-9B1BB9C02B92</uuid>
													</itemhistory>
												</clipitem>
												<clipitem id="Raw Scene Matthew Duepner Walkabout251">
													<name>Raw Scene Matthew Duepner Walkabout</name>
													<duration>38484</duration>
													<rate>
														<ntsc>TRUE</ntsc>
														<timebase>24</timebase>
													</rate>
													<in>11332</in>
													<out>11408</out>
													<start>4641</start>
													<end>4717</end>
													<pixelaspectratio>Square</pixelaspectratio>
													<anamorphic>FALSE</anamorphic>
													<alphatype>black</alphatype>
													<masterclipid>Raw Scene Matthew Duepner Walkabout234</masterclipid>
													<logginginfo>
														<scene/>
														<shottake/>
														<lognote/>
														<good>FALSE</good>
													</logginginfo>
													<labels>
														<label2/>
													</labels>
													<comments>
														<mastercomment1/>
														<mastercomment2/>
														<mastercomment3/>
														<mastercomment4/>
													</comments>
													<file id="YIN_2013-05-28_LG-4 "/>
													<sourcetrack>
														<mediatype>video</mediatype>
													</sourcetrack>
													<link>
														<linkclipref>Raw Scene Matthew Duepner Walkabout251</linkclipref>
														<mediatype>video</mediatype>
														<trackindex>1</trackindex>
														<clipindex>35</clipindex>
													</link>
													<link>
														<linkclipref>Raw Scene Matthew Duepner Walkabout252</linkclipref>
														<mediatype>audio</mediatype>
														<trackindex>1</trackindex>
														<clipindex>35</clipindex>
														<groupindex>1</groupindex>
													</link>
													<link>
														<linkclipref>Raw Scene Matthew Duepner Walkabout253</linkclipref>
														<mediatype>audio</mediatype>
														<trackindex>2</trackindex>
														<clipindex>35</clipindex>
														<groupindex>1</groupindex>
													</link>
													<fielddominance>none</fielddominance>
													<itemhistory>
														<uuid>0287E382-C04E-4C7F-B300-113369EA2F09</uuid>
													</itemhistory>
												</clipitem>
												<clipitem id="Raw Scene Matthew Duepner Walkabout254">
													<name>Raw Scene Matthew Duepner Walkabout</name>
													<duration>38484</duration>
													<rate>
														<ntsc>TRUE</ntsc>
														<timebase>24</timebase>
													</rate>
													<in>11540</in>
													<out>11595</out>
													<start>4717</start>
													<end>4772</end>
													<pixelaspectratio>Square</pixelaspectratio>
													<anamorphic>FALSE</anamorphic>
													<alphatype>black</alphatype>
													<masterclipid>Raw Scene Matthew Duepner Walkabout234</masterclipid>
													<logginginfo>
														<scene/>
														<shottake/>
														<lognote/>
														<good>FALSE</good>
													</logginginfo>
													<labels>
														<label2/>
													</labels>
													<comments>
														<mastercomment1/>
														<mastercomment2/>
														<mastercomment3/>
														<mastercomment4/>
													</comments>
													<file id="YIN_2013-05-28_LG-4 "/>
													<sourcetrack>
														<mediatype>video</mediatype>
													</sourcetrack>
													<link>
														<linkclipref>Raw Scene Matthew Duepner Walkabout254</linkclipref>
														<mediatype>video</mediatype>
														<trackindex>1</trackindex>
														<clipindex>36</clipindex>
													</link>
													<link>
														<linkclipref>Raw Scene Matthew Duepner Walkabout255</linkclipref>
														<mediatype>audio</mediatype>
														<trackindex>1</trackindex>
														<clipindex>36</clipindex>
														<groupindex>1</groupindex>
													</link>
													<link>
														<linkclipref>Raw Scene Matthew Duepner Walkabout256</linkclipref>
														<mediatype>audio</mediatype>
														<trackindex>2</trackindex>
														<clipindex>36</clipindex>
														<groupindex>1</groupindex>
													</link>
													<fielddominance>none</fielddominance>
													<itemhistory>
														<uuid>3B14BE14-F6B8-42A4-9B2E-1D681F4DBD27</uuid>
													</itemhistory>
												</clipitem>
												<clipitem id="Raw Scene Matthew Duepner Walkabout257">
													<name>Raw Scene Matthew Duepner Walkabout</name>
													<duration>38484</duration>
													<rate>
														<ntsc>TRUE</ntsc>
														<timebase>24</timebase>
													</rate>
													<in>13339</in>
													<out>13489</out>
													<start>4772</start>
													<end>4922</end>
													<pixelaspectratio>Square</pixelaspectratio>
													<anamorphic>FALSE</anamorphic>
													<alphatype>black</alphatype>
													<masterclipid>Raw Scene Matthew Duepner Walkabout234</masterclipid>
													<logginginfo>
														<scene/>
														<shottake/>
														<lognote/>
														<good>FALSE</good>
													</logginginfo>
													<labels>
														<label2/>
													</labels>
													<comments>
														<mastercomment1/>
														<mastercomment2/>
														<mastercomment3/>
														<mastercomment4/>
													</comments>
													<file id="YIN_2013-05-28_LG-4 "/>
													<sourcetrack>
														<mediatype>video</mediatype>
													</sourcetrack>
													<link>
														<linkclipref>Raw Scene Matthew Duepner Walkabout257</linkclipref>
														<mediatype>video</mediatype>
														<trackindex>1</trackindex>
														<clipindex>37</clipindex>
													</link>
													<link>
														<linkclipref>Raw Scene Matthew Duepner Walkabout258</linkclipref>
														<mediatype>audio</mediatype>
														<trackindex>1</trackindex>
														<clipindex>37</clipindex>
														<groupindex>1</groupindex>
													</link>
													<link>
														<linkclipref>Raw Scene Matthew Duepner Walkabout259</linkclipref>
														<mediatype>audio</mediatype>
														<trackindex>2</trackindex>
														<clipindex>37</clipindex>
														<groupindex>1</groupindex>
													</link>
													<fielddominance>none</fielddominance>
													<itemhistory>
														<uuid>2C2B9390-7FF9-437C-A2C2-6FD3CDD15D68</uuid>
													</itemhistory>
												</clipitem>
												<clipitem id="Raw Scene Matthew Duepner Walkabout260">
													<name>Raw Scene Matthew Duepner Walkabout</name>
													<duration>38484</duration>
													<rate>
														<ntsc>TRUE</ntsc>
														<timebase>24</timebase>
													</rate>
													<in>13825</in>
													<out>13967</out>
													<start>4922</start>
													<end>5064</end>
													<pixelaspectratio>Square</pixelaspectratio>
													<anamorphic>FALSE</anamorphic>
													<alphatype>black</alphatype>
													<masterclipid>Raw Scene Matthew Duepner Walkabout234</masterclipid>
													<logginginfo>
														<scene/>
														<shottake/>
														<lognote/>
														<good>FALSE</good>
													</logginginfo>
													<labels>
														<label2/>
													</labels>
													<comments>
														<mastercomment1/>
														<mastercomment2/>
														<mastercomment3/>
														<mastercomment4/>
													</comments>
													<file id="YIN_2013-05-28_LG-4 "/>
													<sourcetrack>
														<mediatype>video</mediatype>
													</sourcetrack>
													<link>
														<linkclipref>Raw Scene Matthew Duepner Walkabout260</linkclipref>
														<mediatype>video</mediatype>
														<trackindex>1</trackindex>
														<clipindex>38</clipindex>
													</link>
													<link>
														<linkclipref>Raw Scene Matthew Duepner Walkabout261</linkclipref>
														<mediatype>audio</mediatype>
														<trackindex>1</trackindex>
														<clipindex>38</clipindex>
														<groupindex>1</groupindex>
													</link>
													<link>
														<linkclipref>Raw Scene Matthew Duepner Walkabout262</linkclipref>
														<mediatype>audio</mediatype>
														<trackindex>2</trackindex>
														<clipindex>38</clipindex>
														<groupindex>1</groupindex>
													</link>
													<fielddominance>none</fielddominance>
													<itemhistory>
														<uuid>43BF9D01-8F67-4A05-A649-2F3CCAC6D6FE</uuid>
													</itemhistory>
												</clipitem>
												<clipitem id="Raw Scene Matthew Duepner Walkabout263">
													<name>Raw Scene Matthew Duepner Walkabout</name>
													<duration>38484</duration>
													<rate>
														<ntsc>TRUE</ntsc>
														<timebase>24</timebase>
													</rate>
													<in>14191</in>
													<out>14629</out>
													<start>5064</start>
													<end>5502</end>
													<pixelaspectratio>Square</pixelaspectratio>
													<anamorphic>FALSE</anamorphic>
													<alphatype>black</alphatype>
													<masterclipid>Raw Scene Matthew Duepner Walkabout234</masterclipid>
													<logginginfo>
														<scene/>
														<shottake/>
														<lognote/>
														<good>FALSE</good>
													</logginginfo>
													<labels>
														<label2/>
													</labels>
													<comments>
														<mastercomment1/>
														<mastercomment2/>
														<mastercomment3/>
														<mastercomment4/>
													</comments>
													<file id="YIN_2013-05-28_LG-4 "/>
													<sourcetrack>
														<mediatype>video</mediatype>
													</sourcetrack>
													<link>
														<linkclipref>Raw Scene Matthew Duepner Walkabout263</linkclipref>
														<mediatype>video</mediatype>
														<trackindex>1</trackindex>
														<clipindex>39</clipindex>
													</link>
													<link>
														<linkclipref>Raw Scene Matthew Duepner Walkabout264</linkclipref>
														<mediatype>audio</mediatype>
														<trackindex>1</trackindex>
														<clipindex>39</clipindex>
														<groupindex>1</groupindex>
													</link>
													<link>
														<linkclipref>Raw Scene Matthew Duepner Walkabout265</linkclipref>
														<mediatype>audio</mediatype>
														<trackindex>2</trackindex>
														<clipindex>39</clipindex>
														<groupindex>1</groupindex>
													</link>
													<fielddominance>none</fielddominance>
													<itemhistory>
														<uuid>F1DBF3B4-08AB-48B8-B1F6-D8AC91D550F4</uuid>
													</itemhistory>
												</clipitem>
												<clipitem id="Raw Scene Matthew Duepner Walkabout266">
													<name>Raw Scene Matthew Duepner Walkabout</name>
													<duration>38484</duration>
													<rate>
														<ntsc>TRUE</ntsc>
														<timebase>24</timebase>
													</rate>
													<in>14910</in>
													<out>15123</out>
													<start>5502</start>
													<end>5715</end>
													<pixelaspectratio>Square</pixelaspectratio>
													<anamorphic>FALSE</anamorphic>
													<alphatype>black</alphatype>
													<masterclipid>Raw Scene Matthew Duepner Walkabout234</masterclipid>
													<logginginfo>
														<scene/>
														<shottake/>
														<lognote/>
														<good>FALSE</good>
													</logginginfo>
													<labels>
														<label2/>
													</labels>
													<comments>
														<mastercomment1/>
														<mastercomment2/>
														<mastercomment3/>
														<mastercomment4/>
													</comments>
													<file id="YIN_2013-05-28_LG-4 "/>
													<sourcetrack>
														<mediatype>video</mediatype>
													</sourcetrack>
													<link>
														<linkclipref>Raw Scene Matthew Duepner Walkabout266</linkclipref>
														<mediatype>video</mediatype>
														<trackindex>1</trackindex>
														<clipindex>40</clipindex>
													</link>
													<link>
														<linkclipref>Raw Scene Matthew Duepner Walkabout267</linkclipref>
														<mediatype>audio</mediatype>
														<trackindex>1</trackindex>
														<clipindex>40</clipindex>
														<groupindex>1</groupindex>
													</link>
													<link>
														<linkclipref>Raw Scene Matthew Duepner Walkabout268</linkclipref>
														<mediatype>audio</mediatype>
														<trackindex>2</trackindex>
														<clipindex>40</clipindex>
														<groupindex>1</groupindex>
													</link>
													<fielddominance>none</fielddominance>
													<itemhistory>
														<uuid>0F331541-9E9B-4A63-ABFE-10497A0C49F9</uuid>
													</itemhistory>
												</clipitem>
												<clipitem id="Raw Scene Matthew Duepner Walkabout269">
													<name>Raw Scene Matthew Duepner Walkabout</name>
													<duration>38484</duration>
													<rate>
														<ntsc>TRUE</ntsc>
														<timebase>24</timebase>
													</rate>
													<in>17326</in>
													<out>17746</out>
													<start>5715</start>
													<end>6135</end>
													<pixelaspectratio>Square</pixelaspectratio>
													<anamorphic>FALSE</anamorphic>
													<alphatype>black</alphatype>
													<masterclipid>Raw Scene Matthew Duepner Walkabout234</masterclipid>
													<logginginfo>
														<scene/>
														<shottake/>
														<lognote/>
														<good>FALSE</good>
													</logginginfo>
													<labels>
														<label2/>
													</labels>
													<comments>
														<mastercomment1/>
														<mastercomment2/>
														<mastercomment3/>
														<mastercomment4/>
													</comments>
													<file id="YIN_2013-05-28_LG-4 "/>
													<sourcetrack>
														<mediatype>video</mediatype>
													</sourcetrack>
													<link>
														<linkclipref>Raw Scene Matthew Duepner Walkabout269</linkclipref>
														<mediatype>video</mediatype>
														<trackindex>1</trackindex>
														<clipindex>41</clipindex>
													</link>
													<link>
														<linkclipref>Raw Scene Matthew Duepner Walkabout270</linkclipref>
														<mediatype>audio</mediatype>
														<trackindex>1</trackindex>
														<clipindex>41</clipindex>
														<groupindex>1</groupindex>
													</link>
													<link>
														<linkclipref>Raw Scene Matthew Duepner Walkabout271</linkclipref>
														<mediatype>audio</mediatype>
														<trackindex>2</trackindex>
														<clipindex>41</clipindex>
														<groupindex>1</groupindex>
													</link>
													<fielddominance>none</fielddominance>
													<itemhistory>
														<uuid>36FDA224-F4AC-4005-92A9-5FCAFC6EE433</uuid>
													</itemhistory>
												</clipitem>
												<clipitem id="Raw Scene Matthew Duepner Walkabout272">
													<name>Raw Scene Matthew Duepner Walkabout</name>
													<duration>38484</duration>
													<rate>
														<ntsc>TRUE</ntsc>
														<timebase>24</timebase>
													</rate>
													<in>18256</in>
													<out>18413</out>
													<start>6135</start>
													<end>6292</end>
													<pixelaspectratio>Square</pixelaspectratio>
													<anamorphic>FALSE</anamorphic>
													<alphatype>black</alphatype>
													<masterclipid>Raw Scene Matthew Duepner Walkabout234</masterclipid>
													<logginginfo>
														<scene/>
														<shottake/>
														<lognote/>
														<good>FALSE</good>
													</logginginfo>
													<labels>
														<label2/>
													</labels>
													<comments>
														<mastercomment1/>
														<mastercomment2/>
														<mastercomment3/>
														<mastercomment4/>
													</comments>
													<file id="YIN_2013-05-28_LG-4 "/>
													<sourcetrack>
														<mediatype>video</mediatype>
													</sourcetrack>
													<link>
														<linkclipref>Raw Scene Matthew Duepner Walkabout272</linkclipref>
														<mediatype>video</mediatype>
														<trackindex>1</trackindex>
														<clipindex>42</clipindex>
													</link>
													<link>
														<linkclipref>Raw Scene Matthew Duepner Walkabout273</linkclipref>
														<mediatype>audio</mediatype>
														<trackindex>1</trackindex>
														<clipindex>42</clipindex>
														<groupindex>1</groupindex>
													</link>
													<link>
														<linkclipref>Raw Scene Matthew Duepner Walkabout274</linkclipref>
														<mediatype>audio</mediatype>
														<trackindex>2</trackindex>
														<clipindex>42</clipindex>
														<groupindex>1</groupindex>
													</link>
													<fielddominance>none</fielddominance>
													<itemhistory>
														<uuid>D9B2A7BC-BBAD-4C5B-A155-741A35AC2095</uuid>
													</itemhistory>
												</clipitem>
												<clipitem id="Raw Scene Matthew Duepner Walkabout275">
													<name>Raw Scene Matthew Duepner Walkabout</name>
													<duration>38484</duration>
													<rate>
														<ntsc>TRUE</ntsc>
														<timebase>24</timebase>
													</rate>
													<in>19758</in>
													<out>19953</out>
													<start>6292</start>
													<end>6487</end>
													<pixelaspectratio>Square</pixelaspectratio>
													<anamorphic>FALSE</anamorphic>
													<alphatype>black</alphatype>
													<masterclipid>Raw Scene Matthew Duepner Walkabout234</masterclipid>
													<logginginfo>
														<scene/>
														<shottake/>
														<lognote/>
														<good>FALSE</good>
													</logginginfo>
													<labels>
														<label2/>
													</labels>
													<comments>
														<mastercomment1/>
														<mastercomment2/>
														<mastercomment3/>
														<mastercomment4/>
													</comments>
													<file id="YIN_2013-05-28_LG-4 "/>
													<sourcetrack>
														<mediatype>video</mediatype>
													</sourcetrack>
													<link>
														<linkclipref>Raw Scene Matthew Duepner Walkabout275</linkclipref>
														<mediatype>video</mediatype>
														<trackindex>1</trackindex>
														<clipindex>43</clipindex>
													</link>
													<link>
														<linkclipref>Raw Scene Matthew Duepner Walkabout276</linkclipref>
														<mediatype>audio</mediatype>
														<trackindex>1</trackindex>
														<clipindex>43</clipindex>
														<groupindex>1</groupindex>
													</link>
													<link>
														<linkclipref>Raw Scene Matthew Duepner Walkabout277</linkclipref>
														<mediatype>audio</mediatype>
														<trackindex>2</trackindex>
														<clipindex>43</clipindex>
														<groupindex>1</groupindex>
													</link>
													<fielddominance>none</fielddominance>
													<itemhistory>
														<uuid>BFB45A60-9123-461E-8520-65343C86B13E</uuid>
													</itemhistory>
												</clipitem>
												<clipitem id="Raw Scene Matthew Duepner Walkabout278">
													<name>Raw Scene Matthew Duepner Walkabout</name>
													<duration>38484</duration>
													<rate>
														<ntsc>TRUE</ntsc>
														<timebase>24</timebase>
													</rate>
													<in>21572</in>
													<out>21660</out>
													<start>6487</start>
													<end>6575</end>
													<pixelaspectratio>Square</pixelaspectratio>
													<anamorphic>FALSE</anamorphic>
													<alphatype>black</alphatype>
													<masterclipid>Raw Scene Matthew Duepner Walkabout234</masterclipid>
													<logginginfo>
														<scene/>
														<shottake/>
														<lognote/>
														<good>FALSE</good>
													</logginginfo>
													<labels>
														<label2/>
													</labels>
													<comments>
														<mastercomment1/>
														<mastercomment2/>
														<mastercomment3/>
														<mastercomment4/>
													</comments>
													<file id="YIN_2013-05-28_LG-4 "/>
													<sourcetrack>
														<mediatype>video</mediatype>
													</sourcetrack>
													<link>
														<linkclipref>Raw Scene Matthew Duepner Walkabout278</linkclipref>
														<mediatype>video</mediatype>
														<trackindex>1</trackindex>
														<clipindex>44</clipindex>
													</link>
													<link>
														<linkclipref>Raw Scene Matthew Duepner Walkabout279</linkclipref>
														<mediatype>audio</mediatype>
														<trackindex>1</trackindex>
														<clipindex>44</clipindex>
														<groupindex>1</groupindex>
													</link>
													<link>
														<linkclipref>Raw Scene Matthew Duepner Walkabout280</linkclipref>
														<mediatype>audio</mediatype>
														<trackindex>2</trackindex>
														<clipindex>44</clipindex>
														<groupindex>1</groupindex>
													</link>
													<fielddominance>none</fielddominance>
													<itemhistory>
														<uuid>72511D07-8725-4560-8462-8E06CF581A46</uuid>
													</itemhistory>
												</clipitem>
												<clipitem id="Raw Scene Matthew Duepner Walkabout281">
													<name>Raw Scene Matthew Duepner Walkabout</name>
													<duration>38484</duration>
													<rate>
														<ntsc>TRUE</ntsc>
														<timebase>24</timebase>
													</rate>
													<in>22012</in>
													<out>22143</out>
													<start>6575</start>
													<end>6706</end>
													<pixelaspectratio>Square</pixelaspectratio>
													<anamorphic>FALSE</anamorphic>
													<alphatype>black</alphatype>
													<masterclipid>Raw Scene Matthew Duepner Walkabout234</masterclipid>
													<logginginfo>
														<scene/>
														<shottake/>
														<lognote/>
														<good>FALSE</good>
													</logginginfo>
													<labels>
														<label2/>
													</labels>
													<comments>
														<mastercomment1/>
														<mastercomment2/>
														<mastercomment3/>
														<mastercomment4/>
													</comments>
													<file id="YIN_2013-05-28_LG-4 "/>
													<sourcetrack>
														<mediatype>video</mediatype>
													</sourcetrack>
													<link>
														<linkclipref>Raw Scene Matthew Duepner Walkabout281</linkclipref>
														<mediatype>video</mediatype>
														<trackindex>1</trackindex>
														<clipindex>45</clipindex>
													</link>
													<link>
														<linkclipref>Raw Scene Matthew Duepner Walkabout282</linkclipref>
														<mediatype>audio</mediatype>
														<trackindex>1</trackindex>
														<clipindex>45</clipindex>
														<groupindex>1</groupindex>
													</link>
													<link>
														<linkclipref>Raw Scene Matthew Duepner Walkabout283</linkclipref>
														<mediatype>audio</mediatype>
														<trackindex>2</trackindex>
														<clipindex>45</clipindex>
														<groupindex>1</groupindex>
													</link>
													<fielddominance>none</fielddominance>
													<itemhistory>
														<uuid>2617DFD4-1217-4CBD-B4C5-107766B9E02D</uuid>
													</itemhistory>
												</clipitem>
												<clipitem id="Raw Scene Matthew Duepner Walkabout284">
													<name>Raw Scene Matthew Duepner Walkabout</name>
													<duration>38484</duration>
													<rate>
														<ntsc>TRUE</ntsc>
														<timebase>24</timebase>
													</rate>
													<in>23496</in>
													<out>23611</out>
													<start>6706</start>
													<end>6821</end>
													<pixelaspectratio>Square</pixelaspectratio>
													<anamorphic>FALSE</anamorphic>
													<alphatype>black</alphatype>
													<masterclipid>Raw Scene Matthew Duepner Walkabout234</masterclipid>
													<logginginfo>
														<scene/>
														<shottake/>
														<lognote/>
														<good>FALSE</good>
													</logginginfo>
													<labels>
														<label2/>
													</labels>
													<comments>
														<mastercomment1/>
														<mastercomment2/>
														<mastercomment3/>
														<mastercomment4/>
													</comments>
													<file id="YIN_2013-05-28_LG-4 "/>
													<sourcetrack>
														<mediatype>video</mediatype>
													</sourcetrack>
													<link>
														<linkclipref>Raw Scene Matthew Duepner Walkabout284</linkclipref>
														<mediatype>video</mediatype>
														<trackindex>1</trackindex>
														<clipindex>46</clipindex>
													</link>
													<link>
														<linkclipref>Raw Scene Matthew Duepner Walkabout285</linkclipref>
														<mediatype>audio</mediatype>
														<trackindex>1</trackindex>
														<clipindex>46</clipindex>
														<groupindex>1</groupindex>
													</link>
													<link>
														<linkclipref>Raw Scene Matthew Duepner Walkabout286</linkclipref>
														<mediatype>audio</mediatype>
														<trackindex>2</trackindex>
														<clipindex>46</clipindex>
														<groupindex>1</groupindex>
													</link>
													<fielddominance>none</fielddominance>
													<itemhistory>
														<uuid>CF1C85D7-28B3-41B5-A416-EF565AD4EFED</uuid>
													</itemhistory>
												</clipitem>
												<clipitem id="Raw Scene Matthew Duepner Walkabout287">
													<name>Raw Scene Matthew Duepner Walkabout</name>
													<duration>38484</duration>
													<rate>
														<ntsc>TRUE</ntsc>
														<timebase>24</timebase>
													</rate>
													<in>25130</in>
													<out>25241</out>
													<start>6821</start>
													<end>6932</end>
													<pixelaspectratio>Square</pixelaspectratio>
													<anamorphic>FALSE</anamorphic>
													<alphatype>black</alphatype>
													<masterclipid>Raw Scene Matthew Duepner Walkabout234</masterclipid>
													<logginginfo>
														<scene/>
														<shottake/>
														<lognote/>
														<good>FALSE</good>
													</logginginfo>
													<labels>
														<label2/>
													</labels>
													<comments>
														<mastercomment1/>
														<mastercomment2/>
														<mastercomment3/>
														<mastercomment4/>
													</comments>
													<file id="YIN_2013-05-28_LG-4 "/>
													<sourcetrack>
														<mediatype>video</mediatype>
													</sourcetrack>
													<link>
														<linkclipref>Raw Scene Matthew Duepner Walkabout287</linkclipref>
														<mediatype>video</mediatype>
														<trackindex>1</trackindex>
														<clipindex>47</clipindex>
													</link>
													<link>
														<linkclipref>Raw Scene Matthew Duepner Walkabout288</linkclipref>
														<mediatype>audio</mediatype>
														<trackindex>1</trackindex>
														<clipindex>47</clipindex>
														<groupindex>1</groupindex>
													</link>
													<link>
														<linkclipref>Raw Scene Matthew Duepner Walkabout289</linkclipref>
														<mediatype>audio</mediatype>
														<trackindex>2</trackindex>
														<clipindex>47</clipindex>
														<groupindex>1</groupindex>
													</link>
													<fielddominance>none</fielddominance>
													<itemhistory>
														<uuid>4A28C531-36BE-43F4-8186-F13771F6B148</uuid>
													</itemhistory>
												</clipitem>
												<clipitem id="Raw Scene Matthew Duepner Walkabout290">
													<name>Raw Scene Matthew Duepner Walkabout</name>
													<duration>38484</duration>
													<rate>
														<ntsc>TRUE</ntsc>
														<timebase>24</timebase>
													</rate>
													<in>24211</in>
													<out>24295</out>
													<start>6932</start>
													<end>7016</end>
													<pixelaspectratio>Square</pixelaspectratio>
													<anamorphic>FALSE</anamorphic>
													<alphatype>black</alphatype>
													<masterclipid>Raw Scene Matthew Duepner Walkabout234</masterclipid>
													<logginginfo>
														<scene/>
														<shottake/>
														<lognote/>
														<good>FALSE</good>
													</logginginfo>
													<labels>
														<label2/>
													</labels>
													<comments>
														<mastercomment1/>
														<mastercomment2/>
														<mastercomment3/>
														<mastercomment4/>
													</comments>
													<file id="YIN_2013-05-28_LG-4 "/>
													<sourcetrack>
														<mediatype>video</mediatype>
													</sourcetrack>
													<link>
														<linkclipref>Raw Scene Matthew Duepner Walkabout290</linkclipref>
														<mediatype>video</mediatype>
														<trackindex>1</trackindex>
														<clipindex>48</clipindex>
													</link>
													<link>
														<linkclipref>Raw Scene Matthew Duepner Walkabout291</linkclipref>
														<mediatype>audio</mediatype>
														<trackindex>1</trackindex>
														<clipindex>48</clipindex>
														<groupindex>1</groupindex>
													</link>
													<link>
														<linkclipref>Raw Scene Matthew Duepner Walkabout292</linkclipref>
														<mediatype>audio</mediatype>
														<trackindex>2</trackindex>
														<clipindex>48</clipindex>
														<groupindex>1</groupindex>
													</link>
													<fielddominance>none</fielddominance>
													<itemhistory>
														<uuid>7AE4F1AF-B154-4DA5-8122-9FD68D2CAA87</uuid>
													</itemhistory>
												</clipitem>
												<clipitem id="Raw Scene Matthew Duepner Walkabout293">
													<name>Raw Scene Matthew Duepner Walkabout</name>
													<duration>38484</duration>
													<rate>
														<ntsc>TRUE</ntsc>
														<timebase>24</timebase>
													</rate>
													<in>23727</in>
													<out>23813</out>
													<start>7016</start>
													<end>7102</end>
													<pixelaspectratio>Square</pixelaspectratio>
													<anamorphic>FALSE</anamorphic>
													<alphatype>black</alphatype>
													<masterclipid>Raw Scene Matthew Duepner Walkabout234</masterclipid>
													<logginginfo>
														<scene/>
														<shottake/>
														<lognote/>
														<good>FALSE</good>
													</logginginfo>
													<labels>
														<label2/>
													</labels>
													<comments>
														<mastercomment1/>
														<mastercomment2/>
														<mastercomment3/>
														<mastercomment4/>
													</comments>
													<file id="YIN_2013-05-28_LG-4 "/>
													<sourcetrack>
														<mediatype>video</mediatype>
													</sourcetrack>
													<link>
														<linkclipref>Raw Scene Matthew Duepner Walkabout293</linkclipref>
														<mediatype>video</mediatype>
														<trackindex>1</trackindex>
														<clipindex>49</clipindex>
													</link>
													<link>
														<linkclipref>Raw Scene Matthew Duepner Walkabout294</linkclipref>
														<mediatype>audio</mediatype>
														<trackindex>1</trackindex>
														<clipindex>49</clipindex>
														<groupindex>1</groupindex>
													</link>
													<link>
														<linkclipref>Raw Scene Matthew Duepner Walkabout295</linkclipref>
														<mediatype>audio</mediatype>
														<trackindex>2</trackindex>
														<clipindex>49</clipindex>
														<groupindex>1</groupindex>
													</link>
													<fielddominance>none</fielddominance>
													<itemhistory>
														<uuid>DB7EADD8-4452-4222-8C6B-B80AFC388FAA</uuid>
													</itemhistory>
												</clipitem>
												<clipitem id="Raw Scene Matthew Duepner Walkabout296">
													<name>Raw Scene Matthew Duepner Walkabout</name>
													<duration>38484</duration>
													<rate>
														<ntsc>TRUE</ntsc>
														<timebase>24</timebase>
													</rate>
													<in>24423</in>
													<out>24509</out>
													<start>7102</start>
													<end>7188</end>
													<pixelaspectratio>Square</pixelaspectratio>
													<anamorphic>FALSE</anamorphic>
													<alphatype>black</alphatype>
													<masterclipid>Raw Scene Matthew Duepner Walkabout234</masterclipid>
													<logginginfo>
														<scene/>
														<shottake/>
														<lognote/>
														<good>FALSE</good>
													</logginginfo>
													<labels>
														<label2/>
													</labels>
													<comments>
														<mastercomment1/>
														<mastercomment2/>
														<mastercomment3/>
														<mastercomment4/>
													</comments>
													<file id="YIN_2013-05-28_LG-4 "/>
													<sourcetrack>
														<mediatype>video</mediatype>
													</sourcetrack>
													<link>
														<linkclipref>Raw Scene Matthew Duepner Walkabout296</linkclipref>
														<mediatype>video</mediatype>
														<trackindex>1</trackindex>
														<clipindex>50</clipindex>
													</link>
													<link>
														<linkclipref>Raw Scene Matthew Duepner Walkabout297</linkclipref>
														<mediatype>audio</mediatype>
														<trackindex>1</trackindex>
														<clipindex>50</clipindex>
														<groupindex>1</groupindex>
													</link>
													<link>
														<linkclipref>Raw Scene Matthew Duepner Walkabout298</linkclipref>
														<mediatype>audio</mediatype>
														<trackindex>2</trackindex>
														<clipindex>50</clipindex>
														<groupindex>1</groupindex>
													</link>
													<fielddominance>none</fielddominance>
													<itemhistory>
														<uuid>5D1FDB9F-23EC-4B99-B10D-18B6BBA3A04B</uuid>
													</itemhistory>
												</clipitem>
												<clipitem id="Raw Scene Matthew Duepner Walkabout299">
													<name>Raw Scene Matthew Duepner Walkabout</name>
													<duration>38484</duration>
													<rate>
														<ntsc>TRUE</ntsc>
														<timebase>24</timebase>
													</rate>
													<in>26628</in>
													<out>26940</out>
													<start>7188</start>
													<end>7500</end>
													<pixelaspectratio>Square</pixelaspectratio>
													<anamorphic>FALSE</anamorphic>
													<alphatype>black</alphatype>
													<masterclipid>Raw Scene Matthew Duepner Walkabout234</masterclipid>
													<logginginfo>
														<scene/>
														<shottake/>
														<lognote/>
														<good>FALSE</good>
													</logginginfo>
													<labels>
														<label2/>
													</labels>
													<comments>
														<mastercomment1/>
														<mastercomment2/>
														<mastercomment3/>
														<mastercomment4/>
													</comments>
													<file id="YIN_2013-05-28_LG-4 "/>
													<sourcetrack>
														<mediatype>video</mediatype>
													</sourcetrack>
													<link>
														<linkclipref>Raw Scene Matthew Duepner Walkabout299</linkclipref>
														<mediatype>video</mediatype>
														<trackindex>1</trackindex>
														<clipindex>51</clipindex>
													</link>
													<link>
														<linkclipref>Raw Scene Matthew Duepner Walkabout300</linkclipref>
														<mediatype>audio</mediatype>
														<trackindex>1</trackindex>
														<clipindex>51</clipindex>
														<groupindex>1</groupindex>
													</link>
													<link>
														<linkclipref>Raw Scene Matthew Duepner Walkabout301</linkclipref>
														<mediatype>audio</mediatype>
														<trackindex>2</trackindex>
														<clipindex>51</clipindex>
														<groupindex>1</groupindex>
													</link>
													<fielddominance>none</fielddominance>
													<itemhistory>
														<uuid>4A87E971-9C8D-4B6E-B6F4-1DC3654BF6A0</uuid>
													</itemhistory>
												</clipitem>
												<clipitem id="Raw Scene Matthew Duepner Walkabout302">
													<name>Raw Scene Matthew Duepner Walkabout</name>
													<duration>38484</duration>
													<rate>
														<ntsc>TRUE</ntsc>
														<timebase>24</timebase>
													</rate>
													<in>26962</in>
													<out>27016</out>
													<start>7500</start>
													<end>7554</end>
													<pixelaspectratio>Square</pixelaspectratio>
													<anamorphic>FALSE</anamorphic>
													<alphatype>black</alphatype>
													<masterclipid>Raw Scene Matthew Duepner Walkabout234</masterclipid>
													<logginginfo>
														<scene/>
														<shottake/>
														<lognote/>
														<good>FALSE</good>
													</logginginfo>
													<labels>
														<label2/>
													</labels>
													<comments>
														<mastercomment1/>
														<mastercomment2/>
														<mastercomment3/>
														<mastercomment4/>
													</comments>
													<file id="YIN_2013-05-28_LG-4 "/>
													<sourcetrack>
														<mediatype>video</mediatype>
													</sourcetrack>
													<link>
														<linkclipref>Raw Scene Matthew Duepner Walkabout302</linkclipref>
														<mediatype>video</mediatype>
														<trackindex>1</trackindex>
														<clipindex>52</clipindex>
													</link>
													<link>
														<linkclipref>Raw Scene Matthew Duepner Walkabout303</linkclipref>
														<mediatype>audio</mediatype>
														<trackindex>1</trackindex>
														<clipindex>52</clipindex>
														<groupindex>1</groupindex>
													</link>
													<link>
														<linkclipref>Raw Scene Matthew Duepner Walkabout304</linkclipref>
														<mediatype>audio</mediatype>
														<trackindex>2</trackindex>
														<clipindex>52</clipindex>
														<groupindex>1</groupindex>
													</link>
													<fielddominance>none</fielddominance>
													<itemhistory>
														<uuid>88CD8989-0833-4187-A96A-D63A6EFB70F4</uuid>
													</itemhistory>
												</clipitem>
												<clipitem id="Raw Scene Matthew Duepner Walkabout305">
													<name>Raw Scene Matthew Duepner Walkabout</name>
													<duration>38484</duration>
													<rate>
														<ntsc>TRUE</ntsc>
														<timebase>24</timebase>
													</rate>
													<in>27816</in>
													<out>28338</out>
													<start>7554</start>
													<end>8076</end>
													<pixelaspectratio>Square</pixelaspectratio>
													<anamorphic>FALSE</anamorphic>
													<alphatype>black</alphatype>
													<masterclipid>Raw Scene Matthew Duepner Walkabout234</masterclipid>
													<logginginfo>
														<scene/>
														<shottake/>
														<lognote/>
														<good>FALSE</good>
													</logginginfo>
													<labels>
														<label2/>
													</labels>
													<comments>
														<mastercomment1/>
														<mastercomment2/>
														<mastercomment3/>
														<mastercomment4/>
													</comments>
													<file id="YIN_2013-05-28_LG-4 "/>
													<sourcetrack>
														<mediatype>video</mediatype>
													</sourcetrack>
													<link>
														<linkclipref>Raw Scene Matthew Duepner Walkabout305</linkclipref>
														<mediatype>video</mediatype>
														<trackindex>1</trackindex>
														<clipindex>53</clipindex>
													</link>
													<link>
														<linkclipref>Raw Scene Matthew Duepner Walkabout306</linkclipref>
														<mediatype>audio</mediatype>
														<trackindex>1</trackindex>
														<clipindex>53</clipindex>
														<groupindex>1</groupindex>
													</link>
													<link>
														<linkclipref>Raw Scene Matthew Duepner Walkabout307</linkclipref>
														<mediatype>audio</mediatype>
														<trackindex>2</trackindex>
														<clipindex>53</clipindex>
														<groupindex>1</groupindex>
													</link>
													<fielddominance>none</fielddominance>
													<itemhistory>
														<uuid>25986492-9070-40D8-8D64-D0E48CCD97D8</uuid>
													</itemhistory>
												</clipitem>
												<clipitem id="Raw Scene Matthew Duepner Walkabout308">
													<name>Raw Scene Matthew Duepner Walkabout</name>
													<duration>38484</duration>
													<rate>
														<ntsc>TRUE</ntsc>
														<timebase>24</timebase>
													</rate>
													<in>28558</in>
													<out>28719</out>
													<start>8076</start>
													<end>8237</end>
													<pixelaspectratio>Square</pixelaspectratio>
													<anamorphic>FALSE</anamorphic>
													<alphatype>black</alphatype>
													<masterclipid>Raw Scene Matthew Duepner Walkabout234</masterclipid>
													<logginginfo>
														<scene/>
														<shottake/>
														<lognote/>
														<good>FALSE</good>
													</logginginfo>
													<labels>
														<label2/>
													</labels>
													<comments>
														<mastercomment1/>
														<mastercomment2/>
														<mastercomment3/>
														<mastercomment4/>
													</comments>
													<file id="YIN_2013-05-28_LG-4 "/>
													<sourcetrack>
														<mediatype>video</mediatype>
													</sourcetrack>
													<link>
														<linkclipref>Raw Scene Matthew Duepner Walkabout308</linkclipref>
														<mediatype>video</mediatype>
														<trackindex>1</trackindex>
														<clipindex>54</clipindex>
													</link>
													<link>
														<linkclipref>Raw Scene Matthew Duepner Walkabout309</linkclipref>
														<mediatype>audio</mediatype>
														<trackindex>1</trackindex>
														<clipindex>54</clipindex>
														<groupindex>1</groupindex>
													</link>
													<link>
														<linkclipref>Raw Scene Matthew Duepner Walkabout310</linkclipref>
														<mediatype>audio</mediatype>
														<trackindex>2</trackindex>
														<clipindex>54</clipindex>
														<groupindex>1</groupindex>
													</link>
													<fielddominance>none</fielddominance>
													<itemhistory>
														<uuid>EAB7C228-CFC9-442E-91D5-F86F1FB6C429</uuid>
													</itemhistory>
												</clipitem>
												<clipitem id="Raw Scene Matthew Duepner Walkabout311">
													<name>Raw Scene Matthew Duepner Walkabout</name>
													<duration>38484</duration>
													<rate>
														<ntsc>TRUE</ntsc>
														<timebase>24</timebase>
													</rate>
													<in>30624</in>
													<out>30700</out>
													<start>8237</start>
													<end>8313</end>
													<pixelaspectratio>Square</pixelaspectratio>
													<anamorphic>FALSE</anamorphic>
													<alphatype>black</alphatype>
													<masterclipid>Raw Scene Matthew Duepner Walkabout234</masterclipid>
													<logginginfo>
														<scene/>
														<shottake/>
														<lognote/>
														<good>FALSE</good>
													</logginginfo>
													<labels>
														<label2/>
													</labels>
													<comments>
														<mastercomment1/>
														<mastercomment2/>
														<mastercomment3/>
														<mastercomment4/>
													</comments>
													<file id="YIN_2013-05-28_LG-4 "/>
													<sourcetrack>
														<mediatype>video</mediatype>
													</sourcetrack>
													<link>
														<linkclipref>Raw Scene Matthew Duepner Walkabout311</linkclipref>
														<mediatype>video</mediatype>
														<trackindex>1</trackindex>
														<clipindex>55</clipindex>
													</link>
													<link>
														<linkclipref>Raw Scene Matthew Duepner Walkabout312</linkclipref>
														<mediatype>audio</mediatype>
														<trackindex>1</trackindex>
														<clipindex>55</clipindex>
														<groupindex>1</groupindex>
													</link>
													<link>
														<linkclipref>Raw Scene Matthew Duepner Walkabout313</linkclipref>
														<mediatype>audio</mediatype>
														<trackindex>2</trackindex>
														<clipindex>55</clipindex>
														<groupindex>1</groupindex>
													</link>
													<fielddominance>none</fielddominance>
													<itemhistory>
														<uuid>BF571D38-BE43-4406-BDA2-A0E8867AF63D</uuid>
													</itemhistory>
												</clipitem>
												<clipitem id="Raw Scene Matthew Duepner Walkabout314">
													<name>Raw Scene Matthew Duepner Walkabout</name>
													<duration>38484</duration>
													<rate>
														<ntsc>TRUE</ntsc>
														<timebase>24</timebase>
													</rate>
													<in>30946</in>
													<out>30968</out>
													<start>8313</start>
													<end>8335</end>
													<pixelaspectratio>Square</pixelaspectratio>
													<anamorphic>FALSE</anamorphic>
													<alphatype>black</alphatype>
													<masterclipid>Raw Scene Matthew Duepner Walkabout234</masterclipid>
													<logginginfo>
														<scene/>
														<shottake/>
														<lognote/>
														<good>FALSE</good>
													</logginginfo>
													<labels>
														<label2/>
													</labels>
													<comments>
														<mastercomment1/>
														<mastercomment2/>
														<mastercomment3/>
														<mastercomment4/>
													</comments>
													<file id="YIN_2013-05-28_LG-4 "/>
													<sourcetrack>
														<mediatype>video</mediatype>
													</sourcetrack>
													<link>
														<linkclipref>Raw Scene Matthew Duepner Walkabout314</linkclipref>
														<mediatype>video</mediatype>
														<trackindex>1</trackindex>
														<clipindex>56</clipindex>
													</link>
													<link>
														<linkclipref>Raw Scene Matthew Duepner Walkabout315</linkclipref>
														<mediatype>audio</mediatype>
														<trackindex>1</trackindex>
														<clipindex>56</clipindex>
														<groupindex>1</groupindex>
													</link>
													<link>
														<linkclipref>Raw Scene Matthew Duepner Walkabout316</linkclipref>
														<mediatype>audio</mediatype>
														<trackindex>2</trackindex>
														<clipindex>56</clipindex>
														<groupindex>1</groupindex>
													</link>
													<fielddominance>none</fielddominance>
													<itemhistory>
														<uuid>DE0709E3-402F-4264-8043-BBFFA5F2FCBD</uuid>
													</itemhistory>
												</clipitem>
												<clipitem id="Raw Scene Matthew Duepner Walkabout317">
													<name>Raw Scene Matthew Duepner Walkabout</name>
													<duration>38484</duration>
													<rate>
														<ntsc>TRUE</ntsc>
														<timebase>24</timebase>
													</rate>
													<in>31032</in>
													<out>31190</out>
													<start>8335</start>
													<end>8493</end>
													<pixelaspectratio>Square</pixelaspectratio>
													<anamorphic>FALSE</anamorphic>
													<alphatype>black</alphatype>
													<masterclipid>Raw Scene Matthew Duepner Walkabout234</masterclipid>
													<logginginfo>
														<scene/>
														<shottake/>
														<lognote/>
														<good>FALSE</good>
													</logginginfo>
													<labels>
														<label2/>
													</labels>
													<comments>
														<mastercomment1/>
														<mastercomment2/>
														<mastercomment3/>
														<mastercomment4/>
													</comments>
													<file id="YIN_2013-05-28_LG-4 "/>
													<sourcetrack>
														<mediatype>video</mediatype>
													</sourcetrack>
													<link>
														<linkclipref>Raw Scene Matthew Duepner Walkabout317</linkclipref>
														<mediatype>video</mediatype>
														<trackindex>1</trackindex>
														<clipindex>57</clipindex>
													</link>
													<link>
														<linkclipref>Raw Scene Matthew Duepner Walkabout318</linkclipref>
														<mediatype>audio</mediatype>
														<trackindex>1</trackindex>
														<clipindex>57</clipindex>
														<groupindex>1</groupindex>
													</link>
													<link>
														<linkclipref>Raw Scene Matthew Duepner Walkabout319</linkclipref>
														<mediatype>audio</mediatype>
														<trackindex>2</trackindex>
														<clipindex>57</clipindex>
														<groupindex>1</groupindex>
													</link>
													<fielddominance>none</fielddominance>
													<itemhistory>
														<uuid>B0FC1B2F-E07A-4673-824F-C1CE8FE7DDB2</uuid>
													</itemhistory>
												</clipitem>
												<clipitem id="Raw Scene Matthew Duepner Walkabout320">
													<name>Raw Scene Matthew Duepner Walkabout</name>
													<duration>38484</duration>
													<rate>
														<ntsc>TRUE</ntsc>
														<timebase>24</timebase>
													</rate>
													<in>31795</in>
													<out>31917</out>
													<start>8493</start>
													<end>8615</end>
													<pixelaspectratio>Square</pixelaspectratio>
													<anamorphic>FALSE</anamorphic>
													<alphatype>black</alphatype>
													<masterclipid>Raw Scene Matthew Duepner Walkabout234</masterclipid>
													<logginginfo>
														<scene/>
														<shottake/>
														<lognote/>
														<good>FALSE</good>
													</logginginfo>
													<labels>
														<label2/>
													</labels>
													<comments>
														<mastercomment1/>
														<mastercomment2/>
														<mastercomment3/>
														<mastercomment4/>
													</comments>
													<file id="YIN_2013-05-28_LG-4 "/>
													<sourcetrack>
														<mediatype>video</mediatype>
													</sourcetrack>
													<link>
														<linkclipref>Raw Scene Matthew Duepner Walkabout320</linkclipref>
														<mediatype>video</mediatype>
														<trackindex>1</trackindex>
														<clipindex>58</clipindex>
													</link>
													<link>
														<linkclipref>Raw Scene Matthew Duepner Walkabout321</linkclipref>
														<mediatype>audio</mediatype>
														<trackindex>1</trackindex>
														<clipindex>58</clipindex>
														<groupindex>1</groupindex>
													</link>
													<link>
														<linkclipref>Raw Scene Matthew Duepner Walkabout322</linkclipref>
														<mediatype>audio</mediatype>
														<trackindex>2</trackindex>
														<clipindex>58</clipindex>
														<groupindex>1</groupindex>
													</link>
													<fielddominance>none</fielddominance>
													<itemhistory>
														<uuid>1E6B94E4-790D-4710-95F1-5B6B24BAAB40</uuid>
													</itemhistory>
												</clipitem>
												<clipitem id="Raw Scene Matthew Duepner Walkabout323">
													<name>Raw Scene Matthew Duepner Walkabout</name>
													<duration>38484</duration>
													<rate>
														<ntsc>TRUE</ntsc>
														<timebase>24</timebase>
													</rate>
													<in>32375</in>
													<out>32507</out>
													<start>8615</start>
													<end>8747</end>
													<pixelaspectratio>Square</pixelaspectratio>
													<anamorphic>FALSE</anamorphic>
													<alphatype>black</alphatype>
													<masterclipid>Raw Scene Matthew Duepner Walkabout234</masterclipid>
													<logginginfo>
														<scene/>
														<shottake/>
														<lognote/>
														<good>FALSE</good>
													</logginginfo>
													<labels>
														<label2/>
													</labels>
													<comments>
														<mastercomment1/>
														<mastercomment2/>
														<mastercomment3/>
														<mastercomment4/>
													</comments>
													<file id="YIN_2013-05-28_LG-4 "/>
													<sourcetrack>
														<mediatype>video</mediatype>
													</sourcetrack>
													<link>
														<linkclipref>Raw Scene Matthew Duepner Walkabout323</linkclipref>
														<mediatype>video</mediatype>
														<trackindex>1</trackindex>
														<clipindex>59</clipindex>
													</link>
													<link>
														<linkclipref>Raw Scene Matthew Duepner Walkabout324</linkclipref>
														<mediatype>audio</mediatype>
														<trackindex>1</trackindex>
														<clipindex>59</clipindex>
														<groupindex>1</groupindex>
													</link>
													<link>
														<linkclipref>Raw Scene Matthew Duepner Walkabout325</linkclipref>
														<mediatype>audio</mediatype>
														<trackindex>2</trackindex>
														<clipindex>59</clipindex>
														<groupindex>1</groupindex>
													</link>
													<fielddominance>none</fielddominance>
													<itemhistory>
														<uuid>0B4781CB-58CC-4CE4-BDA1-BCA3B0600C91</uuid>
													</itemhistory>
												</clipitem>
												<clipitem id="Raw Scene Matthew Duepner Walkabout326">
													<name>Raw Scene Matthew Duepner Walkabout</name>
													<duration>38484</duration>
													<rate>
														<ntsc>TRUE</ntsc>
														<timebase>24</timebase>
													</rate>
													<in>32997</in>
													<out>33142</out>
													<start>8747</start>
													<end>8892</end>
													<pixelaspectratio>Square</pixelaspectratio>
													<anamorphic>FALSE</anamorphic>
													<alphatype>black</alphatype>
													<masterclipid>Raw Scene Matthew Duepner Walkabout234</masterclipid>
													<logginginfo>
														<scene/>
														<shottake/>
														<lognote/>
														<good>FALSE</good>
													</logginginfo>
													<labels>
														<label2/>
													</labels>
													<comments>
														<mastercomment1/>
														<mastercomment2/>
														<mastercomment3/>
														<mastercomment4/>
													</comments>
													<file id="YIN_2013-05-28_LG-4 "/>
													<sourcetrack>
														<mediatype>video</mediatype>
													</sourcetrack>
													<link>
														<linkclipref>Raw Scene Matthew Duepner Walkabout326</linkclipref>
														<mediatype>video</mediatype>
														<trackindex>1</trackindex>
														<clipindex>60</clipindex>
													</link>
													<link>
														<linkclipref>Raw Scene Matthew Duepner Walkabout327</linkclipref>
														<mediatype>audio</mediatype>
														<trackindex>1</trackindex>
														<clipindex>60</clipindex>
														<groupindex>1</groupindex>
													</link>
													<link>
														<linkclipref>Raw Scene Matthew Duepner Walkabout328</linkclipref>
														<mediatype>audio</mediatype>
														<trackindex>2</trackindex>
														<clipindex>60</clipindex>
														<groupindex>1</groupindex>
													</link>
													<fielddominance>none</fielddominance>
													<itemhistory>
														<uuid>ED347B7D-1525-4C0E-91B6-5283D5CA3F9F</uuid>
													</itemhistory>
												</clipitem>
												<clipitem id="Raw Scene Matthew Duepner Walkabout329">
													<name>Raw Scene Matthew Duepner Walkabout</name>
													<duration>38484</duration>
													<rate>
														<ntsc>TRUE</ntsc>
														<timebase>24</timebase>
													</rate>
													<in>33365</in>
													<out>33603</out>
													<start>8892</start>
													<end>9130</end>
													<pixelaspectratio>Square</pixelaspectratio>
													<anamorphic>FALSE</anamorphic>
													<alphatype>black</alphatype>
													<masterclipid>Raw Scene Matthew Duepner Walkabout234</masterclipid>
													<logginginfo>
														<scene/>
														<shottake/>
														<lognote/>
														<good>FALSE</good>
													</logginginfo>
													<labels>
														<label2/>
													</labels>
													<comments>
														<mastercomment1/>
														<mastercomment2/>
														<mastercomment3/>
														<mastercomment4/>
													</comments>
													<file id="YIN_2013-05-28_LG-4 "/>
													<sourcetrack>
														<mediatype>video</mediatype>
													</sourcetrack>
													<link>
														<linkclipref>Raw Scene Matthew Duepner Walkabout329</linkclipref>
														<mediatype>video</mediatype>
														<trackindex>1</trackindex>
														<clipindex>61</clipindex>
													</link>
													<link>
														<linkclipref>Raw Scene Matthew Duepner Walkabout330</linkclipref>
														<mediatype>audio</mediatype>
														<trackindex>1</trackindex>
														<clipindex>61</clipindex>
														<groupindex>1</groupindex>
													</link>
													<link>
														<linkclipref>Raw Scene Matthew Duepner Walkabout331</linkclipref>
														<mediatype>audio</mediatype>
														<trackindex>2</trackindex>
														<clipindex>61</clipindex>
														<groupindex>1</groupindex>
													</link>
													<fielddominance>none</fielddominance>
													<itemhistory>
														<uuid>0F087991-E030-4DC9-9884-25950FF762A4</uuid>
													</itemhistory>
												</clipitem>
												<clipitem id="Raw Scene Matthew Duepner Walkabout332">
													<name>Raw Scene Matthew Duepner Walkabout</name>
													<duration>38484</duration>
													<rate>
														<ntsc>TRUE</ntsc>
														<timebase>24</timebase>
													</rate>
													<in>34172</in>
													<out>34249</out>
													<start>9130</start>
													<end>9207</end>
													<pixelaspectratio>Square</pixelaspectratio>
													<anamorphic>FALSE</anamorphic>
													<alphatype>black</alphatype>
													<masterclipid>Raw Scene Matthew Duepner Walkabout234</masterclipid>
													<logginginfo>
														<scene/>
														<shottake/>
														<lognote/>
														<good>FALSE</good>
													</logginginfo>
													<labels>
														<label2/>
													</labels>
													<comments>
														<mastercomment1/>
														<mastercomment2/>
														<mastercomment3/>
														<mastercomment4/>
													</comments>
													<file id="YIN_2013-05-28_LG-4 "/>
													<sourcetrack>
														<mediatype>video</mediatype>
													</sourcetrack>
													<link>
														<linkclipref>Raw Scene Matthew Duepner Walkabout332</linkclipref>
														<mediatype>video</mediatype>
														<trackindex>1</trackindex>
														<clipindex>62</clipindex>
													</link>
													<link>
														<linkclipref>Raw Scene Matthew Duepner Walkabout333</linkclipref>
														<mediatype>audio</mediatype>
														<trackindex>1</trackindex>
														<clipindex>62</clipindex>
														<groupindex>1</groupindex>
													</link>
													<link>
														<linkclipref>Raw Scene Matthew Duepner Walkabout334</linkclipref>
														<mediatype>audio</mediatype>
														<trackindex>2</trackindex>
														<clipindex>62</clipindex>
														<groupindex>1</groupindex>
													</link>
													<fielddominance>none</fielddominance>
													<itemhistory>
														<uuid>7B1CB274-1BD9-4D41-8B1E-05D873238A11</uuid>
													</itemhistory>
												</clipitem>
												<clipitem id="Raw Scene Matthew Duepner Walkabout335">
													<name>Raw Scene Matthew Duepner Walkabout</name>
													<duration>38484</duration>
													<rate>
														<ntsc>TRUE</ntsc>
														<timebase>24</timebase>
													</rate>
													<in>34380</in>
													<out>34644</out>
													<start>9207</start>
													<end>9471</end>
													<pixelaspectratio>Square</pixelaspectratio>
													<anamorphic>FALSE</anamorphic>
													<alphatype>black</alphatype>
													<masterclipid>Raw Scene Matthew Duepner Walkabout234</masterclipid>
													<logginginfo>
														<scene/>
														<shottake/>
														<lognote/>
														<good>FALSE</good>
													</logginginfo>
													<labels>
														<label2/>
													</labels>
													<comments>
														<mastercomment1/>
														<mastercomment2/>
														<mastercomment3/>
														<mastercomment4/>
													</comments>
													<file id="YIN_2013-05-28_LG-4 "/>
													<sourcetrack>
														<mediatype>video</mediatype>
													</sourcetrack>
													<link>
														<linkclipref>Raw Scene Matthew Duepner Walkabout335</linkclipref>
														<mediatype>video</mediatype>
														<trackindex>1</trackindex>
														<clipindex>63</clipindex>
													</link>
													<link>
														<linkclipref>Raw Scene Matthew Duepner Walkabout336</linkclipref>
														<mediatype>audio</mediatype>
														<trackindex>1</trackindex>
														<clipindex>63</clipindex>
														<groupindex>1</groupindex>
													</link>
													<link>
														<linkclipref>Raw Scene Matthew Duepner Walkabout337</linkclipref>
														<mediatype>audio</mediatype>
														<trackindex>2</trackindex>
														<clipindex>63</clipindex>
														<groupindex>1</groupindex>
													</link>
													<fielddominance>none</fielddominance>
													<itemhistory>
														<uuid>B1F04ECF-5B85-4390-821D-203FFC416D72</uuid>
													</itemhistory>
												</clipitem>
												<clipitem id="Raw Scene Matthew Duepner Walkabout338">
													<name>Raw Scene Matthew Duepner Walkabout</name>
													<duration>38484</duration>
													<rate>
														<ntsc>TRUE</ntsc>
														<timebase>24</timebase>
													</rate>
													<in>36124</in>
													<out>36168</out>
													<start>9471</start>
													<end>9515</end>
													<pixelaspectratio>Square</pixelaspectratio>
													<anamorphic>FALSE</anamorphic>
													<alphatype>black</alphatype>
													<masterclipid>Raw Scene Matthew Duepner Walkabout234</masterclipid>
													<logginginfo>
														<scene/>
														<shottake/>
														<lognote/>
														<good>FALSE</good>
													</logginginfo>
													<labels>
														<label2/>
													</labels>
													<comments>
														<mastercomment1/>
														<mastercomment2/>
														<mastercomment3/>
														<mastercomment4/>
													</comments>
													<file id="YIN_2013-05-28_LG-4 "/>
													<sourcetrack>
														<mediatype>video</mediatype>
													</sourcetrack>
													<link>
														<linkclipref>Raw Scene Matthew Duepner Walkabout338</linkclipref>
														<mediatype>video</mediatype>
														<trackindex>1</trackindex>
														<clipindex>64</clipindex>
													</link>
													<link>
														<linkclipref>Raw Scene Matthew Duepner Walkabout339</linkclipref>
														<mediatype>audio</mediatype>
														<trackindex>1</trackindex>
														<clipindex>64</clipindex>
														<groupindex>1</groupindex>
													</link>
													<link>
														<linkclipref>Raw Scene Matthew Duepner Walkabout340</linkclipref>
														<mediatype>audio</mediatype>
														<trackindex>2</trackindex>
														<clipindex>64</clipindex>
														<groupindex>1</groupindex>
													</link>
													<fielddominance>none</fielddominance>
													<itemhistory>
														<uuid>7F977A5D-B48C-4D47-9A26-06C436427472</uuid>
													</itemhistory>
												</clipitem>
												<clipitem id="Raw Scene Matthew Duepner Walkabout341">
													<name>Raw Scene Matthew Duepner Walkabout</name>
													<duration>38484</duration>
													<rate>
														<ntsc>TRUE</ntsc>
														<timebase>24</timebase>
													</rate>
													<in>36397</in>
													<out>36474</out>
													<start>9515</start>
													<end>9592</end>
													<pixelaspectratio>Square</pixelaspectratio>
													<anamorphic>FALSE</anamorphic>
													<alphatype>black</alphatype>
													<masterclipid>Raw Scene Matthew Duepner Walkabout234</masterclipid>
													<logginginfo>
														<scene/>
														<shottake/>
														<lognote/>
														<good>FALSE</good>
													</logginginfo>
													<labels>
														<label2/>
													</labels>
													<comments>
														<mastercomment1/>
														<mastercomment2/>
														<mastercomment3/>
														<mastercomment4/>
													</comments>
													<file id="YIN_2013-05-28_LG-4 "/>
													<sourcetrack>
														<mediatype>video</mediatype>
													</sourcetrack>
													<link>
														<linkclipref>Raw Scene Matthew Duepner Walkabout341</linkclipref>
														<mediatype>video</mediatype>
														<trackindex>1</trackindex>
														<clipindex>65</clipindex>
													</link>
													<link>
														<linkclipref>Raw Scene Matthew Duepner Walkabout342</linkclipref>
														<mediatype>audio</mediatype>
														<trackindex>1</trackindex>
														<clipindex>65</clipindex>
														<groupindex>1</groupindex>
													</link>
													<link>
														<linkclipref>Raw Scene Matthew Duepner Walkabout343</linkclipref>
														<mediatype>audio</mediatype>
														<trackindex>2</trackindex>
														<clipindex>65</clipindex>
														<groupindex>1</groupindex>
													</link>
													<fielddominance>none</fielddominance>
													<itemhistory>
														<uuid>47DF6DC6-3615-4EA7-9EC4-AABCDFF65615</uuid>
													</itemhistory>
												</clipitem>
												<clipitem id="Raw Scene Matthew Duepner Walkabout344">
													<name>Raw Scene Matthew Duepner Walkabout</name>
													<duration>38484</duration>
													<rate>
														<ntsc>TRUE</ntsc>
														<timebase>24</timebase>
													</rate>
													<in>37446</in>
													<out>37533</out>
													<start>9592</start>
													<end>9679</end>
													<pixelaspectratio>Square</pixelaspectratio>
													<anamorphic>FALSE</anamorphic>
													<alphatype>black</alphatype>
													<masterclipid>Raw Scene Matthew Duepner Walkabout234</masterclipid>
													<logginginfo>
														<scene/>
														<shottake/>
														<lognote/>
														<good>FALSE</good>
													</logginginfo>
													<labels>
														<label2/>
													</labels>
													<comments>
														<mastercomment1/>
														<mastercomment2/>
														<mastercomment3/>
														<mastercomment4/>
													</comments>
													<file id="YIN_2013-05-28_LG-4 "/>
													<sourcetrack>
														<mediatype>video</mediatype>
													</sourcetrack>
													<link>
														<linkclipref>Raw Scene Matthew Duepner Walkabout344</linkclipref>
														<mediatype>video</mediatype>
														<trackindex>1</trackindex>
														<clipindex>66</clipindex>
													</link>
													<link>
														<linkclipref>Raw Scene Matthew Duepner Walkabout345</linkclipref>
														<mediatype>audio</mediatype>
														<trackindex>1</trackindex>
														<clipindex>66</clipindex>
														<groupindex>1</groupindex>
													</link>
													<link>
														<linkclipref>Raw Scene Matthew Duepner Walkabout346</linkclipref>
														<mediatype>audio</mediatype>
														<trackindex>2</trackindex>
														<clipindex>66</clipindex>
														<groupindex>1</groupindex>
													</link>
													<fielddominance>none</fielddominance>
													<itemhistory>
														<uuid>2681E707-D607-46A9-A7A8-06056C3104AF</uuid>
													</itemhistory>
												</clipitem>
												<clipitem id="Raw Scene Matthew Duepner Walkabout347">
													<name>Raw Scene Matthew Duepner Walkabout</name>
													<duration>38484</duration>
													<rate>
														<ntsc>TRUE</ntsc>
														<timebase>24</timebase>
													</rate>
													<in>37856</in>
													<out>37874</out>
													<start>9679</start>
													<end>9697</end>
													<pixelaspectratio>Square</pixelaspectratio>
													<anamorphic>FALSE</anamorphic>
													<alphatype>black</alphatype>
													<masterclipid>Raw Scene Matthew Duepner Walkabout234</masterclipid>
													<logginginfo>
														<scene/>
														<shottake/>
														<lognote/>
														<good>FALSE</good>
													</logginginfo>
													<labels>
														<label2/>
													</labels>
													<comments>
														<mastercomment1/>
														<mastercomment2/>
														<mastercomment3/>
														<mastercomment4/>
													</comments>
													<file id="YIN_2013-05-28_LG-4 "/>
													<sourcetrack>
														<mediatype>video</mediatype>
													</sourcetrack>
													<link>
														<linkclipref>Raw Scene Matthew Duepner Walkabout347</linkclipref>
														<mediatype>video</mediatype>
														<trackindex>1</trackindex>
														<clipindex>67</clipindex>
													</link>
													<link>
														<linkclipref>Raw Scene Matthew Duepner Walkabout348</linkclipref>
														<mediatype>audio</mediatype>
														<trackindex>1</trackindex>
														<clipindex>67</clipindex>
														<groupindex>1</groupindex>
													</link>
													<link>
														<linkclipref>Raw Scene Matthew Duepner Walkabout349</linkclipref>
														<mediatype>audio</mediatype>
														<trackindex>2</trackindex>
														<clipindex>67</clipindex>
														<groupindex>1</groupindex>
													</link>
													<fielddominance>none</fielddominance>
													<itemhistory>
														<uuid>83B1B681-A4DB-4B44-8B01-28A730FDA701</uuid>
													</itemhistory>
												</clipitem>
												<clipitem id="Raw Scene Matthew Duepner Walkabout350">
													<name>Raw Scene Matthew Duepner Walkabout</name>
													<duration>38484</duration>
													<rate>
														<ntsc>TRUE</ntsc>
														<timebase>24</timebase>
													</rate>
													<in>38389</in>
													<out>38476</out>
													<start>9697</start>
													<end>9784</end>
													<pixelaspectratio>Square</pixelaspectratio>
													<anamorphic>FALSE</anamorphic>
													<alphatype>black</alphatype>
													<masterclipid>Raw Scene Matthew Duepner Walkabout234</masterclipid>
													<logginginfo>
														<scene/>
														<shottake/>
														<lognote/>
														<good>FALSE</good>
													</logginginfo>
													<labels>
														<label2/>
													</labels>
													<comments>
														<mastercomment1/>
														<mastercomment2/>
														<mastercomment3/>
														<mastercomment4/>
													</comments>
													<file id="YIN_2013-05-28_LG-4 "/>
													<sourcetrack>
														<mediatype>video</mediatype>
													</sourcetrack>
													<link>
														<linkclipref>Raw Scene Matthew Duepner Walkabout350</linkclipref>
														<mediatype>video</mediatype>
														<trackindex>1</trackindex>
														<clipindex>68</clipindex>
													</link>
													<link>
														<linkclipref>Raw Scene Matthew Duepner Walkabout351</linkclipref>
														<mediatype>audio</mediatype>
														<trackindex>1</trackindex>
														<clipindex>68</clipindex>
														<groupindex>1</groupindex>
													</link>
													<link>
														<linkclipref>Raw Scene Matthew Duepner Walkabout352</linkclipref>
														<mediatype>audio</mediatype>
														<trackindex>2</trackindex>
														<clipindex>68</clipindex>
														<groupindex>1</groupindex>
													</link>
													<fielddominance>none</fielddominance>
													<itemhistory>
														<uuid>FFCF5F17-4141-4EF7-A51C-B533EFC78E96</uuid>
													</itemhistory>
												</clipitem>
												<enabled>TRUE</enabled>
												<locked>FALSE</locked>
											</track>
											<track>
												<enabled>TRUE</enabled>
												<locked>FALSE</locked>
											</track>
											<track>
												<enabled>TRUE</enabled>
												<locked>FALSE</locked>
											</track>
										</video>
										<audio>
											<format>
												<samplecharacteristics>
													<depth>16</depth>
													<samplerate>48000</samplerate>
												</samplecharacteristics>
											</format>
											<outputs>
												<group>
													<index>1</index>
													<numchannels>1</numchannels>
													<downmix>0</downmix>
													<channel>
														<index>1</index>
													</channel>
												</group>
												<group>
													<index>2</index>
													<numchannels>1</numchannels>
													<downmix>0</downmix>
													<channel>
														<index>2</index>
													</channel>
												</group>
											</outputs>
											<in>-1</in>
											<out>-1</out>
											<track>
												<clipitem id="Raw B Roll Hack Manhattan Matthew Duepner's House53">
													<name>Raw B Roll Hack Manhattan Matthew Duepner's House</name>
													<duration>6617</duration>
													<rate>
														<ntsc>TRUE</ntsc>
														<timebase>24</timebase>
													</rate>
													<in>5680</in>
													<out>5776</out>
													<start>0</start>
													<end>96</end>
													<masterclipid>Raw B Roll Hack Manhattan Matthew Duepner's House1</masterclipid>
													<logginginfo>
														<scene/>
														<shottake/>
														<lognote/>
														<good>FALSE</good>
													</logginginfo>
													<labels>
														<label2/>
													</labels>
													<comments>
														<mastercomment1/>
														<mastercomment2/>
														<mastercomment3/>
														<mastercomment4/>
													</comments>
													<file id="YIN_2013-04-28_JB-1 "/>
													<filter>
														<effect>
															<name>Audio Levels</name>
															<effectid>audiolevels</effectid>
															<effectcategory>audiolevels</effectcategory>
															<effecttype>audiolevels</effecttype>
															<mediatype>audio</mediatype>
															<parameter>
																<name>Level</name>
																<parameterid>level</parameterid>
																<valuemin>0</valuemin>
																<valuemax>3.98109</valuemax>
																<value>1</value>
															</parameter>
														</effect>
													</filter>
													<filter>
														<effect>
															<name>Audio Pan</name>
															<effectid>audiopan</effectid>
															<effectcategory>audiopan</effectcategory>
															<effecttype>audiopan</effecttype>
															<mediatype>audio</mediatype>
															<parameter>
																<name>Pan</name>
																<parameterid>pan</parameterid>
																<valuemin>-1</valuemin>
																<valuemax>1</valuemax>
																<value>0</value>
															</parameter>
														</effect>
													</filter>
													<sourcetrack>
														<mediatype>audio</mediatype>
														<trackindex>1</trackindex>
													</sourcetrack>
													<link>
														<linkclipref>Raw B Roll Hack Manhattan Matthew Duepner's House52</linkclipref>
														<mediatype>video</mediatype>
														<trackindex>1</trackindex>
														<clipindex>1</clipindex>
													</link>
													<link>
														<linkclipref>Raw B Roll Hack Manhattan Matthew Duepner's House53</linkclipref>
														<mediatype>audio</mediatype>
														<trackindex>1</trackindex>
														<clipindex>1</clipindex>
														<groupindex>1</groupindex>
													</link>
													<link>
														<linkclipref>Raw B Roll Hack Manhattan Matthew Duepner's House54</linkclipref>
														<mediatype>audio</mediatype>
														<trackindex>2</trackindex>
														<clipindex>1</clipindex>
														<groupindex>1</groupindex>
													</link>
													<itemhistory>
														<uuid>52B46824-5B56-4384-A1B9-07F2EDD37677</uuid>
													</itemhistory>
												</clipitem>
												<clipitem id="Raw B Roll Hack Manhattan Matthew Duepner's House56">
													<name>Raw B Roll Hack Manhattan Matthew Duepner's House</name>
													<duration>6617</duration>
													<rate>
														<ntsc>TRUE</ntsc>
														<timebase>24</timebase>
													</rate>
													<in>6344</in>
													<out>6443</out>
													<start>96</start>
													<end>195</end>
													<masterclipid>Raw B Roll Hack Manhattan Matthew Duepner's House1</masterclipid>
													<logginginfo>
														<scene/>
														<shottake/>
														<lognote/>
														<good>FALSE</good>
													</logginginfo>
													<labels>
														<label2/>
													</labels>
													<comments>
														<mastercomment1/>
														<mastercomment2/>
														<mastercomment3/>
														<mastercomment4/>
													</comments>
													<file id="YIN_2013-04-28_JB-1 "/>
													<filter>
														<effect>
															<name>Audio Levels</name>
															<effectid>audiolevels</effectid>
															<effectcategory>audiolevels</effectcategory>
															<effecttype>audiolevels</effecttype>
															<mediatype>audio</mediatype>
															<parameter>
																<name>Level</name>
																<parameterid>level</parameterid>
																<valuemin>0</valuemin>
																<valuemax>3.98109</valuemax>
																<value>1</value>
															</parameter>
														</effect>
													</filter>
													<filter>
														<effect>
															<name>Audio Pan</name>
															<effectid>audiopan</effectid>
															<effectcategory>audiopan</effectcategory>
															<effecttype>audiopan</effecttype>
															<mediatype>audio</mediatype>
															<parameter>
																<name>Pan</name>
																<parameterid>pan</parameterid>
																<valuemin>-1</valuemin>
																<valuemax>1</valuemax>
																<value>0</value>
															</parameter>
														</effect>
													</filter>
													<sourcetrack>
														<mediatype>audio</mediatype>
														<trackindex>1</trackindex>
													</sourcetrack>
													<link>
														<linkclipref>Raw B Roll Hack Manhattan Matthew Duepner's House55</linkclipref>
														<mediatype>video</mediatype>
														<trackindex>1</trackindex>
														<clipindex>2</clipindex>
													</link>
													<link>
														<linkclipref>Raw B Roll Hack Manhattan Matthew Duepner's House56</linkclipref>
														<mediatype>audio</mediatype>
														<trackindex>1</trackindex>
														<clipindex>2</clipindex>
														<groupindex>1</groupindex>
													</link>
													<link>
														<linkclipref>Raw B Roll Hack Manhattan Matthew Duepner's House57</linkclipref>
														<mediatype>audio</mediatype>
														<trackindex>2</trackindex>
														<clipindex>2</clipindex>
														<groupindex>1</groupindex>
													</link>
													<itemhistory>
														<uuid>90AFFBE9-F330-4FB7-9C82-6EEFAB6069F9</uuid>
													</itemhistory>
												</clipitem>
												<clipitem id="Raw B Roll Hack Manhattan Matthew Duepner's House59">
													<name>Raw B Roll Hack Manhattan Matthew Duepner's House</name>
													<duration>6617</duration>
													<rate>
														<ntsc>TRUE</ntsc>
														<timebase>24</timebase>
													</rate>
													<in>6530</in>
													<out>6600</out>
													<start>195</start>
													<end>265</end>
													<masterclipid>Raw B Roll Hack Manhattan Matthew Duepner's House1</masterclipid>
													<logginginfo>
														<scene/>
														<shottake/>
														<lognote/>
														<good>FALSE</good>
													</logginginfo>
													<labels>
														<label2/>
													</labels>
													<comments>
														<mastercomment1/>
														<mastercomment2/>
														<mastercomment3/>
														<mastercomment4/>
													</comments>
													<file id="YIN_2013-04-28_JB-1 "/>
													<filter>
														<effect>
															<name>Audio Levels</name>
															<effectid>audiolevels</effectid>
															<effectcategory>audiolevels</effectcategory>
															<effecttype>audiolevels</effecttype>
															<mediatype>audio</mediatype>
															<parameter>
																<name>Level</name>
																<parameterid>level</parameterid>
																<valuemin>0</valuemin>
																<valuemax>3.98109</valuemax>
																<value>1</value>
															</parameter>
														</effect>
													</filter>
													<filter>
														<effect>
															<name>Audio Pan</name>
															<effectid>audiopan</effectid>
															<effectcategory>audiopan</effectcategory>
															<effecttype>audiopan</effecttype>
															<mediatype>audio</mediatype>
															<parameter>
																<name>Pan</name>
																<parameterid>pan</parameterid>
																<valuemin>-1</valuemin>
																<valuemax>1</valuemax>
																<value>0</value>
															</parameter>
														</effect>
													</filter>
													<sourcetrack>
														<mediatype>audio</mediatype>
														<trackindex>1</trackindex>
													</sourcetrack>
													<link>
														<linkclipref>Raw B Roll Hack Manhattan Matthew Duepner's House58</linkclipref>
														<mediatype>video</mediatype>
														<trackindex>1</trackindex>
														<clipindex>3</clipindex>
													</link>
													<link>
														<linkclipref>Raw B Roll Hack Manhattan Matthew Duepner's House59</linkclipref>
														<mediatype>audio</mediatype>
														<trackindex>1</trackindex>
														<clipindex>3</clipindex>
														<groupindex>1</groupindex>
													</link>
													<link>
														<linkclipref>Raw B Roll Hack Manhattan Matthew Duepner's House60</linkclipref>
														<mediatype>audio</mediatype>
														<trackindex>2</trackindex>
														<clipindex>3</clipindex>
														<groupindex>1</groupindex>
													</link>
													<itemhistory>
														<uuid>943A248A-E37A-4E7C-B63C-7505FAE3988E</uuid>
													</itemhistory>
												</clipitem>
												<clipitem id="Raw B Roll Hack Manhattan Matthew Duepner's House62">
													<name>Raw B Roll Hack Manhattan Matthew Duepner's House</name>
													<duration>6617</duration>
													<rate>
														<ntsc>TRUE</ntsc>
														<timebase>24</timebase>
													</rate>
													<in>6074</in>
													<out>6140</out>
													<start>265</start>
													<end>331</end>
													<masterclipid>Raw B Roll Hack Manhattan Matthew Duepner's House1</masterclipid>
													<logginginfo>
														<scene/>
														<shottake/>
														<lognote/>
														<good>FALSE</good>
													</logginginfo>
													<labels>
														<label2/>
													</labels>
													<comments>
														<mastercomment1/>
														<mastercomment2/>
														<mastercomment3/>
														<mastercomment4/>
													</comments>
													<file id="YIN_2013-04-28_JB-1 "/>
													<filter>
														<effect>
															<name>Audio Levels</name>
															<effectid>audiolevels</effectid>
															<effectcategory>audiolevels</effectcategory>
															<effecttype>audiolevels</effecttype>
															<mediatype>audio</mediatype>
															<parameter>
																<name>Level</name>
																<parameterid>level</parameterid>
																<valuemin>0</valuemin>
																<valuemax>3.98109</valuemax>
																<value>1</value>
															</parameter>
														</effect>
													</filter>
													<filter>
														<effect>
															<name>Audio Pan</name>
															<effectid>audiopan</effectid>
															<effectcategory>audiopan</effectcategory>
															<effecttype>audiopan</effecttype>
															<mediatype>audio</mediatype>
															<parameter>
																<name>Pan</name>
																<parameterid>pan</parameterid>
																<valuemin>-1</valuemin>
																<valuemax>1</valuemax>
																<value>0</value>
															</parameter>
														</effect>
													</filter>
													<sourcetrack>
														<mediatype>audio</mediatype>
														<trackindex>1</trackindex>
													</sourcetrack>
													<link>
														<linkclipref>Raw B Roll Hack Manhattan Matthew Duepner's House61</linkclipref>
														<mediatype>video</mediatype>
														<trackindex>1</trackindex>
														<clipindex>4</clipindex>
													</link>
													<link>
														<linkclipref>Raw B Roll Hack Manhattan Matthew Duepner's House62</linkclipref>
														<mediatype>audio</mediatype>
														<trackindex>1</trackindex>
														<clipindex>4</clipindex>
														<groupindex>1</groupindex>
													</link>
													<link>
														<linkclipref>Raw B Roll Hack Manhattan Matthew Duepner's House63</linkclipref>
														<mediatype>audio</mediatype>
														<trackindex>2</trackindex>
														<clipindex>4</clipindex>
														<groupindex>1</groupindex>
													</link>
													<itemhistory>
														<uuid>98873A94-69A0-4ECB-A181-72F33502E52F</uuid>
													</itemhistory>
												</clipitem>
												<clipitem id="Raw B Roll Hack Manhattan Matthew Duepner's House65">
													<name>Raw B Roll Hack Manhattan Matthew Duepner's House</name>
													<duration>6617</duration>
													<rate>
														<ntsc>TRUE</ntsc>
														<timebase>24</timebase>
													</rate>
													<in>5559</in>
													<out>5659</out>
													<start>331</start>
													<end>431</end>
													<masterclipid>Raw B Roll Hack Manhattan Matthew Duepner's House1</masterclipid>
													<logginginfo>
														<scene/>
														<shottake/>
														<lognote/>
														<good>FALSE</good>
													</logginginfo>
													<labels>
														<label2/>
													</labels>
													<comments>
														<mastercomment1/>
														<mastercomment2/>
														<mastercomment3/>
														<mastercomment4/>
													</comments>
													<file id="YIN_2013-04-28_JB-1 "/>
													<filter>
														<effect>
															<name>Audio Levels</name>
															<effectid>audiolevels</effectid>
															<effectcategory>audiolevels</effectcategory>
															<effecttype>audiolevels</effecttype>
															<mediatype>audio</mediatype>
															<parameter>
																<name>Level</name>
																<parameterid>level</parameterid>
																<valuemin>0</valuemin>
																<valuemax>3.98109</valuemax>
																<value>1</value>
															</parameter>
														</effect>
													</filter>
													<filter>
														<effect>
															<name>Audio Pan</name>
															<effectid>audiopan</effectid>
															<effectcategory>audiopan</effectcategory>
															<effecttype>audiopan</effecttype>
															<mediatype>audio</mediatype>
															<parameter>
																<name>Pan</name>
																<parameterid>pan</parameterid>
																<valuemin>-1</valuemin>
																<valuemax>1</valuemax>
																<value>0</value>
															</parameter>
														</effect>
													</filter>
													<sourcetrack>
														<mediatype>audio</mediatype>
														<trackindex>1</trackindex>
													</sourcetrack>
													<link>
														<linkclipref>Raw B Roll Hack Manhattan Matthew Duepner's House64</linkclipref>
														<mediatype>video</mediatype>
														<trackindex>1</trackindex>
														<clipindex>5</clipindex>
													</link>
													<link>
														<linkclipref>Raw B Roll Hack Manhattan Matthew Duepner's House65</linkclipref>
														<mediatype>audio</mediatype>
														<trackindex>1</trackindex>
														<clipindex>5</clipindex>
														<groupindex>1</groupindex>
													</link>
													<link>
														<linkclipref>Raw B Roll Hack Manhattan Matthew Duepner's House66</linkclipref>
														<mediatype>audio</mediatype>
														<trackindex>2</trackindex>
														<clipindex>5</clipindex>
														<groupindex>1</groupindex>
													</link>
													<itemhistory>
														<uuid>A4908155-4DC7-4B24-AA1A-5211CFA021C6</uuid>
													</itemhistory>
												</clipitem>
												<clipitem id="Raw B Roll Hack Manhattan Matthew Duepner's House68">
													<name>Raw B Roll Hack Manhattan Matthew Duepner's House</name>
													<duration>6617</duration>
													<rate>
														<ntsc>TRUE</ntsc>
														<timebase>24</timebase>
													</rate>
													<in>5878</in>
													<out>5953</out>
													<start>431</start>
													<end>506</end>
													<masterclipid>Raw B Roll Hack Manhattan Matthew Duepner's House1</masterclipid>
													<logginginfo>
														<scene/>
														<shottake/>
														<lognote/>
														<good>FALSE</good>
													</logginginfo>
													<labels>
														<label2/>
													</labels>
													<comments>
														<mastercomment1/>
														<mastercomment2/>
														<mastercomment3/>
														<mastercomment4/>
													</comments>
													<file id="YIN_2013-04-28_JB-1 "/>
													<filter>
														<effect>
															<name>Audio Levels</name>
															<effectid>audiolevels</effectid>
															<effectcategory>audiolevels</effectcategory>
															<effecttype>audiolevels</effecttype>
															<mediatype>audio</mediatype>
															<parameter>
																<name>Level</name>
																<parameterid>level</parameterid>
																<valuemin>0</valuemin>
																<valuemax>3.98109</valuemax>
																<value>1</value>
															</parameter>
														</effect>
													</filter>
													<filter>
														<effect>
															<name>Audio Pan</name>
															<effectid>audiopan</effectid>
															<effectcategory>audiopan</effectcategory>
															<effecttype>audiopan</effecttype>
															<mediatype>audio</mediatype>
															<parameter>
																<name>Pan</name>
																<parameterid>pan</parameterid>
																<valuemin>-1</valuemin>
																<valuemax>1</valuemax>
																<value>0</value>
															</parameter>
														</effect>
													</filter>
													<sourcetrack>
														<mediatype>audio</mediatype>
														<trackindex>1</trackindex>
													</sourcetrack>
													<link>
														<linkclipref>Raw B Roll Hack Manhattan Matthew Duepner's House67</linkclipref>
														<mediatype>video</mediatype>
														<trackindex>1</trackindex>
														<clipindex>6</clipindex>
													</link>
													<link>
														<linkclipref>Raw B Roll Hack Manhattan Matthew Duepner's House68</linkclipref>
														<mediatype>audio</mediatype>
														<trackindex>1</trackindex>
														<clipindex>6</clipindex>
														<groupindex>1</groupindex>
													</link>
													<link>
														<linkclipref>Raw B Roll Hack Manhattan Matthew Duepner's House69</linkclipref>
														<mediatype>audio</mediatype>
														<trackindex>2</trackindex>
														<clipindex>6</clipindex>
														<groupindex>1</groupindex>
													</link>
													<itemhistory>
														<uuid>F60FA3A6-B383-4208-94F5-D267F51801D4</uuid>
													</itemhistory>
												</clipitem>
												<clipitem id="Raw B Roll Hack Manhattan Matthew Duepner's House71">
													<name>Raw B Roll Hack Manhattan Matthew Duepner's House</name>
													<duration>6617</duration>
													<rate>
														<ntsc>TRUE</ntsc>
														<timebase>24</timebase>
													</rate>
													<in>4745</in>
													<out>4829</out>
													<start>506</start>
													<end>590</end>
													<masterclipid>Raw B Roll Hack Manhattan Matthew Duepner's House1</masterclipid>
													<logginginfo>
														<scene/>
														<shottake/>
														<lognote/>
														<good>FALSE</good>
													</logginginfo>
													<labels>
														<label2/>
													</labels>
													<comments>
														<mastercomment1/>
														<mastercomment2/>
														<mastercomment3/>
														<mastercomment4/>
													</comments>
													<file id="YIN_2013-04-28_JB-1 "/>
													<filter>
														<effect>
															<name>Audio Levels</name>
															<effectid>audiolevels</effectid>
															<effectcategory>audiolevels</effectcategory>
															<effecttype>audiolevels</effecttype>
															<mediatype>audio</mediatype>
															<parameter>
																<name>Level</name>
																<parameterid>level</parameterid>
																<valuemin>0</valuemin>
																<valuemax>3.98109</valuemax>
																<value>1</value>
															</parameter>
														</effect>
													</filter>
													<filter>
														<effect>
															<name>Audio Pan</name>
															<effectid>audiopan</effectid>
															<effectcategory>audiopan</effectcategory>
															<effecttype>audiopan</effecttype>
															<mediatype>audio</mediatype>
															<parameter>
																<name>Pan</name>
																<parameterid>pan</parameterid>
																<valuemin>-1</valuemin>
																<valuemax>1</valuemax>
																<value>0</value>
															</parameter>
														</effect>
													</filter>
													<sourcetrack>
														<mediatype>audio</mediatype>
														<trackindex>1</trackindex>
													</sourcetrack>
													<link>
														<linkclipref>Raw B Roll Hack Manhattan Matthew Duepner's House70</linkclipref>
														<mediatype>video</mediatype>
														<trackindex>1</trackindex>
														<clipindex>7</clipindex>
													</link>
													<link>
														<linkclipref>Raw B Roll Hack Manhattan Matthew Duepner's House71</linkclipref>
														<mediatype>audio</mediatype>
														<trackindex>1</trackindex>
														<clipindex>7</clipindex>
														<groupindex>1</groupindex>
													</link>
													<link>
														<linkclipref>Raw B Roll Hack Manhattan Matthew Duepner's House72</linkclipref>
														<mediatype>audio</mediatype>
														<trackindex>2</trackindex>
														<clipindex>7</clipindex>
														<groupindex>1</groupindex>
													</link>
													<itemhistory>
														<uuid>8D944109-8D87-4E85-9A70-687A143B2196</uuid>
													</itemhistory>
												</clipitem>
												<clipitem id="Raw B Roll Hack Manhattan Matthew Duepner's House74">
													<name>Raw B Roll Hack Manhattan Matthew Duepner's House</name>
													<duration>6617</duration>
													<rate>
														<ntsc>TRUE</ntsc>
														<timebase>24</timebase>
													</rate>
													<in>3527</in>
													<out>3604</out>
													<start>590</start>
													<end>667</end>
													<masterclipid>Raw B Roll Hack Manhattan Matthew Duepner's House1</masterclipid>
													<logginginfo>
														<scene/>
														<shottake/>
														<lognote/>
														<good>FALSE</good>
													</logginginfo>
													<labels>
														<label2/>
													</labels>
													<comments>
														<mastercomment1/>
														<mastercomment2/>
														<mastercomment3/>
														<mastercomment4/>
													</comments>
													<file id="YIN_2013-04-28_JB-1 "/>
													<filter>
														<effect>
															<name>Audio Levels</name>
															<effectid>audiolevels</effectid>
															<effectcategory>audiolevels</effectcategory>
															<effecttype>audiolevels</effecttype>
															<mediatype>audio</mediatype>
															<parameter>
																<name>Level</name>
																<parameterid>level</parameterid>
																<valuemin>0</valuemin>
																<valuemax>3.98109</valuemax>
																<value>1</value>
															</parameter>
														</effect>
													</filter>
													<filter>
														<effect>
															<name>Audio Pan</name>
															<effectid>audiopan</effectid>
															<effectcategory>audiopan</effectcategory>
															<effecttype>audiopan</effecttype>
															<mediatype>audio</mediatype>
															<parameter>
																<name>Pan</name>
																<parameterid>pan</parameterid>
																<valuemin>-1</valuemin>
																<valuemax>1</valuemax>
																<value>0</value>
															</parameter>
														</effect>
													</filter>
													<sourcetrack>
														<mediatype>audio</mediatype>
														<trackindex>1</trackindex>
													</sourcetrack>
													<link>
														<linkclipref>Raw B Roll Hack Manhattan Matthew Duepner's House73</linkclipref>
														<mediatype>video</mediatype>
														<trackindex>1</trackindex>
														<clipindex>8</clipindex>
													</link>
													<link>
														<linkclipref>Raw B Roll Hack Manhattan Matthew Duepner's House74</linkclipref>
														<mediatype>audio</mediatype>
														<trackindex>1</trackindex>
														<clipindex>8</clipindex>
														<groupindex>1</groupindex>
													</link>
													<link>
														<linkclipref>Raw B Roll Hack Manhattan Matthew Duepner's House75</linkclipref>
														<mediatype>audio</mediatype>
														<trackindex>2</trackindex>
														<clipindex>8</clipindex>
														<groupindex>1</groupindex>
													</link>
													<itemhistory>
														<uuid>7AF3D35F-2BBD-429C-B155-31BB01A4BE96</uuid>
													</itemhistory>
												</clipitem>
												<clipitem id="Raw B Roll Hack Manhattan Matthew Duepner's House77">
													<name>Raw B Roll Hack Manhattan Matthew Duepner's House</name>
													<duration>6617</duration>
													<rate>
														<ntsc>TRUE</ntsc>
														<timebase>24</timebase>
													</rate>
													<in>2432</in>
													<out>2555</out>
													<start>667</start>
													<end>790</end>
													<masterclipid>Raw B Roll Hack Manhattan Matthew Duepner's House1</masterclipid>
													<logginginfo>
														<scene/>
														<shottake/>
														<lognote/>
														<good>FALSE</good>
													</logginginfo>
													<labels>
														<label2/>
													</labels>
													<comments>
														<mastercomment1/>
														<mastercomment2/>
														<mastercomment3/>
														<mastercomment4/>
													</comments>
													<file id="YIN_2013-04-28_JB-1 "/>
													<filter>
														<effect>
															<name>Audio Levels</name>
															<effectid>audiolevels</effectid>
															<effectcategory>audiolevels</effectcategory>
															<effecttype>audiolevels</effecttype>
															<mediatype>audio</mediatype>
															<parameter>
																<name>Level</name>
																<parameterid>level</parameterid>
																<valuemin>0</valuemin>
																<valuemax>3.98109</valuemax>
																<value>1</value>
															</parameter>
														</effect>
													</filter>
													<filter>
														<effect>
															<name>Audio Pan</name>
															<effectid>audiopan</effectid>
															<effectcategory>audiopan</effectcategory>
															<effecttype>audiopan</effecttype>
															<mediatype>audio</mediatype>
															<parameter>
																<name>Pan</name>
																<parameterid>pan</parameterid>
																<valuemin>-1</valuemin>
																<valuemax>1</valuemax>
																<value>0</value>
															</parameter>
														</effect>
													</filter>
													<sourcetrack>
														<mediatype>audio</mediatype>
														<trackindex>1</trackindex>
													</sourcetrack>
													<link>
														<linkclipref>Raw B Roll Hack Manhattan Matthew Duepner's House76</linkclipref>
														<mediatype>video</mediatype>
														<trackindex>1</trackindex>
														<clipindex>9</clipindex>
													</link>
													<link>
														<linkclipref>Raw B Roll Hack Manhattan Matthew Duepner's House77</linkclipref>
														<mediatype>audio</mediatype>
														<trackindex>1</trackindex>
														<clipindex>9</clipindex>
														<groupindex>1</groupindex>
													</link>
													<link>
														<linkclipref>Raw B Roll Hack Manhattan Matthew Duepner's House78</linkclipref>
														<mediatype>audio</mediatype>
														<trackindex>2</trackindex>
														<clipindex>9</clipindex>
														<groupindex>1</groupindex>
													</link>
													<itemhistory>
														<uuid>C121C2E0-84B1-4063-B8FC-AFBCBA7328A4</uuid>
													</itemhistory>
												</clipitem>
												<clipitem id="Raw B Roll Hack Manhattan Matthew Duepner's House80">
													<name>Raw B Roll Hack Manhattan Matthew Duepner's House</name>
													<duration>6617</duration>
													<rate>
														<ntsc>TRUE</ntsc>
														<timebase>24</timebase>
													</rate>
													<in>2733</in>
													<out>2884</out>
													<start>790</start>
													<end>941</end>
													<masterclipid>Raw B Roll Hack Manhattan Matthew Duepner's House1</masterclipid>
													<logginginfo>
														<scene/>
														<shottake/>
														<lognote/>
														<good>FALSE</good>
													</logginginfo>
													<labels>
														<label2/>
													</labels>
													<comments>
														<mastercomment1/>
														<mastercomment2/>
														<mastercomment3/>
														<mastercomment4/>
													</comments>
													<file id="YIN_2013-04-28_JB-1 "/>
													<filter>
														<effect>
															<name>Audio Levels</name>
															<effectid>audiolevels</effectid>
															<effectcategory>audiolevels</effectcategory>
															<effecttype>audiolevels</effecttype>
															<mediatype>audio</mediatype>
															<parameter>
																<name>Level</name>
																<parameterid>level</parameterid>
																<valuemin>0</valuemin>
																<valuemax>3.98109</valuemax>
																<value>1</value>
															</parameter>
														</effect>
													</filter>
													<filter>
														<effect>
															<name>Audio Pan</name>
															<effectid>audiopan</effectid>
															<effectcategory>audiopan</effectcategory>
															<effecttype>audiopan</effecttype>
															<mediatype>audio</mediatype>
															<parameter>
																<name>Pan</name>
																<parameterid>pan</parameterid>
																<valuemin>-1</valuemin>
																<valuemax>1</valuemax>
																<value>0</value>
															</parameter>
														</effect>
													</filter>
													<sourcetrack>
														<mediatype>audio</mediatype>
														<trackindex>1</trackindex>
													</sourcetrack>
													<link>
														<linkclipref>Raw B Roll Hack Manhattan Matthew Duepner's House79</linkclipref>
														<mediatype>video</mediatype>
														<trackindex>1</trackindex>
														<clipindex>10</clipindex>
													</link>
													<link>
														<linkclipref>Raw B Roll Hack Manhattan Matthew Duepner's House80</linkclipref>
														<mediatype>audio</mediatype>
														<trackindex>1</trackindex>
														<clipindex>10</clipindex>
														<groupindex>1</groupindex>
													</link>
													<link>
														<linkclipref>Raw B Roll Hack Manhattan Matthew Duepner's House81</linkclipref>
														<mediatype>audio</mediatype>
														<trackindex>2</trackindex>
														<clipindex>10</clipindex>
														<groupindex>1</groupindex>
													</link>
													<itemhistory>
														<uuid>5408A418-D64A-40FA-BE07-A5B082B8D76E</uuid>
													</itemhistory>
												</clipitem>
												<clipitem id="Raw B Roll Hack Manhattan Matthew Duepner's House83">
													<name>Raw B Roll Hack Manhattan Matthew Duepner's House</name>
													<duration>6617</duration>
													<rate>
														<ntsc>TRUE</ntsc>
														<timebase>24</timebase>
													</rate>
													<in>5318</in>
													<out>5486</out>
													<start>941</start>
													<end>1109</end>
													<masterclipid>Raw B Roll Hack Manhattan Matthew Duepner's House1</masterclipid>
													<logginginfo>
														<scene/>
														<shottake/>
														<lognote/>
														<good>FALSE</good>
													</logginginfo>
													<labels>
														<label2/>
													</labels>
													<comments>
														<mastercomment1/>
														<mastercomment2/>
														<mastercomment3/>
														<mastercomment4/>
													</comments>
													<file id="YIN_2013-04-28_JB-1 "/>
													<filter>
														<effect>
															<name>Audio Levels</name>
															<effectid>audiolevels</effectid>
															<effectcategory>audiolevels</effectcategory>
															<effecttype>audiolevels</effecttype>
															<mediatype>audio</mediatype>
															<parameter>
																<name>Level</name>
																<parameterid>level</parameterid>
																<valuemin>0</valuemin>
																<valuemax>3.98109</valuemax>
																<value>1</value>
															</parameter>
														</effect>
													</filter>
													<filter>
														<effect>
															<name>Audio Pan</name>
															<effectid>audiopan</effectid>
															<effectcategory>audiopan</effectcategory>
															<effecttype>audiopan</effecttype>
															<mediatype>audio</mediatype>
															<parameter>
																<name>Pan</name>
																<parameterid>pan</parameterid>
																<valuemin>-1</valuemin>
																<valuemax>1</valuemax>
																<value>0</value>
															</parameter>
														</effect>
													</filter>
													<sourcetrack>
														<mediatype>audio</mediatype>
														<trackindex>1</trackindex>
													</sourcetrack>
													<link>
														<linkclipref>Raw B Roll Hack Manhattan Matthew Duepner's House82</linkclipref>
														<mediatype>video</mediatype>
														<trackindex>1</trackindex>
														<clipindex>11</clipindex>
													</link>
													<link>
														<linkclipref>Raw B Roll Hack Manhattan Matthew Duepner's House83</linkclipref>
														<mediatype>audio</mediatype>
														<trackindex>1</trackindex>
														<clipindex>11</clipindex>
														<groupindex>1</groupindex>
													</link>
													<link>
														<linkclipref>Raw B Roll Hack Manhattan Matthew Duepner's House84</linkclipref>
														<mediatype>audio</mediatype>
														<trackindex>2</trackindex>
														<clipindex>11</clipindex>
														<groupindex>1</groupindex>
													</link>
													<itemhistory>
														<uuid>3024F79D-7D96-4249-BC09-99FB8A2DDE20</uuid>
													</itemhistory>
												</clipitem>
												<clipitem id="Raw B Roll Hack Manhattan Matthew Duepner's House86">
													<name>Raw B Roll Hack Manhattan Matthew Duepner's House</name>
													<duration>6617</duration>
													<rate>
														<ntsc>TRUE</ntsc>
														<timebase>24</timebase>
													</rate>
													<in>2948</in>
													<out>3117</out>
													<start>1109</start>
													<end>1278</end>
													<masterclipid>Raw B Roll Hack Manhattan Matthew Duepner's House1</masterclipid>
													<logginginfo>
														<scene/>
														<shottake/>
														<lognote/>
														<good>FALSE</good>
													</logginginfo>
													<labels>
														<label2/>
													</labels>
													<comments>
														<mastercomment1/>
														<mastercomment2/>
														<mastercomment3/>
														<mastercomment4/>
													</comments>
													<file id="YIN_2013-04-28_JB-1 "/>
													<filter>
														<effect>
															<name>Audio Levels</name>
															<effectid>audiolevels</effectid>
															<effectcategory>audiolevels</effectcategory>
															<effecttype>audiolevels</effecttype>
															<mediatype>audio</mediatype>
															<parameter>
																<name>Level</name>
																<parameterid>level</parameterid>
																<valuemin>0</valuemin>
																<valuemax>3.98109</valuemax>
																<value>1</value>
															</parameter>
														</effect>
													</filter>
													<filter>
														<effect>
															<name>Audio Pan</name>
															<effectid>audiopan</effectid>
															<effectcategory>audiopan</effectcategory>
															<effecttype>audiopan</effecttype>
															<mediatype>audio</mediatype>
															<parameter>
																<name>Pan</name>
																<parameterid>pan</parameterid>
																<valuemin>-1</valuemin>
																<valuemax>1</valuemax>
																<value>0</value>
															</parameter>
														</effect>
													</filter>
													<sourcetrack>
														<mediatype>audio</mediatype>
														<trackindex>1</trackindex>
													</sourcetrack>
													<link>
														<linkclipref>Raw B Roll Hack Manhattan Matthew Duepner's House85</linkclipref>
														<mediatype>video</mediatype>
														<trackindex>1</trackindex>
														<clipindex>12</clipindex>
													</link>
													<link>
														<linkclipref>Raw B Roll Hack Manhattan Matthew Duepner's House86</linkclipref>
														<mediatype>audio</mediatype>
														<trackindex>1</trackindex>
														<clipindex>12</clipindex>
														<groupindex>1</groupindex>
													</link>
													<link>
														<linkclipref>Raw B Roll Hack Manhattan Matthew Duepner's House87</linkclipref>
														<mediatype>audio</mediatype>
														<trackindex>2</trackindex>
														<clipindex>12</clipindex>
														<groupindex>1</groupindex>
													</link>
													<itemhistory>
														<uuid>49363BD1-BC8D-496E-9BAE-F90163D5AB22</uuid>
													</itemhistory>
												</clipitem>
												<clipitem id="Raw B Roll Hack Manhattan Matthew Duepner's House89">
													<name>Raw B Roll Hack Manhattan Matthew Duepner's House</name>
													<duration>6617</duration>
													<rate>
														<ntsc>TRUE</ntsc>
														<timebase>24</timebase>
													</rate>
													<in>4099</in>
													<out>4179</out>
													<start>1278</start>
													<end>1358</end>
													<masterclipid>Raw B Roll Hack Manhattan Matthew Duepner's House1</masterclipid>
													<logginginfo>
														<scene/>
														<shottake/>
														<lognote/>
														<good>FALSE</good>
													</logginginfo>
													<labels>
														<label2/>
													</labels>
													<comments>
														<mastercomment1/>
														<mastercomment2/>
														<mastercomment3/>
														<mastercomment4/>
													</comments>
													<file id="YIN_2013-04-28_JB-1 "/>
													<filter>
														<effect>
															<name>Audio Levels</name>
															<effectid>audiolevels</effectid>
															<effectcategory>audiolevels</effectcategory>
															<effecttype>audiolevels</effecttype>
															<mediatype>audio</mediatype>
															<parameter>
																<name>Level</name>
																<parameterid>level</parameterid>
																<valuemin>0</valuemin>
																<valuemax>3.98109</valuemax>
																<value>1</value>
															</parameter>
														</effect>
													</filter>
													<filter>
														<effect>
															<name>Audio Pan</name>
															<effectid>audiopan</effectid>
															<effectcategory>audiopan</effectcategory>
															<effecttype>audiopan</effecttype>
															<mediatype>audio</mediatype>
															<parameter>
																<name>Pan</name>
																<parameterid>pan</parameterid>
																<valuemin>-1</valuemin>
																<valuemax>1</valuemax>
																<value>0</value>
															</parameter>
														</effect>
													</filter>
													<sourcetrack>
														<mediatype>audio</mediatype>
														<trackindex>1</trackindex>
													</sourcetrack>
													<link>
														<linkclipref>Raw B Roll Hack Manhattan Matthew Duepner's House88</linkclipref>
														<mediatype>video</mediatype>
														<trackindex>1</trackindex>
														<clipindex>13</clipindex>
													</link>
													<link>
														<linkclipref>Raw B Roll Hack Manhattan Matthew Duepner's House89</linkclipref>
														<mediatype>audio</mediatype>
														<trackindex>1</trackindex>
														<clipindex>13</clipindex>
														<groupindex>1</groupindex>
													</link>
													<link>
														<linkclipref>Raw B Roll Hack Manhattan Matthew Duepner's House90</linkclipref>
														<mediatype>audio</mediatype>
														<trackindex>2</trackindex>
														<clipindex>13</clipindex>
														<groupindex>1</groupindex>
													</link>
													<itemhistory>
														<uuid>1D63B866-B885-4658-8559-FC8E94064E42</uuid>
													</itemhistory>
												</clipitem>
												<clipitem id="Raw B Roll Hack Manhattan Matthew Duepner's House92">
													<name>Raw B Roll Hack Manhattan Matthew Duepner's House</name>
													<duration>6617</duration>
													<rate>
														<ntsc>TRUE</ntsc>
														<timebase>24</timebase>
													</rate>
													<in>4305</in>
													<out>4396</out>
													<start>1358</start>
													<end>1449</end>
													<masterclipid>Raw B Roll Hack Manhattan Matthew Duepner's House1</masterclipid>
													<logginginfo>
														<scene/>
														<shottake/>
														<lognote/>
														<good>FALSE</good>
													</logginginfo>
													<labels>
														<label2/>
													</labels>
													<comments>
														<mastercomment1/>
														<mastercomment2/>
														<mastercomment3/>
														<mastercomment4/>
													</comments>
													<file id="YIN_2013-04-28_JB-1 "/>
													<filter>
														<effect>
															<name>Audio Levels</name>
															<effectid>audiolevels</effectid>
															<effectcategory>audiolevels</effectcategory>
															<effecttype>audiolevels</effecttype>
															<mediatype>audio</mediatype>
															<parameter>
																<name>Level</name>
																<parameterid>level</parameterid>
																<valuemin>0</valuemin>
																<valuemax>3.98109</valuemax>
																<value>1</value>
															</parameter>
														</effect>
													</filter>
													<filter>
														<effect>
															<name>Audio Pan</name>
															<effectid>audiopan</effectid>
															<effectcategory>audiopan</effectcategory>
															<effecttype>audiopan</effecttype>
															<mediatype>audio</mediatype>
															<parameter>
																<name>Pan</name>
																<parameterid>pan</parameterid>
																<valuemin>-1</valuemin>
																<valuemax>1</valuemax>
																<value>0</value>
															</parameter>
														</effect>
													</filter>
													<sourcetrack>
														<mediatype>audio</mediatype>
														<trackindex>1</trackindex>
													</sourcetrack>
													<link>
														<linkclipref>Raw B Roll Hack Manhattan Matthew Duepner's House91</linkclipref>
														<mediatype>video</mediatype>
														<trackindex>1</trackindex>
														<clipindex>14</clipindex>
													</link>
													<link>
														<linkclipref>Raw B Roll Hack Manhattan Matthew Duepner's House92</linkclipref>
														<mediatype>audio</mediatype>
														<trackindex>1</trackindex>
														<clipindex>14</clipindex>
														<groupindex>1</groupindex>
													</link>
													<link>
														<linkclipref>Raw B Roll Hack Manhattan Matthew Duepner's House93</linkclipref>
														<mediatype>audio</mediatype>
														<trackindex>2</trackindex>
														<clipindex>14</clipindex>
														<groupindex>1</groupindex>
													</link>
													<itemhistory>
														<uuid>0E44A3C9-477B-40E7-8154-02196D14806F</uuid>
													</itemhistory>
												</clipitem>
												<clipitem id="Raw B Roll Hack Manhattan Matthew Duepner's House95">
													<name>Raw B Roll Hack Manhattan Matthew Duepner's House</name>
													<duration>6617</duration>
													<rate>
														<ntsc>TRUE</ntsc>
														<timebase>24</timebase>
													</rate>
													<in>4585</in>
													<out>4685</out>
													<start>1449</start>
													<end>1549</end>
													<masterclipid>Raw B Roll Hack Manhattan Matthew Duepner's House1</masterclipid>
													<logginginfo>
														<scene/>
														<shottake/>
														<lognote/>
														<good>FALSE</good>
													</logginginfo>
													<labels>
														<label2/>
													</labels>
													<comments>
														<mastercomment1/>
														<mastercomment2/>
														<mastercomment3/>
														<mastercomment4/>
													</comments>
													<file id="YIN_2013-04-28_JB-1 "/>
													<filter>
														<effect>
															<name>Audio Levels</name>
															<effectid>audiolevels</effectid>
															<effectcategory>audiolevels</effectcategory>
															<effecttype>audiolevels</effecttype>
															<mediatype>audio</mediatype>
															<parameter>
																<name>Level</name>
																<parameterid>level</parameterid>
																<valuemin>0</valuemin>
																<valuemax>3.98109</valuemax>
																<value>1</value>
															</parameter>
														</effect>
													</filter>
													<filter>
														<effect>
															<name>Audio Pan</name>
															<effectid>audiopan</effectid>
															<effectcategory>audiopan</effectcategory>
															<effecttype>audiopan</effecttype>
															<mediatype>audio</mediatype>
															<parameter>
																<name>Pan</name>
																<parameterid>pan</parameterid>
																<valuemin>-1</valuemin>
																<valuemax>1</valuemax>
																<value>0</value>
															</parameter>
														</effect>
													</filter>
													<sourcetrack>
														<mediatype>audio</mediatype>
														<trackindex>1</trackindex>
													</sourcetrack>
													<link>
														<linkclipref>Raw B Roll Hack Manhattan Matthew Duepner's House94</linkclipref>
														<mediatype>video</mediatype>
														<trackindex>1</trackindex>
														<clipindex>15</clipindex>
													</link>
													<link>
														<linkclipref>Raw B Roll Hack Manhattan Matthew Duepner's House95</linkclipref>
														<mediatype>audio</mediatype>
														<trackindex>1</trackindex>
														<clipindex>15</clipindex>
														<groupindex>1</groupindex>
													</link>
													<link>
														<linkclipref>Raw B Roll Hack Manhattan Matthew Duepner's House96</linkclipref>
														<mediatype>audio</mediatype>
														<trackindex>2</trackindex>
														<clipindex>15</clipindex>
														<groupindex>1</groupindex>
													</link>
													<itemhistory>
														<uuid>7D5F21A4-E324-469E-850E-F64B8D2FD2E8</uuid>
													</itemhistory>
												</clipitem>
												<clipitem id="Raw Scene Matthew Duepner Printing77">
													<name>Raw Scene Matthew Duepner Printing</name>
													<duration>28553</duration>
													<rate>
														<ntsc>TRUE</ntsc>
														<timebase>24</timebase>
													</rate>
													<in>25118</in>
													<out>25193</out>
													<start>1549</start>
													<end>1624</end>
													<masterclipid>Raw Scene Matthew Duepner Printing72</masterclipid>
													<logginginfo>
														<scene/>
														<shottake/>
														<lognote/>
														<good>FALSE</good>
													</logginginfo>
													<labels>
														<label2/>
													</labels>
													<comments>
														<mastercomment1/>
														<mastercomment2/>
														<mastercomment3/>
														<mastercomment4/>
													</comments>
													<file id="YIN_2013-05-28_LG-6 "/>
													<filter>
														<effect>
															<name>Audio Levels</name>
															<effectid>audiolevels</effectid>
															<effectcategory>audiolevels</effectcategory>
															<effecttype>audiolevels</effecttype>
															<mediatype>audio</mediatype>
															<parameter>
																<name>Level</name>
																<parameterid>level</parameterid>
																<valuemin>0</valuemin>
																<valuemax>3.98109</valuemax>
																<value>1</value>
															</parameter>
														</effect>
													</filter>
													<filter>
														<effect>
															<name>Audio Pan</name>
															<effectid>audiopan</effectid>
															<effectcategory>audiopan</effectcategory>
															<effecttype>audiopan</effecttype>
															<mediatype>audio</mediatype>
															<parameter>
																<name>Pan</name>
																<parameterid>pan</parameterid>
																<valuemin>-1</valuemin>
																<valuemax>1</valuemax>
																<value>0</value>
															</parameter>
														</effect>
													</filter>
													<sourcetrack>
														<mediatype>audio</mediatype>
														<trackindex>1</trackindex>
													</sourcetrack>
													<link>
														<linkclipref>Raw Scene Matthew Duepner Printing76</linkclipref>
														<mediatype>video</mediatype>
														<trackindex>1</trackindex>
														<clipindex>16</clipindex>
													</link>
													<link>
														<linkclipref>Raw Scene Matthew Duepner Printing77</linkclipref>
														<mediatype>audio</mediatype>
														<trackindex>1</trackindex>
														<clipindex>16</clipindex>
														<groupindex>1</groupindex>
													</link>
													<link>
														<linkclipref>Raw Scene Matthew Duepner Printing78</linkclipref>
														<mediatype>audio</mediatype>
														<trackindex>2</trackindex>
														<clipindex>16</clipindex>
														<groupindex>1</groupindex>
													</link>
													<itemhistory>
														<uuid>B42B7BD6-2E31-49DE-A664-AFD47A59802B</uuid>
													</itemhistory>
												</clipitem>
												<clipitem id="Raw B Roll Hack Manhattan Matthew Duepner's House98">
													<name>Raw B Roll Hack Manhattan Matthew Duepner's House</name>
													<duration>6617</duration>
													<rate>
														<ntsc>TRUE</ntsc>
														<timebase>24</timebase>
													</rate>
													<in>3931</in>
													<out>4052</out>
													<start>1624</start>
													<end>1745</end>
													<masterclipid>Raw B Roll Hack Manhattan Matthew Duepner's House1</masterclipid>
													<logginginfo>
														<scene/>
														<shottake/>
														<lognote/>
														<good>FALSE</good>
													</logginginfo>
													<labels>
														<label2/>
													</labels>
													<comments>
														<mastercomment1/>
														<mastercomment2/>
														<mastercomment3/>
														<mastercomment4/>
													</comments>
													<file id="YIN_2013-04-28_JB-1 "/>
													<filter>
														<effect>
															<name>Audio Levels</name>
															<effectid>audiolevels</effectid>
															<effectcategory>audiolevels</effectcategory>
															<effecttype>audiolevels</effecttype>
															<mediatype>audio</mediatype>
															<parameter>
																<name>Level</name>
																<parameterid>level</parameterid>
																<valuemin>0</valuemin>
																<valuemax>3.98109</valuemax>
																<value>1</value>
															</parameter>
														</effect>
													</filter>
													<filter>
														<effect>
															<name>Audio Pan</name>
															<effectid>audiopan</effectid>
															<effectcategory>audiopan</effectcategory>
															<effecttype>audiopan</effecttype>
															<mediatype>audio</mediatype>
															<parameter>
																<name>Pan</name>
																<parameterid>pan</parameterid>
																<valuemin>-1</valuemin>
																<valuemax>1</valuemax>
																<value>0</value>
															</parameter>
														</effect>
													</filter>
													<sourcetrack>
														<mediatype>audio</mediatype>
														<trackindex>1</trackindex>
													</sourcetrack>
													<link>
														<linkclipref>Raw B Roll Hack Manhattan Matthew Duepner's House97</linkclipref>
														<mediatype>video</mediatype>
														<trackindex>1</trackindex>
														<clipindex>17</clipindex>
													</link>
													<link>
														<linkclipref>Raw B Roll Hack Manhattan Matthew Duepner's House98</linkclipref>
														<mediatype>audio</mediatype>
														<trackindex>1</trackindex>
														<clipindex>17</clipindex>
														<groupindex>1</groupindex>
													</link>
													<link>
														<linkclipref>Raw B Roll Hack Manhattan Matthew Duepner's House99</linkclipref>
														<mediatype>audio</mediatype>
														<trackindex>2</trackindex>
														<clipindex>17</clipindex>
														<groupindex>1</groupindex>
													</link>
													<itemhistory>
														<uuid>9E1A6577-91C6-4CCB-85E8-7FEBA2FB2378</uuid>
													</itemhistory>
												</clipitem>
												<clipitem id="Raw B Roll Hack Manhattan Matthew Duepner's House101">
													<name>Raw B Roll Hack Manhattan Matthew Duepner's House</name>
													<duration>6617</duration>
													<rate>
														<ntsc>TRUE</ntsc>
														<timebase>24</timebase>
													</rate>
													<in>5073</in>
													<out>5227</out>
													<start>1745</start>
													<end>1899</end>
													<masterclipid>Raw B Roll Hack Manhattan Matthew Duepner's House1</masterclipid>
													<logginginfo>
														<scene/>
														<shottake/>
														<lognote/>
														<good>FALSE</good>
													</logginginfo>
													<labels>
														<label2/>
													</labels>
													<comments>
														<mastercomment1/>
														<mastercomment2/>
														<mastercomment3/>
														<mastercomment4/>
													</comments>
													<file id="YIN_2013-04-28_JB-1 "/>
													<filter>
														<effect>
															<name>Audio Levels</name>
															<effectid>audiolevels</effectid>
															<effectcategory>audiolevels</effectcategory>
															<effecttype>audiolevels</effecttype>
															<mediatype>audio</mediatype>
															<parameter>
																<name>Level</name>
																<parameterid>level</parameterid>
																<valuemin>0</valuemin>
																<valuemax>3.98109</valuemax>
																<value>1</value>
															</parameter>
														</effect>
													</filter>
													<filter>
														<effect>
															<name>Audio Pan</name>
															<effectid>audiopan</effectid>
															<effectcategory>audiopan</effectcategory>
															<effecttype>audiopan</effecttype>
															<mediatype>audio</mediatype>
															<parameter>
																<name>Pan</name>
																<parameterid>pan</parameterid>
																<valuemin>-1</valuemin>
																<valuemax>1</valuemax>
																<value>0</value>
															</parameter>
														</effect>
													</filter>
													<sourcetrack>
														<mediatype>audio</mediatype>
														<trackindex>1</trackindex>
													</sourcetrack>
													<link>
														<linkclipref>Raw B Roll Hack Manhattan Matthew Duepner's House100</linkclipref>
														<mediatype>video</mediatype>
														<trackindex>1</trackindex>
														<clipindex>18</clipindex>
													</link>
													<link>
														<linkclipref>Raw B Roll Hack Manhattan Matthew Duepner's House101</linkclipref>
														<mediatype>audio</mediatype>
														<trackindex>1</trackindex>
														<clipindex>18</clipindex>
														<groupindex>1</groupindex>
													</link>
													<link>
														<linkclipref>Raw B Roll Hack Manhattan Matthew Duepner's House102</linkclipref>
														<mediatype>audio</mediatype>
														<trackindex>2</trackindex>
														<clipindex>18</clipindex>
														<groupindex>1</groupindex>
													</link>
													<itemhistory>
														<uuid>2FC65D3A-A064-43DF-8E5F-15D8798EB4C9</uuid>
													</itemhistory>
												</clipitem>
												<clipitem id="Raw Scene Matthew Duepner Printing80">
													<name>Raw Scene Matthew Duepner Printing</name>
													<duration>28553</duration>
													<rate>
														<ntsc>TRUE</ntsc>
														<timebase>24</timebase>
													</rate>
													<in>13248</in>
													<out>13390</out>
													<start>1899</start>
													<end>2041</end>
													<masterclipid>Raw Scene Matthew Duepner Printing72</masterclipid>
													<logginginfo>
														<scene/>
														<shottake/>
														<lognote/>
														<good>FALSE</good>
													</logginginfo>
													<labels>
														<label2/>
													</labels>
													<comments>
														<mastercomment1/>
														<mastercomment2/>
														<mastercomment3/>
														<mastercomment4/>
													</comments>
													<file id="YIN_2013-05-28_LG-6 "/>
													<filter>
														<effect>
															<name>Audio Levels</name>
															<effectid>audiolevels</effectid>
															<effectcategory>audiolevels</effectcategory>
															<effecttype>audiolevels</effecttype>
															<mediatype>audio</mediatype>
															<parameter>
																<name>Level</name>
																<parameterid>level</parameterid>
																<valuemin>0</valuemin>
																<valuemax>3.98109</valuemax>
																<value>1</value>
															</parameter>
														</effect>
													</filter>
													<filter>
														<effect>
															<name>Audio Pan</name>
															<effectid>audiopan</effectid>
															<effectcategory>audiopan</effectcategory>
															<effecttype>audiopan</effecttype>
															<mediatype>audio</mediatype>
															<parameter>
																<name>Pan</name>
																<parameterid>pan</parameterid>
																<valuemin>-1</valuemin>
																<valuemax>1</valuemax>
																<value>0</value>
															</parameter>
														</effect>
													</filter>
													<sourcetrack>
														<mediatype>audio</mediatype>
														<trackindex>1</trackindex>
													</sourcetrack>
													<link>
														<linkclipref>Raw Scene Matthew Duepner Printing79</linkclipref>
														<mediatype>video</mediatype>
														<trackindex>1</trackindex>
														<clipindex>19</clipindex>
													</link>
													<link>
														<linkclipref>Raw Scene Matthew Duepner Printing80</linkclipref>
														<mediatype>audio</mediatype>
														<trackindex>1</trackindex>
														<clipindex>19</clipindex>
														<groupindex>1</groupindex>
													</link>
													<link>
														<linkclipref>Raw Scene Matthew Duepner Printing81</linkclipref>
														<mediatype>audio</mediatype>
														<trackindex>2</trackindex>
														<clipindex>19</clipindex>
														<groupindex>1</groupindex>
													</link>
													<itemhistory>
														<uuid>DBC5CBE1-6DC9-4242-8483-DA0D7ACD1C7F</uuid>
													</itemhistory>
												</clipitem>
												<clipitem id="Raw Scene Matthew Duepner Printing83">
													<name>Raw Scene Matthew Duepner Printing</name>
													<duration>28553</duration>
													<rate>
														<ntsc>TRUE</ntsc>
														<timebase>24</timebase>
													</rate>
													<in>13645</in>
													<out>13872</out>
													<start>2041</start>
													<end>2268</end>
													<masterclipid>Raw Scene Matthew Duepner Printing72</masterclipid>
													<logginginfo>
														<scene/>
														<shottake/>
														<lognote/>
														<good>FALSE</good>
													</logginginfo>
													<labels>
														<label2/>
													</labels>
													<comments>
														<mastercomment1/>
														<mastercomment2/>
														<mastercomment3/>
														<mastercomment4/>
													</comments>
													<file id="YIN_2013-05-28_LG-6 "/>
													<filter>
														<effect>
															<name>Audio Levels</name>
															<effectid>audiolevels</effectid>
															<effectcategory>audiolevels</effectcategory>
															<effecttype>audiolevels</effecttype>
															<mediatype>audio</mediatype>
															<parameter>
																<name>Level</name>
																<parameterid>level</parameterid>
																<valuemin>0</valuemin>
																<valuemax>3.98109</valuemax>
																<value>1</value>
															</parameter>
														</effect>
													</filter>
													<filter>
														<effect>
															<name>Audio Pan</name>
															<effectid>audiopan</effectid>
															<effectcategory>audiopan</effectcategory>
															<effecttype>audiopan</effecttype>
															<mediatype>audio</mediatype>
															<parameter>
																<name>Pan</name>
																<parameterid>pan</parameterid>
																<valuemin>-1</valuemin>
																<valuemax>1</valuemax>
																<value>0</value>
															</parameter>
														</effect>
													</filter>
													<sourcetrack>
														<mediatype>audio</mediatype>
														<trackindex>1</trackindex>
													</sourcetrack>
													<link>
														<linkclipref>Raw Scene Matthew Duepner Printing82</linkclipref>
														<mediatype>video</mediatype>
														<trackindex>1</trackindex>
														<clipindex>20</clipindex>
													</link>
													<link>
														<linkclipref>Raw Scene Matthew Duepner Printing83</linkclipref>
														<mediatype>audio</mediatype>
														<trackindex>1</trackindex>
														<clipindex>20</clipindex>
														<groupindex>1</groupindex>
													</link>
													<link>
														<linkclipref>Raw Scene Matthew Duepner Printing84</linkclipref>
														<mediatype>audio</mediatype>
														<trackindex>2</trackindex>
														<clipindex>20</clipindex>
														<groupindex>1</groupindex>
													</link>
													<itemhistory>
														<uuid>6280F777-B7FF-4E3A-A5AF-A55A912BF4B1</uuid>
													</itemhistory>
												</clipitem>
												<clipitem id="Raw Scene Matthew Duepner Printing86">
													<name>Raw Scene Matthew Duepner Printing</name>
													<duration>28553</duration>
													<rate>
														<ntsc>TRUE</ntsc>
														<timebase>24</timebase>
													</rate>
													<in>14375</in>
													<out>14590</out>
													<start>2268</start>
													<end>2483</end>
													<masterclipid>Raw Scene Matthew Duepner Printing72</masterclipid>
													<logginginfo>
														<scene/>
														<shottake/>
														<lognote/>
														<good>FALSE</good>
													</logginginfo>
													<labels>
														<label2/>
													</labels>
													<comments>
														<mastercomment1/>
														<mastercomment2/>
														<mastercomment3/>
														<mastercomment4/>
													</comments>
													<file id="YIN_2013-05-28_LG-6 "/>
													<filter>
														<effect>
															<name>Audio Levels</name>
															<effectid>audiolevels</effectid>
															<effectcategory>audiolevels</effectcategory>
															<effecttype>audiolevels</effecttype>
															<mediatype>audio</mediatype>
															<parameter>
																<name>Level</name>
																<parameterid>level</parameterid>
																<valuemin>0</valuemin>
																<valuemax>3.98109</valuemax>
																<value>1</value>
															</parameter>
														</effect>
													</filter>
													<filter>
														<effect>
															<name>Audio Pan</name>
															<effectid>audiopan</effectid>
															<effectcategory>audiopan</effectcategory>
															<effecttype>audiopan</effecttype>
															<mediatype>audio</mediatype>
															<parameter>
																<name>Pan</name>
																<parameterid>pan</parameterid>
																<valuemin>-1</valuemin>
																<valuemax>1</valuemax>
																<value>0</value>
															</parameter>
														</effect>
													</filter>
													<sourcetrack>
														<mediatype>audio</mediatype>
														<trackindex>1</trackindex>
													</sourcetrack>
													<link>
														<linkclipref>Raw Scene Matthew Duepner Printing85</linkclipref>
														<mediatype>video</mediatype>
														<trackindex>1</trackindex>
														<clipindex>21</clipindex>
													</link>
													<link>
														<linkclipref>Raw Scene Matthew Duepner Printing86</linkclipref>
														<mediatype>audio</mediatype>
														<trackindex>1</trackindex>
														<clipindex>21</clipindex>
														<groupindex>1</groupindex>
													</link>
													<link>
														<linkclipref>Raw Scene Matthew Duepner Printing87</linkclipref>
														<mediatype>audio</mediatype>
														<trackindex>2</trackindex>
														<clipindex>21</clipindex>
														<groupindex>1</groupindex>
													</link>
													<itemhistory>
														<uuid>713A41CF-6EA8-4BF3-BE54-06F5C1D67A27</uuid>
													</itemhistory>
												</clipitem>
												<clipitem id="Raw Scene Matthew Duepner Printing89">
													<name>Raw Scene Matthew Duepner Printing</name>
													<duration>28553</duration>
													<rate>
														<ntsc>TRUE</ntsc>
														<timebase>24</timebase>
													</rate>
													<in>17176</in>
													<out>17239</out>
													<start>2483</start>
													<end>2546</end>
													<masterclipid>Raw Scene Matthew Duepner Printing72</masterclipid>
													<logginginfo>
														<scene/>
														<shottake/>
														<lognote/>
														<good>FALSE</good>
													</logginginfo>
													<labels>
														<label2/>
													</labels>
													<comments>
														<mastercomment1/>
														<mastercomment2/>
														<mastercomment3/>
														<mastercomment4/>
													</comments>
													<file id="YIN_2013-05-28_LG-6 "/>
													<filter>
														<effect>
															<name>Audio Levels</name>
															<effectid>audiolevels</effectid>
															<effectcategory>audiolevels</effectcategory>
															<effecttype>audiolevels</effecttype>
															<mediatype>audio</mediatype>
															<parameter>
																<name>Level</name>
																<parameterid>level</parameterid>
																<valuemin>0</valuemin>
																<valuemax>3.98109</valuemax>
																<value>1</value>
															</parameter>
														</effect>
													</filter>
													<filter>
														<effect>
															<name>Audio Pan</name>
															<effectid>audiopan</effectid>
															<effectcategory>audiopan</effectcategory>
															<effecttype>audiopan</effecttype>
															<mediatype>audio</mediatype>
															<parameter>
																<name>Pan</name>
																<parameterid>pan</parameterid>
																<valuemin>-1</valuemin>
																<valuemax>1</valuemax>
																<value>0</value>
															</parameter>
														</effect>
													</filter>
													<sourcetrack>
														<mediatype>audio</mediatype>
														<trackindex>1</trackindex>
													</sourcetrack>
													<link>
														<linkclipref>Raw Scene Matthew Duepner Printing88</linkclipref>
														<mediatype>video</mediatype>
														<trackindex>1</trackindex>
														<clipindex>22</clipindex>
													</link>
													<link>
														<linkclipref>Raw Scene Matthew Duepner Printing89</linkclipref>
														<mediatype>audio</mediatype>
														<trackindex>1</trackindex>
														<clipindex>22</clipindex>
														<groupindex>1</groupindex>
													</link>
													<link>
														<linkclipref>Raw Scene Matthew Duepner Printing90</linkclipref>
														<mediatype>audio</mediatype>
														<trackindex>2</trackindex>
														<clipindex>22</clipindex>
														<groupindex>1</groupindex>
													</link>
													<itemhistory>
														<uuid>914DA492-AFF2-48F8-8B08-403503AB5958</uuid>
													</itemhistory>
												</clipitem>
												<clipitem id="Raw Scene Matthew Duepner Printing92">
													<name>Raw Scene Matthew Duepner Printing</name>
													<duration>28553</duration>
													<rate>
														<ntsc>TRUE</ntsc>
														<timebase>24</timebase>
													</rate>
													<in>22417</in>
													<out>22543</out>
													<start>2546</start>
													<end>2672</end>
													<masterclipid>Raw Scene Matthew Duepner Printing72</masterclipid>
													<logginginfo>
														<scene/>
														<shottake/>
														<lognote/>
														<good>FALSE</good>
													</logginginfo>
													<labels>
														<label2/>
													</labels>
													<comments>
														<mastercomment1/>
														<mastercomment2/>
														<mastercomment3/>
														<mastercomment4/>
													</comments>
													<file id="YIN_2013-05-28_LG-6 "/>
													<filter>
														<effect>
															<name>Audio Levels</name>
															<effectid>audiolevels</effectid>
															<effectcategory>audiolevels</effectcategory>
															<effecttype>audiolevels</effecttype>
															<mediatype>audio</mediatype>
															<parameter>
																<name>Level</name>
																<parameterid>level</parameterid>
																<valuemin>0</valuemin>
																<valuemax>3.98109</valuemax>
																<value>1</value>
															</parameter>
														</effect>
													</filter>
													<filter>
														<effect>
															<name>Audio Pan</name>
															<effectid>audiopan</effectid>
															<effectcategory>audiopan</effectcategory>
															<effecttype>audiopan</effecttype>
															<mediatype>audio</mediatype>
															<parameter>
																<name>Pan</name>
																<parameterid>pan</parameterid>
																<valuemin>-1</valuemin>
																<valuemax>1</valuemax>
																<value>0</value>
															</parameter>
														</effect>
													</filter>
													<sourcetrack>
														<mediatype>audio</mediatype>
														<trackindex>1</trackindex>
													</sourcetrack>
													<link>
														<linkclipref>Raw Scene Matthew Duepner Printing91</linkclipref>
														<mediatype>video</mediatype>
														<trackindex>1</trackindex>
														<clipindex>23</clipindex>
													</link>
													<link>
														<linkclipref>Raw Scene Matthew Duepner Printing92</linkclipref>
														<mediatype>audio</mediatype>
														<trackindex>1</trackindex>
														<clipindex>23</clipindex>
														<groupindex>1</groupindex>
													</link>
													<link>
														<linkclipref>Raw Scene Matthew Duepner Printing93</linkclipref>
														<mediatype>audio</mediatype>
														<trackindex>2</trackindex>
														<clipindex>23</clipindex>
														<groupindex>1</groupindex>
													</link>
													<itemhistory>
														<uuid>A209B8F0-6B42-4227-BDF0-81D5FEF56593</uuid>
													</itemhistory>
												</clipitem>
												<clipitem id="Raw Scene Matthew Duepner Printing95">
													<name>Raw Scene Matthew Duepner Printing</name>
													<duration>28553</duration>
													<rate>
														<ntsc>TRUE</ntsc>
														<timebase>24</timebase>
													</rate>
													<in>22831</in>
													<out>22878</out>
													<start>2672</start>
													<end>2719</end>
													<masterclipid>Raw Scene Matthew Duepner Printing72</masterclipid>
													<logginginfo>
														<scene/>
														<shottake/>
														<lognote/>
														<good>FALSE</good>
													</logginginfo>
													<labels>
														<label2/>
													</labels>
													<comments>
														<mastercomment1/>
														<mastercomment2/>
														<mastercomment3/>
														<mastercomment4/>
													</comments>
													<file id="YIN_2013-05-28_LG-6 "/>
													<filter>
														<effect>
															<name>Audio Levels</name>
															<effectid>audiolevels</effectid>
															<effectcategory>audiolevels</effectcategory>
															<effecttype>audiolevels</effecttype>
															<mediatype>audio</mediatype>
															<parameter>
																<name>Level</name>
																<parameterid>level</parameterid>
																<valuemin>0</valuemin>
																<valuemax>3.98109</valuemax>
																<value>1</value>
															</parameter>
														</effect>
													</filter>
													<filter>
														<effect>
															<name>Audio Pan</name>
															<effectid>audiopan</effectid>
															<effectcategory>audiopan</effectcategory>
															<effecttype>audiopan</effecttype>
															<mediatype>audio</mediatype>
															<parameter>
																<name>Pan</name>
																<parameterid>pan</parameterid>
																<valuemin>-1</valuemin>
																<valuemax>1</valuemax>
																<value>0</value>
															</parameter>
														</effect>
													</filter>
													<sourcetrack>
														<mediatype>audio</mediatype>
														<trackindex>1</trackindex>
													</sourcetrack>
													<link>
														<linkclipref>Raw Scene Matthew Duepner Printing94</linkclipref>
														<mediatype>video</mediatype>
														<trackindex>1</trackindex>
														<clipindex>24</clipindex>
													</link>
													<link>
														<linkclipref>Raw Scene Matthew Duepner Printing95</linkclipref>
														<mediatype>audio</mediatype>
														<trackindex>1</trackindex>
														<clipindex>24</clipindex>
														<groupindex>1</groupindex>
													</link>
													<link>
														<linkclipref>Raw Scene Matthew Duepner Printing96</linkclipref>
														<mediatype>audio</mediatype>
														<trackindex>2</trackindex>
														<clipindex>24</clipindex>
														<groupindex>1</groupindex>
													</link>
													<itemhistory>
														<uuid>1A83C1A1-80A2-47A7-8425-D966A9947B9A</uuid>
													</itemhistory>
												</clipitem>
												<clipitem id="Raw Scene Matthew Duepner Printing98">
													<name>Raw Scene Matthew Duepner Printing</name>
													<duration>28553</duration>
													<rate>
														<ntsc>TRUE</ntsc>
														<timebase>24</timebase>
													</rate>
													<in>23483</in>
													<out>23542</out>
													<start>2719</start>
													<end>2778</end>
													<masterclipid>Raw Scene Matthew Duepner Printing72</masterclipid>
													<logginginfo>
														<scene/>
														<shottake/>
														<lognote/>
														<good>FALSE</good>
													</logginginfo>
													<labels>
														<label2/>
													</labels>
													<comments>
														<mastercomment1/>
														<mastercomment2/>
														<mastercomment3/>
														<mastercomment4/>
													</comments>
													<file id="YIN_2013-05-28_LG-6 "/>
													<filter>
														<effect>
															<name>Audio Levels</name>
															<effectid>audiolevels</effectid>
															<effectcategory>audiolevels</effectcategory>
															<effecttype>audiolevels</effecttype>
															<mediatype>audio</mediatype>
															<parameter>
																<name>Level</name>
																<parameterid>level</parameterid>
																<valuemin>0</valuemin>
																<valuemax>3.98109</valuemax>
																<value>1</value>
															</parameter>
														</effect>
													</filter>
													<filter>
														<effect>
															<name>Audio Pan</name>
															<effectid>audiopan</effectid>
															<effectcategory>audiopan</effectcategory>
															<effecttype>audiopan</effecttype>
															<mediatype>audio</mediatype>
															<parameter>
																<name>Pan</name>
																<parameterid>pan</parameterid>
																<valuemin>-1</valuemin>
																<valuemax>1</valuemax>
																<value>0</value>
															</parameter>
														</effect>
													</filter>
													<sourcetrack>
														<mediatype>audio</mediatype>
														<trackindex>1</trackindex>
													</sourcetrack>
													<link>
														<linkclipref>Raw Scene Matthew Duepner Printing97</linkclipref>
														<mediatype>video</mediatype>
														<trackindex>1</trackindex>
														<clipindex>25</clipindex>
													</link>
													<link>
														<linkclipref>Raw Scene Matthew Duepner Printing98</linkclipref>
														<mediatype>audio</mediatype>
														<trackindex>1</trackindex>
														<clipindex>25</clipindex>
														<groupindex>1</groupindex>
													</link>
													<link>
														<linkclipref>Raw Scene Matthew Duepner Printing99</linkclipref>
														<mediatype>audio</mediatype>
														<trackindex>2</trackindex>
														<clipindex>25</clipindex>
														<groupindex>1</groupindex>
													</link>
													<itemhistory>
														<uuid>6FF40225-CA81-4ED9-8E0C-3D95E8EBEDC7</uuid>
													</itemhistory>
												</clipitem>
												<clipitem id="Raw Scene Matthew Duepner Printing101">
													<name>Raw Scene Matthew Duepner Printing</name>
													<duration>28553</duration>
													<rate>
														<ntsc>TRUE</ntsc>
														<timebase>24</timebase>
													</rate>
													<in>23633</in>
													<out>23762</out>
													<start>2778</start>
													<end>2907</end>
													<masterclipid>Raw Scene Matthew Duepner Printing72</masterclipid>
													<logginginfo>
														<scene/>
														<shottake/>
														<lognote/>
														<good>FALSE</good>
													</logginginfo>
													<labels>
														<label2/>
													</labels>
													<comments>
														<mastercomment1/>
														<mastercomment2/>
														<mastercomment3/>
														<mastercomment4/>
													</comments>
													<file id="YIN_2013-05-28_LG-6 "/>
													<filter>
														<effect>
															<name>Audio Levels</name>
															<effectid>audiolevels</effectid>
															<effectcategory>audiolevels</effectcategory>
															<effecttype>audiolevels</effecttype>
															<mediatype>audio</mediatype>
															<parameter>
																<name>Level</name>
																<parameterid>level</parameterid>
																<valuemin>0</valuemin>
																<valuemax>3.98109</valuemax>
																<value>1</value>
															</parameter>
														</effect>
													</filter>
													<filter>
														<effect>
															<name>Audio Pan</name>
															<effectid>audiopan</effectid>
															<effectcategory>audiopan</effectcategory>
															<effecttype>audiopan</effecttype>
															<mediatype>audio</mediatype>
															<parameter>
																<name>Pan</name>
																<parameterid>pan</parameterid>
																<valuemin>-1</valuemin>
																<valuemax>1</valuemax>
																<value>0</value>
															</parameter>
														</effect>
													</filter>
													<sourcetrack>
														<mediatype>audio</mediatype>
														<trackindex>1</trackindex>
													</sourcetrack>
													<link>
														<linkclipref>Raw Scene Matthew Duepner Printing100</linkclipref>
														<mediatype>video</mediatype>
														<trackindex>1</trackindex>
														<clipindex>26</clipindex>
													</link>
													<link>
														<linkclipref>Raw Scene Matthew Duepner Printing101</linkclipref>
														<mediatype>audio</mediatype>
														<trackindex>1</trackindex>
														<clipindex>26</clipindex>
														<groupindex>1</groupindex>
													</link>
													<link>
														<linkclipref>Raw Scene Matthew Duepner Printing102</linkclipref>
														<mediatype>audio</mediatype>
														<trackindex>2</trackindex>
														<clipindex>26</clipindex>
														<groupindex>1</groupindex>
													</link>
													<itemhistory>
														<uuid>29BFEB02-2625-4A98-A235-EB2651B77926</uuid>
													</itemhistory>
												</clipitem>
												<clipitem id="Raw Scene Matthew Duepner Printing104">
													<name>Raw Scene Matthew Duepner Printing</name>
													<duration>28553</duration>
													<rate>
														<ntsc>TRUE</ntsc>
														<timebase>24</timebase>
													</rate>
													<in>24554</in>
													<out>24706</out>
													<start>2907</start>
													<end>3059</end>
													<masterclipid>Raw Scene Matthew Duepner Printing72</masterclipid>
													<logginginfo>
														<scene/>
														<shottake/>
														<lognote/>
														<good>FALSE</good>
													</logginginfo>
													<labels>
														<label2/>
													</labels>
													<comments>
														<mastercomment1/>
														<mastercomment2/>
														<mastercomment3/>
														<mastercomment4/>
													</comments>
													<file id="YIN_2013-05-28_LG-6 "/>
													<filter>
														<effect>
															<name>Audio Levels</name>
															<effectid>audiolevels</effectid>
															<effectcategory>audiolevels</effectcategory>
															<effecttype>audiolevels</effecttype>
															<mediatype>audio</mediatype>
															<parameter>
																<name>Level</name>
																<parameterid>level</parameterid>
																<valuemin>0</valuemin>
																<valuemax>3.98109</valuemax>
																<value>1</value>
															</parameter>
														</effect>
													</filter>
													<filter>
														<effect>
															<name>Audio Pan</name>
															<effectid>audiopan</effectid>
															<effectcategory>audiopan</effectcategory>
															<effecttype>audiopan</effecttype>
															<mediatype>audio</mediatype>
															<parameter>
																<name>Pan</name>
																<parameterid>pan</parameterid>
																<valuemin>-1</valuemin>
																<valuemax>1</valuemax>
																<value>0</value>
															</parameter>
														</effect>
													</filter>
													<sourcetrack>
														<mediatype>audio</mediatype>
														<trackindex>1</trackindex>
													</sourcetrack>
													<link>
														<linkclipref>Raw Scene Matthew Duepner Printing103</linkclipref>
														<mediatype>video</mediatype>
														<trackindex>1</trackindex>
														<clipindex>27</clipindex>
													</link>
													<link>
														<linkclipref>Raw Scene Matthew Duepner Printing104</linkclipref>
														<mediatype>audio</mediatype>
														<trackindex>1</trackindex>
														<clipindex>27</clipindex>
														<groupindex>1</groupindex>
													</link>
													<link>
														<linkclipref>Raw Scene Matthew Duepner Printing105</linkclipref>
														<mediatype>audio</mediatype>
														<trackindex>2</trackindex>
														<clipindex>27</clipindex>
														<groupindex>1</groupindex>
													</link>
													<itemhistory>
														<uuid>1A870954-7A97-4478-92B9-3E2393A74613</uuid>
													</itemhistory>
												</clipitem>
												<clipitem id="Raw Scene Matthew Duepner Printing107">
													<name>Raw Scene Matthew Duepner Printing</name>
													<duration>28553</duration>
													<rate>
														<ntsc>TRUE</ntsc>
														<timebase>24</timebase>
													</rate>
													<in>27525</in>
													<out>27797</out>
													<start>3059</start>
													<end>3331</end>
													<masterclipid>Raw Scene Matthew Duepner Printing72</masterclipid>
													<logginginfo>
														<scene/>
														<shottake/>
														<lognote/>
														<good>FALSE</good>
													</logginginfo>
													<labels>
														<label2/>
													</labels>
													<comments>
														<mastercomment1/>
														<mastercomment2/>
														<mastercomment3/>
														<mastercomment4/>
													</comments>
													<file id="YIN_2013-05-28_LG-6 "/>
													<filter>
														<effect>
															<name>Audio Levels</name>
															<effectid>audiolevels</effectid>
															<effectcategory>audiolevels</effectcategory>
															<effecttype>audiolevels</effecttype>
															<mediatype>audio</mediatype>
															<parameter>
																<name>Level</name>
																<parameterid>level</parameterid>
																<valuemin>0</valuemin>
																<valuemax>3.98109</valuemax>
																<value>1</value>
															</parameter>
														</effect>
													</filter>
													<filter>
														<effect>
															<name>Audio Pan</name>
															<effectid>audiopan</effectid>
															<effectcategory>audiopan</effectcategory>
															<effecttype>audiopan</effecttype>
															<mediatype>audio</mediatype>
															<parameter>
																<name>Pan</name>
																<parameterid>pan</parameterid>
																<valuemin>-1</valuemin>
																<valuemax>1</valuemax>
																<value>0</value>
															</parameter>
														</effect>
													</filter>
													<sourcetrack>
														<mediatype>audio</mediatype>
														<trackindex>1</trackindex>
													</sourcetrack>
													<link>
														<linkclipref>Raw Scene Matthew Duepner Printing106</linkclipref>
														<mediatype>video</mediatype>
														<trackindex>1</trackindex>
														<clipindex>28</clipindex>
													</link>
													<link>
														<linkclipref>Raw Scene Matthew Duepner Printing107</linkclipref>
														<mediatype>audio</mediatype>
														<trackindex>1</trackindex>
														<clipindex>28</clipindex>
														<groupindex>1</groupindex>
													</link>
													<link>
														<linkclipref>Raw Scene Matthew Duepner Printing108</linkclipref>
														<mediatype>audio</mediatype>
														<trackindex>2</trackindex>
														<clipindex>28</clipindex>
														<groupindex>1</groupindex>
													</link>
													<itemhistory>
														<uuid>7DEF26B0-E904-46C0-8A08-9A45DE20F21C</uuid>
													</itemhistory>
												</clipitem>
												<clipitem id="Raw Scene Matthew Duepner Printing110">
													<name>Raw Scene Matthew Duepner Printing</name>
													<duration>28553</duration>
													<rate>
														<ntsc>TRUE</ntsc>
														<timebase>24</timebase>
													</rate>
													<in>28313</in>
													<out>28455</out>
													<start>3331</start>
													<end>3473</end>
													<masterclipid>Raw Scene Matthew Duepner Printing72</masterclipid>
													<logginginfo>
														<scene/>
														<shottake/>
														<lognote/>
														<good>FALSE</good>
													</logginginfo>
													<labels>
														<label2/>
													</labels>
													<comments>
														<mastercomment1/>
														<mastercomment2/>
														<mastercomment3/>
														<mastercomment4/>
													</comments>
													<file id="YIN_2013-05-28_LG-6 "/>
													<filter>
														<effect>
															<name>Audio Levels</name>
															<effectid>audiolevels</effectid>
															<effectcategory>audiolevels</effectcategory>
															<effecttype>audiolevels</effecttype>
															<mediatype>audio</mediatype>
															<parameter>
																<name>Level</name>
																<parameterid>level</parameterid>
																<valuemin>0</valuemin>
																<valuemax>3.98109</valuemax>
																<value>1</value>
															</parameter>
														</effect>
													</filter>
													<filter>
														<effect>
															<name>Audio Pan</name>
															<effectid>audiopan</effectid>
															<effectcategory>audiopan</effectcategory>
															<effecttype>audiopan</effecttype>
															<mediatype>audio</mediatype>
															<parameter>
																<name>Pan</name>
																<parameterid>pan</parameterid>
																<valuemin>-1</valuemin>
																<valuemax>1</valuemax>
																<value>0</value>
															</parameter>
														</effect>
													</filter>
													<sourcetrack>
														<mediatype>audio</mediatype>
														<trackindex>1</trackindex>
													</sourcetrack>
													<link>
														<linkclipref>Raw Scene Matthew Duepner Printing109</linkclipref>
														<mediatype>video</mediatype>
														<trackindex>1</trackindex>
														<clipindex>29</clipindex>
													</link>
													<link>
														<linkclipref>Raw Scene Matthew Duepner Printing110</linkclipref>
														<mediatype>audio</mediatype>
														<trackindex>1</trackindex>
														<clipindex>29</clipindex>
														<groupindex>1</groupindex>
													</link>
													<link>
														<linkclipref>Raw Scene Matthew Duepner Printing111</linkclipref>
														<mediatype>audio</mediatype>
														<trackindex>2</trackindex>
														<clipindex>29</clipindex>
														<groupindex>1</groupindex>
													</link>
													<itemhistory>
														<uuid>A694134A-7E4D-498B-B34E-7377B6C6E030</uuid>
													</itemhistory>
												</clipitem>
												<clipitem id="Raw Scene Matthew Duepner Walkabout353">
													<name>Raw Scene Matthew Duepner Walkabout</name>
													<duration>38484</duration>
													<rate>
														<ntsc>TRUE</ntsc>
														<timebase>24</timebase>
													</rate>
													<in>5133</in>
													<out>5266</out>
													<start>3473</start>
													<end>3606</end>
													<masterclipid>Raw Scene Matthew Duepner Walkabout234</masterclipid>
													<logginginfo>
														<scene/>
														<shottake/>
														<lognote/>
														<good>FALSE</good>
													</logginginfo>
													<labels>
														<label2/>
													</labels>
													<comments>
														<mastercomment1/>
														<mastercomment2/>
														<mastercomment3/>
														<mastercomment4/>
													</comments>
													<file id="YIN_2013-05-28_LG-4 "/>
													<filter>
														<effect>
															<name>Audio Levels</name>
															<effectid>audiolevels</effectid>
															<effectcategory>audiolevels</effectcategory>
															<effecttype>audiolevels</effecttype>
															<mediatype>audio</mediatype>
															<parameter>
																<name>Level</name>
																<parameterid>level</parameterid>
																<valuemin>0</valuemin>
																<valuemax>3.98109</valuemax>
																<value>1</value>
															</parameter>
														</effect>
													</filter>
													<filter>
														<effect>
															<name>Audio Pan</name>
															<effectid>audiopan</effectid>
															<effectcategory>audiopan</effectcategory>
															<effecttype>audiopan</effecttype>
															<mediatype>audio</mediatype>
															<parameter>
																<name>Pan</name>
																<parameterid>pan</parameterid>
																<valuemin>-1</valuemin>
																<valuemax>1</valuemax>
																<value>0</value>
															</parameter>
														</effect>
													</filter>
													<sourcetrack>
														<mediatype>audio</mediatype>
														<trackindex>1</trackindex>
													</sourcetrack>
													<link>
														<linkclipref>Raw Scene Matthew Duepner Walkabout353</linkclipref>
														<mediatype>audio</mediatype>
														<trackindex>1</trackindex>
														<clipindex>30</clipindex>
														<groupindex>1</groupindex>
													</link>
													<link>
														<linkclipref>Raw Scene Matthew Duepner Walkabout354</linkclipref>
														<mediatype>audio</mediatype>
														<trackindex>2</trackindex>
														<clipindex>30</clipindex>
														<groupindex>1</groupindex>
													</link>
													<itemhistory>
														<uuid>85912085-6258-403A-A9DA-231A731A2AC3</uuid>
													</itemhistory>
												</clipitem>
												<clipitem id="Raw Scene Matthew Duepner Walkabout240">
													<name>Raw Scene Matthew Duepner Walkabout</name>
													<duration>38484</duration>
													<rate>
														<ntsc>TRUE</ntsc>
														<timebase>24</timebase>
													</rate>
													<in>4745</in>
													<out>5123</out>
													<start>3606</start>
													<end>3984</end>
													<masterclipid>Raw Scene Matthew Duepner Walkabout234</masterclipid>
													<logginginfo>
														<scene/>
														<shottake/>
														<lognote/>
														<good>FALSE</good>
													</logginginfo>
													<labels>
														<label2/>
													</labels>
													<comments>
														<mastercomment1/>
														<mastercomment2/>
														<mastercomment3/>
														<mastercomment4/>
													</comments>
													<file id="YIN_2013-05-28_LG-4 "/>
													<filter>
														<effect>
															<name>Audio Levels</name>
															<effectid>audiolevels</effectid>
															<effectcategory>audiolevels</effectcategory>
															<effecttype>audiolevels</effecttype>
															<mediatype>audio</mediatype>
															<parameter>
																<name>Level</name>
																<parameterid>level</parameterid>
																<valuemin>0</valuemin>
																<valuemax>3.98109</valuemax>
																<value>1</value>
															</parameter>
														</effect>
													</filter>
													<filter>
														<effect>
															<name>Audio Pan</name>
															<effectid>audiopan</effectid>
															<effectcategory>audiopan</effectcategory>
															<effecttype>audiopan</effecttype>
															<mediatype>audio</mediatype>
															<parameter>
																<name>Pan</name>
																<parameterid>pan</parameterid>
																<valuemin>-1</valuemin>
																<valuemax>1</valuemax>
																<value>0</value>
															</parameter>
														</effect>
													</filter>
													<sourcetrack>
														<mediatype>audio</mediatype>
														<trackindex>1</trackindex>
													</sourcetrack>
													<link>
														<linkclipref>Raw Scene Matthew Duepner Walkabout239</linkclipref>
														<mediatype>video</mediatype>
														<trackindex>1</trackindex>
														<clipindex>31</clipindex>
													</link>
													<link>
														<linkclipref>Raw Scene Matthew Duepner Walkabout240</linkclipref>
														<mediatype>audio</mediatype>
														<trackindex>1</trackindex>
														<clipindex>31</clipindex>
														<groupindex>1</groupindex>
													</link>
													<link>
														<linkclipref>Raw Scene Matthew Duepner Walkabout241</linkclipref>
														<mediatype>audio</mediatype>
														<trackindex>2</trackindex>
														<clipindex>31</clipindex>
														<groupindex>1</groupindex>
													</link>
													<itemhistory>
														<uuid>D4F611E9-89C2-4713-8FB7-8B530213169E</uuid>
													</itemhistory>
												</clipitem>
												<clipitem id="Raw Scene Matthew Duepner Walkabout243">
													<name>Raw Scene Matthew Duepner Walkabout</name>
													<duration>38484</duration>
													<rate>
														<ntsc>TRUE</ntsc>
														<timebase>24</timebase>
													</rate>
													<in>6473</in>
													<out>6911</out>
													<start>3984</start>
													<end>4422</end>
													<masterclipid>Raw Scene Matthew Duepner Walkabout234</masterclipid>
													<logginginfo>
														<scene/>
														<shottake/>
														<lognote/>
														<good>FALSE</good>
													</logginginfo>
													<labels>
														<label2/>
													</labels>
													<comments>
														<mastercomment1/>
														<mastercomment2/>
														<mastercomment3/>
														<mastercomment4/>
													</comments>
													<file id="YIN_2013-05-28_LG-4 "/>
													<filter>
														<effect>
															<name>Audio Levels</name>
															<effectid>audiolevels</effectid>
															<effectcategory>audiolevels</effectcategory>
															<effecttype>audiolevels</effecttype>
															<mediatype>audio</mediatype>
															<parameter>
																<name>Level</name>
																<parameterid>level</parameterid>
																<valuemin>0</valuemin>
																<valuemax>3.98109</valuemax>
																<value>1</value>
															</parameter>
														</effect>
													</filter>
													<filter>
														<effect>
															<name>Audio Pan</name>
															<effectid>audiopan</effectid>
															<effectcategory>audiopan</effectcategory>
															<effecttype>audiopan</effecttype>
															<mediatype>audio</mediatype>
															<parameter>
																<name>Pan</name>
																<parameterid>pan</parameterid>
																<valuemin>-1</valuemin>
																<valuemax>1</valuemax>
																<value>0</value>
															</parameter>
														</effect>
													</filter>
													<sourcetrack>
														<mediatype>audio</mediatype>
														<trackindex>1</trackindex>
													</sourcetrack>
													<link>
														<linkclipref>Raw Scene Matthew Duepner Walkabout242</linkclipref>
														<mediatype>video</mediatype>
														<trackindex>1</trackindex>
														<clipindex>32</clipindex>
													</link>
													<link>
														<linkclipref>Raw Scene Matthew Duepner Walkabout243</linkclipref>
														<mediatype>audio</mediatype>
														<trackindex>1</trackindex>
														<clipindex>32</clipindex>
														<groupindex>1</groupindex>
													</link>
													<link>
														<linkclipref>Raw Scene Matthew Duepner Walkabout244</linkclipref>
														<mediatype>audio</mediatype>
														<trackindex>2</trackindex>
														<clipindex>32</clipindex>
														<groupindex>1</groupindex>
													</link>
													<itemhistory>
														<uuid>7E9292C7-C21C-4F99-9624-4C3C7863F656</uuid>
													</itemhistory>
												</clipitem>
												<clipitem id="Raw Scene Matthew Duepner Walkabout246">
													<name>Raw Scene Matthew Duepner Walkabout</name>
													<duration>38484</duration>
													<rate>
														<ntsc>TRUE</ntsc>
														<timebase>24</timebase>
													</rate>
													<in>7070</in>
													<out>7250</out>
													<start>4422</start>
													<end>4602</end>
													<masterclipid>Raw Scene Matthew Duepner Walkabout234</masterclipid>
													<logginginfo>
														<scene/>
														<shottake/>
														<lognote/>
														<good>FALSE</good>
													</logginginfo>
													<labels>
														<label2/>
													</labels>
													<comments>
														<mastercomment1/>
														<mastercomment2/>
														<mastercomment3/>
														<mastercomment4/>
													</comments>
													<file id="YIN_2013-05-28_LG-4 "/>
													<filter>
														<effect>
															<name>Audio Levels</name>
															<effectid>audiolevels</effectid>
															<effectcategory>audiolevels</effectcategory>
															<effecttype>audiolevels</effecttype>
															<mediatype>audio</mediatype>
															<parameter>
																<name>Level</name>
																<parameterid>level</parameterid>
																<valuemin>0</valuemin>
																<valuemax>3.98109</valuemax>
																<value>1</value>
															</parameter>
														</effect>
													</filter>
													<filter>
														<effect>
															<name>Audio Pan</name>
															<effectid>audiopan</effectid>
															<effectcategory>audiopan</effectcategory>
															<effecttype>audiopan</effecttype>
															<mediatype>audio</mediatype>
															<parameter>
																<name>Pan</name>
																<parameterid>pan</parameterid>
																<valuemin>-1</valuemin>
																<valuemax>1</valuemax>
																<value>0</value>
															</parameter>
														</effect>
													</filter>
													<sourcetrack>
														<mediatype>audio</mediatype>
														<trackindex>1</trackindex>
													</sourcetrack>
													<link>
														<linkclipref>Raw Scene Matthew Duepner Walkabout245</linkclipref>
														<mediatype>video</mediatype>
														<trackindex>1</trackindex>
														<clipindex>33</clipindex>
													</link>
													<link>
														<linkclipref>Raw Scene Matthew Duepner Walkabout246</linkclipref>
														<mediatype>audio</mediatype>
														<trackindex>1</trackindex>
														<clipindex>33</clipindex>
														<groupindex>1</groupindex>
													</link>
													<link>
														<linkclipref>Raw Scene Matthew Duepner Walkabout247</linkclipref>
														<mediatype>audio</mediatype>
														<trackindex>2</trackindex>
														<clipindex>33</clipindex>
														<groupindex>1</groupindex>
													</link>
													<itemhistory>
														<uuid>EC2613EE-8555-4531-83EB-19AE4754D947</uuid>
													</itemhistory>
												</clipitem>
												<clipitem id="Raw Scene Matthew Duepner Walkabout249">
													<name>Raw Scene Matthew Duepner Walkabout</name>
													<duration>38484</duration>
													<rate>
														<ntsc>TRUE</ntsc>
														<timebase>24</timebase>
													</rate>
													<in>10560</in>
													<out>10599</out>
													<start>4602</start>
													<end>4641</end>
													<masterclipid>Raw Scene Matthew Duepner Walkabout234</masterclipid>
													<logginginfo>
														<scene/>
														<shottake/>
														<lognote/>
														<good>FALSE</good>
													</logginginfo>
													<labels>
														<label2/>
													</labels>
													<comments>
														<mastercomment1/>
														<mastercomment2/>
														<mastercomment3/>
														<mastercomment4/>
													</comments>
													<file id="YIN_2013-05-28_LG-4 "/>
													<filter>
														<effect>
															<name>Audio Levels</name>
															<effectid>audiolevels</effectid>
															<effectcategory>audiolevels</effectcategory>
															<effecttype>audiolevels</effecttype>
															<mediatype>audio</mediatype>
															<parameter>
																<name>Level</name>
																<parameterid>level</parameterid>
																<valuemin>0</valuemin>
																<valuemax>3.98109</valuemax>
																<value>1</value>
															</parameter>
														</effect>
													</filter>
													<filter>
														<effect>
															<name>Audio Pan</name>
															<effectid>audiopan</effectid>
															<effectcategory>audiopan</effectcategory>
															<effecttype>audiopan</effecttype>
															<mediatype>audio</mediatype>
															<parameter>
																<name>Pan</name>
																<parameterid>pan</parameterid>
																<valuemin>-1</valuemin>
																<valuemax>1</valuemax>
																<value>0</value>
															</parameter>
														</effect>
													</filter>
													<sourcetrack>
														<mediatype>audio</mediatype>
														<trackindex>1</trackindex>
													</sourcetrack>
													<link>
														<linkclipref>Raw Scene Matthew Duepner Walkabout248</linkclipref>
														<mediatype>video</mediatype>
														<trackindex>1</trackindex>
														<clipindex>34</clipindex>
													</link>
													<link>
														<linkclipref>Raw Scene Matthew Duepner Walkabout249</linkclipref>
														<mediatype>audio</mediatype>
														<trackindex>1</trackindex>
														<clipindex>34</clipindex>
														<groupindex>1</groupindex>
													</link>
													<link>
														<linkclipref>Raw Scene Matthew Duepner Walkabout250</linkclipref>
														<mediatype>audio</mediatype>
														<trackindex>2</trackindex>
														<clipindex>34</clipindex>
														<groupindex>1</groupindex>
													</link>
													<itemhistory>
														<uuid>7D22E789-2FA0-4F10-8F89-983ED584FADD</uuid>
													</itemhistory>
												</clipitem>
												<clipitem id="Raw Scene Matthew Duepner Walkabout252">
													<name>Raw Scene Matthew Duepner Walkabout</name>
													<duration>38484</duration>
													<rate>
														<ntsc>TRUE</ntsc>
														<timebase>24</timebase>
													</rate>
													<in>11332</in>
													<out>11408</out>
													<start>4641</start>
													<end>4717</end>
													<masterclipid>Raw Scene Matthew Duepner Walkabout234</masterclipid>
													<logginginfo>
														<scene/>
														<shottake/>
														<lognote/>
														<good>FALSE</good>
													</logginginfo>
													<labels>
														<label2/>
													</labels>
													<comments>
														<mastercomment1/>
														<mastercomment2/>
														<mastercomment3/>
														<mastercomment4/>
													</comments>
													<file id="YIN_2013-05-28_LG-4 "/>
													<filter>
														<effect>
															<name>Audio Levels</name>
															<effectid>audiolevels</effectid>
															<effectcategory>audiolevels</effectcategory>
															<effecttype>audiolevels</effecttype>
															<mediatype>audio</mediatype>
															<parameter>
																<name>Level</name>
																<parameterid>level</parameterid>
																<valuemin>0</valuemin>
																<valuemax>3.98109</valuemax>
																<value>1</value>
															</parameter>
														</effect>
													</filter>
													<filter>
														<effect>
															<name>Audio Pan</name>
															<effectid>audiopan</effectid>
															<effectcategory>audiopan</effectcategory>
															<effecttype>audiopan</effecttype>
															<mediatype>audio</mediatype>
															<parameter>
																<name>Pan</name>
																<parameterid>pan</parameterid>
																<valuemin>-1</valuemin>
																<valuemax>1</valuemax>
																<value>0</value>
															</parameter>
														</effect>
													</filter>
													<sourcetrack>
														<mediatype>audio</mediatype>
														<trackindex>1</trackindex>
													</sourcetrack>
													<link>
														<linkclipref>Raw Scene Matthew Duepner Walkabout251</linkclipref>
														<mediatype>video</mediatype>
														<trackindex>1</trackindex>
														<clipindex>35</clipindex>
													</link>
													<link>
														<linkclipref>Raw Scene Matthew Duepner Walkabout252</linkclipref>
														<mediatype>audio</mediatype>
														<trackindex>1</trackindex>
														<clipindex>35</clipindex>
														<groupindex>1</groupindex>
													</link>
													<link>
														<linkclipref>Raw Scene Matthew Duepner Walkabout253</linkclipref>
														<mediatype>audio</mediatype>
														<trackindex>2</trackindex>
														<clipindex>35</clipindex>
														<groupindex>1</groupindex>
													</link>
													<itemhistory>
														<uuid>24975942-651F-44A9-AF46-F5BF2F5A472C</uuid>
													</itemhistory>
												</clipitem>
												<clipitem id="Raw Scene Matthew Duepner Walkabout255">
													<name>Raw Scene Matthew Duepner Walkabout</name>
													<duration>38484</duration>
													<rate>
														<ntsc>TRUE</ntsc>
														<timebase>24</timebase>
													</rate>
													<in>11540</in>
													<out>11595</out>
													<start>4717</start>
													<end>4772</end>
													<masterclipid>Raw Scene Matthew Duepner Walkabout234</masterclipid>
													<logginginfo>
														<scene/>
														<shottake/>
														<lognote/>
														<good>FALSE</good>
													</logginginfo>
													<labels>
														<label2/>
													</labels>
													<comments>
														<mastercomment1/>
														<mastercomment2/>
														<mastercomment3/>
														<mastercomment4/>
													</comments>
													<file id="YIN_2013-05-28_LG-4 "/>
													<filter>
														<effect>
															<name>Audio Levels</name>
															<effectid>audiolevels</effectid>
															<effectcategory>audiolevels</effectcategory>
															<effecttype>audiolevels</effecttype>
															<mediatype>audio</mediatype>
															<parameter>
																<name>Level</name>
																<parameterid>level</parameterid>
																<valuemin>0</valuemin>
																<valuemax>3.98109</valuemax>
																<value>1</value>
															</parameter>
														</effect>
													</filter>
													<filter>
														<effect>
															<name>Audio Pan</name>
															<effectid>audiopan</effectid>
															<effectcategory>audiopan</effectcategory>
															<effecttype>audiopan</effecttype>
															<mediatype>audio</mediatype>
															<parameter>
																<name>Pan</name>
																<parameterid>pan</parameterid>
																<valuemin>-1</valuemin>
																<valuemax>1</valuemax>
																<value>0</value>
															</parameter>
														</effect>
													</filter>
													<sourcetrack>
														<mediatype>audio</mediatype>
														<trackindex>1</trackindex>
													</sourcetrack>
													<link>
														<linkclipref>Raw Scene Matthew Duepner Walkabout254</linkclipref>
														<mediatype>video</mediatype>
														<trackindex>1</trackindex>
														<clipindex>36</clipindex>
													</link>
													<link>
														<linkclipref>Raw Scene Matthew Duepner Walkabout255</linkclipref>
														<mediatype>audio</mediatype>
														<trackindex>1</trackindex>
														<clipindex>36</clipindex>
														<groupindex>1</groupindex>
													</link>
													<link>
														<linkclipref>Raw Scene Matthew Duepner Walkabout256</linkclipref>
														<mediatype>audio</mediatype>
														<trackindex>2</trackindex>
														<clipindex>36</clipindex>
														<groupindex>1</groupindex>
													</link>
													<itemhistory>
														<uuid>8CDAB7A8-FFE8-4114-B7D4-42D0DCCAA2DC</uuid>
													</itemhistory>
												</clipitem>
												<clipitem id="Raw Scene Matthew Duepner Walkabout258">
													<name>Raw Scene Matthew Duepner Walkabout</name>
													<duration>38484</duration>
													<rate>
														<ntsc>TRUE</ntsc>
														<timebase>24</timebase>
													</rate>
													<in>13339</in>
													<out>13489</out>
													<start>4772</start>
													<end>4922</end>
													<masterclipid>Raw Scene Matthew Duepner Walkabout234</masterclipid>
													<logginginfo>
														<scene/>
														<shottake/>
														<lognote/>
														<good>FALSE</good>
													</logginginfo>
													<labels>
														<label2/>
													</labels>
													<comments>
														<mastercomment1/>
														<mastercomment2/>
														<mastercomment3/>
														<mastercomment4/>
													</comments>
													<file id="YIN_2013-05-28_LG-4 "/>
													<filter>
														<effect>
															<name>Audio Levels</name>
															<effectid>audiolevels</effectid>
															<effectcategory>audiolevels</effectcategory>
															<effecttype>audiolevels</effecttype>
															<mediatype>audio</mediatype>
															<parameter>
																<name>Level</name>
																<parameterid>level</parameterid>
																<valuemin>0</valuemin>
																<valuemax>3.98109</valuemax>
																<value>1</value>
															</parameter>
														</effect>
													</filter>
													<filter>
														<effect>
															<name>Audio Pan</name>
															<effectid>audiopan</effectid>
															<effectcategory>audiopan</effectcategory>
															<effecttype>audiopan</effecttype>
															<mediatype>audio</mediatype>
															<parameter>
																<name>Pan</name>
																<parameterid>pan</parameterid>
																<valuemin>-1</valuemin>
																<valuemax>1</valuemax>
																<value>0</value>
															</parameter>
														</effect>
													</filter>
													<sourcetrack>
														<mediatype>audio</mediatype>
														<trackindex>1</trackindex>
													</sourcetrack>
													<link>
														<linkclipref>Raw Scene Matthew Duepner Walkabout257</linkclipref>
														<mediatype>video</mediatype>
														<trackindex>1</trackindex>
														<clipindex>37</clipindex>
													</link>
													<link>
														<linkclipref>Raw Scene Matthew Duepner Walkabout258</linkclipref>
														<mediatype>audio</mediatype>
														<trackindex>1</trackindex>
														<clipindex>37</clipindex>
														<groupindex>1</groupindex>
													</link>
													<link>
														<linkclipref>Raw Scene Matthew Duepner Walkabout259</linkclipref>
														<mediatype>audio</mediatype>
														<trackindex>2</trackindex>
														<clipindex>37</clipindex>
														<groupindex>1</groupindex>
													</link>
													<itemhistory>
														<uuid>294BDB38-B844-4504-BF57-67E7A71475D5</uuid>
													</itemhistory>
												</clipitem>
												<clipitem id="Raw Scene Matthew Duepner Walkabout261">
													<name>Raw Scene Matthew Duepner Walkabout</name>
													<duration>38484</duration>
													<rate>
														<ntsc>TRUE</ntsc>
														<timebase>24</timebase>
													</rate>
													<in>13825</in>
													<out>13967</out>
													<start>4922</start>
													<end>5064</end>
													<masterclipid>Raw Scene Matthew Duepner Walkabout234</masterclipid>
													<logginginfo>
														<scene/>
														<shottake/>
														<lognote/>
														<good>FALSE</good>
													</logginginfo>
													<labels>
														<label2/>
													</labels>
													<comments>
														<mastercomment1/>
														<mastercomment2/>
														<mastercomment3/>
														<mastercomment4/>
													</comments>
													<file id="YIN_2013-05-28_LG-4 "/>
													<filter>
														<effect>
															<name>Audio Levels</name>
															<effectid>audiolevels</effectid>
															<effectcategory>audiolevels</effectcategory>
															<effecttype>audiolevels</effecttype>
															<mediatype>audio</mediatype>
															<parameter>
																<name>Level</name>
																<parameterid>level</parameterid>
																<valuemin>0</valuemin>
																<valuemax>3.98109</valuemax>
																<value>1</value>
															</parameter>
														</effect>
													</filter>
													<filter>
														<effect>
															<name>Audio Pan</name>
															<effectid>audiopan</effectid>
															<effectcategory>audiopan</effectcategory>
															<effecttype>audiopan</effecttype>
															<mediatype>audio</mediatype>
															<parameter>
																<name>Pan</name>
																<parameterid>pan</parameterid>
																<valuemin>-1</valuemin>
																<valuemax>1</valuemax>
																<value>0</value>
															</parameter>
														</effect>
													</filter>
													<sourcetrack>
														<mediatype>audio</mediatype>
														<trackindex>1</trackindex>
													</sourcetrack>
													<link>
														<linkclipref>Raw Scene Matthew Duepner Walkabout260</linkclipref>
														<mediatype>video</mediatype>
														<trackindex>1</trackindex>
														<clipindex>38</clipindex>
													</link>
													<link>
														<linkclipref>Raw Scene Matthew Duepner Walkabout261</linkclipref>
														<mediatype>audio</mediatype>
														<trackindex>1</trackindex>
														<clipindex>38</clipindex>
														<groupindex>1</groupindex>
													</link>
													<link>
														<linkclipref>Raw Scene Matthew Duepner Walkabout262</linkclipref>
														<mediatype>audio</mediatype>
														<trackindex>2</trackindex>
														<clipindex>38</clipindex>
														<groupindex>1</groupindex>
													</link>
													<itemhistory>
														<uuid>1CF062EF-6FBA-4105-85AF-ECB1791FD442</uuid>
													</itemhistory>
												</clipitem>
												<clipitem id="Raw Scene Matthew Duepner Walkabout264">
													<name>Raw Scene Matthew Duepner Walkabout</name>
													<duration>38484</duration>
													<rate>
														<ntsc>TRUE</ntsc>
														<timebase>24</timebase>
													</rate>
													<in>14191</in>
													<out>14629</out>
													<start>5064</start>
													<end>5502</end>
													<masterclipid>Raw Scene Matthew Duepner Walkabout234</masterclipid>
													<logginginfo>
														<scene/>
														<shottake/>
														<lognote/>
														<good>FALSE</good>
													</logginginfo>
													<labels>
														<label2/>
													</labels>
													<comments>
														<mastercomment1/>
														<mastercomment2/>
														<mastercomment3/>
														<mastercomment4/>
													</comments>
													<file id="YIN_2013-05-28_LG-4 "/>
													<filter>
														<effect>
															<name>Audio Levels</name>
															<effectid>audiolevels</effectid>
															<effectcategory>audiolevels</effectcategory>
															<effecttype>audiolevels</effecttype>
															<mediatype>audio</mediatype>
															<parameter>
																<name>Level</name>
																<parameterid>level</parameterid>
																<valuemin>0</valuemin>
																<valuemax>3.98109</valuemax>
																<value>1</value>
															</parameter>
														</effect>
													</filter>
													<filter>
														<effect>
															<name>Audio Pan</name>
															<effectid>audiopan</effectid>
															<effectcategory>audiopan</effectcategory>
															<effecttype>audiopan</effecttype>
															<mediatype>audio</mediatype>
															<parameter>
																<name>Pan</name>
																<parameterid>pan</parameterid>
																<valuemin>-1</valuemin>
																<valuemax>1</valuemax>
																<value>0</value>
															</parameter>
														</effect>
													</filter>
													<sourcetrack>
														<mediatype>audio</mediatype>
														<trackindex>1</trackindex>
													</sourcetrack>
													<link>
														<linkclipref>Raw Scene Matthew Duepner Walkabout263</linkclipref>
														<mediatype>video</mediatype>
														<trackindex>1</trackindex>
														<clipindex>39</clipindex>
													</link>
													<link>
														<linkclipref>Raw Scene Matthew Duepner Walkabout264</linkclipref>
														<mediatype>audio</mediatype>
														<trackindex>1</trackindex>
														<clipindex>39</clipindex>
														<groupindex>1</groupindex>
													</link>
													<link>
														<linkclipref>Raw Scene Matthew Duepner Walkabout265</linkclipref>
														<mediatype>audio</mediatype>
														<trackindex>2</trackindex>
														<clipindex>39</clipindex>
														<groupindex>1</groupindex>
													</link>
													<itemhistory>
														<uuid>3A40C6EB-804C-4F82-995A-DD5CE24EC3E1</uuid>
													</itemhistory>
												</clipitem>
												<clipitem id="Raw Scene Matthew Duepner Walkabout267">
													<name>Raw Scene Matthew Duepner Walkabout</name>
													<duration>38484</duration>
													<rate>
														<ntsc>TRUE</ntsc>
														<timebase>24</timebase>
													</rate>
													<in>14910</in>
													<out>15123</out>
													<start>5502</start>
													<end>5715</end>
													<masterclipid>Raw Scene Matthew Duepner Walkabout234</masterclipid>
													<logginginfo>
														<scene/>
														<shottake/>
														<lognote/>
														<good>FALSE</good>
													</logginginfo>
													<labels>
														<label2/>
													</labels>
													<comments>
														<mastercomment1/>
														<mastercomment2/>
														<mastercomment3/>
														<mastercomment4/>
													</comments>
													<file id="YIN_2013-05-28_LG-4 "/>
													<filter>
														<effect>
															<name>Audio Levels</name>
															<effectid>audiolevels</effectid>
															<effectcategory>audiolevels</effectcategory>
															<effecttype>audiolevels</effecttype>
															<mediatype>audio</mediatype>
															<parameter>
																<name>Level</name>
																<parameterid>level</parameterid>
																<valuemin>0</valuemin>
																<valuemax>3.98109</valuemax>
																<value>1</value>
															</parameter>
														</effect>
													</filter>
													<filter>
														<effect>
															<name>Audio Pan</name>
															<effectid>audiopan</effectid>
															<effectcategory>audiopan</effectcategory>
															<effecttype>audiopan</effecttype>
															<mediatype>audio</mediatype>
															<parameter>
																<name>Pan</name>
																<parameterid>pan</parameterid>
																<valuemin>-1</valuemin>
																<valuemax>1</valuemax>
																<value>0</value>
															</parameter>
														</effect>
													</filter>
													<sourcetrack>
														<mediatype>audio</mediatype>
														<trackindex>1</trackindex>
													</sourcetrack>
													<link>
														<linkclipref>Raw Scene Matthew Duepner Walkabout266</linkclipref>
														<mediatype>video</mediatype>
														<trackindex>1</trackindex>
														<clipindex>40</clipindex>
													</link>
													<link>
														<linkclipref>Raw Scene Matthew Duepner Walkabout267</linkclipref>
														<mediatype>audio</mediatype>
														<trackindex>1</trackindex>
														<clipindex>40</clipindex>
														<groupindex>1</groupindex>
													</link>
													<link>
														<linkclipref>Raw Scene Matthew Duepner Walkabout268</linkclipref>
														<mediatype>audio</mediatype>
														<trackindex>2</trackindex>
														<clipindex>40</clipindex>
														<groupindex>1</groupindex>
													</link>
													<itemhistory>
														<uuid>37A615F4-CA76-48FB-9A05-5E49A756FB2B</uuid>
													</itemhistory>
												</clipitem>
												<clipitem id="Raw Scene Matthew Duepner Walkabout270">
													<name>Raw Scene Matthew Duepner Walkabout</name>
													<duration>38484</duration>
													<rate>
														<ntsc>TRUE</ntsc>
														<timebase>24</timebase>
													</rate>
													<in>17326</in>
													<out>17746</out>
													<start>5715</start>
													<end>6135</end>
													<masterclipid>Raw Scene Matthew Duepner Walkabout234</masterclipid>
													<logginginfo>
														<scene/>
														<shottake/>
														<lognote/>
														<good>FALSE</good>
													</logginginfo>
													<labels>
														<label2/>
													</labels>
													<comments>
														<mastercomment1/>
														<mastercomment2/>
														<mastercomment3/>
														<mastercomment4/>
													</comments>
													<file id="YIN_2013-05-28_LG-4 "/>
													<filter>
														<effect>
															<name>Audio Levels</name>
															<effectid>audiolevels</effectid>
															<effectcategory>audiolevels</effectcategory>
															<effecttype>audiolevels</effecttype>
															<mediatype>audio</mediatype>
															<parameter>
																<name>Level</name>
																<parameterid>level</parameterid>
																<valuemin>0</valuemin>
																<valuemax>3.98109</valuemax>
																<value>1</value>
															</parameter>
														</effect>
													</filter>
													<filter>
														<effect>
															<name>Audio Pan</name>
															<effectid>audiopan</effectid>
															<effectcategory>audiopan</effectcategory>
															<effecttype>audiopan</effecttype>
															<mediatype>audio</mediatype>
															<parameter>
																<name>Pan</name>
																<parameterid>pan</parameterid>
																<valuemin>-1</valuemin>
																<valuemax>1</valuemax>
																<value>0</value>
															</parameter>
														</effect>
													</filter>
													<sourcetrack>
														<mediatype>audio</mediatype>
														<trackindex>1</trackindex>
													</sourcetrack>
													<link>
														<linkclipref>Raw Scene Matthew Duepner Walkabout269</linkclipref>
														<mediatype>video</mediatype>
														<trackindex>1</trackindex>
														<clipindex>41</clipindex>
													</link>
													<link>
														<linkclipref>Raw Scene Matthew Duepner Walkabout270</linkclipref>
														<mediatype>audio</mediatype>
														<trackindex>1</trackindex>
														<clipindex>41</clipindex>
														<groupindex>1</groupindex>
													</link>
													<link>
														<linkclipref>Raw Scene Matthew Duepner Walkabout271</linkclipref>
														<mediatype>audio</mediatype>
														<trackindex>2</trackindex>
														<clipindex>41</clipindex>
														<groupindex>1</groupindex>
													</link>
													<itemhistory>
														<uuid>056951C1-E742-47E2-B45C-401889E95D6B</uuid>
													</itemhistory>
												</clipitem>
												<clipitem id="Raw Scene Matthew Duepner Walkabout273">
													<name>Raw Scene Matthew Duepner Walkabout</name>
													<duration>38484</duration>
													<rate>
														<ntsc>TRUE</ntsc>
														<timebase>24</timebase>
													</rate>
													<in>18256</in>
													<out>18413</out>
													<start>6135</start>
													<end>6292</end>
													<masterclipid>Raw Scene Matthew Duepner Walkabout234</masterclipid>
													<logginginfo>
														<scene/>
														<shottake/>
														<lognote/>
														<good>FALSE</good>
													</logginginfo>
													<labels>
														<label2/>
													</labels>
													<comments>
														<mastercomment1/>
														<mastercomment2/>
														<mastercomment3/>
														<mastercomment4/>
													</comments>
													<file id="YIN_2013-05-28_LG-4 "/>
													<filter>
														<effect>
															<name>Audio Levels</name>
															<effectid>audiolevels</effectid>
															<effectcategory>audiolevels</effectcategory>
															<effecttype>audiolevels</effecttype>
															<mediatype>audio</mediatype>
															<parameter>
																<name>Level</name>
																<parameterid>level</parameterid>
																<valuemin>0</valuemin>
																<valuemax>3.98109</valuemax>
																<value>1</value>
															</parameter>
														</effect>
													</filter>
													<filter>
														<effect>
															<name>Audio Pan</name>
															<effectid>audiopan</effectid>
															<effectcategory>audiopan</effectcategory>
															<effecttype>audiopan</effecttype>
															<mediatype>audio</mediatype>
															<parameter>
																<name>Pan</name>
																<parameterid>pan</parameterid>
																<valuemin>-1</valuemin>
																<valuemax>1</valuemax>
																<value>0</value>
															</parameter>
														</effect>
													</filter>
													<sourcetrack>
														<mediatype>audio</mediatype>
														<trackindex>1</trackindex>
													</sourcetrack>
													<link>
														<linkclipref>Raw Scene Matthew Duepner Walkabout272</linkclipref>
														<mediatype>video</mediatype>
														<trackindex>1</trackindex>
														<clipindex>42</clipindex>
													</link>
													<link>
														<linkclipref>Raw Scene Matthew Duepner Walkabout273</linkclipref>
														<mediatype>audio</mediatype>
														<trackindex>1</trackindex>
														<clipindex>42</clipindex>
														<groupindex>1</groupindex>
													</link>
													<link>
														<linkclipref>Raw Scene Matthew Duepner Walkabout274</linkclipref>
														<mediatype>audio</mediatype>
														<trackindex>2</trackindex>
														<clipindex>42</clipindex>
														<groupindex>1</groupindex>
													</link>
													<itemhistory>
														<uuid>BA99864D-BCED-4F8E-BADB-922307310725</uuid>
													</itemhistory>
												</clipitem>
												<clipitem id="Raw Scene Matthew Duepner Walkabout276">
													<name>Raw Scene Matthew Duepner Walkabout</name>
													<duration>38484</duration>
													<rate>
														<ntsc>TRUE</ntsc>
														<timebase>24</timebase>
													</rate>
													<in>19758</in>
													<out>19953</out>
													<start>6292</start>
													<end>6487</end>
													<masterclipid>Raw Scene Matthew Duepner Walkabout234</masterclipid>
													<logginginfo>
														<scene/>
														<shottake/>
														<lognote/>
														<good>FALSE</good>
													</logginginfo>
													<labels>
														<label2/>
													</labels>
													<comments>
														<mastercomment1/>
														<mastercomment2/>
														<mastercomment3/>
														<mastercomment4/>
													</comments>
													<file id="YIN_2013-05-28_LG-4 "/>
													<filter>
														<effect>
															<name>Audio Levels</name>
															<effectid>audiolevels</effectid>
															<effectcategory>audiolevels</effectcategory>
															<effecttype>audiolevels</effecttype>
															<mediatype>audio</mediatype>
															<parameter>
																<name>Level</name>
																<parameterid>level</parameterid>
																<valuemin>0</valuemin>
																<valuemax>3.98109</valuemax>
																<value>1</value>
															</parameter>
														</effect>
													</filter>
													<filter>
														<effect>
															<name>Audio Pan</name>
															<effectid>audiopan</effectid>
															<effectcategory>audiopan</effectcategory>
															<effecttype>audiopan</effecttype>
															<mediatype>audio</mediatype>
															<parameter>
																<name>Pan</name>
																<parameterid>pan</parameterid>
																<valuemin>-1</valuemin>
																<valuemax>1</valuemax>
																<value>0</value>
															</parameter>
														</effect>
													</filter>
													<sourcetrack>
														<mediatype>audio</mediatype>
														<trackindex>1</trackindex>
													</sourcetrack>
													<link>
														<linkclipref>Raw Scene Matthew Duepner Walkabout275</linkclipref>
														<mediatype>video</mediatype>
														<trackindex>1</trackindex>
														<clipindex>43</clipindex>
													</link>
													<link>
														<linkclipref>Raw Scene Matthew Duepner Walkabout276</linkclipref>
														<mediatype>audio</mediatype>
														<trackindex>1</trackindex>
														<clipindex>43</clipindex>
														<groupindex>1</groupindex>
													</link>
													<link>
														<linkclipref>Raw Scene Matthew Duepner Walkabout277</linkclipref>
														<mediatype>audio</mediatype>
														<trackindex>2</trackindex>
														<clipindex>43</clipindex>
														<groupindex>1</groupindex>
													</link>
													<itemhistory>
														<uuid>9023A108-97AC-4A3A-B0D1-DDDA2D0C6829</uuid>
													</itemhistory>
												</clipitem>
												<clipitem id="Raw Scene Matthew Duepner Walkabout279">
													<name>Raw Scene Matthew Duepner Walkabout</name>
													<duration>38484</duration>
													<rate>
														<ntsc>TRUE</ntsc>
														<timebase>24</timebase>
													</rate>
													<in>21572</in>
													<out>21660</out>
													<start>6487</start>
													<end>6575</end>
													<masterclipid>Raw Scene Matthew Duepner Walkabout234</masterclipid>
													<logginginfo>
														<scene/>
														<shottake/>
														<lognote/>
														<good>FALSE</good>
													</logginginfo>
													<labels>
														<label2/>
													</labels>
													<comments>
														<mastercomment1/>
														<mastercomment2/>
														<mastercomment3/>
														<mastercomment4/>
													</comments>
													<file id="YIN_2013-05-28_LG-4 "/>
													<filter>
														<effect>
															<name>Audio Levels</name>
															<effectid>audiolevels</effectid>
															<effectcategory>audiolevels</effectcategory>
															<effecttype>audiolevels</effecttype>
															<mediatype>audio</mediatype>
															<parameter>
																<name>Level</name>
																<parameterid>level</parameterid>
																<valuemin>0</valuemin>
																<valuemax>3.98109</valuemax>
																<value>1</value>
															</parameter>
														</effect>
													</filter>
													<filter>
														<effect>
															<name>Audio Pan</name>
															<effectid>audiopan</effectid>
															<effectcategory>audiopan</effectcategory>
															<effecttype>audiopan</effecttype>
															<mediatype>audio</mediatype>
															<parameter>
																<name>Pan</name>
																<parameterid>pan</parameterid>
																<valuemin>-1</valuemin>
																<valuemax>1</valuemax>
																<value>0</value>
															</parameter>
														</effect>
													</filter>
													<sourcetrack>
														<mediatype>audio</mediatype>
														<trackindex>1</trackindex>
													</sourcetrack>
													<link>
														<linkclipref>Raw Scene Matthew Duepner Walkabout278</linkclipref>
														<mediatype>video</mediatype>
														<trackindex>1</trackindex>
														<clipindex>44</clipindex>
													</link>
													<link>
														<linkclipref>Raw Scene Matthew Duepner Walkabout279</linkclipref>
														<mediatype>audio</mediatype>
														<trackindex>1</trackindex>
														<clipindex>44</clipindex>
														<groupindex>1</groupindex>
													</link>
													<link>
														<linkclipref>Raw Scene Matthew Duepner Walkabout280</linkclipref>
														<mediatype>audio</mediatype>
														<trackindex>2</trackindex>
														<clipindex>44</clipindex>
														<groupindex>1</groupindex>
													</link>
													<itemhistory>
														<uuid>AA6B15DD-C46E-4E64-98ED-6D4295888173</uuid>
													</itemhistory>
												</clipitem>
												<clipitem id="Raw Scene Matthew Duepner Walkabout282">
													<name>Raw Scene Matthew Duepner Walkabout</name>
													<duration>38484</duration>
													<rate>
														<ntsc>TRUE</ntsc>
														<timebase>24</timebase>
													</rate>
													<in>22012</in>
													<out>22143</out>
													<start>6575</start>
													<end>6706</end>
													<masterclipid>Raw Scene Matthew Duepner Walkabout234</masterclipid>
													<logginginfo>
														<scene/>
														<shottake/>
														<lognote/>
														<good>FALSE</good>
													</logginginfo>
													<labels>
														<label2/>
													</labels>
													<comments>
														<mastercomment1/>
														<mastercomment2/>
														<mastercomment3/>
														<mastercomment4/>
													</comments>
													<file id="YIN_2013-05-28_LG-4 "/>
													<filter>
														<effect>
															<name>Audio Levels</name>
															<effectid>audiolevels</effectid>
															<effectcategory>audiolevels</effectcategory>
															<effecttype>audiolevels</effecttype>
															<mediatype>audio</mediatype>
															<parameter>
																<name>Level</name>
																<parameterid>level</parameterid>
																<valuemin>0</valuemin>
																<valuemax>3.98109</valuemax>
																<value>1</value>
															</parameter>
														</effect>
													</filter>
													<filter>
														<effect>
															<name>Audio Pan</name>
															<effectid>audiopan</effectid>
															<effectcategory>audiopan</effectcategory>
															<effecttype>audiopan</effecttype>
															<mediatype>audio</mediatype>
															<parameter>
																<name>Pan</name>
																<parameterid>pan</parameterid>
																<valuemin>-1</valuemin>
																<valuemax>1</valuemax>
																<value>0</value>
															</parameter>
														</effect>
													</filter>
													<sourcetrack>
														<mediatype>audio</mediatype>
														<trackindex>1</trackindex>
													</sourcetrack>
													<link>
														<linkclipref>Raw Scene Matthew Duepner Walkabout281</linkclipref>
														<mediatype>video</mediatype>
														<trackindex>1</trackindex>
														<clipindex>45</clipindex>
													</link>
													<link>
														<linkclipref>Raw Scene Matthew Duepner Walkabout282</linkclipref>
														<mediatype>audio</mediatype>
														<trackindex>1</trackindex>
														<clipindex>45</clipindex>
														<groupindex>1</groupindex>
													</link>
													<link>
														<linkclipref>Raw Scene Matthew Duepner Walkabout283</linkclipref>
														<mediatype>audio</mediatype>
														<trackindex>2</trackindex>
														<clipindex>45</clipindex>
														<groupindex>1</groupindex>
													</link>
													<itemhistory>
														<uuid>9DA488EB-6C25-46C7-B275-514A2083D70C</uuid>
													</itemhistory>
												</clipitem>
												<clipitem id="Raw Scene Matthew Duepner Walkabout285">
													<name>Raw Scene Matthew Duepner Walkabout</name>
													<duration>38484</duration>
													<rate>
														<ntsc>TRUE</ntsc>
														<timebase>24</timebase>
													</rate>
													<in>23496</in>
													<out>23611</out>
													<start>6706</start>
													<end>6821</end>
													<masterclipid>Raw Scene Matthew Duepner Walkabout234</masterclipid>
													<logginginfo>
														<scene/>
														<shottake/>
														<lognote/>
														<good>FALSE</good>
													</logginginfo>
													<labels>
														<label2/>
													</labels>
													<comments>
														<mastercomment1/>
														<mastercomment2/>
														<mastercomment3/>
														<mastercomment4/>
													</comments>
													<file id="YIN_2013-05-28_LG-4 "/>
													<filter>
														<effect>
															<name>Audio Levels</name>
															<effectid>audiolevels</effectid>
															<effectcategory>audiolevels</effectcategory>
															<effecttype>audiolevels</effecttype>
															<mediatype>audio</mediatype>
															<parameter>
																<name>Level</name>
																<parameterid>level</parameterid>
																<valuemin>0</valuemin>
																<valuemax>3.98109</valuemax>
																<value>1</value>
															</parameter>
														</effect>
													</filter>
													<filter>
														<effect>
															<name>Audio Pan</name>
															<effectid>audiopan</effectid>
															<effectcategory>audiopan</effectcategory>
															<effecttype>audiopan</effecttype>
															<mediatype>audio</mediatype>
															<parameter>
																<name>Pan</name>
																<parameterid>pan</parameterid>
																<valuemin>-1</valuemin>
																<valuemax>1</valuemax>
																<value>0</value>
															</parameter>
														</effect>
													</filter>
													<sourcetrack>
														<mediatype>audio</mediatype>
														<trackindex>1</trackindex>
													</sourcetrack>
													<link>
														<linkclipref>Raw Scene Matthew Duepner Walkabout284</linkclipref>
														<mediatype>video</mediatype>
														<trackindex>1</trackindex>
														<clipindex>46</clipindex>
													</link>
													<link>
														<linkclipref>Raw Scene Matthew Duepner Walkabout285</linkclipref>
														<mediatype>audio</mediatype>
														<trackindex>1</trackindex>
														<clipindex>46</clipindex>
														<groupindex>1</groupindex>
													</link>
													<link>
														<linkclipref>Raw Scene Matthew Duepner Walkabout286</linkclipref>
														<mediatype>audio</mediatype>
														<trackindex>2</trackindex>
														<clipindex>46</clipindex>
														<groupindex>1</groupindex>
													</link>
													<itemhistory>
														<uuid>5A979AAA-B097-480D-87CE-982DBEEA4421</uuid>
													</itemhistory>
												</clipitem>
												<clipitem id="Raw Scene Matthew Duepner Walkabout288">
													<name>Raw Scene Matthew Duepner Walkabout</name>
													<duration>38484</duration>
													<rate>
														<ntsc>TRUE</ntsc>
														<timebase>24</timebase>
													</rate>
													<in>25130</in>
													<out>25241</out>
													<start>6821</start>
													<end>6932</end>
													<masterclipid>Raw Scene Matthew Duepner Walkabout234</masterclipid>
													<logginginfo>
														<scene/>
														<shottake/>
														<lognote/>
														<good>FALSE</good>
													</logginginfo>
													<labels>
														<label2/>
													</labels>
													<comments>
														<mastercomment1/>
														<mastercomment2/>
														<mastercomment3/>
														<mastercomment4/>
													</comments>
													<file id="YIN_2013-05-28_LG-4 "/>
													<filter>
														<effect>
															<name>Audio Levels</name>
															<effectid>audiolevels</effectid>
															<effectcategory>audiolevels</effectcategory>
															<effecttype>audiolevels</effecttype>
															<mediatype>audio</mediatype>
															<parameter>
																<name>Level</name>
																<parameterid>level</parameterid>
																<valuemin>0</valuemin>
																<valuemax>3.98109</valuemax>
																<value>1</value>
															</parameter>
														</effect>
													</filter>
													<filter>
														<effect>
															<name>Audio Pan</name>
															<effectid>audiopan</effectid>
															<effectcategory>audiopan</effectcategory>
															<effecttype>audiopan</effecttype>
															<mediatype>audio</mediatype>
															<parameter>
																<name>Pan</name>
																<parameterid>pan</parameterid>
																<valuemin>-1</valuemin>
																<valuemax>1</valuemax>
																<value>0</value>
															</parameter>
														</effect>
													</filter>
													<sourcetrack>
														<mediatype>audio</mediatype>
														<trackindex>1</trackindex>
													</sourcetrack>
													<link>
														<linkclipref>Raw Scene Matthew Duepner Walkabout287</linkclipref>
														<mediatype>video</mediatype>
														<trackindex>1</trackindex>
														<clipindex>47</clipindex>
													</link>
													<link>
														<linkclipref>Raw Scene Matthew Duepner Walkabout288</linkclipref>
														<mediatype>audio</mediatype>
														<trackindex>1</trackindex>
														<clipindex>47</clipindex>
														<groupindex>1</groupindex>
													</link>
													<link>
														<linkclipref>Raw Scene Matthew Duepner Walkabout289</linkclipref>
														<mediatype>audio</mediatype>
														<trackindex>2</trackindex>
														<clipindex>47</clipindex>
														<groupindex>1</groupindex>
													</link>
													<itemhistory>
														<uuid>30FA1B58-7050-4450-8E6D-BE654D530BC6</uuid>
													</itemhistory>
												</clipitem>
												<clipitem id="Raw Scene Matthew Duepner Walkabout291">
													<name>Raw Scene Matthew Duepner Walkabout</name>
													<duration>38484</duration>
													<rate>
														<ntsc>TRUE</ntsc>
														<timebase>24</timebase>
													</rate>
													<in>24211</in>
													<out>24295</out>
													<start>6932</start>
													<end>7016</end>
													<masterclipid>Raw Scene Matthew Duepner Walkabout234</masterclipid>
													<logginginfo>
														<scene/>
														<shottake/>
														<lognote/>
														<good>FALSE</good>
													</logginginfo>
													<labels>
														<label2/>
													</labels>
													<comments>
														<mastercomment1/>
														<mastercomment2/>
														<mastercomment3/>
														<mastercomment4/>
													</comments>
													<file id="YIN_2013-05-28_LG-4 "/>
													<filter>
														<effect>
															<name>Audio Levels</name>
															<effectid>audiolevels</effectid>
															<effectcategory>audiolevels</effectcategory>
															<effecttype>audiolevels</effecttype>
															<mediatype>audio</mediatype>
															<parameter>
																<name>Level</name>
																<parameterid>level</parameterid>
																<valuemin>0</valuemin>
																<valuemax>3.98109</valuemax>
																<value>1</value>
															</parameter>
														</effect>
													</filter>
													<filter>
														<effect>
															<name>Audio Pan</name>
															<effectid>audiopan</effectid>
															<effectcategory>audiopan</effectcategory>
															<effecttype>audiopan</effecttype>
															<mediatype>audio</mediatype>
															<parameter>
																<name>Pan</name>
																<parameterid>pan</parameterid>
																<valuemin>-1</valuemin>
																<valuemax>1</valuemax>
																<value>0</value>
															</parameter>
														</effect>
													</filter>
													<sourcetrack>
														<mediatype>audio</mediatype>
														<trackindex>1</trackindex>
													</sourcetrack>
													<link>
														<linkclipref>Raw Scene Matthew Duepner Walkabout290</linkclipref>
														<mediatype>video</mediatype>
														<trackindex>1</trackindex>
														<clipindex>48</clipindex>
													</link>
													<link>
														<linkclipref>Raw Scene Matthew Duepner Walkabout291</linkclipref>
														<mediatype>audio</mediatype>
														<trackindex>1</trackindex>
														<clipindex>48</clipindex>
														<groupindex>1</groupindex>
													</link>
													<link>
														<linkclipref>Raw Scene Matthew Duepner Walkabout292</linkclipref>
														<mediatype>audio</mediatype>
														<trackindex>2</trackindex>
														<clipindex>48</clipindex>
														<groupindex>1</groupindex>
													</link>
													<itemhistory>
														<uuid>BDA78BC5-B130-49BA-9C11-3F1426506B6F</uuid>
													</itemhistory>
												</clipitem>
												<clipitem id="Raw Scene Matthew Duepner Walkabout294">
													<name>Raw Scene Matthew Duepner Walkabout</name>
													<duration>38484</duration>
													<rate>
														<ntsc>TRUE</ntsc>
														<timebase>24</timebase>
													</rate>
													<in>23727</in>
													<out>23813</out>
													<start>7016</start>
													<end>7102</end>
													<masterclipid>Raw Scene Matthew Duepner Walkabout234</masterclipid>
													<logginginfo>
														<scene/>
														<shottake/>
														<lognote/>
														<good>FALSE</good>
													</logginginfo>
													<labels>
														<label2/>
													</labels>
													<comments>
														<mastercomment1/>
														<mastercomment2/>
														<mastercomment3/>
														<mastercomment4/>
													</comments>
													<file id="YIN_2013-05-28_LG-4 "/>
													<filter>
														<effect>
															<name>Audio Levels</name>
															<effectid>audiolevels</effectid>
															<effectcategory>audiolevels</effectcategory>
															<effecttype>audiolevels</effecttype>
															<mediatype>audio</mediatype>
															<parameter>
																<name>Level</name>
																<parameterid>level</parameterid>
																<valuemin>0</valuemin>
																<valuemax>3.98109</valuemax>
																<value>1</value>
															</parameter>
														</effect>
													</filter>
													<filter>
														<effect>
															<name>Audio Pan</name>
															<effectid>audiopan</effectid>
															<effectcategory>audiopan</effectcategory>
															<effecttype>audiopan</effecttype>
															<mediatype>audio</mediatype>
															<parameter>
																<name>Pan</name>
																<parameterid>pan</parameterid>
																<valuemin>-1</valuemin>
																<valuemax>1</valuemax>
																<value>0</value>
															</parameter>
														</effect>
													</filter>
													<sourcetrack>
														<mediatype>audio</mediatype>
														<trackindex>1</trackindex>
													</sourcetrack>
													<link>
														<linkclipref>Raw Scene Matthew Duepner Walkabout293</linkclipref>
														<mediatype>video</mediatype>
														<trackindex>1</trackindex>
														<clipindex>49</clipindex>
													</link>
													<link>
														<linkclipref>Raw Scene Matthew Duepner Walkabout294</linkclipref>
														<mediatype>audio</mediatype>
														<trackindex>1</trackindex>
														<clipindex>49</clipindex>
														<groupindex>1</groupindex>
													</link>
													<link>
														<linkclipref>Raw Scene Matthew Duepner Walkabout295</linkclipref>
														<mediatype>audio</mediatype>
														<trackindex>2</trackindex>
														<clipindex>49</clipindex>
														<groupindex>1</groupindex>
													</link>
													<itemhistory>
														<uuid>2925D919-870C-44AD-A77E-C3580C4AF9D0</uuid>
													</itemhistory>
												</clipitem>
												<clipitem id="Raw Scene Matthew Duepner Walkabout297">
													<name>Raw Scene Matthew Duepner Walkabout</name>
													<duration>38484</duration>
													<rate>
														<ntsc>TRUE</ntsc>
														<timebase>24</timebase>
													</rate>
													<in>24423</in>
													<out>24509</out>
													<start>7102</start>
													<end>7188</end>
													<masterclipid>Raw Scene Matthew Duepner Walkabout234</masterclipid>
													<logginginfo>
														<scene/>
														<shottake/>
														<lognote/>
														<good>FALSE</good>
													</logginginfo>
													<labels>
														<label2/>
													</labels>
													<comments>
														<mastercomment1/>
														<mastercomment2/>
														<mastercomment3/>
														<mastercomment4/>
													</comments>
													<file id="YIN_2013-05-28_LG-4 "/>
													<filter>
														<effect>
															<name>Audio Levels</name>
															<effectid>audiolevels</effectid>
															<effectcategory>audiolevels</effectcategory>
															<effecttype>audiolevels</effecttype>
															<mediatype>audio</mediatype>
															<parameter>
																<name>Level</name>
																<parameterid>level</parameterid>
																<valuemin>0</valuemin>
																<valuemax>3.98109</valuemax>
																<value>1</value>
															</parameter>
														</effect>
													</filter>
													<filter>
														<effect>
															<name>Audio Pan</name>
															<effectid>audiopan</effectid>
															<effectcategory>audiopan</effectcategory>
															<effecttype>audiopan</effecttype>
															<mediatype>audio</mediatype>
															<parameter>
																<name>Pan</name>
																<parameterid>pan</parameterid>
																<valuemin>-1</valuemin>
																<valuemax>1</valuemax>
																<value>0</value>
															</parameter>
														</effect>
													</filter>
													<sourcetrack>
														<mediatype>audio</mediatype>
														<trackindex>1</trackindex>
													</sourcetrack>
													<link>
														<linkclipref>Raw Scene Matthew Duepner Walkabout296</linkclipref>
														<mediatype>video</mediatype>
														<trackindex>1</trackindex>
														<clipindex>50</clipindex>
													</link>
													<link>
														<linkclipref>Raw Scene Matthew Duepner Walkabout297</linkclipref>
														<mediatype>audio</mediatype>
														<trackindex>1</trackindex>
														<clipindex>50</clipindex>
														<groupindex>1</groupindex>
													</link>
													<link>
														<linkclipref>Raw Scene Matthew Duepner Walkabout298</linkclipref>
														<mediatype>audio</mediatype>
														<trackindex>2</trackindex>
														<clipindex>50</clipindex>
														<groupindex>1</groupindex>
													</link>
													<itemhistory>
														<uuid>0AD7864E-D8DB-4A73-A7B6-B10030A7CC3C</uuid>
													</itemhistory>
												</clipitem>
												<clipitem id="Raw Scene Matthew Duepner Walkabout300">
													<name>Raw Scene Matthew Duepner Walkabout</name>
													<duration>38484</duration>
													<rate>
														<ntsc>TRUE</ntsc>
														<timebase>24</timebase>
													</rate>
													<in>26628</in>
													<out>26940</out>
													<start>7188</start>
													<end>7500</end>
													<masterclipid>Raw Scene Matthew Duepner Walkabout234</masterclipid>
													<logginginfo>
														<scene/>
														<shottake/>
														<lognote/>
														<good>FALSE</good>
													</logginginfo>
													<labels>
														<label2/>
													</labels>
													<comments>
														<mastercomment1/>
														<mastercomment2/>
														<mastercomment3/>
														<mastercomment4/>
													</comments>
													<file id="YIN_2013-05-28_LG-4 "/>
													<filter>
														<effect>
															<name>Audio Levels</name>
															<effectid>audiolevels</effectid>
															<effectcategory>audiolevels</effectcategory>
															<effecttype>audiolevels</effecttype>
															<mediatype>audio</mediatype>
															<parameter>
																<name>Level</name>
																<parameterid>level</parameterid>
																<valuemin>0</valuemin>
																<valuemax>3.98109</valuemax>
																<value>1</value>
															</parameter>
														</effect>
													</filter>
													<filter>
														<effect>
															<name>Audio Pan</name>
															<effectid>audiopan</effectid>
															<effectcategory>audiopan</effectcategory>
															<effecttype>audiopan</effecttype>
															<mediatype>audio</mediatype>
															<parameter>
																<name>Pan</name>
																<parameterid>pan</parameterid>
																<valuemin>-1</valuemin>
																<valuemax>1</valuemax>
																<value>0</value>
															</parameter>
														</effect>
													</filter>
													<sourcetrack>
														<mediatype>audio</mediatype>
														<trackindex>1</trackindex>
													</sourcetrack>
													<link>
														<linkclipref>Raw Scene Matthew Duepner Walkabout299</linkclipref>
														<mediatype>video</mediatype>
														<trackindex>1</trackindex>
														<clipindex>51</clipindex>
													</link>
													<link>
														<linkclipref>Raw Scene Matthew Duepner Walkabout300</linkclipref>
														<mediatype>audio</mediatype>
														<trackindex>1</trackindex>
														<clipindex>51</clipindex>
														<groupindex>1</groupindex>
													</link>
													<link>
														<linkclipref>Raw Scene Matthew Duepner Walkabout301</linkclipref>
														<mediatype>audio</mediatype>
														<trackindex>2</trackindex>
														<clipindex>51</clipindex>
														<groupindex>1</groupindex>
													</link>
													<itemhistory>
														<uuid>2FA2C9AE-D1A9-4B18-8D12-058F01E8DE36</uuid>
													</itemhistory>
												</clipitem>
												<clipitem id="Raw Scene Matthew Duepner Walkabout303">
													<name>Raw Scene Matthew Duepner Walkabout</name>
													<duration>38484</duration>
													<rate>
														<ntsc>TRUE</ntsc>
														<timebase>24</timebase>
													</rate>
													<in>26962</in>
													<out>27016</out>
													<start>7500</start>
													<end>7554</end>
													<masterclipid>Raw Scene Matthew Duepner Walkabout234</masterclipid>
													<logginginfo>
														<scene/>
														<shottake/>
														<lognote/>
														<good>FALSE</good>
													</logginginfo>
													<labels>
														<label2/>
													</labels>
													<comments>
														<mastercomment1/>
														<mastercomment2/>
														<mastercomment3/>
														<mastercomment4/>
													</comments>
													<file id="YIN_2013-05-28_LG-4 "/>
													<filter>
														<effect>
															<name>Audio Levels</name>
															<effectid>audiolevels</effectid>
															<effectcategory>audiolevels</effectcategory>
															<effecttype>audiolevels</effecttype>
															<mediatype>audio</mediatype>
															<parameter>
																<name>Level</name>
																<parameterid>level</parameterid>
																<valuemin>0</valuemin>
																<valuemax>3.98109</valuemax>
																<value>1</value>
															</parameter>
														</effect>
													</filter>
													<filter>
														<effect>
															<name>Audio Pan</name>
															<effectid>audiopan</effectid>
															<effectcategory>audiopan</effectcategory>
															<effecttype>audiopan</effecttype>
															<mediatype>audio</mediatype>
															<parameter>
																<name>Pan</name>
																<parameterid>pan</parameterid>
																<valuemin>-1</valuemin>
																<valuemax>1</valuemax>
																<value>0</value>
															</parameter>
														</effect>
													</filter>
													<sourcetrack>
														<mediatype>audio</mediatype>
														<trackindex>1</trackindex>
													</sourcetrack>
													<link>
														<linkclipref>Raw Scene Matthew Duepner Walkabout302</linkclipref>
														<mediatype>video</mediatype>
														<trackindex>1</trackindex>
														<clipindex>52</clipindex>
													</link>
													<link>
														<linkclipref>Raw Scene Matthew Duepner Walkabout303</linkclipref>
														<mediatype>audio</mediatype>
														<trackindex>1</trackindex>
														<clipindex>52</clipindex>
														<groupindex>1</groupindex>
													</link>
													<link>
														<linkclipref>Raw Scene Matthew Duepner Walkabout304</linkclipref>
														<mediatype>audio</mediatype>
														<trackindex>2</trackindex>
														<clipindex>52</clipindex>
														<groupindex>1</groupindex>
													</link>
													<itemhistory>
														<uuid>F0088493-1D9C-477A-8707-1DEDA1CD25AD</uuid>
													</itemhistory>
												</clipitem>
												<clipitem id="Raw Scene Matthew Duepner Walkabout306">
													<name>Raw Scene Matthew Duepner Walkabout</name>
													<duration>38484</duration>
													<rate>
														<ntsc>TRUE</ntsc>
														<timebase>24</timebase>
													</rate>
													<in>27816</in>
													<out>28338</out>
													<start>7554</start>
													<end>8076</end>
													<masterclipid>Raw Scene Matthew Duepner Walkabout234</masterclipid>
													<logginginfo>
														<scene/>
														<shottake/>
														<lognote/>
														<good>FALSE</good>
													</logginginfo>
													<labels>
														<label2/>
													</labels>
													<comments>
														<mastercomment1/>
														<mastercomment2/>
														<mastercomment3/>
														<mastercomment4/>
													</comments>
													<file id="YIN_2013-05-28_LG-4 "/>
													<filter>
														<effect>
															<name>Audio Levels</name>
															<effectid>audiolevels</effectid>
															<effectcategory>audiolevels</effectcategory>
															<effecttype>audiolevels</effecttype>
															<mediatype>audio</mediatype>
															<parameter>
																<name>Level</name>
																<parameterid>level</parameterid>
																<valuemin>0</valuemin>
																<valuemax>3.98109</valuemax>
																<value>1</value>
															</parameter>
														</effect>
													</filter>
													<filter>
														<effect>
															<name>Audio Pan</name>
															<effectid>audiopan</effectid>
															<effectcategory>audiopan</effectcategory>
															<effecttype>audiopan</effecttype>
															<mediatype>audio</mediatype>
															<parameter>
																<name>Pan</name>
																<parameterid>pan</parameterid>
																<valuemin>-1</valuemin>
																<valuemax>1</valuemax>
																<value>0</value>
															</parameter>
														</effect>
													</filter>
													<sourcetrack>
														<mediatype>audio</mediatype>
														<trackindex>1</trackindex>
													</sourcetrack>
													<link>
														<linkclipref>Raw Scene Matthew Duepner Walkabout305</linkclipref>
														<mediatype>video</mediatype>
														<trackindex>1</trackindex>
														<clipindex>53</clipindex>
													</link>
													<link>
														<linkclipref>Raw Scene Matthew Duepner Walkabout306</linkclipref>
														<mediatype>audio</mediatype>
														<trackindex>1</trackindex>
														<clipindex>53</clipindex>
														<groupindex>1</groupindex>
													</link>
													<link>
														<linkclipref>Raw Scene Matthew Duepner Walkabout307</linkclipref>
														<mediatype>audio</mediatype>
														<trackindex>2</trackindex>
														<clipindex>53</clipindex>
														<groupindex>1</groupindex>
													</link>
													<itemhistory>
														<uuid>E6315674-CC41-4BB5-91D2-599C313A63D6</uuid>
													</itemhistory>
												</clipitem>
												<clipitem id="Raw Scene Matthew Duepner Walkabout309">
													<name>Raw Scene Matthew Duepner Walkabout</name>
													<duration>38484</duration>
													<rate>
														<ntsc>TRUE</ntsc>
														<timebase>24</timebase>
													</rate>
													<in>28558</in>
													<out>28719</out>
													<start>8076</start>
													<end>8237</end>
													<masterclipid>Raw Scene Matthew Duepner Walkabout234</masterclipid>
													<logginginfo>
														<scene/>
														<shottake/>
														<lognote/>
														<good>FALSE</good>
													</logginginfo>
													<labels>
														<label2/>
													</labels>
													<comments>
														<mastercomment1/>
														<mastercomment2/>
														<mastercomment3/>
														<mastercomment4/>
													</comments>
													<file id="YIN_2013-05-28_LG-4 "/>
													<filter>
														<effect>
															<name>Audio Levels</name>
															<effectid>audiolevels</effectid>
															<effectcategory>audiolevels</effectcategory>
															<effecttype>audiolevels</effecttype>
															<mediatype>audio</mediatype>
															<parameter>
																<name>Level</name>
																<parameterid>level</parameterid>
																<valuemin>0</valuemin>
																<valuemax>3.98109</valuemax>
																<value>1</value>
															</parameter>
														</effect>
													</filter>
													<filter>
														<effect>
															<name>Audio Pan</name>
															<effectid>audiopan</effectid>
															<effectcategory>audiopan</effectcategory>
															<effecttype>audiopan</effecttype>
															<mediatype>audio</mediatype>
															<parameter>
																<name>Pan</name>
																<parameterid>pan</parameterid>
																<valuemin>-1</valuemin>
																<valuemax>1</valuemax>
																<value>0</value>
															</parameter>
														</effect>
													</filter>
													<sourcetrack>
														<mediatype>audio</mediatype>
														<trackindex>1</trackindex>
													</sourcetrack>
													<link>
														<linkclipref>Raw Scene Matthew Duepner Walkabout308</linkclipref>
														<mediatype>video</mediatype>
														<trackindex>1</trackindex>
														<clipindex>54</clipindex>
													</link>
													<link>
														<linkclipref>Raw Scene Matthew Duepner Walkabout309</linkclipref>
														<mediatype>audio</mediatype>
														<trackindex>1</trackindex>
														<clipindex>54</clipindex>
														<groupindex>1</groupindex>
													</link>
													<link>
														<linkclipref>Raw Scene Matthew Duepner Walkabout310</linkclipref>
														<mediatype>audio</mediatype>
														<trackindex>2</trackindex>
														<clipindex>54</clipindex>
														<groupindex>1</groupindex>
													</link>
													<itemhistory>
														<uuid>75C172CE-BCF2-4640-B873-5A6344BC9EB1</uuid>
													</itemhistory>
												</clipitem>
												<clipitem id="Raw Scene Matthew Duepner Walkabout312">
													<name>Raw Scene Matthew Duepner Walkabout</name>
													<duration>38484</duration>
													<rate>
														<ntsc>TRUE</ntsc>
														<timebase>24</timebase>
													</rate>
													<in>30624</in>
													<out>30700</out>
													<start>8237</start>
													<end>8313</end>
													<masterclipid>Raw Scene Matthew Duepner Walkabout234</masterclipid>
													<logginginfo>
														<scene/>
														<shottake/>
														<lognote/>
														<good>FALSE</good>
													</logginginfo>
													<labels>
														<label2/>
													</labels>
													<comments>
														<mastercomment1/>
														<mastercomment2/>
														<mastercomment3/>
														<mastercomment4/>
													</comments>
													<file id="YIN_2013-05-28_LG-4 "/>
													<filter>
														<effect>
															<name>Audio Levels</name>
															<effectid>audiolevels</effectid>
															<effectcategory>audiolevels</effectcategory>
															<effecttype>audiolevels</effecttype>
															<mediatype>audio</mediatype>
															<parameter>
																<name>Level</name>
																<parameterid>level</parameterid>
																<valuemin>0</valuemin>
																<valuemax>3.98109</valuemax>
																<value>1</value>
															</parameter>
														</effect>
													</filter>
													<filter>
														<effect>
															<name>Audio Pan</name>
															<effectid>audiopan</effectid>
															<effectcategory>audiopan</effectcategory>
															<effecttype>audiopan</effecttype>
															<mediatype>audio</mediatype>
															<parameter>
																<name>Pan</name>
																<parameterid>pan</parameterid>
																<valuemin>-1</valuemin>
																<valuemax>1</valuemax>
																<value>0</value>
															</parameter>
														</effect>
													</filter>
													<sourcetrack>
														<mediatype>audio</mediatype>
														<trackindex>1</trackindex>
													</sourcetrack>
													<link>
														<linkclipref>Raw Scene Matthew Duepner Walkabout311</linkclipref>
														<mediatype>video</mediatype>
														<trackindex>1</trackindex>
														<clipindex>55</clipindex>
													</link>
													<link>
														<linkclipref>Raw Scene Matthew Duepner Walkabout312</linkclipref>
														<mediatype>audio</mediatype>
														<trackindex>1</trackindex>
														<clipindex>55</clipindex>
														<groupindex>1</groupindex>
													</link>
													<link>
														<linkclipref>Raw Scene Matthew Duepner Walkabout313</linkclipref>
														<mediatype>audio</mediatype>
														<trackindex>2</trackindex>
														<clipindex>55</clipindex>
														<groupindex>1</groupindex>
													</link>
													<itemhistory>
														<uuid>44217C77-8979-4748-AF5F-646775DA6BFA</uuid>
													</itemhistory>
												</clipitem>
												<clipitem id="Raw Scene Matthew Duepner Walkabout315">
													<name>Raw Scene Matthew Duepner Walkabout</name>
													<duration>38484</duration>
													<rate>
														<ntsc>TRUE</ntsc>
														<timebase>24</timebase>
													</rate>
													<in>30946</in>
													<out>30968</out>
													<start>8313</start>
													<end>8335</end>
													<masterclipid>Raw Scene Matthew Duepner Walkabout234</masterclipid>
													<logginginfo>
														<scene/>
														<shottake/>
														<lognote/>
														<good>FALSE</good>
													</logginginfo>
													<labels>
														<label2/>
													</labels>
													<comments>
														<mastercomment1/>
														<mastercomment2/>
														<mastercomment3/>
														<mastercomment4/>
													</comments>
													<file id="YIN_2013-05-28_LG-4 "/>
													<filter>
														<effect>
															<name>Audio Levels</name>
															<effectid>audiolevels</effectid>
															<effectcategory>audiolevels</effectcategory>
															<effecttype>audiolevels</effecttype>
															<mediatype>audio</mediatype>
															<parameter>
																<name>Level</name>
																<parameterid>level</parameterid>
																<valuemin>0</valuemin>
																<valuemax>3.98109</valuemax>
																<value>1</value>
															</parameter>
														</effect>
													</filter>
													<filter>
														<effect>
															<name>Audio Pan</name>
															<effectid>audiopan</effectid>
															<effectcategory>audiopan</effectcategory>
															<effecttype>audiopan</effecttype>
															<mediatype>audio</mediatype>
															<parameter>
																<name>Pan</name>
																<parameterid>pan</parameterid>
																<valuemin>-1</valuemin>
																<valuemax>1</valuemax>
																<value>0</value>
															</parameter>
														</effect>
													</filter>
													<sourcetrack>
														<mediatype>audio</mediatype>
														<trackindex>1</trackindex>
													</sourcetrack>
													<link>
														<linkclipref>Raw Scene Matthew Duepner Walkabout314</linkclipref>
														<mediatype>video</mediatype>
														<trackindex>1</trackindex>
														<clipindex>56</clipindex>
													</link>
													<link>
														<linkclipref>Raw Scene Matthew Duepner Walkabout315</linkclipref>
														<mediatype>audio</mediatype>
														<trackindex>1</trackindex>
														<clipindex>56</clipindex>
														<groupindex>1</groupindex>
													</link>
													<link>
														<linkclipref>Raw Scene Matthew Duepner Walkabout316</linkclipref>
														<mediatype>audio</mediatype>
														<trackindex>2</trackindex>
														<clipindex>56</clipindex>
														<groupindex>1</groupindex>
													</link>
													<itemhistory>
														<uuid>2F32A2CF-C61D-46CF-8AA9-D9AA4DF1FF9E</uuid>
													</itemhistory>
												</clipitem>
												<clipitem id="Raw Scene Matthew Duepner Walkabout318">
													<name>Raw Scene Matthew Duepner Walkabout</name>
													<duration>38484</duration>
													<rate>
														<ntsc>TRUE</ntsc>
														<timebase>24</timebase>
													</rate>
													<in>31032</in>
													<out>31190</out>
													<start>8335</start>
													<end>8493</end>
													<masterclipid>Raw Scene Matthew Duepner Walkabout234</masterclipid>
													<logginginfo>
														<scene/>
														<shottake/>
														<lognote/>
														<good>FALSE</good>
													</logginginfo>
													<labels>
														<label2/>
													</labels>
													<comments>
														<mastercomment1/>
														<mastercomment2/>
														<mastercomment3/>
														<mastercomment4/>
													</comments>
													<file id="YIN_2013-05-28_LG-4 "/>
													<filter>
														<effect>
															<name>Audio Levels</name>
															<effectid>audiolevels</effectid>
															<effectcategory>audiolevels</effectcategory>
															<effecttype>audiolevels</effecttype>
															<mediatype>audio</mediatype>
															<parameter>
																<name>Level</name>
																<parameterid>level</parameterid>
																<valuemin>0</valuemin>
																<valuemax>3.98109</valuemax>
																<value>1</value>
															</parameter>
														</effect>
													</filter>
													<filter>
														<effect>
															<name>Audio Pan</name>
															<effectid>audiopan</effectid>
															<effectcategory>audiopan</effectcategory>
															<effecttype>audiopan</effecttype>
															<mediatype>audio</mediatype>
															<parameter>
																<name>Pan</name>
																<parameterid>pan</parameterid>
																<valuemin>-1</valuemin>
																<valuemax>1</valuemax>
																<value>0</value>
															</parameter>
														</effect>
													</filter>
													<sourcetrack>
														<mediatype>audio</mediatype>
														<trackindex>1</trackindex>
													</sourcetrack>
													<link>
														<linkclipref>Raw Scene Matthew Duepner Walkabout317</linkclipref>
														<mediatype>video</mediatype>
														<trackindex>1</trackindex>
														<clipindex>57</clipindex>
													</link>
													<link>
														<linkclipref>Raw Scene Matthew Duepner Walkabout318</linkclipref>
														<mediatype>audio</mediatype>
														<trackindex>1</trackindex>
														<clipindex>57</clipindex>
														<groupindex>1</groupindex>
													</link>
													<link>
														<linkclipref>Raw Scene Matthew Duepner Walkabout319</linkclipref>
														<mediatype>audio</mediatype>
														<trackindex>2</trackindex>
														<clipindex>57</clipindex>
														<groupindex>1</groupindex>
													</link>
													<itemhistory>
														<uuid>8D0F63E4-BFD5-4538-914A-CF4E574F7B9E</uuid>
													</itemhistory>
												</clipitem>
												<clipitem id="Raw Scene Matthew Duepner Walkabout321">
													<name>Raw Scene Matthew Duepner Walkabout</name>
													<duration>38484</duration>
													<rate>
														<ntsc>TRUE</ntsc>
														<timebase>24</timebase>
													</rate>
													<in>31795</in>
													<out>31917</out>
													<start>8493</start>
													<end>8615</end>
													<masterclipid>Raw Scene Matthew Duepner Walkabout234</masterclipid>
													<logginginfo>
														<scene/>
														<shottake/>
														<lognote/>
														<good>FALSE</good>
													</logginginfo>
													<labels>
														<label2/>
													</labels>
													<comments>
														<mastercomment1/>
														<mastercomment2/>
														<mastercomment3/>
														<mastercomment4/>
													</comments>
													<file id="YIN_2013-05-28_LG-4 "/>
													<filter>
														<effect>
															<name>Audio Levels</name>
															<effectid>audiolevels</effectid>
															<effectcategory>audiolevels</effectcategory>
															<effecttype>audiolevels</effecttype>
															<mediatype>audio</mediatype>
															<parameter>
																<name>Level</name>
																<parameterid>level</parameterid>
																<valuemin>0</valuemin>
																<valuemax>3.98109</valuemax>
																<value>1</value>
															</parameter>
														</effect>
													</filter>
													<filter>
														<effect>
															<name>Audio Pan</name>
															<effectid>audiopan</effectid>
															<effectcategory>audiopan</effectcategory>
															<effecttype>audiopan</effecttype>
															<mediatype>audio</mediatype>
															<parameter>
																<name>Pan</name>
																<parameterid>pan</parameterid>
																<valuemin>-1</valuemin>
																<valuemax>1</valuemax>
																<value>0</value>
															</parameter>
														</effect>
													</filter>
													<sourcetrack>
														<mediatype>audio</mediatype>
														<trackindex>1</trackindex>
													</sourcetrack>
													<link>
														<linkclipref>Raw Scene Matthew Duepner Walkabout320</linkclipref>
														<mediatype>video</mediatype>
														<trackindex>1</trackindex>
														<clipindex>58</clipindex>
													</link>
													<link>
														<linkclipref>Raw Scene Matthew Duepner Walkabout321</linkclipref>
														<mediatype>audio</mediatype>
														<trackindex>1</trackindex>
														<clipindex>58</clipindex>
														<groupindex>1</groupindex>
													</link>
													<link>
														<linkclipref>Raw Scene Matthew Duepner Walkabout322</linkclipref>
														<mediatype>audio</mediatype>
														<trackindex>2</trackindex>
														<clipindex>58</clipindex>
														<groupindex>1</groupindex>
													</link>
													<itemhistory>
														<uuid>AB980D11-5F54-4D96-8ACB-DAEA8ED3E5A8</uuid>
													</itemhistory>
												</clipitem>
												<clipitem id="Raw Scene Matthew Duepner Walkabout324">
													<name>Raw Scene Matthew Duepner Walkabout</name>
													<duration>38484</duration>
													<rate>
														<ntsc>TRUE</ntsc>
														<timebase>24</timebase>
													</rate>
													<in>32375</in>
													<out>32507</out>
													<start>8615</start>
													<end>8747</end>
													<masterclipid>Raw Scene Matthew Duepner Walkabout234</masterclipid>
													<logginginfo>
														<scene/>
														<shottake/>
														<lognote/>
														<good>FALSE</good>
													</logginginfo>
													<labels>
														<label2/>
													</labels>
													<comments>
														<mastercomment1/>
														<mastercomment2/>
														<mastercomment3/>
														<mastercomment4/>
													</comments>
													<file id="YIN_2013-05-28_LG-4 "/>
													<filter>
														<effect>
															<name>Audio Levels</name>
															<effectid>audiolevels</effectid>
															<effectcategory>audiolevels</effectcategory>
															<effecttype>audiolevels</effecttype>
															<mediatype>audio</mediatype>
															<parameter>
																<name>Level</name>
																<parameterid>level</parameterid>
																<valuemin>0</valuemin>
																<valuemax>3.98109</valuemax>
																<value>1</value>
															</parameter>
														</effect>
													</filter>
													<filter>
														<effect>
															<name>Audio Pan</name>
															<effectid>audiopan</effectid>
															<effectcategory>audiopan</effectcategory>
															<effecttype>audiopan</effecttype>
															<mediatype>audio</mediatype>
															<parameter>
																<name>Pan</name>
																<parameterid>pan</parameterid>
																<valuemin>-1</valuemin>
																<valuemax>1</valuemax>
																<value>0</value>
															</parameter>
														</effect>
													</filter>
													<sourcetrack>
														<mediatype>audio</mediatype>
														<trackindex>1</trackindex>
													</sourcetrack>
													<link>
														<linkclipref>Raw Scene Matthew Duepner Walkabout323</linkclipref>
														<mediatype>video</mediatype>
														<trackindex>1</trackindex>
														<clipindex>59</clipindex>
													</link>
													<link>
														<linkclipref>Raw Scene Matthew Duepner Walkabout324</linkclipref>
														<mediatype>audio</mediatype>
														<trackindex>1</trackindex>
														<clipindex>59</clipindex>
														<groupindex>1</groupindex>
													</link>
													<link>
														<linkclipref>Raw Scene Matthew Duepner Walkabout325</linkclipref>
														<mediatype>audio</mediatype>
														<trackindex>2</trackindex>
														<clipindex>59</clipindex>
														<groupindex>1</groupindex>
													</link>
													<itemhistory>
														<uuid>08B5CB44-2F21-4440-A875-EC44A11F23BF</uuid>
													</itemhistory>
												</clipitem>
												<clipitem id="Raw Scene Matthew Duepner Walkabout327">
													<name>Raw Scene Matthew Duepner Walkabout</name>
													<duration>38484</duration>
													<rate>
														<ntsc>TRUE</ntsc>
														<timebase>24</timebase>
													</rate>
													<in>32997</in>
													<out>33142</out>
													<start>8747</start>
													<end>8892</end>
													<masterclipid>Raw Scene Matthew Duepner Walkabout234</masterclipid>
													<logginginfo>
														<scene/>
														<shottake/>
														<lognote/>
														<good>FALSE</good>
													</logginginfo>
													<labels>
														<label2/>
													</labels>
													<comments>
														<mastercomment1/>
														<mastercomment2/>
														<mastercomment3/>
														<mastercomment4/>
													</comments>
													<file id="YIN_2013-05-28_LG-4 "/>
													<filter>
														<effect>
															<name>Audio Levels</name>
															<effectid>audiolevels</effectid>
															<effectcategory>audiolevels</effectcategory>
															<effecttype>audiolevels</effecttype>
															<mediatype>audio</mediatype>
															<parameter>
																<name>Level</name>
																<parameterid>level</parameterid>
																<valuemin>0</valuemin>
																<valuemax>3.98109</valuemax>
																<value>1</value>
															</parameter>
														</effect>
													</filter>
													<filter>
														<effect>
															<name>Audio Pan</name>
															<effectid>audiopan</effectid>
															<effectcategory>audiopan</effectcategory>
															<effecttype>audiopan</effecttype>
															<mediatype>audio</mediatype>
															<parameter>
																<name>Pan</name>
																<parameterid>pan</parameterid>
																<valuemin>-1</valuemin>
																<valuemax>1</valuemax>
																<value>0</value>
															</parameter>
														</effect>
													</filter>
													<sourcetrack>
														<mediatype>audio</mediatype>
														<trackindex>1</trackindex>
													</sourcetrack>
													<link>
														<linkclipref>Raw Scene Matthew Duepner Walkabout326</linkclipref>
														<mediatype>video</mediatype>
														<trackindex>1</trackindex>
														<clipindex>60</clipindex>
													</link>
													<link>
														<linkclipref>Raw Scene Matthew Duepner Walkabout327</linkclipref>
														<mediatype>audio</mediatype>
														<trackindex>1</trackindex>
														<clipindex>60</clipindex>
														<groupindex>1</groupindex>
													</link>
													<link>
														<linkclipref>Raw Scene Matthew Duepner Walkabout328</linkclipref>
														<mediatype>audio</mediatype>
														<trackindex>2</trackindex>
														<clipindex>60</clipindex>
														<groupindex>1</groupindex>
													</link>
													<itemhistory>
														<uuid>223809FD-0B32-4E0E-A862-2443F749790B</uuid>
													</itemhistory>
												</clipitem>
												<clipitem id="Raw Scene Matthew Duepner Walkabout330">
													<name>Raw Scene Matthew Duepner Walkabout</name>
													<duration>38484</duration>
													<rate>
														<ntsc>TRUE</ntsc>
														<timebase>24</timebase>
													</rate>
													<in>33365</in>
													<out>33603</out>
													<start>8892</start>
													<end>9130</end>
													<masterclipid>Raw Scene Matthew Duepner Walkabout234</masterclipid>
													<logginginfo>
														<scene/>
														<shottake/>
														<lognote/>
														<good>FALSE</good>
													</logginginfo>
													<labels>
														<label2/>
													</labels>
													<comments>
														<mastercomment1/>
														<mastercomment2/>
														<mastercomment3/>
														<mastercomment4/>
													</comments>
													<file id="YIN_2013-05-28_LG-4 "/>
													<filter>
														<effect>
															<name>Audio Levels</name>
															<effectid>audiolevels</effectid>
															<effectcategory>audiolevels</effectcategory>
															<effecttype>audiolevels</effecttype>
															<mediatype>audio</mediatype>
															<parameter>
																<name>Level</name>
																<parameterid>level</parameterid>
																<valuemin>0</valuemin>
																<valuemax>3.98109</valuemax>
																<value>1</value>
															</parameter>
														</effect>
													</filter>
													<filter>
														<effect>
															<name>Audio Pan</name>
															<effectid>audiopan</effectid>
															<effectcategory>audiopan</effectcategory>
															<effecttype>audiopan</effecttype>
															<mediatype>audio</mediatype>
															<parameter>
																<name>Pan</name>
																<parameterid>pan</parameterid>
																<valuemin>-1</valuemin>
																<valuemax>1</valuemax>
																<value>0</value>
															</parameter>
														</effect>
													</filter>
													<sourcetrack>
														<mediatype>audio</mediatype>
														<trackindex>1</trackindex>
													</sourcetrack>
													<link>
														<linkclipref>Raw Scene Matthew Duepner Walkabout329</linkclipref>
														<mediatype>video</mediatype>
														<trackindex>1</trackindex>
														<clipindex>61</clipindex>
													</link>
													<link>
														<linkclipref>Raw Scene Matthew Duepner Walkabout330</linkclipref>
														<mediatype>audio</mediatype>
														<trackindex>1</trackindex>
														<clipindex>61</clipindex>
														<groupindex>1</groupindex>
													</link>
													<link>
														<linkclipref>Raw Scene Matthew Duepner Walkabout331</linkclipref>
														<mediatype>audio</mediatype>
														<trackindex>2</trackindex>
														<clipindex>61</clipindex>
														<groupindex>1</groupindex>
													</link>
													<itemhistory>
														<uuid>C5E94A1C-942D-442F-879E-1EB7A1DCF495</uuid>
													</itemhistory>
												</clipitem>
												<clipitem id="Raw Scene Matthew Duepner Walkabout333">
													<name>Raw Scene Matthew Duepner Walkabout</name>
													<duration>38484</duration>
													<rate>
														<ntsc>TRUE</ntsc>
														<timebase>24</timebase>
													</rate>
													<in>34172</in>
													<out>34249</out>
													<start>9130</start>
													<end>9207</end>
													<masterclipid>Raw Scene Matthew Duepner Walkabout234</masterclipid>
													<logginginfo>
														<scene/>
														<shottake/>
														<lognote/>
														<good>FALSE</good>
													</logginginfo>
													<labels>
														<label2/>
													</labels>
													<comments>
														<mastercomment1/>
														<mastercomment2/>
														<mastercomment3/>
														<mastercomment4/>
													</comments>
													<file id="YIN_2013-05-28_LG-4 "/>
													<filter>
														<effect>
															<name>Audio Levels</name>
															<effectid>audiolevels</effectid>
															<effectcategory>audiolevels</effectcategory>
															<effecttype>audiolevels</effecttype>
															<mediatype>audio</mediatype>
															<parameter>
																<name>Level</name>
																<parameterid>level</parameterid>
																<valuemin>0</valuemin>
																<valuemax>3.98109</valuemax>
																<value>1</value>
															</parameter>
														</effect>
													</filter>
													<filter>
														<effect>
															<name>Audio Pan</name>
															<effectid>audiopan</effectid>
															<effectcategory>audiopan</effectcategory>
															<effecttype>audiopan</effecttype>
															<mediatype>audio</mediatype>
															<parameter>
																<name>Pan</name>
																<parameterid>pan</parameterid>
																<valuemin>-1</valuemin>
																<valuemax>1</valuemax>
																<value>0</value>
															</parameter>
														</effect>
													</filter>
													<sourcetrack>
														<mediatype>audio</mediatype>
														<trackindex>1</trackindex>
													</sourcetrack>
													<link>
														<linkclipref>Raw Scene Matthew Duepner Walkabout332</linkclipref>
														<mediatype>video</mediatype>
														<trackindex>1</trackindex>
														<clipindex>62</clipindex>
													</link>
													<link>
														<linkclipref>Raw Scene Matthew Duepner Walkabout333</linkclipref>
														<mediatype>audio</mediatype>
														<trackindex>1</trackindex>
														<clipindex>62</clipindex>
														<groupindex>1</groupindex>
													</link>
													<link>
														<linkclipref>Raw Scene Matthew Duepner Walkabout334</linkclipref>
														<mediatype>audio</mediatype>
														<trackindex>2</trackindex>
														<clipindex>62</clipindex>
														<groupindex>1</groupindex>
													</link>
													<itemhistory>
														<uuid>62E97F61-2D7C-4C6B-B434-B1B5D16981D8</uuid>
													</itemhistory>
												</clipitem>
												<clipitem id="Raw Scene Matthew Duepner Walkabout336">
													<name>Raw Scene Matthew Duepner Walkabout</name>
													<duration>38484</duration>
													<rate>
														<ntsc>TRUE</ntsc>
														<timebase>24</timebase>
													</rate>
													<in>34380</in>
													<out>34644</out>
													<start>9207</start>
													<end>9471</end>
													<masterclipid>Raw Scene Matthew Duepner Walkabout234</masterclipid>
													<logginginfo>
														<scene/>
														<shottake/>
														<lognote/>
														<good>FALSE</good>
													</logginginfo>
													<labels>
														<label2/>
													</labels>
													<comments>
														<mastercomment1/>
														<mastercomment2/>
														<mastercomment3/>
														<mastercomment4/>
													</comments>
													<file id="YIN_2013-05-28_LG-4 "/>
													<filter>
														<effect>
															<name>Audio Levels</name>
															<effectid>audiolevels</effectid>
															<effectcategory>audiolevels</effectcategory>
															<effecttype>audiolevels</effecttype>
															<mediatype>audio</mediatype>
															<parameter>
																<name>Level</name>
																<parameterid>level</parameterid>
																<valuemin>0</valuemin>
																<valuemax>3.98109</valuemax>
																<value>1</value>
															</parameter>
														</effect>
													</filter>
													<filter>
														<effect>
															<name>Audio Pan</name>
															<effectid>audiopan</effectid>
															<effectcategory>audiopan</effectcategory>
															<effecttype>audiopan</effecttype>
															<mediatype>audio</mediatype>
															<parameter>
																<name>Pan</name>
																<parameterid>pan</parameterid>
																<valuemin>-1</valuemin>
																<valuemax>1</valuemax>
																<value>0</value>
															</parameter>
														</effect>
													</filter>
													<sourcetrack>
														<mediatype>audio</mediatype>
														<trackindex>1</trackindex>
													</sourcetrack>
													<link>
														<linkclipref>Raw Scene Matthew Duepner Walkabout335</linkclipref>
														<mediatype>video</mediatype>
														<trackindex>1</trackindex>
														<clipindex>63</clipindex>
													</link>
													<link>
														<linkclipref>Raw Scene Matthew Duepner Walkabout336</linkclipref>
														<mediatype>audio</mediatype>
														<trackindex>1</trackindex>
														<clipindex>63</clipindex>
														<groupindex>1</groupindex>
													</link>
													<link>
														<linkclipref>Raw Scene Matthew Duepner Walkabout337</linkclipref>
														<mediatype>audio</mediatype>
														<trackindex>2</trackindex>
														<clipindex>63</clipindex>
														<groupindex>1</groupindex>
													</link>
													<itemhistory>
														<uuid>4E323BA6-037B-4715-838A-8497CCDCA797</uuid>
													</itemhistory>
												</clipitem>
												<clipitem id="Raw Scene Matthew Duepner Walkabout339">
													<name>Raw Scene Matthew Duepner Walkabout</name>
													<duration>38484</duration>
													<rate>
														<ntsc>TRUE</ntsc>
														<timebase>24</timebase>
													</rate>
													<in>36124</in>
													<out>36168</out>
													<start>9471</start>
													<end>9515</end>
													<masterclipid>Raw Scene Matthew Duepner Walkabout234</masterclipid>
													<logginginfo>
														<scene/>
														<shottake/>
														<lognote/>
														<good>FALSE</good>
													</logginginfo>
													<labels>
														<label2/>
													</labels>
													<comments>
														<mastercomment1/>
														<mastercomment2/>
														<mastercomment3/>
														<mastercomment4/>
													</comments>
													<file id="YIN_2013-05-28_LG-4 "/>
													<filter>
														<effect>
															<name>Audio Levels</name>
															<effectid>audiolevels</effectid>
															<effectcategory>audiolevels</effectcategory>
															<effecttype>audiolevels</effecttype>
															<mediatype>audio</mediatype>
															<parameter>
																<name>Level</name>
																<parameterid>level</parameterid>
																<valuemin>0</valuemin>
																<valuemax>3.98109</valuemax>
																<value>1</value>
															</parameter>
														</effect>
													</filter>
													<filter>
														<effect>
															<name>Audio Pan</name>
															<effectid>audiopan</effectid>
															<effectcategory>audiopan</effectcategory>
															<effecttype>audiopan</effecttype>
															<mediatype>audio</mediatype>
															<parameter>
																<name>Pan</name>
																<parameterid>pan</parameterid>
																<valuemin>-1</valuemin>
																<valuemax>1</valuemax>
																<value>0</value>
															</parameter>
														</effect>
													</filter>
													<sourcetrack>
														<mediatype>audio</mediatype>
														<trackindex>1</trackindex>
													</sourcetrack>
													<link>
														<linkclipref>Raw Scene Matthew Duepner Walkabout338</linkclipref>
														<mediatype>video</mediatype>
														<trackindex>1</trackindex>
														<clipindex>64</clipindex>
													</link>
													<link>
														<linkclipref>Raw Scene Matthew Duepner Walkabout339</linkclipref>
														<mediatype>audio</mediatype>
														<trackindex>1</trackindex>
														<clipindex>64</clipindex>
														<groupindex>1</groupindex>
													</link>
													<link>
														<linkclipref>Raw Scene Matthew Duepner Walkabout340</linkclipref>
														<mediatype>audio</mediatype>
														<trackindex>2</trackindex>
														<clipindex>64</clipindex>
														<groupindex>1</groupindex>
													</link>
													<itemhistory>
														<uuid>30F1C8B1-0086-41E9-B3B1-639860AAF9F9</uuid>
													</itemhistory>
												</clipitem>
												<clipitem id="Raw Scene Matthew Duepner Walkabout342">
													<name>Raw Scene Matthew Duepner Walkabout</name>
													<duration>38484</duration>
													<rate>
														<ntsc>TRUE</ntsc>
														<timebase>24</timebase>
													</rate>
													<in>36397</in>
													<out>36474</out>
													<start>9515</start>
													<end>9592</end>
													<masterclipid>Raw Scene Matthew Duepner Walkabout234</masterclipid>
													<logginginfo>
														<scene/>
														<shottake/>
														<lognote/>
														<good>FALSE</good>
													</logginginfo>
													<labels>
														<label2/>
													</labels>
													<comments>
														<mastercomment1/>
														<mastercomment2/>
														<mastercomment3/>
														<mastercomment4/>
													</comments>
													<file id="YIN_2013-05-28_LG-4 "/>
													<filter>
														<effect>
															<name>Audio Levels</name>
															<effectid>audiolevels</effectid>
															<effectcategory>audiolevels</effectcategory>
															<effecttype>audiolevels</effecttype>
															<mediatype>audio</mediatype>
															<parameter>
																<name>Level</name>
																<parameterid>level</parameterid>
																<valuemin>0</valuemin>
																<valuemax>3.98109</valuemax>
																<value>1</value>
															</parameter>
														</effect>
													</filter>
													<filter>
														<effect>
															<name>Audio Pan</name>
															<effectid>audiopan</effectid>
															<effectcategory>audiopan</effectcategory>
															<effecttype>audiopan</effecttype>
															<mediatype>audio</mediatype>
															<parameter>
																<name>Pan</name>
																<parameterid>pan</parameterid>
																<valuemin>-1</valuemin>
																<valuemax>1</valuemax>
																<value>0</value>
															</parameter>
														</effect>
													</filter>
													<sourcetrack>
														<mediatype>audio</mediatype>
														<trackindex>1</trackindex>
													</sourcetrack>
													<link>
														<linkclipref>Raw Scene Matthew Duepner Walkabout341</linkclipref>
														<mediatype>video</mediatype>
														<trackindex>1</trackindex>
														<clipindex>65</clipindex>
													</link>
													<link>
														<linkclipref>Raw Scene Matthew Duepner Walkabout342</linkclipref>
														<mediatype>audio</mediatype>
														<trackindex>1</trackindex>
														<clipindex>65</clipindex>
														<groupindex>1</groupindex>
													</link>
													<link>
														<linkclipref>Raw Scene Matthew Duepner Walkabout343</linkclipref>
														<mediatype>audio</mediatype>
														<trackindex>2</trackindex>
														<clipindex>65</clipindex>
														<groupindex>1</groupindex>
													</link>
													<itemhistory>
														<uuid>04E197B4-3FB3-43C9-8BB7-15A16A6E7644</uuid>
													</itemhistory>
												</clipitem>
												<clipitem id="Raw Scene Matthew Duepner Walkabout345">
													<name>Raw Scene Matthew Duepner Walkabout</name>
													<duration>38484</duration>
													<rate>
														<ntsc>TRUE</ntsc>
														<timebase>24</timebase>
													</rate>
													<in>37446</in>
													<out>37533</out>
													<start>9592</start>
													<end>9679</end>
													<masterclipid>Raw Scene Matthew Duepner Walkabout234</masterclipid>
													<logginginfo>
														<scene/>
														<shottake/>
														<lognote/>
														<good>FALSE</good>
													</logginginfo>
													<labels>
														<label2/>
													</labels>
													<comments>
														<mastercomment1/>
														<mastercomment2/>
														<mastercomment3/>
														<mastercomment4/>
													</comments>
													<file id="YIN_2013-05-28_LG-4 "/>
													<filter>
														<effect>
															<name>Audio Levels</name>
															<effectid>audiolevels</effectid>
															<effectcategory>audiolevels</effectcategory>
															<effecttype>audiolevels</effecttype>
															<mediatype>audio</mediatype>
															<parameter>
																<name>Level</name>
																<parameterid>level</parameterid>
																<valuemin>0</valuemin>
																<valuemax>3.98109</valuemax>
																<value>1</value>
															</parameter>
														</effect>
													</filter>
													<filter>
														<effect>
															<name>Audio Pan</name>
															<effectid>audiopan</effectid>
															<effectcategory>audiopan</effectcategory>
															<effecttype>audiopan</effecttype>
															<mediatype>audio</mediatype>
															<parameter>
																<name>Pan</name>
																<parameterid>pan</parameterid>
																<valuemin>-1</valuemin>
																<valuemax>1</valuemax>
																<value>0</value>
															</parameter>
														</effect>
													</filter>
													<sourcetrack>
														<mediatype>audio</mediatype>
														<trackindex>1</trackindex>
													</sourcetrack>
													<link>
														<linkclipref>Raw Scene Matthew Duepner Walkabout344</linkclipref>
														<mediatype>video</mediatype>
														<trackindex>1</trackindex>
														<clipindex>66</clipindex>
													</link>
													<link>
														<linkclipref>Raw Scene Matthew Duepner Walkabout345</linkclipref>
														<mediatype>audio</mediatype>
														<trackindex>1</trackindex>
														<clipindex>66</clipindex>
														<groupindex>1</groupindex>
													</link>
													<link>
														<linkclipref>Raw Scene Matthew Duepner Walkabout346</linkclipref>
														<mediatype>audio</mediatype>
														<trackindex>2</trackindex>
														<clipindex>66</clipindex>
														<groupindex>1</groupindex>
													</link>
													<itemhistory>
														<uuid>EB514F90-59BD-4AEA-88B8-EE35E0F4956F</uuid>
													</itemhistory>
												</clipitem>
												<clipitem id="Raw Scene Matthew Duepner Walkabout348">
													<name>Raw Scene Matthew Duepner Walkabout</name>
													<duration>38484</duration>
													<rate>
														<ntsc>TRUE</ntsc>
														<timebase>24</timebase>
													</rate>
													<in>37856</in>
													<out>37874</out>
													<start>9679</start>
													<end>9697</end>
													<masterclipid>Raw Scene Matthew Duepner Walkabout234</masterclipid>
													<logginginfo>
														<scene/>
														<shottake/>
														<lognote/>
														<good>FALSE</good>
													</logginginfo>
													<labels>
														<label2/>
													</labels>
													<comments>
														<mastercomment1/>
														<mastercomment2/>
														<mastercomment3/>
														<mastercomment4/>
													</comments>
													<file id="YIN_2013-05-28_LG-4 "/>
													<filter>
														<effect>
															<name>Audio Levels</name>
															<effectid>audiolevels</effectid>
															<effectcategory>audiolevels</effectcategory>
															<effecttype>audiolevels</effecttype>
															<mediatype>audio</mediatype>
															<parameter>
																<name>Level</name>
																<parameterid>level</parameterid>
																<valuemin>0</valuemin>
																<valuemax>3.98109</valuemax>
																<value>1</value>
															</parameter>
														</effect>
													</filter>
													<filter>
														<effect>
															<name>Audio Pan</name>
															<effectid>audiopan</effectid>
															<effectcategory>audiopan</effectcategory>
															<effecttype>audiopan</effecttype>
															<mediatype>audio</mediatype>
															<parameter>
																<name>Pan</name>
																<parameterid>pan</parameterid>
																<valuemin>-1</valuemin>
																<valuemax>1</valuemax>
																<value>0</value>
															</parameter>
														</effect>
													</filter>
													<sourcetrack>
														<mediatype>audio</mediatype>
														<trackindex>1</trackindex>
													</sourcetrack>
													<link>
														<linkclipref>Raw Scene Matthew Duepner Walkabout347</linkclipref>
														<mediatype>video</mediatype>
														<trackindex>1</trackindex>
														<clipindex>67</clipindex>
													</link>
													<link>
														<linkclipref>Raw Scene Matthew Duepner Walkabout348</linkclipref>
														<mediatype>audio</mediatype>
														<trackindex>1</trackindex>
														<clipindex>67</clipindex>
														<groupindex>1</groupindex>
													</link>
													<link>
														<linkclipref>Raw Scene Matthew Duepner Walkabout349</linkclipref>
														<mediatype>audio</mediatype>
														<trackindex>2</trackindex>
														<clipindex>67</clipindex>
														<groupindex>1</groupindex>
													</link>
													<itemhistory>
														<uuid>A16CE197-3F56-4722-BA5F-0C411D5398CF</uuid>
													</itemhistory>
												</clipitem>
												<clipitem id="Raw Scene Matthew Duepner Walkabout351">
													<name>Raw Scene Matthew Duepner Walkabout</name>
													<duration>38484</duration>
													<rate>
														<ntsc>TRUE</ntsc>
														<timebase>24</timebase>
													</rate>
													<in>38389</in>
													<out>38476</out>
													<start>9697</start>
													<end>9784</end>
													<masterclipid>Raw Scene Matthew Duepner Walkabout234</masterclipid>
													<logginginfo>
														<scene/>
														<shottake/>
														<lognote/>
														<good>FALSE</good>
													</logginginfo>
													<labels>
														<label2/>
													</labels>
													<comments>
														<mastercomment1/>
														<mastercomment2/>
														<mastercomment3/>
														<mastercomment4/>
													</comments>
													<file id="YIN_2013-05-28_LG-4 "/>
													<filter>
														<effect>
															<name>Audio Levels</name>
															<effectid>audiolevels</effectid>
															<effectcategory>audiolevels</effectcategory>
															<effecttype>audiolevels</effecttype>
															<mediatype>audio</mediatype>
															<parameter>
																<name>Level</name>
																<parameterid>level</parameterid>
																<valuemin>0</valuemin>
																<valuemax>3.98109</valuemax>
																<value>1</value>
															</parameter>
														</effect>
													</filter>
													<filter>
														<effect>
															<name>Audio Pan</name>
															<effectid>audiopan</effectid>
															<effectcategory>audiopan</effectcategory>
															<effecttype>audiopan</effecttype>
															<mediatype>audio</mediatype>
															<parameter>
																<name>Pan</name>
																<parameterid>pan</parameterid>
																<valuemin>-1</valuemin>
																<valuemax>1</valuemax>
																<value>0</value>
															</parameter>
														</effect>
													</filter>
													<sourcetrack>
														<mediatype>audio</mediatype>
														<trackindex>1</trackindex>
													</sourcetrack>
													<link>
														<linkclipref>Raw Scene Matthew Duepner Walkabout350</linkclipref>
														<mediatype>video</mediatype>
														<trackindex>1</trackindex>
														<clipindex>68</clipindex>
													</link>
													<link>
														<linkclipref>Raw Scene Matthew Duepner Walkabout351</linkclipref>
														<mediatype>audio</mediatype>
														<trackindex>1</trackindex>
														<clipindex>68</clipindex>
														<groupindex>1</groupindex>
													</link>
													<link>
														<linkclipref>Raw Scene Matthew Duepner Walkabout352</linkclipref>
														<mediatype>audio</mediatype>
														<trackindex>2</trackindex>
														<clipindex>68</clipindex>
														<groupindex>1</groupindex>
													</link>
													<itemhistory>
														<uuid>6A9C68B2-2693-4112-B4A7-D72FEAC8ADA8</uuid>
													</itemhistory>
												</clipitem>
												<enabled>TRUE</enabled>
												<locked>FALSE</locked>
												<outputchannelindex>1</outputchannelindex>
											</track>
											<track>
												<clipitem id="Raw B Roll Hack Manhattan Matthew Duepner's House54">
													<name>Raw B Roll Hack Manhattan Matthew Duepner's House</name>
													<duration>6617</duration>
													<rate>
														<ntsc>TRUE</ntsc>
														<timebase>24</timebase>
													</rate>
													<in>5680</in>
													<out>5776</out>
													<start>0</start>
													<end>96</end>
													<masterclipid>Raw B Roll Hack Manhattan Matthew Duepner's House1</masterclipid>
													<logginginfo>
														<scene/>
														<shottake/>
														<lognote/>
														<good>FALSE</good>
													</logginginfo>
													<labels>
														<label2/>
													</labels>
													<comments>
														<mastercomment1/>
														<mastercomment2/>
														<mastercomment3/>
														<mastercomment4/>
													</comments>
													<file id="YIN_2013-04-28_JB-1 "/>
													<filter>
														<effect>
															<name>Audio Levels</name>
															<effectid>audiolevels</effectid>
															<effectcategory>audiolevels</effectcategory>
															<effecttype>audiolevels</effecttype>
															<mediatype>audio</mediatype>
															<parameter>
																<name>Level</name>
																<parameterid>level</parameterid>
																<valuemin>0</valuemin>
																<valuemax>3.98109</valuemax>
																<value>1</value>
															</parameter>
														</effect>
													</filter>
													<filter>
														<effect>
															<name>Audio Pan</name>
															<effectid>audiopan</effectid>
															<effectcategory>audiopan</effectcategory>
															<effecttype>audiopan</effecttype>
															<mediatype>audio</mediatype>
															<parameter>
																<name>Pan</name>
																<parameterid>pan</parameterid>
																<valuemin>-1</valuemin>
																<valuemax>1</valuemax>
																<value>-0</value>
															</parameter>
														</effect>
													</filter>
													<sourcetrack>
														<mediatype>audio</mediatype>
														<trackindex>2</trackindex>
													</sourcetrack>
													<link>
														<linkclipref>Raw B Roll Hack Manhattan Matthew Duepner's House52</linkclipref>
														<mediatype>video</mediatype>
														<trackindex>1</trackindex>
														<clipindex>1</clipindex>
													</link>
													<link>
														<linkclipref>Raw B Roll Hack Manhattan Matthew Duepner's House53</linkclipref>
														<mediatype>audio</mediatype>
														<trackindex>1</trackindex>
														<clipindex>1</clipindex>
														<groupindex>1</groupindex>
													</link>
													<link>
														<linkclipref>Raw B Roll Hack Manhattan Matthew Duepner's House54</linkclipref>
														<mediatype>audio</mediatype>
														<trackindex>2</trackindex>
														<clipindex>1</clipindex>
														<groupindex>1</groupindex>
													</link>
													<itemhistory>
														<uuid>BDB9A182-3877-4F0F-9012-68BA7C3C8EDD</uuid>
													</itemhistory>
												</clipitem>
												<clipitem id="Raw B Roll Hack Manhattan Matthew Duepner's House57">
													<name>Raw B Roll Hack Manhattan Matthew Duepner's House</name>
													<duration>6617</duration>
													<rate>
														<ntsc>TRUE</ntsc>
														<timebase>24</timebase>
													</rate>
													<in>6344</in>
													<out>6443</out>
													<start>96</start>
													<end>195</end>
													<masterclipid>Raw B Roll Hack Manhattan Matthew Duepner's House1</masterclipid>
													<logginginfo>
														<scene/>
														<shottake/>
														<lognote/>
														<good>FALSE</good>
													</logginginfo>
													<labels>
														<label2/>
													</labels>
													<comments>
														<mastercomment1/>
														<mastercomment2/>
														<mastercomment3/>
														<mastercomment4/>
													</comments>
													<file id="YIN_2013-04-28_JB-1 "/>
													<filter>
														<effect>
															<name>Audio Levels</name>
															<effectid>audiolevels</effectid>
															<effectcategory>audiolevels</effectcategory>
															<effecttype>audiolevels</effecttype>
															<mediatype>audio</mediatype>
															<parameter>
																<name>Level</name>
																<parameterid>level</parameterid>
																<valuemin>0</valuemin>
																<valuemax>3.98109</valuemax>
																<value>1</value>
															</parameter>
														</effect>
													</filter>
													<filter>
														<effect>
															<name>Audio Pan</name>
															<effectid>audiopan</effectid>
															<effectcategory>audiopan</effectcategory>
															<effecttype>audiopan</effecttype>
															<mediatype>audio</mediatype>
															<parameter>
																<name>Pan</name>
																<parameterid>pan</parameterid>
																<valuemin>-1</valuemin>
																<valuemax>1</valuemax>
																<value>-0</value>
															</parameter>
														</effect>
													</filter>
													<sourcetrack>
														<mediatype>audio</mediatype>
														<trackindex>2</trackindex>
													</sourcetrack>
													<link>
														<linkclipref>Raw B Roll Hack Manhattan Matthew Duepner's House55</linkclipref>
														<mediatype>video</mediatype>
														<trackindex>1</trackindex>
														<clipindex>2</clipindex>
													</link>
													<link>
														<linkclipref>Raw B Roll Hack Manhattan Matthew Duepner's House56</linkclipref>
														<mediatype>audio</mediatype>
														<trackindex>1</trackindex>
														<clipindex>2</clipindex>
														<groupindex>1</groupindex>
													</link>
													<link>
														<linkclipref>Raw B Roll Hack Manhattan Matthew Duepner's House57</linkclipref>
														<mediatype>audio</mediatype>
														<trackindex>2</trackindex>
														<clipindex>2</clipindex>
														<groupindex>1</groupindex>
													</link>
													<itemhistory>
														<uuid>F2D66300-6522-40DA-9F4E-25A616FEE8C1</uuid>
													</itemhistory>
												</clipitem>
												<clipitem id="Raw B Roll Hack Manhattan Matthew Duepner's House60">
													<name>Raw B Roll Hack Manhattan Matthew Duepner's House</name>
													<duration>6617</duration>
													<rate>
														<ntsc>TRUE</ntsc>
														<timebase>24</timebase>
													</rate>
													<in>6530</in>
													<out>6600</out>
													<start>195</start>
													<end>265</end>
													<masterclipid>Raw B Roll Hack Manhattan Matthew Duepner's House1</masterclipid>
													<logginginfo>
														<scene/>
														<shottake/>
														<lognote/>
														<good>FALSE</good>
													</logginginfo>
													<labels>
														<label2/>
													</labels>
													<comments>
														<mastercomment1/>
														<mastercomment2/>
														<mastercomment3/>
														<mastercomment4/>
													</comments>
													<file id="YIN_2013-04-28_JB-1 "/>
													<filter>
														<effect>
															<name>Audio Levels</name>
															<effectid>audiolevels</effectid>
															<effectcategory>audiolevels</effectcategory>
															<effecttype>audiolevels</effecttype>
															<mediatype>audio</mediatype>
															<parameter>
																<name>Level</name>
																<parameterid>level</parameterid>
																<valuemin>0</valuemin>
																<valuemax>3.98109</valuemax>
																<value>1</value>
															</parameter>
														</effect>
													</filter>
													<filter>
														<effect>
															<name>Audio Pan</name>
															<effectid>audiopan</effectid>
															<effectcategory>audiopan</effectcategory>
															<effecttype>audiopan</effecttype>
															<mediatype>audio</mediatype>
															<parameter>
																<name>Pan</name>
																<parameterid>pan</parameterid>
																<valuemin>-1</valuemin>
																<valuemax>1</valuemax>
																<value>-0</value>
															</parameter>
														</effect>
													</filter>
													<sourcetrack>
														<mediatype>audio</mediatype>
														<trackindex>2</trackindex>
													</sourcetrack>
													<link>
														<linkclipref>Raw B Roll Hack Manhattan Matthew Duepner's House58</linkclipref>
														<mediatype>video</mediatype>
														<trackindex>1</trackindex>
														<clipindex>3</clipindex>
													</link>
													<link>
														<linkclipref>Raw B Roll Hack Manhattan Matthew Duepner's House59</linkclipref>
														<mediatype>audio</mediatype>
														<trackindex>1</trackindex>
														<clipindex>3</clipindex>
														<groupindex>1</groupindex>
													</link>
													<link>
														<linkclipref>Raw B Roll Hack Manhattan Matthew Duepner's House60</linkclipref>
														<mediatype>audio</mediatype>
														<trackindex>2</trackindex>
														<clipindex>3</clipindex>
														<groupindex>1</groupindex>
													</link>
													<itemhistory>
														<uuid>37E19589-7EDC-441D-8889-B555CF0B5BC3</uuid>
													</itemhistory>
												</clipitem>
												<clipitem id="Raw B Roll Hack Manhattan Matthew Duepner's House63">
													<name>Raw B Roll Hack Manhattan Matthew Duepner's House</name>
													<duration>6617</duration>
													<rate>
														<ntsc>TRUE</ntsc>
														<timebase>24</timebase>
													</rate>
													<in>6074</in>
													<out>6140</out>
													<start>265</start>
													<end>331</end>
													<masterclipid>Raw B Roll Hack Manhattan Matthew Duepner's House1</masterclipid>
													<logginginfo>
														<scene/>
														<shottake/>
														<lognote/>
														<good>FALSE</good>
													</logginginfo>
													<labels>
														<label2/>
													</labels>
													<comments>
														<mastercomment1/>
														<mastercomment2/>
														<mastercomment3/>
														<mastercomment4/>
													</comments>
													<file id="YIN_2013-04-28_JB-1 "/>
													<filter>
														<effect>
															<name>Audio Levels</name>
															<effectid>audiolevels</effectid>
															<effectcategory>audiolevels</effectcategory>
															<effecttype>audiolevels</effecttype>
															<mediatype>audio</mediatype>
															<parameter>
																<name>Level</name>
																<parameterid>level</parameterid>
																<valuemin>0</valuemin>
																<valuemax>3.98109</valuemax>
																<value>1</value>
															</parameter>
														</effect>
													</filter>
													<filter>
														<effect>
															<name>Audio Pan</name>
															<effectid>audiopan</effectid>
															<effectcategory>audiopan</effectcategory>
															<effecttype>audiopan</effecttype>
															<mediatype>audio</mediatype>
															<parameter>
																<name>Pan</name>
																<parameterid>pan</parameterid>
																<valuemin>-1</valuemin>
																<valuemax>1</valuemax>
																<value>-0</value>
															</parameter>
														</effect>
													</filter>
													<sourcetrack>
														<mediatype>audio</mediatype>
														<trackindex>2</trackindex>
													</sourcetrack>
													<link>
														<linkclipref>Raw B Roll Hack Manhattan Matthew Duepner's House61</linkclipref>
														<mediatype>video</mediatype>
														<trackindex>1</trackindex>
														<clipindex>4</clipindex>
													</link>
													<link>
														<linkclipref>Raw B Roll Hack Manhattan Matthew Duepner's House62</linkclipref>
														<mediatype>audio</mediatype>
														<trackindex>1</trackindex>
														<clipindex>4</clipindex>
														<groupindex>1</groupindex>
													</link>
													<link>
														<linkclipref>Raw B Roll Hack Manhattan Matthew Duepner's House63</linkclipref>
														<mediatype>audio</mediatype>
														<trackindex>2</trackindex>
														<clipindex>4</clipindex>
														<groupindex>1</groupindex>
													</link>
													<itemhistory>
														<uuid>16AA3896-4DA9-4EF3-8130-FA9B70634568</uuid>
													</itemhistory>
												</clipitem>
												<clipitem id="Raw B Roll Hack Manhattan Matthew Duepner's House66">
													<name>Raw B Roll Hack Manhattan Matthew Duepner's House</name>
													<duration>6617</duration>
													<rate>
														<ntsc>TRUE</ntsc>
														<timebase>24</timebase>
													</rate>
													<in>5559</in>
													<out>5659</out>
													<start>331</start>
													<end>431</end>
													<masterclipid>Raw B Roll Hack Manhattan Matthew Duepner's House1</masterclipid>
													<logginginfo>
														<scene/>
														<shottake/>
														<lognote/>
														<good>FALSE</good>
													</logginginfo>
													<labels>
														<label2/>
													</labels>
													<comments>
														<mastercomment1/>
														<mastercomment2/>
														<mastercomment3/>
														<mastercomment4/>
													</comments>
													<file id="YIN_2013-04-28_JB-1 "/>
													<filter>
														<effect>
															<name>Audio Levels</name>
															<effectid>audiolevels</effectid>
															<effectcategory>audiolevels</effectcategory>
															<effecttype>audiolevels</effecttype>
															<mediatype>audio</mediatype>
															<parameter>
																<name>Level</name>
																<parameterid>level</parameterid>
																<valuemin>0</valuemin>
																<valuemax>3.98109</valuemax>
																<value>1</value>
															</parameter>
														</effect>
													</filter>
													<filter>
														<effect>
															<name>Audio Pan</name>
															<effectid>audiopan</effectid>
															<effectcategory>audiopan</effectcategory>
															<effecttype>audiopan</effecttype>
															<mediatype>audio</mediatype>
															<parameter>
																<name>Pan</name>
																<parameterid>pan</parameterid>
																<valuemin>-1</valuemin>
																<valuemax>1</valuemax>
																<value>-0</value>
															</parameter>
														</effect>
													</filter>
													<sourcetrack>
														<mediatype>audio</mediatype>
														<trackindex>2</trackindex>
													</sourcetrack>
													<link>
														<linkclipref>Raw B Roll Hack Manhattan Matthew Duepner's House64</linkclipref>
														<mediatype>video</mediatype>
														<trackindex>1</trackindex>
														<clipindex>5</clipindex>
													</link>
													<link>
														<linkclipref>Raw B Roll Hack Manhattan Matthew Duepner's House65</linkclipref>
														<mediatype>audio</mediatype>
														<trackindex>1</trackindex>
														<clipindex>5</clipindex>
														<groupindex>1</groupindex>
													</link>
													<link>
														<linkclipref>Raw B Roll Hack Manhattan Matthew Duepner's House66</linkclipref>
														<mediatype>audio</mediatype>
														<trackindex>2</trackindex>
														<clipindex>5</clipindex>
														<groupindex>1</groupindex>
													</link>
													<itemhistory>
														<uuid>5EF5F264-23D1-4BBB-9041-1808FAF5DF18</uuid>
													</itemhistory>
												</clipitem>
												<clipitem id="Raw B Roll Hack Manhattan Matthew Duepner's House69">
													<name>Raw B Roll Hack Manhattan Matthew Duepner's House</name>
													<duration>6617</duration>
													<rate>
														<ntsc>TRUE</ntsc>
														<timebase>24</timebase>
													</rate>
													<in>5878</in>
													<out>5953</out>
													<start>431</start>
													<end>506</end>
													<masterclipid>Raw B Roll Hack Manhattan Matthew Duepner's House1</masterclipid>
													<logginginfo>
														<scene/>
														<shottake/>
														<lognote/>
														<good>FALSE</good>
													</logginginfo>
													<labels>
														<label2/>
													</labels>
													<comments>
														<mastercomment1/>
														<mastercomment2/>
														<mastercomment3/>
														<mastercomment4/>
													</comments>
													<file id="YIN_2013-04-28_JB-1 "/>
													<filter>
														<effect>
															<name>Audio Levels</name>
															<effectid>audiolevels</effectid>
															<effectcategory>audiolevels</effectcategory>
															<effecttype>audiolevels</effecttype>
															<mediatype>audio</mediatype>
															<parameter>
																<name>Level</name>
																<parameterid>level</parameterid>
																<valuemin>0</valuemin>
																<valuemax>3.98109</valuemax>
																<value>1</value>
															</parameter>
														</effect>
													</filter>
													<filter>
														<effect>
															<name>Audio Pan</name>
															<effectid>audiopan</effectid>
															<effectcategory>audiopan</effectcategory>
															<effecttype>audiopan</effecttype>
															<mediatype>audio</mediatype>
															<parameter>
																<name>Pan</name>
																<parameterid>pan</parameterid>
																<valuemin>-1</valuemin>
																<valuemax>1</valuemax>
																<value>-0</value>
															</parameter>
														</effect>
													</filter>
													<sourcetrack>
														<mediatype>audio</mediatype>
														<trackindex>2</trackindex>
													</sourcetrack>
													<link>
														<linkclipref>Raw B Roll Hack Manhattan Matthew Duepner's House67</linkclipref>
														<mediatype>video</mediatype>
														<trackindex>1</trackindex>
														<clipindex>6</clipindex>
													</link>
													<link>
														<linkclipref>Raw B Roll Hack Manhattan Matthew Duepner's House68</linkclipref>
														<mediatype>audio</mediatype>
														<trackindex>1</trackindex>
														<clipindex>6</clipindex>
														<groupindex>1</groupindex>
													</link>
													<link>
														<linkclipref>Raw B Roll Hack Manhattan Matthew Duepner's House69</linkclipref>
														<mediatype>audio</mediatype>
														<trackindex>2</trackindex>
														<clipindex>6</clipindex>
														<groupindex>1</groupindex>
													</link>
													<itemhistory>
														<uuid>F2CC0847-0F00-478B-82D8-1222DF7C7FAA</uuid>
													</itemhistory>
												</clipitem>
												<clipitem id="Raw B Roll Hack Manhattan Matthew Duepner's House72">
													<name>Raw B Roll Hack Manhattan Matthew Duepner's House</name>
													<duration>6617</duration>
													<rate>
														<ntsc>TRUE</ntsc>
														<timebase>24</timebase>
													</rate>
													<in>4745</in>
													<out>4829</out>
													<start>506</start>
													<end>590</end>
													<masterclipid>Raw B Roll Hack Manhattan Matthew Duepner's House1</masterclipid>
													<logginginfo>
														<scene/>
														<shottake/>
														<lognote/>
														<good>FALSE</good>
													</logginginfo>
													<labels>
														<label2/>
													</labels>
													<comments>
														<mastercomment1/>
														<mastercomment2/>
														<mastercomment3/>
														<mastercomment4/>
													</comments>
													<file id="YIN_2013-04-28_JB-1 "/>
													<filter>
														<effect>
															<name>Audio Levels</name>
															<effectid>audiolevels</effectid>
															<effectcategory>audiolevels</effectcategory>
															<effecttype>audiolevels</effecttype>
															<mediatype>audio</mediatype>
															<parameter>
																<name>Level</name>
																<parameterid>level</parameterid>
																<valuemin>0</valuemin>
																<valuemax>3.98109</valuemax>
																<value>1</value>
															</parameter>
														</effect>
													</filter>
													<filter>
														<effect>
															<name>Audio Pan</name>
															<effectid>audiopan</effectid>
															<effectcategory>audiopan</effectcategory>
															<effecttype>audiopan</effecttype>
															<mediatype>audio</mediatype>
															<parameter>
																<name>Pan</name>
																<parameterid>pan</parameterid>
																<valuemin>-1</valuemin>
																<valuemax>1</valuemax>
																<value>-0</value>
															</parameter>
														</effect>
													</filter>
													<sourcetrack>
														<mediatype>audio</mediatype>
														<trackindex>2</trackindex>
													</sourcetrack>
													<link>
														<linkclipref>Raw B Roll Hack Manhattan Matthew Duepner's House70</linkclipref>
														<mediatype>video</mediatype>
														<trackindex>1</trackindex>
														<clipindex>7</clipindex>
													</link>
													<link>
														<linkclipref>Raw B Roll Hack Manhattan Matthew Duepner's House71</linkclipref>
														<mediatype>audio</mediatype>
														<trackindex>1</trackindex>
														<clipindex>7</clipindex>
														<groupindex>1</groupindex>
													</link>
													<link>
														<linkclipref>Raw B Roll Hack Manhattan Matthew Duepner's House72</linkclipref>
														<mediatype>audio</mediatype>
														<trackindex>2</trackindex>
														<clipindex>7</clipindex>
														<groupindex>1</groupindex>
													</link>
													<itemhistory>
														<uuid>714624CD-BD1C-41E0-8250-C2D8D88021E4</uuid>
													</itemhistory>
												</clipitem>
												<clipitem id="Raw B Roll Hack Manhattan Matthew Duepner's House75">
													<name>Raw B Roll Hack Manhattan Matthew Duepner's House</name>
													<duration>6617</duration>
													<rate>
														<ntsc>TRUE</ntsc>
														<timebase>24</timebase>
													</rate>
													<in>3527</in>
													<out>3604</out>
													<start>590</start>
													<end>667</end>
													<masterclipid>Raw B Roll Hack Manhattan Matthew Duepner's House1</masterclipid>
													<logginginfo>
														<scene/>
														<shottake/>
														<lognote/>
														<good>FALSE</good>
													</logginginfo>
													<labels>
														<label2/>
													</labels>
													<comments>
														<mastercomment1/>
														<mastercomment2/>
														<mastercomment3/>
														<mastercomment4/>
													</comments>
													<file id="YIN_2013-04-28_JB-1 "/>
													<filter>
														<effect>
															<name>Audio Levels</name>
															<effectid>audiolevels</effectid>
															<effectcategory>audiolevels</effectcategory>
															<effecttype>audiolevels</effecttype>
															<mediatype>audio</mediatype>
															<parameter>
																<name>Level</name>
																<parameterid>level</parameterid>
																<valuemin>0</valuemin>
																<valuemax>3.98109</valuemax>
																<value>1</value>
															</parameter>
														</effect>
													</filter>
													<filter>
														<effect>
															<name>Audio Pan</name>
															<effectid>audiopan</effectid>
															<effectcategory>audiopan</effectcategory>
															<effecttype>audiopan</effecttype>
															<mediatype>audio</mediatype>
															<parameter>
																<name>Pan</name>
																<parameterid>pan</parameterid>
																<valuemin>-1</valuemin>
																<valuemax>1</valuemax>
																<value>-0</value>
															</parameter>
														</effect>
													</filter>
													<sourcetrack>
														<mediatype>audio</mediatype>
														<trackindex>2</trackindex>
													</sourcetrack>
													<link>
														<linkclipref>Raw B Roll Hack Manhattan Matthew Duepner's House73</linkclipref>
														<mediatype>video</mediatype>
														<trackindex>1</trackindex>
														<clipindex>8</clipindex>
													</link>
													<link>
														<linkclipref>Raw B Roll Hack Manhattan Matthew Duepner's House74</linkclipref>
														<mediatype>audio</mediatype>
														<trackindex>1</trackindex>
														<clipindex>8</clipindex>
														<groupindex>1</groupindex>
													</link>
													<link>
														<linkclipref>Raw B Roll Hack Manhattan Matthew Duepner's House75</linkclipref>
														<mediatype>audio</mediatype>
														<trackindex>2</trackindex>
														<clipindex>8</clipindex>
														<groupindex>1</groupindex>
													</link>
													<itemhistory>
														<uuid>D966E5F1-AD39-402C-9C2A-6B5A88ACEDB5</uuid>
													</itemhistory>
												</clipitem>
												<clipitem id="Raw B Roll Hack Manhattan Matthew Duepner's House78">
													<name>Raw B Roll Hack Manhattan Matthew Duepner's House</name>
													<duration>6617</duration>
													<rate>
														<ntsc>TRUE</ntsc>
														<timebase>24</timebase>
													</rate>
													<in>2432</in>
													<out>2555</out>
													<start>667</start>
													<end>790</end>
													<masterclipid>Raw B Roll Hack Manhattan Matthew Duepner's House1</masterclipid>
													<logginginfo>
														<scene/>
														<shottake/>
														<lognote/>
														<good>FALSE</good>
													</logginginfo>
													<labels>
														<label2/>
													</labels>
													<comments>
														<mastercomment1/>
														<mastercomment2/>
														<mastercomment3/>
														<mastercomment4/>
													</comments>
													<file id="YIN_2013-04-28_JB-1 "/>
													<filter>
														<effect>
															<name>Audio Levels</name>
															<effectid>audiolevels</effectid>
															<effectcategory>audiolevels</effectcategory>
															<effecttype>audiolevels</effecttype>
															<mediatype>audio</mediatype>
															<parameter>
																<name>Level</name>
																<parameterid>level</parameterid>
																<valuemin>0</valuemin>
																<valuemax>3.98109</valuemax>
																<value>1</value>
															</parameter>
														</effect>
													</filter>
													<filter>
														<effect>
															<name>Audio Pan</name>
															<effectid>audiopan</effectid>
															<effectcategory>audiopan</effectcategory>
															<effecttype>audiopan</effecttype>
															<mediatype>audio</mediatype>
															<parameter>
																<name>Pan</name>
																<parameterid>pan</parameterid>
																<valuemin>-1</valuemin>
																<valuemax>1</valuemax>
																<value>-0</value>
															</parameter>
														</effect>
													</filter>
													<sourcetrack>
														<mediatype>audio</mediatype>
														<trackindex>2</trackindex>
													</sourcetrack>
													<link>
														<linkclipref>Raw B Roll Hack Manhattan Matthew Duepner's House76</linkclipref>
														<mediatype>video</mediatype>
														<trackindex>1</trackindex>
														<clipindex>9</clipindex>
													</link>
													<link>
														<linkclipref>Raw B Roll Hack Manhattan Matthew Duepner's House77</linkclipref>
														<mediatype>audio</mediatype>
														<trackindex>1</trackindex>
														<clipindex>9</clipindex>
														<groupindex>1</groupindex>
													</link>
													<link>
														<linkclipref>Raw B Roll Hack Manhattan Matthew Duepner's House78</linkclipref>
														<mediatype>audio</mediatype>
														<trackindex>2</trackindex>
														<clipindex>9</clipindex>
														<groupindex>1</groupindex>
													</link>
													<itemhistory>
														<uuid>C06ECFD6-BAF8-465A-9E7F-692EABD253C4</uuid>
													</itemhistory>
												</clipitem>
												<clipitem id="Raw B Roll Hack Manhattan Matthew Duepner's House81">
													<name>Raw B Roll Hack Manhattan Matthew Duepner's House</name>
													<duration>6617</duration>
													<rate>
														<ntsc>TRUE</ntsc>
														<timebase>24</timebase>
													</rate>
													<in>2733</in>
													<out>2884</out>
													<start>790</start>
													<end>941</end>
													<masterclipid>Raw B Roll Hack Manhattan Matthew Duepner's House1</masterclipid>
													<logginginfo>
														<scene/>
														<shottake/>
														<lognote/>
														<good>FALSE</good>
													</logginginfo>
													<labels>
														<label2/>
													</labels>
													<comments>
														<mastercomment1/>
														<mastercomment2/>
														<mastercomment3/>
														<mastercomment4/>
													</comments>
													<file id="YIN_2013-04-28_JB-1 "/>
													<filter>
														<effect>
															<name>Audio Levels</name>
															<effectid>audiolevels</effectid>
															<effectcategory>audiolevels</effectcategory>
															<effecttype>audiolevels</effecttype>
															<mediatype>audio</mediatype>
															<parameter>
																<name>Level</name>
																<parameterid>level</parameterid>
																<valuemin>0</valuemin>
																<valuemax>3.98109</valuemax>
																<value>1</value>
															</parameter>
														</effect>
													</filter>
													<filter>
														<effect>
															<name>Audio Pan</name>
															<effectid>audiopan</effectid>
															<effectcategory>audiopan</effectcategory>
															<effecttype>audiopan</effecttype>
															<mediatype>audio</mediatype>
															<parameter>
																<name>Pan</name>
																<parameterid>pan</parameterid>
																<valuemin>-1</valuemin>
																<valuemax>1</valuemax>
																<value>-0</value>
															</parameter>
														</effect>
													</filter>
													<sourcetrack>
														<mediatype>audio</mediatype>
														<trackindex>2</trackindex>
													</sourcetrack>
													<link>
														<linkclipref>Raw B Roll Hack Manhattan Matthew Duepner's House79</linkclipref>
														<mediatype>video</mediatype>
														<trackindex>1</trackindex>
														<clipindex>10</clipindex>
													</link>
													<link>
														<linkclipref>Raw B Roll Hack Manhattan Matthew Duepner's House80</linkclipref>
														<mediatype>audio</mediatype>
														<trackindex>1</trackindex>
														<clipindex>10</clipindex>
														<groupindex>1</groupindex>
													</link>
													<link>
														<linkclipref>Raw B Roll Hack Manhattan Matthew Duepner's House81</linkclipref>
														<mediatype>audio</mediatype>
														<trackindex>2</trackindex>
														<clipindex>10</clipindex>
														<groupindex>1</groupindex>
													</link>
													<itemhistory>
														<uuid>22845D83-BE43-416B-9542-118E209437B3</uuid>
													</itemhistory>
												</clipitem>
												<clipitem id="Raw B Roll Hack Manhattan Matthew Duepner's House84">
													<name>Raw B Roll Hack Manhattan Matthew Duepner's House</name>
													<duration>6617</duration>
													<rate>
														<ntsc>TRUE</ntsc>
														<timebase>24</timebase>
													</rate>
													<in>5318</in>
													<out>5486</out>
													<start>941</start>
													<end>1109</end>
													<masterclipid>Raw B Roll Hack Manhattan Matthew Duepner's House1</masterclipid>
													<logginginfo>
														<scene/>
														<shottake/>
														<lognote/>
														<good>FALSE</good>
													</logginginfo>
													<labels>
														<label2/>
													</labels>
													<comments>
														<mastercomment1/>
														<mastercomment2/>
														<mastercomment3/>
														<mastercomment4/>
													</comments>
													<file id="YIN_2013-04-28_JB-1 "/>
													<filter>
														<effect>
															<name>Audio Levels</name>
															<effectid>audiolevels</effectid>
															<effectcategory>audiolevels</effectcategory>
															<effecttype>audiolevels</effecttype>
															<mediatype>audio</mediatype>
															<parameter>
																<name>Level</name>
																<parameterid>level</parameterid>
																<valuemin>0</valuemin>
																<valuemax>3.98109</valuemax>
																<value>1</value>
															</parameter>
														</effect>
													</filter>
													<filter>
														<effect>
															<name>Audio Pan</name>
															<effectid>audiopan</effectid>
															<effectcategory>audiopan</effectcategory>
															<effecttype>audiopan</effecttype>
															<mediatype>audio</mediatype>
															<parameter>
																<name>Pan</name>
																<parameterid>pan</parameterid>
																<valuemin>-1</valuemin>
																<valuemax>1</valuemax>
																<value>-0</value>
															</parameter>
														</effect>
													</filter>
													<sourcetrack>
														<mediatype>audio</mediatype>
														<trackindex>2</trackindex>
													</sourcetrack>
													<link>
														<linkclipref>Raw B Roll Hack Manhattan Matthew Duepner's House82</linkclipref>
														<mediatype>video</mediatype>
														<trackindex>1</trackindex>
														<clipindex>11</clipindex>
													</link>
													<link>
														<linkclipref>Raw B Roll Hack Manhattan Matthew Duepner's House83</linkclipref>
														<mediatype>audio</mediatype>
														<trackindex>1</trackindex>
														<clipindex>11</clipindex>
														<groupindex>1</groupindex>
													</link>
													<link>
														<linkclipref>Raw B Roll Hack Manhattan Matthew Duepner's House84</linkclipref>
														<mediatype>audio</mediatype>
														<trackindex>2</trackindex>
														<clipindex>11</clipindex>
														<groupindex>1</groupindex>
													</link>
													<itemhistory>
														<uuid>9BFB22F3-AF33-480F-B775-ECB950D79F95</uuid>
													</itemhistory>
												</clipitem>
												<clipitem id="Raw B Roll Hack Manhattan Matthew Duepner's House87">
													<name>Raw B Roll Hack Manhattan Matthew Duepner's House</name>
													<duration>6617</duration>
													<rate>
														<ntsc>TRUE</ntsc>
														<timebase>24</timebase>
													</rate>
													<in>2948</in>
													<out>3117</out>
													<start>1109</start>
													<end>1278</end>
													<masterclipid>Raw B Roll Hack Manhattan Matthew Duepner's House1</masterclipid>
													<logginginfo>
														<scene/>
														<shottake/>
														<lognote/>
														<good>FALSE</good>
													</logginginfo>
													<labels>
														<label2/>
													</labels>
													<comments>
														<mastercomment1/>
														<mastercomment2/>
														<mastercomment3/>
														<mastercomment4/>
													</comments>
													<file id="YIN_2013-04-28_JB-1 "/>
													<filter>
														<effect>
															<name>Audio Levels</name>
															<effectid>audiolevels</effectid>
															<effectcategory>audiolevels</effectcategory>
															<effecttype>audiolevels</effecttype>
															<mediatype>audio</mediatype>
															<parameter>
																<name>Level</name>
																<parameterid>level</parameterid>
																<valuemin>0</valuemin>
																<valuemax>3.98109</valuemax>
																<value>1</value>
															</parameter>
														</effect>
													</filter>
													<filter>
														<effect>
															<name>Audio Pan</name>
															<effectid>audiopan</effectid>
															<effectcategory>audiopan</effectcategory>
															<effecttype>audiopan</effecttype>
															<mediatype>audio</mediatype>
															<parameter>
																<name>Pan</name>
																<parameterid>pan</parameterid>
																<valuemin>-1</valuemin>
																<valuemax>1</valuemax>
																<value>-0</value>
															</parameter>
														</effect>
													</filter>
													<sourcetrack>
														<mediatype>audio</mediatype>
														<trackindex>2</trackindex>
													</sourcetrack>
													<link>
														<linkclipref>Raw B Roll Hack Manhattan Matthew Duepner's House85</linkclipref>
														<mediatype>video</mediatype>
														<trackindex>1</trackindex>
														<clipindex>12</clipindex>
													</link>
													<link>
														<linkclipref>Raw B Roll Hack Manhattan Matthew Duepner's House86</linkclipref>
														<mediatype>audio</mediatype>
														<trackindex>1</trackindex>
														<clipindex>12</clipindex>
														<groupindex>1</groupindex>
													</link>
													<link>
														<linkclipref>Raw B Roll Hack Manhattan Matthew Duepner's House87</linkclipref>
														<mediatype>audio</mediatype>
														<trackindex>2</trackindex>
														<clipindex>12</clipindex>
														<groupindex>1</groupindex>
													</link>
													<itemhistory>
														<uuid>48BCB048-0F7E-4297-9058-EB9729053F2A</uuid>
													</itemhistory>
												</clipitem>
												<clipitem id="Raw B Roll Hack Manhattan Matthew Duepner's House90">
													<name>Raw B Roll Hack Manhattan Matthew Duepner's House</name>
													<duration>6617</duration>
													<rate>
														<ntsc>TRUE</ntsc>
														<timebase>24</timebase>
													</rate>
													<in>4099</in>
													<out>4179</out>
													<start>1278</start>
													<end>1358</end>
													<masterclipid>Raw B Roll Hack Manhattan Matthew Duepner's House1</masterclipid>
													<logginginfo>
														<scene/>
														<shottake/>
														<lognote/>
														<good>FALSE</good>
													</logginginfo>
													<labels>
														<label2/>
													</labels>
													<comments>
														<mastercomment1/>
														<mastercomment2/>
														<mastercomment3/>
														<mastercomment4/>
													</comments>
													<file id="YIN_2013-04-28_JB-1 "/>
													<filter>
														<effect>
															<name>Audio Levels</name>
															<effectid>audiolevels</effectid>
															<effectcategory>audiolevels</effectcategory>
															<effecttype>audiolevels</effecttype>
															<mediatype>audio</mediatype>
															<parameter>
																<name>Level</name>
																<parameterid>level</parameterid>
																<valuemin>0</valuemin>
																<valuemax>3.98109</valuemax>
																<value>1</value>
															</parameter>
														</effect>
													</filter>
													<filter>
														<effect>
															<name>Audio Pan</name>
															<effectid>audiopan</effectid>
															<effectcategory>audiopan</effectcategory>
															<effecttype>audiopan</effecttype>
															<mediatype>audio</mediatype>
															<parameter>
																<name>Pan</name>
																<parameterid>pan</parameterid>
																<valuemin>-1</valuemin>
																<valuemax>1</valuemax>
																<value>-0</value>
															</parameter>
														</effect>
													</filter>
													<sourcetrack>
														<mediatype>audio</mediatype>
														<trackindex>2</trackindex>
													</sourcetrack>
													<link>
														<linkclipref>Raw B Roll Hack Manhattan Matthew Duepner's House88</linkclipref>
														<mediatype>video</mediatype>
														<trackindex>1</trackindex>
														<clipindex>13</clipindex>
													</link>
													<link>
														<linkclipref>Raw B Roll Hack Manhattan Matthew Duepner's House89</linkclipref>
														<mediatype>audio</mediatype>
														<trackindex>1</trackindex>
														<clipindex>13</clipindex>
														<groupindex>1</groupindex>
													</link>
													<link>
														<linkclipref>Raw B Roll Hack Manhattan Matthew Duepner's House90</linkclipref>
														<mediatype>audio</mediatype>
														<trackindex>2</trackindex>
														<clipindex>13</clipindex>
														<groupindex>1</groupindex>
													</link>
													<itemhistory>
														<uuid>7EA64448-5436-4675-A162-595912B032AA</uuid>
													</itemhistory>
												</clipitem>
												<clipitem id="Raw B Roll Hack Manhattan Matthew Duepner's House93">
													<name>Raw B Roll Hack Manhattan Matthew Duepner's House</name>
													<duration>6617</duration>
													<rate>
														<ntsc>TRUE</ntsc>
														<timebase>24</timebase>
													</rate>
													<in>4305</in>
													<out>4396</out>
													<start>1358</start>
													<end>1449</end>
													<masterclipid>Raw B Roll Hack Manhattan Matthew Duepner's House1</masterclipid>
													<logginginfo>
														<scene/>
														<shottake/>
														<lognote/>
														<good>FALSE</good>
													</logginginfo>
													<labels>
														<label2/>
													</labels>
													<comments>
														<mastercomment1/>
														<mastercomment2/>
														<mastercomment3/>
														<mastercomment4/>
													</comments>
													<file id="YIN_2013-04-28_JB-1 "/>
													<filter>
														<effect>
															<name>Audio Levels</name>
															<effectid>audiolevels</effectid>
															<effectcategory>audiolevels</effectcategory>
															<effecttype>audiolevels</effecttype>
															<mediatype>audio</mediatype>
															<parameter>
																<name>Level</name>
																<parameterid>level</parameterid>
																<valuemin>0</valuemin>
																<valuemax>3.98109</valuemax>
																<value>1</value>
															</parameter>
														</effect>
													</filter>
													<filter>
														<effect>
															<name>Audio Pan</name>
															<effectid>audiopan</effectid>
															<effectcategory>audiopan</effectcategory>
															<effecttype>audiopan</effecttype>
															<mediatype>audio</mediatype>
															<parameter>
																<name>Pan</name>
																<parameterid>pan</parameterid>
																<valuemin>-1</valuemin>
																<valuemax>1</valuemax>
																<value>-0</value>
															</parameter>
														</effect>
													</filter>
													<sourcetrack>
														<mediatype>audio</mediatype>
														<trackindex>2</trackindex>
													</sourcetrack>
													<link>
														<linkclipref>Raw B Roll Hack Manhattan Matthew Duepner's House91</linkclipref>
														<mediatype>video</mediatype>
														<trackindex>1</trackindex>
														<clipindex>14</clipindex>
													</link>
													<link>
														<linkclipref>Raw B Roll Hack Manhattan Matthew Duepner's House92</linkclipref>
														<mediatype>audio</mediatype>
														<trackindex>1</trackindex>
														<clipindex>14</clipindex>
														<groupindex>1</groupindex>
													</link>
													<link>
														<linkclipref>Raw B Roll Hack Manhattan Matthew Duepner's House93</linkclipref>
														<mediatype>audio</mediatype>
														<trackindex>2</trackindex>
														<clipindex>14</clipindex>
														<groupindex>1</groupindex>
													</link>
													<itemhistory>
														<uuid>E84CE053-E5D3-4905-A5FC-CA228408458A</uuid>
													</itemhistory>
												</clipitem>
												<clipitem id="Raw B Roll Hack Manhattan Matthew Duepner's House96">
													<name>Raw B Roll Hack Manhattan Matthew Duepner's House</name>
													<duration>6617</duration>
													<rate>
														<ntsc>TRUE</ntsc>
														<timebase>24</timebase>
													</rate>
													<in>4585</in>
													<out>4685</out>
													<start>1449</start>
													<end>1549</end>
													<masterclipid>Raw B Roll Hack Manhattan Matthew Duepner's House1</masterclipid>
													<logginginfo>
														<scene/>
														<shottake/>
														<lognote/>
														<good>FALSE</good>
													</logginginfo>
													<labels>
														<label2/>
													</labels>
													<comments>
														<mastercomment1/>
														<mastercomment2/>
														<mastercomment3/>
														<mastercomment4/>
													</comments>
													<file id="YIN_2013-04-28_JB-1 "/>
													<filter>
														<effect>
															<name>Audio Levels</name>
															<effectid>audiolevels</effectid>
															<effectcategory>audiolevels</effectcategory>
															<effecttype>audiolevels</effecttype>
															<mediatype>audio</mediatype>
															<parameter>
																<name>Level</name>
																<parameterid>level</parameterid>
																<valuemin>0</valuemin>
																<valuemax>3.98109</valuemax>
																<value>1</value>
															</parameter>
														</effect>
													</filter>
													<filter>
														<effect>
															<name>Audio Pan</name>
															<effectid>audiopan</effectid>
															<effectcategory>audiopan</effectcategory>
															<effecttype>audiopan</effecttype>
															<mediatype>audio</mediatype>
															<parameter>
																<name>Pan</name>
																<parameterid>pan</parameterid>
																<valuemin>-1</valuemin>
																<valuemax>1</valuemax>
																<value>-0</value>
															</parameter>
														</effect>
													</filter>
													<sourcetrack>
														<mediatype>audio</mediatype>
														<trackindex>2</trackindex>
													</sourcetrack>
													<link>
														<linkclipref>Raw B Roll Hack Manhattan Matthew Duepner's House94</linkclipref>
														<mediatype>video</mediatype>
														<trackindex>1</trackindex>
														<clipindex>15</clipindex>
													</link>
													<link>
														<linkclipref>Raw B Roll Hack Manhattan Matthew Duepner's House95</linkclipref>
														<mediatype>audio</mediatype>
														<trackindex>1</trackindex>
														<clipindex>15</clipindex>
														<groupindex>1</groupindex>
													</link>
													<link>
														<linkclipref>Raw B Roll Hack Manhattan Matthew Duepner's House96</linkclipref>
														<mediatype>audio</mediatype>
														<trackindex>2</trackindex>
														<clipindex>15</clipindex>
														<groupindex>1</groupindex>
													</link>
													<itemhistory>
														<uuid>9FAEA1A8-C68D-443E-84CE-1C8F2BAAE2D0</uuid>
													</itemhistory>
												</clipitem>
												<clipitem id="Raw Scene Matthew Duepner Printing78">
													<name>Raw Scene Matthew Duepner Printing</name>
													<duration>28553</duration>
													<rate>
														<ntsc>TRUE</ntsc>
														<timebase>24</timebase>
													</rate>
													<in>25118</in>
													<out>25193</out>
													<start>1549</start>
													<end>1624</end>
													<masterclipid>Raw Scene Matthew Duepner Printing72</masterclipid>
													<logginginfo>
														<scene/>
														<shottake/>
														<lognote/>
														<good>FALSE</good>
													</logginginfo>
													<labels>
														<label2/>
													</labels>
													<comments>
														<mastercomment1/>
														<mastercomment2/>
														<mastercomment3/>
														<mastercomment4/>
													</comments>
													<file id="YIN_2013-05-28_LG-6 "/>
													<filter>
														<effect>
															<name>Audio Levels</name>
															<effectid>audiolevels</effectid>
															<effectcategory>audiolevels</effectcategory>
															<effecttype>audiolevels</effecttype>
															<mediatype>audio</mediatype>
															<parameter>
																<name>Level</name>
																<parameterid>level</parameterid>
																<valuemin>0</valuemin>
																<valuemax>3.98109</valuemax>
																<value>1</value>
															</parameter>
														</effect>
													</filter>
													<filter>
														<effect>
															<name>Audio Pan</name>
															<effectid>audiopan</effectid>
															<effectcategory>audiopan</effectcategory>
															<effecttype>audiopan</effecttype>
															<mediatype>audio</mediatype>
															<parameter>
																<name>Pan</name>
																<parameterid>pan</parameterid>
																<valuemin>-1</valuemin>
																<valuemax>1</valuemax>
																<value>-0</value>
															</parameter>
														</effect>
													</filter>
													<sourcetrack>
														<mediatype>audio</mediatype>
														<trackindex>2</trackindex>
													</sourcetrack>
													<link>
														<linkclipref>Raw Scene Matthew Duepner Printing76</linkclipref>
														<mediatype>video</mediatype>
														<trackindex>1</trackindex>
														<clipindex>16</clipindex>
													</link>
													<link>
														<linkclipref>Raw Scene Matthew Duepner Printing77</linkclipref>
														<mediatype>audio</mediatype>
														<trackindex>1</trackindex>
														<clipindex>16</clipindex>
														<groupindex>1</groupindex>
													</link>
													<link>
														<linkclipref>Raw Scene Matthew Duepner Printing78</linkclipref>
														<mediatype>audio</mediatype>
														<trackindex>2</trackindex>
														<clipindex>16</clipindex>
														<groupindex>1</groupindex>
													</link>
													<itemhistory>
														<uuid>20B79850-9632-4774-8D61-31A71E368BA1</uuid>
													</itemhistory>
												</clipitem>
												<clipitem id="Raw B Roll Hack Manhattan Matthew Duepner's House99">
													<name>Raw B Roll Hack Manhattan Matthew Duepner's House</name>
													<duration>6617</duration>
													<rate>
														<ntsc>TRUE</ntsc>
														<timebase>24</timebase>
													</rate>
													<in>3931</in>
													<out>4052</out>
													<start>1624</start>
													<end>1745</end>
													<masterclipid>Raw B Roll Hack Manhattan Matthew Duepner's House1</masterclipid>
													<logginginfo>
														<scene/>
														<shottake/>
														<lognote/>
														<good>FALSE</good>
													</logginginfo>
													<labels>
														<label2/>
													</labels>
													<comments>
														<mastercomment1/>
														<mastercomment2/>
														<mastercomment3/>
														<mastercomment4/>
													</comments>
													<file id="YIN_2013-04-28_JB-1 "/>
													<filter>
														<effect>
															<name>Audio Levels</name>
															<effectid>audiolevels</effectid>
															<effectcategory>audiolevels</effectcategory>
															<effecttype>audiolevels</effecttype>
															<mediatype>audio</mediatype>
															<parameter>
																<name>Level</name>
																<parameterid>level</parameterid>
																<valuemin>0</valuemin>
																<valuemax>3.98109</valuemax>
																<value>1</value>
															</parameter>
														</effect>
													</filter>
													<filter>
														<effect>
															<name>Audio Pan</name>
															<effectid>audiopan</effectid>
															<effectcategory>audiopan</effectcategory>
															<effecttype>audiopan</effecttype>
															<mediatype>audio</mediatype>
															<parameter>
																<name>Pan</name>
																<parameterid>pan</parameterid>
																<valuemin>-1</valuemin>
																<valuemax>1</valuemax>
																<value>-0</value>
															</parameter>
														</effect>
													</filter>
													<sourcetrack>
														<mediatype>audio</mediatype>
														<trackindex>2</trackindex>
													</sourcetrack>
													<link>
														<linkclipref>Raw B Roll Hack Manhattan Matthew Duepner's House97</linkclipref>
														<mediatype>video</mediatype>
														<trackindex>1</trackindex>
														<clipindex>17</clipindex>
													</link>
													<link>
														<linkclipref>Raw B Roll Hack Manhattan Matthew Duepner's House98</linkclipref>
														<mediatype>audio</mediatype>
														<trackindex>1</trackindex>
														<clipindex>17</clipindex>
														<groupindex>1</groupindex>
													</link>
													<link>
														<linkclipref>Raw B Roll Hack Manhattan Matthew Duepner's House99</linkclipref>
														<mediatype>audio</mediatype>
														<trackindex>2</trackindex>
														<clipindex>17</clipindex>
														<groupindex>1</groupindex>
													</link>
													<itemhistory>
														<uuid>593F0B48-BE46-4598-BE90-9E4A3792DE00</uuid>
													</itemhistory>
												</clipitem>
												<clipitem id="Raw B Roll Hack Manhattan Matthew Duepner's House102">
													<name>Raw B Roll Hack Manhattan Matthew Duepner's House</name>
													<duration>6617</duration>
													<rate>
														<ntsc>TRUE</ntsc>
														<timebase>24</timebase>
													</rate>
													<in>5073</in>
													<out>5227</out>
													<start>1745</start>
													<end>1899</end>
													<masterclipid>Raw B Roll Hack Manhattan Matthew Duepner's House1</masterclipid>
													<logginginfo>
														<scene/>
														<shottake/>
														<lognote/>
														<good>FALSE</good>
													</logginginfo>
													<labels>
														<label2/>
													</labels>
													<comments>
														<mastercomment1/>
														<mastercomment2/>
														<mastercomment3/>
														<mastercomment4/>
													</comments>
													<file id="YIN_2013-04-28_JB-1 "/>
													<filter>
														<effect>
															<name>Audio Levels</name>
															<effectid>audiolevels</effectid>
															<effectcategory>audiolevels</effectcategory>
															<effecttype>audiolevels</effecttype>
															<mediatype>audio</mediatype>
															<parameter>
																<name>Level</name>
																<parameterid>level</parameterid>
																<valuemin>0</valuemin>
																<valuemax>3.98109</valuemax>
																<value>1</value>
															</parameter>
														</effect>
													</filter>
													<filter>
														<effect>
															<name>Audio Pan</name>
															<effectid>audiopan</effectid>
															<effectcategory>audiopan</effectcategory>
															<effecttype>audiopan</effecttype>
															<mediatype>audio</mediatype>
															<parameter>
																<name>Pan</name>
																<parameterid>pan</parameterid>
																<valuemin>-1</valuemin>
																<valuemax>1</valuemax>
																<value>-0</value>
															</parameter>
														</effect>
													</filter>
													<sourcetrack>
														<mediatype>audio</mediatype>
														<trackindex>2</trackindex>
													</sourcetrack>
													<link>
														<linkclipref>Raw B Roll Hack Manhattan Matthew Duepner's House100</linkclipref>
														<mediatype>video</mediatype>
														<trackindex>1</trackindex>
														<clipindex>18</clipindex>
													</link>
													<link>
														<linkclipref>Raw B Roll Hack Manhattan Matthew Duepner's House101</linkclipref>
														<mediatype>audio</mediatype>
														<trackindex>1</trackindex>
														<clipindex>18</clipindex>
														<groupindex>1</groupindex>
													</link>
													<link>
														<linkclipref>Raw B Roll Hack Manhattan Matthew Duepner's House102</linkclipref>
														<mediatype>audio</mediatype>
														<trackindex>2</trackindex>
														<clipindex>18</clipindex>
														<groupindex>1</groupindex>
													</link>
													<itemhistory>
														<uuid>AE479F2E-ADFD-427C-B5D3-155AD18089F3</uuid>
													</itemhistory>
												</clipitem>
												<clipitem id="Raw Scene Matthew Duepner Printing81">
													<name>Raw Scene Matthew Duepner Printing</name>
													<duration>28553</duration>
													<rate>
														<ntsc>TRUE</ntsc>
														<timebase>24</timebase>
													</rate>
													<in>13248</in>
													<out>13390</out>
													<start>1899</start>
													<end>2041</end>
													<masterclipid>Raw Scene Matthew Duepner Printing72</masterclipid>
													<logginginfo>
														<scene/>
														<shottake/>
														<lognote/>
														<good>FALSE</good>
													</logginginfo>
													<labels>
														<label2/>
													</labels>
													<comments>
														<mastercomment1/>
														<mastercomment2/>
														<mastercomment3/>
														<mastercomment4/>
													</comments>
													<file id="YIN_2013-05-28_LG-6 "/>
													<filter>
														<effect>
															<name>Audio Levels</name>
															<effectid>audiolevels</effectid>
															<effectcategory>audiolevels</effectcategory>
															<effecttype>audiolevels</effecttype>
															<mediatype>audio</mediatype>
															<parameter>
																<name>Level</name>
																<parameterid>level</parameterid>
																<valuemin>0</valuemin>
																<valuemax>3.98109</valuemax>
																<value>1</value>
															</parameter>
														</effect>
													</filter>
													<filter>
														<effect>
															<name>Audio Pan</name>
															<effectid>audiopan</effectid>
															<effectcategory>audiopan</effectcategory>
															<effecttype>audiopan</effecttype>
															<mediatype>audio</mediatype>
															<parameter>
																<name>Pan</name>
																<parameterid>pan</parameterid>
																<valuemin>-1</valuemin>
																<valuemax>1</valuemax>
																<value>-0</value>
															</parameter>
														</effect>
													</filter>
													<sourcetrack>
														<mediatype>audio</mediatype>
														<trackindex>2</trackindex>
													</sourcetrack>
													<link>
														<linkclipref>Raw Scene Matthew Duepner Printing79</linkclipref>
														<mediatype>video</mediatype>
														<trackindex>1</trackindex>
														<clipindex>19</clipindex>
													</link>
													<link>
														<linkclipref>Raw Scene Matthew Duepner Printing80</linkclipref>
														<mediatype>audio</mediatype>
														<trackindex>1</trackindex>
														<clipindex>19</clipindex>
														<groupindex>1</groupindex>
													</link>
													<link>
														<linkclipref>Raw Scene Matthew Duepner Printing81</linkclipref>
														<mediatype>audio</mediatype>
														<trackindex>2</trackindex>
														<clipindex>19</clipindex>
														<groupindex>1</groupindex>
													</link>
													<itemhistory>
														<uuid>9AFD7845-096F-4203-B7A2-7687F40F0D67</uuid>
													</itemhistory>
												</clipitem>
												<clipitem id="Raw Scene Matthew Duepner Printing84">
													<name>Raw Scene Matthew Duepner Printing</name>
													<duration>28553</duration>
													<rate>
														<ntsc>TRUE</ntsc>
														<timebase>24</timebase>
													</rate>
													<in>13645</in>
													<out>13872</out>
													<start>2041</start>
													<end>2268</end>
													<masterclipid>Raw Scene Matthew Duepner Printing72</masterclipid>
													<logginginfo>
														<scene/>
														<shottake/>
														<lognote/>
														<good>FALSE</good>
													</logginginfo>
													<labels>
														<label2/>
													</labels>
													<comments>
														<mastercomment1/>
														<mastercomment2/>
														<mastercomment3/>
														<mastercomment4/>
													</comments>
													<file id="YIN_2013-05-28_LG-6 "/>
													<filter>
														<effect>
															<name>Audio Levels</name>
															<effectid>audiolevels</effectid>
															<effectcategory>audiolevels</effectcategory>
															<effecttype>audiolevels</effecttype>
															<mediatype>audio</mediatype>
															<parameter>
																<name>Level</name>
																<parameterid>level</parameterid>
																<valuemin>0</valuemin>
																<valuemax>3.98109</valuemax>
																<value>1</value>
															</parameter>
														</effect>
													</filter>
													<filter>
														<effect>
															<name>Audio Pan</name>
															<effectid>audiopan</effectid>
															<effectcategory>audiopan</effectcategory>
															<effecttype>audiopan</effecttype>
															<mediatype>audio</mediatype>
															<parameter>
																<name>Pan</name>
																<parameterid>pan</parameterid>
																<valuemin>-1</valuemin>
																<valuemax>1</valuemax>
																<value>-0</value>
															</parameter>
														</effect>
													</filter>
													<sourcetrack>
														<mediatype>audio</mediatype>
														<trackindex>2</trackindex>
													</sourcetrack>
													<link>
														<linkclipref>Raw Scene Matthew Duepner Printing82</linkclipref>
														<mediatype>video</mediatype>
														<trackindex>1</trackindex>
														<clipindex>20</clipindex>
													</link>
													<link>
														<linkclipref>Raw Scene Matthew Duepner Printing83</linkclipref>
														<mediatype>audio</mediatype>
														<trackindex>1</trackindex>
														<clipindex>20</clipindex>
														<groupindex>1</groupindex>
													</link>
													<link>
														<linkclipref>Raw Scene Matthew Duepner Printing84</linkclipref>
														<mediatype>audio</mediatype>
														<trackindex>2</trackindex>
														<clipindex>20</clipindex>
														<groupindex>1</groupindex>
													</link>
													<itemhistory>
														<uuid>B0F9DCAE-5CAD-465E-B093-F7B66B65EA2B</uuid>
													</itemhistory>
												</clipitem>
												<clipitem id="Raw Scene Matthew Duepner Printing87">
													<name>Raw Scene Matthew Duepner Printing</name>
													<duration>28553</duration>
													<rate>
														<ntsc>TRUE</ntsc>
														<timebase>24</timebase>
													</rate>
													<in>14375</in>
													<out>14590</out>
													<start>2268</start>
													<end>2483</end>
													<masterclipid>Raw Scene Matthew Duepner Printing72</masterclipid>
													<logginginfo>
														<scene/>
														<shottake/>
														<lognote/>
														<good>FALSE</good>
													</logginginfo>
													<labels>
														<label2/>
													</labels>
													<comments>
														<mastercomment1/>
														<mastercomment2/>
														<mastercomment3/>
														<mastercomment4/>
													</comments>
													<file id="YIN_2013-05-28_LG-6 "/>
													<filter>
														<effect>
															<name>Audio Levels</name>
															<effectid>audiolevels</effectid>
															<effectcategory>audiolevels</effectcategory>
															<effecttype>audiolevels</effecttype>
															<mediatype>audio</mediatype>
															<parameter>
																<name>Level</name>
																<parameterid>level</parameterid>
																<valuemin>0</valuemin>
																<valuemax>3.98109</valuemax>
																<value>1</value>
															</parameter>
														</effect>
													</filter>
													<filter>
														<effect>
															<name>Audio Pan</name>
															<effectid>audiopan</effectid>
															<effectcategory>audiopan</effectcategory>
															<effecttype>audiopan</effecttype>
															<mediatype>audio</mediatype>
															<parameter>
																<name>Pan</name>
																<parameterid>pan</parameterid>
																<valuemin>-1</valuemin>
																<valuemax>1</valuemax>
																<value>-0</value>
															</parameter>
														</effect>
													</filter>
													<sourcetrack>
														<mediatype>audio</mediatype>
														<trackindex>2</trackindex>
													</sourcetrack>
													<link>
														<linkclipref>Raw Scene Matthew Duepner Printing85</linkclipref>
														<mediatype>video</mediatype>
														<trackindex>1</trackindex>
														<clipindex>21</clipindex>
													</link>
													<link>
														<linkclipref>Raw Scene Matthew Duepner Printing86</linkclipref>
														<mediatype>audio</mediatype>
														<trackindex>1</trackindex>
														<clipindex>21</clipindex>
														<groupindex>1</groupindex>
													</link>
													<link>
														<linkclipref>Raw Scene Matthew Duepner Printing87</linkclipref>
														<mediatype>audio</mediatype>
														<trackindex>2</trackindex>
														<clipindex>21</clipindex>
														<groupindex>1</groupindex>
													</link>
													<itemhistory>
														<uuid>449398C3-6257-4032-AB5F-7970A8640860</uuid>
													</itemhistory>
												</clipitem>
												<clipitem id="Raw Scene Matthew Duepner Printing90">
													<name>Raw Scene Matthew Duepner Printing</name>
													<duration>28553</duration>
													<rate>
														<ntsc>TRUE</ntsc>
														<timebase>24</timebase>
													</rate>
													<in>17176</in>
													<out>17239</out>
													<start>2483</start>
													<end>2546</end>
													<masterclipid>Raw Scene Matthew Duepner Printing72</masterclipid>
													<logginginfo>
														<scene/>
														<shottake/>
														<lognote/>
														<good>FALSE</good>
													</logginginfo>
													<labels>
														<label2/>
													</labels>
													<comments>
														<mastercomment1/>
														<mastercomment2/>
														<mastercomment3/>
														<mastercomment4/>
													</comments>
													<file id="YIN_2013-05-28_LG-6 "/>
													<filter>
														<effect>
															<name>Audio Levels</name>
															<effectid>audiolevels</effectid>
															<effectcategory>audiolevels</effectcategory>
															<effecttype>audiolevels</effecttype>
															<mediatype>audio</mediatype>
															<parameter>
																<name>Level</name>
																<parameterid>level</parameterid>
																<valuemin>0</valuemin>
																<valuemax>3.98109</valuemax>
																<value>1</value>
															</parameter>
														</effect>
													</filter>
													<filter>
														<effect>
															<name>Audio Pan</name>
															<effectid>audiopan</effectid>
															<effectcategory>audiopan</effectcategory>
															<effecttype>audiopan</effecttype>
															<mediatype>audio</mediatype>
															<parameter>
																<name>Pan</name>
																<parameterid>pan</parameterid>
																<valuemin>-1</valuemin>
																<valuemax>1</valuemax>
																<value>-0</value>
															</parameter>
														</effect>
													</filter>
													<sourcetrack>
														<mediatype>audio</mediatype>
														<trackindex>2</trackindex>
													</sourcetrack>
													<link>
														<linkclipref>Raw Scene Matthew Duepner Printing88</linkclipref>
														<mediatype>video</mediatype>
														<trackindex>1</trackindex>
														<clipindex>22</clipindex>
													</link>
													<link>
														<linkclipref>Raw Scene Matthew Duepner Printing89</linkclipref>
														<mediatype>audio</mediatype>
														<trackindex>1</trackindex>
														<clipindex>22</clipindex>
														<groupindex>1</groupindex>
													</link>
													<link>
														<linkclipref>Raw Scene Matthew Duepner Printing90</linkclipref>
														<mediatype>audio</mediatype>
														<trackindex>2</trackindex>
														<clipindex>22</clipindex>
														<groupindex>1</groupindex>
													</link>
													<itemhistory>
														<uuid>5BD23A5A-72D3-4781-A4C3-03780538F864</uuid>
													</itemhistory>
												</clipitem>
												<clipitem id="Raw Scene Matthew Duepner Printing93">
													<name>Raw Scene Matthew Duepner Printing</name>
													<duration>28553</duration>
													<rate>
														<ntsc>TRUE</ntsc>
														<timebase>24</timebase>
													</rate>
													<in>22417</in>
													<out>22543</out>
													<start>2546</start>
													<end>2672</end>
													<masterclipid>Raw Scene Matthew Duepner Printing72</masterclipid>
													<logginginfo>
														<scene/>
														<shottake/>
														<lognote/>
														<good>FALSE</good>
													</logginginfo>
													<labels>
														<label2/>
													</labels>
													<comments>
														<mastercomment1/>
														<mastercomment2/>
														<mastercomment3/>
														<mastercomment4/>
													</comments>
													<file id="YIN_2013-05-28_LG-6 "/>
													<filter>
														<effect>
															<name>Audio Levels</name>
															<effectid>audiolevels</effectid>
															<effectcategory>audiolevels</effectcategory>
															<effecttype>audiolevels</effecttype>
															<mediatype>audio</mediatype>
															<parameter>
																<name>Level</name>
																<parameterid>level</parameterid>
																<valuemin>0</valuemin>
																<valuemax>3.98109</valuemax>
																<value>1</value>
															</parameter>
														</effect>
													</filter>
													<filter>
														<effect>
															<name>Audio Pan</name>
															<effectid>audiopan</effectid>
															<effectcategory>audiopan</effectcategory>
															<effecttype>audiopan</effecttype>
															<mediatype>audio</mediatype>
															<parameter>
																<name>Pan</name>
																<parameterid>pan</parameterid>
																<valuemin>-1</valuemin>
																<valuemax>1</valuemax>
																<value>-0</value>
															</parameter>
														</effect>
													</filter>
													<sourcetrack>
														<mediatype>audio</mediatype>
														<trackindex>2</trackindex>
													</sourcetrack>
													<link>
														<linkclipref>Raw Scene Matthew Duepner Printing91</linkclipref>
														<mediatype>video</mediatype>
														<trackindex>1</trackindex>
														<clipindex>23</clipindex>
													</link>
													<link>
														<linkclipref>Raw Scene Matthew Duepner Printing92</linkclipref>
														<mediatype>audio</mediatype>
														<trackindex>1</trackindex>
														<clipindex>23</clipindex>
														<groupindex>1</groupindex>
													</link>
													<link>
														<linkclipref>Raw Scene Matthew Duepner Printing93</linkclipref>
														<mediatype>audio</mediatype>
														<trackindex>2</trackindex>
														<clipindex>23</clipindex>
														<groupindex>1</groupindex>
													</link>
													<itemhistory>
														<uuid>DC7F391D-FBE9-4CAA-8B90-ED67DBA7A37A</uuid>
													</itemhistory>
												</clipitem>
												<clipitem id="Raw Scene Matthew Duepner Printing96">
													<name>Raw Scene Matthew Duepner Printing</name>
													<duration>28553</duration>
													<rate>
														<ntsc>TRUE</ntsc>
														<timebase>24</timebase>
													</rate>
													<in>22831</in>
													<out>22878</out>
													<start>2672</start>
													<end>2719</end>
													<masterclipid>Raw Scene Matthew Duepner Printing72</masterclipid>
													<logginginfo>
														<scene/>
														<shottake/>
														<lognote/>
														<good>FALSE</good>
													</logginginfo>
													<labels>
														<label2/>
													</labels>
													<comments>
														<mastercomment1/>
														<mastercomment2/>
														<mastercomment3/>
														<mastercomment4/>
													</comments>
													<file id="YIN_2013-05-28_LG-6 "/>
													<filter>
														<effect>
															<name>Audio Levels</name>
															<effectid>audiolevels</effectid>
															<effectcategory>audiolevels</effectcategory>
															<effecttype>audiolevels</effecttype>
															<mediatype>audio</mediatype>
															<parameter>
																<name>Level</name>
																<parameterid>level</parameterid>
																<valuemin>0</valuemin>
																<valuemax>3.98109</valuemax>
																<value>1</value>
															</parameter>
														</effect>
													</filter>
													<filter>
														<effect>
															<name>Audio Pan</name>
															<effectid>audiopan</effectid>
															<effectcategory>audiopan</effectcategory>
															<effecttype>audiopan</effecttype>
															<mediatype>audio</mediatype>
															<parameter>
																<name>Pan</name>
																<parameterid>pan</parameterid>
																<valuemin>-1</valuemin>
																<valuemax>1</valuemax>
																<value>-0</value>
															</parameter>
														</effect>
													</filter>
													<sourcetrack>
														<mediatype>audio</mediatype>
														<trackindex>2</trackindex>
													</sourcetrack>
													<link>
														<linkclipref>Raw Scene Matthew Duepner Printing94</linkclipref>
														<mediatype>video</mediatype>
														<trackindex>1</trackindex>
														<clipindex>24</clipindex>
													</link>
													<link>
														<linkclipref>Raw Scene Matthew Duepner Printing95</linkclipref>
														<mediatype>audio</mediatype>
														<trackindex>1</trackindex>
														<clipindex>24</clipindex>
														<groupindex>1</groupindex>
													</link>
													<link>
														<linkclipref>Raw Scene Matthew Duepner Printing96</linkclipref>
														<mediatype>audio</mediatype>
														<trackindex>2</trackindex>
														<clipindex>24</clipindex>
														<groupindex>1</groupindex>
													</link>
													<itemhistory>
														<uuid>B9EC466E-BDE2-43E1-BD03-A1798642033C</uuid>
													</itemhistory>
												</clipitem>
												<clipitem id="Raw Scene Matthew Duepner Printing99">
													<name>Raw Scene Matthew Duepner Printing</name>
													<duration>28553</duration>
													<rate>
														<ntsc>TRUE</ntsc>
														<timebase>24</timebase>
													</rate>
													<in>23483</in>
													<out>23542</out>
													<start>2719</start>
													<end>2778</end>
													<masterclipid>Raw Scene Matthew Duepner Printing72</masterclipid>
													<logginginfo>
														<scene/>
														<shottake/>
														<lognote/>
														<good>FALSE</good>
													</logginginfo>
													<labels>
														<label2/>
													</labels>
													<comments>
														<mastercomment1/>
														<mastercomment2/>
														<mastercomment3/>
														<mastercomment4/>
													</comments>
													<file id="YIN_2013-05-28_LG-6 "/>
													<filter>
														<effect>
															<name>Audio Levels</name>
															<effectid>audiolevels</effectid>
															<effectcategory>audiolevels</effectcategory>
															<effecttype>audiolevels</effecttype>
															<mediatype>audio</mediatype>
															<parameter>
																<name>Level</name>
																<parameterid>level</parameterid>
																<valuemin>0</valuemin>
																<valuemax>3.98109</valuemax>
																<value>1</value>
															</parameter>
														</effect>
													</filter>
													<filter>
														<effect>
															<name>Audio Pan</name>
															<effectid>audiopan</effectid>
															<effectcategory>audiopan</effectcategory>
															<effecttype>audiopan</effecttype>
															<mediatype>audio</mediatype>
															<parameter>
																<name>Pan</name>
																<parameterid>pan</parameterid>
																<valuemin>-1</valuemin>
																<valuemax>1</valuemax>
																<value>-0</value>
															</parameter>
														</effect>
													</filter>
													<sourcetrack>
														<mediatype>audio</mediatype>
														<trackindex>2</trackindex>
													</sourcetrack>
													<link>
														<linkclipref>Raw Scene Matthew Duepner Printing97</linkclipref>
														<mediatype>video</mediatype>
														<trackindex>1</trackindex>
														<clipindex>25</clipindex>
													</link>
													<link>
														<linkclipref>Raw Scene Matthew Duepner Printing98</linkclipref>
														<mediatype>audio</mediatype>
														<trackindex>1</trackindex>
														<clipindex>25</clipindex>
														<groupindex>1</groupindex>
													</link>
													<link>
														<linkclipref>Raw Scene Matthew Duepner Printing99</linkclipref>
														<mediatype>audio</mediatype>
														<trackindex>2</trackindex>
														<clipindex>25</clipindex>
														<groupindex>1</groupindex>
													</link>
													<itemhistory>
														<uuid>D5CBF74F-E36F-484E-A3C8-28596C82D4A3</uuid>
													</itemhistory>
												</clipitem>
												<clipitem id="Raw Scene Matthew Duepner Printing102">
													<name>Raw Scene Matthew Duepner Printing</name>
													<duration>28553</duration>
													<rate>
														<ntsc>TRUE</ntsc>
														<timebase>24</timebase>
													</rate>
													<in>23633</in>
													<out>23762</out>
													<start>2778</start>
													<end>2907</end>
													<masterclipid>Raw Scene Matthew Duepner Printing72</masterclipid>
													<logginginfo>
														<scene/>
														<shottake/>
														<lognote/>
														<good>FALSE</good>
													</logginginfo>
													<labels>
														<label2/>
													</labels>
													<comments>
														<mastercomment1/>
														<mastercomment2/>
														<mastercomment3/>
														<mastercomment4/>
													</comments>
													<file id="YIN_2013-05-28_LG-6 "/>
													<filter>
														<effect>
															<name>Audio Levels</name>
															<effectid>audiolevels</effectid>
															<effectcategory>audiolevels</effectcategory>
															<effecttype>audiolevels</effecttype>
															<mediatype>audio</mediatype>
															<parameter>
																<name>Level</name>
																<parameterid>level</parameterid>
																<valuemin>0</valuemin>
																<valuemax>3.98109</valuemax>
																<value>1</value>
															</parameter>
														</effect>
													</filter>
													<filter>
														<effect>
															<name>Audio Pan</name>
															<effectid>audiopan</effectid>
															<effectcategory>audiopan</effectcategory>
															<effecttype>audiopan</effecttype>
															<mediatype>audio</mediatype>
															<parameter>
																<name>Pan</name>
																<parameterid>pan</parameterid>
																<valuemin>-1</valuemin>
																<valuemax>1</valuemax>
																<value>-0</value>
															</parameter>
														</effect>
													</filter>
													<sourcetrack>
														<mediatype>audio</mediatype>
														<trackindex>2</trackindex>
													</sourcetrack>
													<link>
														<linkclipref>Raw Scene Matthew Duepner Printing100</linkclipref>
														<mediatype>video</mediatype>
														<trackindex>1</trackindex>
														<clipindex>26</clipindex>
													</link>
													<link>
														<linkclipref>Raw Scene Matthew Duepner Printing101</linkclipref>
														<mediatype>audio</mediatype>
														<trackindex>1</trackindex>
														<clipindex>26</clipindex>
														<groupindex>1</groupindex>
													</link>
													<link>
														<linkclipref>Raw Scene Matthew Duepner Printing102</linkclipref>
														<mediatype>audio</mediatype>
														<trackindex>2</trackindex>
														<clipindex>26</clipindex>
														<groupindex>1</groupindex>
													</link>
													<itemhistory>
														<uuid>6272AD3C-4C5D-4FDA-8D41-EC0E8CF593DB</uuid>
													</itemhistory>
												</clipitem>
												<clipitem id="Raw Scene Matthew Duepner Printing105">
													<name>Raw Scene Matthew Duepner Printing</name>
													<duration>28553</duration>
													<rate>
														<ntsc>TRUE</ntsc>
														<timebase>24</timebase>
													</rate>
													<in>24554</in>
													<out>24706</out>
													<start>2907</start>
													<end>3059</end>
													<masterclipid>Raw Scene Matthew Duepner Printing72</masterclipid>
													<logginginfo>
														<scene/>
														<shottake/>
														<lognote/>
														<good>FALSE</good>
													</logginginfo>
													<labels>
														<label2/>
													</labels>
													<comments>
														<mastercomment1/>
														<mastercomment2/>
														<mastercomment3/>
														<mastercomment4/>
													</comments>
													<file id="YIN_2013-05-28_LG-6 "/>
													<filter>
														<effect>
															<name>Audio Levels</name>
															<effectid>audiolevels</effectid>
															<effectcategory>audiolevels</effectcategory>
															<effecttype>audiolevels</effecttype>
															<mediatype>audio</mediatype>
															<parameter>
																<name>Level</name>
																<parameterid>level</parameterid>
																<valuemin>0</valuemin>
																<valuemax>3.98109</valuemax>
																<value>1</value>
															</parameter>
														</effect>
													</filter>
													<filter>
														<effect>
															<name>Audio Pan</name>
															<effectid>audiopan</effectid>
															<effectcategory>audiopan</effectcategory>
															<effecttype>audiopan</effecttype>
															<mediatype>audio</mediatype>
															<parameter>
																<name>Pan</name>
																<parameterid>pan</parameterid>
																<valuemin>-1</valuemin>
																<valuemax>1</valuemax>
																<value>-0</value>
															</parameter>
														</effect>
													</filter>
													<sourcetrack>
														<mediatype>audio</mediatype>
														<trackindex>2</trackindex>
													</sourcetrack>
													<link>
														<linkclipref>Raw Scene Matthew Duepner Printing103</linkclipref>
														<mediatype>video</mediatype>
														<trackindex>1</trackindex>
														<clipindex>27</clipindex>
													</link>
													<link>
														<linkclipref>Raw Scene Matthew Duepner Printing104</linkclipref>
														<mediatype>audio</mediatype>
														<trackindex>1</trackindex>
														<clipindex>27</clipindex>
														<groupindex>1</groupindex>
													</link>
													<link>
														<linkclipref>Raw Scene Matthew Duepner Printing105</linkclipref>
														<mediatype>audio</mediatype>
														<trackindex>2</trackindex>
														<clipindex>27</clipindex>
														<groupindex>1</groupindex>
													</link>
													<itemhistory>
														<uuid>22CE7FEC-7B26-44D5-9A29-AC473B0468E0</uuid>
													</itemhistory>
												</clipitem>
												<clipitem id="Raw Scene Matthew Duepner Printing108">
													<name>Raw Scene Matthew Duepner Printing</name>
													<duration>28553</duration>
													<rate>
														<ntsc>TRUE</ntsc>
														<timebase>24</timebase>
													</rate>
													<in>27525</in>
													<out>27797</out>
													<start>3059</start>
													<end>3331</end>
													<masterclipid>Raw Scene Matthew Duepner Printing72</masterclipid>
													<logginginfo>
														<scene/>
														<shottake/>
														<lognote/>
														<good>FALSE</good>
													</logginginfo>
													<labels>
														<label2/>
													</labels>
													<comments>
														<mastercomment1/>
														<mastercomment2/>
														<mastercomment3/>
														<mastercomment4/>
													</comments>
													<file id="YIN_2013-05-28_LG-6 "/>
													<filter>
														<effect>
															<name>Audio Levels</name>
															<effectid>audiolevels</effectid>
															<effectcategory>audiolevels</effectcategory>
															<effecttype>audiolevels</effecttype>
															<mediatype>audio</mediatype>
															<parameter>
																<name>Level</name>
																<parameterid>level</parameterid>
																<valuemin>0</valuemin>
																<valuemax>3.98109</valuemax>
																<value>1</value>
															</parameter>
														</effect>
													</filter>
													<filter>
														<effect>
															<name>Audio Pan</name>
															<effectid>audiopan</effectid>
															<effectcategory>audiopan</effectcategory>
															<effecttype>audiopan</effecttype>
															<mediatype>audio</mediatype>
															<parameter>
																<name>Pan</name>
																<parameterid>pan</parameterid>
																<valuemin>-1</valuemin>
																<valuemax>1</valuemax>
																<value>-0</value>
															</parameter>
														</effect>
													</filter>
													<sourcetrack>
														<mediatype>audio</mediatype>
														<trackindex>2</trackindex>
													</sourcetrack>
													<link>
														<linkclipref>Raw Scene Matthew Duepner Printing106</linkclipref>
														<mediatype>video</mediatype>
														<trackindex>1</trackindex>
														<clipindex>28</clipindex>
													</link>
													<link>
														<linkclipref>Raw Scene Matthew Duepner Printing107</linkclipref>
														<mediatype>audio</mediatype>
														<trackindex>1</trackindex>
														<clipindex>28</clipindex>
														<groupindex>1</groupindex>
													</link>
													<link>
														<linkclipref>Raw Scene Matthew Duepner Printing108</linkclipref>
														<mediatype>audio</mediatype>
														<trackindex>2</trackindex>
														<clipindex>28</clipindex>
														<groupindex>1</groupindex>
													</link>
													<itemhistory>
														<uuid>F00A54DF-6647-490D-8AEE-8AD9428FD4C1</uuid>
													</itemhistory>
												</clipitem>
												<clipitem id="Raw Scene Matthew Duepner Printing111">
													<name>Raw Scene Matthew Duepner Printing</name>
													<duration>28553</duration>
													<rate>
														<ntsc>TRUE</ntsc>
														<timebase>24</timebase>
													</rate>
													<in>28313</in>
													<out>28455</out>
													<start>3331</start>
													<end>3473</end>
													<masterclipid>Raw Scene Matthew Duepner Printing72</masterclipid>
													<logginginfo>
														<scene/>
														<shottake/>
														<lognote/>
														<good>FALSE</good>
													</logginginfo>
													<labels>
														<label2/>
													</labels>
													<comments>
														<mastercomment1/>
														<mastercomment2/>
														<mastercomment3/>
														<mastercomment4/>
													</comments>
													<file id="YIN_2013-05-28_LG-6 "/>
													<filter>
														<effect>
															<name>Audio Levels</name>
															<effectid>audiolevels</effectid>
															<effectcategory>audiolevels</effectcategory>
															<effecttype>audiolevels</effecttype>
															<mediatype>audio</mediatype>
															<parameter>
																<name>Level</name>
																<parameterid>level</parameterid>
																<valuemin>0</valuemin>
																<valuemax>3.98109</valuemax>
																<value>1</value>
															</parameter>
														</effect>
													</filter>
													<filter>
														<effect>
															<name>Audio Pan</name>
															<effectid>audiopan</effectid>
															<effectcategory>audiopan</effectcategory>
															<effecttype>audiopan</effecttype>
															<mediatype>audio</mediatype>
															<parameter>
																<name>Pan</name>
																<parameterid>pan</parameterid>
																<valuemin>-1</valuemin>
																<valuemax>1</valuemax>
																<value>-0</value>
															</parameter>
														</effect>
													</filter>
													<sourcetrack>
														<mediatype>audio</mediatype>
														<trackindex>2</trackindex>
													</sourcetrack>
													<link>
														<linkclipref>Raw Scene Matthew Duepner Printing109</linkclipref>
														<mediatype>video</mediatype>
														<trackindex>1</trackindex>
														<clipindex>29</clipindex>
													</link>
													<link>
														<linkclipref>Raw Scene Matthew Duepner Printing110</linkclipref>
														<mediatype>audio</mediatype>
														<trackindex>1</trackindex>
														<clipindex>29</clipindex>
														<groupindex>1</groupindex>
													</link>
													<link>
														<linkclipref>Raw Scene Matthew Duepner Printing111</linkclipref>
														<mediatype>audio</mediatype>
														<trackindex>2</trackindex>
														<clipindex>29</clipindex>
														<groupindex>1</groupindex>
													</link>
													<itemhistory>
														<uuid>5F050A5F-5D2D-4547-82CE-200EBC044EAD</uuid>
													</itemhistory>
												</clipitem>
												<clipitem id="Raw Scene Matthew Duepner Walkabout354">
													<name>Raw Scene Matthew Duepner Walkabout</name>
													<duration>38484</duration>
													<rate>
														<ntsc>TRUE</ntsc>
														<timebase>24</timebase>
													</rate>
													<in>5133</in>
													<out>5266</out>
													<start>3473</start>
													<end>3606</end>
													<masterclipid>Raw Scene Matthew Duepner Walkabout234</masterclipid>
													<logginginfo>
														<scene/>
														<shottake/>
														<lognote/>
														<good>FALSE</good>
													</logginginfo>
													<labels>
														<label2/>
													</labels>
													<comments>
														<mastercomment1/>
														<mastercomment2/>
														<mastercomment3/>
														<mastercomment4/>
													</comments>
													<file id="YIN_2013-05-28_LG-4 "/>
													<filter>
														<effect>
															<name>Audio Levels</name>
															<effectid>audiolevels</effectid>
															<effectcategory>audiolevels</effectcategory>
															<effecttype>audiolevels</effecttype>
															<mediatype>audio</mediatype>
															<parameter>
																<name>Level</name>
																<parameterid>level</parameterid>
																<valuemin>0</valuemin>
																<valuemax>3.98109</valuemax>
																<value>1</value>
															</parameter>
														</effect>
													</filter>
													<filter>
														<effect>
															<name>Audio Pan</name>
															<effectid>audiopan</effectid>
															<effectcategory>audiopan</effectcategory>
															<effecttype>audiopan</effecttype>
															<mediatype>audio</mediatype>
															<parameter>
																<name>Pan</name>
																<parameterid>pan</parameterid>
																<valuemin>-1</valuemin>
																<valuemax>1</valuemax>
																<value>-0</value>
															</parameter>
														</effect>
													</filter>
													<sourcetrack>
														<mediatype>audio</mediatype>
														<trackindex>2</trackindex>
													</sourcetrack>
													<link>
														<linkclipref>Raw Scene Matthew Duepner Walkabout353</linkclipref>
														<mediatype>audio</mediatype>
														<trackindex>1</trackindex>
														<clipindex>30</clipindex>
														<groupindex>1</groupindex>
													</link>
													<link>
														<linkclipref>Raw Scene Matthew Duepner Walkabout354</linkclipref>
														<mediatype>audio</mediatype>
														<trackindex>2</trackindex>
														<clipindex>30</clipindex>
														<groupindex>1</groupindex>
													</link>
													<itemhistory>
														<uuid>9E280C10-CBE0-4AF6-8C0A-7E5174AAF873</uuid>
													</itemhistory>
												</clipitem>
												<clipitem id="Raw Scene Matthew Duepner Walkabout241">
													<name>Raw Scene Matthew Duepner Walkabout</name>
													<duration>38484</duration>
													<rate>
														<ntsc>TRUE</ntsc>
														<timebase>24</timebase>
													</rate>
													<in>4745</in>
													<out>5123</out>
													<start>3606</start>
													<end>3984</end>
													<masterclipid>Raw Scene Matthew Duepner Walkabout234</masterclipid>
													<logginginfo>
														<scene/>
														<shottake/>
														<lognote/>
														<good>FALSE</good>
													</logginginfo>
													<labels>
														<label2/>
													</labels>
													<comments>
														<mastercomment1/>
														<mastercomment2/>
														<mastercomment3/>
														<mastercomment4/>
													</comments>
													<file id="YIN_2013-05-28_LG-4 "/>
													<filter>
														<effect>
															<name>Audio Levels</name>
															<effectid>audiolevels</effectid>
															<effectcategory>audiolevels</effectcategory>
															<effecttype>audiolevels</effecttype>
															<mediatype>audio</mediatype>
															<parameter>
																<name>Level</name>
																<parameterid>level</parameterid>
																<valuemin>0</valuemin>
																<valuemax>3.98109</valuemax>
																<value>1</value>
															</parameter>
														</effect>
													</filter>
													<filter>
														<effect>
															<name>Audio Pan</name>
															<effectid>audiopan</effectid>
															<effectcategory>audiopan</effectcategory>
															<effecttype>audiopan</effecttype>
															<mediatype>audio</mediatype>
															<parameter>
																<name>Pan</name>
																<parameterid>pan</parameterid>
																<valuemin>-1</valuemin>
																<valuemax>1</valuemax>
																<value>-0</value>
															</parameter>
														</effect>
													</filter>
													<sourcetrack>
														<mediatype>audio</mediatype>
														<trackindex>2</trackindex>
													</sourcetrack>
													<link>
														<linkclipref>Raw Scene Matthew Duepner Walkabout239</linkclipref>
														<mediatype>video</mediatype>
														<trackindex>1</trackindex>
														<clipindex>31</clipindex>
													</link>
													<link>
														<linkclipref>Raw Scene Matthew Duepner Walkabout240</linkclipref>
														<mediatype>audio</mediatype>
														<trackindex>1</trackindex>
														<clipindex>31</clipindex>
														<groupindex>1</groupindex>
													</link>
													<link>
														<linkclipref>Raw Scene Matthew Duepner Walkabout241</linkclipref>
														<mediatype>audio</mediatype>
														<trackindex>2</trackindex>
														<clipindex>31</clipindex>
														<groupindex>1</groupindex>
													</link>
													<itemhistory>
														<uuid>EF27ADA2-C258-4FAC-AC9D-589D0FCA1241</uuid>
													</itemhistory>
												</clipitem>
												<clipitem id="Raw Scene Matthew Duepner Walkabout244">
													<name>Raw Scene Matthew Duepner Walkabout</name>
													<duration>38484</duration>
													<rate>
														<ntsc>TRUE</ntsc>
														<timebase>24</timebase>
													</rate>
													<in>6473</in>
													<out>6911</out>
													<start>3984</start>
													<end>4422</end>
													<masterclipid>Raw Scene Matthew Duepner Walkabout234</masterclipid>
													<logginginfo>
														<scene/>
														<shottake/>
														<lognote/>
														<good>FALSE</good>
													</logginginfo>
													<labels>
														<label2/>
													</labels>
													<comments>
														<mastercomment1/>
														<mastercomment2/>
														<mastercomment3/>
														<mastercomment4/>
													</comments>
													<file id="YIN_2013-05-28_LG-4 "/>
													<filter>
														<effect>
															<name>Audio Levels</name>
															<effectid>audiolevels</effectid>
															<effectcategory>audiolevels</effectcategory>
															<effecttype>audiolevels</effecttype>
															<mediatype>audio</mediatype>
															<parameter>
																<name>Level</name>
																<parameterid>level</parameterid>
																<valuemin>0</valuemin>
																<valuemax>3.98109</valuemax>
																<value>1</value>
															</parameter>
														</effect>
													</filter>
													<filter>
														<effect>
															<name>Audio Pan</name>
															<effectid>audiopan</effectid>
															<effectcategory>audiopan</effectcategory>
															<effecttype>audiopan</effecttype>
															<mediatype>audio</mediatype>
															<parameter>
																<name>Pan</name>
																<parameterid>pan</parameterid>
																<valuemin>-1</valuemin>
																<valuemax>1</valuemax>
																<value>-0</value>
															</parameter>
														</effect>
													</filter>
													<sourcetrack>
														<mediatype>audio</mediatype>
														<trackindex>2</trackindex>
													</sourcetrack>
													<link>
														<linkclipref>Raw Scene Matthew Duepner Walkabout242</linkclipref>
														<mediatype>video</mediatype>
														<trackindex>1</trackindex>
														<clipindex>32</clipindex>
													</link>
													<link>
														<linkclipref>Raw Scene Matthew Duepner Walkabout243</linkclipref>
														<mediatype>audio</mediatype>
														<trackindex>1</trackindex>
														<clipindex>32</clipindex>
														<groupindex>1</groupindex>
													</link>
													<link>
														<linkclipref>Raw Scene Matthew Duepner Walkabout244</linkclipref>
														<mediatype>audio</mediatype>
														<trackindex>2</trackindex>
														<clipindex>32</clipindex>
														<groupindex>1</groupindex>
													</link>
													<itemhistory>
														<uuid>E786B48E-9CFD-4C40-B21A-246719639EB4</uuid>
													</itemhistory>
												</clipitem>
												<clipitem id="Raw Scene Matthew Duepner Walkabout247">
													<name>Raw Scene Matthew Duepner Walkabout</name>
													<duration>38484</duration>
													<rate>
														<ntsc>TRUE</ntsc>
														<timebase>24</timebase>
													</rate>
													<in>7070</in>
													<out>7250</out>
													<start>4422</start>
													<end>4602</end>
													<masterclipid>Raw Scene Matthew Duepner Walkabout234</masterclipid>
													<logginginfo>
														<scene/>
														<shottake/>
														<lognote/>
														<good>FALSE</good>
													</logginginfo>
													<labels>
														<label2/>
													</labels>
													<comments>
														<mastercomment1/>
														<mastercomment2/>
														<mastercomment3/>
														<mastercomment4/>
													</comments>
													<file id="YIN_2013-05-28_LG-4 "/>
													<filter>
														<effect>
															<name>Audio Levels</name>
															<effectid>audiolevels</effectid>
															<effectcategory>audiolevels</effectcategory>
															<effecttype>audiolevels</effecttype>
															<mediatype>audio</mediatype>
															<parameter>
																<name>Level</name>
																<parameterid>level</parameterid>
																<valuemin>0</valuemin>
																<valuemax>3.98109</valuemax>
																<value>1</value>
															</parameter>
														</effect>
													</filter>
													<filter>
														<effect>
															<name>Audio Pan</name>
															<effectid>audiopan</effectid>
															<effectcategory>audiopan</effectcategory>
															<effecttype>audiopan</effecttype>
															<mediatype>audio</mediatype>
															<parameter>
																<name>Pan</name>
																<parameterid>pan</parameterid>
																<valuemin>-1</valuemin>
																<valuemax>1</valuemax>
																<value>-0</value>
															</parameter>
														</effect>
													</filter>
													<sourcetrack>
														<mediatype>audio</mediatype>
														<trackindex>2</trackindex>
													</sourcetrack>
													<link>
														<linkclipref>Raw Scene Matthew Duepner Walkabout245</linkclipref>
														<mediatype>video</mediatype>
														<trackindex>1</trackindex>
														<clipindex>33</clipindex>
													</link>
													<link>
														<linkclipref>Raw Scene Matthew Duepner Walkabout246</linkclipref>
														<mediatype>audio</mediatype>
														<trackindex>1</trackindex>
														<clipindex>33</clipindex>
														<groupindex>1</groupindex>
													</link>
													<link>
														<linkclipref>Raw Scene Matthew Duepner Walkabout247</linkclipref>
														<mediatype>audio</mediatype>
														<trackindex>2</trackindex>
														<clipindex>33</clipindex>
														<groupindex>1</groupindex>
													</link>
													<itemhistory>
														<uuid>AC1AC907-C057-4799-8311-83A9D95511E6</uuid>
													</itemhistory>
												</clipitem>
												<clipitem id="Raw Scene Matthew Duepner Walkabout250">
													<name>Raw Scene Matthew Duepner Walkabout</name>
													<duration>38484</duration>
													<rate>
														<ntsc>TRUE</ntsc>
														<timebase>24</timebase>
													</rate>
													<in>10560</in>
													<out>10599</out>
													<start>4602</start>
													<end>4641</end>
													<masterclipid>Raw Scene Matthew Duepner Walkabout234</masterclipid>
													<logginginfo>
														<scene/>
														<shottake/>
														<lognote/>
														<good>FALSE</good>
													</logginginfo>
													<labels>
														<label2/>
													</labels>
													<comments>
														<mastercomment1/>
														<mastercomment2/>
														<mastercomment3/>
														<mastercomment4/>
													</comments>
													<file id="YIN_2013-05-28_LG-4 "/>
													<filter>
														<effect>
															<name>Audio Levels</name>
															<effectid>audiolevels</effectid>
															<effectcategory>audiolevels</effectcategory>
															<effecttype>audiolevels</effecttype>
															<mediatype>audio</mediatype>
															<parameter>
																<name>Level</name>
																<parameterid>level</parameterid>
																<valuemin>0</valuemin>
																<valuemax>3.98109</valuemax>
																<value>1</value>
															</parameter>
														</effect>
													</filter>
													<filter>
														<effect>
															<name>Audio Pan</name>
															<effectid>audiopan</effectid>
															<effectcategory>audiopan</effectcategory>
															<effecttype>audiopan</effecttype>
															<mediatype>audio</mediatype>
															<parameter>
																<name>Pan</name>
																<parameterid>pan</parameterid>
																<valuemin>-1</valuemin>
																<valuemax>1</valuemax>
																<value>-0</value>
															</parameter>
														</effect>
													</filter>
													<sourcetrack>
														<mediatype>audio</mediatype>
														<trackindex>2</trackindex>
													</sourcetrack>
													<link>
														<linkclipref>Raw Scene Matthew Duepner Walkabout248</linkclipref>
														<mediatype>video</mediatype>
														<trackindex>1</trackindex>
														<clipindex>34</clipindex>
													</link>
													<link>
														<linkclipref>Raw Scene Matthew Duepner Walkabout249</linkclipref>
														<mediatype>audio</mediatype>
														<trackindex>1</trackindex>
														<clipindex>34</clipindex>
														<groupindex>1</groupindex>
													</link>
													<link>
														<linkclipref>Raw Scene Matthew Duepner Walkabout250</linkclipref>
														<mediatype>audio</mediatype>
														<trackindex>2</trackindex>
														<clipindex>34</clipindex>
														<groupindex>1</groupindex>
													</link>
													<itemhistory>
														<uuid>4552F3AF-520A-4C05-BE28-6F62A0F3D96A</uuid>
													</itemhistory>
												</clipitem>
												<clipitem id="Raw Scene Matthew Duepner Walkabout253">
													<name>Raw Scene Matthew Duepner Walkabout</name>
													<duration>38484</duration>
													<rate>
														<ntsc>TRUE</ntsc>
														<timebase>24</timebase>
													</rate>
													<in>11332</in>
													<out>11408</out>
													<start>4641</start>
													<end>4717</end>
													<masterclipid>Raw Scene Matthew Duepner Walkabout234</masterclipid>
													<logginginfo>
														<scene/>
														<shottake/>
														<lognote/>
														<good>FALSE</good>
													</logginginfo>
													<labels>
														<label2/>
													</labels>
													<comments>
														<mastercomment1/>
														<mastercomment2/>
														<mastercomment3/>
														<mastercomment4/>
													</comments>
													<file id="YIN_2013-05-28_LG-4 "/>
													<filter>
														<effect>
															<name>Audio Levels</name>
															<effectid>audiolevels</effectid>
															<effectcategory>audiolevels</effectcategory>
															<effecttype>audiolevels</effecttype>
															<mediatype>audio</mediatype>
															<parameter>
																<name>Level</name>
																<parameterid>level</parameterid>
																<valuemin>0</valuemin>
																<valuemax>3.98109</valuemax>
																<value>1</value>
															</parameter>
														</effect>
													</filter>
													<filter>
														<effect>
															<name>Audio Pan</name>
															<effectid>audiopan</effectid>
															<effectcategory>audiopan</effectcategory>
															<effecttype>audiopan</effecttype>
															<mediatype>audio</mediatype>
															<parameter>
																<name>Pan</name>
																<parameterid>pan</parameterid>
																<valuemin>-1</valuemin>
																<valuemax>1</valuemax>
																<value>-0</value>
															</parameter>
														</effect>
													</filter>
													<sourcetrack>
														<mediatype>audio</mediatype>
														<trackindex>2</trackindex>
													</sourcetrack>
													<link>
														<linkclipref>Raw Scene Matthew Duepner Walkabout251</linkclipref>
														<mediatype>video</mediatype>
														<trackindex>1</trackindex>
														<clipindex>35</clipindex>
													</link>
													<link>
														<linkclipref>Raw Scene Matthew Duepner Walkabout252</linkclipref>
														<mediatype>audio</mediatype>
														<trackindex>1</trackindex>
														<clipindex>35</clipindex>
														<groupindex>1</groupindex>
													</link>
													<link>
														<linkclipref>Raw Scene Matthew Duepner Walkabout253</linkclipref>
														<mediatype>audio</mediatype>
														<trackindex>2</trackindex>
														<clipindex>35</clipindex>
														<groupindex>1</groupindex>
													</link>
													<itemhistory>
														<uuid>1EB14FFB-2E6F-4AFF-8AA7-D1377DA35B54</uuid>
													</itemhistory>
												</clipitem>
												<clipitem id="Raw Scene Matthew Duepner Walkabout256">
													<name>Raw Scene Matthew Duepner Walkabout</name>
													<duration>38484</duration>
													<rate>
														<ntsc>TRUE</ntsc>
														<timebase>24</timebase>
													</rate>
													<in>11540</in>
													<out>11595</out>
													<start>4717</start>
													<end>4772</end>
													<masterclipid>Raw Scene Matthew Duepner Walkabout234</masterclipid>
													<logginginfo>
														<scene/>
														<shottake/>
														<lognote/>
														<good>FALSE</good>
													</logginginfo>
													<labels>
														<label2/>
													</labels>
													<comments>
														<mastercomment1/>
														<mastercomment2/>
														<mastercomment3/>
														<mastercomment4/>
													</comments>
													<file id="YIN_2013-05-28_LG-4 "/>
													<filter>
														<effect>
															<name>Audio Levels</name>
															<effectid>audiolevels</effectid>
															<effectcategory>audiolevels</effectcategory>
															<effecttype>audiolevels</effecttype>
															<mediatype>audio</mediatype>
															<parameter>
																<name>Level</name>
																<parameterid>level</parameterid>
																<valuemin>0</valuemin>
																<valuemax>3.98109</valuemax>
																<value>1</value>
															</parameter>
														</effect>
													</filter>
													<filter>
														<effect>
															<name>Audio Pan</name>
															<effectid>audiopan</effectid>
															<effectcategory>audiopan</effectcategory>
															<effecttype>audiopan</effecttype>
															<mediatype>audio</mediatype>
															<parameter>
																<name>Pan</name>
																<parameterid>pan</parameterid>
																<valuemin>-1</valuemin>
																<valuemax>1</valuemax>
																<value>-0</value>
															</parameter>
														</effect>
													</filter>
													<sourcetrack>
														<mediatype>audio</mediatype>
														<trackindex>2</trackindex>
													</sourcetrack>
													<link>
														<linkclipref>Raw Scene Matthew Duepner Walkabout254</linkclipref>
														<mediatype>video</mediatype>
														<trackindex>1</trackindex>
														<clipindex>36</clipindex>
													</link>
													<link>
														<linkclipref>Raw Scene Matthew Duepner Walkabout255</linkclipref>
														<mediatype>audio</mediatype>
														<trackindex>1</trackindex>
														<clipindex>36</clipindex>
														<groupindex>1</groupindex>
													</link>
													<link>
														<linkclipref>Raw Scene Matthew Duepner Walkabout256</linkclipref>
														<mediatype>audio</mediatype>
														<trackindex>2</trackindex>
														<clipindex>36</clipindex>
														<groupindex>1</groupindex>
													</link>
													<itemhistory>
														<uuid>C113E55B-AB8E-4C0E-842E-EBF598B68280</uuid>
													</itemhistory>
												</clipitem>
												<clipitem id="Raw Scene Matthew Duepner Walkabout259">
													<name>Raw Scene Matthew Duepner Walkabout</name>
													<duration>38484</duration>
													<rate>
														<ntsc>TRUE</ntsc>
														<timebase>24</timebase>
													</rate>
													<in>13339</in>
													<out>13489</out>
													<start>4772</start>
													<end>4922</end>
													<masterclipid>Raw Scene Matthew Duepner Walkabout234</masterclipid>
													<logginginfo>
														<scene/>
														<shottake/>
														<lognote/>
														<good>FALSE</good>
													</logginginfo>
													<labels>
														<label2/>
													</labels>
													<comments>
														<mastercomment1/>
														<mastercomment2/>
														<mastercomment3/>
														<mastercomment4/>
													</comments>
													<file id="YIN_2013-05-28_LG-4 "/>
													<filter>
														<effect>
															<name>Audio Levels</name>
															<effectid>audiolevels</effectid>
															<effectcategory>audiolevels</effectcategory>
															<effecttype>audiolevels</effecttype>
															<mediatype>audio</mediatype>
															<parameter>
																<name>Level</name>
																<parameterid>level</parameterid>
																<valuemin>0</valuemin>
																<valuemax>3.98109</valuemax>
																<value>1</value>
															</parameter>
														</effect>
													</filter>
													<filter>
														<effect>
															<name>Audio Pan</name>
															<effectid>audiopan</effectid>
															<effectcategory>audiopan</effectcategory>
															<effecttype>audiopan</effecttype>
															<mediatype>audio</mediatype>
															<parameter>
																<name>Pan</name>
																<parameterid>pan</parameterid>
																<valuemin>-1</valuemin>
																<valuemax>1</valuemax>
																<value>-0</value>
															</parameter>
														</effect>
													</filter>
													<sourcetrack>
														<mediatype>audio</mediatype>
														<trackindex>2</trackindex>
													</sourcetrack>
													<link>
														<linkclipref>Raw Scene Matthew Duepner Walkabout257</linkclipref>
														<mediatype>video</mediatype>
														<trackindex>1</trackindex>
														<clipindex>37</clipindex>
													</link>
													<link>
														<linkclipref>Raw Scene Matthew Duepner Walkabout258</linkclipref>
														<mediatype>audio</mediatype>
														<trackindex>1</trackindex>
														<clipindex>37</clipindex>
														<groupindex>1</groupindex>
													</link>
													<link>
														<linkclipref>Raw Scene Matthew Duepner Walkabout259</linkclipref>
														<mediatype>audio</mediatype>
														<trackindex>2</trackindex>
														<clipindex>37</clipindex>
														<groupindex>1</groupindex>
													</link>
													<itemhistory>
														<uuid>DCEAD80D-3E60-4C12-93D6-90A753755913</uuid>
													</itemhistory>
												</clipitem>
												<clipitem id="Raw Scene Matthew Duepner Walkabout262">
													<name>Raw Scene Matthew Duepner Walkabout</name>
													<duration>38484</duration>
													<rate>
														<ntsc>TRUE</ntsc>
														<timebase>24</timebase>
													</rate>
													<in>13825</in>
													<out>13967</out>
													<start>4922</start>
													<end>5064</end>
													<masterclipid>Raw Scene Matthew Duepner Walkabout234</masterclipid>
													<logginginfo>
														<scene/>
														<shottake/>
														<lognote/>
														<good>FALSE</good>
													</logginginfo>
													<labels>
														<label2/>
													</labels>
													<comments>
														<mastercomment1/>
														<mastercomment2/>
														<mastercomment3/>
														<mastercomment4/>
													</comments>
													<file id="YIN_2013-05-28_LG-4 "/>
													<filter>
														<effect>
															<name>Audio Levels</name>
															<effectid>audiolevels</effectid>
															<effectcategory>audiolevels</effectcategory>
															<effecttype>audiolevels</effecttype>
															<mediatype>audio</mediatype>
															<parameter>
																<name>Level</name>
																<parameterid>level</parameterid>
																<valuemin>0</valuemin>
																<valuemax>3.98109</valuemax>
																<value>1</value>
															</parameter>
														</effect>
													</filter>
													<filter>
														<effect>
															<name>Audio Pan</name>
															<effectid>audiopan</effectid>
															<effectcategory>audiopan</effectcategory>
															<effecttype>audiopan</effecttype>
															<mediatype>audio</mediatype>
															<parameter>
																<name>Pan</name>
																<parameterid>pan</parameterid>
																<valuemin>-1</valuemin>
																<valuemax>1</valuemax>
																<value>-0</value>
															</parameter>
														</effect>
													</filter>
													<sourcetrack>
														<mediatype>audio</mediatype>
														<trackindex>2</trackindex>
													</sourcetrack>
													<link>
														<linkclipref>Raw Scene Matthew Duepner Walkabout260</linkclipref>
														<mediatype>video</mediatype>
														<trackindex>1</trackindex>
														<clipindex>38</clipindex>
													</link>
													<link>
														<linkclipref>Raw Scene Matthew Duepner Walkabout261</linkclipref>
														<mediatype>audio</mediatype>
														<trackindex>1</trackindex>
														<clipindex>38</clipindex>
														<groupindex>1</groupindex>
													</link>
													<link>
														<linkclipref>Raw Scene Matthew Duepner Walkabout262</linkclipref>
														<mediatype>audio</mediatype>
														<trackindex>2</trackindex>
														<clipindex>38</clipindex>
														<groupindex>1</groupindex>
													</link>
													<itemhistory>
														<uuid>E646EC9C-EC50-4505-B67C-37DDE5E7C398</uuid>
													</itemhistory>
												</clipitem>
												<clipitem id="Raw Scene Matthew Duepner Walkabout265">
													<name>Raw Scene Matthew Duepner Walkabout</name>
													<duration>38484</duration>
													<rate>
														<ntsc>TRUE</ntsc>
														<timebase>24</timebase>
													</rate>
													<in>14191</in>
													<out>14629</out>
													<start>5064</start>
													<end>5502</end>
													<masterclipid>Raw Scene Matthew Duepner Walkabout234</masterclipid>
													<logginginfo>
														<scene/>
														<shottake/>
														<lognote/>
														<good>FALSE</good>
													</logginginfo>
													<labels>
														<label2/>
													</labels>
													<comments>
														<mastercomment1/>
														<mastercomment2/>
														<mastercomment3/>
														<mastercomment4/>
													</comments>
													<file id="YIN_2013-05-28_LG-4 "/>
													<filter>
														<effect>
															<name>Audio Levels</name>
															<effectid>audiolevels</effectid>
															<effectcategory>audiolevels</effectcategory>
															<effecttype>audiolevels</effecttype>
															<mediatype>audio</mediatype>
															<parameter>
																<name>Level</name>
																<parameterid>level</parameterid>
																<valuemin>0</valuemin>
																<valuemax>3.98109</valuemax>
																<value>1</value>
															</parameter>
														</effect>
													</filter>
													<filter>
														<effect>
															<name>Audio Pan</name>
															<effectid>audiopan</effectid>
															<effectcategory>audiopan</effectcategory>
															<effecttype>audiopan</effecttype>
															<mediatype>audio</mediatype>
															<parameter>
																<name>Pan</name>
																<parameterid>pan</parameterid>
																<valuemin>-1</valuemin>
																<valuemax>1</valuemax>
																<value>-0</value>
															</parameter>
														</effect>
													</filter>
													<sourcetrack>
														<mediatype>audio</mediatype>
														<trackindex>2</trackindex>
													</sourcetrack>
													<link>
														<linkclipref>Raw Scene Matthew Duepner Walkabout263</linkclipref>
														<mediatype>video</mediatype>
														<trackindex>1</trackindex>
														<clipindex>39</clipindex>
													</link>
													<link>
														<linkclipref>Raw Scene Matthew Duepner Walkabout264</linkclipref>
														<mediatype>audio</mediatype>
														<trackindex>1</trackindex>
														<clipindex>39</clipindex>
														<groupindex>1</groupindex>
													</link>
													<link>
														<linkclipref>Raw Scene Matthew Duepner Walkabout265</linkclipref>
														<mediatype>audio</mediatype>
														<trackindex>2</trackindex>
														<clipindex>39</clipindex>
														<groupindex>1</groupindex>
													</link>
													<itemhistory>
														<uuid>B8CE4975-9267-4388-8CD0-6F2C70A0C43E</uuid>
													</itemhistory>
												</clipitem>
												<clipitem id="Raw Scene Matthew Duepner Walkabout268">
													<name>Raw Scene Matthew Duepner Walkabout</name>
													<duration>38484</duration>
													<rate>
														<ntsc>TRUE</ntsc>
														<timebase>24</timebase>
													</rate>
													<in>14910</in>
													<out>15123</out>
													<start>5502</start>
													<end>5715</end>
													<masterclipid>Raw Scene Matthew Duepner Walkabout234</masterclipid>
													<logginginfo>
														<scene/>
														<shottake/>
														<lognote/>
														<good>FALSE</good>
													</logginginfo>
													<labels>
														<label2/>
													</labels>
													<comments>
														<mastercomment1/>
														<mastercomment2/>
														<mastercomment3/>
														<mastercomment4/>
													</comments>
													<file id="YIN_2013-05-28_LG-4 "/>
													<filter>
														<effect>
															<name>Audio Levels</name>
															<effectid>audiolevels</effectid>
															<effectcategory>audiolevels</effectcategory>
															<effecttype>audiolevels</effecttype>
															<mediatype>audio</mediatype>
															<parameter>
																<name>Level</name>
																<parameterid>level</parameterid>
																<valuemin>0</valuemin>
																<valuemax>3.98109</valuemax>
																<value>1</value>
															</parameter>
														</effect>
													</filter>
													<filter>
														<effect>
															<name>Audio Pan</name>
															<effectid>audiopan</effectid>
															<effectcategory>audiopan</effectcategory>
															<effecttype>audiopan</effecttype>
															<mediatype>audio</mediatype>
															<parameter>
																<name>Pan</name>
																<parameterid>pan</parameterid>
																<valuemin>-1</valuemin>
																<valuemax>1</valuemax>
																<value>-0</value>
															</parameter>
														</effect>
													</filter>
													<sourcetrack>
														<mediatype>audio</mediatype>
														<trackindex>2</trackindex>
													</sourcetrack>
													<link>
														<linkclipref>Raw Scene Matthew Duepner Walkabout266</linkclipref>
														<mediatype>video</mediatype>
														<trackindex>1</trackindex>
														<clipindex>40</clipindex>
													</link>
													<link>
														<linkclipref>Raw Scene Matthew Duepner Walkabout267</linkclipref>
														<mediatype>audio</mediatype>
														<trackindex>1</trackindex>
														<clipindex>40</clipindex>
														<groupindex>1</groupindex>
													</link>
													<link>
														<linkclipref>Raw Scene Matthew Duepner Walkabout268</linkclipref>
														<mediatype>audio</mediatype>
														<trackindex>2</trackindex>
														<clipindex>40</clipindex>
														<groupindex>1</groupindex>
													</link>
													<itemhistory>
														<uuid>EB8984E1-5150-4BC2-A8B9-94771DFE1A5D</uuid>
													</itemhistory>
												</clipitem>
												<clipitem id="Raw Scene Matthew Duepner Walkabout271">
													<name>Raw Scene Matthew Duepner Walkabout</name>
													<duration>38484</duration>
													<rate>
														<ntsc>TRUE</ntsc>
														<timebase>24</timebase>
													</rate>
													<in>17326</in>
													<out>17746</out>
													<start>5715</start>
													<end>6135</end>
													<masterclipid>Raw Scene Matthew Duepner Walkabout234</masterclipid>
													<logginginfo>
														<scene/>
														<shottake/>
														<lognote/>
														<good>FALSE</good>
													</logginginfo>
													<labels>
														<label2/>
													</labels>
													<comments>
														<mastercomment1/>
														<mastercomment2/>
														<mastercomment3/>
														<mastercomment4/>
													</comments>
													<file id="YIN_2013-05-28_LG-4 "/>
													<filter>
														<effect>
															<name>Audio Levels</name>
															<effectid>audiolevels</effectid>
															<effectcategory>audiolevels</effectcategory>
															<effecttype>audiolevels</effecttype>
															<mediatype>audio</mediatype>
															<parameter>
																<name>Level</name>
																<parameterid>level</parameterid>
																<valuemin>0</valuemin>
																<valuemax>3.98109</valuemax>
																<value>1</value>
															</parameter>
														</effect>
													</filter>
													<filter>
														<effect>
															<name>Audio Pan</name>
															<effectid>audiopan</effectid>
															<effectcategory>audiopan</effectcategory>
															<effecttype>audiopan</effecttype>
															<mediatype>audio</mediatype>
															<parameter>
																<name>Pan</name>
																<parameterid>pan</parameterid>
																<valuemin>-1</valuemin>
																<valuemax>1</valuemax>
																<value>-0</value>
															</parameter>
														</effect>
													</filter>
													<sourcetrack>
														<mediatype>audio</mediatype>
														<trackindex>2</trackindex>
													</sourcetrack>
													<link>
														<linkclipref>Raw Scene Matthew Duepner Walkabout269</linkclipref>
														<mediatype>video</mediatype>
														<trackindex>1</trackindex>
														<clipindex>41</clipindex>
													</link>
													<link>
														<linkclipref>Raw Scene Matthew Duepner Walkabout270</linkclipref>
														<mediatype>audio</mediatype>
														<trackindex>1</trackindex>
														<clipindex>41</clipindex>
														<groupindex>1</groupindex>
													</link>
													<link>
														<linkclipref>Raw Scene Matthew Duepner Walkabout271</linkclipref>
														<mediatype>audio</mediatype>
														<trackindex>2</trackindex>
														<clipindex>41</clipindex>
														<groupindex>1</groupindex>
													</link>
													<itemhistory>
														<uuid>D6D7EB87-7B52-4BF6-BEB9-416A0714DCFF</uuid>
													</itemhistory>
												</clipitem>
												<clipitem id="Raw Scene Matthew Duepner Walkabout274">
													<name>Raw Scene Matthew Duepner Walkabout</name>
													<duration>38484</duration>
													<rate>
														<ntsc>TRUE</ntsc>
														<timebase>24</timebase>
													</rate>
													<in>18256</in>
													<out>18413</out>
													<start>6135</start>
													<end>6292</end>
													<masterclipid>Raw Scene Matthew Duepner Walkabout234</masterclipid>
													<logginginfo>
														<scene/>
														<shottake/>
														<lognote/>
														<good>FALSE</good>
													</logginginfo>
													<labels>
														<label2/>
													</labels>
													<comments>
														<mastercomment1/>
														<mastercomment2/>
														<mastercomment3/>
														<mastercomment4/>
													</comments>
													<file id="YIN_2013-05-28_LG-4 "/>
													<filter>
														<effect>
															<name>Audio Levels</name>
															<effectid>audiolevels</effectid>
															<effectcategory>audiolevels</effectcategory>
															<effecttype>audiolevels</effecttype>
															<mediatype>audio</mediatype>
															<parameter>
																<name>Level</name>
																<parameterid>level</parameterid>
																<valuemin>0</valuemin>
																<valuemax>3.98109</valuemax>
																<value>1</value>
															</parameter>
														</effect>
													</filter>
													<filter>
														<effect>
															<name>Audio Pan</name>
															<effectid>audiopan</effectid>
															<effectcategory>audiopan</effectcategory>
															<effecttype>audiopan</effecttype>
															<mediatype>audio</mediatype>
															<parameter>
																<name>Pan</name>
																<parameterid>pan</parameterid>
																<valuemin>-1</valuemin>
																<valuemax>1</valuemax>
																<value>-0</value>
															</parameter>
														</effect>
													</filter>
													<sourcetrack>
														<mediatype>audio</mediatype>
														<trackindex>2</trackindex>
													</sourcetrack>
													<link>
														<linkclipref>Raw Scene Matthew Duepner Walkabout272</linkclipref>
														<mediatype>video</mediatype>
														<trackindex>1</trackindex>
														<clipindex>42</clipindex>
													</link>
													<link>
														<linkclipref>Raw Scene Matthew Duepner Walkabout273</linkclipref>
														<mediatype>audio</mediatype>
														<trackindex>1</trackindex>
														<clipindex>42</clipindex>
														<groupindex>1</groupindex>
													</link>
													<link>
														<linkclipref>Raw Scene Matthew Duepner Walkabout274</linkclipref>
														<mediatype>audio</mediatype>
														<trackindex>2</trackindex>
														<clipindex>42</clipindex>
														<groupindex>1</groupindex>
													</link>
													<itemhistory>
														<uuid>256CC7C8-7378-421B-A29C-CB2562A2D7D1</uuid>
													</itemhistory>
												</clipitem>
												<clipitem id="Raw Scene Matthew Duepner Walkabout277">
													<name>Raw Scene Matthew Duepner Walkabout</name>
													<duration>38484</duration>
													<rate>
														<ntsc>TRUE</ntsc>
														<timebase>24</timebase>
													</rate>
													<in>19758</in>
													<out>19953</out>
													<start>6292</start>
													<end>6487</end>
													<masterclipid>Raw Scene Matthew Duepner Walkabout234</masterclipid>
													<logginginfo>
														<scene/>
														<shottake/>
														<lognote/>
														<good>FALSE</good>
													</logginginfo>
													<labels>
														<label2/>
													</labels>
													<comments>
														<mastercomment1/>
														<mastercomment2/>
														<mastercomment3/>
														<mastercomment4/>
													</comments>
													<file id="YIN_2013-05-28_LG-4 "/>
													<filter>
														<effect>
															<name>Audio Levels</name>
															<effectid>audiolevels</effectid>
															<effectcategory>audiolevels</effectcategory>
															<effecttype>audiolevels</effecttype>
															<mediatype>audio</mediatype>
															<parameter>
																<name>Level</name>
																<parameterid>level</parameterid>
																<valuemin>0</valuemin>
																<valuemax>3.98109</valuemax>
																<value>1</value>
															</parameter>
														</effect>
													</filter>
													<filter>
														<effect>
															<name>Audio Pan</name>
															<effectid>audiopan</effectid>
															<effectcategory>audiopan</effectcategory>
															<effecttype>audiopan</effecttype>
															<mediatype>audio</mediatype>
															<parameter>
																<name>Pan</name>
																<parameterid>pan</parameterid>
																<valuemin>-1</valuemin>
																<valuemax>1</valuemax>
																<value>-0</value>
															</parameter>
														</effect>
													</filter>
													<sourcetrack>
														<mediatype>audio</mediatype>
														<trackindex>2</trackindex>
													</sourcetrack>
													<link>
														<linkclipref>Raw Scene Matthew Duepner Walkabout275</linkclipref>
														<mediatype>video</mediatype>
														<trackindex>1</trackindex>
														<clipindex>43</clipindex>
													</link>
													<link>
														<linkclipref>Raw Scene Matthew Duepner Walkabout276</linkclipref>
														<mediatype>audio</mediatype>
														<trackindex>1</trackindex>
														<clipindex>43</clipindex>
														<groupindex>1</groupindex>
													</link>
													<link>
														<linkclipref>Raw Scene Matthew Duepner Walkabout277</linkclipref>
														<mediatype>audio</mediatype>
														<trackindex>2</trackindex>
														<clipindex>43</clipindex>
														<groupindex>1</groupindex>
													</link>
													<itemhistory>
														<uuid>7BD48319-EF19-4750-AC5D-A679BC278E2D</uuid>
													</itemhistory>
												</clipitem>
												<clipitem id="Raw Scene Matthew Duepner Walkabout280">
													<name>Raw Scene Matthew Duepner Walkabout</name>
													<duration>38484</duration>
													<rate>
														<ntsc>TRUE</ntsc>
														<timebase>24</timebase>
													</rate>
													<in>21572</in>
													<out>21660</out>
													<start>6487</start>
													<end>6575</end>
													<masterclipid>Raw Scene Matthew Duepner Walkabout234</masterclipid>
													<logginginfo>
														<scene/>
														<shottake/>
														<lognote/>
														<good>FALSE</good>
													</logginginfo>
													<labels>
														<label2/>
													</labels>
													<comments>
														<mastercomment1/>
														<mastercomment2/>
														<mastercomment3/>
														<mastercomment4/>
													</comments>
													<file id="YIN_2013-05-28_LG-4 "/>
													<filter>
														<effect>
															<name>Audio Levels</name>
															<effectid>audiolevels</effectid>
															<effectcategory>audiolevels</effectcategory>
															<effecttype>audiolevels</effecttype>
															<mediatype>audio</mediatype>
															<parameter>
																<name>Level</name>
																<parameterid>level</parameterid>
																<valuemin>0</valuemin>
																<valuemax>3.98109</valuemax>
																<value>1</value>
															</parameter>
														</effect>
													</filter>
													<filter>
														<effect>
															<name>Audio Pan</name>
															<effectid>audiopan</effectid>
															<effectcategory>audiopan</effectcategory>
															<effecttype>audiopan</effecttype>
															<mediatype>audio</mediatype>
															<parameter>
																<name>Pan</name>
																<parameterid>pan</parameterid>
																<valuemin>-1</valuemin>
																<valuemax>1</valuemax>
																<value>-0</value>
															</parameter>
														</effect>
													</filter>
													<sourcetrack>
														<mediatype>audio</mediatype>
														<trackindex>2</trackindex>
													</sourcetrack>
													<link>
														<linkclipref>Raw Scene Matthew Duepner Walkabout278</linkclipref>
														<mediatype>video</mediatype>
														<trackindex>1</trackindex>
														<clipindex>44</clipindex>
													</link>
													<link>
														<linkclipref>Raw Scene Matthew Duepner Walkabout279</linkclipref>
														<mediatype>audio</mediatype>
														<trackindex>1</trackindex>
														<clipindex>44</clipindex>
														<groupindex>1</groupindex>
													</link>
													<link>
														<linkclipref>Raw Scene Matthew Duepner Walkabout280</linkclipref>
														<mediatype>audio</mediatype>
														<trackindex>2</trackindex>
														<clipindex>44</clipindex>
														<groupindex>1</groupindex>
													</link>
													<itemhistory>
														<uuid>BBEB0321-132E-406D-970D-1BD927BDF036</uuid>
													</itemhistory>
												</clipitem>
												<clipitem id="Raw Scene Matthew Duepner Walkabout283">
													<name>Raw Scene Matthew Duepner Walkabout</name>
													<duration>38484</duration>
													<rate>
														<ntsc>TRUE</ntsc>
														<timebase>24</timebase>
													</rate>
													<in>22012</in>
													<out>22143</out>
													<start>6575</start>
													<end>6706</end>
													<masterclipid>Raw Scene Matthew Duepner Walkabout234</masterclipid>
													<logginginfo>
														<scene/>
														<shottake/>
														<lognote/>
														<good>FALSE</good>
													</logginginfo>
													<labels>
														<label2/>
													</labels>
													<comments>
														<mastercomment1/>
														<mastercomment2/>
														<mastercomment3/>
														<mastercomment4/>
													</comments>
													<file id="YIN_2013-05-28_LG-4 "/>
													<filter>
														<effect>
															<name>Audio Levels</name>
															<effectid>audiolevels</effectid>
															<effectcategory>audiolevels</effectcategory>
															<effecttype>audiolevels</effecttype>
															<mediatype>audio</mediatype>
															<parameter>
																<name>Level</name>
																<parameterid>level</parameterid>
																<valuemin>0</valuemin>
																<valuemax>3.98109</valuemax>
																<value>1</value>
															</parameter>
														</effect>
													</filter>
													<filter>
														<effect>
															<name>Audio Pan</name>
															<effectid>audiopan</effectid>
															<effectcategory>audiopan</effectcategory>
															<effecttype>audiopan</effecttype>
															<mediatype>audio</mediatype>
															<parameter>
																<name>Pan</name>
																<parameterid>pan</parameterid>
																<valuemin>-1</valuemin>
																<valuemax>1</valuemax>
																<value>-0</value>
															</parameter>
														</effect>
													</filter>
													<sourcetrack>
														<mediatype>audio</mediatype>
														<trackindex>2</trackindex>
													</sourcetrack>
													<link>
														<linkclipref>Raw Scene Matthew Duepner Walkabout281</linkclipref>
														<mediatype>video</mediatype>
														<trackindex>1</trackindex>
														<clipindex>45</clipindex>
													</link>
													<link>
														<linkclipref>Raw Scene Matthew Duepner Walkabout282</linkclipref>
														<mediatype>audio</mediatype>
														<trackindex>1</trackindex>
														<clipindex>45</clipindex>
														<groupindex>1</groupindex>
													</link>
													<link>
														<linkclipref>Raw Scene Matthew Duepner Walkabout283</linkclipref>
														<mediatype>audio</mediatype>
														<trackindex>2</trackindex>
														<clipindex>45</clipindex>
														<groupindex>1</groupindex>
													</link>
													<itemhistory>
														<uuid>1D445DF7-DAFE-4AD4-9599-449F0F224911</uuid>
													</itemhistory>
												</clipitem>
												<clipitem id="Raw Scene Matthew Duepner Walkabout286">
													<name>Raw Scene Matthew Duepner Walkabout</name>
													<duration>38484</duration>
													<rate>
														<ntsc>TRUE</ntsc>
														<timebase>24</timebase>
													</rate>
													<in>23496</in>
													<out>23611</out>
													<start>6706</start>
													<end>6821</end>
													<masterclipid>Raw Scene Matthew Duepner Walkabout234</masterclipid>
													<logginginfo>
														<scene/>
														<shottake/>
														<lognote/>
														<good>FALSE</good>
													</logginginfo>
													<labels>
														<label2/>
													</labels>
													<comments>
														<mastercomment1/>
														<mastercomment2/>
														<mastercomment3/>
														<mastercomment4/>
													</comments>
													<file id="YIN_2013-05-28_LG-4 "/>
													<filter>
														<effect>
															<name>Audio Levels</name>
															<effectid>audiolevels</effectid>
															<effectcategory>audiolevels</effectcategory>
															<effecttype>audiolevels</effecttype>
															<mediatype>audio</mediatype>
															<parameter>
																<name>Level</name>
																<parameterid>level</parameterid>
																<valuemin>0</valuemin>
																<valuemax>3.98109</valuemax>
																<value>1</value>
															</parameter>
														</effect>
													</filter>
													<filter>
														<effect>
															<name>Audio Pan</name>
															<effectid>audiopan</effectid>
															<effectcategory>audiopan</effectcategory>
															<effecttype>audiopan</effecttype>
															<mediatype>audio</mediatype>
															<parameter>
																<name>Pan</name>
																<parameterid>pan</parameterid>
																<valuemin>-1</valuemin>
																<valuemax>1</valuemax>
																<value>-0</value>
															</parameter>
														</effect>
													</filter>
													<sourcetrack>
														<mediatype>audio</mediatype>
														<trackindex>2</trackindex>
													</sourcetrack>
													<link>
														<linkclipref>Raw Scene Matthew Duepner Walkabout284</linkclipref>
														<mediatype>video</mediatype>
														<trackindex>1</trackindex>
														<clipindex>46</clipindex>
													</link>
													<link>
														<linkclipref>Raw Scene Matthew Duepner Walkabout285</linkclipref>
														<mediatype>audio</mediatype>
														<trackindex>1</trackindex>
														<clipindex>46</clipindex>
														<groupindex>1</groupindex>
													</link>
													<link>
														<linkclipref>Raw Scene Matthew Duepner Walkabout286</linkclipref>
														<mediatype>audio</mediatype>
														<trackindex>2</trackindex>
														<clipindex>46</clipindex>
														<groupindex>1</groupindex>
													</link>
													<itemhistory>
														<uuid>63B2052E-226B-4CCC-8D01-DD8341102312</uuid>
													</itemhistory>
												</clipitem>
												<clipitem id="Raw Scene Matthew Duepner Walkabout289">
													<name>Raw Scene Matthew Duepner Walkabout</name>
													<duration>38484</duration>
													<rate>
														<ntsc>TRUE</ntsc>
														<timebase>24</timebase>
													</rate>
													<in>25130</in>
													<out>25241</out>
													<start>6821</start>
													<end>6932</end>
													<masterclipid>Raw Scene Matthew Duepner Walkabout234</masterclipid>
													<logginginfo>
														<scene/>
														<shottake/>
														<lognote/>
														<good>FALSE</good>
													</logginginfo>
													<labels>
														<label2/>
													</labels>
													<comments>
														<mastercomment1/>
														<mastercomment2/>
														<mastercomment3/>
														<mastercomment4/>
													</comments>
													<file id="YIN_2013-05-28_LG-4 "/>
													<filter>
														<effect>
															<name>Audio Levels</name>
															<effectid>audiolevels</effectid>
															<effectcategory>audiolevels</effectcategory>
															<effecttype>audiolevels</effecttype>
															<mediatype>audio</mediatype>
															<parameter>
																<name>Level</name>
																<parameterid>level</parameterid>
																<valuemin>0</valuemin>
																<valuemax>3.98109</valuemax>
																<value>1</value>
															</parameter>
														</effect>
													</filter>
													<filter>
														<effect>
															<name>Audio Pan</name>
															<effectid>audiopan</effectid>
															<effectcategory>audiopan</effectcategory>
															<effecttype>audiopan</effecttype>
															<mediatype>audio</mediatype>
															<parameter>
																<name>Pan</name>
																<parameterid>pan</parameterid>
																<valuemin>-1</valuemin>
																<valuemax>1</valuemax>
																<value>-0</value>
															</parameter>
														</effect>
													</filter>
													<sourcetrack>
														<mediatype>audio</mediatype>
														<trackindex>2</trackindex>
													</sourcetrack>
													<link>
														<linkclipref>Raw Scene Matthew Duepner Walkabout287</linkclipref>
														<mediatype>video</mediatype>
														<trackindex>1</trackindex>
														<clipindex>47</clipindex>
													</link>
													<link>
														<linkclipref>Raw Scene Matthew Duepner Walkabout288</linkclipref>
														<mediatype>audio</mediatype>
														<trackindex>1</trackindex>
														<clipindex>47</clipindex>
														<groupindex>1</groupindex>
													</link>
													<link>
														<linkclipref>Raw Scene Matthew Duepner Walkabout289</linkclipref>
														<mediatype>audio</mediatype>
														<trackindex>2</trackindex>
														<clipindex>47</clipindex>
														<groupindex>1</groupindex>
													</link>
													<itemhistory>
														<uuid>6170EF56-3E19-4462-A30A-BC5734ED4FB0</uuid>
													</itemhistory>
												</clipitem>
												<clipitem id="Raw Scene Matthew Duepner Walkabout292">
													<name>Raw Scene Matthew Duepner Walkabout</name>
													<duration>38484</duration>
													<rate>
														<ntsc>TRUE</ntsc>
														<timebase>24</timebase>
													</rate>
													<in>24211</in>
													<out>24295</out>
													<start>6932</start>
													<end>7016</end>
													<masterclipid>Raw Scene Matthew Duepner Walkabout234</masterclipid>
													<logginginfo>
														<scene/>
														<shottake/>
														<lognote/>
														<good>FALSE</good>
													</logginginfo>
													<labels>
														<label2/>
													</labels>
													<comments>
														<mastercomment1/>
														<mastercomment2/>
														<mastercomment3/>
														<mastercomment4/>
													</comments>
													<file id="YIN_2013-05-28_LG-4 "/>
													<filter>
														<effect>
															<name>Audio Levels</name>
															<effectid>audiolevels</effectid>
															<effectcategory>audiolevels</effectcategory>
															<effecttype>audiolevels</effecttype>
															<mediatype>audio</mediatype>
															<parameter>
																<name>Level</name>
																<parameterid>level</parameterid>
																<valuemin>0</valuemin>
																<valuemax>3.98109</valuemax>
																<value>1</value>
															</parameter>
														</effect>
													</filter>
													<filter>
														<effect>
															<name>Audio Pan</name>
															<effectid>audiopan</effectid>
															<effectcategory>audiopan</effectcategory>
															<effecttype>audiopan</effecttype>
															<mediatype>audio</mediatype>
															<parameter>
																<name>Pan</name>
																<parameterid>pan</parameterid>
																<valuemin>-1</valuemin>
																<valuemax>1</valuemax>
																<value>-0</value>
															</parameter>
														</effect>
													</filter>
													<sourcetrack>
														<mediatype>audio</mediatype>
														<trackindex>2</trackindex>
													</sourcetrack>
													<link>
														<linkclipref>Raw Scene Matthew Duepner Walkabout290</linkclipref>
														<mediatype>video</mediatype>
														<trackindex>1</trackindex>
														<clipindex>48</clipindex>
													</link>
													<link>
														<linkclipref>Raw Scene Matthew Duepner Walkabout291</linkclipref>
														<mediatype>audio</mediatype>
														<trackindex>1</trackindex>
														<clipindex>48</clipindex>
														<groupindex>1</groupindex>
													</link>
													<link>
														<linkclipref>Raw Scene Matthew Duepner Walkabout292</linkclipref>
														<mediatype>audio</mediatype>
														<trackindex>2</trackindex>
														<clipindex>48</clipindex>
														<groupindex>1</groupindex>
													</link>
													<itemhistory>
														<uuid>169386A8-7EFD-4E61-88AF-74CC370B886D</uuid>
													</itemhistory>
												</clipitem>
												<clipitem id="Raw Scene Matthew Duepner Walkabout295">
													<name>Raw Scene Matthew Duepner Walkabout</name>
													<duration>38484</duration>
													<rate>
														<ntsc>TRUE</ntsc>
														<timebase>24</timebase>
													</rate>
													<in>23727</in>
													<out>23813</out>
													<start>7016</start>
													<end>7102</end>
													<masterclipid>Raw Scene Matthew Duepner Walkabout234</masterclipid>
													<logginginfo>
														<scene/>
														<shottake/>
														<lognote/>
														<good>FALSE</good>
													</logginginfo>
													<labels>
														<label2/>
													</labels>
													<comments>
														<mastercomment1/>
														<mastercomment2/>
														<mastercomment3/>
														<mastercomment4/>
													</comments>
													<file id="YIN_2013-05-28_LG-4 "/>
													<filter>
														<effect>
															<name>Audio Levels</name>
															<effectid>audiolevels</effectid>
															<effectcategory>audiolevels</effectcategory>
															<effecttype>audiolevels</effecttype>
															<mediatype>audio</mediatype>
															<parameter>
																<name>Level</name>
																<parameterid>level</parameterid>
																<valuemin>0</valuemin>
																<valuemax>3.98109</valuemax>
																<value>1</value>
															</parameter>
														</effect>
													</filter>
													<filter>
														<effect>
															<name>Audio Pan</name>
															<effectid>audiopan</effectid>
															<effectcategory>audiopan</effectcategory>
															<effecttype>audiopan</effecttype>
															<mediatype>audio</mediatype>
															<parameter>
																<name>Pan</name>
																<parameterid>pan</parameterid>
																<valuemin>-1</valuemin>
																<valuemax>1</valuemax>
																<value>-0</value>
															</parameter>
														</effect>
													</filter>
													<sourcetrack>
														<mediatype>audio</mediatype>
														<trackindex>2</trackindex>
													</sourcetrack>
													<link>
														<linkclipref>Raw Scene Matthew Duepner Walkabout293</linkclipref>
														<mediatype>video</mediatype>
														<trackindex>1</trackindex>
														<clipindex>49</clipindex>
													</link>
													<link>
														<linkclipref>Raw Scene Matthew Duepner Walkabout294</linkclipref>
														<mediatype>audio</mediatype>
														<trackindex>1</trackindex>
														<clipindex>49</clipindex>
														<groupindex>1</groupindex>
													</link>
													<link>
														<linkclipref>Raw Scene Matthew Duepner Walkabout295</linkclipref>
														<mediatype>audio</mediatype>
														<trackindex>2</trackindex>
														<clipindex>49</clipindex>
														<groupindex>1</groupindex>
													</link>
													<itemhistory>
														<uuid>1848E287-1D15-4DD2-B8BB-A66F77A4A17B</uuid>
													</itemhistory>
												</clipitem>
												<clipitem id="Raw Scene Matthew Duepner Walkabout298">
													<name>Raw Scene Matthew Duepner Walkabout</name>
													<duration>38484</duration>
													<rate>
														<ntsc>TRUE</ntsc>
														<timebase>24</timebase>
													</rate>
													<in>24423</in>
													<out>24509</out>
													<start>7102</start>
													<end>7188</end>
													<masterclipid>Raw Scene Matthew Duepner Walkabout234</masterclipid>
													<logginginfo>
														<scene/>
														<shottake/>
														<lognote/>
														<good>FALSE</good>
													</logginginfo>
													<labels>
														<label2/>
													</labels>
													<comments>
														<mastercomment1/>
														<mastercomment2/>
														<mastercomment3/>
														<mastercomment4/>
													</comments>
													<file id="YIN_2013-05-28_LG-4 "/>
													<filter>
														<effect>
															<name>Audio Levels</name>
															<effectid>audiolevels</effectid>
															<effectcategory>audiolevels</effectcategory>
															<effecttype>audiolevels</effecttype>
															<mediatype>audio</mediatype>
															<parameter>
																<name>Level</name>
																<parameterid>level</parameterid>
																<valuemin>0</valuemin>
																<valuemax>3.98109</valuemax>
																<value>1</value>
															</parameter>
														</effect>
													</filter>
													<filter>
														<effect>
															<name>Audio Pan</name>
															<effectid>audiopan</effectid>
															<effectcategory>audiopan</effectcategory>
															<effecttype>audiopan</effecttype>
															<mediatype>audio</mediatype>
															<parameter>
																<name>Pan</name>
																<parameterid>pan</parameterid>
																<valuemin>-1</valuemin>
																<valuemax>1</valuemax>
																<value>-0</value>
															</parameter>
														</effect>
													</filter>
													<sourcetrack>
														<mediatype>audio</mediatype>
														<trackindex>2</trackindex>
													</sourcetrack>
													<link>
														<linkclipref>Raw Scene Matthew Duepner Walkabout296</linkclipref>
														<mediatype>video</mediatype>
														<trackindex>1</trackindex>
														<clipindex>50</clipindex>
													</link>
													<link>
														<linkclipref>Raw Scene Matthew Duepner Walkabout297</linkclipref>
														<mediatype>audio</mediatype>
														<trackindex>1</trackindex>
														<clipindex>50</clipindex>
														<groupindex>1</groupindex>
													</link>
													<link>
														<linkclipref>Raw Scene Matthew Duepner Walkabout298</linkclipref>
														<mediatype>audio</mediatype>
														<trackindex>2</trackindex>
														<clipindex>50</clipindex>
														<groupindex>1</groupindex>
													</link>
													<itemhistory>
														<uuid>CBB41232-2BC2-4DCB-9A8E-09234858DEA1</uuid>
													</itemhistory>
												</clipitem>
												<clipitem id="Raw Scene Matthew Duepner Walkabout301">
													<name>Raw Scene Matthew Duepner Walkabout</name>
													<duration>38484</duration>
													<rate>
														<ntsc>TRUE</ntsc>
														<timebase>24</timebase>
													</rate>
													<in>26628</in>
													<out>26940</out>
													<start>7188</start>
													<end>7500</end>
													<masterclipid>Raw Scene Matthew Duepner Walkabout234</masterclipid>
													<logginginfo>
														<scene/>
														<shottake/>
														<lognote/>
														<good>FALSE</good>
													</logginginfo>
													<labels>
														<label2/>
													</labels>
													<comments>
														<mastercomment1/>
														<mastercomment2/>
														<mastercomment3/>
														<mastercomment4/>
													</comments>
													<file id="YIN_2013-05-28_LG-4 "/>
													<filter>
														<effect>
															<name>Audio Levels</name>
															<effectid>audiolevels</effectid>
															<effectcategory>audiolevels</effectcategory>
															<effecttype>audiolevels</effecttype>
															<mediatype>audio</mediatype>
															<parameter>
																<name>Level</name>
																<parameterid>level</parameterid>
																<valuemin>0</valuemin>
																<valuemax>3.98109</valuemax>
																<value>1</value>
															</parameter>
														</effect>
													</filter>
													<filter>
														<effect>
															<name>Audio Pan</name>
															<effectid>audiopan</effectid>
															<effectcategory>audiopan</effectcategory>
															<effecttype>audiopan</effecttype>
															<mediatype>audio</mediatype>
															<parameter>
																<name>Pan</name>
																<parameterid>pan</parameterid>
																<valuemin>-1</valuemin>
																<valuemax>1</valuemax>
																<value>-0</value>
															</parameter>
														</effect>
													</filter>
													<sourcetrack>
														<mediatype>audio</mediatype>
														<trackindex>2</trackindex>
													</sourcetrack>
													<link>
														<linkclipref>Raw Scene Matthew Duepner Walkabout299</linkclipref>
														<mediatype>video</mediatype>
														<trackindex>1</trackindex>
														<clipindex>51</clipindex>
													</link>
													<link>
														<linkclipref>Raw Scene Matthew Duepner Walkabout300</linkclipref>
														<mediatype>audio</mediatype>
														<trackindex>1</trackindex>
														<clipindex>51</clipindex>
														<groupindex>1</groupindex>
													</link>
													<link>
														<linkclipref>Raw Scene Matthew Duepner Walkabout301</linkclipref>
														<mediatype>audio</mediatype>
														<trackindex>2</trackindex>
														<clipindex>51</clipindex>
														<groupindex>1</groupindex>
													</link>
													<itemhistory>
														<uuid>3DD13350-F76B-4D4E-836D-5B5E1C13BBBB</uuid>
													</itemhistory>
												</clipitem>
												<clipitem id="Raw Scene Matthew Duepner Walkabout304">
													<name>Raw Scene Matthew Duepner Walkabout</name>
													<duration>38484</duration>
													<rate>
														<ntsc>TRUE</ntsc>
														<timebase>24</timebase>
													</rate>
													<in>26962</in>
													<out>27016</out>
													<start>7500</start>
													<end>7554</end>
													<masterclipid>Raw Scene Matthew Duepner Walkabout234</masterclipid>
													<logginginfo>
														<scene/>
														<shottake/>
														<lognote/>
														<good>FALSE</good>
													</logginginfo>
													<labels>
														<label2/>
													</labels>
													<comments>
														<mastercomment1/>
														<mastercomment2/>
														<mastercomment3/>
														<mastercomment4/>
													</comments>
													<file id="YIN_2013-05-28_LG-4 "/>
													<filter>
														<effect>
															<name>Audio Levels</name>
															<effectid>audiolevels</effectid>
															<effectcategory>audiolevels</effectcategory>
															<effecttype>audiolevels</effecttype>
															<mediatype>audio</mediatype>
															<parameter>
																<name>Level</name>
																<parameterid>level</parameterid>
																<valuemin>0</valuemin>
																<valuemax>3.98109</valuemax>
																<value>1</value>
															</parameter>
														</effect>
													</filter>
													<filter>
														<effect>
															<name>Audio Pan</name>
															<effectid>audiopan</effectid>
															<effectcategory>audiopan</effectcategory>
															<effecttype>audiopan</effecttype>
															<mediatype>audio</mediatype>
															<parameter>
																<name>Pan</name>
																<parameterid>pan</parameterid>
																<valuemin>-1</valuemin>
																<valuemax>1</valuemax>
																<value>-0</value>
															</parameter>
														</effect>
													</filter>
													<sourcetrack>
														<mediatype>audio</mediatype>
														<trackindex>2</trackindex>
													</sourcetrack>
													<link>
														<linkclipref>Raw Scene Matthew Duepner Walkabout302</linkclipref>
														<mediatype>video</mediatype>
														<trackindex>1</trackindex>
														<clipindex>52</clipindex>
													</link>
													<link>
														<linkclipref>Raw Scene Matthew Duepner Walkabout303</linkclipref>
														<mediatype>audio</mediatype>
														<trackindex>1</trackindex>
														<clipindex>52</clipindex>
														<groupindex>1</groupindex>
													</link>
													<link>
														<linkclipref>Raw Scene Matthew Duepner Walkabout304</linkclipref>
														<mediatype>audio</mediatype>
														<trackindex>2</trackindex>
														<clipindex>52</clipindex>
														<groupindex>1</groupindex>
													</link>
													<itemhistory>
														<uuid>0186ADD8-C252-4DD9-AD19-FBFFE8C5AA11</uuid>
													</itemhistory>
												</clipitem>
												<clipitem id="Raw Scene Matthew Duepner Walkabout307">
													<name>Raw Scene Matthew Duepner Walkabout</name>
													<duration>38484</duration>
													<rate>
														<ntsc>TRUE</ntsc>
														<timebase>24</timebase>
													</rate>
													<in>27816</in>
													<out>28338</out>
													<start>7554</start>
													<end>8076</end>
													<masterclipid>Raw Scene Matthew Duepner Walkabout234</masterclipid>
													<logginginfo>
														<scene/>
														<shottake/>
														<lognote/>
														<good>FALSE</good>
													</logginginfo>
													<labels>
														<label2/>
													</labels>
													<comments>
														<mastercomment1/>
														<mastercomment2/>
														<mastercomment3/>
														<mastercomment4/>
													</comments>
													<file id="YIN_2013-05-28_LG-4 "/>
													<filter>
														<effect>
															<name>Audio Levels</name>
															<effectid>audiolevels</effectid>
															<effectcategory>audiolevels</effectcategory>
															<effecttype>audiolevels</effecttype>
															<mediatype>audio</mediatype>
															<parameter>
																<name>Level</name>
																<parameterid>level</parameterid>
																<valuemin>0</valuemin>
																<valuemax>3.98109</valuemax>
																<value>1</value>
															</parameter>
														</effect>
													</filter>
													<filter>
														<effect>
															<name>Audio Pan</name>
															<effectid>audiopan</effectid>
															<effectcategory>audiopan</effectcategory>
															<effecttype>audiopan</effecttype>
															<mediatype>audio</mediatype>
															<parameter>
																<name>Pan</name>
																<parameterid>pan</parameterid>
																<valuemin>-1</valuemin>
																<valuemax>1</valuemax>
																<value>-0</value>
															</parameter>
														</effect>
													</filter>
													<sourcetrack>
														<mediatype>audio</mediatype>
														<trackindex>2</trackindex>
													</sourcetrack>
													<link>
														<linkclipref>Raw Scene Matthew Duepner Walkabout305</linkclipref>
														<mediatype>video</mediatype>
														<trackindex>1</trackindex>
														<clipindex>53</clipindex>
													</link>
													<link>
														<linkclipref>Raw Scene Matthew Duepner Walkabout306</linkclipref>
														<mediatype>audio</mediatype>
														<trackindex>1</trackindex>
														<clipindex>53</clipindex>
														<groupindex>1</groupindex>
													</link>
													<link>
														<linkclipref>Raw Scene Matthew Duepner Walkabout307</linkclipref>
														<mediatype>audio</mediatype>
														<trackindex>2</trackindex>
														<clipindex>53</clipindex>
														<groupindex>1</groupindex>
													</link>
													<itemhistory>
														<uuid>EB7F7239-E86A-4E3E-8910-E05C650D28F7</uuid>
													</itemhistory>
												</clipitem>
												<clipitem id="Raw Scene Matthew Duepner Walkabout310">
													<name>Raw Scene Matthew Duepner Walkabout</name>
													<duration>38484</duration>
													<rate>
														<ntsc>TRUE</ntsc>
														<timebase>24</timebase>
													</rate>
													<in>28558</in>
													<out>28719</out>
													<start>8076</start>
													<end>8237</end>
													<masterclipid>Raw Scene Matthew Duepner Walkabout234</masterclipid>
													<logginginfo>
														<scene/>
														<shottake/>
														<lognote/>
														<good>FALSE</good>
													</logginginfo>
													<labels>
														<label2/>
													</labels>
													<comments>
														<mastercomment1/>
														<mastercomment2/>
														<mastercomment3/>
														<mastercomment4/>
													</comments>
													<file id="YIN_2013-05-28_LG-4 "/>
													<filter>
														<effect>
															<name>Audio Levels</name>
															<effectid>audiolevels</effectid>
															<effectcategory>audiolevels</effectcategory>
															<effecttype>audiolevels</effecttype>
															<mediatype>audio</mediatype>
															<parameter>
																<name>Level</name>
																<parameterid>level</parameterid>
																<valuemin>0</valuemin>
																<valuemax>3.98109</valuemax>
																<value>1</value>
															</parameter>
														</effect>
													</filter>
													<filter>
														<effect>
															<name>Audio Pan</name>
															<effectid>audiopan</effectid>
															<effectcategory>audiopan</effectcategory>
															<effecttype>audiopan</effecttype>
															<mediatype>audio</mediatype>
															<parameter>
																<name>Pan</name>
																<parameterid>pan</parameterid>
																<valuemin>-1</valuemin>
																<valuemax>1</valuemax>
																<value>-0</value>
															</parameter>
														</effect>
													</filter>
													<sourcetrack>
														<mediatype>audio</mediatype>
														<trackindex>2</trackindex>
													</sourcetrack>
													<link>
														<linkclipref>Raw Scene Matthew Duepner Walkabout308</linkclipref>
														<mediatype>video</mediatype>
														<trackindex>1</trackindex>
														<clipindex>54</clipindex>
													</link>
													<link>
														<linkclipref>Raw Scene Matthew Duepner Walkabout309</linkclipref>
														<mediatype>audio</mediatype>
														<trackindex>1</trackindex>
														<clipindex>54</clipindex>
														<groupindex>1</groupindex>
													</link>
													<link>
														<linkclipref>Raw Scene Matthew Duepner Walkabout310</linkclipref>
														<mediatype>audio</mediatype>
														<trackindex>2</trackindex>
														<clipindex>54</clipindex>
														<groupindex>1</groupindex>
													</link>
													<itemhistory>
														<uuid>545DCC1F-1EC7-4516-B908-458D44FEAB7F</uuid>
													</itemhistory>
												</clipitem>
												<clipitem id="Raw Scene Matthew Duepner Walkabout313">
													<name>Raw Scene Matthew Duepner Walkabout</name>
													<duration>38484</duration>
													<rate>
														<ntsc>TRUE</ntsc>
														<timebase>24</timebase>
													</rate>
													<in>30624</in>
													<out>30700</out>
													<start>8237</start>
													<end>8313</end>
													<masterclipid>Raw Scene Matthew Duepner Walkabout234</masterclipid>
													<logginginfo>
														<scene/>
														<shottake/>
														<lognote/>
														<good>FALSE</good>
													</logginginfo>
													<labels>
														<label2/>
													</labels>
													<comments>
														<mastercomment1/>
														<mastercomment2/>
														<mastercomment3/>
														<mastercomment4/>
													</comments>
													<file id="YIN_2013-05-28_LG-4 "/>
													<filter>
														<effect>
															<name>Audio Levels</name>
															<effectid>audiolevels</effectid>
															<effectcategory>audiolevels</effectcategory>
															<effecttype>audiolevels</effecttype>
															<mediatype>audio</mediatype>
															<parameter>
																<name>Level</name>
																<parameterid>level</parameterid>
																<valuemin>0</valuemin>
																<valuemax>3.98109</valuemax>
																<value>1</value>
															</parameter>
														</effect>
													</filter>
													<filter>
														<effect>
															<name>Audio Pan</name>
															<effectid>audiopan</effectid>
															<effectcategory>audiopan</effectcategory>
															<effecttype>audiopan</effecttype>
															<mediatype>audio</mediatype>
															<parameter>
																<name>Pan</name>
																<parameterid>pan</parameterid>
																<valuemin>-1</valuemin>
																<valuemax>1</valuemax>
																<value>-0</value>
															</parameter>
														</effect>
													</filter>
													<sourcetrack>
														<mediatype>audio</mediatype>
														<trackindex>2</trackindex>
													</sourcetrack>
													<link>
														<linkclipref>Raw Scene Matthew Duepner Walkabout311</linkclipref>
														<mediatype>video</mediatype>
														<trackindex>1</trackindex>
														<clipindex>55</clipindex>
													</link>
													<link>
														<linkclipref>Raw Scene Matthew Duepner Walkabout312</linkclipref>
														<mediatype>audio</mediatype>
														<trackindex>1</trackindex>
														<clipindex>55</clipindex>
														<groupindex>1</groupindex>
													</link>
													<link>
														<linkclipref>Raw Scene Matthew Duepner Walkabout313</linkclipref>
														<mediatype>audio</mediatype>
														<trackindex>2</trackindex>
														<clipindex>55</clipindex>
														<groupindex>1</groupindex>
													</link>
													<itemhistory>
														<uuid>8B86996E-2261-4A94-AA50-37A2D0601C7A</uuid>
													</itemhistory>
												</clipitem>
												<clipitem id="Raw Scene Matthew Duepner Walkabout316">
													<name>Raw Scene Matthew Duepner Walkabout</name>
													<duration>38484</duration>
													<rate>
														<ntsc>TRUE</ntsc>
														<timebase>24</timebase>
													</rate>
													<in>30946</in>
													<out>30968</out>
													<start>8313</start>
													<end>8335</end>
													<masterclipid>Raw Scene Matthew Duepner Walkabout234</masterclipid>
													<logginginfo>
														<scene/>
														<shottake/>
														<lognote/>
														<good>FALSE</good>
													</logginginfo>
													<labels>
														<label2/>
													</labels>
													<comments>
														<mastercomment1/>
														<mastercomment2/>
														<mastercomment3/>
														<mastercomment4/>
													</comments>
													<file id="YIN_2013-05-28_LG-4 "/>
													<filter>
														<effect>
															<name>Audio Levels</name>
															<effectid>audiolevels</effectid>
															<effectcategory>audiolevels</effectcategory>
															<effecttype>audiolevels</effecttype>
															<mediatype>audio</mediatype>
															<parameter>
																<name>Level</name>
																<parameterid>level</parameterid>
																<valuemin>0</valuemin>
																<valuemax>3.98109</valuemax>
																<value>1</value>
															</parameter>
														</effect>
													</filter>
													<filter>
														<effect>
															<name>Audio Pan</name>
															<effectid>audiopan</effectid>
															<effectcategory>audiopan</effectcategory>
															<effecttype>audiopan</effecttype>
															<mediatype>audio</mediatype>
															<parameter>
																<name>Pan</name>
																<parameterid>pan</parameterid>
																<valuemin>-1</valuemin>
																<valuemax>1</valuemax>
																<value>-0</value>
															</parameter>
														</effect>
													</filter>
													<sourcetrack>
														<mediatype>audio</mediatype>
														<trackindex>2</trackindex>
													</sourcetrack>
													<link>
														<linkclipref>Raw Scene Matthew Duepner Walkabout314</linkclipref>
														<mediatype>video</mediatype>
														<trackindex>1</trackindex>
														<clipindex>56</clipindex>
													</link>
													<link>
														<linkclipref>Raw Scene Matthew Duepner Walkabout315</linkclipref>
														<mediatype>audio</mediatype>
														<trackindex>1</trackindex>
														<clipindex>56</clipindex>
														<groupindex>1</groupindex>
													</link>
													<link>
														<linkclipref>Raw Scene Matthew Duepner Walkabout316</linkclipref>
														<mediatype>audio</mediatype>
														<trackindex>2</trackindex>
														<clipindex>56</clipindex>
														<groupindex>1</groupindex>
													</link>
													<itemhistory>
														<uuid>4525C3BB-81BC-46C8-AE54-841E6FA40530</uuid>
													</itemhistory>
												</clipitem>
												<clipitem id="Raw Scene Matthew Duepner Walkabout319">
													<name>Raw Scene Matthew Duepner Walkabout</name>
													<duration>38484</duration>
													<rate>
														<ntsc>TRUE</ntsc>
														<timebase>24</timebase>
													</rate>
													<in>31032</in>
													<out>31190</out>
													<start>8335</start>
													<end>8493</end>
													<masterclipid>Raw Scene Matthew Duepner Walkabout234</masterclipid>
													<logginginfo>
														<scene/>
														<shottake/>
														<lognote/>
														<good>FALSE</good>
													</logginginfo>
													<labels>
														<label2/>
													</labels>
													<comments>
														<mastercomment1/>
														<mastercomment2/>
														<mastercomment3/>
														<mastercomment4/>
													</comments>
													<file id="YIN_2013-05-28_LG-4 "/>
													<filter>
														<effect>
															<name>Audio Levels</name>
															<effectid>audiolevels</effectid>
															<effectcategory>audiolevels</effectcategory>
															<effecttype>audiolevels</effecttype>
															<mediatype>audio</mediatype>
															<parameter>
																<name>Level</name>
																<parameterid>level</parameterid>
																<valuemin>0</valuemin>
																<valuemax>3.98109</valuemax>
																<value>1</value>
															</parameter>
														</effect>
													</filter>
													<filter>
														<effect>
															<name>Audio Pan</name>
															<effectid>audiopan</effectid>
															<effectcategory>audiopan</effectcategory>
															<effecttype>audiopan</effecttype>
															<mediatype>audio</mediatype>
															<parameter>
																<name>Pan</name>
																<parameterid>pan</parameterid>
																<valuemin>-1</valuemin>
																<valuemax>1</valuemax>
																<value>-0</value>
															</parameter>
														</effect>
													</filter>
													<sourcetrack>
														<mediatype>audio</mediatype>
														<trackindex>2</trackindex>
													</sourcetrack>
													<link>
														<linkclipref>Raw Scene Matthew Duepner Walkabout317</linkclipref>
														<mediatype>video</mediatype>
														<trackindex>1</trackindex>
														<clipindex>57</clipindex>
													</link>
													<link>
														<linkclipref>Raw Scene Matthew Duepner Walkabout318</linkclipref>
														<mediatype>audio</mediatype>
														<trackindex>1</trackindex>
														<clipindex>57</clipindex>
														<groupindex>1</groupindex>
													</link>
													<link>
														<linkclipref>Raw Scene Matthew Duepner Walkabout319</linkclipref>
														<mediatype>audio</mediatype>
														<trackindex>2</trackindex>
														<clipindex>57</clipindex>
														<groupindex>1</groupindex>
													</link>
													<itemhistory>
														<uuid>03F0DE6E-57E2-4035-A1B6-9FE238F2978C</uuid>
													</itemhistory>
												</clipitem>
												<clipitem id="Raw Scene Matthew Duepner Walkabout322">
													<name>Raw Scene Matthew Duepner Walkabout</name>
													<duration>38484</duration>
													<rate>
														<ntsc>TRUE</ntsc>
														<timebase>24</timebase>
													</rate>
													<in>31795</in>
													<out>31917</out>
													<start>8493</start>
													<end>8615</end>
													<masterclipid>Raw Scene Matthew Duepner Walkabout234</masterclipid>
													<logginginfo>
														<scene/>
														<shottake/>
														<lognote/>
														<good>FALSE</good>
													</logginginfo>
													<labels>
														<label2/>
													</labels>
													<comments>
														<mastercomment1/>
														<mastercomment2/>
														<mastercomment3/>
														<mastercomment4/>
													</comments>
													<file id="YIN_2013-05-28_LG-4 "/>
													<filter>
														<effect>
															<name>Audio Levels</name>
															<effectid>audiolevels</effectid>
															<effectcategory>audiolevels</effectcategory>
															<effecttype>audiolevels</effecttype>
															<mediatype>audio</mediatype>
															<parameter>
																<name>Level</name>
																<parameterid>level</parameterid>
																<valuemin>0</valuemin>
																<valuemax>3.98109</valuemax>
																<value>1</value>
															</parameter>
														</effect>
													</filter>
													<filter>
														<effect>
															<name>Audio Pan</name>
															<effectid>audiopan</effectid>
															<effectcategory>audiopan</effectcategory>
															<effecttype>audiopan</effecttype>
															<mediatype>audio</mediatype>
															<parameter>
																<name>Pan</name>
																<parameterid>pan</parameterid>
																<valuemin>-1</valuemin>
																<valuemax>1</valuemax>
																<value>-0</value>
															</parameter>
														</effect>
													</filter>
													<sourcetrack>
														<mediatype>audio</mediatype>
														<trackindex>2</trackindex>
													</sourcetrack>
													<link>
														<linkclipref>Raw Scene Matthew Duepner Walkabout320</linkclipref>
														<mediatype>video</mediatype>
														<trackindex>1</trackindex>
														<clipindex>58</clipindex>
													</link>
													<link>
														<linkclipref>Raw Scene Matthew Duepner Walkabout321</linkclipref>
														<mediatype>audio</mediatype>
														<trackindex>1</trackindex>
														<clipindex>58</clipindex>
														<groupindex>1</groupindex>
													</link>
													<link>
														<linkclipref>Raw Scene Matthew Duepner Walkabout322</linkclipref>
														<mediatype>audio</mediatype>
														<trackindex>2</trackindex>
														<clipindex>58</clipindex>
														<groupindex>1</groupindex>
													</link>
													<itemhistory>
														<uuid>299AB177-48FC-4C65-A29A-EF544B731111</uuid>
													</itemhistory>
												</clipitem>
												<clipitem id="Raw Scene Matthew Duepner Walkabout325">
													<name>Raw Scene Matthew Duepner Walkabout</name>
													<duration>38484</duration>
													<rate>
														<ntsc>TRUE</ntsc>
														<timebase>24</timebase>
													</rate>
													<in>32375</in>
													<out>32507</out>
													<start>8615</start>
													<end>8747</end>
													<masterclipid>Raw Scene Matthew Duepner Walkabout234</masterclipid>
													<logginginfo>
														<scene/>
														<shottake/>
														<lognote/>
														<good>FALSE</good>
													</logginginfo>
													<labels>
														<label2/>
													</labels>
													<comments>
														<mastercomment1/>
														<mastercomment2/>
														<mastercomment3/>
														<mastercomment4/>
													</comments>
													<file id="YIN_2013-05-28_LG-4 "/>
													<filter>
														<effect>
															<name>Audio Levels</name>
															<effectid>audiolevels</effectid>
															<effectcategory>audiolevels</effectcategory>
															<effecttype>audiolevels</effecttype>
															<mediatype>audio</mediatype>
															<parameter>
																<name>Level</name>
																<parameterid>level</parameterid>
																<valuemin>0</valuemin>
																<valuemax>3.98109</valuemax>
																<value>1</value>
															</parameter>
														</effect>
													</filter>
													<filter>
														<effect>
															<name>Audio Pan</name>
															<effectid>audiopan</effectid>
															<effectcategory>audiopan</effectcategory>
															<effecttype>audiopan</effecttype>
															<mediatype>audio</mediatype>
															<parameter>
																<name>Pan</name>
																<parameterid>pan</parameterid>
																<valuemin>-1</valuemin>
																<valuemax>1</valuemax>
																<value>-0</value>
															</parameter>
														</effect>
													</filter>
													<sourcetrack>
														<mediatype>audio</mediatype>
														<trackindex>2</trackindex>
													</sourcetrack>
													<link>
														<linkclipref>Raw Scene Matthew Duepner Walkabout323</linkclipref>
														<mediatype>video</mediatype>
														<trackindex>1</trackindex>
														<clipindex>59</clipindex>
													</link>
													<link>
														<linkclipref>Raw Scene Matthew Duepner Walkabout324</linkclipref>
														<mediatype>audio</mediatype>
														<trackindex>1</trackindex>
														<clipindex>59</clipindex>
														<groupindex>1</groupindex>
													</link>
													<link>
														<linkclipref>Raw Scene Matthew Duepner Walkabout325</linkclipref>
														<mediatype>audio</mediatype>
														<trackindex>2</trackindex>
														<clipindex>59</clipindex>
														<groupindex>1</groupindex>
													</link>
													<itemhistory>
														<uuid>9AFA9942-F042-4832-A8D8-EB4C3593C4AC</uuid>
													</itemhistory>
												</clipitem>
												<clipitem id="Raw Scene Matthew Duepner Walkabout328">
													<name>Raw Scene Matthew Duepner Walkabout</name>
													<duration>38484</duration>
													<rate>
														<ntsc>TRUE</ntsc>
														<timebase>24</timebase>
													</rate>
													<in>32997</in>
													<out>33142</out>
													<start>8747</start>
													<end>8892</end>
													<masterclipid>Raw Scene Matthew Duepner Walkabout234</masterclipid>
													<logginginfo>
														<scene/>
														<shottake/>
														<lognote/>
														<good>FALSE</good>
													</logginginfo>
													<labels>
														<label2/>
													</labels>
													<comments>
														<mastercomment1/>
														<mastercomment2/>
														<mastercomment3/>
														<mastercomment4/>
													</comments>
													<file id="YIN_2013-05-28_LG-4 "/>
													<filter>
														<effect>
															<name>Audio Levels</name>
															<effectid>audiolevels</effectid>
															<effectcategory>audiolevels</effectcategory>
															<effecttype>audiolevels</effecttype>
															<mediatype>audio</mediatype>
															<parameter>
																<name>Level</name>
																<parameterid>level</parameterid>
																<valuemin>0</valuemin>
																<valuemax>3.98109</valuemax>
																<value>1</value>
															</parameter>
														</effect>
													</filter>
													<filter>
														<effect>
															<name>Audio Pan</name>
															<effectid>audiopan</effectid>
															<effectcategory>audiopan</effectcategory>
															<effecttype>audiopan</effecttype>
															<mediatype>audio</mediatype>
															<parameter>
																<name>Pan</name>
																<parameterid>pan</parameterid>
																<valuemin>-1</valuemin>
																<valuemax>1</valuemax>
																<value>-0</value>
															</parameter>
														</effect>
													</filter>
													<sourcetrack>
														<mediatype>audio</mediatype>
														<trackindex>2</trackindex>
													</sourcetrack>
													<link>
														<linkclipref>Raw Scene Matthew Duepner Walkabout326</linkclipref>
														<mediatype>video</mediatype>
														<trackindex>1</trackindex>
														<clipindex>60</clipindex>
													</link>
													<link>
														<linkclipref>Raw Scene Matthew Duepner Walkabout327</linkclipref>
														<mediatype>audio</mediatype>
														<trackindex>1</trackindex>
														<clipindex>60</clipindex>
														<groupindex>1</groupindex>
													</link>
													<link>
														<linkclipref>Raw Scene Matthew Duepner Walkabout328</linkclipref>
														<mediatype>audio</mediatype>
														<trackindex>2</trackindex>
														<clipindex>60</clipindex>
														<groupindex>1</groupindex>
													</link>
													<itemhistory>
														<uuid>7469D5B7-8FD8-4B99-9F67-8637BBDC9829</uuid>
													</itemhistory>
												</clipitem>
												<clipitem id="Raw Scene Matthew Duepner Walkabout331">
													<name>Raw Scene Matthew Duepner Walkabout</name>
													<duration>38484</duration>
													<rate>
														<ntsc>TRUE</ntsc>
														<timebase>24</timebase>
													</rate>
													<in>33365</in>
													<out>33603</out>
													<start>8892</start>
													<end>9130</end>
													<masterclipid>Raw Scene Matthew Duepner Walkabout234</masterclipid>
													<logginginfo>
														<scene/>
														<shottake/>
														<lognote/>
														<good>FALSE</good>
													</logginginfo>
													<labels>
														<label2/>
													</labels>
													<comments>
														<mastercomment1/>
														<mastercomment2/>
														<mastercomment3/>
														<mastercomment4/>
													</comments>
													<file id="YIN_2013-05-28_LG-4 "/>
													<filter>
														<effect>
															<name>Audio Levels</name>
															<effectid>audiolevels</effectid>
															<effectcategory>audiolevels</effectcategory>
															<effecttype>audiolevels</effecttype>
															<mediatype>audio</mediatype>
															<parameter>
																<name>Level</name>
																<parameterid>level</parameterid>
																<valuemin>0</valuemin>
																<valuemax>3.98109</valuemax>
																<value>1</value>
															</parameter>
														</effect>
													</filter>
													<filter>
														<effect>
															<name>Audio Pan</name>
															<effectid>audiopan</effectid>
															<effectcategory>audiopan</effectcategory>
															<effecttype>audiopan</effecttype>
															<mediatype>audio</mediatype>
															<parameter>
																<name>Pan</name>
																<parameterid>pan</parameterid>
																<valuemin>-1</valuemin>
																<valuemax>1</valuemax>
																<value>-0</value>
															</parameter>
														</effect>
													</filter>
													<sourcetrack>
														<mediatype>audio</mediatype>
														<trackindex>2</trackindex>
													</sourcetrack>
													<link>
														<linkclipref>Raw Scene Matthew Duepner Walkabout329</linkclipref>
														<mediatype>video</mediatype>
														<trackindex>1</trackindex>
														<clipindex>61</clipindex>
													</link>
													<link>
														<linkclipref>Raw Scene Matthew Duepner Walkabout330</linkclipref>
														<mediatype>audio</mediatype>
														<trackindex>1</trackindex>
														<clipindex>61</clipindex>
														<groupindex>1</groupindex>
													</link>
													<link>
														<linkclipref>Raw Scene Matthew Duepner Walkabout331</linkclipref>
														<mediatype>audio</mediatype>
														<trackindex>2</trackindex>
														<clipindex>61</clipindex>
														<groupindex>1</groupindex>
													</link>
													<itemhistory>
														<uuid>0DCED695-5BFD-4F1D-AD80-92448A884878</uuid>
													</itemhistory>
												</clipitem>
												<clipitem id="Raw Scene Matthew Duepner Walkabout334">
													<name>Raw Scene Matthew Duepner Walkabout</name>
													<duration>38484</duration>
													<rate>
														<ntsc>TRUE</ntsc>
														<timebase>24</timebase>
													</rate>
													<in>34172</in>
													<out>34249</out>
													<start>9130</start>
													<end>9207</end>
													<masterclipid>Raw Scene Matthew Duepner Walkabout234</masterclipid>
													<logginginfo>
														<scene/>
														<shottake/>
														<lognote/>
														<good>FALSE</good>
													</logginginfo>
													<labels>
														<label2/>
													</labels>
													<comments>
														<mastercomment1/>
														<mastercomment2/>
														<mastercomment3/>
														<mastercomment4/>
													</comments>
													<file id="YIN_2013-05-28_LG-4 "/>
													<filter>
														<effect>
															<name>Audio Levels</name>
															<effectid>audiolevels</effectid>
															<effectcategory>audiolevels</effectcategory>
															<effecttype>audiolevels</effecttype>
															<mediatype>audio</mediatype>
															<parameter>
																<name>Level</name>
																<parameterid>level</parameterid>
																<valuemin>0</valuemin>
																<valuemax>3.98109</valuemax>
																<value>1</value>
															</parameter>
														</effect>
													</filter>
													<filter>
														<effect>
															<name>Audio Pan</name>
															<effectid>audiopan</effectid>
															<effectcategory>audiopan</effectcategory>
															<effecttype>audiopan</effecttype>
															<mediatype>audio</mediatype>
															<parameter>
																<name>Pan</name>
																<parameterid>pan</parameterid>
																<valuemin>-1</valuemin>
																<valuemax>1</valuemax>
																<value>-0</value>
															</parameter>
														</effect>
													</filter>
													<sourcetrack>
														<mediatype>audio</mediatype>
														<trackindex>2</trackindex>
													</sourcetrack>
													<link>
														<linkclipref>Raw Scene Matthew Duepner Walkabout332</linkclipref>
														<mediatype>video</mediatype>
														<trackindex>1</trackindex>
														<clipindex>62</clipindex>
													</link>
													<link>
														<linkclipref>Raw Scene Matthew Duepner Walkabout333</linkclipref>
														<mediatype>audio</mediatype>
														<trackindex>1</trackindex>
														<clipindex>62</clipindex>
														<groupindex>1</groupindex>
													</link>
													<link>
														<linkclipref>Raw Scene Matthew Duepner Walkabout334</linkclipref>
														<mediatype>audio</mediatype>
														<trackindex>2</trackindex>
														<clipindex>62</clipindex>
														<groupindex>1</groupindex>
													</link>
													<itemhistory>
														<uuid>EE7270F1-F25B-46DD-8C70-4C9CC6468045</uuid>
													</itemhistory>
												</clipitem>
												<clipitem id="Raw Scene Matthew Duepner Walkabout337">
													<name>Raw Scene Matthew Duepner Walkabout</name>
													<duration>38484</duration>
													<rate>
														<ntsc>TRUE</ntsc>
														<timebase>24</timebase>
													</rate>
													<in>34380</in>
													<out>34644</out>
													<start>9207</start>
													<end>9471</end>
													<masterclipid>Raw Scene Matthew Duepner Walkabout234</masterclipid>
													<logginginfo>
														<scene/>
														<shottake/>
														<lognote/>
														<good>FALSE</good>
													</logginginfo>
													<labels>
														<label2/>
													</labels>
													<comments>
														<mastercomment1/>
														<mastercomment2/>
														<mastercomment3/>
														<mastercomment4/>
													</comments>
													<file id="YIN_2013-05-28_LG-4 "/>
													<filter>
														<effect>
															<name>Audio Levels</name>
															<effectid>audiolevels</effectid>
															<effectcategory>audiolevels</effectcategory>
															<effecttype>audiolevels</effecttype>
															<mediatype>audio</mediatype>
															<parameter>
																<name>Level</name>
																<parameterid>level</parameterid>
																<valuemin>0</valuemin>
																<valuemax>3.98109</valuemax>
																<value>1</value>
															</parameter>
														</effect>
													</filter>
													<filter>
														<effect>
															<name>Audio Pan</name>
															<effectid>audiopan</effectid>
															<effectcategory>audiopan</effectcategory>
															<effecttype>audiopan</effecttype>
															<mediatype>audio</mediatype>
															<parameter>
																<name>Pan</name>
																<parameterid>pan</parameterid>
																<valuemin>-1</valuemin>
																<valuemax>1</valuemax>
																<value>-0</value>
															</parameter>
														</effect>
													</filter>
													<sourcetrack>
														<mediatype>audio</mediatype>
														<trackindex>2</trackindex>
													</sourcetrack>
													<link>
														<linkclipref>Raw Scene Matthew Duepner Walkabout335</linkclipref>
														<mediatype>video</mediatype>
														<trackindex>1</trackindex>
														<clipindex>63</clipindex>
													</link>
													<link>
														<linkclipref>Raw Scene Matthew Duepner Walkabout336</linkclipref>
														<mediatype>audio</mediatype>
														<trackindex>1</trackindex>
														<clipindex>63</clipindex>
														<groupindex>1</groupindex>
													</link>
													<link>
														<linkclipref>Raw Scene Matthew Duepner Walkabout337</linkclipref>
														<mediatype>audio</mediatype>
														<trackindex>2</trackindex>
														<clipindex>63</clipindex>
														<groupindex>1</groupindex>
													</link>
													<itemhistory>
														<uuid>57EFD3DA-DB38-4637-96F5-591D4C351737</uuid>
													</itemhistory>
												</clipitem>
												<clipitem id="Raw Scene Matthew Duepner Walkabout340">
													<name>Raw Scene Matthew Duepner Walkabout</name>
													<duration>38484</duration>
													<rate>
														<ntsc>TRUE</ntsc>
														<timebase>24</timebase>
													</rate>
													<in>36124</in>
													<out>36168</out>
													<start>9471</start>
													<end>9515</end>
													<masterclipid>Raw Scene Matthew Duepner Walkabout234</masterclipid>
													<logginginfo>
														<scene/>
														<shottake/>
														<lognote/>
														<good>FALSE</good>
													</logginginfo>
													<labels>
														<label2/>
													</labels>
													<comments>
														<mastercomment1/>
														<mastercomment2/>
														<mastercomment3/>
														<mastercomment4/>
													</comments>
													<file id="YIN_2013-05-28_LG-4 "/>
													<filter>
														<effect>
															<name>Audio Levels</name>
															<effectid>audiolevels</effectid>
															<effectcategory>audiolevels</effectcategory>
															<effecttype>audiolevels</effecttype>
															<mediatype>audio</mediatype>
															<parameter>
																<name>Level</name>
																<parameterid>level</parameterid>
																<valuemin>0</valuemin>
																<valuemax>3.98109</valuemax>
																<value>1</value>
															</parameter>
														</effect>
													</filter>
													<filter>
														<effect>
															<name>Audio Pan</name>
															<effectid>audiopan</effectid>
															<effectcategory>audiopan</effectcategory>
															<effecttype>audiopan</effecttype>
															<mediatype>audio</mediatype>
															<parameter>
																<name>Pan</name>
																<parameterid>pan</parameterid>
																<valuemin>-1</valuemin>
																<valuemax>1</valuemax>
																<value>-0</value>
															</parameter>
														</effect>
													</filter>
													<sourcetrack>
														<mediatype>audio</mediatype>
														<trackindex>2</trackindex>
													</sourcetrack>
													<link>
														<linkclipref>Raw Scene Matthew Duepner Walkabout338</linkclipref>
														<mediatype>video</mediatype>
														<trackindex>1</trackindex>
														<clipindex>64</clipindex>
													</link>
													<link>
														<linkclipref>Raw Scene Matthew Duepner Walkabout339</linkclipref>
														<mediatype>audio</mediatype>
														<trackindex>1</trackindex>
														<clipindex>64</clipindex>
														<groupindex>1</groupindex>
													</link>
													<link>
														<linkclipref>Raw Scene Matthew Duepner Walkabout340</linkclipref>
														<mediatype>audio</mediatype>
														<trackindex>2</trackindex>
														<clipindex>64</clipindex>
														<groupindex>1</groupindex>
													</link>
													<itemhistory>
														<uuid>192185E5-947F-4122-B509-4CAFF0A8A1DE</uuid>
													</itemhistory>
												</clipitem>
												<clipitem id="Raw Scene Matthew Duepner Walkabout343">
													<name>Raw Scene Matthew Duepner Walkabout</name>
													<duration>38484</duration>
													<rate>
														<ntsc>TRUE</ntsc>
														<timebase>24</timebase>
													</rate>
													<in>36397</in>
													<out>36474</out>
													<start>9515</start>
													<end>9592</end>
													<masterclipid>Raw Scene Matthew Duepner Walkabout234</masterclipid>
													<logginginfo>
														<scene/>
														<shottake/>
														<lognote/>
														<good>FALSE</good>
													</logginginfo>
													<labels>
														<label2/>
													</labels>
													<comments>
														<mastercomment1/>
														<mastercomment2/>
														<mastercomment3/>
														<mastercomment4/>
													</comments>
													<file id="YIN_2013-05-28_LG-4 "/>
													<filter>
														<effect>
															<name>Audio Levels</name>
															<effectid>audiolevels</effectid>
															<effectcategory>audiolevels</effectcategory>
															<effecttype>audiolevels</effecttype>
															<mediatype>audio</mediatype>
															<parameter>
																<name>Level</name>
																<parameterid>level</parameterid>
																<valuemin>0</valuemin>
																<valuemax>3.98109</valuemax>
																<value>1</value>
															</parameter>
														</effect>
													</filter>
													<filter>
														<effect>
															<name>Audio Pan</name>
															<effectid>audiopan</effectid>
															<effectcategory>audiopan</effectcategory>
															<effecttype>audiopan</effecttype>
															<mediatype>audio</mediatype>
															<parameter>
																<name>Pan</name>
																<parameterid>pan</parameterid>
																<valuemin>-1</valuemin>
																<valuemax>1</valuemax>
																<value>-0</value>
															</parameter>
														</effect>
													</filter>
													<sourcetrack>
														<mediatype>audio</mediatype>
														<trackindex>2</trackindex>
													</sourcetrack>
													<link>
														<linkclipref>Raw Scene Matthew Duepner Walkabout341</linkclipref>
														<mediatype>video</mediatype>
														<trackindex>1</trackindex>
														<clipindex>65</clipindex>
													</link>
													<link>
														<linkclipref>Raw Scene Matthew Duepner Walkabout342</linkclipref>
														<mediatype>audio</mediatype>
														<trackindex>1</trackindex>
														<clipindex>65</clipindex>
														<groupindex>1</groupindex>
													</link>
													<link>
														<linkclipref>Raw Scene Matthew Duepner Walkabout343</linkclipref>
														<mediatype>audio</mediatype>
														<trackindex>2</trackindex>
														<clipindex>65</clipindex>
														<groupindex>1</groupindex>
													</link>
													<itemhistory>
														<uuid>E9932EB6-8F05-48FB-82E7-5980400CA838</uuid>
													</itemhistory>
												</clipitem>
												<clipitem id="Raw Scene Matthew Duepner Walkabout346">
													<name>Raw Scene Matthew Duepner Walkabout</name>
													<duration>38484</duration>
													<rate>
														<ntsc>TRUE</ntsc>
														<timebase>24</timebase>
													</rate>
													<in>37446</in>
													<out>37533</out>
													<start>9592</start>
													<end>9679</end>
													<masterclipid>Raw Scene Matthew Duepner Walkabout234</masterclipid>
													<logginginfo>
														<scene/>
														<shottake/>
														<lognote/>
														<good>FALSE</good>
													</logginginfo>
													<labels>
														<label2/>
													</labels>
													<comments>
														<mastercomment1/>
														<mastercomment2/>
														<mastercomment3/>
														<mastercomment4/>
													</comments>
													<file id="YIN_2013-05-28_LG-4 "/>
													<filter>
														<effect>
															<name>Audio Levels</name>
															<effectid>audiolevels</effectid>
															<effectcategory>audiolevels</effectcategory>
															<effecttype>audiolevels</effecttype>
															<mediatype>audio</mediatype>
															<parameter>
																<name>Level</name>
																<parameterid>level</parameterid>
																<valuemin>0</valuemin>
																<valuemax>3.98109</valuemax>
																<value>1</value>
															</parameter>
														</effect>
													</filter>
													<filter>
														<effect>
															<name>Audio Pan</name>
															<effectid>audiopan</effectid>
															<effectcategory>audiopan</effectcategory>
															<effecttype>audiopan</effecttype>
															<mediatype>audio</mediatype>
															<parameter>
																<name>Pan</name>
																<parameterid>pan</parameterid>
																<valuemin>-1</valuemin>
																<valuemax>1</valuemax>
																<value>-0</value>
															</parameter>
														</effect>
													</filter>
													<sourcetrack>
														<mediatype>audio</mediatype>
														<trackindex>2</trackindex>
													</sourcetrack>
													<link>
														<linkclipref>Raw Scene Matthew Duepner Walkabout344</linkclipref>
														<mediatype>video</mediatype>
														<trackindex>1</trackindex>
														<clipindex>66</clipindex>
													</link>
													<link>
														<linkclipref>Raw Scene Matthew Duepner Walkabout345</linkclipref>
														<mediatype>audio</mediatype>
														<trackindex>1</trackindex>
														<clipindex>66</clipindex>
														<groupindex>1</groupindex>
													</link>
													<link>
														<linkclipref>Raw Scene Matthew Duepner Walkabout346</linkclipref>
														<mediatype>audio</mediatype>
														<trackindex>2</trackindex>
														<clipindex>66</clipindex>
														<groupindex>1</groupindex>
													</link>
													<itemhistory>
														<uuid>A6F472A0-8799-4D1D-B123-58AE43F61432</uuid>
													</itemhistory>
												</clipitem>
												<clipitem id="Raw Scene Matthew Duepner Walkabout349">
													<name>Raw Scene Matthew Duepner Walkabout</name>
													<duration>38484</duration>
													<rate>
														<ntsc>TRUE</ntsc>
														<timebase>24</timebase>
													</rate>
													<in>37856</in>
													<out>37874</out>
													<start>9679</start>
													<end>9697</end>
													<masterclipid>Raw Scene Matthew Duepner Walkabout234</masterclipid>
													<logginginfo>
														<scene/>
														<shottake/>
														<lognote/>
														<good>FALSE</good>
													</logginginfo>
													<labels>
														<label2/>
													</labels>
													<comments>
														<mastercomment1/>
														<mastercomment2/>
														<mastercomment3/>
														<mastercomment4/>
													</comments>
													<file id="YIN_2013-05-28_LG-4 "/>
													<filter>
														<effect>
															<name>Audio Levels</name>
															<effectid>audiolevels</effectid>
															<effectcategory>audiolevels</effectcategory>
															<effecttype>audiolevels</effecttype>
															<mediatype>audio</mediatype>
															<parameter>
																<name>Level</name>
																<parameterid>level</parameterid>
																<valuemin>0</valuemin>
																<valuemax>3.98109</valuemax>
																<value>1</value>
															</parameter>
														</effect>
													</filter>
													<filter>
														<effect>
															<name>Audio Pan</name>
															<effectid>audiopan</effectid>
															<effectcategory>audiopan</effectcategory>
															<effecttype>audiopan</effecttype>
															<mediatype>audio</mediatype>
															<parameter>
																<name>Pan</name>
																<parameterid>pan</parameterid>
																<valuemin>-1</valuemin>
																<valuemax>1</valuemax>
																<value>-0</value>
															</parameter>
														</effect>
													</filter>
													<sourcetrack>
														<mediatype>audio</mediatype>
														<trackindex>2</trackindex>
													</sourcetrack>
													<link>
														<linkclipref>Raw Scene Matthew Duepner Walkabout347</linkclipref>
														<mediatype>video</mediatype>
														<trackindex>1</trackindex>
														<clipindex>67</clipindex>
													</link>
													<link>
														<linkclipref>Raw Scene Matthew Duepner Walkabout348</linkclipref>
														<mediatype>audio</mediatype>
														<trackindex>1</trackindex>
														<clipindex>67</clipindex>
														<groupindex>1</groupindex>
													</link>
													<link>
														<linkclipref>Raw Scene Matthew Duepner Walkabout349</linkclipref>
														<mediatype>audio</mediatype>
														<trackindex>2</trackindex>
														<clipindex>67</clipindex>
														<groupindex>1</groupindex>
													</link>
													<itemhistory>
														<uuid>B5544F1C-5107-4C3F-AFB2-4D02479EB71D</uuid>
													</itemhistory>
												</clipitem>
												<clipitem id="Raw Scene Matthew Duepner Walkabout352">
													<name>Raw Scene Matthew Duepner Walkabout</name>
													<duration>38484</duration>
													<rate>
														<ntsc>TRUE</ntsc>
														<timebase>24</timebase>
													</rate>
													<in>38389</in>
													<out>38476</out>
													<start>9697</start>
													<end>9784</end>
													<masterclipid>Raw Scene Matthew Duepner Walkabout234</masterclipid>
													<logginginfo>
														<scene/>
														<shottake/>
														<lognote/>
														<good>FALSE</good>
													</logginginfo>
													<labels>
														<label2/>
													</labels>
													<comments>
														<mastercomment1/>
														<mastercomment2/>
														<mastercomment3/>
														<mastercomment4/>
													</comments>
													<file id="YIN_2013-05-28_LG-4 "/>
													<filter>
														<effect>
															<name>Audio Levels</name>
															<effectid>audiolevels</effectid>
															<effectcategory>audiolevels</effectcategory>
															<effecttype>audiolevels</effecttype>
															<mediatype>audio</mediatype>
															<parameter>
																<name>Level</name>
																<parameterid>level</parameterid>
																<valuemin>0</valuemin>
																<valuemax>3.98109</valuemax>
																<value>1</value>
															</parameter>
														</effect>
													</filter>
													<filter>
														<effect>
															<name>Audio Pan</name>
															<effectid>audiopan</effectid>
															<effectcategory>audiopan</effectcategory>
															<effecttype>audiopan</effecttype>
															<mediatype>audio</mediatype>
															<parameter>
																<name>Pan</name>
																<parameterid>pan</parameterid>
																<valuemin>-1</valuemin>
																<valuemax>1</valuemax>
																<value>-0</value>
															</parameter>
														</effect>
													</filter>
													<sourcetrack>
														<mediatype>audio</mediatype>
														<trackindex>2</trackindex>
													</sourcetrack>
													<link>
														<linkclipref>Raw Scene Matthew Duepner Walkabout350</linkclipref>
														<mediatype>video</mediatype>
														<trackindex>1</trackindex>
														<clipindex>68</clipindex>
													</link>
													<link>
														<linkclipref>Raw Scene Matthew Duepner Walkabout351</linkclipref>
														<mediatype>audio</mediatype>
														<trackindex>1</trackindex>
														<clipindex>68</clipindex>
														<groupindex>1</groupindex>
													</link>
													<link>
														<linkclipref>Raw Scene Matthew Duepner Walkabout352</linkclipref>
														<mediatype>audio</mediatype>
														<trackindex>2</trackindex>
														<clipindex>68</clipindex>
														<groupindex>1</groupindex>
													</link>
													<itemhistory>
														<uuid>F91802B8-988D-4DB4-A11A-AF857CAF0A12</uuid>
													</itemhistory>
												</clipitem>
												<enabled>TRUE</enabled>
												<locked>FALSE</locked>
												<outputchannelindex>2</outputchannelindex>
											</track>
											<track>
												<enabled>TRUE</enabled>
												<locked>FALSE</locked>
												<outputchannelindex>1</outputchannelindex>
											</track>
											<track>
												<enabled>TRUE</enabled>
												<locked>FALSE</locked>
												<outputchannelindex>2</outputchannelindex>
											</track>
											<track>
												<enabled>TRUE</enabled>
												<locked>FALSE</locked>
												<outputchannelindex>1</outputchannelindex>
											</track>
											<track>
												<enabled>TRUE</enabled>
												<locked>FALSE</locked>
												<outputchannelindex>2</outputchannelindex>
											</track>
											<track>
												<enabled>TRUE</enabled>
												<locked>FALSE</locked>
												<outputchannelindex>1</outputchannelindex>
											</track>
											<track>
												<enabled>TRUE</enabled>
												<locked>FALSE</locked>
												<outputchannelindex>2</outputchannelindex>
											</track>
											<track>
												<enabled>TRUE</enabled>
												<locked>FALSE</locked>
												<outputchannelindex>1</outputchannelindex>
											</track>
											<track>
												<enabled>TRUE</enabled>
												<locked>FALSE</locked>
												<outputchannelindex>2</outputchannelindex>
											</track>
											<track>
												<enabled>TRUE</enabled>
												<locked>FALSE</locked>
												<outputchannelindex>1</outputchannelindex>
											</track>
											<track>
												<enabled>TRUE</enabled>
												<locked>FALSE</locked>
												<outputchannelindex>2</outputchannelindex>
											</track>
											<track>
												<enabled>TRUE</enabled>
												<locked>FALSE</locked>
												<outputchannelindex>1</outputchannelindex>
											</track>
											<track>
												<enabled>TRUE</enabled>
												<locked>FALSE</locked>
												<outputchannelindex>2</outputchannelindex>
											</track>
											<track>
												<enabled>TRUE</enabled>
												<locked>FALSE</locked>
												<outputchannelindex>1</outputchannelindex>
											</track>
											<track>
												<enabled>TRUE</enabled>
												<locked>FALSE</locked>
												<outputchannelindex>2</outputchannelindex>
											</track>
											<track>
												<enabled>TRUE</enabled>
												<locked>FALSE</locked>
												<outputchannelindex>1</outputchannelindex>
											</track>
											<track>
												<enabled>TRUE</enabled>
												<locked>FALSE</locked>
												<outputchannelindex>2</outputchannelindex>
											</track>
											<track>
												<enabled>TRUE</enabled>
												<locked>FALSE</locked>
												<outputchannelindex>1</outputchannelindex>
											</track>
											<track>
												<enabled>TRUE</enabled>
												<locked>FALSE</locked>
												<outputchannelindex>2</outputchannelindex>
											</track>
											<track>
												<enabled>TRUE</enabled>
												<locked>FALSE</locked>
												<outputchannelindex>1</outputchannelindex>
											</track>
											<track>
												<enabled>TRUE</enabled>
												<locked>FALSE</locked>
												<outputchannelindex>2</outputchannelindex>
											</track>
											<track>
												<enabled>TRUE</enabled>
												<locked>FALSE</locked>
												<outputchannelindex>1</outputchannelindex>
											</track>
											<track>
												<enabled>TRUE</enabled>
												<locked>FALSE</locked>
												<outputchannelindex>2</outputchannelindex>
											</track>
											<track>
												<enabled>TRUE</enabled>
												<locked>FALSE</locked>
												<outputchannelindex>1</outputchannelindex>
											</track>
											<track>
												<enabled>TRUE</enabled>
												<locked>FALSE</locked>
												<outputchannelindex>2</outputchannelindex>
											</track>
											<track>
												<enabled>TRUE</enabled>
												<locked>FALSE</locked>
												<outputchannelindex>1</outputchannelindex>
											</track>
											<track>
												<enabled>TRUE</enabled>
												<locked>FALSE</locked>
												<outputchannelindex>2</outputchannelindex>
											</track>
											<track>
												<enabled>TRUE</enabled>
												<locked>FALSE</locked>
												<outputchannelindex>1</outputchannelindex>
											</track>
											<track>
												<enabled>TRUE</enabled>
												<locked>FALSE</locked>
												<outputchannelindex>2</outputchannelindex>
											</track>
											<track>
												<enabled>TRUE</enabled>
												<locked>FALSE</locked>
												<outputchannelindex>1</outputchannelindex>
											</track>
											<track>
												<enabled>TRUE</enabled>
												<locked>FALSE</locked>
												<outputchannelindex>2</outputchannelindex>
											</track>
											<track>
												<enabled>TRUE</enabled>
												<locked>FALSE</locked>
												<outputchannelindex>1</outputchannelindex>
											</track>
											<track>
												<enabled>TRUE</enabled>
												<locked>FALSE</locked>
												<outputchannelindex>2</outputchannelindex>
											</track>
											<track>
												<enabled>TRUE</enabled>
												<locked>FALSE</locked>
												<outputchannelindex>1</outputchannelindex>
											</track>
											<track>
												<enabled>TRUE</enabled>
												<locked>FALSE</locked>
												<outputchannelindex>2</outputchannelindex>
											</track>
											<track>
												<enabled>TRUE</enabled>
												<locked>FALSE</locked>
												<outputchannelindex>1</outputchannelindex>
											</track>
											<track>
												<enabled>TRUE</enabled>
												<locked>FALSE</locked>
												<outputchannelindex>2</outputchannelindex>
											</track>
											<track>
												<enabled>TRUE</enabled>
												<locked>FALSE</locked>
												<outputchannelindex>1</outputchannelindex>
											</track>
											<track>
												<enabled>TRUE</enabled>
												<locked>FALSE</locked>
												<outputchannelindex>2</outputchannelindex>
											</track>
											<track>
												<enabled>TRUE</enabled>
												<locked>FALSE</locked>
												<outputchannelindex>1</outputchannelindex>
											</track>
											<track>
												<enabled>TRUE</enabled>
												<locked>FALSE</locked>
												<outputchannelindex>2</outputchannelindex>
											</track>
											<track>
												<enabled>TRUE</enabled>
												<locked>FALSE</locked>
												<outputchannelindex>1</outputchannelindex>
											</track>
											<track>
												<enabled>TRUE</enabled>
												<locked>FALSE</locked>
												<outputchannelindex>2</outputchannelindex>
											</track>
											<track>
												<enabled>TRUE</enabled>
												<locked>FALSE</locked>
												<outputchannelindex>1</outputchannelindex>
											</track>
											<track>
												<enabled>TRUE</enabled>
												<locked>FALSE</locked>
												<outputchannelindex>2</outputchannelindex>
											</track>
											<track>
												<enabled>TRUE</enabled>
												<locked>FALSE</locked>
												<outputchannelindex>1</outputchannelindex>
											</track>
											<track>
												<enabled>TRUE</enabled>
												<locked>FALSE</locked>
												<outputchannelindex>2</outputchannelindex>
											</track>
											<track>
												<enabled>TRUE</enabled>
												<locked>FALSE</locked>
												<outputchannelindex>1</outputchannelindex>
											</track>
											<track>
												<enabled>TRUE</enabled>
												<locked>FALSE</locked>
												<outputchannelindex>2</outputchannelindex>
											</track>
											<track>
												<enabled>TRUE</enabled>
												<locked>FALSE</locked>
												<outputchannelindex>1</outputchannelindex>
											</track>
											<track>
												<enabled>TRUE</enabled>
												<locked>FALSE</locked>
												<outputchannelindex>2</outputchannelindex>
											</track>
											<track>
												<enabled>TRUE</enabled>
												<locked>FALSE</locked>
												<outputchannelindex>1</outputchannelindex>
											</track>
											<track>
												<enabled>TRUE</enabled>
												<locked>FALSE</locked>
												<outputchannelindex>2</outputchannelindex>
											</track>
											<track>
												<enabled>TRUE</enabled>
												<locked>FALSE</locked>
												<outputchannelindex>1</outputchannelindex>
											</track>
											<track>
												<enabled>TRUE</enabled>
												<locked>FALSE</locked>
												<outputchannelindex>2</outputchannelindex>
											</track>
											<track>
												<enabled>TRUE</enabled>
												<locked>FALSE</locked>
												<outputchannelindex>1</outputchannelindex>
											</track>
											<track>
												<enabled>TRUE</enabled>
												<locked>FALSE</locked>
												<outputchannelindex>2</outputchannelindex>
											</track>
											<track>
												<enabled>TRUE</enabled>
												<locked>FALSE</locked>
												<outputchannelindex>1</outputchannelindex>
											</track>
											<track>
												<enabled>TRUE</enabled>
												<locked>FALSE</locked>
												<outputchannelindex>2</outputchannelindex>
											</track>
											<track>
												<enabled>TRUE</enabled>
												<locked>FALSE</locked>
												<outputchannelindex>1</outputchannelindex>
											</track>
											<track>
												<enabled>TRUE</enabled>
												<locked>FALSE</locked>
												<outputchannelindex>2</outputchannelindex>
											</track>
											<track>
												<enabled>TRUE</enabled>
												<locked>FALSE</locked>
												<outputchannelindex>1</outputchannelindex>
											</track>
											<track>
												<enabled>TRUE</enabled>
												<locked>FALSE</locked>
												<outputchannelindex>2</outputchannelindex>
											</track>
											<track>
												<enabled>TRUE</enabled>
												<locked>FALSE</locked>
												<outputchannelindex>1</outputchannelindex>
											</track>
											<track>
												<enabled>TRUE</enabled>
												<locked>FALSE</locked>
												<outputchannelindex>2</outputchannelindex>
											</track>
										</audio>
									</media>
									<ismasterclip>FALSE</ismasterclip>
								</sequence>
							</children>
						</bin>
					</children>
				</bin>
				<sequence id="Rough Cut Sequence Matthew Deupner (Edward Wittlif)">
					<uuid>C3A37B6C-3D65-4950-BF28-89B3AD084A0D</uuid>
					<updatebehavior>add</updatebehavior>
					<name>Rough Cut Sequence Matthew Deupner (Edward Wittlif)</name>
					<duration>11548</duration>
					<rate>
						<ntsc>TRUE</ntsc>
						<timebase>24</timebase>
					</rate>
					<timecode>
						<rate>
							<ntsc>TRUE</ntsc>
							<timebase>24</timebase>
						</rate>
						<string>00:00:00:00</string>
						<frame>0</frame>
						<source>source</source>
						<displayformat>NDF</displayformat>
					</timecode>
					<in>-1</in>
					<out>-1</out>
					<media>
						<video>
							<format>
								<samplecharacteristics>
									<width>640</width>
									<height>360</height>
									<anamorphic>FALSE</anamorphic>
									<pixelaspectratio>Square</pixelaspectratio>
									<fielddominance>none</fielddominance>
									<rate>
										<ntsc>TRUE</ntsc>
										<timebase>24</timebase>
									</rate>
									<colordepth>24</colordepth>
									<codec>
										<name>Apple ProRes 422</name>
										<appspecificdata>
											<appname>Final Cut Pro</appname>
											<appmanufacturer>Apple Inc.</appmanufacturer>
											<appversion>7.0</appversion>
											<data>
												<qtcodec>
													<codecname>Apple ProRes 422</codecname>
													<codectypename>Apple ProRes 422</codectypename>
													<codectypecode>apcn</codectypecode>
													<codecvendorcode>appl</codecvendorcode>
													<spatialquality>1024</spatialquality>
													<temporalquality>0</temporalquality>
													<keyframerate>0</keyframerate>
													<datarate>0</datarate>
												</qtcodec>
											</data>
										</appspecificdata>
									</codec>
								</samplecharacteristics>
								<appspecificdata>
									<appname>Final Cut Pro</appname>
									<appmanufacturer>Apple Inc.</appmanufacturer>
									<appversion>7.0</appversion>
									<data>
										<fcpimageprocessing>
											<useyuv>TRUE</useyuv>
											<usesuperwhite>TRUE</usesuperwhite>
											<rendermode>Float10BPP</rendermode>
										</fcpimageprocessing>
									</data>
								</appspecificdata>
							</format>
							<track>
								<clipitem id="Raw Interview Matthew Duepner556">
									<name>Raw Interview Matthew Duepner</name>
									<duration>81486</duration>
									<rate>
										<ntsc>TRUE</ntsc>
										<timebase>24</timebase>
									</rate>
									<in>292</in>
									<out>693</out>
									<start>970</start>
									<end>1371</end>
									<pixelaspectratio>Square</pixelaspectratio>
									<anamorphic>FALSE</anamorphic>
									<alphatype>black</alphatype>
									<masterclipid>Raw Interview Matthew Duepner390</masterclipid>
									<logginginfo>
										<scene/>
										<shottake/>
										<lognote/>
										<good>FALSE</good>
									</logginginfo>
									<labels>
										<label2/>
									</labels>
									<comments>
										<mastercomment1/>
										<mastercomment2/>
										<mastercomment3/>
										<mastercomment4/>
									</comments>
									<file id="YIN_2013-05-28_LG-5 "/>
									<sourcetrack>
										<mediatype>video</mediatype>
									</sourcetrack>
									<link>
										<linkclipref>Raw Interview Matthew Duepner556</linkclipref>
										<mediatype>video</mediatype>
										<trackindex>1</trackindex>
										<clipindex>1</clipindex>
									</link>
									<link>
										<linkclipref>Raw Interview Matthew Duepner557</linkclipref>
										<mediatype>audio</mediatype>
										<trackindex>1</trackindex>
										<clipindex>1</clipindex>
										<groupindex>1</groupindex>
									</link>
									<link>
										<linkclipref>Raw Interview Matthew Duepner558</linkclipref>
										<mediatype>audio</mediatype>
										<trackindex>2</trackindex>
										<clipindex>1</clipindex>
										<groupindex>1</groupindex>
									</link>
									<fielddominance>none</fielddominance>
									<itemhistory>
										<uuid>23C6EE19-CEB9-45C2-A867-86428E74D743</uuid>
									</itemhistory>
								</clipitem>
								<clipitem id="Raw Interview Matthew Duepner559">
									<name>Raw Interview Matthew Duepner</name>
									<duration>81486</duration>
									<rate>
										<ntsc>TRUE</ntsc>
										<timebase>24</timebase>
									</rate>
									<in>28230</in>
									<out>28664</out>
									<start>2037</start>
									<end>2471</end>
									<pixelaspectratio>Square</pixelaspectratio>
									<anamorphic>FALSE</anamorphic>
									<alphatype>black</alphatype>
									<masterclipid>Raw Interview Matthew Duepner390</masterclipid>
									<logginginfo>
										<scene/>
										<shottake/>
										<lognote/>
										<good>FALSE</good>
									</logginginfo>
									<labels>
										<label2/>
									</labels>
									<comments>
										<mastercomment1/>
										<mastercomment2/>
										<mastercomment3/>
										<mastercomment4/>
									</comments>
									<file id="YIN_2013-05-28_LG-5 "/>
									<sourcetrack>
										<mediatype>video</mediatype>
									</sourcetrack>
									<link>
										<linkclipref>Raw Interview Matthew Duepner559</linkclipref>
										<mediatype>video</mediatype>
										<trackindex>1</trackindex>
										<clipindex>2</clipindex>
									</link>
									<link>
										<linkclipref>Raw Interview Matthew Duepner560</linkclipref>
										<mediatype>audio</mediatype>
										<trackindex>1</trackindex>
										<clipindex>2</clipindex>
										<groupindex>1</groupindex>
									</link>
									<link>
										<linkclipref>Raw Interview Matthew Duepner561</linkclipref>
										<mediatype>audio</mediatype>
										<trackindex>2</trackindex>
										<clipindex>2</clipindex>
										<groupindex>1</groupindex>
									</link>
									<fielddominance>none</fielddominance>
									<itemhistory>
										<uuid>316EEEDF-6D82-434E-BE6F-287B4ABE49D2</uuid>
									</itemhistory>
								</clipitem>
								<clipitem id="Raw Interview Matthew Duepner562">
									<name>Raw Interview Matthew Duepner</name>
									<duration>81486</duration>
									<rate>
										<ntsc>TRUE</ntsc>
										<timebase>24</timebase>
									</rate>
									<in>6715</in>
									<out>7282</out>
									<start>2822</start>
									<end>3389</end>
									<pixelaspectratio>Square</pixelaspectratio>
									<anamorphic>FALSE</anamorphic>
									<alphatype>black</alphatype>
									<masterclipid>Raw Interview Matthew Duepner390</masterclipid>
									<logginginfo>
										<scene/>
										<shottake/>
										<lognote/>
										<good>FALSE</good>
									</logginginfo>
									<labels>
										<label2/>
									</labels>
									<comments>
										<mastercomment1/>
										<mastercomment2/>
										<mastercomment3/>
										<mastercomment4/>
									</comments>
									<file id="YIN_2013-05-28_LG-5 "/>
									<sourcetrack>
										<mediatype>video</mediatype>
									</sourcetrack>
									<link>
										<linkclipref>Raw Interview Matthew Duepner562</linkclipref>
										<mediatype>video</mediatype>
										<trackindex>1</trackindex>
										<clipindex>3</clipindex>
									</link>
									<link>
										<linkclipref>Raw Interview Matthew Duepner563</linkclipref>
										<mediatype>audio</mediatype>
										<trackindex>1</trackindex>
										<clipindex>3</clipindex>
										<groupindex>1</groupindex>
									</link>
									<link>
										<linkclipref>Raw Interview Matthew Duepner564</linkclipref>
										<mediatype>audio</mediatype>
										<trackindex>2</trackindex>
										<clipindex>3</clipindex>
										<groupindex>1</groupindex>
									</link>
									<fielddominance>none</fielddominance>
									<itemhistory>
										<uuid>827B2C8A-C0DE-4387-9E63-7AF44D155C97</uuid>
									</itemhistory>
								</clipitem>
								<clipitem id="Raw Interview Matthew Duepner565">
									<name>Raw Interview Matthew Duepner</name>
									<duration>81486</duration>
									<rate>
										<ntsc>TRUE</ntsc>
										<timebase>24</timebase>
									</rate>
									<in>7350</in>
									<out>7384</out>
									<start>3703</start>
									<end>3737</end>
									<pixelaspectratio>Square</pixelaspectratio>
									<anamorphic>FALSE</anamorphic>
									<alphatype>black</alphatype>
									<masterclipid>Raw Interview Matthew Duepner390</masterclipid>
									<logginginfo>
										<scene/>
										<shottake/>
										<lognote/>
										<good>FALSE</good>
									</logginginfo>
									<labels>
										<label2/>
									</labels>
									<comments>
										<mastercomment1/>
										<mastercomment2/>
										<mastercomment3/>
										<mastercomment4/>
									</comments>
									<file id="YIN_2013-05-28_LG-5 "/>
									<sourcetrack>
										<mediatype>video</mediatype>
									</sourcetrack>
									<link>
										<linkclipref>Raw Interview Matthew Duepner565</linkclipref>
										<mediatype>video</mediatype>
										<trackindex>1</trackindex>
										<clipindex>4</clipindex>
									</link>
									<link>
										<linkclipref>Raw Interview Matthew Duepner566</linkclipref>
										<mediatype>audio</mediatype>
										<trackindex>1</trackindex>
										<clipindex>4</clipindex>
										<groupindex>1</groupindex>
									</link>
									<link>
										<linkclipref>Raw Interview Matthew Duepner567</linkclipref>
										<mediatype>audio</mediatype>
										<trackindex>2</trackindex>
										<clipindex>4</clipindex>
										<groupindex>1</groupindex>
									</link>
									<fielddominance>none</fielddominance>
									<itemhistory>
										<uuid>AD993D92-934F-4C7F-875E-532DB73051F5</uuid>
									</itemhistory>
								</clipitem>
								<clipitem id="Raw Interview Matthew Duepner568">
									<name>Raw Interview Matthew Duepner</name>
									<duration>81486</duration>
									<rate>
										<ntsc>TRUE</ntsc>
										<timebase>24</timebase>
									</rate>
									<in>7390</in>
									<out>7672</out>
									<start>3737</start>
									<end>4019</end>
									<pixelaspectratio>Square</pixelaspectratio>
									<anamorphic>FALSE</anamorphic>
									<alphatype>black</alphatype>
									<masterclipid>Raw Interview Matthew Duepner390</masterclipid>
									<logginginfo>
										<scene/>
										<shottake/>
										<lognote/>
										<good>FALSE</good>
									</logginginfo>
									<labels>
										<label2/>
									</labels>
									<comments>
										<mastercomment1/>
										<mastercomment2/>
										<mastercomment3/>
										<mastercomment4/>
									</comments>
									<file id="YIN_2013-05-28_LG-5 "/>
									<sourcetrack>
										<mediatype>video</mediatype>
									</sourcetrack>
									<link>
										<linkclipref>Raw Interview Matthew Duepner568</linkclipref>
										<mediatype>video</mediatype>
										<trackindex>1</trackindex>
										<clipindex>5</clipindex>
									</link>
									<link>
										<linkclipref>Raw Interview Matthew Duepner569</linkclipref>
										<mediatype>audio</mediatype>
										<trackindex>1</trackindex>
										<clipindex>5</clipindex>
										<groupindex>1</groupindex>
									</link>
									<link>
										<linkclipref>Raw Interview Matthew Duepner570</linkclipref>
										<mediatype>audio</mediatype>
										<trackindex>2</trackindex>
										<clipindex>5</clipindex>
										<groupindex>1</groupindex>
									</link>
									<fielddominance>none</fielddominance>
									<itemhistory>
										<uuid>E9F3D4B9-C10E-4062-A969-8F80F61949F7</uuid>
									</itemhistory>
								</clipitem>
								<clipitem id="Raw Interview Matthew Duepner571">
									<name>Raw Interview Matthew Duepner</name>
									<duration>81486</duration>
									<rate>
										<ntsc>TRUE</ntsc>
										<timebase>24</timebase>
									</rate>
									<in>17538</in>
									<out>17582</out>
									<start>4531</start>
									<end>4575</end>
									<pixelaspectratio>Square</pixelaspectratio>
									<anamorphic>FALSE</anamorphic>
									<alphatype>black</alphatype>
									<masterclipid>Raw Interview Matthew Duepner390</masterclipid>
									<logginginfo>
										<scene/>
										<shottake/>
										<lognote/>
										<good>FALSE</good>
									</logginginfo>
									<labels>
										<label2/>
									</labels>
									<comments>
										<mastercomment1/>
										<mastercomment2/>
										<mastercomment3/>
										<mastercomment4/>
									</comments>
									<file id="YIN_2013-05-28_LG-5 "/>
									<sourcetrack>
										<mediatype>video</mediatype>
									</sourcetrack>
									<link>
										<linkclipref>Raw Interview Matthew Duepner571</linkclipref>
										<mediatype>video</mediatype>
										<trackindex>1</trackindex>
										<clipindex>6</clipindex>
									</link>
									<link>
										<linkclipref>Raw Interview Matthew Duepner572</linkclipref>
										<mediatype>audio</mediatype>
										<trackindex>1</trackindex>
										<clipindex>6</clipindex>
										<groupindex>1</groupindex>
									</link>
									<link>
										<linkclipref>Raw Interview Matthew Duepner573</linkclipref>
										<mediatype>audio</mediatype>
										<trackindex>2</trackindex>
										<clipindex>6</clipindex>
										<groupindex>1</groupindex>
									</link>
									<fielddominance>none</fielddominance>
									<itemhistory>
										<uuid>18485055-6BA5-479D-A2D6-F23013E2A450</uuid>
									</itemhistory>
								</clipitem>
								<clipitem id="Raw Interview Matthew Duepner574">
									<name>Raw Interview Matthew Duepner</name>
									<duration>81486</duration>
									<rate>
										<ntsc>TRUE</ntsc>
										<timebase>24</timebase>
									</rate>
									<in>17634</in>
									<out>17751</out>
									<start>4575</start>
									<end>4692</end>
									<pixelaspectratio>Square</pixelaspectratio>
									<anamorphic>FALSE</anamorphic>
									<alphatype>black</alphatype>
									<masterclipid>Raw Interview Matthew Duepner390</masterclipid>
									<logginginfo>
										<scene/>
										<shottake/>
										<lognote/>
										<good>FALSE</good>
									</logginginfo>
									<labels>
										<label2/>
									</labels>
									<comments>
										<mastercomment1/>
										<mastercomment2/>
										<mastercomment3/>
										<mastercomment4/>
									</comments>
									<file id="YIN_2013-05-28_LG-5 "/>
									<sourcetrack>
										<mediatype>video</mediatype>
									</sourcetrack>
									<link>
										<linkclipref>Raw Interview Matthew Duepner574</linkclipref>
										<mediatype>video</mediatype>
										<trackindex>1</trackindex>
										<clipindex>7</clipindex>
									</link>
									<link>
										<linkclipref>Raw Interview Matthew Duepner575</linkclipref>
										<mediatype>audio</mediatype>
										<trackindex>1</trackindex>
										<clipindex>7</clipindex>
										<groupindex>1</groupindex>
									</link>
									<link>
										<linkclipref>Raw Interview Matthew Duepner576</linkclipref>
										<mediatype>audio</mediatype>
										<trackindex>2</trackindex>
										<clipindex>7</clipindex>
										<groupindex>1</groupindex>
									</link>
									<fielddominance>none</fielddominance>
									<itemhistory>
										<uuid>E21F08F0-53DC-491A-AC16-5EF21CB7DE20</uuid>
									</itemhistory>
								</clipitem>
								<clipitem id="Raw Interview Matthew Duepner577">
									<name>Raw Interview Matthew Duepner</name>
									<duration>81486</duration>
									<rate>
										<ntsc>TRUE</ntsc>
										<timebase>24</timebase>
									</rate>
									<in>17812</in>
									<out>17923</out>
									<start>4692</start>
									<end>4803</end>
									<pixelaspectratio>Square</pixelaspectratio>
									<anamorphic>FALSE</anamorphic>
									<alphatype>black</alphatype>
									<masterclipid>Raw Interview Matthew Duepner390</masterclipid>
									<logginginfo>
										<scene/>
										<shottake/>
										<lognote/>
										<good>FALSE</good>
									</logginginfo>
									<labels>
										<label2/>
									</labels>
									<comments>
										<mastercomment1/>
										<mastercomment2/>
										<mastercomment3/>
										<mastercomment4/>
									</comments>
									<file id="YIN_2013-05-28_LG-5 "/>
									<sourcetrack>
										<mediatype>video</mediatype>
									</sourcetrack>
									<link>
										<linkclipref>Raw Interview Matthew Duepner577</linkclipref>
										<mediatype>video</mediatype>
										<trackindex>1</trackindex>
										<clipindex>8</clipindex>
									</link>
									<link>
										<linkclipref>Raw Interview Matthew Duepner578</linkclipref>
										<mediatype>audio</mediatype>
										<trackindex>1</trackindex>
										<clipindex>8</clipindex>
										<groupindex>1</groupindex>
									</link>
									<link>
										<linkclipref>Raw Interview Matthew Duepner579</linkclipref>
										<mediatype>audio</mediatype>
										<trackindex>2</trackindex>
										<clipindex>8</clipindex>
										<groupindex>1</groupindex>
									</link>
									<fielddominance>none</fielddominance>
									<itemhistory>
										<uuid>54C94429-FF56-4E50-AB20-51B685FDB92B</uuid>
									</itemhistory>
								</clipitem>
								<clipitem id="Raw Interview Matthew Duepner580">
									<name>Raw Interview Matthew Duepner</name>
									<duration>81486</duration>
									<rate>
										<ntsc>TRUE</ntsc>
										<timebase>24</timebase>
									</rate>
									<in>17967</in>
									<out>18351</out>
									<start>4803</start>
									<end>5187</end>
									<pixelaspectratio>Square</pixelaspectratio>
									<anamorphic>FALSE</anamorphic>
									<alphatype>black</alphatype>
									<masterclipid>Raw Interview Matthew Duepner390</masterclipid>
									<logginginfo>
										<scene/>
										<shottake/>
										<lognote/>
										<good>FALSE</good>
									</logginginfo>
									<labels>
										<label2/>
									</labels>
									<comments>
										<mastercomment1/>
										<mastercomment2/>
										<mastercomment3/>
										<mastercomment4/>
									</comments>
									<file id="YIN_2013-05-28_LG-5 "/>
									<sourcetrack>
										<mediatype>video</mediatype>
									</sourcetrack>
									<link>
										<linkclipref>Raw Interview Matthew Duepner580</linkclipref>
										<mediatype>video</mediatype>
										<trackindex>1</trackindex>
										<clipindex>9</clipindex>
									</link>
									<link>
										<linkclipref>Raw Interview Matthew Duepner581</linkclipref>
										<mediatype>audio</mediatype>
										<trackindex>1</trackindex>
										<clipindex>9</clipindex>
										<groupindex>1</groupindex>
									</link>
									<link>
										<linkclipref>Raw Interview Matthew Duepner582</linkclipref>
										<mediatype>audio</mediatype>
										<trackindex>2</trackindex>
										<clipindex>9</clipindex>
										<groupindex>1</groupindex>
									</link>
									<fielddominance>none</fielddominance>
									<itemhistory>
										<uuid>60DCD790-62E0-4E93-9E16-972207B332BB</uuid>
									</itemhistory>
								</clipitem>
								<clipitem id="Raw Interview Matthew Duepner583">
									<name>Raw Interview Matthew Duepner</name>
									<duration>81486</duration>
									<rate>
										<ntsc>TRUE</ntsc>
										<timebase>24</timebase>
									</rate>
									<in>18523</in>
									<out>19022</out>
									<start>5187</start>
									<end>5686</end>
									<pixelaspectratio>Square</pixelaspectratio>
									<anamorphic>FALSE</anamorphic>
									<alphatype>black</alphatype>
									<masterclipid>Raw Interview Matthew Duepner390</masterclipid>
									<logginginfo>
										<scene/>
										<shottake/>
										<lognote/>
										<good>FALSE</good>
									</logginginfo>
									<labels>
										<label2/>
									</labels>
									<comments>
										<mastercomment1/>
										<mastercomment2/>
										<mastercomment3/>
										<mastercomment4/>
									</comments>
									<file id="YIN_2013-05-28_LG-5 "/>
									<sourcetrack>
										<mediatype>video</mediatype>
									</sourcetrack>
									<link>
										<linkclipref>Raw Interview Matthew Duepner583</linkclipref>
										<mediatype>video</mediatype>
										<trackindex>1</trackindex>
										<clipindex>10</clipindex>
									</link>
									<link>
										<linkclipref>Raw Interview Matthew Duepner584</linkclipref>
										<mediatype>audio</mediatype>
										<trackindex>1</trackindex>
										<clipindex>10</clipindex>
										<groupindex>1</groupindex>
									</link>
									<link>
										<linkclipref>Raw Interview Matthew Duepner585</linkclipref>
										<mediatype>audio</mediatype>
										<trackindex>2</trackindex>
										<clipindex>10</clipindex>
										<groupindex>1</groupindex>
									</link>
									<fielddominance>none</fielddominance>
									<itemhistory>
										<uuid>7B9B4332-7F37-43B6-99BA-B5A39A786AE4</uuid>
									</itemhistory>
								</clipitem>
								<clipitem id="Raw Interview Matthew Duepner586">
									<name>Raw Interview Matthew Duepner</name>
									<duration>81486</duration>
									<rate>
										<ntsc>TRUE</ntsc>
										<timebase>24</timebase>
									</rate>
									<in>56065</in>
									<out>56428</out>
									<start>6619</start>
									<end>6982</end>
									<pixelaspectratio>Square</pixelaspectratio>
									<anamorphic>FALSE</anamorphic>
									<alphatype>black</alphatype>
									<masterclipid>Raw Interview Matthew Duepner390</masterclipid>
									<logginginfo>
										<scene/>
										<shottake/>
										<lognote/>
										<good>FALSE</good>
									</logginginfo>
									<labels>
										<label2/>
									</labels>
									<comments>
										<mastercomment1/>
										<mastercomment2/>
										<mastercomment3/>
										<mastercomment4/>
									</comments>
									<file id="YIN_2013-05-28_LG-5 "/>
									<sourcetrack>
										<mediatype>video</mediatype>
									</sourcetrack>
									<link>
										<linkclipref>Raw Interview Matthew Duepner586</linkclipref>
										<mediatype>video</mediatype>
										<trackindex>1</trackindex>
										<clipindex>11</clipindex>
									</link>
									<link>
										<linkclipref>Raw Interview Matthew Duepner587</linkclipref>
										<mediatype>audio</mediatype>
										<trackindex>1</trackindex>
										<clipindex>11</clipindex>
										<groupindex>1</groupindex>
									</link>
									<link>
										<linkclipref>Raw Interview Matthew Duepner588</linkclipref>
										<mediatype>audio</mediatype>
										<trackindex>2</trackindex>
										<clipindex>11</clipindex>
										<groupindex>1</groupindex>
									</link>
									<fielddominance>none</fielddominance>
									<itemhistory>
										<uuid>54C3A819-C0C6-4F07-B029-62E968349C4E</uuid>
									</itemhistory>
								</clipitem>
								<clipitem id="Raw Interview Matthew Duepner589">
									<name>Raw Interview Matthew Duepner</name>
									<duration>81486</duration>
									<rate>
										<ntsc>TRUE</ntsc>
										<timebase>24</timebase>
									</rate>
									<in>58596</in>
									<out>59471</out>
									<start>6982</start>
									<end>7857</end>
									<pixelaspectratio>Square</pixelaspectratio>
									<anamorphic>FALSE</anamorphic>
									<alphatype>black</alphatype>
									<masterclipid>Raw Interview Matthew Duepner390</masterclipid>
									<logginginfo>
										<scene/>
										<shottake/>
										<lognote/>
										<good>FALSE</good>
									</logginginfo>
									<labels>
										<label2/>
									</labels>
									<comments>
										<mastercomment1/>
										<mastercomment2/>
										<mastercomment3/>
										<mastercomment4/>
									</comments>
									<file id="YIN_2013-05-28_LG-5 "/>
									<sourcetrack>
										<mediatype>video</mediatype>
									</sourcetrack>
									<link>
										<linkclipref>Raw Interview Matthew Duepner589</linkclipref>
										<mediatype>video</mediatype>
										<trackindex>1</trackindex>
										<clipindex>12</clipindex>
									</link>
									<link>
										<linkclipref>Raw Interview Matthew Duepner590</linkclipref>
										<mediatype>audio</mediatype>
										<trackindex>1</trackindex>
										<clipindex>12</clipindex>
										<groupindex>1</groupindex>
									</link>
									<link>
										<linkclipref>Raw Interview Matthew Duepner591</linkclipref>
										<mediatype>audio</mediatype>
										<trackindex>2</trackindex>
										<clipindex>12</clipindex>
										<groupindex>1</groupindex>
									</link>
									<fielddominance>none</fielddominance>
									<itemhistory>
										<uuid>A9A4F251-7E07-488A-85D6-21524F9DB014</uuid>
									</itemhistory>
								</clipitem>
								<clipitem id="Raw Interview Matthew Duepner592">
									<name>Raw Interview Matthew Duepner</name>
									<duration>81486</duration>
									<rate>
										<ntsc>TRUE</ntsc>
										<timebase>24</timebase>
									</rate>
									<in>20229</in>
									<out>20906</out>
									<start>8259</start>
									<end>8936</end>
									<pixelaspectratio>Square</pixelaspectratio>
									<anamorphic>FALSE</anamorphic>
									<alphatype>black</alphatype>
									<masterclipid>Raw Interview Matthew Duepner390</masterclipid>
									<logginginfo>
										<scene/>
										<shottake/>
										<lognote/>
										<good>FALSE</good>
									</logginginfo>
									<labels>
										<label2/>
									</labels>
									<comments>
										<mastercomment1/>
										<mastercomment2/>
										<mastercomment3/>
										<mastercomment4/>
									</comments>
									<file id="YIN_2013-05-28_LG-5 "/>
									<sourcetrack>
										<mediatype>video</mediatype>
									</sourcetrack>
									<link>
										<linkclipref>Raw Interview Matthew Duepner592</linkclipref>
										<mediatype>video</mediatype>
										<trackindex>1</trackindex>
										<clipindex>13</clipindex>
									</link>
									<link>
										<linkclipref>Raw Interview Matthew Duepner593</linkclipref>
										<mediatype>audio</mediatype>
										<trackindex>1</trackindex>
										<clipindex>13</clipindex>
										<groupindex>1</groupindex>
									</link>
									<link>
										<linkclipref>Raw Interview Matthew Duepner594</linkclipref>
										<mediatype>audio</mediatype>
										<trackindex>2</trackindex>
										<clipindex>13</clipindex>
										<groupindex>1</groupindex>
									</link>
									<fielddominance>none</fielddominance>
									<itemhistory>
										<uuid>7251AB18-B0DA-4C61-8646-AAB842DE36BF</uuid>
									</itemhistory>
								</clipitem>
								<clipitem id="Raw Interview Matthew Duepner595">
									<name>Raw Interview Matthew Duepner</name>
									<duration>81486</duration>
									<rate>
										<ntsc>TRUE</ntsc>
										<timebase>24</timebase>
									</rate>
									<in>21594</in>
									<out>22531</out>
									<start>8936</start>
									<end>9873</end>
									<pixelaspectratio>Square</pixelaspectratio>
									<anamorphic>FALSE</anamorphic>
									<alphatype>black</alphatype>
									<masterclipid>Raw Interview Matthew Duepner390</masterclipid>
									<logginginfo>
										<scene/>
										<shottake/>
										<lognote/>
										<good>FALSE</good>
									</logginginfo>
									<labels>
										<label2/>
									</labels>
									<comments>
										<mastercomment1/>
										<mastercomment2/>
										<mastercomment3/>
										<mastercomment4/>
									</comments>
									<file id="YIN_2013-05-28_LG-5 "/>
									<sourcetrack>
										<mediatype>video</mediatype>
									</sourcetrack>
									<link>
										<linkclipref>Raw Interview Matthew Duepner595</linkclipref>
										<mediatype>video</mediatype>
										<trackindex>1</trackindex>
										<clipindex>14</clipindex>
									</link>
									<link>
										<linkclipref>Raw Interview Matthew Duepner596</linkclipref>
										<mediatype>audio</mediatype>
										<trackindex>1</trackindex>
										<clipindex>14</clipindex>
										<groupindex>1</groupindex>
									</link>
									<link>
										<linkclipref>Raw Interview Matthew Duepner597</linkclipref>
										<mediatype>audio</mediatype>
										<trackindex>2</trackindex>
										<clipindex>14</clipindex>
										<groupindex>1</groupindex>
									</link>
									<fielddominance>none</fielddominance>
									<itemhistory>
										<uuid>4ED9F0C3-4D3D-4B0A-94D0-5CEEA0749844</uuid>
									</itemhistory>
								</clipitem>
								<clipitem id="Raw Interview Matthew Duepner598">
									<name>Raw Interview Matthew Duepner</name>
									<duration>81486</duration>
									<rate>
										<ntsc>TRUE</ntsc>
										<timebase>24</timebase>
									</rate>
									<in>24217</in>
									<out>25037</out>
									<start>9873</start>
									<end>10693</end>
									<pixelaspectratio>Square</pixelaspectratio>
									<anamorphic>FALSE</anamorphic>
									<alphatype>black</alphatype>
									<masterclipid>Raw Interview Matthew Duepner390</masterclipid>
									<logginginfo>
										<scene/>
										<shottake/>
										<lognote/>
										<good>FALSE</good>
									</logginginfo>
									<labels>
										<label2/>
									</labels>
									<comments>
										<mastercomment1/>
										<mastercomment2/>
										<mastercomment3/>
										<mastercomment4/>
									</comments>
									<file id="YIN_2013-05-28_LG-5 "/>
									<sourcetrack>
										<mediatype>video</mediatype>
									</sourcetrack>
									<link>
										<linkclipref>Raw Interview Matthew Duepner598</linkclipref>
										<mediatype>video</mediatype>
										<trackindex>1</trackindex>
										<clipindex>15</clipindex>
									</link>
									<link>
										<linkclipref>Raw Interview Matthew Duepner599</linkclipref>
										<mediatype>audio</mediatype>
										<trackindex>1</trackindex>
										<clipindex>15</clipindex>
										<groupindex>1</groupindex>
									</link>
									<link>
										<linkclipref>Raw Interview Matthew Duepner600</linkclipref>
										<mediatype>audio</mediatype>
										<trackindex>2</trackindex>
										<clipindex>15</clipindex>
										<groupindex>1</groupindex>
									</link>
									<fielddominance>none</fielddominance>
									<itemhistory>
										<uuid>9D648C47-9E76-48A5-B745-5687442F1EBC</uuid>
									</itemhistory>
								</clipitem>
								<clipitem id="Raw Interview Matthew Duepner601">
									<name>Raw Interview Matthew Duepner</name>
									<duration>81486</duration>
									<rate>
										<ntsc>TRUE</ntsc>
										<timebase>24</timebase>
									</rate>
									<in>52125</in>
									<out>52578</out>
									<start>10693</start>
									<end>11146</end>
									<pixelaspectratio>Square</pixelaspectratio>
									<anamorphic>FALSE</anamorphic>
									<alphatype>black</alphatype>
									<masterclipid>Raw Interview Matthew Duepner390</masterclipid>
									<logginginfo>
										<scene/>
										<shottake/>
										<lognote/>
										<good>FALSE</good>
									</logginginfo>
									<labels>
										<label2/>
									</labels>
									<comments>
										<mastercomment1/>
										<mastercomment2/>
										<mastercomment3/>
										<mastercomment4/>
									</comments>
									<file id="YIN_2013-05-28_LG-5 "/>
									<sourcetrack>
										<mediatype>video</mediatype>
									</sourcetrack>
									<link>
										<linkclipref>Raw Interview Matthew Duepner601</linkclipref>
										<mediatype>video</mediatype>
										<trackindex>1</trackindex>
										<clipindex>16</clipindex>
									</link>
									<link>
										<linkclipref>Raw Interview Matthew Duepner602</linkclipref>
										<mediatype>audio</mediatype>
										<trackindex>1</trackindex>
										<clipindex>16</clipindex>
										<groupindex>1</groupindex>
									</link>
									<link>
										<linkclipref>Raw Interview Matthew Duepner603</linkclipref>
										<mediatype>audio</mediatype>
										<trackindex>2</trackindex>
										<clipindex>16</clipindex>
										<groupindex>1</groupindex>
									</link>
									<fielddominance>none</fielddominance>
									<itemhistory>
										<uuid>BA340201-5ACA-41CF-9E4B-EC7A44CA5CBB</uuid>
									</itemhistory>
								</clipitem>
								<enabled>TRUE</enabled>
								<locked>FALSE</locked>
							</track>
							<track>
								<clipitem id="Raw Scene Matthew Duepner House Tour4">
									<name>Raw Scene Matthew Duepner House Tour</name>
									<duration>16257</duration>
									<rate>
										<ntsc>TRUE</ntsc>
										<timebase>24</timebase>
									</rate>
									<in>12088</in>
									<out>13125</out>
									<start>0</start>
									<end>1037</end>
									<pixelaspectratio>Square</pixelaspectratio>
									<anamorphic>FALSE</anamorphic>
									<alphatype>black</alphatype>
									<masterclipid>Raw Scene Matthew Duepner House Tour</masterclipid>
									<logginginfo>
										<scene/>
										<shottake/>
										<lognote/>
										<good>FALSE</good>
									</logginginfo>
									<labels>
										<label2/>
									</labels>
									<comments>
										<mastercomment1/>
										<mastercomment2/>
										<mastercomment3/>
										<mastercomment4/>
									</comments>
									<file id="YIN_2013-05-28_LG-3 "/>
									<sourcetrack>
										<mediatype>video</mediatype>
									</sourcetrack>
									<link>
										<linkclipref>Raw Scene Matthew Duepner House Tour4</linkclipref>
										<mediatype>video</mediatype>
										<trackindex>2</trackindex>
										<clipindex>1</clipindex>
									</link>
									<link>
										<linkclipref>Raw Scene Matthew Duepner House Tour5</linkclipref>
										<mediatype>audio</mediatype>
										<trackindex>3</trackindex>
										<clipindex>1</clipindex>
										<groupindex>1</groupindex>
									</link>
									<link>
										<linkclipref>Raw Scene Matthew Duepner House Tour6</linkclipref>
										<mediatype>audio</mediatype>
										<trackindex>4</trackindex>
										<clipindex>1</clipindex>
										<groupindex>1</groupindex>
									</link>
									<fielddominance>none</fielddominance>
									<itemhistory>
										<uuid>85A720F7-9D5D-40A5-992C-E0BBE5F8A0D6</uuid>
									</itemhistory>
								</clipitem>
								<clipitem id="Raw Scene Matthew Duepner House Tour7">
									<name>Raw Scene Matthew Duepner House Tour</name>
									<duration>16257</duration>
									<rate>
										<ntsc>TRUE</ntsc>
										<timebase>24</timebase>
									</rate>
									<in>8815</in>
									<out>9570</out>
									<start>1371</start>
									<end>2126</end>
									<pixelaspectratio>Square</pixelaspectratio>
									<anamorphic>FALSE</anamorphic>
									<alphatype>black</alphatype>
									<masterclipid>Raw Scene Matthew Duepner House Tour</masterclipid>
									<logginginfo>
										<scene/>
										<shottake/>
										<lognote/>
										<good>FALSE</good>
									</logginginfo>
									<labels>
										<label2/>
									</labels>
									<comments>
										<mastercomment1/>
										<mastercomment2/>
										<mastercomment3/>
										<mastercomment4/>
									</comments>
									<file id="YIN_2013-05-28_LG-3 "/>
									<sourcetrack>
										<mediatype>video</mediatype>
									</sourcetrack>
									<fielddominance>none</fielddominance>
									<itemhistory>
										<uuid>2A21C0F5-E11E-4904-9EF4-7571C8AF3DBC</uuid>
									</itemhistory>
								</clipitem>
								<clipitem id="Raw Scene Matthew Duepner House Tour8">
									<name>Raw Scene Matthew Duepner House Tour</name>
									<duration>16257</duration>
									<rate>
										<ntsc>TRUE</ntsc>
										<timebase>24</timebase>
									</rate>
									<in>11463</in>
									<out>11556</out>
									<start>2126</start>
									<end>2219</end>
									<pixelaspectratio>Square</pixelaspectratio>
									<anamorphic>FALSE</anamorphic>
									<alphatype>black</alphatype>
									<masterclipid>Raw Scene Matthew Duepner House Tour</masterclipid>
									<logginginfo>
										<scene/>
										<shottake/>
										<lognote/>
										<good>FALSE</good>
									</logginginfo>
									<labels>
										<label2/>
									</labels>
									<comments>
										<mastercomment1/>
										<mastercomment2/>
										<mastercomment3/>
										<mastercomment4/>
									</comments>
									<file id="YIN_2013-05-28_LG-3 "/>
									<sourcetrack>
										<mediatype>video</mediatype>
									</sourcetrack>
									<link>
										<linkclipref>Raw Scene Matthew Duepner House Tour8</linkclipref>
										<mediatype>video</mediatype>
										<trackindex>2</trackindex>
										<clipindex>3</clipindex>
									</link>
									<link>
										<linkclipref>Raw Scene Matthew Duepner House Tour9</linkclipref>
										<mediatype>audio</mediatype>
										<trackindex>3</trackindex>
										<clipindex>3</clipindex>
										<groupindex>1</groupindex>
									</link>
									<link>
										<linkclipref>Raw Scene Matthew Duepner House Tour10</linkclipref>
										<mediatype>audio</mediatype>
										<trackindex>4</trackindex>
										<clipindex>3</clipindex>
										<groupindex>1</groupindex>
									</link>
									<fielddominance>none</fielddominance>
									<itemhistory>
										<uuid>3280289F-1939-42B9-B9B4-CBD99665EFD2</uuid>
									</itemhistory>
								</clipitem>
								<clipitem id="Raw Scene Matthew Duepner Printing112">
									<name>Raw Scene Matthew Duepner Printing</name>
									<duration>28553</duration>
									<rate>
										<ntsc>TRUE</ntsc>
										<timebase>24</timebase>
									</rate>
									<in>11949</in>
									<out>12060</out>
									<start>2471</start>
									<end>2582</end>
									<pixelaspectratio>Square</pixelaspectratio>
									<anamorphic>FALSE</anamorphic>
									<alphatype>black</alphatype>
									<masterclipid>Raw Scene Matthew Duepner Printing72</masterclipid>
									<logginginfo>
										<scene/>
										<shottake/>
										<lognote/>
										<good>FALSE</good>
									</logginginfo>
									<labels>
										<label2/>
									</labels>
									<comments>
										<mastercomment1/>
										<mastercomment2/>
										<mastercomment3/>
										<mastercomment4/>
									</comments>
									<file id="YIN_2013-05-28_LG-6 "/>
									<sourcetrack>
										<mediatype>video</mediatype>
									</sourcetrack>
									<link>
										<linkclipref>Raw Scene Matthew Duepner Printing112</linkclipref>
										<mediatype>video</mediatype>
										<trackindex>2</trackindex>
										<clipindex>4</clipindex>
									</link>
									<link>
										<linkclipref>Raw Scene Matthew Duepner Printing113</linkclipref>
										<mediatype>audio</mediatype>
										<trackindex>3</trackindex>
										<clipindex>4</clipindex>
										<groupindex>1</groupindex>
									</link>
									<link>
										<linkclipref>Raw Scene Matthew Duepner Printing114</linkclipref>
										<mediatype>audio</mediatype>
										<trackindex>4</trackindex>
										<clipindex>4</clipindex>
										<groupindex>1</groupindex>
									</link>
									<fielddominance>none</fielddominance>
									<itemhistory>
										<uuid>23F93222-6710-442E-B047-CAB32E8925F8</uuid>
									</itemhistory>
								</clipitem>
								<clipitem id="Raw B Roll Hack Manhattan Matthew Duepner's House103">
									<name>Raw B Roll Hack Manhattan Matthew Duepner's House</name>
									<duration>6617</duration>
									<rate>
										<ntsc>TRUE</ntsc>
										<timebase>24</timebase>
									</rate>
									<in>5185</in>
									<out>5305</out>
									<start>2582</start>
									<end>2702</end>
									<pixelaspectratio>Square</pixelaspectratio>
									<anamorphic>FALSE</anamorphic>
									<alphatype>black</alphatype>
									<masterclipid>Raw B Roll Hack Manhattan Matthew Duepner's House1</masterclipid>
									<logginginfo>
										<scene/>
										<shottake/>
										<lognote/>
										<good>FALSE</good>
									</logginginfo>
									<labels>
										<label2/>
									</labels>
									<comments>
										<mastercomment1/>
										<mastercomment2/>
										<mastercomment3/>
										<mastercomment4/>
									</comments>
									<file id="YIN_2013-04-28_JB-1 "/>
									<sourcetrack>
										<mediatype>video</mediatype>
									</sourcetrack>
									<link>
										<linkclipref>Raw B Roll Hack Manhattan Matthew Duepner's House103</linkclipref>
										<mediatype>video</mediatype>
										<trackindex>2</trackindex>
										<clipindex>5</clipindex>
									</link>
									<link>
										<linkclipref>Raw B Roll Hack Manhattan Matthew Duepner's House104</linkclipref>
										<mediatype>audio</mediatype>
										<trackindex>3</trackindex>
										<clipindex>5</clipindex>
										<groupindex>1</groupindex>
									</link>
									<link>
										<linkclipref>Raw B Roll Hack Manhattan Matthew Duepner's House105</linkclipref>
										<mediatype>audio</mediatype>
										<trackindex>4</trackindex>
										<clipindex>5</clipindex>
										<groupindex>1</groupindex>
									</link>
									<fielddominance>none</fielddominance>
									<itemhistory>
										<uuid>72B1ABD7-39A8-4349-B97A-9C78A4C04F01</uuid>
									</itemhistory>
								</clipitem>
								<clipitem id="Raw B Roll Hack Manhattan Matthew Duepner's House106">
									<name>Raw B Roll Hack Manhattan Matthew Duepner's House</name>
									<duration>6617</duration>
									<rate>
										<ntsc>TRUE</ntsc>
										<timebase>24</timebase>
									</rate>
									<in>5305</in>
									<out>5411</out>
									<start>2702</start>
									<end>2808</end>
									<pixelaspectratio>Square</pixelaspectratio>
									<anamorphic>FALSE</anamorphic>
									<alphatype>black</alphatype>
									<masterclipid>Raw B Roll Hack Manhattan Matthew Duepner's House1</masterclipid>
									<logginginfo>
										<scene/>
										<shottake/>
										<lognote/>
										<good>FALSE</good>
									</logginginfo>
									<labels>
										<label2/>
									</labels>
									<comments>
										<mastercomment1/>
										<mastercomment2/>
										<mastercomment3/>
										<mastercomment4/>
									</comments>
									<file id="YIN_2013-04-28_JB-1 "/>
									<sourcetrack>
										<mediatype>video</mediatype>
									</sourcetrack>
									<link>
										<linkclipref>Raw B Roll Hack Manhattan Matthew Duepner's House106</linkclipref>
										<mediatype>video</mediatype>
										<trackindex>2</trackindex>
										<clipindex>6</clipindex>
									</link>
									<link>
										<linkclipref>Raw B Roll Hack Manhattan Matthew Duepner's House107</linkclipref>
										<mediatype>audio</mediatype>
										<trackindex>3</trackindex>
										<clipindex>6</clipindex>
										<groupindex>1</groupindex>
									</link>
									<link>
										<linkclipref>Raw B Roll Hack Manhattan Matthew Duepner's House108</linkclipref>
										<mediatype>audio</mediatype>
										<trackindex>4</trackindex>
										<clipindex>6</clipindex>
										<groupindex>1</groupindex>
									</link>
									<fielddominance>none</fielddominance>
									<itemhistory>
										<uuid>DD62FD47-7068-418D-8434-100DC3A09973</uuid>
									</itemhistory>
								</clipitem>
								<clipitem id="Raw Scene Matthew Duepner Printing115">
									<name>Raw Scene Matthew Duepner Printing</name>
									<duration>28553</duration>
									<rate>
										<ntsc>TRUE</ntsc>
										<timebase>24</timebase>
									</rate>
									<in>4048</in>
									<out>4327</out>
									<start>2808</start>
									<end>3087</end>
									<pixelaspectratio>Square</pixelaspectratio>
									<anamorphic>FALSE</anamorphic>
									<alphatype>black</alphatype>
									<masterclipid>Raw Scene Matthew Duepner Printing72</masterclipid>
									<logginginfo>
										<scene/>
										<shottake/>
										<lognote/>
										<good>FALSE</good>
									</logginginfo>
									<labels>
										<label2/>
									</labels>
									<comments>
										<mastercomment1/>
										<mastercomment2/>
										<mastercomment3/>
										<mastercomment4/>
									</comments>
									<file id="YIN_2013-05-28_LG-6 "/>
									<sourcetrack>
										<mediatype>video</mediatype>
									</sourcetrack>
									<link>
										<linkclipref>Raw Scene Matthew Duepner Printing115</linkclipref>
										<mediatype>video</mediatype>
										<trackindex>2</trackindex>
										<clipindex>7</clipindex>
									</link>
									<link>
										<linkclipref>Raw Scene Matthew Duepner Printing116</linkclipref>
										<mediatype>audio</mediatype>
										<trackindex>3</trackindex>
										<clipindex>7</clipindex>
										<groupindex>1</groupindex>
									</link>
									<link>
										<linkclipref>Raw Scene Matthew Duepner Printing117</linkclipref>
										<mediatype>audio</mediatype>
										<trackindex>4</trackindex>
										<clipindex>7</clipindex>
										<groupindex>1</groupindex>
									</link>
									<fielddominance>none</fielddominance>
									<itemhistory>
										<uuid>A21D2FA6-6DC3-4807-976A-70986877C6D0</uuid>
									</itemhistory>
								</clipitem>
								<clipitem id="Raw Scene Matthew Duepner Printing118">
									<name>Raw Scene Matthew Duepner Printing</name>
									<duration>28553</duration>
									<rate>
										<ntsc>TRUE</ntsc>
										<timebase>24</timebase>
									</rate>
									<in>27466</in>
									<out>27856</out>
									<start>3389</start>
									<end>3779</end>
									<pixelaspectratio>Square</pixelaspectratio>
									<anamorphic>FALSE</anamorphic>
									<alphatype>black</alphatype>
									<masterclipid>Raw Scene Matthew Duepner Printing72</masterclipid>
									<logginginfo>
										<scene/>
										<shottake/>
										<lognote/>
										<good>FALSE</good>
									</logginginfo>
									<labels>
										<label2/>
									</labels>
									<comments>
										<mastercomment1/>
										<mastercomment2/>
										<mastercomment3/>
										<mastercomment4/>
									</comments>
									<file id="YIN_2013-05-28_LG-6 "/>
									<sourcetrack>
										<mediatype>video</mediatype>
									</sourcetrack>
									<fielddominance>none</fielddominance>
									<itemhistory>
										<uuid>277CA7D7-A692-4425-8344-E0B7C3F4C32A</uuid>
									</itemhistory>
								</clipitem>
								<clipitem id="Raw Scene Matthew Duepner Walkabout355">
									<name>Raw Scene Matthew Duepner Walkabout</name>
									<duration>38484</duration>
									<rate>
										<ntsc>TRUE</ntsc>
										<timebase>24</timebase>
									</rate>
									<in>5157</in>
									<out>5266</out>
									<start>4019</start>
									<end>4128</end>
									<pixelaspectratio>Square</pixelaspectratio>
									<anamorphic>FALSE</anamorphic>
									<alphatype>black</alphatype>
									<masterclipid>Raw Scene Matthew Duepner Walkabout234</masterclipid>
									<logginginfo>
										<scene/>
										<shottake/>
										<lognote/>
										<good>FALSE</good>
									</logginginfo>
									<labels>
										<label2/>
									</labels>
									<comments>
										<mastercomment1/>
										<mastercomment2/>
										<mastercomment3/>
										<mastercomment4/>
									</comments>
									<file id="YIN_2013-05-28_LG-4 "/>
									<sourcetrack>
										<mediatype>video</mediatype>
									</sourcetrack>
									<link>
										<linkclipref>Raw Scene Matthew Duepner Walkabout355</linkclipref>
										<mediatype>video</mediatype>
										<trackindex>2</trackindex>
										<clipindex>9</clipindex>
									</link>
									<link>
										<linkclipref>Raw Scene Matthew Duepner Walkabout356</linkclipref>
										<mediatype>audio</mediatype>
										<trackindex>3</trackindex>
										<clipindex>9</clipindex>
										<groupindex>1</groupindex>
									</link>
									<link>
										<linkclipref>Raw Scene Matthew Duepner Walkabout357</linkclipref>
										<mediatype>audio</mediatype>
										<trackindex>4</trackindex>
										<clipindex>9</clipindex>
										<groupindex>1</groupindex>
									</link>
									<fielddominance>none</fielddominance>
									<itemhistory>
										<uuid>704FB5BB-99E7-4BA4-A41F-652E10249B1E</uuid>
									</itemhistory>
								</clipitem>
								<clipitem id="Raw Scene Matthew Duepner Walkabout358">
									<name>Raw Scene Matthew Duepner Walkabout</name>
									<duration>38484</duration>
									<rate>
										<ntsc>TRUE</ntsc>
										<timebase>24</timebase>
									</rate>
									<in>4745</in>
									<out>5123</out>
									<start>4128</start>
									<end>4506</end>
									<pixelaspectratio>Square</pixelaspectratio>
									<anamorphic>FALSE</anamorphic>
									<alphatype>black</alphatype>
									<masterclipid>Raw Scene Matthew Duepner Walkabout234</masterclipid>
									<logginginfo>
										<scene/>
										<shottake/>
										<lognote/>
										<good>FALSE</good>
									</logginginfo>
									<labels>
										<label2/>
									</labels>
									<comments>
										<mastercomment1/>
										<mastercomment2/>
										<mastercomment3/>
										<mastercomment4/>
									</comments>
									<file id="YIN_2013-05-28_LG-4 "/>
									<sourcetrack>
										<mediatype>video</mediatype>
									</sourcetrack>
									<link>
										<linkclipref>Raw Scene Matthew Duepner Walkabout358</linkclipref>
										<mediatype>video</mediatype>
										<trackindex>2</trackindex>
										<clipindex>10</clipindex>
									</link>
									<link>
										<linkclipref>Raw Scene Matthew Duepner Walkabout359</linkclipref>
										<mediatype>audio</mediatype>
										<trackindex>3</trackindex>
										<clipindex>10</clipindex>
										<groupindex>1</groupindex>
									</link>
									<link>
										<linkclipref>Raw Scene Matthew Duepner Walkabout360</linkclipref>
										<mediatype>audio</mediatype>
										<trackindex>4</trackindex>
										<clipindex>10</clipindex>
										<groupindex>1</groupindex>
									</link>
									<fielddominance>none</fielddominance>
									<itemhistory>
										<uuid>01F8562B-AC27-4C16-954C-B69517C6D44D</uuid>
									</itemhistory>
								</clipitem>
								<clipitem id="Raw Scene Matthew Duepner Walkabout361">
									<name>Raw Scene Matthew Duepner Walkabout</name>
									<duration>38484</duration>
									<rate>
										<ntsc>TRUE</ntsc>
										<timebase>24</timebase>
									</rate>
									<in>6478</in>
									<out>6599</out>
									<start>4506</start>
									<end>4627</end>
									<pixelaspectratio>Square</pixelaspectratio>
									<anamorphic>FALSE</anamorphic>
									<alphatype>black</alphatype>
									<masterclipid>Raw Scene Matthew Duepner Walkabout234</masterclipid>
									<logginginfo>
										<scene/>
										<shottake/>
										<lognote/>
										<good>FALSE</good>
									</logginginfo>
									<labels>
										<label2/>
									</labels>
									<comments>
										<mastercomment1/>
										<mastercomment2/>
										<mastercomment3/>
										<mastercomment4/>
									</comments>
									<file id="YIN_2013-05-28_LG-4 "/>
									<sourcetrack>
										<mediatype>video</mediatype>
									</sourcetrack>
									<link>
										<linkclipref>Raw Scene Matthew Duepner Walkabout361</linkclipref>
										<mediatype>video</mediatype>
										<trackindex>2</trackindex>
										<clipindex>11</clipindex>
									</link>
									<link>
										<linkclipref>Raw Scene Matthew Duepner Walkabout362</linkclipref>
										<mediatype>audio</mediatype>
										<trackindex>3</trackindex>
										<clipindex>11</clipindex>
										<groupindex>1</groupindex>
									</link>
									<link>
										<linkclipref>Raw Scene Matthew Duepner Walkabout363</linkclipref>
										<mediatype>audio</mediatype>
										<trackindex>4</trackindex>
										<clipindex>11</clipindex>
										<groupindex>1</groupindex>
									</link>
									<fielddominance>none</fielddominance>
									<itemhistory>
										<uuid>11ECD1B3-8707-46D0-AB38-2D21971C26B3</uuid>
									</itemhistory>
								</clipitem>
								<clipitem id="Raw Scene Matthew Duepner Walkabout364">
									<name>Raw Scene Matthew Duepner Walkabout</name>
									<duration>38484</duration>
									<rate>
										<ntsc>TRUE</ntsc>
										<timebase>24</timebase>
									</rate>
									<in>6653</in>
									<out>6829</out>
									<start>4627</start>
									<end>4803</end>
									<pixelaspectratio>Square</pixelaspectratio>
									<anamorphic>FALSE</anamorphic>
									<alphatype>black</alphatype>
									<masterclipid>Raw Scene Matthew Duepner Walkabout234</masterclipid>
									<logginginfo>
										<scene/>
										<shottake/>
										<lognote/>
										<good>FALSE</good>
									</logginginfo>
									<labels>
										<label2/>
									</labels>
									<comments>
										<mastercomment1/>
										<mastercomment2/>
										<mastercomment3/>
										<mastercomment4/>
									</comments>
									<file id="YIN_2013-05-28_LG-4 "/>
									<sourcetrack>
										<mediatype>video</mediatype>
									</sourcetrack>
									<link>
										<linkclipref>Raw Scene Matthew Duepner Walkabout364</linkclipref>
										<mediatype>video</mediatype>
										<trackindex>2</trackindex>
										<clipindex>12</clipindex>
									</link>
									<link>
										<linkclipref>Raw Scene Matthew Duepner Walkabout365</linkclipref>
										<mediatype>audio</mediatype>
										<trackindex>3</trackindex>
										<clipindex>12</clipindex>
										<groupindex>1</groupindex>
									</link>
									<link>
										<linkclipref>Raw Scene Matthew Duepner Walkabout366</linkclipref>
										<mediatype>audio</mediatype>
										<trackindex>4</trackindex>
										<clipindex>12</clipindex>
										<groupindex>1</groupindex>
									</link>
									<fielddominance>none</fielddominance>
									<itemhistory>
										<uuid>9DB07694-3FB5-40B5-9D08-5FB2A23AD35C</uuid>
									</itemhistory>
								</clipitem>
								<clipitem id="Raw Scene Matthew Duepner Walkabout367">
									<name>Raw Scene Matthew Duepner Walkabout</name>
									<duration>38484</duration>
									<rate>
										<ntsc>TRUE</ntsc>
										<timebase>24</timebase>
									</rate>
									<in>7114</in>
									<out>7311</out>
									<start>4997</start>
									<end>5194</end>
									<pixelaspectratio>Square</pixelaspectratio>
									<anamorphic>FALSE</anamorphic>
									<alphatype>black</alphatype>
									<masterclipid>Raw Scene Matthew Duepner Walkabout234</masterclipid>
									<logginginfo>
										<scene/>
										<shottake/>
										<lognote/>
										<good>FALSE</good>
									</logginginfo>
									<labels>
										<label2/>
									</labels>
									<comments>
										<mastercomment1/>
										<mastercomment2/>
										<mastercomment3/>
										<mastercomment4/>
									</comments>
									<file id="YIN_2013-05-28_LG-4 "/>
									<sourcetrack>
										<mediatype>video</mediatype>
									</sourcetrack>
									<link>
										<linkclipref>Raw Scene Matthew Duepner Walkabout367</linkclipref>
										<mediatype>video</mediatype>
										<trackindex>2</trackindex>
										<clipindex>13</clipindex>
									</link>
									<link>
										<linkclipref>Raw Scene Matthew Duepner Walkabout368</linkclipref>
										<mediatype>audio</mediatype>
										<trackindex>3</trackindex>
										<clipindex>13</clipindex>
										<groupindex>1</groupindex>
									</link>
									<link>
										<linkclipref>Raw Scene Matthew Duepner Walkabout369</linkclipref>
										<mediatype>audio</mediatype>
										<trackindex>4</trackindex>
										<clipindex>13</clipindex>
										<groupindex>1</groupindex>
									</link>
									<fielddominance>none</fielddominance>
									<itemhistory>
										<uuid>F3558678-F0ED-45F3-894E-D51041AE878B</uuid>
									</itemhistory>
								</clipitem>
								<clipitem id="Raw Scene Matthew Duepner Walkabout370">
									<name>Raw Scene Matthew Duepner Walkabout</name>
									<duration>38484</duration>
									<rate>
										<ntsc>TRUE</ntsc>
										<timebase>24</timebase>
									</rate>
									<in>13344</in>
									<out>13480</out>
									<start>5686</start>
									<end>5822</end>
									<pixelaspectratio>Square</pixelaspectratio>
									<anamorphic>FALSE</anamorphic>
									<alphatype>black</alphatype>
									<masterclipid>Raw Scene Matthew Duepner Walkabout234</masterclipid>
									<logginginfo>
										<scene/>
										<shottake/>
										<lognote/>
										<good>FALSE</good>
									</logginginfo>
									<labels>
										<label2/>
									</labels>
									<comments>
										<mastercomment1/>
										<mastercomment2/>
										<mastercomment3/>
										<mastercomment4/>
									</comments>
									<file id="YIN_2013-05-28_LG-4 "/>
									<sourcetrack>
										<mediatype>video</mediatype>
									</sourcetrack>
									<link>
										<linkclipref>Raw Scene Matthew Duepner Walkabout370</linkclipref>
										<mediatype>video</mediatype>
										<trackindex>2</trackindex>
										<clipindex>14</clipindex>
									</link>
									<link>
										<linkclipref>Raw Scene Matthew Duepner Walkabout371</linkclipref>
										<mediatype>audio</mediatype>
										<trackindex>3</trackindex>
										<clipindex>14</clipindex>
										<groupindex>1</groupindex>
									</link>
									<link>
										<linkclipref>Raw Scene Matthew Duepner Walkabout372</linkclipref>
										<mediatype>audio</mediatype>
										<trackindex>4</trackindex>
										<clipindex>14</clipindex>
										<groupindex>1</groupindex>
									</link>
									<fielddominance>none</fielddominance>
									<itemhistory>
										<uuid>CC69D461-7BD4-437F-82D0-F922B2B93DDA</uuid>
									</itemhistory>
								</clipitem>
								<clipitem id="Raw B Roll Hack Manhattan">
									<name>Raw B Roll Hack Manhattan</name>
									<duration>11548</duration>
									<rate>
										<ntsc>TRUE</ntsc>
										<timebase>24</timebase>
									</rate>
									<in>10287</in>
									<out>10364</out>
									<start>5822</start>
									<end>5899</end>
									<pixelaspectratio>Square</pixelaspectratio>
									<anamorphic>FALSE</anamorphic>
									<alphatype>black</alphatype>
									<masterclipid>Raw B Roll Hack Manhattan1</masterclipid>
									<logginginfo>
										<scene/>
										<shottake/>
										<lognote/>
										<good>FALSE</good>
									</logginginfo>
									<labels>
										<label2/>
									</labels>
									<comments>
										<mastercomment1/>
										<mastercomment2/>
										<mastercomment3/>
										<mastercomment4/>
									</comments>
									<file id="YIN_2013-05-28_LG-2 ">
										<name>YIN_2013-05-28_LG-2.mov</name>
										<pathurl>file://localhost/Volumes/Curiouser%2010cc/Curiouser/Video/Active/Your%20Input%20Needed/Produced%20assets/Offline/Curiouser/5.13%20NYC/YIN_2013-05-28_LG-2.mov</pathurl>
										<rate>
											<timebase>24</timebase>
											<ntsc>TRUE</ntsc>
										</rate>
										<duration>11548</duration>
										<media>
											<video>
												<duration>11548</duration>
												<samplecharacteristics>
													<width>640</width>
													<height>360</height>
												</samplecharacteristics>
											</video>
											<audio>
												<samplecharacteristics>
													<samplerate>48000</samplerate>
													<depth>32</depth>
												</samplecharacteristics>
												<channelcount>2</channelcount>
											</audio>
										</media>
									</file>
									<sourcetrack>
										<mediatype>video</mediatype>
									</sourcetrack>
									<fielddominance>none</fielddominance>
									<itemhistory>
										<uuid>9A54950F-1A60-4FB9-861F-E925B6C53756</uuid>
									</itemhistory>
								</clipitem>
								<clipitem id="Raw Scene Matthew Duepner Walkabout373">
									<name>Raw Scene Matthew Duepner Walkabout</name>
									<duration>38484</duration>
									<rate>
										<ntsc>TRUE</ntsc>
										<timebase>24</timebase>
									</rate>
									<in>14346</in>
									<out>14612</out>
									<start>5899</start>
									<end>6165</end>
									<pixelaspectratio>Square</pixelaspectratio>
									<anamorphic>FALSE</anamorphic>
									<alphatype>black</alphatype>
									<masterclipid>Raw Scene Matthew Duepner Walkabout234</masterclipid>
									<logginginfo>
										<scene/>
										<shottake/>
										<lognote/>
										<good>FALSE</good>
									</logginginfo>
									<labels>
										<label2/>
									</labels>
									<comments>
										<mastercomment1/>
										<mastercomment2/>
										<mastercomment3/>
										<mastercomment4/>
									</comments>
									<file id="YIN_2013-05-28_LG-4 "/>
									<sourcetrack>
										<mediatype>video</mediatype>
									</sourcetrack>
									<link>
										<linkclipref>Raw Scene Matthew Duepner Walkabout373</linkclipref>
										<mediatype>video</mediatype>
										<trackindex>2</trackindex>
										<clipindex>16</clipindex>
									</link>
									<link>
										<linkclipref>Raw Scene Matthew Duepner Walkabout374</linkclipref>
										<mediatype>audio</mediatype>
										<trackindex>3</trackindex>
										<clipindex>15</clipindex>
										<groupindex>1</groupindex>
									</link>
									<link>
										<linkclipref>Raw Scene Matthew Duepner Walkabout375</linkclipref>
										<mediatype>audio</mediatype>
										<trackindex>4</trackindex>
										<clipindex>15</clipindex>
										<groupindex>1</groupindex>
									</link>
									<fielddominance>none</fielddominance>
									<itemhistory>
										<uuid>C137CF10-0DA0-450B-AB4D-B7C45A73F203</uuid>
									</itemhistory>
								</clipitem>
								<clipitem id="Raw B Roll Hack Manhattan2">
									<name>Raw B Roll Hack Manhattan</name>
									<duration>11548</duration>
									<rate>
										<ntsc>TRUE</ntsc>
										<timebase>24</timebase>
									</rate>
									<in>1732</in>
									<out>1801</out>
									<start>6165</start>
									<end>6234</end>
									<pixelaspectratio>Square</pixelaspectratio>
									<anamorphic>FALSE</anamorphic>
									<alphatype>black</alphatype>
									<masterclipid>Raw B Roll Hack Manhattan1</masterclipid>
									<logginginfo>
										<scene/>
										<shottake/>
										<lognote/>
										<good>FALSE</good>
									</logginginfo>
									<labels>
										<label2/>
									</labels>
									<comments>
										<mastercomment1/>
										<mastercomment2/>
										<mastercomment3/>
										<mastercomment4/>
									</comments>
									<file id="YIN_2013-05-28_LG-2 "/>
									<sourcetrack>
										<mediatype>video</mediatype>
									</sourcetrack>
									<fielddominance>none</fielddominance>
									<itemhistory>
										<uuid>74558E38-01B9-4DEB-8B1C-BD3B6A1CA6D7</uuid>
									</itemhistory>
								</clipitem>
								<clipitem id="Raw B Roll Hack Manhattan3">
									<name>Raw B Roll Hack Manhattan</name>
									<duration>11548</duration>
									<rate>
										<ntsc>TRUE</ntsc>
										<timebase>24</timebase>
									</rate>
									<in>3715</in>
									<out>3737</out>
									<start>6234</start>
									<end>6256</end>
									<pixelaspectratio>Square</pixelaspectratio>
									<anamorphic>FALSE</anamorphic>
									<alphatype>black</alphatype>
									<masterclipid>Raw B Roll Hack Manhattan1</masterclipid>
									<logginginfo>
										<scene/>
										<shottake/>
										<lognote/>
										<good>FALSE</good>
									</logginginfo>
									<labels>
										<label2/>
									</labels>
									<comments>
										<mastercomment1/>
										<mastercomment2/>
										<mastercomment3/>
										<mastercomment4/>
									</comments>
									<file id="YIN_2013-05-28_LG-2 "/>
									<sourcetrack>
										<mediatype>video</mediatype>
									</sourcetrack>
									<fielddominance>none</fielddominance>
									<itemhistory>
										<uuid>2E905517-7727-4B88-A7AE-70B3925BB27F</uuid>
									</itemhistory>
								</clipitem>
								<clipitem id="Raw Scene Matthew Duepner Walkabout376">
									<name>Raw Scene Matthew Duepner Walkabout</name>
									<duration>38484</duration>
									<rate>
										<ntsc>TRUE</ntsc>
										<timebase>24</timebase>
									</rate>
									<in>17386</in>
									<out>17787</out>
									<start>6256</start>
									<end>6657</end>
									<pixelaspectratio>Square</pixelaspectratio>
									<anamorphic>FALSE</anamorphic>
									<alphatype>black</alphatype>
									<masterclipid>Raw Scene Matthew Duepner Walkabout234</masterclipid>
									<logginginfo>
										<scene/>
										<shottake/>
										<lognote/>
										<good>FALSE</good>
									</logginginfo>
									<labels>
										<label2/>
									</labels>
									<comments>
										<mastercomment1/>
										<mastercomment2/>
										<mastercomment3/>
										<mastercomment4/>
									</comments>
									<file id="YIN_2013-05-28_LG-4 "/>
									<sourcetrack>
										<mediatype>video</mediatype>
									</sourcetrack>
									<link>
										<linkclipref>Raw Scene Matthew Duepner Walkabout376</linkclipref>
										<mediatype>video</mediatype>
										<trackindex>2</trackindex>
										<clipindex>19</clipindex>
									</link>
									<link>
										<linkclipref>Raw Scene Matthew Duepner Walkabout377</linkclipref>
										<mediatype>audio</mediatype>
										<trackindex>3</trackindex>
										<clipindex>16</clipindex>
										<groupindex>1</groupindex>
									</link>
									<link>
										<linkclipref>Raw Scene Matthew Duepner Walkabout378</linkclipref>
										<mediatype>audio</mediatype>
										<trackindex>4</trackindex>
										<clipindex>16</clipindex>
										<groupindex>1</groupindex>
									</link>
									<fielddominance>none</fielddominance>
									<itemhistory>
										<uuid>5CC6DC77-CFB9-474D-8970-00FE4144A49C</uuid>
									</itemhistory>
								</clipitem>
								<clipitem id="Raw Scene Matthew Duepner Walkabout379">
									<name>Raw Scene Matthew Duepner Walkabout</name>
									<duration>38484</duration>
									<rate>
										<ntsc>TRUE</ntsc>
										<timebase>24</timebase>
									</rate>
									<in>24096</in>
									<out>24172</out>
									<start>7631</start>
									<end>7707</end>
									<pixelaspectratio>Square</pixelaspectratio>
									<anamorphic>FALSE</anamorphic>
									<alphatype>black</alphatype>
									<masterclipid>Raw Scene Matthew Duepner Walkabout234</masterclipid>
									<logginginfo>
										<scene/>
										<shottake/>
										<lognote/>
										<good>FALSE</good>
									</logginginfo>
									<labels>
										<label2/>
									</labels>
									<comments>
										<mastercomment1/>
										<mastercomment2/>
										<mastercomment3/>
										<mastercomment4/>
									</comments>
									<file id="YIN_2013-05-28_LG-4 "/>
									<sourcetrack>
										<mediatype>video</mediatype>
									</sourcetrack>
									<fielddominance>none</fielddominance>
									<itemhistory>
										<uuid>4B2D5FEB-78B7-4431-ACBB-B625B229A349</uuid>
									</itemhistory>
								</clipitem>
								<clipitem id="Raw Scene Matthew Duepner Walkabout380">
									<name>Raw Scene Matthew Duepner Walkabout</name>
									<duration>38484</duration>
									<rate>
										<ntsc>TRUE</ntsc>
										<timebase>24</timebase>
									</rate>
									<in>24613</in>
									<out>24763</out>
									<start>7707</start>
									<end>7857</end>
									<pixelaspectratio>Square</pixelaspectratio>
									<anamorphic>FALSE</anamorphic>
									<alphatype>black</alphatype>
									<masterclipid>Raw Scene Matthew Duepner Walkabout234</masterclipid>
									<logginginfo>
										<scene/>
										<shottake/>
										<lognote/>
										<good>FALSE</good>
									</logginginfo>
									<labels>
										<label2/>
									</labels>
									<comments>
										<mastercomment1/>
										<mastercomment2/>
										<mastercomment3/>
										<mastercomment4/>
									</comments>
									<file id="YIN_2013-05-28_LG-4 "/>
									<sourcetrack>
										<mediatype>video</mediatype>
									</sourcetrack>
									<fielddominance>none</fielddominance>
									<itemhistory>
										<uuid>170918F8-05DF-4B32-A35E-821FCA0FD5C1</uuid>
									</itemhistory>
								</clipitem>
								<clipitem id="Raw Scene Matthew Duepner Walkabout381">
									<name>Raw Scene Matthew Duepner Walkabout</name>
									<duration>38484</duration>
									<rate>
										<ntsc>TRUE</ntsc>
										<timebase>24</timebase>
									</rate>
									<in>27835</in>
									<out>28316</out>
									<start>7857</start>
									<end>8338</end>
									<pixelaspectratio>Square</pixelaspectratio>
									<anamorphic>FALSE</anamorphic>
									<alphatype>black</alphatype>
									<masterclipid>Raw Scene Matthew Duepner Walkabout234</masterclipid>
									<logginginfo>
										<scene/>
										<shottake/>
										<lognote/>
										<good>FALSE</good>
									</logginginfo>
									<labels>
										<label2/>
									</labels>
									<comments>
										<mastercomment1/>
										<mastercomment2/>
										<mastercomment3/>
										<mastercomment4/>
									</comments>
									<file id="YIN_2013-05-28_LG-4 "/>
									<sourcetrack>
										<mediatype>video</mediatype>
									</sourcetrack>
									<link>
										<linkclipref>Raw Scene Matthew Duepner Walkabout381</linkclipref>
										<mediatype>video</mediatype>
										<trackindex>2</trackindex>
										<clipindex>22</clipindex>
									</link>
									<link>
										<linkclipref>Raw Scene Matthew Duepner Walkabout382</linkclipref>
										<mediatype>audio</mediatype>
										<trackindex>3</trackindex>
										<clipindex>17</clipindex>
										<groupindex>1</groupindex>
									</link>
									<link>
										<linkclipref>Raw Scene Matthew Duepner Walkabout383</linkclipref>
										<mediatype>audio</mediatype>
										<trackindex>4</trackindex>
										<clipindex>17</clipindex>
										<groupindex>1</groupindex>
									</link>
									<fielddominance>none</fielddominance>
									<itemhistory>
										<uuid>718D1BB9-4D46-4761-9376-57CE87DABE1E</uuid>
									</itemhistory>
								</clipitem>
								<clipitem id="Raw B Roll Hack Manhattan Matthew Duepner's House109">
									<name>Raw B Roll Hack Manhattan Matthew Duepner's House</name>
									<duration>6617</duration>
									<rate>
										<ntsc>TRUE</ntsc>
										<timebase>24</timebase>
									</rate>
									<in>133</in>
									<out>224</out>
									<start>8848</start>
									<end>8939</end>
									<pixelaspectratio>Square</pixelaspectratio>
									<anamorphic>FALSE</anamorphic>
									<alphatype>black</alphatype>
									<masterclipid>Raw B Roll Hack Manhattan Matthew Duepner's House1</masterclipid>
									<logginginfo>
										<scene/>
										<shottake/>
										<lognote/>
										<good>FALSE</good>
									</logginginfo>
									<labels>
										<label2/>
									</labels>
									<comments>
										<mastercomment1/>
										<mastercomment2/>
										<mastercomment3/>
										<mastercomment4/>
									</comments>
									<file id="YIN_2013-04-28_JB-1 "/>
									<sourcetrack>
										<mediatype>video</mediatype>
									</sourcetrack>
									<fielddominance>none</fielddominance>
									<itemhistory>
										<uuid>51E81514-E5C8-422E-926D-17387C35AB59</uuid>
									</itemhistory>
								</clipitem>
								<clipitem id="Raw Scene Matthew Duepner Walkabout384">
									<name>Raw Scene Matthew Duepner Walkabout</name>
									<duration>38484</duration>
									<rate>
										<ntsc>TRUE</ntsc>
										<timebase>24</timebase>
									</rate>
									<in>15005</in>
									<out>15091</out>
									<start>8939</start>
									<end>9025</end>
									<pixelaspectratio>Square</pixelaspectratio>
									<anamorphic>FALSE</anamorphic>
									<alphatype>black</alphatype>
									<masterclipid>Raw Scene Matthew Duepner Walkabout234</masterclipid>
									<logginginfo>
										<scene/>
										<shottake/>
										<lognote/>
										<good>FALSE</good>
									</logginginfo>
									<labels>
										<label2/>
									</labels>
									<comments>
										<mastercomment1/>
										<mastercomment2/>
										<mastercomment3/>
										<mastercomment4/>
									</comments>
									<file id="YIN_2013-05-28_LG-4 "/>
									<sourcetrack>
										<mediatype>video</mediatype>
									</sourcetrack>
									<link>
										<linkclipref>Raw Scene Matthew Duepner Walkabout384</linkclipref>
										<mediatype>video</mediatype>
										<trackindex>2</trackindex>
										<clipindex>24</clipindex>
									</link>
									<link>
										<linkclipref>Raw Scene Matthew Duepner Walkabout385</linkclipref>
										<mediatype>audio</mediatype>
										<trackindex>3</trackindex>
										<clipindex>18</clipindex>
										<groupindex>1</groupindex>
									</link>
									<link>
										<linkclipref>Raw Scene Matthew Duepner Walkabout386</linkclipref>
										<mediatype>audio</mediatype>
										<trackindex>4</trackindex>
										<clipindex>18</clipindex>
										<groupindex>1</groupindex>
									</link>
									<fielddominance>none</fielddominance>
									<itemhistory>
										<uuid>FF80623B-32FB-4B10-B2C4-11495901DB5C</uuid>
									</itemhistory>
								</clipitem>
								<clipitem id="Raw Scene Matthew Duepner Printing119">
									<name>Raw Scene Matthew Duepner Printing</name>
									<duration>28553</duration>
									<rate>
										<ntsc>TRUE</ntsc>
										<timebase>24</timebase>
									</rate>
									<in>7849</in>
									<out>7967</out>
									<start>10693</start>
									<end>10811</end>
									<pixelaspectratio>Square</pixelaspectratio>
									<anamorphic>FALSE</anamorphic>
									<alphatype>black</alphatype>
									<masterclipid>Raw Scene Matthew Duepner Printing72</masterclipid>
									<logginginfo>
										<scene/>
										<shottake/>
										<lognote/>
										<good>FALSE</good>
									</logginginfo>
									<labels>
										<label2/>
									</labels>
									<comments>
										<mastercomment1/>
										<mastercomment2/>
										<mastercomment3/>
										<mastercomment4/>
									</comments>
									<file id="YIN_2013-05-28_LG-6 "/>
									<sourcetrack>
										<mediatype>video</mediatype>
									</sourcetrack>
									<link>
										<linkclipref>Raw Scene Matthew Duepner Printing119</linkclipref>
										<mediatype>video</mediatype>
										<trackindex>2</trackindex>
										<clipindex>25</clipindex>
									</link>
									<link>
										<linkclipref>Raw Scene Matthew Duepner Printing120</linkclipref>
										<mediatype>audio</mediatype>
										<trackindex>3</trackindex>
										<clipindex>19</clipindex>
										<groupindex>1</groupindex>
									</link>
									<link>
										<linkclipref>Raw Scene Matthew Duepner Printing121</linkclipref>
										<mediatype>audio</mediatype>
										<trackindex>4</trackindex>
										<clipindex>19</clipindex>
										<groupindex>1</groupindex>
									</link>
									<fielddominance>none</fielddominance>
									<itemhistory>
										<uuid>FF264BD9-4E67-4D6A-B439-F9FDA64DBDB8</uuid>
									</itemhistory>
								</clipitem>
								<clipitem id="Raw Scene Matthew Duepner Printing122">
									<name>Raw Scene Matthew Duepner Printing</name>
									<duration>28553</duration>
									<rate>
										<ntsc>TRUE</ntsc>
										<timebase>24</timebase>
									</rate>
									<in>8107</in>
									<out>8235</out>
									<start>10811</start>
									<end>10939</end>
									<pixelaspectratio>Square</pixelaspectratio>
									<anamorphic>FALSE</anamorphic>
									<alphatype>black</alphatype>
									<masterclipid>Raw Scene Matthew Duepner Printing72</masterclipid>
									<logginginfo>
										<scene/>
										<shottake/>
										<lognote/>
										<good>FALSE</good>
									</logginginfo>
									<labels>
										<label2/>
									</labels>
									<comments>
										<mastercomment1/>
										<mastercomment2/>
										<mastercomment3/>
										<mastercomment4/>
									</comments>
									<file id="YIN_2013-05-28_LG-6 "/>
									<sourcetrack>
										<mediatype>video</mediatype>
									</sourcetrack>
									<link>
										<linkclipref>Raw Scene Matthew Duepner Printing122</linkclipref>
										<mediatype>video</mediatype>
										<trackindex>2</trackindex>
										<clipindex>26</clipindex>
									</link>
									<link>
										<linkclipref>Raw Scene Matthew Duepner Printing123</linkclipref>
										<mediatype>audio</mediatype>
										<trackindex>3</trackindex>
										<clipindex>20</clipindex>
										<groupindex>1</groupindex>
									</link>
									<link>
										<linkclipref>Raw Scene Matthew Duepner Printing124</linkclipref>
										<mediatype>audio</mediatype>
										<trackindex>4</trackindex>
										<clipindex>20</clipindex>
										<groupindex>1</groupindex>
									</link>
									<fielddominance>none</fielddominance>
									<itemhistory>
										<uuid>8E926BF1-9C8F-494D-9A6A-6D1D202F0585</uuid>
									</itemhistory>
								</clipitem>
								<clipitem id="Raw Scene Matthew Duepner House Tour11">
									<name>Raw Scene Matthew Duepner House Tour</name>
									<duration>16257</duration>
									<rate>
										<ntsc>TRUE</ntsc>
										<timebase>24</timebase>
									</rate>
									<in>4383</in>
									<out>4481</out>
									<start>11146</start>
									<end>11244</end>
									<pixelaspectratio>Square</pixelaspectratio>
									<anamorphic>FALSE</anamorphic>
									<alphatype>black</alphatype>
									<masterclipid>Raw Scene Matthew Duepner House Tour</masterclipid>
									<logginginfo>
										<scene/>
										<shottake/>
										<lognote/>
										<good>FALSE</good>
									</logginginfo>
									<labels>
										<label2/>
									</labels>
									<comments>
										<mastercomment1/>
										<mastercomment2/>
										<mastercomment3/>
										<mastercomment4/>
									</comments>
									<file id="YIN_2013-05-28_LG-3 "/>
									<sourcetrack>
										<mediatype>video</mediatype>
									</sourcetrack>
									<link>
										<linkclipref>Raw Scene Matthew Duepner House Tour11</linkclipref>
										<mediatype>video</mediatype>
										<trackindex>2</trackindex>
										<clipindex>27</clipindex>
									</link>
									<link>
										<linkclipref>Raw Scene Matthew Duepner House Tour12</linkclipref>
										<mediatype>audio</mediatype>
										<trackindex>3</trackindex>
										<clipindex>21</clipindex>
										<groupindex>1</groupindex>
									</link>
									<link>
										<linkclipref>Raw Scene Matthew Duepner House Tour13</linkclipref>
										<mediatype>audio</mediatype>
										<trackindex>4</trackindex>
										<clipindex>21</clipindex>
										<groupindex>1</groupindex>
									</link>
									<fielddominance>none</fielddominance>
									<itemhistory>
										<uuid>F3EA0D9C-8619-47BB-993E-99A026193451</uuid>
									</itemhistory>
								</clipitem>
								<clipitem id="Raw Scene Matthew Duepner House Tour14">
									<name>Raw Scene Matthew Duepner House Tour</name>
									<duration>16257</duration>
									<rate>
										<ntsc>TRUE</ntsc>
										<timebase>24</timebase>
									</rate>
									<in>6030</in>
									<out>6334</out>
									<start>11244</start>
									<end>11548</end>
									<pixelaspectratio>Square</pixelaspectratio>
									<anamorphic>FALSE</anamorphic>
									<alphatype>black</alphatype>
									<masterclipid>Raw Scene Matthew Duepner House Tour</masterclipid>
									<logginginfo>
										<scene/>
										<shottake/>
										<lognote/>
										<good>FALSE</good>
									</logginginfo>
									<labels>
										<label2/>
									</labels>
									<comments>
										<mastercomment1/>
										<mastercomment2/>
										<mastercomment3/>
										<mastercomment4/>
									</comments>
									<file id="YIN_2013-05-28_LG-3 "/>
									<sourcetrack>
										<mediatype>video</mediatype>
									</sourcetrack>
									<link>
										<linkclipref>Raw Scene Matthew Duepner House Tour14</linkclipref>
										<mediatype>video</mediatype>
										<trackindex>2</trackindex>
										<clipindex>28</clipindex>
									</link>
									<link>
										<linkclipref>Raw Scene Matthew Duepner House Tour15</linkclipref>
										<mediatype>audio</mediatype>
										<trackindex>3</trackindex>
										<clipindex>22</clipindex>
										<groupindex>1</groupindex>
									</link>
									<link>
										<linkclipref>Raw Scene Matthew Duepner House Tour16</linkclipref>
										<mediatype>audio</mediatype>
										<trackindex>4</trackindex>
										<clipindex>22</clipindex>
										<groupindex>1</groupindex>
									</link>
									<fielddominance>none</fielddominance>
									<itemhistory>
										<uuid>28F892B8-485B-43F1-BD50-98DBE6EBE80A</uuid>
									</itemhistory>
								</clipitem>
								<enabled>TRUE</enabled>
								<locked>FALSE</locked>
							</track>
						</video>
						<audio>
							<format>
								<samplecharacteristics>
									<depth>16</depth>
									<samplerate>48000</samplerate>
								</samplecharacteristics>
							</format>
							<outputs>
								<group>
									<index>1</index>
									<numchannels>1</numchannels>
									<downmix>0</downmix>
									<channel>
										<index>1</index>
									</channel>
								</group>
								<group>
									<index>2</index>
									<numchannels>1</numchannels>
									<downmix>0</downmix>
									<channel>
										<index>2</index>
									</channel>
								</group>
							</outputs>
							<in>-1</in>
							<out>-1</out>
							<track>
								<clipitem id="Raw Interview Matthew Duepner557">
									<name>Raw Interview Matthew Duepner</name>
									<duration>81486</duration>
									<rate>
										<ntsc>TRUE</ntsc>
										<timebase>24</timebase>
									</rate>
									<in>292</in>
									<out>693</out>
									<start>970</start>
									<end>1371</end>
									<masterclipid>Raw Interview Matthew Duepner390</masterclipid>
									<logginginfo>
										<scene/>
										<shottake/>
										<lognote/>
										<good>FALSE</good>
									</logginginfo>
									<labels>
										<label2/>
									</labels>
									<comments>
										<mastercomment1/>
										<mastercomment2/>
										<mastercomment3/>
										<mastercomment4/>
									</comments>
									<file id="YIN_2013-05-28_LG-5 "/>
									<filter>
										<effect>
											<name>Audio Levels</name>
											<effectid>audiolevels</effectid>
											<effectcategory>audiolevels</effectcategory>
											<effecttype>audiolevels</effecttype>
											<mediatype>audio</mediatype>
											<parameter>
												<name>Level</name>
												<parameterid>level</parameterid>
												<valuemin>0</valuemin>
												<valuemax>3.98109</valuemax>
												<value>1</value>
											</parameter>
										</effect>
									</filter>
									<filter>
										<effect>
											<name>Audio Pan</name>
											<effectid>audiopan</effectid>
											<effectcategory>audiopan</effectcategory>
											<effecttype>audiopan</effecttype>
											<mediatype>audio</mediatype>
											<parameter>
												<name>Pan</name>
												<parameterid>pan</parameterid>
												<valuemin>-1</valuemin>
												<valuemax>1</valuemax>
												<value>0</value>
											</parameter>
										</effect>
									</filter>
									<sourcetrack>
										<mediatype>audio</mediatype>
										<trackindex>1</trackindex>
									</sourcetrack>
									<link>
										<linkclipref>Raw Interview Matthew Duepner556</linkclipref>
										<mediatype>video</mediatype>
										<trackindex>1</trackindex>
										<clipindex>1</clipindex>
									</link>
									<link>
										<linkclipref>Raw Interview Matthew Duepner557</linkclipref>
										<mediatype>audio</mediatype>
										<trackindex>1</trackindex>
										<clipindex>1</clipindex>
										<groupindex>1</groupindex>
									</link>
									<link>
										<linkclipref>Raw Interview Matthew Duepner558</linkclipref>
										<mediatype>audio</mediatype>
										<trackindex>2</trackindex>
										<clipindex>1</clipindex>
										<groupindex>1</groupindex>
									</link>
									<itemhistory>
										<uuid>5B0143D0-09C3-49B0-9B94-724598948184</uuid>
									</itemhistory>
								</clipitem>
								<clipitem id="Raw Interview Matthew Duepner560">
									<name>Raw Interview Matthew Duepner</name>
									<duration>81486</duration>
									<rate>
										<ntsc>TRUE</ntsc>
										<timebase>24</timebase>
									</rate>
									<in>28230</in>
									<out>28664</out>
									<start>2037</start>
									<end>2471</end>
									<masterclipid>Raw Interview Matthew Duepner390</masterclipid>
									<logginginfo>
										<scene/>
										<shottake/>
										<lognote/>
										<good>FALSE</good>
									</logginginfo>
									<labels>
										<label2/>
									</labels>
									<comments>
										<mastercomment1/>
										<mastercomment2/>
										<mastercomment3/>
										<mastercomment4/>
									</comments>
									<file id="YIN_2013-05-28_LG-5 "/>
									<filter>
										<effect>
											<name>Audio Levels</name>
											<effectid>audiolevels</effectid>
											<effectcategory>audiolevels</effectcategory>
											<effecttype>audiolevels</effecttype>
											<mediatype>audio</mediatype>
											<parameter>
												<name>Level</name>
												<parameterid>level</parameterid>
												<valuemin>0</valuemin>
												<valuemax>3.98109</valuemax>
												<value>1</value>
											</parameter>
										</effect>
									</filter>
									<filter>
										<effect>
											<name>Audio Pan</name>
											<effectid>audiopan</effectid>
											<effectcategory>audiopan</effectcategory>
											<effecttype>audiopan</effecttype>
											<mediatype>audio</mediatype>
											<parameter>
												<name>Pan</name>
												<parameterid>pan</parameterid>
												<valuemin>-1</valuemin>
												<valuemax>1</valuemax>
												<value>0</value>
											</parameter>
										</effect>
									</filter>
									<sourcetrack>
										<mediatype>audio</mediatype>
										<trackindex>1</trackindex>
									</sourcetrack>
									<link>
										<linkclipref>Raw Interview Matthew Duepner559</linkclipref>
										<mediatype>video</mediatype>
										<trackindex>1</trackindex>
										<clipindex>2</clipindex>
									</link>
									<link>
										<linkclipref>Raw Interview Matthew Duepner560</linkclipref>
										<mediatype>audio</mediatype>
										<trackindex>1</trackindex>
										<clipindex>2</clipindex>
										<groupindex>1</groupindex>
									</link>
									<link>
										<linkclipref>Raw Interview Matthew Duepner561</linkclipref>
										<mediatype>audio</mediatype>
										<trackindex>2</trackindex>
										<clipindex>2</clipindex>
										<groupindex>1</groupindex>
									</link>
									<itemhistory>
										<uuid>32EC7C3E-6E1E-4BB8-85A8-8D737ECAB456</uuid>
									</itemhistory>
								</clipitem>
								<clipitem id="Raw Interview Matthew Duepner563">
									<name>Raw Interview Matthew Duepner</name>
									<duration>81486</duration>
									<rate>
										<ntsc>TRUE</ntsc>
										<timebase>24</timebase>
									</rate>
									<in>6715</in>
									<out>7282</out>
									<start>2822</start>
									<end>3389</end>
									<masterclipid>Raw Interview Matthew Duepner390</masterclipid>
									<logginginfo>
										<scene/>
										<shottake/>
										<lognote/>
										<good>FALSE</good>
									</logginginfo>
									<labels>
										<label2/>
									</labels>
									<comments>
										<mastercomment1/>
										<mastercomment2/>
										<mastercomment3/>
										<mastercomment4/>
									</comments>
									<file id="YIN_2013-05-28_LG-5 "/>
									<filter>
										<effect>
											<name>Audio Levels</name>
											<effectid>audiolevels</effectid>
											<effectcategory>audiolevels</effectcategory>
											<effecttype>audiolevels</effecttype>
											<mediatype>audio</mediatype>
											<parameter>
												<name>Level</name>
												<parameterid>level</parameterid>
												<valuemin>0</valuemin>
												<valuemax>3.98109</valuemax>
												<value>1</value>
											</parameter>
										</effect>
									</filter>
									<filter>
										<effect>
											<name>Audio Pan</name>
											<effectid>audiopan</effectid>
											<effectcategory>audiopan</effectcategory>
											<effecttype>audiopan</effecttype>
											<mediatype>audio</mediatype>
											<parameter>
												<name>Pan</name>
												<parameterid>pan</parameterid>
												<valuemin>-1</valuemin>
												<valuemax>1</valuemax>
												<value>0</value>
											</parameter>
										</effect>
									</filter>
									<sourcetrack>
										<mediatype>audio</mediatype>
										<trackindex>1</trackindex>
									</sourcetrack>
									<link>
										<linkclipref>Raw Interview Matthew Duepner562</linkclipref>
										<mediatype>video</mediatype>
										<trackindex>1</trackindex>
										<clipindex>3</clipindex>
									</link>
									<link>
										<linkclipref>Raw Interview Matthew Duepner563</linkclipref>
										<mediatype>audio</mediatype>
										<trackindex>1</trackindex>
										<clipindex>3</clipindex>
										<groupindex>1</groupindex>
									</link>
									<link>
										<linkclipref>Raw Interview Matthew Duepner564</linkclipref>
										<mediatype>audio</mediatype>
										<trackindex>2</trackindex>
										<clipindex>3</clipindex>
										<groupindex>1</groupindex>
									</link>
									<itemhistory>
										<uuid>1913A3D1-6FFB-4EB2-87D7-C0C4AAE4AD94</uuid>
									</itemhistory>
								</clipitem>
								<clipitem id="Raw Interview Matthew Duepner566">
									<name>Raw Interview Matthew Duepner</name>
									<duration>81486</duration>
									<rate>
										<ntsc>TRUE</ntsc>
										<timebase>24</timebase>
									</rate>
									<in>7350</in>
									<out>7384</out>
									<start>3703</start>
									<end>3737</end>
									<masterclipid>Raw Interview Matthew Duepner390</masterclipid>
									<logginginfo>
										<scene/>
										<shottake/>
										<lognote/>
										<good>FALSE</good>
									</logginginfo>
									<labels>
										<label2/>
									</labels>
									<comments>
										<mastercomment1/>
										<mastercomment2/>
										<mastercomment3/>
										<mastercomment4/>
									</comments>
									<file id="YIN_2013-05-28_LG-5 "/>
									<filter>
										<effect>
											<name>Audio Levels</name>
											<effectid>audiolevels</effectid>
											<effectcategory>audiolevels</effectcategory>
											<effecttype>audiolevels</effecttype>
											<mediatype>audio</mediatype>
											<parameter>
												<name>Level</name>
												<parameterid>level</parameterid>
												<valuemin>0</valuemin>
												<valuemax>3.98109</valuemax>
												<value>1</value>
											</parameter>
										</effect>
									</filter>
									<filter>
										<effect>
											<name>Audio Pan</name>
											<effectid>audiopan</effectid>
											<effectcategory>audiopan</effectcategory>
											<effecttype>audiopan</effecttype>
											<mediatype>audio</mediatype>
											<parameter>
												<name>Pan</name>
												<parameterid>pan</parameterid>
												<valuemin>-1</valuemin>
												<valuemax>1</valuemax>
												<value>0</value>
											</parameter>
										</effect>
									</filter>
									<sourcetrack>
										<mediatype>audio</mediatype>
										<trackindex>1</trackindex>
									</sourcetrack>
									<link>
										<linkclipref>Raw Interview Matthew Duepner565</linkclipref>
										<mediatype>video</mediatype>
										<trackindex>1</trackindex>
										<clipindex>4</clipindex>
									</link>
									<link>
										<linkclipref>Raw Interview Matthew Duepner566</linkclipref>
										<mediatype>audio</mediatype>
										<trackindex>1</trackindex>
										<clipindex>4</clipindex>
										<groupindex>1</groupindex>
									</link>
									<link>
										<linkclipref>Raw Interview Matthew Duepner567</linkclipref>
										<mediatype>audio</mediatype>
										<trackindex>2</trackindex>
										<clipindex>4</clipindex>
										<groupindex>1</groupindex>
									</link>
									<itemhistory>
										<uuid>2B3B5FB3-20C1-4D47-A8F3-955858A6D3BC</uuid>
									</itemhistory>
								</clipitem>
								<clipitem id="Raw Interview Matthew Duepner569">
									<name>Raw Interview Matthew Duepner</name>
									<duration>81486</duration>
									<rate>
										<ntsc>TRUE</ntsc>
										<timebase>24</timebase>
									</rate>
									<in>7390</in>
									<out>7639</out>
									<start>3737</start>
									<end>3986</end>
									<masterclipid>Raw Interview Matthew Duepner390</masterclipid>
									<logginginfo>
										<scene/>
										<shottake/>
										<lognote/>
										<good>FALSE</good>
									</logginginfo>
									<labels>
										<label2/>
									</labels>
									<comments>
										<mastercomment1/>
										<mastercomment2/>
										<mastercomment3/>
										<mastercomment4/>
									</comments>
									<file id="YIN_2013-05-28_LG-5 "/>
									<filter>
										<effect>
											<name>Audio Levels</name>
											<effectid>audiolevels</effectid>
											<effectcategory>audiolevels</effectcategory>
											<effecttype>audiolevels</effecttype>
											<mediatype>audio</mediatype>
											<parameter>
												<name>Level</name>
												<parameterid>level</parameterid>
												<valuemin>0</valuemin>
												<valuemax>3.98109</valuemax>
												<value>1</value>
											</parameter>
										</effect>
									</filter>
									<filter>
										<effect>
											<name>Audio Pan</name>
											<effectid>audiopan</effectid>
											<effectcategory>audiopan</effectcategory>
											<effecttype>audiopan</effecttype>
											<mediatype>audio</mediatype>
											<parameter>
												<name>Pan</name>
												<parameterid>pan</parameterid>
												<valuemin>-1</valuemin>
												<valuemax>1</valuemax>
												<value>0</value>
											</parameter>
										</effect>
									</filter>
									<sourcetrack>
										<mediatype>audio</mediatype>
										<trackindex>1</trackindex>
									</sourcetrack>
									<link>
										<linkclipref>Raw Interview Matthew Duepner568</linkclipref>
										<mediatype>video</mediatype>
										<trackindex>1</trackindex>
										<clipindex>5</clipindex>
									</link>
									<link>
										<linkclipref>Raw Interview Matthew Duepner569</linkclipref>
										<mediatype>audio</mediatype>
										<trackindex>1</trackindex>
										<clipindex>5</clipindex>
										<groupindex>1</groupindex>
									</link>
									<link>
										<linkclipref>Raw Interview Matthew Duepner570</linkclipref>
										<mediatype>audio</mediatype>
										<trackindex>2</trackindex>
										<clipindex>5</clipindex>
										<groupindex>1</groupindex>
									</link>
									<itemhistory>
										<uuid>3C18B2CE-AAF8-48EB-AE1E-E2A1CDA703C8</uuid>
									</itemhistory>
								</clipitem>
								<clipitem id="Raw Interview Matthew Duepner572">
									<name>Raw Interview Matthew Duepner</name>
									<duration>81486</duration>
									<rate>
										<ntsc>TRUE</ntsc>
										<timebase>24</timebase>
									</rate>
									<in>17538</in>
									<out>17582</out>
									<start>4531</start>
									<end>4575</end>
									<masterclipid>Raw Interview Matthew Duepner390</masterclipid>
									<logginginfo>
										<scene/>
										<shottake/>
										<lognote/>
										<good>FALSE</good>
									</logginginfo>
									<labels>
										<label2/>
									</labels>
									<comments>
										<mastercomment1/>
										<mastercomment2/>
										<mastercomment3/>
										<mastercomment4/>
									</comments>
									<file id="YIN_2013-05-28_LG-5 "/>
									<filter>
										<effect>
											<name>Audio Levels</name>
											<effectid>audiolevels</effectid>
											<effectcategory>audiolevels</effectcategory>
											<effecttype>audiolevels</effecttype>
											<mediatype>audio</mediatype>
											<parameter>
												<name>Level</name>
												<parameterid>level</parameterid>
												<valuemin>0</valuemin>
												<valuemax>3.98109</valuemax>
												<value>1</value>
											</parameter>
										</effect>
									</filter>
									<filter>
										<effect>
											<name>Audio Pan</name>
											<effectid>audiopan</effectid>
											<effectcategory>audiopan</effectcategory>
											<effecttype>audiopan</effecttype>
											<mediatype>audio</mediatype>
											<parameter>
												<name>Pan</name>
												<parameterid>pan</parameterid>
												<valuemin>-1</valuemin>
												<valuemax>1</valuemax>
												<value>0</value>
											</parameter>
										</effect>
									</filter>
									<sourcetrack>
										<mediatype>audio</mediatype>
										<trackindex>1</trackindex>
									</sourcetrack>
									<link>
										<linkclipref>Raw Interview Matthew Duepner571</linkclipref>
										<mediatype>video</mediatype>
										<trackindex>1</trackindex>
										<clipindex>6</clipindex>
									</link>
									<link>
										<linkclipref>Raw Interview Matthew Duepner572</linkclipref>
										<mediatype>audio</mediatype>
										<trackindex>1</trackindex>
										<clipindex>6</clipindex>
										<groupindex>1</groupindex>
									</link>
									<link>
										<linkclipref>Raw Interview Matthew Duepner573</linkclipref>
										<mediatype>audio</mediatype>
										<trackindex>2</trackindex>
										<clipindex>6</clipindex>
										<groupindex>1</groupindex>
									</link>
									<itemhistory>
										<uuid>0F1758A9-9CD4-4621-BB24-09CC2C27A8E5</uuid>
									</itemhistory>
								</clipitem>
								<clipitem id="Raw Interview Matthew Duepner575">
									<name>Raw Interview Matthew Duepner</name>
									<duration>81486</duration>
									<rate>
										<ntsc>TRUE</ntsc>
										<timebase>24</timebase>
									</rate>
									<in>17634</in>
									<out>17751</out>
									<start>4575</start>
									<end>4692</end>
									<masterclipid>Raw Interview Matthew Duepner390</masterclipid>
									<logginginfo>
										<scene/>
										<shottake/>
										<lognote/>
										<good>FALSE</good>
									</logginginfo>
									<labels>
										<label2/>
									</labels>
									<comments>
										<mastercomment1/>
										<mastercomment2/>
										<mastercomment3/>
										<mastercomment4/>
									</comments>
									<file id="YIN_2013-05-28_LG-5 "/>
									<filter>
										<effect>
											<name>Audio Levels</name>
											<effectid>audiolevels</effectid>
											<effectcategory>audiolevels</effectcategory>
											<effecttype>audiolevels</effecttype>
											<mediatype>audio</mediatype>
											<parameter>
												<name>Level</name>
												<parameterid>level</parameterid>
												<valuemin>0</valuemin>
												<valuemax>3.98109</valuemax>
												<value>1</value>
											</parameter>
										</effect>
									</filter>
									<filter>
										<effect>
											<name>Audio Pan</name>
											<effectid>audiopan</effectid>
											<effectcategory>audiopan</effectcategory>
											<effecttype>audiopan</effecttype>
											<mediatype>audio</mediatype>
											<parameter>
												<name>Pan</name>
												<parameterid>pan</parameterid>
												<valuemin>-1</valuemin>
												<valuemax>1</valuemax>
												<value>0</value>
											</parameter>
										</effect>
									</filter>
									<sourcetrack>
										<mediatype>audio</mediatype>
										<trackindex>1</trackindex>
									</sourcetrack>
									<link>
										<linkclipref>Raw Interview Matthew Duepner574</linkclipref>
										<mediatype>video</mediatype>
										<trackindex>1</trackindex>
										<clipindex>7</clipindex>
									</link>
									<link>
										<linkclipref>Raw Interview Matthew Duepner575</linkclipref>
										<mediatype>audio</mediatype>
										<trackindex>1</trackindex>
										<clipindex>7</clipindex>
										<groupindex>1</groupindex>
									</link>
									<link>
										<linkclipref>Raw Interview Matthew Duepner576</linkclipref>
										<mediatype>audio</mediatype>
										<trackindex>2</trackindex>
										<clipindex>7</clipindex>
										<groupindex>1</groupindex>
									</link>
									<itemhistory>
										<uuid>5A00ED96-1443-401E-87F6-1BE58618C2D4</uuid>
									</itemhistory>
								</clipitem>
								<clipitem id="Raw Interview Matthew Duepner578">
									<name>Raw Interview Matthew Duepner</name>
									<duration>81486</duration>
									<rate>
										<ntsc>TRUE</ntsc>
										<timebase>24</timebase>
									</rate>
									<in>17812</in>
									<out>17923</out>
									<start>4692</start>
									<end>4803</end>
									<masterclipid>Raw Interview Matthew Duepner390</masterclipid>
									<logginginfo>
										<scene/>
										<shottake/>
										<lognote/>
										<good>FALSE</good>
									</logginginfo>
									<labels>
										<label2/>
									</labels>
									<comments>
										<mastercomment1/>
										<mastercomment2/>
										<mastercomment3/>
										<mastercomment4/>
									</comments>
									<file id="YIN_2013-05-28_LG-5 "/>
									<filter>
										<effect>
											<name>Audio Levels</name>
											<effectid>audiolevels</effectid>
											<effectcategory>audiolevels</effectcategory>
											<effecttype>audiolevels</effecttype>
											<mediatype>audio</mediatype>
											<parameter>
												<name>Level</name>
												<parameterid>level</parameterid>
												<valuemin>0</valuemin>
												<valuemax>3.98109</valuemax>
												<value>1</value>
											</parameter>
										</effect>
									</filter>
									<filter>
										<effect>
											<name>Audio Pan</name>
											<effectid>audiopan</effectid>
											<effectcategory>audiopan</effectcategory>
											<effecttype>audiopan</effecttype>
											<mediatype>audio</mediatype>
											<parameter>
												<name>Pan</name>
												<parameterid>pan</parameterid>
												<valuemin>-1</valuemin>
												<valuemax>1</valuemax>
												<value>0</value>
											</parameter>
										</effect>
									</filter>
									<sourcetrack>
										<mediatype>audio</mediatype>
										<trackindex>1</trackindex>
									</sourcetrack>
									<link>
										<linkclipref>Raw Interview Matthew Duepner577</linkclipref>
										<mediatype>video</mediatype>
										<trackindex>1</trackindex>
										<clipindex>8</clipindex>
									</link>
									<link>
										<linkclipref>Raw Interview Matthew Duepner578</linkclipref>
										<mediatype>audio</mediatype>
										<trackindex>1</trackindex>
										<clipindex>8</clipindex>
										<groupindex>1</groupindex>
									</link>
									<link>
										<linkclipref>Raw Interview Matthew Duepner579</linkclipref>
										<mediatype>audio</mediatype>
										<trackindex>2</trackindex>
										<clipindex>8</clipindex>
										<groupindex>1</groupindex>
									</link>
									<itemhistory>
										<uuid>8D43C4F5-EF2E-46FC-B911-04D6A0E671B1</uuid>
									</itemhistory>
								</clipitem>
								<clipitem id="Raw Interview Matthew Duepner581">
									<name>Raw Interview Matthew Duepner</name>
									<duration>81486</duration>
									<rate>
										<ntsc>TRUE</ntsc>
										<timebase>24</timebase>
									</rate>
									<in>17967</in>
									<out>18351</out>
									<start>4803</start>
									<end>5187</end>
									<masterclipid>Raw Interview Matthew Duepner390</masterclipid>
									<logginginfo>
										<scene/>
										<shottake/>
										<lognote/>
										<good>FALSE</good>
									</logginginfo>
									<labels>
										<label2/>
									</labels>
									<comments>
										<mastercomment1/>
										<mastercomment2/>
										<mastercomment3/>
										<mastercomment4/>
									</comments>
									<file id="YIN_2013-05-28_LG-5 "/>
									<filter>
										<effect>
											<name>Audio Levels</name>
											<effectid>audiolevels</effectid>
											<effectcategory>audiolevels</effectcategory>
											<effecttype>audiolevels</effecttype>
											<mediatype>audio</mediatype>
											<parameter>
												<name>Level</name>
												<parameterid>level</parameterid>
												<valuemin>0</valuemin>
												<valuemax>3.98109</valuemax>
												<value>1</value>
											</parameter>
										</effect>
									</filter>
									<filter>
										<effect>
											<name>Audio Pan</name>
											<effectid>audiopan</effectid>
											<effectcategory>audiopan</effectcategory>
											<effecttype>audiopan</effecttype>
											<mediatype>audio</mediatype>
											<parameter>
												<name>Pan</name>
												<parameterid>pan</parameterid>
												<valuemin>-1</valuemin>
												<valuemax>1</valuemax>
												<value>0</value>
											</parameter>
										</effect>
									</filter>
									<sourcetrack>
										<mediatype>audio</mediatype>
										<trackindex>1</trackindex>
									</sourcetrack>
									<link>
										<linkclipref>Raw Interview Matthew Duepner580</linkclipref>
										<mediatype>video</mediatype>
										<trackindex>1</trackindex>
										<clipindex>9</clipindex>
									</link>
									<link>
										<linkclipref>Raw Interview Matthew Duepner581</linkclipref>
										<mediatype>audio</mediatype>
										<trackindex>1</trackindex>
										<clipindex>9</clipindex>
										<groupindex>1</groupindex>
									</link>
									<link>
										<linkclipref>Raw Interview Matthew Duepner582</linkclipref>
										<mediatype>audio</mediatype>
										<trackindex>2</trackindex>
										<clipindex>9</clipindex>
										<groupindex>1</groupindex>
									</link>
									<itemhistory>
										<uuid>48EE86C3-81F7-4AE5-B25E-BEFEA4B8DA70</uuid>
									</itemhistory>
								</clipitem>
								<clipitem id="Raw Interview Matthew Duepner584">
									<name>Raw Interview Matthew Duepner</name>
									<duration>81486</duration>
									<rate>
										<ntsc>TRUE</ntsc>
										<timebase>24</timebase>
									</rate>
									<in>18523</in>
									<out>19022</out>
									<start>5187</start>
									<end>5686</end>
									<masterclipid>Raw Interview Matthew Duepner390</masterclipid>
									<logginginfo>
										<scene/>
										<shottake/>
										<lognote/>
										<good>FALSE</good>
									</logginginfo>
									<labels>
										<label2/>
									</labels>
									<comments>
										<mastercomment1/>
										<mastercomment2/>
										<mastercomment3/>
										<mastercomment4/>
									</comments>
									<file id="YIN_2013-05-28_LG-5 "/>
									<filter>
										<effect>
											<name>Audio Levels</name>
											<effectid>audiolevels</effectid>
											<effectcategory>audiolevels</effectcategory>
											<effecttype>audiolevels</effecttype>
											<mediatype>audio</mediatype>
											<parameter>
												<name>Level</name>
												<parameterid>level</parameterid>
												<valuemin>0</valuemin>
												<valuemax>3.98109</valuemax>
												<value>1</value>
											</parameter>
										</effect>
									</filter>
									<filter>
										<effect>
											<name>Audio Pan</name>
											<effectid>audiopan</effectid>
											<effectcategory>audiopan</effectcategory>
											<effecttype>audiopan</effecttype>
											<mediatype>audio</mediatype>
											<parameter>
												<name>Pan</name>
												<parameterid>pan</parameterid>
												<valuemin>-1</valuemin>
												<valuemax>1</valuemax>
												<value>0</value>
											</parameter>
										</effect>
									</filter>
									<sourcetrack>
										<mediatype>audio</mediatype>
										<trackindex>1</trackindex>
									</sourcetrack>
									<link>
										<linkclipref>Raw Interview Matthew Duepner583</linkclipref>
										<mediatype>video</mediatype>
										<trackindex>1</trackindex>
										<clipindex>10</clipindex>
									</link>
									<link>
										<linkclipref>Raw Interview Matthew Duepner584</linkclipref>
										<mediatype>audio</mediatype>
										<trackindex>1</trackindex>
										<clipindex>10</clipindex>
										<groupindex>1</groupindex>
									</link>
									<link>
										<linkclipref>Raw Interview Matthew Duepner585</linkclipref>
										<mediatype>audio</mediatype>
										<trackindex>2</trackindex>
										<clipindex>10</clipindex>
										<groupindex>1</groupindex>
									</link>
									<itemhistory>
										<uuid>2D2F7BB0-3AAC-43E5-9F8D-FE3493E7B062</uuid>
									</itemhistory>
								</clipitem>
								<clipitem id="Raw Interview Matthew Duepner587">
									<name>Raw Interview Matthew Duepner</name>
									<duration>81486</duration>
									<rate>
										<ntsc>TRUE</ntsc>
										<timebase>24</timebase>
									</rate>
									<in>56065</in>
									<out>56428</out>
									<start>6619</start>
									<end>6982</end>
									<masterclipid>Raw Interview Matthew Duepner390</masterclipid>
									<logginginfo>
										<scene/>
										<shottake/>
										<lognote/>
										<good>FALSE</good>
									</logginginfo>
									<labels>
										<label2/>
									</labels>
									<comments>
										<mastercomment1/>
										<mastercomment2/>
										<mastercomment3/>
										<mastercomment4/>
									</comments>
									<file id="YIN_2013-05-28_LG-5 "/>
									<filter>
										<effect>
											<name>Audio Levels</name>
											<effectid>audiolevels</effectid>
											<effectcategory>audiolevels</effectcategory>
											<effecttype>audiolevels</effecttype>
											<mediatype>audio</mediatype>
											<parameter>
												<name>Level</name>
												<parameterid>level</parameterid>
												<valuemin>0</valuemin>
												<valuemax>3.98109</valuemax>
												<value>1</value>
											</parameter>
										</effect>
									</filter>
									<filter>
										<effect>
											<name>Audio Pan</name>
											<effectid>audiopan</effectid>
											<effectcategory>audiopan</effectcategory>
											<effecttype>audiopan</effecttype>
											<mediatype>audio</mediatype>
											<parameter>
												<name>Pan</name>
												<parameterid>pan</parameterid>
												<valuemin>-1</valuemin>
												<valuemax>1</valuemax>
												<value>0</value>
											</parameter>
										</effect>
									</filter>
									<sourcetrack>
										<mediatype>audio</mediatype>
										<trackindex>1</trackindex>
									</sourcetrack>
									<link>
										<linkclipref>Raw Interview Matthew Duepner586</linkclipref>
										<mediatype>video</mediatype>
										<trackindex>1</trackindex>
										<clipindex>11</clipindex>
									</link>
									<link>
										<linkclipref>Raw Interview Matthew Duepner587</linkclipref>
										<mediatype>audio</mediatype>
										<trackindex>1</trackindex>
										<clipindex>11</clipindex>
										<groupindex>1</groupindex>
									</link>
									<link>
										<linkclipref>Raw Interview Matthew Duepner588</linkclipref>
										<mediatype>audio</mediatype>
										<trackindex>2</trackindex>
										<clipindex>11</clipindex>
										<groupindex>1</groupindex>
									</link>
									<itemhistory>
										<uuid>CFA12229-2797-4A27-9E14-99E2E9742B6F</uuid>
									</itemhistory>
								</clipitem>
								<clipitem id="Raw Interview Matthew Duepner590">
									<name>Raw Interview Matthew Duepner</name>
									<duration>81486</duration>
									<rate>
										<ntsc>TRUE</ntsc>
										<timebase>24</timebase>
									</rate>
									<in>58596</in>
									<out>59471</out>
									<start>6982</start>
									<end>7857</end>
									<masterclipid>Raw Interview Matthew Duepner390</masterclipid>
									<logginginfo>
										<scene/>
										<shottake/>
										<lognote/>
										<good>FALSE</good>
									</logginginfo>
									<labels>
										<label2/>
									</labels>
									<comments>
										<mastercomment1/>
										<mastercomment2/>
										<mastercomment3/>
										<mastercomment4/>
									</comments>
									<file id="YIN_2013-05-28_LG-5 "/>
									<filter>
										<effect>
											<name>Audio Levels</name>
											<effectid>audiolevels</effectid>
											<effectcategory>audiolevels</effectcategory>
											<effecttype>audiolevels</effecttype>
											<mediatype>audio</mediatype>
											<parameter>
												<name>Level</name>
												<parameterid>level</parameterid>
												<valuemin>0</valuemin>
												<valuemax>3.98109</valuemax>
												<value>1</value>
											</parameter>
										</effect>
									</filter>
									<filter>
										<effect>
											<name>Audio Pan</name>
											<effectid>audiopan</effectid>
											<effectcategory>audiopan</effectcategory>
											<effecttype>audiopan</effecttype>
											<mediatype>audio</mediatype>
											<parameter>
												<name>Pan</name>
												<parameterid>pan</parameterid>
												<valuemin>-1</valuemin>
												<valuemax>1</valuemax>
												<value>0</value>
											</parameter>
										</effect>
									</filter>
									<sourcetrack>
										<mediatype>audio</mediatype>
										<trackindex>1</trackindex>
									</sourcetrack>
									<link>
										<linkclipref>Raw Interview Matthew Duepner589</linkclipref>
										<mediatype>video</mediatype>
										<trackindex>1</trackindex>
										<clipindex>12</clipindex>
									</link>
									<link>
										<linkclipref>Raw Interview Matthew Duepner590</linkclipref>
										<mediatype>audio</mediatype>
										<trackindex>1</trackindex>
										<clipindex>12</clipindex>
										<groupindex>1</groupindex>
									</link>
									<link>
										<linkclipref>Raw Interview Matthew Duepner591</linkclipref>
										<mediatype>audio</mediatype>
										<trackindex>2</trackindex>
										<clipindex>12</clipindex>
										<groupindex>1</groupindex>
									</link>
									<itemhistory>
										<uuid>D3E0974B-D719-440E-A708-269999A62EDF</uuid>
									</itemhistory>
								</clipitem>
								<clipitem id="Raw Interview Matthew Duepner593">
									<name>Raw Interview Matthew Duepner</name>
									<duration>81486</duration>
									<rate>
										<ntsc>TRUE</ntsc>
										<timebase>24</timebase>
									</rate>
									<in>20229</in>
									<out>20906</out>
									<start>8259</start>
									<end>8936</end>
									<masterclipid>Raw Interview Matthew Duepner390</masterclipid>
									<logginginfo>
										<scene/>
										<shottake/>
										<lognote/>
										<good>FALSE</good>
									</logginginfo>
									<labels>
										<label2/>
									</labels>
									<comments>
										<mastercomment1/>
										<mastercomment2/>
										<mastercomment3/>
										<mastercomment4/>
									</comments>
									<file id="YIN_2013-05-28_LG-5 "/>
									<filter>
										<effect>
											<name>Audio Levels</name>
											<effectid>audiolevels</effectid>
											<effectcategory>audiolevels</effectcategory>
											<effecttype>audiolevels</effecttype>
											<mediatype>audio</mediatype>
											<parameter>
												<name>Level</name>
												<parameterid>level</parameterid>
												<valuemin>0</valuemin>
												<valuemax>3.98109</valuemax>
												<value>1</value>
											</parameter>
										</effect>
									</filter>
									<filter>
										<effect>
											<name>Audio Pan</name>
											<effectid>audiopan</effectid>
											<effectcategory>audiopan</effectcategory>
											<effecttype>audiopan</effecttype>
											<mediatype>audio</mediatype>
											<parameter>
												<name>Pan</name>
												<parameterid>pan</parameterid>
												<valuemin>-1</valuemin>
												<valuemax>1</valuemax>
												<value>0</value>
											</parameter>
										</effect>
									</filter>
									<sourcetrack>
										<mediatype>audio</mediatype>
										<trackindex>1</trackindex>
									</sourcetrack>
									<link>
										<linkclipref>Raw Interview Matthew Duepner592</linkclipref>
										<mediatype>video</mediatype>
										<trackindex>1</trackindex>
										<clipindex>13</clipindex>
									</link>
									<link>
										<linkclipref>Raw Interview Matthew Duepner593</linkclipref>
										<mediatype>audio</mediatype>
										<trackindex>1</trackindex>
										<clipindex>13</clipindex>
										<groupindex>1</groupindex>
									</link>
									<link>
										<linkclipref>Raw Interview Matthew Duepner594</linkclipref>
										<mediatype>audio</mediatype>
										<trackindex>2</trackindex>
										<clipindex>13</clipindex>
										<groupindex>1</groupindex>
									</link>
									<itemhistory>
										<uuid>ABD64237-3091-4261-89A5-B22F05E51E20</uuid>
									</itemhistory>
								</clipitem>
								<clipitem id="Raw Interview Matthew Duepner596">
									<name>Raw Interview Matthew Duepner</name>
									<duration>81486</duration>
									<rate>
										<ntsc>TRUE</ntsc>
										<timebase>24</timebase>
									</rate>
									<in>21594</in>
									<out>22531</out>
									<start>8936</start>
									<end>9873</end>
									<masterclipid>Raw Interview Matthew Duepner390</masterclipid>
									<logginginfo>
										<scene/>
										<shottake/>
										<lognote/>
										<good>FALSE</good>
									</logginginfo>
									<labels>
										<label2/>
									</labels>
									<comments>
										<mastercomment1/>
										<mastercomment2/>
										<mastercomment3/>
										<mastercomment4/>
									</comments>
									<file id="YIN_2013-05-28_LG-5 "/>
									<filter>
										<effect>
											<name>Audio Levels</name>
											<effectid>audiolevels</effectid>
											<effectcategory>audiolevels</effectcategory>
											<effecttype>audiolevels</effecttype>
											<mediatype>audio</mediatype>
											<parameter>
												<name>Level</name>
												<parameterid>level</parameterid>
												<valuemin>0</valuemin>
												<valuemax>3.98109</valuemax>
												<value>1</value>
											</parameter>
										</effect>
									</filter>
									<filter>
										<effect>
											<name>Audio Pan</name>
											<effectid>audiopan</effectid>
											<effectcategory>audiopan</effectcategory>
											<effecttype>audiopan</effecttype>
											<mediatype>audio</mediatype>
											<parameter>
												<name>Pan</name>
												<parameterid>pan</parameterid>
												<valuemin>-1</valuemin>
												<valuemax>1</valuemax>
												<value>0</value>
											</parameter>
										</effect>
									</filter>
									<sourcetrack>
										<mediatype>audio</mediatype>
										<trackindex>1</trackindex>
									</sourcetrack>
									<link>
										<linkclipref>Raw Interview Matthew Duepner595</linkclipref>
										<mediatype>video</mediatype>
										<trackindex>1</trackindex>
										<clipindex>14</clipindex>
									</link>
									<link>
										<linkclipref>Raw Interview Matthew Duepner596</linkclipref>
										<mediatype>audio</mediatype>
										<trackindex>1</trackindex>
										<clipindex>14</clipindex>
										<groupindex>1</groupindex>
									</link>
									<link>
										<linkclipref>Raw Interview Matthew Duepner597</linkclipref>
										<mediatype>audio</mediatype>
										<trackindex>2</trackindex>
										<clipindex>14</clipindex>
										<groupindex>1</groupindex>
									</link>
									<itemhistory>
										<uuid>61B9CFAF-0FB7-47CC-A3B2-59A32A1BC153</uuid>
									</itemhistory>
								</clipitem>
								<clipitem id="Raw Interview Matthew Duepner599">
									<name>Raw Interview Matthew Duepner</name>
									<duration>81486</duration>
									<rate>
										<ntsc>TRUE</ntsc>
										<timebase>24</timebase>
									</rate>
									<in>24217</in>
									<out>25037</out>
									<start>9873</start>
									<end>10693</end>
									<masterclipid>Raw Interview Matthew Duepner390</masterclipid>
									<logginginfo>
										<scene/>
										<shottake/>
										<lognote/>
										<good>FALSE</good>
									</logginginfo>
									<labels>
										<label2/>
									</labels>
									<comments>
										<mastercomment1/>
										<mastercomment2/>
										<mastercomment3/>
										<mastercomment4/>
									</comments>
									<file id="YIN_2013-05-28_LG-5 "/>
									<filter>
										<effect>
											<name>Audio Levels</name>
											<effectid>audiolevels</effectid>
											<effectcategory>audiolevels</effectcategory>
											<effecttype>audiolevels</effecttype>
											<mediatype>audio</mediatype>
											<parameter>
												<name>Level</name>
												<parameterid>level</parameterid>
												<valuemin>0</valuemin>
												<valuemax>3.98109</valuemax>
												<value>1</value>
											</parameter>
										</effect>
									</filter>
									<filter>
										<effect>
											<name>Audio Pan</name>
											<effectid>audiopan</effectid>
											<effectcategory>audiopan</effectcategory>
											<effecttype>audiopan</effecttype>
											<mediatype>audio</mediatype>
											<parameter>
												<name>Pan</name>
												<parameterid>pan</parameterid>
												<valuemin>-1</valuemin>
												<valuemax>1</valuemax>
												<value>0</value>
											</parameter>
										</effect>
									</filter>
									<sourcetrack>
										<mediatype>audio</mediatype>
										<trackindex>1</trackindex>
									</sourcetrack>
									<link>
										<linkclipref>Raw Interview Matthew Duepner598</linkclipref>
										<mediatype>video</mediatype>
										<trackindex>1</trackindex>
										<clipindex>15</clipindex>
									</link>
									<link>
										<linkclipref>Raw Interview Matthew Duepner599</linkclipref>
										<mediatype>audio</mediatype>
										<trackindex>1</trackindex>
										<clipindex>15</clipindex>
										<groupindex>1</groupindex>
									</link>
									<link>
										<linkclipref>Raw Interview Matthew Duepner600</linkclipref>
										<mediatype>audio</mediatype>
										<trackindex>2</trackindex>
										<clipindex>15</clipindex>
										<groupindex>1</groupindex>
									</link>
									<itemhistory>
										<uuid>1F443D94-E79F-4D55-A2F2-A522B5E7A3AC</uuid>
									</itemhistory>
								</clipitem>
								<clipitem id="Raw Interview Matthew Duepner602">
									<name>Raw Interview Matthew Duepner</name>
									<duration>81486</duration>
									<rate>
										<ntsc>TRUE</ntsc>
										<timebase>24</timebase>
									</rate>
									<in>52125</in>
									<out>52578</out>
									<start>10693</start>
									<end>11146</end>
									<masterclipid>Raw Interview Matthew Duepner390</masterclipid>
									<logginginfo>
										<scene/>
										<shottake/>
										<lognote/>
										<good>FALSE</good>
									</logginginfo>
									<labels>
										<label2/>
									</labels>
									<comments>
										<mastercomment1/>
										<mastercomment2/>
										<mastercomment3/>
										<mastercomment4/>
									</comments>
									<file id="YIN_2013-05-28_LG-5 "/>
									<filter>
										<effect>
											<name>Audio Levels</name>
											<effectid>audiolevels</effectid>
											<effectcategory>audiolevels</effectcategory>
											<effecttype>audiolevels</effecttype>
											<mediatype>audio</mediatype>
											<parameter>
												<name>Level</name>
												<parameterid>level</parameterid>
												<valuemin>0</valuemin>
												<valuemax>3.98109</valuemax>
												<value>1</value>
											</parameter>
										</effect>
									</filter>
									<filter>
										<effect>
											<name>Audio Pan</name>
											<effectid>audiopan</effectid>
											<effectcategory>audiopan</effectcategory>
											<effecttype>audiopan</effecttype>
											<mediatype>audio</mediatype>
											<parameter>
												<name>Pan</name>
												<parameterid>pan</parameterid>
												<valuemin>-1</valuemin>
												<valuemax>1</valuemax>
												<value>0</value>
											</parameter>
										</effect>
									</filter>
									<sourcetrack>
										<mediatype>audio</mediatype>
										<trackindex>1</trackindex>
									</sourcetrack>
									<link>
										<linkclipref>Raw Interview Matthew Duepner601</linkclipref>
										<mediatype>video</mediatype>
										<trackindex>1</trackindex>
										<clipindex>16</clipindex>
									</link>
									<link>
										<linkclipref>Raw Interview Matthew Duepner602</linkclipref>
										<mediatype>audio</mediatype>
										<trackindex>1</trackindex>
										<clipindex>16</clipindex>
										<groupindex>1</groupindex>
									</link>
									<link>
										<linkclipref>Raw Interview Matthew Duepner603</linkclipref>
										<mediatype>audio</mediatype>
										<trackindex>2</trackindex>
										<clipindex>16</clipindex>
										<groupindex>1</groupindex>
									</link>
									<itemhistory>
										<uuid>F1338309-AEEC-48E8-96A8-20F3DFDD305D</uuid>
									</itemhistory>
								</clipitem>
								<enabled>TRUE</enabled>
								<locked>FALSE</locked>
								<outputchannelindex>1</outputchannelindex>
							</track>
							<track>
								<clipitem id="Raw Interview Matthew Duepner558">
									<name>Raw Interview Matthew Duepner</name>
									<duration>81486</duration>
									<rate>
										<ntsc>TRUE</ntsc>
										<timebase>24</timebase>
									</rate>
									<in>292</in>
									<out>693</out>
									<start>970</start>
									<end>1371</end>
									<masterclipid>Raw Interview Matthew Duepner390</masterclipid>
									<logginginfo>
										<scene/>
										<shottake/>
										<lognote/>
										<good>FALSE</good>
									</logginginfo>
									<labels>
										<label2/>
									</labels>
									<comments>
										<mastercomment1/>
										<mastercomment2/>
										<mastercomment3/>
										<mastercomment4/>
									</comments>
									<file id="YIN_2013-05-28_LG-5 "/>
									<filter>
										<effect>
											<name>Audio Levels</name>
											<effectid>audiolevels</effectid>
											<effectcategory>audiolevels</effectcategory>
											<effecttype>audiolevels</effecttype>
											<mediatype>audio</mediatype>
											<parameter>
												<name>Level</name>
												<parameterid>level</parameterid>
												<valuemin>0</valuemin>
												<valuemax>3.98109</valuemax>
												<value>1</value>
											</parameter>
										</effect>
									</filter>
									<filter>
										<effect>
											<name>Audio Pan</name>
											<effectid>audiopan</effectid>
											<effectcategory>audiopan</effectcategory>
											<effecttype>audiopan</effecttype>
											<mediatype>audio</mediatype>
											<parameter>
												<name>Pan</name>
												<parameterid>pan</parameterid>
												<valuemin>-1</valuemin>
												<valuemax>1</valuemax>
												<value>-0</value>
											</parameter>
										</effect>
									</filter>
									<sourcetrack>
										<mediatype>audio</mediatype>
										<trackindex>2</trackindex>
									</sourcetrack>
									<link>
										<linkclipref>Raw Interview Matthew Duepner556</linkclipref>
										<mediatype>video</mediatype>
										<trackindex>1</trackindex>
										<clipindex>1</clipindex>
									</link>
									<link>
										<linkclipref>Raw Interview Matthew Duepner557</linkclipref>
										<mediatype>audio</mediatype>
										<trackindex>1</trackindex>
										<clipindex>1</clipindex>
										<groupindex>1</groupindex>
									</link>
									<link>
										<linkclipref>Raw Interview Matthew Duepner558</linkclipref>
										<mediatype>audio</mediatype>
										<trackindex>2</trackindex>
										<clipindex>1</clipindex>
										<groupindex>1</groupindex>
									</link>
									<itemhistory>
										<uuid>1424E5F0-830F-4E3B-815C-F3793571E5F8</uuid>
									</itemhistory>
								</clipitem>
								<clipitem id="Raw Interview Matthew Duepner561">
									<name>Raw Interview Matthew Duepner</name>
									<duration>81486</duration>
									<rate>
										<ntsc>TRUE</ntsc>
										<timebase>24</timebase>
									</rate>
									<in>28230</in>
									<out>28664</out>
									<start>2037</start>
									<end>2471</end>
									<masterclipid>Raw Interview Matthew Duepner390</masterclipid>
									<logginginfo>
										<scene/>
										<shottake/>
										<lognote/>
										<good>FALSE</good>
									</logginginfo>
									<labels>
										<label2/>
									</labels>
									<comments>
										<mastercomment1/>
										<mastercomment2/>
										<mastercomment3/>
										<mastercomment4/>
									</comments>
									<file id="YIN_2013-05-28_LG-5 "/>
									<filter>
										<effect>
											<name>Audio Levels</name>
											<effectid>audiolevels</effectid>
											<effectcategory>audiolevels</effectcategory>
											<effecttype>audiolevels</effecttype>
											<mediatype>audio</mediatype>
											<parameter>
												<name>Level</name>
												<parameterid>level</parameterid>
												<valuemin>0</valuemin>
												<valuemax>3.98109</valuemax>
												<value>1</value>
											</parameter>
										</effect>
									</filter>
									<filter>
										<effect>
											<name>Audio Pan</name>
											<effectid>audiopan</effectid>
											<effectcategory>audiopan</effectcategory>
											<effecttype>audiopan</effecttype>
											<mediatype>audio</mediatype>
											<parameter>
												<name>Pan</name>
												<parameterid>pan</parameterid>
												<valuemin>-1</valuemin>
												<valuemax>1</valuemax>
												<value>-0</value>
											</parameter>
										</effect>
									</filter>
									<sourcetrack>
										<mediatype>audio</mediatype>
										<trackindex>2</trackindex>
									</sourcetrack>
									<link>
										<linkclipref>Raw Interview Matthew Duepner559</linkclipref>
										<mediatype>video</mediatype>
										<trackindex>1</trackindex>
										<clipindex>2</clipindex>
									</link>
									<link>
										<linkclipref>Raw Interview Matthew Duepner560</linkclipref>
										<mediatype>audio</mediatype>
										<trackindex>1</trackindex>
										<clipindex>2</clipindex>
										<groupindex>1</groupindex>
									</link>
									<link>
										<linkclipref>Raw Interview Matthew Duepner561</linkclipref>
										<mediatype>audio</mediatype>
										<trackindex>2</trackindex>
										<clipindex>2</clipindex>
										<groupindex>1</groupindex>
									</link>
									<itemhistory>
										<uuid>1C355935-311E-45DC-AA3A-03BC831A881F</uuid>
									</itemhistory>
								</clipitem>
								<clipitem id="Raw Interview Matthew Duepner564">
									<name>Raw Interview Matthew Duepner</name>
									<duration>81486</duration>
									<rate>
										<ntsc>TRUE</ntsc>
										<timebase>24</timebase>
									</rate>
									<in>6715</in>
									<out>7282</out>
									<start>2822</start>
									<end>3389</end>
									<masterclipid>Raw Interview Matthew Duepner390</masterclipid>
									<logginginfo>
										<scene/>
										<shottake/>
										<lognote/>
										<good>FALSE</good>
									</logginginfo>
									<labels>
										<label2/>
									</labels>
									<comments>
										<mastercomment1/>
										<mastercomment2/>
										<mastercomment3/>
										<mastercomment4/>
									</comments>
									<file id="YIN_2013-05-28_LG-5 "/>
									<filter>
										<effect>
											<name>Audio Levels</name>
											<effectid>audiolevels</effectid>
											<effectcategory>audiolevels</effectcategory>
											<effecttype>audiolevels</effecttype>
											<mediatype>audio</mediatype>
											<parameter>
												<name>Level</name>
												<parameterid>level</parameterid>
												<valuemin>0</valuemin>
												<valuemax>3.98109</valuemax>
												<value>1</value>
											</parameter>
										</effect>
									</filter>
									<filter>
										<effect>
											<name>Audio Pan</name>
											<effectid>audiopan</effectid>
											<effectcategory>audiopan</effectcategory>
											<effecttype>audiopan</effecttype>
											<mediatype>audio</mediatype>
											<parameter>
												<name>Pan</name>
												<parameterid>pan</parameterid>
												<valuemin>-1</valuemin>
												<valuemax>1</valuemax>
												<value>-0</value>
											</parameter>
										</effect>
									</filter>
									<sourcetrack>
										<mediatype>audio</mediatype>
										<trackindex>2</trackindex>
									</sourcetrack>
									<link>
										<linkclipref>Raw Interview Matthew Duepner562</linkclipref>
										<mediatype>video</mediatype>
										<trackindex>1</trackindex>
										<clipindex>3</clipindex>
									</link>
									<link>
										<linkclipref>Raw Interview Matthew Duepner563</linkclipref>
										<mediatype>audio</mediatype>
										<trackindex>1</trackindex>
										<clipindex>3</clipindex>
										<groupindex>1</groupindex>
									</link>
									<link>
										<linkclipref>Raw Interview Matthew Duepner564</linkclipref>
										<mediatype>audio</mediatype>
										<trackindex>2</trackindex>
										<clipindex>3</clipindex>
										<groupindex>1</groupindex>
									</link>
									<itemhistory>
										<uuid>E4AF6F25-8D2A-4EA4-B40F-E6D6D261AFB0</uuid>
									</itemhistory>
								</clipitem>
								<clipitem id="Raw Interview Matthew Duepner567">
									<name>Raw Interview Matthew Duepner</name>
									<duration>81486</duration>
									<rate>
										<ntsc>TRUE</ntsc>
										<timebase>24</timebase>
									</rate>
									<in>7350</in>
									<out>7384</out>
									<start>3703</start>
									<end>3737</end>
									<masterclipid>Raw Interview Matthew Duepner390</masterclipid>
									<logginginfo>
										<scene/>
										<shottake/>
										<lognote/>
										<good>FALSE</good>
									</logginginfo>
									<labels>
										<label2/>
									</labels>
									<comments>
										<mastercomment1/>
										<mastercomment2/>
										<mastercomment3/>
										<mastercomment4/>
									</comments>
									<file id="YIN_2013-05-28_LG-5 "/>
									<filter>
										<effect>
											<name>Audio Levels</name>
											<effectid>audiolevels</effectid>
											<effectcategory>audiolevels</effectcategory>
											<effecttype>audiolevels</effecttype>
											<mediatype>audio</mediatype>
											<parameter>
												<name>Level</name>
												<parameterid>level</parameterid>
												<valuemin>0</valuemin>
												<valuemax>3.98109</valuemax>
												<value>1</value>
											</parameter>
										</effect>
									</filter>
									<filter>
										<effect>
											<name>Audio Pan</name>
											<effectid>audiopan</effectid>
											<effectcategory>audiopan</effectcategory>
											<effecttype>audiopan</effecttype>
											<mediatype>audio</mediatype>
											<parameter>
												<name>Pan</name>
												<parameterid>pan</parameterid>
												<valuemin>-1</valuemin>
												<valuemax>1</valuemax>
												<value>-0</value>
											</parameter>
										</effect>
									</filter>
									<sourcetrack>
										<mediatype>audio</mediatype>
										<trackindex>2</trackindex>
									</sourcetrack>
									<link>
										<linkclipref>Raw Interview Matthew Duepner565</linkclipref>
										<mediatype>video</mediatype>
										<trackindex>1</trackindex>
										<clipindex>4</clipindex>
									</link>
									<link>
										<linkclipref>Raw Interview Matthew Duepner566</linkclipref>
										<mediatype>audio</mediatype>
										<trackindex>1</trackindex>
										<clipindex>4</clipindex>
										<groupindex>1</groupindex>
									</link>
									<link>
										<linkclipref>Raw Interview Matthew Duepner567</linkclipref>
										<mediatype>audio</mediatype>
										<trackindex>2</trackindex>
										<clipindex>4</clipindex>
										<groupindex>1</groupindex>
									</link>
									<itemhistory>
										<uuid>46E25916-11F2-493B-9647-1462C79DD2F6</uuid>
									</itemhistory>
								</clipitem>
								<clipitem id="Raw Interview Matthew Duepner570">
									<name>Raw Interview Matthew Duepner</name>
									<duration>81486</duration>
									<rate>
										<ntsc>TRUE</ntsc>
										<timebase>24</timebase>
									</rate>
									<in>7390</in>
									<out>7639</out>
									<start>3737</start>
									<end>3986</end>
									<masterclipid>Raw Interview Matthew Duepner390</masterclipid>
									<logginginfo>
										<scene/>
										<shottake/>
										<lognote/>
										<good>FALSE</good>
									</logginginfo>
									<labels>
										<label2/>
									</labels>
									<comments>
										<mastercomment1/>
										<mastercomment2/>
										<mastercomment3/>
										<mastercomment4/>
									</comments>
									<file id="YIN_2013-05-28_LG-5 "/>
									<filter>
										<effect>
											<name>Audio Levels</name>
											<effectid>audiolevels</effectid>
											<effectcategory>audiolevels</effectcategory>
											<effecttype>audiolevels</effecttype>
											<mediatype>audio</mediatype>
											<parameter>
												<name>Level</name>
												<parameterid>level</parameterid>
												<valuemin>0</valuemin>
												<valuemax>3.98109</valuemax>
												<value>1</value>
											</parameter>
										</effect>
									</filter>
									<filter>
										<effect>
											<name>Audio Pan</name>
											<effectid>audiopan</effectid>
											<effectcategory>audiopan</effectcategory>
											<effecttype>audiopan</effecttype>
											<mediatype>audio</mediatype>
											<parameter>
												<name>Pan</name>
												<parameterid>pan</parameterid>
												<valuemin>-1</valuemin>
												<valuemax>1</valuemax>
												<value>-0</value>
											</parameter>
										</effect>
									</filter>
									<sourcetrack>
										<mediatype>audio</mediatype>
										<trackindex>2</trackindex>
									</sourcetrack>
									<link>
										<linkclipref>Raw Interview Matthew Duepner568</linkclipref>
										<mediatype>video</mediatype>
										<trackindex>1</trackindex>
										<clipindex>5</clipindex>
									</link>
									<link>
										<linkclipref>Raw Interview Matthew Duepner569</linkclipref>
										<mediatype>audio</mediatype>
										<trackindex>1</trackindex>
										<clipindex>5</clipindex>
										<groupindex>1</groupindex>
									</link>
									<link>
										<linkclipref>Raw Interview Matthew Duepner570</linkclipref>
										<mediatype>audio</mediatype>
										<trackindex>2</trackindex>
										<clipindex>5</clipindex>
										<groupindex>1</groupindex>
									</link>
									<itemhistory>
										<uuid>7CE43299-2DBF-48C2-A29D-7EA3FEDE7D5A</uuid>
									</itemhistory>
								</clipitem>
								<clipitem id="Raw Interview Matthew Duepner573">
									<name>Raw Interview Matthew Duepner</name>
									<duration>81486</duration>
									<rate>
										<ntsc>TRUE</ntsc>
										<timebase>24</timebase>
									</rate>
									<in>17538</in>
									<out>17582</out>
									<start>4531</start>
									<end>4575</end>
									<masterclipid>Raw Interview Matthew Duepner390</masterclipid>
									<logginginfo>
										<scene/>
										<shottake/>
										<lognote/>
										<good>FALSE</good>
									</logginginfo>
									<labels>
										<label2/>
									</labels>
									<comments>
										<mastercomment1/>
										<mastercomment2/>
										<mastercomment3/>
										<mastercomment4/>
									</comments>
									<file id="YIN_2013-05-28_LG-5 "/>
									<filter>
										<effect>
											<name>Audio Levels</name>
											<effectid>audiolevels</effectid>
											<effectcategory>audiolevels</effectcategory>
											<effecttype>audiolevels</effecttype>
											<mediatype>audio</mediatype>
											<parameter>
												<name>Level</name>
												<parameterid>level</parameterid>
												<valuemin>0</valuemin>
												<valuemax>3.98109</valuemax>
												<value>1</value>
											</parameter>
										</effect>
									</filter>
									<filter>
										<effect>
											<name>Audio Pan</name>
											<effectid>audiopan</effectid>
											<effectcategory>audiopan</effectcategory>
											<effecttype>audiopan</effecttype>
											<mediatype>audio</mediatype>
											<parameter>
												<name>Pan</name>
												<parameterid>pan</parameterid>
												<valuemin>-1</valuemin>
												<valuemax>1</valuemax>
												<value>-0</value>
											</parameter>
										</effect>
									</filter>
									<sourcetrack>
										<mediatype>audio</mediatype>
										<trackindex>2</trackindex>
									</sourcetrack>
									<link>
										<linkclipref>Raw Interview Matthew Duepner571</linkclipref>
										<mediatype>video</mediatype>
										<trackindex>1</trackindex>
										<clipindex>6</clipindex>
									</link>
									<link>
										<linkclipref>Raw Interview Matthew Duepner572</linkclipref>
										<mediatype>audio</mediatype>
										<trackindex>1</trackindex>
										<clipindex>6</clipindex>
										<groupindex>1</groupindex>
									</link>
									<link>
										<linkclipref>Raw Interview Matthew Duepner573</linkclipref>
										<mediatype>audio</mediatype>
										<trackindex>2</trackindex>
										<clipindex>6</clipindex>
										<groupindex>1</groupindex>
									</link>
									<itemhistory>
										<uuid>69C7F90D-2E33-499A-BC91-00FAAC2D0910</uuid>
									</itemhistory>
								</clipitem>
								<clipitem id="Raw Interview Matthew Duepner576">
									<name>Raw Interview Matthew Duepner</name>
									<duration>81486</duration>
									<rate>
										<ntsc>TRUE</ntsc>
										<timebase>24</timebase>
									</rate>
									<in>17634</in>
									<out>17751</out>
									<start>4575</start>
									<end>4692</end>
									<masterclipid>Raw Interview Matthew Duepner390</masterclipid>
									<logginginfo>
										<scene/>
										<shottake/>
										<lognote/>
										<good>FALSE</good>
									</logginginfo>
									<labels>
										<label2/>
									</labels>
									<comments>
										<mastercomment1/>
										<mastercomment2/>
										<mastercomment3/>
										<mastercomment4/>
									</comments>
									<file id="YIN_2013-05-28_LG-5 "/>
									<filter>
										<effect>
											<name>Audio Levels</name>
											<effectid>audiolevels</effectid>
											<effectcategory>audiolevels</effectcategory>
											<effecttype>audiolevels</effecttype>
											<mediatype>audio</mediatype>
											<parameter>
												<name>Level</name>
												<parameterid>level</parameterid>
												<valuemin>0</valuemin>
												<valuemax>3.98109</valuemax>
												<value>1</value>
											</parameter>
										</effect>
									</filter>
									<filter>
										<effect>
											<name>Audio Pan</name>
											<effectid>audiopan</effectid>
											<effectcategory>audiopan</effectcategory>
											<effecttype>audiopan</effecttype>
											<mediatype>audio</mediatype>
											<parameter>
												<name>Pan</name>
												<parameterid>pan</parameterid>
												<valuemin>-1</valuemin>
												<valuemax>1</valuemax>
												<value>-0</value>
											</parameter>
										</effect>
									</filter>
									<sourcetrack>
										<mediatype>audio</mediatype>
										<trackindex>2</trackindex>
									</sourcetrack>
									<link>
										<linkclipref>Raw Interview Matthew Duepner574</linkclipref>
										<mediatype>video</mediatype>
										<trackindex>1</trackindex>
										<clipindex>7</clipindex>
									</link>
									<link>
										<linkclipref>Raw Interview Matthew Duepner575</linkclipref>
										<mediatype>audio</mediatype>
										<trackindex>1</trackindex>
										<clipindex>7</clipindex>
										<groupindex>1</groupindex>
									</link>
									<link>
										<linkclipref>Raw Interview Matthew Duepner576</linkclipref>
										<mediatype>audio</mediatype>
										<trackindex>2</trackindex>
										<clipindex>7</clipindex>
										<groupindex>1</groupindex>
									</link>
									<itemhistory>
										<uuid>29E155DA-8160-4EC3-BC5B-E2016A8B0615</uuid>
									</itemhistory>
								</clipitem>
								<clipitem id="Raw Interview Matthew Duepner579">
									<name>Raw Interview Matthew Duepner</name>
									<duration>81486</duration>
									<rate>
										<ntsc>TRUE</ntsc>
										<timebase>24</timebase>
									</rate>
									<in>17812</in>
									<out>17923</out>
									<start>4692</start>
									<end>4803</end>
									<masterclipid>Raw Interview Matthew Duepner390</masterclipid>
									<logginginfo>
										<scene/>
										<shottake/>
										<lognote/>
										<good>FALSE</good>
									</logginginfo>
									<labels>
										<label2/>
									</labels>
									<comments>
										<mastercomment1/>
										<mastercomment2/>
										<mastercomment3/>
										<mastercomment4/>
									</comments>
									<file id="YIN_2013-05-28_LG-5 "/>
									<filter>
										<effect>
											<name>Audio Levels</name>
											<effectid>audiolevels</effectid>
											<effectcategory>audiolevels</effectcategory>
											<effecttype>audiolevels</effecttype>
											<mediatype>audio</mediatype>
											<parameter>
												<name>Level</name>
												<parameterid>level</parameterid>
												<valuemin>0</valuemin>
												<valuemax>3.98109</valuemax>
												<value>1</value>
											</parameter>
										</effect>
									</filter>
									<filter>
										<effect>
											<name>Audio Pan</name>
											<effectid>audiopan</effectid>
											<effectcategory>audiopan</effectcategory>
											<effecttype>audiopan</effecttype>
											<mediatype>audio</mediatype>
											<parameter>
												<name>Pan</name>
												<parameterid>pan</parameterid>
												<valuemin>-1</valuemin>
												<valuemax>1</valuemax>
												<value>-0</value>
											</parameter>
										</effect>
									</filter>
									<sourcetrack>
										<mediatype>audio</mediatype>
										<trackindex>2</trackindex>
									</sourcetrack>
									<link>
										<linkclipref>Raw Interview Matthew Duepner577</linkclipref>
										<mediatype>video</mediatype>
										<trackindex>1</trackindex>
										<clipindex>8</clipindex>
									</link>
									<link>
										<linkclipref>Raw Interview Matthew Duepner578</linkclipref>
										<mediatype>audio</mediatype>
										<trackindex>1</trackindex>
										<clipindex>8</clipindex>
										<groupindex>1</groupindex>
									</link>
									<link>
										<linkclipref>Raw Interview Matthew Duepner579</linkclipref>
										<mediatype>audio</mediatype>
										<trackindex>2</trackindex>
										<clipindex>8</clipindex>
										<groupindex>1</groupindex>
									</link>
									<itemhistory>
										<uuid>A63DC3DB-45DB-48BE-8F17-3EDA8A23EFEF</uuid>
									</itemhistory>
								</clipitem>
								<clipitem id="Raw Interview Matthew Duepner582">
									<name>Raw Interview Matthew Duepner</name>
									<duration>81486</duration>
									<rate>
										<ntsc>TRUE</ntsc>
										<timebase>24</timebase>
									</rate>
									<in>17967</in>
									<out>18351</out>
									<start>4803</start>
									<end>5187</end>
									<masterclipid>Raw Interview Matthew Duepner390</masterclipid>
									<logginginfo>
										<scene/>
										<shottake/>
										<lognote/>
										<good>FALSE</good>
									</logginginfo>
									<labels>
										<label2/>
									</labels>
									<comments>
										<mastercomment1/>
										<mastercomment2/>
										<mastercomment3/>
										<mastercomment4/>
									</comments>
									<file id="YIN_2013-05-28_LG-5 "/>
									<filter>
										<effect>
											<name>Audio Levels</name>
											<effectid>audiolevels</effectid>
											<effectcategory>audiolevels</effectcategory>
											<effecttype>audiolevels</effecttype>
											<mediatype>audio</mediatype>
											<parameter>
												<name>Level</name>
												<parameterid>level</parameterid>
												<valuemin>0</valuemin>
												<valuemax>3.98109</valuemax>
												<value>1</value>
											</parameter>
										</effect>
									</filter>
									<filter>
										<effect>
											<name>Audio Pan</name>
											<effectid>audiopan</effectid>
											<effectcategory>audiopan</effectcategory>
											<effecttype>audiopan</effecttype>
											<mediatype>audio</mediatype>
											<parameter>
												<name>Pan</name>
												<parameterid>pan</parameterid>
												<valuemin>-1</valuemin>
												<valuemax>1</valuemax>
												<value>-0</value>
											</parameter>
										</effect>
									</filter>
									<sourcetrack>
										<mediatype>audio</mediatype>
										<trackindex>2</trackindex>
									</sourcetrack>
									<link>
										<linkclipref>Raw Interview Matthew Duepner580</linkclipref>
										<mediatype>video</mediatype>
										<trackindex>1</trackindex>
										<clipindex>9</clipindex>
									</link>
									<link>
										<linkclipref>Raw Interview Matthew Duepner581</linkclipref>
										<mediatype>audio</mediatype>
										<trackindex>1</trackindex>
										<clipindex>9</clipindex>
										<groupindex>1</groupindex>
									</link>
									<link>
										<linkclipref>Raw Interview Matthew Duepner582</linkclipref>
										<mediatype>audio</mediatype>
										<trackindex>2</trackindex>
										<clipindex>9</clipindex>
										<groupindex>1</groupindex>
									</link>
									<itemhistory>
										<uuid>B34BE54F-511C-4BDC-B8F1-821692CD83F8</uuid>
									</itemhistory>
								</clipitem>
								<clipitem id="Raw Interview Matthew Duepner585">
									<name>Raw Interview Matthew Duepner</name>
									<duration>81486</duration>
									<rate>
										<ntsc>TRUE</ntsc>
										<timebase>24</timebase>
									</rate>
									<in>18523</in>
									<out>19022</out>
									<start>5187</start>
									<end>5686</end>
									<masterclipid>Raw Interview Matthew Duepner390</masterclipid>
									<logginginfo>
										<scene/>
										<shottake/>
										<lognote/>
										<good>FALSE</good>
									</logginginfo>
									<labels>
										<label2/>
									</labels>
									<comments>
										<mastercomment1/>
										<mastercomment2/>
										<mastercomment3/>
										<mastercomment4/>
									</comments>
									<file id="YIN_2013-05-28_LG-5 "/>
									<filter>
										<effect>
											<name>Audio Levels</name>
											<effectid>audiolevels</effectid>
											<effectcategory>audiolevels</effectcategory>
											<effecttype>audiolevels</effecttype>
											<mediatype>audio</mediatype>
											<parameter>
												<name>Level</name>
												<parameterid>level</parameterid>
												<valuemin>0</valuemin>
												<valuemax>3.98109</valuemax>
												<value>1</value>
											</parameter>
										</effect>
									</filter>
									<filter>
										<effect>
											<name>Audio Pan</name>
											<effectid>audiopan</effectid>
											<effectcategory>audiopan</effectcategory>
											<effecttype>audiopan</effecttype>
											<mediatype>audio</mediatype>
											<parameter>
												<name>Pan</name>
												<parameterid>pan</parameterid>
												<valuemin>-1</valuemin>
												<valuemax>1</valuemax>
												<value>-0</value>
											</parameter>
										</effect>
									</filter>
									<sourcetrack>
										<mediatype>audio</mediatype>
										<trackindex>2</trackindex>
									</sourcetrack>
									<link>
										<linkclipref>Raw Interview Matthew Duepner583</linkclipref>
										<mediatype>video</mediatype>
										<trackindex>1</trackindex>
										<clipindex>10</clipindex>
									</link>
									<link>
										<linkclipref>Raw Interview Matthew Duepner584</linkclipref>
										<mediatype>audio</mediatype>
										<trackindex>1</trackindex>
										<clipindex>10</clipindex>
										<groupindex>1</groupindex>
									</link>
									<link>
										<linkclipref>Raw Interview Matthew Duepner585</linkclipref>
										<mediatype>audio</mediatype>
										<trackindex>2</trackindex>
										<clipindex>10</clipindex>
										<groupindex>1</groupindex>
									</link>
									<itemhistory>
										<uuid>B33F5FF9-AB8C-4E9D-8F40-39E72AAA91B6</uuid>
									</itemhistory>
								</clipitem>
								<clipitem id="Raw Interview Matthew Duepner588">
									<name>Raw Interview Matthew Duepner</name>
									<duration>81486</duration>
									<rate>
										<ntsc>TRUE</ntsc>
										<timebase>24</timebase>
									</rate>
									<in>56065</in>
									<out>56428</out>
									<start>6619</start>
									<end>6982</end>
									<masterclipid>Raw Interview Matthew Duepner390</masterclipid>
									<logginginfo>
										<scene/>
										<shottake/>
										<lognote/>
										<good>FALSE</good>
									</logginginfo>
									<labels>
										<label2/>
									</labels>
									<comments>
										<mastercomment1/>
										<mastercomment2/>
										<mastercomment3/>
										<mastercomment4/>
									</comments>
									<file id="YIN_2013-05-28_LG-5 "/>
									<filter>
										<effect>
											<name>Audio Levels</name>
											<effectid>audiolevels</effectid>
											<effectcategory>audiolevels</effectcategory>
											<effecttype>audiolevels</effecttype>
											<mediatype>audio</mediatype>
											<parameter>
												<name>Level</name>
												<parameterid>level</parameterid>
												<valuemin>0</valuemin>
												<valuemax>3.98109</valuemax>
												<value>1</value>
											</parameter>
										</effect>
									</filter>
									<filter>
										<effect>
											<name>Audio Pan</name>
											<effectid>audiopan</effectid>
											<effectcategory>audiopan</effectcategory>
											<effecttype>audiopan</effecttype>
											<mediatype>audio</mediatype>
											<parameter>
												<name>Pan</name>
												<parameterid>pan</parameterid>
												<valuemin>-1</valuemin>
												<valuemax>1</valuemax>
												<value>-0</value>
											</parameter>
										</effect>
									</filter>
									<sourcetrack>
										<mediatype>audio</mediatype>
										<trackindex>2</trackindex>
									</sourcetrack>
									<link>
										<linkclipref>Raw Interview Matthew Duepner586</linkclipref>
										<mediatype>video</mediatype>
										<trackindex>1</trackindex>
										<clipindex>11</clipindex>
									</link>
									<link>
										<linkclipref>Raw Interview Matthew Duepner587</linkclipref>
										<mediatype>audio</mediatype>
										<trackindex>1</trackindex>
										<clipindex>11</clipindex>
										<groupindex>1</groupindex>
									</link>
									<link>
										<linkclipref>Raw Interview Matthew Duepner588</linkclipref>
										<mediatype>audio</mediatype>
										<trackindex>2</trackindex>
										<clipindex>11</clipindex>
										<groupindex>1</groupindex>
									</link>
									<itemhistory>
										<uuid>CB0412FA-F1D2-479A-AA19-932F6590A346</uuid>
									</itemhistory>
								</clipitem>
								<clipitem id="Raw Interview Matthew Duepner591">
									<name>Raw Interview Matthew Duepner</name>
									<duration>81486</duration>
									<rate>
										<ntsc>TRUE</ntsc>
										<timebase>24</timebase>
									</rate>
									<in>58596</in>
									<out>59471</out>
									<start>6982</start>
									<end>7857</end>
									<masterclipid>Raw Interview Matthew Duepner390</masterclipid>
									<logginginfo>
										<scene/>
										<shottake/>
										<lognote/>
										<good>FALSE</good>
									</logginginfo>
									<labels>
										<label2/>
									</labels>
									<comments>
										<mastercomment1/>
										<mastercomment2/>
										<mastercomment3/>
										<mastercomment4/>
									</comments>
									<file id="YIN_2013-05-28_LG-5 "/>
									<filter>
										<effect>
											<name>Audio Levels</name>
											<effectid>audiolevels</effectid>
											<effectcategory>audiolevels</effectcategory>
											<effecttype>audiolevels</effecttype>
											<mediatype>audio</mediatype>
											<parameter>
												<name>Level</name>
												<parameterid>level</parameterid>
												<valuemin>0</valuemin>
												<valuemax>3.98109</valuemax>
												<value>1</value>
											</parameter>
										</effect>
									</filter>
									<filter>
										<effect>
											<name>Audio Pan</name>
											<effectid>audiopan</effectid>
											<effectcategory>audiopan</effectcategory>
											<effecttype>audiopan</effecttype>
											<mediatype>audio</mediatype>
											<parameter>
												<name>Pan</name>
												<parameterid>pan</parameterid>
												<valuemin>-1</valuemin>
												<valuemax>1</valuemax>
												<value>-0</value>
											</parameter>
										</effect>
									</filter>
									<sourcetrack>
										<mediatype>audio</mediatype>
										<trackindex>2</trackindex>
									</sourcetrack>
									<link>
										<linkclipref>Raw Interview Matthew Duepner589</linkclipref>
										<mediatype>video</mediatype>
										<trackindex>1</trackindex>
										<clipindex>12</clipindex>
									</link>
									<link>
										<linkclipref>Raw Interview Matthew Duepner590</linkclipref>
										<mediatype>audio</mediatype>
										<trackindex>1</trackindex>
										<clipindex>12</clipindex>
										<groupindex>1</groupindex>
									</link>
									<link>
										<linkclipref>Raw Interview Matthew Duepner591</linkclipref>
										<mediatype>audio</mediatype>
										<trackindex>2</trackindex>
										<clipindex>12</clipindex>
										<groupindex>1</groupindex>
									</link>
									<itemhistory>
										<uuid>213BDD85-D762-4525-9CC7-8E6A4FC55A19</uuid>
									</itemhistory>
								</clipitem>
								<clipitem id="Raw Interview Matthew Duepner594">
									<name>Raw Interview Matthew Duepner</name>
									<duration>81486</duration>
									<rate>
										<ntsc>TRUE</ntsc>
										<timebase>24</timebase>
									</rate>
									<in>20229</in>
									<out>20906</out>
									<start>8259</start>
									<end>8936</end>
									<masterclipid>Raw Interview Matthew Duepner390</masterclipid>
									<logginginfo>
										<scene/>
										<shottake/>
										<lognote/>
										<good>FALSE</good>
									</logginginfo>
									<labels>
										<label2/>
									</labels>
									<comments>
										<mastercomment1/>
										<mastercomment2/>
										<mastercomment3/>
										<mastercomment4/>
									</comments>
									<file id="YIN_2013-05-28_LG-5 "/>
									<filter>
										<effect>
											<name>Audio Levels</name>
											<effectid>audiolevels</effectid>
											<effectcategory>audiolevels</effectcategory>
											<effecttype>audiolevels</effecttype>
											<mediatype>audio</mediatype>
											<parameter>
												<name>Level</name>
												<parameterid>level</parameterid>
												<valuemin>0</valuemin>
												<valuemax>3.98109</valuemax>
												<value>1</value>
											</parameter>
										</effect>
									</filter>
									<filter>
										<effect>
											<name>Audio Pan</name>
											<effectid>audiopan</effectid>
											<effectcategory>audiopan</effectcategory>
											<effecttype>audiopan</effecttype>
											<mediatype>audio</mediatype>
											<parameter>
												<name>Pan</name>
												<parameterid>pan</parameterid>
												<valuemin>-1</valuemin>
												<valuemax>1</valuemax>
												<value>-0</value>
											</parameter>
										</effect>
									</filter>
									<sourcetrack>
										<mediatype>audio</mediatype>
										<trackindex>2</trackindex>
									</sourcetrack>
									<link>
										<linkclipref>Raw Interview Matthew Duepner592</linkclipref>
										<mediatype>video</mediatype>
										<trackindex>1</trackindex>
										<clipindex>13</clipindex>
									</link>
									<link>
										<linkclipref>Raw Interview Matthew Duepner593</linkclipref>
										<mediatype>audio</mediatype>
										<trackindex>1</trackindex>
										<clipindex>13</clipindex>
										<groupindex>1</groupindex>
									</link>
									<link>
										<linkclipref>Raw Interview Matthew Duepner594</linkclipref>
										<mediatype>audio</mediatype>
										<trackindex>2</trackindex>
										<clipindex>13</clipindex>
										<groupindex>1</groupindex>
									</link>
									<itemhistory>
										<uuid>9C0EFC70-DBBC-4B11-9CE8-5F0386B721B5</uuid>
									</itemhistory>
								</clipitem>
								<clipitem id="Raw Interview Matthew Duepner597">
									<name>Raw Interview Matthew Duepner</name>
									<duration>81486</duration>
									<rate>
										<ntsc>TRUE</ntsc>
										<timebase>24</timebase>
									</rate>
									<in>21594</in>
									<out>22531</out>
									<start>8936</start>
									<end>9873</end>
									<masterclipid>Raw Interview Matthew Duepner390</masterclipid>
									<logginginfo>
										<scene/>
										<shottake/>
										<lognote/>
										<good>FALSE</good>
									</logginginfo>
									<labels>
										<label2/>
									</labels>
									<comments>
										<mastercomment1/>
										<mastercomment2/>
										<mastercomment3/>
										<mastercomment4/>
									</comments>
									<file id="YIN_2013-05-28_LG-5 "/>
									<filter>
										<effect>
											<name>Audio Levels</name>
											<effectid>audiolevels</effectid>
											<effectcategory>audiolevels</effectcategory>
											<effecttype>audiolevels</effecttype>
											<mediatype>audio</mediatype>
											<parameter>
												<name>Level</name>
												<parameterid>level</parameterid>
												<valuemin>0</valuemin>
												<valuemax>3.98109</valuemax>
												<value>1</value>
											</parameter>
										</effect>
									</filter>
									<filter>
										<effect>
											<name>Audio Pan</name>
											<effectid>audiopan</effectid>
											<effectcategory>audiopan</effectcategory>
											<effecttype>audiopan</effecttype>
											<mediatype>audio</mediatype>
											<parameter>
												<name>Pan</name>
												<parameterid>pan</parameterid>
												<valuemin>-1</valuemin>
												<valuemax>1</valuemax>
												<value>-0</value>
											</parameter>
										</effect>
									</filter>
									<sourcetrack>
										<mediatype>audio</mediatype>
										<trackindex>2</trackindex>
									</sourcetrack>
									<link>
										<linkclipref>Raw Interview Matthew Duepner595</linkclipref>
										<mediatype>video</mediatype>
										<trackindex>1</trackindex>
										<clipindex>14</clipindex>
									</link>
									<link>
										<linkclipref>Raw Interview Matthew Duepner596</linkclipref>
										<mediatype>audio</mediatype>
										<trackindex>1</trackindex>
										<clipindex>14</clipindex>
										<groupindex>1</groupindex>
									</link>
									<link>
										<linkclipref>Raw Interview Matthew Duepner597</linkclipref>
										<mediatype>audio</mediatype>
										<trackindex>2</trackindex>
										<clipindex>14</clipindex>
										<groupindex>1</groupindex>
									</link>
									<itemhistory>
										<uuid>A6DA18C0-4021-4C7E-9266-709E562C1EB7</uuid>
									</itemhistory>
								</clipitem>
								<clipitem id="Raw Interview Matthew Duepner600">
									<name>Raw Interview Matthew Duepner</name>
									<duration>81486</duration>
									<rate>
										<ntsc>TRUE</ntsc>
										<timebase>24</timebase>
									</rate>
									<in>24217</in>
									<out>25037</out>
									<start>9873</start>
									<end>10693</end>
									<masterclipid>Raw Interview Matthew Duepner390</masterclipid>
									<logginginfo>
										<scene/>
										<shottake/>
										<lognote/>
										<good>FALSE</good>
									</logginginfo>
									<labels>
										<label2/>
									</labels>
									<comments>
										<mastercomment1/>
										<mastercomment2/>
										<mastercomment3/>
										<mastercomment4/>
									</comments>
									<file id="YIN_2013-05-28_LG-5 "/>
									<filter>
										<effect>
											<name>Audio Levels</name>
											<effectid>audiolevels</effectid>
											<effectcategory>audiolevels</effectcategory>
											<effecttype>audiolevels</effecttype>
											<mediatype>audio</mediatype>
											<parameter>
												<name>Level</name>
												<parameterid>level</parameterid>
												<valuemin>0</valuemin>
												<valuemax>3.98109</valuemax>
												<value>1</value>
											</parameter>
										</effect>
									</filter>
									<filter>
										<effect>
											<name>Audio Pan</name>
											<effectid>audiopan</effectid>
											<effectcategory>audiopan</effectcategory>
											<effecttype>audiopan</effecttype>
											<mediatype>audio</mediatype>
											<parameter>
												<name>Pan</name>
												<parameterid>pan</parameterid>
												<valuemin>-1</valuemin>
												<valuemax>1</valuemax>
												<value>-0</value>
											</parameter>
										</effect>
									</filter>
									<sourcetrack>
										<mediatype>audio</mediatype>
										<trackindex>2</trackindex>
									</sourcetrack>
									<link>
										<linkclipref>Raw Interview Matthew Duepner598</linkclipref>
										<mediatype>video</mediatype>
										<trackindex>1</trackindex>
										<clipindex>15</clipindex>
									</link>
									<link>
										<linkclipref>Raw Interview Matthew Duepner599</linkclipref>
										<mediatype>audio</mediatype>
										<trackindex>1</trackindex>
										<clipindex>15</clipindex>
										<groupindex>1</groupindex>
									</link>
									<link>
										<linkclipref>Raw Interview Matthew Duepner600</linkclipref>
										<mediatype>audio</mediatype>
										<trackindex>2</trackindex>
										<clipindex>15</clipindex>
										<groupindex>1</groupindex>
									</link>
									<itemhistory>
										<uuid>18E48BBF-731C-427E-BB4C-16CD7D998EFF</uuid>
									</itemhistory>
								</clipitem>
								<clipitem id="Raw Interview Matthew Duepner603">
									<name>Raw Interview Matthew Duepner</name>
									<duration>81486</duration>
									<rate>
										<ntsc>TRUE</ntsc>
										<timebase>24</timebase>
									</rate>
									<in>52125</in>
									<out>52578</out>
									<start>10693</start>
									<end>11146</end>
									<masterclipid>Raw Interview Matthew Duepner390</masterclipid>
									<logginginfo>
										<scene/>
										<shottake/>
										<lognote/>
										<good>FALSE</good>
									</logginginfo>
									<labels>
										<label2/>
									</labels>
									<comments>
										<mastercomment1/>
										<mastercomment2/>
										<mastercomment3/>
										<mastercomment4/>
									</comments>
									<file id="YIN_2013-05-28_LG-5 "/>
									<filter>
										<effect>
											<name>Audio Levels</name>
											<effectid>audiolevels</effectid>
											<effectcategory>audiolevels</effectcategory>
											<effecttype>audiolevels</effecttype>
											<mediatype>audio</mediatype>
											<parameter>
												<name>Level</name>
												<parameterid>level</parameterid>
												<valuemin>0</valuemin>
												<valuemax>3.98109</valuemax>
												<value>1</value>
											</parameter>
										</effect>
									</filter>
									<filter>
										<effect>
											<name>Audio Pan</name>
											<effectid>audiopan</effectid>
											<effectcategory>audiopan</effectcategory>
											<effecttype>audiopan</effecttype>
											<mediatype>audio</mediatype>
											<parameter>
												<name>Pan</name>
												<parameterid>pan</parameterid>
												<valuemin>-1</valuemin>
												<valuemax>1</valuemax>
												<value>-0</value>
											</parameter>
										</effect>
									</filter>
									<sourcetrack>
										<mediatype>audio</mediatype>
										<trackindex>2</trackindex>
									</sourcetrack>
									<link>
										<linkclipref>Raw Interview Matthew Duepner601</linkclipref>
										<mediatype>video</mediatype>
										<trackindex>1</trackindex>
										<clipindex>16</clipindex>
									</link>
									<link>
										<linkclipref>Raw Interview Matthew Duepner602</linkclipref>
										<mediatype>audio</mediatype>
										<trackindex>1</trackindex>
										<clipindex>16</clipindex>
										<groupindex>1</groupindex>
									</link>
									<link>
										<linkclipref>Raw Interview Matthew Duepner603</linkclipref>
										<mediatype>audio</mediatype>
										<trackindex>2</trackindex>
										<clipindex>16</clipindex>
										<groupindex>1</groupindex>
									</link>
									<itemhistory>
										<uuid>570E892A-FE54-4E49-8D54-B1F44CB77BA3</uuid>
									</itemhistory>
								</clipitem>
								<enabled>TRUE</enabled>
								<locked>FALSE</locked>
								<outputchannelindex>2</outputchannelindex>
							</track>
							<track>
								<clipitem id="Raw Scene Matthew Duepner House Tour5">
									<name>Raw Scene Matthew Duepner House Tour</name>
									<duration>16257</duration>
									<rate>
										<ntsc>TRUE</ntsc>
										<timebase>24</timebase>
									</rate>
									<in>12088</in>
									<out>13058</out>
									<start>0</start>
									<end>970</end>
									<masterclipid>Raw Scene Matthew Duepner House Tour</masterclipid>
									<logginginfo>
										<scene/>
										<shottake/>
										<lognote/>
										<good>FALSE</good>
									</logginginfo>
									<labels>
										<label2/>
									</labels>
									<comments>
										<mastercomment1/>
										<mastercomment2/>
										<mastercomment3/>
										<mastercomment4/>
									</comments>
									<file id="YIN_2013-05-28_LG-3 "/>
									<filter>
										<effect>
											<name>Audio Levels</name>
											<effectid>audiolevels</effectid>
											<effectcategory>audiolevels</effectcategory>
											<effecttype>audiolevels</effecttype>
											<mediatype>audio</mediatype>
											<parameter>
												<name>Level</name>
												<parameterid>level</parameterid>
												<valuemin>0</valuemin>
												<valuemax>3.98109</valuemax>
												<value>1</value>
											</parameter>
										</effect>
									</filter>
									<filter>
										<effect>
											<name>Audio Pan</name>
											<effectid>audiopan</effectid>
											<effectcategory>audiopan</effectcategory>
											<effecttype>audiopan</effecttype>
											<mediatype>audio</mediatype>
											<parameter>
												<name>Pan</name>
												<parameterid>pan</parameterid>
												<valuemin>-1</valuemin>
												<valuemax>1</valuemax>
												<value>0</value>
											</parameter>
										</effect>
									</filter>
									<sourcetrack>
										<mediatype>audio</mediatype>
										<trackindex>1</trackindex>
									</sourcetrack>
									<link>
										<linkclipref>Raw Scene Matthew Duepner House Tour4</linkclipref>
										<mediatype>video</mediatype>
										<trackindex>2</trackindex>
										<clipindex>1</clipindex>
									</link>
									<link>
										<linkclipref>Raw Scene Matthew Duepner House Tour5</linkclipref>
										<mediatype>audio</mediatype>
										<trackindex>3</trackindex>
										<clipindex>1</clipindex>
										<groupindex>1</groupindex>
									</link>
									<link>
										<linkclipref>Raw Scene Matthew Duepner House Tour6</linkclipref>
										<mediatype>audio</mediatype>
										<trackindex>4</trackindex>
										<clipindex>1</clipindex>
										<groupindex>1</groupindex>
									</link>
									<itemhistory>
										<uuid>77E1164F-AAAB-449A-B5C2-607B7525E131</uuid>
									</itemhistory>
								</clipitem>
								<clipitem id="Raw Scene Matthew Duepner House Tour17">
									<name>Raw Scene Matthew Duepner House Tour</name>
									<duration>16257</duration>
									<rate>
										<ntsc>TRUE</ntsc>
										<timebase>24</timebase>
									</rate>
									<in>8815</in>
									<out>9481</out>
									<start>1371</start>
									<end>2037</end>
									<masterclipid>Raw Scene Matthew Duepner House Tour</masterclipid>
									<logginginfo>
										<scene/>
										<shottake/>
										<lognote/>
										<good>FALSE</good>
									</logginginfo>
									<labels>
										<label2/>
									</labels>
									<comments>
										<mastercomment1/>
										<mastercomment2/>
										<mastercomment3/>
										<mastercomment4/>
									</comments>
									<file id="YIN_2013-05-28_LG-3 "/>
									<filter>
										<effect>
											<name>Audio Levels</name>
											<effectid>audiolevels</effectid>
											<effectcategory>audiolevels</effectcategory>
											<effecttype>audiolevels</effecttype>
											<mediatype>audio</mediatype>
											<parameter>
												<name>Level</name>
												<parameterid>level</parameterid>
												<valuemin>0</valuemin>
												<valuemax>3.98109</valuemax>
												<value>1</value>
											</parameter>
										</effect>
									</filter>
									<filter>
										<effect>
											<name>Audio Pan</name>
											<effectid>audiopan</effectid>
											<effectcategory>audiopan</effectcategory>
											<effecttype>audiopan</effecttype>
											<mediatype>audio</mediatype>
											<parameter>
												<name>Pan</name>
												<parameterid>pan</parameterid>
												<valuemin>-1</valuemin>
												<valuemax>1</valuemax>
												<value>0</value>
											</parameter>
										</effect>
									</filter>
									<sourcetrack>
										<mediatype>audio</mediatype>
										<trackindex>1</trackindex>
									</sourcetrack>
									<link>
										<linkclipref>Raw Scene Matthew Duepner House Tour17</linkclipref>
										<mediatype>audio</mediatype>
										<trackindex>3</trackindex>
										<clipindex>2</clipindex>
										<groupindex>1</groupindex>
									</link>
									<link>
										<linkclipref>Raw Scene Matthew Duepner House Tour18</linkclipref>
										<mediatype>audio</mediatype>
										<trackindex>4</trackindex>
										<clipindex>2</clipindex>
										<groupindex>1</groupindex>
									</link>
									<itemhistory>
										<uuid>26537026-4402-4428-B528-BE5E7AB94F14</uuid>
									</itemhistory>
								</clipitem>
								<clipitem id="Raw Scene Matthew Duepner House Tour9">
									<name>Raw Scene Matthew Duepner House Tour</name>
									<duration>16257</duration>
									<rate>
										<ntsc>TRUE</ntsc>
										<timebase>24</timebase>
									</rate>
									<in>11463</in>
									<out>11556</out>
									<start>2126</start>
									<end>2219</end>
									<enabled>FALSE</enabled>
									<masterclipid>Raw Scene Matthew Duepner House Tour</masterclipid>
									<logginginfo>
										<scene/>
										<shottake/>
										<lognote/>
										<good>FALSE</good>
									</logginginfo>
									<labels>
										<label2/>
									</labels>
									<comments>
										<mastercomment1/>
										<mastercomment2/>
										<mastercomment3/>
										<mastercomment4/>
									</comments>
									<file id="YIN_2013-05-28_LG-3 "/>
									<filter>
										<effect>
											<name>Audio Levels</name>
											<effectid>audiolevels</effectid>
											<effectcategory>audiolevels</effectcategory>
											<effecttype>audiolevels</effecttype>
											<mediatype>audio</mediatype>
											<parameter>
												<name>Level</name>
												<parameterid>level</parameterid>
												<valuemin>0</valuemin>
												<valuemax>3.98109</valuemax>
												<value>1</value>
											</parameter>
										</effect>
									</filter>
									<filter>
										<effect>
											<name>Audio Pan</name>
											<effectid>audiopan</effectid>
											<effectcategory>audiopan</effectcategory>
											<effecttype>audiopan</effecttype>
											<mediatype>audio</mediatype>
											<parameter>
												<name>Pan</name>
												<parameterid>pan</parameterid>
												<valuemin>-1</valuemin>
												<valuemax>1</valuemax>
												<value>0</value>
											</parameter>
										</effect>
									</filter>
									<sourcetrack>
										<mediatype>audio</mediatype>
										<trackindex>1</trackindex>
									</sourcetrack>
									<link>
										<linkclipref>Raw Scene Matthew Duepner House Tour8</linkclipref>
										<mediatype>video</mediatype>
										<trackindex>2</trackindex>
										<clipindex>3</clipindex>
									</link>
									<link>
										<linkclipref>Raw Scene Matthew Duepner House Tour9</linkclipref>
										<mediatype>audio</mediatype>
										<trackindex>3</trackindex>
										<clipindex>3</clipindex>
										<groupindex>1</groupindex>
									</link>
									<link>
										<linkclipref>Raw Scene Matthew Duepner House Tour10</linkclipref>
										<mediatype>audio</mediatype>
										<trackindex>4</trackindex>
										<clipindex>3</clipindex>
										<groupindex>1</groupindex>
									</link>
									<itemhistory>
										<uuid>93E3D376-AE66-44CB-A427-50D574D65920</uuid>
									</itemhistory>
								</clipitem>
								<clipitem id="Raw Scene Matthew Duepner Printing113">
									<name>Raw Scene Matthew Duepner Printing</name>
									<duration>28553</duration>
									<rate>
										<ntsc>TRUE</ntsc>
										<timebase>24</timebase>
									</rate>
									<in>11949</in>
									<out>12060</out>
									<start>2471</start>
									<end>2582</end>
									<masterclipid>Raw Scene Matthew Duepner Printing72</masterclipid>
									<logginginfo>
										<scene/>
										<shottake/>
										<lognote/>
										<good>FALSE</good>
									</logginginfo>
									<labels>
										<label2/>
									</labels>
									<comments>
										<mastercomment1/>
										<mastercomment2/>
										<mastercomment3/>
										<mastercomment4/>
									</comments>
									<file id="YIN_2013-05-28_LG-6 "/>
									<filter>
										<effect>
											<name>Audio Levels</name>
											<effectid>audiolevels</effectid>
											<effectcategory>audiolevels</effectcategory>
											<effecttype>audiolevels</effecttype>
											<mediatype>audio</mediatype>
											<parameter>
												<name>Level</name>
												<parameterid>level</parameterid>
												<valuemin>0</valuemin>
												<valuemax>3.98109</valuemax>
												<value>1</value>
											</parameter>
										</effect>
									</filter>
									<filter>
										<effect>
											<name>Audio Pan</name>
											<effectid>audiopan</effectid>
											<effectcategory>audiopan</effectcategory>
											<effecttype>audiopan</effecttype>
											<mediatype>audio</mediatype>
											<parameter>
												<name>Pan</name>
												<parameterid>pan</parameterid>
												<valuemin>-1</valuemin>
												<valuemax>1</valuemax>
												<value>0</value>
											</parameter>
										</effect>
									</filter>
									<sourcetrack>
										<mediatype>audio</mediatype>
										<trackindex>1</trackindex>
									</sourcetrack>
									<link>
										<linkclipref>Raw Scene Matthew Duepner Printing112</linkclipref>
										<mediatype>video</mediatype>
										<trackindex>2</trackindex>
										<clipindex>4</clipindex>
									</link>
									<link>
										<linkclipref>Raw Scene Matthew Duepner Printing113</linkclipref>
										<mediatype>audio</mediatype>
										<trackindex>3</trackindex>
										<clipindex>4</clipindex>
										<groupindex>1</groupindex>
									</link>
									<link>
										<linkclipref>Raw Scene Matthew Duepner Printing114</linkclipref>
										<mediatype>audio</mediatype>
										<trackindex>4</trackindex>
										<clipindex>4</clipindex>
										<groupindex>1</groupindex>
									</link>
									<itemhistory>
										<uuid>6C032D27-E008-40C1-AE65-B2FBC59E10AA</uuid>
									</itemhistory>
								</clipitem>
								<clipitem id="Raw B Roll Hack Manhattan Matthew Duepner's House104">
									<name>Raw B Roll Hack Manhattan Matthew Duepner's House</name>
									<duration>6617</duration>
									<rate>
										<ntsc>TRUE</ntsc>
										<timebase>24</timebase>
									</rate>
									<in>5185</in>
									<out>5305</out>
									<start>2582</start>
									<end>2702</end>
									<masterclipid>Raw B Roll Hack Manhattan Matthew Duepner's House1</masterclipid>
									<logginginfo>
										<scene/>
										<shottake/>
										<lognote/>
										<good>FALSE</good>
									</logginginfo>
									<labels>
										<label2/>
									</labels>
									<comments>
										<mastercomment1/>
										<mastercomment2/>
										<mastercomment3/>
										<mastercomment4/>
									</comments>
									<file id="YIN_2013-04-28_JB-1 "/>
									<filter>
										<effect>
											<name>Audio Levels</name>
											<effectid>audiolevels</effectid>
											<effectcategory>audiolevels</effectcategory>
											<effecttype>audiolevels</effecttype>
											<mediatype>audio</mediatype>
											<parameter>
												<name>Level</name>
												<parameterid>level</parameterid>
												<valuemin>0</valuemin>
												<valuemax>3.98109</valuemax>
												<value>1</value>
											</parameter>
										</effect>
									</filter>
									<filter>
										<effect>
											<name>Audio Pan</name>
											<effectid>audiopan</effectid>
											<effectcategory>audiopan</effectcategory>
											<effecttype>audiopan</effecttype>
											<mediatype>audio</mediatype>
											<parameter>
												<name>Pan</name>
												<parameterid>pan</parameterid>
												<valuemin>-1</valuemin>
												<valuemax>1</valuemax>
												<value>0</value>
											</parameter>
										</effect>
									</filter>
									<sourcetrack>
										<mediatype>audio</mediatype>
										<trackindex>1</trackindex>
									</sourcetrack>
									<link>
										<linkclipref>Raw B Roll Hack Manhattan Matthew Duepner's House103</linkclipref>
										<mediatype>video</mediatype>
										<trackindex>2</trackindex>
										<clipindex>5</clipindex>
									</link>
									<link>
										<linkclipref>Raw B Roll Hack Manhattan Matthew Duepner's House104</linkclipref>
										<mediatype>audio</mediatype>
										<trackindex>3</trackindex>
										<clipindex>5</clipindex>
										<groupindex>1</groupindex>
									</link>
									<link>
										<linkclipref>Raw B Roll Hack Manhattan Matthew Duepner's House105</linkclipref>
										<mediatype>audio</mediatype>
										<trackindex>4</trackindex>
										<clipindex>5</clipindex>
										<groupindex>1</groupindex>
									</link>
									<itemhistory>
										<uuid>6FEECE97-8178-4F30-B0DD-EBCAE4B82678</uuid>
									</itemhistory>
								</clipitem>
								<clipitem id="Raw B Roll Hack Manhattan Matthew Duepner's House107">
									<name>Raw B Roll Hack Manhattan Matthew Duepner's House</name>
									<duration>6617</duration>
									<rate>
										<ntsc>TRUE</ntsc>
										<timebase>24</timebase>
									</rate>
									<in>5305</in>
									<out>5411</out>
									<start>2702</start>
									<end>2808</end>
									<masterclipid>Raw B Roll Hack Manhattan Matthew Duepner's House1</masterclipid>
									<logginginfo>
										<scene/>
										<shottake/>
										<lognote/>
										<good>FALSE</good>
									</logginginfo>
									<labels>
										<label2/>
									</labels>
									<comments>
										<mastercomment1/>
										<mastercomment2/>
										<mastercomment3/>
										<mastercomment4/>
									</comments>
									<file id="YIN_2013-04-28_JB-1 "/>
									<filter>
										<effect>
											<name>Audio Levels</name>
											<effectid>audiolevels</effectid>
											<effectcategory>audiolevels</effectcategory>
											<effecttype>audiolevels</effecttype>
											<mediatype>audio</mediatype>
											<parameter>
												<name>Level</name>
												<parameterid>level</parameterid>
												<valuemin>0</valuemin>
												<valuemax>3.98109</valuemax>
												<value>1</value>
											</parameter>
										</effect>
									</filter>
									<filter>
										<effect>
											<name>Audio Pan</name>
											<effectid>audiopan</effectid>
											<effectcategory>audiopan</effectcategory>
											<effecttype>audiopan</effecttype>
											<mediatype>audio</mediatype>
											<parameter>
												<name>Pan</name>
												<parameterid>pan</parameterid>
												<valuemin>-1</valuemin>
												<valuemax>1</valuemax>
												<value>0</value>
											</parameter>
										</effect>
									</filter>
									<sourcetrack>
										<mediatype>audio</mediatype>
										<trackindex>1</trackindex>
									</sourcetrack>
									<link>
										<linkclipref>Raw B Roll Hack Manhattan Matthew Duepner's House106</linkclipref>
										<mediatype>video</mediatype>
										<trackindex>2</trackindex>
										<clipindex>6</clipindex>
									</link>
									<link>
										<linkclipref>Raw B Roll Hack Manhattan Matthew Duepner's House107</linkclipref>
										<mediatype>audio</mediatype>
										<trackindex>3</trackindex>
										<clipindex>6</clipindex>
										<groupindex>1</groupindex>
									</link>
									<link>
										<linkclipref>Raw B Roll Hack Manhattan Matthew Duepner's House108</linkclipref>
										<mediatype>audio</mediatype>
										<trackindex>4</trackindex>
										<clipindex>6</clipindex>
										<groupindex>1</groupindex>
									</link>
									<itemhistory>
										<uuid>B9671A1A-878B-4B4E-8BC3-EDC138313A6A</uuid>
									</itemhistory>
								</clipitem>
								<clipitem id="Raw Scene Matthew Duepner Printing116">
									<name>Raw Scene Matthew Duepner Printing</name>
									<duration>28553</duration>
									<rate>
										<ntsc>TRUE</ntsc>
										<timebase>24</timebase>
									</rate>
									<in>4048</in>
									<out>4327</out>
									<start>2808</start>
									<end>3087</end>
									<masterclipid>Raw Scene Matthew Duepner Printing72</masterclipid>
									<logginginfo>
										<scene/>
										<shottake/>
										<lognote/>
										<good>FALSE</good>
									</logginginfo>
									<labels>
										<label2/>
									</labels>
									<comments>
										<mastercomment1/>
										<mastercomment2/>
										<mastercomment3/>
										<mastercomment4/>
									</comments>
									<file id="YIN_2013-05-28_LG-6 "/>
									<filter>
										<effect>
											<name>Audio Levels</name>
											<effectid>audiolevels</effectid>
											<effectcategory>audiolevels</effectcategory>
											<effecttype>audiolevels</effecttype>
											<mediatype>audio</mediatype>
											<parameter>
												<name>Level</name>
												<parameterid>level</parameterid>
												<valuemin>0</valuemin>
												<valuemax>3.98109</valuemax>
												<value>1</value>
											</parameter>
										</effect>
									</filter>
									<filter>
										<effect>
											<name>Audio Pan</name>
											<effectid>audiopan</effectid>
											<effectcategory>audiopan</effectcategory>
											<effecttype>audiopan</effecttype>
											<mediatype>audio</mediatype>
											<parameter>
												<name>Pan</name>
												<parameterid>pan</parameterid>
												<valuemin>-1</valuemin>
												<valuemax>1</valuemax>
												<value>0</value>
											</parameter>
										</effect>
									</filter>
									<sourcetrack>
										<mediatype>audio</mediatype>
										<trackindex>1</trackindex>
									</sourcetrack>
									<link>
										<linkclipref>Raw Scene Matthew Duepner Printing115</linkclipref>
										<mediatype>video</mediatype>
										<trackindex>2</trackindex>
										<clipindex>7</clipindex>
									</link>
									<link>
										<linkclipref>Raw Scene Matthew Duepner Printing116</linkclipref>
										<mediatype>audio</mediatype>
										<trackindex>3</trackindex>
										<clipindex>7</clipindex>
										<groupindex>1</groupindex>
									</link>
									<link>
										<linkclipref>Raw Scene Matthew Duepner Printing117</linkclipref>
										<mediatype>audio</mediatype>
										<trackindex>4</trackindex>
										<clipindex>7</clipindex>
										<groupindex>1</groupindex>
									</link>
									<itemhistory>
										<uuid>30B9079D-4D10-4B36-A47B-A547FC767B30</uuid>
									</itemhistory>
								</clipitem>
								<clipitem id="Raw Scene Matthew Duepner Printing125">
									<name>Raw Scene Matthew Duepner Printing</name>
									<duration>28553</duration>
									<rate>
										<ntsc>TRUE</ntsc>
										<timebase>24</timebase>
									</rate>
									<in>27466</in>
									<out>27780</out>
									<start>3389</start>
									<end>3703</end>
									<masterclipid>Raw Scene Matthew Duepner Printing72</masterclipid>
									<logginginfo>
										<scene/>
										<shottake/>
										<lognote/>
										<good>FALSE</good>
									</logginginfo>
									<labels>
										<label2/>
									</labels>
									<comments>
										<mastercomment1/>
										<mastercomment2/>
										<mastercomment3/>
										<mastercomment4/>
									</comments>
									<file id="YIN_2013-05-28_LG-6 "/>
									<filter>
										<effect>
											<name>Audio Levels</name>
											<effectid>audiolevels</effectid>
											<effectcategory>audiolevels</effectcategory>
											<effecttype>audiolevels</effecttype>
											<mediatype>audio</mediatype>
											<parameter>
												<name>Level</name>
												<parameterid>level</parameterid>
												<valuemin>0</valuemin>
												<valuemax>3.98109</valuemax>
												<value>1</value>
											</parameter>
										</effect>
									</filter>
									<filter>
										<effect>
											<name>Audio Pan</name>
											<effectid>audiopan</effectid>
											<effectcategory>audiopan</effectcategory>
											<effecttype>audiopan</effecttype>
											<mediatype>audio</mediatype>
											<parameter>
												<name>Pan</name>
												<parameterid>pan</parameterid>
												<valuemin>-1</valuemin>
												<valuemax>1</valuemax>
												<value>0</value>
											</parameter>
										</effect>
									</filter>
									<sourcetrack>
										<mediatype>audio</mediatype>
										<trackindex>1</trackindex>
									</sourcetrack>
									<link>
										<linkclipref>Raw Scene Matthew Duepner Printing125</linkclipref>
										<mediatype>audio</mediatype>
										<trackindex>3</trackindex>
										<clipindex>8</clipindex>
										<groupindex>1</groupindex>
									</link>
									<link>
										<linkclipref>Raw Scene Matthew Duepner Printing126</linkclipref>
										<mediatype>audio</mediatype>
										<trackindex>4</trackindex>
										<clipindex>8</clipindex>
										<groupindex>1</groupindex>
									</link>
									<itemhistory>
										<uuid>607E9ADE-0EC8-4812-9E64-8900D782FD13</uuid>
									</itemhistory>
								</clipitem>
								<clipitem id="Raw Scene Matthew Duepner Walkabout356">
									<name>Raw Scene Matthew Duepner Walkabout</name>
									<duration>38484</duration>
									<rate>
										<ntsc>TRUE</ntsc>
										<timebase>24</timebase>
									</rate>
									<in>5124</in>
									<out>5266</out>
									<start>3986</start>
									<end>4128</end>
									<masterclipid>Raw Scene Matthew Duepner Walkabout234</masterclipid>
									<logginginfo>
										<scene/>
										<shottake/>
										<lognote/>
										<good>FALSE</good>
									</logginginfo>
									<labels>
										<label2/>
									</labels>
									<comments>
										<mastercomment1/>
										<mastercomment2/>
										<mastercomment3/>
										<mastercomment4/>
									</comments>
									<file id="YIN_2013-05-28_LG-4 "/>
									<filter>
										<effect>
											<name>Audio Levels</name>
											<effectid>audiolevels</effectid>
											<effectcategory>audiolevels</effectcategory>
											<effecttype>audiolevels</effecttype>
											<mediatype>audio</mediatype>
											<parameter>
												<name>Level</name>
												<parameterid>level</parameterid>
												<valuemin>0</valuemin>
												<valuemax>3.98109</valuemax>
												<value>1</value>
											</parameter>
										</effect>
									</filter>
									<filter>
										<effect>
											<name>Audio Pan</name>
											<effectid>audiopan</effectid>
											<effectcategory>audiopan</effectcategory>
											<effecttype>audiopan</effecttype>
											<mediatype>audio</mediatype>
											<parameter>
												<name>Pan</name>
												<parameterid>pan</parameterid>
												<valuemin>-1</valuemin>
												<valuemax>1</valuemax>
												<value>0</value>
											</parameter>
										</effect>
									</filter>
									<sourcetrack>
										<mediatype>audio</mediatype>
										<trackindex>1</trackindex>
									</sourcetrack>
									<link>
										<linkclipref>Raw Scene Matthew Duepner Walkabout355</linkclipref>
										<mediatype>video</mediatype>
										<trackindex>2</trackindex>
										<clipindex>9</clipindex>
									</link>
									<link>
										<linkclipref>Raw Scene Matthew Duepner Walkabout356</linkclipref>
										<mediatype>audio</mediatype>
										<trackindex>3</trackindex>
										<clipindex>9</clipindex>
										<groupindex>1</groupindex>
									</link>
									<link>
										<linkclipref>Raw Scene Matthew Duepner Walkabout357</linkclipref>
										<mediatype>audio</mediatype>
										<trackindex>4</trackindex>
										<clipindex>9</clipindex>
										<groupindex>1</groupindex>
									</link>
									<itemhistory>
										<uuid>D611FA44-1279-46D7-8F12-5BE54F376D06</uuid>
									</itemhistory>
								</clipitem>
								<clipitem id="Raw Scene Matthew Duepner Walkabout359">
									<name>Raw Scene Matthew Duepner Walkabout</name>
									<duration>38484</duration>
									<rate>
										<ntsc>TRUE</ntsc>
										<timebase>24</timebase>
									</rate>
									<in>4745</in>
									<out>5123</out>
									<start>4128</start>
									<end>4506</end>
									<masterclipid>Raw Scene Matthew Duepner Walkabout234</masterclipid>
									<logginginfo>
										<scene/>
										<shottake/>
										<lognote/>
										<good>FALSE</good>
									</logginginfo>
									<labels>
										<label2/>
									</labels>
									<comments>
										<mastercomment1/>
										<mastercomment2/>
										<mastercomment3/>
										<mastercomment4/>
									</comments>
									<file id="YIN_2013-05-28_LG-4 "/>
									<filter>
										<effect>
											<name>Audio Levels</name>
											<effectid>audiolevels</effectid>
											<effectcategory>audiolevels</effectcategory>
											<effecttype>audiolevels</effecttype>
											<mediatype>audio</mediatype>
											<parameter>
												<name>Level</name>
												<parameterid>level</parameterid>
												<valuemin>0</valuemin>
												<valuemax>3.98109</valuemax>
												<value>1</value>
											</parameter>
										</effect>
									</filter>
									<filter>
										<effect>
											<name>Audio Pan</name>
											<effectid>audiopan</effectid>
											<effectcategory>audiopan</effectcategory>
											<effecttype>audiopan</effecttype>
											<mediatype>audio</mediatype>
											<parameter>
												<name>Pan</name>
												<parameterid>pan</parameterid>
												<valuemin>-1</valuemin>
												<valuemax>1</valuemax>
												<value>0</value>
											</parameter>
										</effect>
									</filter>
									<sourcetrack>
										<mediatype>audio</mediatype>
										<trackindex>1</trackindex>
									</sourcetrack>
									<link>
										<linkclipref>Raw Scene Matthew Duepner Walkabout358</linkclipref>
										<mediatype>video</mediatype>
										<trackindex>2</trackindex>
										<clipindex>10</clipindex>
									</link>
									<link>
										<linkclipref>Raw Scene Matthew Duepner Walkabout359</linkclipref>
										<mediatype>audio</mediatype>
										<trackindex>3</trackindex>
										<clipindex>10</clipindex>
										<groupindex>1</groupindex>
									</link>
									<link>
										<linkclipref>Raw Scene Matthew Duepner Walkabout360</linkclipref>
										<mediatype>audio</mediatype>
										<trackindex>4</trackindex>
										<clipindex>10</clipindex>
										<groupindex>1</groupindex>
									</link>
									<itemhistory>
										<uuid>62C81338-EF36-4A2E-9F70-4B3260B3B4D6</uuid>
									</itemhistory>
								</clipitem>
								<clipitem id="Raw Scene Matthew Duepner Walkabout362">
									<name>Raw Scene Matthew Duepner Walkabout</name>
									<duration>38484</duration>
									<rate>
										<ntsc>TRUE</ntsc>
										<timebase>24</timebase>
									</rate>
									<in>6478</in>
									<out>6599</out>
									<start>4506</start>
									<end>4627</end>
									<masterclipid>Raw Scene Matthew Duepner Walkabout234</masterclipid>
									<logginginfo>
										<scene/>
										<shottake/>
										<lognote/>
										<good>FALSE</good>
									</logginginfo>
									<labels>
										<label2/>
									</labels>
									<comments>
										<mastercomment1/>
										<mastercomment2/>
										<mastercomment3/>
										<mastercomment4/>
									</comments>
									<file id="YIN_2013-05-28_LG-4 "/>
									<filter>
										<effect>
											<name>Audio Levels</name>
											<effectid>audiolevels</effectid>
											<effectcategory>audiolevels</effectcategory>
											<effecttype>audiolevels</effecttype>
											<mediatype>audio</mediatype>
											<parameter>
												<name>Level</name>
												<parameterid>level</parameterid>
												<valuemin>0</valuemin>
												<valuemax>3.98109</valuemax>
												<value>1</value>
											</parameter>
										</effect>
									</filter>
									<filter>
										<effect>
											<name>Audio Pan</name>
											<effectid>audiopan</effectid>
											<effectcategory>audiopan</effectcategory>
											<effecttype>audiopan</effecttype>
											<mediatype>audio</mediatype>
											<parameter>
												<name>Pan</name>
												<parameterid>pan</parameterid>
												<valuemin>-1</valuemin>
												<valuemax>1</valuemax>
												<value>0</value>
											</parameter>
										</effect>
									</filter>
									<sourcetrack>
										<mediatype>audio</mediatype>
										<trackindex>1</trackindex>
									</sourcetrack>
									<link>
										<linkclipref>Raw Scene Matthew Duepner Walkabout361</linkclipref>
										<mediatype>video</mediatype>
										<trackindex>2</trackindex>
										<clipindex>11</clipindex>
									</link>
									<link>
										<linkclipref>Raw Scene Matthew Duepner Walkabout362</linkclipref>
										<mediatype>audio</mediatype>
										<trackindex>3</trackindex>
										<clipindex>11</clipindex>
										<groupindex>1</groupindex>
									</link>
									<link>
										<linkclipref>Raw Scene Matthew Duepner Walkabout363</linkclipref>
										<mediatype>audio</mediatype>
										<trackindex>4</trackindex>
										<clipindex>11</clipindex>
										<groupindex>1</groupindex>
									</link>
									<itemhistory>
										<uuid>E5CB364E-9EB6-4445-8F61-309C4C989C78</uuid>
									</itemhistory>
								</clipitem>
								<clipitem id="Raw Scene Matthew Duepner Walkabout365">
									<name>Raw Scene Matthew Duepner Walkabout</name>
									<duration>38484</duration>
									<rate>
										<ntsc>TRUE</ntsc>
										<timebase>24</timebase>
									</rate>
									<in>6653</in>
									<out>6829</out>
									<start>4627</start>
									<end>4803</end>
									<masterclipid>Raw Scene Matthew Duepner Walkabout234</masterclipid>
									<logginginfo>
										<scene/>
										<shottake/>
										<lognote/>
										<good>FALSE</good>
									</logginginfo>
									<labels>
										<label2/>
									</labels>
									<comments>
										<mastercomment1/>
										<mastercomment2/>
										<mastercomment3/>
										<mastercomment4/>
									</comments>
									<file id="YIN_2013-05-28_LG-4 "/>
									<filter>
										<effect>
											<name>Audio Levels</name>
											<effectid>audiolevels</effectid>
											<effectcategory>audiolevels</effectcategory>
											<effecttype>audiolevels</effecttype>
											<mediatype>audio</mediatype>
											<parameter>
												<name>Level</name>
												<parameterid>level</parameterid>
												<valuemin>0</valuemin>
												<valuemax>3.98109</valuemax>
												<value>1</value>
											</parameter>
										</effect>
									</filter>
									<filter>
										<effect>
											<name>Audio Pan</name>
											<effectid>audiopan</effectid>
											<effectcategory>audiopan</effectcategory>
											<effecttype>audiopan</effecttype>
											<mediatype>audio</mediatype>
											<parameter>
												<name>Pan</name>
												<parameterid>pan</parameterid>
												<valuemin>-1</valuemin>
												<valuemax>1</valuemax>
												<value>0</value>
											</parameter>
										</effect>
									</filter>
									<sourcetrack>
										<mediatype>audio</mediatype>
										<trackindex>1</trackindex>
									</sourcetrack>
									<link>
										<linkclipref>Raw Scene Matthew Duepner Walkabout364</linkclipref>
										<mediatype>video</mediatype>
										<trackindex>2</trackindex>
										<clipindex>12</clipindex>
									</link>
									<link>
										<linkclipref>Raw Scene Matthew Duepner Walkabout365</linkclipref>
										<mediatype>audio</mediatype>
										<trackindex>3</trackindex>
										<clipindex>12</clipindex>
										<groupindex>1</groupindex>
									</link>
									<link>
										<linkclipref>Raw Scene Matthew Duepner Walkabout366</linkclipref>
										<mediatype>audio</mediatype>
										<trackindex>4</trackindex>
										<clipindex>12</clipindex>
										<groupindex>1</groupindex>
									</link>
									<itemhistory>
										<uuid>C40EE5FA-2F3F-45D9-A51A-91BCB2023336</uuid>
									</itemhistory>
								</clipitem>
								<clipitem id="Raw Scene Matthew Duepner Walkabout368">
									<name>Raw Scene Matthew Duepner Walkabout</name>
									<duration>38484</duration>
									<rate>
										<ntsc>TRUE</ntsc>
										<timebase>24</timebase>
									</rate>
									<in>7114</in>
									<out>7311</out>
									<start>4997</start>
									<end>5194</end>
									<masterclipid>Raw Scene Matthew Duepner Walkabout234</masterclipid>
									<logginginfo>
										<scene/>
										<shottake/>
										<lognote/>
										<good>FALSE</good>
									</logginginfo>
									<labels>
										<label2/>
									</labels>
									<comments>
										<mastercomment1/>
										<mastercomment2/>
										<mastercomment3/>
										<mastercomment4/>
									</comments>
									<file id="YIN_2013-05-28_LG-4 "/>
									<filter>
										<effect>
											<name>Audio Levels</name>
											<effectid>audiolevels</effectid>
											<effectcategory>audiolevels</effectcategory>
											<effecttype>audiolevels</effecttype>
											<mediatype>audio</mediatype>
											<parameter>
												<name>Level</name>
												<parameterid>level</parameterid>
												<valuemin>0</valuemin>
												<valuemax>3.98109</valuemax>
												<value>1</value>
											</parameter>
										</effect>
									</filter>
									<filter>
										<effect>
											<name>Audio Pan</name>
											<effectid>audiopan</effectid>
											<effectcategory>audiopan</effectcategory>
											<effecttype>audiopan</effecttype>
											<mediatype>audio</mediatype>
											<parameter>
												<name>Pan</name>
												<parameterid>pan</parameterid>
												<valuemin>-1</valuemin>
												<valuemax>1</valuemax>
												<value>0</value>
											</parameter>
										</effect>
									</filter>
									<sourcetrack>
										<mediatype>audio</mediatype>
										<trackindex>1</trackindex>
									</sourcetrack>
									<link>
										<linkclipref>Raw Scene Matthew Duepner Walkabout367</linkclipref>
										<mediatype>video</mediatype>
										<trackindex>2</trackindex>
										<clipindex>13</clipindex>
									</link>
									<link>
										<linkclipref>Raw Scene Matthew Duepner Walkabout368</linkclipref>
										<mediatype>audio</mediatype>
										<trackindex>3</trackindex>
										<clipindex>13</clipindex>
										<groupindex>1</groupindex>
									</link>
									<link>
										<linkclipref>Raw Scene Matthew Duepner Walkabout369</linkclipref>
										<mediatype>audio</mediatype>
										<trackindex>4</trackindex>
										<clipindex>13</clipindex>
										<groupindex>1</groupindex>
									</link>
									<itemhistory>
										<uuid>DA44343D-9D21-475C-BED1-F8F133EF8A5D</uuid>
									</itemhistory>
								</clipitem>
								<clipitem id="Raw Scene Matthew Duepner Walkabout371">
									<name>Raw Scene Matthew Duepner Walkabout</name>
									<duration>38484</duration>
									<rate>
										<ntsc>TRUE</ntsc>
										<timebase>24</timebase>
									</rate>
									<in>13344</in>
									<out>13480</out>
									<start>5686</start>
									<end>5822</end>
									<masterclipid>Raw Scene Matthew Duepner Walkabout234</masterclipid>
									<logginginfo>
										<scene/>
										<shottake/>
										<lognote/>
										<good>FALSE</good>
									</logginginfo>
									<labels>
										<label2/>
									</labels>
									<comments>
										<mastercomment1/>
										<mastercomment2/>
										<mastercomment3/>
										<mastercomment4/>
									</comments>
									<file id="YIN_2013-05-28_LG-4 "/>
									<filter>
										<effect>
											<name>Audio Levels</name>
											<effectid>audiolevels</effectid>
											<effectcategory>audiolevels</effectcategory>
											<effecttype>audiolevels</effecttype>
											<mediatype>audio</mediatype>
											<parameter>
												<name>Level</name>
												<parameterid>level</parameterid>
												<valuemin>0</valuemin>
												<valuemax>3.98109</valuemax>
												<value>1</value>
											</parameter>
										</effect>
									</filter>
									<filter>
										<effect>
											<name>Audio Pan</name>
											<effectid>audiopan</effectid>
											<effectcategory>audiopan</effectcategory>
											<effecttype>audiopan</effecttype>
											<mediatype>audio</mediatype>
											<parameter>
												<name>Pan</name>
												<parameterid>pan</parameterid>
												<valuemin>-1</valuemin>
												<valuemax>1</valuemax>
												<value>0</value>
											</parameter>
										</effect>
									</filter>
									<sourcetrack>
										<mediatype>audio</mediatype>
										<trackindex>1</trackindex>
									</sourcetrack>
									<link>
										<linkclipref>Raw Scene Matthew Duepner Walkabout370</linkclipref>
										<mediatype>video</mediatype>
										<trackindex>2</trackindex>
										<clipindex>14</clipindex>
									</link>
									<link>
										<linkclipref>Raw Scene Matthew Duepner Walkabout371</linkclipref>
										<mediatype>audio</mediatype>
										<trackindex>3</trackindex>
										<clipindex>14</clipindex>
										<groupindex>1</groupindex>
									</link>
									<link>
										<linkclipref>Raw Scene Matthew Duepner Walkabout372</linkclipref>
										<mediatype>audio</mediatype>
										<trackindex>4</trackindex>
										<clipindex>14</clipindex>
										<groupindex>1</groupindex>
									</link>
									<itemhistory>
										<uuid>CA379308-696D-4769-952A-6A5E845A1595</uuid>
									</itemhistory>
								</clipitem>
								<clipitem id="Raw Scene Matthew Duepner Walkabout374">
									<name>Raw Scene Matthew Duepner Walkabout</name>
									<duration>38484</duration>
									<rate>
										<ntsc>TRUE</ntsc>
										<timebase>24</timebase>
									</rate>
									<in>14269</in>
									<out>14629</out>
									<start>5822</start>
									<end>6182</end>
									<masterclipid>Raw Scene Matthew Duepner Walkabout234</masterclipid>
									<logginginfo>
										<scene/>
										<shottake/>
										<lognote/>
										<good>FALSE</good>
									</logginginfo>
									<labels>
										<label2/>
									</labels>
									<comments>
										<mastercomment1/>
										<mastercomment2/>
										<mastercomment3/>
										<mastercomment4/>
									</comments>
									<file id="YIN_2013-05-28_LG-4 "/>
									<filter>
										<effect>
											<name>Audio Levels</name>
											<effectid>audiolevels</effectid>
											<effectcategory>audiolevels</effectcategory>
											<effecttype>audiolevels</effecttype>
											<mediatype>audio</mediatype>
											<parameter>
												<name>Level</name>
												<parameterid>level</parameterid>
												<valuemin>0</valuemin>
												<valuemax>3.98109</valuemax>
												<value>1</value>
											</parameter>
										</effect>
									</filter>
									<filter>
										<effect>
											<name>Audio Pan</name>
											<effectid>audiopan</effectid>
											<effectcategory>audiopan</effectcategory>
											<effecttype>audiopan</effecttype>
											<mediatype>audio</mediatype>
											<parameter>
												<name>Pan</name>
												<parameterid>pan</parameterid>
												<valuemin>-1</valuemin>
												<valuemax>1</valuemax>
												<value>0</value>
											</parameter>
										</effect>
									</filter>
									<sourcetrack>
										<mediatype>audio</mediatype>
										<trackindex>1</trackindex>
									</sourcetrack>
									<link>
										<linkclipref>Raw Scene Matthew Duepner Walkabout373</linkclipref>
										<mediatype>video</mediatype>
										<trackindex>2</trackindex>
										<clipindex>16</clipindex>
									</link>
									<link>
										<linkclipref>Raw Scene Matthew Duepner Walkabout374</linkclipref>
										<mediatype>audio</mediatype>
										<trackindex>3</trackindex>
										<clipindex>15</clipindex>
										<groupindex>1</groupindex>
									</link>
									<link>
										<linkclipref>Raw Scene Matthew Duepner Walkabout375</linkclipref>
										<mediatype>audio</mediatype>
										<trackindex>4</trackindex>
										<clipindex>15</clipindex>
										<groupindex>1</groupindex>
									</link>
									<itemhistory>
										<uuid>33684CBA-653B-4FD1-99F4-DFED3BCAA4E5</uuid>
									</itemhistory>
								</clipitem>
								<clipitem id="Raw Scene Matthew Duepner Walkabout377">
									<name>Raw Scene Matthew Duepner Walkabout</name>
									<duration>38484</duration>
									<rate>
										<ntsc>TRUE</ntsc>
										<timebase>24</timebase>
									</rate>
									<in>17312</in>
									<out>17749</out>
									<start>6182</start>
									<end>6619</end>
									<masterclipid>Raw Scene Matthew Duepner Walkabout234</masterclipid>
									<logginginfo>
										<scene/>
										<shottake/>
										<lognote/>
										<good>FALSE</good>
									</logginginfo>
									<labels>
										<label2/>
									</labels>
									<comments>
										<mastercomment1/>
										<mastercomment2/>
										<mastercomment3/>
										<mastercomment4/>
									</comments>
									<file id="YIN_2013-05-28_LG-4 "/>
									<filter>
										<effect>
											<name>Audio Levels</name>
											<effectid>audiolevels</effectid>
											<effectcategory>audiolevels</effectcategory>
											<effecttype>audiolevels</effecttype>
											<mediatype>audio</mediatype>
											<parameter>
												<name>Level</name>
												<parameterid>level</parameterid>
												<valuemin>0</valuemin>
												<valuemax>3.98109</valuemax>
												<value>1</value>
											</parameter>
										</effect>
									</filter>
									<filter>
										<effect>
											<name>Audio Pan</name>
											<effectid>audiopan</effectid>
											<effectcategory>audiopan</effectcategory>
											<effecttype>audiopan</effecttype>
											<mediatype>audio</mediatype>
											<parameter>
												<name>Pan</name>
												<parameterid>pan</parameterid>
												<valuemin>-1</valuemin>
												<valuemax>1</valuemax>
												<value>0</value>
											</parameter>
										</effect>
									</filter>
									<sourcetrack>
										<mediatype>audio</mediatype>
										<trackindex>1</trackindex>
									</sourcetrack>
									<link>
										<linkclipref>Raw Scene Matthew Duepner Walkabout376</linkclipref>
										<mediatype>video</mediatype>
										<trackindex>2</trackindex>
										<clipindex>19</clipindex>
									</link>
									<link>
										<linkclipref>Raw Scene Matthew Duepner Walkabout377</linkclipref>
										<mediatype>audio</mediatype>
										<trackindex>3</trackindex>
										<clipindex>16</clipindex>
										<groupindex>1</groupindex>
									</link>
									<link>
										<linkclipref>Raw Scene Matthew Duepner Walkabout378</linkclipref>
										<mediatype>audio</mediatype>
										<trackindex>4</trackindex>
										<clipindex>16</clipindex>
										<groupindex>1</groupindex>
									</link>
									<itemhistory>
										<uuid>30942E22-2051-475E-A267-281E6C3564A8</uuid>
									</itemhistory>
								</clipitem>
								<clipitem id="Raw Scene Matthew Duepner Walkabout382">
									<name>Raw Scene Matthew Duepner Walkabout</name>
									<duration>38484</duration>
									<rate>
										<ntsc>TRUE</ntsc>
										<timebase>24</timebase>
									</rate>
									<in>27766</in>
									<out>28237</out>
									<start>7788</start>
									<end>8259</end>
									<masterclipid>Raw Scene Matthew Duepner Walkabout234</masterclipid>
									<logginginfo>
										<scene/>
										<shottake/>
										<lognote/>
										<good>FALSE</good>
									</logginginfo>
									<labels>
										<label2/>
									</labels>
									<comments>
										<mastercomment1/>
										<mastercomment2/>
										<mastercomment3/>
										<mastercomment4/>
									</comments>
									<file id="YIN_2013-05-28_LG-4 "/>
									<filter>
										<effect>
											<name>Audio Levels</name>
											<effectid>audiolevels</effectid>
											<effectcategory>audiolevels</effectcategory>
											<effecttype>audiolevels</effecttype>
											<mediatype>audio</mediatype>
											<parameter>
												<name>Level</name>
												<parameterid>level</parameterid>
												<valuemin>0</valuemin>
												<valuemax>3.98109</valuemax>
												<value>1</value>
											</parameter>
										</effect>
									</filter>
									<filter>
										<effect>
											<name>Audio Pan</name>
											<effectid>audiopan</effectid>
											<effectcategory>audiopan</effectcategory>
											<effecttype>audiopan</effecttype>
											<mediatype>audio</mediatype>
											<parameter>
												<name>Pan</name>
												<parameterid>pan</parameterid>
												<valuemin>-1</valuemin>
												<valuemax>1</valuemax>
												<value>0</value>
											</parameter>
										</effect>
									</filter>
									<sourcetrack>
										<mediatype>audio</mediatype>
										<trackindex>1</trackindex>
									</sourcetrack>
									<link>
										<linkclipref>Raw Scene Matthew Duepner Walkabout381</linkclipref>
										<mediatype>video</mediatype>
										<trackindex>2</trackindex>
										<clipindex>22</clipindex>
									</link>
									<link>
										<linkclipref>Raw Scene Matthew Duepner Walkabout382</linkclipref>
										<mediatype>audio</mediatype>
										<trackindex>3</trackindex>
										<clipindex>17</clipindex>
										<groupindex>1</groupindex>
									</link>
									<link>
										<linkclipref>Raw Scene Matthew Duepner Walkabout383</linkclipref>
										<mediatype>audio</mediatype>
										<trackindex>4</trackindex>
										<clipindex>17</clipindex>
										<groupindex>1</groupindex>
									</link>
									<itemhistory>
										<uuid>D081D37B-C741-4700-9641-E9F3F34C5FE3</uuid>
									</itemhistory>
								</clipitem>
								<clipitem id="Raw Scene Matthew Duepner Walkabout385">
									<name>Raw Scene Matthew Duepner Walkabout</name>
									<duration>38484</duration>
									<rate>
										<ntsc>TRUE</ntsc>
										<timebase>24</timebase>
									</rate>
									<in>15002</in>
									<out>15091</out>
									<start>8936</start>
									<end>9025</end>
									<masterclipid>Raw Scene Matthew Duepner Walkabout234</masterclipid>
									<logginginfo>
										<scene/>
										<shottake/>
										<lognote/>
										<good>FALSE</good>
									</logginginfo>
									<labels>
										<label2/>
									</labels>
									<comments>
										<mastercomment1/>
										<mastercomment2/>
										<mastercomment3/>
										<mastercomment4/>
									</comments>
									<file id="YIN_2013-05-28_LG-4 "/>
									<filter>
										<effect>
											<name>Audio Levels</name>
											<effectid>audiolevels</effectid>
											<effectcategory>audiolevels</effectcategory>
											<effecttype>audiolevels</effecttype>
											<mediatype>audio</mediatype>
											<parameter>
												<name>Level</name>
												<parameterid>level</parameterid>
												<valuemin>0</valuemin>
												<valuemax>3.98109</valuemax>
												<value>1</value>
											</parameter>
										</effect>
									</filter>
									<filter>
										<effect>
											<name>Audio Pan</name>
											<effectid>audiopan</effectid>
											<effectcategory>audiopan</effectcategory>
											<effecttype>audiopan</effecttype>
											<mediatype>audio</mediatype>
											<parameter>
												<name>Pan</name>
												<parameterid>pan</parameterid>
												<valuemin>-1</valuemin>
												<valuemax>1</valuemax>
												<value>0</value>
											</parameter>
										</effect>
									</filter>
									<sourcetrack>
										<mediatype>audio</mediatype>
										<trackindex>1</trackindex>
									</sourcetrack>
									<link>
										<linkclipref>Raw Scene Matthew Duepner Walkabout384</linkclipref>
										<mediatype>video</mediatype>
										<trackindex>2</trackindex>
										<clipindex>24</clipindex>
									</link>
									<link>
										<linkclipref>Raw Scene Matthew Duepner Walkabout385</linkclipref>
										<mediatype>audio</mediatype>
										<trackindex>3</trackindex>
										<clipindex>18</clipindex>
										<groupindex>1</groupindex>
									</link>
									<link>
										<linkclipref>Raw Scene Matthew Duepner Walkabout386</linkclipref>
										<mediatype>audio</mediatype>
										<trackindex>4</trackindex>
										<clipindex>18</clipindex>
										<groupindex>1</groupindex>
									</link>
									<itemhistory>
										<uuid>2441473D-B800-4106-836A-DFC99D1069FC</uuid>
									</itemhistory>
								</clipitem>
								<clipitem id="Raw Scene Matthew Duepner Printing120">
									<name>Raw Scene Matthew Duepner Printing</name>
									<duration>28553</duration>
									<rate>
										<ntsc>TRUE</ntsc>
										<timebase>24</timebase>
									</rate>
									<in>7849</in>
									<out>7967</out>
									<start>10693</start>
									<end>10811</end>
									<masterclipid>Raw Scene Matthew Duepner Printing72</masterclipid>
									<logginginfo>
										<scene/>
										<shottake/>
										<lognote/>
										<good>FALSE</good>
									</logginginfo>
									<labels>
										<label2/>
									</labels>
									<comments>
										<mastercomment1/>
										<mastercomment2/>
										<mastercomment3/>
										<mastercomment4/>
									</comments>
									<file id="YIN_2013-05-28_LG-6 "/>
									<filter>
										<effect>
											<name>Audio Levels</name>
											<effectid>audiolevels</effectid>
											<effectcategory>audiolevels</effectcategory>
											<effecttype>audiolevels</effecttype>
											<mediatype>audio</mediatype>
											<parameter>
												<name>Level</name>
												<parameterid>level</parameterid>
												<valuemin>0</valuemin>
												<valuemax>3.98109</valuemax>
												<value>1</value>
											</parameter>
										</effect>
									</filter>
									<filter>
										<effect>
											<name>Audio Pan</name>
											<effectid>audiopan</effectid>
											<effectcategory>audiopan</effectcategory>
											<effecttype>audiopan</effecttype>
											<mediatype>audio</mediatype>
											<parameter>
												<name>Pan</name>
												<parameterid>pan</parameterid>
												<valuemin>-1</valuemin>
												<valuemax>1</valuemax>
												<value>0</value>
											</parameter>
										</effect>
									</filter>
									<sourcetrack>
										<mediatype>audio</mediatype>
										<trackindex>1</trackindex>
									</sourcetrack>
									<link>
										<linkclipref>Raw Scene Matthew Duepner Printing119</linkclipref>
										<mediatype>video</mediatype>
										<trackindex>2</trackindex>
										<clipindex>25</clipindex>
									</link>
									<link>
										<linkclipref>Raw Scene Matthew Duepner Printing120</linkclipref>
										<mediatype>audio</mediatype>
										<trackindex>3</trackindex>
										<clipindex>19</clipindex>
										<groupindex>1</groupindex>
									</link>
									<link>
										<linkclipref>Raw Scene Matthew Duepner Printing121</linkclipref>
										<mediatype>audio</mediatype>
										<trackindex>4</trackindex>
										<clipindex>19</clipindex>
										<groupindex>1</groupindex>
									</link>
									<itemhistory>
										<uuid>A1BCC49D-6A3E-4D7D-A95E-57259B5DE917</uuid>
									</itemhistory>
								</clipitem>
								<clipitem id="Raw Scene Matthew Duepner Printing123">
									<name>Raw Scene Matthew Duepner Printing</name>
									<duration>28553</duration>
									<rate>
										<ntsc>TRUE</ntsc>
										<timebase>24</timebase>
									</rate>
									<in>8107</in>
									<out>8235</out>
									<start>10811</start>
									<end>10939</end>
									<masterclipid>Raw Scene Matthew Duepner Printing72</masterclipid>
									<logginginfo>
										<scene/>
										<shottake/>
										<lognote/>
										<good>FALSE</good>
									</logginginfo>
									<labels>
										<label2/>
									</labels>
									<comments>
										<mastercomment1/>
										<mastercomment2/>
										<mastercomment3/>
										<mastercomment4/>
									</comments>
									<file id="YIN_2013-05-28_LG-6 "/>
									<filter>
										<effect>
											<name>Audio Levels</name>
											<effectid>audiolevels</effectid>
											<effectcategory>audiolevels</effectcategory>
											<effecttype>audiolevels</effecttype>
											<mediatype>audio</mediatype>
											<parameter>
												<name>Level</name>
												<parameterid>level</parameterid>
												<valuemin>0</valuemin>
												<valuemax>3.98109</valuemax>
												<value>1</value>
											</parameter>
										</effect>
									</filter>
									<filter>
										<effect>
											<name>Audio Pan</name>
											<effectid>audiopan</effectid>
											<effectcategory>audiopan</effectcategory>
											<effecttype>audiopan</effecttype>
											<mediatype>audio</mediatype>
											<parameter>
												<name>Pan</name>
												<parameterid>pan</parameterid>
												<valuemin>-1</valuemin>
												<valuemax>1</valuemax>
												<value>0</value>
											</parameter>
										</effect>
									</filter>
									<sourcetrack>
										<mediatype>audio</mediatype>
										<trackindex>1</trackindex>
									</sourcetrack>
									<link>
										<linkclipref>Raw Scene Matthew Duepner Printing122</linkclipref>
										<mediatype>video</mediatype>
										<trackindex>2</trackindex>
										<clipindex>26</clipindex>
									</link>
									<link>
										<linkclipref>Raw Scene Matthew Duepner Printing123</linkclipref>
										<mediatype>audio</mediatype>
										<trackindex>3</trackindex>
										<clipindex>20</clipindex>
										<groupindex>1</groupindex>
									</link>
									<link>
										<linkclipref>Raw Scene Matthew Duepner Printing124</linkclipref>
										<mediatype>audio</mediatype>
										<trackindex>4</trackindex>
										<clipindex>20</clipindex>
										<groupindex>1</groupindex>
									</link>
									<itemhistory>
										<uuid>7F6065C5-0369-4571-AC96-F9F256514E64</uuid>
									</itemhistory>
								</clipitem>
								<clipitem id="Raw Scene Matthew Duepner House Tour12">
									<name>Raw Scene Matthew Duepner House Tour</name>
									<duration>16257</duration>
									<rate>
										<ntsc>TRUE</ntsc>
										<timebase>24</timebase>
									</rate>
									<in>4383</in>
									<out>4481</out>
									<start>11146</start>
									<end>11244</end>
									<masterclipid>Raw Scene Matthew Duepner House Tour</masterclipid>
									<logginginfo>
										<scene/>
										<shottake/>
										<lognote/>
										<good>FALSE</good>
									</logginginfo>
									<labels>
										<label2/>
									</labels>
									<comments>
										<mastercomment1/>
										<mastercomment2/>
										<mastercomment3/>
										<mastercomment4/>
									</comments>
									<file id="YIN_2013-05-28_LG-3 "/>
									<filter>
										<effect>
											<name>Audio Levels</name>
											<effectid>audiolevels</effectid>
											<effectcategory>audiolevels</effectcategory>
											<effecttype>audiolevels</effecttype>
											<mediatype>audio</mediatype>
											<parameter>
												<name>Level</name>
												<parameterid>level</parameterid>
												<valuemin>0</valuemin>
												<valuemax>3.98109</valuemax>
												<value>1</value>
											</parameter>
										</effect>
									</filter>
									<filter>
										<effect>
											<name>Audio Pan</name>
											<effectid>audiopan</effectid>
											<effectcategory>audiopan</effectcategory>
											<effecttype>audiopan</effecttype>
											<mediatype>audio</mediatype>
											<parameter>
												<name>Pan</name>
												<parameterid>pan</parameterid>
												<valuemin>-1</valuemin>
												<valuemax>1</valuemax>
												<value>0</value>
											</parameter>
										</effect>
									</filter>
									<sourcetrack>
										<mediatype>audio</mediatype>
										<trackindex>1</trackindex>
									</sourcetrack>
									<link>
										<linkclipref>Raw Scene Matthew Duepner House Tour11</linkclipref>
										<mediatype>video</mediatype>
										<trackindex>2</trackindex>
										<clipindex>27</clipindex>
									</link>
									<link>
										<linkclipref>Raw Scene Matthew Duepner House Tour12</linkclipref>
										<mediatype>audio</mediatype>
										<trackindex>3</trackindex>
										<clipindex>21</clipindex>
										<groupindex>1</groupindex>
									</link>
									<link>
										<linkclipref>Raw Scene Matthew Duepner House Tour13</linkclipref>
										<mediatype>audio</mediatype>
										<trackindex>4</trackindex>
										<clipindex>21</clipindex>
										<groupindex>1</groupindex>
									</link>
									<itemhistory>
										<uuid>C8FCC269-689C-413B-998E-0A1F096E9432</uuid>
									</itemhistory>
								</clipitem>
								<clipitem id="Raw Scene Matthew Duepner House Tour15">
									<name>Raw Scene Matthew Duepner House Tour</name>
									<duration>16257</duration>
									<rate>
										<ntsc>TRUE</ntsc>
										<timebase>24</timebase>
									</rate>
									<in>6030</in>
									<out>6334</out>
									<start>11244</start>
									<end>11548</end>
									<masterclipid>Raw Scene Matthew Duepner House Tour</masterclipid>
									<logginginfo>
										<scene/>
										<shottake/>
										<lognote/>
										<good>FALSE</good>
									</logginginfo>
									<labels>
										<label2/>
									</labels>
									<comments>
										<mastercomment1/>
										<mastercomment2/>
										<mastercomment3/>
										<mastercomment4/>
									</comments>
									<file id="YIN_2013-05-28_LG-3 "/>
									<filter>
										<effect>
											<name>Audio Levels</name>
											<effectid>audiolevels</effectid>
											<effectcategory>audiolevels</effectcategory>
											<effecttype>audiolevels</effecttype>
											<mediatype>audio</mediatype>
											<parameter>
												<name>Level</name>
												<parameterid>level</parameterid>
												<valuemin>0</valuemin>
												<valuemax>3.98109</valuemax>
												<value>1</value>
											</parameter>
										</effect>
									</filter>
									<filter>
										<effect>
											<name>Audio Pan</name>
											<effectid>audiopan</effectid>
											<effectcategory>audiopan</effectcategory>
											<effecttype>audiopan</effecttype>
											<mediatype>audio</mediatype>
											<parameter>
												<name>Pan</name>
												<parameterid>pan</parameterid>
												<valuemin>-1</valuemin>
												<valuemax>1</valuemax>
												<value>0</value>
											</parameter>
										</effect>
									</filter>
									<sourcetrack>
										<mediatype>audio</mediatype>
										<trackindex>1</trackindex>
									</sourcetrack>
									<link>
										<linkclipref>Raw Scene Matthew Duepner House Tour14</linkclipref>
										<mediatype>video</mediatype>
										<trackindex>2</trackindex>
										<clipindex>28</clipindex>
									</link>
									<link>
										<linkclipref>Raw Scene Matthew Duepner House Tour15</linkclipref>
										<mediatype>audio</mediatype>
										<trackindex>3</trackindex>
										<clipindex>22</clipindex>
										<groupindex>1</groupindex>
									</link>
									<link>
										<linkclipref>Raw Scene Matthew Duepner House Tour16</linkclipref>
										<mediatype>audio</mediatype>
										<trackindex>4</trackindex>
										<clipindex>22</clipindex>
										<groupindex>1</groupindex>
									</link>
									<itemhistory>
										<uuid>AD83095F-3385-4A92-BA65-304A4431A3D1</uuid>
									</itemhistory>
								</clipitem>
								<enabled>TRUE</enabled>
								<locked>FALSE</locked>
								<outputchannelindex>1</outputchannelindex>
							</track>
							<track>
								<clipitem id="Raw Scene Matthew Duepner House Tour6">
									<name>Raw Scene Matthew Duepner House Tour</name>
									<duration>16257</duration>
									<rate>
										<ntsc>TRUE</ntsc>
										<timebase>24</timebase>
									</rate>
									<in>12088</in>
									<out>13058</out>
									<start>0</start>
									<end>970</end>
									<masterclipid>Raw Scene Matthew Duepner House Tour</masterclipid>
									<logginginfo>
										<scene/>
										<shottake/>
										<lognote/>
										<good>FALSE</good>
									</logginginfo>
									<labels>
										<label2/>
									</labels>
									<comments>
										<mastercomment1/>
										<mastercomment2/>
										<mastercomment3/>
										<mastercomment4/>
									</comments>
									<file id="YIN_2013-05-28_LG-3 "/>
									<filter>
										<effect>
											<name>Audio Levels</name>
											<effectid>audiolevels</effectid>
											<effectcategory>audiolevels</effectcategory>
											<effecttype>audiolevels</effecttype>
											<mediatype>audio</mediatype>
											<parameter>
												<name>Level</name>
												<parameterid>level</parameterid>
												<valuemin>0</valuemin>
												<valuemax>3.98109</valuemax>
												<value>1</value>
											</parameter>
										</effect>
									</filter>
									<filter>
										<effect>
											<name>Audio Pan</name>
											<effectid>audiopan</effectid>
											<effectcategory>audiopan</effectcategory>
											<effecttype>audiopan</effecttype>
											<mediatype>audio</mediatype>
											<parameter>
												<name>Pan</name>
												<parameterid>pan</parameterid>
												<valuemin>-1</valuemin>
												<valuemax>1</valuemax>
												<value>-0</value>
											</parameter>
										</effect>
									</filter>
									<sourcetrack>
										<mediatype>audio</mediatype>
										<trackindex>2</trackindex>
									</sourcetrack>
									<link>
										<linkclipref>Raw Scene Matthew Duepner House Tour4</linkclipref>
										<mediatype>video</mediatype>
										<trackindex>2</trackindex>
										<clipindex>1</clipindex>
									</link>
									<link>
										<linkclipref>Raw Scene Matthew Duepner House Tour5</linkclipref>
										<mediatype>audio</mediatype>
										<trackindex>3</trackindex>
										<clipindex>1</clipindex>
										<groupindex>1</groupindex>
									</link>
									<link>
										<linkclipref>Raw Scene Matthew Duepner House Tour6</linkclipref>
										<mediatype>audio</mediatype>
										<trackindex>4</trackindex>
										<clipindex>1</clipindex>
										<groupindex>1</groupindex>
									</link>
									<itemhistory>
										<uuid>F82A134F-C0FF-4CE1-956C-AD32A0082221</uuid>
									</itemhistory>
								</clipitem>
								<clipitem id="Raw Scene Matthew Duepner House Tour18">
									<name>Raw Scene Matthew Duepner House Tour</name>
									<duration>16257</duration>
									<rate>
										<ntsc>TRUE</ntsc>
										<timebase>24</timebase>
									</rate>
									<in>8815</in>
									<out>9481</out>
									<start>1371</start>
									<end>2037</end>
									<masterclipid>Raw Scene Matthew Duepner House Tour</masterclipid>
									<logginginfo>
										<scene/>
										<shottake/>
										<lognote/>
										<good>FALSE</good>
									</logginginfo>
									<labels>
										<label2/>
									</labels>
									<comments>
										<mastercomment1/>
										<mastercomment2/>
										<mastercomment3/>
										<mastercomment4/>
									</comments>
									<file id="YIN_2013-05-28_LG-3 "/>
									<filter>
										<effect>
											<name>Audio Levels</name>
											<effectid>audiolevels</effectid>
											<effectcategory>audiolevels</effectcategory>
											<effecttype>audiolevels</effecttype>
											<mediatype>audio</mediatype>
											<parameter>
												<name>Level</name>
												<parameterid>level</parameterid>
												<valuemin>0</valuemin>
												<valuemax>3.98109</valuemax>
												<value>1</value>
											</parameter>
										</effect>
									</filter>
									<filter>
										<effect>
											<name>Audio Pan</name>
											<effectid>audiopan</effectid>
											<effectcategory>audiopan</effectcategory>
											<effecttype>audiopan</effecttype>
											<mediatype>audio</mediatype>
											<parameter>
												<name>Pan</name>
												<parameterid>pan</parameterid>
												<valuemin>-1</valuemin>
												<valuemax>1</valuemax>
												<value>-0</value>
											</parameter>
										</effect>
									</filter>
									<sourcetrack>
										<mediatype>audio</mediatype>
										<trackindex>2</trackindex>
									</sourcetrack>
									<link>
										<linkclipref>Raw Scene Matthew Duepner House Tour17</linkclipref>
										<mediatype>audio</mediatype>
										<trackindex>3</trackindex>
										<clipindex>2</clipindex>
										<groupindex>1</groupindex>
									</link>
									<link>
										<linkclipref>Raw Scene Matthew Duepner House Tour18</linkclipref>
										<mediatype>audio</mediatype>
										<trackindex>4</trackindex>
										<clipindex>2</clipindex>
										<groupindex>1</groupindex>
									</link>
									<itemhistory>
										<uuid>8EE81924-AA72-4247-AEE1-CD02852E71D8</uuid>
									</itemhistory>
								</clipitem>
								<clipitem id="Raw Scene Matthew Duepner House Tour10">
									<name>Raw Scene Matthew Duepner House Tour</name>
									<duration>16257</duration>
									<rate>
										<ntsc>TRUE</ntsc>
										<timebase>24</timebase>
									</rate>
									<in>11463</in>
									<out>11556</out>
									<start>2126</start>
									<end>2219</end>
									<enabled>FALSE</enabled>
									<masterclipid>Raw Scene Matthew Duepner House Tour</masterclipid>
									<logginginfo>
										<scene/>
										<shottake/>
										<lognote/>
										<good>FALSE</good>
									</logginginfo>
									<labels>
										<label2/>
									</labels>
									<comments>
										<mastercomment1/>
										<mastercomment2/>
										<mastercomment3/>
										<mastercomment4/>
									</comments>
									<file id="YIN_2013-05-28_LG-3 "/>
									<filter>
										<effect>
											<name>Audio Levels</name>
											<effectid>audiolevels</effectid>
											<effectcategory>audiolevels</effectcategory>
											<effecttype>audiolevels</effecttype>
											<mediatype>audio</mediatype>
											<parameter>
												<name>Level</name>
												<parameterid>level</parameterid>
												<valuemin>0</valuemin>
												<valuemax>3.98109</valuemax>
												<value>1</value>
											</parameter>
										</effect>
									</filter>
									<filter>
										<effect>
											<name>Audio Pan</name>
											<effectid>audiopan</effectid>
											<effectcategory>audiopan</effectcategory>
											<effecttype>audiopan</effecttype>
											<mediatype>audio</mediatype>
											<parameter>
												<name>Pan</name>
												<parameterid>pan</parameterid>
												<valuemin>-1</valuemin>
												<valuemax>1</valuemax>
												<value>-0</value>
											</parameter>
										</effect>
									</filter>
									<sourcetrack>
										<mediatype>audio</mediatype>
										<trackindex>2</trackindex>
									</sourcetrack>
									<link>
										<linkclipref>Raw Scene Matthew Duepner House Tour8</linkclipref>
										<mediatype>video</mediatype>
										<trackindex>2</trackindex>
										<clipindex>3</clipindex>
									</link>
									<link>
										<linkclipref>Raw Scene Matthew Duepner House Tour9</linkclipref>
										<mediatype>audio</mediatype>
										<trackindex>3</trackindex>
										<clipindex>3</clipindex>
										<groupindex>1</groupindex>
									</link>
									<link>
										<linkclipref>Raw Scene Matthew Duepner House Tour10</linkclipref>
										<mediatype>audio</mediatype>
										<trackindex>4</trackindex>
										<clipindex>3</clipindex>
										<groupindex>1</groupindex>
									</link>
									<itemhistory>
										<uuid>920E7545-0307-4C36-98AD-243A0D7FE68E</uuid>
									</itemhistory>
								</clipitem>
								<clipitem id="Raw Scene Matthew Duepner Printing114">
									<name>Raw Scene Matthew Duepner Printing</name>
									<duration>28553</duration>
									<rate>
										<ntsc>TRUE</ntsc>
										<timebase>24</timebase>
									</rate>
									<in>11949</in>
									<out>12060</out>
									<start>2471</start>
									<end>2582</end>
									<masterclipid>Raw Scene Matthew Duepner Printing72</masterclipid>
									<logginginfo>
										<scene/>
										<shottake/>
										<lognote/>
										<good>FALSE</good>
									</logginginfo>
									<labels>
										<label2/>
									</labels>
									<comments>
										<mastercomment1/>
										<mastercomment2/>
										<mastercomment3/>
										<mastercomment4/>
									</comments>
									<file id="YIN_2013-05-28_LG-6 "/>
									<filter>
										<effect>
											<name>Audio Levels</name>
											<effectid>audiolevels</effectid>
											<effectcategory>audiolevels</effectcategory>
											<effecttype>audiolevels</effecttype>
											<mediatype>audio</mediatype>
											<parameter>
												<name>Level</name>
												<parameterid>level</parameterid>
												<valuemin>0</valuemin>
												<valuemax>3.98109</valuemax>
												<value>1</value>
											</parameter>
										</effect>
									</filter>
									<filter>
										<effect>
											<name>Audio Pan</name>
											<effectid>audiopan</effectid>
											<effectcategory>audiopan</effectcategory>
											<effecttype>audiopan</effecttype>
											<mediatype>audio</mediatype>
											<parameter>
												<name>Pan</name>
												<parameterid>pan</parameterid>
												<valuemin>-1</valuemin>
												<valuemax>1</valuemax>
												<value>-0</value>
											</parameter>
										</effect>
									</filter>
									<sourcetrack>
										<mediatype>audio</mediatype>
										<trackindex>2</trackindex>
									</sourcetrack>
									<link>
										<linkclipref>Raw Scene Matthew Duepner Printing112</linkclipref>
										<mediatype>video</mediatype>
										<trackindex>2</trackindex>
										<clipindex>4</clipindex>
									</link>
									<link>
										<linkclipref>Raw Scene Matthew Duepner Printing113</linkclipref>
										<mediatype>audio</mediatype>
										<trackindex>3</trackindex>
										<clipindex>4</clipindex>
										<groupindex>1</groupindex>
									</link>
									<link>
										<linkclipref>Raw Scene Matthew Duepner Printing114</linkclipref>
										<mediatype>audio</mediatype>
										<trackindex>4</trackindex>
										<clipindex>4</clipindex>
										<groupindex>1</groupindex>
									</link>
									<itemhistory>
										<uuid>1EB391A2-BD6E-4FB4-8003-E20AB23E6D1F</uuid>
									</itemhistory>
								</clipitem>
								<clipitem id="Raw B Roll Hack Manhattan Matthew Duepner's House105">
									<name>Raw B Roll Hack Manhattan Matthew Duepner's House</name>
									<duration>6617</duration>
									<rate>
										<ntsc>TRUE</ntsc>
										<timebase>24</timebase>
									</rate>
									<in>5185</in>
									<out>5305</out>
									<start>2582</start>
									<end>2702</end>
									<masterclipid>Raw B Roll Hack Manhattan Matthew Duepner's House1</masterclipid>
									<logginginfo>
										<scene/>
										<shottake/>
										<lognote/>
										<good>FALSE</good>
									</logginginfo>
									<labels>
										<label2/>
									</labels>
									<comments>
										<mastercomment1/>
										<mastercomment2/>
										<mastercomment3/>
										<mastercomment4/>
									</comments>
									<file id="YIN_2013-04-28_JB-1 "/>
									<filter>
										<effect>
											<name>Audio Levels</name>
											<effectid>audiolevels</effectid>
											<effectcategory>audiolevels</effectcategory>
											<effecttype>audiolevels</effecttype>
											<mediatype>audio</mediatype>
											<parameter>
												<name>Level</name>
												<parameterid>level</parameterid>
												<valuemin>0</valuemin>
												<valuemax>3.98109</valuemax>
												<value>1</value>
											</parameter>
										</effect>
									</filter>
									<filter>
										<effect>
											<name>Audio Pan</name>
											<effectid>audiopan</effectid>
											<effectcategory>audiopan</effectcategory>
											<effecttype>audiopan</effecttype>
											<mediatype>audio</mediatype>
											<parameter>
												<name>Pan</name>
												<parameterid>pan</parameterid>
												<valuemin>-1</valuemin>
												<valuemax>1</valuemax>
												<value>-0</value>
											</parameter>
										</effect>
									</filter>
									<sourcetrack>
										<mediatype>audio</mediatype>
										<trackindex>2</trackindex>
									</sourcetrack>
									<link>
										<linkclipref>Raw B Roll Hack Manhattan Matthew Duepner's House103</linkclipref>
										<mediatype>video</mediatype>
										<trackindex>2</trackindex>
										<clipindex>5</clipindex>
									</link>
									<link>
										<linkclipref>Raw B Roll Hack Manhattan Matthew Duepner's House104</linkclipref>
										<mediatype>audio</mediatype>
										<trackindex>3</trackindex>
										<clipindex>5</clipindex>
										<groupindex>1</groupindex>
									</link>
									<link>
										<linkclipref>Raw B Roll Hack Manhattan Matthew Duepner's House105</linkclipref>
										<mediatype>audio</mediatype>
										<trackindex>4</trackindex>
										<clipindex>5</clipindex>
										<groupindex>1</groupindex>
									</link>
									<itemhistory>
										<uuid>C108A410-837D-4122-881A-DC020A46A450</uuid>
									</itemhistory>
								</clipitem>
								<clipitem id="Raw B Roll Hack Manhattan Matthew Duepner's House108">
									<name>Raw B Roll Hack Manhattan Matthew Duepner's House</name>
									<duration>6617</duration>
									<rate>
										<ntsc>TRUE</ntsc>
										<timebase>24</timebase>
									</rate>
									<in>5305</in>
									<out>5411</out>
									<start>2702</start>
									<end>2808</end>
									<masterclipid>Raw B Roll Hack Manhattan Matthew Duepner's House1</masterclipid>
									<logginginfo>
										<scene/>
										<shottake/>
										<lognote/>
										<good>FALSE</good>
									</logginginfo>
									<labels>
										<label2/>
									</labels>
									<comments>
										<mastercomment1/>
										<mastercomment2/>
										<mastercomment3/>
										<mastercomment4/>
									</comments>
									<file id="YIN_2013-04-28_JB-1 "/>
									<filter>
										<effect>
											<name>Audio Levels</name>
											<effectid>audiolevels</effectid>
											<effectcategory>audiolevels</effectcategory>
											<effecttype>audiolevels</effecttype>
											<mediatype>audio</mediatype>
											<parameter>
												<name>Level</name>
												<parameterid>level</parameterid>
												<valuemin>0</valuemin>
												<valuemax>3.98109</valuemax>
												<value>1</value>
											</parameter>
										</effect>
									</filter>
									<filter>
										<effect>
											<name>Audio Pan</name>
											<effectid>audiopan</effectid>
											<effectcategory>audiopan</effectcategory>
											<effecttype>audiopan</effecttype>
											<mediatype>audio</mediatype>
											<parameter>
												<name>Pan</name>
												<parameterid>pan</parameterid>
												<valuemin>-1</valuemin>
												<valuemax>1</valuemax>
												<value>-0</value>
											</parameter>
										</effect>
									</filter>
									<sourcetrack>
										<mediatype>audio</mediatype>
										<trackindex>2</trackindex>
									</sourcetrack>
									<link>
										<linkclipref>Raw B Roll Hack Manhattan Matthew Duepner's House106</linkclipref>
										<mediatype>video</mediatype>
										<trackindex>2</trackindex>
										<clipindex>6</clipindex>
									</link>
									<link>
										<linkclipref>Raw B Roll Hack Manhattan Matthew Duepner's House107</linkclipref>
										<mediatype>audio</mediatype>
										<trackindex>3</trackindex>
										<clipindex>6</clipindex>
										<groupindex>1</groupindex>
									</link>
									<link>
										<linkclipref>Raw B Roll Hack Manhattan Matthew Duepner's House108</linkclipref>
										<mediatype>audio</mediatype>
										<trackindex>4</trackindex>
										<clipindex>6</clipindex>
										<groupindex>1</groupindex>
									</link>
									<itemhistory>
										<uuid>99F514B0-CF6E-4BC4-955D-5866E2ECB251</uuid>
									</itemhistory>
								</clipitem>
								<clipitem id="Raw Scene Matthew Duepner Printing117">
									<name>Raw Scene Matthew Duepner Printing</name>
									<duration>28553</duration>
									<rate>
										<ntsc>TRUE</ntsc>
										<timebase>24</timebase>
									</rate>
									<in>4048</in>
									<out>4327</out>
									<start>2808</start>
									<end>3087</end>
									<masterclipid>Raw Scene Matthew Duepner Printing72</masterclipid>
									<logginginfo>
										<scene/>
										<shottake/>
										<lognote/>
										<good>FALSE</good>
									</logginginfo>
									<labels>
										<label2/>
									</labels>
									<comments>
										<mastercomment1/>
										<mastercomment2/>
										<mastercomment3/>
										<mastercomment4/>
									</comments>
									<file id="YIN_2013-05-28_LG-6 "/>
									<filter>
										<effect>
											<name>Audio Levels</name>
											<effectid>audiolevels</effectid>
											<effectcategory>audiolevels</effectcategory>
											<effecttype>audiolevels</effecttype>
											<mediatype>audio</mediatype>
											<parameter>
												<name>Level</name>
												<parameterid>level</parameterid>
												<valuemin>0</valuemin>
												<valuemax>3.98109</valuemax>
												<value>1</value>
											</parameter>
										</effect>
									</filter>
									<filter>
										<effect>
											<name>Audio Pan</name>
											<effectid>audiopan</effectid>
											<effectcategory>audiopan</effectcategory>
											<effecttype>audiopan</effecttype>
											<mediatype>audio</mediatype>
											<parameter>
												<name>Pan</name>
												<parameterid>pan</parameterid>
												<valuemin>-1</valuemin>
												<valuemax>1</valuemax>
												<value>-0</value>
											</parameter>
										</effect>
									</filter>
									<sourcetrack>
										<mediatype>audio</mediatype>
										<trackindex>2</trackindex>
									</sourcetrack>
									<link>
										<linkclipref>Raw Scene Matthew Duepner Printing115</linkclipref>
										<mediatype>video</mediatype>
										<trackindex>2</trackindex>
										<clipindex>7</clipindex>
									</link>
									<link>
										<linkclipref>Raw Scene Matthew Duepner Printing116</linkclipref>
										<mediatype>audio</mediatype>
										<trackindex>3</trackindex>
										<clipindex>7</clipindex>
										<groupindex>1</groupindex>
									</link>
									<link>
										<linkclipref>Raw Scene Matthew Duepner Printing117</linkclipref>
										<mediatype>audio</mediatype>
										<trackindex>4</trackindex>
										<clipindex>7</clipindex>
										<groupindex>1</groupindex>
									</link>
									<itemhistory>
										<uuid>A4028D97-2B01-4F81-B59C-D1BEC46EB18D</uuid>
									</itemhistory>
								</clipitem>
								<clipitem id="Raw Scene Matthew Duepner Printing126">
									<name>Raw Scene Matthew Duepner Printing</name>
									<duration>28553</duration>
									<rate>
										<ntsc>TRUE</ntsc>
										<timebase>24</timebase>
									</rate>
									<in>27466</in>
									<out>27780</out>
									<start>3389</start>
									<end>3703</end>
									<masterclipid>Raw Scene Matthew Duepner Printing72</masterclipid>
									<logginginfo>
										<scene/>
										<shottake/>
										<lognote/>
										<good>FALSE</good>
									</logginginfo>
									<labels>
										<label2/>
									</labels>
									<comments>
										<mastercomment1/>
										<mastercomment2/>
										<mastercomment3/>
										<mastercomment4/>
									</comments>
									<file id="YIN_2013-05-28_LG-6 "/>
									<filter>
										<effect>
											<name>Audio Levels</name>
											<effectid>audiolevels</effectid>
											<effectcategory>audiolevels</effectcategory>
											<effecttype>audiolevels</effecttype>
											<mediatype>audio</mediatype>
											<parameter>
												<name>Level</name>
												<parameterid>level</parameterid>
												<valuemin>0</valuemin>
												<valuemax>3.98109</valuemax>
												<value>1</value>
											</parameter>
										</effect>
									</filter>
									<filter>
										<effect>
											<name>Audio Pan</name>
											<effectid>audiopan</effectid>
											<effectcategory>audiopan</effectcategory>
											<effecttype>audiopan</effecttype>
											<mediatype>audio</mediatype>
											<parameter>
												<name>Pan</name>
												<parameterid>pan</parameterid>
												<valuemin>-1</valuemin>
												<valuemax>1</valuemax>
												<value>-0</value>
											</parameter>
										</effect>
									</filter>
									<sourcetrack>
										<mediatype>audio</mediatype>
										<trackindex>2</trackindex>
									</sourcetrack>
									<link>
										<linkclipref>Raw Scene Matthew Duepner Printing125</linkclipref>
										<mediatype>audio</mediatype>
										<trackindex>3</trackindex>
										<clipindex>8</clipindex>
										<groupindex>1</groupindex>
									</link>
									<link>
										<linkclipref>Raw Scene Matthew Duepner Printing126</linkclipref>
										<mediatype>audio</mediatype>
										<trackindex>4</trackindex>
										<clipindex>8</clipindex>
										<groupindex>1</groupindex>
									</link>
									<itemhistory>
										<uuid>8967A1FD-AA23-44D3-8A96-FB43A547501C</uuid>
									</itemhistory>
								</clipitem>
								<clipitem id="Raw Scene Matthew Duepner Walkabout357">
									<name>Raw Scene Matthew Duepner Walkabout</name>
									<duration>38484</duration>
									<rate>
										<ntsc>TRUE</ntsc>
										<timebase>24</timebase>
									</rate>
									<in>5124</in>
									<out>5266</out>
									<start>3986</start>
									<end>4128</end>
									<masterclipid>Raw Scene Matthew Duepner Walkabout234</masterclipid>
									<logginginfo>
										<scene/>
										<shottake/>
										<lognote/>
										<good>FALSE</good>
									</logginginfo>
									<labels>
										<label2/>
									</labels>
									<comments>
										<mastercomment1/>
										<mastercomment2/>
										<mastercomment3/>
										<mastercomment4/>
									</comments>
									<file id="YIN_2013-05-28_LG-4 "/>
									<filter>
										<effect>
											<name>Audio Levels</name>
											<effectid>audiolevels</effectid>
											<effectcategory>audiolevels</effectcategory>
											<effecttype>audiolevels</effecttype>
											<mediatype>audio</mediatype>
											<parameter>
												<name>Level</name>
												<parameterid>level</parameterid>
												<valuemin>0</valuemin>
												<valuemax>3.98109</valuemax>
												<value>1</value>
											</parameter>
										</effect>
									</filter>
									<filter>
										<effect>
											<name>Audio Pan</name>
											<effectid>audiopan</effectid>
											<effectcategory>audiopan</effectcategory>
											<effecttype>audiopan</effecttype>
											<mediatype>audio</mediatype>
											<parameter>
												<name>Pan</name>
												<parameterid>pan</parameterid>
												<valuemin>-1</valuemin>
												<valuemax>1</valuemax>
												<value>-0</value>
											</parameter>
										</effect>
									</filter>
									<sourcetrack>
										<mediatype>audio</mediatype>
										<trackindex>2</trackindex>
									</sourcetrack>
									<link>
										<linkclipref>Raw Scene Matthew Duepner Walkabout355</linkclipref>
										<mediatype>video</mediatype>
										<trackindex>2</trackindex>
										<clipindex>9</clipindex>
									</link>
									<link>
										<linkclipref>Raw Scene Matthew Duepner Walkabout356</linkclipref>
										<mediatype>audio</mediatype>
										<trackindex>3</trackindex>
										<clipindex>9</clipindex>
										<groupindex>1</groupindex>
									</link>
									<link>
										<linkclipref>Raw Scene Matthew Duepner Walkabout357</linkclipref>
										<mediatype>audio</mediatype>
										<trackindex>4</trackindex>
										<clipindex>9</clipindex>
										<groupindex>1</groupindex>
									</link>
									<itemhistory>
										<uuid>8AAED0A6-C452-4483-837C-6CAFD7777853</uuid>
									</itemhistory>
								</clipitem>
								<clipitem id="Raw Scene Matthew Duepner Walkabout360">
									<name>Raw Scene Matthew Duepner Walkabout</name>
									<duration>38484</duration>
									<rate>
										<ntsc>TRUE</ntsc>
										<timebase>24</timebase>
									</rate>
									<in>4745</in>
									<out>5123</out>
									<start>4128</start>
									<end>4506</end>
									<masterclipid>Raw Scene Matthew Duepner Walkabout234</masterclipid>
									<logginginfo>
										<scene/>
										<shottake/>
										<lognote/>
										<good>FALSE</good>
									</logginginfo>
									<labels>
										<label2/>
									</labels>
									<comments>
										<mastercomment1/>
										<mastercomment2/>
										<mastercomment3/>
										<mastercomment4/>
									</comments>
									<file id="YIN_2013-05-28_LG-4 "/>
									<filter>
										<effect>
											<name>Audio Levels</name>
											<effectid>audiolevels</effectid>
											<effectcategory>audiolevels</effectcategory>
											<effecttype>audiolevels</effecttype>
											<mediatype>audio</mediatype>
											<parameter>
												<name>Level</name>
												<parameterid>level</parameterid>
												<valuemin>0</valuemin>
												<valuemax>3.98109</valuemax>
												<value>1</value>
											</parameter>
										</effect>
									</filter>
									<filter>
										<effect>
											<name>Audio Pan</name>
											<effectid>audiopan</effectid>
											<effectcategory>audiopan</effectcategory>
											<effecttype>audiopan</effecttype>
											<mediatype>audio</mediatype>
											<parameter>
												<name>Pan</name>
												<parameterid>pan</parameterid>
												<valuemin>-1</valuemin>
												<valuemax>1</valuemax>
												<value>-0</value>
											</parameter>
										</effect>
									</filter>
									<sourcetrack>
										<mediatype>audio</mediatype>
										<trackindex>2</trackindex>
									</sourcetrack>
									<link>
										<linkclipref>Raw Scene Matthew Duepner Walkabout358</linkclipref>
										<mediatype>video</mediatype>
										<trackindex>2</trackindex>
										<clipindex>10</clipindex>
									</link>
									<link>
										<linkclipref>Raw Scene Matthew Duepner Walkabout359</linkclipref>
										<mediatype>audio</mediatype>
										<trackindex>3</trackindex>
										<clipindex>10</clipindex>
										<groupindex>1</groupindex>
									</link>
									<link>
										<linkclipref>Raw Scene Matthew Duepner Walkabout360</linkclipref>
										<mediatype>audio</mediatype>
										<trackindex>4</trackindex>
										<clipindex>10</clipindex>
										<groupindex>1</groupindex>
									</link>
									<itemhistory>
										<uuid>C0E0B846-374F-4842-9A7F-C5B85ABA3AC9</uuid>
									</itemhistory>
								</clipitem>
								<clipitem id="Raw Scene Matthew Duepner Walkabout363">
									<name>Raw Scene Matthew Duepner Walkabout</name>
									<duration>38484</duration>
									<rate>
										<ntsc>TRUE</ntsc>
										<timebase>24</timebase>
									</rate>
									<in>6478</in>
									<out>6599</out>
									<start>4506</start>
									<end>4627</end>
									<masterclipid>Raw Scene Matthew Duepner Walkabout234</masterclipid>
									<logginginfo>
										<scene/>
										<shottake/>
										<lognote/>
										<good>FALSE</good>
									</logginginfo>
									<labels>
										<label2/>
									</labels>
									<comments>
										<mastercomment1/>
										<mastercomment2/>
										<mastercomment3/>
										<mastercomment4/>
									</comments>
									<file id="YIN_2013-05-28_LG-4 "/>
									<filter>
										<effect>
											<name>Audio Levels</name>
											<effectid>audiolevels</effectid>
											<effectcategory>audiolevels</effectcategory>
											<effecttype>audiolevels</effecttype>
											<mediatype>audio</mediatype>
											<parameter>
												<name>Level</name>
												<parameterid>level</parameterid>
												<valuemin>0</valuemin>
												<valuemax>3.98109</valuemax>
												<value>1</value>
											</parameter>
										</effect>
									</filter>
									<filter>
										<effect>
											<name>Audio Pan</name>
											<effectid>audiopan</effectid>
											<effectcategory>audiopan</effectcategory>
											<effecttype>audiopan</effecttype>
											<mediatype>audio</mediatype>
											<parameter>
												<name>Pan</name>
												<parameterid>pan</parameterid>
												<valuemin>-1</valuemin>
												<valuemax>1</valuemax>
												<value>-0</value>
											</parameter>
										</effect>
									</filter>
									<sourcetrack>
										<mediatype>audio</mediatype>
										<trackindex>2</trackindex>
									</sourcetrack>
									<link>
										<linkclipref>Raw Scene Matthew Duepner Walkabout361</linkclipref>
										<mediatype>video</mediatype>
										<trackindex>2</trackindex>
										<clipindex>11</clipindex>
									</link>
									<link>
										<linkclipref>Raw Scene Matthew Duepner Walkabout362</linkclipref>
										<mediatype>audio</mediatype>
										<trackindex>3</trackindex>
										<clipindex>11</clipindex>
										<groupindex>1</groupindex>
									</link>
									<link>
										<linkclipref>Raw Scene Matthew Duepner Walkabout363</linkclipref>
										<mediatype>audio</mediatype>
										<trackindex>4</trackindex>
										<clipindex>11</clipindex>
										<groupindex>1</groupindex>
									</link>
									<itemhistory>
										<uuid>5F358465-D4EE-4C32-BA7E-CC0A5FCEED53</uuid>
									</itemhistory>
								</clipitem>
								<clipitem id="Raw Scene Matthew Duepner Walkabout366">
									<name>Raw Scene Matthew Duepner Walkabout</name>
									<duration>38484</duration>
									<rate>
										<ntsc>TRUE</ntsc>
										<timebase>24</timebase>
									</rate>
									<in>6653</in>
									<out>6829</out>
									<start>4627</start>
									<end>4803</end>
									<masterclipid>Raw Scene Matthew Duepner Walkabout234</masterclipid>
									<logginginfo>
										<scene/>
										<shottake/>
										<lognote/>
										<good>FALSE</good>
									</logginginfo>
									<labels>
										<label2/>
									</labels>
									<comments>
										<mastercomment1/>
										<mastercomment2/>
										<mastercomment3/>
										<mastercomment4/>
									</comments>
									<file id="YIN_2013-05-28_LG-4 "/>
									<filter>
										<effect>
											<name>Audio Levels</name>
											<effectid>audiolevels</effectid>
											<effectcategory>audiolevels</effectcategory>
											<effecttype>audiolevels</effecttype>
											<mediatype>audio</mediatype>
											<parameter>
												<name>Level</name>
												<parameterid>level</parameterid>
												<valuemin>0</valuemin>
												<valuemax>3.98109</valuemax>
												<value>1</value>
											</parameter>
										</effect>
									</filter>
									<filter>
										<effect>
											<name>Audio Pan</name>
											<effectid>audiopan</effectid>
											<effectcategory>audiopan</effectcategory>
											<effecttype>audiopan</effecttype>
											<mediatype>audio</mediatype>
											<parameter>
												<name>Pan</name>
												<parameterid>pan</parameterid>
												<valuemin>-1</valuemin>
												<valuemax>1</valuemax>
												<value>-0</value>
											</parameter>
										</effect>
									</filter>
									<sourcetrack>
										<mediatype>audio</mediatype>
										<trackindex>2</trackindex>
									</sourcetrack>
									<link>
										<linkclipref>Raw Scene Matthew Duepner Walkabout364</linkclipref>
										<mediatype>video</mediatype>
										<trackindex>2</trackindex>
										<clipindex>12</clipindex>
									</link>
									<link>
										<linkclipref>Raw Scene Matthew Duepner Walkabout365</linkclipref>
										<mediatype>audio</mediatype>
										<trackindex>3</trackindex>
										<clipindex>12</clipindex>
										<groupindex>1</groupindex>
									</link>
									<link>
										<linkclipref>Raw Scene Matthew Duepner Walkabout366</linkclipref>
										<mediatype>audio</mediatype>
										<trackindex>4</trackindex>
										<clipindex>12</clipindex>
										<groupindex>1</groupindex>
									</link>
									<itemhistory>
										<uuid>97E7B0AE-116D-44AE-AF3A-11FD9FA7FC35</uuid>
									</itemhistory>
								</clipitem>
								<clipitem id="Raw Scene Matthew Duepner Walkabout369">
									<name>Raw Scene Matthew Duepner Walkabout</name>
									<duration>38484</duration>
									<rate>
										<ntsc>TRUE</ntsc>
										<timebase>24</timebase>
									</rate>
									<in>7114</in>
									<out>7311</out>
									<start>4997</start>
									<end>5194</end>
									<masterclipid>Raw Scene Matthew Duepner Walkabout234</masterclipid>
									<logginginfo>
										<scene/>
										<shottake/>
										<lognote/>
										<good>FALSE</good>
									</logginginfo>
									<labels>
										<label2/>
									</labels>
									<comments>
										<mastercomment1/>
										<mastercomment2/>
										<mastercomment3/>
										<mastercomment4/>
									</comments>
									<file id="YIN_2013-05-28_LG-4 "/>
									<filter>
										<effect>
											<name>Audio Levels</name>
											<effectid>audiolevels</effectid>
											<effectcategory>audiolevels</effectcategory>
											<effecttype>audiolevels</effecttype>
											<mediatype>audio</mediatype>
											<parameter>
												<name>Level</name>
												<parameterid>level</parameterid>
												<valuemin>0</valuemin>
												<valuemax>3.98109</valuemax>
												<value>1</value>
											</parameter>
										</effect>
									</filter>
									<filter>
										<effect>
											<name>Audio Pan</name>
											<effectid>audiopan</effectid>
											<effectcategory>audiopan</effectcategory>
											<effecttype>audiopan</effecttype>
											<mediatype>audio</mediatype>
											<parameter>
												<name>Pan</name>
												<parameterid>pan</parameterid>
												<valuemin>-1</valuemin>
												<valuemax>1</valuemax>
												<value>-0</value>
											</parameter>
										</effect>
									</filter>
									<sourcetrack>
										<mediatype>audio</mediatype>
										<trackindex>2</trackindex>
									</sourcetrack>
									<link>
										<linkclipref>Raw Scene Matthew Duepner Walkabout367</linkclipref>
										<mediatype>video</mediatype>
										<trackindex>2</trackindex>
										<clipindex>13</clipindex>
									</link>
									<link>
										<linkclipref>Raw Scene Matthew Duepner Walkabout368</linkclipref>
										<mediatype>audio</mediatype>
										<trackindex>3</trackindex>
										<clipindex>13</clipindex>
										<groupindex>1</groupindex>
									</link>
									<link>
										<linkclipref>Raw Scene Matthew Duepner Walkabout369</linkclipref>
										<mediatype>audio</mediatype>
										<trackindex>4</trackindex>
										<clipindex>13</clipindex>
										<groupindex>1</groupindex>
									</link>
									<itemhistory>
										<uuid>2E349556-CAC6-4E09-989A-03795E2F95F3</uuid>
									</itemhistory>
								</clipitem>
								<clipitem id="Raw Scene Matthew Duepner Walkabout372">
									<name>Raw Scene Matthew Duepner Walkabout</name>
									<duration>38484</duration>
									<rate>
										<ntsc>TRUE</ntsc>
										<timebase>24</timebase>
									</rate>
									<in>13344</in>
									<out>13480</out>
									<start>5686</start>
									<end>5822</end>
									<masterclipid>Raw Scene Matthew Duepner Walkabout234</masterclipid>
									<logginginfo>
										<scene/>
										<shottake/>
										<lognote/>
										<good>FALSE</good>
									</logginginfo>
									<labels>
										<label2/>
									</labels>
									<comments>
										<mastercomment1/>
										<mastercomment2/>
										<mastercomment3/>
										<mastercomment4/>
									</comments>
									<file id="YIN_2013-05-28_LG-4 "/>
									<filter>
										<effect>
											<name>Audio Levels</name>
											<effectid>audiolevels</effectid>
											<effectcategory>audiolevels</effectcategory>
											<effecttype>audiolevels</effecttype>
											<mediatype>audio</mediatype>
											<parameter>
												<name>Level</name>
												<parameterid>level</parameterid>
												<valuemin>0</valuemin>
												<valuemax>3.98109</valuemax>
												<value>1</value>
											</parameter>
										</effect>
									</filter>
									<filter>
										<effect>
											<name>Audio Pan</name>
											<effectid>audiopan</effectid>
											<effectcategory>audiopan</effectcategory>
											<effecttype>audiopan</effecttype>
											<mediatype>audio</mediatype>
											<parameter>
												<name>Pan</name>
												<parameterid>pan</parameterid>
												<valuemin>-1</valuemin>
												<valuemax>1</valuemax>
												<value>-0</value>
											</parameter>
										</effect>
									</filter>
									<sourcetrack>
										<mediatype>audio</mediatype>
										<trackindex>2</trackindex>
									</sourcetrack>
									<link>
										<linkclipref>Raw Scene Matthew Duepner Walkabout370</linkclipref>
										<mediatype>video</mediatype>
										<trackindex>2</trackindex>
										<clipindex>14</clipindex>
									</link>
									<link>
										<linkclipref>Raw Scene Matthew Duepner Walkabout371</linkclipref>
										<mediatype>audio</mediatype>
										<trackindex>3</trackindex>
										<clipindex>14</clipindex>
										<groupindex>1</groupindex>
									</link>
									<link>
										<linkclipref>Raw Scene Matthew Duepner Walkabout372</linkclipref>
										<mediatype>audio</mediatype>
										<trackindex>4</trackindex>
										<clipindex>14</clipindex>
										<groupindex>1</groupindex>
									</link>
									<itemhistory>
										<uuid>DC41EE9F-8821-4A03-B556-88BDF4918F0A</uuid>
									</itemhistory>
								</clipitem>
								<clipitem id="Raw Scene Matthew Duepner Walkabout375">
									<name>Raw Scene Matthew Duepner Walkabout</name>
									<duration>38484</duration>
									<rate>
										<ntsc>TRUE</ntsc>
										<timebase>24</timebase>
									</rate>
									<in>14269</in>
									<out>14629</out>
									<start>5822</start>
									<end>6182</end>
									<masterclipid>Raw Scene Matthew Duepner Walkabout234</masterclipid>
									<logginginfo>
										<scene/>
										<shottake/>
										<lognote/>
										<good>FALSE</good>
									</logginginfo>
									<labels>
										<label2/>
									</labels>
									<comments>
										<mastercomment1/>
										<mastercomment2/>
										<mastercomment3/>
										<mastercomment4/>
									</comments>
									<file id="YIN_2013-05-28_LG-4 "/>
									<filter>
										<effect>
											<name>Audio Levels</name>
											<effectid>audiolevels</effectid>
											<effectcategory>audiolevels</effectcategory>
											<effecttype>audiolevels</effecttype>
											<mediatype>audio</mediatype>
											<parameter>
												<name>Level</name>
												<parameterid>level</parameterid>
												<valuemin>0</valuemin>
												<valuemax>3.98109</valuemax>
												<value>1</value>
											</parameter>
										</effect>
									</filter>
									<filter>
										<effect>
											<name>Audio Pan</name>
											<effectid>audiopan</effectid>
											<effectcategory>audiopan</effectcategory>
											<effecttype>audiopan</effecttype>
											<mediatype>audio</mediatype>
											<parameter>
												<name>Pan</name>
												<parameterid>pan</parameterid>
												<valuemin>-1</valuemin>
												<valuemax>1</valuemax>
												<value>-0</value>
											</parameter>
										</effect>
									</filter>
									<sourcetrack>
										<mediatype>audio</mediatype>
										<trackindex>2</trackindex>
									</sourcetrack>
									<link>
										<linkclipref>Raw Scene Matthew Duepner Walkabout373</linkclipref>
										<mediatype>video</mediatype>
										<trackindex>2</trackindex>
										<clipindex>16</clipindex>
									</link>
									<link>
										<linkclipref>Raw Scene Matthew Duepner Walkabout374</linkclipref>
										<mediatype>audio</mediatype>
										<trackindex>3</trackindex>
										<clipindex>15</clipindex>
										<groupindex>1</groupindex>
									</link>
									<link>
										<linkclipref>Raw Scene Matthew Duepner Walkabout375</linkclipref>
										<mediatype>audio</mediatype>
										<trackindex>4</trackindex>
										<clipindex>15</clipindex>
										<groupindex>1</groupindex>
									</link>
									<itemhistory>
										<uuid>C0B3A6B6-68F1-46A7-A401-9FCC92E865A4</uuid>
									</itemhistory>
								</clipitem>
								<clipitem id="Raw Scene Matthew Duepner Walkabout378">
									<name>Raw Scene Matthew Duepner Walkabout</name>
									<duration>38484</duration>
									<rate>
										<ntsc>TRUE</ntsc>
										<timebase>24</timebase>
									</rate>
									<in>17312</in>
									<out>17749</out>
									<start>6182</start>
									<end>6619</end>
									<masterclipid>Raw Scene Matthew Duepner Walkabout234</masterclipid>
									<logginginfo>
										<scene/>
										<shottake/>
										<lognote/>
										<good>FALSE</good>
									</logginginfo>
									<labels>
										<label2/>
									</labels>
									<comments>
										<mastercomment1/>
										<mastercomment2/>
										<mastercomment3/>
										<mastercomment4/>
									</comments>
									<file id="YIN_2013-05-28_LG-4 "/>
									<filter>
										<effect>
											<name>Audio Levels</name>
											<effectid>audiolevels</effectid>
											<effectcategory>audiolevels</effectcategory>
											<effecttype>audiolevels</effecttype>
											<mediatype>audio</mediatype>
											<parameter>
												<name>Level</name>
												<parameterid>level</parameterid>
												<valuemin>0</valuemin>
												<valuemax>3.98109</valuemax>
												<value>1</value>
											</parameter>
										</effect>
									</filter>
									<filter>
										<effect>
											<name>Audio Pan</name>
											<effectid>audiopan</effectid>
											<effectcategory>audiopan</effectcategory>
											<effecttype>audiopan</effecttype>
											<mediatype>audio</mediatype>
											<parameter>
												<name>Pan</name>
												<parameterid>pan</parameterid>
												<valuemin>-1</valuemin>
												<valuemax>1</valuemax>
												<value>-0</value>
											</parameter>
										</effect>
									</filter>
									<sourcetrack>
										<mediatype>audio</mediatype>
										<trackindex>2</trackindex>
									</sourcetrack>
									<link>
										<linkclipref>Raw Scene Matthew Duepner Walkabout376</linkclipref>
										<mediatype>video</mediatype>
										<trackindex>2</trackindex>
										<clipindex>19</clipindex>
									</link>
									<link>
										<linkclipref>Raw Scene Matthew Duepner Walkabout377</linkclipref>
										<mediatype>audio</mediatype>
										<trackindex>3</trackindex>
										<clipindex>16</clipindex>
										<groupindex>1</groupindex>
									</link>
									<link>
										<linkclipref>Raw Scene Matthew Duepner Walkabout378</linkclipref>
										<mediatype>audio</mediatype>
										<trackindex>4</trackindex>
										<clipindex>16</clipindex>
										<groupindex>1</groupindex>
									</link>
									<itemhistory>
										<uuid>66F810B3-456E-4A66-826E-566E3E430035</uuid>
									</itemhistory>
								</clipitem>
								<clipitem id="Raw Scene Matthew Duepner Walkabout383">
									<name>Raw Scene Matthew Duepner Walkabout</name>
									<duration>38484</duration>
									<rate>
										<ntsc>TRUE</ntsc>
										<timebase>24</timebase>
									</rate>
									<in>27766</in>
									<out>28237</out>
									<start>7788</start>
									<end>8259</end>
									<masterclipid>Raw Scene Matthew Duepner Walkabout234</masterclipid>
									<logginginfo>
										<scene/>
										<shottake/>
										<lognote/>
										<good>FALSE</good>
									</logginginfo>
									<labels>
										<label2/>
									</labels>
									<comments>
										<mastercomment1/>
										<mastercomment2/>
										<mastercomment3/>
										<mastercomment4/>
									</comments>
									<file id="YIN_2013-05-28_LG-4 "/>
									<filter>
										<effect>
											<name>Audio Levels</name>
											<effectid>audiolevels</effectid>
											<effectcategory>audiolevels</effectcategory>
											<effecttype>audiolevels</effecttype>
											<mediatype>audio</mediatype>
											<parameter>
												<name>Level</name>
												<parameterid>level</parameterid>
												<valuemin>0</valuemin>
												<valuemax>3.98109</valuemax>
												<value>1</value>
											</parameter>
										</effect>
									</filter>
									<filter>
										<effect>
											<name>Audio Pan</name>
											<effectid>audiopan</effectid>
											<effectcategory>audiopan</effectcategory>
											<effecttype>audiopan</effecttype>
											<mediatype>audio</mediatype>
											<parameter>
												<name>Pan</name>
												<parameterid>pan</parameterid>
												<valuemin>-1</valuemin>
												<valuemax>1</valuemax>
												<value>-0</value>
											</parameter>
										</effect>
									</filter>
									<sourcetrack>
										<mediatype>audio</mediatype>
										<trackindex>2</trackindex>
									</sourcetrack>
									<link>
										<linkclipref>Raw Scene Matthew Duepner Walkabout381</linkclipref>
										<mediatype>video</mediatype>
										<trackindex>2</trackindex>
										<clipindex>22</clipindex>
									</link>
									<link>
										<linkclipref>Raw Scene Matthew Duepner Walkabout382</linkclipref>
										<mediatype>audio</mediatype>
										<trackindex>3</trackindex>
										<clipindex>17</clipindex>
										<groupindex>1</groupindex>
									</link>
									<link>
										<linkclipref>Raw Scene Matthew Duepner Walkabout383</linkclipref>
										<mediatype>audio</mediatype>
										<trackindex>4</trackindex>
										<clipindex>17</clipindex>
										<groupindex>1</groupindex>
									</link>
									<itemhistory>
										<uuid>8437D87D-E40E-4F8B-B020-20FF4DD25E92</uuid>
									</itemhistory>
								</clipitem>
								<clipitem id="Raw Scene Matthew Duepner Walkabout386">
									<name>Raw Scene Matthew Duepner Walkabout</name>
									<duration>38484</duration>
									<rate>
										<ntsc>TRUE</ntsc>
										<timebase>24</timebase>
									</rate>
									<in>15002</in>
									<out>15091</out>
									<start>8936</start>
									<end>9025</end>
									<masterclipid>Raw Scene Matthew Duepner Walkabout234</masterclipid>
									<logginginfo>
										<scene/>
										<shottake/>
										<lognote/>
										<good>FALSE</good>
									</logginginfo>
									<labels>
										<label2/>
									</labels>
									<comments>
										<mastercomment1/>
										<mastercomment2/>
										<mastercomment3/>
										<mastercomment4/>
									</comments>
									<file id="YIN_2013-05-28_LG-4 "/>
									<filter>
										<effect>
											<name>Audio Levels</name>
											<effectid>audiolevels</effectid>
											<effectcategory>audiolevels</effectcategory>
											<effecttype>audiolevels</effecttype>
											<mediatype>audio</mediatype>
											<parameter>
												<name>Level</name>
												<parameterid>level</parameterid>
												<valuemin>0</valuemin>
												<valuemax>3.98109</valuemax>
												<value>1</value>
											</parameter>
										</effect>
									</filter>
									<filter>
										<effect>
											<name>Audio Pan</name>
											<effectid>audiopan</effectid>
											<effectcategory>audiopan</effectcategory>
											<effecttype>audiopan</effecttype>
											<mediatype>audio</mediatype>
											<parameter>
												<name>Pan</name>
												<parameterid>pan</parameterid>
												<valuemin>-1</valuemin>
												<valuemax>1</valuemax>
												<value>-0</value>
											</parameter>
										</effect>
									</filter>
									<sourcetrack>
										<mediatype>audio</mediatype>
										<trackindex>2</trackindex>
									</sourcetrack>
									<link>
										<linkclipref>Raw Scene Matthew Duepner Walkabout384</linkclipref>
										<mediatype>video</mediatype>
										<trackindex>2</trackindex>
										<clipindex>24</clipindex>
									</link>
									<link>
										<linkclipref>Raw Scene Matthew Duepner Walkabout385</linkclipref>
										<mediatype>audio</mediatype>
										<trackindex>3</trackindex>
										<clipindex>18</clipindex>
										<groupindex>1</groupindex>
									</link>
									<link>
										<linkclipref>Raw Scene Matthew Duepner Walkabout386</linkclipref>
										<mediatype>audio</mediatype>
										<trackindex>4</trackindex>
										<clipindex>18</clipindex>
										<groupindex>1</groupindex>
									</link>
									<itemhistory>
										<uuid>9A1BD27C-7E4E-4B03-A1E3-F825D5BCE68F</uuid>
									</itemhistory>
								</clipitem>
								<clipitem id="Raw Scene Matthew Duepner Printing121">
									<name>Raw Scene Matthew Duepner Printing</name>
									<duration>28553</duration>
									<rate>
										<ntsc>TRUE</ntsc>
										<timebase>24</timebase>
									</rate>
									<in>7849</in>
									<out>7967</out>
									<start>10693</start>
									<end>10811</end>
									<masterclipid>Raw Scene Matthew Duepner Printing72</masterclipid>
									<logginginfo>
										<scene/>
										<shottake/>
										<lognote/>
										<good>FALSE</good>
									</logginginfo>
									<labels>
										<label2/>
									</labels>
									<comments>
										<mastercomment1/>
										<mastercomment2/>
										<mastercomment3/>
										<mastercomment4/>
									</comments>
									<file id="YIN_2013-05-28_LG-6 "/>
									<filter>
										<effect>
											<name>Audio Levels</name>
											<effectid>audiolevels</effectid>
											<effectcategory>audiolevels</effectcategory>
											<effecttype>audiolevels</effecttype>
											<mediatype>audio</mediatype>
											<parameter>
												<name>Level</name>
												<parameterid>level</parameterid>
												<valuemin>0</valuemin>
												<valuemax>3.98109</valuemax>
												<value>1</value>
											</parameter>
										</effect>
									</filter>
									<filter>
										<effect>
											<name>Audio Pan</name>
											<effectid>audiopan</effectid>
											<effectcategory>audiopan</effectcategory>
											<effecttype>audiopan</effecttype>
											<mediatype>audio</mediatype>
											<parameter>
												<name>Pan</name>
												<parameterid>pan</parameterid>
												<valuemin>-1</valuemin>
												<valuemax>1</valuemax>
												<value>-0</value>
											</parameter>
										</effect>
									</filter>
									<sourcetrack>
										<mediatype>audio</mediatype>
										<trackindex>2</trackindex>
									</sourcetrack>
									<link>
										<linkclipref>Raw Scene Matthew Duepner Printing119</linkclipref>
										<mediatype>video</mediatype>
										<trackindex>2</trackindex>
										<clipindex>25</clipindex>
									</link>
									<link>
										<linkclipref>Raw Scene Matthew Duepner Printing120</linkclipref>
										<mediatype>audio</mediatype>
										<trackindex>3</trackindex>
										<clipindex>19</clipindex>
										<groupindex>1</groupindex>
									</link>
									<link>
										<linkclipref>Raw Scene Matthew Duepner Printing121</linkclipref>
										<mediatype>audio</mediatype>
										<trackindex>4</trackindex>
										<clipindex>19</clipindex>
										<groupindex>1</groupindex>
									</link>
									<itemhistory>
										<uuid>80BBB1D8-C737-4075-96AE-E489444EE56C</uuid>
									</itemhistory>
								</clipitem>
								<clipitem id="Raw Scene Matthew Duepner Printing124">
									<name>Raw Scene Matthew Duepner Printing</name>
									<duration>28553</duration>
									<rate>
										<ntsc>TRUE</ntsc>
										<timebase>24</timebase>
									</rate>
									<in>8107</in>
									<out>8235</out>
									<start>10811</start>
									<end>10939</end>
									<masterclipid>Raw Scene Matthew Duepner Printing72</masterclipid>
									<logginginfo>
										<scene/>
										<shottake/>
										<lognote/>
										<good>FALSE</good>
									</logginginfo>
									<labels>
										<label2/>
									</labels>
									<comments>
										<mastercomment1/>
										<mastercomment2/>
										<mastercomment3/>
										<mastercomment4/>
									</comments>
									<file id="YIN_2013-05-28_LG-6 "/>
									<filter>
										<effect>
											<name>Audio Levels</name>
											<effectid>audiolevels</effectid>
											<effectcategory>audiolevels</effectcategory>
											<effecttype>audiolevels</effecttype>
											<mediatype>audio</mediatype>
											<parameter>
												<name>Level</name>
												<parameterid>level</parameterid>
												<valuemin>0</valuemin>
												<valuemax>3.98109</valuemax>
												<value>1</value>
											</parameter>
										</effect>
									</filter>
									<filter>
										<effect>
											<name>Audio Pan</name>
											<effectid>audiopan</effectid>
											<effectcategory>audiopan</effectcategory>
											<effecttype>audiopan</effecttype>
											<mediatype>audio</mediatype>
											<parameter>
												<name>Pan</name>
												<parameterid>pan</parameterid>
												<valuemin>-1</valuemin>
												<valuemax>1</valuemax>
												<value>-0</value>
											</parameter>
										</effect>
									</filter>
									<sourcetrack>
										<mediatype>audio</mediatype>
										<trackindex>2</trackindex>
									</sourcetrack>
									<link>
										<linkclipref>Raw Scene Matthew Duepner Printing122</linkclipref>
										<mediatype>video</mediatype>
										<trackindex>2</trackindex>
										<clipindex>26</clipindex>
									</link>
									<link>
										<linkclipref>Raw Scene Matthew Duepner Printing123</linkclipref>
										<mediatype>audio</mediatype>
										<trackindex>3</trackindex>
										<clipindex>20</clipindex>
										<groupindex>1</groupindex>
									</link>
									<link>
										<linkclipref>Raw Scene Matthew Duepner Printing124</linkclipref>
										<mediatype>audio</mediatype>
										<trackindex>4</trackindex>
										<clipindex>20</clipindex>
										<groupindex>1</groupindex>
									</link>
									<itemhistory>
										<uuid>EDFA55A1-FCF3-41C9-8992-4A72B8D025EC</uuid>
									</itemhistory>
								</clipitem>
								<clipitem id="Raw Scene Matthew Duepner House Tour13">
									<name>Raw Scene Matthew Duepner House Tour</name>
									<duration>16257</duration>
									<rate>
										<ntsc>TRUE</ntsc>
										<timebase>24</timebase>
									</rate>
									<in>4383</in>
									<out>4481</out>
									<start>11146</start>
									<end>11244</end>
									<masterclipid>Raw Scene Matthew Duepner House Tour</masterclipid>
									<logginginfo>
										<scene/>
										<shottake/>
										<lognote/>
										<good>FALSE</good>
									</logginginfo>
									<labels>
										<label2/>
									</labels>
									<comments>
										<mastercomment1/>
										<mastercomment2/>
										<mastercomment3/>
										<mastercomment4/>
									</comments>
									<file id="YIN_2013-05-28_LG-3 "/>
									<filter>
										<effect>
											<name>Audio Levels</name>
											<effectid>audiolevels</effectid>
											<effectcategory>audiolevels</effectcategory>
											<effecttype>audiolevels</effecttype>
											<mediatype>audio</mediatype>
											<parameter>
												<name>Level</name>
												<parameterid>level</parameterid>
												<valuemin>0</valuemin>
												<valuemax>3.98109</valuemax>
												<value>1</value>
											</parameter>
										</effect>
									</filter>
									<filter>
										<effect>
											<name>Audio Pan</name>
											<effectid>audiopan</effectid>
											<effectcategory>audiopan</effectcategory>
											<effecttype>audiopan</effecttype>
											<mediatype>audio</mediatype>
											<parameter>
												<name>Pan</name>
												<parameterid>pan</parameterid>
												<valuemin>-1</valuemin>
												<valuemax>1</valuemax>
												<value>-0</value>
											</parameter>
										</effect>
									</filter>
									<sourcetrack>
										<mediatype>audio</mediatype>
										<trackindex>2</trackindex>
									</sourcetrack>
									<link>
										<linkclipref>Raw Scene Matthew Duepner House Tour11</linkclipref>
										<mediatype>video</mediatype>
										<trackindex>2</trackindex>
										<clipindex>27</clipindex>
									</link>
									<link>
										<linkclipref>Raw Scene Matthew Duepner House Tour12</linkclipref>
										<mediatype>audio</mediatype>
										<trackindex>3</trackindex>
										<clipindex>21</clipindex>
										<groupindex>1</groupindex>
									</link>
									<link>
										<linkclipref>Raw Scene Matthew Duepner House Tour13</linkclipref>
										<mediatype>audio</mediatype>
										<trackindex>4</trackindex>
										<clipindex>21</clipindex>
										<groupindex>1</groupindex>
									</link>
									<itemhistory>
										<uuid>9C14F637-C49D-4627-A160-AFC8448AE06B</uuid>
									</itemhistory>
								</clipitem>
								<clipitem id="Raw Scene Matthew Duepner House Tour16">
									<name>Raw Scene Matthew Duepner House Tour</name>
									<duration>16257</duration>
									<rate>
										<ntsc>TRUE</ntsc>
										<timebase>24</timebase>
									</rate>
									<in>6030</in>
									<out>6334</out>
									<start>11244</start>
									<end>11548</end>
									<masterclipid>Raw Scene Matthew Duepner House Tour</masterclipid>
									<logginginfo>
										<scene/>
										<shottake/>
										<lognote/>
										<good>FALSE</good>
									</logginginfo>
									<labels>
										<label2/>
									</labels>
									<comments>
										<mastercomment1/>
										<mastercomment2/>
										<mastercomment3/>
										<mastercomment4/>
									</comments>
									<file id="YIN_2013-05-28_LG-3 "/>
									<filter>
										<effect>
											<name>Audio Levels</name>
											<effectid>audiolevels</effectid>
											<effectcategory>audiolevels</effectcategory>
											<effecttype>audiolevels</effecttype>
											<mediatype>audio</mediatype>
											<parameter>
												<name>Level</name>
												<parameterid>level</parameterid>
												<valuemin>0</valuemin>
												<valuemax>3.98109</valuemax>
												<value>1</value>
											</parameter>
										</effect>
									</filter>
									<filter>
										<effect>
											<name>Audio Pan</name>
											<effectid>audiopan</effectid>
											<effectcategory>audiopan</effectcategory>
											<effecttype>audiopan</effecttype>
											<mediatype>audio</mediatype>
											<parameter>
												<name>Pan</name>
												<parameterid>pan</parameterid>
												<valuemin>-1</valuemin>
												<valuemax>1</valuemax>
												<value>-0</value>
											</parameter>
										</effect>
									</filter>
									<sourcetrack>
										<mediatype>audio</mediatype>
										<trackindex>2</trackindex>
									</sourcetrack>
									<link>
										<linkclipref>Raw Scene Matthew Duepner House Tour14</linkclipref>
										<mediatype>video</mediatype>
										<trackindex>2</trackindex>
										<clipindex>28</clipindex>
									</link>
									<link>
										<linkclipref>Raw Scene Matthew Duepner House Tour15</linkclipref>
										<mediatype>audio</mediatype>
										<trackindex>3</trackindex>
										<clipindex>22</clipindex>
										<groupindex>1</groupindex>
									</link>
									<link>
										<linkclipref>Raw Scene Matthew Duepner House Tour16</linkclipref>
										<mediatype>audio</mediatype>
										<trackindex>4</trackindex>
										<clipindex>22</clipindex>
										<groupindex>1</groupindex>
									</link>
									<itemhistory>
										<uuid>87135562-D3CF-499B-8A92-F29183B72AD9</uuid>
									</itemhistory>
								</clipitem>
								<enabled>TRUE</enabled>
								<locked>FALSE</locked>
								<outputchannelindex>2</outputchannelindex>
							</track>
						</audio>
					</media>
					<ismasterclip>FALSE</ismasterclip>
					<marker>
						<name/>
						<comment/>
						<color>
							<alpha>0</alpha>
							<red>255</red>
							<green>0</green>
							<blue>0</blue>
						</color>
						<in>10961</in>
						<out>10961</out>
					</marker>
				</sequence>
				<sequence id="Rough Cut Sequence Matthew Deupner (Jeffrey Buras)">
					<uuid>F96020A9-F29D-464A-BD7F-FCFADCB233E4</uuid>
					<updatebehavior>add</updatebehavior>
					<name>Rough Cut Sequence Matthew Deupner (Jeffrey Buras)</name>
					<duration>8381</duration>
					<rate>
						<ntsc>TRUE</ntsc>
						<timebase>24</timebase>
					</rate>
					<timecode>
						<rate>
							<ntsc>TRUE</ntsc>
							<timebase>24</timebase>
						</rate>
						<string>00:00:00:00</string>
						<frame>0</frame>
						<source>source</source>
						<displayformat>NDF</displayformat>
					</timecode>
					<in>-1</in>
					<out>-1</out>
					<media>
						<video>
							<format>
								<samplecharacteristics>
									<width>640</width>
									<height>360</height>
									<anamorphic>FALSE</anamorphic>
									<pixelaspectratio>Square</pixelaspectratio>
									<fielddominance>none</fielddominance>
									<rate>
										<ntsc>TRUE</ntsc>
										<timebase>24</timebase>
									</rate>
									<colordepth>24</colordepth>
									<codec>
										<name>Apple ProRes 422</name>
										<appspecificdata>
											<appname>Final Cut Pro</appname>
											<appmanufacturer>Apple Inc.</appmanufacturer>
											<appversion>7.0</appversion>
											<data>
												<qtcodec>
													<codecname>Apple ProRes 422</codecname>
													<codectypename>Apple ProRes 422</codectypename>
													<codectypecode>apcn</codectypecode>
													<codecvendorcode>appl</codecvendorcode>
													<spatialquality>1024</spatialquality>
													<temporalquality>0</temporalquality>
													<keyframerate>0</keyframerate>
													<datarate>0</datarate>
												</qtcodec>
											</data>
										</appspecificdata>
									</codec>
								</samplecharacteristics>
								<appspecificdata>
									<appname>Final Cut Pro</appname>
									<appmanufacturer>Apple Inc.</appmanufacturer>
									<appversion>7.0</appversion>
									<data>
										<fcpimageprocessing>
											<useyuv>TRUE</useyuv>
											<usesuperwhite>TRUE</usesuperwhite>
											<rendermode>Float10BPP</rendermode>
										</fcpimageprocessing>
									</data>
								</appspecificdata>
							</format>
							<track>
								<clipitem id="Raw Interview Matthew Duepner604">
									<name>Raw Interview Matthew Duepner</name>
									<duration>81486</duration>
									<rate>
										<ntsc>TRUE</ntsc>
										<timebase>24</timebase>
									</rate>
									<in>2994</in>
									<out>3033</out>
									<start>708</start>
									<end>747</end>
									<pixelaspectratio>Square</pixelaspectratio>
									<anamorphic>FALSE</anamorphic>
									<alphatype>black</alphatype>
									<masterclipid>Raw Interview Matthew Duepner390</masterclipid>
									<logginginfo>
										<scene/>
										<shottake/>
										<lognote/>
										<good>FALSE</good>
									</logginginfo>
									<labels>
										<label2/>
									</labels>
									<comments>
										<mastercomment1/>
										<mastercomment2/>
										<mastercomment3/>
										<mastercomment4/>
									</comments>
									<file id="YIN_2013-05-28_LG-5 "/>
									<sourcetrack>
										<mediatype>video</mediatype>
									</sourcetrack>
									<link>
										<linkclipref>Raw Interview Matthew Duepner604</linkclipref>
										<mediatype>video</mediatype>
										<trackindex>1</trackindex>
										<clipindex>1</clipindex>
									</link>
									<link>
										<linkclipref>Raw Interview Matthew Duepner605</linkclipref>
										<mediatype>audio</mediatype>
										<trackindex>1</trackindex>
										<clipindex>1</clipindex>
										<groupindex>1</groupindex>
									</link>
									<link>
										<linkclipref>Raw Interview Matthew Duepner606</linkclipref>
										<mediatype>audio</mediatype>
										<trackindex>2</trackindex>
										<clipindex>1</clipindex>
										<groupindex>1</groupindex>
									</link>
									<fielddominance>none</fielddominance>
									<itemhistory>
										<uuid>5F68CF8A-1417-4DB4-834F-2799ADE70105</uuid>
									</itemhistory>
								</clipitem>
								<clipitem id="Raw Interview Matthew Duepner607">
									<name>Raw Interview Matthew Duepner</name>
									<duration>81486</duration>
									<rate>
										<ntsc>TRUE</ntsc>
										<timebase>24</timebase>
									</rate>
									<in>3050</in>
									<out>3174</out>
									<start>764</start>
									<end>888</end>
									<pixelaspectratio>Square</pixelaspectratio>
									<anamorphic>FALSE</anamorphic>
									<alphatype>black</alphatype>
									<masterclipid>Raw Interview Matthew Duepner390</masterclipid>
									<logginginfo>
										<scene/>
										<shottake/>
										<lognote/>
										<good>FALSE</good>
									</logginginfo>
									<labels>
										<label2/>
									</labels>
									<comments>
										<mastercomment1/>
										<mastercomment2/>
										<mastercomment3/>
										<mastercomment4/>
									</comments>
									<file id="YIN_2013-05-28_LG-5 "/>
									<sourcetrack>
										<mediatype>video</mediatype>
									</sourcetrack>
									<link>
										<linkclipref>Raw Interview Matthew Duepner607</linkclipref>
										<mediatype>video</mediatype>
										<trackindex>1</trackindex>
										<clipindex>2</clipindex>
									</link>
									<link>
										<linkclipref>Raw Interview Matthew Duepner608</linkclipref>
										<mediatype>audio</mediatype>
										<trackindex>1</trackindex>
										<clipindex>2</clipindex>
										<groupindex>1</groupindex>
									</link>
									<link>
										<linkclipref>Raw Interview Matthew Duepner609</linkclipref>
										<mediatype>audio</mediatype>
										<trackindex>2</trackindex>
										<clipindex>2</clipindex>
										<groupindex>1</groupindex>
									</link>
									<fielddominance>none</fielddominance>
									<itemhistory>
										<uuid>AAE80224-4603-492B-B645-3AE62AEFAB2E</uuid>
									</itemhistory>
								</clipitem>
								<clipitem id="Raw Interview Matthew Duepner610">
									<name>Raw Interview Matthew Duepner</name>
									<duration>81486</duration>
									<rate>
										<ntsc>TRUE</ntsc>
										<timebase>24</timebase>
									</rate>
									<in>3586</in>
									<out>3633</out>
									<start>892</start>
									<end>939</end>
									<pixelaspectratio>Square</pixelaspectratio>
									<anamorphic>FALSE</anamorphic>
									<alphatype>black</alphatype>
									<masterclipid>Raw Interview Matthew Duepner390</masterclipid>
									<logginginfo>
										<scene/>
										<shottake/>
										<lognote/>
										<good>FALSE</good>
									</logginginfo>
									<labels>
										<label2/>
									</labels>
									<comments>
										<mastercomment1/>
										<mastercomment2/>
										<mastercomment3/>
										<mastercomment4/>
									</comments>
									<file id="YIN_2013-05-28_LG-5 "/>
									<sourcetrack>
										<mediatype>video</mediatype>
									</sourcetrack>
									<link>
										<linkclipref>Raw Interview Matthew Duepner610</linkclipref>
										<mediatype>video</mediatype>
										<trackindex>1</trackindex>
										<clipindex>3</clipindex>
									</link>
									<link>
										<linkclipref>Raw Interview Matthew Duepner611</linkclipref>
										<mediatype>audio</mediatype>
										<trackindex>1</trackindex>
										<clipindex>3</clipindex>
										<groupindex>1</groupindex>
									</link>
									<link>
										<linkclipref>Raw Interview Matthew Duepner612</linkclipref>
										<mediatype>audio</mediatype>
										<trackindex>2</trackindex>
										<clipindex>3</clipindex>
										<groupindex>1</groupindex>
									</link>
									<fielddominance>none</fielddominance>
									<itemhistory>
										<uuid>57BEC964-125B-443A-83E9-A5DBF3AA6D04</uuid>
									</itemhistory>
								</clipitem>
								<clipitem id="Raw Interview Matthew Duepner613">
									<name>Raw Interview Matthew Duepner</name>
									<duration>81486</duration>
									<rate>
										<ntsc>TRUE</ntsc>
										<timebase>24</timebase>
									</rate>
									<in>6757</in>
									<out>6892</out>
									<start>1048</start>
									<end>1183</end>
									<pixelaspectratio>Square</pixelaspectratio>
									<anamorphic>FALSE</anamorphic>
									<alphatype>black</alphatype>
									<masterclipid>Raw Interview Matthew Duepner390</masterclipid>
									<logginginfo>
										<scene/>
										<shottake/>
										<lognote/>
										<good>FALSE</good>
									</logginginfo>
									<labels>
										<label2/>
									</labels>
									<comments>
										<mastercomment1/>
										<mastercomment2/>
										<mastercomment3/>
										<mastercomment4/>
									</comments>
									<file id="YIN_2013-05-28_LG-5 "/>
									<sourcetrack>
										<mediatype>video</mediatype>
									</sourcetrack>
									<link>
										<linkclipref>Raw Interview Matthew Duepner613</linkclipref>
										<mediatype>video</mediatype>
										<trackindex>1</trackindex>
										<clipindex>4</clipindex>
									</link>
									<link>
										<linkclipref>Raw Interview Matthew Duepner614</linkclipref>
										<mediatype>audio</mediatype>
										<trackindex>1</trackindex>
										<clipindex>4</clipindex>
										<groupindex>1</groupindex>
									</link>
									<link>
										<linkclipref>Raw Interview Matthew Duepner615</linkclipref>
										<mediatype>audio</mediatype>
										<trackindex>2</trackindex>
										<clipindex>4</clipindex>
										<groupindex>1</groupindex>
									</link>
									<fielddominance>none</fielddominance>
									<itemhistory>
										<uuid>FD741E4E-099B-4B67-89FE-2D537A3DEFC5</uuid>
									</itemhistory>
								</clipitem>
								<clipitem id="Raw Interview Matthew Duepner616">
									<name>Raw Interview Matthew Duepner</name>
									<duration>81486</duration>
									<rate>
										<ntsc>TRUE</ntsc>
										<timebase>24</timebase>
									</rate>
									<in>28387</in>
									<out>28619</out>
									<start>1249</start>
									<end>1481</end>
									<pixelaspectratio>Square</pixelaspectratio>
									<anamorphic>FALSE</anamorphic>
									<alphatype>black</alphatype>
									<masterclipid>Raw Interview Matthew Duepner390</masterclipid>
									<logginginfo>
										<scene/>
										<shottake/>
										<lognote/>
										<good>FALSE</good>
									</logginginfo>
									<labels>
										<label2/>
									</labels>
									<comments>
										<mastercomment1/>
										<mastercomment2/>
										<mastercomment3/>
										<mastercomment4/>
									</comments>
									<file id="YIN_2013-05-28_LG-5 "/>
									<sourcetrack>
										<mediatype>video</mediatype>
									</sourcetrack>
									<link>
										<linkclipref>Raw Interview Matthew Duepner616</linkclipref>
										<mediatype>video</mediatype>
										<trackindex>1</trackindex>
										<clipindex>5</clipindex>
									</link>
									<link>
										<linkclipref>Raw Interview Matthew Duepner617</linkclipref>
										<mediatype>audio</mediatype>
										<trackindex>1</trackindex>
										<clipindex>5</clipindex>
										<groupindex>1</groupindex>
									</link>
									<link>
										<linkclipref>Raw Interview Matthew Duepner618</linkclipref>
										<mediatype>audio</mediatype>
										<trackindex>2</trackindex>
										<clipindex>5</clipindex>
										<groupindex>1</groupindex>
									</link>
									<fielddominance>none</fielddominance>
									<itemhistory>
										<uuid>8F60162D-C8AA-4B23-8F80-A94D3A06F572</uuid>
									</itemhistory>
								</clipitem>
								<clipitem id="Raw Interview Matthew Duepner619">
									<name>Raw Interview Matthew Duepner</name>
									<duration>81486</duration>
									<rate>
										<ntsc>TRUE</ntsc>
										<timebase>24</timebase>
									</rate>
									<in>76128</in>
									<out>76339</out>
									<start>1493</start>
									<end>1704</end>
									<pixelaspectratio>Square</pixelaspectratio>
									<anamorphic>FALSE</anamorphic>
									<alphatype>black</alphatype>
									<masterclipid>Raw Interview Matthew Duepner390</masterclipid>
									<logginginfo>
										<scene/>
										<shottake/>
										<lognote/>
										<good>FALSE</good>
									</logginginfo>
									<labels>
										<label2/>
									</labels>
									<comments>
										<mastercomment1/>
										<mastercomment2/>
										<mastercomment3/>
										<mastercomment4/>
									</comments>
									<file id="YIN_2013-05-28_LG-5 "/>
									<sourcetrack>
										<mediatype>video</mediatype>
									</sourcetrack>
									<link>
										<linkclipref>Raw Interview Matthew Duepner619</linkclipref>
										<mediatype>video</mediatype>
										<trackindex>1</trackindex>
										<clipindex>6</clipindex>
									</link>
									<link>
										<linkclipref>Raw Interview Matthew Duepner620</linkclipref>
										<mediatype>audio</mediatype>
										<trackindex>1</trackindex>
										<clipindex>7</clipindex>
										<groupindex>1</groupindex>
									</link>
									<link>
										<linkclipref>Raw Interview Matthew Duepner621</linkclipref>
										<mediatype>audio</mediatype>
										<trackindex>2</trackindex>
										<clipindex>7</clipindex>
										<groupindex>1</groupindex>
									</link>
									<fielddominance>none</fielddominance>
									<itemhistory>
										<uuid>C9041250-818D-4DB6-A1E5-72FC1335A851</uuid>
									</itemhistory>
								</clipitem>
								<clipitem id="Raw Interview Matthew Duepner622">
									<name>Raw Interview Matthew Duepner</name>
									<duration>81486</duration>
									<rate>
										<ntsc>TRUE</ntsc>
										<timebase>24</timebase>
									</rate>
									<in>5496</in>
									<out>5591</out>
									<start>1769</start>
									<end>1864</end>
									<pixelaspectratio>Square</pixelaspectratio>
									<anamorphic>FALSE</anamorphic>
									<alphatype>black</alphatype>
									<masterclipid>Raw Interview Matthew Duepner390</masterclipid>
									<logginginfo>
										<scene/>
										<shottake/>
										<lognote/>
										<good>FALSE</good>
									</logginginfo>
									<labels>
										<label2/>
									</labels>
									<comments>
										<mastercomment1/>
										<mastercomment2/>
										<mastercomment3/>
										<mastercomment4/>
									</comments>
									<file id="YIN_2013-05-28_LG-5 "/>
									<sourcetrack>
										<mediatype>video</mediatype>
									</sourcetrack>
									<link>
										<linkclipref>Raw Interview Matthew Duepner622</linkclipref>
										<mediatype>video</mediatype>
										<trackindex>1</trackindex>
										<clipindex>7</clipindex>
									</link>
									<link>
										<linkclipref>Raw Interview Matthew Duepner623</linkclipref>
										<mediatype>audio</mediatype>
										<trackindex>1</trackindex>
										<clipindex>8</clipindex>
										<groupindex>1</groupindex>
									</link>
									<link>
										<linkclipref>Raw Interview Matthew Duepner624</linkclipref>
										<mediatype>audio</mediatype>
										<trackindex>2</trackindex>
										<clipindex>8</clipindex>
										<groupindex>1</groupindex>
									</link>
									<fielddominance>none</fielddominance>
									<itemhistory>
										<uuid>16303BE8-C08B-4750-8708-0ECD72BB1747</uuid>
									</itemhistory>
								</clipitem>
								<clipitem id="Raw Interview Matthew Duepner625">
									<name>Raw Interview Matthew Duepner</name>
									<duration>81486</duration>
									<rate>
										<ntsc>TRUE</ntsc>
										<timebase>24</timebase>
									</rate>
									<in>6176</in>
									<out>6256</out>
									<start>1864</start>
									<end>1944</end>
									<pixelaspectratio>Square</pixelaspectratio>
									<anamorphic>FALSE</anamorphic>
									<alphatype>black</alphatype>
									<masterclipid>Raw Interview Matthew Duepner390</masterclipid>
									<logginginfo>
										<scene/>
										<shottake/>
										<lognote/>
										<good>FALSE</good>
									</logginginfo>
									<labels>
										<label2/>
									</labels>
									<comments>
										<mastercomment1/>
										<mastercomment2/>
										<mastercomment3/>
										<mastercomment4/>
									</comments>
									<file id="YIN_2013-05-28_LG-5 "/>
									<sourcetrack>
										<mediatype>video</mediatype>
									</sourcetrack>
									<link>
										<linkclipref>Raw Interview Matthew Duepner625</linkclipref>
										<mediatype>video</mediatype>
										<trackindex>1</trackindex>
										<clipindex>8</clipindex>
									</link>
									<link>
										<linkclipref>Raw Interview Matthew Duepner626</linkclipref>
										<mediatype>audio</mediatype>
										<trackindex>1</trackindex>
										<clipindex>9</clipindex>
										<groupindex>1</groupindex>
									</link>
									<link>
										<linkclipref>Raw Interview Matthew Duepner627</linkclipref>
										<mediatype>audio</mediatype>
										<trackindex>2</trackindex>
										<clipindex>9</clipindex>
										<groupindex>1</groupindex>
									</link>
									<fielddominance>none</fielddominance>
									<itemhistory>
										<uuid>9448B092-6F23-4E64-86DC-D6804AE6DC84</uuid>
									</itemhistory>
								</clipitem>
								<clipitem id="Raw Interview Matthew Duepner628">
									<name>Raw Interview Matthew Duepner</name>
									<duration>81486</duration>
									<rate>
										<ntsc>TRUE</ntsc>
										<timebase>24</timebase>
									</rate>
									<in>26630</in>
									<out>26790</out>
									<start>1944</start>
									<end>2104</end>
									<pixelaspectratio>Square</pixelaspectratio>
									<anamorphic>FALSE</anamorphic>
									<alphatype>black</alphatype>
									<masterclipid>Raw Interview Matthew Duepner390</masterclipid>
									<logginginfo>
										<scene/>
										<shottake/>
										<lognote/>
										<good>FALSE</good>
									</logginginfo>
									<labels>
										<label2/>
									</labels>
									<comments>
										<mastercomment1/>
										<mastercomment2/>
										<mastercomment3/>
										<mastercomment4/>
									</comments>
									<file id="YIN_2013-05-28_LG-5 "/>
									<sourcetrack>
										<mediatype>video</mediatype>
									</sourcetrack>
									<link>
										<linkclipref>Raw Interview Matthew Duepner628</linkclipref>
										<mediatype>video</mediatype>
										<trackindex>1</trackindex>
										<clipindex>9</clipindex>
									</link>
									<link>
										<linkclipref>Raw Interview Matthew Duepner629</linkclipref>
										<mediatype>audio</mediatype>
										<trackindex>1</trackindex>
										<clipindex>10</clipindex>
										<groupindex>1</groupindex>
									</link>
									<link>
										<linkclipref>Raw Interview Matthew Duepner630</linkclipref>
										<mediatype>audio</mediatype>
										<trackindex>2</trackindex>
										<clipindex>10</clipindex>
										<groupindex>1</groupindex>
									</link>
									<fielddominance>none</fielddominance>
									<itemhistory>
										<uuid>5E8A5914-DB97-4467-885A-A77FB1F46020</uuid>
									</itemhistory>
								</clipitem>
								<clipitem id="Raw Interview Matthew Duepner631">
									<name>Raw Interview Matthew Duepner</name>
									<duration>81486</duration>
									<rate>
										<ntsc>TRUE</ntsc>
										<timebase>24</timebase>
									</rate>
									<in>27232</in>
									<out>27302</out>
									<start>2104</start>
									<end>2174</end>
									<pixelaspectratio>Square</pixelaspectratio>
									<anamorphic>FALSE</anamorphic>
									<alphatype>black</alphatype>
									<masterclipid>Raw Interview Matthew Duepner390</masterclipid>
									<logginginfo>
										<scene/>
										<shottake/>
										<lognote/>
										<good>FALSE</good>
									</logginginfo>
									<labels>
										<label2/>
									</labels>
									<comments>
										<mastercomment1/>
										<mastercomment2/>
										<mastercomment3/>
										<mastercomment4/>
									</comments>
									<file id="YIN_2013-05-28_LG-5 "/>
									<sourcetrack>
										<mediatype>video</mediatype>
									</sourcetrack>
									<link>
										<linkclipref>Raw Interview Matthew Duepner631</linkclipref>
										<mediatype>video</mediatype>
										<trackindex>1</trackindex>
										<clipindex>10</clipindex>
									</link>
									<link>
										<linkclipref>Raw Interview Matthew Duepner632</linkclipref>
										<mediatype>audio</mediatype>
										<trackindex>1</trackindex>
										<clipindex>11</clipindex>
										<groupindex>1</groupindex>
									</link>
									<link>
										<linkclipref>Raw Interview Matthew Duepner633</linkclipref>
										<mediatype>audio</mediatype>
										<trackindex>2</trackindex>
										<clipindex>11</clipindex>
										<groupindex>1</groupindex>
									</link>
									<fielddominance>none</fielddominance>
									<itemhistory>
										<uuid>E6D52350-1069-451F-9A36-B52F2BB560D8</uuid>
									</itemhistory>
								</clipitem>
								<clipitem id="Raw Interview Matthew Duepner634">
									<name>Raw Interview Matthew Duepner</name>
									<duration>81486</duration>
									<rate>
										<ntsc>TRUE</ntsc>
										<timebase>24</timebase>
									</rate>
									<in>14189</in>
									<out>14301</out>
									<start>2471</start>
									<end>2583</end>
									<pixelaspectratio>Square</pixelaspectratio>
									<anamorphic>FALSE</anamorphic>
									<alphatype>black</alphatype>
									<masterclipid>Raw Interview Matthew Duepner390</masterclipid>
									<logginginfo>
										<scene/>
										<shottake/>
										<lognote/>
										<good>FALSE</good>
									</logginginfo>
									<labels>
										<label2/>
									</labels>
									<comments>
										<mastercomment1/>
										<mastercomment2/>
										<mastercomment3/>
										<mastercomment4/>
									</comments>
									<file id="YIN_2013-05-28_LG-5 "/>
									<sourcetrack>
										<mediatype>video</mediatype>
									</sourcetrack>
									<link>
										<linkclipref>Raw Interview Matthew Duepner634</linkclipref>
										<mediatype>video</mediatype>
										<trackindex>1</trackindex>
										<clipindex>11</clipindex>
									</link>
									<link>
										<linkclipref>Raw Interview Matthew Duepner635</linkclipref>
										<mediatype>audio</mediatype>
										<trackindex>1</trackindex>
										<clipindex>13</clipindex>
										<groupindex>1</groupindex>
									</link>
									<link>
										<linkclipref>Raw Interview Matthew Duepner636</linkclipref>
										<mediatype>audio</mediatype>
										<trackindex>2</trackindex>
										<clipindex>13</clipindex>
										<groupindex>1</groupindex>
									</link>
									<fielddominance>none</fielddominance>
									<itemhistory>
										<uuid>A3524A33-8B71-48CE-8201-0684DAD0F870</uuid>
									</itemhistory>
								</clipitem>
								<clipitem id="Raw Interview Matthew Duepner637">
									<name>Raw Interview Matthew Duepner</name>
									<duration>81486</duration>
									<rate>
										<ntsc>TRUE</ntsc>
										<timebase>24</timebase>
									</rate>
									<in>25948</in>
									<out>26160</out>
									<start>2583</start>
									<end>2795</end>
									<pixelaspectratio>Square</pixelaspectratio>
									<anamorphic>FALSE</anamorphic>
									<alphatype>black</alphatype>
									<masterclipid>Raw Interview Matthew Duepner390</masterclipid>
									<logginginfo>
										<scene/>
										<shottake/>
										<lognote/>
										<good>FALSE</good>
									</logginginfo>
									<labels>
										<label2/>
									</labels>
									<comments>
										<mastercomment1/>
										<mastercomment2/>
										<mastercomment3/>
										<mastercomment4/>
									</comments>
									<file id="YIN_2013-05-28_LG-5 "/>
									<sourcetrack>
										<mediatype>video</mediatype>
									</sourcetrack>
									<link>
										<linkclipref>Raw Interview Matthew Duepner637</linkclipref>
										<mediatype>video</mediatype>
										<trackindex>1</trackindex>
										<clipindex>12</clipindex>
									</link>
									<link>
										<linkclipref>Raw Interview Matthew Duepner638</linkclipref>
										<mediatype>audio</mediatype>
										<trackindex>1</trackindex>
										<clipindex>14</clipindex>
										<groupindex>1</groupindex>
									</link>
									<link>
										<linkclipref>Raw Interview Matthew Duepner639</linkclipref>
										<mediatype>audio</mediatype>
										<trackindex>2</trackindex>
										<clipindex>14</clipindex>
										<groupindex>1</groupindex>
									</link>
									<fielddominance>none</fielddominance>
									<itemhistory>
										<uuid>3059D95D-8CD7-4BE1-A886-53C9CDB3E729</uuid>
									</itemhistory>
								</clipitem>
								<clipitem id="Raw Interview Matthew Duepner640">
									<name>Raw Interview Matthew Duepner</name>
									<duration>81486</duration>
									<rate>
										<ntsc>TRUE</ntsc>
										<timebase>24</timebase>
									</rate>
									<in>17964</in>
									<out>18186</out>
									<start>3893</start>
									<end>4115</end>
									<pixelaspectratio>Square</pixelaspectratio>
									<anamorphic>FALSE</anamorphic>
									<alphatype>black</alphatype>
									<masterclipid>Raw Interview Matthew Duepner390</masterclipid>
									<logginginfo>
										<scene/>
										<shottake/>
										<lognote/>
										<good>FALSE</good>
									</logginginfo>
									<labels>
										<label2/>
									</labels>
									<comments>
										<mastercomment1/>
										<mastercomment2/>
										<mastercomment3/>
										<mastercomment4/>
									</comments>
									<file id="YIN_2013-05-28_LG-5 "/>
									<sourcetrack>
										<mediatype>video</mediatype>
									</sourcetrack>
									<link>
										<linkclipref>Raw Interview Matthew Duepner640</linkclipref>
										<mediatype>video</mediatype>
										<trackindex>1</trackindex>
										<clipindex>13</clipindex>
									</link>
									<link>
										<linkclipref>Raw Interview Matthew Duepner641</linkclipref>
										<mediatype>audio</mediatype>
										<trackindex>1</trackindex>
										<clipindex>25</clipindex>
										<groupindex>1</groupindex>
									</link>
									<link>
										<linkclipref>Raw Interview Matthew Duepner642</linkclipref>
										<mediatype>audio</mediatype>
										<trackindex>2</trackindex>
										<clipindex>25</clipindex>
										<groupindex>1</groupindex>
									</link>
									<fielddominance>none</fielddominance>
									<itemhistory>
										<uuid>BAFCD4FA-7257-432E-82AB-02BCC66BFB6E</uuid>
									</itemhistory>
								</clipitem>
								<clipitem id="Raw Interview Matthew Duepner643">
									<name>Raw Interview Matthew Duepner</name>
									<duration>81486</duration>
									<rate>
										<ntsc>TRUE</ntsc>
										<timebase>24</timebase>
									</rate>
									<in>18235</in>
									<out>18405</out>
									<start>4115</start>
									<end>4285</end>
									<pixelaspectratio>Square</pixelaspectratio>
									<anamorphic>FALSE</anamorphic>
									<alphatype>black</alphatype>
									<masterclipid>Raw Interview Matthew Duepner390</masterclipid>
									<logginginfo>
										<scene/>
										<shottake/>
										<lognote/>
										<good>FALSE</good>
									</logginginfo>
									<labels>
										<label2/>
									</labels>
									<comments>
										<mastercomment1/>
										<mastercomment2/>
										<mastercomment3/>
										<mastercomment4/>
									</comments>
									<file id="YIN_2013-05-28_LG-5 "/>
									<sourcetrack>
										<mediatype>video</mediatype>
									</sourcetrack>
									<link>
										<linkclipref>Raw Interview Matthew Duepner643</linkclipref>
										<mediatype>video</mediatype>
										<trackindex>1</trackindex>
										<clipindex>14</clipindex>
									</link>
									<link>
										<linkclipref>Raw Interview Matthew Duepner644</linkclipref>
										<mediatype>audio</mediatype>
										<trackindex>1</trackindex>
										<clipindex>26</clipindex>
										<groupindex>1</groupindex>
									</link>
									<link>
										<linkclipref>Raw Interview Matthew Duepner645</linkclipref>
										<mediatype>audio</mediatype>
										<trackindex>2</trackindex>
										<clipindex>26</clipindex>
										<groupindex>1</groupindex>
									</link>
									<fielddominance>none</fielddominance>
									<itemhistory>
										<uuid>B88C70A0-F912-402E-BBE8-560C40525AB7</uuid>
									</itemhistory>
								</clipitem>
								<clipitem id="Raw Interview Matthew Duepner646">
									<name>Raw Interview Matthew Duepner</name>
									<duration>81486</duration>
									<rate>
										<ntsc>TRUE</ntsc>
										<timebase>24</timebase>
									</rate>
									<in>18444</in>
									<out>18613</out>
									<start>4285</start>
									<end>4454</end>
									<pixelaspectratio>Square</pixelaspectratio>
									<anamorphic>FALSE</anamorphic>
									<alphatype>black</alphatype>
									<masterclipid>Raw Interview Matthew Duepner390</masterclipid>
									<logginginfo>
										<scene/>
										<shottake/>
										<lognote/>
										<good>FALSE</good>
									</logginginfo>
									<labels>
										<label2/>
									</labels>
									<comments>
										<mastercomment1/>
										<mastercomment2/>
										<mastercomment3/>
										<mastercomment4/>
									</comments>
									<file id="YIN_2013-05-28_LG-5 "/>
									<sourcetrack>
										<mediatype>video</mediatype>
									</sourcetrack>
									<link>
										<linkclipref>Raw Interview Matthew Duepner646</linkclipref>
										<mediatype>video</mediatype>
										<trackindex>1</trackindex>
										<clipindex>15</clipindex>
									</link>
									<link>
										<linkclipref>Raw Interview Matthew Duepner647</linkclipref>
										<mediatype>audio</mediatype>
										<trackindex>1</trackindex>
										<clipindex>27</clipindex>
										<groupindex>1</groupindex>
									</link>
									<link>
										<linkclipref>Raw Interview Matthew Duepner648</linkclipref>
										<mediatype>audio</mediatype>
										<trackindex>2</trackindex>
										<clipindex>27</clipindex>
										<groupindex>1</groupindex>
									</link>
									<fielddominance>none</fielddominance>
									<itemhistory>
										<uuid>2BAF94C2-1C9A-4AF5-8BA0-225E149B01F9</uuid>
									</itemhistory>
								</clipitem>
								<clipitem id="Raw Interview Matthew Duepner649">
									<name>Raw Interview Matthew Duepner</name>
									<duration>81486</duration>
									<rate>
										<ntsc>TRUE</ntsc>
										<timebase>24</timebase>
									</rate>
									<in>18645</in>
									<out>18709</out>
									<start>4454</start>
									<end>4518</end>
									<pixelaspectratio>Square</pixelaspectratio>
									<anamorphic>FALSE</anamorphic>
									<alphatype>black</alphatype>
									<masterclipid>Raw Interview Matthew Duepner390</masterclipid>
									<logginginfo>
										<scene/>
										<shottake/>
										<lognote/>
										<good>FALSE</good>
									</logginginfo>
									<labels>
										<label2/>
									</labels>
									<comments>
										<mastercomment1/>
										<mastercomment2/>
										<mastercomment3/>
										<mastercomment4/>
									</comments>
									<file id="YIN_2013-05-28_LG-5 "/>
									<sourcetrack>
										<mediatype>video</mediatype>
									</sourcetrack>
									<link>
										<linkclipref>Raw Interview Matthew Duepner649</linkclipref>
										<mediatype>video</mediatype>
										<trackindex>1</trackindex>
										<clipindex>16</clipindex>
									</link>
									<link>
										<linkclipref>Raw Interview Matthew Duepner650</linkclipref>
										<mediatype>audio</mediatype>
										<trackindex>1</trackindex>
										<clipindex>28</clipindex>
										<groupindex>1</groupindex>
									</link>
									<link>
										<linkclipref>Raw Interview Matthew Duepner651</linkclipref>
										<mediatype>audio</mediatype>
										<trackindex>2</trackindex>
										<clipindex>28</clipindex>
										<groupindex>1</groupindex>
									</link>
									<fielddominance>none</fielddominance>
									<itemhistory>
										<uuid>A5EFE36E-BC3B-44CC-B2FD-1584FDC51D09</uuid>
									</itemhistory>
								</clipitem>
								<clipitem id="Raw Interview Matthew Duepner652">
									<name>Raw Interview Matthew Duepner</name>
									<duration>81486</duration>
									<rate>
										<ntsc>TRUE</ntsc>
										<timebase>24</timebase>
									</rate>
									<in>50956</in>
									<out>51015</out>
									<start>4518</start>
									<end>4577</end>
									<pixelaspectratio>Square</pixelaspectratio>
									<anamorphic>FALSE</anamorphic>
									<alphatype>black</alphatype>
									<masterclipid>Raw Interview Matthew Duepner390</masterclipid>
									<logginginfo>
										<scene/>
										<shottake/>
										<lognote/>
										<good>FALSE</good>
									</logginginfo>
									<labels>
										<label2/>
									</labels>
									<comments>
										<mastercomment1/>
										<mastercomment2/>
										<mastercomment3/>
										<mastercomment4/>
									</comments>
									<file id="YIN_2013-05-28_LG-5 "/>
									<sourcetrack>
										<mediatype>video</mediatype>
									</sourcetrack>
									<link>
										<linkclipref>Raw Interview Matthew Duepner652</linkclipref>
										<mediatype>video</mediatype>
										<trackindex>1</trackindex>
										<clipindex>17</clipindex>
									</link>
									<link>
										<linkclipref>Raw Interview Matthew Duepner653</linkclipref>
										<mediatype>audio</mediatype>
										<trackindex>1</trackindex>
										<clipindex>30</clipindex>
										<groupindex>1</groupindex>
									</link>
									<link>
										<linkclipref>Raw Interview Matthew Duepner654</linkclipref>
										<mediatype>audio</mediatype>
										<trackindex>2</trackindex>
										<clipindex>30</clipindex>
										<groupindex>1</groupindex>
									</link>
									<fielddominance>none</fielddominance>
									<itemhistory>
										<uuid>6CD6A41D-2355-42B9-96B7-B30614927AE1</uuid>
									</itemhistory>
								</clipitem>
								<clipitem id="Raw Interview Matthew Duepner655">
									<name>Raw Interview Matthew Duepner</name>
									<duration>81486</duration>
									<rate>
										<ntsc>TRUE</ntsc>
										<timebase>24</timebase>
									</rate>
									<in>18739</in>
									<out>19018</out>
									<start>4577</start>
									<end>4856</end>
									<pixelaspectratio>Square</pixelaspectratio>
									<anamorphic>FALSE</anamorphic>
									<alphatype>black</alphatype>
									<masterclipid>Raw Interview Matthew Duepner390</masterclipid>
									<logginginfo>
										<scene/>
										<shottake/>
										<lognote/>
										<good>FALSE</good>
									</logginginfo>
									<labels>
										<label2/>
									</labels>
									<comments>
										<mastercomment1/>
										<mastercomment2/>
										<mastercomment3/>
										<mastercomment4/>
									</comments>
									<file id="YIN_2013-05-28_LG-5 "/>
									<sourcetrack>
										<mediatype>video</mediatype>
									</sourcetrack>
									<link>
										<linkclipref>Raw Interview Matthew Duepner655</linkclipref>
										<mediatype>video</mediatype>
										<trackindex>1</trackindex>
										<clipindex>18</clipindex>
									</link>
									<link>
										<linkclipref>Raw Interview Matthew Duepner656</linkclipref>
										<mediatype>audio</mediatype>
										<trackindex>1</trackindex>
										<clipindex>32</clipindex>
										<groupindex>1</groupindex>
									</link>
									<link>
										<linkclipref>Raw Interview Matthew Duepner657</linkclipref>
										<mediatype>audio</mediatype>
										<trackindex>2</trackindex>
										<clipindex>32</clipindex>
										<groupindex>1</groupindex>
									</link>
									<fielddominance>none</fielddominance>
									<itemhistory>
										<uuid>01D3FD9C-E0E6-4BF3-8644-3B964D1FB02B</uuid>
									</itemhistory>
								</clipitem>
								<clipitem id="Raw Interview Matthew Duepner658">
									<name>Raw Interview Matthew Duepner</name>
									<duration>81486</duration>
									<rate>
										<ntsc>TRUE</ntsc>
										<timebase>24</timebase>
									</rate>
									<in>56083</in>
									<out>56203</out>
									<start>4898</start>
									<end>5018</end>
									<pixelaspectratio>Square</pixelaspectratio>
									<anamorphic>FALSE</anamorphic>
									<alphatype>black</alphatype>
									<masterclipid>Raw Interview Matthew Duepner390</masterclipid>
									<logginginfo>
										<scene/>
										<shottake/>
										<lognote/>
										<good>FALSE</good>
									</logginginfo>
									<labels>
										<label2/>
									</labels>
									<comments>
										<mastercomment1/>
										<mastercomment2/>
										<mastercomment3/>
										<mastercomment4/>
									</comments>
									<file id="YIN_2013-05-28_LG-5 "/>
									<sourcetrack>
										<mediatype>video</mediatype>
									</sourcetrack>
									<link>
										<linkclipref>Raw Interview Matthew Duepner658</linkclipref>
										<mediatype>video</mediatype>
										<trackindex>1</trackindex>
										<clipindex>19</clipindex>
									</link>
									<link>
										<linkclipref>Raw Interview Matthew Duepner659</linkclipref>
										<mediatype>audio</mediatype>
										<trackindex>1</trackindex>
										<clipindex>33</clipindex>
										<groupindex>1</groupindex>
									</link>
									<link>
										<linkclipref>Raw Interview Matthew Duepner660</linkclipref>
										<mediatype>audio</mediatype>
										<trackindex>2</trackindex>
										<clipindex>33</clipindex>
										<groupindex>1</groupindex>
									</link>
									<fielddominance>none</fielddominance>
									<itemhistory>
										<uuid>BE12077E-4CF4-41AB-B977-8DADCAFFE455</uuid>
									</itemhistory>
								</clipitem>
								<clipitem id="Raw Interview Matthew Duepner661">
									<name>Raw Interview Matthew Duepner</name>
									<duration>81486</duration>
									<rate>
										<ntsc>TRUE</ntsc>
										<timebase>24</timebase>
									</rate>
									<in>56334</in>
									<out>56423</out>
									<start>5018</start>
									<end>5107</end>
									<pixelaspectratio>Square</pixelaspectratio>
									<anamorphic>FALSE</anamorphic>
									<alphatype>black</alphatype>
									<masterclipid>Raw Interview Matthew Duepner390</masterclipid>
									<logginginfo>
										<scene/>
										<shottake/>
										<lognote/>
										<good>FALSE</good>
									</logginginfo>
									<labels>
										<label2/>
									</labels>
									<comments>
										<mastercomment1/>
										<mastercomment2/>
										<mastercomment3/>
										<mastercomment4/>
									</comments>
									<file id="YIN_2013-05-28_LG-5 "/>
									<sourcetrack>
										<mediatype>video</mediatype>
									</sourcetrack>
									<link>
										<linkclipref>Raw Interview Matthew Duepner661</linkclipref>
										<mediatype>video</mediatype>
										<trackindex>1</trackindex>
										<clipindex>20</clipindex>
									</link>
									<link>
										<linkclipref>Raw Interview Matthew Duepner662</linkclipref>
										<mediatype>audio</mediatype>
										<trackindex>1</trackindex>
										<clipindex>34</clipindex>
										<groupindex>1</groupindex>
									</link>
									<link>
										<linkclipref>Raw Interview Matthew Duepner663</linkclipref>
										<mediatype>audio</mediatype>
										<trackindex>2</trackindex>
										<clipindex>34</clipindex>
										<groupindex>1</groupindex>
									</link>
									<fielddominance>none</fielddominance>
									<itemhistory>
										<uuid>F57161AD-E7E2-4F76-B805-F9ECE2449B24</uuid>
									</itemhistory>
								</clipitem>
								<clipitem id="Raw Interview Matthew Duepner664">
									<name>Raw Interview Matthew Duepner</name>
									<duration>81486</duration>
									<rate>
										<ntsc>TRUE</ntsc>
										<timebase>24</timebase>
									</rate>
									<in>19126</in>
									<out>19267</out>
									<start>5375</start>
									<end>5516</end>
									<pixelaspectratio>Square</pixelaspectratio>
									<anamorphic>FALSE</anamorphic>
									<alphatype>black</alphatype>
									<masterclipid>Raw Interview Matthew Duepner390</masterclipid>
									<logginginfo>
										<scene/>
										<shottake/>
										<lognote/>
										<good>FALSE</good>
									</logginginfo>
									<labels>
										<label2/>
									</labels>
									<comments>
										<mastercomment1/>
										<mastercomment2/>
										<mastercomment3/>
										<mastercomment4/>
									</comments>
									<file id="YIN_2013-05-28_LG-5 "/>
									<sourcetrack>
										<mediatype>video</mediatype>
									</sourcetrack>
									<link>
										<linkclipref>Raw Interview Matthew Duepner664</linkclipref>
										<mediatype>video</mediatype>
										<trackindex>1</trackindex>
										<clipindex>21</clipindex>
									</link>
									<link>
										<linkclipref>Raw Interview Matthew Duepner665</linkclipref>
										<mediatype>audio</mediatype>
										<trackindex>1</trackindex>
										<clipindex>35</clipindex>
										<groupindex>1</groupindex>
									</link>
									<link>
										<linkclipref>Raw Interview Matthew Duepner666</linkclipref>
										<mediatype>audio</mediatype>
										<trackindex>2</trackindex>
										<clipindex>35</clipindex>
										<groupindex>1</groupindex>
									</link>
									<fielddominance>none</fielddominance>
									<itemhistory>
										<uuid>4DC7DF82-A5D0-4F14-9A4A-6618CBA99BE7</uuid>
									</itemhistory>
								</clipitem>
								<clipitem id="Raw Interview Matthew Duepner667">
									<name>Raw Interview Matthew Duepner</name>
									<duration>81486</duration>
									<rate>
										<ntsc>TRUE</ntsc>
										<timebase>24</timebase>
									</rate>
									<in>57619</in>
									<out>57904</out>
									<start>5516</start>
									<end>5801</end>
									<pixelaspectratio>Square</pixelaspectratio>
									<anamorphic>FALSE</anamorphic>
									<alphatype>black</alphatype>
									<masterclipid>Raw Interview Matthew Duepner390</masterclipid>
									<logginginfo>
										<scene/>
										<shottake/>
										<lognote/>
										<good>FALSE</good>
									</logginginfo>
									<labels>
										<label2/>
									</labels>
									<comments>
										<mastercomment1/>
										<mastercomment2/>
										<mastercomment3/>
										<mastercomment4/>
									</comments>
									<file id="YIN_2013-05-28_LG-5 "/>
									<sourcetrack>
										<mediatype>video</mediatype>
									</sourcetrack>
									<link>
										<linkclipref>Raw Interview Matthew Duepner667</linkclipref>
										<mediatype>video</mediatype>
										<trackindex>1</trackindex>
										<clipindex>22</clipindex>
									</link>
									<link>
										<linkclipref>Raw Interview Matthew Duepner668</linkclipref>
										<mediatype>audio</mediatype>
										<trackindex>1</trackindex>
										<clipindex>36</clipindex>
										<groupindex>1</groupindex>
									</link>
									<link>
										<linkclipref>Raw Interview Matthew Duepner669</linkclipref>
										<mediatype>audio</mediatype>
										<trackindex>2</trackindex>
										<clipindex>36</clipindex>
										<groupindex>1</groupindex>
									</link>
									<fielddominance>none</fielddominance>
									<itemhistory>
										<uuid>CD183EA7-7435-4C2F-AABD-23E91C7E0C53</uuid>
									</itemhistory>
								</clipitem>
								<clipitem id="Raw Interview Matthew Duepner670">
									<name>Raw Interview Matthew Duepner</name>
									<duration>81486</duration>
									<rate>
										<ntsc>TRUE</ntsc>
										<timebase>24</timebase>
									</rate>
									<in>51376</in>
									<out>51520</out>
									<start>6008</start>
									<end>6152</end>
									<pixelaspectratio>Square</pixelaspectratio>
									<anamorphic>FALSE</anamorphic>
									<alphatype>black</alphatype>
									<masterclipid>Raw Interview Matthew Duepner390</masterclipid>
									<logginginfo>
										<scene/>
										<shottake/>
										<lognote/>
										<good>FALSE</good>
									</logginginfo>
									<labels>
										<label2/>
									</labels>
									<comments>
										<mastercomment1/>
										<mastercomment2/>
										<mastercomment3/>
										<mastercomment4/>
									</comments>
									<file id="YIN_2013-05-28_LG-5 "/>
									<sourcetrack>
										<mediatype>video</mediatype>
									</sourcetrack>
									<link>
										<linkclipref>Raw Interview Matthew Duepner670</linkclipref>
										<mediatype>video</mediatype>
										<trackindex>1</trackindex>
										<clipindex>23</clipindex>
									</link>
									<link>
										<linkclipref>Raw Interview Matthew Duepner671</linkclipref>
										<mediatype>audio</mediatype>
										<trackindex>1</trackindex>
										<clipindex>37</clipindex>
										<groupindex>1</groupindex>
									</link>
									<link>
										<linkclipref>Raw Interview Matthew Duepner672</linkclipref>
										<mediatype>audio</mediatype>
										<trackindex>2</trackindex>
										<clipindex>37</clipindex>
										<groupindex>1</groupindex>
									</link>
									<fielddominance>none</fielddominance>
									<itemhistory>
										<uuid>BFB69F8C-FB5A-49CF-8F59-18FEE4B89D70</uuid>
									</itemhistory>
								</clipitem>
								<clipitem id="Raw Interview Matthew Duepner673">
									<name>Raw Interview Matthew Duepner</name>
									<duration>81486</duration>
									<rate>
										<ntsc>TRUE</ntsc>
										<timebase>24</timebase>
									</rate>
									<in>24734</in>
									<out>25029</out>
									<start>6423</start>
									<end>6718</end>
									<pixelaspectratio>Square</pixelaspectratio>
									<anamorphic>FALSE</anamorphic>
									<alphatype>black</alphatype>
									<masterclipid>Raw Interview Matthew Duepner390</masterclipid>
									<logginginfo>
										<scene/>
										<shottake/>
										<lognote/>
										<good>FALSE</good>
									</logginginfo>
									<labels>
										<label2/>
									</labels>
									<comments>
										<mastercomment1/>
										<mastercomment2/>
										<mastercomment3/>
										<mastercomment4/>
									</comments>
									<file id="YIN_2013-05-28_LG-5 "/>
									<sourcetrack>
										<mediatype>video</mediatype>
									</sourcetrack>
									<link>
										<linkclipref>Raw Interview Matthew Duepner673</linkclipref>
										<mediatype>video</mediatype>
										<trackindex>1</trackindex>
										<clipindex>24</clipindex>
									</link>
									<link>
										<linkclipref>Raw Interview Matthew Duepner674</linkclipref>
										<mediatype>audio</mediatype>
										<trackindex>1</trackindex>
										<clipindex>38</clipindex>
										<groupindex>1</groupindex>
									</link>
									<link>
										<linkclipref>Raw Interview Matthew Duepner675</linkclipref>
										<mediatype>audio</mediatype>
										<trackindex>2</trackindex>
										<clipindex>38</clipindex>
										<groupindex>1</groupindex>
									</link>
									<fielddominance>none</fielddominance>
									<itemhistory>
										<uuid>F8E4E4F5-426D-4DDB-8A20-646BE19AE516</uuid>
									</itemhistory>
								</clipitem>
								<clipitem id="Raw Interview Matthew Duepner676">
									<name>Raw Interview Matthew Duepner</name>
									<duration>81486</duration>
									<rate>
										<ntsc>TRUE</ntsc>
										<timebase>24</timebase>
									</rate>
									<in>21014</in>
									<out>21125</out>
									<start>6914</start>
									<end>7025</end>
									<pixelaspectratio>Square</pixelaspectratio>
									<anamorphic>FALSE</anamorphic>
									<alphatype>black</alphatype>
									<masterclipid>Raw Interview Matthew Duepner390</masterclipid>
									<logginginfo>
										<scene/>
										<shottake/>
										<lognote/>
										<good>FALSE</good>
									</logginginfo>
									<labels>
										<label2/>
									</labels>
									<comments>
										<mastercomment1/>
										<mastercomment2/>
										<mastercomment3/>
										<mastercomment4/>
									</comments>
									<file id="YIN_2013-05-28_LG-5 "/>
									<sourcetrack>
										<mediatype>video</mediatype>
									</sourcetrack>
									<link>
										<linkclipref>Raw Interview Matthew Duepner676</linkclipref>
										<mediatype>video</mediatype>
										<trackindex>1</trackindex>
										<clipindex>25</clipindex>
									</link>
									<link>
										<linkclipref>Raw Interview Matthew Duepner677</linkclipref>
										<mediatype>audio</mediatype>
										<trackindex>1</trackindex>
										<clipindex>39</clipindex>
										<groupindex>1</groupindex>
									</link>
									<link>
										<linkclipref>Raw Interview Matthew Duepner678</linkclipref>
										<mediatype>audio</mediatype>
										<trackindex>2</trackindex>
										<clipindex>39</clipindex>
										<groupindex>1</groupindex>
									</link>
									<fielddominance>none</fielddominance>
									<itemhistory>
										<uuid>E10A982A-EB16-4556-A96A-F95A7688216C</uuid>
									</itemhistory>
								</clipitem>
								<clipitem id="Raw Interview Matthew Duepner679">
									<name>Raw Interview Matthew Duepner</name>
									<duration>81486</duration>
									<rate>
										<ntsc>TRUE</ntsc>
										<timebase>24</timebase>
									</rate>
									<in>11151</in>
									<out>11298</out>
									<start>7025</start>
									<end>7172</end>
									<pixelaspectratio>Square</pixelaspectratio>
									<anamorphic>FALSE</anamorphic>
									<alphatype>black</alphatype>
									<masterclipid>Raw Interview Matthew Duepner390</masterclipid>
									<logginginfo>
										<scene/>
										<shottake/>
										<lognote/>
										<good>FALSE</good>
									</logginginfo>
									<labels>
										<label2/>
									</labels>
									<comments>
										<mastercomment1/>
										<mastercomment2/>
										<mastercomment3/>
										<mastercomment4/>
									</comments>
									<file id="YIN_2013-05-28_LG-5 "/>
									<sourcetrack>
										<mediatype>video</mediatype>
									</sourcetrack>
									<link>
										<linkclipref>Raw Interview Matthew Duepner679</linkclipref>
										<mediatype>video</mediatype>
										<trackindex>1</trackindex>
										<clipindex>26</clipindex>
									</link>
									<link>
										<linkclipref>Raw Interview Matthew Duepner680</linkclipref>
										<mediatype>audio</mediatype>
										<trackindex>1</trackindex>
										<clipindex>40</clipindex>
										<groupindex>1</groupindex>
									</link>
									<link>
										<linkclipref>Raw Interview Matthew Duepner681</linkclipref>
										<mediatype>audio</mediatype>
										<trackindex>2</trackindex>
										<clipindex>40</clipindex>
										<groupindex>1</groupindex>
									</link>
									<fielddominance>none</fielddominance>
									<itemhistory>
										<uuid>29AA3ED6-37CB-442E-BC96-D73CE6343995</uuid>
									</itemhistory>
								</clipitem>
								<clipitem id="Raw Interview Matthew Duepner682">
									<name>Raw Interview Matthew Duepner</name>
									<duration>81486</duration>
									<rate>
										<ntsc>TRUE</ntsc>
										<timebase>24</timebase>
									</rate>
									<in>20307</in>
									<out>20438</out>
									<start>7172</start>
									<end>7303</end>
									<pixelaspectratio>Square</pixelaspectratio>
									<anamorphic>FALSE</anamorphic>
									<alphatype>black</alphatype>
									<masterclipid>Raw Interview Matthew Duepner390</masterclipid>
									<logginginfo>
										<scene/>
										<shottake/>
										<lognote/>
										<good>FALSE</good>
									</logginginfo>
									<labels>
										<label2/>
									</labels>
									<comments>
										<mastercomment1/>
										<mastercomment2/>
										<mastercomment3/>
										<mastercomment4/>
									</comments>
									<file id="YIN_2013-05-28_LG-5 "/>
									<sourcetrack>
										<mediatype>video</mediatype>
									</sourcetrack>
									<link>
										<linkclipref>Raw Interview Matthew Duepner682</linkclipref>
										<mediatype>video</mediatype>
										<trackindex>1</trackindex>
										<clipindex>27</clipindex>
									</link>
									<link>
										<linkclipref>Raw Interview Matthew Duepner683</linkclipref>
										<mediatype>audio</mediatype>
										<trackindex>1</trackindex>
										<clipindex>41</clipindex>
										<groupindex>1</groupindex>
									</link>
									<link>
										<linkclipref>Raw Interview Matthew Duepner684</linkclipref>
										<mediatype>audio</mediatype>
										<trackindex>2</trackindex>
										<clipindex>41</clipindex>
										<groupindex>1</groupindex>
									</link>
									<fielddominance>none</fielddominance>
									<itemhistory>
										<uuid>1F44E4EB-1C6E-4CE5-9F6F-15A4476549B8</uuid>
									</itemhistory>
								</clipitem>
								<clipitem id="Raw Interview Matthew Duepner685">
									<name>Raw Interview Matthew Duepner</name>
									<duration>81486</duration>
									<rate>
										<ntsc>TRUE</ntsc>
										<timebase>24</timebase>
									</rate>
									<in>20463</in>
									<out>20554</out>
									<start>7303</start>
									<end>7394</end>
									<pixelaspectratio>Square</pixelaspectratio>
									<anamorphic>FALSE</anamorphic>
									<alphatype>black</alphatype>
									<masterclipid>Raw Interview Matthew Duepner390</masterclipid>
									<logginginfo>
										<scene/>
										<shottake/>
										<lognote/>
										<good>FALSE</good>
									</logginginfo>
									<labels>
										<label2/>
									</labels>
									<comments>
										<mastercomment1/>
										<mastercomment2/>
										<mastercomment3/>
										<mastercomment4/>
									</comments>
									<file id="YIN_2013-05-28_LG-5 "/>
									<sourcetrack>
										<mediatype>video</mediatype>
									</sourcetrack>
									<link>
										<linkclipref>Raw Interview Matthew Duepner685</linkclipref>
										<mediatype>video</mediatype>
										<trackindex>1</trackindex>
										<clipindex>28</clipindex>
									</link>
									<link>
										<linkclipref>Raw Interview Matthew Duepner686</linkclipref>
										<mediatype>audio</mediatype>
										<trackindex>1</trackindex>
										<clipindex>42</clipindex>
										<groupindex>1</groupindex>
									</link>
									<link>
										<linkclipref>Raw Interview Matthew Duepner687</linkclipref>
										<mediatype>audio</mediatype>
										<trackindex>2</trackindex>
										<clipindex>42</clipindex>
										<groupindex>1</groupindex>
									</link>
									<fielddominance>none</fielddominance>
									<itemhistory>
										<uuid>139ADA68-66C8-434E-86DA-C48274FE00BF</uuid>
									</itemhistory>
								</clipitem>
								<clipitem id="Raw Interview Matthew Duepner688">
									<name>Raw Interview Matthew Duepner</name>
									<duration>81486</duration>
									<rate>
										<ntsc>TRUE</ntsc>
										<timebase>24</timebase>
									</rate>
									<in>20982</in>
									<out>21013</out>
									<start>7394</start>
									<end>7425</end>
									<pixelaspectratio>Square</pixelaspectratio>
									<anamorphic>FALSE</anamorphic>
									<alphatype>black</alphatype>
									<masterclipid>Raw Interview Matthew Duepner390</masterclipid>
									<logginginfo>
										<scene/>
										<shottake/>
										<lognote/>
										<good>FALSE</good>
									</logginginfo>
									<labels>
										<label2/>
									</labels>
									<comments>
										<mastercomment1/>
										<mastercomment2/>
										<mastercomment3/>
										<mastercomment4/>
									</comments>
									<file id="YIN_2013-05-28_LG-5 "/>
									<sourcetrack>
										<mediatype>video</mediatype>
									</sourcetrack>
									<link>
										<linkclipref>Raw Interview Matthew Duepner688</linkclipref>
										<mediatype>video</mediatype>
										<trackindex>1</trackindex>
										<clipindex>29</clipindex>
									</link>
									<link>
										<linkclipref>Raw Interview Matthew Duepner689</linkclipref>
										<mediatype>audio</mediatype>
										<trackindex>1</trackindex>
										<clipindex>43</clipindex>
										<groupindex>1</groupindex>
									</link>
									<link>
										<linkclipref>Raw Interview Matthew Duepner690</linkclipref>
										<mediatype>audio</mediatype>
										<trackindex>2</trackindex>
										<clipindex>43</clipindex>
										<groupindex>1</groupindex>
									</link>
									<fielddominance>none</fielddominance>
									<itemhistory>
										<uuid>EBA78E55-3708-40FF-8F3C-1D408B146140</uuid>
									</itemhistory>
								</clipitem>
								<clipitem id="Raw Interview Matthew Duepner691">
									<name>Raw Interview Matthew Duepner</name>
									<duration>81486</duration>
									<rate>
										<ntsc>TRUE</ntsc>
										<timebase>24</timebase>
									</rate>
									<in>21714</in>
									<out>21826</out>
									<start>7425</start>
									<end>7537</end>
									<pixelaspectratio>Square</pixelaspectratio>
									<anamorphic>FALSE</anamorphic>
									<alphatype>black</alphatype>
									<masterclipid>Raw Interview Matthew Duepner390</masterclipid>
									<logginginfo>
										<scene/>
										<shottake/>
										<lognote/>
										<good>FALSE</good>
									</logginginfo>
									<labels>
										<label2/>
									</labels>
									<comments>
										<mastercomment1/>
										<mastercomment2/>
										<mastercomment3/>
										<mastercomment4/>
									</comments>
									<file id="YIN_2013-05-28_LG-5 "/>
									<sourcetrack>
										<mediatype>video</mediatype>
									</sourcetrack>
									<link>
										<linkclipref>Raw Interview Matthew Duepner691</linkclipref>
										<mediatype>video</mediatype>
										<trackindex>1</trackindex>
										<clipindex>30</clipindex>
									</link>
									<link>
										<linkclipref>Raw Interview Matthew Duepner692</linkclipref>
										<mediatype>audio</mediatype>
										<trackindex>1</trackindex>
										<clipindex>44</clipindex>
										<groupindex>1</groupindex>
									</link>
									<link>
										<linkclipref>Raw Interview Matthew Duepner693</linkclipref>
										<mediatype>audio</mediatype>
										<trackindex>2</trackindex>
										<clipindex>44</clipindex>
										<groupindex>1</groupindex>
									</link>
									<fielddominance>none</fielddominance>
									<itemhistory>
										<uuid>2EEA7131-0D6E-44F0-AFDF-9C7B2A21D01E</uuid>
									</itemhistory>
								</clipitem>
								<clipitem id="Raw Interview Matthew Duepner694">
									<name>Raw Interview Matthew Duepner</name>
									<duration>81486</duration>
									<rate>
										<ntsc>TRUE</ntsc>
										<timebase>24</timebase>
									</rate>
									<in>22249</in>
									<out>22353</out>
									<start>7537</start>
									<end>7641</end>
									<pixelaspectratio>Square</pixelaspectratio>
									<anamorphic>FALSE</anamorphic>
									<alphatype>black</alphatype>
									<masterclipid>Raw Interview Matthew Duepner390</masterclipid>
									<logginginfo>
										<scene/>
										<shottake/>
										<lognote/>
										<good>FALSE</good>
									</logginginfo>
									<labels>
										<label2/>
									</labels>
									<comments>
										<mastercomment1/>
										<mastercomment2/>
										<mastercomment3/>
										<mastercomment4/>
									</comments>
									<file id="YIN_2013-05-28_LG-5 "/>
									<sourcetrack>
										<mediatype>video</mediatype>
									</sourcetrack>
									<link>
										<linkclipref>Raw Interview Matthew Duepner694</linkclipref>
										<mediatype>video</mediatype>
										<trackindex>1</trackindex>
										<clipindex>31</clipindex>
									</link>
									<link>
										<linkclipref>Raw Interview Matthew Duepner695</linkclipref>
										<mediatype>audio</mediatype>
										<trackindex>1</trackindex>
										<clipindex>45</clipindex>
										<groupindex>1</groupindex>
									</link>
									<link>
										<linkclipref>Raw Interview Matthew Duepner696</linkclipref>
										<mediatype>audio</mediatype>
										<trackindex>2</trackindex>
										<clipindex>45</clipindex>
										<groupindex>1</groupindex>
									</link>
									<fielddominance>none</fielddominance>
									<itemhistory>
										<uuid>67725321-32BC-455D-9816-58ECE370AD58</uuid>
									</itemhistory>
								</clipitem>
								<clipitem id="Raw Interview Matthew Duepner697">
									<name>Raw Interview Matthew Duepner</name>
									<duration>81486</duration>
									<rate>
										<ntsc>TRUE</ntsc>
										<timebase>24</timebase>
									</rate>
									<in>22861</in>
									<out>23027</out>
									<start>7642</start>
									<end>7808</end>
									<pixelaspectratio>Square</pixelaspectratio>
									<anamorphic>FALSE</anamorphic>
									<alphatype>black</alphatype>
									<masterclipid>Raw Interview Matthew Duepner390</masterclipid>
									<logginginfo>
										<scene/>
										<shottake/>
										<lognote/>
										<good>FALSE</good>
									</logginginfo>
									<labels>
										<label2/>
									</labels>
									<comments>
										<mastercomment1/>
										<mastercomment2/>
										<mastercomment3/>
										<mastercomment4/>
									</comments>
									<file id="YIN_2013-05-28_LG-5 "/>
									<sourcetrack>
										<mediatype>video</mediatype>
									</sourcetrack>
									<link>
										<linkclipref>Raw Interview Matthew Duepner697</linkclipref>
										<mediatype>video</mediatype>
										<trackindex>1</trackindex>
										<clipindex>32</clipindex>
									</link>
									<link>
										<linkclipref>Raw Interview Matthew Duepner698</linkclipref>
										<mediatype>audio</mediatype>
										<trackindex>1</trackindex>
										<clipindex>46</clipindex>
										<groupindex>1</groupindex>
									</link>
									<link>
										<linkclipref>Raw Interview Matthew Duepner699</linkclipref>
										<mediatype>audio</mediatype>
										<trackindex>2</trackindex>
										<clipindex>46</clipindex>
										<groupindex>1</groupindex>
									</link>
									<fielddominance>none</fielddominance>
									<itemhistory>
										<uuid>B4D60FFA-C1BF-4D06-B977-8333A6AB227E</uuid>
									</itemhistory>
								</clipitem>
								<clipitem id="Raw Interview Matthew Duepner700">
									<name>Raw Interview Matthew Duepner</name>
									<duration>81486</duration>
									<rate>
										<ntsc>TRUE</ntsc>
										<timebase>24</timebase>
									</rate>
									<in>24285</in>
									<out>24371</out>
									<start>7810</start>
									<end>7896</end>
									<pixelaspectratio>Square</pixelaspectratio>
									<anamorphic>FALSE</anamorphic>
									<alphatype>black</alphatype>
									<masterclipid>Raw Interview Matthew Duepner390</masterclipid>
									<logginginfo>
										<scene/>
										<shottake/>
										<lognote/>
										<good>FALSE</good>
									</logginginfo>
									<labels>
										<label2/>
									</labels>
									<comments>
										<mastercomment1/>
										<mastercomment2/>
										<mastercomment3/>
										<mastercomment4/>
									</comments>
									<file id="YIN_2013-05-28_LG-5 "/>
									<sourcetrack>
										<mediatype>video</mediatype>
									</sourcetrack>
									<link>
										<linkclipref>Raw Interview Matthew Duepner700</linkclipref>
										<mediatype>video</mediatype>
										<trackindex>1</trackindex>
										<clipindex>33</clipindex>
									</link>
									<link>
										<linkclipref>Raw Interview Matthew Duepner701</linkclipref>
										<mediatype>audio</mediatype>
										<trackindex>1</trackindex>
										<clipindex>47</clipindex>
										<groupindex>1</groupindex>
									</link>
									<link>
										<linkclipref>Raw Interview Matthew Duepner702</linkclipref>
										<mediatype>audio</mediatype>
										<trackindex>2</trackindex>
										<clipindex>47</clipindex>
										<groupindex>1</groupindex>
									</link>
									<fielddominance>none</fielddominance>
									<itemhistory>
										<uuid>303C5BC6-7C46-4312-86BE-37AFDCF4C4F1</uuid>
									</itemhistory>
								</clipitem>
								<clipitem id="Raw Interview Matthew Duepner703">
									<name>Raw Interview Matthew Duepner</name>
									<duration>81486</duration>
									<rate>
										<ntsc>TRUE</ntsc>
										<timebase>24</timebase>
									</rate>
									<in>23041</in>
									<out>23131</out>
									<start>7896</start>
									<end>7986</end>
									<pixelaspectratio>Square</pixelaspectratio>
									<anamorphic>FALSE</anamorphic>
									<alphatype>black</alphatype>
									<masterclipid>Raw Interview Matthew Duepner390</masterclipid>
									<logginginfo>
										<scene/>
										<shottake/>
										<lognote/>
										<good>FALSE</good>
									</logginginfo>
									<labels>
										<label2/>
									</labels>
									<comments>
										<mastercomment1/>
										<mastercomment2/>
										<mastercomment3/>
										<mastercomment4/>
									</comments>
									<file id="YIN_2013-05-28_LG-5 "/>
									<sourcetrack>
										<mediatype>video</mediatype>
									</sourcetrack>
									<link>
										<linkclipref>Raw Interview Matthew Duepner703</linkclipref>
										<mediatype>video</mediatype>
										<trackindex>1</trackindex>
										<clipindex>34</clipindex>
									</link>
									<link>
										<linkclipref>Raw Interview Matthew Duepner704</linkclipref>
										<mediatype>audio</mediatype>
										<trackindex>1</trackindex>
										<clipindex>48</clipindex>
										<groupindex>1</groupindex>
									</link>
									<link>
										<linkclipref>Raw Interview Matthew Duepner705</linkclipref>
										<mediatype>audio</mediatype>
										<trackindex>2</trackindex>
										<clipindex>48</clipindex>
										<groupindex>1</groupindex>
									</link>
									<fielddominance>none</fielddominance>
									<itemhistory>
										<uuid>D24B54C9-5A6A-4BC9-8622-9D960A85FAE0</uuid>
									</itemhistory>
								</clipitem>
								<clipitem id="Raw Interview Matthew Duepner706">
									<name>Raw Interview Matthew Duepner</name>
									<duration>81486</duration>
									<rate>
										<ntsc>TRUE</ntsc>
										<timebase>24</timebase>
									</rate>
									<in>24371</in>
									<out>24449</out>
									<start>7986</start>
									<end>8064</end>
									<pixelaspectratio>Square</pixelaspectratio>
									<anamorphic>FALSE</anamorphic>
									<alphatype>black</alphatype>
									<masterclipid>Raw Interview Matthew Duepner390</masterclipid>
									<logginginfo>
										<scene/>
										<shottake/>
										<lognote/>
										<good>FALSE</good>
									</logginginfo>
									<labels>
										<label2/>
									</labels>
									<comments>
										<mastercomment1/>
										<mastercomment2/>
										<mastercomment3/>
										<mastercomment4/>
									</comments>
									<file id="YIN_2013-05-28_LG-5 "/>
									<sourcetrack>
										<mediatype>video</mediatype>
									</sourcetrack>
									<link>
										<linkclipref>Raw Interview Matthew Duepner706</linkclipref>
										<mediatype>video</mediatype>
										<trackindex>1</trackindex>
										<clipindex>35</clipindex>
									</link>
									<link>
										<linkclipref>Raw Interview Matthew Duepner707</linkclipref>
										<mediatype>audio</mediatype>
										<trackindex>1</trackindex>
										<clipindex>49</clipindex>
										<groupindex>1</groupindex>
									</link>
									<link>
										<linkclipref>Raw Interview Matthew Duepner708</linkclipref>
										<mediatype>audio</mediatype>
										<trackindex>2</trackindex>
										<clipindex>49</clipindex>
										<groupindex>1</groupindex>
									</link>
									<fielddominance>none</fielddominance>
									<itemhistory>
										<uuid>D3E5EE09-7D9E-4814-9FDE-68119E857A78</uuid>
									</itemhistory>
								</clipitem>
								<clipitem id="Raw Interview Matthew Duepner709">
									<name>Raw Interview Matthew Duepner</name>
									<duration>81486</duration>
									<rate>
										<ntsc>TRUE</ntsc>
										<timebase>24</timebase>
									</rate>
									<in>24455</in>
									<out>24488</out>
									<start>8064</start>
									<end>8097</end>
									<pixelaspectratio>Square</pixelaspectratio>
									<anamorphic>FALSE</anamorphic>
									<alphatype>black</alphatype>
									<masterclipid>Raw Interview Matthew Duepner390</masterclipid>
									<logginginfo>
										<scene/>
										<shottake/>
										<lognote/>
										<good>FALSE</good>
									</logginginfo>
									<labels>
										<label2/>
									</labels>
									<comments>
										<mastercomment1/>
										<mastercomment2/>
										<mastercomment3/>
										<mastercomment4/>
									</comments>
									<file id="YIN_2013-05-28_LG-5 "/>
									<sourcetrack>
										<mediatype>video</mediatype>
									</sourcetrack>
									<link>
										<linkclipref>Raw Interview Matthew Duepner709</linkclipref>
										<mediatype>video</mediatype>
										<trackindex>1</trackindex>
										<clipindex>36</clipindex>
									</link>
									<link>
										<linkclipref>Raw Interview Matthew Duepner710</linkclipref>
										<mediatype>audio</mediatype>
										<trackindex>1</trackindex>
										<clipindex>50</clipindex>
										<groupindex>1</groupindex>
									</link>
									<link>
										<linkclipref>Raw Interview Matthew Duepner711</linkclipref>
										<mediatype>audio</mediatype>
										<trackindex>2</trackindex>
										<clipindex>50</clipindex>
										<groupindex>1</groupindex>
									</link>
									<fielddominance>none</fielddominance>
									<itemhistory>
										<uuid>AA7E896A-79D0-4065-AAB5-6FAFB54B091E</uuid>
									</itemhistory>
								</clipitem>
								<enabled>TRUE</enabled>
								<locked>FALSE</locked>
							</track>
							<track>
								<clipitem id="Raw B Roll Hack Manhattan Matthew Duepner's House110">
									<name>Raw B Roll Hack Manhattan Matthew Duepner's House</name>
									<duration>6617</duration>
									<rate>
										<ntsc>TRUE</ntsc>
										<timebase>24</timebase>
									</rate>
									<in>5680</in>
									<out>5776</out>
									<start>0</start>
									<end>96</end>
									<pixelaspectratio>Square</pixelaspectratio>
									<anamorphic>FALSE</anamorphic>
									<alphatype>black</alphatype>
									<masterclipid>Raw B Roll Hack Manhattan Matthew Duepner's House1</masterclipid>
									<logginginfo>
										<scene/>
										<shottake/>
										<lognote/>
										<good>FALSE</good>
									</logginginfo>
									<labels>
										<label2/>
									</labels>
									<comments>
										<mastercomment1/>
										<mastercomment2/>
										<mastercomment3/>
										<mastercomment4/>
									</comments>
									<file id="YIN_2013-04-28_JB-1 "/>
									<sourcetrack>
										<mediatype>video</mediatype>
									</sourcetrack>
									<link>
										<linkclipref>Raw B Roll Hack Manhattan Matthew Duepner's House110</linkclipref>
										<mediatype>video</mediatype>
										<trackindex>2</trackindex>
										<clipindex>1</clipindex>
									</link>
									<link>
										<linkclipref>Raw B Roll Hack Manhattan Matthew Duepner's House111</linkclipref>
										<mediatype>audio</mediatype>
										<trackindex>5</trackindex>
										<clipindex>2</clipindex>
										<groupindex>1</groupindex>
									</link>
									<link>
										<linkclipref>Raw B Roll Hack Manhattan Matthew Duepner's House112</linkclipref>
										<mediatype>audio</mediatype>
										<trackindex>6</trackindex>
										<clipindex>2</clipindex>
										<groupindex>1</groupindex>
									</link>
									<fielddominance>none</fielddominance>
									<itemhistory>
										<uuid>42E5D936-D5A1-4DD6-837B-61BF81F1A708</uuid>
									</itemhistory>
								</clipitem>
								<clipitem id="Raw B Roll Hack Manhattan Matthew Duepner's House113">
									<name>Raw B Roll Hack Manhattan Matthew Duepner's House</name>
									<duration>6617</duration>
									<rate>
										<ntsc>TRUE</ntsc>
										<timebase>24</timebase>
									</rate>
									<in>6344</in>
									<out>6443</out>
									<start>96</start>
									<end>195</end>
									<pixelaspectratio>Square</pixelaspectratio>
									<anamorphic>FALSE</anamorphic>
									<alphatype>black</alphatype>
									<masterclipid>Raw B Roll Hack Manhattan Matthew Duepner's House1</masterclipid>
									<logginginfo>
										<scene/>
										<shottake/>
										<lognote/>
										<good>FALSE</good>
									</logginginfo>
									<labels>
										<label2/>
									</labels>
									<comments>
										<mastercomment1/>
										<mastercomment2/>
										<mastercomment3/>
										<mastercomment4/>
									</comments>
									<file id="YIN_2013-04-28_JB-1 "/>
									<sourcetrack>
										<mediatype>video</mediatype>
									</sourcetrack>
									<fielddominance>none</fielddominance>
									<itemhistory>
										<uuid>71DD6A13-BEAE-4B92-91B1-07A5FCC68999</uuid>
									</itemhistory>
								</clipitem>
								<clipitem id="Raw B Roll Hack Manhattan Matthew Duepner's House114">
									<name>Raw B Roll Hack Manhattan Matthew Duepner's House</name>
									<duration>6617</duration>
									<rate>
										<ntsc>TRUE</ntsc>
										<timebase>24</timebase>
									</rate>
									<in>6530</in>
									<out>6600</out>
									<start>195</start>
									<end>265</end>
									<pixelaspectratio>Square</pixelaspectratio>
									<anamorphic>FALSE</anamorphic>
									<alphatype>black</alphatype>
									<masterclipid>Raw B Roll Hack Manhattan Matthew Duepner's House1</masterclipid>
									<logginginfo>
										<scene/>
										<shottake/>
										<lognote/>
										<good>FALSE</good>
									</logginginfo>
									<labels>
										<label2/>
									</labels>
									<comments>
										<mastercomment1/>
										<mastercomment2/>
										<mastercomment3/>
										<mastercomment4/>
									</comments>
									<file id="YIN_2013-04-28_JB-1 "/>
									<sourcetrack>
										<mediatype>video</mediatype>
									</sourcetrack>
									<link>
										<linkclipref>Raw B Roll Hack Manhattan Matthew Duepner's House114</linkclipref>
										<mediatype>video</mediatype>
										<trackindex>2</trackindex>
										<clipindex>3</clipindex>
									</link>
									<link>
										<linkclipref>Raw B Roll Hack Manhattan Matthew Duepner's House115</linkclipref>
										<mediatype>audio</mediatype>
										<trackindex>5</trackindex>
										<clipindex>6</clipindex>
										<groupindex>1</groupindex>
									</link>
									<link>
										<linkclipref>Raw B Roll Hack Manhattan Matthew Duepner's House116</linkclipref>
										<mediatype>audio</mediatype>
										<trackindex>6</trackindex>
										<clipindex>6</clipindex>
										<groupindex>1</groupindex>
									</link>
									<fielddominance>none</fielddominance>
									<itemhistory>
										<uuid>D7338B44-2460-484B-AEC7-CC66804B8405</uuid>
									</itemhistory>
								</clipitem>
								<clipitem id="Raw B Roll Hack Manhattan Matthew Duepner's House117">
									<name>Raw B Roll Hack Manhattan Matthew Duepner's House</name>
									<duration>6617</duration>
									<rate>
										<ntsc>TRUE</ntsc>
										<timebase>24</timebase>
									</rate>
									<in>6074</in>
									<out>6140</out>
									<start>265</start>
									<end>331</end>
									<pixelaspectratio>Square</pixelaspectratio>
									<anamorphic>FALSE</anamorphic>
									<alphatype>black</alphatype>
									<masterclipid>Raw B Roll Hack Manhattan Matthew Duepner's House1</masterclipid>
									<logginginfo>
										<scene/>
										<shottake/>
										<lognote/>
										<good>FALSE</good>
									</logginginfo>
									<labels>
										<label2/>
									</labels>
									<comments>
										<mastercomment1/>
										<mastercomment2/>
										<mastercomment3/>
										<mastercomment4/>
									</comments>
									<file id="YIN_2013-04-28_JB-1 "/>
									<sourcetrack>
										<mediatype>video</mediatype>
									</sourcetrack>
									<link>
										<linkclipref>Raw B Roll Hack Manhattan Matthew Duepner's House117</linkclipref>
										<mediatype>video</mediatype>
										<trackindex>2</trackindex>
										<clipindex>4</clipindex>
									</link>
									<link>
										<linkclipref>Raw B Roll Hack Manhattan Matthew Duepner's House118</linkclipref>
										<mediatype>audio</mediatype>
										<trackindex>5</trackindex>
										<clipindex>7</clipindex>
										<groupindex>1</groupindex>
									</link>
									<link>
										<linkclipref>Raw B Roll Hack Manhattan Matthew Duepner's House119</linkclipref>
										<mediatype>audio</mediatype>
										<trackindex>6</trackindex>
										<clipindex>7</clipindex>
										<groupindex>1</groupindex>
									</link>
									<fielddominance>none</fielddominance>
									<itemhistory>
										<uuid>9856DF40-6B47-4483-89A1-0E1F13A1932C</uuid>
									</itemhistory>
								</clipitem>
								<clipitem id="Raw B Roll Hack Manhattan Matthew Duepner's House120">
									<name>Raw B Roll Hack Manhattan Matthew Duepner's House</name>
									<duration>6617</duration>
									<rate>
										<ntsc>TRUE</ntsc>
										<timebase>24</timebase>
									</rate>
									<in>5559</in>
									<out>5659</out>
									<start>331</start>
									<end>431</end>
									<pixelaspectratio>Square</pixelaspectratio>
									<anamorphic>FALSE</anamorphic>
									<alphatype>black</alphatype>
									<masterclipid>Raw B Roll Hack Manhattan Matthew Duepner's House1</masterclipid>
									<logginginfo>
										<scene/>
										<shottake/>
										<lognote/>
										<good>FALSE</good>
									</logginginfo>
									<labels>
										<label2/>
									</labels>
									<comments>
										<mastercomment1/>
										<mastercomment2/>
										<mastercomment3/>
										<mastercomment4/>
									</comments>
									<file id="YIN_2013-04-28_JB-1 "/>
									<sourcetrack>
										<mediatype>video</mediatype>
									</sourcetrack>
									<link>
										<linkclipref>Raw B Roll Hack Manhattan Matthew Duepner's House120</linkclipref>
										<mediatype>video</mediatype>
										<trackindex>2</trackindex>
										<clipindex>5</clipindex>
									</link>
									<link>
										<linkclipref>Raw B Roll Hack Manhattan Matthew Duepner's House121</linkclipref>
										<mediatype>audio</mediatype>
										<trackindex>5</trackindex>
										<clipindex>8</clipindex>
										<groupindex>1</groupindex>
									</link>
									<link>
										<linkclipref>Raw B Roll Hack Manhattan Matthew Duepner's House122</linkclipref>
										<mediatype>audio</mediatype>
										<trackindex>6</trackindex>
										<clipindex>8</clipindex>
										<groupindex>1</groupindex>
									</link>
									<fielddominance>none</fielddominance>
									<itemhistory>
										<uuid>210EF8DB-A53E-4326-831F-508CEB3D29B6</uuid>
									</itemhistory>
								</clipitem>
								<clipitem id="Raw B Roll Hack Manhattan Matthew Duepner's House123">
									<name>Raw B Roll Hack Manhattan Matthew Duepner's House</name>
									<duration>6617</duration>
									<rate>
										<ntsc>TRUE</ntsc>
										<timebase>24</timebase>
									</rate>
									<in>5878</in>
									<out>5953</out>
									<start>431</start>
									<end>506</end>
									<pixelaspectratio>Square</pixelaspectratio>
									<anamorphic>FALSE</anamorphic>
									<alphatype>black</alphatype>
									<masterclipid>Raw B Roll Hack Manhattan Matthew Duepner's House1</masterclipid>
									<logginginfo>
										<scene/>
										<shottake/>
										<lognote/>
										<good>FALSE</good>
									</logginginfo>
									<labels>
										<label2/>
									</labels>
									<comments>
										<mastercomment1/>
										<mastercomment2/>
										<mastercomment3/>
										<mastercomment4/>
									</comments>
									<file id="YIN_2013-04-28_JB-1 "/>
									<sourcetrack>
										<mediatype>video</mediatype>
									</sourcetrack>
									<link>
										<linkclipref>Raw B Roll Hack Manhattan Matthew Duepner's House123</linkclipref>
										<mediatype>video</mediatype>
										<trackindex>2</trackindex>
										<clipindex>6</clipindex>
									</link>
									<link>
										<linkclipref>Raw B Roll Hack Manhattan Matthew Duepner's House124</linkclipref>
										<mediatype>audio</mediatype>
										<trackindex>5</trackindex>
										<clipindex>9</clipindex>
										<groupindex>1</groupindex>
									</link>
									<link>
										<linkclipref>Raw B Roll Hack Manhattan Matthew Duepner's House125</linkclipref>
										<mediatype>audio</mediatype>
										<trackindex>6</trackindex>
										<clipindex>9</clipindex>
										<groupindex>1</groupindex>
									</link>
									<fielddominance>none</fielddominance>
									<itemhistory>
										<uuid>DE2183C9-1EDA-49C1-8CCF-7D0DC51EE6D2</uuid>
									</itemhistory>
								</clipitem>
								<clipitem id="Raw B Roll Hack Manhattan Matthew Duepner's House126">
									<name>Raw B Roll Hack Manhattan Matthew Duepner's House</name>
									<duration>6617</duration>
									<rate>
										<ntsc>TRUE</ntsc>
										<timebase>24</timebase>
									</rate>
									<in>4745</in>
									<out>4829</out>
									<start>506</start>
									<end>590</end>
									<pixelaspectratio>Square</pixelaspectratio>
									<anamorphic>FALSE</anamorphic>
									<alphatype>black</alphatype>
									<masterclipid>Raw B Roll Hack Manhattan Matthew Duepner's House1</masterclipid>
									<logginginfo>
										<scene/>
										<shottake/>
										<lognote/>
										<good>FALSE</good>
									</logginginfo>
									<labels>
										<label2/>
									</labels>
									<comments>
										<mastercomment1/>
										<mastercomment2/>
										<mastercomment3/>
										<mastercomment4/>
									</comments>
									<file id="YIN_2013-04-28_JB-1 "/>
									<sourcetrack>
										<mediatype>video</mediatype>
									</sourcetrack>
									<link>
										<linkclipref>Raw B Roll Hack Manhattan Matthew Duepner's House126</linkclipref>
										<mediatype>video</mediatype>
										<trackindex>2</trackindex>
										<clipindex>7</clipindex>
									</link>
									<link>
										<linkclipref>Raw B Roll Hack Manhattan Matthew Duepner's House127</linkclipref>
										<mediatype>audio</mediatype>
										<trackindex>5</trackindex>
										<clipindex>10</clipindex>
										<groupindex>1</groupindex>
									</link>
									<link>
										<linkclipref>Raw B Roll Hack Manhattan Matthew Duepner's House128</linkclipref>
										<mediatype>audio</mediatype>
										<trackindex>6</trackindex>
										<clipindex>10</clipindex>
										<groupindex>1</groupindex>
									</link>
									<fielddominance>none</fielddominance>
									<itemhistory>
										<uuid>E67EC61F-F820-4790-8160-AC10BC5760AF</uuid>
									</itemhistory>
								</clipitem>
								<clipitem id="Raw B Roll Hack Manhattan Matthew Duepner's House129">
									<name>Raw B Roll Hack Manhattan Matthew Duepner's House</name>
									<duration>6617</duration>
									<rate>
										<ntsc>TRUE</ntsc>
										<timebase>24</timebase>
									</rate>
									<in>3527</in>
									<out>3604</out>
									<start>590</start>
									<end>667</end>
									<pixelaspectratio>Square</pixelaspectratio>
									<anamorphic>FALSE</anamorphic>
									<alphatype>black</alphatype>
									<masterclipid>Raw B Roll Hack Manhattan Matthew Duepner's House1</masterclipid>
									<logginginfo>
										<scene/>
										<shottake/>
										<lognote/>
										<good>FALSE</good>
									</logginginfo>
									<labels>
										<label2/>
									</labels>
									<comments>
										<mastercomment1/>
										<mastercomment2/>
										<mastercomment3/>
										<mastercomment4/>
									</comments>
									<file id="YIN_2013-04-28_JB-1 "/>
									<sourcetrack>
										<mediatype>video</mediatype>
									</sourcetrack>
									<fielddominance>none</fielddominance>
									<itemhistory>
										<uuid>D7F47E95-E037-4426-A321-138BCCFFC18E</uuid>
									</itemhistory>
								</clipitem>
								<clipitem id="Raw B Roll Hack Manhattan Matthew Duepner's House130">
									<name>Raw B Roll Hack Manhattan Matthew Duepner's House</name>
									<duration>6617</duration>
									<rate>
										<ntsc>TRUE</ntsc>
										<timebase>24</timebase>
									</rate>
									<in>2432</in>
									<out>2555</out>
									<start>667</start>
									<end>790</end>
									<pixelaspectratio>Square</pixelaspectratio>
									<anamorphic>FALSE</anamorphic>
									<alphatype>black</alphatype>
									<masterclipid>Raw B Roll Hack Manhattan Matthew Duepner's House1</masterclipid>
									<logginginfo>
										<scene/>
										<shottake/>
										<lognote/>
										<good>FALSE</good>
									</logginginfo>
									<labels>
										<label2/>
									</labels>
									<comments>
										<mastercomment1/>
										<mastercomment2/>
										<mastercomment3/>
										<mastercomment4/>
									</comments>
									<file id="YIN_2013-04-28_JB-1 "/>
									<sourcetrack>
										<mediatype>video</mediatype>
									</sourcetrack>
									<link>
										<linkclipref>Raw B Roll Hack Manhattan Matthew Duepner's House130</linkclipref>
										<mediatype>video</mediatype>
										<trackindex>2</trackindex>
										<clipindex>9</clipindex>
									</link>
									<link>
										<linkclipref>Raw B Roll Hack Manhattan Matthew Duepner's House131</linkclipref>
										<mediatype>audio</mediatype>
										<trackindex>5</trackindex>
										<clipindex>11</clipindex>
										<groupindex>1</groupindex>
									</link>
									<link>
										<linkclipref>Raw B Roll Hack Manhattan Matthew Duepner's House132</linkclipref>
										<mediatype>audio</mediatype>
										<trackindex>6</trackindex>
										<clipindex>11</clipindex>
										<groupindex>1</groupindex>
									</link>
									<fielddominance>none</fielddominance>
									<itemhistory>
										<uuid>A8CECC77-CDDF-432A-9E1E-39F4569EBE98</uuid>
									</itemhistory>
								</clipitem>
								<clipitem id="Raw B Roll Hack Manhattan Matthew Duepner's House133">
									<name>Raw B Roll Hack Manhattan Matthew Duepner's House</name>
									<duration>6617</duration>
									<rate>
										<ntsc>TRUE</ntsc>
										<timebase>24</timebase>
									</rate>
									<in>2733</in>
									<out>2884</out>
									<start>790</start>
									<end>941</end>
									<pixelaspectratio>Square</pixelaspectratio>
									<anamorphic>FALSE</anamorphic>
									<alphatype>black</alphatype>
									<masterclipid>Raw B Roll Hack Manhattan Matthew Duepner's House1</masterclipid>
									<logginginfo>
										<scene/>
										<shottake/>
										<lognote/>
										<good>FALSE</good>
									</logginginfo>
									<labels>
										<label2/>
									</labels>
									<comments>
										<mastercomment1/>
										<mastercomment2/>
										<mastercomment3/>
										<mastercomment4/>
									</comments>
									<file id="YIN_2013-04-28_JB-1 "/>
									<sourcetrack>
										<mediatype>video</mediatype>
									</sourcetrack>
									<link>
										<linkclipref>Raw B Roll Hack Manhattan Matthew Duepner's House133</linkclipref>
										<mediatype>video</mediatype>
										<trackindex>2</trackindex>
										<clipindex>10</clipindex>
									</link>
									<link>
										<linkclipref>Raw B Roll Hack Manhattan Matthew Duepner's House134</linkclipref>
										<mediatype>audio</mediatype>
										<trackindex>5</trackindex>
										<clipindex>12</clipindex>
										<groupindex>1</groupindex>
									</link>
									<link>
										<linkclipref>Raw B Roll Hack Manhattan Matthew Duepner's House135</linkclipref>
										<mediatype>audio</mediatype>
										<trackindex>6</trackindex>
										<clipindex>12</clipindex>
										<groupindex>1</groupindex>
									</link>
									<fielddominance>none</fielddominance>
									<itemhistory>
										<uuid>7CB23E93-B0FB-4121-AE4D-9F81BB81831B</uuid>
									</itemhistory>
								</clipitem>
								<clipitem id="Raw B Roll Hack Manhattan Matthew Duepner's House136">
									<name>Raw B Roll Hack Manhattan Matthew Duepner's House</name>
									<duration>6617</duration>
									<rate>
										<ntsc>TRUE</ntsc>
										<timebase>24</timebase>
									</rate>
									<in>5318</in>
									<out>5486</out>
									<start>941</start>
									<end>1109</end>
									<pixelaspectratio>Square</pixelaspectratio>
									<anamorphic>FALSE</anamorphic>
									<alphatype>black</alphatype>
									<masterclipid>Raw B Roll Hack Manhattan Matthew Duepner's House1</masterclipid>
									<logginginfo>
										<scene/>
										<shottake/>
										<lognote/>
										<good>FALSE</good>
									</logginginfo>
									<labels>
										<label2/>
									</labels>
									<comments>
										<mastercomment1/>
										<mastercomment2/>
										<mastercomment3/>
										<mastercomment4/>
									</comments>
									<file id="YIN_2013-04-28_JB-1 "/>
									<sourcetrack>
										<mediatype>video</mediatype>
									</sourcetrack>
									<link>
										<linkclipref>Raw B Roll Hack Manhattan Matthew Duepner's House136</linkclipref>
										<mediatype>video</mediatype>
										<trackindex>2</trackindex>
										<clipindex>11</clipindex>
									</link>
									<link>
										<linkclipref>Raw B Roll Hack Manhattan Matthew Duepner's House137</linkclipref>
										<mediatype>audio</mediatype>
										<trackindex>5</trackindex>
										<clipindex>13</clipindex>
										<groupindex>1</groupindex>
									</link>
									<link>
										<linkclipref>Raw B Roll Hack Manhattan Matthew Duepner's House138</linkclipref>
										<mediatype>audio</mediatype>
										<trackindex>6</trackindex>
										<clipindex>13</clipindex>
										<groupindex>1</groupindex>
									</link>
									<fielddominance>none</fielddominance>
									<itemhistory>
										<uuid>B033CFBD-3682-47B1-B77E-0AC5F3676322</uuid>
									</itemhistory>
								</clipitem>
								<clipitem id="Raw B Roll Hack Manhattan Matthew Duepner's House139">
									<name>Raw B Roll Hack Manhattan Matthew Duepner's House</name>
									<duration>6617</duration>
									<rate>
										<ntsc>TRUE</ntsc>
										<timebase>24</timebase>
									</rate>
									<in>2948</in>
									<out>3117</out>
									<start>1109</start>
									<end>1278</end>
									<pixelaspectratio>Square</pixelaspectratio>
									<anamorphic>FALSE</anamorphic>
									<alphatype>black</alphatype>
									<masterclipid>Raw B Roll Hack Manhattan Matthew Duepner's House1</masterclipid>
									<logginginfo>
										<scene/>
										<shottake/>
										<lognote/>
										<good>FALSE</good>
									</logginginfo>
									<labels>
										<label2/>
									</labels>
									<comments>
										<mastercomment1/>
										<mastercomment2/>
										<mastercomment3/>
										<mastercomment4/>
									</comments>
									<file id="YIN_2013-04-28_JB-1 "/>
									<sourcetrack>
										<mediatype>video</mediatype>
									</sourcetrack>
									<link>
										<linkclipref>Raw B Roll Hack Manhattan Matthew Duepner's House139</linkclipref>
										<mediatype>video</mediatype>
										<trackindex>2</trackindex>
										<clipindex>12</clipindex>
									</link>
									<link>
										<linkclipref>Raw B Roll Hack Manhattan Matthew Duepner's House140</linkclipref>
										<mediatype>audio</mediatype>
										<trackindex>5</trackindex>
										<clipindex>14</clipindex>
										<groupindex>1</groupindex>
									</link>
									<link>
										<linkclipref>Raw B Roll Hack Manhattan Matthew Duepner's House141</linkclipref>
										<mediatype>audio</mediatype>
										<trackindex>6</trackindex>
										<clipindex>14</clipindex>
										<groupindex>1</groupindex>
									</link>
									<fielddominance>none</fielddominance>
									<itemhistory>
										<uuid>5428F25E-A43D-4E30-B43A-6EFC721B444B</uuid>
									</itemhistory>
								</clipitem>
								<clipitem id="Raw B Roll Hack Manhattan Matthew Duepner's House142">
									<name>Raw B Roll Hack Manhattan Matthew Duepner's House</name>
									<duration>6617</duration>
									<rate>
										<ntsc>TRUE</ntsc>
										<timebase>24</timebase>
									</rate>
									<in>4099</in>
									<out>4179</out>
									<start>1369</start>
									<end>1449</end>
									<pixelaspectratio>Square</pixelaspectratio>
									<anamorphic>FALSE</anamorphic>
									<alphatype>black</alphatype>
									<masterclipid>Raw B Roll Hack Manhattan Matthew Duepner's House1</masterclipid>
									<logginginfo>
										<scene/>
										<shottake/>
										<lognote/>
										<good>FALSE</good>
									</logginginfo>
									<labels>
										<label2/>
									</labels>
									<comments>
										<mastercomment1/>
										<mastercomment2/>
										<mastercomment3/>
										<mastercomment4/>
									</comments>
									<file id="YIN_2013-04-28_JB-1 "/>
									<sourcetrack>
										<mediatype>video</mediatype>
									</sourcetrack>
									<link>
										<linkclipref>Raw B Roll Hack Manhattan Matthew Duepner's House142</linkclipref>
										<mediatype>video</mediatype>
										<trackindex>2</trackindex>
										<clipindex>13</clipindex>
									</link>
									<link>
										<linkclipref>Raw B Roll Hack Manhattan Matthew Duepner's House143</linkclipref>
										<mediatype>audio</mediatype>
										<trackindex>5</trackindex>
										<clipindex>15</clipindex>
										<groupindex>1</groupindex>
									</link>
									<link>
										<linkclipref>Raw B Roll Hack Manhattan Matthew Duepner's House144</linkclipref>
										<mediatype>audio</mediatype>
										<trackindex>6</trackindex>
										<clipindex>15</clipindex>
										<groupindex>1</groupindex>
									</link>
									<fielddominance>none</fielddominance>
									<itemhistory>
										<uuid>F740C621-019A-4DDE-A256-68AFF4FE8F6F</uuid>
									</itemhistory>
								</clipitem>
								<clipitem id="Raw B Roll Hack Manhattan Matthew Duepner's House145">
									<name>Raw B Roll Hack Manhattan Matthew Duepner's House</name>
									<duration>6617</duration>
									<rate>
										<ntsc>TRUE</ntsc>
										<timebase>24</timebase>
									</rate>
									<in>4585</in>
									<out>4685</out>
									<start>1449</start>
									<end>1549</end>
									<pixelaspectratio>Square</pixelaspectratio>
									<anamorphic>FALSE</anamorphic>
									<alphatype>black</alphatype>
									<masterclipid>Raw B Roll Hack Manhattan Matthew Duepner's House1</masterclipid>
									<logginginfo>
										<scene/>
										<shottake/>
										<lognote/>
										<good>FALSE</good>
									</logginginfo>
									<labels>
										<label2/>
									</labels>
									<comments>
										<mastercomment1/>
										<mastercomment2/>
										<mastercomment3/>
										<mastercomment4/>
									</comments>
									<file id="YIN_2013-04-28_JB-1 "/>
									<sourcetrack>
										<mediatype>video</mediatype>
									</sourcetrack>
									<link>
										<linkclipref>Raw B Roll Hack Manhattan Matthew Duepner's House145</linkclipref>
										<mediatype>video</mediatype>
										<trackindex>2</trackindex>
										<clipindex>14</clipindex>
									</link>
									<link>
										<linkclipref>Raw B Roll Hack Manhattan Matthew Duepner's House146</linkclipref>
										<mediatype>audio</mediatype>
										<trackindex>5</trackindex>
										<clipindex>16</clipindex>
										<groupindex>1</groupindex>
									</link>
									<link>
										<linkclipref>Raw B Roll Hack Manhattan Matthew Duepner's House147</linkclipref>
										<mediatype>audio</mediatype>
										<trackindex>6</trackindex>
										<clipindex>16</clipindex>
										<groupindex>1</groupindex>
									</link>
									<fielddominance>none</fielddominance>
									<itemhistory>
										<uuid>3A344FB6-6D02-4C2B-9BF6-486F9DAD1A47</uuid>
									</itemhistory>
								</clipitem>
								<clipitem id="Raw Scene Matthew Duepner Printing127">
									<name>Raw Scene Matthew Duepner Printing</name>
									<duration>28553</duration>
									<rate>
										<ntsc>TRUE</ntsc>
										<timebase>24</timebase>
									</rate>
									<in>25118</in>
									<out>25193</out>
									<start>1549</start>
									<end>1624</end>
									<pixelaspectratio>Square</pixelaspectratio>
									<anamorphic>FALSE</anamorphic>
									<alphatype>black</alphatype>
									<masterclipid>Raw Scene Matthew Duepner Printing72</masterclipid>
									<logginginfo>
										<scene/>
										<shottake/>
										<lognote/>
										<good>FALSE</good>
									</logginginfo>
									<labels>
										<label2/>
									</labels>
									<comments>
										<mastercomment1/>
										<mastercomment2/>
										<mastercomment3/>
										<mastercomment4/>
									</comments>
									<file id="YIN_2013-05-28_LG-6 "/>
									<sourcetrack>
										<mediatype>video</mediatype>
									</sourcetrack>
									<link>
										<linkclipref>Raw Scene Matthew Duepner Printing127</linkclipref>
										<mediatype>video</mediatype>
										<trackindex>2</trackindex>
										<clipindex>15</clipindex>
									</link>
									<link>
										<linkclipref>Raw Scene Matthew Duepner Printing128</linkclipref>
										<mediatype>audio</mediatype>
										<trackindex>5</trackindex>
										<clipindex>17</clipindex>
										<groupindex>1</groupindex>
									</link>
									<link>
										<linkclipref>Raw Scene Matthew Duepner Printing129</linkclipref>
										<mediatype>audio</mediatype>
										<trackindex>6</trackindex>
										<clipindex>17</clipindex>
										<groupindex>1</groupindex>
									</link>
									<fielddominance>none</fielddominance>
									<itemhistory>
										<uuid>6EA7ED03-37A1-454F-9386-1E55D19168E8</uuid>
									</itemhistory>
								</clipitem>
								<clipitem id="Raw B Roll Hack Manhattan Matthew Duepner's House148">
									<name>Raw B Roll Hack Manhattan Matthew Duepner's House</name>
									<duration>6617</duration>
									<rate>
										<ntsc>TRUE</ntsc>
										<timebase>24</timebase>
									</rate>
									<in>3931</in>
									<out>4052</out>
									<start>1624</start>
									<end>1745</end>
									<pixelaspectratio>Square</pixelaspectratio>
									<anamorphic>FALSE</anamorphic>
									<alphatype>black</alphatype>
									<masterclipid>Raw B Roll Hack Manhattan Matthew Duepner's House1</masterclipid>
									<logginginfo>
										<scene/>
										<shottake/>
										<lognote/>
										<good>FALSE</good>
									</logginginfo>
									<labels>
										<label2/>
									</labels>
									<comments>
										<mastercomment1/>
										<mastercomment2/>
										<mastercomment3/>
										<mastercomment4/>
									</comments>
									<file id="YIN_2013-04-28_JB-1 "/>
									<sourcetrack>
										<mediatype>video</mediatype>
									</sourcetrack>
									<link>
										<linkclipref>Raw B Roll Hack Manhattan Matthew Duepner's House148</linkclipref>
										<mediatype>video</mediatype>
										<trackindex>2</trackindex>
										<clipindex>16</clipindex>
									</link>
									<link>
										<linkclipref>Raw B Roll Hack Manhattan Matthew Duepner's House149</linkclipref>
										<mediatype>audio</mediatype>
										<trackindex>5</trackindex>
										<clipindex>18</clipindex>
										<groupindex>1</groupindex>
									</link>
									<link>
										<linkclipref>Raw B Roll Hack Manhattan Matthew Duepner's House150</linkclipref>
										<mediatype>audio</mediatype>
										<trackindex>6</trackindex>
										<clipindex>18</clipindex>
										<groupindex>1</groupindex>
									</link>
									<fielddominance>none</fielddominance>
									<itemhistory>
										<uuid>0586FB70-4465-4599-B285-1EC65664C7BB</uuid>
									</itemhistory>
								</clipitem>
								<clipitem id="Raw B Roll Hack Manhattan Matthew Duepner's House151">
									<name>Raw B Roll Hack Manhattan Matthew Duepner's House</name>
									<duration>6617</duration>
									<rate>
										<ntsc>TRUE</ntsc>
										<timebase>24</timebase>
									</rate>
									<in>5073</in>
									<out>5227</out>
									<start>1745</start>
									<end>1899</end>
									<pixelaspectratio>Square</pixelaspectratio>
									<anamorphic>FALSE</anamorphic>
									<alphatype>black</alphatype>
									<masterclipid>Raw B Roll Hack Manhattan Matthew Duepner's House1</masterclipid>
									<logginginfo>
										<scene/>
										<shottake/>
										<lognote/>
										<good>FALSE</good>
									</logginginfo>
									<labels>
										<label2/>
									</labels>
									<comments>
										<mastercomment1/>
										<mastercomment2/>
										<mastercomment3/>
										<mastercomment4/>
									</comments>
									<file id="YIN_2013-04-28_JB-1 "/>
									<sourcetrack>
										<mediatype>video</mediatype>
									</sourcetrack>
									<link>
										<linkclipref>Raw B Roll Hack Manhattan Matthew Duepner's House151</linkclipref>
										<mediatype>video</mediatype>
										<trackindex>2</trackindex>
										<clipindex>17</clipindex>
									</link>
									<link>
										<linkclipref>Raw B Roll Hack Manhattan Matthew Duepner's House152</linkclipref>
										<mediatype>audio</mediatype>
										<trackindex>5</trackindex>
										<clipindex>19</clipindex>
										<groupindex>1</groupindex>
									</link>
									<link>
										<linkclipref>Raw B Roll Hack Manhattan Matthew Duepner's House153</linkclipref>
										<mediatype>audio</mediatype>
										<trackindex>6</trackindex>
										<clipindex>19</clipindex>
										<groupindex>1</groupindex>
									</link>
									<fielddominance>none</fielddominance>
									<itemhistory>
										<uuid>65E96779-DBCE-427F-B942-0A4D9801F568</uuid>
									</itemhistory>
								</clipitem>
								<clipitem id="Raw Scene Matthew Duepner Printing130">
									<name>Raw Scene Matthew Duepner Printing</name>
									<duration>28553</duration>
									<rate>
										<ntsc>TRUE</ntsc>
										<timebase>24</timebase>
									</rate>
									<in>13248</in>
									<out>13390</out>
									<start>1899</start>
									<end>2041</end>
									<pixelaspectratio>Square</pixelaspectratio>
									<anamorphic>FALSE</anamorphic>
									<alphatype>black</alphatype>
									<masterclipid>Raw Scene Matthew Duepner Printing72</masterclipid>
									<logginginfo>
										<scene/>
										<shottake/>
										<lognote/>
										<good>FALSE</good>
									</logginginfo>
									<labels>
										<label2/>
									</labels>
									<comments>
										<mastercomment1/>
										<mastercomment2/>
										<mastercomment3/>
										<mastercomment4/>
									</comments>
									<file id="YIN_2013-05-28_LG-6 "/>
									<sourcetrack>
										<mediatype>video</mediatype>
									</sourcetrack>
									<link>
										<linkclipref>Raw Scene Matthew Duepner Printing130</linkclipref>
										<mediatype>video</mediatype>
										<trackindex>2</trackindex>
										<clipindex>18</clipindex>
									</link>
									<link>
										<linkclipref>Raw Scene Matthew Duepner Printing131</linkclipref>
										<mediatype>audio</mediatype>
										<trackindex>5</trackindex>
										<clipindex>20</clipindex>
										<groupindex>1</groupindex>
									</link>
									<link>
										<linkclipref>Raw Scene Matthew Duepner Printing132</linkclipref>
										<mediatype>audio</mediatype>
										<trackindex>6</trackindex>
										<clipindex>20</clipindex>
										<groupindex>1</groupindex>
									</link>
									<fielddominance>none</fielddominance>
									<itemhistory>
										<uuid>B647F2BF-72FC-4834-AF6E-802E614C741C</uuid>
									</itemhistory>
								</clipitem>
								<clipitem id="Raw Scene Matthew Duepner Printing133">
									<name>Raw Scene Matthew Duepner Printing</name>
									<duration>28553</duration>
									<rate>
										<ntsc>TRUE</ntsc>
										<timebase>24</timebase>
									</rate>
									<in>13645</in>
									<out>13887</out>
									<start>2041</start>
									<end>2283</end>
									<pixelaspectratio>Square</pixelaspectratio>
									<anamorphic>FALSE</anamorphic>
									<alphatype>black</alphatype>
									<masterclipid>Raw Scene Matthew Duepner Printing72</masterclipid>
									<logginginfo>
										<scene/>
										<shottake/>
										<lognote/>
										<good>FALSE</good>
									</logginginfo>
									<labels>
										<label2/>
									</labels>
									<comments>
										<mastercomment1/>
										<mastercomment2/>
										<mastercomment3/>
										<mastercomment4/>
									</comments>
									<file id="YIN_2013-05-28_LG-6 "/>
									<sourcetrack>
										<mediatype>video</mediatype>
									</sourcetrack>
									<link>
										<linkclipref>Raw Scene Matthew Duepner Printing133</linkclipref>
										<mediatype>video</mediatype>
										<trackindex>2</trackindex>
										<clipindex>19</clipindex>
									</link>
									<link>
										<linkclipref>Raw Scene Matthew Duepner Printing134</linkclipref>
										<mediatype>audio</mediatype>
										<trackindex>5</trackindex>
										<clipindex>21</clipindex>
										<groupindex>1</groupindex>
									</link>
									<link>
										<linkclipref>Raw Scene Matthew Duepner Printing135</linkclipref>
										<mediatype>audio</mediatype>
										<trackindex>6</trackindex>
										<clipindex>21</clipindex>
										<groupindex>1</groupindex>
									</link>
									<fielddominance>none</fielddominance>
									<itemhistory>
										<uuid>0BE7C2F5-9553-412F-B173-1DAD728FCFBB</uuid>
									</itemhistory>
								</clipitem>
								<clipitem id="Raw Scene Matthew Duepner Printing136">
									<name>Raw Scene Matthew Duepner Printing</name>
									<duration>28553</duration>
									<rate>
										<ntsc>TRUE</ntsc>
										<timebase>24</timebase>
									</rate>
									<in>14425</in>
									<out>14590</out>
									<start>2283</start>
									<end>2448</end>
									<pixelaspectratio>Square</pixelaspectratio>
									<anamorphic>FALSE</anamorphic>
									<alphatype>black</alphatype>
									<masterclipid>Raw Scene Matthew Duepner Printing72</masterclipid>
									<logginginfo>
										<scene/>
										<shottake/>
										<lognote/>
										<good>FALSE</good>
									</logginginfo>
									<labels>
										<label2/>
									</labels>
									<comments>
										<mastercomment1/>
										<mastercomment2/>
										<mastercomment3/>
										<mastercomment4/>
									</comments>
									<file id="YIN_2013-05-28_LG-6 "/>
									<sourcetrack>
										<mediatype>video</mediatype>
									</sourcetrack>
									<fielddominance>none</fielddominance>
									<itemhistory>
										<uuid>33FAB2FB-691B-47DB-AADD-6C33D8B5D2B4</uuid>
									</itemhistory>
								</clipitem>
								<clipitem id="Raw Scene Matthew Duepner Printing137">
									<name>Raw Scene Matthew Duepner Printing</name>
									<duration>28553</duration>
									<rate>
										<ntsc>TRUE</ntsc>
										<timebase>24</timebase>
									</rate>
									<in>24571</in>
									<out>24706</out>
									<start>2448</start>
									<end>2583</end>
									<pixelaspectratio>Square</pixelaspectratio>
									<anamorphic>FALSE</anamorphic>
									<alphatype>black</alphatype>
									<masterclipid>Raw Scene Matthew Duepner Printing72</masterclipid>
									<logginginfo>
										<scene/>
										<shottake/>
										<lognote/>
										<good>FALSE</good>
									</logginginfo>
									<labels>
										<label2/>
									</labels>
									<comments>
										<mastercomment1/>
										<mastercomment2/>
										<mastercomment3/>
										<mastercomment4/>
									</comments>
									<file id="YIN_2013-05-28_LG-6 "/>
									<sourcetrack>
										<mediatype>video</mediatype>
									</sourcetrack>
									<fielddominance>none</fielddominance>
									<itemhistory>
										<uuid>F66107D0-4160-404E-AA0F-0A70678E67BB</uuid>
									</itemhistory>
								</clipitem>
								<clipitem id="Raw Scene Matthew Duepner Printing138">
									<name>Raw Scene Matthew Duepner Printing</name>
									<duration>28553</duration>
									<rate>
										<ntsc>TRUE</ntsc>
										<timebase>24</timebase>
									</rate>
									<in>17176</in>
									<out>17388</out>
									<start>2583</start>
									<end>2795</end>
									<pixelaspectratio>Square</pixelaspectratio>
									<anamorphic>FALSE</anamorphic>
									<alphatype>black</alphatype>
									<masterclipid>Raw Scene Matthew Duepner Printing72</masterclipid>
									<logginginfo>
										<scene/>
										<shottake/>
										<lognote/>
										<good>FALSE</good>
									</logginginfo>
									<labels>
										<label2/>
									</labels>
									<comments>
										<mastercomment1/>
										<mastercomment2/>
										<mastercomment3/>
										<mastercomment4/>
									</comments>
									<file id="YIN_2013-05-28_LG-6 "/>
									<sourcetrack>
										<mediatype>video</mediatype>
									</sourcetrack>
									<link>
										<linkclipref>Raw Scene Matthew Duepner Printing138</linkclipref>
										<mediatype>video</mediatype>
										<trackindex>2</trackindex>
										<clipindex>22</clipindex>
									</link>
									<link>
										<linkclipref>Raw Scene Matthew Duepner Printing139</linkclipref>
										<mediatype>audio</mediatype>
										<trackindex>5</trackindex>
										<clipindex>22</clipindex>
										<groupindex>1</groupindex>
									</link>
									<link>
										<linkclipref>Raw Scene Matthew Duepner Printing140</linkclipref>
										<mediatype>audio</mediatype>
										<trackindex>6</trackindex>
										<clipindex>22</clipindex>
										<groupindex>1</groupindex>
									</link>
									<fielddominance>none</fielddominance>
									<itemhistory>
										<uuid>498D9939-7D3C-4AF3-8497-3ABB2120EB52</uuid>
									</itemhistory>
								</clipitem>
								<clipitem id="Raw Scene Matthew Duepner Printing141">
									<name>Raw Scene Matthew Duepner Printing</name>
									<duration>28553</duration>
									<rate>
										<ntsc>TRUE</ntsc>
										<timebase>24</timebase>
									</rate>
									<in>22464</in>
									<out>22508</out>
									<start>2795</start>
									<end>2839</end>
									<pixelaspectratio>Square</pixelaspectratio>
									<anamorphic>FALSE</anamorphic>
									<alphatype>black</alphatype>
									<masterclipid>Raw Scene Matthew Duepner Printing72</masterclipid>
									<logginginfo>
										<scene/>
										<shottake/>
										<lognote/>
										<good>FALSE</good>
									</logginginfo>
									<labels>
										<label2/>
									</labels>
									<comments>
										<mastercomment1/>
										<mastercomment2/>
										<mastercomment3/>
										<mastercomment4/>
									</comments>
									<file id="YIN_2013-05-28_LG-6 "/>
									<sourcetrack>
										<mediatype>video</mediatype>
									</sourcetrack>
									<link>
										<linkclipref>Raw Scene Matthew Duepner Printing141</linkclipref>
										<mediatype>video</mediatype>
										<trackindex>2</trackindex>
										<clipindex>23</clipindex>
									</link>
									<link>
										<linkclipref>Raw Scene Matthew Duepner Printing142</linkclipref>
										<mediatype>audio</mediatype>
										<trackindex>1</trackindex>
										<clipindex>15</clipindex>
										<groupindex>1</groupindex>
									</link>
									<link>
										<linkclipref>Raw Scene Matthew Duepner Printing143</linkclipref>
										<mediatype>audio</mediatype>
										<trackindex>2</trackindex>
										<clipindex>15</clipindex>
										<groupindex>1</groupindex>
									</link>
									<fielddominance>none</fielddominance>
									<itemhistory>
										<uuid>339916FB-D6E7-4137-A0FF-A22DC7F5C86D</uuid>
									</itemhistory>
								</clipitem>
								<clipitem id="Raw Scene Matthew Duepner Printing144">
									<name>Raw Scene Matthew Duepner Printing</name>
									<duration>28553</duration>
									<rate>
										<ntsc>TRUE</ntsc>
										<timebase>24</timebase>
									</rate>
									<in>22831</in>
									<out>22878</out>
									<start>2839</start>
									<end>2886</end>
									<pixelaspectratio>Square</pixelaspectratio>
									<anamorphic>FALSE</anamorphic>
									<alphatype>black</alphatype>
									<masterclipid>Raw Scene Matthew Duepner Printing72</masterclipid>
									<logginginfo>
										<scene/>
										<shottake/>
										<lognote/>
										<good>FALSE</good>
									</logginginfo>
									<labels>
										<label2/>
									</labels>
									<comments>
										<mastercomment1/>
										<mastercomment2/>
										<mastercomment3/>
										<mastercomment4/>
									</comments>
									<file id="YIN_2013-05-28_LG-6 "/>
									<sourcetrack>
										<mediatype>video</mediatype>
									</sourcetrack>
									<link>
										<linkclipref>Raw Scene Matthew Duepner Printing144</linkclipref>
										<mediatype>video</mediatype>
										<trackindex>2</trackindex>
										<clipindex>24</clipindex>
									</link>
									<link>
										<linkclipref>Raw Scene Matthew Duepner Printing145</linkclipref>
										<mediatype>audio</mediatype>
										<trackindex>1</trackindex>
										<clipindex>16</clipindex>
										<groupindex>1</groupindex>
									</link>
									<link>
										<linkclipref>Raw Scene Matthew Duepner Printing146</linkclipref>
										<mediatype>audio</mediatype>
										<trackindex>2</trackindex>
										<clipindex>16</clipindex>
										<groupindex>1</groupindex>
									</link>
									<fielddominance>none</fielddominance>
									<itemhistory>
										<uuid>C20071F7-AEF9-41BE-961E-90A85C8BCDBB</uuid>
									</itemhistory>
								</clipitem>
								<clipitem id="Raw Scene Matthew Duepner Printing147">
									<name>Raw Scene Matthew Duepner Printing</name>
									<duration>28553</duration>
									<rate>
										<ntsc>TRUE</ntsc>
										<timebase>24</timebase>
									</rate>
									<in>23483</in>
									<out>23542</out>
									<start>2886</start>
									<end>2945</end>
									<pixelaspectratio>Square</pixelaspectratio>
									<anamorphic>FALSE</anamorphic>
									<alphatype>black</alphatype>
									<masterclipid>Raw Scene Matthew Duepner Printing72</masterclipid>
									<logginginfo>
										<scene/>
										<shottake/>
										<lognote/>
										<good>FALSE</good>
									</logginginfo>
									<labels>
										<label2/>
									</labels>
									<comments>
										<mastercomment1/>
										<mastercomment2/>
										<mastercomment3/>
										<mastercomment4/>
									</comments>
									<file id="YIN_2013-05-28_LG-6 "/>
									<sourcetrack>
										<mediatype>video</mediatype>
									</sourcetrack>
									<link>
										<linkclipref>Raw Scene Matthew Duepner Printing147</linkclipref>
										<mediatype>video</mediatype>
										<trackindex>2</trackindex>
										<clipindex>25</clipindex>
									</link>
									<link>
										<linkclipref>Raw Scene Matthew Duepner Printing148</linkclipref>
										<mediatype>audio</mediatype>
										<trackindex>1</trackindex>
										<clipindex>17</clipindex>
										<groupindex>1</groupindex>
									</link>
									<link>
										<linkclipref>Raw Scene Matthew Duepner Printing149</linkclipref>
										<mediatype>audio</mediatype>
										<trackindex>2</trackindex>
										<clipindex>17</clipindex>
										<groupindex>1</groupindex>
									</link>
									<fielddominance>none</fielddominance>
									<itemhistory>
										<uuid>1A949D0E-EFA0-499B-A2DC-B6B77B899881</uuid>
									</itemhistory>
								</clipitem>
								<clipitem id="Raw Scene Matthew Duepner Printing150">
									<name>Raw Scene Matthew Duepner Printing</name>
									<duration>28553</duration>
									<rate>
										<ntsc>TRUE</ntsc>
										<timebase>24</timebase>
									</rate>
									<in>23633</in>
									<out>23685</out>
									<start>2945</start>
									<end>2997</end>
									<pixelaspectratio>Square</pixelaspectratio>
									<anamorphic>FALSE</anamorphic>
									<alphatype>black</alphatype>
									<masterclipid>Raw Scene Matthew Duepner Printing72</masterclipid>
									<logginginfo>
										<scene/>
										<shottake/>
										<lognote/>
										<good>FALSE</good>
									</logginginfo>
									<labels>
										<label2/>
									</labels>
									<comments>
										<mastercomment1/>
										<mastercomment2/>
										<mastercomment3/>
										<mastercomment4/>
									</comments>
									<file id="YIN_2013-05-28_LG-6 "/>
									<sourcetrack>
										<mediatype>video</mediatype>
									</sourcetrack>
									<link>
										<linkclipref>Raw Scene Matthew Duepner Printing150</linkclipref>
										<mediatype>video</mediatype>
										<trackindex>2</trackindex>
										<clipindex>26</clipindex>
									</link>
									<link>
										<linkclipref>Raw Scene Matthew Duepner Printing151</linkclipref>
										<mediatype>audio</mediatype>
										<trackindex>1</trackindex>
										<clipindex>18</clipindex>
										<groupindex>1</groupindex>
									</link>
									<link>
										<linkclipref>Raw Scene Matthew Duepner Printing152</linkclipref>
										<mediatype>audio</mediatype>
										<trackindex>2</trackindex>
										<clipindex>18</clipindex>
										<groupindex>1</groupindex>
									</link>
									<fielddominance>none</fielddominance>
									<itemhistory>
										<uuid>83A7C62F-E84C-49C1-A3B7-A3611257C06C</uuid>
									</itemhistory>
								</clipitem>
								<clipitem id="Raw Scene Matthew Duepner Printing153">
									<name>Raw Scene Matthew Duepner Printing</name>
									<duration>28553</duration>
									<rate>
										<ntsc>TRUE</ntsc>
										<timebase>24</timebase>
									</rate>
									<in>27525</in>
									<out>27797</out>
									<start>2997</start>
									<end>3269</end>
									<pixelaspectratio>Square</pixelaspectratio>
									<anamorphic>FALSE</anamorphic>
									<alphatype>black</alphatype>
									<masterclipid>Raw Scene Matthew Duepner Printing72</masterclipid>
									<logginginfo>
										<scene/>
										<shottake/>
										<lognote/>
										<good>FALSE</good>
									</logginginfo>
									<labels>
										<label2/>
									</labels>
									<comments>
										<mastercomment1/>
										<mastercomment2/>
										<mastercomment3/>
										<mastercomment4/>
									</comments>
									<file id="YIN_2013-05-28_LG-6 "/>
									<sourcetrack>
										<mediatype>video</mediatype>
									</sourcetrack>
									<link>
										<linkclipref>Raw Scene Matthew Duepner Printing153</linkclipref>
										<mediatype>video</mediatype>
										<trackindex>2</trackindex>
										<clipindex>27</clipindex>
									</link>
									<link>
										<linkclipref>Raw Scene Matthew Duepner Printing154</linkclipref>
										<mediatype>audio</mediatype>
										<trackindex>1</trackindex>
										<clipindex>19</clipindex>
										<groupindex>1</groupindex>
									</link>
									<link>
										<linkclipref>Raw Scene Matthew Duepner Printing155</linkclipref>
										<mediatype>audio</mediatype>
										<trackindex>2</trackindex>
										<clipindex>19</clipindex>
										<groupindex>1</groupindex>
									</link>
									<fielddominance>none</fielddominance>
									<itemhistory>
										<uuid>90722583-D9C1-42ED-AC6F-2CBC915A6A5A</uuid>
									</itemhistory>
								</clipitem>
								<clipitem id="Raw Scene Matthew Duepner Printing156">
									<name>Raw Scene Matthew Duepner Printing</name>
									<duration>28553</duration>
									<rate>
										<ntsc>TRUE</ntsc>
										<timebase>24</timebase>
									</rate>
									<in>28313</in>
									<out>28455</out>
									<start>3269</start>
									<end>3411</end>
									<pixelaspectratio>Square</pixelaspectratio>
									<anamorphic>FALSE</anamorphic>
									<alphatype>black</alphatype>
									<masterclipid>Raw Scene Matthew Duepner Printing72</masterclipid>
									<logginginfo>
										<scene/>
										<shottake/>
										<lognote/>
										<good>FALSE</good>
									</logginginfo>
									<labels>
										<label2/>
									</labels>
									<comments>
										<mastercomment1/>
										<mastercomment2/>
										<mastercomment3/>
										<mastercomment4/>
									</comments>
									<file id="YIN_2013-05-28_LG-6 "/>
									<sourcetrack>
										<mediatype>video</mediatype>
									</sourcetrack>
									<fielddominance>none</fielddominance>
									<itemhistory>
										<uuid>B5A6CB65-1723-440E-AE63-4F8749C4110F</uuid>
									</itemhistory>
								</clipitem>
								<clipitem id="Raw Scene Matthew Duepner Walkabout387">
									<name>Raw Scene Matthew Duepner Walkabout</name>
									<duration>38484</duration>
									<rate>
										<ntsc>TRUE</ntsc>
										<timebase>24</timebase>
									</rate>
									<in>5157</in>
									<out>5266</out>
									<start>3411</start>
									<end>3520</end>
									<pixelaspectratio>Square</pixelaspectratio>
									<anamorphic>FALSE</anamorphic>
									<alphatype>black</alphatype>
									<masterclipid>Raw Scene Matthew Duepner Walkabout234</masterclipid>
									<logginginfo>
										<scene/>
										<shottake/>
										<lognote/>
										<good>FALSE</good>
									</logginginfo>
									<labels>
										<label2/>
									</labels>
									<comments>
										<mastercomment1/>
										<mastercomment2/>
										<mastercomment3/>
										<mastercomment4/>
									</comments>
									<file id="YIN_2013-05-28_LG-4 "/>
									<sourcetrack>
										<mediatype>video</mediatype>
									</sourcetrack>
									<fielddominance>none</fielddominance>
									<itemhistory>
										<uuid>403724E4-0617-4171-9897-254A868A2690</uuid>
									</itemhistory>
								</clipitem>
								<clipitem id="Raw Scene Matthew Duepner Walkabout388">
									<name>Raw Scene Matthew Duepner Walkabout</name>
									<duration>38484</duration>
									<rate>
										<ntsc>TRUE</ntsc>
										<timebase>24</timebase>
									</rate>
									<in>4745</in>
									<out>5111</out>
									<start>3520</start>
									<end>3886</end>
									<pixelaspectratio>Square</pixelaspectratio>
									<anamorphic>FALSE</anamorphic>
									<alphatype>black</alphatype>
									<masterclipid>Raw Scene Matthew Duepner Walkabout234</masterclipid>
									<logginginfo>
										<scene/>
										<shottake/>
										<lognote/>
										<good>FALSE</good>
									</logginginfo>
									<labels>
										<label2/>
									</labels>
									<comments>
										<mastercomment1/>
										<mastercomment2/>
										<mastercomment3/>
										<mastercomment4/>
									</comments>
									<file id="YIN_2013-05-28_LG-4 "/>
									<sourcetrack>
										<mediatype>video</mediatype>
									</sourcetrack>
									<fielddominance>none</fielddominance>
									<itemhistory>
										<uuid>15CE7A1E-1260-460A-B61B-30FC59454735</uuid>
									</itemhistory>
								</clipitem>
								<clipitem id="Raw Scene Matthew Duepner Walkabout389">
									<name>Raw Scene Matthew Duepner Walkabout</name>
									<duration>38484</duration>
									<rate>
										<ntsc>TRUE</ntsc>
										<timebase>24</timebase>
									</rate>
									<in>6473</in>
									<out>6911</out>
									<start>3886</start>
									<end>4324</end>
									<pixelaspectratio>Square</pixelaspectratio>
									<anamorphic>FALSE</anamorphic>
									<alphatype>black</alphatype>
									<masterclipid>Raw Scene Matthew Duepner Walkabout234</masterclipid>
									<logginginfo>
										<scene/>
										<shottake/>
										<lognote/>
										<good>FALSE</good>
									</logginginfo>
									<labels>
										<label2/>
									</labels>
									<comments>
										<mastercomment1/>
										<mastercomment2/>
										<mastercomment3/>
										<mastercomment4/>
									</comments>
									<file id="YIN_2013-05-28_LG-4 "/>
									<sourcetrack>
										<mediatype>video</mediatype>
									</sourcetrack>
									<fielddominance>none</fielddominance>
									<itemhistory>
										<uuid>62120C3D-29B4-482E-B6E3-3EAFF951DD1C</uuid>
									</itemhistory>
								</clipitem>
								<clipitem id="Raw Scene Matthew Duepner Walkabout390">
									<name>Raw Scene Matthew Duepner Walkabout</name>
									<duration>38484</duration>
									<rate>
										<ntsc>TRUE</ntsc>
										<timebase>24</timebase>
									</rate>
									<in>7070</in>
									<out>7250</out>
									<start>4324</start>
									<end>4504</end>
									<pixelaspectratio>Square</pixelaspectratio>
									<anamorphic>FALSE</anamorphic>
									<alphatype>black</alphatype>
									<masterclipid>Raw Scene Matthew Duepner Walkabout234</masterclipid>
									<logginginfo>
										<scene/>
										<shottake/>
										<lognote/>
										<good>FALSE</good>
									</logginginfo>
									<labels>
										<label2/>
									</labels>
									<comments>
										<mastercomment1/>
										<mastercomment2/>
										<mastercomment3/>
										<mastercomment4/>
									</comments>
									<file id="YIN_2013-05-28_LG-4 "/>
									<sourcetrack>
										<mediatype>video</mediatype>
									</sourcetrack>
									<link>
										<linkclipref>Raw Scene Matthew Duepner Walkabout390</linkclipref>
										<mediatype>video</mediatype>
										<trackindex>2</trackindex>
										<clipindex>32</clipindex>
									</link>
									<link>
										<linkclipref>Raw Scene Matthew Duepner Walkabout391</linkclipref>
										<mediatype>audio</mediatype>
										<trackindex>5</trackindex>
										<clipindex>25</clipindex>
										<groupindex>1</groupindex>
									</link>
									<link>
										<linkclipref>Raw Scene Matthew Duepner Walkabout392</linkclipref>
										<mediatype>audio</mediatype>
										<trackindex>6</trackindex>
										<clipindex>25</clipindex>
										<groupindex>1</groupindex>
									</link>
									<fielddominance>none</fielddominance>
									<itemhistory>
										<uuid>B9303C52-29E3-4BB2-8E15-7EE6606FF290</uuid>
									</itemhistory>
								</clipitem>
								<clipitem id="Raw Scene Matthew Duepner Walkabout393">
									<name>Raw Scene Matthew Duepner Walkabout</name>
									<duration>38484</duration>
									<rate>
										<ntsc>TRUE</ntsc>
										<timebase>24</timebase>
									</rate>
									<in>10560</in>
									<out>10599</out>
									<start>4504</start>
									<end>4543</end>
									<pixelaspectratio>Square</pixelaspectratio>
									<anamorphic>FALSE</anamorphic>
									<alphatype>black</alphatype>
									<masterclipid>Raw Scene Matthew Duepner Walkabout234</masterclipid>
									<logginginfo>
										<scene/>
										<shottake/>
										<lognote/>
										<good>FALSE</good>
									</logginginfo>
									<labels>
										<label2/>
									</labels>
									<comments>
										<mastercomment1/>
										<mastercomment2/>
										<mastercomment3/>
										<mastercomment4/>
									</comments>
									<file id="YIN_2013-05-28_LG-4 "/>
									<sourcetrack>
										<mediatype>video</mediatype>
									</sourcetrack>
									<link>
										<linkclipref>Raw Scene Matthew Duepner Walkabout393</linkclipref>
										<mediatype>video</mediatype>
										<trackindex>2</trackindex>
										<clipindex>33</clipindex>
									</link>
									<link>
										<linkclipref>Raw Scene Matthew Duepner Walkabout394</linkclipref>
										<mediatype>audio</mediatype>
										<trackindex>5</trackindex>
										<clipindex>26</clipindex>
										<groupindex>1</groupindex>
									</link>
									<link>
										<linkclipref>Raw Scene Matthew Duepner Walkabout395</linkclipref>
										<mediatype>audio</mediatype>
										<trackindex>6</trackindex>
										<clipindex>26</clipindex>
										<groupindex>1</groupindex>
									</link>
									<fielddominance>none</fielddominance>
									<itemhistory>
										<uuid>01F989E2-5CF1-494C-9F99-734EE898F390</uuid>
									</itemhistory>
								</clipitem>
								<clipitem id="Raw Scene Matthew Duepner Walkabout396">
									<name>Raw Scene Matthew Duepner Walkabout</name>
									<duration>38484</duration>
									<rate>
										<ntsc>TRUE</ntsc>
										<timebase>24</timebase>
									</rate>
									<in>11332</in>
									<out>11408</out>
									<start>4543</start>
									<end>4619</end>
									<pixelaspectratio>Square</pixelaspectratio>
									<anamorphic>FALSE</anamorphic>
									<alphatype>black</alphatype>
									<masterclipid>Raw Scene Matthew Duepner Walkabout234</masterclipid>
									<logginginfo>
										<scene/>
										<shottake/>
										<lognote/>
										<good>FALSE</good>
									</logginginfo>
									<labels>
										<label2/>
									</labels>
									<comments>
										<mastercomment1/>
										<mastercomment2/>
										<mastercomment3/>
										<mastercomment4/>
									</comments>
									<file id="YIN_2013-05-28_LG-4 "/>
									<sourcetrack>
										<mediatype>video</mediatype>
									</sourcetrack>
									<link>
										<linkclipref>Raw Scene Matthew Duepner Walkabout396</linkclipref>
										<mediatype>video</mediatype>
										<trackindex>2</trackindex>
										<clipindex>34</clipindex>
									</link>
									<link>
										<linkclipref>Raw Scene Matthew Duepner Walkabout397</linkclipref>
										<mediatype>audio</mediatype>
										<trackindex>5</trackindex>
										<clipindex>27</clipindex>
										<groupindex>1</groupindex>
									</link>
									<link>
										<linkclipref>Raw Scene Matthew Duepner Walkabout398</linkclipref>
										<mediatype>audio</mediatype>
										<trackindex>6</trackindex>
										<clipindex>27</clipindex>
										<groupindex>1</groupindex>
									</link>
									<fielddominance>none</fielddominance>
									<itemhistory>
										<uuid>C7DE1AAF-4A57-4A07-A948-CC23F887E9D6</uuid>
									</itemhistory>
								</clipitem>
								<clipitem id="Raw Scene Matthew Duepner Walkabout399">
									<name>Raw Scene Matthew Duepner Walkabout</name>
									<duration>38484</duration>
									<rate>
										<ntsc>TRUE</ntsc>
										<timebase>24</timebase>
									</rate>
									<in>11540</in>
									<out>11595</out>
									<start>4619</start>
									<end>4674</end>
									<pixelaspectratio>Square</pixelaspectratio>
									<anamorphic>FALSE</anamorphic>
									<alphatype>black</alphatype>
									<masterclipid>Raw Scene Matthew Duepner Walkabout234</masterclipid>
									<logginginfo>
										<scene/>
										<shottake/>
										<lognote/>
										<good>FALSE</good>
									</logginginfo>
									<labels>
										<label2/>
									</labels>
									<comments>
										<mastercomment1/>
										<mastercomment2/>
										<mastercomment3/>
										<mastercomment4/>
									</comments>
									<file id="YIN_2013-05-28_LG-4 "/>
									<sourcetrack>
										<mediatype>video</mediatype>
									</sourcetrack>
									<link>
										<linkclipref>Raw Scene Matthew Duepner Walkabout399</linkclipref>
										<mediatype>video</mediatype>
										<trackindex>2</trackindex>
										<clipindex>35</clipindex>
									</link>
									<link>
										<linkclipref>Raw Scene Matthew Duepner Walkabout400</linkclipref>
										<mediatype>audio</mediatype>
										<trackindex>5</trackindex>
										<clipindex>28</clipindex>
										<groupindex>1</groupindex>
									</link>
									<link>
										<linkclipref>Raw Scene Matthew Duepner Walkabout401</linkclipref>
										<mediatype>audio</mediatype>
										<trackindex>6</trackindex>
										<clipindex>28</clipindex>
										<groupindex>1</groupindex>
									</link>
									<fielddominance>none</fielddominance>
									<itemhistory>
										<uuid>DB34DCDB-7934-460A-AE68-E7731F3BCF58</uuid>
									</itemhistory>
								</clipitem>
								<clipitem id="Raw Scene Matthew Duepner Walkabout402">
									<name>Raw Scene Matthew Duepner Walkabout</name>
									<duration>38484</duration>
									<rate>
										<ntsc>TRUE</ntsc>
										<timebase>24</timebase>
									</rate>
									<in>13339</in>
									<out>13489</out>
									<start>4674</start>
									<end>4824</end>
									<pixelaspectratio>Square</pixelaspectratio>
									<anamorphic>FALSE</anamorphic>
									<alphatype>black</alphatype>
									<masterclipid>Raw Scene Matthew Duepner Walkabout234</masterclipid>
									<logginginfo>
										<scene/>
										<shottake/>
										<lognote/>
										<good>FALSE</good>
									</logginginfo>
									<labels>
										<label2/>
									</labels>
									<comments>
										<mastercomment1/>
										<mastercomment2/>
										<mastercomment3/>
										<mastercomment4/>
									</comments>
									<file id="YIN_2013-05-28_LG-4 "/>
									<sourcetrack>
										<mediatype>video</mediatype>
									</sourcetrack>
									<link>
										<linkclipref>Raw Scene Matthew Duepner Walkabout402</linkclipref>
										<mediatype>video</mediatype>
										<trackindex>2</trackindex>
										<clipindex>36</clipindex>
									</link>
									<link>
										<linkclipref>Raw Scene Matthew Duepner Walkabout403</linkclipref>
										<mediatype>audio</mediatype>
										<trackindex>5</trackindex>
										<clipindex>29</clipindex>
										<groupindex>1</groupindex>
									</link>
									<link>
										<linkclipref>Raw Scene Matthew Duepner Walkabout404</linkclipref>
										<mediatype>audio</mediatype>
										<trackindex>6</trackindex>
										<clipindex>29</clipindex>
										<groupindex>1</groupindex>
									</link>
									<fielddominance>none</fielddominance>
									<itemhistory>
										<uuid>7ACB8460-D0CE-433F-86CF-5B281426BABD</uuid>
									</itemhistory>
								</clipitem>
								<clipitem id="Raw Scene Matthew Duepner Walkabout405">
									<name>Raw Scene Matthew Duepner Walkabout</name>
									<duration>38484</duration>
									<rate>
										<ntsc>TRUE</ntsc>
										<timebase>24</timebase>
									</rate>
									<in>13825</in>
									<out>13967</out>
									<start>4824</start>
									<end>4966</end>
									<pixelaspectratio>Square</pixelaspectratio>
									<anamorphic>FALSE</anamorphic>
									<alphatype>black</alphatype>
									<masterclipid>Raw Scene Matthew Duepner Walkabout234</masterclipid>
									<logginginfo>
										<scene/>
										<shottake/>
										<lognote/>
										<good>FALSE</good>
									</logginginfo>
									<labels>
										<label2/>
									</labels>
									<comments>
										<mastercomment1/>
										<mastercomment2/>
										<mastercomment3/>
										<mastercomment4/>
									</comments>
									<file id="YIN_2013-05-28_LG-4 "/>
									<sourcetrack>
										<mediatype>video</mediatype>
									</sourcetrack>
									<link>
										<linkclipref>Raw Scene Matthew Duepner Walkabout405</linkclipref>
										<mediatype>video</mediatype>
										<trackindex>2</trackindex>
										<clipindex>37</clipindex>
									</link>
									<link>
										<linkclipref>Raw Scene Matthew Duepner Walkabout406</linkclipref>
										<mediatype>audio</mediatype>
										<trackindex>5</trackindex>
										<clipindex>30</clipindex>
										<groupindex>1</groupindex>
									</link>
									<link>
										<linkclipref>Raw Scene Matthew Duepner Walkabout407</linkclipref>
										<mediatype>audio</mediatype>
										<trackindex>6</trackindex>
										<clipindex>30</clipindex>
										<groupindex>1</groupindex>
									</link>
									<fielddominance>none</fielddominance>
									<itemhistory>
										<uuid>B18130C8-8FCE-48BD-A0D6-E126B8CB5BA3</uuid>
									</itemhistory>
								</clipitem>
								<clipitem id="Raw Scene Matthew Duepner Walkabout408">
									<name>Raw Scene Matthew Duepner Walkabout</name>
									<duration>38484</duration>
									<rate>
										<ntsc>TRUE</ntsc>
										<timebase>24</timebase>
									</rate>
									<in>14191</in>
									<out>14629</out>
									<start>4966</start>
									<end>5404</end>
									<pixelaspectratio>Square</pixelaspectratio>
									<anamorphic>FALSE</anamorphic>
									<alphatype>black</alphatype>
									<masterclipid>Raw Scene Matthew Duepner Walkabout234</masterclipid>
									<logginginfo>
										<scene/>
										<shottake/>
										<lognote/>
										<good>FALSE</good>
									</logginginfo>
									<labels>
										<label2/>
									</labels>
									<comments>
										<mastercomment1/>
										<mastercomment2/>
										<mastercomment3/>
										<mastercomment4/>
									</comments>
									<file id="YIN_2013-05-28_LG-4 "/>
									<sourcetrack>
										<mediatype>video</mediatype>
									</sourcetrack>
									<link>
										<linkclipref>Raw Scene Matthew Duepner Walkabout408</linkclipref>
										<mediatype>video</mediatype>
										<trackindex>2</trackindex>
										<clipindex>38</clipindex>
									</link>
									<link>
										<linkclipref>Raw Scene Matthew Duepner Walkabout409</linkclipref>
										<mediatype>audio</mediatype>
										<trackindex>5</trackindex>
										<clipindex>31</clipindex>
										<groupindex>1</groupindex>
									</link>
									<link>
										<linkclipref>Raw Scene Matthew Duepner Walkabout410</linkclipref>
										<mediatype>audio</mediatype>
										<trackindex>6</trackindex>
										<clipindex>31</clipindex>
										<groupindex>1</groupindex>
									</link>
									<fielddominance>none</fielddominance>
									<itemhistory>
										<uuid>766DCF75-A9A3-4A82-A8A8-C6938F8A3D57</uuid>
									</itemhistory>
								</clipitem>
								<clipitem id="Raw Scene Matthew Duepner Walkabout411">
									<name>Raw Scene Matthew Duepner Walkabout</name>
									<duration>38484</duration>
									<rate>
										<ntsc>TRUE</ntsc>
										<timebase>24</timebase>
									</rate>
									<in>14910</in>
									<out>15123</out>
									<start>5404</start>
									<end>5617</end>
									<pixelaspectratio>Square</pixelaspectratio>
									<anamorphic>FALSE</anamorphic>
									<alphatype>black</alphatype>
									<masterclipid>Raw Scene Matthew Duepner Walkabout234</masterclipid>
									<logginginfo>
										<scene/>
										<shottake/>
										<lognote/>
										<good>FALSE</good>
									</logginginfo>
									<labels>
										<label2/>
									</labels>
									<comments>
										<mastercomment1/>
										<mastercomment2/>
										<mastercomment3/>
										<mastercomment4/>
									</comments>
									<file id="YIN_2013-05-28_LG-4 "/>
									<sourcetrack>
										<mediatype>video</mediatype>
									</sourcetrack>
									<link>
										<linkclipref>Raw Scene Matthew Duepner Walkabout411</linkclipref>
										<mediatype>video</mediatype>
										<trackindex>2</trackindex>
										<clipindex>39</clipindex>
									</link>
									<link>
										<linkclipref>Raw Scene Matthew Duepner Walkabout412</linkclipref>
										<mediatype>audio</mediatype>
										<trackindex>5</trackindex>
										<clipindex>32</clipindex>
										<groupindex>1</groupindex>
									</link>
									<link>
										<linkclipref>Raw Scene Matthew Duepner Walkabout413</linkclipref>
										<mediatype>audio</mediatype>
										<trackindex>6</trackindex>
										<clipindex>32</clipindex>
										<groupindex>1</groupindex>
									</link>
									<fielddominance>none</fielddominance>
									<itemhistory>
										<uuid>16D575B7-ED23-4844-AF55-D738E4A820F8</uuid>
									</itemhistory>
								</clipitem>
								<clipitem id="Raw Scene Matthew Duepner Walkabout414">
									<name>Raw Scene Matthew Duepner Walkabout</name>
									<duration>38484</duration>
									<rate>
										<ntsc>TRUE</ntsc>
										<timebase>24</timebase>
									</rate>
									<in>17326</in>
									<out>17746</out>
									<start>5617</start>
									<end>6037</end>
									<pixelaspectratio>Square</pixelaspectratio>
									<anamorphic>FALSE</anamorphic>
									<alphatype>black</alphatype>
									<masterclipid>Raw Scene Matthew Duepner Walkabout234</masterclipid>
									<logginginfo>
										<scene/>
										<shottake/>
										<lognote/>
										<good>FALSE</good>
									</logginginfo>
									<labels>
										<label2/>
									</labels>
									<comments>
										<mastercomment1/>
										<mastercomment2/>
										<mastercomment3/>
										<mastercomment4/>
									</comments>
									<file id="YIN_2013-05-28_LG-4 "/>
									<sourcetrack>
										<mediatype>video</mediatype>
									</sourcetrack>
									<link>
										<linkclipref>Raw Scene Matthew Duepner Walkabout414</linkclipref>
										<mediatype>video</mediatype>
										<trackindex>2</trackindex>
										<clipindex>40</clipindex>
									</link>
									<link>
										<linkclipref>Raw Scene Matthew Duepner Walkabout415</linkclipref>
										<mediatype>audio</mediatype>
										<trackindex>5</trackindex>
										<clipindex>33</clipindex>
										<groupindex>1</groupindex>
									</link>
									<link>
										<linkclipref>Raw Scene Matthew Duepner Walkabout416</linkclipref>
										<mediatype>audio</mediatype>
										<trackindex>6</trackindex>
										<clipindex>33</clipindex>
										<groupindex>1</groupindex>
									</link>
									<fielddominance>none</fielddominance>
									<itemhistory>
										<uuid>9CB81FCC-6809-45FF-9806-076648F0390E</uuid>
									</itemhistory>
								</clipitem>
								<clipitem id="Raw Scene Matthew Duepner Walkabout417">
									<name>Raw Scene Matthew Duepner Walkabout</name>
									<duration>38484</duration>
									<rate>
										<ntsc>TRUE</ntsc>
										<timebase>24</timebase>
									</rate>
									<in>18256</in>
									<out>18413</out>
									<start>6037</start>
									<end>6194</end>
									<pixelaspectratio>Square</pixelaspectratio>
									<anamorphic>FALSE</anamorphic>
									<alphatype>black</alphatype>
									<masterclipid>Raw Scene Matthew Duepner Walkabout234</masterclipid>
									<logginginfo>
										<scene/>
										<shottake/>
										<lognote/>
										<good>FALSE</good>
									</logginginfo>
									<labels>
										<label2/>
									</labels>
									<comments>
										<mastercomment1/>
										<mastercomment2/>
										<mastercomment3/>
										<mastercomment4/>
									</comments>
									<file id="YIN_2013-05-28_LG-4 "/>
									<sourcetrack>
										<mediatype>video</mediatype>
									</sourcetrack>
									<link>
										<linkclipref>Raw Scene Matthew Duepner Walkabout417</linkclipref>
										<mediatype>video</mediatype>
										<trackindex>2</trackindex>
										<clipindex>41</clipindex>
									</link>
									<link>
										<linkclipref>Raw Scene Matthew Duepner Walkabout418</linkclipref>
										<mediatype>audio</mediatype>
										<trackindex>5</trackindex>
										<clipindex>34</clipindex>
										<groupindex>1</groupindex>
									</link>
									<link>
										<linkclipref>Raw Scene Matthew Duepner Walkabout419</linkclipref>
										<mediatype>audio</mediatype>
										<trackindex>6</trackindex>
										<clipindex>34</clipindex>
										<groupindex>1</groupindex>
									</link>
									<fielddominance>none</fielddominance>
									<itemhistory>
										<uuid>89DF0391-946A-45B0-BE82-DB54C48E0EDE</uuid>
									</itemhistory>
								</clipitem>
								<clipitem id="Raw Scene Matthew Duepner Walkabout420">
									<name>Raw Scene Matthew Duepner Walkabout</name>
									<duration>38484</duration>
									<rate>
										<ntsc>TRUE</ntsc>
										<timebase>24</timebase>
									</rate>
									<in>19758</in>
									<out>19953</out>
									<start>6194</start>
									<end>6389</end>
									<pixelaspectratio>Square</pixelaspectratio>
									<anamorphic>FALSE</anamorphic>
									<alphatype>black</alphatype>
									<masterclipid>Raw Scene Matthew Duepner Walkabout234</masterclipid>
									<logginginfo>
										<scene/>
										<shottake/>
										<lognote/>
										<good>FALSE</good>
									</logginginfo>
									<labels>
										<label2/>
									</labels>
									<comments>
										<mastercomment1/>
										<mastercomment2/>
										<mastercomment3/>
										<mastercomment4/>
									</comments>
									<file id="YIN_2013-05-28_LG-4 "/>
									<sourcetrack>
										<mediatype>video</mediatype>
									</sourcetrack>
									<link>
										<linkclipref>Raw Scene Matthew Duepner Walkabout420</linkclipref>
										<mediatype>video</mediatype>
										<trackindex>2</trackindex>
										<clipindex>42</clipindex>
									</link>
									<link>
										<linkclipref>Raw Scene Matthew Duepner Walkabout421</linkclipref>
										<mediatype>audio</mediatype>
										<trackindex>5</trackindex>
										<clipindex>36</clipindex>
										<groupindex>1</groupindex>
									</link>
									<link>
										<linkclipref>Raw Scene Matthew Duepner Walkabout422</linkclipref>
										<mediatype>audio</mediatype>
										<trackindex>6</trackindex>
										<clipindex>36</clipindex>
										<groupindex>1</groupindex>
									</link>
									<fielddominance>none</fielddominance>
									<itemhistory>
										<uuid>C7D448A3-6E1E-4EE5-9C71-68BF0038996C</uuid>
									</itemhistory>
								</clipitem>
								<clipitem id="Raw Scene Matthew Duepner Walkabout423">
									<name>Raw Scene Matthew Duepner Walkabout</name>
									<duration>38484</duration>
									<rate>
										<ntsc>TRUE</ntsc>
										<timebase>24</timebase>
									</rate>
									<in>21572</in>
									<out>21660</out>
									<start>6389</start>
									<end>6477</end>
									<pixelaspectratio>Square</pixelaspectratio>
									<anamorphic>FALSE</anamorphic>
									<alphatype>black</alphatype>
									<masterclipid>Raw Scene Matthew Duepner Walkabout234</masterclipid>
									<logginginfo>
										<scene/>
										<shottake/>
										<lognote/>
										<good>FALSE</good>
									</logginginfo>
									<labels>
										<label2/>
									</labels>
									<comments>
										<mastercomment1/>
										<mastercomment2/>
										<mastercomment3/>
										<mastercomment4/>
									</comments>
									<file id="YIN_2013-05-28_LG-4 "/>
									<sourcetrack>
										<mediatype>video</mediatype>
									</sourcetrack>
									<link>
										<linkclipref>Raw Scene Matthew Duepner Walkabout423</linkclipref>
										<mediatype>video</mediatype>
										<trackindex>2</trackindex>
										<clipindex>43</clipindex>
									</link>
									<link>
										<linkclipref>Raw Scene Matthew Duepner Walkabout424</linkclipref>
										<mediatype>audio</mediatype>
										<trackindex>5</trackindex>
										<clipindex>38</clipindex>
										<groupindex>1</groupindex>
									</link>
									<link>
										<linkclipref>Raw Scene Matthew Duepner Walkabout425</linkclipref>
										<mediatype>audio</mediatype>
										<trackindex>6</trackindex>
										<clipindex>38</clipindex>
										<groupindex>1</groupindex>
									</link>
									<fielddominance>none</fielddominance>
									<itemhistory>
										<uuid>70D51687-84D9-462C-B834-51B4281A473E</uuid>
									</itemhistory>
								</clipitem>
								<clipitem id="Raw Scene Matthew Duepner Walkabout426">
									<name>Raw Scene Matthew Duepner Walkabout</name>
									<duration>38484</duration>
									<rate>
										<ntsc>TRUE</ntsc>
										<timebase>24</timebase>
									</rate>
									<in>22012</in>
									<out>22143</out>
									<start>6477</start>
									<end>6608</end>
									<pixelaspectratio>Square</pixelaspectratio>
									<anamorphic>FALSE</anamorphic>
									<alphatype>black</alphatype>
									<masterclipid>Raw Scene Matthew Duepner Walkabout234</masterclipid>
									<logginginfo>
										<scene/>
										<shottake/>
										<lognote/>
										<good>FALSE</good>
									</logginginfo>
									<labels>
										<label2/>
									</labels>
									<comments>
										<mastercomment1/>
										<mastercomment2/>
										<mastercomment3/>
										<mastercomment4/>
									</comments>
									<file id="YIN_2013-05-28_LG-4 "/>
									<sourcetrack>
										<mediatype>video</mediatype>
									</sourcetrack>
									<link>
										<linkclipref>Raw Scene Matthew Duepner Walkabout426</linkclipref>
										<mediatype>video</mediatype>
										<trackindex>2</trackindex>
										<clipindex>44</clipindex>
									</link>
									<link>
										<linkclipref>Raw Scene Matthew Duepner Walkabout427</linkclipref>
										<mediatype>audio</mediatype>
										<trackindex>5</trackindex>
										<clipindex>39</clipindex>
										<groupindex>1</groupindex>
									</link>
									<link>
										<linkclipref>Raw Scene Matthew Duepner Walkabout428</linkclipref>
										<mediatype>audio</mediatype>
										<trackindex>6</trackindex>
										<clipindex>39</clipindex>
										<groupindex>1</groupindex>
									</link>
									<fielddominance>none</fielddominance>
									<itemhistory>
										<uuid>7BDD35AC-2730-4FF2-A510-2E4416D2FE9E</uuid>
									</itemhistory>
								</clipitem>
								<clipitem id="Raw Scene Matthew Duepner Walkabout429">
									<name>Raw Scene Matthew Duepner Walkabout</name>
									<duration>38484</duration>
									<rate>
										<ntsc>TRUE</ntsc>
										<timebase>24</timebase>
									</rate>
									<in>23496</in>
									<out>23611</out>
									<start>6608</start>
									<end>6723</end>
									<pixelaspectratio>Square</pixelaspectratio>
									<anamorphic>FALSE</anamorphic>
									<alphatype>black</alphatype>
									<masterclipid>Raw Scene Matthew Duepner Walkabout234</masterclipid>
									<logginginfo>
										<scene/>
										<shottake/>
										<lognote/>
										<good>FALSE</good>
									</logginginfo>
									<labels>
										<label2/>
									</labels>
									<comments>
										<mastercomment1/>
										<mastercomment2/>
										<mastercomment3/>
										<mastercomment4/>
									</comments>
									<file id="YIN_2013-05-28_LG-4 "/>
									<sourcetrack>
										<mediatype>video</mediatype>
									</sourcetrack>
									<link>
										<linkclipref>Raw Scene Matthew Duepner Walkabout429</linkclipref>
										<mediatype>video</mediatype>
										<trackindex>2</trackindex>
										<clipindex>45</clipindex>
									</link>
									<link>
										<linkclipref>Raw Scene Matthew Duepner Walkabout430</linkclipref>
										<mediatype>audio</mediatype>
										<trackindex>5</trackindex>
										<clipindex>40</clipindex>
										<groupindex>1</groupindex>
									</link>
									<link>
										<linkclipref>Raw Scene Matthew Duepner Walkabout431</linkclipref>
										<mediatype>audio</mediatype>
										<trackindex>6</trackindex>
										<clipindex>40</clipindex>
										<groupindex>1</groupindex>
									</link>
									<fielddominance>none</fielddominance>
									<itemhistory>
										<uuid>CEC7A6F8-FF89-4E8F-ABB8-BE6DB07EEDAF</uuid>
									</itemhistory>
								</clipitem>
								<clipitem id="Raw Scene Matthew Duepner Walkabout432">
									<name>Raw Scene Matthew Duepner Walkabout</name>
									<duration>38484</duration>
									<rate>
										<ntsc>TRUE</ntsc>
										<timebase>24</timebase>
									</rate>
									<in>27809</in>
									<out>28338</out>
									<start>6723</start>
									<end>7252</end>
									<pixelaspectratio>Square</pixelaspectratio>
									<anamorphic>FALSE</anamorphic>
									<alphatype>black</alphatype>
									<masterclipid>Raw Scene Matthew Duepner Walkabout234</masterclipid>
									<logginginfo>
										<scene/>
										<shottake/>
										<lognote/>
										<good>FALSE</good>
									</logginginfo>
									<labels>
										<label2/>
									</labels>
									<comments>
										<mastercomment1/>
										<mastercomment2/>
										<mastercomment3/>
										<mastercomment4/>
									</comments>
									<file id="YIN_2013-05-28_LG-4 "/>
									<sourcetrack>
										<mediatype>video</mediatype>
									</sourcetrack>
									<link>
										<linkclipref>Raw Scene Matthew Duepner Walkabout432</linkclipref>
										<mediatype>video</mediatype>
										<trackindex>2</trackindex>
										<clipindex>46</clipindex>
									</link>
									<link>
										<linkclipref>Raw Scene Matthew Duepner Walkabout433</linkclipref>
										<mediatype>audio</mediatype>
										<trackindex>5</trackindex>
										<clipindex>41</clipindex>
										<groupindex>1</groupindex>
									</link>
									<link>
										<linkclipref>Raw Scene Matthew Duepner Walkabout434</linkclipref>
										<mediatype>audio</mediatype>
										<trackindex>6</trackindex>
										<clipindex>41</clipindex>
										<groupindex>1</groupindex>
									</link>
									<fielddominance>none</fielddominance>
									<itemhistory>
										<uuid>A3FD7CBF-D340-4128-9D72-39A920215840</uuid>
									</itemhistory>
								</clipitem>
								<clipitem id="Raw Scene Matthew Duepner Walkabout435">
									<name>Raw Scene Matthew Duepner Walkabout</name>
									<duration>38484</duration>
									<rate>
										<ntsc>TRUE</ntsc>
										<timebase>24</timebase>
									</rate>
									<in>28558</in>
									<out>28719</out>
									<start>7252</start>
									<end>7413</end>
									<pixelaspectratio>Square</pixelaspectratio>
									<anamorphic>FALSE</anamorphic>
									<alphatype>black</alphatype>
									<masterclipid>Raw Scene Matthew Duepner Walkabout234</masterclipid>
									<logginginfo>
										<scene/>
										<shottake/>
										<lognote/>
										<good>FALSE</good>
									</logginginfo>
									<labels>
										<label2/>
									</labels>
									<comments>
										<mastercomment1/>
										<mastercomment2/>
										<mastercomment3/>
										<mastercomment4/>
									</comments>
									<file id="YIN_2013-05-28_LG-4 "/>
									<sourcetrack>
										<mediatype>video</mediatype>
									</sourcetrack>
									<link>
										<linkclipref>Raw Scene Matthew Duepner Walkabout435</linkclipref>
										<mediatype>video</mediatype>
										<trackindex>2</trackindex>
										<clipindex>47</clipindex>
									</link>
									<link>
										<linkclipref>Raw Scene Matthew Duepner Walkabout436</linkclipref>
										<mediatype>audio</mediatype>
										<trackindex>5</trackindex>
										<clipindex>42</clipindex>
										<groupindex>1</groupindex>
									</link>
									<link>
										<linkclipref>Raw Scene Matthew Duepner Walkabout437</linkclipref>
										<mediatype>audio</mediatype>
										<trackindex>6</trackindex>
										<clipindex>42</clipindex>
										<groupindex>1</groupindex>
									</link>
									<fielddominance>none</fielddominance>
									<itemhistory>
										<uuid>00920484-24F6-4086-B15A-059A2CBB44F6</uuid>
									</itemhistory>
								</clipitem>
								<clipitem id="Raw Scene Matthew Duepner Walkabout438">
									<name>Raw Scene Matthew Duepner Walkabout</name>
									<duration>38484</duration>
									<rate>
										<ntsc>TRUE</ntsc>
										<timebase>24</timebase>
									</rate>
									<in>30624</in>
									<out>30700</out>
									<start>7413</start>
									<end>7489</end>
									<pixelaspectratio>Square</pixelaspectratio>
									<anamorphic>FALSE</anamorphic>
									<alphatype>black</alphatype>
									<masterclipid>Raw Scene Matthew Duepner Walkabout234</masterclipid>
									<logginginfo>
										<scene/>
										<shottake/>
										<lognote/>
										<good>FALSE</good>
									</logginginfo>
									<labels>
										<label2/>
									</labels>
									<comments>
										<mastercomment1/>
										<mastercomment2/>
										<mastercomment3/>
										<mastercomment4/>
									</comments>
									<file id="YIN_2013-05-28_LG-4 "/>
									<sourcetrack>
										<mediatype>video</mediatype>
									</sourcetrack>
									<link>
										<linkclipref>Raw Scene Matthew Duepner Walkabout438</linkclipref>
										<mediatype>video</mediatype>
										<trackindex>2</trackindex>
										<clipindex>48</clipindex>
									</link>
									<link>
										<linkclipref>Raw Scene Matthew Duepner Walkabout439</linkclipref>
										<mediatype>audio</mediatype>
										<trackindex>5</trackindex>
										<clipindex>43</clipindex>
										<groupindex>1</groupindex>
									</link>
									<link>
										<linkclipref>Raw Scene Matthew Duepner Walkabout440</linkclipref>
										<mediatype>audio</mediatype>
										<trackindex>6</trackindex>
										<clipindex>43</clipindex>
										<groupindex>1</groupindex>
									</link>
									<fielddominance>none</fielddominance>
									<itemhistory>
										<uuid>1E78DCFF-6541-44AC-BB1E-63AE74F75B1A</uuid>
									</itemhistory>
								</clipitem>
								<clipitem id="Raw Scene Matthew Duepner Walkabout441">
									<name>Raw Scene Matthew Duepner Walkabout</name>
									<duration>38484</duration>
									<rate>
										<ntsc>TRUE</ntsc>
										<timebase>24</timebase>
									</rate>
									<in>30946</in>
									<out>30968</out>
									<start>7489</start>
									<end>7511</end>
									<pixelaspectratio>Square</pixelaspectratio>
									<anamorphic>FALSE</anamorphic>
									<alphatype>black</alphatype>
									<masterclipid>Raw Scene Matthew Duepner Walkabout234</masterclipid>
									<logginginfo>
										<scene/>
										<shottake/>
										<lognote/>
										<good>FALSE</good>
									</logginginfo>
									<labels>
										<label2/>
									</labels>
									<comments>
										<mastercomment1/>
										<mastercomment2/>
										<mastercomment3/>
										<mastercomment4/>
									</comments>
									<file id="YIN_2013-05-28_LG-4 "/>
									<sourcetrack>
										<mediatype>video</mediatype>
									</sourcetrack>
									<link>
										<linkclipref>Raw Scene Matthew Duepner Walkabout441</linkclipref>
										<mediatype>video</mediatype>
										<trackindex>2</trackindex>
										<clipindex>49</clipindex>
									</link>
									<link>
										<linkclipref>Raw Scene Matthew Duepner Walkabout442</linkclipref>
										<mediatype>audio</mediatype>
										<trackindex>5</trackindex>
										<clipindex>44</clipindex>
										<groupindex>1</groupindex>
									</link>
									<link>
										<linkclipref>Raw Scene Matthew Duepner Walkabout443</linkclipref>
										<mediatype>audio</mediatype>
										<trackindex>6</trackindex>
										<clipindex>44</clipindex>
										<groupindex>1</groupindex>
									</link>
									<fielddominance>none</fielddominance>
									<itemhistory>
										<uuid>05D884C3-CF9D-4D90-8275-C63379C38651</uuid>
									</itemhistory>
								</clipitem>
								<clipitem id="Raw Scene Matthew Duepner Walkabout444">
									<name>Raw Scene Matthew Duepner Walkabout</name>
									<duration>38484</duration>
									<rate>
										<ntsc>TRUE</ntsc>
										<timebase>24</timebase>
									</rate>
									<in>31032</in>
									<out>31190</out>
									<start>7511</start>
									<end>7669</end>
									<pixelaspectratio>Square</pixelaspectratio>
									<anamorphic>FALSE</anamorphic>
									<alphatype>black</alphatype>
									<masterclipid>Raw Scene Matthew Duepner Walkabout234</masterclipid>
									<logginginfo>
										<scene/>
										<shottake/>
										<lognote/>
										<good>FALSE</good>
									</logginginfo>
									<labels>
										<label2/>
									</labels>
									<comments>
										<mastercomment1/>
										<mastercomment2/>
										<mastercomment3/>
										<mastercomment4/>
									</comments>
									<file id="YIN_2013-05-28_LG-4 "/>
									<sourcetrack>
										<mediatype>video</mediatype>
									</sourcetrack>
									<link>
										<linkclipref>Raw Scene Matthew Duepner Walkabout444</linkclipref>
										<mediatype>video</mediatype>
										<trackindex>2</trackindex>
										<clipindex>50</clipindex>
									</link>
									<link>
										<linkclipref>Raw Scene Matthew Duepner Walkabout445</linkclipref>
										<mediatype>audio</mediatype>
										<trackindex>5</trackindex>
										<clipindex>45</clipindex>
										<groupindex>1</groupindex>
									</link>
									<link>
										<linkclipref>Raw Scene Matthew Duepner Walkabout446</linkclipref>
										<mediatype>audio</mediatype>
										<trackindex>6</trackindex>
										<clipindex>45</clipindex>
										<groupindex>1</groupindex>
									</link>
									<fielddominance>none</fielddominance>
									<itemhistory>
										<uuid>F4877F5B-4257-4B40-B557-C8F4A17B3196</uuid>
									</itemhistory>
								</clipitem>
								<clipitem id="Raw Scene Matthew Duepner Walkabout447">
									<name>Raw Scene Matthew Duepner Walkabout</name>
									<duration>38484</duration>
									<rate>
										<ntsc>TRUE</ntsc>
										<timebase>24</timebase>
									</rate>
									<in>31795</in>
									<out>31917</out>
									<start>7669</start>
									<end>7791</end>
									<pixelaspectratio>Square</pixelaspectratio>
									<anamorphic>FALSE</anamorphic>
									<alphatype>black</alphatype>
									<masterclipid>Raw Scene Matthew Duepner Walkabout234</masterclipid>
									<logginginfo>
										<scene/>
										<shottake/>
										<lognote/>
										<good>FALSE</good>
									</logginginfo>
									<labels>
										<label2/>
									</labels>
									<comments>
										<mastercomment1/>
										<mastercomment2/>
										<mastercomment3/>
										<mastercomment4/>
									</comments>
									<file id="YIN_2013-05-28_LG-4 "/>
									<sourcetrack>
										<mediatype>video</mediatype>
									</sourcetrack>
									<link>
										<linkclipref>Raw Scene Matthew Duepner Walkabout447</linkclipref>
										<mediatype>video</mediatype>
										<trackindex>2</trackindex>
										<clipindex>51</clipindex>
									</link>
									<link>
										<linkclipref>Raw Scene Matthew Duepner Walkabout448</linkclipref>
										<mediatype>audio</mediatype>
										<trackindex>5</trackindex>
										<clipindex>46</clipindex>
										<groupindex>1</groupindex>
									</link>
									<link>
										<linkclipref>Raw Scene Matthew Duepner Walkabout449</linkclipref>
										<mediatype>audio</mediatype>
										<trackindex>6</trackindex>
										<clipindex>46</clipindex>
										<groupindex>1</groupindex>
									</link>
									<fielddominance>none</fielddominance>
									<itemhistory>
										<uuid>1C2F8C47-4761-4EEF-A5C2-1E2EFB7BCCC8</uuid>
									</itemhistory>
								</clipitem>
								<clipitem id="Raw Scene Matthew Duepner Walkabout450">
									<name>Raw Scene Matthew Duepner Walkabout</name>
									<duration>38484</duration>
									<rate>
										<ntsc>TRUE</ntsc>
										<timebase>24</timebase>
									</rate>
									<in>32375</in>
									<out>32507</out>
									<start>7791</start>
									<end>7923</end>
									<pixelaspectratio>Square</pixelaspectratio>
									<anamorphic>FALSE</anamorphic>
									<alphatype>black</alphatype>
									<masterclipid>Raw Scene Matthew Duepner Walkabout234</masterclipid>
									<logginginfo>
										<scene/>
										<shottake/>
										<lognote/>
										<good>FALSE</good>
									</logginginfo>
									<labels>
										<label2/>
									</labels>
									<comments>
										<mastercomment1/>
										<mastercomment2/>
										<mastercomment3/>
										<mastercomment4/>
									</comments>
									<file id="YIN_2013-05-28_LG-4 "/>
									<sourcetrack>
										<mediatype>video</mediatype>
									</sourcetrack>
									<link>
										<linkclipref>Raw Scene Matthew Duepner Walkabout450</linkclipref>
										<mediatype>video</mediatype>
										<trackindex>2</trackindex>
										<clipindex>52</clipindex>
									</link>
									<link>
										<linkclipref>Raw Scene Matthew Duepner Walkabout451</linkclipref>
										<mediatype>audio</mediatype>
										<trackindex>5</trackindex>
										<clipindex>47</clipindex>
										<groupindex>1</groupindex>
									</link>
									<link>
										<linkclipref>Raw Scene Matthew Duepner Walkabout452</linkclipref>
										<mediatype>audio</mediatype>
										<trackindex>6</trackindex>
										<clipindex>47</clipindex>
										<groupindex>1</groupindex>
									</link>
									<fielddominance>none</fielddominance>
									<itemhistory>
										<uuid>531BD66A-39E2-43CA-B45F-5B3263C8A9D9</uuid>
									</itemhistory>
								</clipitem>
								<clipitem id="Raw Scene Matthew Duepner Walkabout453">
									<name>Raw Scene Matthew Duepner Walkabout</name>
									<duration>38484</duration>
									<rate>
										<ntsc>TRUE</ntsc>
										<timebase>24</timebase>
									</rate>
									<in>32997</in>
									<out>33142</out>
									<start>7923</start>
									<end>8068</end>
									<pixelaspectratio>Square</pixelaspectratio>
									<anamorphic>FALSE</anamorphic>
									<alphatype>black</alphatype>
									<masterclipid>Raw Scene Matthew Duepner Walkabout234</masterclipid>
									<logginginfo>
										<scene/>
										<shottake/>
										<lognote/>
										<good>FALSE</good>
									</logginginfo>
									<labels>
										<label2/>
									</labels>
									<comments>
										<mastercomment1/>
										<mastercomment2/>
										<mastercomment3/>
										<mastercomment4/>
									</comments>
									<file id="YIN_2013-05-28_LG-4 "/>
									<sourcetrack>
										<mediatype>video</mediatype>
									</sourcetrack>
									<link>
										<linkclipref>Raw Scene Matthew Duepner Walkabout453</linkclipref>
										<mediatype>video</mediatype>
										<trackindex>2</trackindex>
										<clipindex>53</clipindex>
									</link>
									<link>
										<linkclipref>Raw Scene Matthew Duepner Walkabout454</linkclipref>
										<mediatype>audio</mediatype>
										<trackindex>5</trackindex>
										<clipindex>48</clipindex>
										<groupindex>1</groupindex>
									</link>
									<link>
										<linkclipref>Raw Scene Matthew Duepner Walkabout455</linkclipref>
										<mediatype>audio</mediatype>
										<trackindex>6</trackindex>
										<clipindex>48</clipindex>
										<groupindex>1</groupindex>
									</link>
									<fielddominance>none</fielddominance>
									<itemhistory>
										<uuid>28F1FC56-73B6-4AB0-A428-A42FEF1D922F</uuid>
									</itemhistory>
								</clipitem>
								<clipitem id="Raw Scene Matthew Duepner Walkabout456">
									<name>Raw Scene Matthew Duepner Walkabout</name>
									<duration>38484</duration>
									<rate>
										<ntsc>TRUE</ntsc>
										<timebase>24</timebase>
									</rate>
									<in>37446</in>
									<out>37533</out>
									<start>8068</start>
									<end>8155</end>
									<pixelaspectratio>Square</pixelaspectratio>
									<anamorphic>FALSE</anamorphic>
									<alphatype>black</alphatype>
									<masterclipid>Raw Scene Matthew Duepner Walkabout234</masterclipid>
									<logginginfo>
										<scene/>
										<shottake/>
										<lognote/>
										<good>FALSE</good>
									</logginginfo>
									<labels>
										<label2/>
									</labels>
									<comments>
										<mastercomment1/>
										<mastercomment2/>
										<mastercomment3/>
										<mastercomment4/>
									</comments>
									<file id="YIN_2013-05-28_LG-4 "/>
									<sourcetrack>
										<mediatype>video</mediatype>
									</sourcetrack>
									<link>
										<linkclipref>Raw Scene Matthew Duepner Walkabout456</linkclipref>
										<mediatype>video</mediatype>
										<trackindex>2</trackindex>
										<clipindex>54</clipindex>
									</link>
									<link>
										<linkclipref>Raw Scene Matthew Duepner Walkabout457</linkclipref>
										<mediatype>audio</mediatype>
										<trackindex>5</trackindex>
										<clipindex>49</clipindex>
										<groupindex>1</groupindex>
									</link>
									<link>
										<linkclipref>Raw Scene Matthew Duepner Walkabout458</linkclipref>
										<mediatype>audio</mediatype>
										<trackindex>6</trackindex>
										<clipindex>49</clipindex>
										<groupindex>1</groupindex>
									</link>
									<fielddominance>none</fielddominance>
									<itemhistory>
										<uuid>ECAE7F24-A345-400E-AA5A-ADB6068A8870</uuid>
									</itemhistory>
								</clipitem>
								<clipitem id="Raw Scene Matthew Duepner Walkabout459">
									<name>Raw Scene Matthew Duepner Walkabout</name>
									<duration>38484</duration>
									<rate>
										<ntsc>TRUE</ntsc>
										<timebase>24</timebase>
									</rate>
									<in>36124</in>
									<out>36168</out>
									<start>8155</start>
									<end>8199</end>
									<pixelaspectratio>Square</pixelaspectratio>
									<anamorphic>FALSE</anamorphic>
									<alphatype>black</alphatype>
									<masterclipid>Raw Scene Matthew Duepner Walkabout234</masterclipid>
									<logginginfo>
										<scene/>
										<shottake/>
										<lognote/>
										<good>FALSE</good>
									</logginginfo>
									<labels>
										<label2/>
									</labels>
									<comments>
										<mastercomment1/>
										<mastercomment2/>
										<mastercomment3/>
										<mastercomment4/>
									</comments>
									<file id="YIN_2013-05-28_LG-4 "/>
									<sourcetrack>
										<mediatype>video</mediatype>
									</sourcetrack>
									<link>
										<linkclipref>Raw Scene Matthew Duepner Walkabout459</linkclipref>
										<mediatype>video</mediatype>
										<trackindex>2</trackindex>
										<clipindex>55</clipindex>
									</link>
									<link>
										<linkclipref>Raw Scene Matthew Duepner Walkabout460</linkclipref>
										<mediatype>audio</mediatype>
										<trackindex>5</trackindex>
										<clipindex>50</clipindex>
										<groupindex>1</groupindex>
									</link>
									<link>
										<linkclipref>Raw Scene Matthew Duepner Walkabout461</linkclipref>
										<mediatype>audio</mediatype>
										<trackindex>6</trackindex>
										<clipindex>50</clipindex>
										<groupindex>1</groupindex>
									</link>
									<fielddominance>none</fielddominance>
									<itemhistory>
										<uuid>05759871-58FA-4D51-BD5D-BE0682390C59</uuid>
									</itemhistory>
								</clipitem>
								<clipitem id="Raw Scene Matthew Duepner Walkabout462">
									<name>Raw Scene Matthew Duepner Walkabout</name>
									<duration>38484</duration>
									<rate>
										<ntsc>TRUE</ntsc>
										<timebase>24</timebase>
									</rate>
									<in>36397</in>
									<out>36474</out>
									<start>8199</start>
									<end>8276</end>
									<pixelaspectratio>Square</pixelaspectratio>
									<anamorphic>FALSE</anamorphic>
									<alphatype>black</alphatype>
									<masterclipid>Raw Scene Matthew Duepner Walkabout234</masterclipid>
									<logginginfo>
										<scene/>
										<shottake/>
										<lognote/>
										<good>FALSE</good>
									</logginginfo>
									<labels>
										<label2/>
									</labels>
									<comments>
										<mastercomment1/>
										<mastercomment2/>
										<mastercomment3/>
										<mastercomment4/>
									</comments>
									<file id="YIN_2013-05-28_LG-4 "/>
									<sourcetrack>
										<mediatype>video</mediatype>
									</sourcetrack>
									<link>
										<linkclipref>Raw Scene Matthew Duepner Walkabout462</linkclipref>
										<mediatype>video</mediatype>
										<trackindex>2</trackindex>
										<clipindex>56</clipindex>
									</link>
									<link>
										<linkclipref>Raw Scene Matthew Duepner Walkabout463</linkclipref>
										<mediatype>audio</mediatype>
										<trackindex>5</trackindex>
										<clipindex>51</clipindex>
										<groupindex>1</groupindex>
									</link>
									<link>
										<linkclipref>Raw Scene Matthew Duepner Walkabout464</linkclipref>
										<mediatype>audio</mediatype>
										<trackindex>6</trackindex>
										<clipindex>51</clipindex>
										<groupindex>1</groupindex>
									</link>
									<fielddominance>none</fielddominance>
									<itemhistory>
										<uuid>EA7C8B87-5529-4761-8948-A7E48246522F</uuid>
									</itemhistory>
								</clipitem>
								<clipitem id="Raw Scene Matthew Duepner Walkabout465">
									<name>Raw Scene Matthew Duepner Walkabout</name>
									<duration>38484</duration>
									<rate>
										<ntsc>TRUE</ntsc>
										<timebase>24</timebase>
									</rate>
									<in>37856</in>
									<out>37874</out>
									<start>8276</start>
									<end>8294</end>
									<pixelaspectratio>Square</pixelaspectratio>
									<anamorphic>FALSE</anamorphic>
									<alphatype>black</alphatype>
									<masterclipid>Raw Scene Matthew Duepner Walkabout234</masterclipid>
									<logginginfo>
										<scene/>
										<shottake/>
										<lognote/>
										<good>FALSE</good>
									</logginginfo>
									<labels>
										<label2/>
									</labels>
									<comments>
										<mastercomment1/>
										<mastercomment2/>
										<mastercomment3/>
										<mastercomment4/>
									</comments>
									<file id="YIN_2013-05-28_LG-4 "/>
									<sourcetrack>
										<mediatype>video</mediatype>
									</sourcetrack>
									<link>
										<linkclipref>Raw Scene Matthew Duepner Walkabout465</linkclipref>
										<mediatype>video</mediatype>
										<trackindex>2</trackindex>
										<clipindex>57</clipindex>
									</link>
									<link>
										<linkclipref>Raw Scene Matthew Duepner Walkabout466</linkclipref>
										<mediatype>audio</mediatype>
										<trackindex>5</trackindex>
										<clipindex>52</clipindex>
										<groupindex>1</groupindex>
									</link>
									<link>
										<linkclipref>Raw Scene Matthew Duepner Walkabout467</linkclipref>
										<mediatype>audio</mediatype>
										<trackindex>6</trackindex>
										<clipindex>52</clipindex>
										<groupindex>1</groupindex>
									</link>
									<fielddominance>none</fielddominance>
									<itemhistory>
										<uuid>06C9FA0C-3B53-48A1-A64D-2196FD86570C</uuid>
									</itemhistory>
								</clipitem>
								<clipitem id="Raw Scene Matthew Duepner Walkabout468">
									<name>Raw Scene Matthew Duepner Walkabout</name>
									<duration>38484</duration>
									<rate>
										<ntsc>TRUE</ntsc>
										<timebase>24</timebase>
									</rate>
									<in>38389</in>
									<out>38476</out>
									<start>8294</start>
									<end>8381</end>
									<pixelaspectratio>Square</pixelaspectratio>
									<anamorphic>FALSE</anamorphic>
									<alphatype>black</alphatype>
									<masterclipid>Raw Scene Matthew Duepner Walkabout234</masterclipid>
									<logginginfo>
										<scene/>
										<shottake/>
										<lognote/>
										<good>FALSE</good>
									</logginginfo>
									<labels>
										<label2/>
									</labels>
									<comments>
										<mastercomment1/>
										<mastercomment2/>
										<mastercomment3/>
										<mastercomment4/>
									</comments>
									<file id="YIN_2013-05-28_LG-4 "/>
									<sourcetrack>
										<mediatype>video</mediatype>
									</sourcetrack>
									<link>
										<linkclipref>Raw Scene Matthew Duepner Walkabout468</linkclipref>
										<mediatype>video</mediatype>
										<trackindex>2</trackindex>
										<clipindex>58</clipindex>
									</link>
									<link>
										<linkclipref>Raw Scene Matthew Duepner Walkabout469</linkclipref>
										<mediatype>audio</mediatype>
										<trackindex>5</trackindex>
										<clipindex>53</clipindex>
										<groupindex>1</groupindex>
									</link>
									<link>
										<linkclipref>Raw Scene Matthew Duepner Walkabout470</linkclipref>
										<mediatype>audio</mediatype>
										<trackindex>6</trackindex>
										<clipindex>53</clipindex>
										<groupindex>1</groupindex>
									</link>
									<fielddominance>none</fielddominance>
									<itemhistory>
										<uuid>2C85B129-102A-4365-ADE9-EDCEFE2A7C89</uuid>
									</itemhistory>
								</clipitem>
								<enabled>TRUE</enabled>
								<locked>FALSE</locked>
							</track>
						</video>
						<audio>
							<format>
								<samplecharacteristics>
									<depth>16</depth>
									<samplerate>48000</samplerate>
								</samplecharacteristics>
							</format>
							<outputs>
								<group>
									<index>1</index>
									<numchannels>1</numchannels>
									<downmix>0</downmix>
									<channel>
										<index>1</index>
									</channel>
								</group>
								<group>
									<index>2</index>
									<numchannels>1</numchannels>
									<downmix>0</downmix>
									<channel>
										<index>2</index>
									</channel>
								</group>
							</outputs>
							<in>-1</in>
							<out>-1</out>
							<track>
								<clipitem id="Raw Interview Matthew Duepner605">
									<name>Raw Interview Matthew Duepner</name>
									<duration>81486</duration>
									<rate>
										<ntsc>TRUE</ntsc>
										<timebase>24</timebase>
									</rate>
									<in>2994</in>
									<out>3033</out>
									<start>708</start>
									<end>747</end>
									<masterclipid>Raw Interview Matthew Duepner390</masterclipid>
									<logginginfo>
										<scene/>
										<shottake/>
										<lognote/>
										<good>FALSE</good>
									</logginginfo>
									<labels>
										<label2/>
									</labels>
									<comments>
										<mastercomment1/>
										<mastercomment2/>
										<mastercomment3/>
										<mastercomment4/>
									</comments>
									<file id="YIN_2013-05-28_LG-5 "/>
									<filter>
										<effect>
											<name>Audio Levels</name>
											<effectid>audiolevels</effectid>
											<effectcategory>audiolevels</effectcategory>
											<effecttype>audiolevels</effecttype>
											<mediatype>audio</mediatype>
											<parameter>
												<name>Level</name>
												<parameterid>level</parameterid>
												<valuemin>0</valuemin>
												<valuemax>3.98109</valuemax>
												<value>1.99526</value>
											</parameter>
										</effect>
									</filter>
									<filter>
										<effect>
											<name>Audio Pan</name>
											<effectid>audiopan</effectid>
											<effectcategory>audiopan</effectcategory>
											<effecttype>audiopan</effecttype>
											<mediatype>audio</mediatype>
											<parameter>
												<name>Pan</name>
												<parameterid>pan</parameterid>
												<valuemin>-1</valuemin>
												<valuemax>1</valuemax>
												<value>0</value>
											</parameter>
										</effect>
									</filter>
									<sourcetrack>
										<mediatype>audio</mediatype>
										<trackindex>1</trackindex>
									</sourcetrack>
									<link>
										<linkclipref>Raw Interview Matthew Duepner604</linkclipref>
										<mediatype>video</mediatype>
										<trackindex>1</trackindex>
										<clipindex>1</clipindex>
									</link>
									<link>
										<linkclipref>Raw Interview Matthew Duepner605</linkclipref>
										<mediatype>audio</mediatype>
										<trackindex>1</trackindex>
										<clipindex>1</clipindex>
										<groupindex>1</groupindex>
									</link>
									<link>
										<linkclipref>Raw Interview Matthew Duepner606</linkclipref>
										<mediatype>audio</mediatype>
										<trackindex>2</trackindex>
										<clipindex>1</clipindex>
										<groupindex>1</groupindex>
									</link>
									<itemhistory>
										<uuid>EED0DEB2-CF76-414F-95C3-C2138950E1D5</uuid>
									</itemhistory>
								</clipitem>
								<clipitem id="Raw Interview Matthew Duepner608">
									<name>Raw Interview Matthew Duepner</name>
									<duration>81486</duration>
									<rate>
										<ntsc>TRUE</ntsc>
										<timebase>24</timebase>
									</rate>
									<in>3050</in>
									<out>3174</out>
									<start>764</start>
									<end>888</end>
									<masterclipid>Raw Interview Matthew Duepner390</masterclipid>
									<logginginfo>
										<scene/>
										<shottake/>
										<lognote/>
										<good>FALSE</good>
									</logginginfo>
									<labels>
										<label2/>
									</labels>
									<comments>
										<mastercomment1/>
										<mastercomment2/>
										<mastercomment3/>
										<mastercomment4/>
									</comments>
									<file id="YIN_2013-05-28_LG-5 "/>
									<filter>
										<effect>
											<name>Audio Levels</name>
											<effectid>audiolevels</effectid>
											<effectcategory>audiolevels</effectcategory>
											<effecttype>audiolevels</effecttype>
											<mediatype>audio</mediatype>
											<parameter>
												<name>Level</name>
												<parameterid>level</parameterid>
												<valuemin>0</valuemin>
												<valuemax>3.98109</valuemax>
												<value>1.99526</value>
											</parameter>
										</effect>
									</filter>
									<filter>
										<effect>
											<name>Audio Pan</name>
											<effectid>audiopan</effectid>
											<effectcategory>audiopan</effectcategory>
											<effecttype>audiopan</effecttype>
											<mediatype>audio</mediatype>
											<parameter>
												<name>Pan</name>
												<parameterid>pan</parameterid>
												<valuemin>-1</valuemin>
												<valuemax>1</valuemax>
												<value>0</value>
											</parameter>
										</effect>
									</filter>
									<sourcetrack>
										<mediatype>audio</mediatype>
										<trackindex>1</trackindex>
									</sourcetrack>
									<link>
										<linkclipref>Raw Interview Matthew Duepner607</linkclipref>
										<mediatype>video</mediatype>
										<trackindex>1</trackindex>
										<clipindex>2</clipindex>
									</link>
									<link>
										<linkclipref>Raw Interview Matthew Duepner608</linkclipref>
										<mediatype>audio</mediatype>
										<trackindex>1</trackindex>
										<clipindex>2</clipindex>
										<groupindex>1</groupindex>
									</link>
									<link>
										<linkclipref>Raw Interview Matthew Duepner609</linkclipref>
										<mediatype>audio</mediatype>
										<trackindex>2</trackindex>
										<clipindex>2</clipindex>
										<groupindex>1</groupindex>
									</link>
									<itemhistory>
										<uuid>9DFF41F4-F2BD-4AC9-8863-3AFC9D040294</uuid>
									</itemhistory>
								</clipitem>
								<clipitem id="Raw Interview Matthew Duepner611">
									<name>Raw Interview Matthew Duepner</name>
									<duration>81486</duration>
									<rate>
										<ntsc>TRUE</ntsc>
										<timebase>24</timebase>
									</rate>
									<in>3586</in>
									<out>3633</out>
									<start>892</start>
									<end>939</end>
									<masterclipid>Raw Interview Matthew Duepner390</masterclipid>
									<logginginfo>
										<scene/>
										<shottake/>
										<lognote/>
										<good>FALSE</good>
									</logginginfo>
									<labels>
										<label2/>
									</labels>
									<comments>
										<mastercomment1/>
										<mastercomment2/>
										<mastercomment3/>
										<mastercomment4/>
									</comments>
									<file id="YIN_2013-05-28_LG-5 "/>
									<filter>
										<effect>
											<name>Audio Levels</name>
											<effectid>audiolevels</effectid>
											<effectcategory>audiolevels</effectcategory>
											<effecttype>audiolevels</effecttype>
											<mediatype>audio</mediatype>
											<parameter>
												<name>Level</name>
												<parameterid>level</parameterid>
												<valuemin>0</valuemin>
												<valuemax>3.98109</valuemax>
												<value>1.99526</value>
											</parameter>
										</effect>
									</filter>
									<filter>
										<effect>
											<name>Audio Pan</name>
											<effectid>audiopan</effectid>
											<effectcategory>audiopan</effectcategory>
											<effecttype>audiopan</effecttype>
											<mediatype>audio</mediatype>
											<parameter>
												<name>Pan</name>
												<parameterid>pan</parameterid>
												<valuemin>-1</valuemin>
												<valuemax>1</valuemax>
												<value>0</value>
											</parameter>
										</effect>
									</filter>
									<sourcetrack>
										<mediatype>audio</mediatype>
										<trackindex>1</trackindex>
									</sourcetrack>
									<link>
										<linkclipref>Raw Interview Matthew Duepner610</linkclipref>
										<mediatype>video</mediatype>
										<trackindex>1</trackindex>
										<clipindex>3</clipindex>
									</link>
									<link>
										<linkclipref>Raw Interview Matthew Duepner611</linkclipref>
										<mediatype>audio</mediatype>
										<trackindex>1</trackindex>
										<clipindex>3</clipindex>
										<groupindex>1</groupindex>
									</link>
									<link>
										<linkclipref>Raw Interview Matthew Duepner612</linkclipref>
										<mediatype>audio</mediatype>
										<trackindex>2</trackindex>
										<clipindex>3</clipindex>
										<groupindex>1</groupindex>
									</link>
									<itemhistory>
										<uuid>FD3568BE-B24E-4283-A777-6033D655E99E</uuid>
									</itemhistory>
								</clipitem>
								<clipitem id="Raw Interview Matthew Duepner614">
									<name>Raw Interview Matthew Duepner</name>
									<duration>81486</duration>
									<rate>
										<ntsc>TRUE</ntsc>
										<timebase>24</timebase>
									</rate>
									<in>6757</in>
									<out>6892</out>
									<start>1048</start>
									<end>1183</end>
									<masterclipid>Raw Interview Matthew Duepner390</masterclipid>
									<logginginfo>
										<scene/>
										<shottake/>
										<lognote/>
										<good>FALSE</good>
									</logginginfo>
									<labels>
										<label2/>
									</labels>
									<comments>
										<mastercomment1/>
										<mastercomment2/>
										<mastercomment3/>
										<mastercomment4/>
									</comments>
									<file id="YIN_2013-05-28_LG-5 "/>
									<filter>
										<effect>
											<name>Audio Levels</name>
											<effectid>audiolevels</effectid>
											<effectcategory>audiolevels</effectcategory>
											<effecttype>audiolevels</effecttype>
											<mediatype>audio</mediatype>
											<parameter>
												<name>Level</name>
												<parameterid>level</parameterid>
												<valuemin>0</valuemin>
												<valuemax>3.98109</valuemax>
												<value>1.99526</value>
											</parameter>
										</effect>
									</filter>
									<filter>
										<effect>
											<name>Audio Pan</name>
											<effectid>audiopan</effectid>
											<effectcategory>audiopan</effectcategory>
											<effecttype>audiopan</effecttype>
											<mediatype>audio</mediatype>
											<parameter>
												<name>Pan</name>
												<parameterid>pan</parameterid>
												<valuemin>-1</valuemin>
												<valuemax>1</valuemax>
												<value>0</value>
											</parameter>
										</effect>
									</filter>
									<sourcetrack>
										<mediatype>audio</mediatype>
										<trackindex>1</trackindex>
									</sourcetrack>
									<link>
										<linkclipref>Raw Interview Matthew Duepner613</linkclipref>
										<mediatype>video</mediatype>
										<trackindex>1</trackindex>
										<clipindex>4</clipindex>
									</link>
									<link>
										<linkclipref>Raw Interview Matthew Duepner614</linkclipref>
										<mediatype>audio</mediatype>
										<trackindex>1</trackindex>
										<clipindex>4</clipindex>
										<groupindex>1</groupindex>
									</link>
									<link>
										<linkclipref>Raw Interview Matthew Duepner615</linkclipref>
										<mediatype>audio</mediatype>
										<trackindex>2</trackindex>
										<clipindex>4</clipindex>
										<groupindex>1</groupindex>
									</link>
									<itemhistory>
										<uuid>E325F7B7-A4EA-42BD-8317-569EF7D89A7E</uuid>
									</itemhistory>
								</clipitem>
								<clipitem id="Raw Interview Matthew Duepner617">
									<name>Raw Interview Matthew Duepner</name>
									<duration>81486</duration>
									<rate>
										<ntsc>TRUE</ntsc>
										<timebase>24</timebase>
									</rate>
									<in>28387</in>
									<out>28619</out>
									<start>1249</start>
									<end>1481</end>
									<masterclipid>Raw Interview Matthew Duepner390</masterclipid>
									<logginginfo>
										<scene/>
										<shottake/>
										<lognote/>
										<good>FALSE</good>
									</logginginfo>
									<labels>
										<label2/>
									</labels>
									<comments>
										<mastercomment1/>
										<mastercomment2/>
										<mastercomment3/>
										<mastercomment4/>
									</comments>
									<file id="YIN_2013-05-28_LG-5 "/>
									<filter>
										<effect>
											<name>Audio Levels</name>
											<effectid>audiolevels</effectid>
											<effectcategory>audiolevels</effectcategory>
											<effecttype>audiolevels</effecttype>
											<mediatype>audio</mediatype>
											<parameter>
												<name>Level</name>
												<parameterid>level</parameterid>
												<valuemin>0</valuemin>
												<valuemax>3.98109</valuemax>
												<value>1.99526</value>
											</parameter>
										</effect>
									</filter>
									<filter>
										<effect>
											<name>Audio Pan</name>
											<effectid>audiopan</effectid>
											<effectcategory>audiopan</effectcategory>
											<effecttype>audiopan</effecttype>
											<mediatype>audio</mediatype>
											<parameter>
												<name>Pan</name>
												<parameterid>pan</parameterid>
												<valuemin>-1</valuemin>
												<valuemax>1</valuemax>
												<value>0</value>
											</parameter>
										</effect>
									</filter>
									<sourcetrack>
										<mediatype>audio</mediatype>
										<trackindex>1</trackindex>
									</sourcetrack>
									<link>
										<linkclipref>Raw Interview Matthew Duepner616</linkclipref>
										<mediatype>video</mediatype>
										<trackindex>1</trackindex>
										<clipindex>5</clipindex>
									</link>
									<link>
										<linkclipref>Raw Interview Matthew Duepner617</linkclipref>
										<mediatype>audio</mediatype>
										<trackindex>1</trackindex>
										<clipindex>5</clipindex>
										<groupindex>1</groupindex>
									</link>
									<link>
										<linkclipref>Raw Interview Matthew Duepner618</linkclipref>
										<mediatype>audio</mediatype>
										<trackindex>2</trackindex>
										<clipindex>5</clipindex>
										<groupindex>1</groupindex>
									</link>
									<itemhistory>
										<uuid>D1C7DE34-2EF1-401C-8D69-24634406AD0A</uuid>
									</itemhistory>
								</clipitem>
								<transitionitem>
									<rate>
										<ntsc>TRUE</ntsc>
										<timebase>24</timebase>
									</rate>
									<start>1493</start>
									<end>1496</end>
									<alignment>start-black</alignment>
									<effect>
										<name>Cross Fade ( 0dB)</name>
										<effectid>KGAudioTransCrossFade0dB</effectid>
										<effecttype>transition</effecttype>
										<mediatype>audio</mediatype>
										<startratio>0</startratio>
										<endratio>1</endratio>
										<reverse>FALSE</reverse>
									</effect>
								</transitionitem>
								<clipitem id="Raw Interview Matthew Duepner620">
									<name>Raw Interview Matthew Duepner</name>
									<duration>81486</duration>
									<rate>
										<ntsc>TRUE</ntsc>
										<timebase>24</timebase>
									</rate>
									<in>76128</in>
									<out>76339</out>
									<start>-1</start>
									<end>1704</end>
									<masterclipid>Raw Interview Matthew Duepner390</masterclipid>
									<logginginfo>
										<scene/>
										<shottake/>
										<lognote/>
										<good>FALSE</good>
									</logginginfo>
									<labels>
										<label2/>
									</labels>
									<comments>
										<mastercomment1/>
										<mastercomment2/>
										<mastercomment3/>
										<mastercomment4/>
									</comments>
									<file id="YIN_2013-05-28_LG-5 "/>
									<filter>
										<effect>
											<name>Audio Levels</name>
											<effectid>audiolevels</effectid>
											<effectcategory>audiolevels</effectcategory>
											<effecttype>audiolevels</effecttype>
											<mediatype>audio</mediatype>
											<parameter>
												<name>Level</name>
												<parameterid>level</parameterid>
												<valuemin>0</valuemin>
												<valuemax>3.98109</valuemax>
												<value>1.99526</value>
											</parameter>
										</effect>
									</filter>
									<filter>
										<effect>
											<name>Audio Pan</name>
											<effectid>audiopan</effectid>
											<effectcategory>audiopan</effectcategory>
											<effecttype>audiopan</effecttype>
											<mediatype>audio</mediatype>
											<parameter>
												<name>Pan</name>
												<parameterid>pan</parameterid>
												<valuemin>-1</valuemin>
												<valuemax>1</valuemax>
												<value>0</value>
											</parameter>
										</effect>
									</filter>
									<sourcetrack>
										<mediatype>audio</mediatype>
										<trackindex>1</trackindex>
									</sourcetrack>
									<link>
										<linkclipref>Raw Interview Matthew Duepner619</linkclipref>
										<mediatype>video</mediatype>
										<trackindex>1</trackindex>
										<clipindex>6</clipindex>
									</link>
									<link>
										<linkclipref>Raw Interview Matthew Duepner620</linkclipref>
										<mediatype>audio</mediatype>
										<trackindex>1</trackindex>
										<clipindex>7</clipindex>
										<groupindex>1</groupindex>
									</link>
									<link>
										<linkclipref>Raw Interview Matthew Duepner621</linkclipref>
										<mediatype>audio</mediatype>
										<trackindex>2</trackindex>
										<clipindex>7</clipindex>
										<groupindex>1</groupindex>
									</link>
									<itemhistory>
										<uuid>15492F8B-7299-4E6E-9230-A46EDA59FAF1</uuid>
									</itemhistory>
								</clipitem>
								<clipitem id="Raw Interview Matthew Duepner623">
									<name>Raw Interview Matthew Duepner</name>
									<duration>81486</duration>
									<rate>
										<ntsc>TRUE</ntsc>
										<timebase>24</timebase>
									</rate>
									<in>5496</in>
									<out>5591</out>
									<start>1769</start>
									<end>1864</end>
									<masterclipid>Raw Interview Matthew Duepner390</masterclipid>
									<logginginfo>
										<scene/>
										<shottake/>
										<lognote/>
										<good>FALSE</good>
									</logginginfo>
									<labels>
										<label2/>
									</labels>
									<comments>
										<mastercomment1/>
										<mastercomment2/>
										<mastercomment3/>
										<mastercomment4/>
									</comments>
									<file id="YIN_2013-05-28_LG-5 "/>
									<filter>
										<effect>
											<name>Audio Levels</name>
											<effectid>audiolevels</effectid>
											<effectcategory>audiolevels</effectcategory>
											<effecttype>audiolevels</effecttype>
											<mediatype>audio</mediatype>
											<parameter>
												<name>Level</name>
												<parameterid>level</parameterid>
												<valuemin>0</valuemin>
												<valuemax>3.98109</valuemax>
												<value>1.99526</value>
											</parameter>
										</effect>
									</filter>
									<filter>
										<effect>
											<name>Audio Pan</name>
											<effectid>audiopan</effectid>
											<effectcategory>audiopan</effectcategory>
											<effecttype>audiopan</effecttype>
											<mediatype>audio</mediatype>
											<parameter>
												<name>Pan</name>
												<parameterid>pan</parameterid>
												<valuemin>-1</valuemin>
												<valuemax>1</valuemax>
												<value>0</value>
											</parameter>
										</effect>
									</filter>
									<sourcetrack>
										<mediatype>audio</mediatype>
										<trackindex>1</trackindex>
									</sourcetrack>
									<link>
										<linkclipref>Raw Interview Matthew Duepner622</linkclipref>
										<mediatype>video</mediatype>
										<trackindex>1</trackindex>
										<clipindex>7</clipindex>
									</link>
									<link>
										<linkclipref>Raw Interview Matthew Duepner623</linkclipref>
										<mediatype>audio</mediatype>
										<trackindex>1</trackindex>
										<clipindex>8</clipindex>
										<groupindex>1</groupindex>
									</link>
									<link>
										<linkclipref>Raw Interview Matthew Duepner624</linkclipref>
										<mediatype>audio</mediatype>
										<trackindex>2</trackindex>
										<clipindex>8</clipindex>
										<groupindex>1</groupindex>
									</link>
									<itemhistory>
										<uuid>180CBA86-9AD7-4CD2-8DFB-AFEB2EDB044A</uuid>
									</itemhistory>
								</clipitem>
								<clipitem id="Raw Interview Matthew Duepner626">
									<name>Raw Interview Matthew Duepner</name>
									<duration>81486</duration>
									<rate>
										<ntsc>TRUE</ntsc>
										<timebase>24</timebase>
									</rate>
									<in>6176</in>
									<out>6256</out>
									<start>1864</start>
									<end>1944</end>
									<masterclipid>Raw Interview Matthew Duepner390</masterclipid>
									<logginginfo>
										<scene/>
										<shottake/>
										<lognote/>
										<good>FALSE</good>
									</logginginfo>
									<labels>
										<label2/>
									</labels>
									<comments>
										<mastercomment1/>
										<mastercomment2/>
										<mastercomment3/>
										<mastercomment4/>
									</comments>
									<file id="YIN_2013-05-28_LG-5 "/>
									<filter>
										<effect>
											<name>Audio Levels</name>
											<effectid>audiolevels</effectid>
											<effectcategory>audiolevels</effectcategory>
											<effecttype>audiolevels</effecttype>
											<mediatype>audio</mediatype>
											<parameter>
												<name>Level</name>
												<parameterid>level</parameterid>
												<valuemin>0</valuemin>
												<valuemax>3.98109</valuemax>
												<value>1.99526</value>
											</parameter>
										</effect>
									</filter>
									<filter>
										<effect>
											<name>Audio Pan</name>
											<effectid>audiopan</effectid>
											<effectcategory>audiopan</effectcategory>
											<effecttype>audiopan</effecttype>
											<mediatype>audio</mediatype>
											<parameter>
												<name>Pan</name>
												<parameterid>pan</parameterid>
												<valuemin>-1</valuemin>
												<valuemax>1</valuemax>
												<value>0</value>
											</parameter>
										</effect>
									</filter>
									<sourcetrack>
										<mediatype>audio</mediatype>
										<trackindex>1</trackindex>
									</sourcetrack>
									<link>
										<linkclipref>Raw Interview Matthew Duepner625</linkclipref>
										<mediatype>video</mediatype>
										<trackindex>1</trackindex>
										<clipindex>8</clipindex>
									</link>
									<link>
										<linkclipref>Raw Interview Matthew Duepner626</linkclipref>
										<mediatype>audio</mediatype>
										<trackindex>1</trackindex>
										<clipindex>9</clipindex>
										<groupindex>1</groupindex>
									</link>
									<link>
										<linkclipref>Raw Interview Matthew Duepner627</linkclipref>
										<mediatype>audio</mediatype>
										<trackindex>2</trackindex>
										<clipindex>9</clipindex>
										<groupindex>1</groupindex>
									</link>
									<itemhistory>
										<uuid>12090EEC-E2D5-4688-A480-F9D5AD98A5D6</uuid>
									</itemhistory>
								</clipitem>
								<clipitem id="Raw Interview Matthew Duepner629">
									<name>Raw Interview Matthew Duepner</name>
									<duration>81486</duration>
									<rate>
										<ntsc>TRUE</ntsc>
										<timebase>24</timebase>
									</rate>
									<in>26630</in>
									<out>26790</out>
									<start>1944</start>
									<end>2104</end>
									<masterclipid>Raw Interview Matthew Duepner390</masterclipid>
									<logginginfo>
										<scene/>
										<shottake/>
										<lognote/>
										<good>FALSE</good>
									</logginginfo>
									<labels>
										<label2/>
									</labels>
									<comments>
										<mastercomment1/>
										<mastercomment2/>
										<mastercomment3/>
										<mastercomment4/>
									</comments>
									<file id="YIN_2013-05-28_LG-5 "/>
									<filter>
										<effect>
											<name>Audio Levels</name>
											<effectid>audiolevels</effectid>
											<effectcategory>audiolevels</effectcategory>
											<effecttype>audiolevels</effecttype>
											<mediatype>audio</mediatype>
											<parameter>
												<name>Level</name>
												<parameterid>level</parameterid>
												<valuemin>0</valuemin>
												<valuemax>3.98109</valuemax>
												<value>1.99526</value>
											</parameter>
										</effect>
									</filter>
									<filter>
										<effect>
											<name>Audio Pan</name>
											<effectid>audiopan</effectid>
											<effectcategory>audiopan</effectcategory>
											<effecttype>audiopan</effecttype>
											<mediatype>audio</mediatype>
											<parameter>
												<name>Pan</name>
												<parameterid>pan</parameterid>
												<valuemin>-1</valuemin>
												<valuemax>1</valuemax>
												<value>0</value>
											</parameter>
										</effect>
									</filter>
									<sourcetrack>
										<mediatype>audio</mediatype>
										<trackindex>1</trackindex>
									</sourcetrack>
									<link>
										<linkclipref>Raw Interview Matthew Duepner628</linkclipref>
										<mediatype>video</mediatype>
										<trackindex>1</trackindex>
										<clipindex>9</clipindex>
									</link>
									<link>
										<linkclipref>Raw Interview Matthew Duepner629</linkclipref>
										<mediatype>audio</mediatype>
										<trackindex>1</trackindex>
										<clipindex>10</clipindex>
										<groupindex>1</groupindex>
									</link>
									<link>
										<linkclipref>Raw Interview Matthew Duepner630</linkclipref>
										<mediatype>audio</mediatype>
										<trackindex>2</trackindex>
										<clipindex>10</clipindex>
										<groupindex>1</groupindex>
									</link>
									<itemhistory>
										<uuid>3F64119C-E0FF-4460-89B0-9775672ACBB4</uuid>
									</itemhistory>
								</clipitem>
								<clipitem id="Raw Interview Matthew Duepner632">
									<name>Raw Interview Matthew Duepner</name>
									<duration>81486</duration>
									<rate>
										<ntsc>TRUE</ntsc>
										<timebase>24</timebase>
									</rate>
									<in>27232</in>
									<out>27302</out>
									<start>2104</start>
									<end>2174</end>
									<masterclipid>Raw Interview Matthew Duepner390</masterclipid>
									<logginginfo>
										<scene/>
										<shottake/>
										<lognote/>
										<good>FALSE</good>
									</logginginfo>
									<labels>
										<label2/>
									</labels>
									<comments>
										<mastercomment1/>
										<mastercomment2/>
										<mastercomment3/>
										<mastercomment4/>
									</comments>
									<file id="YIN_2013-05-28_LG-5 "/>
									<filter>
										<effect>
											<name>Audio Levels</name>
											<effectid>audiolevels</effectid>
											<effectcategory>audiolevels</effectcategory>
											<effecttype>audiolevels</effecttype>
											<mediatype>audio</mediatype>
											<parameter>
												<name>Level</name>
												<parameterid>level</parameterid>
												<valuemin>0</valuemin>
												<valuemax>3.98109</valuemax>
												<value>1.99526</value>
											</parameter>
										</effect>
									</filter>
									<filter>
										<effect>
											<name>Audio Pan</name>
											<effectid>audiopan</effectid>
											<effectcategory>audiopan</effectcategory>
											<effecttype>audiopan</effecttype>
											<mediatype>audio</mediatype>
											<parameter>
												<name>Pan</name>
												<parameterid>pan</parameterid>
												<valuemin>-1</valuemin>
												<valuemax>1</valuemax>
												<value>0</value>
											</parameter>
										</effect>
									</filter>
									<sourcetrack>
										<mediatype>audio</mediatype>
										<trackindex>1</trackindex>
									</sourcetrack>
									<link>
										<linkclipref>Raw Interview Matthew Duepner631</linkclipref>
										<mediatype>video</mediatype>
										<trackindex>1</trackindex>
										<clipindex>10</clipindex>
									</link>
									<link>
										<linkclipref>Raw Interview Matthew Duepner632</linkclipref>
										<mediatype>audio</mediatype>
										<trackindex>1</trackindex>
										<clipindex>11</clipindex>
										<groupindex>1</groupindex>
									</link>
									<link>
										<linkclipref>Raw Interview Matthew Duepner633</linkclipref>
										<mediatype>audio</mediatype>
										<trackindex>2</trackindex>
										<clipindex>11</clipindex>
										<groupindex>1</groupindex>
									</link>
									<itemhistory>
										<uuid>FB65F1E3-9349-4A59-BF73-E4C6D65CA9F2</uuid>
									</itemhistory>
								</clipitem>
								<clipitem id="Raw Scene Matthew Duepner Printing157">
									<name>Raw Scene Matthew Duepner Printing</name>
									<duration>28553</duration>
									<rate>
										<ntsc>TRUE</ntsc>
										<timebase>24</timebase>
									</rate>
									<in>14375</in>
									<out>14613</out>
									<start>2233</start>
									<end>2471</end>
									<masterclipid>Raw Scene Matthew Duepner Printing72</masterclipid>
									<logginginfo>
										<scene/>
										<shottake/>
										<lognote/>
										<good>FALSE</good>
									</logginginfo>
									<labels>
										<label2/>
									</labels>
									<comments>
										<mastercomment1/>
										<mastercomment2/>
										<mastercomment3/>
										<mastercomment4/>
									</comments>
									<file id="YIN_2013-05-28_LG-6 "/>
									<filter>
										<effect>
											<name>Audio Levels</name>
											<effectid>audiolevels</effectid>
											<effectcategory>audiolevels</effectcategory>
											<effecttype>audiolevels</effecttype>
											<mediatype>audio</mediatype>
											<parameter>
												<name>Level</name>
												<parameterid>level</parameterid>
												<valuemin>0</valuemin>
												<valuemax>3.98109</valuemax>
												<value>1.9718</value>
											</parameter>
										</effect>
									</filter>
									<filter>
										<effect>
											<name>Audio Pan</name>
											<effectid>audiopan</effectid>
											<effectcategory>audiopan</effectcategory>
											<effecttype>audiopan</effecttype>
											<mediatype>audio</mediatype>
											<parameter>
												<name>Pan</name>
												<parameterid>pan</parameterid>
												<valuemin>-1</valuemin>
												<valuemax>1</valuemax>
												<value>0</value>
											</parameter>
										</effect>
									</filter>
									<sourcetrack>
										<mediatype>audio</mediatype>
										<trackindex>1</trackindex>
									</sourcetrack>
									<link>
										<linkclipref>Raw Scene Matthew Duepner Printing157</linkclipref>
										<mediatype>audio</mediatype>
										<trackindex>1</trackindex>
										<clipindex>12</clipindex>
										<groupindex>1</groupindex>
									</link>
									<link>
										<linkclipref>Raw Scene Matthew Duepner Printing158</linkclipref>
										<mediatype>audio</mediatype>
										<trackindex>2</trackindex>
										<clipindex>12</clipindex>
										<groupindex>1</groupindex>
									</link>
									<itemhistory>
										<uuid>5CFF9F9D-7687-4741-8D1A-8700A2BC03E1</uuid>
									</itemhistory>
								</clipitem>
								<clipitem id="Raw Interview Matthew Duepner635">
									<name>Raw Interview Matthew Duepner</name>
									<duration>81486</duration>
									<rate>
										<ntsc>TRUE</ntsc>
										<timebase>24</timebase>
									</rate>
									<in>14189</in>
									<out>14301</out>
									<start>2471</start>
									<end>2583</end>
									<masterclipid>Raw Interview Matthew Duepner390</masterclipid>
									<logginginfo>
										<scene/>
										<shottake/>
										<lognote/>
										<good>FALSE</good>
									</logginginfo>
									<labels>
										<label2/>
									</labels>
									<comments>
										<mastercomment1/>
										<mastercomment2/>
										<mastercomment3/>
										<mastercomment4/>
									</comments>
									<file id="YIN_2013-05-28_LG-5 "/>
									<filter>
										<effect>
											<name>Audio Levels</name>
											<effectid>audiolevels</effectid>
											<effectcategory>audiolevels</effectcategory>
											<effecttype>audiolevels</effecttype>
											<mediatype>audio</mediatype>
											<parameter>
												<name>Level</name>
												<parameterid>level</parameterid>
												<valuemin>0</valuemin>
												<valuemax>3.98109</valuemax>
												<value>1.99526</value>
											</parameter>
										</effect>
									</filter>
									<filter>
										<effect>
											<name>Audio Pan</name>
											<effectid>audiopan</effectid>
											<effectcategory>audiopan</effectcategory>
											<effecttype>audiopan</effecttype>
											<mediatype>audio</mediatype>
											<parameter>
												<name>Pan</name>
												<parameterid>pan</parameterid>
												<valuemin>-1</valuemin>
												<valuemax>1</valuemax>
												<value>0</value>
											</parameter>
										</effect>
									</filter>
									<sourcetrack>
										<mediatype>audio</mediatype>
										<trackindex>1</trackindex>
									</sourcetrack>
									<link>
										<linkclipref>Raw Interview Matthew Duepner634</linkclipref>
										<mediatype>video</mediatype>
										<trackindex>1</trackindex>
										<clipindex>11</clipindex>
									</link>
									<link>
										<linkclipref>Raw Interview Matthew Duepner635</linkclipref>
										<mediatype>audio</mediatype>
										<trackindex>1</trackindex>
										<clipindex>13</clipindex>
										<groupindex>1</groupindex>
									</link>
									<link>
										<linkclipref>Raw Interview Matthew Duepner636</linkclipref>
										<mediatype>audio</mediatype>
										<trackindex>2</trackindex>
										<clipindex>13</clipindex>
										<groupindex>1</groupindex>
									</link>
									<itemhistory>
										<uuid>DF94E5B6-5354-4C21-A762-EB2F81A2D8AF</uuid>
									</itemhistory>
								</clipitem>
								<clipitem id="Raw Interview Matthew Duepner638">
									<name>Raw Interview Matthew Duepner</name>
									<duration>81486</duration>
									<rate>
										<ntsc>TRUE</ntsc>
										<timebase>24</timebase>
									</rate>
									<in>25948</in>
									<out>26160</out>
									<start>2583</start>
									<end>2795</end>
									<masterclipid>Raw Interview Matthew Duepner390</masterclipid>
									<logginginfo>
										<scene/>
										<shottake/>
										<lognote/>
										<good>FALSE</good>
									</logginginfo>
									<labels>
										<label2/>
									</labels>
									<comments>
										<mastercomment1/>
										<mastercomment2/>
										<mastercomment3/>
										<mastercomment4/>
									</comments>
									<file id="YIN_2013-05-28_LG-5 "/>
									<filter>
										<effect>
											<name>Audio Levels</name>
											<effectid>audiolevels</effectid>
											<effectcategory>audiolevels</effectcategory>
											<effecttype>audiolevels</effecttype>
											<mediatype>audio</mediatype>
											<parameter>
												<name>Level</name>
												<parameterid>level</parameterid>
												<valuemin>0</valuemin>
												<valuemax>3.98109</valuemax>
												<value>1.99526</value>
											</parameter>
										</effect>
									</filter>
									<filter>
										<effect>
											<name>Audio Pan</name>
											<effectid>audiopan</effectid>
											<effectcategory>audiopan</effectcategory>
											<effecttype>audiopan</effecttype>
											<mediatype>audio</mediatype>
											<parameter>
												<name>Pan</name>
												<parameterid>pan</parameterid>
												<valuemin>-1</valuemin>
												<valuemax>1</valuemax>
												<value>0</value>
											</parameter>
										</effect>
									</filter>
									<sourcetrack>
										<mediatype>audio</mediatype>
										<trackindex>1</trackindex>
									</sourcetrack>
									<link>
										<linkclipref>Raw Interview Matthew Duepner637</linkclipref>
										<mediatype>video</mediatype>
										<trackindex>1</trackindex>
										<clipindex>12</clipindex>
									</link>
									<link>
										<linkclipref>Raw Interview Matthew Duepner638</linkclipref>
										<mediatype>audio</mediatype>
										<trackindex>1</trackindex>
										<clipindex>14</clipindex>
										<groupindex>1</groupindex>
									</link>
									<link>
										<linkclipref>Raw Interview Matthew Duepner639</linkclipref>
										<mediatype>audio</mediatype>
										<trackindex>2</trackindex>
										<clipindex>14</clipindex>
										<groupindex>1</groupindex>
									</link>
									<itemhistory>
										<uuid>53527D3A-2CCC-45E3-92F1-43BEE51C6183</uuid>
									</itemhistory>
								</clipitem>
								<clipitem id="Raw Scene Matthew Duepner Printing142">
									<name>Raw Scene Matthew Duepner Printing</name>
									<duration>28553</duration>
									<rate>
										<ntsc>TRUE</ntsc>
										<timebase>24</timebase>
									</rate>
									<in>22464</in>
									<out>22508</out>
									<start>2795</start>
									<end>2839</end>
									<masterclipid>Raw Scene Matthew Duepner Printing72</masterclipid>
									<logginginfo>
										<scene/>
										<shottake/>
										<lognote/>
										<good>FALSE</good>
									</logginginfo>
									<labels>
										<label2/>
									</labels>
									<comments>
										<mastercomment1/>
										<mastercomment2/>
										<mastercomment3/>
										<mastercomment4/>
									</comments>
									<file id="YIN_2013-05-28_LG-6 "/>
									<filter>
										<effect>
											<name>Audio Levels</name>
											<effectid>audiolevels</effectid>
											<effectcategory>audiolevels</effectcategory>
											<effecttype>audiolevels</effecttype>
											<mediatype>audio</mediatype>
											<parameter>
												<name>Level</name>
												<parameterid>level</parameterid>
												<valuemin>0</valuemin>
												<valuemax>3.98109</valuemax>
												<value>1.8462</value>
											</parameter>
										</effect>
									</filter>
									<filter>
										<effect>
											<name>Audio Pan</name>
											<effectid>audiopan</effectid>
											<effectcategory>audiopan</effectcategory>
											<effecttype>audiopan</effecttype>
											<mediatype>audio</mediatype>
											<parameter>
												<name>Pan</name>
												<parameterid>pan</parameterid>
												<valuemin>-1</valuemin>
												<valuemax>1</valuemax>
												<value>0</value>
											</parameter>
										</effect>
									</filter>
									<sourcetrack>
										<mediatype>audio</mediatype>
										<trackindex>1</trackindex>
									</sourcetrack>
									<link>
										<linkclipref>Raw Scene Matthew Duepner Printing141</linkclipref>
										<mediatype>video</mediatype>
										<trackindex>2</trackindex>
										<clipindex>23</clipindex>
									</link>
									<link>
										<linkclipref>Raw Scene Matthew Duepner Printing142</linkclipref>
										<mediatype>audio</mediatype>
										<trackindex>1</trackindex>
										<clipindex>15</clipindex>
										<groupindex>1</groupindex>
									</link>
									<link>
										<linkclipref>Raw Scene Matthew Duepner Printing143</linkclipref>
										<mediatype>audio</mediatype>
										<trackindex>2</trackindex>
										<clipindex>15</clipindex>
										<groupindex>1</groupindex>
									</link>
									<itemhistory>
										<uuid>36834CC5-3ECC-443D-84E6-113EF34DBD63</uuid>
									</itemhistory>
								</clipitem>
								<clipitem id="Raw Scene Matthew Duepner Printing145">
									<name>Raw Scene Matthew Duepner Printing</name>
									<duration>28553</duration>
									<rate>
										<ntsc>TRUE</ntsc>
										<timebase>24</timebase>
									</rate>
									<in>22831</in>
									<out>22878</out>
									<start>2839</start>
									<end>2886</end>
									<masterclipid>Raw Scene Matthew Duepner Printing72</masterclipid>
									<logginginfo>
										<scene/>
										<shottake/>
										<lognote/>
										<good>FALSE</good>
									</logginginfo>
									<labels>
										<label2/>
									</labels>
									<comments>
										<mastercomment1/>
										<mastercomment2/>
										<mastercomment3/>
										<mastercomment4/>
									</comments>
									<file id="YIN_2013-05-28_LG-6 "/>
									<filter>
										<effect>
											<name>Audio Levels</name>
											<effectid>audiolevels</effectid>
											<effectcategory>audiolevels</effectcategory>
											<effecttype>audiolevels</effecttype>
											<mediatype>audio</mediatype>
											<parameter>
												<name>Level</name>
												<parameterid>level</parameterid>
												<valuemin>0</valuemin>
												<valuemax>3.98109</valuemax>
												<value>1.8462</value>
											</parameter>
										</effect>
									</filter>
									<filter>
										<effect>
											<name>Audio Pan</name>
											<effectid>audiopan</effectid>
											<effectcategory>audiopan</effectcategory>
											<effecttype>audiopan</effecttype>
											<mediatype>audio</mediatype>
											<parameter>
												<name>Pan</name>
												<parameterid>pan</parameterid>
												<valuemin>-1</valuemin>
												<valuemax>1</valuemax>
												<value>0</value>
											</parameter>
										</effect>
									</filter>
									<sourcetrack>
										<mediatype>audio</mediatype>
										<trackindex>1</trackindex>
									</sourcetrack>
									<link>
										<linkclipref>Raw Scene Matthew Duepner Printing144</linkclipref>
										<mediatype>video</mediatype>
										<trackindex>2</trackindex>
										<clipindex>24</clipindex>
									</link>
									<link>
										<linkclipref>Raw Scene Matthew Duepner Printing145</linkclipref>
										<mediatype>audio</mediatype>
										<trackindex>1</trackindex>
										<clipindex>16</clipindex>
										<groupindex>1</groupindex>
									</link>
									<link>
										<linkclipref>Raw Scene Matthew Duepner Printing146</linkclipref>
										<mediatype>audio</mediatype>
										<trackindex>2</trackindex>
										<clipindex>16</clipindex>
										<groupindex>1</groupindex>
									</link>
									<itemhistory>
										<uuid>CEFB00F6-C7B6-4A13-9B72-1B33A3D74A9F</uuid>
									</itemhistory>
								</clipitem>
								<clipitem id="Raw Scene Matthew Duepner Printing148">
									<name>Raw Scene Matthew Duepner Printing</name>
									<duration>28553</duration>
									<rate>
										<ntsc>TRUE</ntsc>
										<timebase>24</timebase>
									</rate>
									<in>23483</in>
									<out>23542</out>
									<start>2886</start>
									<end>2945</end>
									<masterclipid>Raw Scene Matthew Duepner Printing72</masterclipid>
									<logginginfo>
										<scene/>
										<shottake/>
										<lognote/>
										<good>FALSE</good>
									</logginginfo>
									<labels>
										<label2/>
									</labels>
									<comments>
										<mastercomment1/>
										<mastercomment2/>
										<mastercomment3/>
										<mastercomment4/>
									</comments>
									<file id="YIN_2013-05-28_LG-6 "/>
									<filter>
										<effect>
											<name>Audio Levels</name>
											<effectid>audiolevels</effectid>
											<effectcategory>audiolevels</effectcategory>
											<effecttype>audiolevels</effecttype>
											<mediatype>audio</mediatype>
											<parameter>
												<name>Level</name>
												<parameterid>level</parameterid>
												<valuemin>0</valuemin>
												<valuemax>3.98109</valuemax>
												<value>1.8462</value>
											</parameter>
										</effect>
									</filter>
									<filter>
										<effect>
											<name>Audio Pan</name>
											<effectid>audiopan</effectid>
											<effectcategory>audiopan</effectcategory>
											<effecttype>audiopan</effecttype>
											<mediatype>audio</mediatype>
											<parameter>
												<name>Pan</name>
												<parameterid>pan</parameterid>
												<valuemin>-1</valuemin>
												<valuemax>1</valuemax>
												<value>0</value>
											</parameter>
										</effect>
									</filter>
									<sourcetrack>
										<mediatype>audio</mediatype>
										<trackindex>1</trackindex>
									</sourcetrack>
									<link>
										<linkclipref>Raw Scene Matthew Duepner Printing147</linkclipref>
										<mediatype>video</mediatype>
										<trackindex>2</trackindex>
										<clipindex>25</clipindex>
									</link>
									<link>
										<linkclipref>Raw Scene Matthew Duepner Printing148</linkclipref>
										<mediatype>audio</mediatype>
										<trackindex>1</trackindex>
										<clipindex>17</clipindex>
										<groupindex>1</groupindex>
									</link>
									<link>
										<linkclipref>Raw Scene Matthew Duepner Printing149</linkclipref>
										<mediatype>audio</mediatype>
										<trackindex>2</trackindex>
										<clipindex>17</clipindex>
										<groupindex>1</groupindex>
									</link>
									<itemhistory>
										<uuid>F5246BCA-1228-4B51-BD2B-69F7EA11BFF7</uuid>
									</itemhistory>
								</clipitem>
								<clipitem id="Raw Scene Matthew Duepner Printing151">
									<name>Raw Scene Matthew Duepner Printing</name>
									<duration>28553</duration>
									<rate>
										<ntsc>TRUE</ntsc>
										<timebase>24</timebase>
									</rate>
									<in>23719</in>
									<out>23771</out>
									<start>2945</start>
									<end>2997</end>
									<masterclipid>Raw Scene Matthew Duepner Printing72</masterclipid>
									<logginginfo>
										<scene/>
										<shottake/>
										<lognote/>
										<good>FALSE</good>
									</logginginfo>
									<labels>
										<label2/>
									</labels>
									<comments>
										<mastercomment1/>
										<mastercomment2/>
										<mastercomment3/>
										<mastercomment4/>
									</comments>
									<file id="YIN_2013-05-28_LG-6 "/>
									<filter>
										<effect>
											<name>Audio Levels</name>
											<effectid>audiolevels</effectid>
											<effectcategory>audiolevels</effectcategory>
											<effecttype>audiolevels</effecttype>
											<mediatype>audio</mediatype>
											<parameter>
												<name>Level</name>
												<parameterid>level</parameterid>
												<valuemin>0</valuemin>
												<valuemax>3.98109</valuemax>
												<value>1.8462</value>
											</parameter>
										</effect>
									</filter>
									<filter>
										<effect>
											<name>Audio Pan</name>
											<effectid>audiopan</effectid>
											<effectcategory>audiopan</effectcategory>
											<effecttype>audiopan</effecttype>
											<mediatype>audio</mediatype>
											<parameter>
												<name>Pan</name>
												<parameterid>pan</parameterid>
												<valuemin>-1</valuemin>
												<valuemax>1</valuemax>
												<value>0</value>
											</parameter>
										</effect>
									</filter>
									<sourcetrack>
										<mediatype>audio</mediatype>
										<trackindex>1</trackindex>
									</sourcetrack>
									<link>
										<linkclipref>Raw Scene Matthew Duepner Printing150</linkclipref>
										<mediatype>video</mediatype>
										<trackindex>2</trackindex>
										<clipindex>26</clipindex>
									</link>
									<link>
										<linkclipref>Raw Scene Matthew Duepner Printing151</linkclipref>
										<mediatype>audio</mediatype>
										<trackindex>1</trackindex>
										<clipindex>18</clipindex>
										<groupindex>1</groupindex>
									</link>
									<link>
										<linkclipref>Raw Scene Matthew Duepner Printing152</linkclipref>
										<mediatype>audio</mediatype>
										<trackindex>2</trackindex>
										<clipindex>18</clipindex>
										<groupindex>1</groupindex>
									</link>
									<itemhistory>
										<uuid>E1A3237F-D7C1-439C-ADCD-CC59E981A1A0</uuid>
									</itemhistory>
								</clipitem>
								<clipitem id="Raw Scene Matthew Duepner Printing154">
									<name>Raw Scene Matthew Duepner Printing</name>
									<duration>28553</duration>
									<rate>
										<ntsc>TRUE</ntsc>
										<timebase>24</timebase>
									</rate>
									<in>27525</in>
									<out>27797</out>
									<start>2997</start>
									<end>3269</end>
									<masterclipid>Raw Scene Matthew Duepner Printing72</masterclipid>
									<logginginfo>
										<scene/>
										<shottake/>
										<lognote/>
										<good>FALSE</good>
									</logginginfo>
									<labels>
										<label2/>
									</labels>
									<comments>
										<mastercomment1/>
										<mastercomment2/>
										<mastercomment3/>
										<mastercomment4/>
									</comments>
									<file id="YIN_2013-05-28_LG-6 "/>
									<filter>
										<effect>
											<name>Audio Levels</name>
											<effectid>audiolevels</effectid>
											<effectcategory>audiolevels</effectcategory>
											<effecttype>audiolevels</effecttype>
											<mediatype>audio</mediatype>
											<parameter>
												<name>Level</name>
												<parameterid>level</parameterid>
												<valuemin>0</valuemin>
												<valuemax>3.98109</valuemax>
												<value>1.8462</value>
											</parameter>
										</effect>
									</filter>
									<filter>
										<effect>
											<name>Audio Pan</name>
											<effectid>audiopan</effectid>
											<effectcategory>audiopan</effectcategory>
											<effecttype>audiopan</effecttype>
											<mediatype>audio</mediatype>
											<parameter>
												<name>Pan</name>
												<parameterid>pan</parameterid>
												<valuemin>-1</valuemin>
												<valuemax>1</valuemax>
												<value>0</value>
											</parameter>
										</effect>
									</filter>
									<sourcetrack>
										<mediatype>audio</mediatype>
										<trackindex>1</trackindex>
									</sourcetrack>
									<link>
										<linkclipref>Raw Scene Matthew Duepner Printing153</linkclipref>
										<mediatype>video</mediatype>
										<trackindex>2</trackindex>
										<clipindex>27</clipindex>
									</link>
									<link>
										<linkclipref>Raw Scene Matthew Duepner Printing154</linkclipref>
										<mediatype>audio</mediatype>
										<trackindex>1</trackindex>
										<clipindex>19</clipindex>
										<groupindex>1</groupindex>
									</link>
									<link>
										<linkclipref>Raw Scene Matthew Duepner Printing155</linkclipref>
										<mediatype>audio</mediatype>
										<trackindex>2</trackindex>
										<clipindex>19</clipindex>
										<groupindex>1</groupindex>
									</link>
									<itemhistory>
										<uuid>E2905470-1935-4A94-BC1D-6AB1F59E11DF</uuid>
									</itemhistory>
								</clipitem>
								<clipitem id="Raw Scene Matthew Duepner Printing159">
									<name>Raw Scene Matthew Duepner Printing</name>
									<duration>28553</duration>
									<rate>
										<ntsc>TRUE</ntsc>
										<timebase>24</timebase>
									</rate>
									<in>28313</in>
									<out>28405</out>
									<start>3269</start>
									<end>3361</end>
									<masterclipid>Raw Scene Matthew Duepner Printing72</masterclipid>
									<logginginfo>
										<scene/>
										<shottake/>
										<lognote/>
										<good>FALSE</good>
									</logginginfo>
									<labels>
										<label2/>
									</labels>
									<comments>
										<mastercomment1/>
										<mastercomment2/>
										<mastercomment3/>
										<mastercomment4/>
									</comments>
									<file id="YIN_2013-05-28_LG-6 "/>
									<filter>
										<effect>
											<name>Audio Levels</name>
											<effectid>audiolevels</effectid>
											<effectcategory>audiolevels</effectcategory>
											<effecttype>audiolevels</effecttype>
											<mediatype>audio</mediatype>
											<parameter>
												<name>Level</name>
												<parameterid>level</parameterid>
												<valuemin>0</valuemin>
												<valuemax>3.98109</valuemax>
												<value>1.8462</value>
											</parameter>
										</effect>
									</filter>
									<filter>
										<effect>
											<name>Audio Pan</name>
											<effectid>audiopan</effectid>
											<effectcategory>audiopan</effectcategory>
											<effecttype>audiopan</effecttype>
											<mediatype>audio</mediatype>
											<parameter>
												<name>Pan</name>
												<parameterid>pan</parameterid>
												<valuemin>-1</valuemin>
												<valuemax>1</valuemax>
												<value>0</value>
											</parameter>
										</effect>
									</filter>
									<sourcetrack>
										<mediatype>audio</mediatype>
										<trackindex>1</trackindex>
									</sourcetrack>
									<link>
										<linkclipref>Raw Scene Matthew Duepner Printing159</linkclipref>
										<mediatype>audio</mediatype>
										<trackindex>1</trackindex>
										<clipindex>20</clipindex>
										<groupindex>1</groupindex>
									</link>
									<link>
										<linkclipref>Raw Scene Matthew Duepner Printing160</linkclipref>
										<mediatype>audio</mediatype>
										<trackindex>2</trackindex>
										<clipindex>20</clipindex>
										<groupindex>1</groupindex>
									</link>
									<itemhistory>
										<uuid>52660793-FBFC-4497-BEC4-FB92FD3F059A</uuid>
									</itemhistory>
								</clipitem>
								<clipitem id="Raw Scene Matthew Duepner Walkabout471">
									<name>Raw Scene Matthew Duepner Walkabout</name>
									<duration>38484</duration>
									<rate>
										<ntsc>TRUE</ntsc>
										<timebase>24</timebase>
									</rate>
									<in>5107</in>
									<out>5266</out>
									<start>3361</start>
									<end>3520</end>
									<masterclipid>Raw Scene Matthew Duepner Walkabout234</masterclipid>
									<logginginfo>
										<scene/>
										<shottake/>
										<lognote/>
										<good>FALSE</good>
									</logginginfo>
									<labels>
										<label2/>
									</labels>
									<comments>
										<mastercomment1/>
										<mastercomment2/>
										<mastercomment3/>
										<mastercomment4/>
									</comments>
									<file id="YIN_2013-05-28_LG-4 "/>
									<filter>
										<effect>
											<name>Audio Levels</name>
											<effectid>audiolevels</effectid>
											<effectcategory>audiolevels</effectcategory>
											<effecttype>audiolevels</effecttype>
											<mediatype>audio</mediatype>
											<parameter>
												<name>Level</name>
												<parameterid>level</parameterid>
												<valuemin>0</valuemin>
												<valuemax>3.98109</valuemax>
												<value>1.8462</value>
											</parameter>
										</effect>
									</filter>
									<filter>
										<effect>
											<name>Audio Pan</name>
											<effectid>audiopan</effectid>
											<effectcategory>audiopan</effectcategory>
											<effecttype>audiopan</effecttype>
											<mediatype>audio</mediatype>
											<parameter>
												<name>Pan</name>
												<parameterid>pan</parameterid>
												<valuemin>-1</valuemin>
												<valuemax>1</valuemax>
												<value>0</value>
											</parameter>
										</effect>
									</filter>
									<sourcetrack>
										<mediatype>audio</mediatype>
										<trackindex>1</trackindex>
									</sourcetrack>
									<link>
										<linkclipref>Raw Scene Matthew Duepner Walkabout471</linkclipref>
										<mediatype>audio</mediatype>
										<trackindex>1</trackindex>
										<clipindex>21</clipindex>
										<groupindex>1</groupindex>
									</link>
									<link>
										<linkclipref>Raw Scene Matthew Duepner Walkabout472</linkclipref>
										<mediatype>audio</mediatype>
										<trackindex>2</trackindex>
										<clipindex>21</clipindex>
										<groupindex>1</groupindex>
									</link>
									<itemhistory>
										<uuid>13BAA1E1-32F3-43BB-826B-1E816A160259</uuid>
									</itemhistory>
								</clipitem>
								<clipitem id="Raw Scene Matthew Duepner Walkabout473">
									<name>Raw Scene Matthew Duepner Walkabout</name>
									<duration>38484</duration>
									<rate>
										<ntsc>TRUE</ntsc>
										<timebase>24</timebase>
									</rate>
									<in>4745</in>
									<out>5099</out>
									<start>3520</start>
									<end>-1</end>
									<masterclipid>Raw Scene Matthew Duepner Walkabout234</masterclipid>
									<logginginfo>
										<scene/>
										<shottake/>
										<lognote/>
										<good>FALSE</good>
									</logginginfo>
									<labels>
										<label2/>
									</labels>
									<comments>
										<mastercomment1/>
										<mastercomment2/>
										<mastercomment3/>
										<mastercomment4/>
									</comments>
									<file id="YIN_2013-05-28_LG-4 "/>
									<filter>
										<effect>
											<name>Audio Levels</name>
											<effectid>audiolevels</effectid>
											<effectcategory>audiolevels</effectcategory>
											<effecttype>audiolevels</effecttype>
											<mediatype>audio</mediatype>
											<parameter>
												<name>Level</name>
												<parameterid>level</parameterid>
												<valuemin>0</valuemin>
												<valuemax>3.98109</valuemax>
												<value>1.8462</value>
											</parameter>
										</effect>
									</filter>
									<filter>
										<effect>
											<name>Audio Pan</name>
											<effectid>audiopan</effectid>
											<effectcategory>audiopan</effectcategory>
											<effecttype>audiopan</effecttype>
											<mediatype>audio</mediatype>
											<parameter>
												<name>Pan</name>
												<parameterid>pan</parameterid>
												<valuemin>-1</valuemin>
												<valuemax>1</valuemax>
												<value>0</value>
											</parameter>
										</effect>
									</filter>
									<sourcetrack>
										<mediatype>audio</mediatype>
										<trackindex>1</trackindex>
									</sourcetrack>
									<link>
										<linkclipref>Raw Scene Matthew Duepner Walkabout473</linkclipref>
										<mediatype>audio</mediatype>
										<trackindex>1</trackindex>
										<clipindex>22</clipindex>
										<groupindex>1</groupindex>
									</link>
									<link>
										<linkclipref>Raw Scene Matthew Duepner Walkabout474</linkclipref>
										<mediatype>audio</mediatype>
										<trackindex>2</trackindex>
										<clipindex>22</clipindex>
										<groupindex>1</groupindex>
									</link>
									<itemhistory>
										<uuid>9EE2B158-2805-4514-9B3C-3F24B287F2CC</uuid>
									</itemhistory>
								</clipitem>
								<transitionitem>
									<rate>
										<ntsc>TRUE</ntsc>
										<timebase>24</timebase>
									</rate>
									<start>3866</start>
									<end>3874</end>
									<alignment>end-black</alignment>
									<effect>
										<name>Cross Fade ( 0dB)</name>
										<effectid>KGAudioTransCrossFade0dB</effectid>
										<effecttype>transition</effecttype>
										<mediatype>audio</mediatype>
										<startratio>0</startratio>
										<endratio>1</endratio>
										<reverse>FALSE</reverse>
									</effect>
								</transitionitem>
								<transitionitem>
									<rate>
										<ntsc>TRUE</ntsc>
										<timebase>24</timebase>
									</rate>
									<start>3893</start>
									<end>3902</end>
									<alignment>start-black</alignment>
									<effect>
										<name>Cross Fade ( 0dB)</name>
										<effectid>KGAudioTransCrossFade0dB</effectid>
										<effecttype>transition</effecttype>
										<mediatype>audio</mediatype>
										<startratio>0</startratio>
										<endratio>1</endratio>
										<reverse>FALSE</reverse>
									</effect>
								</transitionitem>
								<clipitem id="Raw Interview Matthew Duepner641">
									<name>Raw Interview Matthew Duepner</name>
									<duration>81486</duration>
									<rate>
										<ntsc>TRUE</ntsc>
										<timebase>24</timebase>
									</rate>
									<in>17964</in>
									<out>18186</out>
									<start>-1</start>
									<end>4115</end>
									<masterclipid>Raw Interview Matthew Duepner390</masterclipid>
									<logginginfo>
										<scene/>
										<shottake/>
										<lognote/>
										<good>FALSE</good>
									</logginginfo>
									<labels>
										<label2/>
									</labels>
									<comments>
										<mastercomment1/>
										<mastercomment2/>
										<mastercomment3/>
										<mastercomment4/>
									</comments>
									<file id="YIN_2013-05-28_LG-5 "/>
									<filter>
										<effect>
											<name>Audio Levels</name>
											<effectid>audiolevels</effectid>
											<effectcategory>audiolevels</effectcategory>
											<effecttype>audiolevels</effecttype>
											<mediatype>audio</mediatype>
											<parameter>
												<name>Level</name>
												<parameterid>level</parameterid>
												<valuemin>0</valuemin>
												<valuemax>3.98109</valuemax>
												<value>1.99526</value>
											</parameter>
										</effect>
									</filter>
									<filter>
										<effect>
											<name>Audio Pan</name>
											<effectid>audiopan</effectid>
											<effectcategory>audiopan</effectcategory>
											<effecttype>audiopan</effecttype>
											<mediatype>audio</mediatype>
											<parameter>
												<name>Pan</name>
												<parameterid>pan</parameterid>
												<valuemin>-1</valuemin>
												<valuemax>1</valuemax>
												<value>0</value>
											</parameter>
										</effect>
									</filter>
									<sourcetrack>
										<mediatype>audio</mediatype>
										<trackindex>1</trackindex>
									</sourcetrack>
									<link>
										<linkclipref>Raw Interview Matthew Duepner640</linkclipref>
										<mediatype>video</mediatype>
										<trackindex>1</trackindex>
										<clipindex>13</clipindex>
									</link>
									<link>
										<linkclipref>Raw Interview Matthew Duepner641</linkclipref>
										<mediatype>audio</mediatype>
										<trackindex>1</trackindex>
										<clipindex>25</clipindex>
										<groupindex>1</groupindex>
									</link>
									<link>
										<linkclipref>Raw Interview Matthew Duepner642</linkclipref>
										<mediatype>audio</mediatype>
										<trackindex>2</trackindex>
										<clipindex>25</clipindex>
										<groupindex>1</groupindex>
									</link>
									<itemhistory>
										<uuid>717699EC-2FA4-459A-9B1F-2BEC434171C8</uuid>
									</itemhistory>
								</clipitem>
								<clipitem id="Raw Interview Matthew Duepner644">
									<name>Raw Interview Matthew Duepner</name>
									<duration>81486</duration>
									<rate>
										<ntsc>TRUE</ntsc>
										<timebase>24</timebase>
									</rate>
									<in>18235</in>
									<out>18405</out>
									<start>4115</start>
									<end>4285</end>
									<masterclipid>Raw Interview Matthew Duepner390</masterclipid>
									<logginginfo>
										<scene/>
										<shottake/>
										<lognote/>
										<good>FALSE</good>
									</logginginfo>
									<labels>
										<label2/>
									</labels>
									<comments>
										<mastercomment1/>
										<mastercomment2/>
										<mastercomment3/>
										<mastercomment4/>
									</comments>
									<file id="YIN_2013-05-28_LG-5 "/>
									<filter>
										<effect>
											<name>Audio Levels</name>
											<effectid>audiolevels</effectid>
											<effectcategory>audiolevels</effectcategory>
											<effecttype>audiolevels</effecttype>
											<mediatype>audio</mediatype>
											<parameter>
												<name>Level</name>
												<parameterid>level</parameterid>
												<valuemin>0</valuemin>
												<valuemax>3.98109</valuemax>
												<value>1.99526</value>
											</parameter>
										</effect>
									</filter>
									<filter>
										<effect>
											<name>Audio Pan</name>
											<effectid>audiopan</effectid>
											<effectcategory>audiopan</effectcategory>
											<effecttype>audiopan</effecttype>
											<mediatype>audio</mediatype>
											<parameter>
												<name>Pan</name>
												<parameterid>pan</parameterid>
												<valuemin>-1</valuemin>
												<valuemax>1</valuemax>
												<value>0</value>
											</parameter>
										</effect>
									</filter>
									<sourcetrack>
										<mediatype>audio</mediatype>
										<trackindex>1</trackindex>
									</sourcetrack>
									<link>
										<linkclipref>Raw Interview Matthew Duepner643</linkclipref>
										<mediatype>video</mediatype>
										<trackindex>1</trackindex>
										<clipindex>14</clipindex>
									</link>
									<link>
										<linkclipref>Raw Interview Matthew Duepner644</linkclipref>
										<mediatype>audio</mediatype>
										<trackindex>1</trackindex>
										<clipindex>26</clipindex>
										<groupindex>1</groupindex>
									</link>
									<link>
										<linkclipref>Raw Interview Matthew Duepner645</linkclipref>
										<mediatype>audio</mediatype>
										<trackindex>2</trackindex>
										<clipindex>26</clipindex>
										<groupindex>1</groupindex>
									</link>
									<itemhistory>
										<uuid>92614BA2-D691-4ACD-8634-4C65BE2B1BA8</uuid>
									</itemhistory>
								</clipitem>
								<clipitem id="Raw Interview Matthew Duepner647">
									<name>Raw Interview Matthew Duepner</name>
									<duration>81486</duration>
									<rate>
										<ntsc>TRUE</ntsc>
										<timebase>24</timebase>
									</rate>
									<in>18444</in>
									<out>18613</out>
									<start>4285</start>
									<end>4454</end>
									<masterclipid>Raw Interview Matthew Duepner390</masterclipid>
									<logginginfo>
										<scene/>
										<shottake/>
										<lognote/>
										<good>FALSE</good>
									</logginginfo>
									<labels>
										<label2/>
									</labels>
									<comments>
										<mastercomment1/>
										<mastercomment2/>
										<mastercomment3/>
										<mastercomment4/>
									</comments>
									<file id="YIN_2013-05-28_LG-5 "/>
									<filter>
										<effect>
											<name>Audio Levels</name>
											<effectid>audiolevels</effectid>
											<effectcategory>audiolevels</effectcategory>
											<effecttype>audiolevels</effecttype>
											<mediatype>audio</mediatype>
											<parameter>
												<name>Level</name>
												<parameterid>level</parameterid>
												<valuemin>0</valuemin>
												<valuemax>3.98109</valuemax>
												<value>1.99526</value>
											</parameter>
										</effect>
									</filter>
									<filter>
										<effect>
											<name>Audio Pan</name>
											<effectid>audiopan</effectid>
											<effectcategory>audiopan</effectcategory>
											<effecttype>audiopan</effecttype>
											<mediatype>audio</mediatype>
											<parameter>
												<name>Pan</name>
												<parameterid>pan</parameterid>
												<valuemin>-1</valuemin>
												<valuemax>1</valuemax>
												<value>0</value>
											</parameter>
										</effect>
									</filter>
									<sourcetrack>
										<mediatype>audio</mediatype>
										<trackindex>1</trackindex>
									</sourcetrack>
									<link>
										<linkclipref>Raw Interview Matthew Duepner646</linkclipref>
										<mediatype>video</mediatype>
										<trackindex>1</trackindex>
										<clipindex>15</clipindex>
									</link>
									<link>
										<linkclipref>Raw Interview Matthew Duepner647</linkclipref>
										<mediatype>audio</mediatype>
										<trackindex>1</trackindex>
										<clipindex>27</clipindex>
										<groupindex>1</groupindex>
									</link>
									<link>
										<linkclipref>Raw Interview Matthew Duepner648</linkclipref>
										<mediatype>audio</mediatype>
										<trackindex>2</trackindex>
										<clipindex>27</clipindex>
										<groupindex>1</groupindex>
									</link>
									<itemhistory>
										<uuid>D3DD1972-CF83-4F68-A86F-555CBD9BD435</uuid>
									</itemhistory>
								</clipitem>
								<clipitem id="Raw Interview Matthew Duepner650">
									<name>Raw Interview Matthew Duepner</name>
									<duration>81486</duration>
									<rate>
										<ntsc>TRUE</ntsc>
										<timebase>24</timebase>
									</rate>
									<in>18645</in>
									<out>18710</out>
									<start>4454</start>
									<end>-1</end>
									<masterclipid>Raw Interview Matthew Duepner390</masterclipid>
									<logginginfo>
										<scene/>
										<shottake/>
										<lognote/>
										<good>FALSE</good>
									</logginginfo>
									<labels>
										<label2/>
									</labels>
									<comments>
										<mastercomment1/>
										<mastercomment2/>
										<mastercomment3/>
										<mastercomment4/>
									</comments>
									<file id="YIN_2013-05-28_LG-5 "/>
									<filter>
										<effect>
											<name>Audio Levels</name>
											<effectid>audiolevels</effectid>
											<effectcategory>audiolevels</effectcategory>
											<effecttype>audiolevels</effecttype>
											<mediatype>audio</mediatype>
											<parameter>
												<name>Level</name>
												<parameterid>level</parameterid>
												<valuemin>0</valuemin>
												<valuemax>3.98109</valuemax>
												<value>1.99526</value>
											</parameter>
										</effect>
									</filter>
									<filter>
										<effect>
											<name>Audio Pan</name>
											<effectid>audiopan</effectid>
											<effectcategory>audiopan</effectcategory>
											<effecttype>audiopan</effecttype>
											<mediatype>audio</mediatype>
											<parameter>
												<name>Pan</name>
												<parameterid>pan</parameterid>
												<valuemin>-1</valuemin>
												<valuemax>1</valuemax>
												<value>0</value>
											</parameter>
										</effect>
									</filter>
									<sourcetrack>
										<mediatype>audio</mediatype>
										<trackindex>1</trackindex>
									</sourcetrack>
									<link>
										<linkclipref>Raw Interview Matthew Duepner649</linkclipref>
										<mediatype>video</mediatype>
										<trackindex>1</trackindex>
										<clipindex>16</clipindex>
									</link>
									<link>
										<linkclipref>Raw Interview Matthew Duepner650</linkclipref>
										<mediatype>audio</mediatype>
										<trackindex>1</trackindex>
										<clipindex>28</clipindex>
										<groupindex>1</groupindex>
									</link>
									<link>
										<linkclipref>Raw Interview Matthew Duepner651</linkclipref>
										<mediatype>audio</mediatype>
										<trackindex>2</trackindex>
										<clipindex>28</clipindex>
										<groupindex>1</groupindex>
									</link>
									<itemhistory>
										<uuid>2C703361-B8DB-4BD3-8CB9-1E03796D7BE8</uuid>
									</itemhistory>
								</clipitem>
								<transitionitem>
									<rate>
										<ntsc>TRUE</ntsc>
										<timebase>24</timebase>
									</rate>
									<start>4518</start>
									<end>4519</end>
									<alignment>start</alignment>
									<effect>
										<name>Cross Fade ( 0dB)</name>
										<effectid>KGAudioTransCrossFade0dB</effectid>
										<effecttype>transition</effecttype>
										<mediatype>audio</mediatype>
										<startratio>0</startratio>
										<endratio>1</endratio>
										<reverse>FALSE</reverse>
									</effect>
								</transitionitem>
								<clipitem id="Raw Interview Matthew Duepner653">
									<name>Raw Interview Matthew Duepner</name>
									<duration>81486</duration>
									<rate>
										<ntsc>TRUE</ntsc>
										<timebase>24</timebase>
									</rate>
									<in>50956</in>
									<out>51016</out>
									<start>-1</start>
									<end>-1</end>
									<masterclipid>Raw Interview Matthew Duepner390</masterclipid>
									<logginginfo>
										<scene/>
										<shottake/>
										<lognote/>
										<good>FALSE</good>
									</logginginfo>
									<labels>
										<label2/>
									</labels>
									<comments>
										<mastercomment1/>
										<mastercomment2/>
										<mastercomment3/>
										<mastercomment4/>
									</comments>
									<file id="YIN_2013-05-28_LG-5 "/>
									<filter>
										<effect>
											<name>Audio Levels</name>
											<effectid>audiolevels</effectid>
											<effectcategory>audiolevels</effectcategory>
											<effecttype>audiolevels</effecttype>
											<mediatype>audio</mediatype>
											<parameter>
												<name>Level</name>
												<parameterid>level</parameterid>
												<valuemin>0</valuemin>
												<valuemax>3.98109</valuemax>
												<value>1.99526</value>
											</parameter>
										</effect>
									</filter>
									<filter>
										<effect>
											<name>Audio Pan</name>
											<effectid>audiopan</effectid>
											<effectcategory>audiopan</effectcategory>
											<effecttype>audiopan</effecttype>
											<mediatype>audio</mediatype>
											<parameter>
												<name>Pan</name>
												<parameterid>pan</parameterid>
												<valuemin>-1</valuemin>
												<valuemax>1</valuemax>
												<value>0</value>
											</parameter>
										</effect>
									</filter>
									<sourcetrack>
										<mediatype>audio</mediatype>
										<trackindex>1</trackindex>
									</sourcetrack>
									<link>
										<linkclipref>Raw Interview Matthew Duepner652</linkclipref>
										<mediatype>video</mediatype>
										<trackindex>1</trackindex>
										<clipindex>17</clipindex>
									</link>
									<link>
										<linkclipref>Raw Interview Matthew Duepner653</linkclipref>
										<mediatype>audio</mediatype>
										<trackindex>1</trackindex>
										<clipindex>30</clipindex>
										<groupindex>1</groupindex>
									</link>
									<link>
										<linkclipref>Raw Interview Matthew Duepner654</linkclipref>
										<mediatype>audio</mediatype>
										<trackindex>2</trackindex>
										<clipindex>30</clipindex>
										<groupindex>1</groupindex>
									</link>
									<itemhistory>
										<uuid>8D2C6ACC-CDF5-4516-A5F6-CA6D9C0BFAAC</uuid>
									</itemhistory>
								</clipitem>
								<transitionitem>
									<rate>
										<ntsc>TRUE</ntsc>
										<timebase>24</timebase>
									</rate>
									<start>4577</start>
									<end>4578</end>
									<alignment>start</alignment>
									<effect>
										<name>Cross Fade ( 0dB)</name>
										<effectid>KGAudioTransCrossFade0dB</effectid>
										<effecttype>transition</effecttype>
										<mediatype>audio</mediatype>
										<startratio>0</startratio>
										<endratio>1</endratio>
										<reverse>FALSE</reverse>
									</effect>
								</transitionitem>
								<clipitem id="Raw Interview Matthew Duepner656">
									<name>Raw Interview Matthew Duepner</name>
									<duration>81486</duration>
									<rate>
										<ntsc>TRUE</ntsc>
										<timebase>24</timebase>
									</rate>
									<in>18739</in>
									<out>19018</out>
									<start>-1</start>
									<end>4856</end>
									<masterclipid>Raw Interview Matthew Duepner390</masterclipid>
									<logginginfo>
										<scene/>
										<shottake/>
										<lognote/>
										<good>FALSE</good>
									</logginginfo>
									<labels>
										<label2/>
									</labels>
									<comments>
										<mastercomment1/>
										<mastercomment2/>
										<mastercomment3/>
										<mastercomment4/>
									</comments>
									<file id="YIN_2013-05-28_LG-5 "/>
									<filter>
										<effect>
											<name>Audio Levels</name>
											<effectid>audiolevels</effectid>
											<effectcategory>audiolevels</effectcategory>
											<effecttype>audiolevels</effecttype>
											<mediatype>audio</mediatype>
											<parameter>
												<name>Level</name>
												<parameterid>level</parameterid>
												<valuemin>0</valuemin>
												<valuemax>3.98109</valuemax>
												<value>1.99526</value>
											</parameter>
										</effect>
									</filter>
									<filter>
										<effect>
											<name>Audio Pan</name>
											<effectid>audiopan</effectid>
											<effectcategory>audiopan</effectcategory>
											<effecttype>audiopan</effecttype>
											<mediatype>audio</mediatype>
											<parameter>
												<name>Pan</name>
												<parameterid>pan</parameterid>
												<valuemin>-1</valuemin>
												<valuemax>1</valuemax>
												<value>0</value>
											</parameter>
										</effect>
									</filter>
									<sourcetrack>
										<mediatype>audio</mediatype>
										<trackindex>1</trackindex>
									</sourcetrack>
									<link>
										<linkclipref>Raw Interview Matthew Duepner655</linkclipref>
										<mediatype>video</mediatype>
										<trackindex>1</trackindex>
										<clipindex>18</clipindex>
									</link>
									<link>
										<linkclipref>Raw Interview Matthew Duepner656</linkclipref>
										<mediatype>audio</mediatype>
										<trackindex>1</trackindex>
										<clipindex>32</clipindex>
										<groupindex>1</groupindex>
									</link>
									<link>
										<linkclipref>Raw Interview Matthew Duepner657</linkclipref>
										<mediatype>audio</mediatype>
										<trackindex>2</trackindex>
										<clipindex>32</clipindex>
										<groupindex>1</groupindex>
									</link>
									<itemhistory>
										<uuid>D8588351-2B1B-4FE8-8F33-415420899837</uuid>
									</itemhistory>
								</clipitem>
								<clipitem id="Raw Interview Matthew Duepner659">
									<name>Raw Interview Matthew Duepner</name>
									<duration>81486</duration>
									<rate>
										<ntsc>TRUE</ntsc>
										<timebase>24</timebase>
									</rate>
									<in>56083</in>
									<out>56203</out>
									<start>4898</start>
									<end>5018</end>
									<masterclipid>Raw Interview Matthew Duepner390</masterclipid>
									<logginginfo>
										<scene/>
										<shottake/>
										<lognote/>
										<good>FALSE</good>
									</logginginfo>
									<labels>
										<label2/>
									</labels>
									<comments>
										<mastercomment1/>
										<mastercomment2/>
										<mastercomment3/>
										<mastercomment4/>
									</comments>
									<file id="YIN_2013-05-28_LG-5 "/>
									<filter>
										<effect>
											<name>Audio Levels</name>
											<effectid>audiolevels</effectid>
											<effectcategory>audiolevels</effectcategory>
											<effecttype>audiolevels</effecttype>
											<mediatype>audio</mediatype>
											<parameter>
												<name>Level</name>
												<parameterid>level</parameterid>
												<valuemin>0</valuemin>
												<valuemax>3.98109</valuemax>
												<value>1.99526</value>
											</parameter>
										</effect>
									</filter>
									<filter>
										<effect>
											<name>Audio Pan</name>
											<effectid>audiopan</effectid>
											<effectcategory>audiopan</effectcategory>
											<effecttype>audiopan</effecttype>
											<mediatype>audio</mediatype>
											<parameter>
												<name>Pan</name>
												<parameterid>pan</parameterid>
												<valuemin>-1</valuemin>
												<valuemax>1</valuemax>
												<value>0</value>
											</parameter>
										</effect>
									</filter>
									<sourcetrack>
										<mediatype>audio</mediatype>
										<trackindex>1</trackindex>
									</sourcetrack>
									<link>
										<linkclipref>Raw Interview Matthew Duepner658</linkclipref>
										<mediatype>video</mediatype>
										<trackindex>1</trackindex>
										<clipindex>19</clipindex>
									</link>
									<link>
										<linkclipref>Raw Interview Matthew Duepner659</linkclipref>
										<mediatype>audio</mediatype>
										<trackindex>1</trackindex>
										<clipindex>33</clipindex>
										<groupindex>1</groupindex>
									</link>
									<link>
										<linkclipref>Raw Interview Matthew Duepner660</linkclipref>
										<mediatype>audio</mediatype>
										<trackindex>2</trackindex>
										<clipindex>33</clipindex>
										<groupindex>1</groupindex>
									</link>
									<itemhistory>
										<uuid>2DDE11E4-AA14-4CFC-8265-421CD10D5F43</uuid>
									</itemhistory>
								</clipitem>
								<clipitem id="Raw Interview Matthew Duepner662">
									<name>Raw Interview Matthew Duepner</name>
									<duration>81486</duration>
									<rate>
										<ntsc>TRUE</ntsc>
										<timebase>24</timebase>
									</rate>
									<in>56334</in>
									<out>56423</out>
									<start>5018</start>
									<end>5107</end>
									<masterclipid>Raw Interview Matthew Duepner390</masterclipid>
									<logginginfo>
										<scene/>
										<shottake/>
										<lognote/>
										<good>FALSE</good>
									</logginginfo>
									<labels>
										<label2/>
									</labels>
									<comments>
										<mastercomment1/>
										<mastercomment2/>
										<mastercomment3/>
										<mastercomment4/>
									</comments>
									<file id="YIN_2013-05-28_LG-5 "/>
									<filter>
										<effect>
											<name>Audio Levels</name>
											<effectid>audiolevels</effectid>
											<effectcategory>audiolevels</effectcategory>
											<effecttype>audiolevels</effecttype>
											<mediatype>audio</mediatype>
											<parameter>
												<name>Level</name>
												<parameterid>level</parameterid>
												<valuemin>0</valuemin>
												<valuemax>3.98109</valuemax>
												<value>1.99526</value>
											</parameter>
										</effect>
									</filter>
									<filter>
										<effect>
											<name>Audio Pan</name>
											<effectid>audiopan</effectid>
											<effectcategory>audiopan</effectcategory>
											<effecttype>audiopan</effecttype>
											<mediatype>audio</mediatype>
											<parameter>
												<name>Pan</name>
												<parameterid>pan</parameterid>
												<valuemin>-1</valuemin>
												<valuemax>1</valuemax>
												<value>0</value>
											</parameter>
										</effect>
									</filter>
									<sourcetrack>
										<mediatype>audio</mediatype>
										<trackindex>1</trackindex>
									</sourcetrack>
									<link>
										<linkclipref>Raw Interview Matthew Duepner661</linkclipref>
										<mediatype>video</mediatype>
										<trackindex>1</trackindex>
										<clipindex>20</clipindex>
									</link>
									<link>
										<linkclipref>Raw Interview Matthew Duepner662</linkclipref>
										<mediatype>audio</mediatype>
										<trackindex>1</trackindex>
										<clipindex>34</clipindex>
										<groupindex>1</groupindex>
									</link>
									<link>
										<linkclipref>Raw Interview Matthew Duepner663</linkclipref>
										<mediatype>audio</mediatype>
										<trackindex>2</trackindex>
										<clipindex>34</clipindex>
										<groupindex>1</groupindex>
									</link>
									<itemhistory>
										<uuid>7B3F3DE2-CF0F-4D6B-A826-E49DC47E6B4F</uuid>
									</itemhistory>
								</clipitem>
								<clipitem id="Raw Interview Matthew Duepner665">
									<name>Raw Interview Matthew Duepner</name>
									<duration>81486</duration>
									<rate>
										<ntsc>TRUE</ntsc>
										<timebase>24</timebase>
									</rate>
									<in>19126</in>
									<out>19267</out>
									<start>5375</start>
									<end>5516</end>
									<masterclipid>Raw Interview Matthew Duepner390</masterclipid>
									<logginginfo>
										<scene/>
										<shottake/>
										<lognote/>
										<good>FALSE</good>
									</logginginfo>
									<labels>
										<label2/>
									</labels>
									<comments>
										<mastercomment1/>
										<mastercomment2/>
										<mastercomment3/>
										<mastercomment4/>
									</comments>
									<file id="YIN_2013-05-28_LG-5 "/>
									<filter>
										<effect>
											<name>Audio Levels</name>
											<effectid>audiolevels</effectid>
											<effectcategory>audiolevels</effectcategory>
											<effecttype>audiolevels</effecttype>
											<mediatype>audio</mediatype>
											<parameter>
												<name>Level</name>
												<parameterid>level</parameterid>
												<valuemin>0</valuemin>
												<valuemax>3.98109</valuemax>
												<value>1.99526</value>
											</parameter>
										</effect>
									</filter>
									<filter>
										<effect>
											<name>Audio Pan</name>
											<effectid>audiopan</effectid>
											<effectcategory>audiopan</effectcategory>
											<effecttype>audiopan</effecttype>
											<mediatype>audio</mediatype>
											<parameter>
												<name>Pan</name>
												<parameterid>pan</parameterid>
												<valuemin>-1</valuemin>
												<valuemax>1</valuemax>
												<value>0</value>
											</parameter>
										</effect>
									</filter>
									<sourcetrack>
										<mediatype>audio</mediatype>
										<trackindex>1</trackindex>
									</sourcetrack>
									<link>
										<linkclipref>Raw Interview Matthew Duepner664</linkclipref>
										<mediatype>video</mediatype>
										<trackindex>1</trackindex>
										<clipindex>21</clipindex>
									</link>
									<link>
										<linkclipref>Raw Interview Matthew Duepner665</linkclipref>
										<mediatype>audio</mediatype>
										<trackindex>1</trackindex>
										<clipindex>35</clipindex>
										<groupindex>1</groupindex>
									</link>
									<link>
										<linkclipref>Raw Interview Matthew Duepner666</linkclipref>
										<mediatype>audio</mediatype>
										<trackindex>2</trackindex>
										<clipindex>35</clipindex>
										<groupindex>1</groupindex>
									</link>
									<itemhistory>
										<uuid>6CB49E78-CDCE-44BC-BB81-C380709A9E6D</uuid>
									</itemhistory>
								</clipitem>
								<clipitem id="Raw Interview Matthew Duepner668">
									<name>Raw Interview Matthew Duepner</name>
									<duration>81486</duration>
									<rate>
										<ntsc>TRUE</ntsc>
										<timebase>24</timebase>
									</rate>
									<in>57619</in>
									<out>57904</out>
									<start>5516</start>
									<end>5801</end>
									<masterclipid>Raw Interview Matthew Duepner390</masterclipid>
									<logginginfo>
										<scene/>
										<shottake/>
										<lognote/>
										<good>FALSE</good>
									</logginginfo>
									<labels>
										<label2/>
									</labels>
									<comments>
										<mastercomment1/>
										<mastercomment2/>
										<mastercomment3/>
										<mastercomment4/>
									</comments>
									<file id="YIN_2013-05-28_LG-5 "/>
									<filter>
										<effect>
											<name>Audio Levels</name>
											<effectid>audiolevels</effectid>
											<effectcategory>audiolevels</effectcategory>
											<effecttype>audiolevels</effecttype>
											<mediatype>audio</mediatype>
											<parameter>
												<name>Level</name>
												<parameterid>level</parameterid>
												<valuemin>0</valuemin>
												<valuemax>3.98109</valuemax>
												<value>1.99526</value>
											</parameter>
										</effect>
									</filter>
									<filter>
										<effect>
											<name>Audio Pan</name>
											<effectid>audiopan</effectid>
											<effectcategory>audiopan</effectcategory>
											<effecttype>audiopan</effecttype>
											<mediatype>audio</mediatype>
											<parameter>
												<name>Pan</name>
												<parameterid>pan</parameterid>
												<valuemin>-1</valuemin>
												<valuemax>1</valuemax>
												<value>0</value>
											</parameter>
										</effect>
									</filter>
									<sourcetrack>
										<mediatype>audio</mediatype>
										<trackindex>1</trackindex>
									</sourcetrack>
									<link>
										<linkclipref>Raw Interview Matthew Duepner667</linkclipref>
										<mediatype>video</mediatype>
										<trackindex>1</trackindex>
										<clipindex>22</clipindex>
									</link>
									<link>
										<linkclipref>Raw Interview Matthew Duepner668</linkclipref>
										<mediatype>audio</mediatype>
										<trackindex>1</trackindex>
										<clipindex>36</clipindex>
										<groupindex>1</groupindex>
									</link>
									<link>
										<linkclipref>Raw Interview Matthew Duepner669</linkclipref>
										<mediatype>audio</mediatype>
										<trackindex>2</trackindex>
										<clipindex>36</clipindex>
										<groupindex>1</groupindex>
									</link>
									<itemhistory>
										<uuid>CAD23700-0A77-46A1-81E3-E97AA927A46A</uuid>
									</itemhistory>
								</clipitem>
								<clipitem id="Raw Interview Matthew Duepner671">
									<name>Raw Interview Matthew Duepner</name>
									<duration>81486</duration>
									<rate>
										<ntsc>TRUE</ntsc>
										<timebase>24</timebase>
									</rate>
									<in>51376</in>
									<out>51520</out>
									<start>6008</start>
									<end>6152</end>
									<masterclipid>Raw Interview Matthew Duepner390</masterclipid>
									<logginginfo>
										<scene/>
										<shottake/>
										<lognote/>
										<good>FALSE</good>
									</logginginfo>
									<labels>
										<label2/>
									</labels>
									<comments>
										<mastercomment1/>
										<mastercomment2/>
										<mastercomment3/>
										<mastercomment4/>
									</comments>
									<file id="YIN_2013-05-28_LG-5 "/>
									<filter>
										<effect>
											<name>Audio Levels</name>
											<effectid>audiolevels</effectid>
											<effectcategory>audiolevels</effectcategory>
											<effecttype>audiolevels</effecttype>
											<mediatype>audio</mediatype>
											<parameter>
												<name>Level</name>
												<parameterid>level</parameterid>
												<valuemin>0</valuemin>
												<valuemax>3.98109</valuemax>
												<value>1.99526</value>
											</parameter>
										</effect>
									</filter>
									<filter>
										<effect>
											<name>Audio Pan</name>
											<effectid>audiopan</effectid>
											<effectcategory>audiopan</effectcategory>
											<effecttype>audiopan</effecttype>
											<mediatype>audio</mediatype>
											<parameter>
												<name>Pan</name>
												<parameterid>pan</parameterid>
												<valuemin>-1</valuemin>
												<valuemax>1</valuemax>
												<value>0</value>
											</parameter>
										</effect>
									</filter>
									<sourcetrack>
										<mediatype>audio</mediatype>
										<trackindex>1</trackindex>
									</sourcetrack>
									<link>
										<linkclipref>Raw Interview Matthew Duepner670</linkclipref>
										<mediatype>video</mediatype>
										<trackindex>1</trackindex>
										<clipindex>23</clipindex>
									</link>
									<link>
										<linkclipref>Raw Interview Matthew Duepner671</linkclipref>
										<mediatype>audio</mediatype>
										<trackindex>1</trackindex>
										<clipindex>37</clipindex>
										<groupindex>1</groupindex>
									</link>
									<link>
										<linkclipref>Raw Interview Matthew Duepner672</linkclipref>
										<mediatype>audio</mediatype>
										<trackindex>2</trackindex>
										<clipindex>37</clipindex>
										<groupindex>1</groupindex>
									</link>
									<itemhistory>
										<uuid>EB42B14D-2518-4D2A-B10B-2C6B92680D28</uuid>
									</itemhistory>
								</clipitem>
								<clipitem id="Raw Interview Matthew Duepner674">
									<name>Raw Interview Matthew Duepner</name>
									<duration>81486</duration>
									<rate>
										<ntsc>TRUE</ntsc>
										<timebase>24</timebase>
									</rate>
									<in>24734</in>
									<out>25029</out>
									<start>6423</start>
									<end>6718</end>
									<masterclipid>Raw Interview Matthew Duepner390</masterclipid>
									<logginginfo>
										<scene/>
										<shottake/>
										<lognote/>
										<good>FALSE</good>
									</logginginfo>
									<labels>
										<label2/>
									</labels>
									<comments>
										<mastercomment1/>
										<mastercomment2/>
										<mastercomment3/>
										<mastercomment4/>
									</comments>
									<file id="YIN_2013-05-28_LG-5 "/>
									<filter>
										<effect>
											<name>Audio Levels</name>
											<effectid>audiolevels</effectid>
											<effectcategory>audiolevels</effectcategory>
											<effecttype>audiolevels</effecttype>
											<mediatype>audio</mediatype>
											<parameter>
												<name>Level</name>
												<parameterid>level</parameterid>
												<valuemin>0</valuemin>
												<valuemax>3.98109</valuemax>
												<value>1.99526</value>
											</parameter>
										</effect>
									</filter>
									<filter>
										<effect>
											<name>Audio Pan</name>
											<effectid>audiopan</effectid>
											<effectcategory>audiopan</effectcategory>
											<effecttype>audiopan</effecttype>
											<mediatype>audio</mediatype>
											<parameter>
												<name>Pan</name>
												<parameterid>pan</parameterid>
												<valuemin>-1</valuemin>
												<valuemax>1</valuemax>
												<value>0</value>
											</parameter>
										</effect>
									</filter>
									<sourcetrack>
										<mediatype>audio</mediatype>
										<trackindex>1</trackindex>
									</sourcetrack>
									<link>
										<linkclipref>Raw Interview Matthew Duepner673</linkclipref>
										<mediatype>video</mediatype>
										<trackindex>1</trackindex>
										<clipindex>24</clipindex>
									</link>
									<link>
										<linkclipref>Raw Interview Matthew Duepner674</linkclipref>
										<mediatype>audio</mediatype>
										<trackindex>1</trackindex>
										<clipindex>38</clipindex>
										<groupindex>1</groupindex>
									</link>
									<link>
										<linkclipref>Raw Interview Matthew Duepner675</linkclipref>
										<mediatype>audio</mediatype>
										<trackindex>2</trackindex>
										<clipindex>38</clipindex>
										<groupindex>1</groupindex>
									</link>
									<itemhistory>
										<uuid>A2037EF7-52CD-4710-A692-7D691E697B0C</uuid>
									</itemhistory>
								</clipitem>
								<clipitem id="Raw Interview Matthew Duepner677">
									<name>Raw Interview Matthew Duepner</name>
									<duration>81486</duration>
									<rate>
										<ntsc>TRUE</ntsc>
										<timebase>24</timebase>
									</rate>
									<in>21014</in>
									<out>21125</out>
									<start>6914</start>
									<end>7025</end>
									<masterclipid>Raw Interview Matthew Duepner390</masterclipid>
									<logginginfo>
										<scene/>
										<shottake/>
										<lognote/>
										<good>FALSE</good>
									</logginginfo>
									<labels>
										<label2/>
									</labels>
									<comments>
										<mastercomment1/>
										<mastercomment2/>
										<mastercomment3/>
										<mastercomment4/>
									</comments>
									<file id="YIN_2013-05-28_LG-5 "/>
									<filter>
										<effect>
											<name>Audio Levels</name>
											<effectid>audiolevels</effectid>
											<effectcategory>audiolevels</effectcategory>
											<effecttype>audiolevels</effecttype>
											<mediatype>audio</mediatype>
											<parameter>
												<name>Level</name>
												<parameterid>level</parameterid>
												<valuemin>0</valuemin>
												<valuemax>3.98109</valuemax>
												<value>1.99526</value>
											</parameter>
										</effect>
									</filter>
									<filter>
										<effect>
											<name>Audio Pan</name>
											<effectid>audiopan</effectid>
											<effectcategory>audiopan</effectcategory>
											<effecttype>audiopan</effecttype>
											<mediatype>audio</mediatype>
											<parameter>
												<name>Pan</name>
												<parameterid>pan</parameterid>
												<valuemin>-1</valuemin>
												<valuemax>1</valuemax>
												<value>0</value>
											</parameter>
										</effect>
									</filter>
									<sourcetrack>
										<mediatype>audio</mediatype>
										<trackindex>1</trackindex>
									</sourcetrack>
									<link>
										<linkclipref>Raw Interview Matthew Duepner676</linkclipref>
										<mediatype>video</mediatype>
										<trackindex>1</trackindex>
										<clipindex>25</clipindex>
									</link>
									<link>
										<linkclipref>Raw Interview Matthew Duepner677</linkclipref>
										<mediatype>audio</mediatype>
										<trackindex>1</trackindex>
										<clipindex>39</clipindex>
										<groupindex>1</groupindex>
									</link>
									<link>
										<linkclipref>Raw Interview Matthew Duepner678</linkclipref>
										<mediatype>audio</mediatype>
										<trackindex>2</trackindex>
										<clipindex>39</clipindex>
										<groupindex>1</groupindex>
									</link>
									<itemhistory>
										<uuid>4B554535-EBA2-4DFA-A8BE-7C86071D58A4</uuid>
									</itemhistory>
								</clipitem>
								<clipitem id="Raw Interview Matthew Duepner680">
									<name>Raw Interview Matthew Duepner</name>
									<duration>81486</duration>
									<rate>
										<ntsc>TRUE</ntsc>
										<timebase>24</timebase>
									</rate>
									<in>11151</in>
									<out>11298</out>
									<start>7025</start>
									<end>7172</end>
									<masterclipid>Raw Interview Matthew Duepner390</masterclipid>
									<logginginfo>
										<scene/>
										<shottake/>
										<lognote/>
										<good>FALSE</good>
									</logginginfo>
									<labels>
										<label2/>
									</labels>
									<comments>
										<mastercomment1/>
										<mastercomment2/>
										<mastercomment3/>
										<mastercomment4/>
									</comments>
									<file id="YIN_2013-05-28_LG-5 "/>
									<filter>
										<effect>
											<name>Audio Levels</name>
											<effectid>audiolevels</effectid>
											<effectcategory>audiolevels</effectcategory>
											<effecttype>audiolevels</effecttype>
											<mediatype>audio</mediatype>
											<parameter>
												<name>Level</name>
												<parameterid>level</parameterid>
												<valuemin>0</valuemin>
												<valuemax>3.98109</valuemax>
												<value>1.99526</value>
											</parameter>
										</effect>
									</filter>
									<filter>
										<effect>
											<name>Audio Pan</name>
											<effectid>audiopan</effectid>
											<effectcategory>audiopan</effectcategory>
											<effecttype>audiopan</effecttype>
											<mediatype>audio</mediatype>
											<parameter>
												<name>Pan</name>
												<parameterid>pan</parameterid>
												<valuemin>-1</valuemin>
												<valuemax>1</valuemax>
												<value>0</value>
											</parameter>
										</effect>
									</filter>
									<sourcetrack>
										<mediatype>audio</mediatype>
										<trackindex>1</trackindex>
									</sourcetrack>
									<link>
										<linkclipref>Raw Interview Matthew Duepner679</linkclipref>
										<mediatype>video</mediatype>
										<trackindex>1</trackindex>
										<clipindex>26</clipindex>
									</link>
									<link>
										<linkclipref>Raw Interview Matthew Duepner680</linkclipref>
										<mediatype>audio</mediatype>
										<trackindex>1</trackindex>
										<clipindex>40</clipindex>
										<groupindex>1</groupindex>
									</link>
									<link>
										<linkclipref>Raw Interview Matthew Duepner681</linkclipref>
										<mediatype>audio</mediatype>
										<trackindex>2</trackindex>
										<clipindex>40</clipindex>
										<groupindex>1</groupindex>
									</link>
									<itemhistory>
										<uuid>DE74FB9A-9FBB-4D9D-ACB1-072B2215DC8A</uuid>
									</itemhistory>
								</clipitem>
								<clipitem id="Raw Interview Matthew Duepner683">
									<name>Raw Interview Matthew Duepner</name>
									<duration>81486</duration>
									<rate>
										<ntsc>TRUE</ntsc>
										<timebase>24</timebase>
									</rate>
									<in>20307</in>
									<out>20438</out>
									<start>7172</start>
									<end>7303</end>
									<masterclipid>Raw Interview Matthew Duepner390</masterclipid>
									<logginginfo>
										<scene/>
										<shottake/>
										<lognote/>
										<good>FALSE</good>
									</logginginfo>
									<labels>
										<label2/>
									</labels>
									<comments>
										<mastercomment1/>
										<mastercomment2/>
										<mastercomment3/>
										<mastercomment4/>
									</comments>
									<file id="YIN_2013-05-28_LG-5 "/>
									<filter>
										<effect>
											<name>Audio Levels</name>
											<effectid>audiolevels</effectid>
											<effectcategory>audiolevels</effectcategory>
											<effecttype>audiolevels</effecttype>
											<mediatype>audio</mediatype>
											<parameter>
												<name>Level</name>
												<parameterid>level</parameterid>
												<valuemin>0</valuemin>
												<valuemax>3.98109</valuemax>
												<value>1.99526</value>
											</parameter>
										</effect>
									</filter>
									<filter>
										<effect>
											<name>Audio Pan</name>
											<effectid>audiopan</effectid>
											<effectcategory>audiopan</effectcategory>
											<effecttype>audiopan</effecttype>
											<mediatype>audio</mediatype>
											<parameter>
												<name>Pan</name>
												<parameterid>pan</parameterid>
												<valuemin>-1</valuemin>
												<valuemax>1</valuemax>
												<value>0</value>
											</parameter>
										</effect>
									</filter>
									<sourcetrack>
										<mediatype>audio</mediatype>
										<trackindex>1</trackindex>
									</sourcetrack>
									<link>
										<linkclipref>Raw Interview Matthew Duepner682</linkclipref>
										<mediatype>video</mediatype>
										<trackindex>1</trackindex>
										<clipindex>27</clipindex>
									</link>
									<link>
										<linkclipref>Raw Interview Matthew Duepner683</linkclipref>
										<mediatype>audio</mediatype>
										<trackindex>1</trackindex>
										<clipindex>41</clipindex>
										<groupindex>1</groupindex>
									</link>
									<link>
										<linkclipref>Raw Interview Matthew Duepner684</linkclipref>
										<mediatype>audio</mediatype>
										<trackindex>2</trackindex>
										<clipindex>41</clipindex>
										<groupindex>1</groupindex>
									</link>
									<itemhistory>
										<uuid>8D612AC2-CBF7-42A0-AF2C-F545CE790966</uuid>
									</itemhistory>
								</clipitem>
								<clipitem id="Raw Interview Matthew Duepner686">
									<name>Raw Interview Matthew Duepner</name>
									<duration>81486</duration>
									<rate>
										<ntsc>TRUE</ntsc>
										<timebase>24</timebase>
									</rate>
									<in>20463</in>
									<out>20554</out>
									<start>7303</start>
									<end>7394</end>
									<masterclipid>Raw Interview Matthew Duepner390</masterclipid>
									<logginginfo>
										<scene/>
										<shottake/>
										<lognote/>
										<good>FALSE</good>
									</logginginfo>
									<labels>
										<label2/>
									</labels>
									<comments>
										<mastercomment1/>
										<mastercomment2/>
										<mastercomment3/>
										<mastercomment4/>
									</comments>
									<file id="YIN_2013-05-28_LG-5 "/>
									<filter>
										<effect>
											<name>Audio Levels</name>
											<effectid>audiolevels</effectid>
											<effectcategory>audiolevels</effectcategory>
											<effecttype>audiolevels</effecttype>
											<mediatype>audio</mediatype>
											<parameter>
												<name>Level</name>
												<parameterid>level</parameterid>
												<valuemin>0</valuemin>
												<valuemax>3.98109</valuemax>
												<value>1.99526</value>
											</parameter>
										</effect>
									</filter>
									<filter>
										<effect>
											<name>Audio Pan</name>
											<effectid>audiopan</effectid>
											<effectcategory>audiopan</effectcategory>
											<effecttype>audiopan</effecttype>
											<mediatype>audio</mediatype>
											<parameter>
												<name>Pan</name>
												<parameterid>pan</parameterid>
												<valuemin>-1</valuemin>
												<valuemax>1</valuemax>
												<value>0</value>
											</parameter>
										</effect>
									</filter>
									<sourcetrack>
										<mediatype>audio</mediatype>
										<trackindex>1</trackindex>
									</sourcetrack>
									<link>
										<linkclipref>Raw Interview Matthew Duepner685</linkclipref>
										<mediatype>video</mediatype>
										<trackindex>1</trackindex>
										<clipindex>28</clipindex>
									</link>
									<link>
										<linkclipref>Raw Interview Matthew Duepner686</linkclipref>
										<mediatype>audio</mediatype>
										<trackindex>1</trackindex>
										<clipindex>42</clipindex>
										<groupindex>1</groupindex>
									</link>
									<link>
										<linkclipref>Raw Interview Matthew Duepner687</linkclipref>
										<mediatype>audio</mediatype>
										<trackindex>2</trackindex>
										<clipindex>42</clipindex>
										<groupindex>1</groupindex>
									</link>
									<itemhistory>
										<uuid>E36E8559-F1F7-40BF-9722-899F913BD95C</uuid>
									</itemhistory>
								</clipitem>
								<clipitem id="Raw Interview Matthew Duepner689">
									<name>Raw Interview Matthew Duepner</name>
									<duration>81486</duration>
									<rate>
										<ntsc>TRUE</ntsc>
										<timebase>24</timebase>
									</rate>
									<in>20982</in>
									<out>21013</out>
									<start>7394</start>
									<end>7425</end>
									<masterclipid>Raw Interview Matthew Duepner390</masterclipid>
									<logginginfo>
										<scene/>
										<shottake/>
										<lognote/>
										<good>FALSE</good>
									</logginginfo>
									<labels>
										<label2/>
									</labels>
									<comments>
										<mastercomment1/>
										<mastercomment2/>
										<mastercomment3/>
										<mastercomment4/>
									</comments>
									<file id="YIN_2013-05-28_LG-5 "/>
									<filter>
										<effect>
											<name>Audio Levels</name>
											<effectid>audiolevels</effectid>
											<effectcategory>audiolevels</effectcategory>
											<effecttype>audiolevels</effecttype>
											<mediatype>audio</mediatype>
											<parameter>
												<name>Level</name>
												<parameterid>level</parameterid>
												<valuemin>0</valuemin>
												<valuemax>3.98109</valuemax>
												<value>1.99526</value>
											</parameter>
										</effect>
									</filter>
									<filter>
										<effect>
											<name>Audio Pan</name>
											<effectid>audiopan</effectid>
											<effectcategory>audiopan</effectcategory>
											<effecttype>audiopan</effecttype>
											<mediatype>audio</mediatype>
											<parameter>
												<name>Pan</name>
												<parameterid>pan</parameterid>
												<valuemin>-1</valuemin>
												<valuemax>1</valuemax>
												<value>0</value>
											</parameter>
										</effect>
									</filter>
									<sourcetrack>
										<mediatype>audio</mediatype>
										<trackindex>1</trackindex>
									</sourcetrack>
									<link>
										<linkclipref>Raw Interview Matthew Duepner688</linkclipref>
										<mediatype>video</mediatype>
										<trackindex>1</trackindex>
										<clipindex>29</clipindex>
									</link>
									<link>
										<linkclipref>Raw Interview Matthew Duepner689</linkclipref>
										<mediatype>audio</mediatype>
										<trackindex>1</trackindex>
										<clipindex>43</clipindex>
										<groupindex>1</groupindex>
									</link>
									<link>
										<linkclipref>Raw Interview Matthew Duepner690</linkclipref>
										<mediatype>audio</mediatype>
										<trackindex>2</trackindex>
										<clipindex>43</clipindex>
										<groupindex>1</groupindex>
									</link>
									<itemhistory>
										<uuid>9C0EB544-B04F-4CCD-BE20-8A38FFB6B8BF</uuid>
									</itemhistory>
								</clipitem>
								<clipitem id="Raw Interview Matthew Duepner692">
									<name>Raw Interview Matthew Duepner</name>
									<duration>81486</duration>
									<rate>
										<ntsc>TRUE</ntsc>
										<timebase>24</timebase>
									</rate>
									<in>21714</in>
									<out>21826</out>
									<start>7425</start>
									<end>7537</end>
									<masterclipid>Raw Interview Matthew Duepner390</masterclipid>
									<logginginfo>
										<scene/>
										<shottake/>
										<lognote/>
										<good>FALSE</good>
									</logginginfo>
									<labels>
										<label2/>
									</labels>
									<comments>
										<mastercomment1/>
										<mastercomment2/>
										<mastercomment3/>
										<mastercomment4/>
									</comments>
									<file id="YIN_2013-05-28_LG-5 "/>
									<filter>
										<effect>
											<name>Audio Levels</name>
											<effectid>audiolevels</effectid>
											<effectcategory>audiolevels</effectcategory>
											<effecttype>audiolevels</effecttype>
											<mediatype>audio</mediatype>
											<parameter>
												<name>Level</name>
												<parameterid>level</parameterid>
												<valuemin>0</valuemin>
												<valuemax>3.98109</valuemax>
												<value>1.99526</value>
											</parameter>
										</effect>
									</filter>
									<filter>
										<effect>
											<name>Audio Pan</name>
											<effectid>audiopan</effectid>
											<effectcategory>audiopan</effectcategory>
											<effecttype>audiopan</effecttype>
											<mediatype>audio</mediatype>
											<parameter>
												<name>Pan</name>
												<parameterid>pan</parameterid>
												<valuemin>-1</valuemin>
												<valuemax>1</valuemax>
												<value>0</value>
											</parameter>
										</effect>
									</filter>
									<sourcetrack>
										<mediatype>audio</mediatype>
										<trackindex>1</trackindex>
									</sourcetrack>
									<link>
										<linkclipref>Raw Interview Matthew Duepner691</linkclipref>
										<mediatype>video</mediatype>
										<trackindex>1</trackindex>
										<clipindex>30</clipindex>
									</link>
									<link>
										<linkclipref>Raw Interview Matthew Duepner692</linkclipref>
										<mediatype>audio</mediatype>
										<trackindex>1</trackindex>
										<clipindex>44</clipindex>
										<groupindex>1</groupindex>
									</link>
									<link>
										<linkclipref>Raw Interview Matthew Duepner693</linkclipref>
										<mediatype>audio</mediatype>
										<trackindex>2</trackindex>
										<clipindex>44</clipindex>
										<groupindex>1</groupindex>
									</link>
									<itemhistory>
										<uuid>BB11115C-B632-4796-BCCC-D475A35E33CA</uuid>
									</itemhistory>
								</clipitem>
								<clipitem id="Raw Interview Matthew Duepner695">
									<name>Raw Interview Matthew Duepner</name>
									<duration>81486</duration>
									<rate>
										<ntsc>TRUE</ntsc>
										<timebase>24</timebase>
									</rate>
									<in>22249</in>
									<out>22353</out>
									<start>7537</start>
									<end>7641</end>
									<masterclipid>Raw Interview Matthew Duepner390</masterclipid>
									<logginginfo>
										<scene/>
										<shottake/>
										<lognote/>
										<good>FALSE</good>
									</logginginfo>
									<labels>
										<label2/>
									</labels>
									<comments>
										<mastercomment1/>
										<mastercomment2/>
										<mastercomment3/>
										<mastercomment4/>
									</comments>
									<file id="YIN_2013-05-28_LG-5 "/>
									<filter>
										<effect>
											<name>Audio Levels</name>
											<effectid>audiolevels</effectid>
											<effectcategory>audiolevels</effectcategory>
											<effecttype>audiolevels</effecttype>
											<mediatype>audio</mediatype>
											<parameter>
												<name>Level</name>
												<parameterid>level</parameterid>
												<valuemin>0</valuemin>
												<valuemax>3.98109</valuemax>
												<value>1.99526</value>
											</parameter>
										</effect>
									</filter>
									<filter>
										<effect>
											<name>Audio Pan</name>
											<effectid>audiopan</effectid>
											<effectcategory>audiopan</effectcategory>
											<effecttype>audiopan</effecttype>
											<mediatype>audio</mediatype>
											<parameter>
												<name>Pan</name>
												<parameterid>pan</parameterid>
												<valuemin>-1</valuemin>
												<valuemax>1</valuemax>
												<value>0</value>
											</parameter>
										</effect>
									</filter>
									<sourcetrack>
										<mediatype>audio</mediatype>
										<trackindex>1</trackindex>
									</sourcetrack>
									<link>
										<linkclipref>Raw Interview Matthew Duepner694</linkclipref>
										<mediatype>video</mediatype>
										<trackindex>1</trackindex>
										<clipindex>31</clipindex>
									</link>
									<link>
										<linkclipref>Raw Interview Matthew Duepner695</linkclipref>
										<mediatype>audio</mediatype>
										<trackindex>1</trackindex>
										<clipindex>45</clipindex>
										<groupindex>1</groupindex>
									</link>
									<link>
										<linkclipref>Raw Interview Matthew Duepner696</linkclipref>
										<mediatype>audio</mediatype>
										<trackindex>2</trackindex>
										<clipindex>45</clipindex>
										<groupindex>1</groupindex>
									</link>
									<itemhistory>
										<uuid>E5D7CC22-2806-402B-A27F-62F81E866A72</uuid>
									</itemhistory>
								</clipitem>
								<clipitem id="Raw Interview Matthew Duepner698">
									<name>Raw Interview Matthew Duepner</name>
									<duration>81486</duration>
									<rate>
										<ntsc>TRUE</ntsc>
										<timebase>24</timebase>
									</rate>
									<in>22861</in>
									<out>23027</out>
									<start>7642</start>
									<end>7808</end>
									<masterclipid>Raw Interview Matthew Duepner390</masterclipid>
									<logginginfo>
										<scene/>
										<shottake/>
										<lognote/>
										<good>FALSE</good>
									</logginginfo>
									<labels>
										<label2/>
									</labels>
									<comments>
										<mastercomment1/>
										<mastercomment2/>
										<mastercomment3/>
										<mastercomment4/>
									</comments>
									<file id="YIN_2013-05-28_LG-5 "/>
									<filter>
										<effect>
											<name>Audio Levels</name>
											<effectid>audiolevels</effectid>
											<effectcategory>audiolevels</effectcategory>
											<effecttype>audiolevels</effecttype>
											<mediatype>audio</mediatype>
											<parameter>
												<name>Level</name>
												<parameterid>level</parameterid>
												<valuemin>0</valuemin>
												<valuemax>3.98109</valuemax>
												<value>1.99526</value>
											</parameter>
										</effect>
									</filter>
									<filter>
										<effect>
											<name>Audio Pan</name>
											<effectid>audiopan</effectid>
											<effectcategory>audiopan</effectcategory>
											<effecttype>audiopan</effecttype>
											<mediatype>audio</mediatype>
											<parameter>
												<name>Pan</name>
												<parameterid>pan</parameterid>
												<valuemin>-1</valuemin>
												<valuemax>1</valuemax>
												<value>0</value>
											</parameter>
										</effect>
									</filter>
									<sourcetrack>
										<mediatype>audio</mediatype>
										<trackindex>1</trackindex>
									</sourcetrack>
									<link>
										<linkclipref>Raw Interview Matthew Duepner697</linkclipref>
										<mediatype>video</mediatype>
										<trackindex>1</trackindex>
										<clipindex>32</clipindex>
									</link>
									<link>
										<linkclipref>Raw Interview Matthew Duepner698</linkclipref>
										<mediatype>audio</mediatype>
										<trackindex>1</trackindex>
										<clipindex>46</clipindex>
										<groupindex>1</groupindex>
									</link>
									<link>
										<linkclipref>Raw Interview Matthew Duepner699</linkclipref>
										<mediatype>audio</mediatype>
										<trackindex>2</trackindex>
										<clipindex>46</clipindex>
										<groupindex>1</groupindex>
									</link>
									<itemhistory>
										<uuid>69FAAC50-B1F3-488A-836C-1F10ED26FBD8</uuid>
									</itemhistory>
								</clipitem>
								<clipitem id="Raw Interview Matthew Duepner701">
									<name>Raw Interview Matthew Duepner</name>
									<duration>81486</duration>
									<rate>
										<ntsc>TRUE</ntsc>
										<timebase>24</timebase>
									</rate>
									<in>24285</in>
									<out>24371</out>
									<start>7810</start>
									<end>7896</end>
									<masterclipid>Raw Interview Matthew Duepner390</masterclipid>
									<logginginfo>
										<scene/>
										<shottake/>
										<lognote/>
										<good>FALSE</good>
									</logginginfo>
									<labels>
										<label2/>
									</labels>
									<comments>
										<mastercomment1/>
										<mastercomment2/>
										<mastercomment3/>
										<mastercomment4/>
									</comments>
									<file id="YIN_2013-05-28_LG-5 "/>
									<filter>
										<effect>
											<name>Audio Levels</name>
											<effectid>audiolevels</effectid>
											<effectcategory>audiolevels</effectcategory>
											<effecttype>audiolevels</effecttype>
											<mediatype>audio</mediatype>
											<parameter>
												<name>Level</name>
												<parameterid>level</parameterid>
												<valuemin>0</valuemin>
												<valuemax>3.98109</valuemax>
												<value>1.99526</value>
											</parameter>
										</effect>
									</filter>
									<filter>
										<effect>
											<name>Audio Pan</name>
											<effectid>audiopan</effectid>
											<effectcategory>audiopan</effectcategory>
											<effecttype>audiopan</effecttype>
											<mediatype>audio</mediatype>
											<parameter>
												<name>Pan</name>
												<parameterid>pan</parameterid>
												<valuemin>-1</valuemin>
												<valuemax>1</valuemax>
												<value>0</value>
											</parameter>
										</effect>
									</filter>
									<sourcetrack>
										<mediatype>audio</mediatype>
										<trackindex>1</trackindex>
									</sourcetrack>
									<link>
										<linkclipref>Raw Interview Matthew Duepner700</linkclipref>
										<mediatype>video</mediatype>
										<trackindex>1</trackindex>
										<clipindex>33</clipindex>
									</link>
									<link>
										<linkclipref>Raw Interview Matthew Duepner701</linkclipref>
										<mediatype>audio</mediatype>
										<trackindex>1</trackindex>
										<clipindex>47</clipindex>
										<groupindex>1</groupindex>
									</link>
									<link>
										<linkclipref>Raw Interview Matthew Duepner702</linkclipref>
										<mediatype>audio</mediatype>
										<trackindex>2</trackindex>
										<clipindex>47</clipindex>
										<groupindex>1</groupindex>
									</link>
									<itemhistory>
										<uuid>CB59A169-4BE7-4B8E-8BE5-308DA2133C35</uuid>
									</itemhistory>
								</clipitem>
								<clipitem id="Raw Interview Matthew Duepner704">
									<name>Raw Interview Matthew Duepner</name>
									<duration>81486</duration>
									<rate>
										<ntsc>TRUE</ntsc>
										<timebase>24</timebase>
									</rate>
									<in>23041</in>
									<out>23131</out>
									<start>7896</start>
									<end>7986</end>
									<masterclipid>Raw Interview Matthew Duepner390</masterclipid>
									<logginginfo>
										<scene/>
										<shottake/>
										<lognote/>
										<good>FALSE</good>
									</logginginfo>
									<labels>
										<label2/>
									</labels>
									<comments>
										<mastercomment1/>
										<mastercomment2/>
										<mastercomment3/>
										<mastercomment4/>
									</comments>
									<file id="YIN_2013-05-28_LG-5 "/>
									<filter>
										<effect>
											<name>Audio Levels</name>
											<effectid>audiolevels</effectid>
											<effectcategory>audiolevels</effectcategory>
											<effecttype>audiolevels</effecttype>
											<mediatype>audio</mediatype>
											<parameter>
												<name>Level</name>
												<parameterid>level</parameterid>
												<valuemin>0</valuemin>
												<valuemax>3.98109</valuemax>
												<value>1.99526</value>
											</parameter>
										</effect>
									</filter>
									<filter>
										<effect>
											<name>Audio Pan</name>
											<effectid>audiopan</effectid>
											<effectcategory>audiopan</effectcategory>
											<effecttype>audiopan</effecttype>
											<mediatype>audio</mediatype>
											<parameter>
												<name>Pan</name>
												<parameterid>pan</parameterid>
												<valuemin>-1</valuemin>
												<valuemax>1</valuemax>
												<value>0</value>
											</parameter>
										</effect>
									</filter>
									<sourcetrack>
										<mediatype>audio</mediatype>
										<trackindex>1</trackindex>
									</sourcetrack>
									<link>
										<linkclipref>Raw Interview Matthew Duepner703</linkclipref>
										<mediatype>video</mediatype>
										<trackindex>1</trackindex>
										<clipindex>34</clipindex>
									</link>
									<link>
										<linkclipref>Raw Interview Matthew Duepner704</linkclipref>
										<mediatype>audio</mediatype>
										<trackindex>1</trackindex>
										<clipindex>48</clipindex>
										<groupindex>1</groupindex>
									</link>
									<link>
										<linkclipref>Raw Interview Matthew Duepner705</linkclipref>
										<mediatype>audio</mediatype>
										<trackindex>2</trackindex>
										<clipindex>48</clipindex>
										<groupindex>1</groupindex>
									</link>
									<itemhistory>
										<uuid>EFA8EF59-50D9-4A24-98E8-25C28885AEC4</uuid>
									</itemhistory>
								</clipitem>
								<clipitem id="Raw Interview Matthew Duepner707">
									<name>Raw Interview Matthew Duepner</name>
									<duration>81486</duration>
									<rate>
										<ntsc>TRUE</ntsc>
										<timebase>24</timebase>
									</rate>
									<in>24371</in>
									<out>24449</out>
									<start>7986</start>
									<end>8064</end>
									<masterclipid>Raw Interview Matthew Duepner390</masterclipid>
									<logginginfo>
										<scene/>
										<shottake/>
										<lognote/>
										<good>FALSE</good>
									</logginginfo>
									<labels>
										<label2/>
									</labels>
									<comments>
										<mastercomment1/>
										<mastercomment2/>
										<mastercomment3/>
										<mastercomment4/>
									</comments>
									<file id="YIN_2013-05-28_LG-5 "/>
									<filter>
										<effect>
											<name>Audio Levels</name>
											<effectid>audiolevels</effectid>
											<effectcategory>audiolevels</effectcategory>
											<effecttype>audiolevels</effecttype>
											<mediatype>audio</mediatype>
											<parameter>
												<name>Level</name>
												<parameterid>level</parameterid>
												<valuemin>0</valuemin>
												<valuemax>3.98109</valuemax>
												<value>1.99526</value>
											</parameter>
										</effect>
									</filter>
									<filter>
										<effect>
											<name>Audio Pan</name>
											<effectid>audiopan</effectid>
											<effectcategory>audiopan</effectcategory>
											<effecttype>audiopan</effecttype>
											<mediatype>audio</mediatype>
											<parameter>
												<name>Pan</name>
												<parameterid>pan</parameterid>
												<valuemin>-1</valuemin>
												<valuemax>1</valuemax>
												<value>0</value>
											</parameter>
										</effect>
									</filter>
									<sourcetrack>
										<mediatype>audio</mediatype>
										<trackindex>1</trackindex>
									</sourcetrack>
									<link>
										<linkclipref>Raw Interview Matthew Duepner706</linkclipref>
										<mediatype>video</mediatype>
										<trackindex>1</trackindex>
										<clipindex>35</clipindex>
									</link>
									<link>
										<linkclipref>Raw Interview Matthew Duepner707</linkclipref>
										<mediatype>audio</mediatype>
										<trackindex>1</trackindex>
										<clipindex>49</clipindex>
										<groupindex>1</groupindex>
									</link>
									<link>
										<linkclipref>Raw Interview Matthew Duepner708</linkclipref>
										<mediatype>audio</mediatype>
										<trackindex>2</trackindex>
										<clipindex>49</clipindex>
										<groupindex>1</groupindex>
									</link>
									<itemhistory>
										<uuid>536CBCEE-9042-446D-9559-5C0DA6806214</uuid>
									</itemhistory>
								</clipitem>
								<clipitem id="Raw Interview Matthew Duepner710">
									<name>Raw Interview Matthew Duepner</name>
									<duration>81486</duration>
									<rate>
										<ntsc>TRUE</ntsc>
										<timebase>24</timebase>
									</rate>
									<in>24455</in>
									<out>24488</out>
									<start>8064</start>
									<end>8097</end>
									<masterclipid>Raw Interview Matthew Duepner390</masterclipid>
									<logginginfo>
										<scene/>
										<shottake/>
										<lognote/>
										<good>FALSE</good>
									</logginginfo>
									<labels>
										<label2/>
									</labels>
									<comments>
										<mastercomment1/>
										<mastercomment2/>
										<mastercomment3/>
										<mastercomment4/>
									</comments>
									<file id="YIN_2013-05-28_LG-5 "/>
									<filter>
										<effect>
											<name>Audio Levels</name>
											<effectid>audiolevels</effectid>
											<effectcategory>audiolevels</effectcategory>
											<effecttype>audiolevels</effecttype>
											<mediatype>audio</mediatype>
											<parameter>
												<name>Level</name>
												<parameterid>level</parameterid>
												<valuemin>0</valuemin>
												<valuemax>3.98109</valuemax>
												<value>1.99526</value>
											</parameter>
										</effect>
									</filter>
									<filter>
										<effect>
											<name>Audio Pan</name>
											<effectid>audiopan</effectid>
											<effectcategory>audiopan</effectcategory>
											<effecttype>audiopan</effecttype>
											<mediatype>audio</mediatype>
											<parameter>
												<name>Pan</name>
												<parameterid>pan</parameterid>
												<valuemin>-1</valuemin>
												<valuemax>1</valuemax>
												<value>0</value>
											</parameter>
										</effect>
									</filter>
									<sourcetrack>
										<mediatype>audio</mediatype>
										<trackindex>1</trackindex>
									</sourcetrack>
									<link>
										<linkclipref>Raw Interview Matthew Duepner709</linkclipref>
										<mediatype>video</mediatype>
										<trackindex>1</trackindex>
										<clipindex>36</clipindex>
									</link>
									<link>
										<linkclipref>Raw Interview Matthew Duepner710</linkclipref>
										<mediatype>audio</mediatype>
										<trackindex>1</trackindex>
										<clipindex>50</clipindex>
										<groupindex>1</groupindex>
									</link>
									<link>
										<linkclipref>Raw Interview Matthew Duepner711</linkclipref>
										<mediatype>audio</mediatype>
										<trackindex>2</trackindex>
										<clipindex>50</clipindex>
										<groupindex>1</groupindex>
									</link>
									<itemhistory>
										<uuid>B501BC55-FAB5-4B53-A7F8-450303488F28</uuid>
									</itemhistory>
								</clipitem>
								<enabled>TRUE</enabled>
								<locked>FALSE</locked>
								<outputchannelindex>1</outputchannelindex>
							</track>
							<track>
								<clipitem id="Raw Interview Matthew Duepner606">
									<name>Raw Interview Matthew Duepner</name>
									<duration>81486</duration>
									<rate>
										<ntsc>TRUE</ntsc>
										<timebase>24</timebase>
									</rate>
									<in>2994</in>
									<out>3033</out>
									<start>708</start>
									<end>747</end>
									<masterclipid>Raw Interview Matthew Duepner390</masterclipid>
									<logginginfo>
										<scene/>
										<shottake/>
										<lognote/>
										<good>FALSE</good>
									</logginginfo>
									<labels>
										<label2/>
									</labels>
									<comments>
										<mastercomment1/>
										<mastercomment2/>
										<mastercomment3/>
										<mastercomment4/>
									</comments>
									<file id="YIN_2013-05-28_LG-5 "/>
									<filter>
										<effect>
											<name>Audio Levels</name>
											<effectid>audiolevels</effectid>
											<effectcategory>audiolevels</effectcategory>
											<effecttype>audiolevels</effecttype>
											<mediatype>audio</mediatype>
											<parameter>
												<name>Level</name>
												<parameterid>level</parameterid>
												<valuemin>0</valuemin>
												<valuemax>3.98109</valuemax>
												<value>1.99526</value>
											</parameter>
										</effect>
									</filter>
									<filter>
										<effect>
											<name>Audio Pan</name>
											<effectid>audiopan</effectid>
											<effectcategory>audiopan</effectcategory>
											<effecttype>audiopan</effecttype>
											<mediatype>audio</mediatype>
											<parameter>
												<name>Pan</name>
												<parameterid>pan</parameterid>
												<valuemin>-1</valuemin>
												<valuemax>1</valuemax>
												<value>-0</value>
											</parameter>
										</effect>
									</filter>
									<sourcetrack>
										<mediatype>audio</mediatype>
										<trackindex>2</trackindex>
									</sourcetrack>
									<link>
										<linkclipref>Raw Interview Matthew Duepner604</linkclipref>
										<mediatype>video</mediatype>
										<trackindex>1</trackindex>
										<clipindex>1</clipindex>
									</link>
									<link>
										<linkclipref>Raw Interview Matthew Duepner605</linkclipref>
										<mediatype>audio</mediatype>
										<trackindex>1</trackindex>
										<clipindex>1</clipindex>
										<groupindex>1</groupindex>
									</link>
									<link>
										<linkclipref>Raw Interview Matthew Duepner606</linkclipref>
										<mediatype>audio</mediatype>
										<trackindex>2</trackindex>
										<clipindex>1</clipindex>
										<groupindex>1</groupindex>
									</link>
									<itemhistory>
										<uuid>026F383A-5F1B-424C-A957-AE3954E22154</uuid>
									</itemhistory>
								</clipitem>
								<clipitem id="Raw Interview Matthew Duepner609">
									<name>Raw Interview Matthew Duepner</name>
									<duration>81486</duration>
									<rate>
										<ntsc>TRUE</ntsc>
										<timebase>24</timebase>
									</rate>
									<in>3050</in>
									<out>3174</out>
									<start>764</start>
									<end>888</end>
									<masterclipid>Raw Interview Matthew Duepner390</masterclipid>
									<logginginfo>
										<scene/>
										<shottake/>
										<lognote/>
										<good>FALSE</good>
									</logginginfo>
									<labels>
										<label2/>
									</labels>
									<comments>
										<mastercomment1/>
										<mastercomment2/>
										<mastercomment3/>
										<mastercomment4/>
									</comments>
									<file id="YIN_2013-05-28_LG-5 "/>
									<filter>
										<effect>
											<name>Audio Levels</name>
											<effectid>audiolevels</effectid>
											<effectcategory>audiolevels</effectcategory>
											<effecttype>audiolevels</effecttype>
											<mediatype>audio</mediatype>
											<parameter>
												<name>Level</name>
												<parameterid>level</parameterid>
												<valuemin>0</valuemin>
												<valuemax>3.98109</valuemax>
												<value>1.99526</value>
											</parameter>
										</effect>
									</filter>
									<filter>
										<effect>
											<name>Audio Pan</name>
											<effectid>audiopan</effectid>
											<effectcategory>audiopan</effectcategory>
											<effecttype>audiopan</effecttype>
											<mediatype>audio</mediatype>
											<parameter>
												<name>Pan</name>
												<parameterid>pan</parameterid>
												<valuemin>-1</valuemin>
												<valuemax>1</valuemax>
												<value>-0</value>
											</parameter>
										</effect>
									</filter>
									<sourcetrack>
										<mediatype>audio</mediatype>
										<trackindex>2</trackindex>
									</sourcetrack>
									<link>
										<linkclipref>Raw Interview Matthew Duepner607</linkclipref>
										<mediatype>video</mediatype>
										<trackindex>1</trackindex>
										<clipindex>2</clipindex>
									</link>
									<link>
										<linkclipref>Raw Interview Matthew Duepner608</linkclipref>
										<mediatype>audio</mediatype>
										<trackindex>1</trackindex>
										<clipindex>2</clipindex>
										<groupindex>1</groupindex>
									</link>
									<link>
										<linkclipref>Raw Interview Matthew Duepner609</linkclipref>
										<mediatype>audio</mediatype>
										<trackindex>2</trackindex>
										<clipindex>2</clipindex>
										<groupindex>1</groupindex>
									</link>
									<itemhistory>
										<uuid>67EAE55B-D542-49F8-A476-93579417A910</uuid>
									</itemhistory>
								</clipitem>
								<clipitem id="Raw Interview Matthew Duepner612">
									<name>Raw Interview Matthew Duepner</name>
									<duration>81486</duration>
									<rate>
										<ntsc>TRUE</ntsc>
										<timebase>24</timebase>
									</rate>
									<in>3586</in>
									<out>3633</out>
									<start>892</start>
									<end>939</end>
									<masterclipid>Raw Interview Matthew Duepner390</masterclipid>
									<logginginfo>
										<scene/>
										<shottake/>
										<lognote/>
										<good>FALSE</good>
									</logginginfo>
									<labels>
										<label2/>
									</labels>
									<comments>
										<mastercomment1/>
										<mastercomment2/>
										<mastercomment3/>
										<mastercomment4/>
									</comments>
									<file id="YIN_2013-05-28_LG-5 "/>
									<filter>
										<effect>
											<name>Audio Levels</name>
											<effectid>audiolevels</effectid>
											<effectcategory>audiolevels</effectcategory>
											<effecttype>audiolevels</effecttype>
											<mediatype>audio</mediatype>
											<parameter>
												<name>Level</name>
												<parameterid>level</parameterid>
												<valuemin>0</valuemin>
												<valuemax>3.98109</valuemax>
												<value>1.99526</value>
											</parameter>
										</effect>
									</filter>
									<filter>
										<effect>
											<name>Audio Pan</name>
											<effectid>audiopan</effectid>
											<effectcategory>audiopan</effectcategory>
											<effecttype>audiopan</effecttype>
											<mediatype>audio</mediatype>
											<parameter>
												<name>Pan</name>
												<parameterid>pan</parameterid>
												<valuemin>-1</valuemin>
												<valuemax>1</valuemax>
												<value>-0</value>
											</parameter>
										</effect>
									</filter>
									<sourcetrack>
										<mediatype>audio</mediatype>
										<trackindex>2</trackindex>
									</sourcetrack>
									<link>
										<linkclipref>Raw Interview Matthew Duepner610</linkclipref>
										<mediatype>video</mediatype>
										<trackindex>1</trackindex>
										<clipindex>3</clipindex>
									</link>
									<link>
										<linkclipref>Raw Interview Matthew Duepner611</linkclipref>
										<mediatype>audio</mediatype>
										<trackindex>1</trackindex>
										<clipindex>3</clipindex>
										<groupindex>1</groupindex>
									</link>
									<link>
										<linkclipref>Raw Interview Matthew Duepner612</linkclipref>
										<mediatype>audio</mediatype>
										<trackindex>2</trackindex>
										<clipindex>3</clipindex>
										<groupindex>1</groupindex>
									</link>
									<itemhistory>
										<uuid>B87A56FA-99D9-4206-BB2F-ACD0EC229C39</uuid>
									</itemhistory>
								</clipitem>
								<clipitem id="Raw Interview Matthew Duepner615">
									<name>Raw Interview Matthew Duepner</name>
									<duration>81486</duration>
									<rate>
										<ntsc>TRUE</ntsc>
										<timebase>24</timebase>
									</rate>
									<in>6757</in>
									<out>6892</out>
									<start>1048</start>
									<end>1183</end>
									<masterclipid>Raw Interview Matthew Duepner390</masterclipid>
									<logginginfo>
										<scene/>
										<shottake/>
										<lognote/>
										<good>FALSE</good>
									</logginginfo>
									<labels>
										<label2/>
									</labels>
									<comments>
										<mastercomment1/>
										<mastercomment2/>
										<mastercomment3/>
										<mastercomment4/>
									</comments>
									<file id="YIN_2013-05-28_LG-5 "/>
									<filter>
										<effect>
											<name>Audio Levels</name>
											<effectid>audiolevels</effectid>
											<effectcategory>audiolevels</effectcategory>
											<effecttype>audiolevels</effecttype>
											<mediatype>audio</mediatype>
											<parameter>
												<name>Level</name>
												<parameterid>level</parameterid>
												<valuemin>0</valuemin>
												<valuemax>3.98109</valuemax>
												<value>1.99526</value>
											</parameter>
										</effect>
									</filter>
									<filter>
										<effect>
											<name>Audio Pan</name>
											<effectid>audiopan</effectid>
											<effectcategory>audiopan</effectcategory>
											<effecttype>audiopan</effecttype>
											<mediatype>audio</mediatype>
											<parameter>
												<name>Pan</name>
												<parameterid>pan</parameterid>
												<valuemin>-1</valuemin>
												<valuemax>1</valuemax>
												<value>-0</value>
											</parameter>
										</effect>
									</filter>
									<sourcetrack>
										<mediatype>audio</mediatype>
										<trackindex>2</trackindex>
									</sourcetrack>
									<link>
										<linkclipref>Raw Interview Matthew Duepner613</linkclipref>
										<mediatype>video</mediatype>
										<trackindex>1</trackindex>
										<clipindex>4</clipindex>
									</link>
									<link>
										<linkclipref>Raw Interview Matthew Duepner614</linkclipref>
										<mediatype>audio</mediatype>
										<trackindex>1</trackindex>
										<clipindex>4</clipindex>
										<groupindex>1</groupindex>
									</link>
									<link>
										<linkclipref>Raw Interview Matthew Duepner615</linkclipref>
										<mediatype>audio</mediatype>
										<trackindex>2</trackindex>
										<clipindex>4</clipindex>
										<groupindex>1</groupindex>
									</link>
									<itemhistory>
										<uuid>E482E5BA-89FF-4384-AB78-95200BA2603D</uuid>
									</itemhistory>
								</clipitem>
								<clipitem id="Raw Interview Matthew Duepner618">
									<name>Raw Interview Matthew Duepner</name>
									<duration>81486</duration>
									<rate>
										<ntsc>TRUE</ntsc>
										<timebase>24</timebase>
									</rate>
									<in>28387</in>
									<out>28619</out>
									<start>1249</start>
									<end>1481</end>
									<masterclipid>Raw Interview Matthew Duepner390</masterclipid>
									<logginginfo>
										<scene/>
										<shottake/>
										<lognote/>
										<good>FALSE</good>
									</logginginfo>
									<labels>
										<label2/>
									</labels>
									<comments>
										<mastercomment1/>
										<mastercomment2/>
										<mastercomment3/>
										<mastercomment4/>
									</comments>
									<file id="YIN_2013-05-28_LG-5 "/>
									<filter>
										<effect>
											<name>Audio Levels</name>
											<effectid>audiolevels</effectid>
											<effectcategory>audiolevels</effectcategory>
											<effecttype>audiolevels</effecttype>
											<mediatype>audio</mediatype>
											<parameter>
												<name>Level</name>
												<parameterid>level</parameterid>
												<valuemin>0</valuemin>
												<valuemax>3.98109</valuemax>
												<value>1.99526</value>
											</parameter>
										</effect>
									</filter>
									<filter>
										<effect>
											<name>Audio Pan</name>
											<effectid>audiopan</effectid>
											<effectcategory>audiopan</effectcategory>
											<effecttype>audiopan</effecttype>
											<mediatype>audio</mediatype>
											<parameter>
												<name>Pan</name>
												<parameterid>pan</parameterid>
												<valuemin>-1</valuemin>
												<valuemax>1</valuemax>
												<value>-0</value>
											</parameter>
										</effect>
									</filter>
									<sourcetrack>
										<mediatype>audio</mediatype>
										<trackindex>2</trackindex>
									</sourcetrack>
									<link>
										<linkclipref>Raw Interview Matthew Duepner616</linkclipref>
										<mediatype>video</mediatype>
										<trackindex>1</trackindex>
										<clipindex>5</clipindex>
									</link>
									<link>
										<linkclipref>Raw Interview Matthew Duepner617</linkclipref>
										<mediatype>audio</mediatype>
										<trackindex>1</trackindex>
										<clipindex>5</clipindex>
										<groupindex>1</groupindex>
									</link>
									<link>
										<linkclipref>Raw Interview Matthew Duepner618</linkclipref>
										<mediatype>audio</mediatype>
										<trackindex>2</trackindex>
										<clipindex>5</clipindex>
										<groupindex>1</groupindex>
									</link>
									<itemhistory>
										<uuid>4E90B016-DC62-4571-8FBD-D45C8F3A0563</uuid>
									</itemhistory>
								</clipitem>
								<transitionitem>
									<rate>
										<ntsc>TRUE</ntsc>
										<timebase>24</timebase>
									</rate>
									<start>1493</start>
									<end>1496</end>
									<alignment>start-black</alignment>
									<effect>
										<name>Cross Fade ( 0dB)</name>
										<effectid>KGAudioTransCrossFade0dB</effectid>
										<effecttype>transition</effecttype>
										<mediatype>audio</mediatype>
										<startratio>0</startratio>
										<endratio>1</endratio>
										<reverse>FALSE</reverse>
									</effect>
								</transitionitem>
								<clipitem id="Raw Interview Matthew Duepner621">
									<name>Raw Interview Matthew Duepner</name>
									<duration>81486</duration>
									<rate>
										<ntsc>TRUE</ntsc>
										<timebase>24</timebase>
									</rate>
									<in>76128</in>
									<out>76339</out>
									<start>-1</start>
									<end>1704</end>
									<masterclipid>Raw Interview Matthew Duepner390</masterclipid>
									<logginginfo>
										<scene/>
										<shottake/>
										<lognote/>
										<good>FALSE</good>
									</logginginfo>
									<labels>
										<label2/>
									</labels>
									<comments>
										<mastercomment1/>
										<mastercomment2/>
										<mastercomment3/>
										<mastercomment4/>
									</comments>
									<file id="YIN_2013-05-28_LG-5 "/>
									<filter>
										<effect>
											<name>Audio Levels</name>
											<effectid>audiolevels</effectid>
											<effectcategory>audiolevels</effectcategory>
											<effecttype>audiolevels</effecttype>
											<mediatype>audio</mediatype>
											<parameter>
												<name>Level</name>
												<parameterid>level</parameterid>
												<valuemin>0</valuemin>
												<valuemax>3.98109</valuemax>
												<value>1.99526</value>
											</parameter>
										</effect>
									</filter>
									<filter>
										<effect>
											<name>Audio Pan</name>
											<effectid>audiopan</effectid>
											<effectcategory>audiopan</effectcategory>
											<effecttype>audiopan</effecttype>
											<mediatype>audio</mediatype>
											<parameter>
												<name>Pan</name>
												<parameterid>pan</parameterid>
												<valuemin>-1</valuemin>
												<valuemax>1</valuemax>
												<value>-0</value>
											</parameter>
										</effect>
									</filter>
									<sourcetrack>
										<mediatype>audio</mediatype>
										<trackindex>2</trackindex>
									</sourcetrack>
									<link>
										<linkclipref>Raw Interview Matthew Duepner619</linkclipref>
										<mediatype>video</mediatype>
										<trackindex>1</trackindex>
										<clipindex>6</clipindex>
									</link>
									<link>
										<linkclipref>Raw Interview Matthew Duepner620</linkclipref>
										<mediatype>audio</mediatype>
										<trackindex>1</trackindex>
										<clipindex>7</clipindex>
										<groupindex>1</groupindex>
									</link>
									<link>
										<linkclipref>Raw Interview Matthew Duepner621</linkclipref>
										<mediatype>audio</mediatype>
										<trackindex>2</trackindex>
										<clipindex>7</clipindex>
										<groupindex>1</groupindex>
									</link>
									<itemhistory>
										<uuid>D422EBE4-B0AD-4481-9FAD-11AB11EBDC7D</uuid>
									</itemhistory>
								</clipitem>
								<clipitem id="Raw Interview Matthew Duepner624">
									<name>Raw Interview Matthew Duepner</name>
									<duration>81486</duration>
									<rate>
										<ntsc>TRUE</ntsc>
										<timebase>24</timebase>
									</rate>
									<in>5496</in>
									<out>5591</out>
									<start>1769</start>
									<end>1864</end>
									<masterclipid>Raw Interview Matthew Duepner390</masterclipid>
									<logginginfo>
										<scene/>
										<shottake/>
										<lognote/>
										<good>FALSE</good>
									</logginginfo>
									<labels>
										<label2/>
									</labels>
									<comments>
										<mastercomment1/>
										<mastercomment2/>
										<mastercomment3/>
										<mastercomment4/>
									</comments>
									<file id="YIN_2013-05-28_LG-5 "/>
									<filter>
										<effect>
											<name>Audio Levels</name>
											<effectid>audiolevels</effectid>
											<effectcategory>audiolevels</effectcategory>
											<effecttype>audiolevels</effecttype>
											<mediatype>audio</mediatype>
											<parameter>
												<name>Level</name>
												<parameterid>level</parameterid>
												<valuemin>0</valuemin>
												<valuemax>3.98109</valuemax>
												<value>1.99526</value>
											</parameter>
										</effect>
									</filter>
									<filter>
										<effect>
											<name>Audio Pan</name>
											<effectid>audiopan</effectid>
											<effectcategory>audiopan</effectcategory>
											<effecttype>audiopan</effecttype>
											<mediatype>audio</mediatype>
											<parameter>
												<name>Pan</name>
												<parameterid>pan</parameterid>
												<valuemin>-1</valuemin>
												<valuemax>1</valuemax>
												<value>-0</value>
											</parameter>
										</effect>
									</filter>
									<sourcetrack>
										<mediatype>audio</mediatype>
										<trackindex>2</trackindex>
									</sourcetrack>
									<link>
										<linkclipref>Raw Interview Matthew Duepner622</linkclipref>
										<mediatype>video</mediatype>
										<trackindex>1</trackindex>
										<clipindex>7</clipindex>
									</link>
									<link>
										<linkclipref>Raw Interview Matthew Duepner623</linkclipref>
										<mediatype>audio</mediatype>
										<trackindex>1</trackindex>
										<clipindex>8</clipindex>
										<groupindex>1</groupindex>
									</link>
									<link>
										<linkclipref>Raw Interview Matthew Duepner624</linkclipref>
										<mediatype>audio</mediatype>
										<trackindex>2</trackindex>
										<clipindex>8</clipindex>
										<groupindex>1</groupindex>
									</link>
									<itemhistory>
										<uuid>D3F34755-BD76-4EED-9B87-9F5ADC48DB94</uuid>
									</itemhistory>
								</clipitem>
								<clipitem id="Raw Interview Matthew Duepner627">
									<name>Raw Interview Matthew Duepner</name>
									<duration>81486</duration>
									<rate>
										<ntsc>TRUE</ntsc>
										<timebase>24</timebase>
									</rate>
									<in>6176</in>
									<out>6256</out>
									<start>1864</start>
									<end>1944</end>
									<masterclipid>Raw Interview Matthew Duepner390</masterclipid>
									<logginginfo>
										<scene/>
										<shottake/>
										<lognote/>
										<good>FALSE</good>
									</logginginfo>
									<labels>
										<label2/>
									</labels>
									<comments>
										<mastercomment1/>
										<mastercomment2/>
										<mastercomment3/>
										<mastercomment4/>
									</comments>
									<file id="YIN_2013-05-28_LG-5 "/>
									<filter>
										<effect>
											<name>Audio Levels</name>
											<effectid>audiolevels</effectid>
											<effectcategory>audiolevels</effectcategory>
											<effecttype>audiolevels</effecttype>
											<mediatype>audio</mediatype>
											<parameter>
												<name>Level</name>
												<parameterid>level</parameterid>
												<valuemin>0</valuemin>
												<valuemax>3.98109</valuemax>
												<value>1.99526</value>
											</parameter>
										</effect>
									</filter>
									<filter>
										<effect>
											<name>Audio Pan</name>
											<effectid>audiopan</effectid>
											<effectcategory>audiopan</effectcategory>
											<effecttype>audiopan</effecttype>
											<mediatype>audio</mediatype>
											<parameter>
												<name>Pan</name>
												<parameterid>pan</parameterid>
												<valuemin>-1</valuemin>
												<valuemax>1</valuemax>
												<value>-0</value>
											</parameter>
										</effect>
									</filter>
									<sourcetrack>
										<mediatype>audio</mediatype>
										<trackindex>2</trackindex>
									</sourcetrack>
									<link>
										<linkclipref>Raw Interview Matthew Duepner625</linkclipref>
										<mediatype>video</mediatype>
										<trackindex>1</trackindex>
										<clipindex>8</clipindex>
									</link>
									<link>
										<linkclipref>Raw Interview Matthew Duepner626</linkclipref>
										<mediatype>audio</mediatype>
										<trackindex>1</trackindex>
										<clipindex>9</clipindex>
										<groupindex>1</groupindex>
									</link>
									<link>
										<linkclipref>Raw Interview Matthew Duepner627</linkclipref>
										<mediatype>audio</mediatype>
										<trackindex>2</trackindex>
										<clipindex>9</clipindex>
										<groupindex>1</groupindex>
									</link>
									<itemhistory>
										<uuid>B075B3FB-06D7-443A-8D7F-17D1AF1B878B</uuid>
									</itemhistory>
								</clipitem>
								<clipitem id="Raw Interview Matthew Duepner630">
									<name>Raw Interview Matthew Duepner</name>
									<duration>81486</duration>
									<rate>
										<ntsc>TRUE</ntsc>
										<timebase>24</timebase>
									</rate>
									<in>26630</in>
									<out>26790</out>
									<start>1944</start>
									<end>2104</end>
									<masterclipid>Raw Interview Matthew Duepner390</masterclipid>
									<logginginfo>
										<scene/>
										<shottake/>
										<lognote/>
										<good>FALSE</good>
									</logginginfo>
									<labels>
										<label2/>
									</labels>
									<comments>
										<mastercomment1/>
										<mastercomment2/>
										<mastercomment3/>
										<mastercomment4/>
									</comments>
									<file id="YIN_2013-05-28_LG-5 "/>
									<filter>
										<effect>
											<name>Audio Levels</name>
											<effectid>audiolevels</effectid>
											<effectcategory>audiolevels</effectcategory>
											<effecttype>audiolevels</effecttype>
											<mediatype>audio</mediatype>
											<parameter>
												<name>Level</name>
												<parameterid>level</parameterid>
												<valuemin>0</valuemin>
												<valuemax>3.98109</valuemax>
												<value>1.99526</value>
											</parameter>
										</effect>
									</filter>
									<filter>
										<effect>
											<name>Audio Pan</name>
											<effectid>audiopan</effectid>
											<effectcategory>audiopan</effectcategory>
											<effecttype>audiopan</effecttype>
											<mediatype>audio</mediatype>
											<parameter>
												<name>Pan</name>
												<parameterid>pan</parameterid>
												<valuemin>-1</valuemin>
												<valuemax>1</valuemax>
												<value>-0</value>
											</parameter>
										</effect>
									</filter>
									<sourcetrack>
										<mediatype>audio</mediatype>
										<trackindex>2</trackindex>
									</sourcetrack>
									<link>
										<linkclipref>Raw Interview Matthew Duepner628</linkclipref>
										<mediatype>video</mediatype>
										<trackindex>1</trackindex>
										<clipindex>9</clipindex>
									</link>
									<link>
										<linkclipref>Raw Interview Matthew Duepner629</linkclipref>
										<mediatype>audio</mediatype>
										<trackindex>1</trackindex>
										<clipindex>10</clipindex>
										<groupindex>1</groupindex>
									</link>
									<link>
										<linkclipref>Raw Interview Matthew Duepner630</linkclipref>
										<mediatype>audio</mediatype>
										<trackindex>2</trackindex>
										<clipindex>10</clipindex>
										<groupindex>1</groupindex>
									</link>
									<itemhistory>
										<uuid>2CF0813C-B864-4C3E-9274-354616F8FDDC</uuid>
									</itemhistory>
								</clipitem>
								<clipitem id="Raw Interview Matthew Duepner633">
									<name>Raw Interview Matthew Duepner</name>
									<duration>81486</duration>
									<rate>
										<ntsc>TRUE</ntsc>
										<timebase>24</timebase>
									</rate>
									<in>27232</in>
									<out>27302</out>
									<start>2104</start>
									<end>2174</end>
									<masterclipid>Raw Interview Matthew Duepner390</masterclipid>
									<logginginfo>
										<scene/>
										<shottake/>
										<lognote/>
										<good>FALSE</good>
									</logginginfo>
									<labels>
										<label2/>
									</labels>
									<comments>
										<mastercomment1/>
										<mastercomment2/>
										<mastercomment3/>
										<mastercomment4/>
									</comments>
									<file id="YIN_2013-05-28_LG-5 "/>
									<filter>
										<effect>
											<name>Audio Levels</name>
											<effectid>audiolevels</effectid>
											<effectcategory>audiolevels</effectcategory>
											<effecttype>audiolevels</effecttype>
											<mediatype>audio</mediatype>
											<parameter>
												<name>Level</name>
												<parameterid>level</parameterid>
												<valuemin>0</valuemin>
												<valuemax>3.98109</valuemax>
												<value>1.99526</value>
											</parameter>
										</effect>
									</filter>
									<filter>
										<effect>
											<name>Audio Pan</name>
											<effectid>audiopan</effectid>
											<effectcategory>audiopan</effectcategory>
											<effecttype>audiopan</effecttype>
											<mediatype>audio</mediatype>
											<parameter>
												<name>Pan</name>
												<parameterid>pan</parameterid>
												<valuemin>-1</valuemin>
												<valuemax>1</valuemax>
												<value>-0</value>
											</parameter>
										</effect>
									</filter>
									<sourcetrack>
										<mediatype>audio</mediatype>
										<trackindex>2</trackindex>
									</sourcetrack>
									<link>
										<linkclipref>Raw Interview Matthew Duepner631</linkclipref>
										<mediatype>video</mediatype>
										<trackindex>1</trackindex>
										<clipindex>10</clipindex>
									</link>
									<link>
										<linkclipref>Raw Interview Matthew Duepner632</linkclipref>
										<mediatype>audio</mediatype>
										<trackindex>1</trackindex>
										<clipindex>11</clipindex>
										<groupindex>1</groupindex>
									</link>
									<link>
										<linkclipref>Raw Interview Matthew Duepner633</linkclipref>
										<mediatype>audio</mediatype>
										<trackindex>2</trackindex>
										<clipindex>11</clipindex>
										<groupindex>1</groupindex>
									</link>
									<itemhistory>
										<uuid>7CB4A552-7DB0-46BB-A61F-492F2FD989F7</uuid>
									</itemhistory>
								</clipitem>
								<clipitem id="Raw Scene Matthew Duepner Printing158">
									<name>Raw Scene Matthew Duepner Printing</name>
									<duration>28553</duration>
									<rate>
										<ntsc>TRUE</ntsc>
										<timebase>24</timebase>
									</rate>
									<in>14375</in>
									<out>14613</out>
									<start>2233</start>
									<end>2471</end>
									<masterclipid>Raw Scene Matthew Duepner Printing72</masterclipid>
									<logginginfo>
										<scene/>
										<shottake/>
										<lognote/>
										<good>FALSE</good>
									</logginginfo>
									<labels>
										<label2/>
									</labels>
									<comments>
										<mastercomment1/>
										<mastercomment2/>
										<mastercomment3/>
										<mastercomment4/>
									</comments>
									<file id="YIN_2013-05-28_LG-6 "/>
									<filter>
										<effect>
											<name>Audio Levels</name>
											<effectid>audiolevels</effectid>
											<effectcategory>audiolevels</effectcategory>
											<effecttype>audiolevels</effecttype>
											<mediatype>audio</mediatype>
											<parameter>
												<name>Level</name>
												<parameterid>level</parameterid>
												<valuemin>0</valuemin>
												<valuemax>3.98109</valuemax>
												<value>1.9718</value>
											</parameter>
										</effect>
									</filter>
									<filter>
										<effect>
											<name>Audio Pan</name>
											<effectid>audiopan</effectid>
											<effectcategory>audiopan</effectcategory>
											<effecttype>audiopan</effecttype>
											<mediatype>audio</mediatype>
											<parameter>
												<name>Pan</name>
												<parameterid>pan</parameterid>
												<valuemin>-1</valuemin>
												<valuemax>1</valuemax>
												<value>-0</value>
											</parameter>
										</effect>
									</filter>
									<sourcetrack>
										<mediatype>audio</mediatype>
										<trackindex>2</trackindex>
									</sourcetrack>
									<link>
										<linkclipref>Raw Scene Matthew Duepner Printing157</linkclipref>
										<mediatype>audio</mediatype>
										<trackindex>1</trackindex>
										<clipindex>12</clipindex>
										<groupindex>1</groupindex>
									</link>
									<link>
										<linkclipref>Raw Scene Matthew Duepner Printing158</linkclipref>
										<mediatype>audio</mediatype>
										<trackindex>2</trackindex>
										<clipindex>12</clipindex>
										<groupindex>1</groupindex>
									</link>
									<itemhistory>
										<uuid>4759CABA-E6CF-422D-A08E-77E027C3C60A</uuid>
									</itemhistory>
								</clipitem>
								<clipitem id="Raw Interview Matthew Duepner636">
									<name>Raw Interview Matthew Duepner</name>
									<duration>81486</duration>
									<rate>
										<ntsc>TRUE</ntsc>
										<timebase>24</timebase>
									</rate>
									<in>14189</in>
									<out>14301</out>
									<start>2471</start>
									<end>2583</end>
									<masterclipid>Raw Interview Matthew Duepner390</masterclipid>
									<logginginfo>
										<scene/>
										<shottake/>
										<lognote/>
										<good>FALSE</good>
									</logginginfo>
									<labels>
										<label2/>
									</labels>
									<comments>
										<mastercomment1/>
										<mastercomment2/>
										<mastercomment3/>
										<mastercomment4/>
									</comments>
									<file id="YIN_2013-05-28_LG-5 "/>
									<filter>
										<effect>
											<name>Audio Levels</name>
											<effectid>audiolevels</effectid>
											<effectcategory>audiolevels</effectcategory>
											<effecttype>audiolevels</effecttype>
											<mediatype>audio</mediatype>
											<parameter>
												<name>Level</name>
												<parameterid>level</parameterid>
												<valuemin>0</valuemin>
												<valuemax>3.98109</valuemax>
												<value>1.99526</value>
											</parameter>
										</effect>
									</filter>
									<filter>
										<effect>
											<name>Audio Pan</name>
											<effectid>audiopan</effectid>
											<effectcategory>audiopan</effectcategory>
											<effecttype>audiopan</effecttype>
											<mediatype>audio</mediatype>
											<parameter>
												<name>Pan</name>
												<parameterid>pan</parameterid>
												<valuemin>-1</valuemin>
												<valuemax>1</valuemax>
												<value>-0</value>
											</parameter>
										</effect>
									</filter>
									<sourcetrack>
										<mediatype>audio</mediatype>
										<trackindex>2</trackindex>
									</sourcetrack>
									<link>
										<linkclipref>Raw Interview Matthew Duepner634</linkclipref>
										<mediatype>video</mediatype>
										<trackindex>1</trackindex>
										<clipindex>11</clipindex>
									</link>
									<link>
										<linkclipref>Raw Interview Matthew Duepner635</linkclipref>
										<mediatype>audio</mediatype>
										<trackindex>1</trackindex>
										<clipindex>13</clipindex>
										<groupindex>1</groupindex>
									</link>
									<link>
										<linkclipref>Raw Interview Matthew Duepner636</linkclipref>
										<mediatype>audio</mediatype>
										<trackindex>2</trackindex>
										<clipindex>13</clipindex>
										<groupindex>1</groupindex>
									</link>
									<itemhistory>
										<uuid>A3FB6C99-B859-4D7D-A050-A611133C391B</uuid>
									</itemhistory>
								</clipitem>
								<clipitem id="Raw Interview Matthew Duepner639">
									<name>Raw Interview Matthew Duepner</name>
									<duration>81486</duration>
									<rate>
										<ntsc>TRUE</ntsc>
										<timebase>24</timebase>
									</rate>
									<in>25948</in>
									<out>26160</out>
									<start>2583</start>
									<end>2795</end>
									<masterclipid>Raw Interview Matthew Duepner390</masterclipid>
									<logginginfo>
										<scene/>
										<shottake/>
										<lognote/>
										<good>FALSE</good>
									</logginginfo>
									<labels>
										<label2/>
									</labels>
									<comments>
										<mastercomment1/>
										<mastercomment2/>
										<mastercomment3/>
										<mastercomment4/>
									</comments>
									<file id="YIN_2013-05-28_LG-5 "/>
									<filter>
										<effect>
											<name>Audio Levels</name>
											<effectid>audiolevels</effectid>
											<effectcategory>audiolevels</effectcategory>
											<effecttype>audiolevels</effecttype>
											<mediatype>audio</mediatype>
											<parameter>
												<name>Level</name>
												<parameterid>level</parameterid>
												<valuemin>0</valuemin>
												<valuemax>3.98109</valuemax>
												<value>1.99526</value>
											</parameter>
										</effect>
									</filter>
									<filter>
										<effect>
											<name>Audio Pan</name>
											<effectid>audiopan</effectid>
											<effectcategory>audiopan</effectcategory>
											<effecttype>audiopan</effecttype>
											<mediatype>audio</mediatype>
											<parameter>
												<name>Pan</name>
												<parameterid>pan</parameterid>
												<valuemin>-1</valuemin>
												<valuemax>1</valuemax>
												<value>-0</value>
											</parameter>
										</effect>
									</filter>
									<sourcetrack>
										<mediatype>audio</mediatype>
										<trackindex>2</trackindex>
									</sourcetrack>
									<link>
										<linkclipref>Raw Interview Matthew Duepner637</linkclipref>
										<mediatype>video</mediatype>
										<trackindex>1</trackindex>
										<clipindex>12</clipindex>
									</link>
									<link>
										<linkclipref>Raw Interview Matthew Duepner638</linkclipref>
										<mediatype>audio</mediatype>
										<trackindex>1</trackindex>
										<clipindex>14</clipindex>
										<groupindex>1</groupindex>
									</link>
									<link>
										<linkclipref>Raw Interview Matthew Duepner639</linkclipref>
										<mediatype>audio</mediatype>
										<trackindex>2</trackindex>
										<clipindex>14</clipindex>
										<groupindex>1</groupindex>
									</link>
									<itemhistory>
										<uuid>39DA862F-1C57-4813-A6A7-A06F10841865</uuid>
									</itemhistory>
								</clipitem>
								<clipitem id="Raw Scene Matthew Duepner Printing143">
									<name>Raw Scene Matthew Duepner Printing</name>
									<duration>28553</duration>
									<rate>
										<ntsc>TRUE</ntsc>
										<timebase>24</timebase>
									</rate>
									<in>22464</in>
									<out>22508</out>
									<start>2795</start>
									<end>2839</end>
									<masterclipid>Raw Scene Matthew Duepner Printing72</masterclipid>
									<logginginfo>
										<scene/>
										<shottake/>
										<lognote/>
										<good>FALSE</good>
									</logginginfo>
									<labels>
										<label2/>
									</labels>
									<comments>
										<mastercomment1/>
										<mastercomment2/>
										<mastercomment3/>
										<mastercomment4/>
									</comments>
									<file id="YIN_2013-05-28_LG-6 "/>
									<filter>
										<effect>
											<name>Audio Levels</name>
											<effectid>audiolevels</effectid>
											<effectcategory>audiolevels</effectcategory>
											<effecttype>audiolevels</effecttype>
											<mediatype>audio</mediatype>
											<parameter>
												<name>Level</name>
												<parameterid>level</parameterid>
												<valuemin>0</valuemin>
												<valuemax>3.98109</valuemax>
												<value>1.8462</value>
											</parameter>
										</effect>
									</filter>
									<filter>
										<effect>
											<name>Audio Pan</name>
											<effectid>audiopan</effectid>
											<effectcategory>audiopan</effectcategory>
											<effecttype>audiopan</effecttype>
											<mediatype>audio</mediatype>
											<parameter>
												<name>Pan</name>
												<parameterid>pan</parameterid>
												<valuemin>-1</valuemin>
												<valuemax>1</valuemax>
												<value>-0</value>
											</parameter>
										</effect>
									</filter>
									<sourcetrack>
										<mediatype>audio</mediatype>
										<trackindex>2</trackindex>
									</sourcetrack>
									<link>
										<linkclipref>Raw Scene Matthew Duepner Printing141</linkclipref>
										<mediatype>video</mediatype>
										<trackindex>2</trackindex>
										<clipindex>23</clipindex>
									</link>
									<link>
										<linkclipref>Raw Scene Matthew Duepner Printing142</linkclipref>
										<mediatype>audio</mediatype>
										<trackindex>1</trackindex>
										<clipindex>15</clipindex>
										<groupindex>1</groupindex>
									</link>
									<link>
										<linkclipref>Raw Scene Matthew Duepner Printing143</linkclipref>
										<mediatype>audio</mediatype>
										<trackindex>2</trackindex>
										<clipindex>15</clipindex>
										<groupindex>1</groupindex>
									</link>
									<itemhistory>
										<uuid>A9F4C49D-8CAC-4176-A21A-13F3C6A91295</uuid>
									</itemhistory>
								</clipitem>
								<clipitem id="Raw Scene Matthew Duepner Printing146">
									<name>Raw Scene Matthew Duepner Printing</name>
									<duration>28553</duration>
									<rate>
										<ntsc>TRUE</ntsc>
										<timebase>24</timebase>
									</rate>
									<in>22831</in>
									<out>22878</out>
									<start>2839</start>
									<end>2886</end>
									<masterclipid>Raw Scene Matthew Duepner Printing72</masterclipid>
									<logginginfo>
										<scene/>
										<shottake/>
										<lognote/>
										<good>FALSE</good>
									</logginginfo>
									<labels>
										<label2/>
									</labels>
									<comments>
										<mastercomment1/>
										<mastercomment2/>
										<mastercomment3/>
										<mastercomment4/>
									</comments>
									<file id="YIN_2013-05-28_LG-6 "/>
									<filter>
										<effect>
											<name>Audio Levels</name>
											<effectid>audiolevels</effectid>
											<effectcategory>audiolevels</effectcategory>
											<effecttype>audiolevels</effecttype>
											<mediatype>audio</mediatype>
											<parameter>
												<name>Level</name>
												<parameterid>level</parameterid>
												<valuemin>0</valuemin>
												<valuemax>3.98109</valuemax>
												<value>1.8462</value>
											</parameter>
										</effect>
									</filter>
									<filter>
										<effect>
											<name>Audio Pan</name>
											<effectid>audiopan</effectid>
											<effectcategory>audiopan</effectcategory>
											<effecttype>audiopan</effecttype>
											<mediatype>audio</mediatype>
											<parameter>
												<name>Pan</name>
												<parameterid>pan</parameterid>
												<valuemin>-1</valuemin>
												<valuemax>1</valuemax>
												<value>-0</value>
											</parameter>
										</effect>
									</filter>
									<sourcetrack>
										<mediatype>audio</mediatype>
										<trackindex>2</trackindex>
									</sourcetrack>
									<link>
										<linkclipref>Raw Scene Matthew Duepner Printing144</linkclipref>
										<mediatype>video</mediatype>
										<trackindex>2</trackindex>
										<clipindex>24</clipindex>
									</link>
									<link>
										<linkclipref>Raw Scene Matthew Duepner Printing145</linkclipref>
										<mediatype>audio</mediatype>
										<trackindex>1</trackindex>
										<clipindex>16</clipindex>
										<groupindex>1</groupindex>
									</link>
									<link>
										<linkclipref>Raw Scene Matthew Duepner Printing146</linkclipref>
										<mediatype>audio</mediatype>
										<trackindex>2</trackindex>
										<clipindex>16</clipindex>
										<groupindex>1</groupindex>
									</link>
									<itemhistory>
										<uuid>8B5082B6-3003-463C-BE08-2D28BFD6CA7A</uuid>
									</itemhistory>
								</clipitem>
								<clipitem id="Raw Scene Matthew Duepner Printing149">
									<name>Raw Scene Matthew Duepner Printing</name>
									<duration>28553</duration>
									<rate>
										<ntsc>TRUE</ntsc>
										<timebase>24</timebase>
									</rate>
									<in>23483</in>
									<out>23542</out>
									<start>2886</start>
									<end>2945</end>
									<masterclipid>Raw Scene Matthew Duepner Printing72</masterclipid>
									<logginginfo>
										<scene/>
										<shottake/>
										<lognote/>
										<good>FALSE</good>
									</logginginfo>
									<labels>
										<label2/>
									</labels>
									<comments>
										<mastercomment1/>
										<mastercomment2/>
										<mastercomment3/>
										<mastercomment4/>
									</comments>
									<file id="YIN_2013-05-28_LG-6 "/>
									<filter>
										<effect>
											<name>Audio Levels</name>
											<effectid>audiolevels</effectid>
											<effectcategory>audiolevels</effectcategory>
											<effecttype>audiolevels</effecttype>
											<mediatype>audio</mediatype>
											<parameter>
												<name>Level</name>
												<parameterid>level</parameterid>
												<valuemin>0</valuemin>
												<valuemax>3.98109</valuemax>
												<value>1.8462</value>
											</parameter>
										</effect>
									</filter>
									<filter>
										<effect>
											<name>Audio Pan</name>
											<effectid>audiopan</effectid>
											<effectcategory>audiopan</effectcategory>
											<effecttype>audiopan</effecttype>
											<mediatype>audio</mediatype>
											<parameter>
												<name>Pan</name>
												<parameterid>pan</parameterid>
												<valuemin>-1</valuemin>
												<valuemax>1</valuemax>
												<value>-0</value>
											</parameter>
										</effect>
									</filter>
									<sourcetrack>
										<mediatype>audio</mediatype>
										<trackindex>2</trackindex>
									</sourcetrack>
									<link>
										<linkclipref>Raw Scene Matthew Duepner Printing147</linkclipref>
										<mediatype>video</mediatype>
										<trackindex>2</trackindex>
										<clipindex>25</clipindex>
									</link>
									<link>
										<linkclipref>Raw Scene Matthew Duepner Printing148</linkclipref>
										<mediatype>audio</mediatype>
										<trackindex>1</trackindex>
										<clipindex>17</clipindex>
										<groupindex>1</groupindex>
									</link>
									<link>
										<linkclipref>Raw Scene Matthew Duepner Printing149</linkclipref>
										<mediatype>audio</mediatype>
										<trackindex>2</trackindex>
										<clipindex>17</clipindex>
										<groupindex>1</groupindex>
									</link>
									<itemhistory>
										<uuid>693966CE-3A9C-4DD3-9991-7CBEB6D5390F</uuid>
									</itemhistory>
								</clipitem>
								<clipitem id="Raw Scene Matthew Duepner Printing152">
									<name>Raw Scene Matthew Duepner Printing</name>
									<duration>28553</duration>
									<rate>
										<ntsc>TRUE</ntsc>
										<timebase>24</timebase>
									</rate>
									<in>23719</in>
									<out>23771</out>
									<start>2945</start>
									<end>2997</end>
									<masterclipid>Raw Scene Matthew Duepner Printing72</masterclipid>
									<logginginfo>
										<scene/>
										<shottake/>
										<lognote/>
										<good>FALSE</good>
									</logginginfo>
									<labels>
										<label2/>
									</labels>
									<comments>
										<mastercomment1/>
										<mastercomment2/>
										<mastercomment3/>
										<mastercomment4/>
									</comments>
									<file id="YIN_2013-05-28_LG-6 "/>
									<filter>
										<effect>
											<name>Audio Levels</name>
											<effectid>audiolevels</effectid>
											<effectcategory>audiolevels</effectcategory>
											<effecttype>audiolevels</effecttype>
											<mediatype>audio</mediatype>
											<parameter>
												<name>Level</name>
												<parameterid>level</parameterid>
												<valuemin>0</valuemin>
												<valuemax>3.98109</valuemax>
												<value>1.8462</value>
											</parameter>
										</effect>
									</filter>
									<filter>
										<effect>
											<name>Audio Pan</name>
											<effectid>audiopan</effectid>
											<effectcategory>audiopan</effectcategory>
											<effecttype>audiopan</effecttype>
											<mediatype>audio</mediatype>
											<parameter>
												<name>Pan</name>
												<parameterid>pan</parameterid>
												<valuemin>-1</valuemin>
												<valuemax>1</valuemax>
												<value>-0</value>
											</parameter>
										</effect>
									</filter>
									<sourcetrack>
										<mediatype>audio</mediatype>
										<trackindex>2</trackindex>
									</sourcetrack>
									<link>
										<linkclipref>Raw Scene Matthew Duepner Printing150</linkclipref>
										<mediatype>video</mediatype>
										<trackindex>2</trackindex>
										<clipindex>26</clipindex>
									</link>
									<link>
										<linkclipref>Raw Scene Matthew Duepner Printing151</linkclipref>
										<mediatype>audio</mediatype>
										<trackindex>1</trackindex>
										<clipindex>18</clipindex>
										<groupindex>1</groupindex>
									</link>
									<link>
										<linkclipref>Raw Scene Matthew Duepner Printing152</linkclipref>
										<mediatype>audio</mediatype>
										<trackindex>2</trackindex>
										<clipindex>18</clipindex>
										<groupindex>1</groupindex>
									</link>
									<itemhistory>
										<uuid>0F4E27A7-57CC-4CD3-A83E-B9EC3D4BA748</uuid>
									</itemhistory>
								</clipitem>
								<clipitem id="Raw Scene Matthew Duepner Printing155">
									<name>Raw Scene Matthew Duepner Printing</name>
									<duration>28553</duration>
									<rate>
										<ntsc>TRUE</ntsc>
										<timebase>24</timebase>
									</rate>
									<in>27525</in>
									<out>27797</out>
									<start>2997</start>
									<end>3269</end>
									<masterclipid>Raw Scene Matthew Duepner Printing72</masterclipid>
									<logginginfo>
										<scene/>
										<shottake/>
										<lognote/>
										<good>FALSE</good>
									</logginginfo>
									<labels>
										<label2/>
									</labels>
									<comments>
										<mastercomment1/>
										<mastercomment2/>
										<mastercomment3/>
										<mastercomment4/>
									</comments>
									<file id="YIN_2013-05-28_LG-6 "/>
									<filter>
										<effect>
											<name>Audio Levels</name>
											<effectid>audiolevels</effectid>
											<effectcategory>audiolevels</effectcategory>
											<effecttype>audiolevels</effecttype>
											<mediatype>audio</mediatype>
											<parameter>
												<name>Level</name>
												<parameterid>level</parameterid>
												<valuemin>0</valuemin>
												<valuemax>3.98109</valuemax>
												<value>1.8462</value>
											</parameter>
										</effect>
									</filter>
									<filter>
										<effect>
											<name>Audio Pan</name>
											<effectid>audiopan</effectid>
											<effectcategory>audiopan</effectcategory>
											<effecttype>audiopan</effecttype>
											<mediatype>audio</mediatype>
											<parameter>
												<name>Pan</name>
												<parameterid>pan</parameterid>
												<valuemin>-1</valuemin>
												<valuemax>1</valuemax>
												<value>-0</value>
											</parameter>
										</effect>
									</filter>
									<sourcetrack>
										<mediatype>audio</mediatype>
										<trackindex>2</trackindex>
									</sourcetrack>
									<link>
										<linkclipref>Raw Scene Matthew Duepner Printing153</linkclipref>
										<mediatype>video</mediatype>
										<trackindex>2</trackindex>
										<clipindex>27</clipindex>
									</link>
									<link>
										<linkclipref>Raw Scene Matthew Duepner Printing154</linkclipref>
										<mediatype>audio</mediatype>
										<trackindex>1</trackindex>
										<clipindex>19</clipindex>
										<groupindex>1</groupindex>
									</link>
									<link>
										<linkclipref>Raw Scene Matthew Duepner Printing155</linkclipref>
										<mediatype>audio</mediatype>
										<trackindex>2</trackindex>
										<clipindex>19</clipindex>
										<groupindex>1</groupindex>
									</link>
									<itemhistory>
										<uuid>1F0BFB5A-682C-456B-A229-962DB951EAD2</uuid>
									</itemhistory>
								</clipitem>
								<clipitem id="Raw Scene Matthew Duepner Printing160">
									<name>Raw Scene Matthew Duepner Printing</name>
									<duration>28553</duration>
									<rate>
										<ntsc>TRUE</ntsc>
										<timebase>24</timebase>
									</rate>
									<in>28313</in>
									<out>28405</out>
									<start>3269</start>
									<end>3361</end>
									<masterclipid>Raw Scene Matthew Duepner Printing72</masterclipid>
									<logginginfo>
										<scene/>
										<shottake/>
										<lognote/>
										<good>FALSE</good>
									</logginginfo>
									<labels>
										<label2/>
									</labels>
									<comments>
										<mastercomment1/>
										<mastercomment2/>
										<mastercomment3/>
										<mastercomment4/>
									</comments>
									<file id="YIN_2013-05-28_LG-6 "/>
									<filter>
										<effect>
											<name>Audio Levels</name>
											<effectid>audiolevels</effectid>
											<effectcategory>audiolevels</effectcategory>
											<effecttype>audiolevels</effecttype>
											<mediatype>audio</mediatype>
											<parameter>
												<name>Level</name>
												<parameterid>level</parameterid>
												<valuemin>0</valuemin>
												<valuemax>3.98109</valuemax>
												<value>1.8462</value>
											</parameter>
										</effect>
									</filter>
									<filter>
										<effect>
											<name>Audio Pan</name>
											<effectid>audiopan</effectid>
											<effectcategory>audiopan</effectcategory>
											<effecttype>audiopan</effecttype>
											<mediatype>audio</mediatype>
											<parameter>
												<name>Pan</name>
												<parameterid>pan</parameterid>
												<valuemin>-1</valuemin>
												<valuemax>1</valuemax>
												<value>-0</value>
											</parameter>
										</effect>
									</filter>
									<sourcetrack>
										<mediatype>audio</mediatype>
										<trackindex>2</trackindex>
									</sourcetrack>
									<link>
										<linkclipref>Raw Scene Matthew Duepner Printing159</linkclipref>
										<mediatype>audio</mediatype>
										<trackindex>1</trackindex>
										<clipindex>20</clipindex>
										<groupindex>1</groupindex>
									</link>
									<link>
										<linkclipref>Raw Scene Matthew Duepner Printing160</linkclipref>
										<mediatype>audio</mediatype>
										<trackindex>2</trackindex>
										<clipindex>20</clipindex>
										<groupindex>1</groupindex>
									</link>
									<itemhistory>
										<uuid>6C194644-A212-450E-9630-F6C52858E1DC</uuid>
									</itemhistory>
								</clipitem>
								<clipitem id="Raw Scene Matthew Duepner Walkabout472">
									<name>Raw Scene Matthew Duepner Walkabout</name>
									<duration>38484</duration>
									<rate>
										<ntsc>TRUE</ntsc>
										<timebase>24</timebase>
									</rate>
									<in>5107</in>
									<out>5266</out>
									<start>3361</start>
									<end>3520</end>
									<masterclipid>Raw Scene Matthew Duepner Walkabout234</masterclipid>
									<logginginfo>
										<scene/>
										<shottake/>
										<lognote/>
										<good>FALSE</good>
									</logginginfo>
									<labels>
										<label2/>
									</labels>
									<comments>
										<mastercomment1/>
										<mastercomment2/>
										<mastercomment3/>
										<mastercomment4/>
									</comments>
									<file id="YIN_2013-05-28_LG-4 "/>
									<filter>
										<effect>
											<name>Audio Levels</name>
											<effectid>audiolevels</effectid>
											<effectcategory>audiolevels</effectcategory>
											<effecttype>audiolevels</effecttype>
											<mediatype>audio</mediatype>
											<parameter>
												<name>Level</name>
												<parameterid>level</parameterid>
												<valuemin>0</valuemin>
												<valuemax>3.98109</valuemax>
												<value>1.8462</value>
											</parameter>
										</effect>
									</filter>
									<filter>
										<effect>
											<name>Audio Pan</name>
											<effectid>audiopan</effectid>
											<effectcategory>audiopan</effectcategory>
											<effecttype>audiopan</effecttype>
											<mediatype>audio</mediatype>
											<parameter>
												<name>Pan</name>
												<parameterid>pan</parameterid>
												<valuemin>-1</valuemin>
												<valuemax>1</valuemax>
												<value>-0</value>
											</parameter>
										</effect>
									</filter>
									<sourcetrack>
										<mediatype>audio</mediatype>
										<trackindex>2</trackindex>
									</sourcetrack>
									<link>
										<linkclipref>Raw Scene Matthew Duepner Walkabout471</linkclipref>
										<mediatype>audio</mediatype>
										<trackindex>1</trackindex>
										<clipindex>21</clipindex>
										<groupindex>1</groupindex>
									</link>
									<link>
										<linkclipref>Raw Scene Matthew Duepner Walkabout472</linkclipref>
										<mediatype>audio</mediatype>
										<trackindex>2</trackindex>
										<clipindex>21</clipindex>
										<groupindex>1</groupindex>
									</link>
									<itemhistory>
										<uuid>EABDF65D-A1FF-4392-8161-BF3E67A24595</uuid>
									</itemhistory>
								</clipitem>
								<clipitem id="Raw Scene Matthew Duepner Walkabout474">
									<name>Raw Scene Matthew Duepner Walkabout</name>
									<duration>38484</duration>
									<rate>
										<ntsc>TRUE</ntsc>
										<timebase>24</timebase>
									</rate>
									<in>4745</in>
									<out>5099</out>
									<start>3520</start>
									<end>-1</end>
									<masterclipid>Raw Scene Matthew Duepner Walkabout234</masterclipid>
									<logginginfo>
										<scene/>
										<shottake/>
										<lognote/>
										<good>FALSE</good>
									</logginginfo>
									<labels>
										<label2/>
									</labels>
									<comments>
										<mastercomment1/>
										<mastercomment2/>
										<mastercomment3/>
										<mastercomment4/>
									</comments>
									<file id="YIN_2013-05-28_LG-4 "/>
									<filter>
										<effect>
											<name>Audio Levels</name>
											<effectid>audiolevels</effectid>
											<effectcategory>audiolevels</effectcategory>
											<effecttype>audiolevels</effecttype>
											<mediatype>audio</mediatype>
											<parameter>
												<name>Level</name>
												<parameterid>level</parameterid>
												<valuemin>0</valuemin>
												<valuemax>3.98109</valuemax>
												<value>1.8462</value>
											</parameter>
										</effect>
									</filter>
									<filter>
										<effect>
											<name>Audio Pan</name>
											<effectid>audiopan</effectid>
											<effectcategory>audiopan</effectcategory>
											<effecttype>audiopan</effecttype>
											<mediatype>audio</mediatype>
											<parameter>
												<name>Pan</name>
												<parameterid>pan</parameterid>
												<valuemin>-1</valuemin>
												<valuemax>1</valuemax>
												<value>-0</value>
											</parameter>
										</effect>
									</filter>
									<sourcetrack>
										<mediatype>audio</mediatype>
										<trackindex>2</trackindex>
									</sourcetrack>
									<link>
										<linkclipref>Raw Scene Matthew Duepner Walkabout473</linkclipref>
										<mediatype>audio</mediatype>
										<trackindex>1</trackindex>
										<clipindex>22</clipindex>
										<groupindex>1</groupindex>
									</link>
									<link>
										<linkclipref>Raw Scene Matthew Duepner Walkabout474</linkclipref>
										<mediatype>audio</mediatype>
										<trackindex>2</trackindex>
										<clipindex>22</clipindex>
										<groupindex>1</groupindex>
									</link>
									<itemhistory>
										<uuid>12009FA3-64A7-4EE5-BA20-A7FF604DCF83</uuid>
									</itemhistory>
								</clipitem>
								<transitionitem>
									<rate>
										<ntsc>TRUE</ntsc>
										<timebase>24</timebase>
									</rate>
									<start>3866</start>
									<end>3874</end>
									<alignment>end-black</alignment>
									<effect>
										<name>Cross Fade ( 0dB)</name>
										<effectid>KGAudioTransCrossFade0dB</effectid>
										<effecttype>transition</effecttype>
										<mediatype>audio</mediatype>
										<startratio>0</startratio>
										<endratio>1</endratio>
										<reverse>FALSE</reverse>
									</effect>
								</transitionitem>
								<transitionitem>
									<rate>
										<ntsc>TRUE</ntsc>
										<timebase>24</timebase>
									</rate>
									<start>3893</start>
									<end>3902</end>
									<alignment>start-black</alignment>
									<effect>
										<name>Cross Fade ( 0dB)</name>
										<effectid>KGAudioTransCrossFade0dB</effectid>
										<effecttype>transition</effecttype>
										<mediatype>audio</mediatype>
										<startratio>0</startratio>
										<endratio>1</endratio>
										<reverse>FALSE</reverse>
									</effect>
								</transitionitem>
								<clipitem id="Raw Interview Matthew Duepner642">
									<name>Raw Interview Matthew Duepner</name>
									<duration>81486</duration>
									<rate>
										<ntsc>TRUE</ntsc>
										<timebase>24</timebase>
									</rate>
									<in>17964</in>
									<out>18186</out>
									<start>-1</start>
									<end>4115</end>
									<masterclipid>Raw Interview Matthew Duepner390</masterclipid>
									<logginginfo>
										<scene/>
										<shottake/>
										<lognote/>
										<good>FALSE</good>
									</logginginfo>
									<labels>
										<label2/>
									</labels>
									<comments>
										<mastercomment1/>
										<mastercomment2/>
										<mastercomment3/>
										<mastercomment4/>
									</comments>
									<file id="YIN_2013-05-28_LG-5 "/>
									<filter>
										<effect>
											<name>Audio Levels</name>
											<effectid>audiolevels</effectid>
											<effectcategory>audiolevels</effectcategory>
											<effecttype>audiolevels</effecttype>
											<mediatype>audio</mediatype>
											<parameter>
												<name>Level</name>
												<parameterid>level</parameterid>
												<valuemin>0</valuemin>
												<valuemax>3.98109</valuemax>
												<value>1.99526</value>
											</parameter>
										</effect>
									</filter>
									<filter>
										<effect>
											<name>Audio Pan</name>
											<effectid>audiopan</effectid>
											<effectcategory>audiopan</effectcategory>
											<effecttype>audiopan</effecttype>
											<mediatype>audio</mediatype>
											<parameter>
												<name>Pan</name>
												<parameterid>pan</parameterid>
												<valuemin>-1</valuemin>
												<valuemax>1</valuemax>
												<value>-0</value>
											</parameter>
										</effect>
									</filter>
									<sourcetrack>
										<mediatype>audio</mediatype>
										<trackindex>2</trackindex>
									</sourcetrack>
									<link>
										<linkclipref>Raw Interview Matthew Duepner640</linkclipref>
										<mediatype>video</mediatype>
										<trackindex>1</trackindex>
										<clipindex>13</clipindex>
									</link>
									<link>
										<linkclipref>Raw Interview Matthew Duepner641</linkclipref>
										<mediatype>audio</mediatype>
										<trackindex>1</trackindex>
										<clipindex>25</clipindex>
										<groupindex>1</groupindex>
									</link>
									<link>
										<linkclipref>Raw Interview Matthew Duepner642</linkclipref>
										<mediatype>audio</mediatype>
										<trackindex>2</trackindex>
										<clipindex>25</clipindex>
										<groupindex>1</groupindex>
									</link>
									<itemhistory>
										<uuid>0DC3862A-ECB2-4624-BBDB-7B4316805C02</uuid>
									</itemhistory>
								</clipitem>
								<clipitem id="Raw Interview Matthew Duepner645">
									<name>Raw Interview Matthew Duepner</name>
									<duration>81486</duration>
									<rate>
										<ntsc>TRUE</ntsc>
										<timebase>24</timebase>
									</rate>
									<in>18235</in>
									<out>18405</out>
									<start>4115</start>
									<end>4285</end>
									<masterclipid>Raw Interview Matthew Duepner390</masterclipid>
									<logginginfo>
										<scene/>
										<shottake/>
										<lognote/>
										<good>FALSE</good>
									</logginginfo>
									<labels>
										<label2/>
									</labels>
									<comments>
										<mastercomment1/>
										<mastercomment2/>
										<mastercomment3/>
										<mastercomment4/>
									</comments>
									<file id="YIN_2013-05-28_LG-5 "/>
									<filter>
										<effect>
											<name>Audio Levels</name>
											<effectid>audiolevels</effectid>
											<effectcategory>audiolevels</effectcategory>
											<effecttype>audiolevels</effecttype>
											<mediatype>audio</mediatype>
											<parameter>
												<name>Level</name>
												<parameterid>level</parameterid>
												<valuemin>0</valuemin>
												<valuemax>3.98109</valuemax>
												<value>1.99526</value>
											</parameter>
										</effect>
									</filter>
									<filter>
										<effect>
											<name>Audio Pan</name>
											<effectid>audiopan</effectid>
											<effectcategory>audiopan</effectcategory>
											<effecttype>audiopan</effecttype>
											<mediatype>audio</mediatype>
											<parameter>
												<name>Pan</name>
												<parameterid>pan</parameterid>
												<valuemin>-1</valuemin>
												<valuemax>1</valuemax>
												<value>-0</value>
											</parameter>
										</effect>
									</filter>
									<sourcetrack>
										<mediatype>audio</mediatype>
										<trackindex>2</trackindex>
									</sourcetrack>
									<link>
										<linkclipref>Raw Interview Matthew Duepner643</linkclipref>
										<mediatype>video</mediatype>
										<trackindex>1</trackindex>
										<clipindex>14</clipindex>
									</link>
									<link>
										<linkclipref>Raw Interview Matthew Duepner644</linkclipref>
										<mediatype>audio</mediatype>
										<trackindex>1</trackindex>
										<clipindex>26</clipindex>
										<groupindex>1</groupindex>
									</link>
									<link>
										<linkclipref>Raw Interview Matthew Duepner645</linkclipref>
										<mediatype>audio</mediatype>
										<trackindex>2</trackindex>
										<clipindex>26</clipindex>
										<groupindex>1</groupindex>
									</link>
									<itemhistory>
										<uuid>F68F75F4-6B55-4B75-AABE-A2C172F9AE0B</uuid>
									</itemhistory>
								</clipitem>
								<clipitem id="Raw Interview Matthew Duepner648">
									<name>Raw Interview Matthew Duepner</name>
									<duration>81486</duration>
									<rate>
										<ntsc>TRUE</ntsc>
										<timebase>24</timebase>
									</rate>
									<in>18444</in>
									<out>18613</out>
									<start>4285</start>
									<end>4454</end>
									<masterclipid>Raw Interview Matthew Duepner390</masterclipid>
									<logginginfo>
										<scene/>
										<shottake/>
										<lognote/>
										<good>FALSE</good>
									</logginginfo>
									<labels>
										<label2/>
									</labels>
									<comments>
										<mastercomment1/>
										<mastercomment2/>
										<mastercomment3/>
										<mastercomment4/>
									</comments>
									<file id="YIN_2013-05-28_LG-5 "/>
									<filter>
										<effect>
											<name>Audio Levels</name>
											<effectid>audiolevels</effectid>
											<effectcategory>audiolevels</effectcategory>
											<effecttype>audiolevels</effecttype>
											<mediatype>audio</mediatype>
											<parameter>
												<name>Level</name>
												<parameterid>level</parameterid>
												<valuemin>0</valuemin>
												<valuemax>3.98109</valuemax>
												<value>1.99526</value>
											</parameter>
										</effect>
									</filter>
									<filter>
										<effect>
											<name>Audio Pan</name>
											<effectid>audiopan</effectid>
											<effectcategory>audiopan</effectcategory>
											<effecttype>audiopan</effecttype>
											<mediatype>audio</mediatype>
											<parameter>
												<name>Pan</name>
												<parameterid>pan</parameterid>
												<valuemin>-1</valuemin>
												<valuemax>1</valuemax>
												<value>-0</value>
											</parameter>
										</effect>
									</filter>
									<sourcetrack>
										<mediatype>audio</mediatype>
										<trackindex>2</trackindex>
									</sourcetrack>
									<link>
										<linkclipref>Raw Interview Matthew Duepner646</linkclipref>
										<mediatype>video</mediatype>
										<trackindex>1</trackindex>
										<clipindex>15</clipindex>
									</link>
									<link>
										<linkclipref>Raw Interview Matthew Duepner647</linkclipref>
										<mediatype>audio</mediatype>
										<trackindex>1</trackindex>
										<clipindex>27</clipindex>
										<groupindex>1</groupindex>
									</link>
									<link>
										<linkclipref>Raw Interview Matthew Duepner648</linkclipref>
										<mediatype>audio</mediatype>
										<trackindex>2</trackindex>
										<clipindex>27</clipindex>
										<groupindex>1</groupindex>
									</link>
									<itemhistory>
										<uuid>A4FACD0B-C3A8-475F-B29B-2667D3882793</uuid>
									</itemhistory>
								</clipitem>
								<clipitem id="Raw Interview Matthew Duepner651">
									<name>Raw Interview Matthew Duepner</name>
									<duration>81486</duration>
									<rate>
										<ntsc>TRUE</ntsc>
										<timebase>24</timebase>
									</rate>
									<in>18645</in>
									<out>18710</out>
									<start>4454</start>
									<end>-1</end>
									<masterclipid>Raw Interview Matthew Duepner390</masterclipid>
									<logginginfo>
										<scene/>
										<shottake/>
										<lognote/>
										<good>FALSE</good>
									</logginginfo>
									<labels>
										<label2/>
									</labels>
									<comments>
										<mastercomment1/>
										<mastercomment2/>
										<mastercomment3/>
										<mastercomment4/>
									</comments>
									<file id="YIN_2013-05-28_LG-5 "/>
									<filter>
										<effect>
											<name>Audio Levels</name>
											<effectid>audiolevels</effectid>
											<effectcategory>audiolevels</effectcategory>
											<effecttype>audiolevels</effecttype>
											<mediatype>audio</mediatype>
											<parameter>
												<name>Level</name>
												<parameterid>level</parameterid>
												<valuemin>0</valuemin>
												<valuemax>3.98109</valuemax>
												<value>1.99526</value>
											</parameter>
										</effect>
									</filter>
									<filter>
										<effect>
											<name>Audio Pan</name>
											<effectid>audiopan</effectid>
											<effectcategory>audiopan</effectcategory>
											<effecttype>audiopan</effecttype>
											<mediatype>audio</mediatype>
											<parameter>
												<name>Pan</name>
												<parameterid>pan</parameterid>
												<valuemin>-1</valuemin>
												<valuemax>1</valuemax>
												<value>-0</value>
											</parameter>
										</effect>
									</filter>
									<sourcetrack>
										<mediatype>audio</mediatype>
										<trackindex>2</trackindex>
									</sourcetrack>
									<link>
										<linkclipref>Raw Interview Matthew Duepner649</linkclipref>
										<mediatype>video</mediatype>
										<trackindex>1</trackindex>
										<clipindex>16</clipindex>
									</link>
									<link>
										<linkclipref>Raw Interview Matthew Duepner650</linkclipref>
										<mediatype>audio</mediatype>
										<trackindex>1</trackindex>
										<clipindex>28</clipindex>
										<groupindex>1</groupindex>
									</link>
									<link>
										<linkclipref>Raw Interview Matthew Duepner651</linkclipref>
										<mediatype>audio</mediatype>
										<trackindex>2</trackindex>
										<clipindex>28</clipindex>
										<groupindex>1</groupindex>
									</link>
									<itemhistory>
										<uuid>00B911ED-72CB-4476-953A-D39B5A3BDE9C</uuid>
									</itemhistory>
								</clipitem>
								<transitionitem>
									<rate>
										<ntsc>TRUE</ntsc>
										<timebase>24</timebase>
									</rate>
									<start>4518</start>
									<end>4519</end>
									<alignment>start</alignment>
									<effect>
										<name>Cross Fade ( 0dB)</name>
										<effectid>KGAudioTransCrossFade0dB</effectid>
										<effecttype>transition</effecttype>
										<mediatype>audio</mediatype>
										<startratio>0</startratio>
										<endratio>1</endratio>
										<reverse>FALSE</reverse>
									</effect>
								</transitionitem>
								<clipitem id="Raw Interview Matthew Duepner654">
									<name>Raw Interview Matthew Duepner</name>
									<duration>81486</duration>
									<rate>
										<ntsc>TRUE</ntsc>
										<timebase>24</timebase>
									</rate>
									<in>50956</in>
									<out>51016</out>
									<start>-1</start>
									<end>-1</end>
									<masterclipid>Raw Interview Matthew Duepner390</masterclipid>
									<logginginfo>
										<scene/>
										<shottake/>
										<lognote/>
										<good>FALSE</good>
									</logginginfo>
									<labels>
										<label2/>
									</labels>
									<comments>
										<mastercomment1/>
										<mastercomment2/>
										<mastercomment3/>
										<mastercomment4/>
									</comments>
									<file id="YIN_2013-05-28_LG-5 "/>
									<filter>
										<effect>
											<name>Audio Levels</name>
											<effectid>audiolevels</effectid>
											<effectcategory>audiolevels</effectcategory>
											<effecttype>audiolevels</effecttype>
											<mediatype>audio</mediatype>
											<parameter>
												<name>Level</name>
												<parameterid>level</parameterid>
												<valuemin>0</valuemin>
												<valuemax>3.98109</valuemax>
												<value>1.99526</value>
											</parameter>
										</effect>
									</filter>
									<filter>
										<effect>
											<name>Audio Pan</name>
											<effectid>audiopan</effectid>
											<effectcategory>audiopan</effectcategory>
											<effecttype>audiopan</effecttype>
											<mediatype>audio</mediatype>
											<parameter>
												<name>Pan</name>
												<parameterid>pan</parameterid>
												<valuemin>-1</valuemin>
												<valuemax>1</valuemax>
												<value>-0</value>
											</parameter>
										</effect>
									</filter>
									<sourcetrack>
										<mediatype>audio</mediatype>
										<trackindex>2</trackindex>
									</sourcetrack>
									<link>
										<linkclipref>Raw Interview Matthew Duepner652</linkclipref>
										<mediatype>video</mediatype>
										<trackindex>1</trackindex>
										<clipindex>17</clipindex>
									</link>
									<link>
										<linkclipref>Raw Interview Matthew Duepner653</linkclipref>
										<mediatype>audio</mediatype>
										<trackindex>1</trackindex>
										<clipindex>30</clipindex>
										<groupindex>1</groupindex>
									</link>
									<link>
										<linkclipref>Raw Interview Matthew Duepner654</linkclipref>
										<mediatype>audio</mediatype>
										<trackindex>2</trackindex>
										<clipindex>30</clipindex>
										<groupindex>1</groupindex>
									</link>
									<itemhistory>
										<uuid>D7052960-364E-4F28-8759-39DC0E7F9D0A</uuid>
									</itemhistory>
								</clipitem>
								<transitionitem>
									<rate>
										<ntsc>TRUE</ntsc>
										<timebase>24</timebase>
									</rate>
									<start>4577</start>
									<end>4578</end>
									<alignment>start</alignment>
									<effect>
										<name>Cross Fade ( 0dB)</name>
										<effectid>KGAudioTransCrossFade0dB</effectid>
										<effecttype>transition</effecttype>
										<mediatype>audio</mediatype>
										<startratio>0</startratio>
										<endratio>1</endratio>
										<reverse>FALSE</reverse>
									</effect>
								</transitionitem>
								<clipitem id="Raw Interview Matthew Duepner657">
									<name>Raw Interview Matthew Duepner</name>
									<duration>81486</duration>
									<rate>
										<ntsc>TRUE</ntsc>
										<timebase>24</timebase>
									</rate>
									<in>18739</in>
									<out>19018</out>
									<start>-1</start>
									<end>4856</end>
									<masterclipid>Raw Interview Matthew Duepner390</masterclipid>
									<logginginfo>
										<scene/>
										<shottake/>
										<lognote/>
										<good>FALSE</good>
									</logginginfo>
									<labels>
										<label2/>
									</labels>
									<comments>
										<mastercomment1/>
										<mastercomment2/>
										<mastercomment3/>
										<mastercomment4/>
									</comments>
									<file id="YIN_2013-05-28_LG-5 "/>
									<filter>
										<effect>
											<name>Audio Levels</name>
											<effectid>audiolevels</effectid>
											<effectcategory>audiolevels</effectcategory>
											<effecttype>audiolevels</effecttype>
											<mediatype>audio</mediatype>
											<parameter>
												<name>Level</name>
												<parameterid>level</parameterid>
												<valuemin>0</valuemin>
												<valuemax>3.98109</valuemax>
												<value>1.99526</value>
											</parameter>
										</effect>
									</filter>
									<filter>
										<effect>
											<name>Audio Pan</name>
											<effectid>audiopan</effectid>
											<effectcategory>audiopan</effectcategory>
											<effecttype>audiopan</effecttype>
											<mediatype>audio</mediatype>
											<parameter>
												<name>Pan</name>
												<parameterid>pan</parameterid>
												<valuemin>-1</valuemin>
												<valuemax>1</valuemax>
												<value>-0</value>
											</parameter>
										</effect>
									</filter>
									<sourcetrack>
										<mediatype>audio</mediatype>
										<trackindex>2</trackindex>
									</sourcetrack>
									<link>
										<linkclipref>Raw Interview Matthew Duepner655</linkclipref>
										<mediatype>video</mediatype>
										<trackindex>1</trackindex>
										<clipindex>18</clipindex>
									</link>
									<link>
										<linkclipref>Raw Interview Matthew Duepner656</linkclipref>
										<mediatype>audio</mediatype>
										<trackindex>1</trackindex>
										<clipindex>32</clipindex>
										<groupindex>1</groupindex>
									</link>
									<link>
										<linkclipref>Raw Interview Matthew Duepner657</linkclipref>
										<mediatype>audio</mediatype>
										<trackindex>2</trackindex>
										<clipindex>32</clipindex>
										<groupindex>1</groupindex>
									</link>
									<itemhistory>
										<uuid>FC778276-A416-47A7-A0E2-827887E50A23</uuid>
									</itemhistory>
								</clipitem>
								<clipitem id="Raw Interview Matthew Duepner660">
									<name>Raw Interview Matthew Duepner</name>
									<duration>81486</duration>
									<rate>
										<ntsc>TRUE</ntsc>
										<timebase>24</timebase>
									</rate>
									<in>56083</in>
									<out>56203</out>
									<start>4898</start>
									<end>5018</end>
									<masterclipid>Raw Interview Matthew Duepner390</masterclipid>
									<logginginfo>
										<scene/>
										<shottake/>
										<lognote/>
										<good>FALSE</good>
									</logginginfo>
									<labels>
										<label2/>
									</labels>
									<comments>
										<mastercomment1/>
										<mastercomment2/>
										<mastercomment3/>
										<mastercomment4/>
									</comments>
									<file id="YIN_2013-05-28_LG-5 "/>
									<filter>
										<effect>
											<name>Audio Levels</name>
											<effectid>audiolevels</effectid>
											<effectcategory>audiolevels</effectcategory>
											<effecttype>audiolevels</effecttype>
											<mediatype>audio</mediatype>
											<parameter>
												<name>Level</name>
												<parameterid>level</parameterid>
												<valuemin>0</valuemin>
												<valuemax>3.98109</valuemax>
												<value>1.99526</value>
											</parameter>
										</effect>
									</filter>
									<filter>
										<effect>
											<name>Audio Pan</name>
											<effectid>audiopan</effectid>
											<effectcategory>audiopan</effectcategory>
											<effecttype>audiopan</effecttype>
											<mediatype>audio</mediatype>
											<parameter>
												<name>Pan</name>
												<parameterid>pan</parameterid>
												<valuemin>-1</valuemin>
												<valuemax>1</valuemax>
												<value>-0</value>
											</parameter>
										</effect>
									</filter>
									<sourcetrack>
										<mediatype>audio</mediatype>
										<trackindex>2</trackindex>
									</sourcetrack>
									<link>
										<linkclipref>Raw Interview Matthew Duepner658</linkclipref>
										<mediatype>video</mediatype>
										<trackindex>1</trackindex>
										<clipindex>19</clipindex>
									</link>
									<link>
										<linkclipref>Raw Interview Matthew Duepner659</linkclipref>
										<mediatype>audio</mediatype>
										<trackindex>1</trackindex>
										<clipindex>33</clipindex>
										<groupindex>1</groupindex>
									</link>
									<link>
										<linkclipref>Raw Interview Matthew Duepner660</linkclipref>
										<mediatype>audio</mediatype>
										<trackindex>2</trackindex>
										<clipindex>33</clipindex>
										<groupindex>1</groupindex>
									</link>
									<itemhistory>
										<uuid>AA88CC48-F84B-40EF-A141-BF189D1C223A</uuid>
									</itemhistory>
								</clipitem>
								<clipitem id="Raw Interview Matthew Duepner663">
									<name>Raw Interview Matthew Duepner</name>
									<duration>81486</duration>
									<rate>
										<ntsc>TRUE</ntsc>
										<timebase>24</timebase>
									</rate>
									<in>56334</in>
									<out>56423</out>
									<start>5018</start>
									<end>5107</end>
									<masterclipid>Raw Interview Matthew Duepner390</masterclipid>
									<logginginfo>
										<scene/>
										<shottake/>
										<lognote/>
										<good>FALSE</good>
									</logginginfo>
									<labels>
										<label2/>
									</labels>
									<comments>
										<mastercomment1/>
										<mastercomment2/>
										<mastercomment3/>
										<mastercomment4/>
									</comments>
									<file id="YIN_2013-05-28_LG-5 "/>
									<filter>
										<effect>
											<name>Audio Levels</name>
											<effectid>audiolevels</effectid>
											<effectcategory>audiolevels</effectcategory>
											<effecttype>audiolevels</effecttype>
											<mediatype>audio</mediatype>
											<parameter>
												<name>Level</name>
												<parameterid>level</parameterid>
												<valuemin>0</valuemin>
												<valuemax>3.98109</valuemax>
												<value>1.99526</value>
											</parameter>
										</effect>
									</filter>
									<filter>
										<effect>
											<name>Audio Pan</name>
											<effectid>audiopan</effectid>
											<effectcategory>audiopan</effectcategory>
											<effecttype>audiopan</effecttype>
											<mediatype>audio</mediatype>
											<parameter>
												<name>Pan</name>
												<parameterid>pan</parameterid>
												<valuemin>-1</valuemin>
												<valuemax>1</valuemax>
												<value>-0</value>
											</parameter>
										</effect>
									</filter>
									<sourcetrack>
										<mediatype>audio</mediatype>
										<trackindex>2</trackindex>
									</sourcetrack>
									<link>
										<linkclipref>Raw Interview Matthew Duepner661</linkclipref>
										<mediatype>video</mediatype>
										<trackindex>1</trackindex>
										<clipindex>20</clipindex>
									</link>
									<link>
										<linkclipref>Raw Interview Matthew Duepner662</linkclipref>
										<mediatype>audio</mediatype>
										<trackindex>1</trackindex>
										<clipindex>34</clipindex>
										<groupindex>1</groupindex>
									</link>
									<link>
										<linkclipref>Raw Interview Matthew Duepner663</linkclipref>
										<mediatype>audio</mediatype>
										<trackindex>2</trackindex>
										<clipindex>34</clipindex>
										<groupindex>1</groupindex>
									</link>
									<itemhistory>
										<uuid>06D4ACD7-2BDB-479D-8CB4-CEA50E0BC0CE</uuid>
									</itemhistory>
								</clipitem>
								<clipitem id="Raw Interview Matthew Duepner666">
									<name>Raw Interview Matthew Duepner</name>
									<duration>81486</duration>
									<rate>
										<ntsc>TRUE</ntsc>
										<timebase>24</timebase>
									</rate>
									<in>19126</in>
									<out>19267</out>
									<start>5375</start>
									<end>5516</end>
									<masterclipid>Raw Interview Matthew Duepner390</masterclipid>
									<logginginfo>
										<scene/>
										<shottake/>
										<lognote/>
										<good>FALSE</good>
									</logginginfo>
									<labels>
										<label2/>
									</labels>
									<comments>
										<mastercomment1/>
										<mastercomment2/>
										<mastercomment3/>
										<mastercomment4/>
									</comments>
									<file id="YIN_2013-05-28_LG-5 "/>
									<filter>
										<effect>
											<name>Audio Levels</name>
											<effectid>audiolevels</effectid>
											<effectcategory>audiolevels</effectcategory>
											<effecttype>audiolevels</effecttype>
											<mediatype>audio</mediatype>
											<parameter>
												<name>Level</name>
												<parameterid>level</parameterid>
												<valuemin>0</valuemin>
												<valuemax>3.98109</valuemax>
												<value>1.99526</value>
											</parameter>
										</effect>
									</filter>
									<filter>
										<effect>
											<name>Audio Pan</name>
											<effectid>audiopan</effectid>
											<effectcategory>audiopan</effectcategory>
											<effecttype>audiopan</effecttype>
											<mediatype>audio</mediatype>
											<parameter>
												<name>Pan</name>
												<parameterid>pan</parameterid>
												<valuemin>-1</valuemin>
												<valuemax>1</valuemax>
												<value>-0</value>
											</parameter>
										</effect>
									</filter>
									<sourcetrack>
										<mediatype>audio</mediatype>
										<trackindex>2</trackindex>
									</sourcetrack>
									<link>
										<linkclipref>Raw Interview Matthew Duepner664</linkclipref>
										<mediatype>video</mediatype>
										<trackindex>1</trackindex>
										<clipindex>21</clipindex>
									</link>
									<link>
										<linkclipref>Raw Interview Matthew Duepner665</linkclipref>
										<mediatype>audio</mediatype>
										<trackindex>1</trackindex>
										<clipindex>35</clipindex>
										<groupindex>1</groupindex>
									</link>
									<link>
										<linkclipref>Raw Interview Matthew Duepner666</linkclipref>
										<mediatype>audio</mediatype>
										<trackindex>2</trackindex>
										<clipindex>35</clipindex>
										<groupindex>1</groupindex>
									</link>
									<itemhistory>
										<uuid>9B611CA3-31DE-44B4-BA74-3B6A7588073F</uuid>
									</itemhistory>
								</clipitem>
								<clipitem id="Raw Interview Matthew Duepner669">
									<name>Raw Interview Matthew Duepner</name>
									<duration>81486</duration>
									<rate>
										<ntsc>TRUE</ntsc>
										<timebase>24</timebase>
									</rate>
									<in>57619</in>
									<out>57904</out>
									<start>5516</start>
									<end>5801</end>
									<masterclipid>Raw Interview Matthew Duepner390</masterclipid>
									<logginginfo>
										<scene/>
										<shottake/>
										<lognote/>
										<good>FALSE</good>
									</logginginfo>
									<labels>
										<label2/>
									</labels>
									<comments>
										<mastercomment1/>
										<mastercomment2/>
										<mastercomment3/>
										<mastercomment4/>
									</comments>
									<file id="YIN_2013-05-28_LG-5 "/>
									<filter>
										<effect>
											<name>Audio Levels</name>
											<effectid>audiolevels</effectid>
											<effectcategory>audiolevels</effectcategory>
											<effecttype>audiolevels</effecttype>
											<mediatype>audio</mediatype>
											<parameter>
												<name>Level</name>
												<parameterid>level</parameterid>
												<valuemin>0</valuemin>
												<valuemax>3.98109</valuemax>
												<value>1.99526</value>
											</parameter>
										</effect>
									</filter>
									<filter>
										<effect>
											<name>Audio Pan</name>
											<effectid>audiopan</effectid>
											<effectcategory>audiopan</effectcategory>
											<effecttype>audiopan</effecttype>
											<mediatype>audio</mediatype>
											<parameter>
												<name>Pan</name>
												<parameterid>pan</parameterid>
												<valuemin>-1</valuemin>
												<valuemax>1</valuemax>
												<value>-0</value>
											</parameter>
										</effect>
									</filter>
									<sourcetrack>
										<mediatype>audio</mediatype>
										<trackindex>2</trackindex>
									</sourcetrack>
									<link>
										<linkclipref>Raw Interview Matthew Duepner667</linkclipref>
										<mediatype>video</mediatype>
										<trackindex>1</trackindex>
										<clipindex>22</clipindex>
									</link>
									<link>
										<linkclipref>Raw Interview Matthew Duepner668</linkclipref>
										<mediatype>audio</mediatype>
										<trackindex>1</trackindex>
										<clipindex>36</clipindex>
										<groupindex>1</groupindex>
									</link>
									<link>
										<linkclipref>Raw Interview Matthew Duepner669</linkclipref>
										<mediatype>audio</mediatype>
										<trackindex>2</trackindex>
										<clipindex>36</clipindex>
										<groupindex>1</groupindex>
									</link>
									<itemhistory>
										<uuid>30D1DCEA-1B98-4301-9856-F5742368592D</uuid>
									</itemhistory>
								</clipitem>
								<clipitem id="Raw Interview Matthew Duepner672">
									<name>Raw Interview Matthew Duepner</name>
									<duration>81486</duration>
									<rate>
										<ntsc>TRUE</ntsc>
										<timebase>24</timebase>
									</rate>
									<in>51376</in>
									<out>51520</out>
									<start>6008</start>
									<end>6152</end>
									<masterclipid>Raw Interview Matthew Duepner390</masterclipid>
									<logginginfo>
										<scene/>
										<shottake/>
										<lognote/>
										<good>FALSE</good>
									</logginginfo>
									<labels>
										<label2/>
									</labels>
									<comments>
										<mastercomment1/>
										<mastercomment2/>
										<mastercomment3/>
										<mastercomment4/>
									</comments>
									<file id="YIN_2013-05-28_LG-5 "/>
									<filter>
										<effect>
											<name>Audio Levels</name>
											<effectid>audiolevels</effectid>
											<effectcategory>audiolevels</effectcategory>
											<effecttype>audiolevels</effecttype>
											<mediatype>audio</mediatype>
											<parameter>
												<name>Level</name>
												<parameterid>level</parameterid>
												<valuemin>0</valuemin>
												<valuemax>3.98109</valuemax>
												<value>1.99526</value>
											</parameter>
										</effect>
									</filter>
									<filter>
										<effect>
											<name>Audio Pan</name>
											<effectid>audiopan</effectid>
											<effectcategory>audiopan</effectcategory>
											<effecttype>audiopan</effecttype>
											<mediatype>audio</mediatype>
											<parameter>
												<name>Pan</name>
												<parameterid>pan</parameterid>
												<valuemin>-1</valuemin>
												<valuemax>1</valuemax>
												<value>-0</value>
											</parameter>
										</effect>
									</filter>
									<sourcetrack>
										<mediatype>audio</mediatype>
										<trackindex>2</trackindex>
									</sourcetrack>
									<link>
										<linkclipref>Raw Interview Matthew Duepner670</linkclipref>
										<mediatype>video</mediatype>
										<trackindex>1</trackindex>
										<clipindex>23</clipindex>
									</link>
									<link>
										<linkclipref>Raw Interview Matthew Duepner671</linkclipref>
										<mediatype>audio</mediatype>
										<trackindex>1</trackindex>
										<clipindex>37</clipindex>
										<groupindex>1</groupindex>
									</link>
									<link>
										<linkclipref>Raw Interview Matthew Duepner672</linkclipref>
										<mediatype>audio</mediatype>
										<trackindex>2</trackindex>
										<clipindex>37</clipindex>
										<groupindex>1</groupindex>
									</link>
									<itemhistory>
										<uuid>7CC0537D-7C96-4E0C-AE26-14BEE6200A30</uuid>
									</itemhistory>
								</clipitem>
								<clipitem id="Raw Interview Matthew Duepner675">
									<name>Raw Interview Matthew Duepner</name>
									<duration>81486</duration>
									<rate>
										<ntsc>TRUE</ntsc>
										<timebase>24</timebase>
									</rate>
									<in>24734</in>
									<out>25029</out>
									<start>6423</start>
									<end>6718</end>
									<masterclipid>Raw Interview Matthew Duepner390</masterclipid>
									<logginginfo>
										<scene/>
										<shottake/>
										<lognote/>
										<good>FALSE</good>
									</logginginfo>
									<labels>
										<label2/>
									</labels>
									<comments>
										<mastercomment1/>
										<mastercomment2/>
										<mastercomment3/>
										<mastercomment4/>
									</comments>
									<file id="YIN_2013-05-28_LG-5 "/>
									<filter>
										<effect>
											<name>Audio Levels</name>
											<effectid>audiolevels</effectid>
											<effectcategory>audiolevels</effectcategory>
											<effecttype>audiolevels</effecttype>
											<mediatype>audio</mediatype>
											<parameter>
												<name>Level</name>
												<parameterid>level</parameterid>
												<valuemin>0</valuemin>
												<valuemax>3.98109</valuemax>
												<value>1.99526</value>
											</parameter>
										</effect>
									</filter>
									<filter>
										<effect>
											<name>Audio Pan</name>
											<effectid>audiopan</effectid>
											<effectcategory>audiopan</effectcategory>
											<effecttype>audiopan</effecttype>
											<mediatype>audio</mediatype>
											<parameter>
												<name>Pan</name>
												<parameterid>pan</parameterid>
												<valuemin>-1</valuemin>
												<valuemax>1</valuemax>
												<value>-0</value>
											</parameter>
										</effect>
									</filter>
									<sourcetrack>
										<mediatype>audio</mediatype>
										<trackindex>2</trackindex>
									</sourcetrack>
									<link>
										<linkclipref>Raw Interview Matthew Duepner673</linkclipref>
										<mediatype>video</mediatype>
										<trackindex>1</trackindex>
										<clipindex>24</clipindex>
									</link>
									<link>
										<linkclipref>Raw Interview Matthew Duepner674</linkclipref>
										<mediatype>audio</mediatype>
										<trackindex>1</trackindex>
										<clipindex>38</clipindex>
										<groupindex>1</groupindex>
									</link>
									<link>
										<linkclipref>Raw Interview Matthew Duepner675</linkclipref>
										<mediatype>audio</mediatype>
										<trackindex>2</trackindex>
										<clipindex>38</clipindex>
										<groupindex>1</groupindex>
									</link>
									<itemhistory>
										<uuid>5B7C2371-B6BC-4999-B266-A3F5C38F837C</uuid>
									</itemhistory>
								</clipitem>
								<clipitem id="Raw Interview Matthew Duepner678">
									<name>Raw Interview Matthew Duepner</name>
									<duration>81486</duration>
									<rate>
										<ntsc>TRUE</ntsc>
										<timebase>24</timebase>
									</rate>
									<in>21014</in>
									<out>21125</out>
									<start>6914</start>
									<end>7025</end>
									<masterclipid>Raw Interview Matthew Duepner390</masterclipid>
									<logginginfo>
										<scene/>
										<shottake/>
										<lognote/>
										<good>FALSE</good>
									</logginginfo>
									<labels>
										<label2/>
									</labels>
									<comments>
										<mastercomment1/>
										<mastercomment2/>
										<mastercomment3/>
										<mastercomment4/>
									</comments>
									<file id="YIN_2013-05-28_LG-5 "/>
									<filter>
										<effect>
											<name>Audio Levels</name>
											<effectid>audiolevels</effectid>
											<effectcategory>audiolevels</effectcategory>
											<effecttype>audiolevels</effecttype>
											<mediatype>audio</mediatype>
											<parameter>
												<name>Level</name>
												<parameterid>level</parameterid>
												<valuemin>0</valuemin>
												<valuemax>3.98109</valuemax>
												<value>1.99526</value>
											</parameter>
										</effect>
									</filter>
									<filter>
										<effect>
											<name>Audio Pan</name>
											<effectid>audiopan</effectid>
											<effectcategory>audiopan</effectcategory>
											<effecttype>audiopan</effecttype>
											<mediatype>audio</mediatype>
											<parameter>
												<name>Pan</name>
												<parameterid>pan</parameterid>
												<valuemin>-1</valuemin>
												<valuemax>1</valuemax>
												<value>-0</value>
											</parameter>
										</effect>
									</filter>
									<sourcetrack>
										<mediatype>audio</mediatype>
										<trackindex>2</trackindex>
									</sourcetrack>
									<link>
										<linkclipref>Raw Interview Matthew Duepner676</linkclipref>
										<mediatype>video</mediatype>
										<trackindex>1</trackindex>
										<clipindex>25</clipindex>
									</link>
									<link>
										<linkclipref>Raw Interview Matthew Duepner677</linkclipref>
										<mediatype>audio</mediatype>
										<trackindex>1</trackindex>
										<clipindex>39</clipindex>
										<groupindex>1</groupindex>
									</link>
									<link>
										<linkclipref>Raw Interview Matthew Duepner678</linkclipref>
										<mediatype>audio</mediatype>
										<trackindex>2</trackindex>
										<clipindex>39</clipindex>
										<groupindex>1</groupindex>
									</link>
									<itemhistory>
										<uuid>DB3C9D7D-B1FC-4EF6-883D-89FD87502350</uuid>
									</itemhistory>
								</clipitem>
								<clipitem id="Raw Interview Matthew Duepner681">
									<name>Raw Interview Matthew Duepner</name>
									<duration>81486</duration>
									<rate>
										<ntsc>TRUE</ntsc>
										<timebase>24</timebase>
									</rate>
									<in>11151</in>
									<out>11298</out>
									<start>7025</start>
									<end>7172</end>
									<masterclipid>Raw Interview Matthew Duepner390</masterclipid>
									<logginginfo>
										<scene/>
										<shottake/>
										<lognote/>
										<good>FALSE</good>
									</logginginfo>
									<labels>
										<label2/>
									</labels>
									<comments>
										<mastercomment1/>
										<mastercomment2/>
										<mastercomment3/>
										<mastercomment4/>
									</comments>
									<file id="YIN_2013-05-28_LG-5 "/>
									<filter>
										<effect>
											<name>Audio Levels</name>
											<effectid>audiolevels</effectid>
											<effectcategory>audiolevels</effectcategory>
											<effecttype>audiolevels</effecttype>
											<mediatype>audio</mediatype>
											<parameter>
												<name>Level</name>
												<parameterid>level</parameterid>
												<valuemin>0</valuemin>
												<valuemax>3.98109</valuemax>
												<value>1.99526</value>
											</parameter>
										</effect>
									</filter>
									<filter>
										<effect>
											<name>Audio Pan</name>
											<effectid>audiopan</effectid>
											<effectcategory>audiopan</effectcategory>
											<effecttype>audiopan</effecttype>
											<mediatype>audio</mediatype>
											<parameter>
												<name>Pan</name>
												<parameterid>pan</parameterid>
												<valuemin>-1</valuemin>
												<valuemax>1</valuemax>
												<value>-0</value>
											</parameter>
										</effect>
									</filter>
									<sourcetrack>
										<mediatype>audio</mediatype>
										<trackindex>2</trackindex>
									</sourcetrack>
									<link>
										<linkclipref>Raw Interview Matthew Duepner679</linkclipref>
										<mediatype>video</mediatype>
										<trackindex>1</trackindex>
										<clipindex>26</clipindex>
									</link>
									<link>
										<linkclipref>Raw Interview Matthew Duepner680</linkclipref>
										<mediatype>audio</mediatype>
										<trackindex>1</trackindex>
										<clipindex>40</clipindex>
										<groupindex>1</groupindex>
									</link>
									<link>
										<linkclipref>Raw Interview Matthew Duepner681</linkclipref>
										<mediatype>audio</mediatype>
										<trackindex>2</trackindex>
										<clipindex>40</clipindex>
										<groupindex>1</groupindex>
									</link>
									<itemhistory>
										<uuid>BDC2FB5E-AC1A-4345-B6BC-1CB667D2C9DF</uuid>
									</itemhistory>
								</clipitem>
								<clipitem id="Raw Interview Matthew Duepner684">
									<name>Raw Interview Matthew Duepner</name>
									<duration>81486</duration>
									<rate>
										<ntsc>TRUE</ntsc>
										<timebase>24</timebase>
									</rate>
									<in>20307</in>
									<out>20438</out>
									<start>7172</start>
									<end>7303</end>
									<masterclipid>Raw Interview Matthew Duepner390</masterclipid>
									<logginginfo>
										<scene/>
										<shottake/>
										<lognote/>
										<good>FALSE</good>
									</logginginfo>
									<labels>
										<label2/>
									</labels>
									<comments>
										<mastercomment1/>
										<mastercomment2/>
										<mastercomment3/>
										<mastercomment4/>
									</comments>
									<file id="YIN_2013-05-28_LG-5 "/>
									<filter>
										<effect>
											<name>Audio Levels</name>
											<effectid>audiolevels</effectid>
											<effectcategory>audiolevels</effectcategory>
											<effecttype>audiolevels</effecttype>
											<mediatype>audio</mediatype>
											<parameter>
												<name>Level</name>
												<parameterid>level</parameterid>
												<valuemin>0</valuemin>
												<valuemax>3.98109</valuemax>
												<value>1.99526</value>
											</parameter>
										</effect>
									</filter>
									<filter>
										<effect>
											<name>Audio Pan</name>
											<effectid>audiopan</effectid>
											<effectcategory>audiopan</effectcategory>
											<effecttype>audiopan</effecttype>
											<mediatype>audio</mediatype>
											<parameter>
												<name>Pan</name>
												<parameterid>pan</parameterid>
												<valuemin>-1</valuemin>
												<valuemax>1</valuemax>
												<value>-0</value>
											</parameter>
										</effect>
									</filter>
									<sourcetrack>
										<mediatype>audio</mediatype>
										<trackindex>2</trackindex>
									</sourcetrack>
									<link>
										<linkclipref>Raw Interview Matthew Duepner682</linkclipref>
										<mediatype>video</mediatype>
										<trackindex>1</trackindex>
										<clipindex>27</clipindex>
									</link>
									<link>
										<linkclipref>Raw Interview Matthew Duepner683</linkclipref>
										<mediatype>audio</mediatype>
										<trackindex>1</trackindex>
										<clipindex>41</clipindex>
										<groupindex>1</groupindex>
									</link>
									<link>
										<linkclipref>Raw Interview Matthew Duepner684</linkclipref>
										<mediatype>audio</mediatype>
										<trackindex>2</trackindex>
										<clipindex>41</clipindex>
										<groupindex>1</groupindex>
									</link>
									<itemhistory>
										<uuid>30451C9C-2860-4011-8472-B7B159F722B0</uuid>
									</itemhistory>
								</clipitem>
								<clipitem id="Raw Interview Matthew Duepner687">
									<name>Raw Interview Matthew Duepner</name>
									<duration>81486</duration>
									<rate>
										<ntsc>TRUE</ntsc>
										<timebase>24</timebase>
									</rate>
									<in>20463</in>
									<out>20554</out>
									<start>7303</start>
									<end>7394</end>
									<masterclipid>Raw Interview Matthew Duepner390</masterclipid>
									<logginginfo>
										<scene/>
										<shottake/>
										<lognote/>
										<good>FALSE</good>
									</logginginfo>
									<labels>
										<label2/>
									</labels>
									<comments>
										<mastercomment1/>
										<mastercomment2/>
										<mastercomment3/>
										<mastercomment4/>
									</comments>
									<file id="YIN_2013-05-28_LG-5 "/>
									<filter>
										<effect>
											<name>Audio Levels</name>
											<effectid>audiolevels</effectid>
											<effectcategory>audiolevels</effectcategory>
											<effecttype>audiolevels</effecttype>
											<mediatype>audio</mediatype>
											<parameter>
												<name>Level</name>
												<parameterid>level</parameterid>
												<valuemin>0</valuemin>
												<valuemax>3.98109</valuemax>
												<value>1.99526</value>
											</parameter>
										</effect>
									</filter>
									<filter>
										<effect>
											<name>Audio Pan</name>
											<effectid>audiopan</effectid>
											<effectcategory>audiopan</effectcategory>
											<effecttype>audiopan</effecttype>
											<mediatype>audio</mediatype>
											<parameter>
												<name>Pan</name>
												<parameterid>pan</parameterid>
												<valuemin>-1</valuemin>
												<valuemax>1</valuemax>
												<value>-0</value>
											</parameter>
										</effect>
									</filter>
									<sourcetrack>
										<mediatype>audio</mediatype>
										<trackindex>2</trackindex>
									</sourcetrack>
									<link>
										<linkclipref>Raw Interview Matthew Duepner685</linkclipref>
										<mediatype>video</mediatype>
										<trackindex>1</trackindex>
										<clipindex>28</clipindex>
									</link>
									<link>
										<linkclipref>Raw Interview Matthew Duepner686</linkclipref>
										<mediatype>audio</mediatype>
										<trackindex>1</trackindex>
										<clipindex>42</clipindex>
										<groupindex>1</groupindex>
									</link>
									<link>
										<linkclipref>Raw Interview Matthew Duepner687</linkclipref>
										<mediatype>audio</mediatype>
										<trackindex>2</trackindex>
										<clipindex>42</clipindex>
										<groupindex>1</groupindex>
									</link>
									<itemhistory>
										<uuid>FD4C68D4-B929-4EE1-A67F-7B366278B4B8</uuid>
									</itemhistory>
								</clipitem>
								<clipitem id="Raw Interview Matthew Duepner690">
									<name>Raw Interview Matthew Duepner</name>
									<duration>81486</duration>
									<rate>
										<ntsc>TRUE</ntsc>
										<timebase>24</timebase>
									</rate>
									<in>20982</in>
									<out>21013</out>
									<start>7394</start>
									<end>7425</end>
									<masterclipid>Raw Interview Matthew Duepner390</masterclipid>
									<logginginfo>
										<scene/>
										<shottake/>
										<lognote/>
										<good>FALSE</good>
									</logginginfo>
									<labels>
										<label2/>
									</labels>
									<comments>
										<mastercomment1/>
										<mastercomment2/>
										<mastercomment3/>
										<mastercomment4/>
									</comments>
									<file id="YIN_2013-05-28_LG-5 "/>
									<filter>
										<effect>
											<name>Audio Levels</name>
											<effectid>audiolevels</effectid>
											<effectcategory>audiolevels</effectcategory>
											<effecttype>audiolevels</effecttype>
											<mediatype>audio</mediatype>
											<parameter>
												<name>Level</name>
												<parameterid>level</parameterid>
												<valuemin>0</valuemin>
												<valuemax>3.98109</valuemax>
												<value>1.99526</value>
											</parameter>
										</effect>
									</filter>
									<filter>
										<effect>
											<name>Audio Pan</name>
											<effectid>audiopan</effectid>
											<effectcategory>audiopan</effectcategory>
											<effecttype>audiopan</effecttype>
											<mediatype>audio</mediatype>
											<parameter>
												<name>Pan</name>
												<parameterid>pan</parameterid>
												<valuemin>-1</valuemin>
												<valuemax>1</valuemax>
												<value>-0</value>
											</parameter>
										</effect>
									</filter>
									<sourcetrack>
										<mediatype>audio</mediatype>
										<trackindex>2</trackindex>
									</sourcetrack>
									<link>
										<linkclipref>Raw Interview Matthew Duepner688</linkclipref>
										<mediatype>video</mediatype>
										<trackindex>1</trackindex>
										<clipindex>29</clipindex>
									</link>
									<link>
										<linkclipref>Raw Interview Matthew Duepner689</linkclipref>
										<mediatype>audio</mediatype>
										<trackindex>1</trackindex>
										<clipindex>43</clipindex>
										<groupindex>1</groupindex>
									</link>
									<link>
										<linkclipref>Raw Interview Matthew Duepner690</linkclipref>
										<mediatype>audio</mediatype>
										<trackindex>2</trackindex>
										<clipindex>43</clipindex>
										<groupindex>1</groupindex>
									</link>
									<itemhistory>
										<uuid>CCB69EDA-065A-4A3E-AD74-89C4FA224675</uuid>
									</itemhistory>
								</clipitem>
								<clipitem id="Raw Interview Matthew Duepner693">
									<name>Raw Interview Matthew Duepner</name>
									<duration>81486</duration>
									<rate>
										<ntsc>TRUE</ntsc>
										<timebase>24</timebase>
									</rate>
									<in>21714</in>
									<out>21826</out>
									<start>7425</start>
									<end>7537</end>
									<masterclipid>Raw Interview Matthew Duepner390</masterclipid>
									<logginginfo>
										<scene/>
										<shottake/>
										<lognote/>
										<good>FALSE</good>
									</logginginfo>
									<labels>
										<label2/>
									</labels>
									<comments>
										<mastercomment1/>
										<mastercomment2/>
										<mastercomment3/>
										<mastercomment4/>
									</comments>
									<file id="YIN_2013-05-28_LG-5 "/>
									<filter>
										<effect>
											<name>Audio Levels</name>
											<effectid>audiolevels</effectid>
											<effectcategory>audiolevels</effectcategory>
											<effecttype>audiolevels</effecttype>
											<mediatype>audio</mediatype>
											<parameter>
												<name>Level</name>
												<parameterid>level</parameterid>
												<valuemin>0</valuemin>
												<valuemax>3.98109</valuemax>
												<value>1.99526</value>
											</parameter>
										</effect>
									</filter>
									<filter>
										<effect>
											<name>Audio Pan</name>
											<effectid>audiopan</effectid>
											<effectcategory>audiopan</effectcategory>
											<effecttype>audiopan</effecttype>
											<mediatype>audio</mediatype>
											<parameter>
												<name>Pan</name>
												<parameterid>pan</parameterid>
												<valuemin>-1</valuemin>
												<valuemax>1</valuemax>
												<value>-0</value>
											</parameter>
										</effect>
									</filter>
									<sourcetrack>
										<mediatype>audio</mediatype>
										<trackindex>2</trackindex>
									</sourcetrack>
									<link>
										<linkclipref>Raw Interview Matthew Duepner691</linkclipref>
										<mediatype>video</mediatype>
										<trackindex>1</trackindex>
										<clipindex>30</clipindex>
									</link>
									<link>
										<linkclipref>Raw Interview Matthew Duepner692</linkclipref>
										<mediatype>audio</mediatype>
										<trackindex>1</trackindex>
										<clipindex>44</clipindex>
										<groupindex>1</groupindex>
									</link>
									<link>
										<linkclipref>Raw Interview Matthew Duepner693</linkclipref>
										<mediatype>audio</mediatype>
										<trackindex>2</trackindex>
										<clipindex>44</clipindex>
										<groupindex>1</groupindex>
									</link>
									<itemhistory>
										<uuid>1DAB8FAB-4165-49BE-A778-C723E596C715</uuid>
									</itemhistory>
								</clipitem>
								<clipitem id="Raw Interview Matthew Duepner696">
									<name>Raw Interview Matthew Duepner</name>
									<duration>81486</duration>
									<rate>
										<ntsc>TRUE</ntsc>
										<timebase>24</timebase>
									</rate>
									<in>22249</in>
									<out>22353</out>
									<start>7537</start>
									<end>7641</end>
									<masterclipid>Raw Interview Matthew Duepner390</masterclipid>
									<logginginfo>
										<scene/>
										<shottake/>
										<lognote/>
										<good>FALSE</good>
									</logginginfo>
									<labels>
										<label2/>
									</labels>
									<comments>
										<mastercomment1/>
										<mastercomment2/>
										<mastercomment3/>
										<mastercomment4/>
									</comments>
									<file id="YIN_2013-05-28_LG-5 "/>
									<filter>
										<effect>
											<name>Audio Levels</name>
											<effectid>audiolevels</effectid>
											<effectcategory>audiolevels</effectcategory>
											<effecttype>audiolevels</effecttype>
											<mediatype>audio</mediatype>
											<parameter>
												<name>Level</name>
												<parameterid>level</parameterid>
												<valuemin>0</valuemin>
												<valuemax>3.98109</valuemax>
												<value>1.99526</value>
											</parameter>
										</effect>
									</filter>
									<filter>
										<effect>
											<name>Audio Pan</name>
											<effectid>audiopan</effectid>
											<effectcategory>audiopan</effectcategory>
											<effecttype>audiopan</effecttype>
											<mediatype>audio</mediatype>
											<parameter>
												<name>Pan</name>
												<parameterid>pan</parameterid>
												<valuemin>-1</valuemin>
												<valuemax>1</valuemax>
												<value>-0</value>
											</parameter>
										</effect>
									</filter>
									<sourcetrack>
										<mediatype>audio</mediatype>
										<trackindex>2</trackindex>
									</sourcetrack>
									<link>
										<linkclipref>Raw Interview Matthew Duepner694</linkclipref>
										<mediatype>video</mediatype>
										<trackindex>1</trackindex>
										<clipindex>31</clipindex>
									</link>
									<link>
										<linkclipref>Raw Interview Matthew Duepner695</linkclipref>
										<mediatype>audio</mediatype>
										<trackindex>1</trackindex>
										<clipindex>45</clipindex>
										<groupindex>1</groupindex>
									</link>
									<link>
										<linkclipref>Raw Interview Matthew Duepner696</linkclipref>
										<mediatype>audio</mediatype>
										<trackindex>2</trackindex>
										<clipindex>45</clipindex>
										<groupindex>1</groupindex>
									</link>
									<itemhistory>
										<uuid>3FBAC820-C227-4093-8A55-754DB295988B</uuid>
									</itemhistory>
								</clipitem>
								<clipitem id="Raw Interview Matthew Duepner699">
									<name>Raw Interview Matthew Duepner</name>
									<duration>81486</duration>
									<rate>
										<ntsc>TRUE</ntsc>
										<timebase>24</timebase>
									</rate>
									<in>22861</in>
									<out>23027</out>
									<start>7642</start>
									<end>7808</end>
									<masterclipid>Raw Interview Matthew Duepner390</masterclipid>
									<logginginfo>
										<scene/>
										<shottake/>
										<lognote/>
										<good>FALSE</good>
									</logginginfo>
									<labels>
										<label2/>
									</labels>
									<comments>
										<mastercomment1/>
										<mastercomment2/>
										<mastercomment3/>
										<mastercomment4/>
									</comments>
									<file id="YIN_2013-05-28_LG-5 "/>
									<filter>
										<effect>
											<name>Audio Levels</name>
											<effectid>audiolevels</effectid>
											<effectcategory>audiolevels</effectcategory>
											<effecttype>audiolevels</effecttype>
											<mediatype>audio</mediatype>
											<parameter>
												<name>Level</name>
												<parameterid>level</parameterid>
												<valuemin>0</valuemin>
												<valuemax>3.98109</valuemax>
												<value>1.99526</value>
											</parameter>
										</effect>
									</filter>
									<filter>
										<effect>
											<name>Audio Pan</name>
											<effectid>audiopan</effectid>
											<effectcategory>audiopan</effectcategory>
											<effecttype>audiopan</effecttype>
											<mediatype>audio</mediatype>
											<parameter>
												<name>Pan</name>
												<parameterid>pan</parameterid>
												<valuemin>-1</valuemin>
												<valuemax>1</valuemax>
												<value>-0</value>
											</parameter>
										</effect>
									</filter>
									<sourcetrack>
										<mediatype>audio</mediatype>
										<trackindex>2</trackindex>
									</sourcetrack>
									<link>
										<linkclipref>Raw Interview Matthew Duepner697</linkclipref>
										<mediatype>video</mediatype>
										<trackindex>1</trackindex>
										<clipindex>32</clipindex>
									</link>
									<link>
										<linkclipref>Raw Interview Matthew Duepner698</linkclipref>
										<mediatype>audio</mediatype>
										<trackindex>1</trackindex>
										<clipindex>46</clipindex>
										<groupindex>1</groupindex>
									</link>
									<link>
										<linkclipref>Raw Interview Matthew Duepner699</linkclipref>
										<mediatype>audio</mediatype>
										<trackindex>2</trackindex>
										<clipindex>46</clipindex>
										<groupindex>1</groupindex>
									</link>
									<itemhistory>
										<uuid>EB6C20AA-804E-407B-8F3E-93B2978D9241</uuid>
									</itemhistory>
								</clipitem>
								<clipitem id="Raw Interview Matthew Duepner702">
									<name>Raw Interview Matthew Duepner</name>
									<duration>81486</duration>
									<rate>
										<ntsc>TRUE</ntsc>
										<timebase>24</timebase>
									</rate>
									<in>24285</in>
									<out>24371</out>
									<start>7810</start>
									<end>7896</end>
									<masterclipid>Raw Interview Matthew Duepner390</masterclipid>
									<logginginfo>
										<scene/>
										<shottake/>
										<lognote/>
										<good>FALSE</good>
									</logginginfo>
									<labels>
										<label2/>
									</labels>
									<comments>
										<mastercomment1/>
										<mastercomment2/>
										<mastercomment3/>
										<mastercomment4/>
									</comments>
									<file id="YIN_2013-05-28_LG-5 "/>
									<filter>
										<effect>
											<name>Audio Levels</name>
											<effectid>audiolevels</effectid>
											<effectcategory>audiolevels</effectcategory>
											<effecttype>audiolevels</effecttype>
											<mediatype>audio</mediatype>
											<parameter>
												<name>Level</name>
												<parameterid>level</parameterid>
												<valuemin>0</valuemin>
												<valuemax>3.98109</valuemax>
												<value>1.99526</value>
											</parameter>
										</effect>
									</filter>
									<filter>
										<effect>
											<name>Audio Pan</name>
											<effectid>audiopan</effectid>
											<effectcategory>audiopan</effectcategory>
											<effecttype>audiopan</effecttype>
											<mediatype>audio</mediatype>
											<parameter>
												<name>Pan</name>
												<parameterid>pan</parameterid>
												<valuemin>-1</valuemin>
												<valuemax>1</valuemax>
												<value>-0</value>
											</parameter>
										</effect>
									</filter>
									<sourcetrack>
										<mediatype>audio</mediatype>
										<trackindex>2</trackindex>
									</sourcetrack>
									<link>
										<linkclipref>Raw Interview Matthew Duepner700</linkclipref>
										<mediatype>video</mediatype>
										<trackindex>1</trackindex>
										<clipindex>33</clipindex>
									</link>
									<link>
										<linkclipref>Raw Interview Matthew Duepner701</linkclipref>
										<mediatype>audio</mediatype>
										<trackindex>1</trackindex>
										<clipindex>47</clipindex>
										<groupindex>1</groupindex>
									</link>
									<link>
										<linkclipref>Raw Interview Matthew Duepner702</linkclipref>
										<mediatype>audio</mediatype>
										<trackindex>2</trackindex>
										<clipindex>47</clipindex>
										<groupindex>1</groupindex>
									</link>
									<itemhistory>
										<uuid>12C45866-9126-4E86-8610-03F00FD0F11F</uuid>
									</itemhistory>
								</clipitem>
								<clipitem id="Raw Interview Matthew Duepner705">
									<name>Raw Interview Matthew Duepner</name>
									<duration>81486</duration>
									<rate>
										<ntsc>TRUE</ntsc>
										<timebase>24</timebase>
									</rate>
									<in>23041</in>
									<out>23131</out>
									<start>7896</start>
									<end>7986</end>
									<masterclipid>Raw Interview Matthew Duepner390</masterclipid>
									<logginginfo>
										<scene/>
										<shottake/>
										<lognote/>
										<good>FALSE</good>
									</logginginfo>
									<labels>
										<label2/>
									</labels>
									<comments>
										<mastercomment1/>
										<mastercomment2/>
										<mastercomment3/>
										<mastercomment4/>
									</comments>
									<file id="YIN_2013-05-28_LG-5 "/>
									<filter>
										<effect>
											<name>Audio Levels</name>
											<effectid>audiolevels</effectid>
											<effectcategory>audiolevels</effectcategory>
											<effecttype>audiolevels</effecttype>
											<mediatype>audio</mediatype>
											<parameter>
												<name>Level</name>
												<parameterid>level</parameterid>
												<valuemin>0</valuemin>
												<valuemax>3.98109</valuemax>
												<value>1.99526</value>
											</parameter>
										</effect>
									</filter>
									<filter>
										<effect>
											<name>Audio Pan</name>
											<effectid>audiopan</effectid>
											<effectcategory>audiopan</effectcategory>
											<effecttype>audiopan</effecttype>
											<mediatype>audio</mediatype>
											<parameter>
												<name>Pan</name>
												<parameterid>pan</parameterid>
												<valuemin>-1</valuemin>
												<valuemax>1</valuemax>
												<value>-0</value>
											</parameter>
										</effect>
									</filter>
									<sourcetrack>
										<mediatype>audio</mediatype>
										<trackindex>2</trackindex>
									</sourcetrack>
									<link>
										<linkclipref>Raw Interview Matthew Duepner703</linkclipref>
										<mediatype>video</mediatype>
										<trackindex>1</trackindex>
										<clipindex>34</clipindex>
									</link>
									<link>
										<linkclipref>Raw Interview Matthew Duepner704</linkclipref>
										<mediatype>audio</mediatype>
										<trackindex>1</trackindex>
										<clipindex>48</clipindex>
										<groupindex>1</groupindex>
									</link>
									<link>
										<linkclipref>Raw Interview Matthew Duepner705</linkclipref>
										<mediatype>audio</mediatype>
										<trackindex>2</trackindex>
										<clipindex>48</clipindex>
										<groupindex>1</groupindex>
									</link>
									<itemhistory>
										<uuid>3876EB88-3A1D-458C-B5E6-8980EB6928C5</uuid>
									</itemhistory>
								</clipitem>
								<clipitem id="Raw Interview Matthew Duepner708">
									<name>Raw Interview Matthew Duepner</name>
									<duration>81486</duration>
									<rate>
										<ntsc>TRUE</ntsc>
										<timebase>24</timebase>
									</rate>
									<in>24371</in>
									<out>24449</out>
									<start>7986</start>
									<end>8064</end>
									<masterclipid>Raw Interview Matthew Duepner390</masterclipid>
									<logginginfo>
										<scene/>
										<shottake/>
										<lognote/>
										<good>FALSE</good>
									</logginginfo>
									<labels>
										<label2/>
									</labels>
									<comments>
										<mastercomment1/>
										<mastercomment2/>
										<mastercomment3/>
										<mastercomment4/>
									</comments>
									<file id="YIN_2013-05-28_LG-5 "/>
									<filter>
										<effect>
											<name>Audio Levels</name>
											<effectid>audiolevels</effectid>
											<effectcategory>audiolevels</effectcategory>
											<effecttype>audiolevels</effecttype>
											<mediatype>audio</mediatype>
											<parameter>
												<name>Level</name>
												<parameterid>level</parameterid>
												<valuemin>0</valuemin>
												<valuemax>3.98109</valuemax>
												<value>1.99526</value>
											</parameter>
										</effect>
									</filter>
									<filter>
										<effect>
											<name>Audio Pan</name>
											<effectid>audiopan</effectid>
											<effectcategory>audiopan</effectcategory>
											<effecttype>audiopan</effecttype>
											<mediatype>audio</mediatype>
											<parameter>
												<name>Pan</name>
												<parameterid>pan</parameterid>
												<valuemin>-1</valuemin>
												<valuemax>1</valuemax>
												<value>-0</value>
											</parameter>
										</effect>
									</filter>
									<sourcetrack>
										<mediatype>audio</mediatype>
										<trackindex>2</trackindex>
									</sourcetrack>
									<link>
										<linkclipref>Raw Interview Matthew Duepner706</linkclipref>
										<mediatype>video</mediatype>
										<trackindex>1</trackindex>
										<clipindex>35</clipindex>
									</link>
									<link>
										<linkclipref>Raw Interview Matthew Duepner707</linkclipref>
										<mediatype>audio</mediatype>
										<trackindex>1</trackindex>
										<clipindex>49</clipindex>
										<groupindex>1</groupindex>
									</link>
									<link>
										<linkclipref>Raw Interview Matthew Duepner708</linkclipref>
										<mediatype>audio</mediatype>
										<trackindex>2</trackindex>
										<clipindex>49</clipindex>
										<groupindex>1</groupindex>
									</link>
									<itemhistory>
										<uuid>A5CD1605-A3ED-4D22-9A0B-806E7C8AB96A</uuid>
									</itemhistory>
								</clipitem>
								<clipitem id="Raw Interview Matthew Duepner711">
									<name>Raw Interview Matthew Duepner</name>
									<duration>81486</duration>
									<rate>
										<ntsc>TRUE</ntsc>
										<timebase>24</timebase>
									</rate>
									<in>24455</in>
									<out>24488</out>
									<start>8064</start>
									<end>8097</end>
									<masterclipid>Raw Interview Matthew Duepner390</masterclipid>
									<logginginfo>
										<scene/>
										<shottake/>
										<lognote/>
										<good>FALSE</good>
									</logginginfo>
									<labels>
										<label2/>
									</labels>
									<comments>
										<mastercomment1/>
										<mastercomment2/>
										<mastercomment3/>
										<mastercomment4/>
									</comments>
									<file id="YIN_2013-05-28_LG-5 "/>
									<filter>
										<effect>
											<name>Audio Levels</name>
											<effectid>audiolevels</effectid>
											<effectcategory>audiolevels</effectcategory>
											<effecttype>audiolevels</effecttype>
											<mediatype>audio</mediatype>
											<parameter>
												<name>Level</name>
												<parameterid>level</parameterid>
												<valuemin>0</valuemin>
												<valuemax>3.98109</valuemax>
												<value>1.99526</value>
											</parameter>
										</effect>
									</filter>
									<filter>
										<effect>
											<name>Audio Pan</name>
											<effectid>audiopan</effectid>
											<effectcategory>audiopan</effectcategory>
											<effecttype>audiopan</effecttype>
											<mediatype>audio</mediatype>
											<parameter>
												<name>Pan</name>
												<parameterid>pan</parameterid>
												<valuemin>-1</valuemin>
												<valuemax>1</valuemax>
												<value>-0</value>
											</parameter>
										</effect>
									</filter>
									<sourcetrack>
										<mediatype>audio</mediatype>
										<trackindex>2</trackindex>
									</sourcetrack>
									<link>
										<linkclipref>Raw Interview Matthew Duepner709</linkclipref>
										<mediatype>video</mediatype>
										<trackindex>1</trackindex>
										<clipindex>36</clipindex>
									</link>
									<link>
										<linkclipref>Raw Interview Matthew Duepner710</linkclipref>
										<mediatype>audio</mediatype>
										<trackindex>1</trackindex>
										<clipindex>50</clipindex>
										<groupindex>1</groupindex>
									</link>
									<link>
										<linkclipref>Raw Interview Matthew Duepner711</linkclipref>
										<mediatype>audio</mediatype>
										<trackindex>2</trackindex>
										<clipindex>50</clipindex>
										<groupindex>1</groupindex>
									</link>
									<itemhistory>
										<uuid>86FC718B-849A-4D00-9BEC-5484D9685155</uuid>
									</itemhistory>
								</clipitem>
								<enabled>TRUE</enabled>
								<locked>FALSE</locked>
								<outputchannelindex>2</outputchannelindex>
							</track>
							<track>
								<transitionitem>
									<rate>
										<ntsc>TRUE</ntsc>
										<timebase>24</timebase>
									</rate>
									<start>214</start>
									<end>219</end>
									<alignment>start</alignment>
									<effect>
										<name>Cross Fade ( 0dB)</name>
										<effectid>KGAudioTransCrossFade0dB</effectid>
										<effecttype>transition</effecttype>
										<mediatype>audio</mediatype>
										<startratio>0</startratio>
										<endratio>1</endratio>
										<reverse>FALSE</reverse>
									</effect>
								</transitionitem>
								<clipitem id="Raw Scene Matthew Duepner Printing161">
									<name>Raw Scene Matthew Duepner Printing</name>
									<duration>28553</duration>
									<rate>
										<ntsc>TRUE</ntsc>
										<timebase>24</timebase>
									</rate>
									<in>3837</in>
									<out>3882</out>
									<start>-1</start>
									<end>-1</end>
									<masterclipid>Raw Scene Matthew Duepner Printing72</masterclipid>
									<logginginfo>
										<scene/>
										<shottake/>
										<lognote/>
										<good>FALSE</good>
									</logginginfo>
									<labels>
										<label2/>
									</labels>
									<comments>
										<mastercomment1/>
										<mastercomment2/>
										<mastercomment3/>
										<mastercomment4/>
									</comments>
									<file id="YIN_2013-05-28_LG-6 "/>
									<filter>
										<effect>
											<name>Audio Levels</name>
											<effectid>audiolevels</effectid>
											<effectcategory>audiolevels</effectcategory>
											<effecttype>audiolevels</effecttype>
											<mediatype>audio</mediatype>
											<parameter>
												<name>Level</name>
												<parameterid>level</parameterid>
												<valuemin>0</valuemin>
												<valuemax>3.98109</valuemax>
												<value>0.999478</value>
											</parameter>
										</effect>
									</filter>
									<filter>
										<effect>
											<name>Audio Pan</name>
											<effectid>audiopan</effectid>
											<effectcategory>audiopan</effectcategory>
											<effecttype>audiopan</effecttype>
											<mediatype>audio</mediatype>
											<parameter>
												<name>Pan</name>
												<parameterid>pan</parameterid>
												<valuemin>-1</valuemin>
												<valuemax>1</valuemax>
												<value>0</value>
											</parameter>
										</effect>
									</filter>
									<sourcetrack>
										<mediatype>audio</mediatype>
										<trackindex>1</trackindex>
									</sourcetrack>
									<link>
										<linkclipref>Raw Scene Matthew Duepner Printing161</linkclipref>
										<mediatype>audio</mediatype>
										<trackindex>3</trackindex>
										<clipindex>2</clipindex>
										<groupindex>1</groupindex>
									</link>
									<link>
										<linkclipref>Raw Scene Matthew Duepner Printing162</linkclipref>
										<mediatype>audio</mediatype>
										<trackindex>4</trackindex>
										<clipindex>2</clipindex>
										<groupindex>1</groupindex>
									</link>
									<itemhistory>
										<uuid>55C0F362-1604-4AC6-B141-CE1902B186CE</uuid>
									</itemhistory>
								</clipitem>
								<transitionitem>
									<rate>
										<ntsc>TRUE</ntsc>
										<timebase>24</timebase>
									</rate>
									<start>249</start>
									<end>259</end>
									<alignment>center</alignment>
									<effect>
										<name>Cross Fade ( 0dB)</name>
										<effectid>KGAudioTransCrossFade0dB</effectid>
										<effecttype>transition</effecttype>
										<mediatype>audio</mediatype>
										<startratio>0</startratio>
										<endratio>1</endratio>
										<reverse>FALSE</reverse>
									</effect>
								</transitionitem>
								<clipitem id="Raw Scene Matthew Duepner Printing163">
									<name>Raw Scene Matthew Duepner Printing</name>
									<duration>28553</duration>
									<rate>
										<ntsc>TRUE</ntsc>
										<timebase>24</timebase>
									</rate>
									<in>4077</in>
									<out>4353</out>
									<start>-1</start>
									<end>525</end>
									<masterclipid>Raw Scene Matthew Duepner Printing72</masterclipid>
									<logginginfo>
										<scene/>
										<shottake/>
										<lognote/>
										<good>FALSE</good>
									</logginginfo>
									<labels>
										<label2/>
									</labels>
									<comments>
										<mastercomment1/>
										<mastercomment2/>
										<mastercomment3/>
										<mastercomment4/>
									</comments>
									<file id="YIN_2013-05-28_LG-6 "/>
									<filter>
										<effect>
											<name>Audio Levels</name>
											<effectid>audiolevels</effectid>
											<effectcategory>audiolevels</effectcategory>
											<effecttype>audiolevels</effecttype>
											<mediatype>audio</mediatype>
											<parameter>
												<name>Level</name>
												<parameterid>level</parameterid>
												<valuemin>0</valuemin>
												<valuemax>3.98109</valuemax>
												<value>1.01367</value>
											</parameter>
										</effect>
									</filter>
									<filter>
										<effect>
											<name>Audio Pan</name>
											<effectid>audiopan</effectid>
											<effectcategory>audiopan</effectcategory>
											<effecttype>audiopan</effecttype>
											<mediatype>audio</mediatype>
											<parameter>
												<name>Pan</name>
												<parameterid>pan</parameterid>
												<valuemin>-1</valuemin>
												<valuemax>1</valuemax>
												<value>0</value>
											</parameter>
										</effect>
									</filter>
									<sourcetrack>
										<mediatype>audio</mediatype>
										<trackindex>1</trackindex>
									</sourcetrack>
									<link>
										<linkclipref>Raw Scene Matthew Duepner Printing163</linkclipref>
										<mediatype>audio</mediatype>
										<trackindex>3</trackindex>
										<clipindex>4</clipindex>
										<groupindex>1</groupindex>
									</link>
									<link>
										<linkclipref>Raw Scene Matthew Duepner Printing164</linkclipref>
										<mediatype>audio</mediatype>
										<trackindex>4</trackindex>
										<clipindex>4</clipindex>
										<groupindex>1</groupindex>
									</link>
									<itemhistory>
										<uuid>D35AB49D-96A1-491E-9B3B-B41E8CA5EAB1</uuid>
									</itemhistory>
								</clipitem>
								<clipitem id="Raw Scene Matthew Duepner Printing165">
									<name>Raw Scene Matthew Duepner Printing</name>
									<duration>28553</duration>
									<rate>
										<ntsc>TRUE</ntsc>
										<timebase>24</timebase>
									</rate>
									<in>4633</in>
									<out>4710</out>
									<start>525</start>
									<end>-1</end>
									<masterclipid>Raw Scene Matthew Duepner Printing72</masterclipid>
									<logginginfo>
										<scene/>
										<shottake/>
										<lognote/>
										<good>FALSE</good>
									</logginginfo>
									<labels>
										<label2/>
									</labels>
									<comments>
										<mastercomment1/>
										<mastercomment2/>
										<mastercomment3/>
										<mastercomment4/>
									</comments>
									<file id="YIN_2013-05-28_LG-6 "/>
									<filter>
										<effect>
											<name>Audio Levels</name>
											<effectid>audiolevels</effectid>
											<effectcategory>audiolevels</effectcategory>
											<effecttype>audiolevels</effecttype>
											<mediatype>audio</mediatype>
											<parameter>
												<name>Level</name>
												<parameterid>level</parameterid>
												<valuemin>0</valuemin>
												<valuemax>3.98109</valuemax>
												<value>0.998386</value>
											</parameter>
										</effect>
									</filter>
									<filter>
										<effect>
											<name>Audio Pan</name>
											<effectid>audiopan</effectid>
											<effectcategory>audiopan</effectcategory>
											<effecttype>audiopan</effecttype>
											<mediatype>audio</mediatype>
											<parameter>
												<name>Pan</name>
												<parameterid>pan</parameterid>
												<valuemin>-1</valuemin>
												<valuemax>1</valuemax>
												<value>0</value>
											</parameter>
										</effect>
									</filter>
									<sourcetrack>
										<mediatype>audio</mediatype>
										<trackindex>1</trackindex>
									</sourcetrack>
									<link>
										<linkclipref>Raw Scene Matthew Duepner Printing165</linkclipref>
										<mediatype>audio</mediatype>
										<trackindex>3</trackindex>
										<clipindex>5</clipindex>
										<groupindex>1</groupindex>
									</link>
									<link>
										<linkclipref>Raw Scene Matthew Duepner Printing166</linkclipref>
										<mediatype>audio</mediatype>
										<trackindex>4</trackindex>
										<clipindex>5</clipindex>
										<groupindex>1</groupindex>
									</link>
									<itemhistory>
										<uuid>0534B7FD-7E3F-4505-8005-2F4F50358F58</uuid>
									</itemhistory>
								</clipitem>
								<transitionitem>
									<rate>
										<ntsc>TRUE</ntsc>
										<timebase>24</timebase>
									</rate>
									<start>578</start>
									<end>602</end>
									<alignment>center</alignment>
									<effect>
										<name>Cross Fade ( 0dB)</name>
										<effectid>KGAudioTransCrossFade0dB</effectid>
										<effecttype>transition</effecttype>
										<mediatype>audio</mediatype>
										<startratio>0</startratio>
										<endratio>1</endratio>
										<reverse>FALSE</reverse>
									</effect>
								</transitionitem>
								<clipitem id="Raw B Roll Hack Manhattan Matthew Duepner's House154">
									<name>Raw B Roll Hack Manhattan Matthew Duepner's House</name>
									<duration>6617</duration>
									<rate>
										<ntsc>TRUE</ntsc>
										<timebase>24</timebase>
									</rate>
									<in>3515</in>
									<out>3604</out>
									<start>-1</start>
									<end>-1</end>
									<masterclipid>Raw B Roll Hack Manhattan Matthew Duepner's House1</masterclipid>
									<logginginfo>
										<scene/>
										<shottake/>
										<lognote/>
										<good>FALSE</good>
									</logginginfo>
									<labels>
										<label2/>
									</labels>
									<comments>
										<mastercomment1/>
										<mastercomment2/>
										<mastercomment3/>
										<mastercomment4/>
									</comments>
									<file id="YIN_2013-04-28_JB-1 "/>
									<filter>
										<effect>
											<name>Audio Levels</name>
											<effectid>audiolevels</effectid>
											<effectcategory>audiolevels</effectcategory>
											<effecttype>audiolevels</effecttype>
											<mediatype>audio</mediatype>
											<parameter>
												<name>Level</name>
												<parameterid>level</parameterid>
												<valuemin>0</valuemin>
												<valuemax>3.98109</valuemax>
												<value>1.01039</value>
											</parameter>
										</effect>
									</filter>
									<filter>
										<effect>
											<name>Audio Pan</name>
											<effectid>audiopan</effectid>
											<effectcategory>audiopan</effectcategory>
											<effecttype>audiopan</effecttype>
											<mediatype>audio</mediatype>
											<parameter>
												<name>Pan</name>
												<parameterid>pan</parameterid>
												<valuemin>-1</valuemin>
												<valuemax>1</valuemax>
												<value>0</value>
											</parameter>
										</effect>
									</filter>
									<sourcetrack>
										<mediatype>audio</mediatype>
										<trackindex>1</trackindex>
									</sourcetrack>
									<link>
										<linkclipref>Raw B Roll Hack Manhattan Matthew Duepner's House154</linkclipref>
										<mediatype>audio</mediatype>
										<trackindex>3</trackindex>
										<clipindex>7</clipindex>
										<groupindex>1</groupindex>
									</link>
									<link>
										<linkclipref>Raw B Roll Hack Manhattan Matthew Duepner's House155</linkclipref>
										<mediatype>audio</mediatype>
										<trackindex>4</trackindex>
										<clipindex>7</clipindex>
										<groupindex>1</groupindex>
									</link>
									<itemhistory>
										<uuid>C416A895-0000-4D02-B98A-F524DD78B4BB</uuid>
									</itemhistory>
								</clipitem>
								<transitionitem>
									<rate>
										<ntsc>TRUE</ntsc>
										<timebase>24</timebase>
									</rate>
									<start>658</start>
									<end>667</end>
									<alignment>end-black</alignment>
									<effect>
										<name>Cross Fade ( 0dB)</name>
										<effectid>KGAudioTransCrossFade0dB</effectid>
										<effecttype>transition</effecttype>
										<mediatype>audio</mediatype>
										<startratio>0</startratio>
										<endratio>1</endratio>
										<reverse>FALSE</reverse>
									</effect>
								</transitionitem>
								<enabled>TRUE</enabled>
								<locked>FALSE</locked>
								<outputchannelindex>1</outputchannelindex>
							</track>
							<track>
								<transitionitem>
									<rate>
										<ntsc>TRUE</ntsc>
										<timebase>24</timebase>
									</rate>
									<start>214</start>
									<end>219</end>
									<alignment>start</alignment>
									<effect>
										<name>Cross Fade ( 0dB)</name>
										<effectid>KGAudioTransCrossFade0dB</effectid>
										<effecttype>transition</effecttype>
										<mediatype>audio</mediatype>
										<startratio>0</startratio>
										<endratio>1</endratio>
										<reverse>FALSE</reverse>
									</effect>
								</transitionitem>
								<clipitem id="Raw Scene Matthew Duepner Printing162">
									<name>Raw Scene Matthew Duepner Printing</name>
									<duration>28553</duration>
									<rate>
										<ntsc>TRUE</ntsc>
										<timebase>24</timebase>
									</rate>
									<in>3837</in>
									<out>3882</out>
									<start>-1</start>
									<end>-1</end>
									<masterclipid>Raw Scene Matthew Duepner Printing72</masterclipid>
									<logginginfo>
										<scene/>
										<shottake/>
										<lognote/>
										<good>FALSE</good>
									</logginginfo>
									<labels>
										<label2/>
									</labels>
									<comments>
										<mastercomment1/>
										<mastercomment2/>
										<mastercomment3/>
										<mastercomment4/>
									</comments>
									<file id="YIN_2013-05-28_LG-6 "/>
									<filter>
										<effect>
											<name>Audio Levels</name>
											<effectid>audiolevels</effectid>
											<effectcategory>audiolevels</effectcategory>
											<effecttype>audiolevels</effecttype>
											<mediatype>audio</mediatype>
											<parameter>
												<name>Level</name>
												<parameterid>level</parameterid>
												<valuemin>0</valuemin>
												<valuemax>3.98109</valuemax>
												<value>0.999478</value>
											</parameter>
										</effect>
									</filter>
									<filter>
										<effect>
											<name>Audio Pan</name>
											<effectid>audiopan</effectid>
											<effectcategory>audiopan</effectcategory>
											<effecttype>audiopan</effecttype>
											<mediatype>audio</mediatype>
											<parameter>
												<name>Pan</name>
												<parameterid>pan</parameterid>
												<valuemin>-1</valuemin>
												<valuemax>1</valuemax>
												<value>-0</value>
											</parameter>
										</effect>
									</filter>
									<sourcetrack>
										<mediatype>audio</mediatype>
										<trackindex>2</trackindex>
									</sourcetrack>
									<link>
										<linkclipref>Raw Scene Matthew Duepner Printing161</linkclipref>
										<mediatype>audio</mediatype>
										<trackindex>3</trackindex>
										<clipindex>2</clipindex>
										<groupindex>1</groupindex>
									</link>
									<link>
										<linkclipref>Raw Scene Matthew Duepner Printing162</linkclipref>
										<mediatype>audio</mediatype>
										<trackindex>4</trackindex>
										<clipindex>2</clipindex>
										<groupindex>1</groupindex>
									</link>
									<itemhistory>
										<uuid>6C9692F4-9FE6-4CB2-981C-202E30066174</uuid>
									</itemhistory>
								</clipitem>
								<transitionitem>
									<rate>
										<ntsc>TRUE</ntsc>
										<timebase>24</timebase>
									</rate>
									<start>249</start>
									<end>259</end>
									<alignment>center</alignment>
									<effect>
										<name>Cross Fade ( 0dB)</name>
										<effectid>KGAudioTransCrossFade0dB</effectid>
										<effecttype>transition</effecttype>
										<mediatype>audio</mediatype>
										<startratio>0</startratio>
										<endratio>1</endratio>
										<reverse>FALSE</reverse>
									</effect>
								</transitionitem>
								<clipitem id="Raw Scene Matthew Duepner Printing164">
									<name>Raw Scene Matthew Duepner Printing</name>
									<duration>28553</duration>
									<rate>
										<ntsc>TRUE</ntsc>
										<timebase>24</timebase>
									</rate>
									<in>4077</in>
									<out>4353</out>
									<start>-1</start>
									<end>525</end>
									<masterclipid>Raw Scene Matthew Duepner Printing72</masterclipid>
									<logginginfo>
										<scene/>
										<shottake/>
										<lognote/>
										<good>FALSE</good>
									</logginginfo>
									<labels>
										<label2/>
									</labels>
									<comments>
										<mastercomment1/>
										<mastercomment2/>
										<mastercomment3/>
										<mastercomment4/>
									</comments>
									<file id="YIN_2013-05-28_LG-6 "/>
									<filter>
										<effect>
											<name>Audio Levels</name>
											<effectid>audiolevels</effectid>
											<effectcategory>audiolevels</effectcategory>
											<effecttype>audiolevels</effecttype>
											<mediatype>audio</mediatype>
											<parameter>
												<name>Level</name>
												<parameterid>level</parameterid>
												<valuemin>0</valuemin>
												<valuemax>3.98109</valuemax>
												<value>1.01367</value>
											</parameter>
										</effect>
									</filter>
									<filter>
										<effect>
											<name>Audio Pan</name>
											<effectid>audiopan</effectid>
											<effectcategory>audiopan</effectcategory>
											<effecttype>audiopan</effecttype>
											<mediatype>audio</mediatype>
											<parameter>
												<name>Pan</name>
												<parameterid>pan</parameterid>
												<valuemin>-1</valuemin>
												<valuemax>1</valuemax>
												<value>-0</value>
											</parameter>
										</effect>
									</filter>
									<sourcetrack>
										<mediatype>audio</mediatype>
										<trackindex>2</trackindex>
									</sourcetrack>
									<link>
										<linkclipref>Raw Scene Matthew Duepner Printing163</linkclipref>
										<mediatype>audio</mediatype>
										<trackindex>3</trackindex>
										<clipindex>4</clipindex>
										<groupindex>1</groupindex>
									</link>
									<link>
										<linkclipref>Raw Scene Matthew Duepner Printing164</linkclipref>
										<mediatype>audio</mediatype>
										<trackindex>4</trackindex>
										<clipindex>4</clipindex>
										<groupindex>1</groupindex>
									</link>
									<itemhistory>
										<uuid>62A1AE21-9AFF-4F5A-AF0E-AD48BD7ABD3C</uuid>
									</itemhistory>
								</clipitem>
								<clipitem id="Raw Scene Matthew Duepner Printing166">
									<name>Raw Scene Matthew Duepner Printing</name>
									<duration>28553</duration>
									<rate>
										<ntsc>TRUE</ntsc>
										<timebase>24</timebase>
									</rate>
									<in>4633</in>
									<out>4710</out>
									<start>525</start>
									<end>-1</end>
									<masterclipid>Raw Scene Matthew Duepner Printing72</masterclipid>
									<logginginfo>
										<scene/>
										<shottake/>
										<lognote/>
										<good>FALSE</good>
									</logginginfo>
									<labels>
										<label2/>
									</labels>
									<comments>
										<mastercomment1/>
										<mastercomment2/>
										<mastercomment3/>
										<mastercomment4/>
									</comments>
									<file id="YIN_2013-05-28_LG-6 "/>
									<filter>
										<effect>
											<name>Audio Levels</name>
											<effectid>audiolevels</effectid>
											<effectcategory>audiolevels</effectcategory>
											<effecttype>audiolevels</effecttype>
											<mediatype>audio</mediatype>
											<parameter>
												<name>Level</name>
												<parameterid>level</parameterid>
												<valuemin>0</valuemin>
												<valuemax>3.98109</valuemax>
												<value>0.998386</value>
											</parameter>
										</effect>
									</filter>
									<filter>
										<effect>
											<name>Audio Pan</name>
											<effectid>audiopan</effectid>
											<effectcategory>audiopan</effectcategory>
											<effecttype>audiopan</effecttype>
											<mediatype>audio</mediatype>
											<parameter>
												<name>Pan</name>
												<parameterid>pan</parameterid>
												<valuemin>-1</valuemin>
												<valuemax>1</valuemax>
												<value>-0</value>
											</parameter>
										</effect>
									</filter>
									<sourcetrack>
										<mediatype>audio</mediatype>
										<trackindex>2</trackindex>
									</sourcetrack>
									<link>
										<linkclipref>Raw Scene Matthew Duepner Printing165</linkclipref>
										<mediatype>audio</mediatype>
										<trackindex>3</trackindex>
										<clipindex>5</clipindex>
										<groupindex>1</groupindex>
									</link>
									<link>
										<linkclipref>Raw Scene Matthew Duepner Printing166</linkclipref>
										<mediatype>audio</mediatype>
										<trackindex>4</trackindex>
										<clipindex>5</clipindex>
										<groupindex>1</groupindex>
									</link>
									<itemhistory>
										<uuid>D142D924-AADB-4CEC-966A-C8B3CF5DF183</uuid>
									</itemhistory>
								</clipitem>
								<transitionitem>
									<rate>
										<ntsc>TRUE</ntsc>
										<timebase>24</timebase>
									</rate>
									<start>578</start>
									<end>602</end>
									<alignment>center</alignment>
									<effect>
										<name>Cross Fade ( 0dB)</name>
										<effectid>KGAudioTransCrossFade0dB</effectid>
										<effecttype>transition</effecttype>
										<mediatype>audio</mediatype>
										<startratio>0</startratio>
										<endratio>1</endratio>
										<reverse>FALSE</reverse>
									</effect>
								</transitionitem>
								<clipitem id="Raw B Roll Hack Manhattan Matthew Duepner's House155">
									<name>Raw B Roll Hack Manhattan Matthew Duepner's House</name>
									<duration>6617</duration>
									<rate>
										<ntsc>TRUE</ntsc>
										<timebase>24</timebase>
									</rate>
									<in>3515</in>
									<out>3604</out>
									<start>-1</start>
									<end>-1</end>
									<masterclipid>Raw B Roll Hack Manhattan Matthew Duepner's House1</masterclipid>
									<logginginfo>
										<scene/>
										<shottake/>
										<lognote/>
										<good>FALSE</good>
									</logginginfo>
									<labels>
										<label2/>
									</labels>
									<comments>
										<mastercomment1/>
										<mastercomment2/>
										<mastercomment3/>
										<mastercomment4/>
									</comments>
									<file id="YIN_2013-04-28_JB-1 "/>
									<filter>
										<effect>
											<name>Audio Levels</name>
											<effectid>audiolevels</effectid>
											<effectcategory>audiolevels</effectcategory>
											<effecttype>audiolevels</effecttype>
											<mediatype>audio</mediatype>
											<parameter>
												<name>Level</name>
												<parameterid>level</parameterid>
												<valuemin>0</valuemin>
												<valuemax>3.98109</valuemax>
												<value>1.01039</value>
											</parameter>
										</effect>
									</filter>
									<filter>
										<effect>
											<name>Audio Pan</name>
											<effectid>audiopan</effectid>
											<effectcategory>audiopan</effectcategory>
											<effecttype>audiopan</effecttype>
											<mediatype>audio</mediatype>
											<parameter>
												<name>Pan</name>
												<parameterid>pan</parameterid>
												<valuemin>-1</valuemin>
												<valuemax>1</valuemax>
												<value>-0</value>
											</parameter>
										</effect>
									</filter>
									<sourcetrack>
										<mediatype>audio</mediatype>
										<trackindex>2</trackindex>
									</sourcetrack>
									<link>
										<linkclipref>Raw B Roll Hack Manhattan Matthew Duepner's House154</linkclipref>
										<mediatype>audio</mediatype>
										<trackindex>3</trackindex>
										<clipindex>7</clipindex>
										<groupindex>1</groupindex>
									</link>
									<link>
										<linkclipref>Raw B Roll Hack Manhattan Matthew Duepner's House155</linkclipref>
										<mediatype>audio</mediatype>
										<trackindex>4</trackindex>
										<clipindex>7</clipindex>
										<groupindex>1</groupindex>
									</link>
									<itemhistory>
										<uuid>41B261B6-CEFD-4DB5-87C4-678B5685DB03</uuid>
									</itemhistory>
								</clipitem>
								<transitionitem>
									<rate>
										<ntsc>TRUE</ntsc>
										<timebase>24</timebase>
									</rate>
									<start>658</start>
									<end>667</end>
									<alignment>end-black</alignment>
									<effect>
										<name>Cross Fade ( 0dB)</name>
										<effectid>KGAudioTransCrossFade0dB</effectid>
										<effecttype>transition</effecttype>
										<mediatype>audio</mediatype>
										<startratio>0</startratio>
										<endratio>1</endratio>
										<reverse>FALSE</reverse>
									</effect>
								</transitionitem>
								<enabled>TRUE</enabled>
								<locked>FALSE</locked>
								<outputchannelindex>2</outputchannelindex>
							</track>
							<track>
								<transitionitem>
									<rate>
										<ntsc>TRUE</ntsc>
										<timebase>24</timebase>
									</rate>
									<start>0</start>
									<end>24</end>
									<alignment>start</alignment>
									<effect>
										<name>Cross Fade ( 0dB)</name>
										<effectid>KGAudioTransCrossFade0dB</effectid>
										<effecttype>transition</effecttype>
										<mediatype>audio</mediatype>
										<startratio>0</startratio>
										<endratio>1</endratio>
										<reverse>FALSE</reverse>
									</effect>
								</transitionitem>
								<clipitem id="Raw B Roll Hack Manhattan Matthew Duepner's House111">
									<name>Raw B Roll Hack Manhattan Matthew Duepner's House</name>
									<duration>6617</duration>
									<rate>
										<ntsc>TRUE</ntsc>
										<timebase>24</timebase>
									</rate>
									<in>5680</in>
									<out>5788</out>
									<start>-1</start>
									<end>-1</end>
									<masterclipid>Raw B Roll Hack Manhattan Matthew Duepner's House1</masterclipid>
									<logginginfo>
										<scene/>
										<shottake/>
										<lognote/>
										<good>FALSE</good>
									</logginginfo>
									<labels>
										<label2/>
									</labels>
									<comments>
										<mastercomment1/>
										<mastercomment2/>
										<mastercomment3/>
										<mastercomment4/>
									</comments>
									<file id="YIN_2013-04-28_JB-1 "/>
									<filter>
										<effect>
											<name>Audio Levels</name>
											<effectid>audiolevels</effectid>
											<effectcategory>audiolevels</effectcategory>
											<effecttype>audiolevels</effecttype>
											<mediatype>audio</mediatype>
											<parameter>
												<name>Level</name>
												<parameterid>level</parameterid>
												<valuemin>0</valuemin>
												<valuemax>3.98109</valuemax>
												<value>1.9718</value>
											</parameter>
										</effect>
									</filter>
									<filter>
										<effect>
											<name>Audio Pan</name>
											<effectid>audiopan</effectid>
											<effectcategory>audiopan</effectcategory>
											<effecttype>audiopan</effecttype>
											<mediatype>audio</mediatype>
											<parameter>
												<name>Pan</name>
												<parameterid>pan</parameterid>
												<valuemin>-1</valuemin>
												<valuemax>1</valuemax>
												<value>0</value>
											</parameter>
										</effect>
									</filter>
									<sourcetrack>
										<mediatype>audio</mediatype>
										<trackindex>1</trackindex>
									</sourcetrack>
									<link>
										<linkclipref>Raw B Roll Hack Manhattan Matthew Duepner's House110</linkclipref>
										<mediatype>video</mediatype>
										<trackindex>2</trackindex>
										<clipindex>1</clipindex>
									</link>
									<link>
										<linkclipref>Raw B Roll Hack Manhattan Matthew Duepner's House111</linkclipref>
										<mediatype>audio</mediatype>
										<trackindex>5</trackindex>
										<clipindex>2</clipindex>
										<groupindex>1</groupindex>
									</link>
									<link>
										<linkclipref>Raw B Roll Hack Manhattan Matthew Duepner's House112</linkclipref>
										<mediatype>audio</mediatype>
										<trackindex>6</trackindex>
										<clipindex>2</clipindex>
										<groupindex>1</groupindex>
									</link>
									<itemhistory>
										<uuid>00070977-AF7D-4C8C-8A1A-55352534D276</uuid>
									</itemhistory>
								</clipitem>
								<transitionitem>
									<rate>
										<ntsc>TRUE</ntsc>
										<timebase>24</timebase>
									</rate>
									<start>84</start>
									<end>108</end>
									<alignment>center</alignment>
									<effect>
										<name>Cross Fade ( 0dB)</name>
										<effectid>KGAudioTransCrossFade0dB</effectid>
										<effecttype>transition</effecttype>
										<mediatype>audio</mediatype>
										<startratio>0</startratio>
										<endratio>1</endratio>
										<reverse>FALSE</reverse>
									</effect>
								</transitionitem>
								<clipitem id="Raw B Roll Hack Manhattan Matthew Duepner's House156">
									<name>Raw B Roll Hack Manhattan Matthew Duepner's House</name>
									<duration>6617</duration>
									<rate>
										<ntsc>TRUE</ntsc>
										<timebase>24</timebase>
									</rate>
									<in>5668</in>
									<out>5791</out>
									<start>-1</start>
									<end>-1</end>
									<masterclipid>Raw B Roll Hack Manhattan Matthew Duepner's House1</masterclipid>
									<logginginfo>
										<scene/>
										<shottake/>
										<lognote/>
										<good>FALSE</good>
									</logginginfo>
									<labels>
										<label2/>
									</labels>
									<comments>
										<mastercomment1/>
										<mastercomment2/>
										<mastercomment3/>
										<mastercomment4/>
									</comments>
									<file id="YIN_2013-04-28_JB-1 "/>
									<filter>
										<effect>
											<name>Audio Levels</name>
											<effectid>audiolevels</effectid>
											<effectcategory>audiolevels</effectcategory>
											<effecttype>audiolevels</effecttype>
											<mediatype>audio</mediatype>
											<parameter>
												<name>Level</name>
												<parameterid>level</parameterid>
												<valuemin>0</valuemin>
												<valuemax>3.98109</valuemax>
												<value>1.9718</value>
											</parameter>
										</effect>
									</filter>
									<filter>
										<effect>
											<name>Audio Pan</name>
											<effectid>audiopan</effectid>
											<effectcategory>audiopan</effectcategory>
											<effecttype>audiopan</effecttype>
											<mediatype>audio</mediatype>
											<parameter>
												<name>Pan</name>
												<parameterid>pan</parameterid>
												<valuemin>-1</valuemin>
												<valuemax>1</valuemax>
												<value>0</value>
											</parameter>
										</effect>
									</filter>
									<sourcetrack>
										<mediatype>audio</mediatype>
										<trackindex>1</trackindex>
									</sourcetrack>
									<link>
										<linkclipref>Raw B Roll Hack Manhattan Matthew Duepner's House156</linkclipref>
										<mediatype>audio</mediatype>
										<trackindex>5</trackindex>
										<clipindex>4</clipindex>
										<groupindex>1</groupindex>
									</link>
									<link>
										<linkclipref>Raw B Roll Hack Manhattan Matthew Duepner's House157</linkclipref>
										<mediatype>audio</mediatype>
										<trackindex>6</trackindex>
										<clipindex>4</clipindex>
										<groupindex>1</groupindex>
									</link>
									<itemhistory>
										<uuid>EE849960-3385-4054-AE26-4CA819CFDE2C</uuid>
									</itemhistory>
								</clipitem>
								<transitionitem>
									<rate>
										<ntsc>TRUE</ntsc>
										<timebase>24</timebase>
									</rate>
									<start>183</start>
									<end>207</end>
									<alignment>center</alignment>
									<effect>
										<name>Cross Fade ( 0dB)</name>
										<effectid>KGAudioTransCrossFade0dB</effectid>
										<effecttype>transition</effecttype>
										<mediatype>audio</mediatype>
										<startratio>0</startratio>
										<endratio>1</endratio>
										<reverse>FALSE</reverse>
									</effect>
								</transitionitem>
								<clipitem id="Raw B Roll Hack Manhattan Matthew Duepner's House115">
									<name>Raw B Roll Hack Manhattan Matthew Duepner's House</name>
									<duration>6617</duration>
									<rate>
										<ntsc>TRUE</ntsc>
										<timebase>24</timebase>
									</rate>
									<in>6518</in>
									<out>6600</out>
									<start>-1</start>
									<end>265</end>
									<masterclipid>Raw B Roll Hack Manhattan Matthew Duepner's House1</masterclipid>
									<logginginfo>
										<scene/>
										<shottake/>
										<lognote/>
										<good>FALSE</good>
									</logginginfo>
									<labels>
										<label2/>
									</labels>
									<comments>
										<mastercomment1/>
										<mastercomment2/>
										<mastercomment3/>
										<mastercomment4/>
									</comments>
									<file id="YIN_2013-04-28_JB-1 "/>
									<filter>
										<effect>
											<name>Audio Levels</name>
											<effectid>audiolevels</effectid>
											<effectcategory>audiolevels</effectcategory>
											<effecttype>audiolevels</effecttype>
											<mediatype>audio</mediatype>
											<parameter>
												<name>Level</name>
												<parameterid>level</parameterid>
												<valuemin>0</valuemin>
												<valuemax>3.98109</valuemax>
												<value>1.9718</value>
											</parameter>
										</effect>
									</filter>
									<filter>
										<effect>
											<name>Audio Pan</name>
											<effectid>audiopan</effectid>
											<effectcategory>audiopan</effectcategory>
											<effecttype>audiopan</effecttype>
											<mediatype>audio</mediatype>
											<parameter>
												<name>Pan</name>
												<parameterid>pan</parameterid>
												<valuemin>-1</valuemin>
												<valuemax>1</valuemax>
												<value>0</value>
											</parameter>
										</effect>
									</filter>
									<sourcetrack>
										<mediatype>audio</mediatype>
										<trackindex>1</trackindex>
									</sourcetrack>
									<link>
										<linkclipref>Raw B Roll Hack Manhattan Matthew Duepner's House114</linkclipref>
										<mediatype>video</mediatype>
										<trackindex>2</trackindex>
										<clipindex>3</clipindex>
									</link>
									<link>
										<linkclipref>Raw B Roll Hack Manhattan Matthew Duepner's House115</linkclipref>
										<mediatype>audio</mediatype>
										<trackindex>5</trackindex>
										<clipindex>6</clipindex>
										<groupindex>1</groupindex>
									</link>
									<link>
										<linkclipref>Raw B Roll Hack Manhattan Matthew Duepner's House116</linkclipref>
										<mediatype>audio</mediatype>
										<trackindex>6</trackindex>
										<clipindex>6</clipindex>
										<groupindex>1</groupindex>
									</link>
									<itemhistory>
										<uuid>C9695416-5765-460B-AB58-07612C06BBA6</uuid>
									</itemhistory>
								</clipitem>
								<clipitem id="Raw B Roll Hack Manhattan Matthew Duepner's House118">
									<name>Raw B Roll Hack Manhattan Matthew Duepner's House</name>
									<duration>6617</duration>
									<rate>
										<ntsc>TRUE</ntsc>
										<timebase>24</timebase>
									</rate>
									<in>6074</in>
									<out>6140</out>
									<start>265</start>
									<end>331</end>
									<masterclipid>Raw B Roll Hack Manhattan Matthew Duepner's House1</masterclipid>
									<logginginfo>
										<scene/>
										<shottake/>
										<lognote/>
										<good>FALSE</good>
									</logginginfo>
									<labels>
										<label2/>
									</labels>
									<comments>
										<mastercomment1/>
										<mastercomment2/>
										<mastercomment3/>
										<mastercomment4/>
									</comments>
									<file id="YIN_2013-04-28_JB-1 "/>
									<filter>
										<effect>
											<name>Audio Levels</name>
											<effectid>audiolevels</effectid>
											<effectcategory>audiolevels</effectcategory>
											<effecttype>audiolevels</effecttype>
											<mediatype>audio</mediatype>
											<parameter>
												<name>Level</name>
												<parameterid>level</parameterid>
												<valuemin>0</valuemin>
												<valuemax>3.98109</valuemax>
												<value>1.9718</value>
											</parameter>
										</effect>
									</filter>
									<filter>
										<effect>
											<name>Audio Pan</name>
											<effectid>audiopan</effectid>
											<effectcategory>audiopan</effectcategory>
											<effecttype>audiopan</effecttype>
											<mediatype>audio</mediatype>
											<parameter>
												<name>Pan</name>
												<parameterid>pan</parameterid>
												<valuemin>-1</valuemin>
												<valuemax>1</valuemax>
												<value>0</value>
											</parameter>
										</effect>
									</filter>
									<sourcetrack>
										<mediatype>audio</mediatype>
										<trackindex>1</trackindex>
									</sourcetrack>
									<link>
										<linkclipref>Raw B Roll Hack Manhattan Matthew Duepner's House117</linkclipref>
										<mediatype>video</mediatype>
										<trackindex>2</trackindex>
										<clipindex>4</clipindex>
									</link>
									<link>
										<linkclipref>Raw B Roll Hack Manhattan Matthew Duepner's House118</linkclipref>
										<mediatype>audio</mediatype>
										<trackindex>5</trackindex>
										<clipindex>7</clipindex>
										<groupindex>1</groupindex>
									</link>
									<link>
										<linkclipref>Raw B Roll Hack Manhattan Matthew Duepner's House119</linkclipref>
										<mediatype>audio</mediatype>
										<trackindex>6</trackindex>
										<clipindex>7</clipindex>
										<groupindex>1</groupindex>
									</link>
									<itemhistory>
										<uuid>AB42D859-9F9C-4BD9-8E42-C12902F7D049</uuid>
									</itemhistory>
								</clipitem>
								<clipitem id="Raw B Roll Hack Manhattan Matthew Duepner's House121">
									<name>Raw B Roll Hack Manhattan Matthew Duepner's House</name>
									<duration>6617</duration>
									<rate>
										<ntsc>TRUE</ntsc>
										<timebase>24</timebase>
									</rate>
									<in>5559</in>
									<out>5659</out>
									<start>331</start>
									<end>431</end>
									<masterclipid>Raw B Roll Hack Manhattan Matthew Duepner's House1</masterclipid>
									<logginginfo>
										<scene/>
										<shottake/>
										<lognote/>
										<good>FALSE</good>
									</logginginfo>
									<labels>
										<label2/>
									</labels>
									<comments>
										<mastercomment1/>
										<mastercomment2/>
										<mastercomment3/>
										<mastercomment4/>
									</comments>
									<file id="YIN_2013-04-28_JB-1 "/>
									<filter>
										<effect>
											<name>Audio Levels</name>
											<effectid>audiolevels</effectid>
											<effectcategory>audiolevels</effectcategory>
											<effecttype>audiolevels</effecttype>
											<mediatype>audio</mediatype>
											<parameter>
												<name>Level</name>
												<parameterid>level</parameterid>
												<valuemin>0</valuemin>
												<valuemax>3.98109</valuemax>
												<value>1.9718</value>
											</parameter>
										</effect>
									</filter>
									<filter>
										<effect>
											<name>Audio Pan</name>
											<effectid>audiopan</effectid>
											<effectcategory>audiopan</effectcategory>
											<effecttype>audiopan</effecttype>
											<mediatype>audio</mediatype>
											<parameter>
												<name>Pan</name>
												<parameterid>pan</parameterid>
												<valuemin>-1</valuemin>
												<valuemax>1</valuemax>
												<value>0</value>
											</parameter>
										</effect>
									</filter>
									<sourcetrack>
										<mediatype>audio</mediatype>
										<trackindex>1</trackindex>
									</sourcetrack>
									<link>
										<linkclipref>Raw B Roll Hack Manhattan Matthew Duepner's House120</linkclipref>
										<mediatype>video</mediatype>
										<trackindex>2</trackindex>
										<clipindex>5</clipindex>
									</link>
									<link>
										<linkclipref>Raw B Roll Hack Manhattan Matthew Duepner's House121</linkclipref>
										<mediatype>audio</mediatype>
										<trackindex>5</trackindex>
										<clipindex>8</clipindex>
										<groupindex>1</groupindex>
									</link>
									<link>
										<linkclipref>Raw B Roll Hack Manhattan Matthew Duepner's House122</linkclipref>
										<mediatype>audio</mediatype>
										<trackindex>6</trackindex>
										<clipindex>8</clipindex>
										<groupindex>1</groupindex>
									</link>
									<itemhistory>
										<uuid>F8E1F210-F521-4665-A546-FFE6E75F36D6</uuid>
									</itemhistory>
								</clipitem>
								<clipitem id="Raw B Roll Hack Manhattan Matthew Duepner's House124">
									<name>Raw B Roll Hack Manhattan Matthew Duepner's House</name>
									<duration>6617</duration>
									<rate>
										<ntsc>TRUE</ntsc>
										<timebase>24</timebase>
									</rate>
									<in>5878</in>
									<out>5953</out>
									<start>431</start>
									<end>506</end>
									<masterclipid>Raw B Roll Hack Manhattan Matthew Duepner's House1</masterclipid>
									<logginginfo>
										<scene/>
										<shottake/>
										<lognote/>
										<good>FALSE</good>
									</logginginfo>
									<labels>
										<label2/>
									</labels>
									<comments>
										<mastercomment1/>
										<mastercomment2/>
										<mastercomment3/>
										<mastercomment4/>
									</comments>
									<file id="YIN_2013-04-28_JB-1 "/>
									<filter>
										<effect>
											<name>Audio Levels</name>
											<effectid>audiolevels</effectid>
											<effectcategory>audiolevels</effectcategory>
											<effecttype>audiolevels</effecttype>
											<mediatype>audio</mediatype>
											<parameter>
												<name>Level</name>
												<parameterid>level</parameterid>
												<valuemin>0</valuemin>
												<valuemax>3.98109</valuemax>
												<value>1.9718</value>
											</parameter>
										</effect>
									</filter>
									<filter>
										<effect>
											<name>Audio Pan</name>
											<effectid>audiopan</effectid>
											<effectcategory>audiopan</effectcategory>
											<effecttype>audiopan</effecttype>
											<mediatype>audio</mediatype>
											<parameter>
												<name>Pan</name>
												<parameterid>pan</parameterid>
												<valuemin>-1</valuemin>
												<valuemax>1</valuemax>
												<value>0</value>
											</parameter>
										</effect>
									</filter>
									<sourcetrack>
										<mediatype>audio</mediatype>
										<trackindex>1</trackindex>
									</sourcetrack>
									<link>
										<linkclipref>Raw B Roll Hack Manhattan Matthew Duepner's House123</linkclipref>
										<mediatype>video</mediatype>
										<trackindex>2</trackindex>
										<clipindex>6</clipindex>
									</link>
									<link>
										<linkclipref>Raw B Roll Hack Manhattan Matthew Duepner's House124</linkclipref>
										<mediatype>audio</mediatype>
										<trackindex>5</trackindex>
										<clipindex>9</clipindex>
										<groupindex>1</groupindex>
									</link>
									<link>
										<linkclipref>Raw B Roll Hack Manhattan Matthew Duepner's House125</linkclipref>
										<mediatype>audio</mediatype>
										<trackindex>6</trackindex>
										<clipindex>9</clipindex>
										<groupindex>1</groupindex>
									</link>
									<itemhistory>
										<uuid>D18C976E-8116-4925-B1F5-41A444D5B9DC</uuid>
									</itemhistory>
								</clipitem>
								<clipitem id="Raw B Roll Hack Manhattan Matthew Duepner's House127">
									<name>Raw B Roll Hack Manhattan Matthew Duepner's House</name>
									<duration>6617</duration>
									<rate>
										<ntsc>TRUE</ntsc>
										<timebase>24</timebase>
									</rate>
									<in>4745</in>
									<out>4829</out>
									<start>506</start>
									<end>590</end>
									<masterclipid>Raw B Roll Hack Manhattan Matthew Duepner's House1</masterclipid>
									<logginginfo>
										<scene/>
										<shottake/>
										<lognote/>
										<good>FALSE</good>
									</logginginfo>
									<labels>
										<label2/>
									</labels>
									<comments>
										<mastercomment1/>
										<mastercomment2/>
										<mastercomment3/>
										<mastercomment4/>
									</comments>
									<file id="YIN_2013-04-28_JB-1 "/>
									<filter>
										<effect>
											<name>Audio Levels</name>
											<effectid>audiolevels</effectid>
											<effectcategory>audiolevels</effectcategory>
											<effecttype>audiolevels</effecttype>
											<mediatype>audio</mediatype>
											<parameter>
												<name>Level</name>
												<parameterid>level</parameterid>
												<valuemin>0</valuemin>
												<valuemax>3.98109</valuemax>
												<value>1.9718</value>
											</parameter>
										</effect>
									</filter>
									<filter>
										<effect>
											<name>Audio Pan</name>
											<effectid>audiopan</effectid>
											<effectcategory>audiopan</effectcategory>
											<effecttype>audiopan</effecttype>
											<mediatype>audio</mediatype>
											<parameter>
												<name>Pan</name>
												<parameterid>pan</parameterid>
												<valuemin>-1</valuemin>
												<valuemax>1</valuemax>
												<value>0</value>
											</parameter>
										</effect>
									</filter>
									<sourcetrack>
										<mediatype>audio</mediatype>
										<trackindex>1</trackindex>
									</sourcetrack>
									<link>
										<linkclipref>Raw B Roll Hack Manhattan Matthew Duepner's House126</linkclipref>
										<mediatype>video</mediatype>
										<trackindex>2</trackindex>
										<clipindex>7</clipindex>
									</link>
									<link>
										<linkclipref>Raw B Roll Hack Manhattan Matthew Duepner's House127</linkclipref>
										<mediatype>audio</mediatype>
										<trackindex>5</trackindex>
										<clipindex>10</clipindex>
										<groupindex>1</groupindex>
									</link>
									<link>
										<linkclipref>Raw B Roll Hack Manhattan Matthew Duepner's House128</linkclipref>
										<mediatype>audio</mediatype>
										<trackindex>6</trackindex>
										<clipindex>10</clipindex>
										<groupindex>1</groupindex>
									</link>
									<itemhistory>
										<uuid>EC2195CC-5FDA-422E-AABB-F1578C6FB20F</uuid>
									</itemhistory>
								</clipitem>
								<clipitem id="Raw B Roll Hack Manhattan Matthew Duepner's House131">
									<name>Raw B Roll Hack Manhattan Matthew Duepner's House</name>
									<duration>6617</duration>
									<rate>
										<ntsc>TRUE</ntsc>
										<timebase>24</timebase>
									</rate>
									<in>2432</in>
									<out>2555</out>
									<start>667</start>
									<end>790</end>
									<masterclipid>Raw B Roll Hack Manhattan Matthew Duepner's House1</masterclipid>
									<logginginfo>
										<scene/>
										<shottake/>
										<lognote/>
										<good>FALSE</good>
									</logginginfo>
									<labels>
										<label2/>
									</labels>
									<comments>
										<mastercomment1/>
										<mastercomment2/>
										<mastercomment3/>
										<mastercomment4/>
									</comments>
									<file id="YIN_2013-04-28_JB-1 "/>
									<filter>
										<effect>
											<name>Audio Levels</name>
											<effectid>audiolevels</effectid>
											<effectcategory>audiolevels</effectcategory>
											<effecttype>audiolevels</effecttype>
											<mediatype>audio</mediatype>
											<parameter>
												<name>Level</name>
												<parameterid>level</parameterid>
												<valuemin>0</valuemin>
												<valuemax>3.98109</valuemax>
												<value>1.9718</value>
											</parameter>
										</effect>
									</filter>
									<filter>
										<effect>
											<name>Audio Pan</name>
											<effectid>audiopan</effectid>
											<effectcategory>audiopan</effectcategory>
											<effecttype>audiopan</effecttype>
											<mediatype>audio</mediatype>
											<parameter>
												<name>Pan</name>
												<parameterid>pan</parameterid>
												<valuemin>-1</valuemin>
												<valuemax>1</valuemax>
												<value>0</value>
											</parameter>
										</effect>
									</filter>
									<sourcetrack>
										<mediatype>audio</mediatype>
										<trackindex>1</trackindex>
									</sourcetrack>
									<link>
										<linkclipref>Raw B Roll Hack Manhattan Matthew Duepner's House130</linkclipref>
										<mediatype>video</mediatype>
										<trackindex>2</trackindex>
										<clipindex>9</clipindex>
									</link>
									<link>
										<linkclipref>Raw B Roll Hack Manhattan Matthew Duepner's House131</linkclipref>
										<mediatype>audio</mediatype>
										<trackindex>5</trackindex>
										<clipindex>11</clipindex>
										<groupindex>1</groupindex>
									</link>
									<link>
										<linkclipref>Raw B Roll Hack Manhattan Matthew Duepner's House132</linkclipref>
										<mediatype>audio</mediatype>
										<trackindex>6</trackindex>
										<clipindex>11</clipindex>
										<groupindex>1</groupindex>
									</link>
									<itemhistory>
										<uuid>51FD48AE-0014-4880-AF9E-A782A91DA6B6</uuid>
									</itemhistory>
								</clipitem>
								<clipitem id="Raw B Roll Hack Manhattan Matthew Duepner's House134">
									<name>Raw B Roll Hack Manhattan Matthew Duepner's House</name>
									<duration>6617</duration>
									<rate>
										<ntsc>TRUE</ntsc>
										<timebase>24</timebase>
									</rate>
									<in>2733</in>
									<out>2884</out>
									<start>790</start>
									<end>941</end>
									<masterclipid>Raw B Roll Hack Manhattan Matthew Duepner's House1</masterclipid>
									<logginginfo>
										<scene/>
										<shottake/>
										<lognote/>
										<good>FALSE</good>
									</logginginfo>
									<labels>
										<label2/>
									</labels>
									<comments>
										<mastercomment1/>
										<mastercomment2/>
										<mastercomment3/>
										<mastercomment4/>
									</comments>
									<file id="YIN_2013-04-28_JB-1 "/>
									<filter>
										<effect>
											<name>Audio Levels</name>
											<effectid>audiolevels</effectid>
											<effectcategory>audiolevels</effectcategory>
											<effecttype>audiolevels</effecttype>
											<mediatype>audio</mediatype>
											<parameter>
												<name>Level</name>
												<parameterid>level</parameterid>
												<valuemin>0</valuemin>
												<valuemax>3.98109</valuemax>
												<value>1.9718</value>
											</parameter>
										</effect>
									</filter>
									<filter>
										<effect>
											<name>Audio Pan</name>
											<effectid>audiopan</effectid>
											<effectcategory>audiopan</effectcategory>
											<effecttype>audiopan</effecttype>
											<mediatype>audio</mediatype>
											<parameter>
												<name>Pan</name>
												<parameterid>pan</parameterid>
												<valuemin>-1</valuemin>
												<valuemax>1</valuemax>
												<value>0</value>
											</parameter>
										</effect>
									</filter>
									<sourcetrack>
										<mediatype>audio</mediatype>
										<trackindex>1</trackindex>
									</sourcetrack>
									<link>
										<linkclipref>Raw B Roll Hack Manhattan Matthew Duepner's House133</linkclipref>
										<mediatype>video</mediatype>
										<trackindex>2</trackindex>
										<clipindex>10</clipindex>
									</link>
									<link>
										<linkclipref>Raw B Roll Hack Manhattan Matthew Duepner's House134</linkclipref>
										<mediatype>audio</mediatype>
										<trackindex>5</trackindex>
										<clipindex>12</clipindex>
										<groupindex>1</groupindex>
									</link>
									<link>
										<linkclipref>Raw B Roll Hack Manhattan Matthew Duepner's House135</linkclipref>
										<mediatype>audio</mediatype>
										<trackindex>6</trackindex>
										<clipindex>12</clipindex>
										<groupindex>1</groupindex>
									</link>
									<itemhistory>
										<uuid>25759F80-5DBC-4B51-9CD7-CA4F625E31F5</uuid>
									</itemhistory>
								</clipitem>
								<clipitem id="Raw B Roll Hack Manhattan Matthew Duepner's House137">
									<name>Raw B Roll Hack Manhattan Matthew Duepner's House</name>
									<duration>6617</duration>
									<rate>
										<ntsc>TRUE</ntsc>
										<timebase>24</timebase>
									</rate>
									<in>5318</in>
									<out>5486</out>
									<start>941</start>
									<end>1109</end>
									<masterclipid>Raw B Roll Hack Manhattan Matthew Duepner's House1</masterclipid>
									<logginginfo>
										<scene/>
										<shottake/>
										<lognote/>
										<good>FALSE</good>
									</logginginfo>
									<labels>
										<label2/>
									</labels>
									<comments>
										<mastercomment1/>
										<mastercomment2/>
										<mastercomment3/>
										<mastercomment4/>
									</comments>
									<file id="YIN_2013-04-28_JB-1 "/>
									<filter>
										<effect>
											<name>Audio Levels</name>
											<effectid>audiolevels</effectid>
											<effectcategory>audiolevels</effectcategory>
											<effecttype>audiolevels</effecttype>
											<mediatype>audio</mediatype>
											<parameter>
												<name>Level</name>
												<parameterid>level</parameterid>
												<valuemin>0</valuemin>
												<valuemax>3.98109</valuemax>
												<value>1.9718</value>
											</parameter>
										</effect>
									</filter>
									<filter>
										<effect>
											<name>Audio Pan</name>
											<effectid>audiopan</effectid>
											<effectcategory>audiopan</effectcategory>
											<effecttype>audiopan</effecttype>
											<mediatype>audio</mediatype>
											<parameter>
												<name>Pan</name>
												<parameterid>pan</parameterid>
												<valuemin>-1</valuemin>
												<valuemax>1</valuemax>
												<value>0</value>
											</parameter>
										</effect>
									</filter>
									<sourcetrack>
										<mediatype>audio</mediatype>
										<trackindex>1</trackindex>
									</sourcetrack>
									<link>
										<linkclipref>Raw B Roll Hack Manhattan Matthew Duepner's House136</linkclipref>
										<mediatype>video</mediatype>
										<trackindex>2</trackindex>
										<clipindex>11</clipindex>
									</link>
									<link>
										<linkclipref>Raw B Roll Hack Manhattan Matthew Duepner's House137</linkclipref>
										<mediatype>audio</mediatype>
										<trackindex>5</trackindex>
										<clipindex>13</clipindex>
										<groupindex>1</groupindex>
									</link>
									<link>
										<linkclipref>Raw B Roll Hack Manhattan Matthew Duepner's House138</linkclipref>
										<mediatype>audio</mediatype>
										<trackindex>6</trackindex>
										<clipindex>13</clipindex>
										<groupindex>1</groupindex>
									</link>
									<itemhistory>
										<uuid>4B7FBBC5-990C-4700-B31E-E82B46D6DE39</uuid>
									</itemhistory>
								</clipitem>
								<clipitem id="Raw B Roll Hack Manhattan Matthew Duepner's House140">
									<name>Raw B Roll Hack Manhattan Matthew Duepner's House</name>
									<duration>6617</duration>
									<rate>
										<ntsc>TRUE</ntsc>
										<timebase>24</timebase>
									</rate>
									<in>2948</in>
									<out>3117</out>
									<start>1109</start>
									<end>1278</end>
									<masterclipid>Raw B Roll Hack Manhattan Matthew Duepner's House1</masterclipid>
									<logginginfo>
										<scene/>
										<shottake/>
										<lognote/>
										<good>FALSE</good>
									</logginginfo>
									<labels>
										<label2/>
									</labels>
									<comments>
										<mastercomment1/>
										<mastercomment2/>
										<mastercomment3/>
										<mastercomment4/>
									</comments>
									<file id="YIN_2013-04-28_JB-1 "/>
									<filter>
										<effect>
											<name>Audio Levels</name>
											<effectid>audiolevels</effectid>
											<effectcategory>audiolevels</effectcategory>
											<effecttype>audiolevels</effecttype>
											<mediatype>audio</mediatype>
											<parameter>
												<name>Level</name>
												<parameterid>level</parameterid>
												<valuemin>0</valuemin>
												<valuemax>3.98109</valuemax>
												<value>1.9718</value>
											</parameter>
										</effect>
									</filter>
									<filter>
										<effect>
											<name>Audio Pan</name>
											<effectid>audiopan</effectid>
											<effectcategory>audiopan</effectcategory>
											<effecttype>audiopan</effecttype>
											<mediatype>audio</mediatype>
											<parameter>
												<name>Pan</name>
												<parameterid>pan</parameterid>
												<valuemin>-1</valuemin>
												<valuemax>1</valuemax>
												<value>0</value>
											</parameter>
										</effect>
									</filter>
									<sourcetrack>
										<mediatype>audio</mediatype>
										<trackindex>1</trackindex>
									</sourcetrack>
									<link>
										<linkclipref>Raw B Roll Hack Manhattan Matthew Duepner's House139</linkclipref>
										<mediatype>video</mediatype>
										<trackindex>2</trackindex>
										<clipindex>12</clipindex>
									</link>
									<link>
										<linkclipref>Raw B Roll Hack Manhattan Matthew Duepner's House140</linkclipref>
										<mediatype>audio</mediatype>
										<trackindex>5</trackindex>
										<clipindex>14</clipindex>
										<groupindex>1</groupindex>
									</link>
									<link>
										<linkclipref>Raw B Roll Hack Manhattan Matthew Duepner's House141</linkclipref>
										<mediatype>audio</mediatype>
										<trackindex>6</trackindex>
										<clipindex>14</clipindex>
										<groupindex>1</groupindex>
									</link>
									<itemhistory>
										<uuid>6D7BB455-7974-4519-9452-45683F6487E7</uuid>
									</itemhistory>
								</clipitem>
								<clipitem id="Raw B Roll Hack Manhattan Matthew Duepner's House143">
									<name>Raw B Roll Hack Manhattan Matthew Duepner's House</name>
									<duration>6617</duration>
									<rate>
										<ntsc>TRUE</ntsc>
										<timebase>24</timebase>
									</rate>
									<in>4099</in>
									<out>4179</out>
									<start>1369</start>
									<end>1449</end>
									<masterclipid>Raw B Roll Hack Manhattan Matthew Duepner's House1</masterclipid>
									<logginginfo>
										<scene/>
										<shottake/>
										<lognote/>
										<good>FALSE</good>
									</logginginfo>
									<labels>
										<label2/>
									</labels>
									<comments>
										<mastercomment1/>
										<mastercomment2/>
										<mastercomment3/>
										<mastercomment4/>
									</comments>
									<file id="YIN_2013-04-28_JB-1 "/>
									<filter>
										<effect>
											<name>Audio Levels</name>
											<effectid>audiolevels</effectid>
											<effectcategory>audiolevels</effectcategory>
											<effecttype>audiolevels</effecttype>
											<mediatype>audio</mediatype>
											<parameter>
												<name>Level</name>
												<parameterid>level</parameterid>
												<valuemin>0</valuemin>
												<valuemax>3.98109</valuemax>
												<value>1.9718</value>
											</parameter>
										</effect>
									</filter>
									<filter>
										<effect>
											<name>Audio Pan</name>
											<effectid>audiopan</effectid>
											<effectcategory>audiopan</effectcategory>
											<effecttype>audiopan</effecttype>
											<mediatype>audio</mediatype>
											<parameter>
												<name>Pan</name>
												<parameterid>pan</parameterid>
												<valuemin>-1</valuemin>
												<valuemax>1</valuemax>
												<value>0</value>
											</parameter>
										</effect>
									</filter>
									<sourcetrack>
										<mediatype>audio</mediatype>
										<trackindex>1</trackindex>
									</sourcetrack>
									<link>
										<linkclipref>Raw B Roll Hack Manhattan Matthew Duepner's House142</linkclipref>
										<mediatype>video</mediatype>
										<trackindex>2</trackindex>
										<clipindex>13</clipindex>
									</link>
									<link>
										<linkclipref>Raw B Roll Hack Manhattan Matthew Duepner's House143</linkclipref>
										<mediatype>audio</mediatype>
										<trackindex>5</trackindex>
										<clipindex>15</clipindex>
										<groupindex>1</groupindex>
									</link>
									<link>
										<linkclipref>Raw B Roll Hack Manhattan Matthew Duepner's House144</linkclipref>
										<mediatype>audio</mediatype>
										<trackindex>6</trackindex>
										<clipindex>15</clipindex>
										<groupindex>1</groupindex>
									</link>
									<itemhistory>
										<uuid>AF65B223-1CC4-452B-A0DE-551F4DC3EA66</uuid>
									</itemhistory>
								</clipitem>
								<clipitem id="Raw B Roll Hack Manhattan Matthew Duepner's House146">
									<name>Raw B Roll Hack Manhattan Matthew Duepner's House</name>
									<duration>6617</duration>
									<rate>
										<ntsc>TRUE</ntsc>
										<timebase>24</timebase>
									</rate>
									<in>4585</in>
									<out>4685</out>
									<start>1449</start>
									<end>1549</end>
									<masterclipid>Raw B Roll Hack Manhattan Matthew Duepner's House1</masterclipid>
									<logginginfo>
										<scene/>
										<shottake/>
										<lognote/>
										<good>FALSE</good>
									</logginginfo>
									<labels>
										<label2/>
									</labels>
									<comments>
										<mastercomment1/>
										<mastercomment2/>
										<mastercomment3/>
										<mastercomment4/>
									</comments>
									<file id="YIN_2013-04-28_JB-1 "/>
									<filter>
										<effect>
											<name>Audio Levels</name>
											<effectid>audiolevels</effectid>
											<effectcategory>audiolevels</effectcategory>
											<effecttype>audiolevels</effecttype>
											<mediatype>audio</mediatype>
											<parameter>
												<name>Level</name>
												<parameterid>level</parameterid>
												<valuemin>0</valuemin>
												<valuemax>3.98109</valuemax>
												<value>1.9718</value>
											</parameter>
										</effect>
									</filter>
									<filter>
										<effect>
											<name>Audio Pan</name>
											<effectid>audiopan</effectid>
											<effectcategory>audiopan</effectcategory>
											<effecttype>audiopan</effecttype>
											<mediatype>audio</mediatype>
											<parameter>
												<name>Pan</name>
												<parameterid>pan</parameterid>
												<valuemin>-1</valuemin>
												<valuemax>1</valuemax>
												<value>0</value>
											</parameter>
										</effect>
									</filter>
									<sourcetrack>
										<mediatype>audio</mediatype>
										<trackindex>1</trackindex>
									</sourcetrack>
									<link>
										<linkclipref>Raw B Roll Hack Manhattan Matthew Duepner's House145</linkclipref>
										<mediatype>video</mediatype>
										<trackindex>2</trackindex>
										<clipindex>14</clipindex>
									</link>
									<link>
										<linkclipref>Raw B Roll Hack Manhattan Matthew Duepner's House146</linkclipref>
										<mediatype>audio</mediatype>
										<trackindex>5</trackindex>
										<clipindex>16</clipindex>
										<groupindex>1</groupindex>
									</link>
									<link>
										<linkclipref>Raw B Roll Hack Manhattan Matthew Duepner's House147</linkclipref>
										<mediatype>audio</mediatype>
										<trackindex>6</trackindex>
										<clipindex>16</clipindex>
										<groupindex>1</groupindex>
									</link>
									<itemhistory>
										<uuid>8CE85BE6-B5E9-4B42-BD02-28576AAB4F92</uuid>
									</itemhistory>
								</clipitem>
								<clipitem id="Raw Scene Matthew Duepner Printing128">
									<name>Raw Scene Matthew Duepner Printing</name>
									<duration>28553</duration>
									<rate>
										<ntsc>TRUE</ntsc>
										<timebase>24</timebase>
									</rate>
									<in>25118</in>
									<out>25193</out>
									<start>1549</start>
									<end>1624</end>
									<masterclipid>Raw Scene Matthew Duepner Printing72</masterclipid>
									<logginginfo>
										<scene/>
										<shottake/>
										<lognote/>
										<good>FALSE</good>
									</logginginfo>
									<labels>
										<label2/>
									</labels>
									<comments>
										<mastercomment1/>
										<mastercomment2/>
										<mastercomment3/>
										<mastercomment4/>
									</comments>
									<file id="YIN_2013-05-28_LG-6 "/>
									<filter>
										<effect>
											<name>Audio Levels</name>
											<effectid>audiolevels</effectid>
											<effectcategory>audiolevels</effectcategory>
											<effecttype>audiolevels</effecttype>
											<mediatype>audio</mediatype>
											<parameter>
												<name>Level</name>
												<parameterid>level</parameterid>
												<valuemin>0</valuemin>
												<valuemax>3.98109</valuemax>
												<value>1.9718</value>
											</parameter>
										</effect>
									</filter>
									<filter>
										<effect>
											<name>Audio Pan</name>
											<effectid>audiopan</effectid>
											<effectcategory>audiopan</effectcategory>
											<effecttype>audiopan</effecttype>
											<mediatype>audio</mediatype>
											<parameter>
												<name>Pan</name>
												<parameterid>pan</parameterid>
												<valuemin>-1</valuemin>
												<valuemax>1</valuemax>
												<value>0</value>
											</parameter>
										</effect>
									</filter>
									<sourcetrack>
										<mediatype>audio</mediatype>
										<trackindex>1</trackindex>
									</sourcetrack>
									<link>
										<linkclipref>Raw Scene Matthew Duepner Printing127</linkclipref>
										<mediatype>video</mediatype>
										<trackindex>2</trackindex>
										<clipindex>15</clipindex>
									</link>
									<link>
										<linkclipref>Raw Scene Matthew Duepner Printing128</linkclipref>
										<mediatype>audio</mediatype>
										<trackindex>5</trackindex>
										<clipindex>17</clipindex>
										<groupindex>1</groupindex>
									</link>
									<link>
										<linkclipref>Raw Scene Matthew Duepner Printing129</linkclipref>
										<mediatype>audio</mediatype>
										<trackindex>6</trackindex>
										<clipindex>17</clipindex>
										<groupindex>1</groupindex>
									</link>
									<itemhistory>
										<uuid>35DF5E09-B06B-4786-B199-0DBBBABD4B59</uuid>
									</itemhistory>
								</clipitem>
								<clipitem id="Raw B Roll Hack Manhattan Matthew Duepner's House149">
									<name>Raw B Roll Hack Manhattan Matthew Duepner's House</name>
									<duration>6617</duration>
									<rate>
										<ntsc>TRUE</ntsc>
										<timebase>24</timebase>
									</rate>
									<in>3931</in>
									<out>4052</out>
									<start>1624</start>
									<end>1745</end>
									<masterclipid>Raw B Roll Hack Manhattan Matthew Duepner's House1</masterclipid>
									<logginginfo>
										<scene/>
										<shottake/>
										<lognote/>
										<good>FALSE</good>
									</logginginfo>
									<labels>
										<label2/>
									</labels>
									<comments>
										<mastercomment1/>
										<mastercomment2/>
										<mastercomment3/>
										<mastercomment4/>
									</comments>
									<file id="YIN_2013-04-28_JB-1 "/>
									<filter>
										<effect>
											<name>Audio Levels</name>
											<effectid>audiolevels</effectid>
											<effectcategory>audiolevels</effectcategory>
											<effecttype>audiolevels</effecttype>
											<mediatype>audio</mediatype>
											<parameter>
												<name>Level</name>
												<parameterid>level</parameterid>
												<valuemin>0</valuemin>
												<valuemax>3.98109</valuemax>
												<value>1.9718</value>
											</parameter>
										</effect>
									</filter>
									<filter>
										<effect>
											<name>Audio Pan</name>
											<effectid>audiopan</effectid>
											<effectcategory>audiopan</effectcategory>
											<effecttype>audiopan</effecttype>
											<mediatype>audio</mediatype>
											<parameter>
												<name>Pan</name>
												<parameterid>pan</parameterid>
												<valuemin>-1</valuemin>
												<valuemax>1</valuemax>
												<value>0</value>
											</parameter>
										</effect>
									</filter>
									<sourcetrack>
										<mediatype>audio</mediatype>
										<trackindex>1</trackindex>
									</sourcetrack>
									<link>
										<linkclipref>Raw B Roll Hack Manhattan Matthew Duepner's House148</linkclipref>
										<mediatype>video</mediatype>
										<trackindex>2</trackindex>
										<clipindex>16</clipindex>
									</link>
									<link>
										<linkclipref>Raw B Roll Hack Manhattan Matthew Duepner's House149</linkclipref>
										<mediatype>audio</mediatype>
										<trackindex>5</trackindex>
										<clipindex>18</clipindex>
										<groupindex>1</groupindex>
									</link>
									<link>
										<linkclipref>Raw B Roll Hack Manhattan Matthew Duepner's House150</linkclipref>
										<mediatype>audio</mediatype>
										<trackindex>6</trackindex>
										<clipindex>18</clipindex>
										<groupindex>1</groupindex>
									</link>
									<itemhistory>
										<uuid>9618A07A-3DCA-4EFA-8875-DD7356208D8B</uuid>
									</itemhistory>
								</clipitem>
								<clipitem id="Raw B Roll Hack Manhattan Matthew Duepner's House152">
									<name>Raw B Roll Hack Manhattan Matthew Duepner's House</name>
									<duration>6617</duration>
									<rate>
										<ntsc>TRUE</ntsc>
										<timebase>24</timebase>
									</rate>
									<in>5073</in>
									<out>5227</out>
									<start>1745</start>
									<end>1899</end>
									<masterclipid>Raw B Roll Hack Manhattan Matthew Duepner's House1</masterclipid>
									<logginginfo>
										<scene/>
										<shottake/>
										<lognote/>
										<good>FALSE</good>
									</logginginfo>
									<labels>
										<label2/>
									</labels>
									<comments>
										<mastercomment1/>
										<mastercomment2/>
										<mastercomment3/>
										<mastercomment4/>
									</comments>
									<file id="YIN_2013-04-28_JB-1 "/>
									<filter>
										<effect>
											<name>Audio Levels</name>
											<effectid>audiolevels</effectid>
											<effectcategory>audiolevels</effectcategory>
											<effecttype>audiolevels</effecttype>
											<mediatype>audio</mediatype>
											<parameter>
												<name>Level</name>
												<parameterid>level</parameterid>
												<valuemin>0</valuemin>
												<valuemax>3.98109</valuemax>
												<value>1.9718</value>
											</parameter>
										</effect>
									</filter>
									<filter>
										<effect>
											<name>Audio Pan</name>
											<effectid>audiopan</effectid>
											<effectcategory>audiopan</effectcategory>
											<effecttype>audiopan</effecttype>
											<mediatype>audio</mediatype>
											<parameter>
												<name>Pan</name>
												<parameterid>pan</parameterid>
												<valuemin>-1</valuemin>
												<valuemax>1</valuemax>
												<value>0</value>
											</parameter>
										</effect>
									</filter>
									<sourcetrack>
										<mediatype>audio</mediatype>
										<trackindex>1</trackindex>
									</sourcetrack>
									<link>
										<linkclipref>Raw B Roll Hack Manhattan Matthew Duepner's House151</linkclipref>
										<mediatype>video</mediatype>
										<trackindex>2</trackindex>
										<clipindex>17</clipindex>
									</link>
									<link>
										<linkclipref>Raw B Roll Hack Manhattan Matthew Duepner's House152</linkclipref>
										<mediatype>audio</mediatype>
										<trackindex>5</trackindex>
										<clipindex>19</clipindex>
										<groupindex>1</groupindex>
									</link>
									<link>
										<linkclipref>Raw B Roll Hack Manhattan Matthew Duepner's House153</linkclipref>
										<mediatype>audio</mediatype>
										<trackindex>6</trackindex>
										<clipindex>19</clipindex>
										<groupindex>1</groupindex>
									</link>
									<itemhistory>
										<uuid>0E0F53FE-D2A3-41E7-9FDC-50E16AAE5F0B</uuid>
									</itemhistory>
								</clipitem>
								<clipitem id="Raw Scene Matthew Duepner Printing131">
									<name>Raw Scene Matthew Duepner Printing</name>
									<duration>28553</duration>
									<rate>
										<ntsc>TRUE</ntsc>
										<timebase>24</timebase>
									</rate>
									<in>13248</in>
									<out>13390</out>
									<start>1899</start>
									<end>2041</end>
									<masterclipid>Raw Scene Matthew Duepner Printing72</masterclipid>
									<logginginfo>
										<scene/>
										<shottake/>
										<lognote/>
										<good>FALSE</good>
									</logginginfo>
									<labels>
										<label2/>
									</labels>
									<comments>
										<mastercomment1/>
										<mastercomment2/>
										<mastercomment3/>
										<mastercomment4/>
									</comments>
									<file id="YIN_2013-05-28_LG-6 "/>
									<filter>
										<effect>
											<name>Audio Levels</name>
											<effectid>audiolevels</effectid>
											<effectcategory>audiolevels</effectcategory>
											<effecttype>audiolevels</effecttype>
											<mediatype>audio</mediatype>
											<parameter>
												<name>Level</name>
												<parameterid>level</parameterid>
												<valuemin>0</valuemin>
												<valuemax>3.98109</valuemax>
												<value>1.9718</value>
											</parameter>
										</effect>
									</filter>
									<filter>
										<effect>
											<name>Audio Pan</name>
											<effectid>audiopan</effectid>
											<effectcategory>audiopan</effectcategory>
											<effecttype>audiopan</effecttype>
											<mediatype>audio</mediatype>
											<parameter>
												<name>Pan</name>
												<parameterid>pan</parameterid>
												<valuemin>-1</valuemin>
												<valuemax>1</valuemax>
												<value>0</value>
											</parameter>
										</effect>
									</filter>
									<sourcetrack>
										<mediatype>audio</mediatype>
										<trackindex>1</trackindex>
									</sourcetrack>
									<link>
										<linkclipref>Raw Scene Matthew Duepner Printing130</linkclipref>
										<mediatype>video</mediatype>
										<trackindex>2</trackindex>
										<clipindex>18</clipindex>
									</link>
									<link>
										<linkclipref>Raw Scene Matthew Duepner Printing131</linkclipref>
										<mediatype>audio</mediatype>
										<trackindex>5</trackindex>
										<clipindex>20</clipindex>
										<groupindex>1</groupindex>
									</link>
									<link>
										<linkclipref>Raw Scene Matthew Duepner Printing132</linkclipref>
										<mediatype>audio</mediatype>
										<trackindex>6</trackindex>
										<clipindex>20</clipindex>
										<groupindex>1</groupindex>
									</link>
									<itemhistory>
										<uuid>B2FEEB68-56AF-4D3E-8A49-3D91CEB8915D</uuid>
									</itemhistory>
								</clipitem>
								<clipitem id="Raw Scene Matthew Duepner Printing134">
									<name>Raw Scene Matthew Duepner Printing</name>
									<duration>28553</duration>
									<rate>
										<ntsc>TRUE</ntsc>
										<timebase>24</timebase>
									</rate>
									<in>13645</in>
									<out>13837</out>
									<start>2041</start>
									<end>2233</end>
									<masterclipid>Raw Scene Matthew Duepner Printing72</masterclipid>
									<logginginfo>
										<scene/>
										<shottake/>
										<lognote/>
										<good>FALSE</good>
									</logginginfo>
									<labels>
										<label2/>
									</labels>
									<comments>
										<mastercomment1/>
										<mastercomment2/>
										<mastercomment3/>
										<mastercomment4/>
									</comments>
									<file id="YIN_2013-05-28_LG-6 "/>
									<filter>
										<effect>
											<name>Audio Levels</name>
											<effectid>audiolevels</effectid>
											<effectcategory>audiolevels</effectcategory>
											<effecttype>audiolevels</effecttype>
											<mediatype>audio</mediatype>
											<parameter>
												<name>Level</name>
												<parameterid>level</parameterid>
												<valuemin>0</valuemin>
												<valuemax>3.98109</valuemax>
												<value>1.9718</value>
											</parameter>
										</effect>
									</filter>
									<filter>
										<effect>
											<name>Audio Pan</name>
											<effectid>audiopan</effectid>
											<effectcategory>audiopan</effectcategory>
											<effecttype>audiopan</effecttype>
											<mediatype>audio</mediatype>
											<parameter>
												<name>Pan</name>
												<parameterid>pan</parameterid>
												<valuemin>-1</valuemin>
												<valuemax>1</valuemax>
												<value>0</value>
											</parameter>
										</effect>
									</filter>
									<sourcetrack>
										<mediatype>audio</mediatype>
										<trackindex>1</trackindex>
									</sourcetrack>
									<link>
										<linkclipref>Raw Scene Matthew Duepner Printing133</linkclipref>
										<mediatype>video</mediatype>
										<trackindex>2</trackindex>
										<clipindex>19</clipindex>
									</link>
									<link>
										<linkclipref>Raw Scene Matthew Duepner Printing134</linkclipref>
										<mediatype>audio</mediatype>
										<trackindex>5</trackindex>
										<clipindex>21</clipindex>
										<groupindex>1</groupindex>
									</link>
									<link>
										<linkclipref>Raw Scene Matthew Duepner Printing135</linkclipref>
										<mediatype>audio</mediatype>
										<trackindex>6</trackindex>
										<clipindex>21</clipindex>
										<groupindex>1</groupindex>
									</link>
									<itemhistory>
										<uuid>329D7878-98C6-4432-B935-4AD97FAD0C3C</uuid>
									</itemhistory>
								</clipitem>
								<clipitem id="Raw Scene Matthew Duepner Printing139">
									<name>Raw Scene Matthew Duepner Printing</name>
									<duration>28553</duration>
									<rate>
										<ntsc>TRUE</ntsc>
										<timebase>24</timebase>
									</rate>
									<in>17064</in>
									<out>17388</out>
									<start>2471</start>
									<end>2795</end>
									<masterclipid>Raw Scene Matthew Duepner Printing72</masterclipid>
									<logginginfo>
										<scene/>
										<shottake/>
										<lognote/>
										<good>FALSE</good>
									</logginginfo>
									<labels>
										<label2/>
									</labels>
									<comments>
										<mastercomment1/>
										<mastercomment2/>
										<mastercomment3/>
										<mastercomment4/>
									</comments>
									<file id="YIN_2013-05-28_LG-6 "/>
									<filter>
										<effect>
											<name>Audio Levels</name>
											<effectid>audiolevels</effectid>
											<effectcategory>audiolevels</effectcategory>
											<effecttype>audiolevels</effecttype>
											<mediatype>audio</mediatype>
											<parameter>
												<name>Level</name>
												<parameterid>level</parameterid>
												<valuemin>0</valuemin>
												<valuemax>3.98109</valuemax>
												<value>1.9718</value>
											</parameter>
										</effect>
									</filter>
									<filter>
										<effect>
											<name>Audio Pan</name>
											<effectid>audiopan</effectid>
											<effectcategory>audiopan</effectcategory>
											<effecttype>audiopan</effecttype>
											<mediatype>audio</mediatype>
											<parameter>
												<name>Pan</name>
												<parameterid>pan</parameterid>
												<valuemin>-1</valuemin>
												<valuemax>1</valuemax>
												<value>0</value>
											</parameter>
										</effect>
									</filter>
									<sourcetrack>
										<mediatype>audio</mediatype>
										<trackindex>1</trackindex>
									</sourcetrack>
									<link>
										<linkclipref>Raw Scene Matthew Duepner Printing138</linkclipref>
										<mediatype>video</mediatype>
										<trackindex>2</trackindex>
										<clipindex>22</clipindex>
									</link>
									<link>
										<linkclipref>Raw Scene Matthew Duepner Printing139</linkclipref>
										<mediatype>audio</mediatype>
										<trackindex>5</trackindex>
										<clipindex>22</clipindex>
										<groupindex>1</groupindex>
									</link>
									<link>
										<linkclipref>Raw Scene Matthew Duepner Printing140</linkclipref>
										<mediatype>audio</mediatype>
										<trackindex>6</trackindex>
										<clipindex>22</clipindex>
										<groupindex>1</groupindex>
									</link>
									<itemhistory>
										<uuid>6EEDE599-39D0-4163-8C10-85372FC55002</uuid>
									</itemhistory>
								</clipitem>
								<transitionitem>
									<rate>
										<ntsc>TRUE</ntsc>
										<timebase>24</timebase>
									</rate>
									<start>3866</start>
									<end>3884</end>
									<alignment>start-black</alignment>
									<effect>
										<name>Cross Fade ( 0dB)</name>
										<effectid>KGAudioTransCrossFade0dB</effectid>
										<effecttype>transition</effecttype>
										<mediatype>audio</mediatype>
										<startratio>0</startratio>
										<endratio>1</endratio>
										<reverse>FALSE</reverse>
									</effect>
								</transitionitem>
								<clipitem id="Raw Scene Matthew Duepner Walkabout475">
									<name>Raw Scene Matthew Duepner Walkabout</name>
									<duration>38484</duration>
									<rate>
										<ntsc>TRUE</ntsc>
										<timebase>24</timebase>
									</rate>
									<in>6453</in>
									<out>6911</out>
									<start>-1</start>
									<end>4324</end>
									<masterclipid>Raw Scene Matthew Duepner Walkabout234</masterclipid>
									<logginginfo>
										<scene/>
										<shottake/>
										<lognote/>
										<good>FALSE</good>
									</logginginfo>
									<labels>
										<label2/>
									</labels>
									<comments>
										<mastercomment1/>
										<mastercomment2/>
										<mastercomment3/>
										<mastercomment4/>
									</comments>
									<file id="YIN_2013-05-28_LG-4 "/>
									<filter>
										<effect>
											<name>Audio Levels</name>
											<effectid>audiolevels</effectid>
											<effectcategory>audiolevels</effectcategory>
											<effecttype>audiolevels</effecttype>
											<mediatype>audio</mediatype>
											<parameter>
												<name>Level</name>
												<parameterid>level</parameterid>
												<valuemin>0</valuemin>
												<valuemax>3.98109</valuemax>
												<value>1.78342</value>
											</parameter>
										</effect>
									</filter>
									<filter>
										<effect>
											<name>Audio Pan</name>
											<effectid>audiopan</effectid>
											<effectcategory>audiopan</effectcategory>
											<effecttype>audiopan</effecttype>
											<mediatype>audio</mediatype>
											<parameter>
												<name>Pan</name>
												<parameterid>pan</parameterid>
												<valuemin>-1</valuemin>
												<valuemax>1</valuemax>
												<value>0</value>
											</parameter>
										</effect>
									</filter>
									<sourcetrack>
										<mediatype>audio</mediatype>
										<trackindex>1</trackindex>
									</sourcetrack>
									<link>
										<linkclipref>Raw Scene Matthew Duepner Walkabout475</linkclipref>
										<mediatype>audio</mediatype>
										<trackindex>5</trackindex>
										<clipindex>24</clipindex>
										<groupindex>1</groupindex>
									</link>
									<link>
										<linkclipref>Raw Scene Matthew Duepner Walkabout476</linkclipref>
										<mediatype>audio</mediatype>
										<trackindex>6</trackindex>
										<clipindex>24</clipindex>
										<groupindex>1</groupindex>
									</link>
									<itemhistory>
										<uuid>C99AF937-6481-4306-BD6E-E78D9B9B1B96</uuid>
									</itemhistory>
								</clipitem>
								<clipitem id="Raw Scene Matthew Duepner Walkabout391">
									<name>Raw Scene Matthew Duepner Walkabout</name>
									<duration>38484</duration>
									<rate>
										<ntsc>TRUE</ntsc>
										<timebase>24</timebase>
									</rate>
									<in>7070</in>
									<out>7250</out>
									<start>4324</start>
									<end>4504</end>
									<masterclipid>Raw Scene Matthew Duepner Walkabout234</masterclipid>
									<logginginfo>
										<scene/>
										<shottake/>
										<lognote/>
										<good>FALSE</good>
									</logginginfo>
									<labels>
										<label2/>
									</labels>
									<comments>
										<mastercomment1/>
										<mastercomment2/>
										<mastercomment3/>
										<mastercomment4/>
									</comments>
									<file id="YIN_2013-05-28_LG-4 "/>
									<filter>
										<effect>
											<name>Audio Levels</name>
											<effectid>audiolevels</effectid>
											<effectcategory>audiolevels</effectcategory>
											<effecttype>audiolevels</effecttype>
											<mediatype>audio</mediatype>
											<parameter>
												<name>Level</name>
												<parameterid>level</parameterid>
												<valuemin>0</valuemin>
												<valuemax>3.98109</valuemax>
												<value>1.78342</value>
											</parameter>
										</effect>
									</filter>
									<filter>
										<effect>
											<name>Audio Pan</name>
											<effectid>audiopan</effectid>
											<effectcategory>audiopan</effectcategory>
											<effecttype>audiopan</effecttype>
											<mediatype>audio</mediatype>
											<parameter>
												<name>Pan</name>
												<parameterid>pan</parameterid>
												<valuemin>-1</valuemin>
												<valuemax>1</valuemax>
												<value>0</value>
											</parameter>
										</effect>
									</filter>
									<sourcetrack>
										<mediatype>audio</mediatype>
										<trackindex>1</trackindex>
									</sourcetrack>
									<link>
										<linkclipref>Raw Scene Matthew Duepner Walkabout390</linkclipref>
										<mediatype>video</mediatype>
										<trackindex>2</trackindex>
										<clipindex>32</clipindex>
									</link>
									<link>
										<linkclipref>Raw Scene Matthew Duepner Walkabout391</linkclipref>
										<mediatype>audio</mediatype>
										<trackindex>5</trackindex>
										<clipindex>25</clipindex>
										<groupindex>1</groupindex>
									</link>
									<link>
										<linkclipref>Raw Scene Matthew Duepner Walkabout392</linkclipref>
										<mediatype>audio</mediatype>
										<trackindex>6</trackindex>
										<clipindex>25</clipindex>
										<groupindex>1</groupindex>
									</link>
									<itemhistory>
										<uuid>87FC5BB2-A27E-46FF-8F9C-6A7D21494455</uuid>
									</itemhistory>
								</clipitem>
								<clipitem id="Raw Scene Matthew Duepner Walkabout394">
									<name>Raw Scene Matthew Duepner Walkabout</name>
									<duration>38484</duration>
									<rate>
										<ntsc>TRUE</ntsc>
										<timebase>24</timebase>
									</rate>
									<in>10560</in>
									<out>10599</out>
									<start>4504</start>
									<end>4543</end>
									<masterclipid>Raw Scene Matthew Duepner Walkabout234</masterclipid>
									<logginginfo>
										<scene/>
										<shottake/>
										<lognote/>
										<good>FALSE</good>
									</logginginfo>
									<labels>
										<label2/>
									</labels>
									<comments>
										<mastercomment1/>
										<mastercomment2/>
										<mastercomment3/>
										<mastercomment4/>
									</comments>
									<file id="YIN_2013-05-28_LG-4 "/>
									<filter>
										<effect>
											<name>Audio Levels</name>
											<effectid>audiolevels</effectid>
											<effectcategory>audiolevels</effectcategory>
											<effecttype>audiolevels</effecttype>
											<mediatype>audio</mediatype>
											<parameter>
												<name>Level</name>
												<parameterid>level</parameterid>
												<valuemin>0</valuemin>
												<valuemax>3.98109</valuemax>
												<value>1.78342</value>
											</parameter>
										</effect>
									</filter>
									<filter>
										<effect>
											<name>Audio Pan</name>
											<effectid>audiopan</effectid>
											<effectcategory>audiopan</effectcategory>
											<effecttype>audiopan</effecttype>
											<mediatype>audio</mediatype>
											<parameter>
												<name>Pan</name>
												<parameterid>pan</parameterid>
												<valuemin>-1</valuemin>
												<valuemax>1</valuemax>
												<value>0</value>
											</parameter>
										</effect>
									</filter>
									<sourcetrack>
										<mediatype>audio</mediatype>
										<trackindex>1</trackindex>
									</sourcetrack>
									<link>
										<linkclipref>Raw Scene Matthew Duepner Walkabout393</linkclipref>
										<mediatype>video</mediatype>
										<trackindex>2</trackindex>
										<clipindex>33</clipindex>
									</link>
									<link>
										<linkclipref>Raw Scene Matthew Duepner Walkabout394</linkclipref>
										<mediatype>audio</mediatype>
										<trackindex>5</trackindex>
										<clipindex>26</clipindex>
										<groupindex>1</groupindex>
									</link>
									<link>
										<linkclipref>Raw Scene Matthew Duepner Walkabout395</linkclipref>
										<mediatype>audio</mediatype>
										<trackindex>6</trackindex>
										<clipindex>26</clipindex>
										<groupindex>1</groupindex>
									</link>
									<itemhistory>
										<uuid>1B55C6E4-4797-4625-B0E1-BC054B91F974</uuid>
									</itemhistory>
								</clipitem>
								<clipitem id="Raw Scene Matthew Duepner Walkabout397">
									<name>Raw Scene Matthew Duepner Walkabout</name>
									<duration>38484</duration>
									<rate>
										<ntsc>TRUE</ntsc>
										<timebase>24</timebase>
									</rate>
									<in>11332</in>
									<out>11408</out>
									<start>4543</start>
									<end>4619</end>
									<masterclipid>Raw Scene Matthew Duepner Walkabout234</masterclipid>
									<logginginfo>
										<scene/>
										<shottake/>
										<lognote/>
										<good>FALSE</good>
									</logginginfo>
									<labels>
										<label2/>
									</labels>
									<comments>
										<mastercomment1/>
										<mastercomment2/>
										<mastercomment3/>
										<mastercomment4/>
									</comments>
									<file id="YIN_2013-05-28_LG-4 "/>
									<filter>
										<effect>
											<name>Audio Levels</name>
											<effectid>audiolevels</effectid>
											<effectcategory>audiolevels</effectcategory>
											<effecttype>audiolevels</effecttype>
											<mediatype>audio</mediatype>
											<parameter>
												<name>Level</name>
												<parameterid>level</parameterid>
												<valuemin>0</valuemin>
												<valuemax>3.98109</valuemax>
												<value>1.78342</value>
											</parameter>
										</effect>
									</filter>
									<filter>
										<effect>
											<name>Audio Pan</name>
											<effectid>audiopan</effectid>
											<effectcategory>audiopan</effectcategory>
											<effecttype>audiopan</effecttype>
											<mediatype>audio</mediatype>
											<parameter>
												<name>Pan</name>
												<parameterid>pan</parameterid>
												<valuemin>-1</valuemin>
												<valuemax>1</valuemax>
												<value>0</value>
											</parameter>
										</effect>
									</filter>
									<sourcetrack>
										<mediatype>audio</mediatype>
										<trackindex>1</trackindex>
									</sourcetrack>
									<link>
										<linkclipref>Raw Scene Matthew Duepner Walkabout396</linkclipref>
										<mediatype>video</mediatype>
										<trackindex>2</trackindex>
										<clipindex>34</clipindex>
									</link>
									<link>
										<linkclipref>Raw Scene Matthew Duepner Walkabout397</linkclipref>
										<mediatype>audio</mediatype>
										<trackindex>5</trackindex>
										<clipindex>27</clipindex>
										<groupindex>1</groupindex>
									</link>
									<link>
										<linkclipref>Raw Scene Matthew Duepner Walkabout398</linkclipref>
										<mediatype>audio</mediatype>
										<trackindex>6</trackindex>
										<clipindex>27</clipindex>
										<groupindex>1</groupindex>
									</link>
									<itemhistory>
										<uuid>29D813EB-5120-4C5A-BE22-A5B85689A0F0</uuid>
									</itemhistory>
								</clipitem>
								<clipitem id="Raw Scene Matthew Duepner Walkabout400">
									<name>Raw Scene Matthew Duepner Walkabout</name>
									<duration>38484</duration>
									<rate>
										<ntsc>TRUE</ntsc>
										<timebase>24</timebase>
									</rate>
									<in>11540</in>
									<out>11595</out>
									<start>4619</start>
									<end>4674</end>
									<masterclipid>Raw Scene Matthew Duepner Walkabout234</masterclipid>
									<logginginfo>
										<scene/>
										<shottake/>
										<lognote/>
										<good>FALSE</good>
									</logginginfo>
									<labels>
										<label2/>
									</labels>
									<comments>
										<mastercomment1/>
										<mastercomment2/>
										<mastercomment3/>
										<mastercomment4/>
									</comments>
									<file id="YIN_2013-05-28_LG-4 "/>
									<filter>
										<effect>
											<name>Audio Levels</name>
											<effectid>audiolevels</effectid>
											<effectcategory>audiolevels</effectcategory>
											<effecttype>audiolevels</effecttype>
											<mediatype>audio</mediatype>
											<parameter>
												<name>Level</name>
												<parameterid>level</parameterid>
												<valuemin>0</valuemin>
												<valuemax>3.98109</valuemax>
												<value>1.78342</value>
											</parameter>
										</effect>
									</filter>
									<filter>
										<effect>
											<name>Audio Pan</name>
											<effectid>audiopan</effectid>
											<effectcategory>audiopan</effectcategory>
											<effecttype>audiopan</effecttype>
											<mediatype>audio</mediatype>
											<parameter>
												<name>Pan</name>
												<parameterid>pan</parameterid>
												<valuemin>-1</valuemin>
												<valuemax>1</valuemax>
												<value>0</value>
											</parameter>
										</effect>
									</filter>
									<sourcetrack>
										<mediatype>audio</mediatype>
										<trackindex>1</trackindex>
									</sourcetrack>
									<link>
										<linkclipref>Raw Scene Matthew Duepner Walkabout399</linkclipref>
										<mediatype>video</mediatype>
										<trackindex>2</trackindex>
										<clipindex>35</clipindex>
									</link>
									<link>
										<linkclipref>Raw Scene Matthew Duepner Walkabout400</linkclipref>
										<mediatype>audio</mediatype>
										<trackindex>5</trackindex>
										<clipindex>28</clipindex>
										<groupindex>1</groupindex>
									</link>
									<link>
										<linkclipref>Raw Scene Matthew Duepner Walkabout401</linkclipref>
										<mediatype>audio</mediatype>
										<trackindex>6</trackindex>
										<clipindex>28</clipindex>
										<groupindex>1</groupindex>
									</link>
									<itemhistory>
										<uuid>4E4ED157-818C-4682-B2DC-B88FE4A4E691</uuid>
									</itemhistory>
								</clipitem>
								<clipitem id="Raw Scene Matthew Duepner Walkabout403">
									<name>Raw Scene Matthew Duepner Walkabout</name>
									<duration>38484</duration>
									<rate>
										<ntsc>TRUE</ntsc>
										<timebase>24</timebase>
									</rate>
									<in>13339</in>
									<out>13489</out>
									<start>4674</start>
									<end>4824</end>
									<masterclipid>Raw Scene Matthew Duepner Walkabout234</masterclipid>
									<logginginfo>
										<scene/>
										<shottake/>
										<lognote/>
										<good>FALSE</good>
									</logginginfo>
									<labels>
										<label2/>
									</labels>
									<comments>
										<mastercomment1/>
										<mastercomment2/>
										<mastercomment3/>
										<mastercomment4/>
									</comments>
									<file id="YIN_2013-05-28_LG-4 "/>
									<filter>
										<effect>
											<name>Audio Levels</name>
											<effectid>audiolevels</effectid>
											<effectcategory>audiolevels</effectcategory>
											<effecttype>audiolevels</effecttype>
											<mediatype>audio</mediatype>
											<parameter>
												<name>Level</name>
												<parameterid>level</parameterid>
												<valuemin>0</valuemin>
												<valuemax>3.98109</valuemax>
												<value>1.78342</value>
											</parameter>
										</effect>
									</filter>
									<filter>
										<effect>
											<name>Audio Pan</name>
											<effectid>audiopan</effectid>
											<effectcategory>audiopan</effectcategory>
											<effecttype>audiopan</effecttype>
											<mediatype>audio</mediatype>
											<parameter>
												<name>Pan</name>
												<parameterid>pan</parameterid>
												<valuemin>-1</valuemin>
												<valuemax>1</valuemax>
												<value>0</value>
											</parameter>
										</effect>
									</filter>
									<sourcetrack>
										<mediatype>audio</mediatype>
										<trackindex>1</trackindex>
									</sourcetrack>
									<link>
										<linkclipref>Raw Scene Matthew Duepner Walkabout402</linkclipref>
										<mediatype>video</mediatype>
										<trackindex>2</trackindex>
										<clipindex>36</clipindex>
									</link>
									<link>
										<linkclipref>Raw Scene Matthew Duepner Walkabout403</linkclipref>
										<mediatype>audio</mediatype>
										<trackindex>5</trackindex>
										<clipindex>29</clipindex>
										<groupindex>1</groupindex>
									</link>
									<link>
										<linkclipref>Raw Scene Matthew Duepner Walkabout404</linkclipref>
										<mediatype>audio</mediatype>
										<trackindex>6</trackindex>
										<clipindex>29</clipindex>
										<groupindex>1</groupindex>
									</link>
									<itemhistory>
										<uuid>8AA5AB56-902D-4DAF-8C89-21E872A26E0B</uuid>
									</itemhistory>
								</clipitem>
								<clipitem id="Raw Scene Matthew Duepner Walkabout406">
									<name>Raw Scene Matthew Duepner Walkabout</name>
									<duration>38484</duration>
									<rate>
										<ntsc>TRUE</ntsc>
										<timebase>24</timebase>
									</rate>
									<in>13825</in>
									<out>13967</out>
									<start>4824</start>
									<end>4966</end>
									<masterclipid>Raw Scene Matthew Duepner Walkabout234</masterclipid>
									<logginginfo>
										<scene/>
										<shottake/>
										<lognote/>
										<good>FALSE</good>
									</logginginfo>
									<labels>
										<label2/>
									</labels>
									<comments>
										<mastercomment1/>
										<mastercomment2/>
										<mastercomment3/>
										<mastercomment4/>
									</comments>
									<file id="YIN_2013-05-28_LG-4 "/>
									<filter>
										<effect>
											<name>Audio Levels</name>
											<effectid>audiolevels</effectid>
											<effectcategory>audiolevels</effectcategory>
											<effecttype>audiolevels</effecttype>
											<mediatype>audio</mediatype>
											<parameter>
												<name>Level</name>
												<parameterid>level</parameterid>
												<valuemin>0</valuemin>
												<valuemax>3.98109</valuemax>
												<value>1.78342</value>
											</parameter>
										</effect>
									</filter>
									<filter>
										<effect>
											<name>Audio Pan</name>
											<effectid>audiopan</effectid>
											<effectcategory>audiopan</effectcategory>
											<effecttype>audiopan</effecttype>
											<mediatype>audio</mediatype>
											<parameter>
												<name>Pan</name>
												<parameterid>pan</parameterid>
												<valuemin>-1</valuemin>
												<valuemax>1</valuemax>
												<value>0</value>
											</parameter>
										</effect>
									</filter>
									<sourcetrack>
										<mediatype>audio</mediatype>
										<trackindex>1</trackindex>
									</sourcetrack>
									<link>
										<linkclipref>Raw Scene Matthew Duepner Walkabout405</linkclipref>
										<mediatype>video</mediatype>
										<trackindex>2</trackindex>
										<clipindex>37</clipindex>
									</link>
									<link>
										<linkclipref>Raw Scene Matthew Duepner Walkabout406</linkclipref>
										<mediatype>audio</mediatype>
										<trackindex>5</trackindex>
										<clipindex>30</clipindex>
										<groupindex>1</groupindex>
									</link>
									<link>
										<linkclipref>Raw Scene Matthew Duepner Walkabout407</linkclipref>
										<mediatype>audio</mediatype>
										<trackindex>6</trackindex>
										<clipindex>30</clipindex>
										<groupindex>1</groupindex>
									</link>
									<itemhistory>
										<uuid>284C9C6E-5AA9-4583-80C3-BDB66967F789</uuid>
									</itemhistory>
								</clipitem>
								<clipitem id="Raw Scene Matthew Duepner Walkabout409">
									<name>Raw Scene Matthew Duepner Walkabout</name>
									<duration>38484</duration>
									<rate>
										<ntsc>TRUE</ntsc>
										<timebase>24</timebase>
									</rate>
									<in>14191</in>
									<out>14629</out>
									<start>4966</start>
									<end>5404</end>
									<masterclipid>Raw Scene Matthew Duepner Walkabout234</masterclipid>
									<logginginfo>
										<scene/>
										<shottake/>
										<lognote/>
										<good>FALSE</good>
									</logginginfo>
									<labels>
										<label2/>
									</labels>
									<comments>
										<mastercomment1/>
										<mastercomment2/>
										<mastercomment3/>
										<mastercomment4/>
									</comments>
									<file id="YIN_2013-05-28_LG-4 "/>
									<filter>
										<effect>
											<name>Audio Levels</name>
											<effectid>audiolevels</effectid>
											<effectcategory>audiolevels</effectcategory>
											<effecttype>audiolevels</effecttype>
											<mediatype>audio</mediatype>
											<parameter>
												<name>Level</name>
												<parameterid>level</parameterid>
												<valuemin>0</valuemin>
												<valuemax>3.98109</valuemax>
												<value>1.78342</value>
											</parameter>
										</effect>
									</filter>
									<filter>
										<effect>
											<name>Audio Pan</name>
											<effectid>audiopan</effectid>
											<effectcategory>audiopan</effectcategory>
											<effecttype>audiopan</effecttype>
											<mediatype>audio</mediatype>
											<parameter>
												<name>Pan</name>
												<parameterid>pan</parameterid>
												<valuemin>-1</valuemin>
												<valuemax>1</valuemax>
												<value>0</value>
											</parameter>
										</effect>
									</filter>
									<sourcetrack>
										<mediatype>audio</mediatype>
										<trackindex>1</trackindex>
									</sourcetrack>
									<link>
										<linkclipref>Raw Scene Matthew Duepner Walkabout408</linkclipref>
										<mediatype>video</mediatype>
										<trackindex>2</trackindex>
										<clipindex>38</clipindex>
									</link>
									<link>
										<linkclipref>Raw Scene Matthew Duepner Walkabout409</linkclipref>
										<mediatype>audio</mediatype>
										<trackindex>5</trackindex>
										<clipindex>31</clipindex>
										<groupindex>1</groupindex>
									</link>
									<link>
										<linkclipref>Raw Scene Matthew Duepner Walkabout410</linkclipref>
										<mediatype>audio</mediatype>
										<trackindex>6</trackindex>
										<clipindex>31</clipindex>
										<groupindex>1</groupindex>
									</link>
									<itemhistory>
										<uuid>93DCECD4-B1F6-46F9-8719-51B20436A6AB</uuid>
									</itemhistory>
								</clipitem>
								<clipitem id="Raw Scene Matthew Duepner Walkabout412">
									<name>Raw Scene Matthew Duepner Walkabout</name>
									<duration>38484</duration>
									<rate>
										<ntsc>TRUE</ntsc>
										<timebase>24</timebase>
									</rate>
									<in>14910</in>
									<out>15123</out>
									<start>5404</start>
									<end>5617</end>
									<masterclipid>Raw Scene Matthew Duepner Walkabout234</masterclipid>
									<logginginfo>
										<scene/>
										<shottake/>
										<lognote/>
										<good>FALSE</good>
									</logginginfo>
									<labels>
										<label2/>
									</labels>
									<comments>
										<mastercomment1/>
										<mastercomment2/>
										<mastercomment3/>
										<mastercomment4/>
									</comments>
									<file id="YIN_2013-05-28_LG-4 "/>
									<filter>
										<effect>
											<name>Audio Levels</name>
											<effectid>audiolevels</effectid>
											<effectcategory>audiolevels</effectcategory>
											<effecttype>audiolevels</effecttype>
											<mediatype>audio</mediatype>
											<parameter>
												<name>Level</name>
												<parameterid>level</parameterid>
												<valuemin>0</valuemin>
												<valuemax>3.98109</valuemax>
												<value>1.78342</value>
											</parameter>
										</effect>
									</filter>
									<filter>
										<effect>
											<name>Audio Pan</name>
											<effectid>audiopan</effectid>
											<effectcategory>audiopan</effectcategory>
											<effecttype>audiopan</effecttype>
											<mediatype>audio</mediatype>
											<parameter>
												<name>Pan</name>
												<parameterid>pan</parameterid>
												<valuemin>-1</valuemin>
												<valuemax>1</valuemax>
												<value>0</value>
											</parameter>
										</effect>
									</filter>
									<sourcetrack>
										<mediatype>audio</mediatype>
										<trackindex>1</trackindex>
									</sourcetrack>
									<link>
										<linkclipref>Raw Scene Matthew Duepner Walkabout411</linkclipref>
										<mediatype>video</mediatype>
										<trackindex>2</trackindex>
										<clipindex>39</clipindex>
									</link>
									<link>
										<linkclipref>Raw Scene Matthew Duepner Walkabout412</linkclipref>
										<mediatype>audio</mediatype>
										<trackindex>5</trackindex>
										<clipindex>32</clipindex>
										<groupindex>1</groupindex>
									</link>
									<link>
										<linkclipref>Raw Scene Matthew Duepner Walkabout413</linkclipref>
										<mediatype>audio</mediatype>
										<trackindex>6</trackindex>
										<clipindex>32</clipindex>
										<groupindex>1</groupindex>
									</link>
									<itemhistory>
										<uuid>FAF16A94-6581-4A16-94BA-65F202FA29A9</uuid>
									</itemhistory>
								</clipitem>
								<clipitem id="Raw Scene Matthew Duepner Walkabout415">
									<name>Raw Scene Matthew Duepner Walkabout</name>
									<duration>38484</duration>
									<rate>
										<ntsc>TRUE</ntsc>
										<timebase>24</timebase>
									</rate>
									<in>17326</in>
									<out>17746</out>
									<start>5617</start>
									<end>6037</end>
									<masterclipid>Raw Scene Matthew Duepner Walkabout234</masterclipid>
									<logginginfo>
										<scene/>
										<shottake/>
										<lognote/>
										<good>FALSE</good>
									</logginginfo>
									<labels>
										<label2/>
									</labels>
									<comments>
										<mastercomment1/>
										<mastercomment2/>
										<mastercomment3/>
										<mastercomment4/>
									</comments>
									<file id="YIN_2013-05-28_LG-4 "/>
									<filter>
										<effect>
											<name>Audio Levels</name>
											<effectid>audiolevels</effectid>
											<effectcategory>audiolevels</effectcategory>
											<effecttype>audiolevels</effecttype>
											<mediatype>audio</mediatype>
											<parameter>
												<name>Level</name>
												<parameterid>level</parameterid>
												<valuemin>0</valuemin>
												<valuemax>3.98109</valuemax>
												<value>1.78342</value>
											</parameter>
										</effect>
									</filter>
									<filter>
										<effect>
											<name>Audio Pan</name>
											<effectid>audiopan</effectid>
											<effectcategory>audiopan</effectcategory>
											<effecttype>audiopan</effecttype>
											<mediatype>audio</mediatype>
											<parameter>
												<name>Pan</name>
												<parameterid>pan</parameterid>
												<valuemin>-1</valuemin>
												<valuemax>1</valuemax>
												<value>0</value>
											</parameter>
										</effect>
									</filter>
									<sourcetrack>
										<mediatype>audio</mediatype>
										<trackindex>1</trackindex>
									</sourcetrack>
									<link>
										<linkclipref>Raw Scene Matthew Duepner Walkabout414</linkclipref>
										<mediatype>video</mediatype>
										<trackindex>2</trackindex>
										<clipindex>40</clipindex>
									</link>
									<link>
										<linkclipref>Raw Scene Matthew Duepner Walkabout415</linkclipref>
										<mediatype>audio</mediatype>
										<trackindex>5</trackindex>
										<clipindex>33</clipindex>
										<groupindex>1</groupindex>
									</link>
									<link>
										<linkclipref>Raw Scene Matthew Duepner Walkabout416</linkclipref>
										<mediatype>audio</mediatype>
										<trackindex>6</trackindex>
										<clipindex>33</clipindex>
										<groupindex>1</groupindex>
									</link>
									<itemhistory>
										<uuid>20CDBC9C-942D-474F-A7DC-3EF4E7C9CB75</uuid>
									</itemhistory>
								</clipitem>
								<clipitem id="Raw Scene Matthew Duepner Walkabout418">
									<name>Raw Scene Matthew Duepner Walkabout</name>
									<duration>38484</duration>
									<rate>
										<ntsc>TRUE</ntsc>
										<timebase>24</timebase>
									</rate>
									<in>18256</in>
									<out>18413</out>
									<start>6037</start>
									<end>-1</end>
									<masterclipid>Raw Scene Matthew Duepner Walkabout234</masterclipid>
									<logginginfo>
										<scene/>
										<shottake/>
										<lognote/>
										<good>FALSE</good>
									</logginginfo>
									<labels>
										<label2/>
									</labels>
									<comments>
										<mastercomment1/>
										<mastercomment2/>
										<mastercomment3/>
										<mastercomment4/>
									</comments>
									<file id="YIN_2013-05-28_LG-4 "/>
									<filter>
										<effect>
											<name>Audio Levels</name>
											<effectid>audiolevels</effectid>
											<effectcategory>audiolevels</effectcategory>
											<effecttype>audiolevels</effecttype>
											<mediatype>audio</mediatype>
											<parameter>
												<name>Level</name>
												<parameterid>level</parameterid>
												<valuemin>0</valuemin>
												<valuemax>3.98109</valuemax>
												<value>1.78342</value>
											</parameter>
										</effect>
									</filter>
									<filter>
										<effect>
											<name>Audio Pan</name>
											<effectid>audiopan</effectid>
											<effectcategory>audiopan</effectcategory>
											<effecttype>audiopan</effecttype>
											<mediatype>audio</mediatype>
											<parameter>
												<name>Pan</name>
												<parameterid>pan</parameterid>
												<valuemin>-1</valuemin>
												<valuemax>1</valuemax>
												<value>0</value>
											</parameter>
										</effect>
									</filter>
									<sourcetrack>
										<mediatype>audio</mediatype>
										<trackindex>1</trackindex>
									</sourcetrack>
									<link>
										<linkclipref>Raw Scene Matthew Duepner Walkabout417</linkclipref>
										<mediatype>video</mediatype>
										<trackindex>2</trackindex>
										<clipindex>41</clipindex>
									</link>
									<link>
										<linkclipref>Raw Scene Matthew Duepner Walkabout418</linkclipref>
										<mediatype>audio</mediatype>
										<trackindex>5</trackindex>
										<clipindex>34</clipindex>
										<groupindex>1</groupindex>
									</link>
									<link>
										<linkclipref>Raw Scene Matthew Duepner Walkabout419</linkclipref>
										<mediatype>audio</mediatype>
										<trackindex>6</trackindex>
										<clipindex>34</clipindex>
										<groupindex>1</groupindex>
									</link>
									<itemhistory>
										<uuid>506DDB73-CBD5-4980-8317-F8D6AB0B0145</uuid>
									</itemhistory>
								</clipitem>
								<transitionitem>
									<rate>
										<ntsc>TRUE</ntsc>
										<timebase>24</timebase>
									</rate>
									<start>6170</start>
									<end>6194</end>
									<alignment>end</alignment>
									<effect>
										<name>Cross Fade ( 0dB)</name>
										<effectid>KGAudioTransCrossFade0dB</effectid>
										<effecttype>transition</effecttype>
										<mediatype>audio</mediatype>
										<startratio>0</startratio>
										<endratio>1</endratio>
										<reverse>FALSE</reverse>
									</effect>
								</transitionitem>
								<clipitem id="Raw Scene Matthew Duepner Walkabout421">
									<name>Raw Scene Matthew Duepner Walkabout</name>
									<duration>38484</duration>
									<rate>
										<ntsc>TRUE</ntsc>
										<timebase>24</timebase>
									</rate>
									<in>19734</in>
									<out>19977</out>
									<start>-1</start>
									<end>-1</end>
									<masterclipid>Raw Scene Matthew Duepner Walkabout234</masterclipid>
									<logginginfo>
										<scene/>
										<shottake/>
										<lognote/>
										<good>FALSE</good>
									</logginginfo>
									<labels>
										<label2/>
									</labels>
									<comments>
										<mastercomment1/>
										<mastercomment2/>
										<mastercomment3/>
										<mastercomment4/>
									</comments>
									<file id="YIN_2013-05-28_LG-4 "/>
									<filter>
										<effect>
											<name>Audio Levels</name>
											<effectid>audiolevels</effectid>
											<effectcategory>audiolevels</effectcategory>
											<effecttype>audiolevels</effecttype>
											<mediatype>audio</mediatype>
											<parameter>
												<name>Level</name>
												<parameterid>level</parameterid>
												<valuemin>0</valuemin>
												<valuemax>3.98109</valuemax>
												<value>1.78342</value>
											</parameter>
										</effect>
									</filter>
									<filter>
										<effect>
											<name>Audio Pan</name>
											<effectid>audiopan</effectid>
											<effectcategory>audiopan</effectcategory>
											<effecttype>audiopan</effecttype>
											<mediatype>audio</mediatype>
											<parameter>
												<name>Pan</name>
												<parameterid>pan</parameterid>
												<valuemin>-1</valuemin>
												<valuemax>1</valuemax>
												<value>0</value>
											</parameter>
										</effect>
									</filter>
									<sourcetrack>
										<mediatype>audio</mediatype>
										<trackindex>1</trackindex>
									</sourcetrack>
									<link>
										<linkclipref>Raw Scene Matthew Duepner Walkabout420</linkclipref>
										<mediatype>video</mediatype>
										<trackindex>2</trackindex>
										<clipindex>42</clipindex>
									</link>
									<link>
										<linkclipref>Raw Scene Matthew Duepner Walkabout421</linkclipref>
										<mediatype>audio</mediatype>
										<trackindex>5</trackindex>
										<clipindex>36</clipindex>
										<groupindex>1</groupindex>
									</link>
									<link>
										<linkclipref>Raw Scene Matthew Duepner Walkabout422</linkclipref>
										<mediatype>audio</mediatype>
										<trackindex>6</trackindex>
										<clipindex>36</clipindex>
										<groupindex>1</groupindex>
									</link>
									<itemhistory>
										<uuid>DCAF698C-2FEA-4FCE-864C-3E7AD6BD77BC</uuid>
									</itemhistory>
								</clipitem>
								<transitionitem>
									<rate>
										<ntsc>TRUE</ntsc>
										<timebase>24</timebase>
									</rate>
									<start>6389</start>
									<end>6413</end>
									<alignment>start</alignment>
									<effect>
										<name>Cross Fade ( 0dB)</name>
										<effectid>KGAudioTransCrossFade0dB</effectid>
										<effecttype>transition</effecttype>
										<mediatype>audio</mediatype>
										<startratio>0</startratio>
										<endratio>1</endratio>
										<reverse>FALSE</reverse>
									</effect>
								</transitionitem>
								<clipitem id="Raw Scene Matthew Duepner Walkabout424">
									<name>Raw Scene Matthew Duepner Walkabout</name>
									<duration>38484</duration>
									<rate>
										<ntsc>TRUE</ntsc>
										<timebase>24</timebase>
									</rate>
									<in>21572</in>
									<out>21660</out>
									<start>-1</start>
									<end>6477</end>
									<masterclipid>Raw Scene Matthew Duepner Walkabout234</masterclipid>
									<logginginfo>
										<scene/>
										<shottake/>
										<lognote/>
										<good>FALSE</good>
									</logginginfo>
									<labels>
										<label2/>
									</labels>
									<comments>
										<mastercomment1/>
										<mastercomment2/>
										<mastercomment3/>
										<mastercomment4/>
									</comments>
									<file id="YIN_2013-05-28_LG-4 "/>
									<filter>
										<effect>
											<name>Audio Levels</name>
											<effectid>audiolevels</effectid>
											<effectcategory>audiolevels</effectcategory>
											<effecttype>audiolevels</effecttype>
											<mediatype>audio</mediatype>
											<parameter>
												<name>Level</name>
												<parameterid>level</parameterid>
												<valuemin>0</valuemin>
												<valuemax>3.98109</valuemax>
												<value>1.78342</value>
											</parameter>
										</effect>
									</filter>
									<filter>
										<effect>
											<name>Audio Pan</name>
											<effectid>audiopan</effectid>
											<effectcategory>audiopan</effectcategory>
											<effecttype>audiopan</effecttype>
											<mediatype>audio</mediatype>
											<parameter>
												<name>Pan</name>
												<parameterid>pan</parameterid>
												<valuemin>-1</valuemin>
												<valuemax>1</valuemax>
												<value>0</value>
											</parameter>
										</effect>
									</filter>
									<sourcetrack>
										<mediatype>audio</mediatype>
										<trackindex>1</trackindex>
									</sourcetrack>
									<link>
										<linkclipref>Raw Scene Matthew Duepner Walkabout423</linkclipref>
										<mediatype>video</mediatype>
										<trackindex>2</trackindex>
										<clipindex>43</clipindex>
									</link>
									<link>
										<linkclipref>Raw Scene Matthew Duepner Walkabout424</linkclipref>
										<mediatype>audio</mediatype>
										<trackindex>5</trackindex>
										<clipindex>38</clipindex>
										<groupindex>1</groupindex>
									</link>
									<link>
										<linkclipref>Raw Scene Matthew Duepner Walkabout425</linkclipref>
										<mediatype>audio</mediatype>
										<trackindex>6</trackindex>
										<clipindex>38</clipindex>
										<groupindex>1</groupindex>
									</link>
									<itemhistory>
										<uuid>6AC4DA57-4482-4504-A9DA-8A42AB72284F</uuid>
									</itemhistory>
								</clipitem>
								<clipitem id="Raw Scene Matthew Duepner Walkabout427">
									<name>Raw Scene Matthew Duepner Walkabout</name>
									<duration>38484</duration>
									<rate>
										<ntsc>TRUE</ntsc>
										<timebase>24</timebase>
									</rate>
									<in>22012</in>
									<out>22143</out>
									<start>6477</start>
									<end>6608</end>
									<masterclipid>Raw Scene Matthew Duepner Walkabout234</masterclipid>
									<logginginfo>
										<scene/>
										<shottake/>
										<lognote/>
										<good>FALSE</good>
									</logginginfo>
									<labels>
										<label2/>
									</labels>
									<comments>
										<mastercomment1/>
										<mastercomment2/>
										<mastercomment3/>
										<mastercomment4/>
									</comments>
									<file id="YIN_2013-05-28_LG-4 "/>
									<filter>
										<effect>
											<name>Audio Levels</name>
											<effectid>audiolevels</effectid>
											<effectcategory>audiolevels</effectcategory>
											<effecttype>audiolevels</effecttype>
											<mediatype>audio</mediatype>
											<parameter>
												<name>Level</name>
												<parameterid>level</parameterid>
												<valuemin>0</valuemin>
												<valuemax>3.98109</valuemax>
												<value>1.78342</value>
											</parameter>
										</effect>
									</filter>
									<filter>
										<effect>
											<name>Audio Pan</name>
											<effectid>audiopan</effectid>
											<effectcategory>audiopan</effectcategory>
											<effecttype>audiopan</effecttype>
											<mediatype>audio</mediatype>
											<parameter>
												<name>Pan</name>
												<parameterid>pan</parameterid>
												<valuemin>-1</valuemin>
												<valuemax>1</valuemax>
												<value>0</value>
											</parameter>
										</effect>
									</filter>
									<sourcetrack>
										<mediatype>audio</mediatype>
										<trackindex>1</trackindex>
									</sourcetrack>
									<link>
										<linkclipref>Raw Scene Matthew Duepner Walkabout426</linkclipref>
										<mediatype>video</mediatype>
										<trackindex>2</trackindex>
										<clipindex>44</clipindex>
									</link>
									<link>
										<linkclipref>Raw Scene Matthew Duepner Walkabout427</linkclipref>
										<mediatype>audio</mediatype>
										<trackindex>5</trackindex>
										<clipindex>39</clipindex>
										<groupindex>1</groupindex>
									</link>
									<link>
										<linkclipref>Raw Scene Matthew Duepner Walkabout428</linkclipref>
										<mediatype>audio</mediatype>
										<trackindex>6</trackindex>
										<clipindex>39</clipindex>
										<groupindex>1</groupindex>
									</link>
									<itemhistory>
										<uuid>A64C1CC0-E0FD-43D5-8C91-B71B8D9F6531</uuid>
									</itemhistory>
								</clipitem>
								<clipitem id="Raw Scene Matthew Duepner Walkabout430">
									<name>Raw Scene Matthew Duepner Walkabout</name>
									<duration>38484</duration>
									<rate>
										<ntsc>TRUE</ntsc>
										<timebase>24</timebase>
									</rate>
									<in>23496</in>
									<out>23611</out>
									<start>6608</start>
									<end>6723</end>
									<masterclipid>Raw Scene Matthew Duepner Walkabout234</masterclipid>
									<logginginfo>
										<scene/>
										<shottake/>
										<lognote/>
										<good>FALSE</good>
									</logginginfo>
									<labels>
										<label2/>
									</labels>
									<comments>
										<mastercomment1/>
										<mastercomment2/>
										<mastercomment3/>
										<mastercomment4/>
									</comments>
									<file id="YIN_2013-05-28_LG-4 "/>
									<filter>
										<effect>
											<name>Audio Levels</name>
											<effectid>audiolevels</effectid>
											<effectcategory>audiolevels</effectcategory>
											<effecttype>audiolevels</effecttype>
											<mediatype>audio</mediatype>
											<parameter>
												<name>Level</name>
												<parameterid>level</parameterid>
												<valuemin>0</valuemin>
												<valuemax>3.98109</valuemax>
												<value>1.78342</value>
											</parameter>
										</effect>
									</filter>
									<filter>
										<effect>
											<name>Audio Pan</name>
											<effectid>audiopan</effectid>
											<effectcategory>audiopan</effectcategory>
											<effecttype>audiopan</effecttype>
											<mediatype>audio</mediatype>
											<parameter>
												<name>Pan</name>
												<parameterid>pan</parameterid>
												<valuemin>-1</valuemin>
												<valuemax>1</valuemax>
												<value>0</value>
											</parameter>
										</effect>
									</filter>
									<sourcetrack>
										<mediatype>audio</mediatype>
										<trackindex>1</trackindex>
									</sourcetrack>
									<link>
										<linkclipref>Raw Scene Matthew Duepner Walkabout429</linkclipref>
										<mediatype>video</mediatype>
										<trackindex>2</trackindex>
										<clipindex>45</clipindex>
									</link>
									<link>
										<linkclipref>Raw Scene Matthew Duepner Walkabout430</linkclipref>
										<mediatype>audio</mediatype>
										<trackindex>5</trackindex>
										<clipindex>40</clipindex>
										<groupindex>1</groupindex>
									</link>
									<link>
										<linkclipref>Raw Scene Matthew Duepner Walkabout431</linkclipref>
										<mediatype>audio</mediatype>
										<trackindex>6</trackindex>
										<clipindex>40</clipindex>
										<groupindex>1</groupindex>
									</link>
									<itemhistory>
										<uuid>985BD2F1-552C-422A-9799-E0AB7D2CA043</uuid>
									</itemhistory>
								</clipitem>
								<clipitem id="Raw Scene Matthew Duepner Walkabout433">
									<name>Raw Scene Matthew Duepner Walkabout</name>
									<duration>38484</duration>
									<rate>
										<ntsc>TRUE</ntsc>
										<timebase>24</timebase>
									</rate>
									<in>27809</in>
									<out>28338</out>
									<start>6723</start>
									<end>7252</end>
									<masterclipid>Raw Scene Matthew Duepner Walkabout234</masterclipid>
									<logginginfo>
										<scene/>
										<shottake/>
										<lognote/>
										<good>FALSE</good>
									</logginginfo>
									<labels>
										<label2/>
									</labels>
									<comments>
										<mastercomment1/>
										<mastercomment2/>
										<mastercomment3/>
										<mastercomment4/>
									</comments>
									<file id="YIN_2013-05-28_LG-4 "/>
									<filter>
										<effect>
											<name>Audio Levels</name>
											<effectid>audiolevels</effectid>
											<effectcategory>audiolevels</effectcategory>
											<effecttype>audiolevels</effecttype>
											<mediatype>audio</mediatype>
											<parameter>
												<name>Level</name>
												<parameterid>level</parameterid>
												<valuemin>0</valuemin>
												<valuemax>3.98109</valuemax>
												<value>1.78342</value>
											</parameter>
										</effect>
									</filter>
									<filter>
										<effect>
											<name>Audio Pan</name>
											<effectid>audiopan</effectid>
											<effectcategory>audiopan</effectcategory>
											<effecttype>audiopan</effecttype>
											<mediatype>audio</mediatype>
											<parameter>
												<name>Pan</name>
												<parameterid>pan</parameterid>
												<valuemin>-1</valuemin>
												<valuemax>1</valuemax>
												<value>0</value>
											</parameter>
										</effect>
									</filter>
									<sourcetrack>
										<mediatype>audio</mediatype>
										<trackindex>1</trackindex>
									</sourcetrack>
									<link>
										<linkclipref>Raw Scene Matthew Duepner Walkabout432</linkclipref>
										<mediatype>video</mediatype>
										<trackindex>2</trackindex>
										<clipindex>46</clipindex>
									</link>
									<link>
										<linkclipref>Raw Scene Matthew Duepner Walkabout433</linkclipref>
										<mediatype>audio</mediatype>
										<trackindex>5</trackindex>
										<clipindex>41</clipindex>
										<groupindex>1</groupindex>
									</link>
									<link>
										<linkclipref>Raw Scene Matthew Duepner Walkabout434</linkclipref>
										<mediatype>audio</mediatype>
										<trackindex>6</trackindex>
										<clipindex>41</clipindex>
										<groupindex>1</groupindex>
									</link>
									<itemhistory>
										<uuid>52283EEF-39E9-4598-A511-1425F84FB483</uuid>
									</itemhistory>
								</clipitem>
								<clipitem id="Raw Scene Matthew Duepner Walkabout436">
									<name>Raw Scene Matthew Duepner Walkabout</name>
									<duration>38484</duration>
									<rate>
										<ntsc>TRUE</ntsc>
										<timebase>24</timebase>
									</rate>
									<in>28558</in>
									<out>28719</out>
									<start>7252</start>
									<end>7413</end>
									<masterclipid>Raw Scene Matthew Duepner Walkabout234</masterclipid>
									<logginginfo>
										<scene/>
										<shottake/>
										<lognote/>
										<good>FALSE</good>
									</logginginfo>
									<labels>
										<label2/>
									</labels>
									<comments>
										<mastercomment1/>
										<mastercomment2/>
										<mastercomment3/>
										<mastercomment4/>
									</comments>
									<file id="YIN_2013-05-28_LG-4 "/>
									<filter>
										<effect>
											<name>Audio Levels</name>
											<effectid>audiolevels</effectid>
											<effectcategory>audiolevels</effectcategory>
											<effecttype>audiolevels</effecttype>
											<mediatype>audio</mediatype>
											<parameter>
												<name>Level</name>
												<parameterid>level</parameterid>
												<valuemin>0</valuemin>
												<valuemax>3.98109</valuemax>
												<value>1.78342</value>
											</parameter>
										</effect>
									</filter>
									<filter>
										<effect>
											<name>Audio Pan</name>
											<effectid>audiopan</effectid>
											<effectcategory>audiopan</effectcategory>
											<effecttype>audiopan</effecttype>
											<mediatype>audio</mediatype>
											<parameter>
												<name>Pan</name>
												<parameterid>pan</parameterid>
												<valuemin>-1</valuemin>
												<valuemax>1</valuemax>
												<value>0</value>
											</parameter>
										</effect>
									</filter>
									<sourcetrack>
										<mediatype>audio</mediatype>
										<trackindex>1</trackindex>
									</sourcetrack>
									<link>
										<linkclipref>Raw Scene Matthew Duepner Walkabout435</linkclipref>
										<mediatype>video</mediatype>
										<trackindex>2</trackindex>
										<clipindex>47</clipindex>
									</link>
									<link>
										<linkclipref>Raw Scene Matthew Duepner Walkabout436</linkclipref>
										<mediatype>audio</mediatype>
										<trackindex>5</trackindex>
										<clipindex>42</clipindex>
										<groupindex>1</groupindex>
									</link>
									<link>
										<linkclipref>Raw Scene Matthew Duepner Walkabout437</linkclipref>
										<mediatype>audio</mediatype>
										<trackindex>6</trackindex>
										<clipindex>42</clipindex>
										<groupindex>1</groupindex>
									</link>
									<itemhistory>
										<uuid>FD1A4E26-8F8B-4F1B-87FD-E7BF99DFE4D9</uuid>
									</itemhistory>
								</clipitem>
								<clipitem id="Raw Scene Matthew Duepner Walkabout439">
									<name>Raw Scene Matthew Duepner Walkabout</name>
									<duration>38484</duration>
									<rate>
										<ntsc>TRUE</ntsc>
										<timebase>24</timebase>
									</rate>
									<in>30624</in>
									<out>30700</out>
									<start>7413</start>
									<end>7489</end>
									<masterclipid>Raw Scene Matthew Duepner Walkabout234</masterclipid>
									<logginginfo>
										<scene/>
										<shottake/>
										<lognote/>
										<good>FALSE</good>
									</logginginfo>
									<labels>
										<label2/>
									</labels>
									<comments>
										<mastercomment1/>
										<mastercomment2/>
										<mastercomment3/>
										<mastercomment4/>
									</comments>
									<file id="YIN_2013-05-28_LG-4 "/>
									<filter>
										<effect>
											<name>Audio Levels</name>
											<effectid>audiolevels</effectid>
											<effectcategory>audiolevels</effectcategory>
											<effecttype>audiolevels</effecttype>
											<mediatype>audio</mediatype>
											<parameter>
												<name>Level</name>
												<parameterid>level</parameterid>
												<valuemin>0</valuemin>
												<valuemax>3.98109</valuemax>
												<value>1.78342</value>
											</parameter>
										</effect>
									</filter>
									<filter>
										<effect>
											<name>Audio Pan</name>
											<effectid>audiopan</effectid>
											<effectcategory>audiopan</effectcategory>
											<effecttype>audiopan</effecttype>
											<mediatype>audio</mediatype>
											<parameter>
												<name>Pan</name>
												<parameterid>pan</parameterid>
												<valuemin>-1</valuemin>
												<valuemax>1</valuemax>
												<value>0</value>
											</parameter>
										</effect>
									</filter>
									<sourcetrack>
										<mediatype>audio</mediatype>
										<trackindex>1</trackindex>
									</sourcetrack>
									<link>
										<linkclipref>Raw Scene Matthew Duepner Walkabout438</linkclipref>
										<mediatype>video</mediatype>
										<trackindex>2</trackindex>
										<clipindex>48</clipindex>
									</link>
									<link>
										<linkclipref>Raw Scene Matthew Duepner Walkabout439</linkclipref>
										<mediatype>audio</mediatype>
										<trackindex>5</trackindex>
										<clipindex>43</clipindex>
										<groupindex>1</groupindex>
									</link>
									<link>
										<linkclipref>Raw Scene Matthew Duepner Walkabout440</linkclipref>
										<mediatype>audio</mediatype>
										<trackindex>6</trackindex>
										<clipindex>43</clipindex>
										<groupindex>1</groupindex>
									</link>
									<itemhistory>
										<uuid>2258D95C-01A1-43DB-BEA6-733D80E4E219</uuid>
									</itemhistory>
								</clipitem>
								<clipitem id="Raw Scene Matthew Duepner Walkabout442">
									<name>Raw Scene Matthew Duepner Walkabout</name>
									<duration>38484</duration>
									<rate>
										<ntsc>TRUE</ntsc>
										<timebase>24</timebase>
									</rate>
									<in>30946</in>
									<out>30968</out>
									<start>7489</start>
									<end>7511</end>
									<masterclipid>Raw Scene Matthew Duepner Walkabout234</masterclipid>
									<logginginfo>
										<scene/>
										<shottake/>
										<lognote/>
										<good>FALSE</good>
									</logginginfo>
									<labels>
										<label2/>
									</labels>
									<comments>
										<mastercomment1/>
										<mastercomment2/>
										<mastercomment3/>
										<mastercomment4/>
									</comments>
									<file id="YIN_2013-05-28_LG-4 "/>
									<filter>
										<effect>
											<name>Audio Levels</name>
											<effectid>audiolevels</effectid>
											<effectcategory>audiolevels</effectcategory>
											<effecttype>audiolevels</effecttype>
											<mediatype>audio</mediatype>
											<parameter>
												<name>Level</name>
												<parameterid>level</parameterid>
												<valuemin>0</valuemin>
												<valuemax>3.98109</valuemax>
												<value>1.78342</value>
											</parameter>
										</effect>
									</filter>
									<filter>
										<effect>
											<name>Audio Pan</name>
											<effectid>audiopan</effectid>
											<effectcategory>audiopan</effectcategory>
											<effecttype>audiopan</effecttype>
											<mediatype>audio</mediatype>
											<parameter>
												<name>Pan</name>
												<parameterid>pan</parameterid>
												<valuemin>-1</valuemin>
												<valuemax>1</valuemax>
												<value>0</value>
											</parameter>
										</effect>
									</filter>
									<sourcetrack>
										<mediatype>audio</mediatype>
										<trackindex>1</trackindex>
									</sourcetrack>
									<link>
										<linkclipref>Raw Scene Matthew Duepner Walkabout441</linkclipref>
										<mediatype>video</mediatype>
										<trackindex>2</trackindex>
										<clipindex>49</clipindex>
									</link>
									<link>
										<linkclipref>Raw Scene Matthew Duepner Walkabout442</linkclipref>
										<mediatype>audio</mediatype>
										<trackindex>5</trackindex>
										<clipindex>44</clipindex>
										<groupindex>1</groupindex>
									</link>
									<link>
										<linkclipref>Raw Scene Matthew Duepner Walkabout443</linkclipref>
										<mediatype>audio</mediatype>
										<trackindex>6</trackindex>
										<clipindex>44</clipindex>
										<groupindex>1</groupindex>
									</link>
									<itemhistory>
										<uuid>1032D398-7732-4A3C-AE98-ADCDFFBF0780</uuid>
									</itemhistory>
								</clipitem>
								<clipitem id="Raw Scene Matthew Duepner Walkabout445">
									<name>Raw Scene Matthew Duepner Walkabout</name>
									<duration>38484</duration>
									<rate>
										<ntsc>TRUE</ntsc>
										<timebase>24</timebase>
									</rate>
									<in>31032</in>
									<out>31190</out>
									<start>7511</start>
									<end>7669</end>
									<masterclipid>Raw Scene Matthew Duepner Walkabout234</masterclipid>
									<logginginfo>
										<scene/>
										<shottake/>
										<lognote/>
										<good>FALSE</good>
									</logginginfo>
									<labels>
										<label2/>
									</labels>
									<comments>
										<mastercomment1/>
										<mastercomment2/>
										<mastercomment3/>
										<mastercomment4/>
									</comments>
									<file id="YIN_2013-05-28_LG-4 "/>
									<filter>
										<effect>
											<name>Audio Levels</name>
											<effectid>audiolevels</effectid>
											<effectcategory>audiolevels</effectcategory>
											<effecttype>audiolevels</effecttype>
											<mediatype>audio</mediatype>
											<parameter>
												<name>Level</name>
												<parameterid>level</parameterid>
												<valuemin>0</valuemin>
												<valuemax>3.98109</valuemax>
												<value>1.78342</value>
											</parameter>
										</effect>
									</filter>
									<filter>
										<effect>
											<name>Audio Pan</name>
											<effectid>audiopan</effectid>
											<effectcategory>audiopan</effectcategory>
											<effecttype>audiopan</effecttype>
											<mediatype>audio</mediatype>
											<parameter>
												<name>Pan</name>
												<parameterid>pan</parameterid>
												<valuemin>-1</valuemin>
												<valuemax>1</valuemax>
												<value>0</value>
											</parameter>
										</effect>
									</filter>
									<sourcetrack>
										<mediatype>audio</mediatype>
										<trackindex>1</trackindex>
									</sourcetrack>
									<link>
										<linkclipref>Raw Scene Matthew Duepner Walkabout444</linkclipref>
										<mediatype>video</mediatype>
										<trackindex>2</trackindex>
										<clipindex>50</clipindex>
									</link>
									<link>
										<linkclipref>Raw Scene Matthew Duepner Walkabout445</linkclipref>
										<mediatype>audio</mediatype>
										<trackindex>5</trackindex>
										<clipindex>45</clipindex>
										<groupindex>1</groupindex>
									</link>
									<link>
										<linkclipref>Raw Scene Matthew Duepner Walkabout446</linkclipref>
										<mediatype>audio</mediatype>
										<trackindex>6</trackindex>
										<clipindex>45</clipindex>
										<groupindex>1</groupindex>
									</link>
									<itemhistory>
										<uuid>57FB60FA-38FC-416C-93F5-DD75FBBABA82</uuid>
									</itemhistory>
								</clipitem>
								<clipitem id="Raw Scene Matthew Duepner Walkabout448">
									<name>Raw Scene Matthew Duepner Walkabout</name>
									<duration>38484</duration>
									<rate>
										<ntsc>TRUE</ntsc>
										<timebase>24</timebase>
									</rate>
									<in>31795</in>
									<out>31917</out>
									<start>7669</start>
									<end>7791</end>
									<masterclipid>Raw Scene Matthew Duepner Walkabout234</masterclipid>
									<logginginfo>
										<scene/>
										<shottake/>
										<lognote/>
										<good>FALSE</good>
									</logginginfo>
									<labels>
										<label2/>
									</labels>
									<comments>
										<mastercomment1/>
										<mastercomment2/>
										<mastercomment3/>
										<mastercomment4/>
									</comments>
									<file id="YIN_2013-05-28_LG-4 "/>
									<filter>
										<effect>
											<name>Audio Levels</name>
											<effectid>audiolevels</effectid>
											<effectcategory>audiolevels</effectcategory>
											<effecttype>audiolevels</effecttype>
											<mediatype>audio</mediatype>
											<parameter>
												<name>Level</name>
												<parameterid>level</parameterid>
												<valuemin>0</valuemin>
												<valuemax>3.98109</valuemax>
												<value>1.78342</value>
											</parameter>
										</effect>
									</filter>
									<filter>
										<effect>
											<name>Audio Pan</name>
											<effectid>audiopan</effectid>
											<effectcategory>audiopan</effectcategory>
											<effecttype>audiopan</effecttype>
											<mediatype>audio</mediatype>
											<parameter>
												<name>Pan</name>
												<parameterid>pan</parameterid>
												<valuemin>-1</valuemin>
												<valuemax>1</valuemax>
												<value>0</value>
											</parameter>
										</effect>
									</filter>
									<sourcetrack>
										<mediatype>audio</mediatype>
										<trackindex>1</trackindex>
									</sourcetrack>
									<link>
										<linkclipref>Raw Scene Matthew Duepner Walkabout447</linkclipref>
										<mediatype>video</mediatype>
										<trackindex>2</trackindex>
										<clipindex>51</clipindex>
									</link>
									<link>
										<linkclipref>Raw Scene Matthew Duepner Walkabout448</linkclipref>
										<mediatype>audio</mediatype>
										<trackindex>5</trackindex>
										<clipindex>46</clipindex>
										<groupindex>1</groupindex>
									</link>
									<link>
										<linkclipref>Raw Scene Matthew Duepner Walkabout449</linkclipref>
										<mediatype>audio</mediatype>
										<trackindex>6</trackindex>
										<clipindex>46</clipindex>
										<groupindex>1</groupindex>
									</link>
									<itemhistory>
										<uuid>33BB62D8-3AAC-43E9-80AE-02F8432D8C55</uuid>
									</itemhistory>
								</clipitem>
								<clipitem id="Raw Scene Matthew Duepner Walkabout451">
									<name>Raw Scene Matthew Duepner Walkabout</name>
									<duration>38484</duration>
									<rate>
										<ntsc>TRUE</ntsc>
										<timebase>24</timebase>
									</rate>
									<in>32375</in>
									<out>32507</out>
									<start>7791</start>
									<end>7923</end>
									<masterclipid>Raw Scene Matthew Duepner Walkabout234</masterclipid>
									<logginginfo>
										<scene/>
										<shottake/>
										<lognote/>
										<good>FALSE</good>
									</logginginfo>
									<labels>
										<label2/>
									</labels>
									<comments>
										<mastercomment1/>
										<mastercomment2/>
										<mastercomment3/>
										<mastercomment4/>
									</comments>
									<file id="YIN_2013-05-28_LG-4 "/>
									<filter>
										<effect>
											<name>Audio Levels</name>
											<effectid>audiolevels</effectid>
											<effectcategory>audiolevels</effectcategory>
											<effecttype>audiolevels</effecttype>
											<mediatype>audio</mediatype>
											<parameter>
												<name>Level</name>
												<parameterid>level</parameterid>
												<valuemin>0</valuemin>
												<valuemax>3.98109</valuemax>
												<value>1.78342</value>
											</parameter>
										</effect>
									</filter>
									<filter>
										<effect>
											<name>Audio Pan</name>
											<effectid>audiopan</effectid>
											<effectcategory>audiopan</effectcategory>
											<effecttype>audiopan</effecttype>
											<mediatype>audio</mediatype>
											<parameter>
												<name>Pan</name>
												<parameterid>pan</parameterid>
												<valuemin>-1</valuemin>
												<valuemax>1</valuemax>
												<value>0</value>
											</parameter>
										</effect>
									</filter>
									<sourcetrack>
										<mediatype>audio</mediatype>
										<trackindex>1</trackindex>
									</sourcetrack>
									<link>
										<linkclipref>Raw Scene Matthew Duepner Walkabout450</linkclipref>
										<mediatype>video</mediatype>
										<trackindex>2</trackindex>
										<clipindex>52</clipindex>
									</link>
									<link>
										<linkclipref>Raw Scene Matthew Duepner Walkabout451</linkclipref>
										<mediatype>audio</mediatype>
										<trackindex>5</trackindex>
										<clipindex>47</clipindex>
										<groupindex>1</groupindex>
									</link>
									<link>
										<linkclipref>Raw Scene Matthew Duepner Walkabout452</linkclipref>
										<mediatype>audio</mediatype>
										<trackindex>6</trackindex>
										<clipindex>47</clipindex>
										<groupindex>1</groupindex>
									</link>
									<itemhistory>
										<uuid>546647E7-2666-4A4A-AFE8-A7FFBBABA00C</uuid>
									</itemhistory>
								</clipitem>
								<clipitem id="Raw Scene Matthew Duepner Walkabout454">
									<name>Raw Scene Matthew Duepner Walkabout</name>
									<duration>38484</duration>
									<rate>
										<ntsc>TRUE</ntsc>
										<timebase>24</timebase>
									</rate>
									<in>32997</in>
									<out>33142</out>
									<start>7923</start>
									<end>8068</end>
									<masterclipid>Raw Scene Matthew Duepner Walkabout234</masterclipid>
									<logginginfo>
										<scene/>
										<shottake/>
										<lognote/>
										<good>FALSE</good>
									</logginginfo>
									<labels>
										<label2/>
									</labels>
									<comments>
										<mastercomment1/>
										<mastercomment2/>
										<mastercomment3/>
										<mastercomment4/>
									</comments>
									<file id="YIN_2013-05-28_LG-4 "/>
									<filter>
										<effect>
											<name>Audio Levels</name>
											<effectid>audiolevels</effectid>
											<effectcategory>audiolevels</effectcategory>
											<effecttype>audiolevels</effecttype>
											<mediatype>audio</mediatype>
											<parameter>
												<name>Level</name>
												<parameterid>level</parameterid>
												<valuemin>0</valuemin>
												<valuemax>3.98109</valuemax>
												<value>1.78342</value>
											</parameter>
										</effect>
									</filter>
									<filter>
										<effect>
											<name>Audio Pan</name>
											<effectid>audiopan</effectid>
											<effectcategory>audiopan</effectcategory>
											<effecttype>audiopan</effecttype>
											<mediatype>audio</mediatype>
											<parameter>
												<name>Pan</name>
												<parameterid>pan</parameterid>
												<valuemin>-1</valuemin>
												<valuemax>1</valuemax>
												<value>0</value>
											</parameter>
										</effect>
									</filter>
									<sourcetrack>
										<mediatype>audio</mediatype>
										<trackindex>1</trackindex>
									</sourcetrack>
									<link>
										<linkclipref>Raw Scene Matthew Duepner Walkabout453</linkclipref>
										<mediatype>video</mediatype>
										<trackindex>2</trackindex>
										<clipindex>53</clipindex>
									</link>
									<link>
										<linkclipref>Raw Scene Matthew Duepner Walkabout454</linkclipref>
										<mediatype>audio</mediatype>
										<trackindex>5</trackindex>
										<clipindex>48</clipindex>
										<groupindex>1</groupindex>
									</link>
									<link>
										<linkclipref>Raw Scene Matthew Duepner Walkabout455</linkclipref>
										<mediatype>audio</mediatype>
										<trackindex>6</trackindex>
										<clipindex>48</clipindex>
										<groupindex>1</groupindex>
									</link>
									<itemhistory>
										<uuid>77643C4E-CA1B-457E-B216-D2D6D20EF19A</uuid>
									</itemhistory>
								</clipitem>
								<clipitem id="Raw Scene Matthew Duepner Walkabout457">
									<name>Raw Scene Matthew Duepner Walkabout</name>
									<duration>38484</duration>
									<rate>
										<ntsc>TRUE</ntsc>
										<timebase>24</timebase>
									</rate>
									<in>37446</in>
									<out>37533</out>
									<start>8068</start>
									<end>8155</end>
									<masterclipid>Raw Scene Matthew Duepner Walkabout234</masterclipid>
									<logginginfo>
										<scene/>
										<shottake/>
										<lognote/>
										<good>FALSE</good>
									</logginginfo>
									<labels>
										<label2/>
									</labels>
									<comments>
										<mastercomment1/>
										<mastercomment2/>
										<mastercomment3/>
										<mastercomment4/>
									</comments>
									<file id="YIN_2013-05-28_LG-4 "/>
									<filter>
										<effect>
											<name>Audio Levels</name>
											<effectid>audiolevels</effectid>
											<effectcategory>audiolevels</effectcategory>
											<effecttype>audiolevels</effecttype>
											<mediatype>audio</mediatype>
											<parameter>
												<name>Level</name>
												<parameterid>level</parameterid>
												<valuemin>0</valuemin>
												<valuemax>3.98109</valuemax>
												<value>1.78342</value>
											</parameter>
										</effect>
									</filter>
									<filter>
										<effect>
											<name>Audio Pan</name>
											<effectid>audiopan</effectid>
											<effectcategory>audiopan</effectcategory>
											<effecttype>audiopan</effecttype>
											<mediatype>audio</mediatype>
											<parameter>
												<name>Pan</name>
												<parameterid>pan</parameterid>
												<valuemin>-1</valuemin>
												<valuemax>1</valuemax>
												<value>0</value>
											</parameter>
										</effect>
									</filter>
									<sourcetrack>
										<mediatype>audio</mediatype>
										<trackindex>1</trackindex>
									</sourcetrack>
									<link>
										<linkclipref>Raw Scene Matthew Duepner Walkabout456</linkclipref>
										<mediatype>video</mediatype>
										<trackindex>2</trackindex>
										<clipindex>54</clipindex>
									</link>
									<link>
										<linkclipref>Raw Scene Matthew Duepner Walkabout457</linkclipref>
										<mediatype>audio</mediatype>
										<trackindex>5</trackindex>
										<clipindex>49</clipindex>
										<groupindex>1</groupindex>
									</link>
									<link>
										<linkclipref>Raw Scene Matthew Duepner Walkabout458</linkclipref>
										<mediatype>audio</mediatype>
										<trackindex>6</trackindex>
										<clipindex>49</clipindex>
										<groupindex>1</groupindex>
									</link>
									<itemhistory>
										<uuid>919147D7-C989-4A48-9E53-ADC583463097</uuid>
									</itemhistory>
								</clipitem>
								<clipitem id="Raw Scene Matthew Duepner Walkabout460">
									<name>Raw Scene Matthew Duepner Walkabout</name>
									<duration>38484</duration>
									<rate>
										<ntsc>TRUE</ntsc>
										<timebase>24</timebase>
									</rate>
									<in>36124</in>
									<out>36168</out>
									<start>8155</start>
									<end>8199</end>
									<masterclipid>Raw Scene Matthew Duepner Walkabout234</masterclipid>
									<logginginfo>
										<scene/>
										<shottake/>
										<lognote/>
										<good>FALSE</good>
									</logginginfo>
									<labels>
										<label2/>
									</labels>
									<comments>
										<mastercomment1/>
										<mastercomment2/>
										<mastercomment3/>
										<mastercomment4/>
									</comments>
									<file id="YIN_2013-05-28_LG-4 "/>
									<filter>
										<effect>
											<name>Audio Levels</name>
											<effectid>audiolevels</effectid>
											<effectcategory>audiolevels</effectcategory>
											<effecttype>audiolevels</effecttype>
											<mediatype>audio</mediatype>
											<parameter>
												<name>Level</name>
												<parameterid>level</parameterid>
												<valuemin>0</valuemin>
												<valuemax>3.98109</valuemax>
												<value>1.78342</value>
											</parameter>
										</effect>
									</filter>
									<filter>
										<effect>
											<name>Audio Pan</name>
											<effectid>audiopan</effectid>
											<effectcategory>audiopan</effectcategory>
											<effecttype>audiopan</effecttype>
											<mediatype>audio</mediatype>
											<parameter>
												<name>Pan</name>
												<parameterid>pan</parameterid>
												<valuemin>-1</valuemin>
												<valuemax>1</valuemax>
												<value>0</value>
											</parameter>
										</effect>
									</filter>
									<sourcetrack>
										<mediatype>audio</mediatype>
										<trackindex>1</trackindex>
									</sourcetrack>
									<link>
										<linkclipref>Raw Scene Matthew Duepner Walkabout459</linkclipref>
										<mediatype>video</mediatype>
										<trackindex>2</trackindex>
										<clipindex>55</clipindex>
									</link>
									<link>
										<linkclipref>Raw Scene Matthew Duepner Walkabout460</linkclipref>
										<mediatype>audio</mediatype>
										<trackindex>5</trackindex>
										<clipindex>50</clipindex>
										<groupindex>1</groupindex>
									</link>
									<link>
										<linkclipref>Raw Scene Matthew Duepner Walkabout461</linkclipref>
										<mediatype>audio</mediatype>
										<trackindex>6</trackindex>
										<clipindex>50</clipindex>
										<groupindex>1</groupindex>
									</link>
									<itemhistory>
										<uuid>5BDF74F9-CCCD-46E2-A27E-E8422BB1571F</uuid>
									</itemhistory>
								</clipitem>
								<clipitem id="Raw Scene Matthew Duepner Walkabout463">
									<name>Raw Scene Matthew Duepner Walkabout</name>
									<duration>38484</duration>
									<rate>
										<ntsc>TRUE</ntsc>
										<timebase>24</timebase>
									</rate>
									<in>36397</in>
									<out>36474</out>
									<start>8199</start>
									<end>8276</end>
									<masterclipid>Raw Scene Matthew Duepner Walkabout234</masterclipid>
									<logginginfo>
										<scene/>
										<shottake/>
										<lognote/>
										<good>FALSE</good>
									</logginginfo>
									<labels>
										<label2/>
									</labels>
									<comments>
										<mastercomment1/>
										<mastercomment2/>
										<mastercomment3/>
										<mastercomment4/>
									</comments>
									<file id="YIN_2013-05-28_LG-4 "/>
									<filter>
										<effect>
											<name>Audio Levels</name>
											<effectid>audiolevels</effectid>
											<effectcategory>audiolevels</effectcategory>
											<effecttype>audiolevels</effecttype>
											<mediatype>audio</mediatype>
											<parameter>
												<name>Level</name>
												<parameterid>level</parameterid>
												<valuemin>0</valuemin>
												<valuemax>3.98109</valuemax>
												<value>1.78342</value>
											</parameter>
										</effect>
									</filter>
									<filter>
										<effect>
											<name>Audio Pan</name>
											<effectid>audiopan</effectid>
											<effectcategory>audiopan</effectcategory>
											<effecttype>audiopan</effecttype>
											<mediatype>audio</mediatype>
											<parameter>
												<name>Pan</name>
												<parameterid>pan</parameterid>
												<valuemin>-1</valuemin>
												<valuemax>1</valuemax>
												<value>0</value>
											</parameter>
										</effect>
									</filter>
									<sourcetrack>
										<mediatype>audio</mediatype>
										<trackindex>1</trackindex>
									</sourcetrack>
									<link>
										<linkclipref>Raw Scene Matthew Duepner Walkabout462</linkclipref>
										<mediatype>video</mediatype>
										<trackindex>2</trackindex>
										<clipindex>56</clipindex>
									</link>
									<link>
										<linkclipref>Raw Scene Matthew Duepner Walkabout463</linkclipref>
										<mediatype>audio</mediatype>
										<trackindex>5</trackindex>
										<clipindex>51</clipindex>
										<groupindex>1</groupindex>
									</link>
									<link>
										<linkclipref>Raw Scene Matthew Duepner Walkabout464</linkclipref>
										<mediatype>audio</mediatype>
										<trackindex>6</trackindex>
										<clipindex>51</clipindex>
										<groupindex>1</groupindex>
									</link>
									<itemhistory>
										<uuid>47DA4ED6-65CC-48E7-A98F-A783F3894058</uuid>
									</itemhistory>
								</clipitem>
								<clipitem id="Raw Scene Matthew Duepner Walkabout466">
									<name>Raw Scene Matthew Duepner Walkabout</name>
									<duration>38484</duration>
									<rate>
										<ntsc>TRUE</ntsc>
										<timebase>24</timebase>
									</rate>
									<in>37856</in>
									<out>37874</out>
									<start>8276</start>
									<end>8294</end>
									<masterclipid>Raw Scene Matthew Duepner Walkabout234</masterclipid>
									<logginginfo>
										<scene/>
										<shottake/>
										<lognote/>
										<good>FALSE</good>
									</logginginfo>
									<labels>
										<label2/>
									</labels>
									<comments>
										<mastercomment1/>
										<mastercomment2/>
										<mastercomment3/>
										<mastercomment4/>
									</comments>
									<file id="YIN_2013-05-28_LG-4 "/>
									<filter>
										<effect>
											<name>Audio Levels</name>
											<effectid>audiolevels</effectid>
											<effectcategory>audiolevels</effectcategory>
											<effecttype>audiolevels</effecttype>
											<mediatype>audio</mediatype>
											<parameter>
												<name>Level</name>
												<parameterid>level</parameterid>
												<valuemin>0</valuemin>
												<valuemax>3.98109</valuemax>
												<value>1.78342</value>
											</parameter>
										</effect>
									</filter>
									<filter>
										<effect>
											<name>Audio Pan</name>
											<effectid>audiopan</effectid>
											<effectcategory>audiopan</effectcategory>
											<effecttype>audiopan</effecttype>
											<mediatype>audio</mediatype>
											<parameter>
												<name>Pan</name>
												<parameterid>pan</parameterid>
												<valuemin>-1</valuemin>
												<valuemax>1</valuemax>
												<value>0</value>
											</parameter>
										</effect>
									</filter>
									<sourcetrack>
										<mediatype>audio</mediatype>
										<trackindex>1</trackindex>
									</sourcetrack>
									<link>
										<linkclipref>Raw Scene Matthew Duepner Walkabout465</linkclipref>
										<mediatype>video</mediatype>
										<trackindex>2</trackindex>
										<clipindex>57</clipindex>
									</link>
									<link>
										<linkclipref>Raw Scene Matthew Duepner Walkabout466</linkclipref>
										<mediatype>audio</mediatype>
										<trackindex>5</trackindex>
										<clipindex>52</clipindex>
										<groupindex>1</groupindex>
									</link>
									<link>
										<linkclipref>Raw Scene Matthew Duepner Walkabout467</linkclipref>
										<mediatype>audio</mediatype>
										<trackindex>6</trackindex>
										<clipindex>52</clipindex>
										<groupindex>1</groupindex>
									</link>
									<itemhistory>
										<uuid>E0651BE8-EF51-4328-AD6A-E6972D94D4D2</uuid>
									</itemhistory>
								</clipitem>
								<clipitem id="Raw Scene Matthew Duepner Walkabout469">
									<name>Raw Scene Matthew Duepner Walkabout</name>
									<duration>38484</duration>
									<rate>
										<ntsc>TRUE</ntsc>
										<timebase>24</timebase>
									</rate>
									<in>38389</in>
									<out>38476</out>
									<start>8294</start>
									<end>8381</end>
									<masterclipid>Raw Scene Matthew Duepner Walkabout234</masterclipid>
									<logginginfo>
										<scene/>
										<shottake/>
										<lognote/>
										<good>FALSE</good>
									</logginginfo>
									<labels>
										<label2/>
									</labels>
									<comments>
										<mastercomment1/>
										<mastercomment2/>
										<mastercomment3/>
										<mastercomment4/>
									</comments>
									<file id="YIN_2013-05-28_LG-4 "/>
									<filter>
										<effect>
											<name>Audio Levels</name>
											<effectid>audiolevels</effectid>
											<effectcategory>audiolevels</effectcategory>
											<effecttype>audiolevels</effecttype>
											<mediatype>audio</mediatype>
											<parameter>
												<name>Level</name>
												<parameterid>level</parameterid>
												<valuemin>0</valuemin>
												<valuemax>3.98109</valuemax>
												<value>1.78342</value>
											</parameter>
										</effect>
									</filter>
									<filter>
										<effect>
											<name>Audio Pan</name>
											<effectid>audiopan</effectid>
											<effectcategory>audiopan</effectcategory>
											<effecttype>audiopan</effecttype>
											<mediatype>audio</mediatype>
											<parameter>
												<name>Pan</name>
												<parameterid>pan</parameterid>
												<valuemin>-1</valuemin>
												<valuemax>1</valuemax>
												<value>0</value>
											</parameter>
										</effect>
									</filter>
									<sourcetrack>
										<mediatype>audio</mediatype>
										<trackindex>1</trackindex>
									</sourcetrack>
									<link>
										<linkclipref>Raw Scene Matthew Duepner Walkabout468</linkclipref>
										<mediatype>video</mediatype>
										<trackindex>2</trackindex>
										<clipindex>58</clipindex>
									</link>
									<link>
										<linkclipref>Raw Scene Matthew Duepner Walkabout469</linkclipref>
										<mediatype>audio</mediatype>
										<trackindex>5</trackindex>
										<clipindex>53</clipindex>
										<groupindex>1</groupindex>
									</link>
									<link>
										<linkclipref>Raw Scene Matthew Duepner Walkabout470</linkclipref>
										<mediatype>audio</mediatype>
										<trackindex>6</trackindex>
										<clipindex>53</clipindex>
										<groupindex>1</groupindex>
									</link>
									<itemhistory>
										<uuid>B7D2A25E-8EA4-4802-93D4-CDF76B1F3621</uuid>
									</itemhistory>
								</clipitem>
								<enabled>TRUE</enabled>
								<locked>FALSE</locked>
								<outputchannelindex>1</outputchannelindex>
							</track>
							<track>
								<transitionitem>
									<rate>
										<ntsc>TRUE</ntsc>
										<timebase>24</timebase>
									</rate>
									<start>0</start>
									<end>24</end>
									<alignment>start</alignment>
									<effect>
										<name>Cross Fade ( 0dB)</name>
										<effectid>KGAudioTransCrossFade0dB</effectid>
										<effecttype>transition</effecttype>
										<mediatype>audio</mediatype>
										<startratio>0</startratio>
										<endratio>1</endratio>
										<reverse>FALSE</reverse>
									</effect>
								</transitionitem>
								<clipitem id="Raw B Roll Hack Manhattan Matthew Duepner's House112">
									<name>Raw B Roll Hack Manhattan Matthew Duepner's House</name>
									<duration>6617</duration>
									<rate>
										<ntsc>TRUE</ntsc>
										<timebase>24</timebase>
									</rate>
									<in>5680</in>
									<out>5788</out>
									<start>-1</start>
									<end>-1</end>
									<masterclipid>Raw B Roll Hack Manhattan Matthew Duepner's House1</masterclipid>
									<logginginfo>
										<scene/>
										<shottake/>
										<lognote/>
										<good>FALSE</good>
									</logginginfo>
									<labels>
										<label2/>
									</labels>
									<comments>
										<mastercomment1/>
										<mastercomment2/>
										<mastercomment3/>
										<mastercomment4/>
									</comments>
									<file id="YIN_2013-04-28_JB-1 "/>
									<filter>
										<effect>
											<name>Audio Levels</name>
											<effectid>audiolevels</effectid>
											<effectcategory>audiolevels</effectcategory>
											<effecttype>audiolevels</effecttype>
											<mediatype>audio</mediatype>
											<parameter>
												<name>Level</name>
												<parameterid>level</parameterid>
												<valuemin>0</valuemin>
												<valuemax>3.98109</valuemax>
												<value>1.9718</value>
											</parameter>
										</effect>
									</filter>
									<filter>
										<effect>
											<name>Audio Pan</name>
											<effectid>audiopan</effectid>
											<effectcategory>audiopan</effectcategory>
											<effecttype>audiopan</effecttype>
											<mediatype>audio</mediatype>
											<parameter>
												<name>Pan</name>
												<parameterid>pan</parameterid>
												<valuemin>-1</valuemin>
												<valuemax>1</valuemax>
												<value>-0</value>
											</parameter>
										</effect>
									</filter>
									<sourcetrack>
										<mediatype>audio</mediatype>
										<trackindex>2</trackindex>
									</sourcetrack>
									<link>
										<linkclipref>Raw B Roll Hack Manhattan Matthew Duepner's House110</linkclipref>
										<mediatype>video</mediatype>
										<trackindex>2</trackindex>
										<clipindex>1</clipindex>
									</link>
									<link>
										<linkclipref>Raw B Roll Hack Manhattan Matthew Duepner's House111</linkclipref>
										<mediatype>audio</mediatype>
										<trackindex>5</trackindex>
										<clipindex>2</clipindex>
										<groupindex>1</groupindex>
									</link>
									<link>
										<linkclipref>Raw B Roll Hack Manhattan Matthew Duepner's House112</linkclipref>
										<mediatype>audio</mediatype>
										<trackindex>6</trackindex>
										<clipindex>2</clipindex>
										<groupindex>1</groupindex>
									</link>
									<itemhistory>
										<uuid>722921D0-20F8-4AE6-B40B-60625C1B21FD</uuid>
									</itemhistory>
								</clipitem>
								<transitionitem>
									<rate>
										<ntsc>TRUE</ntsc>
										<timebase>24</timebase>
									</rate>
									<start>84</start>
									<end>108</end>
									<alignment>center</alignment>
									<effect>
										<name>Cross Fade ( 0dB)</name>
										<effectid>KGAudioTransCrossFade0dB</effectid>
										<effecttype>transition</effecttype>
										<mediatype>audio</mediatype>
										<startratio>0</startratio>
										<endratio>1</endratio>
										<reverse>FALSE</reverse>
									</effect>
								</transitionitem>
								<clipitem id="Raw B Roll Hack Manhattan Matthew Duepner's House157">
									<name>Raw B Roll Hack Manhattan Matthew Duepner's House</name>
									<duration>6617</duration>
									<rate>
										<ntsc>TRUE</ntsc>
										<timebase>24</timebase>
									</rate>
									<in>5668</in>
									<out>5791</out>
									<start>-1</start>
									<end>-1</end>
									<masterclipid>Raw B Roll Hack Manhattan Matthew Duepner's House1</masterclipid>
									<logginginfo>
										<scene/>
										<shottake/>
										<lognote/>
										<good>FALSE</good>
									</logginginfo>
									<labels>
										<label2/>
									</labels>
									<comments>
										<mastercomment1/>
										<mastercomment2/>
										<mastercomment3/>
										<mastercomment4/>
									</comments>
									<file id="YIN_2013-04-28_JB-1 "/>
									<filter>
										<effect>
											<name>Audio Levels</name>
											<effectid>audiolevels</effectid>
											<effectcategory>audiolevels</effectcategory>
											<effecttype>audiolevels</effecttype>
											<mediatype>audio</mediatype>
											<parameter>
												<name>Level</name>
												<parameterid>level</parameterid>
												<valuemin>0</valuemin>
												<valuemax>3.98109</valuemax>
												<value>1.9718</value>
											</parameter>
										</effect>
									</filter>
									<filter>
										<effect>
											<name>Audio Pan</name>
											<effectid>audiopan</effectid>
											<effectcategory>audiopan</effectcategory>
											<effecttype>audiopan</effecttype>
											<mediatype>audio</mediatype>
											<parameter>
												<name>Pan</name>
												<parameterid>pan</parameterid>
												<valuemin>-1</valuemin>
												<valuemax>1</valuemax>
												<value>-0</value>
											</parameter>
										</effect>
									</filter>
									<sourcetrack>
										<mediatype>audio</mediatype>
										<trackindex>2</trackindex>
									</sourcetrack>
									<link>
										<linkclipref>Raw B Roll Hack Manhattan Matthew Duepner's House156</linkclipref>
										<mediatype>audio</mediatype>
										<trackindex>5</trackindex>
										<clipindex>4</clipindex>
										<groupindex>1</groupindex>
									</link>
									<link>
										<linkclipref>Raw B Roll Hack Manhattan Matthew Duepner's House157</linkclipref>
										<mediatype>audio</mediatype>
										<trackindex>6</trackindex>
										<clipindex>4</clipindex>
										<groupindex>1</groupindex>
									</link>
									<itemhistory>
										<uuid>26C3EB9B-65E2-4D58-BF6A-78A2E2873587</uuid>
									</itemhistory>
								</clipitem>
								<transitionitem>
									<rate>
										<ntsc>TRUE</ntsc>
										<timebase>24</timebase>
									</rate>
									<start>183</start>
									<end>207</end>
									<alignment>center</alignment>
									<effect>
										<name>Cross Fade ( 0dB)</name>
										<effectid>KGAudioTransCrossFade0dB</effectid>
										<effecttype>transition</effecttype>
										<mediatype>audio</mediatype>
										<startratio>0</startratio>
										<endratio>1</endratio>
										<reverse>FALSE</reverse>
									</effect>
								</transitionitem>
								<clipitem id="Raw B Roll Hack Manhattan Matthew Duepner's House116">
									<name>Raw B Roll Hack Manhattan Matthew Duepner's House</name>
									<duration>6617</duration>
									<rate>
										<ntsc>TRUE</ntsc>
										<timebase>24</timebase>
									</rate>
									<in>6518</in>
									<out>6600</out>
									<start>-1</start>
									<end>265</end>
									<masterclipid>Raw B Roll Hack Manhattan Matthew Duepner's House1</masterclipid>
									<logginginfo>
										<scene/>
										<shottake/>
										<lognote/>
										<good>FALSE</good>
									</logginginfo>
									<labels>
										<label2/>
									</labels>
									<comments>
										<mastercomment1/>
										<mastercomment2/>
										<mastercomment3/>
										<mastercomment4/>
									</comments>
									<file id="YIN_2013-04-28_JB-1 "/>
									<filter>
										<effect>
											<name>Audio Levels</name>
											<effectid>audiolevels</effectid>
											<effectcategory>audiolevels</effectcategory>
											<effecttype>audiolevels</effecttype>
											<mediatype>audio</mediatype>
											<parameter>
												<name>Level</name>
												<parameterid>level</parameterid>
												<valuemin>0</valuemin>
												<valuemax>3.98109</valuemax>
												<value>1.9718</value>
											</parameter>
										</effect>
									</filter>
									<filter>
										<effect>
											<name>Audio Pan</name>
											<effectid>audiopan</effectid>
											<effectcategory>audiopan</effectcategory>
											<effecttype>audiopan</effecttype>
											<mediatype>audio</mediatype>
											<parameter>
												<name>Pan</name>
												<parameterid>pan</parameterid>
												<valuemin>-1</valuemin>
												<valuemax>1</valuemax>
												<value>-0</value>
											</parameter>
										</effect>
									</filter>
									<sourcetrack>
										<mediatype>audio</mediatype>
										<trackindex>2</trackindex>
									</sourcetrack>
									<link>
										<linkclipref>Raw B Roll Hack Manhattan Matthew Duepner's House114</linkclipref>
										<mediatype>video</mediatype>
										<trackindex>2</trackindex>
										<clipindex>3</clipindex>
									</link>
									<link>
										<linkclipref>Raw B Roll Hack Manhattan Matthew Duepner's House115</linkclipref>
										<mediatype>audio</mediatype>
										<trackindex>5</trackindex>
										<clipindex>6</clipindex>
										<groupindex>1</groupindex>
									</link>
									<link>
										<linkclipref>Raw B Roll Hack Manhattan Matthew Duepner's House116</linkclipref>
										<mediatype>audio</mediatype>
										<trackindex>6</trackindex>
										<clipindex>6</clipindex>
										<groupindex>1</groupindex>
									</link>
									<itemhistory>
										<uuid>FFB57F17-F87E-44A1-B648-CB6F2734A59D</uuid>
									</itemhistory>
								</clipitem>
								<clipitem id="Raw B Roll Hack Manhattan Matthew Duepner's House119">
									<name>Raw B Roll Hack Manhattan Matthew Duepner's House</name>
									<duration>6617</duration>
									<rate>
										<ntsc>TRUE</ntsc>
										<timebase>24</timebase>
									</rate>
									<in>6074</in>
									<out>6140</out>
									<start>265</start>
									<end>331</end>
									<masterclipid>Raw B Roll Hack Manhattan Matthew Duepner's House1</masterclipid>
									<logginginfo>
										<scene/>
										<shottake/>
										<lognote/>
										<good>FALSE</good>
									</logginginfo>
									<labels>
										<label2/>
									</labels>
									<comments>
										<mastercomment1/>
										<mastercomment2/>
										<mastercomment3/>
										<mastercomment4/>
									</comments>
									<file id="YIN_2013-04-28_JB-1 "/>
									<filter>
										<effect>
											<name>Audio Levels</name>
											<effectid>audiolevels</effectid>
											<effectcategory>audiolevels</effectcategory>
											<effecttype>audiolevels</effecttype>
											<mediatype>audio</mediatype>
											<parameter>
												<name>Level</name>
												<parameterid>level</parameterid>
												<valuemin>0</valuemin>
												<valuemax>3.98109</valuemax>
												<value>1.9718</value>
											</parameter>
										</effect>
									</filter>
									<filter>
										<effect>
											<name>Audio Pan</name>
											<effectid>audiopan</effectid>
											<effectcategory>audiopan</effectcategory>
											<effecttype>audiopan</effecttype>
											<mediatype>audio</mediatype>
											<parameter>
												<name>Pan</name>
												<parameterid>pan</parameterid>
												<valuemin>-1</valuemin>
												<valuemax>1</valuemax>
												<value>-0</value>
											</parameter>
										</effect>
									</filter>
									<sourcetrack>
										<mediatype>audio</mediatype>
										<trackindex>2</trackindex>
									</sourcetrack>
									<link>
										<linkclipref>Raw B Roll Hack Manhattan Matthew Duepner's House117</linkclipref>
										<mediatype>video</mediatype>
										<trackindex>2</trackindex>
										<clipindex>4</clipindex>
									</link>
									<link>
										<linkclipref>Raw B Roll Hack Manhattan Matthew Duepner's House118</linkclipref>
										<mediatype>audio</mediatype>
										<trackindex>5</trackindex>
										<clipindex>7</clipindex>
										<groupindex>1</groupindex>
									</link>
									<link>
										<linkclipref>Raw B Roll Hack Manhattan Matthew Duepner's House119</linkclipref>
										<mediatype>audio</mediatype>
										<trackindex>6</trackindex>
										<clipindex>7</clipindex>
										<groupindex>1</groupindex>
									</link>
									<itemhistory>
										<uuid>1ED4587F-AEA5-4DCB-A6DC-1669D96CF780</uuid>
									</itemhistory>
								</clipitem>
								<clipitem id="Raw B Roll Hack Manhattan Matthew Duepner's House122">
									<name>Raw B Roll Hack Manhattan Matthew Duepner's House</name>
									<duration>6617</duration>
									<rate>
										<ntsc>TRUE</ntsc>
										<timebase>24</timebase>
									</rate>
									<in>5559</in>
									<out>5659</out>
									<start>331</start>
									<end>431</end>
									<masterclipid>Raw B Roll Hack Manhattan Matthew Duepner's House1</masterclipid>
									<logginginfo>
										<scene/>
										<shottake/>
										<lognote/>
										<good>FALSE</good>
									</logginginfo>
									<labels>
										<label2/>
									</labels>
									<comments>
										<mastercomment1/>
										<mastercomment2/>
										<mastercomment3/>
										<mastercomment4/>
									</comments>
									<file id="YIN_2013-04-28_JB-1 "/>
									<filter>
										<effect>
											<name>Audio Levels</name>
											<effectid>audiolevels</effectid>
											<effectcategory>audiolevels</effectcategory>
											<effecttype>audiolevels</effecttype>
											<mediatype>audio</mediatype>
											<parameter>
												<name>Level</name>
												<parameterid>level</parameterid>
												<valuemin>0</valuemin>
												<valuemax>3.98109</valuemax>
												<value>1.9718</value>
											</parameter>
										</effect>
									</filter>
									<filter>
										<effect>
											<name>Audio Pan</name>
											<effectid>audiopan</effectid>
											<effectcategory>audiopan</effectcategory>
											<effecttype>audiopan</effecttype>
											<mediatype>audio</mediatype>
											<parameter>
												<name>Pan</name>
												<parameterid>pan</parameterid>
												<valuemin>-1</valuemin>
												<valuemax>1</valuemax>
												<value>-0</value>
											</parameter>
										</effect>
									</filter>
									<sourcetrack>
										<mediatype>audio</mediatype>
										<trackindex>2</trackindex>
									</sourcetrack>
									<link>
										<linkclipref>Raw B Roll Hack Manhattan Matthew Duepner's House120</linkclipref>
										<mediatype>video</mediatype>
										<trackindex>2</trackindex>
										<clipindex>5</clipindex>
									</link>
									<link>
										<linkclipref>Raw B Roll Hack Manhattan Matthew Duepner's House121</linkclipref>
										<mediatype>audio</mediatype>
										<trackindex>5</trackindex>
										<clipindex>8</clipindex>
										<groupindex>1</groupindex>
									</link>
									<link>
										<linkclipref>Raw B Roll Hack Manhattan Matthew Duepner's House122</linkclipref>
										<mediatype>audio</mediatype>
										<trackindex>6</trackindex>
										<clipindex>8</clipindex>
										<groupindex>1</groupindex>
									</link>
									<itemhistory>
										<uuid>C51B907D-7B26-4F99-A7F4-E0F6B526FA46</uuid>
									</itemhistory>
								</clipitem>
								<clipitem id="Raw B Roll Hack Manhattan Matthew Duepner's House125">
									<name>Raw B Roll Hack Manhattan Matthew Duepner's House</name>
									<duration>6617</duration>
									<rate>
										<ntsc>TRUE</ntsc>
										<timebase>24</timebase>
									</rate>
									<in>5878</in>
									<out>5953</out>
									<start>431</start>
									<end>506</end>
									<masterclipid>Raw B Roll Hack Manhattan Matthew Duepner's House1</masterclipid>
									<logginginfo>
										<scene/>
										<shottake/>
										<lognote/>
										<good>FALSE</good>
									</logginginfo>
									<labels>
										<label2/>
									</labels>
									<comments>
										<mastercomment1/>
										<mastercomment2/>
										<mastercomment3/>
										<mastercomment4/>
									</comments>
									<file id="YIN_2013-04-28_JB-1 "/>
									<filter>
										<effect>
											<name>Audio Levels</name>
											<effectid>audiolevels</effectid>
											<effectcategory>audiolevels</effectcategory>
											<effecttype>audiolevels</effecttype>
											<mediatype>audio</mediatype>
											<parameter>
												<name>Level</name>
												<parameterid>level</parameterid>
												<valuemin>0</valuemin>
												<valuemax>3.98109</valuemax>
												<value>1.9718</value>
											</parameter>
										</effect>
									</filter>
									<filter>
										<effect>
											<name>Audio Pan</name>
											<effectid>audiopan</effectid>
											<effectcategory>audiopan</effectcategory>
											<effecttype>audiopan</effecttype>
											<mediatype>audio</mediatype>
											<parameter>
												<name>Pan</name>
												<parameterid>pan</parameterid>
												<valuemin>-1</valuemin>
												<valuemax>1</valuemax>
												<value>-0</value>
											</parameter>
										</effect>
									</filter>
									<sourcetrack>
										<mediatype>audio</mediatype>
										<trackindex>2</trackindex>
									</sourcetrack>
									<link>
										<linkclipref>Raw B Roll Hack Manhattan Matthew Duepner's House123</linkclipref>
										<mediatype>video</mediatype>
										<trackindex>2</trackindex>
										<clipindex>6</clipindex>
									</link>
									<link>
										<linkclipref>Raw B Roll Hack Manhattan Matthew Duepner's House124</linkclipref>
										<mediatype>audio</mediatype>
										<trackindex>5</trackindex>
										<clipindex>9</clipindex>
										<groupindex>1</groupindex>
									</link>
									<link>
										<linkclipref>Raw B Roll Hack Manhattan Matthew Duepner's House125</linkclipref>
										<mediatype>audio</mediatype>
										<trackindex>6</trackindex>
										<clipindex>9</clipindex>
										<groupindex>1</groupindex>
									</link>
									<itemhistory>
										<uuid>212DF9B5-66F9-479D-9768-DBE7F6C92615</uuid>
									</itemhistory>
								</clipitem>
								<clipitem id="Raw B Roll Hack Manhattan Matthew Duepner's House128">
									<name>Raw B Roll Hack Manhattan Matthew Duepner's House</name>
									<duration>6617</duration>
									<rate>
										<ntsc>TRUE</ntsc>
										<timebase>24</timebase>
									</rate>
									<in>4745</in>
									<out>4829</out>
									<start>506</start>
									<end>590</end>
									<masterclipid>Raw B Roll Hack Manhattan Matthew Duepner's House1</masterclipid>
									<logginginfo>
										<scene/>
										<shottake/>
										<lognote/>
										<good>FALSE</good>
									</logginginfo>
									<labels>
										<label2/>
									</labels>
									<comments>
										<mastercomment1/>
										<mastercomment2/>
										<mastercomment3/>
										<mastercomment4/>
									</comments>
									<file id="YIN_2013-04-28_JB-1 "/>
									<filter>
										<effect>
											<name>Audio Levels</name>
											<effectid>audiolevels</effectid>
											<effectcategory>audiolevels</effectcategory>
											<effecttype>audiolevels</effecttype>
											<mediatype>audio</mediatype>
											<parameter>
												<name>Level</name>
												<parameterid>level</parameterid>
												<valuemin>0</valuemin>
												<valuemax>3.98109</valuemax>
												<value>1.9718</value>
											</parameter>
										</effect>
									</filter>
									<filter>
										<effect>
											<name>Audio Pan</name>
											<effectid>audiopan</effectid>
											<effectcategory>audiopan</effectcategory>
											<effecttype>audiopan</effecttype>
											<mediatype>audio</mediatype>
											<parameter>
												<name>Pan</name>
												<parameterid>pan</parameterid>
												<valuemin>-1</valuemin>
												<valuemax>1</valuemax>
												<value>-0</value>
											</parameter>
										</effect>
									</filter>
									<sourcetrack>
										<mediatype>audio</mediatype>
										<trackindex>2</trackindex>
									</sourcetrack>
									<link>
										<linkclipref>Raw B Roll Hack Manhattan Matthew Duepner's House126</linkclipref>
										<mediatype>video</mediatype>
										<trackindex>2</trackindex>
										<clipindex>7</clipindex>
									</link>
									<link>
										<linkclipref>Raw B Roll Hack Manhattan Matthew Duepner's House127</linkclipref>
										<mediatype>audio</mediatype>
										<trackindex>5</trackindex>
										<clipindex>10</clipindex>
										<groupindex>1</groupindex>
									</link>
									<link>
										<linkclipref>Raw B Roll Hack Manhattan Matthew Duepner's House128</linkclipref>
										<mediatype>audio</mediatype>
										<trackindex>6</trackindex>
										<clipindex>10</clipindex>
										<groupindex>1</groupindex>
									</link>
									<itemhistory>
										<uuid>C34CE449-2414-49B1-A7EB-3D23CFE61510</uuid>
									</itemhistory>
								</clipitem>
								<clipitem id="Raw B Roll Hack Manhattan Matthew Duepner's House132">
									<name>Raw B Roll Hack Manhattan Matthew Duepner's House</name>
									<duration>6617</duration>
									<rate>
										<ntsc>TRUE</ntsc>
										<timebase>24</timebase>
									</rate>
									<in>2432</in>
									<out>2555</out>
									<start>667</start>
									<end>790</end>
									<masterclipid>Raw B Roll Hack Manhattan Matthew Duepner's House1</masterclipid>
									<logginginfo>
										<scene/>
										<shottake/>
										<lognote/>
										<good>FALSE</good>
									</logginginfo>
									<labels>
										<label2/>
									</labels>
									<comments>
										<mastercomment1/>
										<mastercomment2/>
										<mastercomment3/>
										<mastercomment4/>
									</comments>
									<file id="YIN_2013-04-28_JB-1 "/>
									<filter>
										<effect>
											<name>Audio Levels</name>
											<effectid>audiolevels</effectid>
											<effectcategory>audiolevels</effectcategory>
											<effecttype>audiolevels</effecttype>
											<mediatype>audio</mediatype>
											<parameter>
												<name>Level</name>
												<parameterid>level</parameterid>
												<valuemin>0</valuemin>
												<valuemax>3.98109</valuemax>
												<value>1.9718</value>
											</parameter>
										</effect>
									</filter>
									<filter>
										<effect>
											<name>Audio Pan</name>
											<effectid>audiopan</effectid>
											<effectcategory>audiopan</effectcategory>
											<effecttype>audiopan</effecttype>
											<mediatype>audio</mediatype>
											<parameter>
												<name>Pan</name>
												<parameterid>pan</parameterid>
												<valuemin>-1</valuemin>
												<valuemax>1</valuemax>
												<value>-0</value>
											</parameter>
										</effect>
									</filter>
									<sourcetrack>
										<mediatype>audio</mediatype>
										<trackindex>2</trackindex>
									</sourcetrack>
									<link>
										<linkclipref>Raw B Roll Hack Manhattan Matthew Duepner's House130</linkclipref>
										<mediatype>video</mediatype>
										<trackindex>2</trackindex>
										<clipindex>9</clipindex>
									</link>
									<link>
										<linkclipref>Raw B Roll Hack Manhattan Matthew Duepner's House131</linkclipref>
										<mediatype>audio</mediatype>
										<trackindex>5</trackindex>
										<clipindex>11</clipindex>
										<groupindex>1</groupindex>
									</link>
									<link>
										<linkclipref>Raw B Roll Hack Manhattan Matthew Duepner's House132</linkclipref>
										<mediatype>audio</mediatype>
										<trackindex>6</trackindex>
										<clipindex>11</clipindex>
										<groupindex>1</groupindex>
									</link>
									<itemhistory>
										<uuid>7B4D1D56-434C-4906-9EEA-D6FCCAB1C3C8</uuid>
									</itemhistory>
								</clipitem>
								<clipitem id="Raw B Roll Hack Manhattan Matthew Duepner's House135">
									<name>Raw B Roll Hack Manhattan Matthew Duepner's House</name>
									<duration>6617</duration>
									<rate>
										<ntsc>TRUE</ntsc>
										<timebase>24</timebase>
									</rate>
									<in>2733</in>
									<out>2884</out>
									<start>790</start>
									<end>941</end>
									<masterclipid>Raw B Roll Hack Manhattan Matthew Duepner's House1</masterclipid>
									<logginginfo>
										<scene/>
										<shottake/>
										<lognote/>
										<good>FALSE</good>
									</logginginfo>
									<labels>
										<label2/>
									</labels>
									<comments>
										<mastercomment1/>
										<mastercomment2/>
										<mastercomment3/>
										<mastercomment4/>
									</comments>
									<file id="YIN_2013-04-28_JB-1 "/>
									<filter>
										<effect>
											<name>Audio Levels</name>
											<effectid>audiolevels</effectid>
											<effectcategory>audiolevels</effectcategory>
											<effecttype>audiolevels</effecttype>
											<mediatype>audio</mediatype>
											<parameter>
												<name>Level</name>
												<parameterid>level</parameterid>
												<valuemin>0</valuemin>
												<valuemax>3.98109</valuemax>
												<value>1.9718</value>
											</parameter>
										</effect>
									</filter>
									<filter>
										<effect>
											<name>Audio Pan</name>
											<effectid>audiopan</effectid>
											<effectcategory>audiopan</effectcategory>
											<effecttype>audiopan</effecttype>
											<mediatype>audio</mediatype>
											<parameter>
												<name>Pan</name>
												<parameterid>pan</parameterid>
												<valuemin>-1</valuemin>
												<valuemax>1</valuemax>
												<value>-0</value>
											</parameter>
										</effect>
									</filter>
									<sourcetrack>
										<mediatype>audio</mediatype>
										<trackindex>2</trackindex>
									</sourcetrack>
									<link>
										<linkclipref>Raw B Roll Hack Manhattan Matthew Duepner's House133</linkclipref>
										<mediatype>video</mediatype>
										<trackindex>2</trackindex>
										<clipindex>10</clipindex>
									</link>
									<link>
										<linkclipref>Raw B Roll Hack Manhattan Matthew Duepner's House134</linkclipref>
										<mediatype>audio</mediatype>
										<trackindex>5</trackindex>
										<clipindex>12</clipindex>
										<groupindex>1</groupindex>
									</link>
									<link>
										<linkclipref>Raw B Roll Hack Manhattan Matthew Duepner's House135</linkclipref>
										<mediatype>audio</mediatype>
										<trackindex>6</trackindex>
										<clipindex>12</clipindex>
										<groupindex>1</groupindex>
									</link>
									<itemhistory>
										<uuid>9C29A1DC-0C53-48E8-9883-3D543C343F94</uuid>
									</itemhistory>
								</clipitem>
								<clipitem id="Raw B Roll Hack Manhattan Matthew Duepner's House138">
									<name>Raw B Roll Hack Manhattan Matthew Duepner's House</name>
									<duration>6617</duration>
									<rate>
										<ntsc>TRUE</ntsc>
										<timebase>24</timebase>
									</rate>
									<in>5318</in>
									<out>5486</out>
									<start>941</start>
									<end>1109</end>
									<masterclipid>Raw B Roll Hack Manhattan Matthew Duepner's House1</masterclipid>
									<logginginfo>
										<scene/>
										<shottake/>
										<lognote/>
										<good>FALSE</good>
									</logginginfo>
									<labels>
										<label2/>
									</labels>
									<comments>
										<mastercomment1/>
										<mastercomment2/>
										<mastercomment3/>
										<mastercomment4/>
									</comments>
									<file id="YIN_2013-04-28_JB-1 "/>
									<filter>
										<effect>
											<name>Audio Levels</name>
											<effectid>audiolevels</effectid>
											<effectcategory>audiolevels</effectcategory>
											<effecttype>audiolevels</effecttype>
											<mediatype>audio</mediatype>
											<parameter>
												<name>Level</name>
												<parameterid>level</parameterid>
												<valuemin>0</valuemin>
												<valuemax>3.98109</valuemax>
												<value>1.9718</value>
											</parameter>
										</effect>
									</filter>
									<filter>
										<effect>
											<name>Audio Pan</name>
											<effectid>audiopan</effectid>
											<effectcategory>audiopan</effectcategory>
											<effecttype>audiopan</effecttype>
											<mediatype>audio</mediatype>
											<parameter>
												<name>Pan</name>
												<parameterid>pan</parameterid>
												<valuemin>-1</valuemin>
												<valuemax>1</valuemax>
												<value>-0</value>
											</parameter>
										</effect>
									</filter>
									<sourcetrack>
										<mediatype>audio</mediatype>
										<trackindex>2</trackindex>
									</sourcetrack>
									<link>
										<linkclipref>Raw B Roll Hack Manhattan Matthew Duepner's House136</linkclipref>
										<mediatype>video</mediatype>
										<trackindex>2</trackindex>
										<clipindex>11</clipindex>
									</link>
									<link>
										<linkclipref>Raw B Roll Hack Manhattan Matthew Duepner's House137</linkclipref>
										<mediatype>audio</mediatype>
										<trackindex>5</trackindex>
										<clipindex>13</clipindex>
										<groupindex>1</groupindex>
									</link>
									<link>
										<linkclipref>Raw B Roll Hack Manhattan Matthew Duepner's House138</linkclipref>
										<mediatype>audio</mediatype>
										<trackindex>6</trackindex>
										<clipindex>13</clipindex>
										<groupindex>1</groupindex>
									</link>
									<itemhistory>
										<uuid>BCFE321F-3CBA-4C4E-8F0D-D58E8BA39814</uuid>
									</itemhistory>
								</clipitem>
								<clipitem id="Raw B Roll Hack Manhattan Matthew Duepner's House141">
									<name>Raw B Roll Hack Manhattan Matthew Duepner's House</name>
									<duration>6617</duration>
									<rate>
										<ntsc>TRUE</ntsc>
										<timebase>24</timebase>
									</rate>
									<in>2948</in>
									<out>3117</out>
									<start>1109</start>
									<end>1278</end>
									<masterclipid>Raw B Roll Hack Manhattan Matthew Duepner's House1</masterclipid>
									<logginginfo>
										<scene/>
										<shottake/>
										<lognote/>
										<good>FALSE</good>
									</logginginfo>
									<labels>
										<label2/>
									</labels>
									<comments>
										<mastercomment1/>
										<mastercomment2/>
										<mastercomment3/>
										<mastercomment4/>
									</comments>
									<file id="YIN_2013-04-28_JB-1 "/>
									<filter>
										<effect>
											<name>Audio Levels</name>
											<effectid>audiolevels</effectid>
											<effectcategory>audiolevels</effectcategory>
											<effecttype>audiolevels</effecttype>
											<mediatype>audio</mediatype>
											<parameter>
												<name>Level</name>
												<parameterid>level</parameterid>
												<valuemin>0</valuemin>
												<valuemax>3.98109</valuemax>
												<value>1.9718</value>
											</parameter>
										</effect>
									</filter>
									<filter>
										<effect>
											<name>Audio Pan</name>
											<effectid>audiopan</effectid>
											<effectcategory>audiopan</effectcategory>
											<effecttype>audiopan</effecttype>
											<mediatype>audio</mediatype>
											<parameter>
												<name>Pan</name>
												<parameterid>pan</parameterid>
												<valuemin>-1</valuemin>
												<valuemax>1</valuemax>
												<value>-0</value>
											</parameter>
										</effect>
									</filter>
									<sourcetrack>
										<mediatype>audio</mediatype>
										<trackindex>2</trackindex>
									</sourcetrack>
									<link>
										<linkclipref>Raw B Roll Hack Manhattan Matthew Duepner's House139</linkclipref>
										<mediatype>video</mediatype>
										<trackindex>2</trackindex>
										<clipindex>12</clipindex>
									</link>
									<link>
										<linkclipref>Raw B Roll Hack Manhattan Matthew Duepner's House140</linkclipref>
										<mediatype>audio</mediatype>
										<trackindex>5</trackindex>
										<clipindex>14</clipindex>
										<groupindex>1</groupindex>
									</link>
									<link>
										<linkclipref>Raw B Roll Hack Manhattan Matthew Duepner's House141</linkclipref>
										<mediatype>audio</mediatype>
										<trackindex>6</trackindex>
										<clipindex>14</clipindex>
										<groupindex>1</groupindex>
									</link>
									<itemhistory>
										<uuid>D4468946-A342-47BC-9C63-2B1E45E502E1</uuid>
									</itemhistory>
								</clipitem>
								<clipitem id="Raw B Roll Hack Manhattan Matthew Duepner's House144">
									<name>Raw B Roll Hack Manhattan Matthew Duepner's House</name>
									<duration>6617</duration>
									<rate>
										<ntsc>TRUE</ntsc>
										<timebase>24</timebase>
									</rate>
									<in>4099</in>
									<out>4179</out>
									<start>1369</start>
									<end>1449</end>
									<masterclipid>Raw B Roll Hack Manhattan Matthew Duepner's House1</masterclipid>
									<logginginfo>
										<scene/>
										<shottake/>
										<lognote/>
										<good>FALSE</good>
									</logginginfo>
									<labels>
										<label2/>
									</labels>
									<comments>
										<mastercomment1/>
										<mastercomment2/>
										<mastercomment3/>
										<mastercomment4/>
									</comments>
									<file id="YIN_2013-04-28_JB-1 "/>
									<filter>
										<effect>
											<name>Audio Levels</name>
											<effectid>audiolevels</effectid>
											<effectcategory>audiolevels</effectcategory>
											<effecttype>audiolevels</effecttype>
											<mediatype>audio</mediatype>
											<parameter>
												<name>Level</name>
												<parameterid>level</parameterid>
												<valuemin>0</valuemin>
												<valuemax>3.98109</valuemax>
												<value>1.9718</value>
											</parameter>
										</effect>
									</filter>
									<filter>
										<effect>
											<name>Audio Pan</name>
											<effectid>audiopan</effectid>
											<effectcategory>audiopan</effectcategory>
											<effecttype>audiopan</effecttype>
											<mediatype>audio</mediatype>
											<parameter>
												<name>Pan</name>
												<parameterid>pan</parameterid>
												<valuemin>-1</valuemin>
												<valuemax>1</valuemax>
												<value>-0</value>
											</parameter>
										</effect>
									</filter>
									<sourcetrack>
										<mediatype>audio</mediatype>
										<trackindex>2</trackindex>
									</sourcetrack>
									<link>
										<linkclipref>Raw B Roll Hack Manhattan Matthew Duepner's House142</linkclipref>
										<mediatype>video</mediatype>
										<trackindex>2</trackindex>
										<clipindex>13</clipindex>
									</link>
									<link>
										<linkclipref>Raw B Roll Hack Manhattan Matthew Duepner's House143</linkclipref>
										<mediatype>audio</mediatype>
										<trackindex>5</trackindex>
										<clipindex>15</clipindex>
										<groupindex>1</groupindex>
									</link>
									<link>
										<linkclipref>Raw B Roll Hack Manhattan Matthew Duepner's House144</linkclipref>
										<mediatype>audio</mediatype>
										<trackindex>6</trackindex>
										<clipindex>15</clipindex>
										<groupindex>1</groupindex>
									</link>
									<itemhistory>
										<uuid>216BAA27-893B-406A-A5C1-B3ECA4A20735</uuid>
									</itemhistory>
								</clipitem>
								<clipitem id="Raw B Roll Hack Manhattan Matthew Duepner's House147">
									<name>Raw B Roll Hack Manhattan Matthew Duepner's House</name>
									<duration>6617</duration>
									<rate>
										<ntsc>TRUE</ntsc>
										<timebase>24</timebase>
									</rate>
									<in>4585</in>
									<out>4685</out>
									<start>1449</start>
									<end>1549</end>
									<masterclipid>Raw B Roll Hack Manhattan Matthew Duepner's House1</masterclipid>
									<logginginfo>
										<scene/>
										<shottake/>
										<lognote/>
										<good>FALSE</good>
									</logginginfo>
									<labels>
										<label2/>
									</labels>
									<comments>
										<mastercomment1/>
										<mastercomment2/>
										<mastercomment3/>
										<mastercomment4/>
									</comments>
									<file id="YIN_2013-04-28_JB-1 "/>
									<filter>
										<effect>
											<name>Audio Levels</name>
											<effectid>audiolevels</effectid>
											<effectcategory>audiolevels</effectcategory>
											<effecttype>audiolevels</effecttype>
											<mediatype>audio</mediatype>
											<parameter>
												<name>Level</name>
												<parameterid>level</parameterid>
												<valuemin>0</valuemin>
												<valuemax>3.98109</valuemax>
												<value>1.9718</value>
											</parameter>
										</effect>
									</filter>
									<filter>
										<effect>
											<name>Audio Pan</name>
											<effectid>audiopan</effectid>
											<effectcategory>audiopan</effectcategory>
											<effecttype>audiopan</effecttype>
											<mediatype>audio</mediatype>
											<parameter>
												<name>Pan</name>
												<parameterid>pan</parameterid>
												<valuemin>-1</valuemin>
												<valuemax>1</valuemax>
												<value>-0</value>
											</parameter>
										</effect>
									</filter>
									<sourcetrack>
										<mediatype>audio</mediatype>
										<trackindex>2</trackindex>
									</sourcetrack>
									<link>
										<linkclipref>Raw B Roll Hack Manhattan Matthew Duepner's House145</linkclipref>
										<mediatype>video</mediatype>
										<trackindex>2</trackindex>
										<clipindex>14</clipindex>
									</link>
									<link>
										<linkclipref>Raw B Roll Hack Manhattan Matthew Duepner's House146</linkclipref>
										<mediatype>audio</mediatype>
										<trackindex>5</trackindex>
										<clipindex>16</clipindex>
										<groupindex>1</groupindex>
									</link>
									<link>
										<linkclipref>Raw B Roll Hack Manhattan Matthew Duepner's House147</linkclipref>
										<mediatype>audio</mediatype>
										<trackindex>6</trackindex>
										<clipindex>16</clipindex>
										<groupindex>1</groupindex>
									</link>
									<itemhistory>
										<uuid>BA776880-726F-4493-8F3F-40D406DF5CB7</uuid>
									</itemhistory>
								</clipitem>
								<clipitem id="Raw Scene Matthew Duepner Printing129">
									<name>Raw Scene Matthew Duepner Printing</name>
									<duration>28553</duration>
									<rate>
										<ntsc>TRUE</ntsc>
										<timebase>24</timebase>
									</rate>
									<in>25118</in>
									<out>25193</out>
									<start>1549</start>
									<end>1624</end>
									<masterclipid>Raw Scene Matthew Duepner Printing72</masterclipid>
									<logginginfo>
										<scene/>
										<shottake/>
										<lognote/>
										<good>FALSE</good>
									</logginginfo>
									<labels>
										<label2/>
									</labels>
									<comments>
										<mastercomment1/>
										<mastercomment2/>
										<mastercomment3/>
										<mastercomment4/>
									</comments>
									<file id="YIN_2013-05-28_LG-6 "/>
									<filter>
										<effect>
											<name>Audio Levels</name>
											<effectid>audiolevels</effectid>
											<effectcategory>audiolevels</effectcategory>
											<effecttype>audiolevels</effecttype>
											<mediatype>audio</mediatype>
											<parameter>
												<name>Level</name>
												<parameterid>level</parameterid>
												<valuemin>0</valuemin>
												<valuemax>3.98109</valuemax>
												<value>1.9718</value>
											</parameter>
										</effect>
									</filter>
									<filter>
										<effect>
											<name>Audio Pan</name>
											<effectid>audiopan</effectid>
											<effectcategory>audiopan</effectcategory>
											<effecttype>audiopan</effecttype>
											<mediatype>audio</mediatype>
											<parameter>
												<name>Pan</name>
												<parameterid>pan</parameterid>
												<valuemin>-1</valuemin>
												<valuemax>1</valuemax>
												<value>-0</value>
											</parameter>
										</effect>
									</filter>
									<sourcetrack>
										<mediatype>audio</mediatype>
										<trackindex>2</trackindex>
									</sourcetrack>
									<link>
										<linkclipref>Raw Scene Matthew Duepner Printing127</linkclipref>
										<mediatype>video</mediatype>
										<trackindex>2</trackindex>
										<clipindex>15</clipindex>
									</link>
									<link>
										<linkclipref>Raw Scene Matthew Duepner Printing128</linkclipref>
										<mediatype>audio</mediatype>
										<trackindex>5</trackindex>
										<clipindex>17</clipindex>
										<groupindex>1</groupindex>
									</link>
									<link>
										<linkclipref>Raw Scene Matthew Duepner Printing129</linkclipref>
										<mediatype>audio</mediatype>
										<trackindex>6</trackindex>
										<clipindex>17</clipindex>
										<groupindex>1</groupindex>
									</link>
									<itemhistory>
										<uuid>022A158F-AB98-4E88-A066-1E9A0DCF31DF</uuid>
									</itemhistory>
								</clipitem>
								<clipitem id="Raw B Roll Hack Manhattan Matthew Duepner's House150">
									<name>Raw B Roll Hack Manhattan Matthew Duepner's House</name>
									<duration>6617</duration>
									<rate>
										<ntsc>TRUE</ntsc>
										<timebase>24</timebase>
									</rate>
									<in>3931</in>
									<out>4052</out>
									<start>1624</start>
									<end>1745</end>
									<masterclipid>Raw B Roll Hack Manhattan Matthew Duepner's House1</masterclipid>
									<logginginfo>
										<scene/>
										<shottake/>
										<lognote/>
										<good>FALSE</good>
									</logginginfo>
									<labels>
										<label2/>
									</labels>
									<comments>
										<mastercomment1/>
										<mastercomment2/>
										<mastercomment3/>
										<mastercomment4/>
									</comments>
									<file id="YIN_2013-04-28_JB-1 "/>
									<filter>
										<effect>
											<name>Audio Levels</name>
											<effectid>audiolevels</effectid>
											<effectcategory>audiolevels</effectcategory>
											<effecttype>audiolevels</effecttype>
											<mediatype>audio</mediatype>
											<parameter>
												<name>Level</name>
												<parameterid>level</parameterid>
												<valuemin>0</valuemin>
												<valuemax>3.98109</valuemax>
												<value>1.9718</value>
											</parameter>
										</effect>
									</filter>
									<filter>
										<effect>
											<name>Audio Pan</name>
											<effectid>audiopan</effectid>
											<effectcategory>audiopan</effectcategory>
											<effecttype>audiopan</effecttype>
											<mediatype>audio</mediatype>
											<parameter>
												<name>Pan</name>
												<parameterid>pan</parameterid>
												<valuemin>-1</valuemin>
												<valuemax>1</valuemax>
												<value>-0</value>
											</parameter>
										</effect>
									</filter>
									<sourcetrack>
										<mediatype>audio</mediatype>
										<trackindex>2</trackindex>
									</sourcetrack>
									<link>
										<linkclipref>Raw B Roll Hack Manhattan Matthew Duepner's House148</linkclipref>
										<mediatype>video</mediatype>
										<trackindex>2</trackindex>
										<clipindex>16</clipindex>
									</link>
									<link>
										<linkclipref>Raw B Roll Hack Manhattan Matthew Duepner's House149</linkclipref>
										<mediatype>audio</mediatype>
										<trackindex>5</trackindex>
										<clipindex>18</clipindex>
										<groupindex>1</groupindex>
									</link>
									<link>
										<linkclipref>Raw B Roll Hack Manhattan Matthew Duepner's House150</linkclipref>
										<mediatype>audio</mediatype>
										<trackindex>6</trackindex>
										<clipindex>18</clipindex>
										<groupindex>1</groupindex>
									</link>
									<itemhistory>
										<uuid>154012DD-B979-4872-86D0-AF38FA83B484</uuid>
									</itemhistory>
								</clipitem>
								<clipitem id="Raw B Roll Hack Manhattan Matthew Duepner's House153">
									<name>Raw B Roll Hack Manhattan Matthew Duepner's House</name>
									<duration>6617</duration>
									<rate>
										<ntsc>TRUE</ntsc>
										<timebase>24</timebase>
									</rate>
									<in>5073</in>
									<out>5227</out>
									<start>1745</start>
									<end>1899</end>
									<masterclipid>Raw B Roll Hack Manhattan Matthew Duepner's House1</masterclipid>
									<logginginfo>
										<scene/>
										<shottake/>
										<lognote/>
										<good>FALSE</good>
									</logginginfo>
									<labels>
										<label2/>
									</labels>
									<comments>
										<mastercomment1/>
										<mastercomment2/>
										<mastercomment3/>
										<mastercomment4/>
									</comments>
									<file id="YIN_2013-04-28_JB-1 "/>
									<filter>
										<effect>
											<name>Audio Levels</name>
											<effectid>audiolevels</effectid>
											<effectcategory>audiolevels</effectcategory>
											<effecttype>audiolevels</effecttype>
											<mediatype>audio</mediatype>
											<parameter>
												<name>Level</name>
												<parameterid>level</parameterid>
												<valuemin>0</valuemin>
												<valuemax>3.98109</valuemax>
												<value>1.9718</value>
											</parameter>
										</effect>
									</filter>
									<filter>
										<effect>
											<name>Audio Pan</name>
											<effectid>audiopan</effectid>
											<effectcategory>audiopan</effectcategory>
											<effecttype>audiopan</effecttype>
											<mediatype>audio</mediatype>
											<parameter>
												<name>Pan</name>
												<parameterid>pan</parameterid>
												<valuemin>-1</valuemin>
												<valuemax>1</valuemax>
												<value>-0</value>
											</parameter>
										</effect>
									</filter>
									<sourcetrack>
										<mediatype>audio</mediatype>
										<trackindex>2</trackindex>
									</sourcetrack>
									<link>
										<linkclipref>Raw B Roll Hack Manhattan Matthew Duepner's House151</linkclipref>
										<mediatype>video</mediatype>
										<trackindex>2</trackindex>
										<clipindex>17</clipindex>
									</link>
									<link>
										<linkclipref>Raw B Roll Hack Manhattan Matthew Duepner's House152</linkclipref>
										<mediatype>audio</mediatype>
										<trackindex>5</trackindex>
										<clipindex>19</clipindex>
										<groupindex>1</groupindex>
									</link>
									<link>
										<linkclipref>Raw B Roll Hack Manhattan Matthew Duepner's House153</linkclipref>
										<mediatype>audio</mediatype>
										<trackindex>6</trackindex>
										<clipindex>19</clipindex>
										<groupindex>1</groupindex>
									</link>
									<itemhistory>
										<uuid>13D3D59F-7C2C-4552-B5B9-29F39A4F5FE3</uuid>
									</itemhistory>
								</clipitem>
								<clipitem id="Raw Scene Matthew Duepner Printing132">
									<name>Raw Scene Matthew Duepner Printing</name>
									<duration>28553</duration>
									<rate>
										<ntsc>TRUE</ntsc>
										<timebase>24</timebase>
									</rate>
									<in>13248</in>
									<out>13390</out>
									<start>1899</start>
									<end>2041</end>
									<masterclipid>Raw Scene Matthew Duepner Printing72</masterclipid>
									<logginginfo>
										<scene/>
										<shottake/>
										<lognote/>
										<good>FALSE</good>
									</logginginfo>
									<labels>
										<label2/>
									</labels>
									<comments>
										<mastercomment1/>
										<mastercomment2/>
										<mastercomment3/>
										<mastercomment4/>
									</comments>
									<file id="YIN_2013-05-28_LG-6 "/>
									<filter>
										<effect>
											<name>Audio Levels</name>
											<effectid>audiolevels</effectid>
											<effectcategory>audiolevels</effectcategory>
											<effecttype>audiolevels</effecttype>
											<mediatype>audio</mediatype>
											<parameter>
												<name>Level</name>
												<parameterid>level</parameterid>
												<valuemin>0</valuemin>
												<valuemax>3.98109</valuemax>
												<value>1.9718</value>
											</parameter>
										</effect>
									</filter>
									<filter>
										<effect>
											<name>Audio Pan</name>
											<effectid>audiopan</effectid>
											<effectcategory>audiopan</effectcategory>
											<effecttype>audiopan</effecttype>
											<mediatype>audio</mediatype>
											<parameter>
												<name>Pan</name>
												<parameterid>pan</parameterid>
												<valuemin>-1</valuemin>
												<valuemax>1</valuemax>
												<value>-0</value>
											</parameter>
										</effect>
									</filter>
									<sourcetrack>
										<mediatype>audio</mediatype>
										<trackindex>2</trackindex>
									</sourcetrack>
									<link>
										<linkclipref>Raw Scene Matthew Duepner Printing130</linkclipref>
										<mediatype>video</mediatype>
										<trackindex>2</trackindex>
										<clipindex>18</clipindex>
									</link>
									<link>
										<linkclipref>Raw Scene Matthew Duepner Printing131</linkclipref>
										<mediatype>audio</mediatype>
										<trackindex>5</trackindex>
										<clipindex>20</clipindex>
										<groupindex>1</groupindex>
									</link>
									<link>
										<linkclipref>Raw Scene Matthew Duepner Printing132</linkclipref>
										<mediatype>audio</mediatype>
										<trackindex>6</trackindex>
										<clipindex>20</clipindex>
										<groupindex>1</groupindex>
									</link>
									<itemhistory>
										<uuid>B975C65A-EFD0-4F6D-8826-B6BCD9F02817</uuid>
									</itemhistory>
								</clipitem>
								<clipitem id="Raw Scene Matthew Duepner Printing135">
									<name>Raw Scene Matthew Duepner Printing</name>
									<duration>28553</duration>
									<rate>
										<ntsc>TRUE</ntsc>
										<timebase>24</timebase>
									</rate>
									<in>13645</in>
									<out>13837</out>
									<start>2041</start>
									<end>2233</end>
									<masterclipid>Raw Scene Matthew Duepner Printing72</masterclipid>
									<logginginfo>
										<scene/>
										<shottake/>
										<lognote/>
										<good>FALSE</good>
									</logginginfo>
									<labels>
										<label2/>
									</labels>
									<comments>
										<mastercomment1/>
										<mastercomment2/>
										<mastercomment3/>
										<mastercomment4/>
									</comments>
									<file id="YIN_2013-05-28_LG-6 "/>
									<filter>
										<effect>
											<name>Audio Levels</name>
											<effectid>audiolevels</effectid>
											<effectcategory>audiolevels</effectcategory>
											<effecttype>audiolevels</effecttype>
											<mediatype>audio</mediatype>
											<parameter>
												<name>Level</name>
												<parameterid>level</parameterid>
												<valuemin>0</valuemin>
												<valuemax>3.98109</valuemax>
												<value>1.9718</value>
											</parameter>
										</effect>
									</filter>
									<filter>
										<effect>
											<name>Audio Pan</name>
											<effectid>audiopan</effectid>
											<effectcategory>audiopan</effectcategory>
											<effecttype>audiopan</effecttype>
											<mediatype>audio</mediatype>
											<parameter>
												<name>Pan</name>
												<parameterid>pan</parameterid>
												<valuemin>-1</valuemin>
												<valuemax>1</valuemax>
												<value>-0</value>
											</parameter>
										</effect>
									</filter>
									<sourcetrack>
										<mediatype>audio</mediatype>
										<trackindex>2</trackindex>
									</sourcetrack>
									<link>
										<linkclipref>Raw Scene Matthew Duepner Printing133</linkclipref>
										<mediatype>video</mediatype>
										<trackindex>2</trackindex>
										<clipindex>19</clipindex>
									</link>
									<link>
										<linkclipref>Raw Scene Matthew Duepner Printing134</linkclipref>
										<mediatype>audio</mediatype>
										<trackindex>5</trackindex>
										<clipindex>21</clipindex>
										<groupindex>1</groupindex>
									</link>
									<link>
										<linkclipref>Raw Scene Matthew Duepner Printing135</linkclipref>
										<mediatype>audio</mediatype>
										<trackindex>6</trackindex>
										<clipindex>21</clipindex>
										<groupindex>1</groupindex>
									</link>
									<itemhistory>
										<uuid>C16932BC-088B-4517-BF1E-E4B6CC959FB9</uuid>
									</itemhistory>
								</clipitem>
								<clipitem id="Raw Scene Matthew Duepner Printing140">
									<name>Raw Scene Matthew Duepner Printing</name>
									<duration>28553</duration>
									<rate>
										<ntsc>TRUE</ntsc>
										<timebase>24</timebase>
									</rate>
									<in>17064</in>
									<out>17388</out>
									<start>2471</start>
									<end>2795</end>
									<masterclipid>Raw Scene Matthew Duepner Printing72</masterclipid>
									<logginginfo>
										<scene/>
										<shottake/>
										<lognote/>
										<good>FALSE</good>
									</logginginfo>
									<labels>
										<label2/>
									</labels>
									<comments>
										<mastercomment1/>
										<mastercomment2/>
										<mastercomment3/>
										<mastercomment4/>
									</comments>
									<file id="YIN_2013-05-28_LG-6 "/>
									<filter>
										<effect>
											<name>Audio Levels</name>
											<effectid>audiolevels</effectid>
											<effectcategory>audiolevels</effectcategory>
											<effecttype>audiolevels</effecttype>
											<mediatype>audio</mediatype>
											<parameter>
												<name>Level</name>
												<parameterid>level</parameterid>
												<valuemin>0</valuemin>
												<valuemax>3.98109</valuemax>
												<value>1.9718</value>
											</parameter>
										</effect>
									</filter>
									<filter>
										<effect>
											<name>Audio Pan</name>
											<effectid>audiopan</effectid>
											<effectcategory>audiopan</effectcategory>
											<effecttype>audiopan</effecttype>
											<mediatype>audio</mediatype>
											<parameter>
												<name>Pan</name>
												<parameterid>pan</parameterid>
												<valuemin>-1</valuemin>
												<valuemax>1</valuemax>
												<value>-0</value>
											</parameter>
										</effect>
									</filter>
									<sourcetrack>
										<mediatype>audio</mediatype>
										<trackindex>2</trackindex>
									</sourcetrack>
									<link>
										<linkclipref>Raw Scene Matthew Duepner Printing138</linkclipref>
										<mediatype>video</mediatype>
										<trackindex>2</trackindex>
										<clipindex>22</clipindex>
									</link>
									<link>
										<linkclipref>Raw Scene Matthew Duepner Printing139</linkclipref>
										<mediatype>audio</mediatype>
										<trackindex>5</trackindex>
										<clipindex>22</clipindex>
										<groupindex>1</groupindex>
									</link>
									<link>
										<linkclipref>Raw Scene Matthew Duepner Printing140</linkclipref>
										<mediatype>audio</mediatype>
										<trackindex>6</trackindex>
										<clipindex>22</clipindex>
										<groupindex>1</groupindex>
									</link>
									<itemhistory>
										<uuid>479A5038-54B6-4E0D-B905-E5A45B9E5D03</uuid>
									</itemhistory>
								</clipitem>
								<transitionitem>
									<rate>
										<ntsc>TRUE</ntsc>
										<timebase>24</timebase>
									</rate>
									<start>3866</start>
									<end>3884</end>
									<alignment>start-black</alignment>
									<effect>
										<name>Cross Fade ( 0dB)</name>
										<effectid>KGAudioTransCrossFade0dB</effectid>
										<effecttype>transition</effecttype>
										<mediatype>audio</mediatype>
										<startratio>0</startratio>
										<endratio>1</endratio>
										<reverse>FALSE</reverse>
									</effect>
								</transitionitem>
								<clipitem id="Raw Scene Matthew Duepner Walkabout476">
									<name>Raw Scene Matthew Duepner Walkabout</name>
									<duration>38484</duration>
									<rate>
										<ntsc>TRUE</ntsc>
										<timebase>24</timebase>
									</rate>
									<in>6453</in>
									<out>6911</out>
									<start>-1</start>
									<end>4324</end>
									<masterclipid>Raw Scene Matthew Duepner Walkabout234</masterclipid>
									<logginginfo>
										<scene/>
										<shottake/>
										<lognote/>
										<good>FALSE</good>
									</logginginfo>
									<labels>
										<label2/>
									</labels>
									<comments>
										<mastercomment1/>
										<mastercomment2/>
										<mastercomment3/>
										<mastercomment4/>
									</comments>
									<file id="YIN_2013-05-28_LG-4 "/>
									<filter>
										<effect>
											<name>Audio Levels</name>
											<effectid>audiolevels</effectid>
											<effectcategory>audiolevels</effectcategory>
											<effecttype>audiolevels</effecttype>
											<mediatype>audio</mediatype>
											<parameter>
												<name>Level</name>
												<parameterid>level</parameterid>
												<valuemin>0</valuemin>
												<valuemax>3.98109</valuemax>
												<value>1.78342</value>
											</parameter>
										</effect>
									</filter>
									<filter>
										<effect>
											<name>Audio Pan</name>
											<effectid>audiopan</effectid>
											<effectcategory>audiopan</effectcategory>
											<effecttype>audiopan</effecttype>
											<mediatype>audio</mediatype>
											<parameter>
												<name>Pan</name>
												<parameterid>pan</parameterid>
												<valuemin>-1</valuemin>
												<valuemax>1</valuemax>
												<value>-0</value>
											</parameter>
										</effect>
									</filter>
									<sourcetrack>
										<mediatype>audio</mediatype>
										<trackindex>2</trackindex>
									</sourcetrack>
									<link>
										<linkclipref>Raw Scene Matthew Duepner Walkabout475</linkclipref>
										<mediatype>audio</mediatype>
										<trackindex>5</trackindex>
										<clipindex>24</clipindex>
										<groupindex>1</groupindex>
									</link>
									<link>
										<linkclipref>Raw Scene Matthew Duepner Walkabout476</linkclipref>
										<mediatype>audio</mediatype>
										<trackindex>6</trackindex>
										<clipindex>24</clipindex>
										<groupindex>1</groupindex>
									</link>
									<itemhistory>
										<uuid>C213E8D2-6AA6-44DF-8E22-53C677B275E4</uuid>
									</itemhistory>
								</clipitem>
								<clipitem id="Raw Scene Matthew Duepner Walkabout392">
									<name>Raw Scene Matthew Duepner Walkabout</name>
									<duration>38484</duration>
									<rate>
										<ntsc>TRUE</ntsc>
										<timebase>24</timebase>
									</rate>
									<in>7070</in>
									<out>7250</out>
									<start>4324</start>
									<end>4504</end>
									<masterclipid>Raw Scene Matthew Duepner Walkabout234</masterclipid>
									<logginginfo>
										<scene/>
										<shottake/>
										<lognote/>
										<good>FALSE</good>
									</logginginfo>
									<labels>
										<label2/>
									</labels>
									<comments>
										<mastercomment1/>
										<mastercomment2/>
										<mastercomment3/>
										<mastercomment4/>
									</comments>
									<file id="YIN_2013-05-28_LG-4 "/>
									<filter>
										<effect>
											<name>Audio Levels</name>
											<effectid>audiolevels</effectid>
											<effectcategory>audiolevels</effectcategory>
											<effecttype>audiolevels</effecttype>
											<mediatype>audio</mediatype>
											<parameter>
												<name>Level</name>
												<parameterid>level</parameterid>
												<valuemin>0</valuemin>
												<valuemax>3.98109</valuemax>
												<value>1.78342</value>
											</parameter>
										</effect>
									</filter>
									<filter>
										<effect>
											<name>Audio Pan</name>
											<effectid>audiopan</effectid>
											<effectcategory>audiopan</effectcategory>
											<effecttype>audiopan</effecttype>
											<mediatype>audio</mediatype>
											<parameter>
												<name>Pan</name>
												<parameterid>pan</parameterid>
												<valuemin>-1</valuemin>
												<valuemax>1</valuemax>
												<value>-0</value>
											</parameter>
										</effect>
									</filter>
									<sourcetrack>
										<mediatype>audio</mediatype>
										<trackindex>2</trackindex>
									</sourcetrack>
									<link>
										<linkclipref>Raw Scene Matthew Duepner Walkabout390</linkclipref>
										<mediatype>video</mediatype>
										<trackindex>2</trackindex>
										<clipindex>32</clipindex>
									</link>
									<link>
										<linkclipref>Raw Scene Matthew Duepner Walkabout391</linkclipref>
										<mediatype>audio</mediatype>
										<trackindex>5</trackindex>
										<clipindex>25</clipindex>
										<groupindex>1</groupindex>
									</link>
									<link>
										<linkclipref>Raw Scene Matthew Duepner Walkabout392</linkclipref>
										<mediatype>audio</mediatype>
										<trackindex>6</trackindex>
										<clipindex>25</clipindex>
										<groupindex>1</groupindex>
									</link>
									<itemhistory>
										<uuid>7C223347-E43C-4554-87F8-BB07006E71F6</uuid>
									</itemhistory>
								</clipitem>
								<clipitem id="Raw Scene Matthew Duepner Walkabout395">
									<name>Raw Scene Matthew Duepner Walkabout</name>
									<duration>38484</duration>
									<rate>
										<ntsc>TRUE</ntsc>
										<timebase>24</timebase>
									</rate>
									<in>10560</in>
									<out>10599</out>
									<start>4504</start>
									<end>4543</end>
									<masterclipid>Raw Scene Matthew Duepner Walkabout234</masterclipid>
									<logginginfo>
										<scene/>
										<shottake/>
										<lognote/>
										<good>FALSE</good>
									</logginginfo>
									<labels>
										<label2/>
									</labels>
									<comments>
										<mastercomment1/>
										<mastercomment2/>
										<mastercomment3/>
										<mastercomment4/>
									</comments>
									<file id="YIN_2013-05-28_LG-4 "/>
									<filter>
										<effect>
											<name>Audio Levels</name>
											<effectid>audiolevels</effectid>
											<effectcategory>audiolevels</effectcategory>
											<effecttype>audiolevels</effecttype>
											<mediatype>audio</mediatype>
											<parameter>
												<name>Level</name>
												<parameterid>level</parameterid>
												<valuemin>0</valuemin>
												<valuemax>3.98109</valuemax>
												<value>1.78342</value>
											</parameter>
										</effect>
									</filter>
									<filter>
										<effect>
											<name>Audio Pan</name>
											<effectid>audiopan</effectid>
											<effectcategory>audiopan</effectcategory>
											<effecttype>audiopan</effecttype>
											<mediatype>audio</mediatype>
											<parameter>
												<name>Pan</name>
												<parameterid>pan</parameterid>
												<valuemin>-1</valuemin>
												<valuemax>1</valuemax>
												<value>-0</value>
											</parameter>
										</effect>
									</filter>
									<sourcetrack>
										<mediatype>audio</mediatype>
										<trackindex>2</trackindex>
									</sourcetrack>
									<link>
										<linkclipref>Raw Scene Matthew Duepner Walkabout393</linkclipref>
										<mediatype>video</mediatype>
										<trackindex>2</trackindex>
										<clipindex>33</clipindex>
									</link>
									<link>
										<linkclipref>Raw Scene Matthew Duepner Walkabout394</linkclipref>
										<mediatype>audio</mediatype>
										<trackindex>5</trackindex>
										<clipindex>26</clipindex>
										<groupindex>1</groupindex>
									</link>
									<link>
										<linkclipref>Raw Scene Matthew Duepner Walkabout395</linkclipref>
										<mediatype>audio</mediatype>
										<trackindex>6</trackindex>
										<clipindex>26</clipindex>
										<groupindex>1</groupindex>
									</link>
									<itemhistory>
										<uuid>1F541EDA-0D46-4B96-9803-168105B5230B</uuid>
									</itemhistory>
								</clipitem>
								<clipitem id="Raw Scene Matthew Duepner Walkabout398">
									<name>Raw Scene Matthew Duepner Walkabout</name>
									<duration>38484</duration>
									<rate>
										<ntsc>TRUE</ntsc>
										<timebase>24</timebase>
									</rate>
									<in>11332</in>
									<out>11408</out>
									<start>4543</start>
									<end>4619</end>
									<masterclipid>Raw Scene Matthew Duepner Walkabout234</masterclipid>
									<logginginfo>
										<scene/>
										<shottake/>
										<lognote/>
										<good>FALSE</good>
									</logginginfo>
									<labels>
										<label2/>
									</labels>
									<comments>
										<mastercomment1/>
										<mastercomment2/>
										<mastercomment3/>
										<mastercomment4/>
									</comments>
									<file id="YIN_2013-05-28_LG-4 "/>
									<filter>
										<effect>
											<name>Audio Levels</name>
											<effectid>audiolevels</effectid>
											<effectcategory>audiolevels</effectcategory>
											<effecttype>audiolevels</effecttype>
											<mediatype>audio</mediatype>
											<parameter>
												<name>Level</name>
												<parameterid>level</parameterid>
												<valuemin>0</valuemin>
												<valuemax>3.98109</valuemax>
												<value>1.78342</value>
											</parameter>
										</effect>
									</filter>
									<filter>
										<effect>
											<name>Audio Pan</name>
											<effectid>audiopan</effectid>
											<effectcategory>audiopan</effectcategory>
											<effecttype>audiopan</effecttype>
											<mediatype>audio</mediatype>
											<parameter>
												<name>Pan</name>
												<parameterid>pan</parameterid>
												<valuemin>-1</valuemin>
												<valuemax>1</valuemax>
												<value>-0</value>
											</parameter>
										</effect>
									</filter>
									<sourcetrack>
										<mediatype>audio</mediatype>
										<trackindex>2</trackindex>
									</sourcetrack>
									<link>
										<linkclipref>Raw Scene Matthew Duepner Walkabout396</linkclipref>
										<mediatype>video</mediatype>
										<trackindex>2</trackindex>
										<clipindex>34</clipindex>
									</link>
									<link>
										<linkclipref>Raw Scene Matthew Duepner Walkabout397</linkclipref>
										<mediatype>audio</mediatype>
										<trackindex>5</trackindex>
										<clipindex>27</clipindex>
										<groupindex>1</groupindex>
									</link>
									<link>
										<linkclipref>Raw Scene Matthew Duepner Walkabout398</linkclipref>
										<mediatype>audio</mediatype>
										<trackindex>6</trackindex>
										<clipindex>27</clipindex>
										<groupindex>1</groupindex>
									</link>
									<itemhistory>
										<uuid>FB61014E-5A6E-479D-B0F2-7649580C1297</uuid>
									</itemhistory>
								</clipitem>
								<clipitem id="Raw Scene Matthew Duepner Walkabout401">
									<name>Raw Scene Matthew Duepner Walkabout</name>
									<duration>38484</duration>
									<rate>
										<ntsc>TRUE</ntsc>
										<timebase>24</timebase>
									</rate>
									<in>11540</in>
									<out>11595</out>
									<start>4619</start>
									<end>4674</end>
									<masterclipid>Raw Scene Matthew Duepner Walkabout234</masterclipid>
									<logginginfo>
										<scene/>
										<shottake/>
										<lognote/>
										<good>FALSE</good>
									</logginginfo>
									<labels>
										<label2/>
									</labels>
									<comments>
										<mastercomment1/>
										<mastercomment2/>
										<mastercomment3/>
										<mastercomment4/>
									</comments>
									<file id="YIN_2013-05-28_LG-4 "/>
									<filter>
										<effect>
											<name>Audio Levels</name>
											<effectid>audiolevels</effectid>
											<effectcategory>audiolevels</effectcategory>
											<effecttype>audiolevels</effecttype>
											<mediatype>audio</mediatype>
											<parameter>
												<name>Level</name>
												<parameterid>level</parameterid>
												<valuemin>0</valuemin>
												<valuemax>3.98109</valuemax>
												<value>1.78342</value>
											</parameter>
										</effect>
									</filter>
									<filter>
										<effect>
											<name>Audio Pan</name>
											<effectid>audiopan</effectid>
											<effectcategory>audiopan</effectcategory>
											<effecttype>audiopan</effecttype>
											<mediatype>audio</mediatype>
											<parameter>
												<name>Pan</name>
												<parameterid>pan</parameterid>
												<valuemin>-1</valuemin>
												<valuemax>1</valuemax>
												<value>-0</value>
											</parameter>
										</effect>
									</filter>
									<sourcetrack>
										<mediatype>audio</mediatype>
										<trackindex>2</trackindex>
									</sourcetrack>
									<link>
										<linkclipref>Raw Scene Matthew Duepner Walkabout399</linkclipref>
										<mediatype>video</mediatype>
										<trackindex>2</trackindex>
										<clipindex>35</clipindex>
									</link>
									<link>
										<linkclipref>Raw Scene Matthew Duepner Walkabout400</linkclipref>
										<mediatype>audio</mediatype>
										<trackindex>5</trackindex>
										<clipindex>28</clipindex>
										<groupindex>1</groupindex>
									</link>
									<link>
										<linkclipref>Raw Scene Matthew Duepner Walkabout401</linkclipref>
										<mediatype>audio</mediatype>
										<trackindex>6</trackindex>
										<clipindex>28</clipindex>
										<groupindex>1</groupindex>
									</link>
									<itemhistory>
										<uuid>CBA25A56-AD0D-4553-A9F5-71D7BC016D8A</uuid>
									</itemhistory>
								</clipitem>
								<clipitem id="Raw Scene Matthew Duepner Walkabout404">
									<name>Raw Scene Matthew Duepner Walkabout</name>
									<duration>38484</duration>
									<rate>
										<ntsc>TRUE</ntsc>
										<timebase>24</timebase>
									</rate>
									<in>13339</in>
									<out>13489</out>
									<start>4674</start>
									<end>4824</end>
									<masterclipid>Raw Scene Matthew Duepner Walkabout234</masterclipid>
									<logginginfo>
										<scene/>
										<shottake/>
										<lognote/>
										<good>FALSE</good>
									</logginginfo>
									<labels>
										<label2/>
									</labels>
									<comments>
										<mastercomment1/>
										<mastercomment2/>
										<mastercomment3/>
										<mastercomment4/>
									</comments>
									<file id="YIN_2013-05-28_LG-4 "/>
									<filter>
										<effect>
											<name>Audio Levels</name>
											<effectid>audiolevels</effectid>
											<effectcategory>audiolevels</effectcategory>
											<effecttype>audiolevels</effecttype>
											<mediatype>audio</mediatype>
											<parameter>
												<name>Level</name>
												<parameterid>level</parameterid>
												<valuemin>0</valuemin>
												<valuemax>3.98109</valuemax>
												<value>1.78342</value>
											</parameter>
										</effect>
									</filter>
									<filter>
										<effect>
											<name>Audio Pan</name>
											<effectid>audiopan</effectid>
											<effectcategory>audiopan</effectcategory>
											<effecttype>audiopan</effecttype>
											<mediatype>audio</mediatype>
											<parameter>
												<name>Pan</name>
												<parameterid>pan</parameterid>
												<valuemin>-1</valuemin>
												<valuemax>1</valuemax>
												<value>-0</value>
											</parameter>
										</effect>
									</filter>
									<sourcetrack>
										<mediatype>audio</mediatype>
										<trackindex>2</trackindex>
									</sourcetrack>
									<link>
										<linkclipref>Raw Scene Matthew Duepner Walkabout402</linkclipref>
										<mediatype>video</mediatype>
										<trackindex>2</trackindex>
										<clipindex>36</clipindex>
									</link>
									<link>
										<linkclipref>Raw Scene Matthew Duepner Walkabout403</linkclipref>
										<mediatype>audio</mediatype>
										<trackindex>5</trackindex>
										<clipindex>29</clipindex>
										<groupindex>1</groupindex>
									</link>
									<link>
										<linkclipref>Raw Scene Matthew Duepner Walkabout404</linkclipref>
										<mediatype>audio</mediatype>
										<trackindex>6</trackindex>
										<clipindex>29</clipindex>
										<groupindex>1</groupindex>
									</link>
									<itemhistory>
										<uuid>47F2E529-7F79-4C76-B25B-5FC3A477D803</uuid>
									</itemhistory>
								</clipitem>
								<clipitem id="Raw Scene Matthew Duepner Walkabout407">
									<name>Raw Scene Matthew Duepner Walkabout</name>
									<duration>38484</duration>
									<rate>
										<ntsc>TRUE</ntsc>
										<timebase>24</timebase>
									</rate>
									<in>13825</in>
									<out>13967</out>
									<start>4824</start>
									<end>4966</end>
									<masterclipid>Raw Scene Matthew Duepner Walkabout234</masterclipid>
									<logginginfo>
										<scene/>
										<shottake/>
										<lognote/>
										<good>FALSE</good>
									</logginginfo>
									<labels>
										<label2/>
									</labels>
									<comments>
										<mastercomment1/>
										<mastercomment2/>
										<mastercomment3/>
										<mastercomment4/>
									</comments>
									<file id="YIN_2013-05-28_LG-4 "/>
									<filter>
										<effect>
											<name>Audio Levels</name>
											<effectid>audiolevels</effectid>
											<effectcategory>audiolevels</effectcategory>
											<effecttype>audiolevels</effecttype>
											<mediatype>audio</mediatype>
											<parameter>
												<name>Level</name>
												<parameterid>level</parameterid>
												<valuemin>0</valuemin>
												<valuemax>3.98109</valuemax>
												<value>1.78342</value>
											</parameter>
										</effect>
									</filter>
									<filter>
										<effect>
											<name>Audio Pan</name>
											<effectid>audiopan</effectid>
											<effectcategory>audiopan</effectcategory>
											<effecttype>audiopan</effecttype>
											<mediatype>audio</mediatype>
											<parameter>
												<name>Pan</name>
												<parameterid>pan</parameterid>
												<valuemin>-1</valuemin>
												<valuemax>1</valuemax>
												<value>-0</value>
											</parameter>
										</effect>
									</filter>
									<sourcetrack>
										<mediatype>audio</mediatype>
										<trackindex>2</trackindex>
									</sourcetrack>
									<link>
										<linkclipref>Raw Scene Matthew Duepner Walkabout405</linkclipref>
										<mediatype>video</mediatype>
										<trackindex>2</trackindex>
										<clipindex>37</clipindex>
									</link>
									<link>
										<linkclipref>Raw Scene Matthew Duepner Walkabout406</linkclipref>
										<mediatype>audio</mediatype>
										<trackindex>5</trackindex>
										<clipindex>30</clipindex>
										<groupindex>1</groupindex>
									</link>
									<link>
										<linkclipref>Raw Scene Matthew Duepner Walkabout407</linkclipref>
										<mediatype>audio</mediatype>
										<trackindex>6</trackindex>
										<clipindex>30</clipindex>
										<groupindex>1</groupindex>
									</link>
									<itemhistory>
										<uuid>9FE0F017-1138-4F7E-A903-95E4292A79C7</uuid>
									</itemhistory>
								</clipitem>
								<clipitem id="Raw Scene Matthew Duepner Walkabout410">
									<name>Raw Scene Matthew Duepner Walkabout</name>
									<duration>38484</duration>
									<rate>
										<ntsc>TRUE</ntsc>
										<timebase>24</timebase>
									</rate>
									<in>14191</in>
									<out>14629</out>
									<start>4966</start>
									<end>5404</end>
									<masterclipid>Raw Scene Matthew Duepner Walkabout234</masterclipid>
									<logginginfo>
										<scene/>
										<shottake/>
										<lognote/>
										<good>FALSE</good>
									</logginginfo>
									<labels>
										<label2/>
									</labels>
									<comments>
										<mastercomment1/>
										<mastercomment2/>
										<mastercomment3/>
										<mastercomment4/>
									</comments>
									<file id="YIN_2013-05-28_LG-4 "/>
									<filter>
										<effect>
											<name>Audio Levels</name>
											<effectid>audiolevels</effectid>
											<effectcategory>audiolevels</effectcategory>
											<effecttype>audiolevels</effecttype>
											<mediatype>audio</mediatype>
											<parameter>
												<name>Level</name>
												<parameterid>level</parameterid>
												<valuemin>0</valuemin>
												<valuemax>3.98109</valuemax>
												<value>1.78342</value>
											</parameter>
										</effect>
									</filter>
									<filter>
										<effect>
											<name>Audio Pan</name>
											<effectid>audiopan</effectid>
											<effectcategory>audiopan</effectcategory>
											<effecttype>audiopan</effecttype>
											<mediatype>audio</mediatype>
											<parameter>
												<name>Pan</name>
												<parameterid>pan</parameterid>
												<valuemin>-1</valuemin>
												<valuemax>1</valuemax>
												<value>-0</value>
											</parameter>
										</effect>
									</filter>
									<sourcetrack>
										<mediatype>audio</mediatype>
										<trackindex>2</trackindex>
									</sourcetrack>
									<link>
										<linkclipref>Raw Scene Matthew Duepner Walkabout408</linkclipref>
										<mediatype>video</mediatype>
										<trackindex>2</trackindex>
										<clipindex>38</clipindex>
									</link>
									<link>
										<linkclipref>Raw Scene Matthew Duepner Walkabout409</linkclipref>
										<mediatype>audio</mediatype>
										<trackindex>5</trackindex>
										<clipindex>31</clipindex>
										<groupindex>1</groupindex>
									</link>
									<link>
										<linkclipref>Raw Scene Matthew Duepner Walkabout410</linkclipref>
										<mediatype>audio</mediatype>
										<trackindex>6</trackindex>
										<clipindex>31</clipindex>
										<groupindex>1</groupindex>
									</link>
									<itemhistory>
										<uuid>6871001F-95F9-4C07-B601-EFB859B7AEB8</uuid>
									</itemhistory>
								</clipitem>
								<clipitem id="Raw Scene Matthew Duepner Walkabout413">
									<name>Raw Scene Matthew Duepner Walkabout</name>
									<duration>38484</duration>
									<rate>
										<ntsc>TRUE</ntsc>
										<timebase>24</timebase>
									</rate>
									<in>14910</in>
									<out>15123</out>
									<start>5404</start>
									<end>5617</end>
									<masterclipid>Raw Scene Matthew Duepner Walkabout234</masterclipid>
									<logginginfo>
										<scene/>
										<shottake/>
										<lognote/>
										<good>FALSE</good>
									</logginginfo>
									<labels>
										<label2/>
									</labels>
									<comments>
										<mastercomment1/>
										<mastercomment2/>
										<mastercomment3/>
										<mastercomment4/>
									</comments>
									<file id="YIN_2013-05-28_LG-4 "/>
									<filter>
										<effect>
											<name>Audio Levels</name>
											<effectid>audiolevels</effectid>
											<effectcategory>audiolevels</effectcategory>
											<effecttype>audiolevels</effecttype>
											<mediatype>audio</mediatype>
											<parameter>
												<name>Level</name>
												<parameterid>level</parameterid>
												<valuemin>0</valuemin>
												<valuemax>3.98109</valuemax>
												<value>1.78342</value>
											</parameter>
										</effect>
									</filter>
									<filter>
										<effect>
											<name>Audio Pan</name>
											<effectid>audiopan</effectid>
											<effectcategory>audiopan</effectcategory>
											<effecttype>audiopan</effecttype>
											<mediatype>audio</mediatype>
											<parameter>
												<name>Pan</name>
												<parameterid>pan</parameterid>
												<valuemin>-1</valuemin>
												<valuemax>1</valuemax>
												<value>-0</value>
											</parameter>
										</effect>
									</filter>
									<sourcetrack>
										<mediatype>audio</mediatype>
										<trackindex>2</trackindex>
									</sourcetrack>
									<link>
										<linkclipref>Raw Scene Matthew Duepner Walkabout411</linkclipref>
										<mediatype>video</mediatype>
										<trackindex>2</trackindex>
										<clipindex>39</clipindex>
									</link>
									<link>
										<linkclipref>Raw Scene Matthew Duepner Walkabout412</linkclipref>
										<mediatype>audio</mediatype>
										<trackindex>5</trackindex>
										<clipindex>32</clipindex>
										<groupindex>1</groupindex>
									</link>
									<link>
										<linkclipref>Raw Scene Matthew Duepner Walkabout413</linkclipref>
										<mediatype>audio</mediatype>
										<trackindex>6</trackindex>
										<clipindex>32</clipindex>
										<groupindex>1</groupindex>
									</link>
									<itemhistory>
										<uuid>70ADE2F3-DF78-4AC3-8520-E595197D2CE2</uuid>
									</itemhistory>
								</clipitem>
								<clipitem id="Raw Scene Matthew Duepner Walkabout416">
									<name>Raw Scene Matthew Duepner Walkabout</name>
									<duration>38484</duration>
									<rate>
										<ntsc>TRUE</ntsc>
										<timebase>24</timebase>
									</rate>
									<in>17326</in>
									<out>17746</out>
									<start>5617</start>
									<end>6037</end>
									<masterclipid>Raw Scene Matthew Duepner Walkabout234</masterclipid>
									<logginginfo>
										<scene/>
										<shottake/>
										<lognote/>
										<good>FALSE</good>
									</logginginfo>
									<labels>
										<label2/>
									</labels>
									<comments>
										<mastercomment1/>
										<mastercomment2/>
										<mastercomment3/>
										<mastercomment4/>
									</comments>
									<file id="YIN_2013-05-28_LG-4 "/>
									<filter>
										<effect>
											<name>Audio Levels</name>
											<effectid>audiolevels</effectid>
											<effectcategory>audiolevels</effectcategory>
											<effecttype>audiolevels</effecttype>
											<mediatype>audio</mediatype>
											<parameter>
												<name>Level</name>
												<parameterid>level</parameterid>
												<valuemin>0</valuemin>
												<valuemax>3.98109</valuemax>
												<value>1.78342</value>
											</parameter>
										</effect>
									</filter>
									<filter>
										<effect>
											<name>Audio Pan</name>
											<effectid>audiopan</effectid>
											<effectcategory>audiopan</effectcategory>
											<effecttype>audiopan</effecttype>
											<mediatype>audio</mediatype>
											<parameter>
												<name>Pan</name>
												<parameterid>pan</parameterid>
												<valuemin>-1</valuemin>
												<valuemax>1</valuemax>
												<value>-0</value>
											</parameter>
										</effect>
									</filter>
									<sourcetrack>
										<mediatype>audio</mediatype>
										<trackindex>2</trackindex>
									</sourcetrack>
									<link>
										<linkclipref>Raw Scene Matthew Duepner Walkabout414</linkclipref>
										<mediatype>video</mediatype>
										<trackindex>2</trackindex>
										<clipindex>40</clipindex>
									</link>
									<link>
										<linkclipref>Raw Scene Matthew Duepner Walkabout415</linkclipref>
										<mediatype>audio</mediatype>
										<trackindex>5</trackindex>
										<clipindex>33</clipindex>
										<groupindex>1</groupindex>
									</link>
									<link>
										<linkclipref>Raw Scene Matthew Duepner Walkabout416</linkclipref>
										<mediatype>audio</mediatype>
										<trackindex>6</trackindex>
										<clipindex>33</clipindex>
										<groupindex>1</groupindex>
									</link>
									<itemhistory>
										<uuid>2A5A1311-A864-4A46-8B67-BEE2D7FBDFF6</uuid>
									</itemhistory>
								</clipitem>
								<clipitem id="Raw Scene Matthew Duepner Walkabout419">
									<name>Raw Scene Matthew Duepner Walkabout</name>
									<duration>38484</duration>
									<rate>
										<ntsc>TRUE</ntsc>
										<timebase>24</timebase>
									</rate>
									<in>18256</in>
									<out>18413</out>
									<start>6037</start>
									<end>-1</end>
									<masterclipid>Raw Scene Matthew Duepner Walkabout234</masterclipid>
									<logginginfo>
										<scene/>
										<shottake/>
										<lognote/>
										<good>FALSE</good>
									</logginginfo>
									<labels>
										<label2/>
									</labels>
									<comments>
										<mastercomment1/>
										<mastercomment2/>
										<mastercomment3/>
										<mastercomment4/>
									</comments>
									<file id="YIN_2013-05-28_LG-4 "/>
									<filter>
										<effect>
											<name>Audio Levels</name>
											<effectid>audiolevels</effectid>
											<effectcategory>audiolevels</effectcategory>
											<effecttype>audiolevels</effecttype>
											<mediatype>audio</mediatype>
											<parameter>
												<name>Level</name>
												<parameterid>level</parameterid>
												<valuemin>0</valuemin>
												<valuemax>3.98109</valuemax>
												<value>1.78342</value>
											</parameter>
										</effect>
									</filter>
									<filter>
										<effect>
											<name>Audio Pan</name>
											<effectid>audiopan</effectid>
											<effectcategory>audiopan</effectcategory>
											<effecttype>audiopan</effecttype>
											<mediatype>audio</mediatype>
											<parameter>
												<name>Pan</name>
												<parameterid>pan</parameterid>
												<valuemin>-1</valuemin>
												<valuemax>1</valuemax>
												<value>-0</value>
											</parameter>
										</effect>
									</filter>
									<sourcetrack>
										<mediatype>audio</mediatype>
										<trackindex>2</trackindex>
									</sourcetrack>
									<link>
										<linkclipref>Raw Scene Matthew Duepner Walkabout417</linkclipref>
										<mediatype>video</mediatype>
										<trackindex>2</trackindex>
										<clipindex>41</clipindex>
									</link>
									<link>
										<linkclipref>Raw Scene Matthew Duepner Walkabout418</linkclipref>
										<mediatype>audio</mediatype>
										<trackindex>5</trackindex>
										<clipindex>34</clipindex>
										<groupindex>1</groupindex>
									</link>
									<link>
										<linkclipref>Raw Scene Matthew Duepner Walkabout419</linkclipref>
										<mediatype>audio</mediatype>
										<trackindex>6</trackindex>
										<clipindex>34</clipindex>
										<groupindex>1</groupindex>
									</link>
									<itemhistory>
										<uuid>045E3392-84C8-4E10-8F8A-6F5FC5F90DAD</uuid>
									</itemhistory>
								</clipitem>
								<transitionitem>
									<rate>
										<ntsc>TRUE</ntsc>
										<timebase>24</timebase>
									</rate>
									<start>6170</start>
									<end>6194</end>
									<alignment>end</alignment>
									<effect>
										<name>Cross Fade ( 0dB)</name>
										<effectid>KGAudioTransCrossFade0dB</effectid>
										<effecttype>transition</effecttype>
										<mediatype>audio</mediatype>
										<startratio>0</startratio>
										<endratio>1</endratio>
										<reverse>FALSE</reverse>
									</effect>
								</transitionitem>
								<clipitem id="Raw Scene Matthew Duepner Walkabout422">
									<name>Raw Scene Matthew Duepner Walkabout</name>
									<duration>38484</duration>
									<rate>
										<ntsc>TRUE</ntsc>
										<timebase>24</timebase>
									</rate>
									<in>19734</in>
									<out>19977</out>
									<start>-1</start>
									<end>-1</end>
									<masterclipid>Raw Scene Matthew Duepner Walkabout234</masterclipid>
									<logginginfo>
										<scene/>
										<shottake/>
										<lognote/>
										<good>FALSE</good>
									</logginginfo>
									<labels>
										<label2/>
									</labels>
									<comments>
										<mastercomment1/>
										<mastercomment2/>
										<mastercomment3/>
										<mastercomment4/>
									</comments>
									<file id="YIN_2013-05-28_LG-4 "/>
									<filter>
										<effect>
											<name>Audio Levels</name>
											<effectid>audiolevels</effectid>
											<effectcategory>audiolevels</effectcategory>
											<effecttype>audiolevels</effecttype>
											<mediatype>audio</mediatype>
											<parameter>
												<name>Level</name>
												<parameterid>level</parameterid>
												<valuemin>0</valuemin>
												<valuemax>3.98109</valuemax>
												<value>1.78342</value>
											</parameter>
										</effect>
									</filter>
									<filter>
										<effect>
											<name>Audio Pan</name>
											<effectid>audiopan</effectid>
											<effectcategory>audiopan</effectcategory>
											<effecttype>audiopan</effecttype>
											<mediatype>audio</mediatype>
											<parameter>
												<name>Pan</name>
												<parameterid>pan</parameterid>
												<valuemin>-1</valuemin>
												<valuemax>1</valuemax>
												<value>-0</value>
											</parameter>
										</effect>
									</filter>
									<sourcetrack>
										<mediatype>audio</mediatype>
										<trackindex>2</trackindex>
									</sourcetrack>
									<link>
										<linkclipref>Raw Scene Matthew Duepner Walkabout420</linkclipref>
										<mediatype>video</mediatype>
										<trackindex>2</trackindex>
										<clipindex>42</clipindex>
									</link>
									<link>
										<linkclipref>Raw Scene Matthew Duepner Walkabout421</linkclipref>
										<mediatype>audio</mediatype>
										<trackindex>5</trackindex>
										<clipindex>36</clipindex>
										<groupindex>1</groupindex>
									</link>
									<link>
										<linkclipref>Raw Scene Matthew Duepner Walkabout422</linkclipref>
										<mediatype>audio</mediatype>
										<trackindex>6</trackindex>
										<clipindex>36</clipindex>
										<groupindex>1</groupindex>
									</link>
									<itemhistory>
										<uuid>8CDCD21F-12F6-464D-91DA-FA28371FF66E</uuid>
									</itemhistory>
								</clipitem>
								<transitionitem>
									<rate>
										<ntsc>TRUE</ntsc>
										<timebase>24</timebase>
									</rate>
									<start>6389</start>
									<end>6413</end>
									<alignment>start</alignment>
									<effect>
										<name>Cross Fade ( 0dB)</name>
										<effectid>KGAudioTransCrossFade0dB</effectid>
										<effecttype>transition</effecttype>
										<mediatype>audio</mediatype>
										<startratio>0</startratio>
										<endratio>1</endratio>
										<reverse>FALSE</reverse>
									</effect>
								</transitionitem>
								<clipitem id="Raw Scene Matthew Duepner Walkabout425">
									<name>Raw Scene Matthew Duepner Walkabout</name>
									<duration>38484</duration>
									<rate>
										<ntsc>TRUE</ntsc>
										<timebase>24</timebase>
									</rate>
									<in>21572</in>
									<out>21660</out>
									<start>-1</start>
									<end>6477</end>
									<masterclipid>Raw Scene Matthew Duepner Walkabout234</masterclipid>
									<logginginfo>
										<scene/>
										<shottake/>
										<lognote/>
										<good>FALSE</good>
									</logginginfo>
									<labels>
										<label2/>
									</labels>
									<comments>
										<mastercomment1/>
										<mastercomment2/>
										<mastercomment3/>
										<mastercomment4/>
									</comments>
									<file id="YIN_2013-05-28_LG-4 "/>
									<filter>
										<effect>
											<name>Audio Levels</name>
											<effectid>audiolevels</effectid>
											<effectcategory>audiolevels</effectcategory>
											<effecttype>audiolevels</effecttype>
											<mediatype>audio</mediatype>
											<parameter>
												<name>Level</name>
												<parameterid>level</parameterid>
												<valuemin>0</valuemin>
												<valuemax>3.98109</valuemax>
												<value>1.78342</value>
											</parameter>
										</effect>
									</filter>
									<filter>
										<effect>
											<name>Audio Pan</name>
											<effectid>audiopan</effectid>
											<effectcategory>audiopan</effectcategory>
											<effecttype>audiopan</effecttype>
											<mediatype>audio</mediatype>
											<parameter>
												<name>Pan</name>
												<parameterid>pan</parameterid>
												<valuemin>-1</valuemin>
												<valuemax>1</valuemax>
												<value>-0</value>
											</parameter>
										</effect>
									</filter>
									<sourcetrack>
										<mediatype>audio</mediatype>
										<trackindex>2</trackindex>
									</sourcetrack>
									<link>
										<linkclipref>Raw Scene Matthew Duepner Walkabout423</linkclipref>
										<mediatype>video</mediatype>
										<trackindex>2</trackindex>
										<clipindex>43</clipindex>
									</link>
									<link>
										<linkclipref>Raw Scene Matthew Duepner Walkabout424</linkclipref>
										<mediatype>audio</mediatype>
										<trackindex>5</trackindex>
										<clipindex>38</clipindex>
										<groupindex>1</groupindex>
									</link>
									<link>
										<linkclipref>Raw Scene Matthew Duepner Walkabout425</linkclipref>
										<mediatype>audio</mediatype>
										<trackindex>6</trackindex>
										<clipindex>38</clipindex>
										<groupindex>1</groupindex>
									</link>
									<itemhistory>
										<uuid>40AE1620-DF90-404C-B59B-17C0301DA6BA</uuid>
									</itemhistory>
								</clipitem>
								<clipitem id="Raw Scene Matthew Duepner Walkabout428">
									<name>Raw Scene Matthew Duepner Walkabout</name>
									<duration>38484</duration>
									<rate>
										<ntsc>TRUE</ntsc>
										<timebase>24</timebase>
									</rate>
									<in>22012</in>
									<out>22143</out>
									<start>6477</start>
									<end>6608</end>
									<masterclipid>Raw Scene Matthew Duepner Walkabout234</masterclipid>
									<logginginfo>
										<scene/>
										<shottake/>
										<lognote/>
										<good>FALSE</good>
									</logginginfo>
									<labels>
										<label2/>
									</labels>
									<comments>
										<mastercomment1/>
										<mastercomment2/>
										<mastercomment3/>
										<mastercomment4/>
									</comments>
									<file id="YIN_2013-05-28_LG-4 "/>
									<filter>
										<effect>
											<name>Audio Levels</name>
											<effectid>audiolevels</effectid>
											<effectcategory>audiolevels</effectcategory>
											<effecttype>audiolevels</effecttype>
											<mediatype>audio</mediatype>
											<parameter>
												<name>Level</name>
												<parameterid>level</parameterid>
												<valuemin>0</valuemin>
												<valuemax>3.98109</valuemax>
												<value>1.78342</value>
											</parameter>
										</effect>
									</filter>
									<filter>
										<effect>
											<name>Audio Pan</name>
											<effectid>audiopan</effectid>
											<effectcategory>audiopan</effectcategory>
											<effecttype>audiopan</effecttype>
											<mediatype>audio</mediatype>
											<parameter>
												<name>Pan</name>
												<parameterid>pan</parameterid>
												<valuemin>-1</valuemin>
												<valuemax>1</valuemax>
												<value>-0</value>
											</parameter>
										</effect>
									</filter>
									<sourcetrack>
										<mediatype>audio</mediatype>
										<trackindex>2</trackindex>
									</sourcetrack>
									<link>
										<linkclipref>Raw Scene Matthew Duepner Walkabout426</linkclipref>
										<mediatype>video</mediatype>
										<trackindex>2</trackindex>
										<clipindex>44</clipindex>
									</link>
									<link>
										<linkclipref>Raw Scene Matthew Duepner Walkabout427</linkclipref>
										<mediatype>audio</mediatype>
										<trackindex>5</trackindex>
										<clipindex>39</clipindex>
										<groupindex>1</groupindex>
									</link>
									<link>
										<linkclipref>Raw Scene Matthew Duepner Walkabout428</linkclipref>
										<mediatype>audio</mediatype>
										<trackindex>6</trackindex>
										<clipindex>39</clipindex>
										<groupindex>1</groupindex>
									</link>
									<itemhistory>
										<uuid>936A6D54-EB79-4E13-AA47-5E00AEAC0A6D</uuid>
									</itemhistory>
								</clipitem>
								<clipitem id="Raw Scene Matthew Duepner Walkabout431">
									<name>Raw Scene Matthew Duepner Walkabout</name>
									<duration>38484</duration>
									<rate>
										<ntsc>TRUE</ntsc>
										<timebase>24</timebase>
									</rate>
									<in>23496</in>
									<out>23611</out>
									<start>6608</start>
									<end>6723</end>
									<masterclipid>Raw Scene Matthew Duepner Walkabout234</masterclipid>
									<logginginfo>
										<scene/>
										<shottake/>
										<lognote/>
										<good>FALSE</good>
									</logginginfo>
									<labels>
										<label2/>
									</labels>
									<comments>
										<mastercomment1/>
										<mastercomment2/>
										<mastercomment3/>
										<mastercomment4/>
									</comments>
									<file id="YIN_2013-05-28_LG-4 "/>
									<filter>
										<effect>
											<name>Audio Levels</name>
											<effectid>audiolevels</effectid>
											<effectcategory>audiolevels</effectcategory>
											<effecttype>audiolevels</effecttype>
											<mediatype>audio</mediatype>
											<parameter>
												<name>Level</name>
												<parameterid>level</parameterid>
												<valuemin>0</valuemin>
												<valuemax>3.98109</valuemax>
												<value>1.78342</value>
											</parameter>
										</effect>
									</filter>
									<filter>
										<effect>
											<name>Audio Pan</name>
											<effectid>audiopan</effectid>
											<effectcategory>audiopan</effectcategory>
											<effecttype>audiopan</effecttype>
											<mediatype>audio</mediatype>
											<parameter>
												<name>Pan</name>
												<parameterid>pan</parameterid>
												<valuemin>-1</valuemin>
												<valuemax>1</valuemax>
												<value>-0</value>
											</parameter>
										</effect>
									</filter>
									<sourcetrack>
										<mediatype>audio</mediatype>
										<trackindex>2</trackindex>
									</sourcetrack>
									<link>
										<linkclipref>Raw Scene Matthew Duepner Walkabout429</linkclipref>
										<mediatype>video</mediatype>
										<trackindex>2</trackindex>
										<clipindex>45</clipindex>
									</link>
									<link>
										<linkclipref>Raw Scene Matthew Duepner Walkabout430</linkclipref>
										<mediatype>audio</mediatype>
										<trackindex>5</trackindex>
										<clipindex>40</clipindex>
										<groupindex>1</groupindex>
									</link>
									<link>
										<linkclipref>Raw Scene Matthew Duepner Walkabout431</linkclipref>
										<mediatype>audio</mediatype>
										<trackindex>6</trackindex>
										<clipindex>40</clipindex>
										<groupindex>1</groupindex>
									</link>
									<itemhistory>
										<uuid>8CB71684-8977-4457-9098-110DFDA8083E</uuid>
									</itemhistory>
								</clipitem>
								<clipitem id="Raw Scene Matthew Duepner Walkabout434">
									<name>Raw Scene Matthew Duepner Walkabout</name>
									<duration>38484</duration>
									<rate>
										<ntsc>TRUE</ntsc>
										<timebase>24</timebase>
									</rate>
									<in>27809</in>
									<out>28338</out>
									<start>6723</start>
									<end>7252</end>
									<masterclipid>Raw Scene Matthew Duepner Walkabout234</masterclipid>
									<logginginfo>
										<scene/>
										<shottake/>
										<lognote/>
										<good>FALSE</good>
									</logginginfo>
									<labels>
										<label2/>
									</labels>
									<comments>
										<mastercomment1/>
										<mastercomment2/>
										<mastercomment3/>
										<mastercomment4/>
									</comments>
									<file id="YIN_2013-05-28_LG-4 "/>
									<filter>
										<effect>
											<name>Audio Levels</name>
											<effectid>audiolevels</effectid>
											<effectcategory>audiolevels</effectcategory>
											<effecttype>audiolevels</effecttype>
											<mediatype>audio</mediatype>
											<parameter>
												<name>Level</name>
												<parameterid>level</parameterid>
												<valuemin>0</valuemin>
												<valuemax>3.98109</valuemax>
												<value>1.78342</value>
											</parameter>
										</effect>
									</filter>
									<filter>
										<effect>
											<name>Audio Pan</name>
											<effectid>audiopan</effectid>
											<effectcategory>audiopan</effectcategory>
											<effecttype>audiopan</effecttype>
											<mediatype>audio</mediatype>
											<parameter>
												<name>Pan</name>
												<parameterid>pan</parameterid>
												<valuemin>-1</valuemin>
												<valuemax>1</valuemax>
												<value>-0</value>
											</parameter>
										</effect>
									</filter>
									<sourcetrack>
										<mediatype>audio</mediatype>
										<trackindex>2</trackindex>
									</sourcetrack>
									<link>
										<linkclipref>Raw Scene Matthew Duepner Walkabout432</linkclipref>
										<mediatype>video</mediatype>
										<trackindex>2</trackindex>
										<clipindex>46</clipindex>
									</link>
									<link>
										<linkclipref>Raw Scene Matthew Duepner Walkabout433</linkclipref>
										<mediatype>audio</mediatype>
										<trackindex>5</trackindex>
										<clipindex>41</clipindex>
										<groupindex>1</groupindex>
									</link>
									<link>
										<linkclipref>Raw Scene Matthew Duepner Walkabout434</linkclipref>
										<mediatype>audio</mediatype>
										<trackindex>6</trackindex>
										<clipindex>41</clipindex>
										<groupindex>1</groupindex>
									</link>
									<itemhistory>
										<uuid>15D07B2C-5C9B-4CBD-8757-D032572A946A</uuid>
									</itemhistory>
								</clipitem>
								<clipitem id="Raw Scene Matthew Duepner Walkabout437">
									<name>Raw Scene Matthew Duepner Walkabout</name>
									<duration>38484</duration>
									<rate>
										<ntsc>TRUE</ntsc>
										<timebase>24</timebase>
									</rate>
									<in>28558</in>
									<out>28719</out>
									<start>7252</start>
									<end>7413</end>
									<masterclipid>Raw Scene Matthew Duepner Walkabout234</masterclipid>
									<logginginfo>
										<scene/>
										<shottake/>
										<lognote/>
										<good>FALSE</good>
									</logginginfo>
									<labels>
										<label2/>
									</labels>
									<comments>
										<mastercomment1/>
										<mastercomment2/>
										<mastercomment3/>
										<mastercomment4/>
									</comments>
									<file id="YIN_2013-05-28_LG-4 "/>
									<filter>
										<effect>
											<name>Audio Levels</name>
											<effectid>audiolevels</effectid>
											<effectcategory>audiolevels</effectcategory>
											<effecttype>audiolevels</effecttype>
											<mediatype>audio</mediatype>
											<parameter>
												<name>Level</name>
												<parameterid>level</parameterid>
												<valuemin>0</valuemin>
												<valuemax>3.98109</valuemax>
												<value>1.78342</value>
											</parameter>
										</effect>
									</filter>
									<filter>
										<effect>
											<name>Audio Pan</name>
											<effectid>audiopan</effectid>
											<effectcategory>audiopan</effectcategory>
											<effecttype>audiopan</effecttype>
											<mediatype>audio</mediatype>
											<parameter>
												<name>Pan</name>
												<parameterid>pan</parameterid>
												<valuemin>-1</valuemin>
												<valuemax>1</valuemax>
												<value>-0</value>
											</parameter>
										</effect>
									</filter>
									<sourcetrack>
										<mediatype>audio</mediatype>
										<trackindex>2</trackindex>
									</sourcetrack>
									<link>
										<linkclipref>Raw Scene Matthew Duepner Walkabout435</linkclipref>
										<mediatype>video</mediatype>
										<trackindex>2</trackindex>
										<clipindex>47</clipindex>
									</link>
									<link>
										<linkclipref>Raw Scene Matthew Duepner Walkabout436</linkclipref>
										<mediatype>audio</mediatype>
										<trackindex>5</trackindex>
										<clipindex>42</clipindex>
										<groupindex>1</groupindex>
									</link>
									<link>
										<linkclipref>Raw Scene Matthew Duepner Walkabout437</linkclipref>
										<mediatype>audio</mediatype>
										<trackindex>6</trackindex>
										<clipindex>42</clipindex>
										<groupindex>1</groupindex>
									</link>
									<itemhistory>
										<uuid>4D01D0ED-3714-4617-A4C4-2B120029A11B</uuid>
									</itemhistory>
								</clipitem>
								<clipitem id="Raw Scene Matthew Duepner Walkabout440">
									<name>Raw Scene Matthew Duepner Walkabout</name>
									<duration>38484</duration>
									<rate>
										<ntsc>TRUE</ntsc>
										<timebase>24</timebase>
									</rate>
									<in>30624</in>
									<out>30700</out>
									<start>7413</start>
									<end>7489</end>
									<masterclipid>Raw Scene Matthew Duepner Walkabout234</masterclipid>
									<logginginfo>
										<scene/>
										<shottake/>
										<lognote/>
										<good>FALSE</good>
									</logginginfo>
									<labels>
										<label2/>
									</labels>
									<comments>
										<mastercomment1/>
										<mastercomment2/>
										<mastercomment3/>
										<mastercomment4/>
									</comments>
									<file id="YIN_2013-05-28_LG-4 "/>
									<filter>
										<effect>
											<name>Audio Levels</name>
											<effectid>audiolevels</effectid>
											<effectcategory>audiolevels</effectcategory>
											<effecttype>audiolevels</effecttype>
											<mediatype>audio</mediatype>
											<parameter>
												<name>Level</name>
												<parameterid>level</parameterid>
												<valuemin>0</valuemin>
												<valuemax>3.98109</valuemax>
												<value>1.78342</value>
											</parameter>
										</effect>
									</filter>
									<filter>
										<effect>
											<name>Audio Pan</name>
											<effectid>audiopan</effectid>
											<effectcategory>audiopan</effectcategory>
											<effecttype>audiopan</effecttype>
											<mediatype>audio</mediatype>
											<parameter>
												<name>Pan</name>
												<parameterid>pan</parameterid>
												<valuemin>-1</valuemin>
												<valuemax>1</valuemax>
												<value>-0</value>
											</parameter>
										</effect>
									</filter>
									<sourcetrack>
										<mediatype>audio</mediatype>
										<trackindex>2</trackindex>
									</sourcetrack>
									<link>
										<linkclipref>Raw Scene Matthew Duepner Walkabout438</linkclipref>
										<mediatype>video</mediatype>
										<trackindex>2</trackindex>
										<clipindex>48</clipindex>
									</link>
									<link>
										<linkclipref>Raw Scene Matthew Duepner Walkabout439</linkclipref>
										<mediatype>audio</mediatype>
										<trackindex>5</trackindex>
										<clipindex>43</clipindex>
										<groupindex>1</groupindex>
									</link>
									<link>
										<linkclipref>Raw Scene Matthew Duepner Walkabout440</linkclipref>
										<mediatype>audio</mediatype>
										<trackindex>6</trackindex>
										<clipindex>43</clipindex>
										<groupindex>1</groupindex>
									</link>
									<itemhistory>
										<uuid>88B2BEBC-1E5A-4FF5-9F9D-E97A8E063844</uuid>
									</itemhistory>
								</clipitem>
								<clipitem id="Raw Scene Matthew Duepner Walkabout443">
									<name>Raw Scene Matthew Duepner Walkabout</name>
									<duration>38484</duration>
									<rate>
										<ntsc>TRUE</ntsc>
										<timebase>24</timebase>
									</rate>
									<in>30946</in>
									<out>30968</out>
									<start>7489</start>
									<end>7511</end>
									<masterclipid>Raw Scene Matthew Duepner Walkabout234</masterclipid>
									<logginginfo>
										<scene/>
										<shottake/>
										<lognote/>
										<good>FALSE</good>
									</logginginfo>
									<labels>
										<label2/>
									</labels>
									<comments>
										<mastercomment1/>
										<mastercomment2/>
										<mastercomment3/>
										<mastercomment4/>
									</comments>
									<file id="YIN_2013-05-28_LG-4 "/>
									<filter>
										<effect>
											<name>Audio Levels</name>
											<effectid>audiolevels</effectid>
											<effectcategory>audiolevels</effectcategory>
											<effecttype>audiolevels</effecttype>
											<mediatype>audio</mediatype>
											<parameter>
												<name>Level</name>
												<parameterid>level</parameterid>
												<valuemin>0</valuemin>
												<valuemax>3.98109</valuemax>
												<value>1.78342</value>
											</parameter>
										</effect>
									</filter>
									<filter>
										<effect>
											<name>Audio Pan</name>
											<effectid>audiopan</effectid>
											<effectcategory>audiopan</effectcategory>
											<effecttype>audiopan</effecttype>
											<mediatype>audio</mediatype>
											<parameter>
												<name>Pan</name>
												<parameterid>pan</parameterid>
												<valuemin>-1</valuemin>
												<valuemax>1</valuemax>
												<value>-0</value>
											</parameter>
										</effect>
									</filter>
									<sourcetrack>
										<mediatype>audio</mediatype>
										<trackindex>2</trackindex>
									</sourcetrack>
									<link>
										<linkclipref>Raw Scene Matthew Duepner Walkabout441</linkclipref>
										<mediatype>video</mediatype>
										<trackindex>2</trackindex>
										<clipindex>49</clipindex>
									</link>
									<link>
										<linkclipref>Raw Scene Matthew Duepner Walkabout442</linkclipref>
										<mediatype>audio</mediatype>
										<trackindex>5</trackindex>
										<clipindex>44</clipindex>
										<groupindex>1</groupindex>
									</link>
									<link>
										<linkclipref>Raw Scene Matthew Duepner Walkabout443</linkclipref>
										<mediatype>audio</mediatype>
										<trackindex>6</trackindex>
										<clipindex>44</clipindex>
										<groupindex>1</groupindex>
									</link>
									<itemhistory>
										<uuid>24975636-0141-465D-A035-B9BA892EB901</uuid>
									</itemhistory>
								</clipitem>
								<clipitem id="Raw Scene Matthew Duepner Walkabout446">
									<name>Raw Scene Matthew Duepner Walkabout</name>
									<duration>38484</duration>
									<rate>
										<ntsc>TRUE</ntsc>
										<timebase>24</timebase>
									</rate>
									<in>31032</in>
									<out>31190</out>
									<start>7511</start>
									<end>7669</end>
									<masterclipid>Raw Scene Matthew Duepner Walkabout234</masterclipid>
									<logginginfo>
										<scene/>
										<shottake/>
										<lognote/>
										<good>FALSE</good>
									</logginginfo>
									<labels>
										<label2/>
									</labels>
									<comments>
										<mastercomment1/>
										<mastercomment2/>
										<mastercomment3/>
										<mastercomment4/>
									</comments>
									<file id="YIN_2013-05-28_LG-4 "/>
									<filter>
										<effect>
											<name>Audio Levels</name>
											<effectid>audiolevels</effectid>
											<effectcategory>audiolevels</effectcategory>
											<effecttype>audiolevels</effecttype>
											<mediatype>audio</mediatype>
											<parameter>
												<name>Level</name>
												<parameterid>level</parameterid>
												<valuemin>0</valuemin>
												<valuemax>3.98109</valuemax>
												<value>1.78342</value>
											</parameter>
										</effect>
									</filter>
									<filter>
										<effect>
											<name>Audio Pan</name>
											<effectid>audiopan</effectid>
											<effectcategory>audiopan</effectcategory>
											<effecttype>audiopan</effecttype>
											<mediatype>audio</mediatype>
											<parameter>
												<name>Pan</name>
												<parameterid>pan</parameterid>
												<valuemin>-1</valuemin>
												<valuemax>1</valuemax>
												<value>-0</value>
											</parameter>
										</effect>
									</filter>
									<sourcetrack>
										<mediatype>audio</mediatype>
										<trackindex>2</trackindex>
									</sourcetrack>
									<link>
										<linkclipref>Raw Scene Matthew Duepner Walkabout444</linkclipref>
										<mediatype>video</mediatype>
										<trackindex>2</trackindex>
										<clipindex>50</clipindex>
									</link>
									<link>
										<linkclipref>Raw Scene Matthew Duepner Walkabout445</linkclipref>
										<mediatype>audio</mediatype>
										<trackindex>5</trackindex>
										<clipindex>45</clipindex>
										<groupindex>1</groupindex>
									</link>
									<link>
										<linkclipref>Raw Scene Matthew Duepner Walkabout446</linkclipref>
										<mediatype>audio</mediatype>
										<trackindex>6</trackindex>
										<clipindex>45</clipindex>
										<groupindex>1</groupindex>
									</link>
									<itemhistory>
										<uuid>91D4CE22-1161-4482-9745-1A0C571FE1D2</uuid>
									</itemhistory>
								</clipitem>
								<clipitem id="Raw Scene Matthew Duepner Walkabout449">
									<name>Raw Scene Matthew Duepner Walkabout</name>
									<duration>38484</duration>
									<rate>
										<ntsc>TRUE</ntsc>
										<timebase>24</timebase>
									</rate>
									<in>31795</in>
									<out>31917</out>
									<start>7669</start>
									<end>7791</end>
									<masterclipid>Raw Scene Matthew Duepner Walkabout234</masterclipid>
									<logginginfo>
										<scene/>
										<shottake/>
										<lognote/>
										<good>FALSE</good>
									</logginginfo>
									<labels>
										<label2/>
									</labels>
									<comments>
										<mastercomment1/>
										<mastercomment2/>
										<mastercomment3/>
										<mastercomment4/>
									</comments>
									<file id="YIN_2013-05-28_LG-4 "/>
									<filter>
										<effect>
											<name>Audio Levels</name>
											<effectid>audiolevels</effectid>
											<effectcategory>audiolevels</effectcategory>
											<effecttype>audiolevels</effecttype>
											<mediatype>audio</mediatype>
											<parameter>
												<name>Level</name>
												<parameterid>level</parameterid>
												<valuemin>0</valuemin>
												<valuemax>3.98109</valuemax>
												<value>1.78342</value>
											</parameter>
										</effect>
									</filter>
									<filter>
										<effect>
											<name>Audio Pan</name>
											<effectid>audiopan</effectid>
											<effectcategory>audiopan</effectcategory>
											<effecttype>audiopan</effecttype>
											<mediatype>audio</mediatype>
											<parameter>
												<name>Pan</name>
												<parameterid>pan</parameterid>
												<valuemin>-1</valuemin>
												<valuemax>1</valuemax>
												<value>-0</value>
											</parameter>
										</effect>
									</filter>
									<sourcetrack>
										<mediatype>audio</mediatype>
										<trackindex>2</trackindex>
									</sourcetrack>
									<link>
										<linkclipref>Raw Scene Matthew Duepner Walkabout447</linkclipref>
										<mediatype>video</mediatype>
										<trackindex>2</trackindex>
										<clipindex>51</clipindex>
									</link>
									<link>
										<linkclipref>Raw Scene Matthew Duepner Walkabout448</linkclipref>
										<mediatype>audio</mediatype>
										<trackindex>5</trackindex>
										<clipindex>46</clipindex>
										<groupindex>1</groupindex>
									</link>
									<link>
										<linkclipref>Raw Scene Matthew Duepner Walkabout449</linkclipref>
										<mediatype>audio</mediatype>
										<trackindex>6</trackindex>
										<clipindex>46</clipindex>
										<groupindex>1</groupindex>
									</link>
									<itemhistory>
										<uuid>E3BCF435-A548-4A3B-A237-B12B0BD3E249</uuid>
									</itemhistory>
								</clipitem>
								<clipitem id="Raw Scene Matthew Duepner Walkabout452">
									<name>Raw Scene Matthew Duepner Walkabout</name>
									<duration>38484</duration>
									<rate>
										<ntsc>TRUE</ntsc>
										<timebase>24</timebase>
									</rate>
									<in>32375</in>
									<out>32507</out>
									<start>7791</start>
									<end>7923</end>
									<masterclipid>Raw Scene Matthew Duepner Walkabout234</masterclipid>
									<logginginfo>
										<scene/>
										<shottake/>
										<lognote/>
										<good>FALSE</good>
									</logginginfo>
									<labels>
										<label2/>
									</labels>
									<comments>
										<mastercomment1/>
										<mastercomment2/>
										<mastercomment3/>
										<mastercomment4/>
									</comments>
									<file id="YIN_2013-05-28_LG-4 "/>
									<filter>
										<effect>
											<name>Audio Levels</name>
											<effectid>audiolevels</effectid>
											<effectcategory>audiolevels</effectcategory>
											<effecttype>audiolevels</effecttype>
											<mediatype>audio</mediatype>
											<parameter>
												<name>Level</name>
												<parameterid>level</parameterid>
												<valuemin>0</valuemin>
												<valuemax>3.98109</valuemax>
												<value>1.78342</value>
											</parameter>
										</effect>
									</filter>
									<filter>
										<effect>
											<name>Audio Pan</name>
											<effectid>audiopan</effectid>
											<effectcategory>audiopan</effectcategory>
											<effecttype>audiopan</effecttype>
											<mediatype>audio</mediatype>
											<parameter>
												<name>Pan</name>
												<parameterid>pan</parameterid>
												<valuemin>-1</valuemin>
												<valuemax>1</valuemax>
												<value>-0</value>
											</parameter>
										</effect>
									</filter>
									<sourcetrack>
										<mediatype>audio</mediatype>
										<trackindex>2</trackindex>
									</sourcetrack>
									<link>
										<linkclipref>Raw Scene Matthew Duepner Walkabout450</linkclipref>
										<mediatype>video</mediatype>
										<trackindex>2</trackindex>
										<clipindex>52</clipindex>
									</link>
									<link>
										<linkclipref>Raw Scene Matthew Duepner Walkabout451</linkclipref>
										<mediatype>audio</mediatype>
										<trackindex>5</trackindex>
										<clipindex>47</clipindex>
										<groupindex>1</groupindex>
									</link>
									<link>
										<linkclipref>Raw Scene Matthew Duepner Walkabout452</linkclipref>
										<mediatype>audio</mediatype>
										<trackindex>6</trackindex>
										<clipindex>47</clipindex>
										<groupindex>1</groupindex>
									</link>
									<itemhistory>
										<uuid>5CF3E584-1934-4376-B725-B7A91B4AD105</uuid>
									</itemhistory>
								</clipitem>
								<clipitem id="Raw Scene Matthew Duepner Walkabout455">
									<name>Raw Scene Matthew Duepner Walkabout</name>
									<duration>38484</duration>
									<rate>
										<ntsc>TRUE</ntsc>
										<timebase>24</timebase>
									</rate>
									<in>32997</in>
									<out>33142</out>
									<start>7923</start>
									<end>8068</end>
									<masterclipid>Raw Scene Matthew Duepner Walkabout234</masterclipid>
									<logginginfo>
										<scene/>
										<shottake/>
										<lognote/>
										<good>FALSE</good>
									</logginginfo>
									<labels>
										<label2/>
									</labels>
									<comments>
										<mastercomment1/>
										<mastercomment2/>
										<mastercomment3/>
										<mastercomment4/>
									</comments>
									<file id="YIN_2013-05-28_LG-4 "/>
									<filter>
										<effect>
											<name>Audio Levels</name>
											<effectid>audiolevels</effectid>
											<effectcategory>audiolevels</effectcategory>
											<effecttype>audiolevels</effecttype>
											<mediatype>audio</mediatype>
											<parameter>
												<name>Level</name>
												<parameterid>level</parameterid>
												<valuemin>0</valuemin>
												<valuemax>3.98109</valuemax>
												<value>1.78342</value>
											</parameter>
										</effect>
									</filter>
									<filter>
										<effect>
											<name>Audio Pan</name>
											<effectid>audiopan</effectid>
											<effectcategory>audiopan</effectcategory>
											<effecttype>audiopan</effecttype>
											<mediatype>audio</mediatype>
											<parameter>
												<name>Pan</name>
												<parameterid>pan</parameterid>
												<valuemin>-1</valuemin>
												<valuemax>1</valuemax>
												<value>-0</value>
											</parameter>
										</effect>
									</filter>
									<sourcetrack>
										<mediatype>audio</mediatype>
										<trackindex>2</trackindex>
									</sourcetrack>
									<link>
										<linkclipref>Raw Scene Matthew Duepner Walkabout453</linkclipref>
										<mediatype>video</mediatype>
										<trackindex>2</trackindex>
										<clipindex>53</clipindex>
									</link>
									<link>
										<linkclipref>Raw Scene Matthew Duepner Walkabout454</linkclipref>
										<mediatype>audio</mediatype>
										<trackindex>5</trackindex>
										<clipindex>48</clipindex>
										<groupindex>1</groupindex>
									</link>
									<link>
										<linkclipref>Raw Scene Matthew Duepner Walkabout455</linkclipref>
										<mediatype>audio</mediatype>
										<trackindex>6</trackindex>
										<clipindex>48</clipindex>
										<groupindex>1</groupindex>
									</link>
									<itemhistory>
										<uuid>9A3B8AAA-F1B9-4EA4-94B4-2E9D1E110139</uuid>
									</itemhistory>
								</clipitem>
								<clipitem id="Raw Scene Matthew Duepner Walkabout458">
									<name>Raw Scene Matthew Duepner Walkabout</name>
									<duration>38484</duration>
									<rate>
										<ntsc>TRUE</ntsc>
										<timebase>24</timebase>
									</rate>
									<in>37446</in>
									<out>37533</out>
									<start>8068</start>
									<end>8155</end>
									<masterclipid>Raw Scene Matthew Duepner Walkabout234</masterclipid>
									<logginginfo>
										<scene/>
										<shottake/>
										<lognote/>
										<good>FALSE</good>
									</logginginfo>
									<labels>
										<label2/>
									</labels>
									<comments>
										<mastercomment1/>
										<mastercomment2/>
										<mastercomment3/>
										<mastercomment4/>
									</comments>
									<file id="YIN_2013-05-28_LG-4 "/>
									<filter>
										<effect>
											<name>Audio Levels</name>
											<effectid>audiolevels</effectid>
											<effectcategory>audiolevels</effectcategory>
											<effecttype>audiolevels</effecttype>
											<mediatype>audio</mediatype>
											<parameter>
												<name>Level</name>
												<parameterid>level</parameterid>
												<valuemin>0</valuemin>
												<valuemax>3.98109</valuemax>
												<value>1.78342</value>
											</parameter>
										</effect>
									</filter>
									<filter>
										<effect>
											<name>Audio Pan</name>
											<effectid>audiopan</effectid>
											<effectcategory>audiopan</effectcategory>
											<effecttype>audiopan</effecttype>
											<mediatype>audio</mediatype>
											<parameter>
												<name>Pan</name>
												<parameterid>pan</parameterid>
												<valuemin>-1</valuemin>
												<valuemax>1</valuemax>
												<value>-0</value>
											</parameter>
										</effect>
									</filter>
									<sourcetrack>
										<mediatype>audio</mediatype>
										<trackindex>2</trackindex>
									</sourcetrack>
									<link>
										<linkclipref>Raw Scene Matthew Duepner Walkabout456</linkclipref>
										<mediatype>video</mediatype>
										<trackindex>2</trackindex>
										<clipindex>54</clipindex>
									</link>
									<link>
										<linkclipref>Raw Scene Matthew Duepner Walkabout457</linkclipref>
										<mediatype>audio</mediatype>
										<trackindex>5</trackindex>
										<clipindex>49</clipindex>
										<groupindex>1</groupindex>
									</link>
									<link>
										<linkclipref>Raw Scene Matthew Duepner Walkabout458</linkclipref>
										<mediatype>audio</mediatype>
										<trackindex>6</trackindex>
										<clipindex>49</clipindex>
										<groupindex>1</groupindex>
									</link>
									<itemhistory>
										<uuid>5F4B4384-2388-48B4-A7F7-E072F998EAE7</uuid>
									</itemhistory>
								</clipitem>
								<clipitem id="Raw Scene Matthew Duepner Walkabout461">
									<name>Raw Scene Matthew Duepner Walkabout</name>
									<duration>38484</duration>
									<rate>
										<ntsc>TRUE</ntsc>
										<timebase>24</timebase>
									</rate>
									<in>36124</in>
									<out>36168</out>
									<start>8155</start>
									<end>8199</end>
									<masterclipid>Raw Scene Matthew Duepner Walkabout234</masterclipid>
									<logginginfo>
										<scene/>
										<shottake/>
										<lognote/>
										<good>FALSE</good>
									</logginginfo>
									<labels>
										<label2/>
									</labels>
									<comments>
										<mastercomment1/>
										<mastercomment2/>
										<mastercomment3/>
										<mastercomment4/>
									</comments>
									<file id="YIN_2013-05-28_LG-4 "/>
									<filter>
										<effect>
											<name>Audio Levels</name>
											<effectid>audiolevels</effectid>
											<effectcategory>audiolevels</effectcategory>
											<effecttype>audiolevels</effecttype>
											<mediatype>audio</mediatype>
											<parameter>
												<name>Level</name>
												<parameterid>level</parameterid>
												<valuemin>0</valuemin>
												<valuemax>3.98109</valuemax>
												<value>1.78342</value>
											</parameter>
										</effect>
									</filter>
									<filter>
										<effect>
											<name>Audio Pan</name>
											<effectid>audiopan</effectid>
											<effectcategory>audiopan</effectcategory>
											<effecttype>audiopan</effecttype>
											<mediatype>audio</mediatype>
											<parameter>
												<name>Pan</name>
												<parameterid>pan</parameterid>
												<valuemin>-1</valuemin>
												<valuemax>1</valuemax>
												<value>-0</value>
											</parameter>
										</effect>
									</filter>
									<sourcetrack>
										<mediatype>audio</mediatype>
										<trackindex>2</trackindex>
									</sourcetrack>
									<link>
										<linkclipref>Raw Scene Matthew Duepner Walkabout459</linkclipref>
										<mediatype>video</mediatype>
										<trackindex>2</trackindex>
										<clipindex>55</clipindex>
									</link>
									<link>
										<linkclipref>Raw Scene Matthew Duepner Walkabout460</linkclipref>
										<mediatype>audio</mediatype>
										<trackindex>5</trackindex>
										<clipindex>50</clipindex>
										<groupindex>1</groupindex>
									</link>
									<link>
										<linkclipref>Raw Scene Matthew Duepner Walkabout461</linkclipref>
										<mediatype>audio</mediatype>
										<trackindex>6</trackindex>
										<clipindex>50</clipindex>
										<groupindex>1</groupindex>
									</link>
									<itemhistory>
										<uuid>B14DCCDF-FCAE-48B2-96C5-383E88484187</uuid>
									</itemhistory>
								</clipitem>
								<clipitem id="Raw Scene Matthew Duepner Walkabout464">
									<name>Raw Scene Matthew Duepner Walkabout</name>
									<duration>38484</duration>
									<rate>
										<ntsc>TRUE</ntsc>
										<timebase>24</timebase>
									</rate>
									<in>36397</in>
									<out>36474</out>
									<start>8199</start>
									<end>8276</end>
									<masterclipid>Raw Scene Matthew Duepner Walkabout234</masterclipid>
									<logginginfo>
										<scene/>
										<shottake/>
										<lognote/>
										<good>FALSE</good>
									</logginginfo>
									<labels>
										<label2/>
									</labels>
									<comments>
										<mastercomment1/>
										<mastercomment2/>
										<mastercomment3/>
										<mastercomment4/>
									</comments>
									<file id="YIN_2013-05-28_LG-4 "/>
									<filter>
										<effect>
											<name>Audio Levels</name>
											<effectid>audiolevels</effectid>
											<effectcategory>audiolevels</effectcategory>
											<effecttype>audiolevels</effecttype>
											<mediatype>audio</mediatype>
											<parameter>
												<name>Level</name>
												<parameterid>level</parameterid>
												<valuemin>0</valuemin>
												<valuemax>3.98109</valuemax>
												<value>1.78342</value>
											</parameter>
										</effect>
									</filter>
									<filter>
										<effect>
											<name>Audio Pan</name>
											<effectid>audiopan</effectid>
											<effectcategory>audiopan</effectcategory>
											<effecttype>audiopan</effecttype>
											<mediatype>audio</mediatype>
											<parameter>
												<name>Pan</name>
												<parameterid>pan</parameterid>
												<valuemin>-1</valuemin>
												<valuemax>1</valuemax>
												<value>-0</value>
											</parameter>
										</effect>
									</filter>
									<sourcetrack>
										<mediatype>audio</mediatype>
										<trackindex>2</trackindex>
									</sourcetrack>
									<link>
										<linkclipref>Raw Scene Matthew Duepner Walkabout462</linkclipref>
										<mediatype>video</mediatype>
										<trackindex>2</trackindex>
										<clipindex>56</clipindex>
									</link>
									<link>
										<linkclipref>Raw Scene Matthew Duepner Walkabout463</linkclipref>
										<mediatype>audio</mediatype>
										<trackindex>5</trackindex>
										<clipindex>51</clipindex>
										<groupindex>1</groupindex>
									</link>
									<link>
										<linkclipref>Raw Scene Matthew Duepner Walkabout464</linkclipref>
										<mediatype>audio</mediatype>
										<trackindex>6</trackindex>
										<clipindex>51</clipindex>
										<groupindex>1</groupindex>
									</link>
									<itemhistory>
										<uuid>3FBDC8A4-2496-4882-BA4F-147939ED4D86</uuid>
									</itemhistory>
								</clipitem>
								<clipitem id="Raw Scene Matthew Duepner Walkabout467">
									<name>Raw Scene Matthew Duepner Walkabout</name>
									<duration>38484</duration>
									<rate>
										<ntsc>TRUE</ntsc>
										<timebase>24</timebase>
									</rate>
									<in>37856</in>
									<out>37874</out>
									<start>8276</start>
									<end>8294</end>
									<masterclipid>Raw Scene Matthew Duepner Walkabout234</masterclipid>
									<logginginfo>
										<scene/>
										<shottake/>
										<lognote/>
										<good>FALSE</good>
									</logginginfo>
									<labels>
										<label2/>
									</labels>
									<comments>
										<mastercomment1/>
										<mastercomment2/>
										<mastercomment3/>
										<mastercomment4/>
									</comments>
									<file id="YIN_2013-05-28_LG-4 "/>
									<filter>
										<effect>
											<name>Audio Levels</name>
											<effectid>audiolevels</effectid>
											<effectcategory>audiolevels</effectcategory>
											<effecttype>audiolevels</effecttype>
											<mediatype>audio</mediatype>
											<parameter>
												<name>Level</name>
												<parameterid>level</parameterid>
												<valuemin>0</valuemin>
												<valuemax>3.98109</valuemax>
												<value>1.78342</value>
											</parameter>
										</effect>
									</filter>
									<filter>
										<effect>
											<name>Audio Pan</name>
											<effectid>audiopan</effectid>
											<effectcategory>audiopan</effectcategory>
											<effecttype>audiopan</effecttype>
											<mediatype>audio</mediatype>
											<parameter>
												<name>Pan</name>
												<parameterid>pan</parameterid>
												<valuemin>-1</valuemin>
												<valuemax>1</valuemax>
												<value>-0</value>
											</parameter>
										</effect>
									</filter>
									<sourcetrack>
										<mediatype>audio</mediatype>
										<trackindex>2</trackindex>
									</sourcetrack>
									<link>
										<linkclipref>Raw Scene Matthew Duepner Walkabout465</linkclipref>
										<mediatype>video</mediatype>
										<trackindex>2</trackindex>
										<clipindex>57</clipindex>
									</link>
									<link>
										<linkclipref>Raw Scene Matthew Duepner Walkabout466</linkclipref>
										<mediatype>audio</mediatype>
										<trackindex>5</trackindex>
										<clipindex>52</clipindex>
										<groupindex>1</groupindex>
									</link>
									<link>
										<linkclipref>Raw Scene Matthew Duepner Walkabout467</linkclipref>
										<mediatype>audio</mediatype>
										<trackindex>6</trackindex>
										<clipindex>52</clipindex>
										<groupindex>1</groupindex>
									</link>
									<itemhistory>
										<uuid>1121E5C6-3E2F-40BC-B0E4-74418B7C2AEB</uuid>
									</itemhistory>
								</clipitem>
								<clipitem id="Raw Scene Matthew Duepner Walkabout470">
									<name>Raw Scene Matthew Duepner Walkabout</name>
									<duration>38484</duration>
									<rate>
										<ntsc>TRUE</ntsc>
										<timebase>24</timebase>
									</rate>
									<in>38389</in>
									<out>38476</out>
									<start>8294</start>
									<end>8381</end>
									<masterclipid>Raw Scene Matthew Duepner Walkabout234</masterclipid>
									<logginginfo>
										<scene/>
										<shottake/>
										<lognote/>
										<good>FALSE</good>
									</logginginfo>
									<labels>
										<label2/>
									</labels>
									<comments>
										<mastercomment1/>
										<mastercomment2/>
										<mastercomment3/>
										<mastercomment4/>
									</comments>
									<file id="YIN_2013-05-28_LG-4 "/>
									<filter>
										<effect>
											<name>Audio Levels</name>
											<effectid>audiolevels</effectid>
											<effectcategory>audiolevels</effectcategory>
											<effecttype>audiolevels</effecttype>
											<mediatype>audio</mediatype>
											<parameter>
												<name>Level</name>
												<parameterid>level</parameterid>
												<valuemin>0</valuemin>
												<valuemax>3.98109</valuemax>
												<value>1.78342</value>
											</parameter>
										</effect>
									</filter>
									<filter>
										<effect>
											<name>Audio Pan</name>
											<effectid>audiopan</effectid>
											<effectcategory>audiopan</effectcategory>
											<effecttype>audiopan</effecttype>
											<mediatype>audio</mediatype>
											<parameter>
												<name>Pan</name>
												<parameterid>pan</parameterid>
												<valuemin>-1</valuemin>
												<valuemax>1</valuemax>
												<value>-0</value>
											</parameter>
										</effect>
									</filter>
									<sourcetrack>
										<mediatype>audio</mediatype>
										<trackindex>2</trackindex>
									</sourcetrack>
									<link>
										<linkclipref>Raw Scene Matthew Duepner Walkabout468</linkclipref>
										<mediatype>video</mediatype>
										<trackindex>2</trackindex>
										<clipindex>58</clipindex>
									</link>
									<link>
										<linkclipref>Raw Scene Matthew Duepner Walkabout469</linkclipref>
										<mediatype>audio</mediatype>
										<trackindex>5</trackindex>
										<clipindex>53</clipindex>
										<groupindex>1</groupindex>
									</link>
									<link>
										<linkclipref>Raw Scene Matthew Duepner Walkabout470</linkclipref>
										<mediatype>audio</mediatype>
										<trackindex>6</trackindex>
										<clipindex>53</clipindex>
										<groupindex>1</groupindex>
									</link>
									<itemhistory>
										<uuid>3D47B7DE-297B-496C-8D9A-442EFCB2CDF8</uuid>
									</itemhistory>
								</clipitem>
								<enabled>TRUE</enabled>
								<locked>FALSE</locked>
								<outputchannelindex>2</outputchannelindex>
							</track>
							<track>
								<clipitem id="malicore-1517119.wav">
									<name>malicore-1517119.wav</name>
									<duration>4488</duration>
									<rate>
										<ntsc>TRUE</ntsc>
										<timebase>24</timebase>
									</rate>
									<in>0</in>
									<out>3360</out>
									<start>0</start>
									<end>3360</end>
									<masterclipid>malicore-1517119.wav1</masterclipid>
									<logginginfo>
										<scene/>
										<shottake/>
										<lognote/>
										<good>FALSE</good>
									</logginginfo>
									<labels>
										<label2/>
									</labels>
									<comments>
										<mastercomment1/>
										<mastercomment2/>
										<mastercomment3/>
										<mastercomment4/>
									</comments>
									<file id="malicore-1517119 ">
										<name>malicore-1517119.wav</name>
										<rate>
											<timebase>30</timebase>
											<ntsc>TRUE</ntsc>
										</rate>
										<duration>5610</duration>
										<timecode>
											<rate>
												<timebase>30</timebase>
												<ntsc>TRUE</ntsc>
											</rate>
											<string>00:00:00;00</string>
											<frame>0</frame>
											<displayformat>DF</displayformat>
											<source>source</source>
										</timecode>
										<media>
											<audio>
												<samplecharacteristics>
													<samplerate>48000</samplerate>
													<depth>16</depth>
												</samplecharacteristics>
												<duration>5610</duration>
												<channelcount>1</channelcount>
												<layout>mono</layout>
												<audiochannel>
													<sourcechannel>1</sourcechannel>
													<channellabel>discrete</channellabel>
												</audiochannel>
											</audio>
											<audio>
												<samplecharacteristics>
													<samplerate>48000</samplerate>
													<depth>16</depth>
												</samplecharacteristics>
												<duration>5610</duration>
												<channelcount>1</channelcount>
												<layout>mono</layout>
												<audiochannel>
													<sourcechannel>2</sourcechannel>
													<channellabel>discrete</channellabel>
												</audiochannel>
											</audio>
										</media>
									</file>
									<filter>
										<effect>
											<name>Audio Levels</name>
											<effectid>audiolevels</effectid>
											<effectcategory>audiolevels</effectcategory>
											<effecttype>audiolevels</effecttype>
											<mediatype>audio</mediatype>
											<parameter>
												<name>Level</name>
												<parameterid>level</parameterid>
												<valuemin>0</valuemin>
												<valuemax>3.98109</valuemax>
												<value>1</value>
											</parameter>
										</effect>
									</filter>
									<filter>
										<effect>
											<name>Audio Pan</name>
											<effectid>audiopan</effectid>
											<effectcategory>audiopan</effectcategory>
											<effecttype>audiopan</effecttype>
											<mediatype>audio</mediatype>
											<parameter>
												<name>Pan</name>
												<parameterid>pan</parameterid>
												<valuemin>-1</valuemin>
												<valuemax>1</valuemax>
												<value>0</value>
											</parameter>
										</effect>
									</filter>
									<sourcetrack>
										<mediatype>audio</mediatype>
										<trackindex>1</trackindex>
									</sourcetrack>
									<link>
										<linkclipref>malicore-1517119.wav</linkclipref>
										<mediatype>audio</mediatype>
										<trackindex>7</trackindex>
										<clipindex>1</clipindex>
										<groupindex>1</groupindex>
									</link>
									<link>
										<linkclipref>malicore-1517119.wav2</linkclipref>
										<mediatype>audio</mediatype>
										<trackindex>8</trackindex>
										<clipindex>1</clipindex>
										<groupindex>1</groupindex>
									</link>
									<itemhistory>
										<uuid>5386C6CB-76AC-4019-AE6E-009812C344D4</uuid>
									</itemhistory>
								</clipitem>
								<clipitem id="malicore-1517119.wav3">
									<name>malicore-1517119.wav</name>
									<duration>4488</duration>
									<rate>
										<ntsc>TRUE</ntsc>
										<timebase>24</timebase>
									</rate>
									<in>3360</in>
									<out>3869</out>
									<start>3360</start>
									<end>-1</end>
									<masterclipid>malicore-1517119.wav1</masterclipid>
									<logginginfo>
										<scene/>
										<shottake/>
										<lognote/>
										<good>FALSE</good>
									</logginginfo>
									<labels>
										<label2/>
									</labels>
									<comments>
										<mastercomment1/>
										<mastercomment2/>
										<mastercomment3/>
										<mastercomment4/>
									</comments>
									<file id="malicore-1517119 "/>
									<filter>
										<effect>
											<name>Audio Levels</name>
											<effectid>audiolevels</effectid>
											<effectcategory>audiolevels</effectcategory>
											<effecttype>audiolevels</effecttype>
											<mediatype>audio</mediatype>
											<parameter>
												<name>Level</name>
												<parameterid>level</parameterid>
												<valuemin>0</valuemin>
												<valuemax>3.98109</valuemax>
												<value>1</value>
											</parameter>
										</effect>
									</filter>
									<filter>
										<effect>
											<name>Audio Pan</name>
											<effectid>audiopan</effectid>
											<effectcategory>audiopan</effectcategory>
											<effecttype>audiopan</effecttype>
											<mediatype>audio</mediatype>
											<parameter>
												<name>Pan</name>
												<parameterid>pan</parameterid>
												<valuemin>-1</valuemin>
												<valuemax>1</valuemax>
												<value>0</value>
											</parameter>
										</effect>
									</filter>
									<sourcetrack>
										<mediatype>audio</mediatype>
										<trackindex>1</trackindex>
									</sourcetrack>
									<link>
										<linkclipref>malicore-1517119.wav3</linkclipref>
										<mediatype>audio</mediatype>
										<trackindex>7</trackindex>
										<clipindex>2</clipindex>
										<groupindex>1</groupindex>
									</link>
									<link>
										<linkclipref>malicore-1517119.wav4</linkclipref>
										<mediatype>audio</mediatype>
										<trackindex>8</trackindex>
										<clipindex>2</clipindex>
										<groupindex>1</groupindex>
									</link>
									<itemhistory>
										<uuid>7AF1EF80-3304-4784-A483-06993F5CA855</uuid>
									</itemhistory>
								</clipitem>
								<transitionitem>
									<rate>
										<ntsc>TRUE</ntsc>
										<timebase>24</timebase>
									</rate>
									<start>3360</start>
									<end>3869</end>
									<alignment>end-black</alignment>
									<effect>
										<name>Cross Fade ( 0dB)</name>
										<effectid>KGAudioTransCrossFade0dB</effectid>
										<effecttype>transition</effecttype>
										<mediatype>audio</mediatype>
										<startratio>0</startratio>
										<endratio>1</endratio>
										<reverse>FALSE</reverse>
									</effect>
								</transitionitem>
								<clipitem id="The_D_Drop.wav">
									<name>The_D_Drop.wav</name>
									<duration>4330</duration>
									<rate>
										<ntsc>TRUE</ntsc>
										<timebase>24</timebase>
									</rate>
									<in>0</in>
									<out>4330</out>
									<start>3869</start>
									<end>8199</end>
									<masterclipid>The_D_Drop.wav1</masterclipid>
									<logginginfo>
										<scene/>
										<shottake/>
										<lognote/>
										<good>FALSE</good>
									</logginginfo>
									<labels>
										<label2/>
									</labels>
									<comments>
										<mastercomment1/>
										<mastercomment2/>
										<mastercomment3/>
										<mastercomment4/>
									</comments>
									<file id="The_D_Drop">
										<name>The_D_Drop.wav</name>
										<rate>
											<timebase>30</timebase>
											<ntsc>TRUE</ntsc>
										</rate>
										<duration>5413</duration>
										<timecode>
											<rate>
												<timebase>30</timebase>
												<ntsc>TRUE</ntsc>
											</rate>
											<string>00:00:00;00</string>
											<frame>0</frame>
											<displayformat>DF</displayformat>
											<source>source</source>
										</timecode>
										<media>
											<audio>
												<samplecharacteristics>
													<samplerate>48000</samplerate>
													<depth>16</depth>
												</samplecharacteristics>
												<duration>5413</duration>
												<channelcount>1</channelcount>
												<layout>mono</layout>
												<audiochannel>
													<sourcechannel>1</sourcechannel>
													<channellabel>discrete</channellabel>
												</audiochannel>
											</audio>
											<audio>
												<samplecharacteristics>
													<samplerate>48000</samplerate>
													<depth>16</depth>
												</samplecharacteristics>
												<duration>5413</duration>
												<channelcount>1</channelcount>
												<layout>mono</layout>
												<audiochannel>
													<sourcechannel>2</sourcechannel>
													<channellabel>discrete</channellabel>
												</audiochannel>
											</audio>
										</media>
									</file>
									<filter>
										<effect>
											<name>Audio Levels</name>
											<effectid>audiolevels</effectid>
											<effectcategory>audiolevels</effectcategory>
											<effecttype>audiolevels</effecttype>
											<mediatype>audio</mediatype>
											<parameter>
												<name>Level</name>
												<parameterid>level</parameterid>
												<valuemin>0</valuemin>
												<valuemax>3.98109</valuemax>
												<keyframe>
													<when>24</when>
													<value>1.99526</value>
												</keyframe>
												<keyframe>
													<when>37</when>
													<value>1.23953</value>
												</keyframe>
												<interpolation>
													<name>FCPCurve</name>
												</interpolation>
												<value>1</value>
											</parameter>
										</effect>
									</filter>
									<filter>
										<effect>
											<name>Audio Pan</name>
											<effectid>audiopan</effectid>
											<effectcategory>audiopan</effectcategory>
											<effecttype>audiopan</effecttype>
											<mediatype>audio</mediatype>
											<parameter>
												<name>Pan</name>
												<parameterid>pan</parameterid>
												<valuemin>-1</valuemin>
												<valuemax>1</valuemax>
												<value>0</value>
											</parameter>
										</effect>
									</filter>
									<sourcetrack>
										<mediatype>audio</mediatype>
										<trackindex>1</trackindex>
									</sourcetrack>
									<link>
										<linkclipref>The_D_Drop.wav</linkclipref>
										<mediatype>audio</mediatype>
										<trackindex>7</trackindex>
										<clipindex>4</clipindex>
										<groupindex>1</groupindex>
									</link>
									<link>
										<linkclipref>The_D_Drop.wav2</linkclipref>
										<mediatype>audio</mediatype>
										<trackindex>8</trackindex>
										<clipindex>4</clipindex>
										<groupindex>1</groupindex>
									</link>
									<itemhistory>
										<uuid>A4D196BA-A08D-4693-8148-34BFFB426252</uuid>
									</itemhistory>
								</clipitem>
								<enabled>TRUE</enabled>
								<locked>FALSE</locked>
								<outputchannelindex>1</outputchannelindex>
							</track>
							<track>
								<clipitem id="malicore-1517119.wav2">
									<name>malicore-1517119.wav</name>
									<duration>4488</duration>
									<rate>
										<ntsc>TRUE</ntsc>
										<timebase>24</timebase>
									</rate>
									<in>0</in>
									<out>3360</out>
									<start>0</start>
									<end>3360</end>
									<masterclipid>malicore-1517119.wav1</masterclipid>
									<logginginfo>
										<scene/>
										<shottake/>
										<lognote/>
										<good>FALSE</good>
									</logginginfo>
									<labels>
										<label2/>
									</labels>
									<comments>
										<mastercomment1/>
										<mastercomment2/>
										<mastercomment3/>
										<mastercomment4/>
									</comments>
									<file id="malicore-1517119 "/>
									<filter>
										<effect>
											<name>Audio Levels</name>
											<effectid>audiolevels</effectid>
											<effectcategory>audiolevels</effectcategory>
											<effecttype>audiolevels</effecttype>
											<mediatype>audio</mediatype>
											<parameter>
												<name>Level</name>
												<parameterid>level</parameterid>
												<valuemin>0</valuemin>
												<valuemax>3.98109</valuemax>
												<value>1</value>
											</parameter>
										</effect>
									</filter>
									<filter>
										<effect>
											<name>Audio Pan</name>
											<effectid>audiopan</effectid>
											<effectcategory>audiopan</effectcategory>
											<effecttype>audiopan</effecttype>
											<mediatype>audio</mediatype>
											<parameter>
												<name>Pan</name>
												<parameterid>pan</parameterid>
												<valuemin>-1</valuemin>
												<valuemax>1</valuemax>
												<value>-0</value>
											</parameter>
										</effect>
									</filter>
									<sourcetrack>
										<mediatype>audio</mediatype>
										<trackindex>2</trackindex>
									</sourcetrack>
									<link>
										<linkclipref>malicore-1517119.wav</linkclipref>
										<mediatype>audio</mediatype>
										<trackindex>7</trackindex>
										<clipindex>1</clipindex>
										<groupindex>1</groupindex>
									</link>
									<link>
										<linkclipref>malicore-1517119.wav2</linkclipref>
										<mediatype>audio</mediatype>
										<trackindex>8</trackindex>
										<clipindex>1</clipindex>
										<groupindex>1</groupindex>
									</link>
									<itemhistory>
										<uuid>2651517F-16C2-4F19-8F87-DD07868CFCFB</uuid>
									</itemhistory>
								</clipitem>
								<clipitem id="malicore-1517119.wav4">
									<name>malicore-1517119.wav</name>
									<duration>4488</duration>
									<rate>
										<ntsc>TRUE</ntsc>
										<timebase>24</timebase>
									</rate>
									<in>3360</in>
									<out>3869</out>
									<start>3360</start>
									<end>-1</end>
									<masterclipid>malicore-1517119.wav1</masterclipid>
									<logginginfo>
										<scene/>
										<shottake/>
										<lognote/>
										<good>FALSE</good>
									</logginginfo>
									<labels>
										<label2/>
									</labels>
									<comments>
										<mastercomment1/>
										<mastercomment2/>
										<mastercomment3/>
										<mastercomment4/>
									</comments>
									<file id="malicore-1517119 "/>
									<filter>
										<effect>
											<name>Audio Levels</name>
											<effectid>audiolevels</effectid>
											<effectcategory>audiolevels</effectcategory>
											<effecttype>audiolevels</effecttype>
											<mediatype>audio</mediatype>
											<parameter>
												<name>Level</name>
												<parameterid>level</parameterid>
												<valuemin>0</valuemin>
												<valuemax>3.98109</valuemax>
												<value>1</value>
											</parameter>
										</effect>
									</filter>
									<filter>
										<effect>
											<name>Audio Pan</name>
											<effectid>audiopan</effectid>
											<effectcategory>audiopan</effectcategory>
											<effecttype>audiopan</effecttype>
											<mediatype>audio</mediatype>
											<parameter>
												<name>Pan</name>
												<parameterid>pan</parameterid>
												<valuemin>-1</valuemin>
												<valuemax>1</valuemax>
												<value>-0</value>
											</parameter>
										</effect>
									</filter>
									<sourcetrack>
										<mediatype>audio</mediatype>
										<trackindex>2</trackindex>
									</sourcetrack>
									<link>
										<linkclipref>malicore-1517119.wav3</linkclipref>
										<mediatype>audio</mediatype>
										<trackindex>7</trackindex>
										<clipindex>2</clipindex>
										<groupindex>1</groupindex>
									</link>
									<link>
										<linkclipref>malicore-1517119.wav4</linkclipref>
										<mediatype>audio</mediatype>
										<trackindex>8</trackindex>
										<clipindex>2</clipindex>
										<groupindex>1</groupindex>
									</link>
									<itemhistory>
										<uuid>11C517A0-B53F-4CA3-A460-AF37254CF160</uuid>
									</itemhistory>
								</clipitem>
								<transitionitem>
									<rate>
										<ntsc>TRUE</ntsc>
										<timebase>24</timebase>
									</rate>
									<start>3360</start>
									<end>3869</end>
									<alignment>end-black</alignment>
									<effect>
										<name>Cross Fade ( 0dB)</name>
										<effectid>KGAudioTransCrossFade0dB</effectid>
										<effecttype>transition</effecttype>
										<mediatype>audio</mediatype>
										<startratio>0</startratio>
										<endratio>1</endratio>
										<reverse>FALSE</reverse>
									</effect>
								</transitionitem>
								<clipitem id="The_D_Drop.wav2">
									<name>The_D_Drop.wav</name>
									<duration>4330</duration>
									<rate>
										<ntsc>TRUE</ntsc>
										<timebase>24</timebase>
									</rate>
									<in>0</in>
									<out>4330</out>
									<start>3869</start>
									<end>8199</end>
									<masterclipid>The_D_Drop.wav1</masterclipid>
									<logginginfo>
										<scene/>
										<shottake/>
										<lognote/>
										<good>FALSE</good>
									</logginginfo>
									<labels>
										<label2/>
									</labels>
									<comments>
										<mastercomment1/>
										<mastercomment2/>
										<mastercomment3/>
										<mastercomment4/>
									</comments>
									<file id="The_D_Drop"/>
									<filter>
										<effect>
											<name>Audio Levels</name>
											<effectid>audiolevels</effectid>
											<effectcategory>audiolevels</effectcategory>
											<effecttype>audiolevels</effecttype>
											<mediatype>audio</mediatype>
											<parameter>
												<name>Level</name>
												<parameterid>level</parameterid>
												<valuemin>0</valuemin>
												<valuemax>3.98109</valuemax>
												<keyframe>
													<when>24</when>
													<value>1.99526</value>
												</keyframe>
												<keyframe>
													<when>37</when>
													<value>1.23953</value>
												</keyframe>
												<interpolation>
													<name>FCPCurve</name>
												</interpolation>
												<value>1</value>
											</parameter>
										</effect>
									</filter>
									<filter>
										<effect>
											<name>Audio Pan</name>
											<effectid>audiopan</effectid>
											<effectcategory>audiopan</effectcategory>
											<effecttype>audiopan</effecttype>
											<mediatype>audio</mediatype>
											<parameter>
												<name>Pan</name>
												<parameterid>pan</parameterid>
												<valuemin>-1</valuemin>
												<valuemax>1</valuemax>
												<value>-0</value>
											</parameter>
										</effect>
									</filter>
									<sourcetrack>
										<mediatype>audio</mediatype>
										<trackindex>2</trackindex>
									</sourcetrack>
									<link>
										<linkclipref>The_D_Drop.wav</linkclipref>
										<mediatype>audio</mediatype>
										<trackindex>7</trackindex>
										<clipindex>4</clipindex>
										<groupindex>1</groupindex>
									</link>
									<link>
										<linkclipref>The_D_Drop.wav2</linkclipref>
										<mediatype>audio</mediatype>
										<trackindex>8</trackindex>
										<clipindex>4</clipindex>
										<groupindex>1</groupindex>
									</link>
									<itemhistory>
										<uuid>14789ED1-5682-493E-B707-9F4A0AAC0711</uuid>
									</itemhistory>
								</clipitem>
								<enabled>TRUE</enabled>
								<locked>FALSE</locked>
								<outputchannelindex>2</outputchannelindex>
							</track>
						</audio>
					</media>
					<ismasterclip>FALSE</ismasterclip>
				</sequence>
			</children>
		</bin>
	</children>
</bin>
</xmeml>


